<svg viewBox="0 0 321 221" fill="none" xmlns="http://www.w3.org/2000/svg"><path d="M244.9 69.8c-.34.75-.55 1.48-.96 2.08a9.72 9.72 0 0 1-1.98 2.34c-4.16 3.24-8.7 5.78-13.88 7.02-.86.2-1.74.33-2.62.4a3.9 3.9 0 0 1-1.52-.12c-1.27-.37-1.65-1.6-.77-2.59.73-.81 1.54-1.58 2.42-2.25a6.52 6.52 0 0 0 1.82-2.18c.5-.98 1.04-1.94 1.54-2.93.16-.3.24-.65.39-1.07-1.44-.46-2.78-.8-4.06-1.31-1.28-.51-2.5-1.18-3.9-1.85-1.72 5.84-3.8 11.4-7.8 15.9.2.7.72.6 1.09.72 1.74.57 3.53 1.02 5.25 1.66.73.27 1.43.78 1.98 1.35 2.5 2.6 4.28 5.62 4.7 9.28.2 1.68.37 3.36.46 5.05a6.3 6.3 0 0 1-1.9 4.8 17.22 17.22 0 0 1-3.92 3.21c-.57.33-1.13.69-1.69 1.05-2 1.28-4.12 2.27-6.5 2.64-.7.11-1.4.37-2.11.57-.28 1.05-.16 2-.17 2.95-.06 4.2-.4 8.38-1.44 12.47a42.32 42.32 0 0 1-2.66 7.47 16.1 16.1 0 0 1-5.37 6.33c-.6.43-1.24.82-1.93 1.06-1.2.41-2.22 1.07-3.2 1.88-1 .85-2.09 1.63-3.19 2.37a30.26 30.26 0 0 1-12.18 4.96c-.72.11-1.42.31-2.13.47a9.78 9.78 0 0 0 .07 3.96c.76-.05 1.5-.05 2.21-.16 2.65-.36 5.3-.25 7.95-.06 2.94.2 5.86.54 8.7 1.43a19.2 19.2 0 0 1 4.02 1.8c4.37 2.57 7.63 6.21 10.22 10.5a37.22 37.22 0 0 1 5.05 14.47c.1.8.28 1.6.4 2.4.6 4.12.33 8.21-.53 12.28-.2.93-.29 1.89-.33 2.83-.16 3.16-.24 6.33-.42 9.48-.06 1.03-.32 2.03-.51 3.05-.18.9-.72 1.44-1.66 1.5-2.5.17-4.88 1.06-7.4 1.12-2.43.06-4.85.4-7.28.6-.88.06-1.76.06-2.65.07-7.08.02-14.16.11-21.24.03-9.8-.11-19.61-.3-29.41-.57-7.02-.2-7.02-.27-14.25 1.17-1.45.28-2.9.49-4.37.66-2.34.28-4.7.47-7.04.76a24 24 0 0 1-7.7-.4 18.76 18.76 0 0 1-3.73-1.3 2.5 2.5 0 0 1-1.05-1.08c-.31-.57-.48-1.23-.67-1.85a68.4 68.4 0 0 1-3.2-20.65c.03-13.55 5.72-24.24 16.84-32.03a21.2 21.2 0 0 1 3.07-1.76 57.1 57.1 0 0 1 9.91-3.72 23.3 23.3 0 0 1 7.19-.98c.42-1.15.64-3.52.5-5.68-.66-.48-1.5-.43-2.28-.52a58.01 58.01 0 0 1-11.25-2.26c-2.03-.65-4.02-1.42-6.03-2.14a9.7 9.7 0 0 1-4.85-4 29.22 29.22 0 0 1-4.51-11.41c-.24-1.38-.4-2.77-.58-4.15a270.6 270.6 0 0 1-1.94-20.87 73.83 73.83 0 0 1-.14-4.41c.02-5-.2-10 .2-15.04-.88-.38-1.74-.25-2.6-.03a8.07 8.07 0 0 0-3.31 1.69c-.72.62-1.4 1.3-2.1 1.96-4.67 4.34-4.4 10.97-2.47 15.1 1.24 2.64 3.31 4.46 5.86 5.79.74.4 1.54.48 2.36.46.37-.02.75-.13 1.1-.07.23.04.55.29.6.5.07.22-.09.55-.23.78-.1.17-.33.3-.53.37a5.43 5.43 0 0 1-4.5.15c-4.29-1.87-7.56-4.77-9.47-9.1a14.04 14.04 0 0 1-1-7.56 16.84 16.84 0 0 1 2.97-7.75 9.61 9.61 0 0 1 5.42-3.95c2.12-.59 4.22-1.27 6.56-1.3-.13-.53-.2-.96-.33-1.37-1.84-5.28-3.69-10.55-5.51-15.83a5.3 5.3 0 0 0-1.1-1.87 72.94 72.94 0 0 1-8.58-12.03 22.42 22.42 0 0 1-2.7-7.9c-.96-6.12-1.4-12.28-.54-18.46a46.73 46.73 0 0 1 5.79-16.8c.43-.77.99-1.47 1.53-2.16.99-1.28 2.25-1.86 3.85-1.35.83-.53 1.61-1.09 2.44-1.57a4.66 4.66 0 0 1 4.84.03c.33.17.63.38.92.6a8.68 8.68 0 0 0 4.32 1.53c4.27.51 8.54.42 12.82.28 3.17-.11 6.33-.24 9.5-.29a85.2 85.2 0 0 0 13.62-1.48c2.03-.37 4.06-.78 6.1-1.03 2.5-.3 4.92-.92 7.31-1.67a49.33 49.33 0 0 1 13.26-2.25c3.85-.12 7.65.3 11.36 1.4a46.12 46.12 0 0 1 23.2 15.4c.5.63.97 1.3 1.44 1.96.42.6.81 1.2 1.29 1.9a21 21 0 0 0 3.91-3.26 30.4 30.4 0 0 1 6.41-5.39 17.66 17.66 0 0 1 9.6-2.92c4.34-.04 8.7-.05 13.04-.07 4 0 7.72 1.06 11.15 3.1.95.57 1.93 1.12 2.74 1.86 5.69 5.15 9.55 11.3 10.57 19.07.54 4.12.04 8.07-1.36 11.93-.58 1.6-1.04 3.2-1.4 4.87a30.03 30.03 0 0 1-6.19 12.8 13.7 13.7 0 0 1-4.98 3.92c-3.58 1.64-7.25 2.9-11.22 3.08-.22 0-.44.07-.83.13Zm-33.62-48.13c.43-.44.07-.94.1-1.4l-.84-.56c.06.66.37.8.84.57-.4.43-.18.9-.08 1.38l.5.2-.02-.3-.5.12Zm-82.37 139.55-.57.68c-.8-.19-1.43.27-2.1.55-6.52 2.76-11.4 7.42-15.18 13.3-5.38 8.36-6.32 17.54-5.08 27.13.05.44.16.86.23 1.3l.19 1.05c.11-.75.2-1.5.1-2.2-.42-3-.36-6.02-.25-9.02a29.46 29.46 0 0 1 3.23-12.27c1.29-2.55 2.83-4.98 4.34-7.42 1.33-2.13 3-4 4.85-5.7a33.92 33.92 0 0 1 7.35-5.22c.82-.42 1.78-.66 2.29-1.55.44.05.8 0 .6-.6.06-.03.12-.07.18-.07.07 0 .14.04.2.07l-.38-.03Zm108.56-85.56c.41-.84 1.32-1.08 2-1.6.97-.77 2.04-1.43 2.7-2.5.14-.23.14-.55.24-.98l-5.09 4.45.15.65c-.11-.1-.2-.22-.33-.27-.09-.03-.21.05-.32.07.08.05.17.11.26.14.12.03.26.03.39.05Zm-70.65 106.97c1.6 0 2.73-.96 3.76-1.96 1.73-1.7 3-3.75 3.95-5.99.22-.5.28-.97.08-1.46.13.03.27.06.4.07.02 0 .06-.11.08-.17l-.44.13c-.7 1.2-1.38 2.4-2.09 3.58a13.97 13.97 0 0 1-5.03 5.09c-.28.16-.46.49-.68.74l-.56.04c-.05 0-.13.08-.12.1 0 .07.06.16.11.17.28.05.52.02.54-.34Zm-53.72-100.82c-.2.16-.57.3-.6.5-.5 2.74-1.03 5.48-1.03 8.28 0 3.53 0 7.05.03 10.58 0 .78.09 1.56.13 2.35.38-3.37.57-6.74.75-10.1.18-3.6.34-7.2.53-10.8 0-.28.1-.56.15-.87l.08-1.57c-.1 0-.19 0-.29.02l.25 1.6Zm135.6-14.47c.59-.04 1.19.02 1.73-.13 1.2-.34 2.38-.78 3.57-1.16a14.82 14.82 0 0 0 8.35-6.8c.11-.2.48-.42.05-.78l-.78.74a22.33 22.33 0 0 1-6.35 4.7c-1.78.86-3.56 1.74-5.33 2.64-.43.22-1.03.23-1.2.84l-.45.19c.06.02.15.07.17.05.1-.08.16-.19.24-.3v.01Zm-82.85-9.82c.73.4 1.44.12 2.14-.06a29.83 29.83 0 0 0 9.64-4.27c1.45-1 2.92-2.02 4.49-2.82 3.34-1.68 6.83-2.24 10.44-.78.16.06.39-.03.75-.06a7.89 7.89 0 0 0-5.9-1.76 21.7 21.7 0 0 0-8.62 2.57c-2.97 1.63-5.9 3.32-8.85 4.98-1.35.75-2.7 1.5-4.03 2.26l-.28.27.18.03.04-.37Zm62.76 10.9c.36 0 .74.4 1.31-.23-.62.13-1 .21-1.36.3-.16-.23-.26-.52-.47-.64-.9-.52-1.84-.94-2.7-1.49-1.75-1.1-3.44-2.27-5.18-3.39a33.55 33.55 0 0 1-5.35-4.25 14.48 14.48 0 0 1-3.08-4.27 32.33 32.33 0 0 1-2.9-10.8c-.5-5.68.46-11.13 2.53-16.42.18-.47.62-.94.31-1.65-.26.33-.46.54-.62.78a26.23 26.23 0 0 0-3.8 18.59c.66 4.36 2.44 8.3 4.78 12a18.8 18.8 0 0 0 5.25 5.6c2.19 1.5 4.46 2.86 6.73 4.22 1.4.84 2.91 1.4 4.55 1.66Zm-115.02 34.19c-.16 2.93-.3 5.88-.5 8.81-.24 3.69-.13 7.36.13 11.03a9 9 0 0 0 .4 2.16 67.1 67.1 0 0 0 4.1 10c2.92 5.7 7.36 9.64 13.57 11.55 3.11.96 6.27 1.64 9.5 2.05 3.43.43 6.86.9 10.3 1.34.94.12 1.9.29 2.84.3 4.95 0 9.89-.33 14.77-1.05a284 284 0 0 0 15.24-2.67c3.96-.8 7.86-1.93 11.8-2.9.83-.2 1.41-.7 1.96-1.33a27.26 27.26 0 0 0 5.87-11.73c1.38-5.9 1.93-11.9 2.2-17.94.07-1.47.05-2.94.15-4.4.5-7.72.77-15.44.71-23.17 0-.8-.07-1.62-.17-2.42-.37-2.7-.75-5.39-1.15-8.08a46.49 46.49 0 0 0-5.72-16.35c-1.77-3.08-4.47-5.02-7.53-6.58-1-.5-2.08-.7-3.2-.71-2.43-.04-4.7.47-6.76 1.76-1.18.74-2.38 1.48-3.51 2.28-2 1.41-4.16 2.54-6.46 3.36-3.33 1.2-6.73 2.21-10.34 1.95-.96-.07-1.9-.33-2.85-.33a10.7 10.7 0 0 1-5.04-1.47 29.37 29.37 0 0 1-3.54-2.24 41.52 41.52 0 0 0-8.3-4.6 17.8 17.8 0 0 0-8.16-1.56 15.35 15.35 0 0 0-13.07 7.77 28.35 28.35 0 0 0-2.67 6.05 59.96 59.96 0 0 0-2 8.6c-.7 4.35-1.46 8.7-1.66 13.12-.27 5.8-.6 11.6-.9 17.42v-.02Zm97.1-78.65a42.74 42.74 0 0 0-6.33-9.58c-5.05-5.7-11.17-9.55-18.77-10.8-2.1-.33-4.25-.45-6.38-.5-5.4-.1-10.73.72-16.08 1.3-1.53.18-3.09.44-4.54.93-5.52 1.87-11.2 3.16-16.86 4.5a70.83 70.83 0 0 1-21.5 1.97c-1.9-.14-3.81-.34-5.72-.46a28.9 28.9 0 0 1-9.04-1.94 17.63 17.63 0 0 0-3.97-1.24 19.46 19.46 0 0 0-3.67 5.83 44.18 44.18 0 0 0-3.52 16.96c-.02 4.27.48 8.5 1.22 12.73 1.2 6.81 4.78 12.1 10.09 16.33a4.1 4.1 0 0 1 1.62 2.5c.5 2.38 1.06 4.74 1.57 7.11.33 1.51.59 3.03.92 4.54.31 1.34.65 1.85 1.86 3.1.1-.1.23-.19.26-.3 1.1-3.74 2.16-7.5 3.26-11.23.43-1.48.9-2.96 1.42-4.41a19.53 19.53 0 0 1 6.35-9.09c3.1-2.42 6.45-4.1 10.44-4.35 4.44-.28 8.62.75 12.62 2.61 2.75 1.28 5.25 2.99 7.75 4.68 1.3.87 2.63 1.6 4.09 2.18a5.8 5.8 0 0 0 4.1.1c.7-.22 1.38-.51 2.03-.84 1.9-.97 3.8-1.95 5.67-2.98 2.91-1.6 5.78-3.24 8.68-4.85a24.15 24.15 0 0 1 7.52-2.5c4.1-.74 7.56.55 10.48 3.42 1.25 1.24 2.44 2.56 3.76 3.73 2.78 2.48 4.48 5.6 5.79 9.01a39.87 39.87 0 0 1 2.45 13.4c.06 2.27.05 4.56.1 6.84 0 .4-.14.9.49 1.16.19-.16.44-.32.6-.53 3.92-4.86 7.12-10.11 8.9-16.14.13-.48.19-.98.3-1.57-7.2-4.47-11.03-11.21-12.77-19.16-1.77-8.1 0-15.63 4.8-22.45Zm-32.35 136.16c-.1 1.38-.2 2.47-.25 3.56-.06 1.25-.03 2.5-.1 3.75-.22 5.12-2.17 9.56-5.36 13.5a11.47 11.47 0 0 1-5.22 3.56 21.7 21.7 0 0 1-5.4 1.05 9.6 9.6 0 0 1-5.76-1.18c-.96-.55-1.9-1.14-2.91-1.58a17.13 17.13 0 0 1-9.25-9.6 34.98 34.98 0 0 1-2.86-13.07c0-.42.08-.89-.43-1.16-.85.33-1.71.7-2.6 1-1.1.38-2.25.66-3.36 1.06-2.86 1.02-5.47 2.55-8.14 3.95a30.62 30.62 0 0 0-11.66 10.56 93.36 93.36 0 0 0-3.4 5.7 29.13 29.13 0 0 0-3.72 13.91c-.04 3.54.1 7.06.55 10.58.53 4.16 1.52 8.2 2.98 12.22 3.2.28 6.32.04 9.55-.6l-.1-1.3c-.18-1.54-.44-3.06-.52-4.6-.2-3.84.16-7.65.46-11.47 0-.14.02-.3.07-.43.12-.39.4-.6.81-.62.48-.02.9.12 1.08.59.1.27.13.57.14.86l.78 14.76c.03.64.1 1.28.16 1.94 1.03 0 1.9.04 2.76 0 3.68-.22 7.35-.44 11.03-.7.88-.06 1.75-.22 2.63-.36 4.22-.65 8.42-1.46 12.66-1.93 4.47-.5 8.97-.77 13.46-.96 8.93-.37 17.84-.19 26.69 1.22.58.1 1.17.13 1.76.16.64.03 1.29.29 2.08.05.23-1.38.27-2.76.4-4.14.27-2.63.59-5.26.89-7.89.07-.67.23-1.3.75-1.8.38-.36 1.13-.28 1.32.19.11.27.2.56.22.84.14 1.76.3 3.52.38 5.28.08 2.13.06 4.27.1 6.4.02.58-.05 1.2.5 1.62 3.63.54 7.24.7 8.91.33l.63-2.22c.73-2.62 1.28-5.31 2.25-7.84a21.27 21.27 0 0 0 1.47-8.83l.01-.66c-.03-4.63.07-9.27-.55-13.89a10.7 10.7 0 0 0-1.22-3.75c-1.22-2.26-2.47-4.51-3.66-6.8a8.54 8.54 0 0 0-3.23-3.53 22.72 22.72 0 0 0-3.14-1.61c-5.07-2.03-10.23-3.77-15.64-4.62-2.9-.46-5.8-.97-9-1.5Zm49.28-82.28c.2.05.35.15.47.11.5-.14 1-.27 1.46-.48a36.66 36.66 0 0 0 10.25-6.82c.7-.65 1.35-1.37 1.88-2.16a4.11 4.11 0 0 1 2.48-1.67c1.7-.48 3.38-1.05 4.99-1.76 2.08-.92 4.09-2.02 6.12-3.04 1.66-.84 3.09-2 4.45-3.25 2.98-2.77 4.93-6.2 6.5-9.89.57-1.38.93-2.77 1.05-4.26.2-2.72.05-5.43-.38-8.13a33.25 33.25 0 0 0-5.42-13.85c-3.85-5.63-9.03-9.16-15.77-10.4-3.59-.65-7.17-.93-10.75-.06a57.42 57.42 0 0 0-16.07 6.63 7.24 7.24 0 0 0-2.32 2.32c-5.23 7.98-7.4 16.67-5.4 26.08 1.6 7.5 3.33 9.68 9.05 13.74 2.16 1.53 4.42 2.93 6.64 4.38a5.78 5.78 0 0 0 3.74 1.12c.4-.04.82.16 1.2.24.07.33.17.55.15.75-.09.82-.11 1.58.7 2.13.2.14.22.68.16 1.01-.07.34-.31.66-.54.95-1.18 1.5-2.36 3-3.57 4.5-.44.55-.96 1.06-1.07 1.81Zm-81.94 74.08c-.27 2.78-.24 5.57.13 8.34.6 4.6 1.91 9.06 3.45 13.43a16.67 16.67 0 0 0 4.54 6.95c.66.6 1.38 1.03 2.27 1.26 1.68.44 3.34.48 5.05.38 3.6-.23 6.5-1.86 8.75-4.56a24.26 24.26 0 0 0 4.34-7.4c1.72-4.88 2.73-9.92 2.34-15.14-.03-.42-.17-.82-.29-1.32-.52 0-.96-.02-1.4 0-6.96.3-13.82-.46-20.62-1.96-2.68-.6-5.41-.38-8.13-.25-.07 0-.12.07-.43.27Zm65.23-40.5c.59.27 1.12-.02 1.66-.25 1.78-.72 3.51-1.55 5.31-2.17a5.75 5.75 0 0 0 2.99-2.47 12.68 12.68 0 0 0 1.7-3.81c.27-1 .5-2 .68-3.01.9-4.9-.92-8.78-4.52-12a2.66 2.66 0 0 0-2.24-.7c-1.97.28-3.95.47-5.91.78-.55.08-1.06.42-1.47.6l1.8 23.02Zm-111.87-103.68c-.2.18-.42.35-.58.56-.51.71-1.07 1.41-1.5 2.18a44.27 44.27 0 0 0-5.76 19.72c-.24 4.79.08 9.56.9 14.28.55 3.15 1.6 6.13 3.39 8.8 1.72 2.55 3.5 5.08 5.29 7.6a14.9 14.9 0 0 0 1.81 2.21c.95.9 1.5 1.95 1.91 3.16 1.68 4.94 3.42 9.86 5.15 14.79.15.45.41.86.81 1.67.07-2.17-.2-3.86-1.1-5.31a13 13 0 0 1-1.64-4.52c-.24-1.3-.47-2.6-.74-3.9-.41-1.94-.85-3.88-1.3-5.81-.17-.72-.4-1.38-1.08-1.85-2.14-1.48-3.77-3.5-5.42-5.47a22.68 22.68 0 0 1-4.48-8.53 55.12 55.12 0 0 1-2.04-17.9c.4-7.64 2.07-15 6.37-21.69Zm50.35 208.87c2.94.12 5.88.34 8.82.36 10.84.07 21.68.07 32.52.1 1.7 0 3.4 0 5.1-.02.22 0 .61.13.63-.4-.15-.1-.31-.28-.5-.31-13.18-2.09-26.42-2.09-39.7-.95-2.3.2-4.64.34-6.87 1.21Zm58.9-116.62h-.17c-.19 3.07-.47 6.14-.54 9.2-.12 5.53-.64 11-1.4 16.45a36.2 36.2 0 0 1-4.45 13.5c-.17.3-.5.58-.17 1.1.23-.15.48-.25.66-.43a14.36 14.36 0 0 0 3.22-4.69 42.35 42.35 0 0 0 3.43-14.04c.45-5.95.11-11.89-.25-17.83-.06-1.09-.21-2.18-.33-3.26Zm-15.69 45.89c-.21.03-.44.03-.64.09-4.46 1.25-9 2.15-13.56 2.9-3.33.56-6.66 1.15-10 1.66-1.59.25-3.2.35-4.8.55-.43.05-.84.23-1.71.5 1.46.13 2.41.2 3.36.3a50.2 50.2 0 0 0 17.95-1.06c3.51-.9 6.66-2.57 9.4-4.94Zm-89.48-139.17c2.95 1.05 5.62 2.36 8.6 2.63 4.02.37 8.06.78 12.1.9 5.24.16 10.43-.52 15.55-1.63.63-.14 1.23-.39 2.28-.72-3.43.13-6.36.26-9.3.36-2.14.06-4.28.03-6.4.15-3.84.22-7.66.17-11.48-.16-2.32-.2-4.46-.7-6.41-2.08-1.85-1.31-2.78-1.16-4.94.55Zm145.16 4.24 2.27.85a24.14 24.14 0 0 1 10.04 6.99c3.62 4.28 6.26 9.07 7.41 14.6.29 1.37.48 2.75.74 4.13.05.27.06.61.57.6.05-.25.13-.52.12-.78-.11-1.69-.13-3.39-.4-5.05-.53-3.36-1.52-6.6-3.46-9.45a67.2 67.2 0 0 0-3.99-5.28c-2.52-3.03-5.85-4.88-9.58-6.05a9.96 9.96 0 0 0-3.72-.55Zm-104.52 140.49c-.76.46-.7 1.1-.7 1.63-.03 3.16-.14 6.32.02 9.46.2 4 1.5 7.77 3.2 11.38.53 1.1 1.33 2.1 2.03 3.13.1.14.32.19.6.35-.66-1.75-1.32-3.36-1.87-5a76.8 76.8 0 0 1-1.48-5.07c-.46-1.77-.93-3.55-1.22-5.36-.28-1.73-.33-3.5-.5-5.25-.17-1.7.2-3.44-.09-5.27Zm60.2 13.15c-.21-.37-.27-.59-.41-.7a19.57 19.57 0 0 0-7.13-3.8c-3-.8-6.06-1.07-9.14-1.24-1.39-.07-2.78-.01-4.17-.01 2.3.82 4.7 1.05 7.03 1.62 2.28.55 4.54 1.17 6.8 1.8 2.31.63 4.47 1.75 7.01 2.33Zm-106.62-59.74c-.21-.99-.49-1.97-.62-2.96-.66-4.67.24-8.91 3.63-12.4.76-.8 1.58-1.54 2.35-2.32.16-.16.54-.28.27-.67-2.26.36-3.84 1.72-5.07 3.53-2 2.96-2.88 6.25-2.64 9.8a7.86 7.86 0 0 0 2.08 5.03Zm29.04 41.57.22-.3c-.43-.26-.86-.55-1.3-.8a19.68 19.68 0 0 1-5.8-5.01 30.45 30.45 0 0 1-3.97-6.32c-.19-.4-.45-.78-.76-1.3-.06.36-.13.52-.1.64.8 3.41 2.36 6.46 4.44 9.26a5.96 5.96 0 0 0 2.58 2c1.55.64 3.12 1.22 4.69 1.83Zm88.19 61.65a19.75 19.75 0 0 0-2.03 7.06c.41.32.8.24 1.3-.13.53-2.18.82-4.47.73-6.93Zm10.14-194.27 6.27-2.3c.26-.1.49-.25.73-.37-2.64.12-5 .9-7 2.68Zm-.8 90.57c1.41-1.1 1.68-2.5 1.01-4.1l-1.02 4.1Zm-25.07 110.28c.4-.77.4-1.5 0-2.17v2.17Zm-91.9-7.5h-.13v.88h.13v-.89Zm104.93-121.66-.05.31h.93v-.21l-.88-.1Zm-12.79 131.44v-.13h-.37v.13h.37Zm-90.06-.25.13.01-.05-.17-.07.15Zm-47.37-61.98c.22.68.38 1.4.67 2.05 1.32 2.95 2.66 5.9 4.03 8.83a9.45 9.45 0 0 0 2.3 2.94 22.4 22.4 0 0 1 2.08 2.27c.45.56.26 1.44-.3 1.97-.33.3-1.06.28-1.17-.1-.33-1.18-1.32-1.72-2.14-2.43a16.38 16.38 0 0 1-3.74-5.15 48.05 48.05 0 0 1-4.06-12.33c-.22-1.15-.36-2.32-.62-3.47-.24-1.07-.5-2.15-.91-3.16a62.1 62.1 0 0 1-4.25-16.85c-.68-5.86-.83-11.75-.86-17.63a56.07 56.07 0 0 0-3.33-18.16 20.36 20.36 0 0 0-10.1-11.8 6.45 6.45 0 0 0-4.04-.7 28.26 28.26 0 0 0-8.99 2.94 37.6 37.6 0 0 0-7.31 4.94 9.41 9.41 0 0 0-1.85 2.15c-1.32 2.13-2.6 4.29-3.77 6.5a34.39 34.39 0 0 0-4.1 13.87c-.18 2.86-.38 5.73-.4 8.59 0 3.84.5 7.63 1.86 11.26.4 1.1.77 2.23 1.1 3.36.11.34.17.73.1 1.06-.06.23-.34.47-.58.59-.15.07-.48-.01-.6-.14a2.65 2.65 0 0 1-.6-.9 177.9 177.9 0 0 1-1.58-4.6c-.37-1.1-.65-2.26-1.07-3.35a77.46 77.46 0 0 1-3.25-9.84c-.08-.34-.22-.67-.46-1.4-.24 1.03-.44 1.64-.52 2.26-.59 4.55-.79 9.1-.1 13.65.14.86.47 1.7.63 2.56.04.23-.12.6-.31.74-.32.25-.77.19-.97-.16-.32-.57-.67-1.17-.75-1.8-.3-2.47-.67-4.96-.7-7.45-.05-4.43.5-8.82 1.54-13.13.34-1.44.48-2.85.3-4.35-.4-3.32.12-6.6.54-9.89a24.8 24.8 0 0 1 5.67-12.73c4.48-5.5 10.22-8.56 17.39-8.67a10.5 10.5 0 0 0 3.84-.8 26.86 26.86 0 0 1 11.93-1.76c5.65.37 10.83 1.99 15.41 5.41a19.65 19.65 0 0 1 6.5 8.2 34.9 34.9 0 0 1 2.63 12.67c.13 4.2-.27 8.38-.7 12.56-.6 5.8-1.56 11.52-2.76 17.2-.42 2.02-1.02 4-1.58 5.98a34.29 34.29 0 0 0-1.5 9.33c0 1.05.19 2.02.66 2.98a91.43 91.43 0 0 0 7.89 13.27 32.51 32.51 0 0 0 5.07 5.52c1.5 1.3 2.93 2.7 4.35 4.08.47.45.88 1 1.23 1.54.12.18.04.58-.1.79-.24.35-.65.32-.99.13-.25-.15-.44-.38-.66-.58-1.82-1.73-3.6-3.49-5.46-5.16a30.45 30.45 0 0 1-4.85-5.42c-1.54-2.25-2.98-4.56-4.46-6.84l-1.02-1.56-.23.12h.02Zm1.44-34.97c.18-.2.48-.37.5-.58.15-.9.28-1.82-.18-2.69.2-.17.57-.32.59-.5.12-1.1.4-2.22-.04-3.32.4-.14.53-.46.57-.84.45-4.17.7-8.36.45-12.55-.25-4.08-1.13-8-2.95-11.69a15.64 15.64 0 0 0-3.84-5.06 24.7 24.7 0 0 0-11.31-5.7 33.85 33.85 0 0 0-9.9-.54c-1.47.14-2.96.36-4.34 1.05.18.2.26.37.38.4 2.32.7 4.59 1.6 7.08 1.53.66-.02 1.32.1 1.97.24 10.52 2.36 17.26 8.78 20.3 19.04a45.12 45.12 0 0 1 1.64 14.2c-.08.78-.15 1.56-.26 2.34-.07.48-.22.95-.3 1.46-.1 1.1-.21 2.18-.3 3.28-.32.97-.53 1.95-.14 2.96-.18.2-.46.35-.53.58a8.38 8.38 0 0 0-.36 1.92c-.06 1.37-.7 2.68-.29 4.1.38-2.21.77-4.43 1.14-6.65.31-.98.51-1.97.12-2.98Zm-51.78-21.59c-.54-.31-.83.04-1.07.41a42.86 42.86 0 0 0-5.19 11.17 4.52 4.52 0 0 0-.15 1.95c.43 2.46.93 4.9 1.44 7.34.06.3.12.74.57.67l.58-8.38a37.8 37.8 0 0 1 3.3-12.51c.1-.25.35-.44.53-.66l-.1-.5.08.51Zm46.92 43.85c.12-.85.17-1.18.2-1.51.41-3.5.74-7.02 1.24-10.52a426.7 426.7 0 0 1 2-12.4c1.05-5.98.81-11.9-.69-17.74-2.3-9-7.79-15.17-16.75-18.08-.4-.13-.83-.18-1.74-.39l1.56 1.5c3.17 2.95 5.78 6.32 7.08 10.5 1.9 6.13 3.26 12.36 3.28 18.84.01 5.88.16 11.77.9 17.62a60.88 60.88 0 0 0 2.22 10.57c.12.38.32.75.7 1.61Zm-53.71-36.77c.27-.22.35-.25.37-.3.18-.33.35-.65.5-.98a45.38 45.38 0 0 1 10.4-14.62 9.87 9.87 0 0 0 1.43-1.67c2-2.93 4.34-5.55 7.03-7.86.24-.2.4-.5.73-.88-.6 0-.97-.05-1.33 0-3.33.51-6.39 1.7-9.05 3.77-5.55 4.3-8.9 9.87-9.68 16.9-.2 1.8-.64 3.6-.4 5.64Zm18.09-21.5c.57-.15.79-.15.96-.25a34.22 34.22 0 0 1 8.08-3.49c.28-.08.52-.3 1.04-.62-1.27-.22-2.2-.44-3.15-.52a2.74 2.74 0 0 0-1.47.33 21.88 21.88 0 0 0-5.46 4.55Zm221.23 90.65-1.75 1.72c-.34.33-.75.48-1.2.33-.42-.14-.8-.73-.7-1.26.08-.5.22-1.02.48-1.44a34.39 34.39 0 0 1 5.04-6.68c4.25-4.2 8.67-8.19 13.43-11.8a27.2 27.2 0 0 1 12.44-5.36c4.95-.8 9.9-1.5 14.87-2.17 10.44-1.43 18.43-6.58 23.68-15.82a43.4 43.4 0 0 0 5.39-17.13c.17-1.68.35-3.37.35-5.06 0-1.09-.2-2.21-.54-3.24a39.77 39.77 0 0 0-5.14-9.73 5.48 5.48 0 0 0-1.66-1.42 30.58 30.58 0 0 0-6.2-2.88c-6.36-2.24-12.88-3.7-19.68-3.44a28.03 28.03 0 0 0-12.3 3.21c-1.24.66-2.44 1.37-3.66 2.05a8.1 8.1 0 0 0-3.64 4.02c-.1.26-.28.49-.38.66-.7.15-.95-.25-1.04-.67a4.68 4.68 0 0 1 .22-2.82 11.24 11.24 0 0 1 2.94-4.1 22.44 22.44 0 0 1 6.29-4.03 34.13 34.13 0 0 1 11.78-2.72 40.2 40.2 0 0 1 17.1 2.77c.67.26 1.35.5 2.5.93-.49-.59-.62-.8-.8-.96-6.28-5.1-13.51-7.09-21.49-6.21-4.55.5-8.65 2.31-12.22 5.24a45.31 45.31 0 0 0-7.34 7.92c-1.36 1.8-1.76 3.7-.42 5.72.24.38.45.8.03 1.2-.33.31-.86.13-1.27-.45a5.39 5.39 0 0 1-.66-5.24c.29-.81.76-1.6 1.28-2.3a45.51 45.51 0 0 1 6.5-7.2c5.89-5.09 12.67-7.18 20.45-6.42 7.8.76 14.13 4.3 19.6 9.68a29.21 29.21 0 0 0 3.64 3.19c1.7 1.2 3.04 2.77 4.14 4.53.66 1.06 1.4 2.08 2.1 3.11l1.25 1.82a15.6 15.6 0 0 1 2.7 6.92c.23 1.53.57 3.04.74 4.57.76 6.69.2 13.2-2.42 19.49-2 4.78-5.27 8.3-10.13 10.21a48.33 48.33 0 0 0-8.84 4.46c-1.1.72-2.34 1.25-3.56 1.76-4.89 2.07-9.78 4.11-14.69 6.1a53.27 53.27 0 0 1-5 1.72 76.55 76.55 0 0 0-12.17 4.65c-2.84 1.39-5.7 2.74-8.54 4.14-.73.35-1.4.8-2.12 1.18a13.07 13.07 0 0 0-5.78 5.58 9.23 9.23 0 0 1-1.38 1.98 1.7 1.7 0 0 1-1.17.43c-.28 0-.56-.38-1.04-.74Zm62.55-82.41.03.45.18-.01c-.1-.13-.17-.26-.26-.4a46.7 46.7 0 0 0-9.89-4.28 36.43 36.43 0 0 0-19.18-.88 25.9 25.9 0 0 0-9.85 4.26c-.63.46-1.28.9-1.72 1.57.39.3.62.02.85-.1.98-.52 1.94-1.06 2.9-1.59a29.75 29.75 0 0 1 11.57-3.37c4.75-.45 9.4.19 14.02 1.17 3.25.7 6.4 1.68 9.49 2.88.6.23 1.18.67 1.87.3Zm-52.59 72.7.13.22c.32-.14.65-.26.96-.4l8.34-4.04a74.22 74.22 0 0 1 12.57-4.76c1.42-.4 2.82-.86 4.18-1.42 4.83-1.98 9.64-4 14.46-6.03.4-.17.77-.43 1.37-.77-.43 0-.58-.02-.71 0-2.58.62-5.1 1.44-7.6 2.32-5.2 1.85-10.54 3.2-15.9 4.56a36.82 36.82 0 0 0-16.82 9.26c-.34.33-.65.7-.98 1.05Zm54.6-23.79c.2.12.26.2.31.2.22-.05.43-.1.62-.2a14.56 14.56 0 0 0 5.81-5.25 24.82 24.82 0 0 0 3.08-7.04 37.76 37.76 0 0 0 .7-16.8c-.36-1.86-.73-3.73-1.15-5.59-.1-.41-.4-.77-.62-1.16-.03 1.25.14 2.4.45 3.53.72 2.64.94 5.33.81 8.07-.07 1.68-.17 3.37-.23 5.06a18.34 18.34 0 0 1-1.65 7.02 46.1 46.1 0 0 1-6.76 10.53l-1.36 1.63Zm-64.27 30.94c1.28-.98 2.57-1.95 3.82-2.97a7.9 7.9 0 0 0 1.18-1.3c5.72-7.19 12.84-12.26 21.83-14.56 2.72-.7 5.42-1.41 8.13-2.14.61-.16 1.21-.4 1.82-.6-.48-.2-.93-.26-1.35-.19-2.9.49-5.8 1.05-8.71 1.5a22.6 22.6 0 0 0-10.05 4.32 121.1 121.1 0 0 0-14.62 12.8 7.6 7.6 0 0 0-2.06 3.15Zm57.24-28.1c.76 0 .93.06 1.03 0 .5-.31 1-.63 1.47-.97 4.9-3.66 8.23-8.55 10.99-13.9 1.67-3.23 1.98-6.69 1.8-10.26a51.77 51.77 0 0 1-5.1 13.76 32.52 32.52 0 0 1-10.19 11.37Zm-210.1 36.24c.26.06 1 .15 1.67.43.87.37 1.69.89 2.53 1.34.97.51 1.3 1.36 1.2 2.4a5.42 5.42 0 0 1-1.14 3.05 26.6 26.6 0 0 1-2.6 2.68c-.63.56-1.42.7-2.29.5a4.92 4.92 0 0 1-3.78-4.61 6.76 6.76 0 0 1 1.64-4.69c.6-.69 1.33-1.16 2.77-1.1Zm.04 3.12c-.16 1.23-.31 2.16-.4 3.1-.06.55.22.96.75 1.2.42.19.94-.02 1.07-.43.42-1.34.04-2.56-1.42-3.87Zm-2.15 3.9c.07-.88.13-1.37.15-1.87.02-.5.24-1.03-.1-1.65-.85 1.8-.86 1.96-.05 3.52Zm5.3-2.37c.68-.23.62-.67.43-1.09-.16-.34-.44-.59-.93-.27l.49 1.36Zm142.3 4.18c-.01.13-.03.42-.09.71-.57 2.74-2.84 3.9-5.34 2.66a7.66 7.66 0 0 1-4.2-5.63c-.47-2.4 1.36-4.17 3.8-3.79.36.06.71.23 1.07.24a4.2 4.2 0 0 1 3.26 1.58 6.8 6.8 0 0 1 1.5 4.23Zm-7.95-3a4.38 4.38 0 0 0 1.37 3.5c.22.22.6.29.96.45 1.06-1.64 1-3.17.14-4.88-.45.28-.78.57-1.17.72-.38.14-.8.14-1.3.2v.01Zm3.5 5c.83.43 1.44.43 1.91.05.38-.3.67-.78.84-1.23.54-1.45-.05-2.72-.81-3.92-.19-.3-.44-.6-.97-.42.06 1.85.37 3.78-.96 5.52Z" fill="#000"/><path d="M139.24 89.54c.44 1.05.74 1.7 1 2.38a8.59 8.59 0 0 1-.04 6.24 5.3 5.3 0 0 1-2.18 2.7 3.17 3.17 0 0 1-3.55.02 5.41 5.41 0 0 1-2.59-4.16c-.17-1.47-.11-2.94.26-4.38l.64-2.28c-.45-.03-.87-.16-1.22-.05-1.37.44-2.76.4-4.16.33-.42-.03-.97-.09-1.23-.35-.86-.89-1.85-1.68-2.38-2.85-.46-1.03-.27-2.04.2-2.98a8.59 8.59 0 0 1 5.26-4.42 14.3 14.3 0 0 1 6.56-.37c3.37.47 6.6 1.49 9.58 3.19.57.33 1.14.7 1.6 1.16 1.41 1.42 1.16 3.61-.53 4.77a6.74 6.74 0 0 1-4 1.02c-.96-.01-1.9.02-3.21.03Zm-5.76 6.22c.07.35.14 1.24.45 2.04.39.97 1.06 1.8 2.24 1.85 1.2.04 1.84-.82 2.3-1.76.8-1.66.8-3.4.27-5.13a6.97 6.97 0 0 0-.97-1.96c-.98-1.37-2.81-1.16-3.5.36-.58 1.3-.72 2.68-.79 4.6Zm-6.03-8.33c.54-.04.81-.02 1.07-.1.99-.25 1.96-.58 2.96-.8 1.22-.25 2.45-.46 3.67-.61 1.27-.16 2.46.25 3.66.6 1.84.56 2.66.54 4.25-.04-.1-.2-.13-.45-.28-.53-.81-.48-1.61-1.05-2.5-1.33a20.11 20.11 0 0 0-7.16-.88c-2.43.14-4.16 1.5-5.67 3.69Zm-1.9-.7c.84-.85 1.56-1.65 2.34-2.37a8.43 8.43 0 0 1 6.87-2.32c1.1.12 2.2.2 3.3.35 1.6.22 3.16.6 4.59 1.42 1.7.97 2.07 1.4 2.77 3.3.22-.22.5-.38.57-.6.34-1 .14-1.53-.92-2.18a24.3 24.3 0 0 0-7.13-2.83 18.9 18.9 0 0 0-6.78-.45 7.2 7.2 0 0 0-5.42 3.36c-.43.66-.73 1.4-.18 2.33Zm54.62 2.33c-.72-.19-1.36-.33-2-.52a7.08 7.08 0 0 1-4.16-3.08 4.52 4.52 0 0 1-.55-1.2c-.3-1.1-.36-2.25.64-3.03 1.08-.84 2.3-1.36 3.68-.59l1.15.65c3.58 1.92 6.94 1.5 10.1-.96.92-.72 1.78-1.54 2.68-2.29a4.25 4.25 0 0 1 3.3-.96c1.92.2 3.17 2.08 2.39 3.86a14.58 14.58 0 0 1-2.1 3.33 11.68 11.68 0 0 1-5.54 3.86c-.27.09-.54.2-.95.36l.16 1.26c.32 2.78-.07 5.42-1.6 7.83a5.57 5.57 0 0 1-2.17 2.13c-1.56.79-2.9.48-3.84-.95a7.26 7.26 0 0 1-1.26-3.94c-.02-1.4.04-2.8.06-4.2v-1.56Zm10.28-3.05 1.22-.92c1.65-.9 2.03-1.28 2.82-3.08-1.15 1.16-2.35 1.73-2.94 2.95-.52.2-1.03.4-1.06 1.07l-.4.14.36-.16Zm-8.41 3.04a24.97 24.97 0 0 0-.11 6.59c.11.77.52 1.52.88 2.22a1 1 0 0 0 1.34.43 4.2 4.2 0 0 0 1.38-1.04 9.38 9.38 0 0 0 1.75-7.08c-.14-.94-.56-1.28-1.47-1.27-1.18.02-2.35.09-3.78.14Zm2.82-2.07c-2.55-.7-4.49-2-6.35-3.41-.4-.31-.88-.54-1.33-.79a3.17 3.17 0 0 0-.81-.33c-.43-.1-.94-.18-1.19.28-.15.28-.18.7-.1 1.02.1.41.35.8.6 1.16a5.59 5.59 0 0 0 3.49 2.16c1.16.28 3.7.26 5.7-.08h-.01Zm10.53-7.97c-1.09-.4-1.95-.24-2.72.4-.8.66-1.55 1.35-2.34 2.01a10.78 10.78 0 0 1-6.57 2.74c-.17.01-.34.1-.75.24a5.44 5.44 0 0 0 3.73.84 6.67 6.67 0 0 0 3.7-1.8c1.54-1.45 3.15-2.83 4.94-4.43Zm-19.79 53.34c-.47-.14-1.04-.26-1.56-.5-.17-.1-.25-.5-.23-.76 0-.16.23-.4.4-.45.36-.1.73-.1 1.1-.08a5.4 5.4 0 0 0 4-1.53 9.42 9.42 0 0 0 3.36-5.54c.09-.52.16-1.05.84-1.09.53-.02.87.55.8 1.33a3.9 3.9 0 0 1-.17.86c-1.15 3.55-3.26 6.21-6.92 7.43-.48.16-1 .2-1.62.33Zm-15.14-18.38c-.94-.11-1.8-.26-2.47-.92a1.91 1.91 0 0 1-.41-.74c-.15-.41.33-.93.74-.82.2.06.43.12.6.25.93.67 1.85.78 2.8.02a1 1 0 0 1 .6-.19c.2 0 .48.1.55.25.12.22.2.58.1.77-.55 1-1.5 1.32-2.52 1.38Zm80.9-93.33a10.8 10.8 0 0 0-6.03 2.25c-.98.78-1.67 1.67-1.3 3.02.03.14.05.3.05.44-.02.4-.19.8-.6.78-.3-.02-.75-.24-.88-.5a3.52 3.52 0 0 1 .15-3.37c2.09-2.8 5.04-3.97 8.39-4.28a7.98 7.98 0 0 1 8.15 4.55 5.69 5.69 0 0 1-.16 5.7 24.27 24.27 0 0 1-2.64 3.53 64.79 64.79 0 0 1-4.07 4.05c-2.61 2.44-4.45 5.28-4.87 8.9-.03.22-.1.43-.18.63-.14.37-.38.66-.8.63-.43-.03-.66-.34-.68-.73a6.5 6.5 0 0 1 .1-1.53 14.5 14.5 0 0 1 3.53-7.25c.9-.97 1.86-1.9 2.79-2.83 1.14-1.15 2.31-2.27 3.4-3.47.69-.76 1.31-1.6 1.83-2.49a4.67 4.67 0 0 0-.58-5.71 6.61 6.61 0 0 0-5.6-2.32Zm-3.51 34.94c-.02.07-.14.64-.38 1.15-.2.42-.62.6-1.1.53-.5-.07-.79-.4-.88-.86-.15-.73-.14-1.47.3-2.1.2-.28.51-.52.83-.66.6-.27 1.17.11 1.23.78.02.21 0 .43 0 1.16Z" fill="#000"/></svg>