<svg viewBox="0 0 164 162" fill="none" xmlns="http://www.w3.org/2000/svg"><path d="M163.87 133.04a9.92 9.92 0 0 1-1.34-3.05l-.2-.73-.71-2.43a404.56 404.56 0 0 0-8.16-23.6l-.47-1.3c-.9-2.42-1.82-4.92-2.62-7.41a262.57 262.57 0 0 0-6.4-17.96l-.77-1.92c-1.32-3.27-2.7-6.65-3.74-10.08-.28-.9-.47-1.7-.6-2.48-.1-.67-.17-1.37-.25-2.04-.1-.97-.21-1.98-.4-2.95-.88-4.45-2.4-8.1-4.63-11.15l-.25-.42a2.5 2.5 0 0 0-.64-.85c-.11-.09-.2-.18-.29-.29.32-.06.57-.2.78-.31l.55-.3.3.37c.1.13.27.18.43.13a.4.4 0 0 0 .29-.33l.08-.61c1.06-.48 1.42-1.12 1.32-2.28a3.3 3.3 0 0 0-.28-.97l-.03-.07-1.57-3.9c-.9-2.23-1.8-4.45-2.68-6.68-.08-.2-.13-.43-.19-.67-.05-.25-.1-.52-.2-.77-.12-.3-.28-.54-.45-.8l-.24-.38a.4.4 0 0 0-.34-.19.45.45 0 0 0-.35.2c-.39.62-.18 1.1-.05 1.38l.05.11c1.17 2.95 2.34 5.9 3.45 8.62l.2.5c.41 1.04.85 2.13 1.33 3.18.18.4.14.8 0 1.34 0 .03 0 .06-.02.08l-.04-.04c-.42-.45-.88-.45-1.31-.38l-.18.03c-.23.04-.47.07-.7.12l-4.74 1-5.38 1.13-.21.04 4.77-13.62a.4.4 0 0 0-.2-.5l-.2-.1a.4.4 0 0 0-.5.12l-.1.12c-.1.13-.22.26-.3.45-.32.84-.62 1.7-.92 2.55l-.43 1.2-3.38 9.55c-.16.46-.3.61-.65.69-2 .43-4.01.89-5.96 1.33l-3.38.77a.6.6 0 0 1-.13.01l.06-.29c.13-.52.25-1.01.4-1.5l2.45-7.37 1.9-5.74c.09-.24.18-.33.44-.38 1.6-.34 3.3-.72 5.01-1.13 2.27-.56 4.57-1.15 6.8-1.72l.8-.2c.17-.06.31-.16.42-.24l.11-.07a.4.4 0 0 0 .06-.65c.2-.13.4-.34.47-.71a.41.41 0 0 0-.1-.37.4.4 0 0 0-.37-.11l-.2.03-.33.07c-.53.13-1.05.27-1.57.42-1.1.3-2.25.6-3.38.8-1.7.31-3.46.57-5.15.82l-3.92.6a174.9 174.9 0 0 0-22.62 5.33c-4.28 1.31-8.6 2.75-12.77 4.14a756.6 756.6 0 0 1-6.73 2.22l-.5.16a274 274 0 0 1-8.24 2.59c-1.48.43-3 .82-4.48 1.2-2 .53-4.05 1.07-6.06 1.7-1.63.5-3.26 1.02-4.89 1.54a723.01 723.01 0 0 1-22.08 6.72l-1.42.4c-2.07.57-4.2 1.16-6.3 1.84 3.79-2 7.75-3.76 11.81-5.22a675.18 675.18 0 0 0 37.67-14.96c6.02-2.57 12.1-5.3 17.97-7.93 3.1-1.4 6.22-2.8 9.34-4.18 5.4-2.4 10.9-4.8 16.22-7.15l3.96-1.73.24-.11c.64-.3 1.06-.46 1.54-.13.24.16.47 0 .55-.05l.08-.05a.4.4 0 0 0 .13-.59l-.06-.08 1.46-.61.55-.23c.44-.18.9-.36 1.34-.57.14-.07.3-.12.46-.18.48-.17 1.02-.36 1.38-.92a.4.4 0 0 0 .01-.42c.92-.7 1.1-1.54.58-2.63l-2.36-4.82-1.43-2.9c-.38-.78-1.01-1.18-1.84-1.14-.53.03-1.08.06-1.62.2-.78.22-1.53.5-2.23.78l-4.72 1.87-6.87 2.72c-.24.1-.52.14-.8.2-.19.02-.37.05-.54.1-.2.04-.36.13-.52.21l-.3.18c-.13.09-.25.17-.38.21-1.37.52-2.75 1.02-4.13 1.52-2.72 1-5.55 2.02-8.28 3.12-6.37 2.56-12.82 5.24-19.05 7.83l-3.48 1.45c-1.7.71-3.4 1.4-5.1 2.09-4.48 1.8-9.1 3.67-13.52 5.82l-.15.07c-.62.3-1.1.55-1.77.25a.4.4 0 0 0-.42.06.4.4 0 0 0-.14.4l.07.33-.4.2-2.58 1.26c-1.89.93-3.84 1.88-5.74 2.87a2594.8 2594.8 0 0 0-23.1 12.16c-3.82 2.05-7.77 4.17-11.81 5.95-.13.06-.24.13-.34.2l-.12.08a.4.4 0 0 0-.2.34v.1c-.01.14-.03.33.07.5 1.45 2.44 2.9 4.88 4.38 7.34l.46.76-.88.34a.4.4 0 0 0 .03.76l.26.07.18.06.04.03c-.1.06-.24.11-.38.17l-.24.1a.4.4 0 0 0-.23.45l.05.21c.04.2.23.34.43.32l.72-.08.2.4a.4.4 0 0 0 .47.21l.14-.03c.1-.03.19-.1.24-.18l.56 1.73c.5 1.57 1.03 3.2 1.44 4.82 2.85 11.46 5.32 21.6 7.57 30.97 1.5 6.27 2.94 11.79 4.38 16.83-3-8.8-5.54-17.4-7.71-25.96a348.34 348.34 0 0 1-5.46-24.81l-.27-1.5v-.06c-.06-.28-.14-.8-.86-.95a.4.4 0 0 0-.34.09.4.4 0 0 0-.15.3v.21c-.01.17-.02.34.02.51.04.18.1.36.16.53.06.2.12.37.15.55l.28 1.63c.1.68.22 1.39.36 2.08a380.35 380.35 0 0 0 7.23 30.3c4.26 15.1 9.88 30.9 17.2 48.27.89 2.11 1.87 4.23 2.81 6.27l.93 2.03.05.13c.11.28.3.75.95.92.14.04.29 0 .4-.1.1-.11.13-.26.1-.4-.04-.1-.06-.2-.08-.3-.05-.18-.1-.36-.18-.54-2.37-4.99-4.34-10.26-6.25-15.35l-.48-1.28c-4.53-12.07-7.7-22.06-10.01-31.43l-3.96-16.24a7882.9 7882.9 0 0 0-4.12-16.9l-.18-.75h.02a.41.41 0 0 0 .28-.2.4.4 0 0 0 .26.13l.1.01a.7.7 0 0 0 .4-.02l1.08-.44c.56-.23 1.13-.47 1.7-.68 11.38-4.29 23.83-8.16 40.37-12.54 16.17-4.29 31.99-8.23 47-11.7l3.5-.8 3.94-.91.07-.02c.2-.05.33 0 .39.17a.4.4 0 0 0 .39.25.4.4 0 0 0 .37-.28c.13-.4.32-.48.75-.56.64-.12 1.27-.26 1.9-.39.65-.14 1.32-.28 1.98-.4l2.7-.5c3.4-.64 6.93-1.3 10.44-1.63.61-.06 1.24-.02 1.9 0 .28.02.56.04.84.04.2 0 .34.08.47.42l.8 2.05c.46 1.15.94 2.34 1.35 3.53l3.15 9.15a917.66 917.66 0 0 0 9.93 27.93l2.65 7.19c.2.55.38 1.16.52 1.8l.4 1.95c.2 1 .41 2.05.67 3.07a86.66 86.66 0 0 0 4.87 13.4 62.02 62.02 0 0 1 3.86 11.25l.14.62c.4 1.74.8 3.54 1.17 5.31.08.41-.09.7-.5.85-1.38.5-2.45.85-3.46 1.16-3.88 1.15-7.97 1.52-11.93 1.87l-.58.05c-4.91.44-10 .9-14.93 1.8-7.35 1.36-14.8 2.81-22 4.22l-2.5.49c-4.03.78-8.06 1.58-12.08 2.37-4.57.9-9.28 1.84-13.93 2.74a300.06 300.06 0 0 0-24.05 5.53 230.25 230.25 0 0 0-19.27 6.15l-.42.14a.41.41 0 0 0-.27.33.4.4 0 0 0 .18.39c.29.19.54.26.77.26.26 0 .48-.1.65-.16l.14-.06 1.93-.68c1.07-.38 2.17-.78 3.26-1.14a254.37 254.37 0 0 1 29.05-7.89c5.33-1.1 10.76-2.15 16-3.18l5.53-1.08 8.59-1.69c8.6-1.7 17.49-3.45 26.25-5.11 3.82-.73 7.71-1.23 11.06-1.63 2.49-.3 5.02-.55 7.48-.8 1.9-.18 3.86-.38 5.8-.6 2.97-.33 6-1.1 9.25-2.37 1.03-.4 1.35-.94 1.2-2.06l-.1-.8c.15.36.33.7.5 1.05l.27.56c.1.2.26.32.4.42l.12.08c.1.09.22.12.35.1a.5.5 0 0 0 .28-.23c.15-.33.15-.6-.01-.83h-.01Zm-9.53-23.88a61.6 61.6 0 0 1-.83-2.27l.83 2.27Zm-23.73-65.31a21 21 0 0 0-2.38 0l2.21-.45.17.45Zm1.33-.29a5.37 5.37 0 0 0-.2-.4c.07 0 .15-.02.23-.04l.66-.14-.02.02c-.22.12-.5.28-.68.56Zm5.04 13.8-3.18-8.88a29.4 29.4 0 0 1 3.18 8.88Zm-126.75 16.83a.43.43 0 0 0-.08.07 95.77 95.77 0 0 0-3.33-11.48l1.05-.47 4.95-2.18a9 9 0 0 1 1.3-.43c4.36-1.06 9.5-2.38 14.57-4 5.93-1.9 11.85-3.8 17.78-5.68l5.15-1.64.67-.2c-.02.16-.04.3-.09.41l-2.11 5.76-1.36 3.68-.99 2.76-.4 1.13-.24.07c-.36.1-.75.2-1.14.33a918.45 918.45 0 0 1-10.64 3.27c-7.79 2.37-15.84 4.81-23.63 7.66-.49.18-.9.5-1.3.8l-.17.13Zm29.75-40.48.17.1c.15.08.31.18.5.24l.9.24c.51.12 1 .24 1.45.43 3.1 1.3 6.72 2.9 10.1 4.91.4.24.83.46 1.33.69.17.08.35.07.52.07h.26a.4.4 0 0 0 .36-.23.4.4 0 0 0-.05-.44l-.11-.14a.8.8 0 0 0-.27-.26c-.8-.4-1.6-.82-2.39-1.24-2.08-1.08-4.23-2.2-6.39-3.23a41.83 41.83 0 0 0-3.72-1.5l-1.15-.43c-.28-.1-.56-.14-.84-.17l-.33-.04h-.09c1.52-.75 3.04-1.5 4.56-2.21.59-.28 1-.3 1.55-.04 3.46 1.56 6.98 3.12 10.39 4.64l2.33 1.03c.14.06.28.1.41.13l.15.04c.2.06.4-.04.49-.23l.1-.24a.4.4 0 0 0-.18-.51 69.74 69.74 0 0 0-6.64-3.17l-.07-.03a517.8 517.8 0 0 0-4.78-2.04l-1.47-.63.26-.12c2.44-1.17 4.93-2.25 7.42-3.3-.05.04-.1.1-.12.16l-.08.18a.4.4 0 0 0 .13.48l.1.07c.08.08.2.17.33.23l11.24 5.12c.86.4 1.75.76 2.6 1.1l.07.04c.17.06.34.07.47.08l.14.01h.05a.4.4 0 0 0 .36-.59 1.47 1.47 0 0 0-.74-.69l-4.16-1.89-2.65-1.2-6.28-2.84a4.05 4.05 0 0 0-.77-.25l-.32-.1a.36.36 0 0 0-.15 0c1.79-.76 3.57-1.48 5.32-2.2l2.75-1.12.6-.25c.26.6.68.77.96.87l.14.06 2.54 1.14 4.5 2.02 2.88 1.32c1.03.48 2.06.96 3.1 1.42l.1.06c.17.09.4.2.7.2.2 0 .46-.05.74-.22a.4.4 0 0 0-.05-.72c-2.24-.9-4.43-1.96-6.55-2.98a89.5 89.5 0 0 0-8.08-3.57c3.06-1.26 6.13-2.53 9.15-3.8a.44.44 0 0 0-.01.2c.15.72.66.87.96.96.06.02.12.03.17.06l3.67 1.56c1.53.64 3.06 1.29 4.58 1.95a113.17 113.17 0 0 1 4.28 1.96l.1.05c.15.07.36.18.62.18.2 0 .42-.06.67-.23a.41.41 0 0 0 .19-.37.4.4 0 0 0-.24-.33l-2.96-1.38c-3.68-1.72-7.48-3.5-11.46-4.84l2.36-.99 8.33-3.46a.39.39 0 0 0 .08.38l.13.16c.08.11.17.22.32.3l.7.3c.39.17.75.33 1.1.53l3.36 1.95 3.15 1.83c.7.4 1.44.76 2.15 1.11l.36.18c.17.08.35.09.5.09h.16a.4.4 0 0 0 .3-.14c.1-.1.12-.23.1-.36a.98.98 0 0 0-.5-.66l-1.28-.7c-.7-.38-1.4-.75-2.1-1.15a601.23 601.23 0 0 1-6.45-3.67c-.3-.17-.65-.33-1.03-.47a.56.56 0 0 0-.2-.03c1.09-.46 2.22-.88 3.31-1.3.5-.18 1-.36 1.48-.55.26-.1.44-.12.77.02 1.52.65 3.05 1.35 4.53 2.04a80.1 80.1 0 0 0 8.74 3.63c.23.08.46.14.68.2l.29.1c.2.05.4-.04.48-.22l.05-.1c.02-.05.05-.1.06-.16 0-.05.04-.2-.02-.34a.58.58 0 0 0-.24-.26l-.06-.03c-.07-.04-.16-.1-.27-.14a83.97 83.97 0 0 1-9.18-3.78c-1.24-.57-2.53-1.16-3.81-1.72l2.78-1.02a494 494 0 0 0 5.76-2.13c.6-.23 1.1-.21 1.6.06l1.36.73a3179.1 3179.1 0 0 1 11.12 6.03l-.12.06-8.3 3.65-17.27 7.62c-2.64 1.16-5.27 2.35-7.9 3.53-4.99 2.23-10.14 4.55-15.25 6.72a678.2 678.2 0 0 1-36.36 14.4 98.08 98.08 0 0 0-13.27 5.98c-2.3 1.24-4.7 2.35-6.75 3.29-.78.35-1.62.61-2.44.86l-1 .32c-.25.08-.45-.01-.8-.38a6.58 6.58 0 0 1-.79-1.11l-2.81-4.75-.73-1.24-.17-.29c.1-.06.2-.12.3-.16 3.9-1.7 7.7-3.76 11.36-5.74 1.91-1.03 3.88-2.1 5.85-3.1 3.12-1.6 6.26-3.27 9.3-4.89 3.85-2.04 7.8-4.14 11.78-6.13a.35.35 0 0 0-.06.12l-.08.24a.4.4 0 0 0 .19.48v.03Zm82.51-23.14c-.08.08-.16.17-.26.31l-.19.23a.4.4 0 0 0-.07.39l-.88.36c-1.24.5-2.52 1.02-3.76 1.57-.38.16-.66.15-1-.04l-3.5-1.87a371.59 371.59 0 0 1-7.13-3.87l-2-1.1 1.65-.64 3.96-1.54 2.84-1.15c1.24-.5 2.53-1.03 3.8-1.52.59-.23 1.24-.4 1.86-.49.8-.1.93-.03 1.33.77l.74 1.44 1.06 2.1a150.8 150.8 0 0 1 1.78 3.73c.23.5.15.94-.24 1.32h.01Zm-68.87 37.22 1.82-.57c3.05-.96 6.16-1.94 9.3-2.84a.95.95 0 0 0-.2.33 524.6 524.6 0 0 0-4.2 13 .4.4 0 0 0 .12.42.4.4 0 0 0 .42.08l.24-.09c.12-.04.27-.09.36-.26.1-.17.2-.37.26-.58l4.03-12.5c.04-.13.04-.31-.18-.5a.5.5 0 0 0-.14-.09c3-.84 6.06-1.59 9.16-2.16l-.13.38-1.22 3.53-2.85 8.26c-.18.52-.3 1.06-.43 1.63l-.14.59-19.77 4.83.07-.2c1.46-3.82 2.92-7.64 4.4-11.46l.15-.33c.07-.15.15-.3.21-.46.07-.18.1-.36.14-.55 0-.07.02-.15.04-.23a.4.4 0 0 0-.09-.34.4.4 0 0 0-.3-.14h-.02c-.71.03-.87.53-.94.78l-.03.1-1.62 4.14 1.33-3.66.07-.17c.1-.21.25-.56.15-.93h-.01Zm33.16-10.8c2.74-.9 5.5-1.74 8.3-2.51-.14.4-.27.74-.43 1.07-.07.14-.24.3-.33.31-2.34.6-4.74 1.2-7.05 1.77l-.56.13.09-.58c0-.07 0-.14-.02-.2Zm19.55-4.77c-.1.4-.27.56-.73.68-2.05.53-4.13 1.1-6.14 1.64a923.78 923.78 0 0 1-3.44.92l.37-1.35c3.08-.83 6.53-1.74 10.17-2.54-.09.2-.17.42-.23.65Zm8.42-1.92c-1.1.29-2.23.61-3.31.93-1.26.36-2.55.73-3.87 1.07l.23-.88.02-.12a118.78 118.78 0 0 1 7.03-1.28l-.1.28Zm-33.6 23.36.08.03-10.18 2.45.59-1.78 1.76-5.22 1.19-3.4 1.3-3.72c.1-.32.21-.43.47-.5l5.8-1.4 2.73-.66-.9 2.81a111.36 111.36 0 0 0-3.1 10.92c-.05.2.06.4.25.46Zm.74-.13.08-.19c.07-.15.15-.3.2-.48l.77-2.56c1.02-3.41 2.07-6.94 3.08-10.42.17-.6.42-.82 1.05-.96 1.7-.38 3.4-.82 5.06-1.24l1.95-.49a140.5 140.5 0 0 1-1.8 5.7 95.7 95.7 0 0 0-2.59 8.76l-7.8 1.88Zm3.61-15.92v.07c-.08.33-.22.45-.7.56-1.9.45-3.82.92-5.68 1.38l-.57.13a508 508 0 0 1 7-2.36l-.05.22Zm9.23 12.8-3.72.9c.04-.21.08-.4.14-.6l3.08-9.87.91-2.87.35-1.08 10.28-2.77-.38 1.21-1.28 3.96-.15.46a72.9 72.9 0 0 0-2.49 8.77c-.05.26-.1.28-.2.3l-6.54 1.59Zm8.03-2.16c.82-2.82 1.67-5.75 2.56-8.69.32-1.07.66-2.14 1-3.2l.7-2.24c.1-.35.15-.43.34-.48l4.63-1.3 2.39-.67-.5 1.43c-.5 1.46-.99 2.84-1.45 4.24-.76 2.37-1.5 4.78-2.21 7.1l-.63 2.04c-.1.33-.13.37-.27.4l-4.5 1.06-2.1.5.04-.19Zm13.17-18.42 2.28-.35-.5.1-1.73.37-.05-.12Z" fill="#000"/><path d="M37.56 125c1.43-.79 2.96-1.4 4.44-1.98 7.1-2.78 13.5-5.26 20.25-7.29a858.5 858.5 0 0 1 11.89-3.45c2.5-.71 5.01-1.42 7.52-2.15 7.37-2.15 14.74-4.32 21.6-6.36.52-.15.79-.2 1.13.21a.4.4 0 0 0 .72-.23c.04-.52.26-.58.75-.7 10.3-2.76 18.9-4.57 27.1-5.71 2.57-.36 5.31-.68 8.07-.29.19.03.35-.01.48-.05l.12-.03a.4.4 0 0 0 .32-.32.4.4 0 0 0-.18-.42c-.83-.51-1.69-.52-2.44-.53a52.5 52.5 0 0 0-9.32.82 241.43 241.43 0 0 0-21.31 4.52l-2.67.7-.77.2-.45-1.55c-.42-1.43-.82-2.78-1.2-4.16l-.2-.7a219.64 219.64 0 0 1-3.25-12.43c-.26-1.08-.51-2.16-.78-3.23-.12-.51-.3-1.02-.45-1.51l-.1-.3 5.09-1.21c3.85-.92 7.83-1.87 11.74-2.83a80.47 80.47 0 0 0 11.49-3.61l.14-.05c.3-.11.72-.26 1.01-.83a.4.4 0 0 0-.46-.57l-.33.07c-.2.05-.37.09-.54.16a94.69 94.69 0 0 1-13.23 4.06l-7.57 1.82-12.92 3.13-20.58 5.06-11.06 2.73c-.2.05-.39.08-.6.11-.21-.41-.53-.97-1.39-.93a.4.4 0 0 0-.34.23.4.4 0 0 0 .03.41l.43.6-.47.14-2.68.68-30.76 7.85-.6.16c-1.04.28-2.03.54-3.08.5-.27 0-.4.2-.47.35l-.13.2a.4.4 0 0 0-.02.41c.07.13.2.21.36.21l.38.01c.25.01.49.02.75-.03.87-.15 1.77-.3 2.65-.53l23.38-5.95 10.54-2.69.62-.13c.87 3.31 1.64 6.7 2.38 9.97 1.17 5.12 2.36 10.41 4 15.53l-.17.06-4.2 1.36c-3.12 1-6.34 2.04-9.49 3.14-3.2 1.13-6.43 2.38-9.54 3.59l-3.3 1.28c-.66.25-1.33.56-1.98.93a9.4 9.4 0 0 1-2.81 1.15c-.42.07-.82.2-1.2.31l-.43.13c-.4.12-.65.32-.74.6-.06.17-.07.44.19.77.07.1.2.15.32.15.05 0 .1 0 .16-.03l.4-.2c.27-.13.5-.24.75-.33l1.01-.3a8.6 8.6 0 0 0 1.98-.7h.02Zm59.3-46.17.1.39c1.77 6.6 3.6 13.42 5.42 20.13.22.79.48 1.54.75 2.35l.25.72a1039.66 1039.66 0 0 1-35.61 10.3l-.3-.95c-.3-.95-.59-1.84-.82-2.76l-2.68-11.2-1.39-5.8-.84-3.44-.32-1.26 5.26-1.27c4.2-1 8.54-2.05 12.8-3.1 4.28-1.06 8.46-2.13 12.89-3.26l4.48-1.14a.6.6 0 0 0 0 .3h.01Zm-55.76 67.93c-.05.17-.1.2-.47.21-.12 0-.24.02-.35.04-.22.04-.45.06-.67.09l-.3.03a.4.4 0 0 0-.36.4v.25c0 .2.16.38.36.4l.19.03c.13.03.27.05.43.05h.17l.31-.05c.6-.09 1.23-.18 1.84-.35l2.1-.6c2.75-.8 5.6-1.62 8.38-2.51 20.36-6.55 40.96-12.15 56.64-16.3a856 856 0 0 1 30.46-7.27l2.16-.49c2.67-.6 5.82-1.4 8.83-2.72a6 6 0 0 0 1.17-.62c.27-.18.52-.6.46-.95-.07-.35-.48-.67-.8-.71a6.43 6.43 0 0 0-1.64-.1l-.82.08c-1.79.19-3.64.38-5.44.66a122.5 122.5 0 0 0-13.51 3.11l-.35.1c-14.26 3.95-29.02 8.03-43.52 12.1a1236.2 1236.2 0 0 0-20.9 6.05 181 181 0 0 0-19.04 7.12l-.42.18c-1.38.6-2.8 1.21-4.32 1.42-.16.02-.48.07-.58.36v-.01Zm12-3.42c6.68-2.65 14.1-5.1 22.88-7.54 18.61-5.19 36.85-10.27 55.32-15.4a115.8 115.8 0 0 1 13.91-3.09c1.32-.2 2.69-.32 4-.44l.88-.09.43-.02-.38.18a49.57 49.57 0 0 1-8.43 2.56 910.39 910.39 0 0 0-34.24 8.19c-15.11 4.01-34.8 9.38-54.37 15.65Z" fill="#000"/><path d="M40 115.22v.2a.4.4 0 0 0 .4.4c.1 0 .2-.03.28-.1l.37-.35c.22-.2.4-.39.6-.53a16.92 16.92 0 0 1 4.9-2.59c.17-.05.31-.13.45-.2l.15-.1a.4.4 0 0 0 .21-.4.4.4 0 0 0-.31-.34c-.78-.18-1.42.07-2.04.32-.2.08-.4.16-.6.22v-.34l-.02-1.72v-.93c.01-.52.02-1.06 0-1.59 0-.21-.08-.4-.18-.61l-.16-.37a.41.41 0 0 0-.34-.25.4.4 0 0 0-.38.2l-.27.48-.36.65-.27.48-1.2 2.24c-.08.15-.23.43-.13.74.06.19.2.33.43.44a.4.4 0 0 0 .52-.17l1.18-2.14v3.48l-.46.3c-.56.36-1.14.74-1.72 1.14-.3.21-.6.48-.92.83-.17.18-.15.42-.13.61Zm4.3 10.38a.4.4 0 0 0-.42.06.4.4 0 0 0-.15.38c.06.4.07.81.09 1.25.02.99.06 2.1.77 3.18.08.12.2.19.34.19h.02a.4.4 0 0 0 .34-.23l1.23-2.47.04.13c.17.66.34 1.34.8 1.94.1.14.3.19.46.13a.4.4 0 0 0 .26-.4 9.36 9.36 0 0 0-.45-2.3c-.07-.23-.1-.5-.12-.77a3.43 3.43 0 0 0-.45-1.65.4.4 0 0 0-.73.1 14.7 14.7 0 0 1-1.25 2.9 9.37 9.37 0 0 0-.11-.7c-.02-.1-.02-.23 0-.37.02-.39.06-1.03-.68-1.36Zm-8.74 6.94c.18.15.44.22.73.22.64 0 1.44-.32 1.93-.77a.4.4 0 0 0 .1-.47.4.4 0 0 0-.44-.23l-.5.09-.76.12c-.24.03-.35.03-.4.02a1.24 1.24 0 0 1-.06-.27l.24-.1c.57-.23 1.21-.49 1.61-1.2a.4.4 0 0 0-.04-.47.4.4 0 0 0-.46-.1l-1.4.55v-.48l2.25-.7a.2.2 0 0 0 .13-.06l.43 2.47c.05.23.23.35.37.45l.18.12a.4.4 0 0 0 .45.04.4.4 0 0 0 .2-.41l-.27-1.58.36-.07.43.95a.4.4 0 0 0 .33.23.4.4 0 0 0 .37-.17c.35-.51.19-.96.09-1.25a1.7 1.7 0 0 1-.07-.2l.2-.07.08 1.42c0 .16.1.3.25.35a.4.4 0 0 0 .43-.08c.64-.6.54-1.27.47-1.78l-.05-.4.46-.34c.22-.17.16-.43.13-.52l-.02-.08a.4.4 0 0 0-.46-.33l-.4.06c-.65-1.51-.72-1.61-1.25-1.74a.4.4 0 0 0-.5.38l-.07-.05a.4.4 0 0 0-.37-.02c-.89.4-.68 1.06-.6 1.35l.06.17.1.91-.09.02c-.19-.82-.26-.96-.78-1.47a.41.41 0 0 0-.47-.08.4.4 0 0 0-.21.43l.05.32a.35.35 0 0 0-.17-.03c-.49.02-.94.15-1.38.28l-.4.12v-.02a.4.4 0 0 0-.1-.32.38.38 0 0 0-.31-.13c-.49.02-1.08.26-1.19 1.31-.08.85.02 1.73.12 2.48.06.42.32.87.64 1.13h.03Zm5.73-4.58-.25.1-.16-1.31.4 1.21h.01Zm-7.36 3.04.09-.09c.63-.65.76-1.45.3-2a1.12 1.12 0 0 0-.75-.42c-.42-.04-.87.12-1.28.46-.07.06-.2.16-.24.17 0 0-.04 0-.13-.08a.4.4 0 0 0-.67.33l.05.81c.02.6.05 1.16.13 1.73.08.51.21 1.37 1.22 1.89a.4.4 0 0 0 .18.04.4.4 0 0 0 .4-.46l-.06-.38-.1-.6-.17-.68-.02-.1c.5-.05.83-.38 1.05-.62Zm-.91-.8-.36.34c.01-.16.09-.38.37-.63.16-.13.24-.18.3-.18h.02c0 .12-.09.23-.33.46Zm-1.21-68.54c.19.06.38.08.58.08.89 0 1.8-.55 2.08-1.35.37-1.02-.2-2.09-1.32-2.49a3.52 3.52 0 0 0-.52-.12c-.07 0-.15-.02-.23-.04a.4.4 0 0 0-.38.13l-.25.27a4.98 4.98 0 0 0-.98 1.49c-.16.44-.15.87.03 1.23.19.38.53.65.99.8Zm1.49-1.64c-.15.33-.44.5-.9.52-.2.01-.34-.04-.42-.14-.09-.12-.1-.3-.01-.52.13-.37.36-.61 1.08-.66.4.3.34.59.25.8Zm78.8 22.54a.4.4 0 0 0 .35.62c.36-.01.65-.13.91-.22.13-.05.26-.12.4-.19.12-.07.34-.18.39-.18.82.28 1.16-.21 1.33-.44l.04-.06a.4.4 0 0 0 0-.49c-.09-.11-.17-.22-.26-.31a2.8 2.8 0 0 1-.33-.46 35.96 35.96 0 0 1-.98-2.22.4.4 0 0 0-.7-.08c-.88 1.2-1.1 2.69-.53 3.43a1.9 1.9 0 0 0-.62.6Zm1.74-1.12c-.1.05-.2.1-.32.14l.06-.43.04-.3.22.59Zm7.57-4.38a.4.4 0 0 0-.28-.36c-.69-.21-1.18-.02-1.59.13-.19.07-.36.13-.5.14a.4.4 0 0 0-.3.13.4.4 0 0 0-.1.3l.17 2.43a.4.4 0 0 0 .4.38 17.05 17.05 0 0 1 .91.01c.2 0 .4 0 .6-.03a1.08 1.08 0 0 0 .94-1.3 1.17 1.17 0 0 0-.53-.78c-.27-.17-.6-.23-.9-.15-.1.02-.2.05-.29.09v-.06l1.23-.53a.4.4 0 0 0 .24-.4Zm-108.79-10.63.27.03c.4 0 .81-.15 1.2-.43.54-.4.86-.9.9-1.4.04-.37-.08-.7-.34-.99-.33-.34-.87-.92-1.74-.84a.4.4 0 0 0-.29.17l-.24.34c-.18.25-.36.5-.53.77-.5.8-.31 1.41-.07 1.8.2.29.49.48.84.55Zm1.06-2.04c.07.05.1.1.11.13l-.05.1c-.18.2-.45.47-.74.6-.03 0-.12.04-.17 0-.04-.03-.07-.13-.04-.27.04-.22.25-.47.61-.73l.28.17Zm30.79 33.7.09-.01a.4.4 0 0 0 .31-.35l.1-.9.6-.14.38.55c.07.1.18.16.3.17a.4.4 0 0 0 .32-.12l.14-.14a.4.4 0 0 0 .12-.25l.1-1.15a.4.4 0 0 0-.5-.43c-.15.04-.18.04-.36-.36l-.03-.08c-.12-.27-.31-.6-.68-.7-.3-.09-.6 0-.97.24l-.02.02a.42.42 0 0 0-.19.15c-.5.71-.52 2.47-.06 3.29.07.13.2.2.35.2Zm71.61-17.03c.04.11.13.2.24.25.15.05.28.07.4.07.58 0 .86-.52.99-.77.6-1.14.68-2.58.17-3.36a.4.4 0 0 0-.74.13 7.1 7.1 0 0 0-.06.35c-.02.16-.04.31-.1.39-.08.13-.33.54-.45.59h-.02c-.05-.09-.06-.33-.08-.47 0-.13-.06-.21-.1-.3l-.09-.14a.4.4 0 0 0-.68-.06c-.57.75-.2 1.38-.07 1.6.19.3.53.62 1.1.63l-.47.74a.4.4 0 0 0-.04.35Zm-65.92 44.82.19.23c.08.1.2.16.33.15a.4.4 0 0 0 .31-.17c.27-.4.25-.7.2-.9a.81.81 0 0 0-.54-.51c-.35-.12-.79-.1-1.1.06-.77.37-1.2 1.49-.9 2.34.12.34.39.67.7.85.28.16.61.23.97.23.8 0 1.74-.38 2.38-1.04a.4.4 0 0 0 .1-.29l.03.03c.57.47 1.3.52 2 .13.5-.27.93-.64 1.3-.98.14-.12.25-.26.36-.42a6.67 6.67 0 0 1 .56 1.17l.14.34a.4.4 0 0 0 .58.18l.49-.3c.3-.2.55-.36.82-.49l.1-.05c.8-.38.95-.45 1.16-1.12a.41.41 0 0 0 0-.26l.63-.2.02.05c.08.27.23.76.9.83a.4.4 0 0 0 .33-.1c.08-.1.13-.22.12-.34l-.1-1.13.16-.13c.25-.19.51-.39.75-.6.61-.57.9-1.17.86-1.84-.02-.33-.07-1.1-.85-1.38-.55-.19-1.07-.03-1.55.47-.09.09-.15.2-.2.28l-.1.14c-1.22.44-2.33.81-3.4 1.14-.07.02-.23-.02-.38-.05a5.18 5.18 0 0 0-.36-.06.4.4 0 0 0-.4.21l-.38.75a36.1 36.1 0 0 1-.88 1.71c-.33.6-.79.97-1.35 1.14-.26.07-.5.04-.63-.08-.11-.11-.16-.3-.12-.51.08-.42.28-.84.48-1.25l.08-.17c.03-.06.06-.1.1-.12.03 0 .13 0 .3.12a.4.4 0 0 0 .62-.35c0-.46-.05-.9-.4-1.1-.37-.2-.77.05-.93.14-.9.55-1.2 1.44-1.4 2.24-.17.6-.1 1.13.2 1.56a.4.4 0 0 0-.16.01l-.42.12c-.2.07-.36.11-.5.14l-.14.02c-.42.07-.82.15-1.21.16-.13 0-.22-.03-.26-.23-.04-.24-.02-.54.38-.78Zm9.8-1.8-.15.11a.4.4 0 0 0-.13.53l.08.13-1.85.85-.13-.44.1-.05c.3-.11.58-.22.85-.36l.17-.08c.32-.14.77-.32 1.04-.98a.4.4 0 0 0-.08-.44.4.4 0 0 0-.44-.1l-1.8.73.01-.34 3.15-1.02.06.39c.09.49-.07.64-.4.76-.2.07-.35.2-.5.3h.01Zm2.4-2.27a.8.8 0 0 1 .29-.39.2.2 0 0 1 .07-.03s.04.03.06.13a.86.86 0 0 1-.25.8c-.1.1-.2.2-.32.29.04-.28.1-.54.16-.8Zm-23.4-24.42c.04-.02.08-.02.13-.03.27-.04.71-.11 1-.72a.4.4 0 0 0-.04-.41.4.4 0 0 0-.39-.16l-1.99.31a.4.4 0 0 0-.34.45l.06.64c.04.48.07.93.2 1.38.13.47.41.78.79.88.09.03.18.04.27.04.33 0 .69-.16 1.02-.47a.4.4 0 0 0 .1-.42.4.4 0 0 0-.33-.27l-.24-.03c.32-.1.68-.3.94-.76a.4.4 0 0 0-.45-.59l-1.01.24v-.01c.06-.03.17-.05.27-.08Z" fill="#000"/><path d="M42.87 97.87a.4.4 0 0 0 .52.06l.14-.1a.4.4 0 0 0 .15-.48l-.77-2.04a.4.4 0 0 0-.36-.26.4.4 0 0 0-.38.23l-.16.36c-.18.43-.3.66-.48.76l-.18-.58a.4.4 0 0 0-.76-.01c-.48 1.33-.36 2.05.52 2.96a.4.4 0 0 0 .46.09.4.4 0 0 0 .23-.4l-.07-.82.61-.35.52.57Zm84.63-21.1a.73.73 0 0 0-.46-.4.95.95 0 0 0-.76.13l.13-1a.4.4 0 0 0-.19-.39.41.41 0 0 0-.44.01l-.17.11c-.15.09-.35.2-.38.45-.07.6-.12 1.2-.18 1.83l-.05.54a.4.4 0 0 0 .1.31c.16.18.43.14.64.15h.29c.14 0 .28 0 .43-.05.3-.08.72-.24 1-.56.25-.3.17-.84.04-1.12Zm-4.85 3.35a.4.4 0 0 0 .38-.26l.4-1.1c.17.25.36.33.73.4.14.01.26-.06.35-.15.1-.1.12-.26.1-.4l-.59-2.4a.4.4 0 0 0-.62-.24c-.61.4-.73.98-.83 1.44-.03.15-.06.3-.1.4-.45 1.22-.46 1.37-.21 2.02l.01.04a.4.4 0 0 0 .38.25Zm-88.87 17.96a.4.4 0 0 0-.48-.59 2.9 2.9 0 0 0-1.88 1.96 1 1 0 0 0 .05.82c.14.25.38.44.7.52.25.07.5.1.74.1.61 0 1.22-.2 1.87-.63a.4.4 0 0 0 .18-.3 3.5 3.5 0 0 0 1.07-.37l-.01.05a.4.4 0 0 0 .12.4.4.4 0 0 0 .4.08c.51-.17.72-.5.81-.74.2-.53.02-1.23-.54-2.13a.4.4 0 0 0-.36-.2.4.4 0 0 0-.34.23c-.08.13-.14.28-.21.43-.23.5-.4.85-.74.99l.11-.41a.41.41 0 0 0-.06-.35.4.4 0 0 0-.31-.16c-.33-.02-.6.07-.77.24-.29.28-.29.69-.29.91 0 .22.06.4.15.57a5 5 0 0 0-.58.1c-.34.08-.57.12-.77.05.1-.31.32-.56.57-.84.2-.22.4-.45.57-.73Zm88-3.64a.4.4 0 0 0 .07.44.4.4 0 0 0 .3.12c.05 0 .1 0 .15-.03l.66-.28c1.14-.47 2.3-.95 3.44-1.44a.5.5 0 0 0 .28-.3.84.84 0 0 1 .05-.1.39.39 0 0 0 0-.4.4.4 0 0 0-.36-.2c-.52 0-1.2.17-1.89.41.24-1.36.48-6.12.15-6.93a.4.4 0 0 0-.35-.25c-.15 0-.3.07-.38.2l-.4.7c-.26.5-.52.96-.8 1.38-.31.45-.66.87-1.05 1.36l-.57.7a.4.4 0 0 0-.04.43.4.4 0 0 0 .36.22c.75 0 1.1-.43 1.35-.74l.12-.13c.21-.25.4-.5.58-.77-.22 2.87-.17 3.45.28 4.12v.02c-.92.42-1.73.97-1.95 1.47Zm-33.89 5.87c-.64.13-1.15.41-1.63.7-.26.14-.5.28-.76.38a3.6 3.6 0 0 1-.17-1.84c.12-.95.23-2 .35-3.18.02-.2-.03-.38-.07-.55l-.05-.23a.41.41 0 0 0-.3-.31.4.4 0 0 0-.4.13l-.51.61-2.86 3.47a.67.67 0 0 0-.15.45c0 .12.05.22.09.3l.04.08a.4.4 0 0 0 .62.16c.88-.68 1.54-1.52 2.22-2.4l-.05.36c-.17 1.19-.35 2.42.15 3.63l-2.5 1.73a.4.4 0 0 0-.17.34c0 .14.08.27.2.33l.13.1a.6.6 0 0 0 .34.13c.06 0 .13-.02.2-.06l5.4-3.21c.15-.1.2-.24.25-.37l.08-.18a.4.4 0 0 0-.05-.42.41.41 0 0 0-.4-.14Zm-4.92-11.04c.2.09.42 0 .53-.19l.38-.73a.4.4 0 0 0 0-.35.41.41 0 0 0-.27-.23c-.57-.14-.74-.53-1-1.21a4 4 0 0 0-.58-1.16.42.42 0 0 0-.38-.15.4.4 0 0 0-.31.27l-.7 2h-.9l-.44-1.02a.4.4 0 0 0-.5-.23c-.6.19-.74.7-.83 1.04-.1.37-.12.43-.4.44a.4.4 0 0 0-.39.3.4.4 0 0 0 .19.45c.22.13.21.17.13.47-.07.26-.19.66.13 1.03.07.1.19.15.3.15.06 0 .12-.01.17-.03.42-.18.53-.58.6-.87l.03.18c.04.19.2.32.39.32h.17a.4.4 0 0 0 .4-.3l.15-.64h.28l-.17.32a.4.4 0 0 0 .04.44c.1.12.26.18.42.14.32-.08.6-.19.89-.3.63-.23 1.13-.4 1.67-.16v.02Zm-1.11-1.46.09.17-.16.03.07-.2Zm2.57.29c0 .23.04.93.86 1h.04c.1 0 .2-.03.27-.1a.4.4 0 0 0 .14-.3v-.65c.12-.08.24-.17.34-.3l.23-.26c.25-.3.51-.6.65-1 .2-.55.02-.9-.1-1.06-.23-.3-.63-.43-1.12-.39l-.69.06-.38.03a.4.4 0 0 0-.31.2c-.42.7-.24 1.38-.08 1.98.06.28.13.53.15.78Zm-7.69 1.09c-.29 0-.56.1-.8.18-.3.1-.51.17-.7.13l.45-.5.56-.54.25-.24a.4.4 0 0 0 .03-.54l-.18-.22a.4.4 0 0 0-.51-.1c-.67.4-1.2.88-1.6 1.44l-.15-.8a.4.4 0 0 0-.77-.07c-.48 1.22-.09 3.1.76 3.66.07.04.15.07.22.07a.4.4 0 0 0 .4-.48l-.11-.59c.2.1.42.15.68.15h.22a2.3 2.3 0 0 0 1.59-.91.4.4 0 0 0 .03-.43.41.41 0 0 0-.37-.22Z" fill="#000"/></svg>