<svg viewBox="0 0 1399 192" fill="none" xmlns="http://www.w3.org/2000/svg"><path d="M1282 176.13c-41.6-5.93-75.43-22.24-104-47.48a566.74 566.74 0 0 0-39.99-32.58c-15.98-11.73-34.23-18.62-56.46-13.37-10.87 2.58-21.92 4.63-32.89 6.93-21.72 4.56-42.01 2.77-61.76-7.04-30.4-15.1-56.72-34.23-81.88-54.6-22.75-18.4-48.53-29.4-81.29-27.84-24.49 1.16-44.5 18.39-59.6 35.5-26.8 30.38-43.66 40.13-76.23 67.1-37.5 31.04-99.13 70.27-180.17 79.1-114.31 12.45-233.86-68.1-270.12-88.93-27.87-16-49.95-29.17-88.23-36.06-34.48-6.2-55.6 2.73-90.89 0-23.06-1.79-39-4.91-58.49-7.53v142.3h1398.84v-30.04c-3.56 1.66-7.01 3.51-10.7 4.95-34.05 13.34-69.32 14.82-106.14 9.58Z" fill="#A0BCDA"/></svg>