<svg viewBox="0 0 169 201" fill="none" xmlns="http://www.w3.org/2000/svg"><path d="M168.13 91.15c-.09-1.52-.19-3.08-.24-4.62a69.8 69.8 0 0 0-1.27-10.2c-.79-4.51-2.26-9.27-4.64-14.98a34.16 34.16 0 0 0-3.62-6.72 99.9 99.9 0 0 0-4.23-5.47c-2.27-2.74-4.75-4.55-7.56-5.53-.65-.23-1.32-.44-1.97-.64l-1.14-.37-.1-.02a.46.46 0 0 0 0-.45 8.61 8.61 0 0 0-.7-1.11 7.58 7.58 0 0 1-1.51-3.68c-.04-.27-.1-.54-.16-.79-.08-.33-.22-.75-.58-.97-.36-.22-.8-.14-1.1-.07-.8.2-1.5.68-2 1.39-.6.8-1.14 1.67-1.67 2.5l-.43.66a5.14 5.14 0 0 0-.46.87c-.12.23-.25.26-.4.25l-.48-.04c1-12.2.02-24.96-3-38.98a.36.36 0 0 0-.27-.27.36.36 0 0 0-.36.12c-.41.51-.88 1.09-1.11 1.76l-.05.15c-.5 1.51-1.03 3.07-1.38 4.66a118.06 118.06 0 0 1-6.34 20.79c-.66 1.6-1.38 3.2-2.08 4.75l-1.34 3.02c-.17.4-.38.92-.39 1.44 0 .32.26.54.48.73l.03.02-.24.56a.36.36 0 0 0 .15.46l.18.1c.15.08.34.04.45-.1l.57-.7.23.05c.31.07.79.18 1.24-.26.1-.1.13-.23.1-.35a.37.37 0 0 0-.27-.26l-.75-.18.7-1.99 1.8-5.16c.8-2.36 1.68-4.9 2.53-7.5a390.74 390.74 0 0 0 3.33-10.6c-.39 3.05-.65 6.1-.9 9.2a78.2 78.2 0 0 0-.35 10.36c.06 1.26.29 2.53.5 3.75l.07.37c.06.37.2 1.15 1 1.45.1.03.19.03.27-.01.67-.3.8-.92.9-1.37l.03-.16a83.73 83.73 0 0 0 1.97-13.4c.11-1.73.14-3.46.1-5.18l.22 2.02c.45 4.1.65 7.5.6 10.68l-.12 7.66-.03 1.63-.03.7-1.1.1-3.57.27-2.07.13-.84.05-1.63.1c-1.3.06-2.64.14-3.96.26-.95.08-1.8.34-2.54.76a.36.36 0 0 0-.18.34c.01.14.1.26.24.3.32.12.6.13.85.05 1.35-.42 2.72-.5 4.17-.57l.16-.01 2.06-.1 2.84-.16c.76-.04 1.51-.1 2.26-.15 1.36-.1 2.77-.2 4.16-.23a33.45 33.45 0 0 1 9.88 1.45l1.82.5a15.6 15.6 0 0 1 8.01 5.15c1.36 1.58 2.64 3.28 3.88 4.92l.47.61c.38.5.72 1.05 1.04 1.58l.34.55a15.3 15.3 0 0 0-.56 4.31c0 .56.03 1.11.05 1.67.02.64.05 1.3.05 1.94a57.53 57.53 0 0 0 2.33 16.06c.42 1.5.85 3.04 1.1 4.6.43 2.7.15 5.17-.87 7.54-.09.2-.21.38-.36.52-.81.82-1.75 1.59-3.09 1.59a4 4 0 0 0-.62.05l-.2.03c-1.15.15-3.77-.87-4.52-1.75a1.46 1.46 0 0 1-.16-.22 56.6 56.6 0 0 0-.37-.67 21.16 21.16 0 0 1-2.04-4.36 142.5 142.5 0 0 0-1.81-5.66c-1.4-4.1-3.5-8.32-6.46-12.88a44.28 44.28 0 0 0-4.54-5.8 14.07 14.07 0 0 0-5.4-3.72c-.95-.37-2-.67-3.42-.98-2.69-.59-5.28-.11-7.93 1.46-.27.16-.55.28-.85.41l-.04.02c-1.2.53-2.76 1.3-4.05 2.45a13.63 13.63 0 0 0-3.31 4.63 39.57 39.57 0 0 0-2.27 6.37c-.8 3.1-1.57 6.4-1.32 9.81l-.3.1c-.42.13-.86.27-1.25.5-2.15 1.29-3.53 3.35-4.11 6.13-.53 2.5-.48 4.9.12 7.15.1.36.17.72.24 1.1l.04.2c-2.53.44-4.6 1.7-6.46 3l-1.97 1.37a75.31 75.31 0 0 0-3.53 2.51l-.61.45-.88.66c-.6.46-1.24.94-1.88 1.38-1.67 1.17-3.58 2.48-5.03 4.3a.88.88 0 0 1-.18.2l-.4.08c-.63.15-1.28.3-1.91.36-.22.02-.51.01-.64-.12-.14-.14-.13-.43-.1-.66.09-.65.26-1.26.51-1.78.5-1.02 1.06-2.04 1.6-3.03l.37-.67c.2-.38.43-.76.65-1.14.2-.34.4-.68.58-1.02a.9.9 0 0 0 .1-.44l.02-.1a.36.36 0 0 0-.43-.41.89.89 0 0 0-.6.4c-.16.28-.33.54-.5.81a45.33 45.33 0 0 0-3.07 5.9 3.15 3.15 0 0 0-.2 2.36c.3.83.88.95 1.21.95.58 0 1.16-.07 1.66-.13l1.25-.18c.55-.09 1.12-.17 1.68-.24a86.2 86.2 0 0 1 4-.36l.85-.05c1.68-.1 3.44-.2 5.14-.2 1.42 0 2.88.16 4.29.32l.39.04c2.77.3 4.78 1.32 6.31 3.19a13.79 13.79 0 0 1 2.83 6.53c.43 2.3.03 4.6-.42 6.77-.04.18-.1.34-.17.5a316 316 0 0 1 .09-3.25 16.33 16.33 0 0 0-.4-3.93c-.03-.24-.1-.72-.71-.86a.36.36 0 0 0-.36-.32h-.23a.36.36 0 0 0-.35.34l-.02.26c-.02.22-.04.44-.01.67l.74 6.1.05.4c.07.54.14 1.06.08 1.58-1.65-.24-3.17.17-4.77.61l-.35.1-1.2-5.78a.36.36 0 0 0-.4-.28l-.3.03c-.29.01-.6.03-.77.27-.16.22-.33.23-.68.24-.13 0-.27.01-.41.04-.3.05-.6.1-.9.13a23 23 0 0 0-1.06.16l-1.55.31c-.76.16-1.55.32-2.32.44-.97.16-1.97.3-2.94.44-1.32.2-2.7.38-4.03.62-2.13.38-3.87.54-5.49.5a21.2 21.2 0 0 0-1.6.05l-.99.06c-.23 0-.46 0-.69.02-1.15.04-2.24.08-3.34-.13-.54-.1-1.09-.17-1.62-.23l-.87-.1-.56-.08c-.53-.06-1.03-.12-1.52-.25-1.81-.46-3.66-.98-5.3-1.44a4.92 4.92 0 0 1-2.92-3.24c-.2-.74-.31-1.4-.35-2.04-.13-1.87.24-3.74.6-5.55l.12-.65c.33-1.7.92-3.33 1.8-4.97a83.97 83.97 0 0 1 6.06-9.53 17.12 17.12 0 0 1 5.37-4.91c2-1.14 4.1-2.3 6.24-3.42.52-.27 1.07-.47 1.65-.7.29-.1.58-.2.86-.32a.47.47 0 0 0 .25-.3l.03-.06a.35.35 0 0 0 .01-.28.39.39 0 0 0-.07-.12c.08-.1.11-.22.08-.34l-.06-.18a.36.36 0 0 0-.41-.25l-.25.04c-.21.03-.44.06-.65.14-.26.1-.51.2-.75.32l-.52.23c-.71.28-1.38.22-2.01-.17l-.58-.37a24.66 24.66 0 0 1-7.6-7.86 58.34 58.34 0 0 1-2-3.45l-.42-.78a22.6 22.6 0 0 1-.99-2.06 1217.72 1217.72 0 0 1-4.09-9.66c-1.3-3.06-2.86-6.65-4.6-10.11a33.16 33.16 0 0 0-5.03-7.38c-.35-.4-.72-.79-1.08-1.18-1.35-1.48-2.75-3-3.92-4.67a86.74 86.74 0 0 1-8.06-14.1 52.4 52.4 0 0 1-4.4-14.23l-.14-.95a25.5 25.5 0 0 1-.42-4.96l.01-.21c.07-1.36.13-2.73.21-4.09l.01-.15.8 2.07c.75 1.94 1.53 3.94 2.34 5.9 1.4 3.34 3.05 6.62 4.66 9.78l1.7 3.4c1.73 3.5 3.82 7 6.4 10.65 3.2 4.57 6.2 9.63 8.93 15.03a122.31 122.31 0 0 0 9.61 15.94 25.47 25.47 0 0 0 4.48 5.1c2.44 2 4.99 4 7.79 6.12a102 102 0 0 0 3.71 2.68c.59.4 1.17.82 1.76 1.23l.27.21.18.16c.83.64 1.61 1.1 2.4 1.42.22.08.37-.05.46-.12l.12-.1a.36.36 0 0 0 .15-.28.37.37 0 0 0-.14-.29l-1.25-.96 2.53-1.67c0 .53.04 1.06.16 1.6l.02.1c.03.24.1.72.76.84h.05c.1 0 .2-.04.26-.11.09-.09.12-.2.1-.32l-.06-.28c.06.03.11.05.18.05.14 0 .27-.09.32-.22l.07-.13c.04-.09.1-.19.08-.33-.18-1.64.01-3.26.27-5.04a50.2 50.2 0 0 1 3.38-12.58c.62-1.47 1.26-3 1.96-4.46a54.5 54.5 0 0 1 1.93-3.6c.3-.5.62-1 .93-1.47l.7-1.06.93-1.56.88-1.45c.36-.58.61-.93 1.16-.94a.36.36 0 0 0 .35-.38l-.01-.26c0-.17-.02-.34-.04-.5a16.7 16.7 0 0 1-.1-.74c.16.84.4 1.69.7 2.53.3.81.61 1.4 1.17 1.63.55.24 1.2.06 1.99-.29a23.73 23.73 0 0 0 7.18-4.55c1.13-1.08 1.3-2.02.57-3.34a66.7 66.7 0 0 0-2.3-3.95c-.94-1.47-2.27-2.47-3.8-3.54a4.54 4.54 0 0 0-1-.49l-.23-.09c-.86-.34-1.7-.25-2.62.3a3.23 3.23 0 0 0-1.48 1.94c-.84 2.86-1.62 5.92-1.29 9.09.03.2.02.4.01.58v.07l-.24.22c-.25.23-.48.45-.68.71l-.65.88c-1.02 1.4-2.09 2.84-3.06 4.3a35.09 35.09 0 0 0-3.85 7.29 85.27 85.27 0 0 0-4.52 17.5l-.14 1.19a.35.35 0 0 0-.34-.06c-1.03.38-1.91 1.02-2.77 1.64l-.41.3-.4-.3c-.43-.32-.83-.6-1.19-.93-.78-.72-1.59-1.42-2.37-2.11-1.82-1.6-3.7-3.25-5.4-5.04a64.69 64.69 0 0 1-6.76-8.36 265.19 265.19 0 0 1-8.28-13.39l-1.57-2.64c-1-1.68-1.9-3.46-2.78-5.17l-.68-1.34a7.73 7.73 0 0 0-2.28-2.98 9.61 9.61 0 0 1-2.17-2.15l-.86-1.15a724.7 724.7 0 0 1-5.13-6.93c-.65-.88-1.2-1.78-1.66-2.65-2.95-5.65-5.38-10.36-7.64-14.82-.5-1-.95-2.1-1.31-3.29-.57-1.85-1.1-3.74-1.63-5.57l-.76-2.68a2.86 2.86 0 0 0-.34-.8c-.18-.27-.45-.4-.72-.36-.27.04-.48.25-.56.56-.13.49-.2.97-.21 1.44l-.02 2.6v2.05l-.05 1.3-.05 1.19-.03 1.16c-.04.99-.09 2 .01 3 .2 2.02.48 4.07.75 6.04l.3 2.24.13.96c.2 1.4.4 2.85.33 4.27a6.78 6.78 0 0 1-.29 1.67c-.88 2.88-1.6 5.5-1.64 8.33a28.5 28.5 0 0 1-.46 4.72 62.12 62.12 0 0 1-2.75 10.66c-.37.98-.28 1.27.6 1.93.9.68 1.63 1.52 2.22 2.26l.24.3c.67.84 1.36 1.7 2.11 2.48 2.59 2.68 4.8 5.8 6.6 9.27 1 1.91 1.78 3.95 2.56 5.92l.27.68a29.58 29.58 0 0 1 2.1 8.9c.03.5.14.99.24 1.46.05.2.1.4.13.6.03.17.18.3.35.3.2 0 .4-.01.59-.03.34-.01.64-.02.9.03 1.84.38 3.65.16 5.4-.05l1-.12c2.27-.27 4.6-.55 6.9-.2 2.06.3 4.46.78 6.62 2.06l.21.13c.95.56 1.93 1.14 3.07 1.4 1.39.31 2.73 1 4.25 2.17.43.33.87.6 1.35.9l.14.1-.18.08a22.98 22.98 0 0 0-7.63 5.45c-.34.36-.65.7-1 1a29.18 29.18 0 0 0-8.42 12.8c-.26.81-.62 1.6-.96 2.38l-.3.7a1.3 1.3 0 0 1-.32.37l-.83.7c-.9.73-1.82 1.5-2.76 2.21a11.14 11.14 0 0 0-3.84 4.8l-.11.28a42.2 42.2 0 0 0-1.7 4.76 118.48 118.48 0 0 0-2.45 11.85l-.06-.11a.35.35 0 0 0-.33-.18.36.36 0 0 0-.3.2c-.45.94-.8 1.87-1.19 2.9l-1.4 3.79a362.17 362.17 0 0 1-3.3 8.76 39.1 39.1 0 0 1-3.73 7.16 83.1 83.1 0 0 1-8.96 11.1l-.06-.53a10.1 10.1 0 0 0-.26-1.71c-.25-.99-1.1-1.55-2.16-1.44-.42.05-.86.17-1.26.36a5.87 5.87 0 0 0-3.3 4.14 16.5 16.5 0 0 0-.35 2.2l-.1.78-.79.31-2.08.8c.24-.82.01-1.45-.26-1.98a6.09 6.09 0 0 0-.37-.61l-.19-.29c-.9-1.46-2.25-1.98-3.8-1.47a7.62 7.62 0 0 0-4.51 3.52 11.3 11.3 0 0 0-1.32 5.35 11.83 11.83 0 0 0-4.64 6.24 32.71 32.71 0 0 0-1.6 6.67 37.63 37.63 0 0 0-.32 3.62c-.04.95.25 1.12 1.03 1.34l.1.01c.08 0 .15-.03.22-.07l.47-.37.95-.72a44.4 44.4 0 0 1 7.11-4.69c2.2-1.1 4.42-1.88 6.62-2.33 1.29-.26 2.63-.42 3.93-.57l1.67-.2 2.27-.29 2.33-.3 1.62-.22c1-.14 2.03-.29 3.05-.4.95-.09 1.93-.16 2.87-.23.88-.07 1.8-.14 2.7-.23.56-.06 1.12-.14 1.66-.23.6-.1 1.22-.2 1.82-.25 3.81-.31 6.85-1.67 9.29-4.13l.03-.03.13.19 1.13 1.63c.84 1.23 1.72 2.5 2.61 3.74a15.93 15.93 0 0 0 3.48 3.59c.69.5 1.5.94 2.4 1.3 1.1.42 2.15.09 2.92-.92.43-.56.63-1.2.62-1.92v-.11a5.85 5.85 0 0 0 3.44 1.86c.75.16 1.48 0 2.03-.43.54-.42.86-1.05.9-1.79 0-.42-.02-.83-.05-1.24v-.03c1.21.36 1.43.13 2-1.32l.03-.06c.45-1.11.46-2.16.03-3.2l-.18-.43c-.13-.33-.27-.67-.43-1a33.93 33.93 0 0 1-2.92-8.15c-.5-2.42-.34-4.89.48-7.95.15.08.28.15.37.24a7.03 7.03 0 0 0 3.12 1.56l3.09.81c1.33.35 2.7.7 4.05 1.09 2.7.76 5.67 1.1 9.09 1.04l-.34.5c-.61.9-.69 1.88-.24 3.1l.54 1.49c.85 2.31 1.72 4.7 2.48 7.09a150.8 150.8 0 0 1 1.71 5.91l.76 2.75a5.15 5.15 0 0 0 .25.73c.2.68.72 1.04 1.51 1.06 1.08.03 2.19-.8 2.49-1.84l.18-.7c.04.21.09.43.16.65.17.54.58.96 1.11 1.14.56.2 1.18.1 1.67-.23a3.15 3.15 0 0 0 1.44-2.27c.2.7.7.98 1.72 1.07 1.26.12 1.8-.22 2.22-1.4.19-.54.38-1.12.48-1.72a61.36 61.36 0 0 0 .55-4.66c.17-1.62.34-3.28.43-4.94.04-.76-.06-1.54-.15-2.29l-.1-.84.23-.15 2.07-1.1 2.25-1.2a25.48 25.48 0 0 0 7.29-5.88c.66-.77 1.35-1.57 1.94-2.46a35.4 35.4 0 0 0 5.63-15.98c.14-1.25.35-2.52.55-3.75l.18-1.16c.03-.15.12-.33.21-.52l.31-.57c.18-.3.36-.62.51-.96.39-.86.76-1.74 1.13-2.58l.36-.83.91-.09a22.7 22.7 0 0 0 2.63-.32 7.43 7.43 0 0 0 4.36-2.35c1.22-1.4 1.99-3.17 2.42-5.54.42-2.34 0-4.59-1.27-6.7l-.15-.27c-.48-.8-.98-1.64-1.6-2.35a73.15 73.15 0 0 0-4.3-4.5 41.5 41.5 0 0 1-4.97-5.94 6.67 6.67 0 0 1-.53-.86 23 23 0 0 0 8.28 2.2v.45a7.91 7.91 0 0 0 1.2 4.73c1.38 2.04 2.54 2.51 4.42 1.82a2.8 2.8 0 0 0 1.02-.59c.65-.64 1.27-1.28 1.8-2 .5-.66.94-1.34 1.36-2l.42-.65h5.86l.01.04c.06.15.1.28.12.4.08 1.02.5 1.92.86 2.72a3.3 3.3 0 0 0 1.81 1.86c.86.34 1.43.4 2.17-.24.28-.24.5-.52.72-.83l.27-.35c.48-.63.97-1.28 1.43-1.94l.4-.57c.55-.8 1.13-1.61 1.58-2.5.28-.55.54-.82 1.02-1.02a4.87 4.87 0 0 0 1.8-1.1c.79-.88 1.58-1.85 2.09-2.94a38.35 38.35 0 0 0 1.9-5.11c.73-2.4.78-4.82.77-7.5 0-2.2-.14-4.41-.27-6.56l-.02.05Zm-60.39-53a.38.38 0 0 0-.13-.12 1.9 1.9 0 0 1 1.92-.23c.6.26 1.16.57 1.64.92a12.11 12.11 0 0 1 3.78 4.4c.21.42.46.83.7 1.24l.49.86c.53 1 .47 1.38-.4 2.23-1.48 1.46-3.33 2.49-5.11 3.48l-.05.03c-.76.42-1.64.72-2.4.98-.34.11-.4.11-.63-.3a4.5 4.5 0 0 1-.31-.64 15.26 15.26 0 0 1-.78-7.77c.2-1.4.6-2.71 1.22-3.88l.04-.08c.13-.21.37-.61.02-1.13Zm-96.13 143.6a70.3 70.3 0 0 0-4.17 2.1 21.1 21.1 0 0 1 4.17-2.1Zm14.98-7.33a8.6 8.6 0 0 1-2.53 1.46c-.61.22-1.22.47-1.81.7-.36.16-.72.3-1.07.44l-.15.05.01-.18c.03-.42.07-.82.12-1.2a5.86 5.86 0 0 1 1.38-3.16 4.44 4.44 0 0 1 2.03-1.36c.18-.05.35-.08.5-.08.2 0 .38.04.52.13.28.16.46.48.54.91.06.3.09.6.13.92l.07.6a14.69 14.69 0 0 0 .15.6c.02.06.06.11.11.16Zm-10.43 4.32.12.18c-.75.28-1.5.54-2.24.8-2.03.71-4.12 1.44-6.08 2.5 0-.15-.01-.27.01-.36.86-3.32 2.75-5.24 5.76-5.85.17-.03.33-.05.48-.05.66 0 1.1.34 1.36 1.03.1.26.16.52.24.8l.16.59c.05.13.11.24.2.36Zm141.38-63.88c-1.37.4-2.76.62-4.15.73l4.15-.73Zm-17.65 5.86-.1.02c-1.27.22-1.62 0-1.89-1.2-.23-1.03-.41-2.09-.6-3.12l-.18-1.02 7.04 1.27c-.97 2.13-2.28 3.41-4.1 4.02a.93.93 0 0 1-.17.03Zm-1.02 12.45a12.1 12.1 0 0 1-1.65 4.43c-.63 1.06-1.64 1.81-3.19 2.37a11.1 11.1 0 0 1-4.22.61c-.01-.43 0-.87.03-1.3.04-1.08.09-2.2-.34-3.32a.36.36 0 0 0-.69.08l-.02.12c-.02.1-.04.24-.03.38a8.82 8.82 0 0 1-.48 3.33c-.15.43-.27.86-.4 1.3l-.34 1.13c-.31-.36-.78-.52-1.35-.44l-1.97.3-.58.1-.02-.12c-.06-.38-.13-.78-.17-1.18-.13-1.07-.26-2.2-.34-3.32a1.83 1.83 0 0 0-.78-1.4.36.36 0 0 0-.33-.06.36.36 0 0 0-.23.24 36.74 36.74 0 0 1-2.64 6.57c-.4-.48-.88-.94-1.59-1.03-.52-.07-1.04-.1-1.59-.12-.14 0-.3 0-.44-.02-.08-.9-.02-1.83.04-2.65.06-.7.14-1.37.24-2.1l.13-.97a.36.36 0 0 0-.11-.3.35.35 0 0 0-.3-.1c-.06 0-.1.02-.15.03a.36.36 0 0 0-.63-.19c-.64.73-.86 1.98-.96 6.16a17.4 17.4 0 0 1-.33-3.04 77.23 77.23 0 0 1-.02-4.7c.02-1.33.4-2.63.76-3.9l.15-.55a14.9 14.9 0 0 1 2.93-5.34c.91-1.13 2.24-1.57 3.94-1.3 1.6.26 3.19.93 5.12 2.2.26.16.52.3.77.43.12.06.23.06.35.06h.2c.14.01.27-.07.34-.2a.36.36 0 0 0-.06-.4c-1.03-1.14-2.05-2-3.2-2.68a6.58 6.58 0 0 0-3.92-.8 4.8 4.8 0 0 1-.3-1.62v-.2c-.03-1.4-.06-2.83.04-4.22.1-1.44.3-2.9.48-4.3.05-.44.1-.88.17-1.31.02-.18.07-.35.13-.57l.6.4.93.6c.83.53 1.69 1.09 2.53 1.65.15.1.29.35.34.43l.43.83c.26.52.52 1.05.87 1.53a39.96 39.96 0 0 0 5.25 6.12 49.3 49.3 0 0 1 3.81 4.03c.6.68 1.08 1.51 1.55 2.3l.16.3a8.5 8.5 0 0 1 1.08 5.72Zm-19.93 35.3-.35.41c-.17.21-.36.41-.57.62-.26.27-.53.54-.76.86a14.79 14.79 0 0 1-4.23 3.79l-.36.23c-1.5.97-3.06 1.96-4.74 2.64-.6.23-1.15.55-1.68.87l-.4.23c-.17.1-.27.23-.4.38l-.15.2a.36.36 0 0 0-.08.35c.04.12.14.2.27.24.15.03.19.04.17.29a27.3 27.3 0 0 0-.15 2.43v2.2c.02 1.11.03 2.26-.01 3.38a13.92 13.92 0 0 1-.55 3.38c-.53-.61-1.23-.6-1.86-.59h-.26l.21-5.4c0-.1-.03-.2-.1-.28a.38.38 0 0 0-.28-.1c-.7.06-.74.6-.76.82l-.05.82c-.03.54-.06 1.1-.13 1.64-.1.9-.25 1.8-.4 2.75l-.12.76a3.78 3.78 0 0 0-2.79-.24l.41-5.49a.37.37 0 0 0-.1-.28.35.35 0 0 0-.28-.1c-.75.05-.82.63-.85.88v.04c-.07.44-.12.87-.17 1.31l-.18 1.42-.36 2.42-.09.64a3.43 3.43 0 0 0-1.66-.46c-.5 0-.98.12-1.47.36a5.43 5.43 0 0 1-.2-.65c-.46-2.14-1.27-4.17-2.04-6.15l-.14-.33a41.7 41.7 0 0 1-2.2-7.33 3.37 3.37 0 0 1 .53-2.75c.12-.16.2-.33.28-.51l.03-.07c1.6-.12 3.22-.7 5.04-1.8l2.66-1.6 4.49-2.7a24.22 24.22 0 0 0 6.34-5.53c.9-1.08 1.63-2.3 2.26-3.76 1.28-2.94 2.17-6.05 3.03-9.05l.3-1.02c.06-.22.1-.45.15-.67.1-.49.19-.94.47-1.32a.47.47 0 0 0 .08-.18c.26.19.5.36.7.54.87.74 1.7.74 2.47 0 .5-.48.87-.97 1.1-1.45a224.75 224.75 0 0 0 2.47-5.26c.04.74.09 1.44.19 2.15a11.3 11.3 0 0 0 1.27 4.03c.4.7 1.04 1.57 2.36 1.5l-.02.2c-.06.45-.1.88-.17 1.3l-.23 1.63a35.02 35.02 0 0 1-1.5 7.05 204.6 204.6 0 0 1-3.45 8.86c-.21.5-.61.98-1 1.43l.01.01Zm-14.23 23.25c-.13.37-.28.75-.45 1.13-.14.32-.26.56-.53.67a3.59 3.59 0 0 1-.47-2.07c.27-.07.54 0 .9.12.18.05.36.11.55.14Zm-9.76 3.72a9.16 9.16 0 0 1-.88-2.25l-.07-.23c.57-.38 1.13-.4 1.8-.1.25.12.63.3.67.38.03.09-.12.5-.21.75-.28.75-.68 1.2-1.3 1.45Zm11.64-32.49a34.82 34.82 0 0 0 3.42-5.5l-.44 1.18a9.8 9.8 0 0 1-1.09 1.95 19.2 19.2 0 0 1-1.89 2.37Zm8.98-20c.72-.1 1.24-.08 1.71.05.3.09.63.3.97.64.22.23.23.42.03.67-.2.25-.38.53-.54.8-.14.22-.27.43-.42.63-.4.52-.57.52-.6.51-.01 0-.18-.03-.43-.6a7.28 7.28 0 0 1-.43-1.23c-.1-.39-.17-.79-.24-1.22l-.05-.25Zm9.42 3.73c-.17-.12-.3-.26-.36-.38-.37-.7-.6-1.5-.7-2.42a5.33 5.33 0 0 1 1.65-.3c.38-.03.76-.05 1.16-.13.12-.02.22-.1.27-.2l.11.05a5.68 5.68 0 0 1-1.47 3.36c-.22.24-.34.27-.66.02Zm31.61-32.71c-1.01.14-2.04.33-3.03.5l-1.47.27-.41.07a52 52 0 0 1-2.65.39c-.36.03-.72.06-1.09.12-1.37.22-2.69 0-4.08-.23l-1.01-.17c-3.17-.46-6.12-1.78-8.98-3.06l-.4-.18-.73-.35-.9-.42c-2.87-1.23-5.5-3.2-8.3-6.2a67.12 67.12 0 0 1-6.38-8.24l-.39-.54-.23-.32a.36.36 0 0 0-.62.06c-.29.62-.3 1.07-.02 1.61 1.8 3.62 4.42 6.87 8.5 10.56 2.37 2.13 5 3.78 7.93 5.57l.3.16c-2.8-.6-5.52-1.74-8.08-3.4l-2.42-1.62c-.85-.56-1.72-1.15-2.6-1.71a25.13 25.13 0 0 0-7.71-3.14c-.15-.04-.28.02-.4.07l-.16.07a.36.36 0 0 0-.24.3c-.01.13.05.27.17.34a5.3 5.3 0 0 0 1.64.6c.31.08.62.15.89.26l.97.38a25.8 25.8 0 0 1 3.7 1.68c.5.28.98.6 1.49.95l.47.31c-.53 1.87-.69 3.8-.84 5.66l-.07.77c-.17 1.97-.3 4.24.23 6.46l-.36.13c-.48.17-.97.35-1.44.57a8.54 8.54 0 0 0-4.12 4.1 19.5 19.5 0 0 0-2.13 7.7c-.11 2.16-.18 4.27.2 6.42.28 1.52.65 3.28 1.68 4.81.06.1.09.3.06.46-.09.46-.2 1-.41 1.5-.56 1.36-1.14 2.72-1.71 4.07-.6 1.42-1.2 2.83-1.78 4.25a29.6 29.6 0 0 1-6.62 9.8 23.01 23.01 0 0 1-10.59 6.11c-2.98.76-5.9 1.06-8.91.9-3.5-.18-6.1-.66-8.47-1.57a33.18 33.18 0 0 1-6.19-3.16l-.07-.04.15-.61c1.5-5.37 2.65-10.92 3.67-16.11.54-2.75.87-5.06 1.03-7.27.21-2.97-.26-6.08-1.47-9.77a4.12 4.12 0 0 0-1.74-2.26c-.4-.26-.82-.5-1.24-.76 3.9.6 7.89.51 11.63.33l.89-.04c3.3-.16 6.7-.32 10.03-.93 1.05-.2 2.09-.46 3.1-.72l1.51-.38c.49-.12.98-.22 1.48-.33l.4-.1.06.22c.1.44.2.84.27 1.24a.91.91 0 0 1-.09.32l-.06.17-.4 1.2-.66 2.06a3.7 3.7 0 0 0 .3 2.59c.3.71.75.98 1.07 1.08.47.14 1 .03 1.56-.33l.02-.01.2.51c.63 1.56 1.84 2.13 3.53 1.65 2.1-.6 2.7-2.35 2.98-3.8.13-.62.14-1.26.15-1.89l.01-.3c.01-.39.07-.65.32-.93a3.4 3.4 0 0 0 .84-1.57c.42-1.88.78-3.89.57-5.91-.35-3.45-1.4-6.11-3.3-8.37-1.7-2-3.88-3.1-6.9-3.44a74.87 74.87 0 0 0-4.56-.37c-2.03-.1-4.13-.03-6.41.25-.85.1-1.72.18-2.57.27l-.52.05.09-.1c.37-.4.72-.8 1.13-1.14l1.65-1.4a53.11 53.11 0 0 1 5.72-4.46c.7-.45 1.48-.9 2.42-1.42.95-.52 2.2-1.2 3.48-1.85.78-.39 1.58-.76 2.35-1.13a295.08 295.08 0 0 0 1.65-.75c.37-.14.8-.3 1.06-.71a.36.36 0 0 0 .01-.37c-1.03-1.85-1.25-3.94-.71-6.54.25-1.25.7-2.5 1.14-3.7l.33-.9a5.97 5.97 0 0 1 2.35-2.74c.37-.26.89-.36 1.26-.4.17-.03.72-.09.83-.71.05-.23.05-.5 0-.8-.65-4.6.45-9.12 3.38-13.82a30.09 30.09 0 0 1 3.81-4.88c.55-.57 1.07-1.18 1.56-1.77l.7-.84a4.64 4.64 0 0 1 2.7-1.44c3.5-.77 6.75-.32 9.9 1.38l.74.38c1.24.65 2.42 1.26 3.26 2.3 1.06 1.3 1.8 2.4 2.37 3.49 1.72 3.29 3.37 6.68 4.98 9.96l.24.5.55 1.1a59.37 59.37 0 0 1 2.95 6.69 23.58 23.58 0 0 0 3.86 6.91l.14.2c.88 1.15 2.14 1.58 3.37 1.87 1.19.29 2.24.5 3.23.63 1.68.24 2.96-.03 4.03-.85l.24-.2c.11-.1.21-.2.32-.25a2.53 2.53 0 0 0 1.33-2.18l.04-.64c.14-2.21.29-4.5-.2-6.74-.32-1.52-.67-3.05-1.02-4.54-.37-1.58-.75-3.23-1.1-4.84a40.49 40.49 0 0 1-.66-4.55c-.36-3.72-.71-8.12-.6-12.5 0-.24.02-.5.04-.76l.14.28a70.16 70.16 0 0 1 3.2 7.65c.55 1.49.61 2.71.2 3.98a19.35 19.35 0 0 0-.8 7.8c.21 2.22.64 4.8 2.28 7.04l.08.1c.16.25.46.7 1.17.54a.36.36 0 0 0 .25-.23.35.35 0 0 0-.05-.34l-.24-.3c-.15-.18-.3-.36-.42-.54a11.56 11.56 0 0 1-1.78-4.72c-.53-2.94-.34-6 .59-9.3l.77 2.72c-1.33 1.53-1.61 3.36-.87 5.6.42 1.3 1.1 2.61 2.14 4.13.32.47.47.95.5 1.56l.06 1.5c.04 1 .08 2.03.15 3.06l.08 1.13c.16 2.07.32 4.2.27 6.3-.07 3.64-.4 6.4-1.05 8.95a27.2 27.2 0 0 1-.85 2.6l-.11.3a6.65 6.65 0 0 1-2.6 3.17 13.66 13.66 0 0 1-6.1 2.16Zm-89 80.05c.23-.28.45-.56.6-.9.04-.08.08-.16.1-.24-.02.37-.13.66-.32.88-.1.12-.23.2-.37.26Zm-19.59-17.98a36.79 36.79 0 0 1-.43 1.77l.1-.44c.12-.44.23-.88.33-1.33Zm1.26-26.18c-.54-.05-.97-.42-1.23-1.08l-.05-.15c.34.5.76.9 1.28 1.23Zm-21.07 32.87a87.7 87.7 0 0 0 4.77-2.58 40.99 40.99 0 0 1-3.73 2.18c-.33.17-.68.3-1.04.4Zm-21.73 9.29a11.96 11.96 0 0 1 3.03-3.05 22.89 22.89 0 0 1 5.59-2.9l-.13.06a27.91 27.91 0 0 0-8.5 5.89Zm8.37-4.62a25.6 25.6 0 0 1 5.44-1.85c.88-.2 1.76-.5 2.6-.77l1.53-.48a5 5 0 0 1 1.26-.23h.04c1.7.03 3.36-.4 5.19-1.34 2.5-1.3 4.55-3.08 6.79-5.11a287.55 287.55 0 0 0 6.15-5.78c1.54-1.44 3.12-2.94 4.27-4.82l-.04.4c-.12 1.2-.24 2.45-.34 3.68-.2 2.42-.76 4.78-1.29 6.76a3.4 3.4 0 0 0 .34 2.58l1.01 1.8.6 1.05c.1.18.2.36.29.56l.03.06a11.67 11.67 0 0 1-4.74 3.23c-1.21.45-2.45.6-3.76.77l-1.3.18c-.72.11-1.43.29-2.12.46-.73.19-1.49.38-2.23.48a65.1 65.1 0 0 1-6.8.64c-2.74.08-5.97.27-9.2 1.05-1.6.39-3.13.98-4.61 1.55l-1.6.61a33.62 33.62 0 0 0-9.42 5.36 27.49 27.49 0 0 1 11.9-10.85Zm33.42-7.47c.29-1.27.58-2.64.93-4.28.44-2.08.66-4.38.7-7.25.05-2.76.25-5.71.65-9.57.1-.92.17-1.86.24-2.76a93.55 93.55 0 0 1 .47-5.01c.13-1.09.05-1.4-1-1.9-1-.5-1.62-1.27-1.93-2.43a18 18 0 0 1-.28-8.1l.4-2.22c.48-2.61.97-5.32 1.8-7.9 1.28-4 3.31-6.98 6.2-9.08.21-.15.4-.3.59-.46l.2-.17c-.3.94-.46 1.97-.5 3.23-.06 1.55.46 2.92 1.7 4.46 1.35 1.68 3.3 2.48 4.88 3.12.56.23 1.16.4 1.73.57l.82.25.03.01a.4.4 0 0 0-.02.38c.03.07.08.24.26.3l.26.12c.27.11.54.24.84.3 1.1.22 1.97.86 2.74 2.01.94 1.4 1.22 3 1.45 4.64.22 1.65.1 3.28-.15 5.21-.14 1.03-.25 2.07-.36 3.08-.16 1.36-.32 2.78-.52 4.16-.28 1.87-.7 3.76-1.11 5.62-.32 1.44-.65 2.88-.99 4.31-.41 1.8-.84 3.65-1.23 5.49-.56 2.6-.85 5.3-.87 8-.01 2.46.49 5 1.52 7.76.33.89.69 1.8 1.03 2.66l.56 1.43.13.37-2 1.06a6.23 6.23 0 0 1-.36-.68 6.3 6.3 0 0 0-1.17-1.79.36.36 0 0 0-.6.35c.34 1.23.82 2.82 1.6 4.44a7.8 7.8 0 0 0-3.35 1.82 14.98 14.98 0 0 1-1.72-3.17 19.7 19.7 0 0 0-1.28-2.55.36.36 0 0 0-.4-.16l-.21.07a.36.36 0 0 0-.25.41c0 .06.02.11.03.17.02.14.04.3.1.47l.56 1.34.47 1.12c.07.17.12.34.18.53a9.67 9.67 0 0 0-4.47 2.28l-1.04-.82a.36.36 0 0 0-.32-.06c-.1.03-.2.1-.23.2l-.18-.24-.6-.8c-1.07-1.5-2.19-3.03-3.2-4.6a40.67 40.67 0 0 1-1.56-2.66 66.9 66.9 0 0 0-.95-1.69 1.76 1.76 0 0 1-.22-1.38Zm9.82-56.06a4.28 4.28 0 0 1-.26-1.18c-.08-1.07.06-2.1.3-3.04-.18 1.39-.27 2.8-.04 4.22Zm3.2 70.19c-.16.41-.53.58-.96.42-.43-.15-.9-.4-1.36-.7a20.8 20.8 0 0 1-1.52-1.11 8 8 0 0 1 3.94-1.92c.49.98.45 1.98-.1 3.3Zm4.72-.52c-.7-.17-1.2-.66-1.77-1.22 1.03-.86 1.99-1.56 3.3-1.6.07 1.18-.17 1.99-.77 2.67-.12.14-.3.25-.76.14Zm2.08-4.9-.13-.25a4.6 4.6 0 0 1 1.87-1.05l.38 1.82c.03.13.12.24.25.27a.5.5 0 0 0 .06.02c-.07.21-.15.43-.25.65l-.23.6c-.68-.16-1.14-.4-1.4-.98l-.55-1.07Zm1.06-26.75a303.5 303.5 0 0 1-.72 3.02c.23-1.06.48-2.07.72-3.02Zm2.75-14.12c.28-2.36.57-4.87.68-7.41.24 2.4-.04 4.72-.36 6.73-.56 3.44-1.27 7.06-2.14 10.95a101.9 101.9 0 0 0 1.82-10.27Zm34.14-13.84c-.08.8-.2 1.58-.38 2.31a2.93 2.93 0 0 1-1.17 1.66c-.34.26-.82.23-1.24-.08-.15-.1-.29-.25-.4-.4a12.98 12.98 0 0 1-1.59-3.5c1.47-.5 2.76-.8 4.1-.74.38.02.6.06.65.12.03.04.07.18.02.63Zm-4.39 3.66.4.56a1.44 1.44 0 0 1-.4-.56Zm-1.83-2.1c.05.23.04.47-.02.65-.02.08-.09.28-.57.34-.13.01-.3 0-.46-.3-.37-.74-.48-1.3-.36-1.82.17-.74.4-1.5.61-2.22l.05-.16.06.26.14.64c.2.85.38 1.74.55 2.62Zm12.47-66.29c.6-1.38 1.36-2.72 2.42-3.9.63-.7 1.44-1.37 2.3-1.9l-.6.68c-1.47 1.7-2.89 3.34-4.13 5.12Zm18.18-8.04a16.47 16.47 0 0 1 2.73 1.35c-.87-.49-1.78-.96-2.73-1.35Zm17.78 27.3c-.21-.46-.41-.93-.6-1.41-.87-2.15-1.86-4.39-3.01-6.86a322.81 322.81 0 0 0-4.44-9.12 57.04 57.04 0 0 0-1.73-3.1 62.6 62.6 0 0 1 8.6 16.5 52.62 52.62 0 0 1 1.18 3.99Zm13.87 3.77a8.29 8.29 0 0 1-.23 1.7.8.8 0 0 1-.09.21 3.9 3.9 0 0 1-2 1.39l.35-.25a4.03 4.03 0 0 0 1.77-2.35c.06-.24.12-.47.2-.7Zm2.68-15.08a3.5 3.5 0 0 1 .46-2.18c.48 2.1.77 4.17 1.02 6.2a9.34 9.34 0 0 1-1.48-4.02Zm-65.85 117.46c-.12-.59-.2-1.2-.29-1.78l-.05-.36c.1.07.22.16.39.18.18.03.37.04.55.05.25.02.48.04.7.09.22.05.37.13.41.23.04.1 0 .25-.1.43a5.39 5.39 0 0 1-1.09 1.37c-.2.16-.3.18-.33.17-.03-.02-.12-.1-.18-.38Zm54.5-77.9.67-.1c1.76-.25 3.43-.5 5.03-1.12l-.05.09c-.54.92-1.1 1.87-1.67 2.79a5.95 5.95 0 0 1-2.8 2.22s-.08-.03-.21-.34c-.5-1.1-.73-2.28-.97-3.55Zm-23.13-106.49a.36.36 0 0 0-.28.29 4.74 4.74 0 0 0 0 1.6c.36 2.38.55 4.52.57 6.54.04 3.1-.11 6.11-.46 8.96a85.08 85.08 0 0 1-1.65 9.37 16.88 16.88 0 0 1-.62-4.58c-.04-2.6.06-5.34.33-8.9.43-5.84 1.02-10.97 1.8-15.67l.04-.27c.08-.48.16-.96.27-1.45l.05.46.48 4.02-.1-.13-.06-.08a.36.36 0 0 0-.37-.16Zm11.88 32.04a38.2 38.2 0 0 0-5.35-.89l-1-.11a13.85 13.85 0 0 1 2.54-3.9c.29-.28.7-.54 1.25-.77.14-.06.2-.06.2-.07.02.02.06.08.11.28l.01.05c.05.2.1.39.12.57a9.66 9.66 0 0 0 2.13 4.85v-.01Zm-73.5 44.47a9.02 9.02 0 0 0-1.89-.79c-2.54-.65-4.68-1.17-6.87-1.62a15.6 15.6 0 0 0-1.91-.25c-.59-.06-1.18-.11-1.75-.22a11 11 0 0 0-2.16-.2 15.29 15.29 0 0 0-4.28.6c-.58.14-1.15.3-1.75.47l-.27.07.08-.29c.56-2.3 1.5-4.54 2.4-6.7.47-1.1.96-2.24 1.38-3.38.6-1.62 1.19-3.27 1.75-4.87l.66-1.86.1-.38c0-.08.03-.17.05-.27a.36.36 0 0 0-.53-.39c-.6.35-.92.76-1.24 1.18-2.39 3.08-3.34 6.76-4.11 10.26-.26 1.14-.55 2.29-.83 3.4-.16-1.83-.76-3.53-1.3-5.08a53.19 53.19 0 0 0-5.76-11.4c-.95-1.46-1.97-2.9-2.96-4.3l-.72-1.01a29.25 29.25 0 0 0-5.26-5.64c.82-.13 1.54-.35 2.2-.59a5.84 5.84 0 0 1 2.12-.15h.04c1.8.08 3.63.18 5.4.28l2.58.15c.26 0 .48-.08.7-.28.1-.09.14-.22.11-.34a.36.36 0 0 0-.23-.27 1.25 1.25 0 0 1-.12-.05 1.3 1.3 0 0 0-.45-.13l-1.74-.07-2.46-.12a190.1 190.1 0 0 1-5.23-.39c-1.17-.1-2.56-.17-3.95.12 0-.18.09-.37.2-.63l.38-.71c.21-.4.44-.8.59-1.25.9-2.67 1.92-5.7 2.13-8.91a30.7 30.7 0 0 1 1.43-7.5 18.8 18.8 0 0 0 .77-7.98 61.77 61.77 0 0 0 4.81 10.62l.35.62c1.81 3.23 3.68 6.57 6.08 9.52 1.2 1.47 2.5 2.91 3.76 4.3l.38.43a31.74 31.74 0 0 1 4.81 7.08c1.66 3.28 3.12 6.64 4.73 10.38l2.11 5c.59 1.4 1.17 2.8 1.77 4.19.35.82.73 1.61 1.13 2.35.65 1.2 1.34 2.39 2 3.54l.33.58a25.2 25.2 0 0 0 2.92 3.86l.65.76a6.2 6.2 0 0 1-.44-.2c-.44-.24-.88-.5-1.31-.75-.45-.26-.91-.53-1.38-.78Zm-14.33-2.01c.65.02 1.31.1 1.97.2-1.8.2-3.53.39-5.29.53a7.3 7.3 0 0 1-1.4-.04c1.62-.51 3.16-.74 4.72-.7Zm-2.66-13.56a77.96 77.96 0 0 1-1.57 4.18c.38-1.4.87-2.83 1.57-4.18Zm-17.98-36.45c.16-1.74.7-3.44 1.23-5.09l.03-.08c-.1.79-.3 1.6-.57 2.53-.26.89-.5 1.77-.69 2.64Zm43.01 39.38c.58.65 1.2 1.3 1.88 1.99a394.4 394.4 0 0 1-4.76-3.72 19.78 19.78 0 0 1-3.46-3.81c-3.75-5.1-7.12-10.6-10.02-16.35a135.3 135.3 0 0 0-11-18.17l2.9 3.9.88 1.18c.67.88 1.4 1.6 2.23 2.17.7.5 1.3 1.23 1.75 2.18 2.68 5.61 6 10.96 9.2 16.13.93 1.5 1.86 2.98 2.77 4.48a66.24 66.24 0 0 0 3.94 5.68c.94 1.25 2 2.43 3.01 3.56l.69.78Zm-29.74 74.9c.37 1.31 1.32 2 2.76 2h.05l-.03.16-.15 1.07-.26 2.03c-.24 1.9-.49 3.87-.7 5.81-.11.94-.17 1.89-.24 2.81l-.08 1.24c-.03.34-.05.54-.22.7-.15.16-.24.35-.32.5l-.12.23-.45.72c-.35.58-.71 1.17-1.13 1.69-.9 1.13-2 2.12-3.05 3.08l-.49.44a89.15 89.15 0 0 1-4.76 3.97l-.18.14a51.97 51.97 0 0 1-12.26 7.19c-.25.1-.55.18-.9.23-.53.07-1.07.13-1.6.18-1.06.1-2.15.22-3.2.46-3.57.83-7.33 1.92-10.64 4.35a13.48 13.48 0 0 0-3.85 4.07 17.52 17.52 0 0 1-1.62 2.37c-.58.78-1.18 1.57-1.68 2.45.07-2.1.4-4.12.7-5.7a7.19 7.19 0 0 1 2.57-4.46l.33-.26c.54-.44 1.1-.9 1.7-1.22a56.13 56.13 0 0 1 9.47-4.32c3.99-1.3 7.92-3.46 12.04-6.58a23.1 23.1 0 0 0 5.17-5.89l1.95-2.99 2.98-4.57a35.9 35.9 0 0 0 3.66-7.18l1.03-2.7c.47-1.2.94-2.43 1.39-3.65.38-1.06.74-2.14 1.1-3.2l.43-1.28c-.04.93-.03 1.84.04 2.76.08 1.21.27 2.35.56 3.36Z" fill="#000"/><path d="M137.37 71.77a6.63 6.63 0 0 0-3.34-2.04 67.6 67.6 0 0 1-1.9-.54l-2.24-.62c-.48-.12-.97-.15-1.45-.18l-.22-.02c-.22-.01-.56.1-.7.23a.43.43 0 0 0-.13.28h-.06l-.18.02c-1.44.25-2.94.74-4.72 1.55-1.89.86-3.2 2.34-4.5 3.9-.78.95-1.64 2.1-2.19 3.51a15.14 15.14 0 0 0-.84 6.9c.33 4.06 3.11 7.64 6.77 8.7.37.1.73.24 1.1.36l.34.13a13.06 13.06 0 0 0 6.34.74c7.5-1.03 12.04-7.67 11.96-13.23a14.76 14.76 0 0 0-.74-4.56c-.65-1.91-1.8-3.43-3.31-5.13Zm1.57 14.64-.04.06c-.6.95-1.22 1.94-1.92 2.84a9.3 9.3 0 0 1-6.22 3.59l-2.77.4-1.19.18c-4.38.07-9.53-3.64-10.16-9.75a12.6 12.6 0 0 1 3.39-9.82 12.49 12.49 0 0 1 9.44-4.06c.57.02 1.1.16 1.68.32.33.09.67.18 1.03.24 2.68.5 4.8 2.07 6.3 4.68 1.3 2.27 1.89 4.4 1.8 6.51a9.43 9.43 0 0 1-1.34 4.81Zm16.56 17.51c-.4-.06-.75.45-.83.68-.13.38-.22.77-.28 1.06a8.71 8.71 0 0 0-.07.34v.2c.03.68.05 1.27.61 1.7.2.17.4.24.6.24.23 0 .45-.11.64-.34.53-.66.76-2.5.25-3.3-.2-.33-.62-.53-.92-.58Zm3.04-.3a.36.36 0 0 0-.32.2 5.06 5.06 0 0 0-.4 2.47c0 .24.15.42.27.57l.1.13a.4.4 0 0 0 .24.16h.06c.08 0 .16-.02.22-.07l.14-.1c.16-.1.35-.22.45-.42.32-.6.4-1.28.28-2.15-.08-.52-.46-.8-1.04-.8v.01Z" fill="#000"/><path d="M133.7 78a7.92 7.92 0 0 0-5.5-4.08 7.86 7.86 0 0 0-6.57 1.75 8.42 8.42 0 0 0-3.11 6.21v.01c0 4.45 2.48 7.9 6.32 8.77.23.06.47.1.7.13.25.04.49.07.73.13.4.1.8.15 1.2.15.88 0 1.73-.2 2.56-.4l.38-.1c.37-.09.7-.32.96-.54a10.4 10.4 0 0 0 3.35-4.5c.66-1.8.66-3.58.02-5.3-.3-.78-.68-1.53-1.05-2.22Zm-7.01-2.67c1.12.22 2.25.55 3.34.86l.36.1c.1.04.25.21.35.33l.04.05c.15.17.3.36.43.55.26.34.53.7.85 1a4.8 4.8 0 0 1 1.6 3.7 7.7 7.7 0 0 1-3.06 6.44 6.7 6.7 0 0 1-3.94 1.39 6.45 6.45 0 0 1-5.64-3.55c-1-2.15-1.08-4.44-.27-7.21.61-2.07 3.02-3.75 5.18-3.75a4 4 0 0 1 .76.08Z" fill="#000"/></svg>