<svg viewBox="0 0 463 154" fill="none" xmlns="http://www.w3.org/2000/svg"><path d="M438.8 57.88c-25.9-15.88-56.69-18.06-84.14-21.66-33.72-4.43-67.47-9.46-101.26-12.21-30.64-2.5-61.16-1.63-91.78-1.42-42.75.29-87.5-4-128.77 12.78-13.9 5.65-34.66 18.73-29.85 45.23 2.74 15.1 15.21 24.53 24.14 30.77 20.1 14.04 42.24 17.91 64.05 21.26 74.94 11.5 151.05 11.26 226.11 10.68 42.78-.32 90.94 4.35 127.12-31.94 7.14-7.16 16.79-18.91 17.07-32.9.4-20.49-27.98-27.99-37.13-31.46-27-10.24-54.67-16.04-82.17-21.88-23.72-5.04-47.43-10.76-71.2-15.04-40.77-7.33-84.78-12.76-125.32-3.69-28.48 6.38-57.13 20.18-84.1 33.97-12.4 6.34-29.83 11.73-38.47 27.05-5.9 10.46-3.38 24.67 1.13 35.72 16.17 39.74 58.34 39.29 85.34 41.9 74.4 7.2 149.6 11.84 223.48-.52 25.24-4.22 49.97-12.4 73.4-25.7 13.91-7.88 27.86-17.65 42.9-20.65" stroke="#fff" stroke-width="3" stroke-linecap="round"/></svg>