<svg viewBox="0 0 1201 147" fill="none" xmlns="http://www.w3.org/2000/svg"><g clip-path="url(#a)" fill="#fff"><path d="M145.23 129.88a140.15 140.15 0 0 0 43.68-27.18v-65.9a139.53 139.53 0 0 0-94.45-36.68 139.52 139.52 0 0 0-94.46 36.67v65.9a139.52 139.52 0 0 0 94.46 36.7c17.9 0 35.04-3.37 50.77-9.5Zm-50.77-12.79c-7.5 0-14.82-.69-21.9-2a115.4 115.4 0 0 1-36-13.13c-4.88-2.77-9.57-5.9-14.01-9.34l-.2-.17-.04-.25c-.34-2.5-.42-4.88-.3-7.13.44-8.54 3.88-15.28 8.77-20.09a31.18 31.18 0 0 1 17.56-8.5 29.3 29.3 0 0 1 4.66-.24 42.1 42.1 0 0 1 82.92 0 31.02 31.02 0 0 1 22.21 8.74c4.9 4.81 8.34 11.54 8.77 20.1.12 2.24.02 4.61-.3 7.12l-.03.25-.2.17a116.77 116.77 0 0 1-29.16 16.54 115.38 115.38 0 0 1-20.86 5.93c-7.08 1.31-14.4 2-21.9 2Zm19.79-73.32a27.9 27.9 0 0 0-19.8-8.2 27.84 27.84 0 0 0-19.78 8.2 27.9 27.9 0 0 0-8.2 19.79 27.8 27.8 0 0 0 8.2 19.78 27.9 27.9 0 0 0 19.79 8.2c7.73 0 14.73-3.12 19.79-8.2a27.9 27.9 0 0 0 8.2-19.78c0-7.74-3.13-14.73-8.2-19.79Zm-19.8 6.74a13 13 0 0 1 13.04 13.03 13 13 0 0 1-13.03 13.03 13 13 0 0 1-13.03-13.03 13 13 0 0 1 13.03-13.03Zm198.69-26.41a26.47 26.47 0 0 0-18.78-7.76 26.54 26.54 0 1 0 0 53.08 26.54 26.54 0 0 0 18.78-45.32Zm-18.78-24.1a42.8 42.8 0 0 1 30.33 12.56 42.71 42.71 0 0 1 12.56 30.32 42.8 42.8 0 0 1-12.56 30.32 42.73 42.73 0 0 1-30.33 12.56 42.8 42.8 0 0 1-30.33-12.56 42.72 42.72 0 0 1-12.56-30.32c0-11.85 4.8-22.56 12.56-30.32a42.74 42.74 0 0 1 30.33-12.56Zm191.89 85.76h-51.49v-85.76h17.17v68.61h34.32v17.15Zm78.77-34.31v-8.57c0-7.06-2.9-13.5-7.57-18.17a25.64 25.64 0 0 0-36.35 0 25.63 25.63 0 0 0-7.57 18.17v8.57h51.49Zm-68.63 34.31v-42.88c0-11.8 4.82-22.52 12.59-30.3a42.77 42.77 0 0 1 60.6 0 42.76 42.76 0 0 1 12.59 30.3v42.88h-17.15v-17.15h-51.47v17.15h-17.16Zm95.95 0v-85.76h17.15v34.3h25.74a12.8 12.8 0 0 0 9.08-3.78 12.8 12.8 0 0 0 3.78-9.07v-21.45h17.15v21.45c0 8.27-3.38 15.76-8.81 21.21l-.24.24.24.23a29.93 29.93 0 0 1 8.78 21.22v21.44h-17.09v-21.44c0-3.52-1.46-6.73-3.81-9.08a12.81 12.81 0 0 0-9.08-3.78h-25.74v34.3h-17.15v-.03Zm144.73-61.66a26.47 26.47 0 0 0-18.78-7.76 26.54 26.54 0 1 0 0 53.08 26.54 26.54 0 0 0 18.78-45.32Zm-18.78-24.1a42.84 42.84 0 0 1 42.89 42.88 42.8 42.8 0 0 1-12.56 30.32 42.74 42.74 0 0 1-30.33 12.56 42.8 42.8 0 0 1-30.33-12.56 42.71 42.71 0 0 1-12.56-30.32c0-11.85 4.8-22.56 12.56-30.32a42.74 42.74 0 0 1 30.33-12.56Zm65.41 64.83a12.64 12.64 0 0 0 9.08 3.78h25.75a8.5 8.5 0 0 0 6.05-2.52 8.52 8.52 0 0 0 0-12.1 8.53 8.53 0 0 0-6.05-2.52h-21.46a25.7 25.7 0 0 1-18.19-7.55 25.65 25.65 0 0 1 0-36.34 25.67 25.67 0 0 1 18.2-7.55h25.73a30.23 30.23 0 0 1 21.22 8.8l-12.12 12.13a12.64 12.64 0 0 0-9.08-3.78h-25.74a8.6 8.6 0 0 0-8.58 8.57 8.6 8.6 0 0 0 8.58 8.57h21.45c7.1 0 13.52 2.9 18.18 7.55a25.66 25.66 0 0 1 0 36.36 25.67 25.67 0 0 1-18.18 7.55h-25.74a30.24 30.24 0 0 1-21.22-8.8l12.13-12.13v-.02Zm105.02-47.69v68.62h-17.15v-68.62h-17.17v-17.14h51.49v17.14h-17.17Zm44.48-17.14v42.88c0 7.06 2.88 13.5 7.56 18.17a25.64 25.64 0 0 0 36.35 0 25.63 25.63 0 0 0 7.56-18.17v-42.88h17.17v42.88c0 11.8-4.83 22.52-12.6 30.29a42.77 42.77 0 0 1-60.59 0 42.75 42.75 0 0 1-12.59-30.29v-42.88h17.15-.02Zm121.67 17.14h-25.74v51.46h25.74c7.06 0 13.5-2.9 18.17-7.57a25.6 25.6 0 0 0 0-36.34 25.62 25.62 0 0 0-18.17-7.56m-34.32-17.15h34.32c11.8 0 22.53 4.83 30.3 12.6a42.78 42.78 0 0 1 12.59 30.28c0 11.8-4.83 22.53-12.59 30.3a42.79 42.79 0 0 1-30.3 12.58h-42.9v-85.74h8.58v-.02Zm104.51.02h-17.15v85.76h17.15v-85.76Zm71.83 24.1a26.47 26.47 0 0 0-18.78-7.76 26.54 26.54 0 1 0 0 53.08 26.54 26.54 0 0 0 18.78-45.32Zm-18.78-24.1c11.84 0 22.56 4.8 30.33 12.56a42.74 42.74 0 0 1 12.56 30.32 42.82 42.82 0 0 1-12.56 30.32 42.74 42.74 0 0 1-30.33 12.56 42.81 42.81 0 0 1-30.33-12.56 42.7 42.7 0 0 1-12.56-30.32 42.79 42.79 0 0 1 12.56-30.32 42.74 42.74 0 0 1 30.33-12.56Zm-762.31 41.87c5.46 4.67 8.8 11.06 8.8 18.17a25.6 25.6 0 0 1-7.54 18.17 25.66 25.66 0 0 1-18.18 7.55h-51.46v-85.76h49.33c7.1 0 13.52 2.89 18.18 7.55a25.66 25.66 0 0 1 7.54 18.18c0 6.12-2.48 11.72-6.67 16.14Zm-51.23 9.6v17.14h34.31a8.6 8.6 0 0 0 8.58-8.57c0-2-1.18-3.95-3.04-5.44-2.42-1.94-5.89-3.13-9.82-3.13v-.07c-.7.05-1.43.07-2.15.07h-27.88Zm0-34.3v17.14h27.88c3.93 0 7.4-1.2 9.81-3.13 1.89-1.51 3.05-3.45 3.05-5.45 0-2.35-.96-4.48-2.52-6.05a8.53 8.53 0 0 0-6.06-2.52h-32.16Zm-112.7 103.17h9.06c4.27 0 7.13 1.98 7.13 4.87 0 1.99-1.53 3.67-3.85 4.46 2.93.65 4.73 2.28 4.73 4.57 0 3.04-3.25 5.14-8 5.14h-9.07v-19.04Zm9.06 2.17h-6.25v6.2h6.25c2.44 0 4.4-1.38 4.4-3.16 0-1.78-1.76-3.04-4.4-3.04Zm0 8.27h-6.25v6.4h6.25c3.13 0 5.18-1.21 5.18-3.16 0-1.95-1.98-3.24-5.18-3.24Zm33.41 8.6v-14.35l-13.36 14.35h-2.56v-19.04h3.04v14.28l13.42-14.28h2.52v19.04h-3.06Zm15.39-2.68a19.16 19.16 0 0 0 2.16-9.2v-7.16h14.78v16.37h3.58v7.61h-2.89v-4.95h-17.67v4.95h-2.82v-7.61h2.86Zm14.08 0v-13.74h-9.06v4.54c0 3.5-.69 6.5-2.05 9.2h11.13-.01Zm17.52-5.96c.34 3.92 3.05 6.78 6.68 6.78a6.91 6.91 0 0 0 6.1-3.55h3.13a9.67 9.67 0 0 1-9.21 5.98c-5.6 0-9.76-4.3-9.76-10.05 0-5.75 4.07-10.13 9.76-10.13 5.68 0 9.87 4.11 9.87 10.13 0 .27-.04.54-.04.84h-16.53Zm13.46-1.75c-.34-4-3.02-6.7-6.78-6.7-3.77 0-6.32 2.77-6.68 6.7h13.46Zm21.33-9.22c5.87 0 10.14 4.11 10.14 10.13 0 6.02-4.27 10.05-10.14 10.05-5.87 0-10.02-4.3-10.02-10.05 0-5.75 4.3-10.13 10.02-10.13Zm0 17.3c4.24 0 7.08-2.9 7.08-7.2 0-4.3-2.9-7.23-7.08-7.23-4.19 0-6.98 3.08-6.98 7.23s3.01 7.2 6.98 7.2Zm38.01-16.73v19.04h-3.04v-16.19h-12.42v16.2h-3.05v-19.05h18.51Zm12.92 0 .38 3.76a8.55 8.55 0 0 1 7.5-4.33c5.18 0 9.06 4.3 9.06 10.05 0 5.75-3.85 10.13-9.06 10.13-3.16 0-5.9-1.6-7.46-4.33v11.4h-3.05v-26.67h2.63v-.01Zm7.08 2.17c-4 0-6.68 3-6.68 7.34s2.74 7.31 6.68 7.31c3.93 0 6.82-3.04 6.82-7.3 0-4.28-2.89-7.35-6.82-7.35Zm28.11-2.74c5.87 0 10.14 4.11 10.14 10.13 0 6.02-4.27 10.05-10.14 10.05-5.87 0-10.02-4.3-10.02-10.05 0-5.75 4.3-10.13 10.02-10.13Zm0 17.3c4.23 0 7.08-2.9 7.08-7.2 0-4.3-2.9-7.23-7.08-7.23-4.19 0-6.98 3.08-6.98 7.23s3.01 7.2 6.98 7.2Zm20.73-.37a19.17 19.17 0 0 0 2.17-9.2v-7.16h14.78v16.37h3.58v7.61h-2.9v-4.95h-17.67v4.95h-2.82v-7.61h2.86Zm14.09 0v-13.74h-9.06v4.54c0 3.5-.7 6.5-2.06 9.2h11.13-.01Zm31.47 2.68-.38-3.91a8.34 8.34 0 0 1-7.5 4.48c-5.21 0-9.18-4.3-9.18-10.05 0-5.75 3.96-10.13 9.18-10.13a8.3 8.3 0 0 1 7.46 4.48l.42-3.91h2.63v19.04h-2.63Zm-7.08-2.2c3.92 0 6.68-2.97 6.68-7.31s-2.74-7.35-6.68-7.35c-3.93 0-6.92 3.05-6.92 7.35s2.92 7.31 6.92 7.31Zm23.53 2.2h-3.05v-19.04h3.05v8.15h3.4l6.2-8.15h3.43l-7.35 9.53 8.27 9.53h-3.58l-6.9-8.07h-3.46v8.07l-.01-.02Zm21.82-19.04h3.04v16.15h11.23v-16.15h3.05v16.15h11.31v-16.15h3.05v19.04h-31.7v-19.04h.02Zm42.44 0h3.04v8.03h13.1v-8.03h3.04v19.04h-3.04v-8.07h-13.1v8.07h-3.04v-19.04Zm60.34 19.04v-14.35l-13.37 14.35h-2.55v-19.04h3.04v14.28l13.42-14.28h2.52v19.04h-3.06Zm44.03 0-.38-3.91a8.34 8.34 0 0 1-7.5 4.48c-5.22 0-9.18-4.3-9.18-10.05 0-5.75 3.97-10.13 9.18-10.13a8.3 8.3 0 0 1 7.46 4.48l.42-3.91h2.63v19.04h-2.63Zm-7.08-2.2c3.92 0 6.68-2.97 6.68-7.31s-2.74-7.35-6.68-7.35c-3.93 0-6.92 3.05-6.92 7.35s2.92 7.31 6.92 7.31Zm20.48-16.84h3.04v8.03h13.1v-8.03h3.05v19.04h-3.05v-8.07h-13.1v8.07h-3.04v-19.04Zm45.87 19.04v-14.35l-13.37 14.35h-2.55v-19.04h3.04v14.28l13.42-14.28h2.52v19.04h-3.06Zm16.64 0h-2.82v-19.04h3.16l7.28 14.86 7.31-14.86h3.13v19.04h-2.82v-14.32l-6.75 14.32h-1.74l-6.75-14.47v14.47Zm44.64 0-.38-3.91a8.34 8.34 0 0 1-7.5 4.48c-5.21 0-9.18-4.3-9.18-10.05 0-5.75 3.97-10.13 9.18-10.13a8.3 8.3 0 0 1 7.46 4.48l.42-3.91h2.63v19.04h-2.63Zm-7.08-2.2c3.92 0 6.68-2.97 6.68-7.31s-2.74-7.35-6.68-7.35c-3.93 0-6.92 3.05-6.92 7.35s2.92 7.31 6.92 7.31Zm20.48-16.84h3.05v16.15h13.41v-16.15h3.05v16.15h3.61v9.21h-2.82v-6.32h-20.31v-19.04h.01Zm48.51 19.04v-14.35l-13.37 14.35h-2.55v-19.04h3.04v14.28l13.42-14.28h2.52v19.04h-3.06Zm22.55-19.61c5.86 0 10.13 4.11 10.13 10.13 0 6.02-4.27 10.05-10.13 10.05-5.87 0-10.02-4.3-10.02-10.05 0-5.75 4.3-10.13 10.01-10.13Zm0 17.3c4.23 0 7.07-2.9 7.07-7.2 0-4.3-2.89-7.23-7.08-7.23-4.18 0-6.97 3.08-6.97 7.23s3 7.2 6.98 7.2Zm19.5-16.73h3.04v8.03h13.1v-8.03h3.04v19.04h-3.04v-8.07h-13.1v8.07h-3.04v-19.04Zm29.93 0h3.04v8.03h13.1v-8.03h3.04v19.04h-3.04v-8.07h-13.1v8.07h-3.04v-19.04Zm45.68 19.04-.39-3.91a8.34 8.34 0 0 1-7.5 4.48c-5.21 0-9.18-4.3-9.18-10.05 0-5.75 3.97-10.13 9.18-10.13a8.3 8.3 0 0 1 7.47 4.48l.42-3.91h2.62v19.04h-2.62Zm-7.08-2.2c3.92 0 6.67-2.97 6.67-7.31s-2.74-7.35-6.67-7.35c-3.93 0-6.93 3.05-6.93 7.35s2.93 7.31 6.93 7.31Zm17.55 2.2 5.53-6.32c-2.92-.99-4.84-3.13-4.84-6.08 0-4.07 3.7-6.63 8.79-6.63h8.13v19.05h-2.83v-5.72h-5.3c-.45 0-.87-.03-1.29-.08l-4.69 5.78h-3.5Zm9.48-8.18h5.3v-8.34h-5.3c-3.58 0-5.86 1.56-5.86 4.12 0 2.55 2.25 4.22 5.86 4.22Zm42.14 5.98a6.88 6.88 0 0 0 6.67-4.49h3.16c-1.26 4.39-4.96 7.28-9.83 7.28a9.78 9.78 0 0 1-9.99-10.05c0-5.75 4.24-10.14 9.99-10.14 4.84 0 8.54 2.86 9.78 7.25h-3.16a6.91 6.91 0 0 0-6.62-4.5c-4 0-6.93 3.17-6.93 7.35 0 4.19 2.93 7.32 6.93 7.32v-.02Zm24.9-13.98h-7.85v-2.86h18.78v2.85h-7.89v16.2h-3.04v-16.2Zm25.64 23.68 2.59-7.5h-4.91l-6.47-19.04h3.12l5.45 15.88h3.88l5.45-15.88h3.1l-9 26.54h-3.21Zm20.19-10.18a19.11 19.11 0 0 0 2.17-9.2v-7.16h14.78v16.37h3.58v7.61h-2.89v-4.95h-17.67v4.95h-2.83v-7.61h2.86Zm14.09 0v-13.74h-9.06v4.54c0 3.5-.69 6.5-2.05 9.2h11.13-.02Zm31.84 2.68v-14.35l-13.36 14.35h-2.56v-19.04h3.05v14.28l13.41-14.28h2.52v19.04h-3.06Zm10.9 0 5.53-6.32c-2.92-.99-4.84-3.13-4.84-6.08 0-4.07 3.7-6.63 8.79-6.63h8.12v19.05h-2.82v-5.72h-5.3c-.45 0-.87-.03-1.29-.08l-4.69 5.78h-3.5Zm9.48-8.18h5.3v-8.34h-5.3c-3.58 0-5.87 1.56-5.87 4.12 0 2.55 2.26 4.22 5.87 4.22Z"/></g><defs><clipPath id="a"><path fill="#fff" transform="translate(0 -.001)" d="M0 0h1201v147h-1201z"/></clipPath></defs></svg>