<svg viewBox="0 0 189 140" fill="none" xmlns="http://www.w3.org/2000/svg"><path d="M145.23 129.88a140.15 140.15 0 0 0 43.68-27.18v-65.9a139.53 139.53 0 0 0-94.45-36.68 139.52 139.52 0 0 0-94.46 36.67v65.9a139.52 139.52 0 0 0 94.46 36.7c17.9 0 35.04-3.37 50.77-9.5Zm-50.77-12.79c-7.5 0-14.82-.69-21.9-2a115.4 115.4 0 0 1-36-13.13c-4.88-2.77-9.57-5.9-14.01-9.34l-.2-.17-.04-.25c-.34-2.5-.42-4.88-.3-7.13.44-8.54 3.88-15.28 8.77-20.09a31.18 31.18 0 0 1 17.56-8.5 29.3 29.3 0 0 1 4.66-.24 42.1 42.1 0 0 1 82.92 0 31.02 31.02 0 0 1 22.21 8.74c4.9 4.81 8.34 11.54 8.77 20.1.12 2.24.02 4.61-.3 7.12l-.03.25-.2.17a116.77 116.77 0 0 1-29.16 16.54 115.38 115.38 0 0 1-20.86 5.93c-7.08 1.31-14.4 2-21.9 2Zm19.79-73.32a27.9 27.9 0 0 0-19.8-8.2 27.84 27.84 0 0 0-19.78 8.2 27.9 27.9 0 0 0-8.2 19.79 27.8 27.8 0 0 0 8.2 19.78 27.9 27.9 0 0 0 19.79 8.2c7.73 0 14.73-3.12 19.79-8.2a27.9 27.9 0 0 0 8.2-19.78c0-7.74-3.13-14.73-8.2-19.79Zm-19.8 6.74a13 13 0 0 1 13.04 13.03 13 13 0 0 1-13.03 13.03 13 13 0 0 1-13.03-13.03 13 13 0 0 1 13.03-13.03Z" fill="#fff"/></svg>