<svg viewBox="0 0 220 308" fill="none" xmlns="http://www.w3.org/2000/svg"><g clip-path="url(#a)" fill="#000"><path d="m219.72 125.53.01-.02.06-.08c.08-.1.22-.28.17-.55-.15-.8-.28-1.6-.41-2.4-.32-1.9-.64-3.87-1.14-5.76a40.29 40.29 0 0 0-4.54-10.42l-.22-.38c-2.01-3.4-3.9-6.61-4.56-10.45-.06-.4-.16-.96-.52-1.31-.44-.43-.48-.98-.53-1.61l-.04-.46c-.04-.3-.05-.62-.07-.94l-.04-.78a35.57 35.57 0 0 0-1.43-8 63.49 63.49 0 0 0-5.28-11.95 109.14 109.14 0 0 0-8.38-12.48 18.52 18.52 0 0 1-2.37-3.75 78.18 78.18 0 0 0-1.28-2.7c-.5-1.03-1.14-2.19-2.5-2.8a.91.91 0 0 1-.28-.3l-.34-.55c-.45-.7-.9-1.42-1.28-2.15-1.4-2.75-3.63-4.8-5.77-6.78l-.37-.35c-.9-.83-1.88-1.62-2.81-2.38a52.46 52.46 0 0 1-2.85-2.42 23.91 23.91 0 0 0-6.28-3.97 41.5 41.5 0 0 0-13.31-3.75c-.9-.1-1.78-.31-2.71-.54l-.58-.15 2.22-2.8a513.3 513.3 0 0 0 5.78-7.33c.88-1.14 1.58-2.43 2.26-3.67l.04-.08a5 5 0 0 0 .53-1.97c.05-.53-.07-.94-.35-1.25-.29-.3-.73-.46-1.29-.45-.24 0-.47.06-.67.11l-.15.04c-3.16.69-6.13 2.26-9.1 4.8a36.1 36.1 0 0 0-4.04 4.09l.32-.56 2.13-3.74a27.9 27.9 0 0 0 2.74-5.94c.34-1.17.63-2.42.16-3.71-.2-.5-.47-.95-.74-1.38l-.3-.5c-.25-.43-.6-.92-1.18-1-.58-.08-1.05.31-1.36.61a12 12 0 0 0-1.61 2c-.43.63-.83 1.29-1.23 1.92a51.2 51.2 0 0 1-1.1 1.74 198.43 198.43 0 0 0-10.45 17.13l-.15-.08a14.1 14.1 0 0 1-1.27-.74c-3.02-2.13-6.45-3.31-9.72-4.28-6.11-1.8-12.13-2-17.88-.58a90.48 90.48 0 0 0-15.53 5.6c-1.28.58-2.55 1.24-3.78 1.87-1.26.65-2.56 1.33-3.87 1.9a64.38 64.38 0 0 0-23.11 17.22c-5.38 6.34-9.92 13.78-14.73 24.12-.46.99-.15 1.72.25 2.34a65.02 65.02 0 0 0-4.62 2c-5.01 2.38-8.73 5.82-11.06 10.2-1.43 2.72-2.83 5.65-2.75 9.03.04 1.86.19 3.91.47 6.45.33 3.03 1.76 5.6 3.12 7.72.93 1.45 2.27 2.7 3.98 3.73a.73.73 0 0 0-.21.44c-.02.23-.03.49.02.74.57 3.07.7 6.4.38 10.21a111.9 111.9 0 0 1-2.22 14.84c-1.2 5.48-2.61 9.76-4.45 13.47a97.43 97.43 0 0 1-8.75 14.53 282.35 282.35 0 0 0-3.78 5.3l-.68.97c-.3.4-.57.85-.43 1.32.13.46.6.7 1.08.9l2.78 1.18 3.48 1.47c.78.34 1.54.72 2.29 1.12l2.63 1.46c1.23.68 2.5 1.4 3.77 2.06a55.73 55.73 0 0 0 9 4.02c3.46 1.1 7.1 1.5 10.6 1.88l.69.08c2.94.32 5.83-.17 8.61-.65l1.35-.22a.56.56 0 0 0 .23-.1c.58-.44 1.02-.22 1.8.25l.2.13a16.04 16.04 0 0 0 5.74 2.07c2.52.38 5.45.8 8.37 1.1 2.87.3 5.79.55 8.6.8l4.1.36.15.02v8.93c-.02 1.46-.06 2.93-.1 4.39v.19c-.46-.12-.95.12-1.13.22a3.2 3.2 0 0 0-.36.21l-2.7 1.77a451.57 451.57 0 0 0-6.3 4.14c-3.51 2.37-3.69 2.62-4.66 6.75a857.7 857.7 0 0 0-1.98 8.74c-.66 2.9-1.33 5.9-2.02 8.85a74.18 74.18 0 0 0-1.94 14.16c-.04 1.15.02 2.3.08 3.42.04.8.1 1.61.1 2.41 0 1.06.22 2.05.5 2.98a262.6 262.6 0 0 1-4.31-4.93c-.86-1-1.7-2-2.58-2.99l-.2-.22c-1.4-1.6-2.84-3.26-4.87-4.2l.13-.3c.2-.5.4-1 .66-1.45.77-1.4 1.56-2.81 2.35-4.21l1.45-2.58c.15-.27.27-.53.42-.87l.26-.58a.52.52 0 0 0-.77-.64c-.99.7-4.9 7.54-6.07 10.03h-.02c-.33-.14-.67-.28-1-.4l-.45-.17c-.94-.36-1.75-.66-2.28-1.48-.33-.5-.97-.75-1.5-.95-.43-.17-.89-.3-1.32-.44l-.93-.28c-.3-.1-.6-.22-.78-.38-.42-.38-.83-.77-1.23-1.16-.42-.4-.85-.82-1.3-1.21a3.96 3.96 0 0 0-1.43-.88c-2.85-.9-5.4-.58-7.57.9a27.13 27.13 0 0 0-6.28 5.62c-.32.42-.7.7-1.23.92a30.2 30.2 0 0 0-7.83 4.74l-.1.09c-1.2 1-2.45 2.02-2.7 3.8-.27.18-.43.4-.49.67-.1.45.16.83.33 1.08.5.77.99 1.44 1.46 2.05l5.65 7.22c1.97 2.5 3.5 4.4 4.95 6.19l.96 1.18c3.07 3.77 6.24 7.67 9.55 11.36a64 64 0 0 1 1.49 1.73.5.5 0 0 0-.33.2c-1.3 1.73-2.1 8.54-1.2 10.27.09.17.27.28.46.28l.1-.01c.23-.05.4-.24.41-.47l.1-1.6c.06-1.14.12-2.22.24-3.3.13-1.1.34-2.23.54-3.31.08-.45.17-.9.24-1.36.84 1.03 1.66 2.07 2.46 3.1l1.42 1.8c-.97.29-1.66 1.07-2.1 2.38-.27.79-.42 1.62-.56 2.42l-.03.17-.24 1.24a26.89 26.89 0 0 0-.68 5.97c.02.59.04 1.37.42 2.08a7.24 7.24 0 0 1-3.3-1.29l-1.16-.84c-2.71-1.95-5.51-3.98-8.3-5.94a809.9 809.9 0 0 0-10.18-7.03 100.68 100.68 0 0 0-4.92-3.15c-1.32-.8-2.7-1.56-4.01-2.31l-2.55-1.44a4.5 4.5 0 0 1-2.11-2.5l-.3-.9c-.46-1.3-.92-2.65-1.14-3.99-.21-1.28-.32-2.6-.43-3.87-.11-1.27-.22-2.58-.43-3.86-.5-3.12-.03-6.2 1.5-9.7a7.43 7.43 0 0 1 2.61-3.17l.52-.36a113.9 113.9 0 0 0 6.65-5 163.06 163.06 0 0 1 24.55-16.57l4.14-2.37c.3-.18.61-.34.95-.5l4.65-2.37c7.2-3.66 14.4-7.31 21.62-10.95.39-.2.82-.34 1.28-.48l.72-.24c.16-.06.58-.2.7-.62.15-.45-.14-.87-.24-1a.51.51 0 0 0-.63-.18l-.86.38c-.64.28-1.29.56-1.92.88l-2.85 1.44c-5.51 2.77-11.22 5.64-16.8 8.5a336.36 336.36 0 0 0-9.73 5.2c-1.7.93-3.4 1.93-5.04 2.9l-2.46 1.44-1.07.6c-.68.37-1.4.76-2.06 1.2a474.44 474.44 0 0 0-8.66 6 116.92 116.92 0 0 0-7.41 5.68 71.5 71.5 0 0 1-7.17 5.36 6.32 6.32 0 0 0-2.09 2.08c-1.25 2.2-2.67 5.15-2.6 8.57.06 3 .33 6 .6 8.8.27 2.7.92 5.29 1.93 7.67a6.23 6.23 0 0 0 2.5 3.09l3.8 2.21 2.4 1.4 1.08.61c.98.56 1.99 1.14 2.92 1.78a394.2 394.2 0 0 1 6.7 4.68l3.13 2.2c1.07.76 2.15 1.5 3.22 2.25a344.2 344.2 0 0 1 7.39 5.22 12.1 12.1 0 0 0 4.9 2.14 3.9 3.9 0 0 0 2.33-.26 14.16 14.16 0 0 0 4.21-2.67c1.15-1.03 2.3-2.12 3.4-3.18l1.09-1.03.3.34a31.2 31.2 0 0 0 1.6 1.67 506 506 0 0 0 6.47 5.97c.25.22.53.38.8.54l.32.19c.24.14.54.09.7-.14l.17-.23a.5.5 0 0 0-.05-.65l-.14-.17c-.12-.14-.26-.3-.44-.44a53.44 53.44 0 0 1-7.1-6.58c-.34-.37-.65-.77-.98-1.2-.3-.38-.6-.79-.95-1.17-.41-.46-.86-.9-1.28-1.33-.43-.43-.87-.87-1.28-1.33-.7-.8-1.45-1.57-2.17-2.33a45.57 45.57 0 0 1-4.56-5.33 43.37 43.37 0 0 0-3.05-3.81l-2.25-2.57c-2.73-3.12-5.56-6.34-8.08-9.72-.34-.45-.71-.87-1.08-1.26l-.72-.81-.09-.11c-1-1.21-2.04-2.46-3.03-3.72l-3.28-4.27-1.77-2.3-.91-1.17-1.3-1.66c-.45-.6-.43-1.51.04-2.11a9.5 9.5 0 0 1 1.44-1.52 20.83 20.83 0 0 1 4.98-2.93 30.9 30.9 0 0 1 8.21-2.16c2.44-.3 4.9-.5 7.62-.7 4.27-.32 7.84-.53 11.51-.06 1.73.22 3.5.45 4.86 1.72l.11.1c.52.5 1.05 1 1.52 1.52l3.98 4.59 1.7 1.95a87.81 87.81 0 0 0 9.03 9.36 9.64 9.64 0 0 0-1.36 4.75l-.04 1-.2 6.42c0 .45.04.92.14 1.35.2.94.75 1.63 1.48 1.87.74.25 1.58.02 2.32-.6a8.4 8.4 0 0 0 2.28-3.18l.26-.59c-.02 3.68.9 7.35 2.74 10.93.33.66.72 1.34 1.26 1.87.55.52 1.26.76 1.94.66.7-.11 1.3-.57 1.67-1.26a6 6 0 0 0 .61-1.77 20.47 20.47 0 0 0-.64-9.46l1.22 1.35 1.31 1.45c.81.88 1.7 1.72 2.65 2.5a4.7 4.7 0 0 0 3.37 1.05c1.11-.07 1.6-.43 1.9-1.45a4.7 4.7 0 0 0-.2-3.77c-.5-.89-1.09-2-1.88-2.88-.78-.87-1.66-1.67-2.5-2.44l-.93-.85c-.22-.2-.45-.4-.69-.59l.27-.35 1.14-1.52 1.47-1.93 8.3-10.86a46.01 46.01 0 0 0 4.82-8.03c.12-.24.1-.48.07-.67v-.19c0-.18-.1-.34-.25-.44a.51.51 0 0 0-.5-.03l-.13.06a.75.75 0 0 0-.4.29c-.16.26-.32.52-.46.8a40.89 40.89 0 0 1-4.73 7.7l-4.68 6.14-6.2 8.13-.4-.26c-.52-.34-1-.67-1.53-.96-1.7-.97-2.73-.99-4.04 0-.82-.67-1.5-1.07-2.2-1.07.17-.1.3-.23.42-.35l1.3-1.34c.75-.76 1.5-1.53 2.26-2.28 1.91-1.88 3.45-4 4.58-5.63a169.5 169.5 0 0 1 5.68-7.76c2.49-3.2 5.43-6.09 8.28-8.9l.89-.86c3.9-3.83 7.92-7.8 12.37-11.16a42.4 42.4 0 0 1 9.85-5.61c.7-.28 1.46-.43 2.26-.6l.76-.15c.3-.06.53-.01.75.4l.2.4c1 1.84 2.03 3.77 2.43 5.83l.13.65c.67 3.38 1.36 6.88 1.47 10.4l.03.96c.07 1.84.14 3.58-.22 5.33-1.02 5.1-2.48 9.95-3.78 14.01-2.31 7.3-4.9 13.1-8.11 18.27a354.3 354.3 0 0 0-9.67 16.9l-1.49 2.7c-1.03 1.88-2.05 3.78-3.07 5.68l-1.4 2.59a.52.52 0 0 0 .46.76h.74c.2 0 .4-.12.47-.3l.27-.67c.19-.45.36-.89.58-1.3 1.41-2.51 2.82-5.09 4.18-7.58a364.52 364.52 0 0 1 10.29-18c3.45-5.56 6.23-11.95 8.73-20.13l.53-1.65c.03.1.04.22.06.32.22 1.33.46 2.7.59 4.07.35 3.71.6 7.45.83 11.07a152.8 152.8 0 0 0 2.8 21.36 183.7 183.7 0 0 1 1.5 8.53c.2 1.29.41 2.58.63 3.86.04.25.26.43.5.43h.5c.14 0 .28-.06.38-.16.09.1.22.16.37.16h.5c.14 0 .29-.07.39-.19a.5.5 0 0 0 .11-.41l-2.5-15.11c1.55.3 3.28.47 5.05-.26a.54.54 0 0 0 .32-.48v-.56c.01-.45.02-.91-.01-1.38-.06-.71-.12-1.43-.2-2.14-.07-.81-.15-1.61-.2-2.42-.06-.83-.1-1.66-.14-2.5-.05-1.2-.11-2.45-.22-3.68-.16-1.71-.35-3.45-.55-5.12-.18-1.63-.37-3.31-.52-4.97-.28-2.91-.53-5.89-.77-8.76l-.53-6.14-.1-1.19c-.14-1.6-.28-3.25-.54-4.87a398.37 398.37 0 0 0-2.66-14.35c-.54-2.6-1.1-5.29-1.22-7.99a8.43 8.43 0 0 0-2.78-6.05l-.37-.35a9.57 9.57 0 0 0-.76-.69c-.68-.53-1.37-1.1-2.03-1.66-1.79-1.48-3.63-3.02-5.8-4.1a9.28 9.28 0 0 1-1.91-1.38l.2-.05c.7-.2 1.32-.36 1.95-.5l3.68-.76c3.36-.7 6.82-1.43 10.25-2 4.59-.75 9.49-1.4 14.56-1.95 4.31-.45 9.97-1.22 15.48-3.1a33.48 33.48 0 0 0 10.7-5.93l1.51-1.28c1.05-.89 2.13-1.8 3.24-2.64a61.12 61.12 0 0 0 8.23-7.45c4.06-4.4 7.67-9.67 11.06-16.08l4.8-9.03 4.84-9.1c.7-1.36 1.45-2.8 1.99-4.34 1.33-3.74 2.7-7.62 3.4-11.7.29-1.68.61-3.38.93-5.03l.54-2.86a3 3 0 0 0-.22-1.92l-.03-.04Zm-175.34 167.24c.17-.57.36-1.14.56-1.7l.36.4a25720.54 25720.54 0 0 1 5.09 5.58c-1.08 1.9-5.18 5.44-7.24 6.3v-.13l.04-1.88c.03-1.64.06-3.34.21-4.99.08-.84.36-1.67.65-2.55.12-.34.23-.69.33-1.03Zm-13.74-51.05a58.09 58.09 0 0 1 3.37-2.77 6.64 6.64 0 0 1 4.03-1.37c.68 0 1.38.1 2.1.3.45.12.94.4 1.52.85.4.31.79.67 1.18 1.05l-1.43.12c-1.91.15-3.72.3-5.53.65-1.77.34-3.46.89-5.25 1.46l-.52.16.52-.44v-.01Zm17.79 1.85c-2.67-.11-5.36.07-7.96.25-1.1.07-2.21.15-3.32.2-3.23.16-6.39.6-9.38 1.32-1 .24-1.94.52-2.84.83.38-.18.77-.34 1.15-.5 1.82-.71 3.6-1.49 5.56-2.36 2.77-1.22 5.68-1.5 8.77-1.78l.1-.01c.45-.04.9-.06 1.35-.06 1.54 0 3.2.23 5.2.73.8.2 1.26.41 1.53.98.09.17.21.3.36.42l-.53-.03Zm45.6 35.87a3.89 3.89 0 0 1-.25 1.8.33.33 0 0 1-.11.02c.2-.6.32-1.21.36-1.82Zm114.05-181.82.3 1.1.05.2.06.21c.05.13.09.26.08.34l-.13 2.22c-.11 2-.22 4.06-.65 6.05l.29-10.12Zm-27.13-54.58c.8.9 1.47 1.98 2.12 3.01l.56.88c.13.2.24.41.35.63-1.2-1.62-2.44-3.25-3.78-5a28.63 28.63 0 0 0-1.81-2.12 39.9 39.9 0 0 1 2.56 2.6Zm-21.28-14.2c2.36.74 5.43 1.8 8.35 3.41a37.54 37.54 0 0 1 6.03 4.4 33.92 33.92 0 0 0-5.9-3.32c-.94-.42-1.88-.82-2.83-1.23-1.67-.72-3.4-1.47-5.07-2.26-.93-.45-1.83-1-2.72-1.53.73.15 1.45.31 2.15.53Zm-.4-19.47h.08v.17c-.02.23-.06.43-.11.6-.22.6-.5 1.21-.84 1.8.2-.96.01-1.6-.7-2.16.55-.15 1.05-.29 1.56-.4Zm-13.04 10.33c1.52-1.56 3.23-3.24 5.37-5.29.96-.92 2-1.84 3.12-2.74.35-.28.81-.53 1.36-.7.41-.14.65-.11.72-.04.08.06.14.3.05.75a7.07 7.07 0 0 1-.6 1.62 32.04 32.04 0 0 1-5.75 8.7c-.66.7-1.26 1.45-1.9 2.26l-.78.98c-.82-.04-1.65-.02-2.51 0-1.3.04-2.64.08-4.01-.12.13-.2.26-.4.4-.55l.44-.49c1.32-1.45 2.69-2.96 4.08-4.39h.01Zm3.08-15.05c-.02.45-.13.88-.25 1.28-.27.9-.57 1.83-1.02 2.67l-1.6 2.96c.2-.5.43-1 .64-1.51.76-1.75 1.54-3.54 2.23-5.4Zm-11.54 14.6 6.23-11.16a15.67 15.67 0 0 1 2.92-3.92c.38-.36.78-.68 1.21-1.02a1.8 1.8 0 0 1-.09.44c-.32.96-.69 1.92-1.08 2.84a269.85 269.85 0 0 0-7.5 18.42l-4.67-.26 2.99-5.34Zm.53 7.1-2.1.31-11.29 1.7c1.04-.32 2.1-.65 3.13-1.04a18.83 18.83 0 0 1 6.83-1.12 43 43 0 0 1 3.43.16v-.01Zm-5.48-1.71.03.01c-.12.06-.27.1-.49.12l-.54.06-.79.1c.1-.2.08-.43-.06-.59l-.2-.21c.57.36 1.24.68 2.05.5Zm-30.88-4.86c1.1-.39 2.27-.63 3.28-.82 2.06-.38 4.1-.58 6.17-.58 4.08 0 8.18.76 12.4 2.27-2.63-.7-5.53-1.1-8.89-1.22-3.34-.13-6.8.1-10.58.72-2.32.38-4.62.77-6.9 1.25 1.51-.55 3.02-1.1 4.52-1.62Zm-65.71 55.9c3.33-2.13 7.12-3.51 10.46-4.73l2.05-.73c1.95-.7 3.97-1.4 5.92-2.23l-.26.12c-6.68 3-12.5 5.62-17.83 7.99-1.2.53-2.35 1.17-3.45 1.93a24.9 24.9 0 0 1 3.11-2.34Zm38.9 111.33-.34-.04c-2.91-.36-5.6-.71-8.2-1.09a15.26 15.26 0 0 1-5.4-1.91 36.5 36.5 0 0 0-1.7-.9c-.63-.32-1.28-.65-1.89-1-2.08-1.22-3.5-3.17-4.68-4.9a60.5 60.5 0 0 1-9.28-22.13c-.68-3.4-1.12-7-1.3-10.68 3.28-.04 6.26-1.1 8.88-3.15 3.7-2.9 6.07-6.95 7.03-12l.08-.42c.17-.9.35-1.84.47-2.78.3-2.24.14-4.64-.53-7.54a24.25 24.25 0 0 0-2.95-7.62c-1.58-2.54-3.69-3.93-6.45-4.23l-3.66-.4.07-.48a143.48 143.48 0 0 0 .76-5.33c.25-1.87.51-3.8.8-5.7a32.48 32.48 0 0 1 3.04-9.85c.34-.67.63-1.33.88-1.96.1-.28.17-.57.24-.9l.07-.32c1.42-.76 3.05-1.35 4.77-1.98l.89-.33c2.65-.98 5.45-1.69 8.15-2.38 1.65-.41 3.36-.85 5.02-1.34 5.16-1.52 10.5-3.1 15.54-5.56a39.88 39.88 0 0 0 13.89-11.24c-.02 4.44.3 8.41.98 12.14.3 1.62.97 3.22 2.13 5.05a48.24 48.24 0 0 0 9.36 10.7 263 263 0 0 1 6.06 5.36l2.72 2.45a36.3 36.3 0 0 1 10.3 15.75c1.29 3.86 1.14 7.8.83 11.16-.46 4.97-1.95 9.58-4.05 14.97l-3.57 9.27c-1.98 5.18-4.02 10.53-6.12 15.75a278.4 278.4 0 0 0-7.2 19.52c-.12.4-.28.6-.62.74-1.06.45-2.18.94-3.29 1.54a18.1 18.1 0 0 0-2.55 1.66 10.26 10.26 0 0 1-4.01 1.91 45.32 45.32 0 0 1-9.32 1.28c-5.3.19-10.67-.46-15.85-1.1Zm-29.52-60.23h.13a3.3 3.3 0 0 0 2.53-1.44 4.84 4.84 0 0 0-.59-6.14 3.2 3.2 0 0 0-2.45-.88 3.2 3.2 0 0 0-2.07 1.02c.16-1.31.35-2.65.56-3.99a3.2 3.2 0 0 1 1.83-2.36 4.95 4.95 0 0 1 2.19-.62c.3 0 .6.04.89.13 1.27.37 2.52.74 3.75 1.14.61.2 1.13.61 1.64 1.32a17.53 17.53 0 0 1 3.06 6.32c.13.57.17 1.17.21 1.75l.06.75-.1 1.12c-.06.8-.12 1.56-.27 2.29a11.1 11.1 0 0 1-5.3 7.36c-1.67 1.02-3.56.94-5.18.72-.75-.1-1.52-.3-2.27-.51l-.67-.18c-.34-.09-.53-.34-.84-.79l-.08-.11c-.65-.9-.55-1.9-.45-2.95.03-.27.06-.54.07-.82.08-1.58.2-3.25.35-5.04.14.25.3.48.5.7a3.29 3.29 0 0 0 2.5 1.21Zm-2.47-4.36c.03-.94.3-1.68.85-2.26a1.95 1.95 0 0 1 2.72-.25 3.3 3.3 0 0 1 1.21 2.32c.1 1-.16 1.95-.74 2.61-.43.5-1 .78-1.58.78h-.02c-.6 0-1.18-.3-1.61-.83a3.65 3.65 0 0 1-.83-2.37Zm1.12-10.48.02-.1.47-2.71c.11-.61.22-1.19.34-1.28.11-.09.73-.03 1.28.03.8.08 1.62.21 2.42.33l.74.12c1.3.2 2.4.8 3.3 1.82.95 1.08 1.72 2.3 2.31 3.67a6.06 6.06 0 0 0-2.92-1.96l-.12-.04c-1.14-.35-2.33-.72-3.53-.92a5.77 5.77 0 0 0-4.3 1.04Zm2.1 24.84.57.08c3.1.44 5.77-.54 8.13-3a16.24 16.24 0 0 1-3.8 5.3c-1.86 1.77-4.25 2.94-7.52 3.68-.52.12-1.02-.05-1.56-.3l-.23-7.2c1.4 1.05 2.98 1.25 4.4 1.44Zm59.46 70c.07 1.35.53 2.7 1.04 4.06.36.99.32 1.74-.14 2.49l-.25.4-.47.77c-.83 1.47-2.14 2.1-4.01 1.92a18.03 18.03 0 0 1-11-4.9 16.81 16.81 0 0 1-1.6-1.86l-.5-.62a5.6 5.6 0 0 0 .9-3.23l.22-8 .18-6.21v-.23c.03-.5.06-1.14-.4-1.72h.5a43 43 0 0 0 10.03-1.23c2.3-.54 4.09-1.43 5.5-2.74a4.9 4.9 0 0 1 1.22-.78c.87-.43 1.77-.85 2.71-1.29l.3-.14-.05.19-1.02 3.85c-.7 2.65-1.43 5.38-2.1 8.07a37.92 37.92 0 0 0-1.06 11.2Zm-25.53 39.93c-.28-.02-.56-.04-.84-.04h-.04l-.26-.02c-.1-.02-.22-.03-.33-.03a6.43 6.43 0 0 1-5-2.44.97.97 0 0 0-.45-.28c.86-2.7 1.84-5.28 2.79-7.75.33.38.66.73 1.05 1.01a16.67 16.67 0 0 0 5.49 2.66c.87.23 1.78.32 2.65.4l.72.08c.1.01.2 0 .27-.02l-2.1 2.93-1.08 1.51c-.19.26-.34.55-.5.82-.23.45-.49.92-.79 1.06-.38.2-.97.15-1.58.1v.01Zm.88 1.58c-.66 1.38-1.35 2.75-2.02 4.07-.64 1.27-1.29 2.55-1.92 3.85-.37-.1-.73-.2-1.1-.28-.77-.2-1.5-.39-2.19-.66-1.12-.46-1.7-1.14-1.8-2.15a.52.52 0 0 0-.8-.38l-.2.13a58.97 58.97 0 0 1 1.74-7.41 7.48 7.48 0 0 0 4.98 2.6c.9.09 1.79.14 2.74.2l.57.03Zm5.14-9.33c-1.68-.25-3.27-.48-4.73-1.17l-.6-.28c-1.31-.6-2.56-1.17-3.53-2.2l.46-.43a.52.52 0 0 0-.35-.9h-.6a90.9 90.9 0 0 1 2.48-6.11c.62.9 1.37 1.55 2.33 2l.94.46c1.27.62 2.58 1.26 3.92 1.78 1.2.47 2.48.7 3.46.84.59.09 1.18.07 1.8.06a229.13 229.13 0 0 0-3.3 4.19l-1.5 2.04a.52.52 0 0 0-.35-.22l-.43-.06Zm2.81-7.84-2.06-1.25c-2.25-1.35-4.57-2.74-6.6-4.5l1.08-2.78.32-.82c.12.11.23.2.3.24l.74.5c.88.58 1.78 1.2 2.72 1.74a17.94 17.94 0 0 0 11.44 2.3l-.4.5c-.97 1.16-1.87 2.26-2.8 3.34-.23.27-.62.72-.97.84-1.6.51-2.83.48-3.77-.11Zm7.15-6.14c-.73.07-1.42.14-2.12.14-2.1 0-4.16-.47-6.13-1.4-2.06-.97-3.88-1.9-5.32-3.44a.5.5 0 0 0-.2-.13l1.9-4.9c.39-1 .8-1.98 1.2-2.96.42-1 .84-2 1.24-3l.07-.16.03.04.6.72c.39.44.72.82 1.02 1.22a14.72 14.72 0 0 0 5.15 4.35c2.86 1.45 6.18 2.91 9.98 2.4l-2.77 3.63-2.34 3.06c-.18.23-.28.29-.51.3-.6.02-1.22.07-1.8.13Zm-23.97 37.4a73.6 73.6 0 0 1-3.86-3.85.5.5 0 0 0 .2-.39c0-.1.02-.2.03-.28.02-.19.04-.37-.04-.57a13.8 13.8 0 0 1-.69-4l-.09-1.08c-.35-3.73-.11-7.63.77-12.66.76-4.34 1.74-8.72 2.69-12.95l.5-2.27c.46-2.06.98-4.14 1.49-6.15l.82-3.33a4.95 4.95 0 0 1 2.21-3.12c1.92-1.25 3.85-2.54 5.71-3.78l3.06-2.03c.43-.3.88-.57 1.33-.85l.12-.07.13.38a.5.5 0 0 0 .35.33.5.5 0 0 0 .2 0l-.02 1.3c0 .35.1.65.22 1l.06.18-.31.15a1.7 1.7 0 0 0-.26-1.05.52.52 0 0 0-.92.06l-.39.91-.7 1.7-2.8 6.97c-2.34 5.85-4.76 11.9-7.1 17.85-2.44 6.26-4.9 12.96-5.72 20.05a32.61 32.61 0 0 0-.15 3.16l-.02.7c0 .28.14.49.3.7l.2.33a.51.51 0 0 0 .96-.26c.01-1.66.14-3.28.34-4.87l.03.06c.92 1.58 3.34 2.83 5.3 2.83.14 0 .27-.02.4-.03-.93 2-1.8 4.06-2.5 6.19a1.15 1.15 0 0 1-.35-.1 11.7 11.7 0 0 1-1.5-1.16Zm4.94 7.87a15.87 15.87 0 0 1-1.96 6 8.9 8.9 0 0 1-1.6 1.99c-.24.23-.48.34-.67.29-.2-.06-.39-.32-.49-.7-.08-.3-.1-.65-.12-1.01v-.11c-.02-.27-.01-.55-.01-.82v-.39c0-.1-.03-.2-.09-.29l.31-1.8c.33-1.92.68-3.91 1.05-5.85.08-.44.3-.94.67-1.49.16-.24.34-.38.5-.4.19-.02.38.11.51.23 1.49 1.38 2.1 2.77 1.9 4.36Zm6.06-.16c.05-.05.16-.1.33-.1a6.06 6.06 0 0 1 2.69 1 31.73 31.73 0 0 1 4.12 3.6c1.4 1.47 2.05 2.93 2.03 4.48 0 .47-.11.97-.22 1.45l-.09.38c-.53.13-.83 0-1.09-.22l-.44-.38c-.55-.46-1.06-.9-1.52-1.4-1.33-1.44-2.64-2.96-3.92-4.44a9.81 9.81 0 0 1-1.89-3.62c-.13-.43-.08-.67 0-.75Zm-3.55-.8c.17 0 .49.14.92.55.29.26.53.64.65 1 .28.87.59 1.72.88 2.55.83 2.3 1.69 4.69 1.94 7.17a185.76 185.76 0 0 1 .2 2.56l-.1.82a21 21 0 0 1-.3 2.23c-.18.84-.36 1.25-.9 1.32-.5.06-.81-.19-1.25-1.02-2-3.77-2.91-7.1-2.89-10.47.01-1.23.08-2.48.13-3.7l.07-1.47c.01-.14.04-.3.08-.52.14-.67.35-.95.5-1l.07-.01Zm57.88-20.48c.33 1.87.76 3.74 1.17 5.55.28 1.23.57 2.5.82 3.76.2 1 .27 2.07.33 3.1l.01.15.7 12.24.13 2.44.16 2.93c.1 2 .2 4.06.35 6.09.11 1.6.32 3.18.6 5.06.05.4.02.68-.1.8-.1.11-.37.15-.73.11-.56-.06-1.11-.1-1.62-.13-.85-.05-1.24-.4-1.38-1.27a340.92 340.92 0 0 1-2.55-20.95c-.24-2.43-.56-4.88-.87-7.27l-.48-3.78-.12-1.26-.1-1.2a2.6 2.6 0 0 0-.2-.66l-.08-.2a.52.52 0 0 0-.49-.36h-.09c.66-2.2 1.19-4.41 1.56-6.59.25-1.45.33-3.08.25-5.14a77.32 77.32 0 0 0-.57-6.94 38.49 38.49 0 0 0-1.1-5.9 33.1 33.1 0 0 0-1.54-4l-.66-1.55c-.09-.21-.18-.4-.29-.6.09 0 .17.03.29.06l.16.04c.28.06.56.17.85.28l.52.18c.53.17.81.49 1 1.12 1 3.32 1.7 6.92 2.29 11.66.55 4.5 1.14 8.5 1.79 12.24Zm-13.5-34.77 1.5 1c.41.28.83.58 1.27.93l.38.3c.87.67 1.75 1.37 2.6 2.08l.4.34c1.37 1.13 2.66 2.19 3.54 3.67.12.2.24.42.34.65-.18-.1-.35-.22-.53-.34-.7-.45-1.41-.9-2.23-1.04a14.22 14.22 0 0 0-4.6.06 22.72 22.72 0 0 0-9.06 4.03 151.38 151.38 0 0 0-7.94 5.98l-1.34 1.08c-3.1 2.51-6.32 5.1-9.27 7.9a89.2 89.2 0 0 0-10.9 12.76l-1.29 1.72c-.49.65-.98 1.3-1.45 1.96a1973.2 1973.2 0 0 0-6.17 8.66l-.72 1.02c-.1.14-.15.29-.19.4 0 .04-.02.07-.03.1a.52.52 0 0 0 .34.68l-.2.11c-.6-1.49-1.32-2.95-2.96-3.84l.16-.5c.2-.65.4-1.27.66-1.83 1.4-3 2.85-6.04 4.26-8.98l1.52-3.2a54.71 54.71 0 0 1 6.59-10.32l1.42-1.8c4.56-5.79 9.27-11.77 13.84-17.7 1.16-1.5 2.23-3.1 3.26-4.65l1.02-1.52.07.1c.4.6.82 1.22 1.27 1.82.94 1.25 1.55 1.35 2.85.45.1-.06.19-.14.28-.21.13-.1.35-.28.43-.29.85.01 1.47-.42 1.99-.9 1.42-1.3 3.12-2.06 5.22-2.81.23-.08.38-.09.66.11 1 .7 2.02 1.38 3.01 2.03Zm46.17-13.38c-3.66 1.34-7.6 2.64-11.67 3.15-1.8.22-3.64.42-5.42.61l-1.28.14 1.66-.47c6.47-1.86 13.17-3.78 19.74-5.72a30.3 30.3 0 0 0 3.3-1.24 23.92 23.92 0 0 1-6.33 3.54Zm31.96-33.4-.1.22c-.5 1-1 2.05-1.64 2.96a200.13 200.13 0 0 1-12.72 16.53 35.13 35.13 0 0 1-5.3 5.2 30.26 30.26 0 0 1-9.66 4.77c-2.41.7-4.83 1.4-7.25 2.12-4.7 1.38-9.55 2.82-14.36 4.12a297.09 297.09 0 0 1-24.46 5.47 60.72 60.72 0 0 0-12.28 3.69 4.48 4.48 0 0 0-2.31 1.9 1.8 1.8 0 0 1-.99.83c-1.43-1.87-2.94-4.14-3.61-6.88a7.19 7.19 0 0 1-.26-1.93l.05-1.24c.06-1.81.13-3.69.4-5.49.27-1.87.74-3.75 1.2-5.57l.36-1.5c1.6-6.65 3.31-12.45 5.23-17.71 1.04-2.9 2.2-5.8 3.33-8.62.69-1.72 1.38-3.46 2.05-5.2l4.12-10.74 5.32-13.85c1.62-4.17 3.34-9.16 3.88-14.55.35-3.53.52-7.69-.84-11.85a37.65 37.65 0 0 0-10.74-16.53l-2.35-2.11a343.7 343.7 0 0 0-6.36-5.64 46.56 46.56 0 0 1-9.04-10.23 12.93 12.93 0 0 1-2.1-4.88l-.12-.72c-.17-1.03-.35-2.1-.4-3.15-.14-2.48-.23-5.01-.31-7.45l-.05-1.55a3.5 3.5 0 0 1 .57-1.94c.5-.86.96-1.82 1.37-2.85 2.9-7.3 5.83-12.53 9.5-16.96.28-.34.56-.73.83-1.14a9.76 9.76 0 0 1 3.05-3.04l.07-.05c.66-.4 1.42-.87 1.98-1.65a.53.53 0 0 0 .1-.43.53.53 0 0 0-.27-.34c-.96-.5-1.65.08-1.99.35l-.64.53a52.43 52.43 0 0 0-3.32 2.9 52.28 52.28 0 0 0-9.17 12.11 24.81 24.81 0 0 0-3.18 9 5.6 5.6 0 0 1-1.77 3.34l-1.45 1.46-2.14 2.14c-3.07 3.15-6.86 5.5-10.53 7.77l-.52.33c-.35.22-.74.4-1.15.57l-.47.2c-3.23 1.5-6.74 2.36-10.13 3.2l-1.1.27c-.8.2-1.61.38-2.42.57-2.43.54-4.94 1.1-7.3 2.16-.98.45-1.97.81-2.94 1.1a45.18 45.18 0 0 0-10.94 4.88c-2.59 1.6-5.26 3.43-7.32 5.94a106.78 106.78 0 0 0-3.57 4.67l-.63.86a2.7 2.7 0 0 0-.62 2.21.52.52 0 0 0 .9.27l.71-.76c.51-.53 1-1.03 1.32-1.65a8.1 8.1 0 0 1 1.53-2.17 61.57 61.57 0 0 1 9.33-7.64l-.07.14a32.08 32.08 0 0 0-3 9.04c-.17 1.08-.31 2.17-.45 3.24l-.37 2.64-.53 3.43c-.6 3.92-1.22 7.97-1.9 11.94-1.13 6.48-1.47 13.12-1.8 19.55l-.05.94c-.08 1.55 0 3.11.07 4.63l.07 1.6c.17 4.52.47 8 .99 11.26 1.32 8.28 3.8 15.4 7.57 21.78l.08.13c1.4 2.35 2.84 4.79 4.75 6.88.98 1.07 2.04 1.9 3.25 2.5a1.7 1.7 0 0 1-.35.1l-.21.04c-3.05.51-6.2 1.05-9.33.53-.26-.04-.53-.06-.8-.08l-.45-.05c-3.97-.45-8.18-1.06-12.02-2.94-2.3-1.12-4.6-2.33-6.83-3.49l-3.84-1.99c-1.2-.62-2.8-1.42-4.45-2.18-1.33-.62-2.7-1.2-4.02-1.78l-1.23-.54 1.02-1.44c3.95-5.47 7.76-10.89 10.92-16.88a57.9 57.9 0 0 0 4.35-10.47c1.48-5 2.56-10.24 3.18-15.58a120 120 0 0 0 .73-10.15c.05-1.4-.1-2.82-.26-4.18-.06-.52-.12-1.03-.16-1.54v-.09l-.05-.35.5.15c.15.04.3.07.44.12.09.03.17.04.25.04.16 0 .3-.04.47-.08l.42-.08a.52.52 0 0 0 .19-.95c-.38-.23-.77-.33-1.11-.42-.62-.16-.77-.23-.82-.56-.04-.23-.28-.4-.5-.43-3.18-1.15-4.62-3.95-5.5-6.27-.81-2.1-1.14-4.42-1.46-6.65l-.12-.84c-.44-3.06-.04-5.7 1.24-8.08a19.62 19.62 0 0 1 9.04-8.58 369.58 369.58 0 0 1 15.41-6.96 79.6 79.6 0 0 0 14.86-8.3 10.08 10.08 0 0 0 3.07-3.32c.12-.2.15-.42.17-.6 0-.05 0-.1.02-.16a.52.52 0 0 0-.29-.57l-.19-.09a.51.51 0 0 0-.43 0l.01-.08a.52.52 0 0 0-.57-.62c-.43.04-.65.23-.8.42-.21.24-.4.5-.6.74-.41.53-.8 1.03-1.27 1.4a40.7 40.7 0 0 1-4.19 2.96c-4.6 2.83-9.69 4.75-14.09 6.32-1.12.4-2.26.82-3.4 1.25.18-.42.35-.81.56-1.17l.9-1.6a154.01 154.01 0 0 1 4.65-7.78c2.71-4.4 5.52-8.93 8.98-12.89.62-.7 1.21-1.42 1.81-2.14 1.47-1.75 2.97-3.56 4.67-5.07 2.97-2.64 6.19-4.95 9.78-7.47a43.88 43.88 0 0 1 7.03-4.17 71.53 71.53 0 0 1 19.8-5.95l2.31-.35c1.8-.3 3.66-.59 5.5-.69 4.6-.25 8.6.06 12.26.95 2.48.6 5.06 1.23 7.1 3 .11.1.24.15.37.17l-.33.08a95.52 95.52 0 0 0-5.12 1.54c-.54.18-1.06.41-1.57.63l-.68.3a.52.52 0 0 0-.3.61l.08.26c.06.24.3.4.54.37h.21a2.37 2.37 0 0 0 .88-.17c-.16.13-.3.29-.42.52a.51.51 0 0 0 0 .45c.07.15.2.25.35.29.04 0 .08.02.11.03.12.04.29.1.48.06l2.2-.35c1.97-.3 4-.63 6-1a75.72 75.72 0 0 1 18.58-1.35c1.83.11 3.3.58 4.63 1.46a39.95 39.95 0 0 0 4.65 2.7 99.4 99.4 0 0 0 6.72 2.95 28.16 28.16 0 0 1 10.44 7.16c1.94 2.13 3.66 4.56 5.32 6.9l.57.81a16.7 16.7 0 0 1 2.45 5.58l.1.35.57 2.17c.06.19.16.33.26.49l.17.24c.1.16.28.26.46.25a.52.52 0 0 0 .44-.3c.42-.85.14-1.53-.06-2.02a2.57 2.57 0 0 1-.16-.5 14 14 0 0 0-.63-2.24l-.02-.09a25.85 25.85 0 0 0-1.41-3.37c1 .28 1.68.88 2.12 1.87a5.9 5.9 0 0 0 .26.55c1.16 2.66 2.54 5.45 4.8 7.82l.32.43.14.2a118.9 118.9 0 0 1 8.2 13.04c3.55 6.73 5.28 13.35 5.27 20.24 0 2.13-.06 4.3-.12 6.41l-.06 2.49-.09 3.5-.11 5.04c0 .32.02.63.05.93l.03.4c.02.23.2.42.43.46l.34.06a.5.5 0 0 0 .52-.23c.48-.77.76-1.63 1.02-2.45l.1-.32a24 24 0 0 0 1.16-5.8l.08-.8.21.67c.33 1.07.67 2.17 1.15 3.2a54.79 54.79 0 0 1 2.67 7.33l.15.5c.8 2.55 1.07 5.25 1.32 7.87l.22 2.03c.36 3.2.04 6.49-.98 10.08a88.65 88.65 0 0 1-1.6 4.93l-.46 1.39a216.1 216.1 0 0 1-10.33 25.48h.02Zm16.13-41.25v.6c.02.28.03.56-.02.8l-.31 1.76c-.4 2.2-.8 4.5-1.3 6.72-1.47 6.68-3.22 11.58-5.64 15.87l-1.65 2.96a354.3 354.3 0 0 0 5.54-15.09c1.03-2.98 2.22-6.96 2.28-11.13.03-1.23-.09-2.47-.2-3.67l-.14-1.68a45.67 45.67 0 0 0-3.72-14.9c1 1.97 1.86 3.94 2.62 5.75.56 1.3.95 2.5 1.2 3.65.34 1.5.6 3.04.86 4.54l.35 2 .03.18c.04.26.09.64.33.95a1.3 1.3 0 0 0-.24.7Z"/><path d="M146.64 81.46c-3.14-3.19-6.77-5.86-10.28-8.45-1.1-.8-2.2-1.6-3.28-2.43-.54-.41-1.18-.63-1.8-.85-.16-.05-.31-.1-.47-.17-.65-.24-1.22-.08-1.7.47a.52.52 0 0 0-.11.26l-.32-.2c-.18-.1-.35-.14-.5-.16a.78.78 0 0 1-.12-.03.51.51 0 0 0-.57.76 6.89 6.89 0 0 0 2.9 2.48l1.7.9c1.14.57 2.3 1.18 3.39 1.86l.32.2c1.91 1.2 3.9 2.44 5.6 3.93 2.36 2.07 4.54 4.3 7.09 7 2.6 2.77 4.57 6.28 6 10.72a57.58 57.58 0 0 1 2.48 11.6l.11.97c.2 1.6.38 3.1-.04 4.62-.15.55-.28 1.09-.41 1.63-.2.84-.41 1.7-.68 2.53a156.38 156.38 0 0 1-12.78 29.34 83.1 83.1 0 0 1-2.56 4.2l-2.48 3.72a245.26 245.26 0 0 0-3.74 5.67 56.22 56.22 0 0 0-5.38 10.28c-2.02 5.43-2.9 9.75-2.87 14.03a294.28 294.28 0 0 1 0 4.2c0 .22.04.41.07.63l.06.36a.52.52 0 0 0 .52.45.5.5 0 0 0 .3-.1c.7-.53.72-1.14.75-1.58l.01-.2.1-1.12c.08-1 .16-2.03.33-3.01.17-.9.37-1.78.59-2.66.13.2.29.37.41.5l.06.07c.26.28.54.54.8.8.43.39.83.77 1.15 1.19 1.28 1.68 3.05 2.3 5.26 1.82 1.54-.34 3.03-.86 4.43-1.36a12 12 0 0 0 5.04-3.7c3.49-4.04 5.96-9.12 7.75-15.97.65-2.49.36-4.8-.9-7.06a5.3 5.3 0 0 0-5.44-2.96l-.75.08-.15.02c-2.92.37-5.49 1.64-7.44 2.76 1.1-2.34 2.4-4.91 3.88-7.43 1.01-1.7 2.12-3.39 3.2-5.03.86-1.3 1.75-2.66 2.6-4.03a62.34 62.34 0 0 0 3.76-6.74c1.4-3.06 2.57-6.16 3.74-9.33 1.13-3.08 2.31-6.78 2.44-10.85.04-1.32.2-2.65.4-4 .4-2.87.35-5.28-.15-7.56a46.71 46.71 0 0 0-12.32-23.07Zm-13.89-8.89c-.92-.46-1.81-1.04-2.67-1.6 1.6.32 2.8 1.26 4.07 2.26l.22.17.21.16a49.2 49.2 0 0 0-1.83-.99Zm-3.99 105.65a43.92 43.92 0 0 1 5.08-12.23l.32-.53c-1.96 4.16-3.82 8.4-5.4 12.76Zm15.04-19.22a10.7 10.7 0 0 1 5.32-.7c.76.14 1.31.49 1.8 1.14a7.56 7.56 0 0 1 1.38 6.8c-1.73 6.35-3.99 11.12-7.1 15-2.17 2.69-5.1 4.23-9.5 5a3.08 3.08 0 0 1-3.1-1.25c-.65-.8-1.38-1.56-2.08-2.3l-.95-.99a.64.64 0 0 0-.21-.14c1.09-3.65 2.6-7.14 3.96-10.32.18-.42.3-.52.34-.54.84-.48 1.73-.94 2.6-1.37l.16-.1.04.1c.1.1.25.18.4.18h.36c.01.26.02.49-.01.68a23.38 23.38 0 0 1-2.08 6.17c-.42.8-.95 1.33-1.65 1.61-.2.08-.33.21-.45.33l-.13.13a.52.52 0 0 0-.17.45.5.5 0 0 0 .28.4c.18.09.44.19.75.19.36 0 .78-.14 1.18-.58l.37-.4c.56-.59 1.14-1.2 1.45-1.97a57.82 57.82 0 0 0 1.87-5.6l.02-.07c.2-.67.12-1.43.05-1.93-.04-.25-.1-.55-.3-.78a13.69 13.69 0 0 1 6.44-2.09c1.34-.08 2.14.43 2.7 1.7.08.19.2.35.32.54l.22.32a.51.51 0 0 0 .95-.28 3.78 3.78 0 0 0-3.77-3.85h-.01a9.9 9.9 0 0 0-4.08.72c-1.65.74-3.3 1.53-4.9 2.3l-1.36.65-.24.13.62-1.27a65.4 65.4 0 0 0 1.68-3.58c.3-.7.73-1.2 1.46-1.69a23.37 23.37 0 0 1 5.37-2.75v.01Zm-40.51 1.05a20.03 20.03 0 0 0 17.43-21.43c-.76-11.04-10.12-19.73-21.3-19.77h-.03l-.82.04c-.63.04-1.28.07-1.93.16a20.21 20.21 0 0 0-17.11 24.13 21.42 21.42 0 0 0 23.77 16.86l-.01.01Zm-22.4-17.98a18.48 18.48 0 0 1 15.23-21.35 19.7 19.7 0 0 1 22.63 15.16 18.5 18.5 0 0 1-15.13 22.53c-.73.11-1.48.19-2.22.25l-1.03.1a19.93 19.93 0 0 1-19.48-16.7Zm-2.25 14.13a3.88 3.88 0 0 0-3.7-.78l-.56.15c-.8.21-1.62.43-2.43.68-3.23 1-6.41 1.82-9.76.9a6.7 6.7 0 0 0-2.07-.15l-.41.02c-1.05.02-1.87.58-2.38 1.62a5.4 5.4 0 0 0 0 4.99c1.96 3.85 4.36 6.1 7.55 7.09l.3.1c.13.06.26.11.4.15l1.29.41c1.73.56 3.51 1.13 5.45 1.3h.05c.04 0 .09 0 .13-.02l.82-.2c.65-.16 1.31-.31 1.95-.59.8-.35 1.57-.8 2.31-1.25l.66-.4c1.6-.93 2.83-2.35 3.85-4.46a5.6 5.6 0 0 0 .21-4.5 12.34 12.34 0 0 0-3.64-5.06h-.02Zm-7.18 1.8 1.3-.35a29.9 29.9 0 0 1 2.13-.48l1.2-.25c.53-.12.98 0 1.39.36.41.37.81.76 1.24 1.17l.23.21c-.57.51-1.2.9-1.93 1.2a18.9 18.9 0 0 1-6.07 1.43c-1.08.05-2.22-.12-3.32-.28l-.63-.09c-.76-.1-1.1-.43-1.14-1.1a2.14 2.14 0 0 0-.16-.66c2.03-.1 3.92-.64 5.76-1.15Zm-13.13 2.47c.19-1.4.76-1.92 2.12-1.92h.05c.5 0 1.01.05 1.51.1h.08l-.04.13-.36 1.38c-.17.65-.2.68-.77.7-.76.05-1.53 0-2.38-.05-.13-.01-.18-.04-.2-.05-.01-.02-.04-.1-.01-.3Zm21.81 5.63a8.7 8.7 0 0 1-2.94 2.96c-.91.51-1.8 1.01-2.7 1.48-.9.46-1.9.58-3.18.38a27.57 27.57 0 0 1-7.62-2.38c-1.1-.54-2.03-1.55-2.94-2.53l-.16-.16c-.6-.66-1.1-1.5-1.56-2.3l-.22-.38c-.13-.2-.2-.47-.3-.77l.14.01c.57.05 1.12.09 1.67.06h.21c1.31-.06 2.45-.1 2.73-2.52.05-.48.17-.49.32-.5.19-.02.38.03.52.14.1.09.15.19.16.3.2 2.12 1.86 2.46 3.07 2.7 3.87.8 7.4-.23 10.32-1.34a9.12 9.12 0 0 0 1.8-1l.37-.25a4.86 4.86 0 0 1 .3 6.1h.01Zm-20.62-15.36h1.29c2.26 0 4.04-1.13 5.68-2.3.42-.29.48-.62.47-.84-.02-.22-.14-.53-.61-.78a.5.5 0 0 0-.57.08c-1.64 1.43-3.65 2.14-6.53 2.3-.86.05-1.68-.26-2.6-.97-.29-.22-.33-.38-.2-.69a5.38 5.38 0 0 1 1.72-2.46c.96-.7 1.9-1.45 2.82-2.18l1.77-1.39.08-.05c.3-.22.84-.62.5-1.64a.5.5 0 0 0-.26-.3.5.5 0 0 0-.41-.02l-.39.15c-.27.1-.53.19-.78.3-2.78 1.3-4.63 3.6-6.22 5.9a3.5 3.5 0 0 0-.56 2.05c.08 1.55 1.18 2.58 2.94 2.76.62.07 1.25.08 1.87.08Zm51.36-49.3.14.07a32.68 32.68 0 0 1 6.24 4.45l.65.58c1 .9 2.03 1.82 3.07 2.7.43.37.96.67 1.62.95.1.04.22.06.34.06.37 0 .77-.2.97-.4.34-.32.28-1 .07-1.32a8.1 8.1 0 0 0-1.18-1.56 225.86 225.86 0 0 0-5.43-5.1 10.62 10.62 0 0 0-2.23-1.57c-.86-.44-1.73-.8-2.66-1.18l-1.16-.48a.52.52 0 0 0-.49.04l-.33.2c-.31.17-.64.36-.82.7-.23.44.12.9.58 1.42.19.21.43.33.63.43Zm5.48 1.62 1.45 1.32a32.95 32.95 0 0 0-4.23-3.16c1 .47 1.94 1.09 2.78 1.84Zm-50.5-18.05a.5.5 0 0 0-.22-.28c-.76-.48-1.55-.24-2.07-.08-.75.23-1.42.47-2.03.75-1.21.54-2.8 1.26-4.42 2.07-.45.22-1.28.63-1.12 1.76.03.25.23.43.47.45.09 0 .17.02.25.03a3.01 3.01 0 0 0 .7.02 25.97 25.97 0 0 0 7.54-2.76c.83-.43 1.16-1.15.9-1.96Z"/><path d="M103.86 153.62a12.45 12.45 0 0 0 9.39-5.06c5.08-6.61 4.05-16.8-2.27-22.25a12.38 12.38 0 0 0-9.2-3.06c-3.3.28-6.31 1.9-8.5 4.56-1.92 2.32-3.04 5-3.42 8.11-.1.45-.16.92-.16 1.43v.01c0 .13 0 .24.02.36l-.02.35v.02a16.4 16.4 0 0 0 4.33 11.3 12.53 12.53 0 0 0 9.28 4.24h.54v-.01Zm-12.63-15.69c.04-1.13.17-2.19.39-3.19.18-.31.4-.6.66-.86a3.45 3.45 0 0 1 4.58-.39 4.93 4.93 0 0 1 1.97 3.56 4.94 4.94 0 0 1-1.2 3.9 3.6 3.6 0 0 1-2.66 1.21h-.02a3.66 3.66 0 0 1-2.7-1.28 4.73 4.73 0 0 1-.93-1.48c-.04-.48-.08-.97-.08-1.46Zm3.88 10.35a14.4 14.4 0 0 1-3.32-6.14 4.8 4.8 0 0 0 3.19 1.24h.2a4.9 4.9 0 0 0 3.66-1.98 6.5 6.5 0 0 0-.87-8.6 4.8 4.8 0 0 0-3.58-1.2 4.6 4.6 0 0 0-2.01.66 13.2 13.2 0 0 1 2.87-4.29 10.46 10.46 0 0 1 13.79-1.17c3.23 2.27 5.33 6.05 5.78 10.36.45 4.3-.84 8.44-3.53 11.33a10.9 10.9 0 0 1-7.98 3.6h-.08a11.04 11.04 0 0 1-8.12-3.8Z"/></g><defs><clipPath id="a"><path fill="#fff" d="M0 0h220v308h-220z"/></clipPath></defs></svg>