<svg viewBox="0 0 585 624" fill="none" xmlns="http://www.w3.org/2000/svg"><path d="m495 458.67.03.03-.03-.03Zm-39.92 85.15.06.05-.06-.05Zm36.55-83.9-.06-.03.06.03Zm-76.14 23.58-.05.06.05-.06Zm73.65-24.7c-21.9 8.71-43.85 17.28-66.94 22.5-2.2.5-4.91.2-6.7 2.2l.01.05c3.56.77 6.71-1.1 10.9-1.71-16.31 5.7-32.15 10.03-48.12 13.86a563.57 563.57 0 0 1-41.63 8.53 352.32 352.32 0 0 1-35.24 3.91 103 103 0 0 1-19.7-.49c.75-1.38 1.94-.86 2.89-.97 4.94-.59 9.87-1.1 14.82-1.59 2.17-.22 4.35-.67 6.53-.01.52.15 1.36.28 1.66 0 3.41-3.08 7.8-1.73 11.68-2.63a3.9 3.9 0 0 1 2.16.1c2.25.73 4.65 2.58 5.88-1.33.1-.33 1.02-.5 1.58-.57 4.33-.65 8.7-1.83 13.01-1.7 3.25.12 6.4.01 9.33-1 9.85-3.34 20.18-4.13 30.25-6.33 10.7-2.32 21.49-4.2 32.13-6.83.75-.19 1.8 0 1.87-1.22h-.05c.02 0 .03-.04.05-.04-.52-.2-1.01-.2-1.52-.15-.26.02-.5.09-.74.13l-.74.17c-4.86 1.01-9.7 2.14-14.57 3.04-7.3 1.35-14.37 3.84-21.85 4.43-1.73.14-3.15.44-3.26-2.05-.1-2.17-1.4-2.86-3.6-2.54-2.3.35-4.65.31-6.97.48-2.83.2-2.83.2-2.71 3.13.18 3.92-.12 4.24-3.64 4.72-1.23.16-1.91-.04-2.1-1.43-.16-1.25.5-2.88-.88-3.62-1.2-.65-2.42.66-3.75.54-.73-.08-1.47.1-2.2.19-3.5.41-3.52.41-3.63 3.92-.05 1.18.26 2.55-1.4 2.7-4.9.45-9.63 2.17-14.44 2.12-1.11-1.73.04-3.24.04-4.97-2.9-.7-5.6-.88-8.3.06-1.75.6-3.4 1.58-3 3.72.5 2.83-.79 3.68-3.3 3.64-1.24-.01-2.48.67-3.71.15-.6-2.96 1.25-4.66 3.99-6.63-4.63.04-8.23.33-11.84.06-4.67-.34-6.32 1.45-6.53 6.1-.04.83 1.16 1.45.22 2.48-1.69.18-3.5.67-5.91.24 1.57-2.02 1.33-4.2 2.58-6.2-2.92 2.41-5.26.9-7.64-.43a7 7 0 0 0-2.04-.8c-1.85-.36-3.75-.57-5.61.1-1.05.38-1.8.98-1.78 2.2 0 1 .54 1.7 1.4 2.03 1.23.46 2.54.71 3.74 1.24 1.48.65 3.33.77 4.36 2.58-13.37 2.34-25.35-.79-37.47-7.26 4.78-.7 6.44-3.5 7.83-7.1-2.69.3-4.5-.99-6.43-1.91-4.81-2.34-8.66-1.2-11.53 3.41-1.14-1.07-3.35-2.04-2.79-3.5.95-2.45.25-5.08 1.64-7.3-2.32-.96-4.57-.58-6.72-.94-.5-.08-.85-.06-1.08.03-.18.08-.27.22-.35.39-.17.46.05 1.17.3 1.83 1.52 1.35 2.23 3.19 3.03 4.96.33.7.68 1.4 1.1 2.06.22.33.43.63.7.94.45.25 1.12.62.81 1.1-.44.68-1.15.2-1.75-.05-1.36-.2-2.09-1.03-2.58-2.07-.17-.35-.3-.72-.43-1.1-.56-1.72-1.02-3.5-1.53-5.24-3.68-12.24-7.26-24.49-8.95-37.19-2.2.36-1.26 2.06-1.13 3.12.72 6.25 2.5 12.28 4.06 18.36 2.02 7.75 4.26 15.45 6.42 23.17.35.17.56.4.49.83.52 1.27.66 2.67.88 4.03a8.13 8.13 0 0 0 1.34 3.78c2.1 2.74 2.88 6 4.22 9.02 1.49 3.32 2.2 7.07 4.1 10.11 3.64 5.86 5.64 12.46 9.14 18.39 3.6 6.06 6.26 12.67 9.62 18.87 1.45 2.68 2.18 5.62 3.62 8.3 3.16 5.91 7.03 11.44 9.74 17.6a4.76 4.76 0 0 0 2.24 2.6c.36.16.76.27 1.22.31-1-3.45-4-5.91-4.75-9.51.41-.1.71-.26.94-.2 9.68 2.9 19.58 3 29.54 2.13 8-.7 16-1.38 24.04-1.5a267.5 267.5 0 0 0 64.55-8.88c29.09-7.7 57.78-16.7 85.72-27.91 2.38-.96 4.42-1.65 6.56.83-.43-1.96-.83-3.54 1.54-3.9.56-.07 1.1-.4 1.63-.6 24.38-9.36 49.2-17.55 73.86-26.1 6.73-2.34 13.33-5.06 20.3-6.64l-.18-1.75c-4.41 1.47-8.83 2.9-13.22 4.38-11.14 3.76-22.28 7.56-33.42 11.34-.79.6-1.6 1-2.63.53.4-.84 1.3-.83 1.95-1.2 1.2-.56 2.37-1.14 3.56-1.67 13.27-6.02 26.55-12.03 39.84-18.03.93-.43 2.15-.56 2.22-1.98-1.16-.38-1.87.25-2.64.59-7.6 3.4-15.2 6.73-22.77 10.16-21.75 9.88-43.4 19.98-65.98 27.96-6.42 2.26-6.42 2.3-8.9-3.92-5.6-13.95-9.98-28.32-14.16-42.75-1.05-3.64-1.9-7.35-2.8-11.02-.32-1.26-.24-2.22 1.33-2.7 4.01-1.22 7.98-2.55 11.96-3.9 10.38-3.5 20.76-7.03 31.13-10.57l-.27-1.02a5.1 5.1 0 0 0-1.05 0c-2.33.2-4.4 1.65-6.7 2.07l-.12.09a2 2 0 0 1-.71.2l-2.67.94-.04.08c-.11 0-.24.06-.34.09l-1.9.74c-.02-.09-.07-.17-.1-.26l2-.48.3-.13c.03 0 .07 0 .1-.03.47-.87 1.24-.88 2.03-.9.21-.03.42-.01.63-.05l.68-.24a.6.6 0 0 0 .18-.03c2.54-1.8 5.4-2.77 8.3-3.78.97-.34 1.96-.7 2.93-1.1.12 1.54-2.31 1.09-1.69 2.73 8.03-1.58 61.9-22.02 65.05-24.71-1.3-.48-2.26.23-3.29.61-13.64 5.16-27.3 10.3-40.95 15.44-1.36.51-2.7 1.37-4.32.82.32-1.3 1.26-1.42 2.06-1.74 3.37-1.38 6.74-2.8 10.11-4.15l36.87-14.84-.18-1.75c-1.6.66-3.19 1.34-4.8 1.99-25.37 10.23-50.72 20.53-76.14 30.64l.01-.06Zm-126.38 29.5c.71-.02 1.43-.15 2.14-.23 1.72-.14 3.44-.59 5.06.48a2.28 2.28 0 0 1 1.11 1.74c.06.91-.67 1.13-1.39 1.32l-6.25 1.65c-1.68.44-2.39-.34-2.52-1.96-.13-1.5-.4-3 1.84-3.02v.02Zm-17.79 5.9c-.02-.96.19-1.8 1.3-1.9 1.43-.15 2.9-.27 4.34-.3 1.05-.02 1.52.61 1.57 1.65.05 1-.27 1.67-1.31 1.87-.87.16-1.72.36-2.94.61-.5 0-1.4.15-2.2-.08-.8-.23-.74-1.14-.76-1.86Zm-26.12 2.05a6.95 6.95 0 0 1 6.72-.39c.24 1.43.5 3.26-.98 3.84-1.98.75-4.25 1.21-6.38.51-1.24-.4-.82-3.13.64-3.96Zm-21.64 1.86c.36-1.09 1.29-1.77 2.37-1.42 2.67.88 5.5-.38 7.58.6.84.31.9.55.85.9-.7 4.52-2.64 5.75-7.87 4.62-.3-.06-.62-.12-.94-.16-.95-.16-1.95-.37-2.66-1.16-.29-1.22.3-2.3.67-3.36v-.02Zm-21.36 1.25c1.54-1.89 3.13-1.56 4.7-1.37 2.38.29 4.33 1.67 6.44 2.66 1.77.85 1.09 2.06.38 3.6-3.48-2.2-7.41-3.42-11.52-4.9Zm-36.08-9.54c.59-.94.74-2.3 2.52-2.34 2.81 1.37 5.96 2.51 8.72 4.44.73.5.14 1.32-.22 1.95-.52.9-1.16 1.98-2.35 1.51-2.84-1.12-5.6-2.42-8.36-3.71-.84-.4-.73-1.18-.32-1.85h.02Zm5.93 6.63c-1.58.5-2.16-.25-3.13-1.07 1.54-.44 2.3.11 3.13 1.07Zm-12.92-10.1c-1.87-1.02-2.26-2.64-3.54-4.86 2.81 1.22 4.01 2.3 3.54 4.86Zm37.8 86.5c7.93.59 15.8 1.87 23.88 2.35-8.06 1.05-16.07.48-23.88-2.34Zm186.39-29.43c-.72.17-1.24.28-1.75.38l-.1.09c-.1 0-.23.06-.34.07-6.76 3.09-13.84 5.3-20.9 7.53l-3.05.97c-17.24 5.51-34.59 10.65-52.2 14.75-14.25 3.31-28.64 5.79-43.3 6.18-.96.02-2.02.43-3.04-.52 4.18-.81 8.25-1.67 12.35-2.41 15.5-2.81 30.85-6.33 46.2-9.86 16.2-3.71 32.3-7.84 48.29-12.32 5.2-1.46 10.31-3.3 15.63-4.32l.3-.12s.1-.01.16-.04c.58-.59 1.28-.77 2.6-.58l-.85.2Zm16.76-15.76c.82 2.18 1.77 4.32 2.62 6.5.1.24-.03.57-.06 1-10.02 3.75-20.38 6.6-30.67 9.67-27.75 8.25-55.94 14.75-84.23 20.83l-3.3.75c-3.3.76-6.63 1.5-10.05 1.75a4.4 4.4 0 0 1-1.9.75c-.68.1-1.37.12-2.05.13-.52.2-1.05.35-1.57.46-1.06.24-2.16.35-3.23.45l-1.62.16a8.55 8.55 0 0 1-3.54.98c-.73.07-1.48.11-2.2.19-11.1 2.15-22.23 3.17-33.57 2.37-9.88-.7-19.74-1.12-29.47-3.21-1.65-.36-2.85-.8-3.73-2.48-11.84-23.13-24.12-46.05-33.41-70.38-.5-1.3-1.35-2.58-1.28-4.39 3.36.48 6.24 1.66 9 3.23 15.99 9.01 33.23 13.25 51.52 13.44 13.47.14 26.86-.79 40.16-3.13 4.28-.76 4.27-.66 5.81 3.63 5.31 14.7 9.21 29.85 14.36 44.6 1.07 3.1 1.83 6.36 3.85 9.41.14-.95.05-.1.47-.5.1-.1.23-.27.22-.38-.05-.42-.06-.88-.2-1.26-7.01-17.99-11.48-36.8-18.07-54.92a1.2 1.2 0 0 1-.06-.43c-.02-.15.02-.3.11-.86 2.63-.56 5.39-1.23 8.2-1.73 26.35-4.65 52.15-11.43 77.6-19.63 10.2-3.3 20.3-6.93 30.44-10.37 2.92-.98 3.11-.85 3.78 2.06 4.04 17.53 9.76 34.54 16.08 51.36v-.05Zm40.97-76.06c-.25.2-.52.36-.8.48-.82.38-1.75.5-2.64.72-.77.65-1.59 1.04-2.63.56.35-.9 1.2-.93 1.9-1.26l3.35-1.28c1.51-.68 2.98-1.45 4.62-1.79.54-.1 1.1-.16 1.7-.17-1.38 1.83-3.5 2.16-5.5 2.72v.02Z" fill="#fff"/><path d="M533.96 513.7c-1.2.55-2.36 1.13-3.56 1.68 1.18-.57 2.37-1.15 3.56-1.68Zm-38.8-55.07a.6.6 0 0 0-.18.04.5.5 0 0 0 .18-.04Z" fill="#fff"/><path d="m495 458.67.05.03c.04-.02.1-.05.12-.09a.5.5 0 0 0-.18.04v.02Z" fill="#fff"/><path d="M495.04 458.7c.03-.02.08-.04.12-.08-.04.02-.1.04-.12.08Zm-81.81 24.8a4 4 0 0 1 .74-.14c-.26.03-.5.09-.74.13Zm-185.6-3.22c-.18.07-.28.21-.35.38a.64.64 0 0 1 .35-.38Zm-.69 2.81c-3.67-12.24-7.25-24.49-8.95-37.2 1.7 12.7 5.28 24.96 8.95 37.2Zm188.5.47.05-.04c-.02 0-.03.04-.05.04Zm28.61 85.67c-15.74 5.21-31.61 10.03-47.7 13.92a392.08 392.08 0 0 1-34.82 6.83c-17.8 2.63-35.65 4.74-53.68 3.4-11.12-.82-22.25-1.9-32.18-7.75.23 2.24 1.24 3.51 3.6 4.15a216 216 0 0 0 14.3 3.62c.53-.1 1.01-.06 1.35.4 1.31-.16 2.6.06 3.87.37.05 0 .1.03.15.04.79.2 1.58.4 2.38.58 1.27.28 2.56.4 3.88.1.72-.17 1.43-.24 2.04.3l2.38.05c1.03-.14 2.1-.46 3.06.27 1.05-.01 2.1-.01 3.14-.03 1.34-.1 2.71-.68 3.98.2 1.41-.37 2.84-.42 4.28-.39l1.44.06a934.2 934.2 0 0 0 36.58-3.78c1.22-.25 2.45-.54 3.68-.74a17 17 0 0 1 3.72-.26c1.36-1.28 3.13-.87 4.72-1.11a18 18 0 0 1 2.39-.6c.8-.13 1.62-.2 2.44-.2 1.09-1.06 2.49-.86 3.82-.96l.9-.26c.48-.14.96-.26 1.45-.37a9.28 9.28 0 0 1 2.42-.17c.78-1.02 1.94-.81 3-.88.64-.23 1.28-.43 1.93-.57a6.74 6.74 0 0 1 2-.15c.79-.98 1.93-.82 2.99-.88l2.65-.47c.83-1.3 2.2-.84 3.35-1.05.48-.07.87-.31 1.27-.55.68-.42 1.33-.88 2.24-.64.54-.06 1.1-.11 1.65-.19l3.11-.67c.52-.71 1.27-.74 2.04-.72.83-.2 1.67-.38 2.5-.57.18-.2.37-.37.57-.49a4.25 4.25 0 0 1 2.08-.38l2.39-.56a2.3 2.3 0 0 1 1.28-.75c.47-.1.99-.1 1.48-.15.71-.17 1.45-.36 2.17-.52.5-.77 1.3-.76 2.09-.79l1.68-.41c.7-.83 1.62-.89 2.6-.9.82-.36 1.66-.68 2.5-.97a16.1 16.1 0 0 1 3.39-.8c.43-.62 1.07-.75 1.8-.73.97-.38 1.92-.78 2.9-1.14.97-.36 1.97-.61 3.03-.67.69-.84 1.66-.88 2.61-.93.94-.72 2-1.05 3.1-1.27 1.84-.4 3.78-.49 5.38-1.59.41-.61 1.02-.77 1.72-.75a402.3 402.3 0 0 1 12.64-4.67c3.44-1.22 6.9-2.44 10.34-3.7 4.59-1.66 9.17-3.38 13.69-5.27 10.2-4.29 20.56-8.17 30.77-12.48 17.68-7.47 35.26-15.13 52.89-22.7l-.18-1.75-5.93 2.65c-42.41 18.87-85.19 36.76-129.29 51.4h-.02Z" fill="#fff"/><path d="M440.37 572.1c.98-.38 1.93-.8 2.9-1.15-.97.34-1.92.77-2.9 1.14Zm-21.37 6.58Zm-44.76 10.78Zm107.88-32.06-10.34 3.7c3.44-1.23 6.9-2.45 10.34-3.7Zm-183.18 36.81-.15-.04c.05 0 .1.03.15.04Zm27.6-424.36.03.04-.03-.03c.03 0 .05-.03.06-.05l-.06.04v.11-.1Zm-11.2 284.37.04-.1-.04.1Zm13.04-155.74.05-.06-.05.06Z" fill="#fff"/><path d="M219.6 445.56c.82 4.6 1.96 9.1 3.98 13.36 5.41 11.41 14.58 18.8 25.8 23.9 15.9 7.22 32.78 8.88 49.98 8.19 21.69-.88 42.92-4.9 63.9-10.25 28.03-7.16 55.43-16.31 82.54-26.28 39.04-14.35 77.31-30.58 115.79-46.34 1.99-.81 4.23-1.23 5.82-2.87-.88-1.27-1.8-.36-2.66 0-10.65 4.34-21.27 8.69-31.9 13.06-24.94 10.22-49.87 20.5-75.1 30.02-36.72 13.85-73.78 26.67-112.23 34.9-10.85 2.33-21.78 4.3-32.85 5.36-.47.14-.82.12-.75-.51.74-9.74 2.44-19.3 4.47-28.83-.2-.34 0-.55.28-.74-.02-1.03.1-2.03.29-3.03.17-1 .42-2 .61-2.99a519.94 519.94 0 0 1 22.57-78.26 841.17 841.17 0 0 1 14.78-37.31c4.6-10.72 9.23-21.43 13.73-32.17 4.7-11.23 4.65-11.24 2.95-23.13l-.27-1.74c-2.6-14.35-5.16-28.73-7.87-43.07-2-10.6-4.1-21.2-6.33-31.77-2.94-13.84-6.04-27.66-9.08-41.49-3.16-14.39-6.39-28.77-9.44-43.18-1.12-5.28-2.63-10.49-2.57-15.96a109.5 109.5 0 0 0-2.37-22.6c-2.5-12.4-7.41-23.58-16.12-32.9-8.48-9.1-18.3-15.87-30.82-18.18-4.88-.9-9.75-1.44-14.66-1.8-7.01-.53-13.99-.08-21 .14l-17.23 1.78-11.37 1.6c-1.59.94-3.4.81-5.15 1.05a8.42 8.42 0 0 0-2.84.4c-.93.26-1.86.58-2.8.75a6.5 6.5 0 0 1-1.92.09c-.25.39-.6.48-1.04.4-9.11 2.06-18.22 4.05-27.3 6.25a544 544 0 0 0-9.05 2.28c-10.56 2.76-20.99 5.99-31.4 9.14a240.33 240.33 0 0 0-17.16 5.75c-6.86 2.67-14 4.6-20.94 7.1-16.57 6.02-32.37 13.68-48.2 21.33-11.26 5.42-21.75 12.08-32.09 19.03-.67.46-1.12.94-1.2 1.67-.1.76.2 1.49 1.03 1.7.72.2.95-.3 1.12-.93.43-1.55 1.83-2.1 3.12-2.71.3-.25.6-.65.95-.27.31.34.12.77-.2 1.07-.96 3.36-2.01 6.7-2.93 10.1a87.4 87.4 0 0 0-.89 3.37c-.5 2.08-1.65 3.26-3.4 4.22a327.89 327.89 0 0 0-10.96 6.31c-.55.34-1.93.52-.96 2.1 3.9-2.1 7.8-4.24 11.7-6.35.47-.5 1-1.13 1.68-.65.7.5.24 1.19-.16 1.76-.16.94-.3 1.86-.47 2.8-.16.93-.32 1.85-.52 2.77-1.51 7.12-2.78 14.3-3.07 21.57-.22 5.36-.82 10.78 1.02 16.03 1.5 4.28 3.99 6.15 8.46 6.15 1.73 0 3.48-.3 5.2-.46.52-.77 1.33-.75 2.12-.77.83-.33 1.64-.7 2.47-1.01.83-.3 1.69-.58 2.58-.67.4-.65 1.06-.77 1.76-.79 1.92-.82 3.81-1.7 5.71-2.54 1.66-.72 3.33-1.43 5.03-2.06 2.2-.82 4.43-1.49 6.75-1.93a11.37 11.37 0 0 1 8.26-.78c.6.09 1.12.2 1.62.37a6.76 6.76 0 0 1 4.13 3.7c.6 1.27.98 2.74 1.27 4.3l.35.14v.33c.5 1.01.62 2.1.64 3.19 0 .37 0 .73-.02 1.09a122.77 122.77 0 0 1-4 27.55c-2.39 9.15-5.22 18.18-6.69 27.55-.26 1.7-1.34 3.04-1.25 4.96a52.3 52.3 0 0 1-1.87 16.43c-.17.65-1.17 1.52.18 2.16 1.5-.78 1.02-2.8 2.13-3.63 1.13-.83 2.78-.67 3.97-1.6.92-.72 1.97-1.27 2.91-1.96a126.3 126.3 0 0 0 12.7-10.7c1.24-1.22 4.65-1.94 2.02-4.9-.08-.1.3-.77.6-1.02a25.4 25.4 0 0 1 2.46-1.8 565.34 565.34 0 0 1 66.94-37.82c7.47-3.59 15.09-6.97 23.2-8.96.44-.64 1.1-.76 1.8-.74l2.44-.58c.72-.87 1.73-.84 2.72-.89l2.24-.53c.77-.9 1.87-.81 2.89-.88.58-.13 1.15-.27 1.73-.38 1.21-1.23 2.83-.9 4.3-1.1.79-.2 1.55-.48 2.34-.67.79-.2 1.59-.28 2.43-.1.75-1.11 1.95-.78 3-.9 1.07-.3 2.15-.56 3.23-.74 1.09-.19 2.19-.27 3.31-.22.58-.8 1.48-.8 2.34-.88l19.74-2.04c.84-.08 1.74-.3 2.45.41.41-.13.81-.4 1.22-.4 18.97-.6 37.68.7 55.44 8.28.82.35 1.72 1.14 2.95-.27a91.01 91.01 0 0 0-13.93-5.2c-17.41-4.97-35.2-5-53.06-3.98-7.76.45-15.37 2.03-23.05 3-.94.74-2.02.8-3.15.71-.4.16-.8.36-1.22.44a191.1 191.1 0 0 0-40.38 12.83c-22.32 9.88-43.38 22.1-64.16 34.81a221.4 221.4 0 0 0-19.07 13.19c-.79.6-1.97 1.09-1.65 2.73 2.72-1.02 4.29-3.67 7.26-3.71a65.14 65.14 0 0 1-17.24 14.5c-1.23-1.88-.7-3.46-.39-5 1.45-6.99 2.92-13.98 4.44-20.96.17-.72.06-1.77 1.13-2.05v-.07l.05-.04c-.75-1.4-.08-2.68.34-4 .23-.75.75-1.25 1.53-.67.66.49 1.5 1.06.84 2.07a8.37 8.37 0 0 1-2.7 2.57c0 .04 0 .06.05.1h-.07c.46 1.66 1.22 1.01 2.08.25 9.57-8.64 20.5-15.4 31.04-22.72 7.07-4.9 14.72-8.88 22.26-12.93 7.95-4.26 16.35-7.66 24.67-11.19 16.32-6.92 33.05-12.5 50.63-15.26 20.03-3.15 40.11-3.2 60.22-1 15.72 1.73 31.18 4.55 46.23 9.53a71.53 71.53 0 0 1 10.32 4.5c-.7-2.63-2.1-3.84-3.52-5.02a36.46 36.46 0 0 0-10.22-5.88 118.02 118.02 0 0 0-26.67-6.8c-12.92-1.79-25.9-2.14-38.9-2.12.02.2-.02.37-.04.54.03 1.37 1.33 1.13 2.25 1.09 5.24-.21 10.46-.03 15.69.2 14.72.63 29.29 2.22 43.32 7.04 3.03 1.03 6.05 2.12 8.74 3.9l2.5 1.38c-.9.5-1.54.32-2.14.04-.34-.17-.68-.36-1.02-.45a237.16 237.16 0 0 0-48.35-9.65c-2.35-.24-4.7-.42-7.05-.6a247.1 247.1 0 0 0-28.9-.55c3.8-.81 8.36-1.19 12.95-1.26.88-.02 1.8-.18 2-1.14-.02-.17 0-.33.03-.54-2.34.19-4.64.44-6.99.54-12 .48-23.89 1.8-35.66 4.1a225.55 225.55 0 0 0-55.53 18.38c-22.97 11.18-44.2 25.36-66.06 38.49-.9.55-1.55 1.63-2.73 1.7-.61-1.25-.18-2.25.01-3.2 1.02-4.95 2.1-9.86 3.19-14.79a91.43 91.43 0 0 0 1.76-27.84c-.46-5.4-3.37-8.22-8.69-8.63-3.02-.22-6.05-.19-9.08-.28-2.54.26-5.07.54-7.62.82a89.3 89.3 0 0 0-8.97 2c-2.95.8-5.9 1.69-8.82 2.6-4.24 1.3-6.01.2-6.88-4.13a51.1 51.1 0 0 1-.92-11.78c.26-7.6 1.48-15.1 2.63-22.62.52-3.33.98-6.34 5.35-6.42.94-.02 1.87-.76 2.8-1.19a1490.62 1490.62 0 0 1 53.82-23.4c10.65-4.4 21.4-8.6 32.36-12.23 3.68-1.23 3.75-.74 4.76 2.12 2.57 7.27 5.18 14.53 7.28 21.92 5.1 18.13 10.4 36.21 16.22 54.13.4 1.25.66 2.56 1.54 3.57.46.53 1.13.27 1.64.05.62-.28.73-.84.25-1.4-1.63-1.82-2.02-4.19-2.72-6.38a1175.53 1175.53 0 0 1-20.93-73c-.8-3.16-.78-3.18 2.47-4.14 10.22-3.04 20.6-5.49 30.98-7.92a537 537 0 0 1 76.58-12.22c4.75-.42 3.6-.93 4.9 3.4a944.9 944.9 0 0 1 16.56 62.25c1.13 4.97 2.1 10 3.92 14.8.4 1.03.69 2.7 2.1 2.25 1.63-.56.38-1.99.13-2.98-3.62-13.99-7.38-27.96-10.92-41.98-2.5-9.91-4.68-19.91-7.03-29.86-.2-.79.13-2.05-.85-2.28-3.28-.84-2.29-3.68-3.25-6.01 1.75-.18 3.18-.39 4.63-.48 5.1-.29 10.21-.61 15.32-.8 11.37-.4 22.74-.35 34.04 1.13 7.83 1.03 15.6 2.5 22.9 5.64 4.48 1.93 8.36 4.43 8.9 10.12.27 2.56 1.2 5.11 1.47 7.73.08.86.36 1.92 0 2.58-1.89 3.6-.75 7.16-.08 10.71.84 4.6 1.84 9.2 1.65 13.9a207.56 207.56 0 0 1-2.3 23.52c-3.13 20.26-9.94 39.46-16.72 58.68-1.09 3.13-2.83 6.03-3.87 9.12-2.25 6.61-5.07 12.97-7.79 19.38-7.21 16.9-15.14 33.45-23.1 50-5.88 12.25-11.8 24.48-17.72 36.71a2270.52 2270.52 0 0 0-30.47 65.82c-1.03 2.34-2.75 4.78-1.9 7.4.57 1.68.13 2.74-.53 4.04a106.72 106.72 0 0 0-10.5 32.79c-.58 4-.93 8-.96 11.98a73.68 73.68 0 0 0 .83 12l-.14.03Zm-134.09-234.06-6.72 4.86c1.63-2.52 4.24-3.6 6.72-4.86Zm-10.9 7.45.27.23-.26.15a.88.88 0 0 1-.26.12c-.07 0-.18-.15-.28-.23.17-.09.34-.22.52-.27Zm-50.2-74.64a74.83 74.83 0 0 0-.14 19.66c1.25 6.62 3.58 8.09 10.07 6.28 4.77-1.34 9.47-3 14.4-3.77.7-.11 1.38-.44 2.03.14-.1.41-.29.76-.75.94-5.78 2.44-11.5 5.09-17.54 6.81-9.13 2.64-12.51.3-13.48-9.05-.68-6.59-.05-13.13.75-19.65.8-6.52 2.33-12.91 3.73-19.32.47-2.2 1.45-3.74 4.22-4.04-1.15 7.62-2.36 14.8-3.28 22.02v-.02Zm4.36-26.57c-.35 1.73-1.3 2.86-3.79 3.04 1.55-6.54 3.3-12.75 6.9-18.27-1.05 5.07-2.07 10.16-3.1 15.23Zm99.2-29.87s-.06-.05-.08-.1c-.12-.25-.13-.54-.16-.82-.03-.42.1-.56.2-.33.1.25.13.54.18.8 0 .32-.08.48-.16.45h.02Zm8.78-6.54c-20.47 5.57-40.06 13.52-59.51 21.81-14.36 6.12-28.56 12.55-42.84 18.84-.94.41-1.86.87-2.82 1.21-.66.23-1.47.52-1.88-.36-.33-.7-.15-1.45.26-2.08.79-1.15 2.09-1.58 3.22-2.2a464.5 464.5 0 0 1 72.45-31.65c16.05-5.47 32.5-9.39 49.17-12.41a137.97 137.97 0 0 1 18.09-2.3c-12.12 3.06-24.17 5.89-36.14 9.14Zm170.86-18.75c-.12.1-.29.2-.54.28-.62.2-1.4-.17-2.1-.3l-7.63-1c.81-.3 1.62-.5 2.44-.6 2.43-.34 4.84.04 7.24.54.66.32.93.75.6 1.08Zm17.75 6.04c-4.36-2.1-9-3.37-13.64-4.59-.82-.2-1.78-.12-2.3-1.03-.62.03-1.36-.22-1.13-.82.04-.13.1-.23.17-.31a.73.73 0 0 1 .46-.3c.45-.1 1 .11 1.5.3 3 .11 5.9.82 8.83 1.39.98.2 1.95.35 2.94.47a44.3 44.3 0 0 0-13.5-3.7c-4.6-.6-9.29-.74-13.96-.96-.53.06-1.07.15-1.6.2-21.49-.35-42.8 1.81-64.1 4.06-15.1 1.6-30.23 3.18-45.28 5.26-.32.04-.63.1-.96.16-.32.05-.65.12-.97.15-.66.07-1.3.08-1.97-.12-.21.39-.53.51-.9.53-.13.01-.24 0-.37-.02l-12.4 1.61c-1.5.7-3.08.91-4.69 1.06l-.96.1c-.64.06-1.28.1-1.91.2-2.14.32-4.26.63-6.4.97a4.6 4.6 0 0 1-1.9.74c-.67.11-1.35.12-2.03.12-10.38 2.29-20.75 4.57-30.94 7.59-20.42 6.02-40.1 13.96-59.43 22.8-1.32.59-2.69 1.1-4 1.66-.4.2-.76.4-1.14.61l-14.4 7.2c-2.03 1.13-4.06 2.28-6.12 3.38-.33.18-.82.1-1.7.2.5-5.95 1.9-11.51 3.96-16.95.51-1.32 1.94-1.7 3.03-2.37 11.57-7.2 23.98-12.72 36.21-18.58 19.8-9.5 40.66-16.17 61.47-22.99 21.12-6.92 42.43-13.07 64.14-17.78l8.03-1.75c8.02-1.72 16.08-3.31 24.3-3.85.76-.86 1.83-.81 2.83-.91l16.1-1.66c1-.1 2.04-.38 2.96.32 16.28-1.43 32.43-1.42 47.29 6.6 11.63 6.26 20.18 15.68 25.82 27.66.38.78.65 1.62.88 2.46.1.4-.04.83-.07 1.19-.84.43-1.5.1-2.16-.2l.01-.1Zm2.75 1.85c-.17-.18-.34-.39-.52-.57-.25-.27-.22-.51.14-.6.1-.03.22-.02.29-.03.26.03.38.25.43.58-.1.21-.24.4-.34.62Zm-6.4 345.92c-.31 2.11.01 4.32-.86 6.4-1.3.02-1.84-.51-2.4-.95-3.86-3-3.7-6.11.44-8.93.73-.48 1.28-.46 1.83.25a4.35 4.35 0 0 1 1 3.25v-.02Zm40.4-100.08-16.83 39.84c-.64-2.28.65-3.65 1.04-5.2.75-2.87.2-4.14-2.45-5.1-3.67-1.33-8.47 1.34-9.71 5.4.99.49 1.18-.34 1.56-.91.94-1.39 2.31-2.17 3.83-2.77 1.74-.68 3.51-.97 4.94.4 1.32 1.27.28 2.74-.19 4.06-.47 1.35-1.07 2.66-1.6 3.91-2.94.01-3.72-3.77-7.18-3.62 2.59 3 5.05 5.28 8.94 6.3a59.57 59.57 0 0 0-2.32 5.95c-1.15 3.32-2.25 6.6-4.2 9.57.46 1.25-.25 2.27-.63 3.34a496.26 496.26 0 0 0-12.87 40c-.17.65-.18 1.48-1.24 1.87-.38-2 .06-4.06-.69-5.93-1.14-2.92-3-3.3-5.26-1.08-4.86 4.75-4.63 6.94.72 11.1 1.32 1.02 3.78.8 3.93 2.9.1 1.53-.66 3.12-1.03 4.67-.83 3.37-1.68 6.74-2.62 10.5-1.38-1.82-2.7-2.73-4.63-2.68-3.2.1-3.25.03-4.01 3.18a135.1 135.1 0 0 0-1.5 6.85c-.6 3.13-.58 3.16 2.38 4.24 1.53.56 2.86 2.13 4.76 1.18v-.07a.39.39 0 0 1 .04-.1c-.27-1.87-.21-3.67 1.18-5.16l-.02-.13.07-.08a4.7 4.7 0 0 1-.04-.71l.06-.85c.67.1.41.6.36.95-.03.23-.24.41-.38.61l.01.13a.21.21 0 0 0-.06.08 9.74 9.74 0 0 1-1.18 5.18l.02.14c-.02 0-.06.01-.07.03-.07 2.91-.65 5.73-1.22 8.57-.23 1.14-.46 2.27-.67 3.43l-.29 1.72c-.88 6.07-1.87 12.12-2.74 18.18-.28 2.02-1.03 3.14-3.3 3.05-2.6-.12-5.21.7-8.22-.08 7.3-53.8 17.56-106.73 40.46-156.25 1.73-.18.93 1.91 2.23 1.81.49-.25.59-.7.41-1.1-1.27-2.94-.68-5.58.82-8.31 2.19-3.96 4.08-8.09 6.13-12.1.5-1.02.78-2.24 2.34-2.77 1.36 1.92 2.74 3.93 4.63 5.48 2.42 2.01 2.62 2 4.7-.58.27-.32.6-.6.95-.87.03-.04.1-.03.16-.01.07-.01.15 0 .2.01.12.08.26.16.35.28.08.1.15.26.13.37-.07.43-.13.86-.3 1.26l.1-.08Zm-45.9 127.6c-.95 2.74-1.83 5.5-2.83 8.6-2.73-1.35-3.82-3.29-3.29-5.8.32-1.42.67-2.83.96-4.26.46-2.16 2.15-2.3 3.71-1.99 1.83.37 2 1.8 1.44 3.42v.02Zm3.63-162.3c2.67 7.34 5.32 14.66 7.94 22.02 1.68 4.74 4.95 8.67 6.4 13.54a78.07 78.07 0 0 0 3.85 9.75c.91 2.06.71 3.85-.2 5.84-16.8 36.14-26.7 74.33-33.8 113.35-.26 1.4-.23 2.84-1.01 4.04-.84.09-1.1-.44-1.4-.92-13.2-20.32-26.2-40.75-38.36-61.72-5.03-8.67-5.12-8.66-1.17-17.94 8.55-20 17.87-39.65 26.9-59.45a576.5 576.5 0 0 0 17.7-42.86c.48-1.28 1-2.57 1.53-3.82.53-1.26 1.08-2.52 1.6-3.79.18-.51.3-1.06.54-1.61.24-.58.58-1.19 1.17-1.84l.36 3.4 8 22-.05.01Zm8.57 16.79s.01.1.05.14c1.13.71.46 2.25 1.48 3.03-.32-.19-.54-.4-.7-.64-.47-.7-.51-1.59-.78-2.39-.03-.01-.06-.05-.1-.08-.01-.13-.06-.25-.1-.38-.63-1.38-1.25-2.77-1.9-4.16.8 1.32 1.59 2.65 1.9 4.16.06.1.1.21.15.34v-.02Zm29.5 8.49c1.14-.9 2.43-2.83 4.04-1.45 1.53 1.3.86 3.19-.11 4.78-1.07 1.72-2.1 3.47-3.3 5.47-6.7-4.44-4.99-5.4-.63-8.8Zm12.33-12.92a5.2 5.2 0 0 1-1.34 3.4 4.34 4.34 0 0 1-1.63-3.33c-.04-.91.48-1.74 1.5-1.77 1.07-.04 1.5.65 1.47 1.69v.01Zm-26.18-141.76c3.84 17.57 7.73 35.1 11.47 52.67 4.32 20.13 7.96 40.41 11.58 60.67 1.3 7.33 2.49 14.7 3.74 22.03.29 1.74.45 3.29-2.1 3.1-2-.12-2.94 2.57-5.38 1.72.77 2.33 1.9 4.44 3.43 5.3 2.57 1.42 1.95 2.85 1.17 4.75-1.12 2.69-2.14 5.44-3.28 8.12-.37.86-.51 2.03-1.82 2.19-.63-1.17.38-1.9.75-2.76a5.7 5.7 0 0 0 .16-4.27c-.74-2.24-1.8-2.81-3.92-1.86-2.17.96-3.9 2.56-5.63 4.13-.72.65-1.2 1.7-2.5 1.68-.87-1.6.4-2.73 1-3.93 4.3-8.63 8.67-17.23 13.03-25.82.38-.78.93-1.5.87-2.74-1.66.08-1.9 1.54-2.39 2.5a9736.7 9736.7 0 0 0-19.82 39.1c-1.36 2.69-3.32 5.06-4.08 8.76a13.32 13.32 0 0 1-2.3-4.03c-.82-2.49-1.75-4.95-2.69-7.39-.77-2-1.95-3.77-1.13-6.21.35-1.05-.38-2.55-.85-3.77a416.1 416.1 0 0 0-10.43-24.03c-3.42-7.3-5.83-15.05-8.7-22.6-.2-.56-.18-1.3-.55-1.64-2.8-2.68-1.29-5.35-.27-8.16 5.5-15.24 12.24-30.03 17.3-45.44 5.4-16.53 10.36-33.17 12.66-50.47.07-.54-.05-1.17.72-1.6h-.04Zm-123.64 282.98c.7-.18 1.18.6 1.57 1.16 2.22 2.3 4.38 4.66 6.69 6.87 1.32 1.28 2.35.92 2.66-.94.37-2.28.48-4.6.7-6.93a29 29 0 0 1 3.75-11.95c2.14-3.7 1.9-4.58-1.37-7.4-.54-.48-1.1-.96-1.68-1.37-2.47-1.74-3.34-1.53-4.58 1.3-1.96 4.52-3.82 9.1-5.73 13.66a1458 1458 0 0 1-1.51 4.23c-.92-1.6-.65-2.95-.44-4.32 1.03-14.91 4.97-28.98 12.34-42.05.65-1.17 1.35-2.01-.9-2.07-.96-.03-.33-1.14-.1-1.74 1.64-3.9 3.3-7.79 5.01-11.66 12.28-28.03 25.51-55.62 38.84-83.16 13.75-28.44 27.61-56.81 39.14-86.25l3.2-8.15c1.13-3.04 2.23-6.1 3.35-9.13 1.23-4.3 2.55-8.58 4.22-12.72.2-.65.15-1.38.44-1.98.1-.23.27-.43.53-.63l-.01-.1c.03 0 .05-.03.06-.05a4 4 0 0 1 .76-3.04c1.63-6.95 3.55-13.84 5.02-20.86.5-2.33.91-4.67 1.28-7.03.38-2.5.73-5 1.06-7.5.33-2.5.66-5 1.01-7.5.02-1.8.01-3.62.03-5.42l.9-.11c.54 1.74.86 3.57.92 5.44 2.28 8.52 4.29 17.1 5.66 25.82a.77.77 0 0 1-.31.7c-.1.08-.2.13-.33.2-.12.05-.25.1-.35.16-.85 5.64-1.52 11.3-3.02 17.08-2.06-.54-2.62-3.07-4.48-3.34a2.27 2.27 0 0 0-.88.04l-1.6.16a4.3 4.3 0 0 0-2.15 1.1c-.61.53-1.16 1.14-1.72 1.7-.3.54-.5 1.15-.82 1.66-.23.33-.53.62-1 .78l.02.09c-.04 0-.05.04-.07.06.09.86.21 1.7.32 2.56.37 0 .69.06.97.14.57.18 1.01.54 1.39.96.96 1.08 1.52 2.66 2.94 3.43 2.58-2.54 2.76-6.8 5.67-9.08 1.36.65 1.16 1.6.98 2.38-3.78 15.62-8.27 31.02-14.16 45.99-.19.48-.42 1.1-1.13 1.18-1.28-.34-.92-1.28-.69-2.04.33-1.07.4-2.1-.47-2.84-1.68-1.41-2.22-3.32-2.8-5.3-.48-1.63-1.77-1.9-2.48-.54-2.25 4.39-4.63 8.75-5.48 13.7-.03.13.1.28.27.45.16.17.36.33.5.5.19-.35.38-.7.56-1.07.18-.37.38-.74.6-1.13.9.97 1.52 1.87 1.67 3 1.44 1.53 2.63 1.6 3.57.18.87-1.34 1.7-2.72 2.58-4.06.33-.51.92-.83 1.5-.63.59.21.73.88.6 1.46-.14.72-.36 1.42-.63 2.09l-7.11 17.84c-.32 1.04-.6 2.08-1.08 3.07-.17.33-.34.64-.57.94-3.79 10.36-6.98 20.97-12.03 30.85-.91 1.8-1.13 3.93-1.96 5.72-4.55 9.94-8.6 20.09-13 30.09-13.86 31.54-29.44 62.38-40.13 95.27a733.12 733.12 0 0 0-14.02 48.8c-.34 1.34-1.13 2.66.04 5.07 7.1-25.2 13.24-49.82 22.91-74.03 2.28 4.03 4.2 7.44 6.1 10.85 11.43 20.37 23.83 40.15 35.73 60.26.26.45.48.96.77 1.4.15.27.32.5.53.72.04.04.06.09.1.12a2.7 2.7 0 0 0 1.52.67 3.11 3.11 0 0 0-.45-1.75l-.16-.26a8.97 8.97 0 0 0-.44-.7c-.19-.27-.36-.53-.52-.8-12.07-20.51-24.65-40.72-36.43-61.4-1.9-3.34-2.86-7.23-5.9-9.97-.75-.68-.1-1.85 1.3-2.45l3.17 5.5c10.84 18.52 22 36.87 33.85 54.77 1.61 2.43 3.02 5.02 4.73 7.37 2.14 2.9 2.93 5.9 2.39 9.04-.19 1.05-.5 2.1-.97 3.2-.35 6.8-2.07 13.37-2.8 20.1-.22 1.86-.73 3.7-.8 5.56a3.72 3.72 0 0 1-.3 1.5c-.34.76-1 1.03-1.8 1.04l-.25-.01c-.33 0-.68-.06-1.07-.11h-.06c-.54.1-1.1.2-1.65.21a3.28 3.28 0 0 1-1.64-.38c-16.26.15-31.9-2.58-46.25-10.64-16.34-9.19-24.02-23.5-24.26-42.04-.14-.52-.38-1.36.1-1.49l.02-.07Zm2.76-2.99c2.3-5.64 4.61-11.29 6.86-16.76 1.74-.13 2.47.92 3.32 1.64 2.83 2.38 2.88 2.5 1.01 5.77a31.97 31.97 0 0 0-4 13.72c-.12 1.58-.3 3.16-.53 5.24a31.1 31.1 0 0 1-6.23-6.3 3.27 3.27 0 0 1-.45-3.32l.02.01Zm112.05-263.67c-.98 1.93-2.02 3.84-3.06 5.8-2.08-.67-2.3-2.76-2.93-4.06-.75-1.56 1.14-2.93 2.55-3.86 1.2-.79 2.51-.8 3.62.2.73.63.14 1.34-.18 1.94v-.02Zm-18.1 53.02c-4.52-4.61-1.28-8.55.6-12.75 4.55 4.51 3.73 8.64-.6 12.75Z" fill="#fff"/><path d="m326.61 169.92-.04-.03c.02 0 .04.03.04.03-.03 0-.05.04-.06.06l.06-.06Zm-256.54 53.78v.07h.08l-.1-.05.02-.02Zm139.68-188.92Zm-188.3 92.72c-.16.93-.3 1.84-.47 2.78.16-.94.3-1.87.47-2.79Zm30.29 41Zm-24.35-61.85c-.96 3.35-2.01 6.7-2.93 10.08.92-3.36 1.95-6.7 2.93-10.08Zm157.57 76.29 2.24-.53-2.24.53Zm10.7-16.04c-5.54.26-10.92 1.64-16.28 3-.68.18-1.56 1.05-.94 1.55 1.53 1.26 1.6 3.04 2.22 4.61.38.97 1.07 1.3 1.72 1.16 4.5-1.23 8.72-2.26 12.84-3.56 1.62-.52 2.18-2.23 2.52-3.87.38-1.75-.14-3-2.1-2.9h.02Zm-2.63 6.08c-3.1.78-6.21 1.43-9.31 2.25-1.69.43-2.01-.58-2.26-1.79-.23-1.15-.53-2.28 1.15-2.71 4.34-1.1 8.69-2.11 13.47-2.26.17 2.7-1 3.99-3.07 4.51h.02Zm102.24 5.49c2.85 1.07 5.59 2.44 8.44 3.52 1.69.64 3.5 2.75 5.07 1.4 1.54-1.34.6-3.86.41-5.84-.28-3.08-.93-3.7-4-4.2-2.41-.4-4.86-.9-7.27-.8-2.14.1-2.14-1.25-2.61-3.19-1.73 2.18-1.68 4.1-2 5.9-.34 1.75.32 2.6 1.96 3.23v-.02Zm1.4-4.25c1.12-.59 9.24.41 10.21 1.27 1.14 1 .84 2.41 1.03 3.68.09.7.02 1.43 0 2.96-4.2-1.8-7.81-3.28-11.37-4.9-1.37-.63-1.24-2.28.13-3Zm-50.39-12.86c-2.6.27-5.18.83-7.8 1.17-1.31.18-2.87.26-3.2 1.75-.34 1.64-.22 3.39 1.6 4.36 1.54-1.22.63-2.95 1.4-4.32 2.06-.38 4.2-.8 6.34-1.15 4.62-.73 5.08-.34 5.45 4.63-3.68-.16-7.16-2.2-11.04-.61 3.66.78 7.33 1.56 10.98 2.36.94.21 1.78.16 2.1-.92.95-3.42-2.4-7.6-5.85-7.26h.02Zm-104.25 22.51c-2.72 1.6-6 2.57-7.56 5.64-.46.89-2.22 1.35-1.16 2.87 1.04 1.5.97 3.73 3.1 4.52.7.26 1.25.57 2 .07 3.75-2.45 7.53-4.84 11.4-7.34-1.3-2.14-2.98-3.51-4.6-4.95-.87-.77-2-1.52-3.18-.83v.02Zm-4.65 11.8c-2.45-4.35-2.4-5.81.74-7.81 5.44-3.45 5.04-3.6 9.46 1.43l-10.2 6.37Zm-14.5-.85c-2.37 1.11-4.67 2.41-6.99 3.65-1.27.66-3 .93-3.52 2.35-.46 1.26 1.37 2.06 1.45 3.43.04.57.27 1.13.47 1.68 1.02 2.7 1.22 2.75 3.63 1.32a77.02 77.02 0 0 1 5.36-2.94c.72-.35 1.3-.63 1.77-.88.31-.17.57-.34.8-.5 1.23-.87 1.17-1.8.99-4.82l-.04-.88c-.2-3.42-.84-3.87-3.93-2.43v.02Zm.6 7.74c-2.4.98-4.66 2.34-7.23 3.67a12.1 12.1 0 0 1-1.42-3.85c-.14-.94 0-1.7.95-2.17 2.97-1.47 5.75-3.32 9.37-4.56.15 1.5.17 2.38.33 3.2.4 1.84-.16 2.95-2 3.7Z" fill="#fff"/><path d="M126.82 198.13c-.03-.3-.02-.59-.03-.88.03.3.02.59.03.88Zm-24.46 8.52c-3.76 1.88-7.44 3.91-10.78 7.16 2.2-.48 3.35.37 4.05 2.18.32.81.75 1.57 1.18 2.34.72 1.23 1.74 1.7 2.8.5 1.87-2.14 4.29-3.46 6.6-4.96 2.3-1.53 2.45-2.5 1-5.1-1.42-2.57-2.65-3.21-4.85-2.12Zm2.45 6.33a38.42 38.42 0 0 0-6.13 4.35c-1.07-.39-1.24-1.14-1.56-1.75-1.76-3.26-1.74-3.26 1.55-5.24 1.11-.67 2.24-1.32 3.37-1.95 1.67-.92 2.86-.66 3.89 1.17 1.03 1.78.36 2.6-1.12 3.4v.02Zm64.44-38.92a60.18 60.18 0 0 0-9.74 2.05c-1.97.63-2.99 1.65-2.3 3.82.3 1.11.52 2.26.9 3.35.88 2.6 1.2 2.78 3.75 1.82a249.2 249.2 0 0 0 9.3-3.68c1.69-.71 2.5-1.99 1.75-3.84-.7-1.72-1.08-3.9-3.66-3.54v.02Zm.79 6.17c-2.83 1.13-5.68 2.18-8.51 3.28-1.3.5-1.78-.09-2.16-1.26-1.2-3.76-.89-4.38 2.97-5.31l4.96-1.18c1 0 1.94-.21 2.72.02 1.12.34 1.14 1.6 1.38 2.54.28 1.1-.57 1.59-1.36 1.9Zm105.51-14.83c-2.7-.38-5.43-1.26-8.16-.84-1.47.22-2.36-.59-3.75-1.05-.57 2.13-.08 3.85.07 5.54.06.57.28 1.41.89 1.27 3.37-.82 6 1.53 9.07 2 1.53.22 3.26 1.27 4.43-.24 1.04-1.34.23-3.08-.1-4.61-.25-1.3-1.22-1.9-2.47-2.08l.02.02Zm1.58 6.06a35.96 35.96 0 0 1-9.84-3.03c-.54-.24-.9-.7-.82-1.39.07-.76.67-.93 1.24-.97 2.63-.15 5.26.17 7.75.9 2.08.62 1.27 2.58 1.69 4.47l-.02.02Zm-57.76-7.78a11.77 11.77 0 0 0-3.45-.45 28.7 28.7 0 0 0-9.1 1.21c-.74.02-1.67-.8-2.26.25-1.02 1.76.9 5.39 2.91 5.3 3.78-.18 7.5-.91 11.33-.75 1.37.04 2.4-1 2.55-2.55.14-1.52-.6-2.6-1.97-3.03l-.01.02Zm.26 3.03c-.14.63-.62.98-1.22 1-.85.04-1.72-.06-2.57-.1-1.9.16-3.76.68-5.66.82l-.07.01a10.07 10.07 0 0 1-3.36-.28c-.67-1.58-1.4-2.92 1.56-2.75 2.4.14 4.85-.4 7.29-.64a5.89 5.89 0 0 1 2.96.34c.7.3 1.25.7 1.05 1.6h.02Zm-137.57 52.83c-2.85 2-4.5 4.44-3.67 8.1.3 1.4.31 2.88.53 4.95 1.63-.76 2.75-1.1 3.66-1.72a75.73 75.73 0 0 0 5.12-4.08c3.53-3.01 3.45-4.16-.12-7.03-1.87-1.5-3.55-1.6-5.52-.22Zm5.42 5.47c-1.91 1.45-3.52 3.3-6.02 4.6-.29-1.89-.48-3.43-.77-4.93-.45-2.4 1.26-3.3 2.9-4.27 1.66-.98 2.68.22 3.79 1.12 1.34 1.07 1.77 2.22.12 3.48h-.02Zm239.76 355.79c-.78-1.33-1.93-2.3-3.5-2.19-3.18.22-6.34.62-9.52.98-.76.08-1.62.56-1.31 1.33.33.89-.8 2.51.58 2.6 2.72.15 2.39 3.06 4.86 4.31-.43-2.48.54-3.13 2.51-2.34.67.26 1.27.74 1.94.96 1.94.63 3.98 3.43 5.71 1.67 1.67-1.68-.45-4.33-.91-6.54-.07-.27-.23-.53-.36-.8v.03Zm-.12 5.83c-1.9-.23-3.11-1.33-4.54-1.96-.92-.4-2-1.3-2.82-.74-3.35 2.26-3.03-1.27-4.24-2.94l5.88-.61c3.88-.38 4.55.06 5.45 3.76.19.77.16 1.6.26 2.51l.01-.02Zm135.39-37.43a22.09 22.09 0 0 0-7.79-.82c-1.13.12-2.2.41-2.9 1.48 1.15 1 2.12.2 3.05.1 2.5-.25 4.96-.01 7.35.74 1.37.4 2.25 1.5 2.2 2.93-.05 1.51-1.42 1.58-2.57 1.85-1.85.43-3.75.74-5.5 1.43-2.2.87-3.5.42-4.23-1.86-.25-.77-.58-1.69-2.04-1.37l1.67 4.4c.43 1.16 1.25 1.66 2.4 1.15 3.1-1.38 6.5-1.68 9.66-2.76 2.14-.72 2.7-1.99 2.01-4.05a4.7 4.7 0 0 0-3.3-3.2l-.01-.02Zm-83.41 26.7c-.02-3.33-.28-3.41-3.39-3.04-2.01.25-4.03.64-5.98 1.2-2.73.82-4 2.56-3.58 4.5.71 3.38 3.01 5.33 5.99 4.95 3.48-.45 6.63-1.82 10.08-3.7-1.21-1.63-3.12-1.74-3.12-3.91Zm-6.6 6.09c-2.39.57-5.17-2.1-4.97-4.6.07-.84.67-1.23 1.38-1.45 2.75-.82 5.4-2.16 8.6-1.55.1 1.77.2 3.6 1.22 5.11-1.92 1.65-4.13 1.98-6.22 2.48h-.01Zm183.85-68.29c.59 2.16-.36 4.74 1.68 6.5.48.4 1.08.18 1.63-.05l7.32-2.72a4.93 4.93 0 0 0 2.78-2.58c.7-1.5 1.17-3.09.21-4.55-.98-1.48-2.58-.93-4.23-.78-2.45.53-5.19.94-7.71 2.1-.86.4-2.09.68-1.7 2.1l.01-.03Zm5.9-1.89c2.12-.4 4.24-1.2 6.57-.58.47 2.82-.95 4.36-3.42 5.24-2.18.78-4.38 1.52-6.6 2.28-.16-.5-.37-.9-.43-1.31-.6-4.3-.3-4.85 3.89-5.63Zm-125.6 45.09c-2.14.43-4.3.83-6.37 1.52-2.75.91-3.16 1.84-2.41 4.58.23.84.57 1.65.86 2.46.58 1.69 1.8 2.26 3.44 1.76 2.08-.63 4.12-1.4 6.18-2.13 2.29-.8 3.25-2.32 2.64-4.52-.38-3.87-.89-4.32-4.35-3.65l.01-.02Zm1.7 6.41c-1.54.8-3.19 1.42-4.83 1.93-2.74.88-3.1.64-4.04-2.12-.87-2.57-.77-2.79 1.97-3.51 1.83-.47 3.66-.91 5.47-1.38.4 0 .9-.1 1.3-.06.3.05.55.17.71.48.05.1.08.23.12.4.2 1.45 1.28 3.21-.69 4.24l-.01.02Zm113.6-47.81c-3.34.42-6.88.53-9.32 3.43v.06c3.05.07 5.67-2.2 8.8-1.68.51.75.07 1.43-.03 2.08-.62 3.98-2.67 5.55-6.76 5.44-1.16-.05-1.52-.65-1.64-1.58-.14-1.42-.23-2.84-.34-4.26h-.08l.07-.08c-.35.06-.75.08-1.06.24-.32.14-.53.39-.52.85 0 1.28.2 2.59.34 3.88.25 2 1.5 2.82 3.36 2.39 6.55-1.56 7.08.13 8.28-7.13.09-.56.3-1.11.47-1.66.4-1.39-.48-2.1-1.53-1.98h-.04Zm-9.32 3.43-.06.06.06-.06Zm-127.33 43.19c-2.75.43-5.27 1.61-7.76 2.8-.62.3-.3.98-.36 1.5h.06v.06c2.12-.8 4.22-1.74 6.4-2.37 3.09-.87 3.13-.76 4.44 2.65-1.84 1.54-4.25 1.75-6.4 2.5-3.31 1.17-3.56.92-4.42-2.8-.02 0-.06.01-.07.03l-.01-.1c-.39-.14-.95-.4-1.23-.47a.74.74 0 0 0-.17-.04c-1 1.87 1.52 5.99 3.53 5.5 3.25-.77 6.38-1.94 9.54-3.04a2 2 0 0 0 1.1-1.24c.48-2.05-2.56-5.32-4.65-5v.02Z" fill="#fff"/><path d="m407.23 566.43-.05-.01h.05Zm-.05-.03c-.39-.15-.95-.4-1.23-.48.29.1.84.33 1.23.48Z" fill="#fff"/><path d="m407.23 566.43-.05-.01v.09l.04-.04.03-.04h-.02Zm123.65-46.56c-1.9.2-3.92 1.93-6.2 3.21-1.63.92-1.45 1.79-.97 3.17 1.8 5.17 2.7 5.56 7.31 2.98 5.08-2.84 4.97-2.8 3.2-7.96-.53-1.49-1.2-1.8-3.35-1.38l.01-.02Zm-1.23 8.4c-1.22.8-2.51 1.79-3.52-.28-.75-1.56-1.76-3.16.52-4.38l5.17-2.7c.27 1.87 1.44 2.93 2.5 4.21-1.23 1.73-3.15 2.15-4.65 3.15h-.02Zm-141.88 42.03c3.73 1.17 8.08-.1 10.96 3.76-3.1 1.22-5.69 2.22-8.25 3.24-1.47.6-2.2.11-2.37-1.43-.2-1.82-.33-3.66-1.02-5.36l-.83.25c.21 2.13.47 4.26.65 6.37.15 1.77 1.15 2.18 2.7 1.9 3.2-.61 6.05-2.1 8.97-3.38 2.06-.9 2.15-2.04.6-3.66-2.16-2.28-7.8-3.25-11.4-1.7h-.01Zm-44.07 7.37c-.87.19-1.72.4-2.56.64-1.54.4-2.87 1.34-2.86 2.9 0 1.51.7 3.07 2.53 3.5.65-.81.45-1.52.22-2.2-.71-2.06.05-3.04 2.17-3.17.73-.04 1.44-.25 2.17-.35 3.68-.49 4.23-.03 5.22 3.5.57 2.01-.27 2.61-2.03 2.85-2.28.33-4.54.74-6.81 1.1l.04 1.2c3.12-.47 6.24-.87 9.33-1.42 1.43-.26 1.69-1.32 1.38-2.69-1.31-6.08-2.75-7.07-8.79-5.84l-.02-.02Zm166.63-48.64c-1.91.72-2.94 1.8-2.44 3.93.23.84.46 1.67.71 2.5.98 3.08 1.47 3.33 4.24 2.05 1.7-.78 3.31-1.8 5.06-2.49 2.1-.86 2.02-2.12 1.06-3.77-1.83-3.2-4.32-3.8-8.63-2.2v-.02Zm2.03 7.02c-1.38.68-2.15.19-2.45-1.3-.34-1.63-.54-3.23 1.04-4.31 1.62-1.09 4.8-.77 5.98.52.46.5.75 1.18 1.32 2.1-2.3 1.17-4.1 2.1-5.9 3h.01Zm-15.41-.1c-.54.1-1.41.18-2.26.38-1.74.42-3.4 1.08-3.8 3.08-.46 2.29.44 4.3 1.8 6.06.5.63 1.31.73 1.99.31a23.39 23.39 0 0 1 6.03-2.44c.5-.14 1.22-.66 1.26-1.05.17-1.9-.39-3.71-1.18-5.4-.73-1.5-2.2-1.1-3.82-.92l-.02-.02Zm1.82 6.41c-.95.32-1.98.56-2.83 1.07-1.54.95-2.57 1.06-3.24-.97-.72-2.15-.4-3.57 1.38-4.25 1.08-.4 2.24-.56 3.35-.84 2.19-.54 2.2 1.34 2.78 2.53.75 1.52-.23 2.04-1.44 2.45v.01Zm-200.23 38.58c-2.77.06-5.52.33-8.23.96-.65.15-1.46.31-.92 1.45 1.25-.2 2.5-.42 3.77-.59a69.7 69.7 0 0 1 4.35-.45c2.56-.15 4.59.61 5.45 3.3.22.3.47.63.17.94-.3.33-.65.12-.95-.09-5.25-.52-7.56-.74-8.88-.59-.3.03-.55.1-.76.15a4.6 4.6 0 0 0-1.5.95c3.6.48 7.08.36 10.47 1.02 1.17.23 2.65 1.43 3.6-.03.83-1.26-.38-2.46-.94-3.6a5.67 5.67 0 0 0-5.6-3.45l-.03.03Z" fill="#fff"/><path d="M302.17 586.48c-5.26-.52-7.56-.74-8.9-.59 1.34-.13 3.64.07 8.9.6Zm177.43-43a3.07 3.07 0 0 0-1.69-.25c-3.74.3-4.94 2.55-3.19 5.95.55 1.09 1.02 2.25 2.18 2.96 1.72-1.72-.1-3.35.06-4.97.08-.7-1.06-1.54.32-2.11 1.3-.54 1.83.25 2.33 1.23.49.98.77 1.78.8 2.57.02.42-.06.85-.18 1.3-.03.12-.05.23-.1.34-.3.88-.87 1.88-1.75 3.16.27.07.62.27.81.18 3.42-1.86 3.68-8.42.4-10.36Zm7.2-98.83c-2.56 1.56-5.75 3.06-6.73 5.9-.83 2.46 2.4 4.02 3.56 6.15.06.12.19.22.29.32.7.75 1.44.8 2.3.2 2.7-1.97 5.47-3.87 8.15-5.86.67-.5 1.43-1.07 1.31-2.07l-2.74-4.44c-2.11 1.06-4.32-1.27-6.12-.18l-.02-.02Zm3.39 8.06c-.24.17-.5.3-.75.48-3.26 2.25-5.9 1.41-7.92-2.51 1.4-1.2 2.88-2.38 4.28-3.62 1.24-1.13 2.45-1.2 3.96-.41 4.25 2.13 4.38 3.34.41 6.1l.02-.04Zm20.75-15.05c.24-2.16-.45-2.77-2.19-1.06-.75.73-1.6.46-2.42.6-1.87.34-3.6 1.07-5.27 1.96-1.42.75-2.78 1.79-1.64 3.35 1.58 2.19 1.48 5.88 5.22 6.24.26.03.55-.16.82-.26 1.77-.67 3.56-1.25 5.31-1.99 2.49-1.03 2.8-1.81 1.76-4.37-.6-1.45-1.7-2.71-1.57-4.5l-.02.03Zm-.1 5.95c-.07.74-.64.9-1.13 1.13-1.18.54-2.46.95-3.53 1.65-1.9 1.24-2.76.36-3.74-1.25-2.24-3.78-1.87-4.81 2.35-5.96.41-.12.84-.2 1.17-.27 2.04-.18 5.06 2.84 4.86 4.7h.02Zm16.86-13.41c-4.2.85-8.08 2.39-11.38 5.23-.7.6-1.05 1.38-.73 2.34.1.34.39.71.72 1.1 1.33 1.52 4.03 3.08 5.5 2.93.3-.05.58-.14.87-.19 6.02-1.06 5.98-1.05 5.26-6.92-.09-.9-.96-2 .3-2.73.46-.3 1.69.4 1.31-.91-.23-.82-1.14-.97-1.83-.82l-.02-.02Zm-.75 7.9c-.06.65-.42 1.08-1.03 1.21-1.13.25-2.29.46-3.28.65-1.14.36-2.08.37-3.06-.21-2.62-1.54-2.68-2.62-.16-4.27.72-.48 1.46-.98 2.25-1.36 2.02-.92 5.55 1.73 5.32 3.98h-.04Zm-10.64.77Zm-41.21 19.2c-.2-2.38-.88-3.92-2.03-4.6-.14-.1-.33-.12-.5-.2-.21-.06-.4-.15-.63-.19a5.67 5.67 0 0 0-2.37.21c-.48.14-1.01.33-1.56.57a23.7 23.7 0 0 0-4.9 2.84c-1.67 1.24-2.18 2.65-.89 4.49.5.7.95 1.48 1.3 2.27.77 1.69 1.88 1.61 3.15.69a28.77 28.77 0 0 1 6.53-3.49c.29-.1.55-.24.8-.38a2.2 2.2 0 0 0 1.1-2.23v.02Zm-2.92 1.37c-1.8.94-3.62 1.83-5.38 2.84-1.04.58-1.82.7-2.48-.52-.68-1.24-1.96-2.43-.35-3.8a14.71 14.71 0 0 1 5.29-2.92c2.01-.64 4.1.82 4.18 2.78.11 1.07-.64 1.28-1.27 1.6v.02Z" fill="#fff"/><path d="M473.07 453.45c1.17.68 1.83 2.22 2.04 4.6-.21-2.38-.89-3.91-2.04-4.6Zm-1.13-.37c.23.04.44.1.63.2-.2-.07-.4-.16-.63-.2Zm-201.38 39.32c-2.66-.75-5.34-1.42-7.99-2.14-1.56-.4-2.37.36-3.1 1.67-1.84 3.35-1.4 4.94 2.09 6.51.8.36 1.64.6 2.49.77 2.57.5 5.03 1.21 7.37 3 .2-1.88.42-3.41 1.74-4.56.39-.33 1.13-.63.6-1.35-1.03-1.35-1.26-3.38-3.2-3.94v.04Zm.25 5.5c-.53 1.65-1.47 1.4-2.69.9-2.28-.93-4.87-.94-7.02-2.32-.95-.6-1.66-1.26-.93-2.46.56-.95.68-2.33 2.5-2.35 2.39.73 5.11 1.31 7.63 2.4 1.77.75.97 2.4.5 3.82Zm170.94-34.6c-2.04.02-3.92.86-5.87 1.4-1.29.35-1.91 1.26-1.8 2.6.13 1.6.26 3.18 1.1 4.62 1.01 1.72 2.2 2.2 3.92 1 2.02-1.45 4.11-2.75 6.69-2.92 1-.07 1.7-.73 1.53-1.72-.33-1.73-1.34-3.21-2.3-4.66-.9-1.34-2.16.08-3.27-.32Zm-3.04 8.04c-.54.38-1.2.95-1.88.23-1.08-1.16-.94-2.67-1.01-4.07-.06-1.29.97-1.6 1.95-1.92 2.73-.88 3.38-.62 5.45 2.2.2.26.71.28 1.82.66-2.9.87-4.7 1.73-6.34 2.92l.01-.02Zm-29.51 8.13a5.42 5.42 0 0 0-.58-2.86c-.13-.3-.25-.6-.36-.92-.18-.55-.6-.93-1.34-.76-3.1.65-6.33.69-9.29 2-.66.31-1.53.6-1.37 1.45.44 2.3.89 4.71 2.52 6.42 1.27 1.32 2.42-.95 3.9-.77 1.12.12 2.3-.37 3.44-.56.8-.14 1.4-.24 1.86-.38 1.36-.41 1.36-1.1 1.2-3.6l.03-.02Zm-1.42.98c.01 1.54-1.27 1.23-2.19 1.44-1.13.26-2.27.45-3.37.77-2.85.79-3.19.55-3.85-2.14-.34-1.38-.12-2.21 1.31-2.6.56-.15 1.06-.46 1.61-.63.56-.16 1.14-.24 1.53-.32 1.33-.14 2.46-.1 3.52.52 1.15.69 1.4 1.79 1.4 2.98l.04-.02Zm146.08-63.05a14.05 14.05 0 0 0-5.55 2.2c-.72.5-1.41 1.29-.8 2.22 1.22 1.82.94 3.93 1.36 5.9.32 1.43 1.08 2.18 2.44 1.32 2.1-1.34 4.42-2.22 6.65-3.28.95-.44 1.8-1.03 1.97-2.15.35-2.5-3.5-6.5-6.05-6.22h-.02Zm2.32 7.52c-1.8.84-3.64 1.62-5.89 2.63-.29-1.74-.51-2.86-.67-4-.31-2.15.4-3.6 2.63-4.26 2.77-.8 3.59-.57 5 1.76 1.47 2.4 1.4 2.7-1.05 3.85l-.02.02Zm-16.91-.28c-1.66 1.22-3.48 2.12-5.14 3.29-1.2.86-1.57 1.72-1.08 3.33 1.57 5 1.48 5.03 6.5 2.99.66-.27 1.36-.51 2.02-.84 1.5-.76 2.02-2.03 1.7-4.18-.24-.73-.95-1.95-1-3.2-.14-2.57-1.98-2.14-2.98-1.4h-.02Zm1.32 7.48c-1.4.75-2.95 1.2-4.6 1.87l-1.2-2.4c-.56-1.23-.48-2.23.9-2.89.8-.37 1.56-.82 2.28-1.3 1.31-.85 2.35-.94 3.23.66 1.11 2.02 1.1 3.13-.63 4.06h.02Zm-152.25 46.51c-3.75.74-7.73.85-11.8 3.5 2.81-.02 3.39 1.29 3.6 3.23.37 3.13.51 3.11 3.5 2.47 1.87-.4 3.58-1.14 5.25-2.05 1.41-.75 2.1-2 2.4-3.45.5-2.18-.8-4.12-2.97-3.7h.02Zm.88 4.86c-1.75 1.94-4.18 2.62-6.62 2.85-1.42.15-1.01-1.46-1.2-1.83-.44-1.83-.08-2.73 1.4-3.05 1.55-.34 3.07-.85 4.62-1.17.83-.18 1.81-.28 2.23.76.33.85.17 1.8-.42 2.45v-.01Zm35.02-13.42c-2.71.28-5.48-.69-8.16.29-.37.13-.88.53-.88.85-.18 2.59-.78 5.3.79 7.66 1.22 1.84 3.2.73 4.7.8 6.14-.65 7.56-3.54 4.36-8.65-.22-.35-.56-.96-.8-.93l-.01-.02Zm-1.34 7.9c-.84.23-1.71.32-2.47.47-1.4.04-2.93.53-3.58-1-.7-1.6-.94-3.46-.16-5.08.69-1.42 5.44-1.12 6.77.35.48.52.83 1.2 1.13 1.85.97 2.1.65 2.75-1.67 3.39l-.02.02Zm-156.1-138.29c1.22-.05 1.44-1.3 1.84-2.21 2.14-4.78 4.1-9.64 6.96-14.05 1.31-2.03.67-5.2-1.2-6.74-1.92-1.58-4.2-2.22-6.53-1.26-1.88.77-1.52 2.68-1.8 4.4-.63 3.9-1.93 7.6-5.68 9.67 1.49 2.85 2.85 5.54 4.3 8.18.47.86.93 2.06 2.1 2l.02.01Zm-2.21-11.36c2.06-2.45 2.76-5.72 3.46-8.85.28-1.2.06-2.97 1.8-3 1.75-.03 3.49.56 4.4 2.34.28.5.43 1.06.46 1.17a3.68 3.68 0 0 1-.58 2.9c-2.3 3.85-4.68 7.64-6.3 11.82-.34.85-.72 1.7-1.64 1.83-1.13.15-1.33-1.08-1.65-1.71-1.06-2.1-2.04-4.1.01-6.51l.04.01Zm-13.09 35.06c1.08 1.82 2.1 1.85 3.14-.06 2.1-3.82 4.04-7.74 6-11.64.44-.89.8-1.88.66-2.84-.08-1.65-.95-2.8-1.86-3.95-2.42-3.06-3.66-3.02-5.96.23-2.27 3.23-3.7 6.91-5.2 10.52-.3.71-.46 1.41.05 2.06 1.39 1.71 2.08 3.81 3.18 5.68Zm.32-12.3c1.15-1.84 2.12-3.82 3.31-5.65.81-1.24 1.8-1.18 2.83-.04 1.75 1.94 2.32 3.92 1 6.36-1.86 3.46-3.57 6.99-5.68 11.16-2.95-4.15-3.99-7.78-1.46-11.83Zm-10.22 53.22c.55-1.95 1.2-3.9 1.7-5.86.47-1.83 2.8-2.92 2.31-4.99-.49-2.06-2.64-3-3.93-4.56a21.89 21.89 0 0 0-2.07-2.25c-1.17-1.07-2.26-.74-2.69.67-1.08 3.55-2.88 6.97-2.4 10.88.87-.04 1.7-.01 1.68-1.34-.05-2.97 1.03-5.71 1.98-8.79 2.3 1.12 3.45 3.2 5.16 4.62.79.65.84 1.5.19 2.31-1.95 2.5-2.46 5.57-3.46 8.75-2.54-1.45-4.2-3.63-6.12-5.51a2.48 2.48 0 0 1-.52-.26l-.73-.44c-.72-.4-1.54-.7-2.87-.04 3.74 2.05 6.16 5.05 8.95 7.69 1.4 1.3 2.3.84 2.8-.88h.02Zm-7.65-6.1Zm48.51-92.08c.56-.06 1.13-.08 1.68-.12.73-1.82 1.46-3.64 2.29-5.42a33.63 33.63 0 0 1 3.46-6.2c1.29-1.8 1.45-3.4-.49-4.9-.68-.52-1.1-1.34-1.72-1.94-2.05-1.98-3.78-2-5.42.32-1.81 2.56-3.67 5.22-4.8 8.11-1 2.51-1.1 5.43 1.56 7.47 1.15.88 2.28 1.77 3.42 2.66l.02.02Zm-1.76-12.23c.63-1.15 1.3-2.29 2.1-3.34.74-1.02 1.24-2.8 2.72-2.5 1.73.36 2.77 2.04 3.81 3.42.38.51.09 1.17-.27 1.61-2.66 3.16-3.79 7.18-5.85 11.07-5.02-4.28-5.24-5.3-2.5-10.26h-.01Z" fill="#fff"/><path d="M284.13 306c.74-1.82 1.47-3.64 2.3-5.42-.81 1.78-1.56 3.6-2.3 5.42Zm4.69-35.19s.22.15.35.2c2.16-3.62 3.97-7.48 6.8-10.83 4.1 5.6 4.14 6.21.84 11.48-.94 1.52-2 2.97-2.9 4.28-2.23-.6-1.83-3.79-4.4-3.45.08 1.35.84 2.43 1.54 3.52 1.6 2.45 2.9 2.53 4.56.17a49.5 49.5 0 0 0 5.34-9.38l-.03-.23h.26c.58-2.44-.96-3.94-2.23-5.57a7.92 7.92 0 0 1-1.08-1.71c-.98-2.22-2.46-2.27-3.74-.26-2.03 3.15-4.08 6.29-5.4 9.83-.16.42-.34.84-.34 1.2.01.26.1.51.37.72 0 0 .02.04.04.04h.02Zm0 0Zm24.74-31.64c-.45-3.16-2.23-5.95-2.6-9.13-.06-.71-.27-1.48-1.15-1.63-.85-.15-1.35.49-1.75 1.05-2.36 3.33-4.08 7.02-5.85 10.68-.44.93-.1 1.6.64 2.27 1.66 1.53 3.27 3.7 5.42 3.9 2.06.2 2.07-2.78 3.33-4.09.1-.1.22-.17.34-.25a6.03 6.03 0 0 1 1.63-2.8Zm-2.2.47c-.94 1.62-1.92 3.23-3.05 5.1-3.36-2.47-4.17-5.35-2.44-8.64.93-1.75 1.69-3.63 3.53-5.57.9 2.61 1.1 5.07 2.39 7.11.44.69-.1 1.39-.46 2h.02Zm11.94-39.79c1.7 1.35 2.53 1.3 3.3-.63a78.08 78.08 0 0 0 2.74-8.21c.4-1.38-3.58-6.56-5.08-6.67-.43-.03-.91.63-1.37.95-.96 3.05-1.91 6.09-2.87 9.1a8.74 8.74 0 0 0 3.27 5.47h.01Zm1.06-12.98c3.84 3.08 3.88 3.1 2.43 7.36-.55 1.6-.66 3.42-2.02 4.68-3.84-4.02-3.88-5.47-.41-12.04Zm-95.93-142.69c-1.72.23-3.96 1.4-5.06.7-2.97-1.88-3.2.87-4.54 1.96-1.7 1.39.67 2.08.44 3.4-.32 1.85-1.82 4.28.05 5.69 1.62 1.23 3.94-.2 5.95-.14.15 0 .3-.03.85-.08 1.73-.38 4.29.7 6.02-.57 2.15-1.56.72-4.36 1-6.6.56-4.43-.16-5-4.73-4.36h.02Zm3.38 2.85c-.1 1.88-.23 3.77-.33 5.66-.05.92-.66 1.25-1.45 1.29-3.16.18-6.33.32-9.44.48-.12-.3-.23-.46-.2-.59.35-2.22-.53-5.02 1.7-6.43 2.49-1.58 5.56-1.55 8.46-1.77.9-.08 1.3.49 1.26 1.34v.02Zm-81.94 11.56c-5.6-.1-10.86 1.49-15.9 3.81l-.26.17c-.17.15-.3.33-.44.51l-.22.26c.3.17.66.27.98.4.33.13.63.32.78.73.3.35.5.74.67 1.12.5 1.18.55 2.48.71 3.75.13.87.18 1.73 1.17 2.07.84-.08 1.7-.14 2.54-.2 1.26-.47 2.54-.69 3.85-.82 1.31-.14 2.63-.2 3.92-.32 4.96-.47 5.98-1.4 6.55-6.26.38-3.26-.97-5.1-4.34-5.18v-.04Zm-.29 9.65c-1.72.3-3.47.4-5.2.57-1.17.12-2.37.06-3.45.4-1.95.6-2.9 0-3.53-1.9-1.37-4.02-1.14-4.76 2.94-5.77a39.6 39.6 0 0 1 8.61-1.33c1.82-.04 3.6.05 3.83 2.5.22 2.5-1.25 5.2-3.18 5.55l-.02-.02Zm-16.55-4.92s.15-.16.22-.26l-.22.26Zm-90.99 47.04c2.54-1.4 5.08-2.82 7.8-3.82.9-.33 1.83-.61 2.8-.82.1-.23.29-.4.54-.48l.06-1.74c.08-1.73.15-3.47.07-5.19-.14-2.56-1.37-3.32-3.77-2.3a66.9 66.9 0 0 0-9.9 5.36c-2.68 1.75-4.9 7.54-4.05 10.65.07.25.4.42.7.59l.3.19c2.08-.23 3.71-1.47 5.45-2.44Zm.03-8.8c3-1.46 5.74-3.45 9.15-4.6.92 1.6.56 2.94.68 4.24.18 2.15-.57 3.27-2.84 4.11-3.79 1.4-7.32 3.54-11.38 5.57-.02-4.11.58-7.43 4.4-9.3v-.01Z" fill="#fff"/><path d="m53.17 105.22.06-1.73c-.03.57-.04 1.16-.06 1.73Zm-3.34 1.32Zm75.81-37.49c-1.4-1.64-3.12-2.78-5.36-2.2-2.52.64-4.98 1.58-7.47 2.39-.98.32-1.2.78-.9 1.93.77 3.08.7 6.14-2.28 8.86 2.23-.18 3.68-.18 5.22-.93a23.05 23.05 0 0 1 8.41-2.11c.5-.83 1.34-.75 2.13-.77 1.48-.62 2.43-1.03 2.9-1.46.32-.3.42-.6.36-1-.1-.6-.62-1.37-1.45-2.62-.48-.73-1-1.45-1.56-2.1v.01Zm-10.82 8.15c-1.17-.86-.95-1.97-1.05-2.93-.34-3.63-.33-3.74 3.28-4.4 1.53-.29 2.54-1.88 4.4-1.38 2.76.78 4.26 2.63 5.4 5.3-4.06 1.68-8.18 2.33-12.05 3.39l.02.02Z" fill="#fff"/><path d="M128.67 73.76c.08.4-.04.7-.36 1 .32-.3.42-.6.36-1Z" fill="#fff"/><path d="M125.4 76.21c1.49-.6 2.44-1.02 2.91-1.45-.47.43-1.4.82-2.9 1.45Zm-26.78-.84c-3.05.23-6.13.49-9.13 1.02-4.9.87-5.3 1.54-4.7 7.25.02.16.09 1.2.39 2.17.32 1.09 1.1 1.78 2.32 1.43 4.2-1.17 8.44-2.29 12.59-3.67 2.17-.72 2.27-1.85 1.81-5.6-.26-2.14-1.5-2.74-3.27-2.62l-.01.02Zm-2.08 7.74c-3.12.69-6.2 1.58-9.07 2.6-.66-.13-.76-.56-.82-.97-1-6.37-1.01-6.45 5.54-7.16 2.56-.26 5.15-1.05 7.72-.32.08.25.17.37.19.52.44 4.3.46 4.46-3.54 5.33h-.02Zm166.01-43.74c-1.7-.3-3.47-.25-5.19-.37-1.64.17-3.28.32-4.92.47-.94.36-1.85.73-2.83 1.1 1.3 2.35 1.14 4.78 1.1 7.21-.08 4.98.02 5.02 4.74 4.26.72-.11 1.44-.32 2.15-.34 4.12-.05 7.46-.97 7.26-6.15-.02-.53.38-1.09.55-1.64.8-2.93.21-4-2.86-4.52v-.02Zm1.35 4.4c-.83 3.64-3.18 5.77-7.03 6.37l-2.56.45c-1.32.25-1.9-.4-1.94-1.62-.08-2.58-.14-5.15-.23-7.77 3.14-.82 6.3-.82 9.49-.43 2.51.31 2.8.74 2.27 3Zm-83.27 13.32a18.45 18.45 0 0 0-4.64-2.4c-2.37-.85-4.86-.94-7.28-1.37-1.6.26-3.22.5-4.83.75.22 1.8.26 3.62.36 5.43l.08 1.35a27.72 27.72 0 0 0 .57 4.04l4.33-.28 5.13-1.06c1.7-.36 3.42-.72 5.13-1.1 1.38-.3 3.13-.5 3.33-2.31.16-1.45-1.12-2.3-2.18-3.05Zm-13.27 6.28c-1.13.32-1.62-.4-1.62-1.41-.01-1.75.03-3.48.14-5.22.08-1.24.94-1.76 2.1-1.77 4.9 0 9.42 1.04 13.65 5-5.08 2.07-9.8 2.11-14.25 3.4h-.02Zm38.48-17.47-5.66.8c-1 .18-1.98.38-2.98.57-.99.2-1.98.37-2.98.5-2.14.32-3.8 1.85-3.88 3.56-.15 3-.75 6.42 2.02 8.89 2.56-1.24 5.32-1.36 8.05-1.44a31.9 31.9 0 0 0 5.17-.53 13.67 13.67 0 0 0 1.5-4.83l.19-1.69c.1-1.33.14-2.7.24-4.03.08-1.04-.88-1.42-1.67-1.82v.02Zm-.5 8.16c-.05 2.43-1.07 3.39-3.4 3.37-2.62 0-5.24.08-7.83.7-.37.1-1.06.09-1.2-.14-1.3-1.9-.91-4.15-1.08-6.27-.12-1.51 1.03-1.98 2.22-2.2 3.85-.67 7.6-1.9 12.16-1.82-.35 2.35-.84 4.35-.87 6.36Zm.25 4.21Zm-133.09 29.16c-2.9.81-5.69 2.19-8.63 2.93-3.33.84-4.05 3.12-4.16 6.04-.12 2.77.36 3.09 3.25 2.2 1.1-.33 2.24-.52 3.38-.77.5-.75 1.3-.76 2.09-.75l3.11-.67c.77-.9 1.92-.8 2.94-1.08.31-.4.54-.82.72-1.26.49-1.32.43-2.77.47-4.15.09-2.53-.7-3.2-3.15-2.53l-.01.04Zm-2.45 7.52c-2.67.71-5.32 1.54-7.99 2.31-.9-3.5-.9-3.51 1.8-5.04 3.04-1.71 6.37-2.64 9.73-3.54.72 5.16.72 5.13-3.54 6.27Zm215.41-57.08-4.95.51a21 21 0 0 1-3.32.67l-.13.02c-1.14.15-2.27.25-3.4.46-1 .17-3.06.48-2.25 2.16.82 1.65.45 3.06.31 4.6-.21 2.91.4 3.57 3.48 3.41 1.89-.08 3.75-.35 5.65-.54 4.4-.43 6.46-2.81 6.16-7.15-.1-1.51.35-3.3-1.55-4.16v.02Zm.54 7.17c.06 1.56-.38 2.1-1.8 2.21-1.44.1-2.88.3-4.33.45-1 .08-2.03.33-3.03.25-1.2-.1-3.02 1.35-3.47-1.02-.52-2.78.73-5.42 2.68-5.97a70.7 70.7 0 0 1 3.37-.85c6.06-1.34 6.3-1.07 6.58 4.95v-.02Zm20.17.48c-3.81-2.53-8.03-4.36-12.96-5.93a9.66 9.66 0 0 1 2.05 5.9c.01.88.05 1.74.08 2.62.12 2.58 1.5 3.9 4.14 3.93 2.59-.27 5.17-.55 7.75-.84.65-.86.93-1.7.9-2.48-.02-1.3-.82-2.44-1.98-3.22l.02.02Zm.03 3.14c-.13 1.41-1.42 1.25-2.35 1.34-2.27.24-4.58.68-7.07-.08l.21-7.41c2.8 1.33 5.3 2.47 7.72 3.67.95.47 1.6 1.36 1.48 2.46v.02Zm1.03 2.56Zm30.39 321.45c.91-6.15.87-6.01-5.04-7.85-2.24-.7-3.28-.05-4.04 1.87-1.34 3.4-1.99 6.92-2.34 11.19 1.99-1.81 3.57-1.3 5.09.06.42.38.96.65 1.49.9 2.08.97 2.9.69 3.66-1.41.4-1.13.06-2.58 1.5-3.2-.44-.44-.4-.98-.32-1.56Zm-.99-2.44c-.68 2.52-1.28 5.06-1.9 7.56-1.49-.16-2.41-.91-3.38-1.55-3.45-2.22-3.5-2.42-2.37-6.4 1.16-4.07 1.34-4.07 5.43-2.96 1.95.51 2.77 1.33 2.22 3.35Zm1.34 4.02.03-.06-.03.06Zm-.02-.01.02.03.03-.06c-.02 0-.03.02-.05.03Zm.07-.04-.03.05.05-.06h-.02Zm-31.64 89.66c-1.85.02-1.73 1.8-1.94 2.96-.57 3.15-.96 6.33-1.4 9.52-.12.86-.28 1.76-.2 2.61.23 2.17 2.08 2.68 3.67 3.29 1 .37 1.66-.5 1.86-1.4 1-3.96 2.11-7.9 2.3-11.98-.12-.74-.16-1.5-.34-2.2-.55-1.96-2.06-2.83-3.97-2.8h.02Zm2.53 7.74c-.54 2.94-.97 5.95-2.17 8.94-1.98-.51-2.42-1.54-2.31-3.02.27-3.45.72-6.88 1.47-10.27.16-.67.26-1.46 1.2-1.54 1.14-.08 1.57.73 1.68 1.6.15 1.42.38 2.92.13 4.3v-.01Zm14.72-83.05c-.74 1.73-1.5 3.48-2 5.3-.47 1.8-2.01 3.8-1.14 5.3.67 1.17 2.98 1.39 4.55 2.02 2.59 1.04 2.98.89 3.85-1.58.62-1.77 1.06-3.62 1.7-5.4.46-1.3.97-2.6-.3-3.59-1.56-1.25-3.05-2.68-4.83-3.34a2.03 2.03 0 0 0-1.83 1.3Zm4.6 2.28c1.24.7 1.39 1.76.98 3l-2.1 6.02c-.46.05-.77.2-1 .1-4.65-2.05-4.35-1.13-2.89-6.2.46-1.64.84-3.35 1.99-4.68 1.39.11 2.05 1.2 3.03 1.76Zm22.03-69.83c-2.26.4-5.2 3.34-5.6 5.57-.15.77-.11 1.49.44 2.02 1.76 1.71 3.55 3.4 5.4 5.03.79.71 1.7.52 2.14-.44 1.04-2.37 2.12-4.74 2.5-7 .06-3.14-2.44-5.62-4.86-5.19h-.02Zm3.28 5.37c-.62 1.89-1.3 3.76-2.08 6.08-1.62-1.43-2.93-2.5-4.13-3.69-1.23-1.2-1.15-2.55-.2-3.9 1.15-1.64 3.59-2.78 4.86-2.1 1.4.76 2.08 2 1.55 3.63v-.02Z" fill="#fff"/></svg>