<svg width="271" height="78" viewBox="0 0 271 78" fill="none" xmlns="http://www.w3.org/2000/svg">
<path d="M233.758 33.5818C182.161 19.1347 128.388 14.9947 74.9381 16.1305C60.7198 16.4326 44.4696 16.92 30.2679 19.3538C21.6321 20.8337 13.222 22.4332 6.59797 28.6004C-16.652 50.2469 55.5519 61.0671 61.1333 61.8425C104.345 67.8461 149.002 67.3258 192.214 61.6472C203.676 60.1409 223.499 56.428 235.126 53.2471C245.025 50.5386 260.694 46.5566 267.065 37.2284C281.373 16.2815 195.186 9.5957 190.39 9.03276C171.809 6.85174 135.327 3.73306 116.483 2.91177C92.9967 1.8882 66.0184 0.0270796 43.4867 8.77229C33.8969 12.4943 15.1921 25.5018 19.7516 38.6609C22.3381 46.1257 30.2283 49.7333 36.6168 52.7587C55.0632 61.4942 76.047 66.4423 95.9708 70.3077C126.586 76.2473 157.485 78.017 188.307 72.4566C197.459 70.8054 211.035 67.044 220.084 63.6007C225.03 61.7184 232.546 58.8351 235.223 53.6052C237.29 49.568 234.723 45.5808 232.13 42.5354C221.705 30.2916 201.176 27.0783 186.483 23.8794C158.802 17.8526 130.176 16.0003 101.896 16.0003" stroke="#FF7426" stroke-width="3" stroke-linecap="round"/>
</svg>
