<svg viewBox="0 0 673 184" fill="none" xmlns="http://www.w3.org/2000/svg"><path d="M638.17 66.5c-37.56-18.74-82.4-21.03-122.36-25.06-49.08-4.95-98.2-10.63-147.38-13.57-44.62-2.67-89.09-1.32-133.7-.75-62.28.79-127.43-3.89-187.73 16.64-20.3 6.9-50.68 22.78-43.95 54.46 3.84 18.06 21.9 29.22 34.85 36.6 29.13 16.6 61.35 21 93.09 24.79 109.05 13 219.93 11.91 329.28 10.44 62.33-.84 132.45 4.26 185.52-39.56 10.49-8.66 24.66-22.83 25.21-39.59.8-24.52-40.47-33.2-53.77-37.27-39.2-11.98-79.46-18.64-119.47-25.35-34.5-5.78-68.98-12.39-103.57-17.26-59.3-8.36-123.38-14.4-182.52-3.11-41.56 7.92-83.45 24.74-122.88 41.54-18.11 7.71-43.58 14.35-56.33 32.8-8.69 12.57-5.16 29.56 1.28 42.75 23.15 47.4 84.58 46.43 123.9 49.28 108.31 7.84 217.82 12.62 325.57-2.95 36.8-5.31 72.92-15.36 107.2-31.52 20.34-9.6 40.76-21.43 62.71-25.18" stroke="#A0BCDA" stroke-width="3" stroke-linecap="round"/></svg>