<svg viewBox="0 0 291 95" fill="none" xmlns="http://www.w3.org/2000/svg"><path d="M239.38 18.2c-38.2-.54-76.28-4.38-114.45-5.69-15.91-.54-33.46-1.87-49.24 1.25-8 1.59-17.39 5.53-24.51 8.75-15.42 6.98-33.69 14.5-46.22 26.32-5.03 4.74-3.42 10.67 1.56 14.52 3.17 2.45 6 3.38 9.9 4.51 9.7 2.82 19.84 4.38 29.76 6.18 32.1 5.85 64.52 10.51 97.26 8.86 21.25-1.08 42.5-3.58 63.61-6.22 16.24-2.03 32.66-4.2 48.65-7.78 6.03-1.34 15.22-2.54 20-7.01 6.66-6.22 1.53-16.4-3.44-21.63-9.56-10.08-23.57-13.94-36.7-16.77-26-5.62-52.91-6.7-79.38-8.4-34.33-2.23-68.9-6.2-103.2-1.7-10.03 1.3-21.4 2.9-29.3 9.89-4.86 4.3-9.69 12.17-7.68 18.96 2.55 8.6 13.03 13.56 20.32 17.22 10.34 5.2 20.67 10.77 31.18 15.62 37.83 17.46 80.8 18.25 121.77 17.23 19.7-.5 38.96-2.61 57.78-8.68 13.34-4.3 28.01-10.48 37.54-21.25 17.09-19.33-16.48-31.55-29.93-35.7-44.57-13.76-92.28-21.27-138.76-24.03-12.15-.72-24.6-1.29-36.73 0-15.4 1.64-30.81 4.57-45.98 7.6-6.29 1.26-12.5 3.15-18.82 4.2" stroke="#fff" stroke-width="3" stroke-linecap="round"/></svg>