<svg viewBox="0 0 271 78" fill="none" xmlns="http://www.w3.org/2000/svg"><path d="M233.76 33.57c-51.6-14.45-105.37-18.59-158.82-17.45-14.22.3-30.47.79-44.67 3.22-8.64 1.48-17.05 3.08-23.67 9.25-23.25 21.65 48.95 32.47 54.53 33.24 43.21 6 87.87 5.49 131.08-.2 11.47-1.5 31.29-5.21 42.92-8.4 9.9-2.7 25.56-6.68 31.94-16.01 14.3-20.95-71.88-27.63-76.68-28.2-18.58-2.18-55.06-5.3-73.9-6.12-23.5-1.02-50.47-2.88-73 5.86-9.6 3.72-28.3 16.73-23.74 29.9 2.59 7.46 10.48 11.06 16.87 14.09 18.44 8.73 39.43 13.68 59.35 17.55 30.62 5.94 61.52 7.7 92.34 2.15a207.12 207.12 0 0 0 31.77-8.86c4.95-1.88 12.47-4.76 15.14-10 2.07-4.03-.5-8.02-3.09-11.06-10.42-12.25-30.95-15.46-45.65-18.66-27.68-6.03-56.3-7.88-84.58-7.88" stroke="#fff" stroke-width="3" stroke-linecap="round"/></svg>