<svg viewBox="0 0 537 491" fill="none" xmlns="http://www.w3.org/2000/svg"><path d="M13.14 49.23c-7.69 75.98-12.21 152.93-11.13 229.35.4 28.36 3.31 53.62 12.23 81 15.27 46.93 32.99 109.85 91.04 114.78 4.95.41 63.53-3.63 68.8-4.02 14.91-1.1 33.2-2.74 48.34-4.38 31.98-3.46 63.97-7.54 95.8-12.22 58.64-8.63 116.3-20.1 175.24-26.73 9.18-1.04 23.22-.23 31.84-4.38 3.86-1.86 1.72-15.58 1.64-17.88-.82-23.25-2.55-46.42-2.92-69.7-.58-37.3.44-74.5-6.2-111.4-6.5-36.11-16.8-70.44-20.62-107.1-2.09-20.06-3.95-40.16-6.2-60.2-1.82-16.2-2.94-38.05-12.95-51.91-4.67-6.46-25.37.86-29.38 1.82-45.29 10.84-88.9 23.64-135.48 28.65-63.09 6.78-126.68 6.36-189.75 13.77-33.9 3.99-68.15 8.72-97.7 26.82-6.24 3.82-15.36 5.63-18.07 12.41-8.53 21.36-1.57 80.28-.73 89.77 4.74 53.78 17.74 155.67 25.73 208.91.97 6.52 9.89 71.4 18.97 91.05 3.5 7.56 23.08 12.5 30.29 10.58 16-4.27 12.92-26.71 15.7-38.77 9.78-42.59 78.86-44.78 111.56-46.07 83.54-3.3 166.8-8.2 250.24-13.87 22.76-1.55 69.94 1.22 73.53-29.56 2.22-18.94.78-39.08-.36-58.02-2.37-39.43-5.33-79.53-13.05-118.32-4.23-21.28-9.96-42.3-14.6-63.5-4-18.33-8.6-36.28-16.78-53.27-19.36-40.26-58.22-53.48-100.62-48.08-35.45 4.51-70.62 11.5-106.01 16.51-42.6 6.03-85.34 11.15-127.81 18.06-52.92 8.62-111.01 24.58-138.03 76-16.66 31.7-2.23 59.7 2.55 92.14 5.11 34.66 3.58 69.83 3.83 104.73.15 19.94-1.74 43.8 6.03 62.86 8.64 21.22 25.4 39.67 42.42 54.55 32.67 28.6 83.43 28.68 124.52 29.28 34.57.51 67.66-4.67 102-7.47 49.83-4.08 98.35 1.07 145.5-18.7 22.17-9.3 41.84-23.6 62.13-35.86 8.14-4.92 10.92-15.42 14.96-23.36 5.5-10.8 9.14-19.09 11.5-31.2 4.22-21.68 4.2-43.7 4.2-65.68" stroke="#fff" stroke-width="3" stroke-linecap="round"/></svg>