<svg xmlns="http://www.w3.org/2000/svg" viewBox="0 0 618.5 200" style="enable-background:new 0 0 618.5 200" xml:space="preserve"><path d="m187 0-.4.4-22 3c-2 6-4.6 19.2-29.4 31.8v25.8l11.4 1.8s8-2.8 14.2-8v71.4l26.4 2v-.6l7-5v-115.2l-7.2-7.4zm-78.6 29.2h-.4l-36.4-7-.2.6-.2-.6-15.6 8-55.6 161 10.4 8.8 43.6-4.6 10.4-36.2 38.2-1.8 7.6 26 13.2 4.8 31.2-3.4-46.2-155.6zm-32.2 98.6-1.2 1.8 1.2-1.8h-4.2l12.2-40.4 11 40.4h-19zm266.2-14.2v28.5c-3.6 2.6-7.4 4.6-11.4 5.8-4 1.2-8.4 1.8-13 1.8-5.8 0-11-.9-15.6-2.7-4.7-1.8-8.7-4.3-12-7.5-3.3-3.2-5.8-7-7.6-11.4s-2.7-9.3-2.7-14.5c0-5.3.9-10.2 2.6-14.6 1.7-4.4 4.2-8.2 7.3-11.4 3.2-3.2 7-5.7 11.5-7.4 4.5-1.8 9.6-2.6 15.2-2.6 2.9 0 5.5.2 8 .7 2.5.5 4.8 1.1 6.9 1.9 2.1.8 4.1 1.8 5.8 2.9 1.8 1.1 3.4 2.4 4.8 3.8l-3.8 6c-.6.9-1.3 1.5-2.3 1.7-.9.2-2 0-3.1-.7-1.1-.6-2.1-1.2-3.2-1.9s-2.3-1.2-3.6-1.6c-1.3-.5-2.8-.8-4.4-1.1-1.6-.3-3.5-.4-5.7-.4-3.5 0-6.6.6-9.4 1.8s-5.2 2.8-7.2 5-3.5 4.8-4.6 7.9c-1.1 3.1-1.6 6.5-1.6 10.2 0 4 .6 7.6 1.7 10.8 1.2 3.2 2.8 5.9 4.9 8.1 2.1 2.2 4.6 3.9 7.6 5 3 1.2 6.3 1.7 9.9 1.7 2.6 0 4.9-.3 7-.8 2-.6 4-1.3 6-2.2v-12.8h-8.9c-.8 0-1.5-.2-2-.7-.5-.5-.7-1-.7-1.7v-7.4h23.6zm67.8 35.3h-11.9c-2.2 0-3.9-.9-4.9-2.6l-14.8-22.6c-.6-.8-1.2-1.4-1.8-1.8-.7-.4-1.7-.5-3-.5h-5.6v27.6h-13.1v-70.6h21.5c4.8 0 8.9.5 12.3 1.5 3.4 1 6.2 2.4 8.4 4.2 2.2 1.8 3.8 3.9 4.9 6.4 1 2.5 1.6 5.2 1.6 8.2 0 2.4-.4 4.6-1 6.7-.7 2.1-1.7 4-3 5.8-1.3 1.7-2.9 3.2-4.9 4.5-1.9 1.3-4.1 2.3-6.6 3.1.8.5 1.6 1.1 2.3 1.7.7.7 1.4 1.5 2 2.4l17.6 26zm-33.8-36.9c2.5 0 4.6-.3 6.5-.9 1.8-.6 3.4-1.5 4.5-2.6 1.2-1.1 2.1-2.4 2.7-3.9.6-1.5.9-3.1.9-4.9 0-3.6-1.2-6.3-3.5-8.2-2.4-1.9-6-2.9-10.8-2.9h-8.4v23.4h8.1zm107.8 1.7c0 5.2-.9 10-2.6 14.4-1.7 4.4-4.1 8.2-7.2 11.4-3.1 3.2-6.9 5.7-11.3 7.5-4.4 1.8-9.3 2.7-14.6 2.7-5.3 0-10.2-.9-14.6-2.7a32.87 32.87 0 0 1-18.6-18.9c-1.7-4.4-2.6-9.2-2.6-14.4s.9-10 2.6-14.4a32.87 32.87 0 0 1 18.6-18.9c4.4-1.8 9.3-2.7 14.6-2.7 3.6 0 6.9.4 10.1 1.2 3.2.8 6 2 8.7 3.5s5 3.4 7.1 5.5 3.9 4.6 5.3 7.2c1.5 2.7 2.6 5.6 3.3 8.7.8 3.1 1.2 6.4 1.2 9.9zm-13.5 0c0-3.9-.5-7.3-1.6-10.4-1-3.1-2.5-5.7-4.4-7.8-1.9-2.1-4.3-3.8-7-4.9s-5.8-1.7-9.3-1.7-6.5.6-9.3 1.7-5.1 2.8-7 4.9c-1.9 2.1-3.4 4.8-4.5 7.8-1 3.1-1.6 6.5-1.6 10.4s.5 7.3 1.6 10.4 2.5 5.7 4.5 7.8c1.9 2.1 4.3 3.8 7 4.9s5.8 1.7 9.3 1.7 6.5-.6 9.3-1.7 5.1-2.8 7-4.9c1.9-2.1 3.4-4.7 4.4-7.8 1.1-3.1 1.6-6.6 1.6-10.4zm53.4 24.7c2.5 0 4.8-.4 6.8-1.3 2-.8 3.7-2 5-3.6s2.4-3.4 3.1-5.6c.7-2.2 1.1-4.6 1.1-7.3v-42.2h13.1v42.3c0 4.2-.7 8.1-2 11.6-1.3 3.6-3.3 6.6-5.8 9.2-2.5 2.6-5.6 4.6-9.2 6.1-3.6 1.4-7.7 2.2-12.2 2.2-4.6 0-8.6-.7-12.2-2.2s-6.7-3.5-9.2-6.1c-2.5-2.6-4.5-5.7-5.8-9.2-1.3-3.6-2-7.4-2-11.6v-42.3h13.2v42.2c0 2.7.4 5.1 1.1 7.3.7 2.2 1.8 4 3.2 5.6 1.4 1.5 3.1 2.7 5.1 3.6 1.9.8 4.2 1.3 6.7 1.3zm67-60c4.7 0 8.8.6 12.2 1.7 3.4 1.1 6.3 2.7 8.5 4.6 2.2 2 3.9 4.4 5 7.1 1.1 2.8 1.6 5.8 1.6 9.1 0 3.4-.6 6.5-1.7 9.4a18.6 18.6 0 0 1-5.1 7.3c-2.3 2-5.1 3.6-8.6 4.8-3.4 1.1-7.4 1.7-12 1.7h-9.8v24.8h-13.1v-70.5h23zm0 35.5c2.4 0 4.5-.3 6.3-.9s3.3-1.5 4.5-2.6c1.2-1.1 2.1-2.5 2.7-4.1.6-1.6.9-3.4.9-5.4 0-1.9-.3-3.6-.9-5.1-.6-1.5-1.5-2.8-2.6-3.9s-2.7-1.9-4.4-2.5-3.9-.9-6.3-.9h-9.8v25.3h9.6z" style="fill:#fff"/></svg>