<svg version="1.1" id="Слой_1" xmlns="http://www.w3.org/2000/svg" x="0" y="0" viewBox="0 0 465.1 200" style="enable-background:new 0 0 465.1 200" xml:space="preserve"><style>.st0{fill:#fff}</style><path class="st0" d="M0 65.2c6.2-7.4 12.4-14.8 18.7-22.2.3-.3 1-.5 1.3-.4 14.3 5.4 28.4 4.1 42.4-1.1 12-4.5 22.7-11.2 32.9-18.7 8.9-6.6 17.2-13.8 25.2-21.5.7-.7 1.4-1 2.4-.8a91 91 0 0 0 29-.4c.4-.1.7 0 1.1 0-14.6 7.7-29.1 15.6-43.8 23-24.9 12.4-50.3 23.7-76.6 32.7-9.1 3.1-18.4 5.7-27.6 8.5-1.1.3-2.1.8-3.2 1.1-.6.1-1.2.1-1.8.1v-.3zm53.6-18.8c-.6-.8-1.4-.5-2.1-.4-3.4.4-6.7 1-10.1 1.1-3.8.1-7.6 0-11.3-.5-3-.4-6-1.3-8.9-2.2-1.6-.5-2-.5-3.1.9-3 3.8-6 7.6-9 11.3-1.5 1.9-3 3.8-4.5 5.6 2 1.3 46.5-13.2 49-15.8zm17.5 128.8c18.1 10.1 37.4 14.7 57.5 17.4-.2 0-.4.1-.6.1h-.7c-16.4.2-32.5 2.3-48.2 7.1-.7.2-1.5.1-2.2 0-16.4-3.4-28.5-12.8-36.8-27.3-5.6-9.8-9.1-20.4-11.8-31.3-3.1-12.8-5.1-25.7-7-38.7 0-.2 0-.4.2-.7.2.4.3.7.5 1.1 1.3 3.3 2.6 6.6 4.1 9.8.6 1.2 1.7 2.2 2.5 3.3.3.4.5 1 .6 1.5 2.4 10.5 6.2 20.4 12 29.5 5.1 7.9 11.4 14.7 18.8 20.5a3 3 0 0 0 1.8.6c3.6 0 7.1-.1 10.6-1.2 5.9-1.8 9.4-6.2 9.9-12.4.5-5.7-.9-11.1-2.6-16.5-3.1-9.3-7.5-17.9-12.1-26.5-9-16.5-19.1-32.3-29.1-48.1-.3-.4-.5-.9-.9-1.5h1.1c16.9.6 33.7 1.2 50.6 1.9.6 0 1.3.2 1.7.6 17.7 14.6 34.1 30.4 48.3 48.5 4.3 5.6 8.3 11.3 11.6 17.6 2.4 4.7 3.1 9.7 2.3 15-.2 1-.6 2 1 2.3 1.3.2 2-.3 2.4-1.8 1.1-4.9 2.3-9.8 3.3-14.7.2-1 .6-1.3 1.6-1.3h23.7c-.5 2-.9 3.9-1.3 5.7-1.6 7-3.3 14-4.9 21-.2.9-.5 1.2-1.5 1.2-3.4-.1-6.9 0-10.5 0 1.4-6.1 2.8-12.1 4.1-18-1.2-.2-1.9.2-2.1 1.2l-1.5 6.7c-.7 3.2-2.3 5.8-4.8 7.8a9.98 9.98 0 0 1-6.2 2.2h-3.5c-2.5 0-3.1-.7-3-3.3-.4.6-.7 1-.9 1.4-2.3 3.3-5.2 5.3-9.2 6-22.5 4.2-45 8.5-67.5 12.7-.5.3-.8.4-1.3.6zm19.3-18.2c2.4 0 4.5.1 6.5 0 4.4-.1 8.7-.2 13-.5 4.3-.4 7.4-3 9.9-6.2 1.8-2.4 2.3-5.4 2.3-8.4.1-2.7-1.2-4.7-3.3-6.1-2.3-1.7-5-2.3-7.8-2.3h-5.4c.2-1.1.5-2.1.7-3h16c.9 0 1.3-.3 1.5-1.1.3-1.7.7-3.4 1.1-5.2.2-.8.4-1.6.5-2.5h-26.8c-2.7 11.8-5.4 23.5-8.2 35.3zm43.4-10.5h16.5c.6 0 1.2-.1 1.2-.8.2-2 .5-4 .5-5.9-.1-2.1-.7-4-2.1-5.6-2.9-3.4-6.9-3.7-10.7-3.1-6.4 1-11 4.6-13.5 10.8-1.9 4.8-1.1 9.4 2.3 12.5 3.5 3.1 7.6 3.7 12 2.5 3-.9 5.5-2.5 7.7-4.6 1.2-1.1 2-2.6 3-3.9-.1-.1-.2-.2-.2-.3h-8.4c-.2 0-.3.2-.5.3-1 .6-1.8 1.3-2.9 1.6-2.3.7-4.7-1-4.9-3.5zm49.5-14.7h-22.3c-.2.8-.4 1.6-.5 2.3-.9 4-2 8-2.7 12.1-.5 3-2.5 3.5-4.9 2.9-.1.3-.3.6-.3.9-.4 1.8-.6 3.7-1.1 5.4-.3 1.1.3 1.4.9 1.4 2.2 0 4.4.1 6.4-.5 4.7-1.4 6.7-5.2 7.6-9.8.6-2.7 1.2-5.3 1.8-7.9h4.6c-1.3 5.8-2.6 11.5-4 17.2-.2 1 .1 1.1.8 1.1 2.2 0 4.3-.1 6.5 0 1.1.1 1.5-.5 1.7-1.4.5-2.4 1-4.7 1.6-7.1 1.2-5.5 2.5-11 3.9-16.6zm-121.9 44.6c.8-.1 1.9-.2 3.1-.4 4.3-.9 8-3 10.9-6.3.4-.5.6-1.1.9-1.6-.6 0-1.2 0-1.8.2-3.9 1.3-7.9 1.9-12 2-2.7.1-5.4-.6-8.1-.8-.5 0-1.2.2-1.6.6-.3.3-.4 1-.3 1.5.2.8.6 1.5 1.1 2.1 2.1 2.1 4.7 2.6 7.8 2.7zm397.5-6.7h-10.2c.8-3.5 1.6-6.9 2.4-10.6h-11.3c-2 0-3.3 1-3.7 3-.5 2.2-1 4.4-1.6 6.6-.1.4-.7 1-1.1 1-2.9.1-5.9 0-9 0 .5-2.2 1-4.3 1.5-6.4l2.7-11.2c.2-.6.5-1.3 1-1.7 5.8-4.6 8.7-10.6 9.2-18 0-.5.1-.9.2-1.3 0-.2.1-.5.2-.8h25.9l-4.8 20c1.1.1 2 .1 3.1.2-1.5 6.6-3 12.9-4.5 19.2zm-1-17.2c1.6-6.9 3.2-13.5 4.9-20.3h-18.9c-1.9 0-3.1.9-3.5 2.7v.2c-.5 6.2-3.1 11.4-7.8 15.4-1.9 1.6-2.6 3.5-3 5.7-.2.8-.3 1.5-.5 2.3-.7 3.2-1.5 6.3-2.3 9.6h6c.7-3 1.5-6 2.1-9.1.3-1.4.8-2 2.3-1.8 1 .1 2.1 0 3.2 0h11.7c1.1 0 1.6.1 1.2 1.5-.7 2.4-1.2 4.8-1.8 7.2-.2.7-.3 1.4-.4 2.2h6.2c1.2-5.2 2.4-10.2 3.6-15.4l-3-.2zm-42.9 6.5c.4-1.8.7-3.3 1.1-4.8l-.3-.3c-.5.6-1 1.3-1.6 1.9-2.5 2.2-5.5 3.3-8.8 3.3-5.1.1-10.1 0-15.2 0-.2 0-.5-.1-.9-.1.8-3.4 1.6-6.7 2.4-10 1.4-5.8 2.8-11.5 4.1-17.2.3-1.2.7-1.4 1.8-1.4 3.1.1 6.2 0 9.5 0-.7 3-1.4 5.9-2.1 9 .6 0 1.1.1 1.7.1 1.7.1 3.4.1 5.1.4 2.9.6 5.3 2.1 6.5 5.5.9-3.6 1.6-6.8 2.4-10 .3-1.4.6-2.8 1-4.1.1-.4.5-.9.7-.9 3.5-.1 7 0 10.6 0-1.5 6.2-2.9 12.3-4.3 18.3-.8 3.1-1.5 6.3-2.3 9.4-.1.4-.6.9-.9.9h-10.5zm-23.5-2c5.6 0 10.9.4 16.1-.1 4-.4 6.8-3.1 8.4-6.9 1.1-2.7.5-5.9-1.4-7-1.6-.9-3.4-1.5-5.2-1.7-2.1-.3-4.3-.1-6.7-.1.7-3.1 1.4-6 2.1-9.1-2.4 0-4.4-.1-6.5.1-.4 0-1 .7-1.2 1.1-1.4 5.5-2.6 11-3.9 16.6-.5 2.4-1.1 4.8-1.7 7.1zm33.1 0c2-8.3 3.9-16.5 5.9-24.9h-6.2c-.9 0-1.2.3-1.4 1.1-.6 2.8-1.3 5.6-2 8.4-1.2 5.1-2.4 10.2-3.7 15.4h7.4zm-137.3 1.5c.8-3.9 1.5-7.2 2.3-11-3.3 0-6.4-.1-9.4.1-.4 0-1 .9-1.1 1.5-.6 2.5-1.2 5-1.7 7.6-.2 1.3-.7 1.9-2.1 1.9-2-.1-4 0-6.2 0 .1-.8.1-1.4.2-2 1.8-8 3.6-15.9 5.3-23.9.4-1.8 1.1-2.3 2.8-2.2 1.8.1 3.7 0 5.9 0-.9 3.9-1.6 7.5-2.5 11.3 3.3 0 6.3.1 9.3-.1.5 0 1.1-1 1.3-1.6.7-2.6 1.3-5.2 1.8-7.8.3-1.4.8-2.1 2.3-1.9 1.5.1 3.1 0 4.8 0 0 .7 0 1.2-.1 1.7l-5.4 24.3c-.3 1.5-.9 2.1-2.5 2-1.6 0-3.1.1-5 .1zm-97.3-27.9h20.6c-.4 1.7-.6 3.2-1.2 4.6-.2.5-1.2.8-1.9.8-2.8.1-5.6 0-8.4 0-3.4 0-3.5.1-3.5 4 1.7.1 3.4.1 5 .3 4.7.6 7.1 2.7 7.7 6.6.6 4.3-1.7 8.8-5.6 10.4-.9.4-1.9.8-2.9.8-5.3.1-10.7 0-16.3 0 2.2-9.1 4.3-18.3 6.5-27.5zm2.3 22.9c2.8-.6 5.3-.8 7.5-1.7.9-.3 1.6-2.2 1.5-3.3-.1-.9-1.5-2.1-2.5-2.4-1.5-.4-3.1 0-4.7 0-.1 0-.2.4-.3.6-.4 2-.9 4-1.5 6.8zm16.3 4.9c.2-1 .4-1.8.5-2.7.2-1.7.7-2.6 2.7-2.7 2.5-.1 3.8-1.9 4.4-4.2 1.3-5.3 2.6-10.6 3.7-16 .4-1.7.9-2.4 2.7-2.3 5.4.1 10.9 0 16.3.1.7 0 1.4.1 2.3.1-.9 3.9-1.7 7.6-2.6 11.4-1.1 4.9-2.3 9.8-3.3 14.7-.3 1.5-.9 2-2.3 1.9-1.7-.1-3.4 0-5.5 0 1.6-7.3 3.2-14.3 4.8-21.6-2.1 0-3.8-.1-5.4.1-.5.1-1.2 1-1.4 1.7-.9 3.6-1.7 7.2-2.5 10.8-1.9 6.8-7.1 10.1-14.4 8.7zm109-15.1c2.8 4.9 5.5 9.8 8.6 15.2-3.1 0-5.8.1-8.4-.1-.5 0-1.1-.8-1.4-1.3-1-2.1-1.9-4.1-2.7-6.3-.7-2-2.1-2.7-4.4-2.6-.7 2.8-1.4 5.6-1.9 8.4-.3 1.2-.7 1.9-2.1 1.8-1.7-.1-3.4 0-5.4 0 .5-2.4 1-4.4 1.5-6.5 1.5-6.4 3-12.8 4.3-19.3.4-1.8 1.1-2.5 2.9-2.3 1.4.2 2.9 0 4.7 0-.7 3.3-1.4 6.4-2.2 10.1 1.5-.7 2.7-1 3.5-1.7 1.4-1.3 2.6-2.7 3.7-4.3 2-2.9 4.7-4.3 8.1-4.1 1.6.1 3.2 0 4.8 0 .1.2.3.5.4.7-4.6 4.2-9.3 8.2-14 12.3zm71.1.8c2.3 2.4 2.8 5.1 1.3 8.1-2 3.9-5.3 6.4-9.6 6.6-6.2.3-12.5.2-18.8.3-.1 0-.2-.1-.5-.2.4-1.6.8-3.3 1.2-5 1.8-7.4 3.6-14.8 5.3-22.2.2-1 .6-1.3 1.6-1.3 4.8 0 9.5-.1 14.3.1 3.1.1 5.9 1.1 7.7 3.9 1.9 3 1.3 6.6-1.3 8.9-.4.2-.8.5-1.2.8zm-25.4 13c.3.1.4.2.5.2 5.6-.1 11.2.1 16.8-.4 3.9-.3 7-2.6 8.1-6.4 1-3.5.4-4.4-2.5-5.3-.9-.3-1.8-.5-3-.8 1.5-.5 2.6-.9 3.7-1.3 2.1-.8 3.3-2.5 3.6-4.6.3-1.9-.6-3.5-2.1-4.5-1.2-.8-2.7-1.6-4.1-1.7-5-.2-10-.1-15-.1-2 8.4-4 16.7-6 24.9zm-124.8 1.4c2.9-4.7 5.4-8.9 8-13.1 2.4-3.9 4.8-7.9 7.2-11.8 1.7-2.7 5.1-4 8-2.9.4.1.8.7.9 1.2 1.1 8.8 2.2 17.6 3.4 26.7-1.7 0-3.3.2-4.7-.1-.5-.1-1.2-1.3-1.3-2-.1-2.5-1.2-3.3-3.5-3-.8.1-1.7.1-2.5 0-3.4-.6-5.8.4-7.1 3.9-.2.5-1 1.1-1.5 1.2-2.2 0-4.3-.1-6.9-.1zm18.7-18.1-.5-.1c-1.5 2.6-3 5.1-4.5 7.9h6.4c-.6-2.7-1-5.2-1.4-7.8zm71 18.1c4.4-7.2 8.5-14 12.6-20.7.6-1.1 1.5-2.1 1.9-3.2 1.4-3.9 4.3-4.7 7.9-4 .6.1 1.5.9 1.6 1.4 1.1 8.5 2.2 17.1 3.2 25.6 0 .2-.1.4-.2.9-1.4 0-2.8.2-4.1-.1-.6-.2-1.5-1.3-1.5-2-.2-2.4-1.2-3.4-3.5-3-.8.1-1.6.1-2.3 0-3.4-.5-6.1.2-7.3 3.9-.2.5-1 1.1-1.5 1.2-2 0-4.1-.1-6.8 0zm18.8-18c-.2-.1-.4-.2-.6-.2-1.5 2.5-2.9 5.1-4.6 7.9h6.4l-1.2-7.7z"/><path class="st0" d="M102.4 147.8c.4-2 .8-3.8 1.1-5.5 0-.2.3-.5.5-.5 2 0 3.9.1 5.9.2 1.2.1 1.9.9 1.9 2 0 1.2-.3 2.4-1.5 3-.8.4-1.7.7-2.6.7-1.6.1-3.3.1-5.3.1zm33.1-7.4c.6-1.8 2.1-2.6 4.6-2.4 1.6.1 2.8 1.1 3.1 2.4h-7.7zm303.6 11.9c1.6-2.3 3.3-4.3 4.4-6.6 1-2 1.4-4.4 1.9-6.6.2-.8.4-1.2 1.2-1.1h5.6c.7 0 1.2.1.9 1.1-1 4-1.9 8-2.8 12-.2 1.1-.8 1.5-2 1.5-2.6-.1-5.3 0-8 0l-1.2-.3zm11.8-12.3c-.7 0-1.3.1-1.8 0-1.3-.2-1.8.2-2.2 1.7-.6 2.3-1.7 4.5-2.6 6.7-.3.7-.7 1.2-1.3 2.1h4.6c.3 0 .8-.4.9-.7.9-3.3 1.6-6.4 2.4-9.8zm-50.9 12.5c.5-2.1 1.1-3.9 1.5-5.9.2-1 .7-1.2 1.6-1.1l2 .3c2.5.4 2.9.8 2.8 2.6 0 2.2-1.4 4-3.3 4.1-1.4.1-2.9 0-4.6 0zm2.3-1.6c1-.1 2 0 2.6-.4.6-.3.9-1.2 1.2-1.9.1-.2-.2-.8-.5-.9-1.3-.7-2.6-.1-2.9 1.4-.1.4-.2.9-.4 1.8zm-28.2-4.9c1.7.2 3.4.2 5 .5.7.1 1.9.7 2 1.1.1 1 0 2.4-.6 3.2-.7.9-2 1.4-3.2 1.6-1.5.3-3.2.1-4.8.1.5-2.2 1-4.2 1.6-6.5zm5.3 2.3c-3.5-1-4.6-.4-4.4 2.3 2.9.5 4.2-.2 4.4-2.3zm-4.5-5.7c.4-1.8.7-3.3 1.1-5.1 1.6.1 3.3.2 5 .4 1 .1 1.7.7 1.7 1.8s-.4 2.3-1.7 2.5c-2 .2-4 .3-6.1.4zm5.8-2.5v-.7c-1 0-2.1-.1-3.1.1-.2 0-.3.8-.4 1.3 1.4 0 2.6.3 3.5-.7z"/></svg>