<svg id="_Слой_1" data-name="Слой 1" xmlns="http://www.w3.org/2000/svg" viewBox="0 0 676.82 200"><defs><style>.cls-1{fill:#fff}</style></defs><path class="cls-1" d="M588.95 63.94c-1.18-4.25-3.56-8.3-8.63-8.57-5.31-.28-10.68.06-15.99.55-3.18.29-5.19 3.28-5.05 6.26.41 8.08.86 16.14 1.08 24.23.18 6.64.28 13.3-.07 19.94-.15 2.95-1.3 5.93-2.46 8.71-.37.91-2.18 1.73-3.31 1.7-.91-.02-2.02-1.24-2.6-2.19-.53-.86-.62-2.07-.63-3.14-.07-3.93-.03-7.86-.03-11.79l.45-.03c-.55-7.87-.68-15.8-1.82-23.57-.77-5.28-2.68-10.45-4.64-15.46-1.4-3.58-4.65-5.31-8.64-5.32-3.65 0-7.31-.04-10.97 0-5.48.07-8.76 1.93-8.49 8.46.33 8.08.9 16.16 1.16 24.24.19 6.14.26 12.3-.06 18.43a23.33 23.33 0 0 1-2.25 8.16c-.5 1.11-2.41 2.11-3.72 2.17-.93.04-2.58-1.45-2.79-2.48a117.9 117.9 0 0 1-2.03-13.74c-.23-2.74.22-5.57.54-8.33.66-5.7 1.48-11.37 2.16-17.08.55-4.62 1.23-9.26 1.39-13.9.09-2.6-.77-5.24-4.27-5.39-4.82-.2-9.66-.36-14.48-.56-7.66-.31-11.77 3.04-14.13 10.11-2.66 7.92-2.97 16.15-3.48 24.32-.38 6.07.35 12.2.48 18.31.18 8.27 1.29 16.38 4.35 24.1 4.53 11.48 14.81 14.58 24.27 11.82 3.93-1.15 7.37-4.2 10.82-6.66 2.34-1.68 4-1.43 4.97 1.09 1.55 4.04 5.02 4.63 8.58 5.18 1.88.29 3.81.29 5.66.7 8.76 1.96 16.15-.53 22.54-6.53 2.54-2.38 4.17-2.17 5.64.94 1.43 3.02 3.68 4.44 7.08 4.32 3.75-.12 7.53.16 11.27-.11 1.68-.12 3.87-.72 4.79-1.89a33.58 33.58 0 0 0 4.63-8.19c3.24-7.96 3.28-16.52 3.54-24.87.28-8.76-.31-17.6-1.18-26.33-.59-5.92-2.04-11.81-3.65-17.57l-.02-.02Zm-128 3.25c-2.67-8.05-4.53-11.75-14.39-11.33-3.21.14-6.44.73-9.62.51-4.15-.29-6.61 2.37-6.44 6.53.35 8.41.48 16.84.64 25.25.07 3.75-1.12 4.78-5.05 4.56-3.76-.2-5.04-1.19-4.61-4.74a419.9 419.9 0 0 1 3.39-22.55c.68-3.88-.73-8.33-3.42-8.88-1.94-.4-3.97-.68-5.95-.65-4.13.06-8.24.43-12.37.54-5.2.15-8.29 2.44-10.45 7.34-3.15 7.14-3.82 14.76-4.06 22.31-.32 9.71.25 19.45.49 29.17.15 6.3.26 12.62.66 18.91.2 3.29.89 6.94 4.64 7.94a47.59 47.59 0 0 0 24.65.07c1.41-.37 3.38-2.27 3.41-3.52.11-4.65-.46-9.33-.79-14-.28-3.97-.74-7.94-.79-11.92-.03-2.03 1.48-3.14 3.64-3.11 2.69.02 5.47-.16 7.05 2.67.12.21-.02.56 0 .85.28 7.83.24 15.71 1 23.49.28 2.9 2.27 5.86 5.94 6.24 3.29.35 6.61.37 9.9.61 7.2.51 10.07-3.59 12.03-8.6 4.09-10.39 4.2-21.34 4.52-32.29-.29-4.39-.81-8.77-.83-13.16-.02-7.59-.79-15.09-3.17-22.27l-.02.02Zm-172.78 30.57c-6.04-5.17-13.64-8-21.44-9.9-4.49-1.1-9.25-1.89-9.28-8.04 0-.2.05-.4.14-1.11 4.54.27 8.95.48 13.36.8 7.3.54 14.58 1.26 21.89 1.68 2.97.17 4.75-1.86 4.8-4.9.05-3.32-.14-6.66.06-9.96.18-2.94-1.43-4.73-3.56-6.15-1.29-.86-2.86-1.34-4.34-1.91-9.21-3.57-19-3.4-28.62-4.14-5.35-.42-10.77-.3-16.14 0-5.25.28-10.5.93-15.31 3.43-3.08 1.61-4.91 3.87-4.65 7.52.13 1.9-.31 3.9.11 5.72.45 1.9 1.6 3.64 2.5 5.42.51 1.04 1.59 2.03 1.59 3.05 0 3.98-.33 7.98-.52 11.96-.22 4.7-.38 9.39-.63 14.08-.16 3.08-.25 6.19-.68 9.24-1.04 7.48-.9 14.86 1.33 22.13a9.7 9.7 0 0 0 9.66 6.93c11.16-.27 22.34-.1 33.51-.08 6.24 0 12.39-.72 18.18-3.08 7.67-3.13 11.05-7.77 11.74-15.05 1.13-11.91-5.38-20.48-13.7-27.61Zm-22.47 28.54a5.82 5.82 0 0 1-4.13-.89c-3.04-2.21-4.87-9.97-3.87-12.76.85-2.41 1.55-5.03 4.65-5.4 3.32-.4 5.21 1.9 6.58 4.32 1.13 1.98 1.61 4.34 2.38 6.53-.49 5.27-1.69 7.4-5.61 8.19Zm373.33-47.46c2.81.09 5.61.4 8.41.61 8.1.6 16.22 1.19 24.32 1.77 2.34.17 4.08-.9 4.39-3.15.46-3.34.6-6.74.67-10.12.1-5.07-1.7-7.25-6.42-9.14-9.26-3.71-19.06-4.2-28.79-4.68a144 144 0 0 0-23.31.68c-4.23.48-8.58 2.4-12.25 4.66-3.4 2.1-1.28 6.32-1.76 9.57-.02.1 0 .2 0 .3-.08 2.91-.38 5.91 3.06 7.42.29.12.59.67.55.98-.64 4.95 1.73 10.23-1.72 14.89a4 4 0 0 0-.63 2.52c.31 4.03 1.03 8.06 1.07 12.09.05 4.57-.42 9.16-.76 13.72a2.35 2.35 0 0 1-.9 1.5c-1.95 1.36-2 3.28-1.91 5.35a47.9 47.9 0 0 1-.02 6.34c-.26 2.94 1.38 4.74 3.52 6.17 1.29.87 2.85 1.38 4.34 1.93 9.06 3.34 18.53 3.03 27.96 3.02l.11.87c9.14-1.1 18.39-1.63 27.36-3.47 7.1-1.45 9.65-2.88 9.31-11.23-.07-1.81 0-3.62-.02-5.44-.04-4.89-2.07-6.45-7.06-6.26-10.01.39-20.02.61-30.04.61-1.25 0-2.86-1.5-3.62-2.72-.72-1.16-.55-2.86-.72-4.34-.38-3.15.1-3.74 3.34-3.68 7.48.15 14.96.38 22.43.6 2.39.07 3.95-.93 4.06-3.36.14-3.13.02-6.27.02-9.4 0-4.91-1.46-6.76-6.19-8.47-6.1-2.21-12.43-2.87-18.83-2.91-2.16-.02-3.26-.51-3.04-2.86.2-2.1-.13-4.51 3.06-4.41l.02.02Zm-264.63-5.6c-3.84-6.07-8.8-11-15.39-14.25-5.67-2.8-11.64-3.37-17.81-3.15-10.63.39-18.97 5.12-25.23 13.39-7.2 9.52-9.61 20.5-9.64 32.28.56 4.43.98 8.87 1.71 13.28a37.66 37.66 0 0 0 13 23.26c8.91 7.65 19.24 9.25 30.32 7.2 9.67-1.78 17.11-7.06 22.6-15.25a46.98 46.98 0 0 0 7.72-22.73c.97-11.96-.67-23.6-7.27-34.02v-.02Zm-25.57 41.13c-.19 2.91-2.66 5.59-4.92 5.54-2.21-.05-4.33-2.44-4.83-5.29a78.45 78.45 0 0 1 .04-26.91c.7-4.01 2.28-5.45 4.86-5.27 2.51.19 4.48 2.46 4.84 5.94.4 3.76.6 7.54.83 10.54-.29 5.68-.5 10.57-.82 15.44Zm-311.2 52.36h4.36c5.27.02 10.57-.32 15.8.15 9.9.88 19.74 2.26 29.62 3.36a195.35 195.35 0 0 0 41.45.29c11.97-1.21 23.4-4.6 34.57-8.8 9.09-3.42 16.75-8.9 21.47-17.55 9.27-16.99 15.42-34.85 14.11-54.57-.08-1.23-.01-2.48-.01-3.71l-.71-.24c-.44.55-.92 1.08-1.31 1.68-2.58 3.89-4.85 8.01-7.76 11.64a77.73 77.73 0 0 1-4.1 4.69c-8.74 9.23-19.26 15.49-32.09 19.2l-.94.28-2.12.66-3.34 1.04c-3.14.79-6.22 1.42-9.27 1.93l-1.94.32-2.75.41c-1.5.2-2.98.37-4.46.54a251.76 251.76 0 0 1-13.53 1.08h-.14c-4.62.24-9.26.35-13.89.51l-2.93.11a215.68 215.68 0 0 0-11.68.79c-3.89.41-7.8.66-11.71 1-5.66.49-11.31 1.15-16.86 2.68-7.45 2.06-14.79 4.11-21.05 8.88a200.8 200.8 0 0 0-10.7 8.7 111.8 111.8 0 0 0-13.68 14.09c-.56.7-.88 1.59-1.63 2.99 9.43-2.72 18.36-2.05 27.23-2.13Zm102.28 9.85c-1.07.28-1.53.35-1.95.52a43.26 43.26 0 0 1-18.51 3.1c-6.04-.35-12.05-1.26-18.06-1.95-10.29-1.17-20.58-2.26-30.85-3.58-8.44-1.08-16.87-1.82-25.38-1.3-9.19.57-18 2.73-26.63 5.83-7.58 2.73-12.77 8.29-17.75 14.16-.28.33-.34.84-.77 1.97 1.66-.37 2.72-.61 3.79-.82 1.25-.25 2.53-.71 3.78-.66 5.58.19 11.16.37 16.72.86 10.54.95 21.07 2.14 31.6 3.18 2.26.23 4.54.16 6.8.35 6.76.56 13.51 1.32 20.27 1.7 3.53.19 7.13-.07 10.65-.46 5.81-.65 11.7-1.11 17.33-2.52 4.99-1.25 10.1-3.03 14.37-5.78 4.69-3.02 8.51-7.36 12.63-11.23.79-.74 1.15-1.92 1.97-3.37Z"/><path class="cls-1" d="M53.93 128.03a85.83 85.83 0 0 1 12.77-2.71 55.71 55.71 0 0 0-3.5-12.82c-.69-1.78-1.67-2.31-3.68-2.54-14.05-1.57-26.01-7.07-33.14-19.79-7.92-14.12-6.62-28.36.79-42.34 6.18-11.67 15.2-20.68 26.11-28.08 7.07-4.8 14.36-8.96 22.82-10.78 18.08-3.89 35.77-3.07 52.63 5.05 6.34 3.05 11.87 7.37 17.32 11.9a61.38 61.38 0 0 1 18.19 25.58c1.47 3.79 2.11 7.93 2.84 11.96.51 2.82.53 5.73.88 9.91-.44 2.39-.84 6.05-1.79 9.55-2 7.4-6.94 12.98-12.58 17.83-6.51 5.6-14.48 8.41-22.8 10.2-1.72.37-2.05 1.11-2.07 2.59-.03 2.19-.16 4.38-.23 6.57 3.76-.35 7.52-.73 11.24-1.37 13.74-2.37 26.42-7.34 37.29-16.28.12-.1.25-.21.35-.34l10.01-12.57a80.4 80.4 0 0 0-2.65-17.08c-2.68-10.58-6.05-20.8-12.05-30.06-12.71-17.87-25.26-27.01-43-34.43-17.22-7.22-34.92-9.92-53.23-6.53-27.4 5.08-48.01 20.11-62.09 43.88-7.2 12.15-11.24 25.36-12.51 39.42-.96 10.66-.79 21.28 2.13 31.59 3.16 11.13 8.23 21.47 14.36 31.27 5.2-5.23 10.94-9.87 17.58-13.23 5.64-2.85 11.89-4.62 18.01-6.37Z"/><path class="cls-1" d="M129.76 82.28c.49.56.94 1.17 1.35 1.82a3.56 3.56 0 0 0-1.35-1.82Z"/><path class="cls-1" d="M70.04 98.44c-.32-3.67 1.26-6.21 4.28-8.06 7.59-4.67 15.84-6.4 24.59-4.89 4.96.86 5.4 1.97 6.02 8.27.98 9.86 2.72 19.51 8.21 27.95 2.42-.29 4.84-.58 7.27-.84h.04c-.15-7.08.51-14.07 3.06-20.72 1.38-3.6 3.64-6.87 5.53-10.28.46-.84 1.12-1.58 1.51-2.44.62-1.33.82-2.38.56-3.29a16.5 16.5 0 0 0-1.35-1.82 9.34 9.34 0 0 0-1.25-.81c-4.82-2.64-10.07-4.03-15.48-4.75a74.65 74.65 0 0 0-29.29 1.69c-4.71 1.24-9.28 2.53-13.46 4.99a21.1 21.1 0 0 0-3.54 2.53c-4.06 3.67-4.27 4.63-1.82 9.49 4.23 8.37 6.22 17.37 7.76 26.5.16.93.28 1.92.1 2.82l2.13-.15c-.83-3.92-1.69-7.84-2.42-11.79-.89-4.77-1.64-9.57-2.45-14.36v-.02Z"/><path class="cls-1" d="M137.11 85.12c-4.1-3.95-8.7-6.97-14.36-8.48-9.25-2.48-18.68-4.38-28.26-3.7-4.05 0-7.47.66-11.4 1.32-8.06 1.35-16.4 3.47-23.78 7.01-5.1 2.44-6.2 8.81-2.3 12.95 1.76 1.87 3.98 3.62 4.95 5.87 2.87 6.66 6.37 13.04 7.49 20.2.22 1.4.56 3.17.88 4.65l1.36-.12 1.13-.1c.17-.9.05-1.9-.1-2.82-1.55-9.13-3.54-18.13-7.76-26.5-2.45-4.86-2.24-5.82 1.82-9.49a21.68 21.68 0 0 1 3.54-2.53c4.18-2.47 8.75-3.75 13.46-4.99 9.71-2.56 19.42-3 29.29-1.69 5.42.72 10.66 2.1 15.48 4.75.49.26.9.54 1.25.81a3.56 3.56 0 0 1 1.35 1.82c.26.91.06 1.96-.56 3.29-.4.86-1.05 1.61-1.52 2.44-1.89 3.41-4.15 6.68-5.53 10.28-2.55 6.65-3.21 13.64-3.06 20.72.88-.1 1.78-.19 2.66-.27l2.12-.2c.46-3.01.85-6.03 1.58-8.97 1.57-6.27 3.58-12.39 9.29-16.43a7.52 7.52 0 0 0 1.87-2.2c1.72-2.75 1.48-5.4-.87-7.65v.03Z"/><path class="cls-1" d="M136.88 76.83c4.18 2.37 7.22 5.7 6.55 10.88-.78 6.02-3.73 10.7-9.41 13.45-.54.26-1.22.66-1.39 1.14-.66 1.88-1.12 3.82-1.74 5.99 1.15-.18 2.22-.18 3.17-.52 3.63-1.32 7.4-2.44 10.81-4.22 6.96-3.64 12.44-8.69 15.51-16.24 2.76-6.8 3.04-13.73 2.73-20.83-.25-5.68-1.29-11.17-4.04-16.22-6.85-12.62-17.43-21.86-28.42-30.69-.64-.52-1.61-.66-2.03-.83.24 4.42 1.12 8.69.58 12.78-1.89 14.39-11.44 23.68-22.68 31.56-2.59 1.81-5.61 3.02-8.43 4.5 2.92.46 5.73.37 8.53.47a65.43 65.43 0 0 1 30.26 8.77Z"/></svg>