<svg version="1.1" id="Слой_1" xmlns="http://www.w3.org/2000/svg" x="0" y="0" viewBox="0 0 923.1 200" style="enable-background:new 0 0 923.1 200" xml:space="preserve"><style>.st0{fill:#fff}</style><path class="st0" d="M305 117.6c2 .1 4 .2 6 .1 1.5-.1 2.4.4 3.2 1.7 3.7 5.5 7.5 11 11.3 16.5.3.4.6.8 1 1.4.6-.8 1.1-1.4 1.5-2.1 3.5-5.2 7.1-10.4 10.5-15.7.9-1.3 1.8-2 3.4-1.8 1.7.1 3.3 0 5 0 .5 1.9.6 37.2.2 40.3h-6.7v-28.9c-.7.8-1.1 1.2-1.3 1.6l-10.2 15c-1.6 2.4-3.3 2.4-5 0-3.3-4.7-6.5-9.4-9.8-14.2-.4-.6-.9-1.2-1.7-2.2-.4 2.8-.2 5.2-.2 7.5v21.5h-7.2v-40.7zm176.7 41.6c-1-.3-2-.7-3-1-10.1-2.8-16.2-12.4-14.9-23.2 1.2-9.9 9.8-17.7 19.8-17.8 10.1-.2 18.7 6.7 20.7 16.4 2.2 11-4.2 21.7-14.7 24.6-1.1.3-2.2.7-3.3 1h-4.6zm2.3-7c7.6.1 13.4-6 13.5-14 .1-8.1-5.6-14.2-13.3-14.3-7.6 0-13.5 6.1-13.6 14 0 8 5.8 14.2 13.4 14.3zm101.6 7c-1.1-.3-2.2-.7-3.3-1-10.3-3-16.1-12.5-14.9-22.5 1.2-10.6 9.6-18.4 19.9-18.5 9.6-.1 18 6.2 20.4 15.3 3 11.3-3.5 22.7-14.4 25.8-1 .3-2 .7-3 1l-4.7-.1zm2.1-7c7.6.1 13.5-6 13.5-14 0-8.1-5.6-14.2-13.2-14.3-7.6-.1-13.5 6-13.5 14-.2 8 5.6 14.2 13.2 14.3zm-155.7 7c-1.1-.3-2.2-.7-3.3-1-7.7-2.1-15.2-9.4-14.9-20.7.2-10.2 6.8-18.2 16.3-20 6.7-1.3 12.9-.1 18.3 4.6.4.4.8.7 1.2 1.1.2.2.2.4.4.7l-4.2 4.8c-.6-.5-1.1-.9-1.5-1.2-3.9-3.4-8.5-4.3-13.4-3.2-6.5 1.5-10.7 8.1-9.9 15.4.7 6.8 6.1 12 12.6 12.3 4.1.2 7.7-1.1 10.8-3.8.4-.3.7-.6 1.1-.9h.4c1.3 1.5 2.7 3 4.1 4.7-2.8 3.1-6 5.1-9.7 6.2-1.1.3-2.2.6-3.3 1h-5zm-321.1-110.4c4.7-4.9 9.2-9.6 13.9-14.4l-15.3-15.9c5.9-6.1 11.7-12.2 17.6-18.2 4.9 5.1 9.9 10.3 15.1 15.6 5.1-5.4 10.2-10.6 15.2-15.9 5.9 6.1 11.7 12.2 17.5 18.4l-15.3 15.9c4.6 4.8 9.2 9.6 13.9 14.4l15.3-15.9c5.9 6.1 11.7 12.2 17.6 18.3-5.1 5.2-10.2 10.6-15.3 15.9 4.6 4.8 9.2 9.6 13.9 14.4l15.4-16c5.9 6.1 11.7 12.2 17.6 18.3l-15.7 16.3 15.7 16.3c-5.9 6.1-11.7 12.1-17.6 18.3l-15.7-16.3-13.8 14.4 15.6 16.2c-.4.8-16.4 17.5-17.6 18.4l-15.6-16.2c-4.6 4.8-9.2 9.5-13.8 14.4.9 1 2 2.1 3 3.1 1.1 1.1 2.1 2.2 3.2 3.3 1 1.1 2.1 2.2 3.1 3.2 1.1 1.1 2.1 2.2 3.2 3.3 1 1.1 2.1 2.2 3 3.2-5.9 6.1-11.7 12.2-17.6 18.3l-15.2-15.8-15.1 15.7c-5.9-6.1-11.7-12.2-17.6-18.3 5.1-5.3 10.3-10.7 15.5-16l-13.8-14.4-15.5 16.1c-5.9-6.1-11.7-12.2-17.6-18.3l15.5-16.1c-4.6-4.8-9.2-9.6-13.9-14.4l-15.4 16c-5.9-6.1-11.7-12.1-17.6-18.3l15.6-16.2c-5.3-5.5-10.5-11-15.7-16.3 5.9-6.1 11.7-12.2 17.6-18.3l15.3 15.9c4.6-4.8 9.2-9.6 13.9-14.4-5.2-5.1-10.4-10.4-15.5-15.7 5.9-6.1 11.7-12.2 17.6-18.3l15.4 16zm-2.9 85.2h49.9c2.9 0 5.6-.5 8.3-1.5 6.5-2.4 10.5-8.2 10.5-15.3v-11.1c-.1-5-2-9-5.8-12-3.3-2.6-7.1-3.8-11.2-3.9-9.7-.1-19.4 0-29.2 0h-1.3v-6c.3 0 .5-.1.8-.1 10.7 0 21.4 0 32.2.2 3.2 0 6.3.6 9.2 1.9.2.1.5.1.7.2.2-1.1.2-19.7 0-20.5h-64.2c.5 1 1 2 1.4 3 1.5 3.8 2.2 7.7 2.2 11.7v39.3c-.4 4.5-1.4 8.9-3 13-.2.4-.3.7-.5 1.1zm-90.7-16.1c-5.8-6-11.6-12-17.3-18 5.7-5.9 11.5-12 17.3-17.9 5.7 5.9 11.5 12 17.3 18l-17.3 17.9zm232.5-18.1c5.7-6 11.6-12 17.3-18 5.8 6 11.6 12 17.3 18-5.8 6-11.6 12-17.3 18-5.7-5.9-11.5-11.9-17.3-18zm416.6 58.3h-7v-28.2l-.5-.1c-.5.7-1 1.3-1.5 2-3.2 4.7-6.3 9.4-9.5 14-1.6 2.3-3.3 2.3-4.9 0-3.4-4.8-6.7-9.7-10-14.5-.4-.6-.9-1.2-1.7-1.6v28.4h-6.3c-.5-1.6-.6-36.7-.1-40.2 2.2 0 4.5-.1 6.8.1.6 0 1.2.8 1.7 1.4 3.8 5.4 7.5 10.9 11.2 16.3.4.5.7 1 1.3 1.7.5-.7 1-1.3 1.4-1.9 3.6-5.3 7.2-10.5 10.6-15.8.9-1.3 1.8-1.9 3.4-1.8 1.7.1 3.5 0 5.3 0v40.2h-.2zm17.7 0v-40.1h29.3v6.7h-22.2v5.9h2.6c3.1 0 6.3-.1 9.4 0 1.6.1 3.2.2 4.8.6 6.1 1.7 9.7 7.1 9.5 13.8-.2 6.3-4.3 11.4-10.2 12.7-1.1.2-2.3.5-3.4.5h-18.6c-.3 0-.6-.1-1.2-.1zm7.2-6.7c.6.1 1 .1 1.5.1h10.1c.8 0 1.5-.1 2.3-.2 3.3-.8 5.5-3.6 5.4-7-.1-3.5-2.2-6.1-5.7-6.7-.9-.2-1.8-.2-2.7-.2h-8.7c-.7 0-1.3.1-2.1.1v13.9h-.1zm-379.2-103v5.9c.7.1 1.4.2 2 .2h9.9c1.4 0 2.8.1 4.1.4 7 1.6 10.5 7.6 10.3 13.9-.3 7.2-5.2 12.5-12 13.1-1.8.2-3.7.1-5.5.1h-13.6c-.7 0-1.5-.1-2.4-.1v-40h29.3v6.5c-2.4.2-4.8.1-7.2.1h-7.6c-2.4-.1-4.7-.1-7.3-.1zm.1 26.7c4.7 0 9.3.3 13.8-.1 3.3-.2 5.5-3.6 5.3-7.2-.1-3.4-2.3-6-5.6-6.5-.8-.1-1.5-.1-2.3-.1h-9.4c-.6 0-1.2.1-1.8.2v13.7zm422.1 42.8h6.8v27.8c.1 0 .3.1.4.1.5-.6 1-1.1 1.4-1.7 6.2-8.2 12.4-16.3 18.6-24.6 1-1.3 2-2 3.7-1.8 1.3.1 2.6 0 4 0v40.3c-.4.1-.7.2-1 .2h-5.6c-.2-4.8-.1-9.4-.1-14.1v-14.6c-.8.9-1.3 1.4-1.7 1.9l-18.9 24.9c-1 1.3-2 2-3.6 1.8-1.3-.1-2.6 0-3.8 0-.5-1.7-.7-36.4-.2-40.2zm-30-36v-40.1h6.8v27.9c1.1-.3 1.5-1.1 1.9-1.7 6.3-8.2 12.5-16.5 18.7-24.8.8-1.1 1.7-1.7 3.1-1.6 1.4.1 2.9 0 4.3 0 .5 1.9.6 36.3.2 40.2-1 0-2 .1-3 .1h-3.5c-.2-9.4 0-18.6-.1-28.1-1.1.2-1.5 1.2-2 1.9-6.2 8.1-12.4 16.2-18.5 24.4-1 1.3-2 2-3.6 1.8-1.4-.1-2.8 0-4.3 0zm-52.7-40.2h6.8v27.8c.2.1.3.1.5.2.6-.7 1.1-1.4 1.7-2.1 6.2-8.1 12.3-16.2 18.5-24.4.9-1.2 1.8-1.8 3.3-1.6 1.4.1 2.9 0 4.4 0v40.1c-.7.1-1.3.1-1.9.1h-4.8v-28c-.2-.1-.3-.1-.4-.2-.5.6-1.1 1.2-1.5 1.9-6.2 8.2-12.5 16.3-18.6 24.6-.9 1.2-1.7 1.8-3.2 1.7-1.4-.1-2.9 0-4.5 0v-40.1h-.3zm-288.1 116.3c2.7-4.2 5.3-8.1 7.9-12.1-.5-.4-1-.8-1.4-1.2-5.1-3.8-7.3-9.6-5.8-15.7 1.4-5.9 6.2-10.2 12.2-11 1.1-.1 2.3-.3 3.4-.3h15.4c.7 0 1.4.1 2.2.1v40.1h-6.9v-10.7h-6.4c-1.9 0-4.1-.4-5.6.4-1.4.8-2.2 3-3.2 4.6-1.2 1.9-2.3 3.7-3.6 5.7l-8.2.1zm26.8-33.1c-.3-.2-.4-.3-.5-.3-4.1.1-8.3-.1-12.4.2-3.9.4-6.3 3.7-6.4 7.8 0 4.1 2.4 7.5 6.3 7.8 4.3.3 8.5.1 13 .1v-15.6zm44.5-83.1v6.6c-2.5.2-5 .1-7.4.1h-15.4v8.9h20.2v6.8h-20.2v10.8h23.5v6.5c-1.7.5-28.2.5-30.7.1v-39.8h30zm-72.7 29.3v10.7h-7.1v-40c.6-.1 1.1-.2 1.6-.2h17.2c3.1 0 5.9.9 8.4 2.7 4.8 3.4 7.1 9.6 5.7 15.5-1.4 5.9-6 10.3-12 10.9-3.4.3-6.9.2-10.3.3-1 .1-2 .1-3.5.1zm.2-6.9c4.3 0 8.4.2 12.4-.1 4.2-.2 7.2-4.7 6.5-9-.7-4-3.6-6.6-7.7-6.7-3.4-.1-6.9 0-10.3 0-.3 0-.6.1-.9.2v15.6zm193 53.9c-.2 2.1-.5 4-.8 6.2h-2.6c-1.9 0-3.2.8-4.1 2.5-1.2 2.1-2.4 4.3-3.6 6.4-.7 1.2-1.4 2.3-2.1 3.5 4.5 7 9.1 14 13.9 21.5-2.9 0-5.4.1-7.9-.1-.6 0-1.2-.8-1.6-1.4-3.1-4.9-6.1-9.7-9.1-14.6-.4-.7-.8-1.3-1.2-1.9h-8.2v17.9h-6.7c-.5-1.7-.6-36.7-.2-40.1h6.8v15.3c2.4 0 4.5.1 6.7 0 1.4-.1 2.3-1.2 3-2.4 1.4-2.6 2.8-5.1 4.2-7.6 2.9-5.4 7.3-7.2 13.5-5.2zm323.5 40h-7.6c-1.1-2.4-2.1-4.8-3.2-7.1h-20.4c-1.1 2.4-2.1 4.8-3.1 7.1h-7.5c.3-.8.5-1.5.7-2.1 5.2-12.1 10.3-24.1 15.4-36.2.6-1.5 1.3-2.2 2.9-2 1.2.1 2.5.1 3.7 0 1.5-.1 2.2.5 2.7 1.9 4.8 11.4 9.7 22.8 14.6 34.2.6 1.3 1.1 2.6 1.8 4.2zm-13.6-14.2c-2.5-6.3-4.8-12.3-7.5-18.7-2.6 6.5-4.9 12.5-7.3 18.7h14.8zm-71.1-3.8v17.9h-6.7c-.5-1.6-.6-36.1-.2-40h6.8v15h20.1v-15.1c2.4-.2 4.5-.2 6.7 0 .5 1.8.6 37 .2 40.2h-6.8v-18h-20.1zm-178.3-76.2h-8.2v17.8h-6.9v-40h6.9v15.3c2.4 0 4.6.1 6.8 0 1.3-.1 2.1-1.2 2.8-2.3 1.4-2.5 2.9-5.1 4.2-7.7 3.1-5.8 7.5-6.4 12.2-5.7.4.1.8.3 1.4.5-.2 2-.5 4-.7 6-.8 0-1.5.1-2.2.1-2.2 0-3.8.9-4.8 3-1.7 3.2-3.5 6.3-5.4 9.6 4.5 6.9 9 13.9 13.8 21.4h-7.8c-1.1 0-1.4-.9-1.8-1.6l-9-14.4c-.4-.7-.9-1.4-1.3-2zm-130-16.2c-1.4 1.7-2.8 3.2-4.3 4.9l-2-1.7c-3.8-3.1-8.2-3.8-12.8-2.7-6.9 1.6-11 8.6-9.8 16.3 1.1 6.9 7.3 11.9 14.3 11.4 3.1-.2 6-1.3 8.4-3.4l1.9-1.6c1.4 1.6 2.8 3.2 4.2 4.7-5.9 8.2-20.6 9.6-29 2.1-8.8-7.8-9.6-21.7-1.8-30.4 7.7-8.5 23.2-8.7 30.9.4zm98.8 0-4.4 5c-3.7-4-8.2-5.4-13.3-4.8a12 12 0 0 0-7.8 4.1c-4.7 5.2-4.9 13.7-.6 19 2.8 3.4 6.5 5 10.8 4.9 4.3-.1 7.8-1.9 10.9-5 1.5 1.7 2.9 3.3 4.4 4.9-3.6 4-8 6.1-13.1 6.8-9.9 1.2-19.3-4.7-22.2-14.2-4.2-13.7 5.1-28.7 21.6-27.4 5.3.3 9.9 2.4 13.7 6.7zm-62.8 34.1h-7v-33.4c-4.9-.3-9.6 0-14.4-.2v-6.4h35.6v6.4h-14.2v33.6zm401.3 36.2v6.5h-14v33.5h-7.1v-33.5h-14.2v-6.5h35.3zm-205.5-87.9c.9 2.4 2.1 4.1 4.5 4.2 2.6.1 3.7-1.8 4.7-4.1 1.7.7 3.3 1.4 4.8 2.1-.4 4.2-4.2 7.5-8.8 7.9-5 .4-9.1-2.8-10.2-7.8 1.6-.7 3.2-1.5 5-2.3z"/><path class="st0" d="M129.2 115.7v-7c.4 0 .7-.1 1-.1h26c1.5 0 2.2.6 2.6 2.1.4 1.5.3 2.9-.8 4.2-.5.6-1.1.8-1.8.8h-27z"/></svg>