<svg version="1.1" id="Слой_1" xmlns="http://www.w3.org/2000/svg" x="0" y="0" viewBox="0 0 775.2 200" style="enable-background:new 0 0 775.2 200" xml:space="preserve"><style>.st0{fill:#fff}</style><path class="st0" d="M227 128.9v-78.7l-39.3-20.5v99.2zm-51.9 0h9.4v-99.2l-27.1 15.2v11.2l17.6-8.9zm-17.7 0v-108.4l-39.4-20.5v128.9z"/><path class="st0" d="m9.9 72.2 95.4-54.7.2 111.4h9.3v-128.9l-114.8 66.9v133.1h775.2v-8.4l-765.3.3zm764.4 66.8c.3.8.5 3.1.6 6.2a54 54 0 0 0-.6-6.2c-.7-.2-1.3-.3-2-.3.6 0 1.3.2 2 .3zm.8 12.3c0 1.1 0 2.2.1 3.4 0-1.2 0-2.3-.1-3.4z"/><path class="st0" d="M440.7 140.2h-11.2v16.4c-.4.1-.8.3-1.2.4-6.4-5.9-12.7-11.8-19.1-17.8-2.9 2.7-5.3 5-8.4 7.9 5.1 4.6 10 9 15.4 13.9-2.7 2.3-5 4.3-7.3 6.4-1 1-2.6 2.2-2.7 3.3-.3 4.3-.8 8.8.3 13.7 6.2-5.5 11.8-10.6 17.1-15.3 7.9 3 5.1 9.6 6 14.7h11.3c.3-5.6-1.8-12 5.7-14.7 5.6 4.9 11.3 10 17.9 15.9 0-4.6-.1-8 0-11.4.1-2.6-.9-4.5-2.9-6.1-2.4-2-4.6-4.1-7.1-6.5l10.5-10.2c3.4-3.4 6.9-6.7 10.4-10-3.7-.9-6.9-.8-10-1-3.5-.3-6 1-8.4 3.3-4.1 4.1-8.5 8.1-12.8 12.1-.8.8-1.9 1.3-3.7 2.4l.2-17.4zm53.8 14.1c-.9.8-1.9 1.3-3.7 2.5v-18.5c-3.2 2.8-5.3 4.9-7.7 6.8-2.6 1.9-3.6 4.3-3.5 7.4.2 8.9 0 17.7.1 26.5 0 1.1.2 2.3.4 4.2 10-9.2 19.4-17.7 28.7-26.3l1.2.6v25.1h10.8v-43.5c-5.8-1.3-10.4-.4-14.3 3.9-3.7 4.1-8 7.6-12 11.3zm277.8-15.6c-1.3-.2-2.6-.2-3.8 0-3 .4-5.7 1.8-8.1 4.6-3.7 4.3-8.2 7.8-12.4 11.7-.7.6-1.7.9-2.9 1.6-.4-6.2.1-11.8-.7-18.1-3 2.8-5.2 5.1-7.6 7a8.09 8.09 0 0 0-3.2 7c.2 8.9 0 17.7.1 26.5 0 1.1.3 2.3.5 4.2 10-9.1 19.3-17.6 29.6-27.1.4 9.6-.1 18.1.3 26.6h10.4c.4-2.2.7-8.3.7-15.4v-12.6c0-1.2 0-2.3-.1-3.4v-1.6c0-1.6-.1-3.1-.2-4.4-.2-3.1-.3-5.4-.6-6.2-.7-.3-1.4-.4-2-.4zm-622.5 26.5c1 9.9 8.8 17.7 18.7 18.6 10.1 1 19.1-5 21.9-14.8a29.3 29.3 0 0 0-.1-16.6c-2.7-9-10.6-14.7-19.9-14.5-9.3.1-17.2 6.1-19.7 14.9-.7 2.6-.9 5.3-1.3 8h.4c0 1.5-.1 2.9 0 4.4zm13-11.9c1.6-3.2 4.7-4.6 8.3-4.4 3.7.1 6.5 1.8 7.7 5.2.8 2.3 1.2 4.8 1.9 7.6-.7 2.4-1.1 5.2-2.4 7.5-3.1 5.7-11.8 5.9-15.1.2-3.1-5.2-3.1-10.7-.4-16.1zm541.9 30.6c9.7.6 18.3-5.1 21.1-14.4.8-2.7 1-5.7 1.7-9.1-.7-3-1.3-6.7-2.6-10-3-7.7-10.3-12.6-18.5-12.4-8.8.2-15.4 4-19.1 11.9-2.6 5.5-2.6 11.3-1.7 17 1.6 9.6 9.2 16.3 19.1 17zm-6.1-31.2c3.1-5.5 11.6-5.5 14.8 0 1.5 2.6 2 5.7 2.8 8.3-.7 2.8-1.1 5.1-2 7.3-1.4 3.2-4.1 5-7.8 5.1-3.5.1-6.3-1.2-7.9-4.1-2.9-5.5-2.9-11.2.1-16.6z"/><path class="st0" d="M364.8 153.5c.1 8.5.1 16.9.1 25.4 0 1.2.3 2.4.5 3.8h29.2v-10.2h-17.6v-6.7h17.6v-10.2h-17.7v-6c2-.1 3.7-.5 5.2-.2 9.6 1.6 16.9-1.9 22.6-9.2.1-.1.1-.3.6-1.4-5.9 0-11.3.6-16.5-.1-8.9-1.2-15.4 1.9-21 8.3-1.8 1.9-3 3.8-3 6.5zm-221.1 29.4v-44.2c-5 0-9.7.5-14.2-.1-8.6-1.1-15.1 1.6-20.5 8-1.7 2.1-3 3.8-3 6.6.2 8.6 0 17.3.1 26 0 1.2.3 2.4.5 3.6h10.8v-33.3c5.5 0 10.2-.6 15.4.5v32.9h10.9zm126.7-44.3c-8.6-1.1-15.1 1.7-20.5 8-1.7 2.1-3 3.8-3 6.6.2 8.5 0 16.9.1 25.4 0 1.4.3 2.7.4 4h29.2v-10.1h-18.1v-5.8c6.1-1.9 12.5.6 18.1-1.5v-9.7h-18.1v-6.2c5 0 9.8.2 14.6-.1 1.9-.1 4.1-.7 5.5-1.8 3-2.3 5.7-5.1 8.6-7.7l-.3-1.1c-5.5 0-11 .6-16.5 0zm-30.5 44.3c-.1-14.8.1-29.3-.1-43.6-8.6-1.1-10.7-1-13.4 1.5-9.5 8.6-18.9 17.4-28.3 26.1-.9.8-1.9 2-2 3.1-.2 4.2-.1 8.5-.1 12.7.4.1.8.3 1.2.4 10.1-9.3 20.1-18.6 30.2-27.8.4.1.9.3 1.3.4v27.3h11.2zm329.8-.1v-43.6c-6.4-1.1-11.6-.9-16.5 4-7.8 8-16.4 15.3-24.5 23-1.1 1.1-2.6 2.5-2.7 3.9-.3 4.2-.1 8.5-.1 14 4.4-4 7.8-7.2 11.3-10.3 3.5-3.2 6.9-6.6 10.6-9.7 3.5-3 6-7.2 11-9.3v28h10.9zm-242.4-36.2c-2.2 1.8-3 3.9-2.9 6.6.1 8.5 0 16.9.1 25.4 0 1.3.3 2.7.6 4.3 6 0 11.6.1 17.1 0 12.5-.3 20.3-12.3 15.4-23.4-3.2-7.3-10.9-11.2-18.6-9.1v8.8c7 2.1 9.6 5.1 8.3 9-1.4 4-5.1 5.2-11.7 3.4v-32.6c-3.3 3-5.7 5.5-8.3 7.6zm334.1 16.1v9.3c10.1.7 17.8-5.7 18.5-15 .7-9.4-5.9-17.3-15.2-18.2-4-.4-7.3.4-10 3.5a35.6 35.6 0 0 1-5.4 4.8c-2.1 1.6-2.7 3.6-2.7 6.2.1 8.7 0 17.3 0 26 0 1.2.3 2.4.6 3.7h10.9v-33c7.3-1.2 10.4.1 11.6 4.3 1 3.7-1.2 6-8.3 8.4zm-69.1-22.7c-11.7 3.5-18.6 15.1-15.7 26.4 2.8 11 14.7 18.3 26.7 16v-9.4c-2.2-.3-4.1-.4-5.9-.8-6-1.4-10.2-6.3-10-11.5.3-5.4 5-10.3 11.1-11.3.9-.1 1.9 0 2.8-.2 1.1-.2 2.3-.3 3.1-.9 3.3-2.7 6.5-5.7 9.7-8.5-7.7-.9-14.9-1.9-21.8.2zm-305.1 25c1.8 11.6 15.3 20.4 27 17.2v-8.7c-3.4-.9-6.7-1.3-9.4-2.6-8.2-3.9-9-14-1.4-18.9 2-1.3 4.8-1.8 7.2-2.5 1.6-.5 3.6-.2 4.7-1.1 3.3-2.7 6.4-5.7 10.2-9.3-7 0-12.8-.6-18.4.1-11.5 1.5-22.2 10.9-19.9 25.8z"/><path class="st0" d="M634.8 182.5v-31.5c4.6-4 8.8-7.6 13-11.3-8.1-1-15.7-1-23.3-.9-.9 0-2 .3-2.6.8-3.3 2.8-6.4 5.8-10.4 9.5 4.5.2 7.8.4 11.9.6v33c4.1.7 7.6.7 11.4-.2zm113.5-43.5v10.8c4.2-3.9 7.6-7 11.7-10.8h-11.7z"/></svg>