<svg version="1.1" id="Слой_1" xmlns="http://www.w3.org/2000/svg" x="0" y="0" viewBox="0 0 626 200" style="enable-background:new 0 0 626 200" xml:space="preserve"><style>.st0{fill:#fff}</style><path class="st0" d="M199.9 96.5c-1.5-50.8-44.1-96.5-100.1-96.5-57.1 0-101.5 48.5-99.7 99.8-1.8 53.3 44.2 99.8 99 100.2 55.3.3 102.6-45.6 100.8-103.5zm-101.4 99.8c-52.4-.6-95.4-42.8-95.3-96.2.1-55.5 44.6-96.2 96.2-96.4 53-.2 97.5 42.4 96.9 97.3-.4 53.2-43.5 96-97.8 95.3z"/><path class="st0" d="M99 10.8c-49.4.5-88.8 42.5-88.5 89.4.3 47.9 39.9 89.4 90.1 89 50.5-.4 89.5-43.5 88.3-88.9 1.3-47.2-39.2-90-89.9-89.5zm2.3 176.9c-48 .5-89.4-36.7-89.5-87.4-.1-48 36.5-86.9 86-88 49.8-1.1 88.5 37.4 89.8 84.9 1.5 50.9-38.1 89.5-86.3 90.5z"/><path class="st0" d="M100.3 93.3c-2.1.9-4.4 1.4-6.7 2 .1.4.2.8.5 1.1 1.5 2.6 3.1 5.2 4.7 7.7 4.6 7.4 9.7 14.3 16.1 20.4 5.2 5 11.3 4.4 17.6 3.7 0 0 .1-.1.2-.3-6.5-3.3-11.2-8.7-16-14-4.8-5.4-9-11.2-12.9-17.3 1.8-.5 3.4-.8 4.9-1.4 1.5-.6 2.9-1.4 4.2-2.2 8.9-5.8 9.4-18.3 1.1-24.9-3.8-3-8.4-3.9-13-4.1-6.4-.2-12.8 0-19.3 0h-4.1a9.9 9.9 0 0 1 3.7 8.1v48c0 2.9-.6 5.5-3.1 7.3-.2.1-.3.4-.6.8h16.2c0-.3 0-.4-.1-.5-.1-.1-.2-.3-.4-.4-2.2-1.6-3-3.9-3-6.6 0-16 .1-31.9 0-47.9 0-1.8.8-2.4 2.3-2.5 2.3-.1 4.7-.1 7 0 7.1.3 11.6 6.1 10.1 13.1-1.2 5.4-5 8-9.4 9.9zm-56.4 30.1c4.8 3.1 11.8 2.5 15.8-1.2 2.7-2.5 3.1-4.9 1.4-7.8-2.1-3.4-7.7-5.2-11-3.5-2.4 1.3-3.5 4.2-2.3 6.2 1.4 2.3 4.3 3.1 6.6 1.7 1.3-.8 1.4-1.4.1-2.4-.2.4-.4.7-.7 1-.9 1-2 1.2-3.2.6-1.2-.6-2.5-1.3-2.4-2.9.2-2 3.4-4.6 5.4-4.2 2.7.6 5.3 1.7 7.1 4 1.2 1.4 1.1 2.7-.1 4.1-3.1 3.6-6.8 5.1-11.5 4.1-4.6-.9-8.9-5.9-8.5-9.9 1-10.2 13.9-15.9 22.2-12 3.2 1.5 5 4.2 6.5 7.2-.6-4.3-2.9-7.4-6.6-9.7-7-4.3-16.8-4-22.1 3.5-5.3 7.8-4.2 16.4 3.3 21.2z"/><path class="st0" d="M135.5 81.4c-4.9.4-9.5 4-10.5 8.3-.9 3.9.5 7.6 3.2 8.8 3.6 1.6 8.6-.1 10.4-3.6 1.2-2.2.3-4.8-1.9-5.9-2.5-1.3-4.9-.6-6.1 1.8-.8 1.6-.3 2.5 1.5 2.8-.2-.7-.9-1.8-.6-2.2.7-1 1.9-2.3 2.7-2.2 1.3.1 2.7 1.2 3.5 2.2.5.6.7 2.3.3 3-1.5 2.6-3.9 4.2-7.1 4.1-2.3-.1-3.7-1.2-4.3-3.3-1.5-5.2 1.3-10 6.6-11.3 5.7-1.4 11.3 1.7 13.6 7.8 2 5.4.3 12.6-5.5 15.2-2.1.9-4.4 1.2-6.7 1.8.4.1 1 .3 1.6.4 5.7.7 12.6-2.9 15-8.1.9-1.9 1.5-4.2 1.2-6.2-1.2-8.4-8.6-14-16.9-13.4zm-68.5 5.6 2.5 7.5c1.4-6.1-.5-10.8-4.3-15-3.8-4.2-8.7-4.5-14-4.1 4.6 2.2 5 6.6 6.1 10.7.4 1.5 1.2 3.1 2.2 4.2 2.6 2.7 5.5 5 8.4 7.7-.2-3.9-2.3-7.3-1.6-11h.7zm52.5-50c-.2-.4-.5-1.1-.3-1.4 2.3-3.9 3.4-8.5 6.9-11.5-.4 5.4-.9 10.9-1.3 16.3.2.1.3.1.5.2.6-.4 1.1-.9 1.7-1.4 2.6-2.4 5.2-4.9 7.9-7.2.9-.8 2-1.3 3-1.9.1.2.2.3.3.5-1.4 2.8-2.8 5.6-4.1 8.4-.9 1.8-1.5 3.9-4.4 3.3v.7c2.4 1.2 4.8 2.3 6.9 3.3-.1-1.4-.7-2.9-.3-4 .9-2.6 2.1-5.1 3.3-7.6 1.1-2.3 1.4-5.4 5.1-5.6-1-.6-2.1-.9-2.9-1.4-1.6-1-2.8-.5-4.1.7-2.8 2.5-5.7 4.9-8.5 7.4-.2.2-.5.2-.9.4 0-.5-.1-.8-.1-1.1.2-3.9.4-7.9.5-11.8 0-.6-.1-1.5-.5-1.8-1.4-.9-3-1.5-4.5-2.2 0 .6.1 1.1.4 1.3 1.5.9 1.1 2 .4 3.2-1.7 2.7-3.3 5.5-4.8 8.3-1 1.8-1.9 3.8-4.5 3.8-.1 0-.2.2-.3.4 1.9.8 3.7 1.6 5.5 2.4-.2-.8-.6-1.2-.9-1.7zm-23 119.5c16.8.9 31.4-4.7 43.4-16.6a49.3 49.3 0 0 0 12.4-19.6c-4 7.3-8.1 14.4-14.4 20-6.3 5.6-13.3 9.9-21.4 12.4-8.1 2.5-16.4 3.3-24.8 2-8.3-1.3-16-4.3-23-9-7-4.6-12.5-10.8-17.3-17.6 1.2 3.2 3.1 5.8 5.3 8.3 10.3 12.3 23.6 19.3 39.8 20.1zm15.5-111.9c-16.1-3.4-31.1-.3-44.7 9-7.1 4.9-12.6 11.3-17 18.7.2.2.4.3.6.5.6-.7 1.2-1.3 1.7-2 2.1-2.7 4-5.7 6.3-8.2 11.2-12 25.1-17.9 41.5-18 5.6 0 11.1 1.1 16.5 2.8 13.8 4.5 24.4 12.9 31.4 25.6.8 1.4 1.7 2.8 2.5 4.1l.6-.3c0-2.5-1.7-4.3-2.9-6.2-8.8-13.4-20.7-22.6-36.5-26zm45.8 73.2c5.9-.5 10.2-3.3 12.5-9.2-2.6 1.6-5.1 1.5-7.8 1-2.9-.5-6-1.4-8.9-1.1-3.5.3-6.8 1.8-10.2 2.7 0 .2 0 .3-.1.5 3.3.9 6.6 1.8 10 2.7-.1.3-.1.7-.2 1-2.2-.4-4.4-.8-6.6-1.1 1.7 2.3 6.8 3.9 11.3 3.5zm-10.4-62.6c0 .2-.1.5-.1.7l5.1 6.9h.8c-1.7-2.6.2-3.7 1.6-4.8.4-.3.8-.8 1.3-1.1.5-.3 1.4-.6 1.7-.4.5.4.8 1.3.7 1.8-.1.9-.7 1.8-1.1 2.7-.6 1.4-1.2 2.8-1.6 4.3-.5 1.9.7 4.3 2 4.9.8-2.6 1.8-5.1 2.5-7.7.5-2.1 1.6-2.6 3.6-1.9 2.1.8 3.7-.2 5-1.8 1.2-1.5 1.1-3.4.1-4.9-1.9-3-4-5.7-6-8.6-.1-.1-.3 0-.7-.1 1.1 2.2 0 3.3-1.7 4.4a69.8 69.8 0 0 0-7.1 5c-1.9 1.3-3.5 3.3-6.1.6zm16.9-4.2c.4-.3 1.6-.1 1.7.2.5 1.1 1.2 2.4 1.1 3.5-.3 2-1.9 3-3.9 3.4-2.3.5-3.7-.7-5-2.6 2.2-1.6 4.1-3.2 6.1-4.5zm-94-23.3c.8 3.1 1.8 6.3 2.7 9.3.4 1.3.8 2.3-.7 3.1-.3.1-.3.6-.7 1.4 3.1-.9 5.8-1.6 8.3-2.6 2-.8 3.9-2.1 5.5-3.5 2.9-2.6 3.3-6.1 2.1-9.7a7.9 7.9 0 0 0-7.3-5.8c-1.4-.1-2.9.2-4.3.5-3.2.8-6.3 1.7-9.4 2.5-.1.1-.2.3-.3.4 2.7.5 3.6 2.2 4.1 4.4zm3.6-5.7 3.2-.9c3.3.2 6 2.9 7.2 7.5 1.1 4.1.1 6.9-3 8.6-.4.2-.7.4-1.1.6-1.7.9-2.7.6-3.6-1.1-.4-.9-.6-2-1-3-1-3.1-1.9-6.2-3-9.3-.4-1.3-.1-2 1.3-2.4zm-45.2 36.2c.9-.7 1.6-.5 2.5.1 2.9 2.1 5.7 4.3 8.8 6.1 1.9 1.2 3 2.3 2.5 4.6 0 0 .2.1.3.2 1.5-2.2 3.1-4.4 4.6-6.6-.8.1-1.3.5-1.9.6-.5.1-1.3.2-1.6 0-3.8-2.6-7.5-5.3-11.3-8-1.1-.8-1.2-1.8-.1-2.8 1.5-1.4 3.3-1.6 5.1-.5 2.8 1.8 3.3 3.4 1.5 7.3 2.6-1.8 5-.7 7.2-.5 3 .2 5.4-1.1 6.7-3.7-2.9 0-5.8-.1-8.8 0-1.8.1-2.6-.6-2.4-2.5.2-2.1-1.2-3.3-2.7-4.2-1.5-.9-3.2-.7-4.3.5-2.7 3-5.2 6.2-7.8 9.3l.5.5c.3 0 .8-.1 1.2-.4zm11.4 25.2c-5.1 1.5-8.4 5.2-8.3 9 1.8-.1 3.7-.7 5.4-.2 5.5 1.6 10.4.5 15.1-2.5-1.9-2.8-5.8-2.1-8.2-4.1.1-.2.1-.4.2-.6 3.2.7 6.4 1.3 9.4 1.9-2.1-3.2-8.6-5-13.6-3.5zm31 74.7c-2.2-1.5-3.9-2.7-5.7-3.9.5 1.3 1.5 2.7 1.1 3.3-1.8 3.1-4.1 6-6.1 8.9h-.5l-.6-7.7c-.2-2.6-.5-5.1-.8-7.7-.2-2.1-2-3.9-4.5-4.5.3.5.4 1 .7 1.3 1.2 1 .8 2 0 3.1-2.2 3-4.5 6-6.7 9-.9 1.2-1.7 2.5-3.6 1.6-.2-.1-.6.1-1 .3 2 1.4 3.8 2.6 5.6 3.9 0-.7-.2-1.1-.6-1.4-.9-.9-.9-1.8-.2-2.8 1.9-2.6 3.7-5.2 5.6-7.8.3-.5.8-.8 1.4-1.5.2.7.4 1 .4 1.3.4 5.6.7 11.2 1.1 16.7 0 .5.4 1 .6 1.6.5-.3 1.1-.6 1.4-1 1.6-2.2 2.9-4.6 4.7-6.6 2.1-2.3 2.7-6.5 7.7-6.1zm96.9-62.9c.3-3-2.9-7.9-5.3-8.2-.1 2.4 0 2.4-2.5 5.1-3 3.2-3.8 7-2.9 11.6 2.4-1.7 4.7-3.2 6.9-4.8l.5.5c-1.8 2.1-3.7 4.1-5.4 6.1 4.5-.7 8.2-5.3 8.7-10.3zm-60.7 84.6c-1 1.9-5.3 3.1-7.1 1.9-.4-.3-.7-.9-.7-1.4-.2-1.6-.3-3.3-.3-5 0-.5.7-1.2 1.2-1.3 2-.5 3.9-.4 5.2 2.2v-5.7c-.1-.1-.2-.3-.4-.4-1.3 2.9-3.6 2.9-6 2.6-.2-1.9-.4-3.8-.4-5.7 0-.6.7-1.6 1.2-1.7 2.3-.3 4.9-.9 6.2 2 .1.2.3.3.6.4.4-2.9-.2-3.9-2-3.8-3.5.1-7 .2-10.5.2-.4 0-.9.1-1.7.3.6.4.8.7 1.1.7 1.6.4 2 1.5 2 3 0 3.3 0 6.5.4 9.8.3 2.3 0 4-2.4 4.7-.1 0-.1.3-.1.3 3.9 0 7.7.1 11.6 0 3.1-.1 4-1.5 3.1-4.8-.4.5-.7 1.1-1 1.7zm38.7-21.8c-1.8.2-3.7.2-5.5.3-.7 0-1.5-.1-2.2-.3-1.9-.7-2.3-2.9-.9-4.3 1.6-1.6 4-.9 5.2 1.6.4.8.7 1.6 1 2.4 1.5-3.8.9-5.5-1.7-6.3-2.3-.8-5.8 1.3-6.8 4.1-1.1 3.2.9 6.1 4.2 6 2.3 0 4.5-.3 6.8-.3 1.7 0 2.8 1.3 2.9 2.8.1 1-.8 2.3-1.6 3-1.2 1-2.8.7-3.9-.4-.8-.9-1.3-2-1.9-3.1-.2-.4-.4-.9-.6-1.4h-.5c-.2.9-.5 1.7-.6 2.6-.4 3.2 2.1 5.4 5.3 4.6 2.4-.6 4.1-2.1 5.2-4.1 1-1.8.9-3.6-.3-5.4-.9-1.5-2.3-1.9-4.1-1.8zm11.8-18.5c-3.1-1.7-6.3-.9-8.4 2.1-1.7 2.3-1.1 6.2 1.1 8.2 2.5 2.2 6 1.7 7.7-1.2.5-.9 1-1.8 1.8-3.1 1.7 4.4 1.7 8.2-.3 12 .5-.1.8-.2 1-.5 4.7-5 3.2-14.2-2.9-17.5zm-1.2 8.4c-2.3.7-6.5-2-6.8-4.4-.2-1.3 1.1-2.6 2.5-2.6 1.5 0 5.8 2.8 6.3 4.1.4.9-.7 2.4-2 2.9zm-102.7-94c1.6-1.2 3.1-2.2 4.7-3.4-1.4-.4-2.8.2-3.3-1.8-.5-2.1-.9-3.4 1.5-4.8 2.8-1.7 2.7-2.1 5.2 0 .8.6 1 2.1 1.5 3.2 1.9-1.4 3.9-3 5.7-4.3-1.9-.7-3.9-1.2-5.6-2.2-3.7-2.2-7.1-4.8-10.7-7.2-.7-.5-1.6-.8-2.9-1.5.7 3.3 1.3 6 1.9 8.7.9 4.4 3.7 8.4 2 13.3zm-1.2-16.7c1.9 1.3 3.5 2.4 5.6 3.9-1.2 1.2-2.4 2.3-3.9 3.8-.9-2.7-2.4-4.8-1.7-7.7zm-17.6 96.8c.2-1.8.4-3.5.7-5.3.3-1.5 1.4-2.6 2.8-2.5 1.2.1 2.6 1.1 3.2 2.1.5.8 0 2.3-.3 3.4-.3.8-1.1 1.4-1.6 2.1 3.9-1.4 4.5-3.1 2.5-6.4-.3-.5-.6-.9-1-1.3-1.6-1.9-3.6-2.6-5.9-1.9-2.3.8-3.3 2.6-3.5 4.9-.2 1.9-.4 3.8-1 5.6-.6 1.7-2.1 2.4-3.7 1.9-2-.6-3.1-1.9-2.7-3.8.3-1.3 1.2-2.4 1.8-3.5.3-.5.7-1 1.3-1.7-3.7.4-5.3 3-4.2 6.3.4 1.1 1.1 2.1 1.8 3 1.7 2.1 3.9 2.9 6.2 2.2 2.3-.8 3.3-2.7 3.6-5.1zm64.3-98.3c-.5-.4-.8-.5-.9-.7-.4-.6-1.2-1.5-1-2 .5-1.3 1.2-2.9 2.3-3.4 1.1-.6 2.8-.2 4.2 0 .5 0 1.1.6 1.3 1 1 1.9.9 2.4-.3 5.3h7.9c-3-1.8-3.8-4.6-4.7-7.3-1.4-4-2.9-7.9-4.5-12.5-.7.9-1.1 1.4-1.4 1.9-1.4 3.4-2.7 6.8-4.2 10.2-1.1 2.6-1.4 5.7-4.4 7.1-.1 0 0 .2 0 .4h5.7zm2.5-14.3c.2.1.3.1.5.2.6 1.8 1.2 3.6 1.6 5.4.1.3-.5 1.1-.9 1.1-1.2.1-2.4.1-4.2.1 1.2-2.5 2.1-4.6 3-6.8zm-13.7 142c-2.4-.8-4.8-1.9-7.3-2.3-4.3-.6-8.7 2.2-10.2 6.1-1.7 4.4-.4 8.6 3.4 11.5 2.4 1.8 5.2 2.4 8.2 2.5 1.7.1 3.7-2.1 3.8-4.1-.5.4-.8.7-1.2 1-3.6 3.4-9.4 1.9-10.6-3-1.1-4.3 0-8.2 3.4-11.2 3.5-3.1 8.7-1.6 10.1 2.8.1.4.3.8.5 1.3.2 0 .4 0 .7-.1v-3.7c-.2-.4-.6-.8-.8-.8zm-36.4-20.2s.2-.1.3-.3c-1.7-2.1-3.4-4.2-5.3-6.5 0 2.2-.7 4-2.4 5.3-2.3 1.9-4.8 3.5-6.9 5.6-1.6 1.6-3 2.6-5.1 1 0 0-.2.1-.3.2 1.7 2.1 3.4 4.2 5.4 6.7.1-1.7-1-2.9.6-4 3-2.2 5.9-4.6 8.7-7.1 1.6-1.4 3.1-2 5-.9zm99.1-104.8c-2.4 2.7-4.8 5.4-7.1 8.3-1.3 1.7-2.5 3.3-5.1 1.5v.7c2.1 1.8 4.2 3.5 6.3 5.3.2-.1.3-.2.5-.4-.4-1.1-1.8-2-.5-3.4 2.6-2.8 5.1-5.7 7.5-8.6 1.2-1.5 2.4-2.6 4.5-1.8 0 0 .1-.2.3-.4-2-1.7-4.1-3.4-6.2-5l-.3.3c.1.3.2.7.4.9.8.9.4 1.7-.3 2.6zm-21.6 134.1-.9-2.4c-1.4-3.4-2.7-6.8-4.1-10.4-1.8 1.3-3.5 2.5-5.5 3.9.7.1.9.2 1.1.2 1.9-.6 2.6.3 3.2 2 .9 2.7 2 5.4 3.2 8 .8 1.8 1.6 3.4-.8 4.6-.1 0 0 .3.1.8 2.7-1.2 5.3-2.2 7.9-3.3v-.8c-2.9.9-3.6-.7-4.2-2.6zm33.4-49.3c-.4-.5-.9-.9-1.4-1.4-1.7 3.8-3.2 7.3-4.8 10.9 1.2.8 2.6 1.7 4.3 2.9-.6-1.6-1.4-2.7-1.2-3.4.8-2.4 1.9-4.7 3.2-7.6 3.7 5 7.2 9.8 10.8 14.6.8-1.3.6-2.4-.3-3.5-3.6-4.2-7.1-8.4-10.6-12.5zm-132.3-17.3c2.3-1.2 4.6-2 6.5-3.5 1.9-1.5 3-3.8 4.1-5.9-.2-.2-.4-.3-.5-.5-2.1 1.5-4.2 2.9-6.3 4.4l-.4-.4c1.1-1.5 2.2-3.1 3.4-4.8-3.9.9-7.6 4.6-6.8 10.7zm122.1-25.7c-1.7 4.1.1 9.8 4 11.4l-2.7-7.8.3-.2 4.4 5.8c.3-4.5-2.2-7.2-6-9.2zm-103.7-2.8c-.2-.1-.3-.1-.5-.2l-1.8 2.7.6.3c1.5-.3 1.8-1.4 1.7-2.8zm-4.3 35.4h.6c.1-1 .1-2 .2-3h-.8v3zm194.3-69.1h-11.9v23.6h-5.1v-27.6h17v4zm28.9 9.8a14.67 14.67 0 0 1-3.8 10.1c-1.2 1.3-2.7 2.2-4.4 2.9-1.7.7-3.6 1.1-5.7 1.1s-4-.4-5.7-1.1c-1.7-.7-3.2-1.7-4.4-2.9a13.95 13.95 0 0 1-3.9-10.1c0-2 .3-3.9 1-5.6s1.6-3.2 2.9-4.5c1.2-1.3 2.7-2.2 4.4-2.9 1.7-.7 3.6-1.1 5.7-1.1 1.4 0 2.7.2 3.9.5 1.2.3 2.4.8 3.4 1.4 1 .6 2 1.3 2.8 2.2a12.62 12.62 0 0 1 3.4 6.2c.2 1.2.4 2.5.4 3.8zm-5.3 0c0-1.5-.2-2.9-.6-4.1s-1-2.2-1.7-3.1c-.7-.8-1.7-1.5-2.7-1.9-1.1-.4-2.3-.7-3.6-.7s-2.6.2-3.6.7c-1.1.4-2 1.1-2.7 1.9-.8.8-1.3 1.9-1.7 3.1-.4 1.2-.6 2.6-.6 4.1 0 1.5.2 2.9.6 4.1.4 1.2 1 2.2 1.7 3.1.8.8 1.7 1.5 2.7 1.9 1.1.4 2.3.7 3.6.7s2.6-.2 3.6-.7 2-1.1 2.7-1.9c.8-.8 1.3-1.8 1.7-3.1.4-1.2.6-2.6.6-4.1zm39.7-13.8v27.6h-4.5v-17.8c0-.7 0-1.5.1-2.3l-8.3 15.7c-.4.8-1 1.1-1.8 1.1h-.7a2 2 0 0 1-1.8-1.1l-8.4-15.7c0 .4.1.8.1 1.2v18.9h-4.5v-27.6h4.5c.2 0 .3 0 .4.1.1.1.3.1.4.2.1.1.2.3.3.5l8.3 15.3c.2.4.4.8.6 1.3.2.4.4.9.5 1.3.2-.5.4-.9.6-1.4.2-.4.4-.9.6-1.3l8.1-15.3c.1-.2.2-.3.3-.5.1-.1.2-.2.4-.2.1-.1.3-.1.4-.1h4.4zm11.2 4.1v7.6h9.6v3.9h-9.6v7.8h12.2v4.1h-17.4v-27.5h17.4v4.1h-12.2zm39 23.5h-5.2v-23.6h-7.5c-.2 3.5-.4 6.4-.8 9-.3 2.5-.7 4.7-1.2 6.4-.5 1.8-1 3.2-1.5 4.3-.6 1.1-1.2 2-1.9 2.6-.7.6-1.4 1-2.2 1.3a10.07 10.07 0 0 1-4.5.1c-.4-.2-.6-.4-.6-.7v-3.2h1.5c.3 0 .7 0 1-.1.3-.1.7-.2 1-.5.3-.2.7-.6 1-1.1.3-.5.6-1.1.9-1.9.3-.8.6-1.8.8-2.9.3-1.2.5-2.5.7-4.2a133.81 133.81 0 0 0 1-13h17.5v27.5zm15.8-16.2c1.8 0 3.3.2 4.6.6 1.3.4 2.3.9 3.1 1.6a6.9 6.9 0 0 1 2.4 5.4c0 1.3-.2 2.5-.7 3.5a6 6 0 0 1-2 2.7c-.9.8-1.9 1.3-3.2 1.7s-2.7.6-4.3.6h-9.6v-27.5h5.1v11.4h4.6zm0 12.2c1 0 1.8-.1 2.4-.3.6-.2 1.2-.5 1.6-.9.4-.4.7-.8.8-1.3.2-.5.2-1 .2-1.6 0-.6-.1-1.2-.2-1.7-.2-.5-.4-.9-.8-1.3-.4-.3-.9-.6-1.5-.8-.6-.2-1.4-.3-2.4-.3h-4.5v8.2h4.4zm32.9-2.5c.3 0 .5.1.7.3l2 2.2a11.7 11.7 0 0 1-4.1 3.2c-1.6.7-3.6 1.1-5.9 1.1-2 0-3.9-.3-5.5-1s-3-1.7-4.2-2.9c-1.2-1.2-2-2.7-2.7-4.5-.6-1.7-.9-3.6-.9-5.7s.3-4 1-5.7c.7-1.7 1.6-3.2 2.8-4.5a13.04 13.04 0 0 1 9.8-3.9c2 0 3.8.3 5.3 1 1.6.7 2.9 1.5 4 2.6l-1.7 2.4c-.1.2-.2.3-.4.4s-.4.2-.7.2c-.2 0-.4-.1-.6-.2-.2-.1-.4-.2-.7-.4-.2-.2-.5-.3-.8-.5-.3-.2-.7-.4-1.1-.5-.4-.2-.9-.3-1.5-.4s-1.2-.2-1.9-.2c-1.2 0-2.4.2-3.4.7a7 7 0 0 0-2.6 1.9c-.7.8-1.3 1.8-1.7 3.1-.4 1.2-.6 2.6-.6 4.1 0 1.6.2 2.9.7 4.1.4 1.2 1 2.2 1.8 3.1a7.92 7.92 0 0 0 5.9 2.6c.7 0 1.3 0 1.9-.1.6-.1 1.1-.2 1.6-.4s.9-.4 1.4-.6c.4-.3.8-.6 1.3-1 .1-.1.3-.2.4-.3.1-.2.2-.2.4-.2zm29.7 6.5h-4.7c-.5 0-.9-.1-1.2-.4-.3-.3-.6-.6-.9-1.1l-5.9-9.3c-.2-.3-.3-.5-.5-.7-.2-.2-.4-.3-.6-.4-.2-.1-.4-.2-.7-.2s-.5-.1-.8-.1h-3.1v12.1h-5.1v-27.5h5.1v11.6h2.6c.5 0 1-.1 1.4-.3.4-.2.7-.5 1.1-1l6-8.9c.3-.4.6-.7.9-1 .3-.3.8-.4 1.2-.4h4.4l-7.5 11.1c-.3.5-.7.9-1.1 1.2-.4.3-.9.6-1.4.7.8.2 1.4.6 1.9 1 .5.5 1 1.1 1.5 1.9l7.4 11.7zm26.3-27.6v27.6h-5.1v-19.3c0-.7.1-1.5.2-2.3-.3.7-.5 1.4-.8 2-.3.6-.6 1.1-.9 1.6l-10.5 16.4c-.1.2-.3.4-.4.6-.2.2-.3.4-.5.5-.2.1-.4.3-.6.4-.2.1-.5.1-.7.1h-3.9v-27.6h5.1v19.3c0 .7-.1 1.5-.2 2.3.3-.7.5-1.4.8-2 .3-.6.6-1.1.9-1.6l10.5-16.4c.1-.2.3-.4.4-.6.2-.2.3-.4.5-.5.2-.1.4-.3.6-.4.2-.1.5-.1.7-.1h3.9zm29.4 0v27.6h-5.1v-19.3c0-.7.1-1.5.2-2.3-.3.7-.5 1.4-.8 2-.3.6-.6 1.1-.9 1.6l-10.5 16.4c-.1.2-.3.4-.4.6-.2.2-.3.4-.5.5-.2.1-.4.3-.6.4-.2.1-.5.1-.7.1h-3.9v-27.6h5.1v19.3c0 .7-.1 1.5-.2 2.3.3-.7.5-1.4.8-2 .3-.6.6-1.1.9-1.6l10.5-16.4c.1-.2.3-.4.4-.6.2-.2.3-.4.5-.5.2-.1.4-.3.6-.4.2-.1.5-.1.7-.1h3.9zm-11.4-4c.5 0 .9 0 1.2-.1.3-.1.6-.2.8-.5.2-.2.3-.5.4-.9.1-.4.1-.9.1-1.4h2.8c.3 0 .6.1.7.4.2.3.2.6.2.9 0 .6-.1 1.2-.4 1.7-.3.5-.7.9-1.3 1.2-.5.3-1.2.6-2 .8-.8.2-1.6.3-2.6.3-.9 0-1.8-.1-2.6-.3-.8-.2-1.4-.4-2-.8-.5-.3-1-.7-1.3-1.2-.3-.5-.4-1.1-.4-1.7 0-.3.1-.6.2-.9.2-.3.4-.4.7-.4h2.8c0 .6 0 1.1.1 1.4.1.4.2.7.4.9.2.2.4.4.8.5.6.1.9.1 1.4.1zm-231 77.3h-5.2v-23.6h-7.5c-.2 3.5-.4 6.4-.8 9-.3 2.5-.7 4.7-1.2 6.4-.5 1.8-1 3.2-1.5 4.3-.6 1.1-1.2 2-1.9 2.6-.7.6-1.4 1-2.2 1.3a10.07 10.07 0 0 1-4.5.1c-.4-.2-.6-.4-.6-.7v-3.2h1.5c.3 0 .7 0 1-.1.3-.1.7-.2 1-.5.3-.2.7-.6 1-1.1.3-.5.6-1.1.9-1.9.3-.8.6-1.8.8-2.9.3-1.2.5-2.5.7-4.2a133.81 133.81 0 0 0 1-13h17.5v27.5zm29.4-27.5v27.5h-5.1v-19.2c0-.7.1-1.5.2-2.3-.3.7-.5 1.4-.8 2-.3.6-.6 1.1-.9 1.6l-10.5 16.4c-.1.2-.3.4-.4.6-.2.2-.3.4-.5.5-.2.1-.4.3-.6.4-.2.1-.5.1-.7.1h-3.9v-27.6h5.1v19.3c0 .7-.1 1.5-.2 2.3.3-.7.5-1.4.8-2 .3-.6.6-1.1.9-1.6l10.5-16.4c.1-.2.3-.4.4-.6.2-.2.3-.4.5-.5.2-.1.4-.3.6-.4.2-.1.5-.1.7-.1h3.9zm29.5 27.5h-4.7c-.5 0-.9-.1-1.2-.4-.3-.3-.6-.6-.9-1.1l-5.9-9.3c-.2-.3-.3-.5-.5-.7-.2-.2-.4-.3-.6-.4-.2-.1-.4-.2-.7-.2s-.5-.1-.8-.1h-3.1v12.2h-5.1v-27.5h5.1v11.5h2.6c.5 0 1-.1 1.4-.3.4-.2.7-.5 1.1-1l6-8.9c.3-.4.6-.7.9-1 .3-.3.8-.4 1.2-.4h4.4l-7.5 11.1c-.3.5-.7.9-1.1 1.2-.4.3-.9.6-1.4.7.8.2 1.4.6 1.9 1 .5.5 1 1.1 1.5 1.9l7.4 11.7zm8.3-23.4v7.6h9.6v3.9h-9.6v7.8h12.2v4.1h-17.4v-27.5h17.4v4.1h-12.2zm25.7-4.1c1.8 0 3.4.2 4.8.6a8.07 8.07 0 0 1 5.3 4.6c.4 1.1.6 2.3.6 3.5 0 1.3-.2 2.6-.7 3.7-.4 1.1-1.1 2.1-2 2.9-.9.8-2 1.4-3.3 1.9-1.3.4-2.9.7-4.7.7h-3.8v9.7h-5.1v-27.6h8.9zm0 13.8c.9 0 1.8-.1 2.5-.4.7-.2 1.3-.6 1.7-1 .5-.4.8-1 1-1.6.2-.6.3-1.3.3-2.1 0-.7-.1-1.4-.3-2-.2-.6-.6-1.1-1-1.5-.5-.4-1-.7-1.7-1a9 9 0 0 0-2.5-.3h-3.8v9.9h3.8zm41 0a14.67 14.67 0 0 1-3.8 10.1c-1.2 1.3-2.7 2.2-4.4 2.9-1.7.7-3.6 1.1-5.7 1.1s-4-.4-5.7-1.1a12.94 12.94 0 0 1-7.3-7.4c-.7-1.7-1-3.6-1-5.6 0-2 .3-3.9 1-5.6s1.6-3.2 2.9-4.5 2.7-2.2 4.4-2.9c1.7-.7 3.6-1.1 5.7-1.1 1.4 0 2.7.2 3.9.5 1.2.3 2.4.8 3.4 1.4 1 .6 2 1.3 2.8 2.2a12.62 12.62 0 0 1 3.4 6.2c.2 1.1.4 2.4.4 3.8zm-5.3 0c0-1.5-.2-2.9-.6-4.1-.4-1.2-1-2.2-1.7-3.1-.7-.8-1.7-1.5-2.7-1.9-1.1-.4-2.3-.7-3.6-.7-1.3 0-2.6.2-3.6.7-1.1.4-2 1.1-2.7 1.9-.8.8-1.3 1.9-1.7 3.1-.4 1.2-.6 2.6-.6 4.1 0 1.5.2 2.9.6 4.1.4 1.2 1 2.2 1.7 3.1.8.8 1.7 1.5 2.7 1.9 1.1.4 2.3.7 3.6.7 1.3 0 2.6-.2 3.6-.7 1.1-.4 2-1.1 2.7-1.9.8-.8 1.3-1.8 1.7-3.1.4-1.3.6-2.6.6-4.1zm9-1.5h9.9v3.9h-9.9v-3.9zm24.6-12.3c1.8 0 3.3.2 4.6.5 1.3.3 2.3.8 3.2 1.5.8.6 1.4 1.4 1.8 2.3a7.45 7.45 0 0 1 .3 5 7 7 0 0 1-.9 1.7c-.4.5-.9 1-1.5 1.4-.6.4-1.4.8-2.2 1.1 3.8.9 5.7 2.9 5.7 6.1a7.92 7.92 0 0 1-2.6 5.8c-.9.7-1.9 1.3-3.1 1.7-1.2.4-2.7.6-4.3.6h-10.4v-27.7h9.4zm-4.3 3.9v8h4.1c1.8 0 3.1-.3 4-1 .9-.6 1.3-1.6 1.3-3s-.4-2.5-1.2-3.1c-.8-.6-2.1-.9-3.8-.9h-4.4zm5.2 19.6c1 0 1.8-.1 2.4-.3.6-.2 1.2-.5 1.6-.9.4-.4.7-.8.8-1.3.2-.5.3-1 .3-1.6 0-.6-.1-1.1-.3-1.6-.2-.5-.5-.9-.9-1.2-.4-.3-.9-.6-1.6-.8-.6-.2-1.4-.3-2.3-.3h-5.2v8.1h5.2zm41-9.7a14.67 14.67 0 0 1-3.8 10.1c-1.2 1.3-2.7 2.2-4.4 2.9-1.7.7-3.6 1.1-5.7 1.1s-4-.4-5.7-1.1a12.25 12.25 0 0 1-7.2-7.4c-.7-1.7-1-3.6-1-5.6a14.67 14.67 0 0 1 3.8-10.1c1.2-1.3 2.7-2.2 4.4-2.9 1.7-.7 3.6-1.1 5.7-1.1 1.4 0 2.7.2 3.9.5s2.4.8 3.4 1.4c1 .6 2 1.3 2.8 2.2a12.62 12.62 0 0 1 3.4 6.2c.3 1.1.4 2.4.4 3.8zm-5.2 0c0-1.5-.2-2.9-.6-4.1s-1-2.2-1.7-3.1c-.7-.8-1.7-1.5-2.7-1.9-1.1-.4-2.3-.7-3.6-.7-1.3 0-2.6.2-3.6.7-1.1.4-2 1.1-2.7 1.9-.8.8-1.3 1.9-1.7 3.1s-.6 2.6-.6 4.1c0 1.5.2 2.9.6 4.1.4 1.2 1 2.2 1.7 3.1.8.8 1.7 1.5 2.7 1.9s2.3.7 3.6.7a8.27 8.27 0 0 0 6.3-2.6c.8-.8 1.3-1.8 1.7-3.1.4-1.3.6-2.6.6-4.1zm35.6 9.8v9c0 .4-.2.8-.4 1.1-.3.3-.7.4-1.2.4h-3.1v-6.6h-20.2v5.1c0 .4-.1.8-.4 1.1-.3.3-.7.4-1.2.4h-3.1v-10.5h3c.4-.2.7-.5 1.1-.9.3-.4.7-1 1-1.8a33.42 33.42 0 0 0 1.7-7.2c.2-1.7.4-3.7.6-5.9.2-2.3.3-4.9.4-7.8h17.5v23.6h4.3zm-9.4 0v-19.7h-7.5c-.2 2.7-.4 5.1-.6 7.2-.3 2.1-.6 3.9-.9 5.5-.3 1.6-.7 2.9-1.1 4.1-.4 1.1-.9 2.1-1.4 2.9h11.5zm38.9-9.8a14.67 14.67 0 0 1-3.8 10.1c-1.2 1.3-2.7 2.2-4.4 2.9-1.7.7-3.6 1.1-5.7 1.1s-4-.4-5.7-1.1a12.94 12.94 0 0 1-7.3-7.4c-.7-1.7-1-3.6-1-5.6 0-2 .3-3.9 1-5.6s1.6-3.2 2.9-4.5 2.7-2.2 4.4-2.9c1.7-.7 3.6-1.1 5.7-1.1 1.4 0 2.7.2 3.9.5s2.4.8 3.4 1.4c1 .6 2 1.3 2.8 2.2a12.62 12.62 0 0 1 3.4 6.2c.3 1.1.4 2.4.4 3.8zm-5.2 0c0-1.5-.2-2.9-.6-4.1-.4-1.2-1-2.2-1.7-3.1-.7-.8-1.7-1.5-2.7-1.9-1.1-.4-2.3-.7-3.6-.7-1.3 0-2.6.2-3.6.7-1.1.4-2 1.1-2.7 1.9-.8.8-1.3 1.9-1.7 3.1-.4 1.2-.6 2.6-.6 4.1 0 1.5.2 2.9.6 4.1.4 1.2 1 2.2 1.7 3.1.8.8 1.7 1.5 2.7 1.9 1.1.4 2.3.7 3.6.7 1.3 0 2.6-.2 3.6-.7 1.1-.4 2-1.1 2.7-1.9.8-.8 1.3-1.8 1.7-3.1.4-1.3.6-2.6.6-4.1zm29.4-13.8v27.5h-5.2v-11c-1.5.4-2.9.6-4.3.8-1.4.2-2.6.2-3.8.2s-2.3-.3-3.3-.6-1.8-.8-2.5-1.5-1.2-1.5-1.6-2.6c-.4-1-.6-2.3-.6-3.7v-9.1h5.2v9.1c0 1.1.2 2 .6 2.7.4.7 1 1.2 1.8 1.6.8.3 2 .5 3.4.4 1.4-.1 3.1-.3 5.2-.8v-13h5.1zm29.3 0v27.5h-5.1v-12h-12.9v12h-5.1v-27.5h5.1v11.9h12.9v-11.9h5.1zm15.8 11.4c1.8 0 3.3.2 4.6.6 1.3.4 2.3.9 3.1 1.6a6.9 6.9 0 0 1 2.4 5.4c0 1.3-.2 2.5-.7 3.5a6 6 0 0 1-2 2.7c-.9.8-1.9 1.3-3.2 1.7s-2.7.6-4.3.6h-9.6v-27.5h5.1v11.4h4.6zm0 12.1c1 0 1.8-.1 2.4-.3.6-.2 1.2-.5 1.6-.9.4-.4.7-.8.8-1.3.2-.5.2-1 .2-1.6 0-.6-.1-1.2-.2-1.7-.2-.5-.4-.9-.8-1.3-.4-.3-.9-.6-1.5-.8-.6-.2-1.4-.3-2.4-.3h-4.5v8.2h4.4zm19.3 4h-5.1v-27.5h5.1v27.5zm29.4-27.5v27.5h-5.1v-19.2c0-.7.1-1.5.2-2.3-.3.7-.5 1.4-.8 2-.3.6-.6 1.1-.9 1.6l-10.5 16.4c-.1.2-.3.4-.4.6-.2.2-.3.4-.5.5-.2.1-.4.3-.6.4-.2.1-.5.1-.7.1h-3.9v-27.6h5.1v19.3c0 .7-.1 1.5-.2 2.3.3-.7.5-1.4.8-2 .3-.6.6-1.1.9-1.6l10.5-16.4c.1-.2.3-.4.4-.6.2-.2.3-.4.5-.5.2-.1.4-.3.6-.4.2-.1.5-.1.7-.1h3.9zm-11.4-4c.5 0 .9 0 1.2-.1.3-.1.6-.2.8-.5.2-.2.3-.5.4-.9.1-.4.1-.9.1-1.4h2.8c.3 0 .6.1.7.4.2.3.2.6.2.9 0 .6-.1 1.2-.4 1.7-.3.5-.7.9-1.3 1.2-.5.3-1.2.6-2 .8-.8.2-1.6.3-2.6.3-.9 0-1.8-.1-2.6-.3-.8-.2-1.4-.4-2-.8-.5-.3-1-.7-1.3-1.2-.3-.5-.4-1.1-.4-1.7 0-.3.1-.6.2-.9.2-.3.4-.4.7-.4h2.8c0 .6 0 1.1.1 1.4.1.4.2.7.4.9.2.2.4.4.8.5.5.1.9.1 1.4.1zm-394.4 52.3c1.1-.9 2.3-1.6 3.8-2.1s3.1-.8 4.9-.8c1.5 0 2.8.2 4 .5 1.2.4 2.2.9 3.1 1.5.8.6 1.5 1.4 1.9 2.3a6.76 6.76 0 0 1-.2 6.4c-.6 1-1.5 1.9-2.7 2.5a9.9 9.9 0 0 1 3.1 2.5c.4.5.7 1 .9 1.6.2.6.3 1.2.3 1.9a8.42 8.42 0 0 1-2.7 6.3c-.9.8-2 1.4-3.3 1.9s-2.8.7-4.4.7c-1 0-1.9-.1-2.8-.3-.9-.2-1.8-.4-2.6-.7-.8-.3-1.6-.7-2.4-1.1-.7-.4-1.4-.9-2-1.5l1.5-2.5c.1-.2.3-.3.5-.4.2-.1.4-.2.7-.2.3 0 .7.1 1.1.4.4.3.9.5 1.4.9.6.3 1.2.6 2 .9.8.3 1.7.4 2.8.4 1.7 0 3-.4 4-1.1.9-.7 1.4-1.9 1.4-3.4 0-.6-.1-1.2-.4-1.7-.3-.5-.6-.9-1.1-1.3-.5-.3-1-.6-1.7-.8-.7-.2-1.4-.3-2.2-.3h-3.9v-4.1h3.5c1.6 0 2.8-.3 3.7-.9.9-.6 1.3-1.5 1.3-2.7 0-1.1-.4-1.9-1.3-2.5-.8-.6-2.1-.9-3.7-.9-.9 0-1.7.1-2.4.3-.7.2-1.2.4-1.7.7-.5.2-.9.5-1.2.7-.3.2-.6.3-.9.3-.3 0-.5-.1-.6-.2-.2-.1-.3-.3-.5-.6l-1.2-2.6zm47.2 25h-4c-.4 0-.8-.1-1.1-.3-.3-.2-.5-.5-.6-.8l-2.1-5.6h-11.4l-2.1 5.6c-.1.3-.3.6-.6.8-.3.2-.7.4-1.1.4h-4l10.8-27.6h5.2l11 27.5zm-9-10.4-3.4-9.2c-.2-.4-.3-.9-.5-1.4-.2-.6-.4-1.2-.5-1.8-.2.6-.3 1.3-.5 1.8-.2.6-.4 1.1-.5 1.5l-3.3 9.1h8.7zm21.3-17.2c1.8 0 3.3.2 4.6.5 1.3.3 2.3.8 3.2 1.5.8.6 1.4 1.4 1.8 2.3a7.45 7.45 0 0 1 .3 5c-.2.6-.5 1.1-.9 1.7s-.9 1-1.5 1.4c-.6.4-1.4.8-2.2 1.1 3.8.9 5.7 2.9 5.7 6.1a7.92 7.92 0 0 1-2.6 5.8c-.9.7-1.9 1.3-3.1 1.7-1.2.4-2.7.6-4.3.6h-10.4v-27.6h9.4zm-4.3 4v8h4.1c1.8 0 3.1-.3 4-1 .9-.6 1.3-1.6 1.3-3s-.4-2.5-1.2-3.1c-.8-.6-2.1-.9-3.8-.9h-4.4zm5.2 19.6c1 0 1.8-.1 2.4-.3.6-.2 1.2-.5 1.6-.9s.7-.8.8-1.3c.2-.5.3-1 .3-1.6 0-.6-.1-1.1-.3-1.6-.2-.5-.5-.9-.9-1.2-.4-.3-.9-.6-1.6-.8-.6-.2-1.4-.3-2.3-.3h-5.2v8.1h5.2zm41-9.8a14.67 14.67 0 0 1-3.8 10.1c-1.2 1.3-2.7 2.2-4.4 2.9-1.7.7-3.6 1.1-5.7 1.1s-4-.4-5.7-1.1a12.25 12.25 0 0 1-7.2-7.4c-.7-1.7-1-3.6-1-5.6a14.67 14.67 0 0 1 3.8-10.1c1.2-1.3 2.7-2.2 4.4-2.9 1.7-.7 3.6-1.1 5.7-1.1 1.4 0 2.7.2 3.9.5 1.2.3 2.4.8 3.4 1.4 1 .6 2 1.3 2.8 2.2a12.62 12.62 0 0 1 3.4 6.2c.3 1.2.4 2.5.4 3.8zm-5.2 0c0-1.5-.2-2.9-.6-4.1s-1-2.2-1.7-3.1c-.7-.8-1.7-1.5-2.7-1.9-1.1-.4-2.3-.7-3.6-.7-1.3 0-2.6.2-3.6.7-1.1.4-2 1.1-2.7 1.9-.8.8-1.3 1.9-1.7 3.1-.4 1.2-.6 2.6-.6 4.1 0 1.5.2 2.9.6 4.1.4 1.2 1 2.2 1.7 3.1.8.8 1.7 1.5 2.7 1.9 1.1.4 2.3.7 3.6.7 1.3 0 2.6-.2 3.6-.7 1.1-.4 2-1.1 2.7-1.9.8-.8 1.3-1.8 1.7-3.1.4-1.2.6-2.6.6-4.1zm35.6 9.9v9c0 .4-.2.8-.4 1.1-.3.3-.7.4-1.2.4h-3.1v-6.6h-20.2v5.1c0 .4-.1.8-.4 1.1-.3.3-.7.4-1.2.4h-3.1v-10.5h3c.4-.2.7-.5 1.1-.9.3-.4.7-1 1-1.8a33.42 33.42 0 0 0 1.7-7.2c.2-1.7.4-3.7.6-5.9.2-2.3.3-4.9.4-7.8h17.5v23.6h4.3zm-9.4 0v-19.7h-7.5c-.2 2.7-.4 5.1-.6 7.2-.3 2.1-.6 3.9-.9 5.5-.3 1.6-.7 2.9-1.1 4.1-.4 1.1-.9 2.1-1.4 2.9h11.5z"/></svg>