<svg viewBox="0 0 169 173" fill="none" xmlns="http://www.w3.org/2000/svg"><g clip-path="url(#a)" fill="#fff"><path d="m162.06 0-.33.36-19.17 2.65c-1.8 5.13-3.9 16.58-25.5 27.43v22.3l9.9 1.51s6.9-2.41 12.3-6.93v61.79l22.8 1.8v-.5l6-4.32v-99.76l-6-6.33Zm-68.1 25.32h-.3l-31.5-6.03-.15.45-.15-.45-13.5 6.93-48.3 139.25 9 7.53 37.8-3.92 9-31.34 33.06-1.63 6.54 22.42 11.4 4.22 27-3.01-39.9-134.42Zm-27.9 85.3-1.08 1.47c.36-.51.75-1 1.1-1.48h-3.6l10.54-34.9 9.57 34.9h-16.53Z"/></g><defs><clipPath id="a"><path fill="#fff" transform="translate(.056)" d="M0 0h168v173h-168z"/></clipPath></defs></svg>