<svg version="1.1" id="Слой_1" xmlns="http://www.w3.org/2000/svg" x="0" y="0" viewBox="0 0 1433.11 200" style="enable-background:new 0 0 1433.11 200" xml:space="preserve"><style>.st0{fill:#fff}</style><path class="st0" d="M81.24.83c1.29-.09 2.58-.26 3.87-.26 38.81-.02 77.61-.03 116.41-.01 15.32.01 26.33 6.53 32.82 20.78 23.31 51.13 47.02 102.08 70.14 153.29 6.27 13.88 16.82 20.27 31.19 22l9.62 1.19-.16 1.37h-184.67l-.31-.62c1.06-.42 2.09-1.04 3.19-1.21 5.04-.8 10.11-1.37 15.14-2.24a21.98 21.98 0 0 0 5.65-1.89c6.2-2.93 8.41-7.92 6.34-14.45-.86-2.71-2.06-5.32-3.22-7.92l-63.5-142.37c-.51-1.14-1.09-2.24-1.53-3.4-5.33-13.95-15.85-20.43-30.44-21.28-3.58-.21-7.12-1.03-10.68-1.58l.14-1.4zm71.79 10.64-1.03.62c.45 1.11.87 2.23 1.36 3.32 8.27 18.35 16.56 36.69 24.82 55.04 15.77 35.01 31.52 70.03 47.33 105.02 1.17 2.59 2.7 5.02 4.06 7.53l1.21-.55c-.93-2.77-1.64-5.65-2.82-8.31-17.92-40.3-35.9-80.58-53.88-120.85-4.61-10.32-9.09-20.7-13.97-30.89-1.88-3.88-4.7-7.3-7.08-10.93zm39.08-.24-1.26.73c26.08 56.95 51.34 114.26 78.34 170.83-.2-3.09-.97-5.94-2.16-8.62a36528.35 36528.35 0 0 0-37.14-83.46c-10.23-22.92-20.42-45.85-30.85-68.68-1.76-3.85-4.6-7.21-6.93-10.8zm171.99 115.45h1068.43v9.07h-4.03c-353.32 0-706.65-.01-1059.97.08-3.67 0-4.96-1.1-4.46-4.62.18-1.33.03-2.71.03-4.53zm118.13-14.89h-12.48c-6.61 0-13.22-.09-19.83.04-2.55.05-3.54-.77-3.58-3.39-.05-4.09-.54-8.17-.72-12.27-.09-2.04-.95-2.78-3.01-2.76-10.85.07-21.7-.03-32.55.13-1.13.02-2.7 1.15-3.29 2.2-2.48 4.45-4.58 9.11-7.02 13.58-.56 1.03-1.88 2.32-2.87 2.33-10.7.17-21.4.1-32.87.1.89-1.73 1.42-2.9 2.06-4.01 20.28-34.82 40.58-69.63 60.81-104.47 1.13-1.95 2.38-2.81 4.71-2.78 10.1.12 20.21.12 30.31 0 2.55-.03 3.73.56 4.13 3.35 3.6 25.07 7.33 50.12 11.07 75.16 1.6 10.68 3.33 21.32 5.13 32.79zm-41.97-79.49-.81-.19-18.87 36.57h22.81l-3.13-36.38zm125.54 27.4c1.13.63 1.53.89 1.96 1.09 9.28 4.25 12.77 10.31 11.8 20.54-1.46 15.5-13.13 28.2-28.66 29.11-20.26 1.19-40.6 1.08-60.91 1.51-.35.01-.7-.19-1.53-.44.15-1.25.24-2.55.48-3.82 5.55-30.16 11.12-60.31 16.68-90.46.32-1.73.54-3.3 3.08-3.28 18.21.18 36.44-.27 54.62.48 16.73.69 24.62 14.24 18.28 29.87-2.91 7.18-8.08 12.15-15.8 15.4zm-44.26 30.99c7.14-.31 13.62-.28 20-1.05 2.32-.28 4.9-2.05 6.53-3.88 5.35-6.03 2.86-13.09-5.07-14.1-5.28-.67-10.7-.36-16.05-.28-.76.01-2.01 1.09-2.18 1.86-1.14 5.45-2.06 10.95-3.23 17.45zm6.94-38.28c4.47 0 8.31.09 12.14-.04 2.09-.07 4.24-.3 6.25-.86 4.58-1.26 7.79-6.6 7.08-11.39-.55-3.7-3.25-5.49-8.83-5.62-4.34-.1-8.68-.02-13.32-.02l-3.32 17.93zm843.16 62.71c-5.17-.7-10.43-1.03-15.51-2.16-14.82-3.29-24.75-13.6-26.65-28.62-2.28-18.02 1.38-35.07 12.04-49.94 12.99-18.11 31.59-24.52 53.29-23.34 2.24.12 4.48.35 6.69.7 20.38 3.26 31.79 16.62 31.57 37.4-.12 11.41-2.29 22.55-7.23 32.88-10.06 21.07-27.13 31.7-50.42 32.6-1.25.05-2.49.01-3.74.01 0 .16-.02.32-.04.47zm30.37-62.05c0-1.24.07-2.49-.01-3.72-.49-7.67-5.63-13.28-12.92-14.13-9.72-1.14-18.14 2.91-22.79 11.59-5.16 9.64-7.11 20.1-6.22 30.97a13.7 13.7 0 0 0 11.62 12.81c10.47 1.83 19.77-2.78 24.39-12.35 3.84-7.94 5.54-16.42 5.93-25.17zm-133.51-39.51-5.8 34.17h30.09l5.92-33.95h28.59c-.9 5.58-1.72 10.92-2.63 16.25-4.43 25.94-8.95 51.87-13.25 77.83-.57 3.43-1.84 4.44-5.26 4.33-7.94-.26-15.9-.08-24.45-.08a170444 170444 0 0 1 6.73-39.52h-13.31c-4.37 0-8.75.21-13.09-.07-2.95-.19-3.83 1.01-4.25 3.67-1.74 10.93-3.75 21.81-5.46 32.75-.4 2.53-1.39 3.26-3.86 3.22-8.32-.13-16.64-.05-25.47-.05 1.16-6.98 2.2-13.44 3.32-19.89 4.38-25.31 8.76-50.61 13.24-75.9.18-1.02 1.42-2.62 2.19-2.64 8.7-.19 17.41-.12 26.75-.12zm-481.64.46c-1.25 7.26-2.39 14.07-3.6 20.86-4.25 23.73-8.53 47.46-12.79 71.19-.95 5.29-.91 5.3-6.19 5.3h-23.47l6.89-38.69h-29.6c-1.73 9.41-3.43 18.8-5.2 28.19-.64 3.39-.4 8-2.49 9.75-2.11 1.75-6.62.7-10.08.74-5.71.06-11.42.02-17.57.02.18-1.61.23-2.81.45-3.98 5.45-30.19 10.9-60.38 16.47-90.54.2-1.07 1.67-2.69 2.58-2.71 8.46-.21 16.93-.12 26.19-.12l-5.9 33.98c9.65 0 18.98.05 28.3-.11.65-.01 1.65-1.6 1.84-2.58 1.84-9.49 3.49-19.02 5.36-28.51.2-1.03 1.43-2.63 2.21-2.65 8.68-.21 17.38-.14 26.6-.14zm318.83 75.09-4.19 22.78h-81.29l17.78-98.14h79.82c-1.23 6.85-2.31 13.42-3.75 19.92-.16.72-2.38 1.39-3.65 1.4-13.85.1-27.7.06-41.55.06h-4.46l-2.7 15.08h45.96c-1.16 6.49-2.14 12.59-3.48 18.61-.18.78-2.26 1.6-3.47 1.61-12.73.12-25.46.07-38.18.07h-4.47l-3.36 18.6 50.99.01zm23.79-75.55c10.82 0 20.91-.09 30.99.13 1.08.02 2.62 1.64 3.11 2.86 2.95 7.25 5.64 14.61 8.44 21.93.52 1.37 1.09 2.72 1.87 4.68 4.87-6.67 10.01-12.53 13.78-19.16 4.7-8.28 10.68-12.01 20.4-10.59 6.11.89 12.44.23 18.68.29.19 0 .38.24.98.65-.86 1.16-1.66 2.33-2.55 3.43-11.01 13.66-21.98 27.37-33.13 40.92-1.72 2.09-1.71 3.59-.63 5.89 6.87 14.62 13.59 29.32 20.34 43.99.45.97.78 1.99 1.37 3.53-7.67 0-14.87.05-22.06-.02-3.82-.04-8.47.98-11.23-.81-2.62-1.69-3.3-6.4-4.77-9.81-2.79-6.5-5.52-13.03-8.53-20.15-1.01 1.18-1.78 2.02-2.49 2.91-6.61 8.42-13.25 16.82-19.76 25.31a5.92 5.92 0 0 1-5.31 2.62c-9.81-.13-19.63-.06-30.43-.06 1.36-1.81 2.15-2.96 3.04-4.04 12.22-14.77 24.39-29.58 36.74-44.24 2-2.37 2.12-4.16.82-6.92-6.17-13.03-12.09-26.18-18.09-39.3-.49-1.1-.88-2.25-1.58-4.04zm-134.9 14.95-5.3 27.5c-3.42 17.77-6.86 35.53-10.21 53.32-.34 1.79-.67 2.99-2.9 2.97-9.6-.09-19.2-.06-28.81-.09-.35 0-.69-.22-1.44-.48l15.94-83.17h-32.61c1.16-6.38 2.18-12.31 3.35-18.21.64-3.26.54-7.71 2.59-9.38 2.08-1.68 6.41-.67 9.76-.67 27.44-.03 54.88-.02 82.32-.02h4.78c0 1.23.14 2.18-.02 3.08-1.34 7.34-2.81 14.65-4.09 22-.41 2.38-1.36 3.25-3.9 3.21-9.71-.15-19.43-.06-29.46-.06zm-322.6 82.68h-29.15a22760 22760 0 0 1-1.8-15.9c-9.89 0-19.59-.06-29.28.11-.83.02-1.92 1.39-2.4 2.37-1.79 3.69-3.28 7.53-5.12 11.19-.51 1.02-1.84 2.28-2.82 2.3-8.69.18-17.39.1-26.66.1.57-1.47.85-2.5 1.33-3.43 15.93-30.37 31.9-60.71 47.8-91.1 1.05-2.01 2.22-2.93 4.58-2.89 7.98.14 15.96.17 23.94-.01 2.73-.06 3.69.97 4.1 3.48 4.33 26.49 8.74 52.96 13.12 79.44l2.36 14.34zm-51.54-37.3h18.62l-3.38-31.6c-5.34 9.85-9.93 19.74-14.51 29.63-.25.54-.42 1.12-.73 1.97zm189.43 37.39 13.36-72.94h-28.86c1.46-8.01 2.71-15.46 4.32-22.83.18-.81 2.51-1.62 3.85-1.63 24.59-.1 49.17-.07 73.75-.07h9.23c-1.02 5.81-1.9 11.13-2.9 16.44-1.53 8.08-1.57 8.07-9.86 8.07h-20.49c-1.54 8.13-3.06 16.03-4.52 23.94-2.81 15.24-5.62 30.48-8.34 45.73-.45 2.54-1.51 3.43-4.19 3.37-8.2-.2-16.41-.08-25.35-.08z"/><path class="st0" d="M153.58 145.84c.05 19.33-16.5 35.68-36.14 35.73-19.73.04-36.08-16.11-36.06-35.63.02-19.74 16.13-36.16 35.6-36.26 19.9-.12 36.56 16.34 36.6 36.16zm479.38 30.24v22.93h-9.75v-40.17c3.94 0 7.79-.21 11.6.13 1.04.09 2.29 1.67 2.84 2.84 3.71 7.99 7.25 16.05 11.2 24.87 1.78-3.83 3.28-6.96 4.71-10.13 2.3-5.1 4.48-10.26 6.92-15.29.49-1.03 1.81-2.24 2.83-2.32 3.69-.28 7.42-.11 11.3-.11v40.41c-2.7 0-5.42.25-8.04-.15-.8-.12-1.86-2.01-1.89-3.12-.18-6.44-.09-12.9-.74-19.59-.44.72-.96 1.41-1.31 2.17-2.69 5.88-5.63 11.66-7.91 17.7-1.31 3.47-3.73 2.92-6.28 3.05-2.43.13-4.09-.26-5.18-2.95-2.41-5.98-5.27-11.79-7.96-17.66-.44-.97-.96-1.91-1.44-2.86l-.9.25zm192.13-13.7c7.4-4.46 14.52-4.78 21.77-1.98 9.01 3.48 13.47 12.27 11.79 22.88a19.04 19.04 0 0 1-18.2 16.28c-3.1.13-6.29.23-9.3-.36-9.03-1.77-14.53-8.01-15.3-18.62a74.87 74.87 0 0 1 1.25-19.93c2.06-10.28 8.99-15.55 19.55-16.29 3.1-.22 6.25-.08 9.31-.55 2.49-.38 4.85-1.76 7.34-2.06 1.57-.19 3.28.77 4.93 1.22-.85 2.46-1.08 5.51-2.73 7.21-1.49 1.54-4.47 1.95-6.88 2.24-4.19.52-8.45.44-12.66.83-5.24.5-9.17 2.83-10.87 9.13zm.7 16.88c.01 7.4 3.6 12.13 9.75 12.85 6.29.73 11.48-2.76 12.56-8.98.94-5.38.87-10.84-4.1-14.58-3.8-2.86-8.15-3.02-12.36-.91-4.74 2.38-5.82 6.78-5.85 11.62zm-407.92 20.02v-40.23h10.48v24.97l.74.3c1.96-2.61 3.92-5.22 5.87-7.85 3.04-4.1 6.04-8.22 9.09-12.31 4.36-5.84 6.98-6.69 14.7-4.74v39.56h-10.68v-24.79l-1.24-.97c-.3.77-.45 1.63-.91 2.28-4.66 6.45-9.55 12.75-13.99 19.35-2.26 3.37-4.77 5.12-8.88 4.47-1.56-.25-3.19-.04-5.18-.04zm-356.42-53.47c-1.55 5.96-3.51 11.84-4.58 17.89-3.37 19.09 5 29.89 24.47 32.17 3.7.43 7.4.95 11.08 1.54.61.1 1.14.76 2.57 1.78h-94.6l-.39-.84c1.42-.57 2.8-1.49 4.27-1.65 19.15-2.1 33.16-12.18 43.16-28.05 4.08-6.48 7.17-13.58 10.77-20.37.62-1.16 1.49-2.19 2.25-3.28l1 .81zm1331.51 53.06c0-13.16-.03-25.7.07-38.24.01-.68 1-1.86 1.62-1.92 2.35-.23 4.77-.34 7.08.05.72.12 1.64 1.92 1.66 2.96.14 7.32.08 14.64.08 23.16 1.42-1.82 2.24-2.78 2.98-3.81 4.77-6.69 9.51-13.4 14.28-20.09 1.44-2.02 9.76-3.55 11.65-2.11.41.32.72 1.05.72 1.6.04 12.66.03 25.32.03 38.19h-10.5v-24.37l-.83-.28c-.72.89-1.49 1.75-2.16 2.68-4.38 6.05-8.89 12.01-13.04 18.21-2.01 3-4.21 4.6-7.91 4.02-1.69-.27-3.45-.05-5.73-.05zm-480.16-17.26h-31.93c.13 5.39 3.16 9.09 8.24 10.33 5.54 1.36 10.42-.63 12.95-5.16.35-.62 1.23-1.27 1.9-1.31 2.7-.15 5.41-.06 8.08-.06.36 8.58-8.19 14.78-19.73 14.53-15.9-.34-22.82-9.35-22.45-21.67.43-13.99 10.39-21.85 24.68-20.35 12.79 1.35 20.3 10.83 18.26 23.69zm-31.89-7.44h21.38c-1.78-6.01-5.46-8.8-10.94-8.7-5.34.09-8.86 2.9-10.44 8.7zm-271.39 11.23c.01 9.78-10.04 15.24-21.31 14.41-14.59-1.07-22.3-9.74-21.06-22.96 1.21-12.92 10.96-20.42 24.62-18.94 12.87 1.39 20.04 10.37 18.48 23.54h-31.95c-.14 5.35 2.88 9.15 7.97 10.43 5.5 1.38 10.75-.57 12.96-4.65.43-.8 1.5-1.68 2.34-1.76 2.57-.21 5.18-.07 7.95-.07zm-10.28-11.41c-.94-5.33-4.7-8.42-10.21-8.54-5.57-.12-9.58 3.06-10.6 8.54h20.81zm514.01 22.74c-6.18 3.15-12.43 3.84-18.77 2.19-5.85-1.52-9.06-5.31-9.38-10.26-.36-5.75 2.01-10.04 7.82-12.21 4.13-1.54 8.62-2.21 13-2.92 2.41-.39 4.94-.07 7.37-.07.59-4.77-.38-6.66-3.68-7.57-6.9-1.9-12.03.09-14.29 5.61h-8.75c-.36-5.32 1.88-9.47 6.71-11.48a30.51 30.51 0 0 1 22.98-.34c4.98 1.85 6.9 6.09 7.03 10.93.24 9.19.07 18.39.07 27.54-4.76 1.51-8.58 1.02-10.11-1.42zm.38-16.72c-5.34.84-10.27 1.27-14.97 2.55-1.54.42-2.96 2.86-3.5 4.66-.29.99 1.06 3.16 2.22 3.76 4.64 2.39 9.16 1.16 13.55-1.14 3.84-2.02 2.67-5.42 2.7-9.83zm-44.29-21.26v39.84h-10.27v-31.97h-18.82v31.92h-10.63c-.08-1.12-.24-2.31-.25-3.49-.02-10.81.08-21.63-.07-32.44-.04-2.96.65-4.17 3.91-4.11 10.97.19 21.94.07 32.91.08.98-.01 1.95.1 3.22.17zm132.76 39.89h-10.08c-.08-1.2-.22-2.4-.23-3.59-.02-10.83.08-21.65-.07-32.48-.04-2.97.64-4.21 3.91-4.08 7.5.29 6.37-.69 6.47 6.32.04 2.96.01 5.93.01 9.2h17.74c0-4.02.16-7.98-.05-11.91-.15-2.83.89-3.83 3.65-3.57 1.97.18 3.97.04 6.31.04v40.1h-9.76v-16.19h-17.9v16.16zm63.11.99c-20.79.43-24.76-18.08-19.52-31.12a15.2 15.2 0 0 1 2.65-4.03c5.64-6.5 17.3-8.68 26.69-5.07 8.01 3.08 12.39 10.3 12.09 19.91-.41 13.25-8.04 20.31-21.91 20.31zm11.53-20.74c.06-7.07-2.91-11.77-8.26-13.07-6.37-1.55-11.9 1.35-13.72 7.19-2.55 8.17.33 16.32 6.57 18.51 8.44 2.97 15.33-2.68 15.41-12.63zm-397.58-112.69h41.41c-1.36 7.24-2.62 14.17-4.04 21.07-.13.65-1.34 1.55-2.05 1.55-12.92.09-25.85.07-39.51.07l4.19-22.69zm117.95 133.43c-13.08-.01-20.88-7.81-20.86-20.87.02-12.89 8.11-21.03 20.95-21.07 12.77-.04 20.96 8.09 21.13 20.96.15 12.93-7.99 20.98-21.22 20.98zm10.99-20.72c.02-7.94-3.32-12.64-9.49-13.38-6.69-.8-11.65 3.62-12.28 10.93-.8 9.25 3.17 15.36 10.21 15.7 7.17.36 11.55-4.67 11.56-13.25zm-49.25-.67c4.1 2.54 6.74 5.93 5.7 11.03-1.01 4.96-4.63 7.65-9.12 8.93-8.35 2.38-16.74 2.67-24.64-1.67-3.61-1.98-6.2-4.85-5.98-9.84 2.87 0 5.46-.08 8.05.06.71.04 1.57.6 2.03 1.18 3.66 4.62 13.45 5.95 17.82 2.13.92-.8 1.76-2.98 1.31-3.79-.86-1.55-2.48-3.14-4.13-3.67-2.3-.75-4.92-.54-7.4-.75l-3.1-.28v-6.63c2.92-.24 5.74-.5 8.55-.7 2.75-.2 5.2-1.26 5.28-4.19.09-3.03-2.48-4.17-5.14-4.32-4.36-.24-8.59-1.07-12.21 3.33-1.33 1.62-5.83.67-9.08.91-1.06-4.09.78-6.56 3.48-8.55 6.56-4.81 21.44-4.94 28.23-.34 6.55 4.43 6.71 10.39.35 17.16zm-447.83-5.74h-9.65c-2.3-5.55-4.71-7.16-10.1-6.81-5.14.34-8.86 3.24-9.75 8.62a27 27 0 0 0 .23 10.6c1.66 6.74 10.25 9.88 16.05 6.07 1.61-1.06 2.53-3.16 4.18-5.33h8.66c.39 6.5-3.82 11.94-11.48 13.41-4.52.87-9.49.97-13.98.05-9.93-2.05-15.43-10.64-14.76-21.64.65-10.68 7.26-17.96 17.43-19.19 5.29-.64 10.48-.42 15.32 2.05 4.78 2.42 7.56 6.25 7.85 12.17zm-106.47.16c-2.39 0-4.13-.09-5.86.02-2.53.16-4.23-.05-5.13-3.22-1.05-3.69-7.87-4.95-12.64-2.89-5.68 2.44-8.18 10.4-5.75 18.29 1.72 5.57 6.77 8.46 12.99 7.29 2.8-.53 5.19-1.62 6.01-4.83.2-.77 1.39-1.75 2.2-1.83 2.57-.24 5.18-.09 7.73-.09.56 6.65-3.73 12.19-11.49 13.65-4.63.88-9.77.94-14.34-.1-11.92-2.73-15.62-13.45-13.97-23.8 2.52-15.75 22.3-23.05 35.02-13.18 3.32 2.58 5.07 5.96 5.23 10.69zm932.17-.76h-10.01c-.49-4.52-3.56-6.04-7.46-6.38-4.43-.39-8.33.89-10.46 4.99a17.46 17.46 0 0 0-.05 16.49c1.9 3.77 5.46 5.37 9.65 5.15 3.79-.2 7.17-1.12 8.12-5.61.11-.55 1.24-1.2 1.93-1.24 2.59-.15 5.19-.06 8.18-.06.05 4.77-1.71 8.34-5.29 10.68-8.12 5.31-16.78 5.18-25.22 1.05-7.01-3.43-10.49-11.88-9.38-20.75 2.03-16.08 19.93-24.21 33.66-15.26 3.88 2.53 6.09 6.03 6.33 10.94zm-158.49.18c-3.03 0-5.74.09-8.45-.06-.67-.04-1.72-.73-1.86-1.31-1.13-4.52-4.71-5.14-8.42-5.22-4.33-.1-7.87 1.69-9.66 5.76a18.02 18.02 0 0 0-.24 14.5c2.36 5.77 9.52 8.24 15.05 5.3.76-.4 1.82-.91 2.01-1.58 1.9-6.81 7.16-3.5 11.56-4.32-.31 5.84-2.78 9.67-7.4 12.16-5.44 2.92-11.35 3.05-17.12 1.84-11.62-2.44-17.21-11.76-15.31-24.67 1.59-10.79 10.52-17.45 22.44-16.74 9.15.55 15 4.35 16.89 11.02.25.94.29 1.92.51 3.32zm-479.46-13.26v14.4c4.69.34 9.12.47 13.5 1.01 7.37.91 12 5.6 12.1 11.87.11 6.94-4.58 12-12.48 12.65-6.56.54-13.18.33-19.76.55-2.56.09-2.71-1.4-2.71-3.35.04-11.3.07-22.6-.02-33.9-.02-2.39.71-3.43 3.18-3.26 1.96.14 3.93.03 6.19.03zm.2 32.87c4.24-.24 8.09-.26 11.89-.76 2.47-.32 4.38-2.17 3.68-4.69-.48-1.71-2.27-4.03-3.77-4.27-3.82-.61-7.8-.2-11.8-.2v9.92zm-163.46 7.59v-32.78h-8.99c-5.28 0-5.29-.01-5.08-5.36.02-.6.16-1.2.28-2.05h37.52v7.33h-13.66v7.29c0 7.33-.11 14.66.05 21.98.06 2.76-.83 3.86-3.62 3.62-2.07-.17-4.16-.03-6.5-.03zm823.69-.64c0-9.74-.12-19.07.07-28.38.07-3.12-.87-4.22-3.99-3.96-2.96.24-5.95.05-9.19.05v-7.49h36.05v7.34h-13.05v32.45l-9.89-.01zm-614.85-39.53v39.78h-9.61v-39.78h9.61z"/></svg>