<svg viewBox="0 0 403 162" fill="none" xmlns="http://www.w3.org/2000/svg"><g clip-path="url(#a)" fill="#fff"><path d="M44.33 161.71c0-2.45-.23-4.76.06-7 .64-5.43 1.28-10.85 2.35-16.2.8-4.09 2.11-8.07 3.36-12.05 2.66-8.45 6.8-16.15 11.75-23.45 4.78-7.07 10.05-13.79 16.22-19.73a131.3 131.3 0 0 1 16.45-13.16c7.3-5.04 15.03-9.08 23.28-12.25a114.49 114.49 0 0 1 23.37-6.24c5.88-.92 11.76-1.3 17.72-1.3h86c1.23 0 1.46.38 1.46 1.5-.06 9.73-.06 19.42 0 29.14 0 1.21-.32 1.56-1.54 1.56-11.7 0-23.4.06-35.1.11-17.4.06-34.83.15-52.24.15-14.3 0-27.56 3.78-40.02 10.7a85.6 85.6 0 0 0-19.23 14.51 74.92 74.92 0 0 0-11.98 15.92 71.71 71.71 0 0 0-5.77 13.16 108.57 108.57 0 0 0-3.1 12.8c-.66 3.5-1 7.04-1.39 10.6-.11 1.2-.72 1.29-1.65 1.29h-30v-.06Z"/><path d="M245.91 94.36v21.14c0 3.26-.06 6.52 0 9.8 0 .99-.43 1.22-1.27 1.22-3.16-.03-6.29 0-9.44-.06-4.03-.06-8.05-.17-12.1-.2-20.05-.12-40.06-.2-60.1-.29h-6.51c-10.1.09-18.82 3.78-26.27 10.44a32.2 32.2 0 0 0-8.74 13.22 47.86 47.86 0 0 0-2.7 11.5c-.02.32-.52.64-.86.84-.2.12-.53 0-.79 0h-28.98c-1.1 0-1.63-.57-1.6-1.7.41-8.6 2.7-16.73 6.14-24.58a83.13 83.13 0 0 1 9.15-15.75c5.6-7.58 12.72-13.3 20.85-17.91 7.1-4.04 14.77-6.29 22.77-7.59 2.43-.4 4.95-.46 7.4-.46 16.57 0 33.17.09 49.73.14l41.87.18c.44 0 .87.03 1.42.06h.03Zm-139.17-43.45c-2.67 1.27-5.36 2.46-8 3.81a104.22 104.22 0 0 0-21.74 14.6 249.46 249.46 0 0 0-12.74 11.97 4.52 4.52 0 0 1-3.68 1.47h-57.98c-2.9 0-2.52.09-2.52-2.48 0-9.32.03-18.64 0-27.95 0-1.3.32-1.76 1.68-1.76 30.76.03 61.51.03 92.27.03h12.62c0 .08.06.2.09.28v.03Zm145.06-.05c.48-.03 1-.12 1.53-.12h61.68c1.88 0 1.94 0 1.94 1.9 0 5.66 0 11.31-.09 16.94 0 .4-.35.8-.55 1.18-.35-.35-.87-.6-1.04-1.01-.93-2.28-1.54-4.7-2.72-6.84-2.61-4.61-6.55-7.53-12.02-7.7-6.2-.2-12.4-.2-18.6-.32-1.24 0-1.64.55-1.64 1.68 0 9 0 18 .05 27.03 0 1.7.1 1.7 1.89 1.7 6.54 0 13.11-.32 19.6.78 4.4.75 8.6 2.1 12.28 4.7 5.33 3.78 7.82 9.11 7.59 15.49-.32 8.22-4.7 13.93-12.2 17.25a28.6 28.6 0 0 1-11.46 2.42c-13.38.09-26.76.15-40.14.23-1.76 0-3.53.06-5.3 0-.35 0-.7-.34-1.04-.52.32-.29.6-.75.95-.83 1.63-.26 3.28-.32 4.87-.64 2.49-.49 4.34-1.79 4.7-4.5.25-2.07.69-4.18.69-6.29.05-16.5.05-33.02 0-49.52 0-2.49-.61-4.97-.96-7.45-.35-2.48-2.23-3.37-4.31-3.83-1.54-.35-3.16-.44-4.72-.58-.73-.06-1.25-.2-.96-1.18l-.03.03Zm32.08 39.02c-.58 0-1.16.06-1.74 0-1.13-.11-1.6.32-1.56 1.5.05 7.27 0 14.57.08 21.84 0 1.7.35 3.4.7 5.08.49 2.22 1.8 3.78 4.17 4.24 4.86.92 9.09-.35 12.16-4.13 3.76-4.67 4.34-10.18 3.07-15.9-1.04-4.64-3.36-8.44-7.62-10.78-2.83-1.56-6.08-1.7-9.26-1.82v-.03Zm118.12 35.98c-.58.11-1.16.31-1.74.31-11.47 0-22.94-.06-34.43-.08-.75 0-1.5 0-2.26-.03-.26 0-.5-.3-.72-.44.23-.23.43-.6.66-.63 1.28-.2 2.55-.32 3.82-.46 2.2-.23 4.32-.98 5.3-3 .73-1.44.99-3.2 1.02-4.85.11-5.82.06-11.65.06-17.48l.02-6.08c0-1.94-.34-2.17-2.05-1.36-1.19.58-2.4 1.12-3.6 1.7-6.88 3.17-14.1 4.82-21.74 4.42-4.52-.24-8.54-1.65-11.7-5.11a12.2 12.2 0 0 1-2.98-7.18 38.29 38.29 0 0 1-.26-4.07c-.03-6.8 0-13.59-.06-20.4a17 17 0 0 0-.84-4.78c-.64-2.22-2.46-3.26-4.58-3.75-1.27-.3-2.63-.3-3.93-.52-.44-.09-.81-.44-1.22-.67.4-.23.81-.63 1.22-.63 3.93-.03 7.87 0 11.81 0 7.3 0 14.63 0 21.92.06.4 0 .78.31 1.19.49-.35.26-.67.57-1.04.75-.35.17-.79.17-1.16.23-3.45.66-5.36 2.68-5.39 6.11-.06 8.57 0 17.1 0 25.68 0 3.46 2.55 5.3 5.27 6.17 3.25 1 6.49.75 9.7-.06 2.73-.69 5.39-1.67 8.05-2.57.84-.28 1.37-.8 1.37-1.84-.03-8.57 0-17.14-.06-25.7 0-1.3-.23-2.66-.61-3.9a5.12 5.12 0 0 0-4.43-3.83c-.78-.12-1.6-.18-2.38-.35-.29-.06-.49-.4-.72-.63.26-.2.46-.44.75-.55.24-.09.52-.06.79-.06 11.2 0 22.4 0 33.62.03.37 0 .78.34 1.15.55-.37.23-.72.6-1.13.66a95 95 0 0 1-5 .55c-2.09.2-3.48 1.24-3.83 3.31-.35 1.94-.75 3.93-.78 5.89 0 16.56 0 33.12.09 49.67 0 2.34.06 4.68.17 7.01.15 3.3 1.77 5.2 5.04 5.86 1.39.29 2.8.37 4.2.58.46.05.93.26 1.36.4 0 .2-.03.4-.06.58h.12Zm-347.42-31.85c-1.07 1.7-2.05 3.14-2.92 4.64-2.23 3.78-4.6 7.53-6.57 11.46-1.94 3.89-3.5 7.96-5.19 11.97-.35.83-.6 1.76-.84 2.62-.23 1.01-.84 1.24-1.82 1.24-10.2-.03-20.39 0-30.58 0h-6.49c-.03-.43-.11-.83-.11-1.2v-29.7c0-.86.08-1.38 1.18-1.38 12.77.06 25.52.06 38.29.09 4.34 0 8.68 0 13.03.03.58 0 1.18.11 2.02.2v.03Zm45.47-53.57h-4.8c-9.88.06-19.76.15-29.63.18-.61 0-1.42-.38-1.8-.84-4.63-5.91-8.95-12.03-12.02-18.95a89.95 89.95 0 0 1-6.13-19.59c-.15-.8.2-.95.84-.95h4.66c9.61 0 19.23 0 28.84-.09 1.19 0 1.56.43 1.85 1.5a419.3 419.3 0 0 0 4.12 13.36c2.8 8.45 7.44 15.95 12.48 23.22.43.63.92 1.27 1.59 2.16Zm-99.88-40.44h4.8c9.6.09 19.15.17 28.74.23 1.1 0 1.44.26 1.7 1.47a173 173 0 0 0 3.6 13.21c2.98 9.3 8.19 17.34 14.27 24.9.12.11.17.29.46.8h-4.4c-2.52-.05-5.04-.2-7.53-.2-7.2 0-14.45 0-21.66.03-1.1 0-1.76-.37-2.37-1.3-2.67-4.15-5.53-8.19-8.11-12.4a59.83 59.83 0 0 1-6.6-15.23c-1.05-3.55-1.94-7.13-2.9-10.7-.06-.2 0-.4 0-.81Z"/></g><defs><clipPath id="a"><path fill="#fff" transform="translate(.056)" d="M0 0h402v162h-402z"/></clipPath></defs></svg>