<svg version="1.1" id="Слой_1" xmlns="http://www.w3.org/2000/svg" x="0" y="0" viewBox="0 0 1112.99 200" style="enable-background:new 0 0 1112.99 200" xml:space="preserve"><style>.st0{fill:#fff}</style><path class="st0" d="M252.36 0v40.66h-5.73v-34.57h-12.68v34.56h-5.73v-40.65h24.14zm6.38 21.05c0-3.86-.09-7-.18-9.77h5.03l.28 4.53h.09c1.68-3.32 4.33-5.19 7.78-5.19 5.22 0 9.55 5.79 9.55 14.96 0 10.62-5.17 15.74-10.35 15.74a7.04 7.04 0 0 1-6.39-3.92h-.1v15.2h-5.73l.02-31.55zm5.74 7.3c0 .72.05 1.39.19 2.05.56 3.02 2.61 5.19 5.04 5.19 3.64 0 5.78-3.92 5.78-9.71 0-5.19-1.96-9.41-5.64-9.41-2.38 0-4.57 2.23-5.13 5.49-.14.6-.23 1.27-.23 1.87l-.01 4.52zm43.11-2.65c0 10.8-5.87 15.62-11.65 15.62-6.43 0-11.37-5.73-11.37-15.14 0-9.65 4.89-15.56 11.74-15.56 6.76 0 11.28 6.15 11.28 15.08zm-17.11.3c0 5.67 2.14 9.95 5.64 9.95 3.26 0 5.55-4.16 5.55-10.07 0-4.58-1.58-9.83-5.5-9.83-4.05 0-5.69 5.06-5.69 9.95zm25.87 2.05c.14 5.31 3.36 7.6 6.99 7.6 2.66 0 4.57-.48 6.29-1.33l.84 5.13a17.1 17.1 0 0 1-7.92 1.81c-7.36 0-11.7-5.85-11.7-14.84 0-8.14 3.82-15.81 11.09-15.81 7.36 0 9.79 7.84 9.79 14.3 0 1.39-.1 2.47-.19 3.14h-15.19zm9.98-5.19c.05-2.72-.89-7.18-4.71-7.18-3.54 0-5.03 4.16-5.27 7.18h9.98zm15.75-11.58v12.19h.84l6.99-12.19h6.8l-9.04 12.91c3.12.6 5.03 3.8 6.57 8.5.7 2.17 1.54 5.43 2.56 7.96h-5.96a50.66 50.66 0 0 1-2.1-6.28c-1.21-3.98-2.94-5.91-5.92-5.91h-.75v12.18h-5.73v-29.36h5.74zm35.33 0v5.73h-6.8v23.65h-5.73v-23.65h-6.8v-5.73h19.33zm9 0v11.22h8.76v-11.22h5.73v29.38h-5.73v-12.37h-8.76v12.37h-5.73v-29.38h5.73zm42.18 14.42c0 10.8-5.87 15.62-11.65 15.62-6.43 0-11.37-5.73-11.37-15.14 0-9.65 4.89-15.56 11.74-15.56 6.76 0 11.28 6.15 11.28 15.08zm-17.1.3c0 5.67 2.14 9.95 5.64 9.95 3.26 0 5.55-4.16 5.55-10.07 0-4.58-1.58-9.83-5.5-9.83-4.06 0-5.69 5.06-5.69 9.95zm25.86 2.05c.14 5.31 3.36 7.6 6.99 7.6 2.66 0 4.57-.48 6.29-1.33l.84 5.13a17.1 17.1 0 0 1-7.92 1.81c-7.36 0-11.7-5.85-11.7-14.84 0-8.14 3.82-15.81 11.09-15.81 7.36 0 9.79 7.84 9.79 14.3 0 1.39-.1 2.47-.19 3.14h-15.19zm9.98-5.19c.05-2.72-.89-7.18-4.71-7.18-3.54 0-5.03 4.16-5.27 7.18h9.98zm44.65-11.58v11.22h8.76v-11.22h5.73v29.38h-5.73v-12.37h-8.76v12.37h-5.73v-29.38h5.73zm33.37 29.38-.37-3.26h-.14a7.84 7.84 0 0 1-6.71 3.92c-4.57 0-7.13-4.28-7.13-8.75 0-7.42 5.08-11.16 13.47-11.1v-.47c0-1.93-.6-5.13-4.61-5.13a10 10 0 0 0-6.1 2.17l-1.12-4.83a13.52 13.52 0 0 1 8.2-2.6c7.27 0 9.37 5.97 9.37 12.37v10.62c0 2.65.09 5.25.33 7.06h-5.19zm-.74-14.36c-4.05-.12-7.92 1.03-7.92 5.49 0 2.89 1.44 4.22 3.26 4.22 2.28 0 3.96-1.93 4.47-4.04.14-.54.19-1.15.19-1.63v-4.04zm14.54-15.02 4.1 15.74c.47 1.81.93 4.04 1.26 5.73h.14c.37-1.69.79-3.86 1.21-5.79l3.54-15.69h6.15l-5.68 20.03c-3.12 10.98-5.22 15.86-7.92 18.88-2.23 2.6-4.57 3.56-6.01 3.8l-1.3-6.28c.98-.3 2.19-.96 3.35-2.05a12.4 12.4 0 0 0 3.12-4.65c.23-.54.37-.97.37-1.33 0-.3-.04-.72-.33-1.45l-8.29-26.96h6.29zm25.03 0v9.23c0 3.5.98 5.55 3.96 5.55 1.44 0 2.93-.72 3.87-1.63v-13.15h5.73v29.38h-5.73v-11.28h-.09a9.72 9.72 0 0 1-5.92 1.99c-4.61 0-7.55-3.26-7.55-10.08v-10.01h5.73zm25.36 0v11.22h8.76v-11.22h5.73v29.38h-5.73v-12.37h-8.76v12.37h-5.73v-29.38h5.73zm42.18 14.42c0 10.8-5.87 15.62-11.65 15.62-6.43 0-11.37-5.73-11.37-15.14 0-9.65 4.89-15.56 11.74-15.56 6.76 0 11.28 6.15 11.28 15.08zm-17.11.3c0 5.67 2.15 9.95 5.64 9.95 3.26 0 5.54-4.16 5.54-10.07 0-4.58-1.59-9.83-5.5-9.83-4.05 0-5.68 5.06-5.68 9.95zm32.02-3.98v5.13h-11.88v-5.13h11.88zm9.88-10.74v10.56c0 4.65-.14 7.78-.33 11.88h.14c1.21-3.44 1.91-5.61 3.08-8.69l5.6-13.75h6.94v29.38h-5.45v-10.5c0-4.7.14-6.88.37-12.43h-.19c-1.12 3.5-1.86 5.61-2.98 8.44-1.77 4.34-3.82 9.65-5.78 14.48h-6.85v-29.37h5.45zm38.22 28.47a13.4 13.4 0 0 1-6.43 1.51c-7.09 0-11.7-5.85-11.7-14.96 0-8.81 4.66-15.69 12.63-15.69 2.1 0 4.24.6 5.54 1.39l-1.03 5.55a8.22 8.22 0 0 0-4.33-1.15c-4.38 0-6.99 4.16-6.95 9.53 0 6.03 3.03 9.47 6.95 9.47 2 0 3.4-.54 4.52-1.15l.8 5.5zm20.61 0a13.4 13.4 0 0 1-6.43 1.51c-7.09 0-11.7-5.85-11.7-14.96 0-8.81 4.66-15.69 12.63-15.69 2.1 0 4.24.6 5.54 1.39l-1.03 5.55a8.22 8.22 0 0 0-4.33-1.15c-4.38 0-6.99 4.16-6.95 9.53 0 6.03 3.03 9.47 6.95 9.47 2 0 3.4-.54 4.52-1.15l.8 5.5zm23.77-28.47v29.38h-5.78v-23.65h-6.15v6.4c0 7.66-.66 12.85-3.35 15.44-1.3 1.63-2.98 2.41-5.69 2.41l-.6-5.79a4.29 4.29 0 0 0 2.42-1.45c1.67-1.81 1.86-5.19 1.86-10.86v-11.88h17.29zm10.11 16.77c.14 5.31 3.35 7.6 6.99 7.6 2.66 0 4.57-.48 6.29-1.33l.84 5.13a17.1 17.1 0 0 1-7.92 1.81c-7.36 0-11.7-5.85-11.7-14.84 0-8.14 3.82-15.81 11.09-15.81 7.36 0 9.79 7.84 9.79 14.3 0 1.39-.09 2.47-.19 3.14h-15.19zm9.98-5.19c.05-2.72-.89-7.18-4.71-7.18-3.54 0-5.03 4.16-5.27 7.18h9.98zm29.55-11.58v24.01l2.42.12-.23 14.66h-4.38l-.23-9.41h-14.91l-.28 9.41h-4.38l-.19-14.6 2.05-.18a28.96 28.96 0 0 0 2.23-6.03 46.5 46.5 0 0 0 1.16-10.56v-7.42h16.74zm-11.75 9.53c0 3.14-.33 6.28-.98 9.11a25.61 25.61 0 0 1-1.67 5.25h8.85v-18.34h-6.2v3.98zm39.85 4.89c0 10.8-5.87 15.62-11.65 15.62-6.43 0-11.37-5.73-11.37-15.14 0-9.65 4.89-15.56 11.74-15.56 6.76 0 11.28 6.15 11.28 15.08zm-17.1.3c0 5.67 2.14 9.95 5.64 9.95 3.26 0 5.54-4.16 5.54-10.07 0-4.58-1.58-9.83-5.5-9.83-4.05 0-5.68 5.06-5.68 9.95zm21.76-14.36c1.68-.36 5.13-.72 8.25-.72 3.82 0 10.72.67 10.72 7.42 0 3.74-2.23 5.85-4.66 6.51v.12c3.35.67 5.69 3.08 5.69 7.18 0 8.08-8.2 8.87-12.77 8.87a64 64 0 0 1-7.22-.42l-.01-28.96zm5.55 24.55c.93.12 1.63.18 2.79.18 2.61 0 5.78-.9 5.78-4.35 0-3.32-2.52-4.4-6.1-4.4h-2.47v8.57zm.05-13.03h2.38c2.93 0 5.36-1.08 5.36-3.86 0-2.35-1.59-3.62-4.99-3.62-1.12 0-1.86.12-2.75.24v7.24zm31.97 17.5-.37-3.26h-.14a7.84 7.84 0 0 1-6.71 3.92c-4.57 0-7.13-4.28-7.13-8.75 0-7.42 5.08-11.16 13.47-11.1v-.47c0-1.93-.6-5.13-4.61-5.13a10 10 0 0 0-6.1 2.17l-1.12-4.83a13.52 13.52 0 0 1 8.2-2.6c7.27 0 9.37 5.97 9.37 12.37v10.62c0 2.65.09 5.25.33 7.06h-5.19zm-.75-14.36c-4.05-.12-7.92 1.03-7.92 5.49 0 2.89 1.44 4.22 3.26 4.22 2.28 0 3.96-1.93 4.47-4.04.14-.54.19-1.15.19-1.63v-4.04zm15.71 1.75c.14 5.31 3.35 7.6 6.99 7.6 2.66 0 4.57-.48 6.29-1.33l.84 5.13a17.1 17.1 0 0 1-7.92 1.81c-7.36 0-11.7-5.85-11.7-14.84 0-8.14 3.82-15.81 11.09-15.81 7.36 0 9.79 7.84 9.79 14.3 0 1.39-.09 2.47-.19 3.14h-15.19zm9.98-5.19c.04-2.72-.89-7.18-4.71-7.18-3.54 0-5.03 4.16-5.27 7.18h9.98zm28.85-11.58v29.38h-5.78v-23.65h-6.15v6.4c0 7.66-.66 12.85-3.35 15.44-1.3 1.63-2.98 2.41-5.69 2.41l-.6-5.79a4.29 4.29 0 0 0 2.42-1.45c1.67-1.81 1.86-5.19 1.86-10.86v-11.88h17.29zm11.75 0v9.29c.93-.24 2.42-.36 3.64-.36 5.22 0 10.72 2.29 10.72 10.08 0 3.44-1.12 5.79-2.8 7.36-2.7 2.65-6.99 3.32-10.39 3.32-2.42 0-4.85-.18-6.9-.42v-29.27h5.73zm-.05 24.37c.74.12 1.49.24 2.66.24 2.66 0 6.01-1.15 6.01-5.31 0-4.28-3.54-5.25-6.1-5.25-.98 0-1.77.12-2.56.3l-.01 10.02zm35.7 4.1a13.4 13.4 0 0 1-6.43 1.51c-7.09 0-11.7-5.85-11.7-14.96 0-8.81 4.66-15.69 12.63-15.69 2.1 0 4.24.6 5.54 1.39l-1.03 5.55a8.22 8.22 0 0 0-4.33-1.15c-4.38 0-6.99 4.16-6.95 9.53 0 6.03 3.03 9.47 6.95 9.47 2 0 3.4-.54 4.52-1.15l.8 5.5zm9.98-28.47v12.19h.84l6.99-12.19h6.8l-9.04 12.91c3.12.6 5.03 3.8 6.57 8.5.7 2.17 1.54 5.43 2.56 7.96h-5.97a51.02 51.02 0 0 1-2.09-6.28c-1.21-3.98-2.94-5.91-5.92-5.91h-.75v12.18h-5.73v-29.36h5.74zm39.15 14.42c0 10.8-5.87 15.62-11.65 15.62-6.43 0-11.37-5.73-11.37-15.14 0-9.65 4.89-15.56 11.74-15.56 6.76 0 11.28 6.15 11.28 15.08zm-17.11.3c0 5.67 2.14 9.95 5.64 9.95 3.26 0 5.54-4.16 5.54-10.07 0-4.58-1.58-9.83-5.5-9.83-4.05 0-5.68 5.06-5.68 9.95zm25.87 2.05c.14 5.31 3.36 7.6 6.99 7.6 2.66 0 4.57-.48 6.29-1.33l.84 5.13a17.1 17.1 0 0 1-7.92 1.81c-7.36 0-11.7-5.85-11.7-14.84 0-8.14 3.82-15.81 11.09-15.81 7.36 0 9.79 7.84 9.79 14.3 0 1.39-.09 2.47-.19 3.14h-15.19zm9.98-5.19c.05-2.72-.89-7.18-4.71-7.18-3.54 0-5.03 4.16-5.27 7.18h9.98zm-799.92 38.01c2.05-.48 4.89-.85 8.76-.85 4.19 0 7.27 1.14 9.27 3.32 1.87 1.99 3.08 5.19 3.08 8.99 0 3.86-.93 7.06-2.71 9.23-2.29 2.96-5.87 4.35-9.93 4.35-1.07 0-2.05-.06-2.79-.24v15.32h-5.68v-40.12zm5.68 18.94c.7.24 1.63.3 2.79.3 4.29 0 6.9-2.71 6.9-7.48 0-4.52-2.43-6.94-6.38-6.94-1.59 0-2.71.18-3.31.36v13.76zm22.98 8.57c.14 5.31 3.36 7.6 6.99 7.6 2.66 0 4.57-.48 6.29-1.33l.84 5.13a17.1 17.1 0 0 1-7.92 1.81c-7.36 0-11.7-5.85-11.7-14.84 0-8.14 3.82-15.81 11.09-15.81 7.36 0 9.79 7.84 9.79 14.3 0 1.39-.1 2.47-.19 3.14h-15.19zm9.98-5.19c.05-2.71-.89-7.18-4.71-7.18-3.54 0-5.03 4.16-5.27 7.18h9.98zm26.7 16.89a13.4 13.4 0 0 1-6.43 1.51c-7.08 0-11.7-5.85-11.7-14.96 0-8.81 4.66-15.68 12.63-15.68 2.1 0 4.24.61 5.55 1.39l-1.02 5.55a8.26 8.26 0 0 0-4.33-1.14c-4.38 0-6.99 4.16-6.95 9.53 0 6.03 3.03 9.47 6.95 9.47 2 0 3.4-.54 4.52-1.14l.78 5.47zm24.24-28.47v29.38h-5.78v-23.65h-8.53v23.65h-5.73v-29.38h20.04zm9.56 0 4.1 15.75c.46 1.81.93 4.04 1.26 5.73h.14c.37-1.69.79-3.86 1.21-5.79l3.54-15.68h6.15l-5.68 20.03c-3.12 10.98-5.22 15.87-7.92 18.88-2.23 2.6-4.57 3.56-6.01 3.8l-1.3-6.27c.98-.3 2.19-.96 3.36-2.05 1.07-.9 2.33-2.65 3.12-4.64.23-.54.37-.96.37-1.33 0-.3-.05-.72-.33-1.45l-8.3-26.96 6.29-.02zm38.49-8.14c-1.21.54-3.45.96-5.03 1.21-3.5.6-5.96 1.93-7.6 4.58-1.4 2.23-2.29 5.67-2.47 8.39h.19c1.45-3.68 4.38-6.03 7.64-6.03 5.92 0 9.93 5.55 9.93 14.6 0 9.53-4.48 15.44-11.14 15.44-7.97 0-11.33-8.99-11.33-19.49 0-7.18 1.35-13.03 4.29-17.13 2.19-3.56 5.31-5.31 9.6-6.09 2.01-.36 4.66-.79 6.25-1.39l-.33 5.91zm-8.57 13.39c-1.91 0-3.31 1.33-4.1 3.14a13.41 13.41 0 0 0-1.21 5.97c0 4.35 1.54 10.32 5.4 10.32 3.87 0 5.27-5.01 5.27-9.71 0-4.35-1.26-9.72-5.36-9.72zm34.49-5.25v29.38h-5.78v-23.65h-6.15v6.39c0 7.66-.65 12.85-3.36 15.44-1.3 1.63-2.98 2.41-5.69 2.41l-.61-5.79a4.29 4.29 0 0 0 2.42-1.45c1.67-1.81 1.86-5.19 1.86-10.86v-11.87h17.31zm11.47 0v10.56c0 4.64-.14 7.78-.33 11.89h.14c1.21-3.44 1.91-5.61 3.08-8.69l5.6-13.75h6.94v29.38h-5.45v-10.5c0-4.71.14-6.88.37-12.43h-.18c-1.12 3.5-1.86 5.61-2.98 8.44-1.77 4.35-3.82 9.65-5.78 14.48h-6.85v-29.38h5.44zm27.27 0v12.18h.84l6.99-12.18h6.8l-9.04 12.91c3.12.6 5.03 3.8 6.57 8.5.7 2.17 1.54 5.43 2.56 7.96h-5.96a50.98 50.98 0 0 1-2.1-6.27c-1.21-3.98-2.94-5.91-5.92-5.91h-.75v12.18h-5.73v-29.37h5.74zm31.13 29.38-.37-3.26h-.14a7.82 7.82 0 0 1-6.71 3.92c-4.57 0-7.13-4.28-7.13-8.75 0-7.42 5.08-11.16 13.47-11.1v-.48c0-1.93-.61-5.13-4.61-5.13-2.24 0-4.57.9-6.11 2.17l-1.12-4.82a13.52 13.52 0 0 1 8.2-2.6c7.27 0 9.37 5.97 9.37 12.37v10.62c0 2.65.1 5.25.33 7.06h-5.18zm-.74-14.36c-4.05-.12-7.92 1.03-7.92 5.49 0 2.89 1.44 4.22 3.26 4.22 2.29 0 3.96-1.93 4.48-4.04.14-.54.19-1.14.19-1.63l-.01-4.04zm17.33-15.02v11.22h8.77v-11.22h5.73v29.38h-5.73v-12.37h-8.76v12.37h-5.73v-29.38h5.72zm37.29 28.47a13.4 13.4 0 0 1-6.43 1.51c-7.08 0-11.7-5.85-11.7-14.96 0-8.81 4.66-15.68 12.63-15.68 2.1 0 4.24.61 5.54 1.39l-1.03 5.55a8.23 8.23 0 0 0-4.33-1.14c-4.38 0-6.99 4.16-6.95 9.53 0 6.03 3.03 9.47 6.95 9.47 2 0 3.4-.54 4.52-1.14l.8 5.47zm9.98-28.47v12.18h.84l6.99-12.18h6.8l-9.04 12.91c3.12.6 5.03 3.8 6.57 8.5.7 2.17 1.54 5.43 2.56 7.96h-5.97a51.34 51.34 0 0 1-2.09-6.27c-1.21-3.98-2.94-5.91-5.92-5.91h-.75v12.18h-5.73v-29.37h5.74zm39.15 14.42c0 10.8-5.87 15.62-11.65 15.62-6.43 0-11.37-5.73-11.37-15.14 0-9.65 4.89-15.56 11.74-15.56 6.76-.01 11.28 6.15 11.28 15.08zm-17.11.3c0 5.67 2.14 9.95 5.64 9.95 3.26 0 5.54-4.16 5.54-10.07 0-4.58-1.58-9.83-5.5-9.83-4.04 0-5.68 5.06-5.68 9.95zm25.87 2.05c.14 5.31 3.35 7.6 6.99 7.6 2.66 0 4.57-.48 6.29-1.33l.84 5.13a17.1 17.1 0 0 1-7.92 1.81c-7.36 0-11.7-5.85-11.7-14.84 0-8.14 3.82-15.81 11.09-15.81 7.36 0 9.79 7.84 9.79 14.3 0 1.39-.09 2.47-.19 3.14h-15.19zm9.98-5.19c.04-2.71-.89-7.18-4.71-7.18-3.54 0-5.03 4.16-5.27 7.18h9.98zm23.26-11.58 4.1 15.75c.47 1.81.93 4.04 1.26 5.73h.14c.37-1.69.79-3.86 1.21-5.79l3.54-15.68h6.15l-5.68 20.03c-3.12 10.98-5.22 15.87-7.92 18.88-2.23 2.6-4.57 3.56-6.01 3.8l-1.3-6.27c.98-.3 2.19-.96 3.35-2.05 1.07-.9 2.33-2.65 3.12-4.64.23-.54.37-.96.37-1.33 0-.3-.04-.72-.33-1.45l-8.29-26.96 6.29-.02zm25.4 0v11.22h8.76v-11.22h5.73v29.38h-5.73v-12.37h-8.76v12.37h-5.73v-29.38h5.73zm26.01 0v10.56c0 4.64-.14 7.78-.33 11.89h.14c1.21-3.44 1.91-5.61 3.08-8.69l5.59-13.75h6.94v29.38h-5.45v-10.5c0-4.71.14-6.88.37-12.43h-.18c-1.12 3.5-1.86 5.61-2.98 8.44-1.77 4.35-3.82 9.65-5.78 14.48h-6.85v-29.38h5.45zm38.17 0v5.73h-6.8v23.64h-5.73v-23.64h-6.8v-5.73h19.33zm15.76 29.38-.37-3.26h-.14a7.84 7.84 0 0 1-6.71 3.92c-4.57 0-7.13-4.28-7.13-8.75 0-7.42 5.08-11.16 13.47-11.1v-.48c0-1.93-.6-5.13-4.61-5.13a10 10 0 0 0-6.1 2.17l-1.12-4.82a13.52 13.52 0 0 1 8.2-2.6c7.27 0 9.37 5.97 9.37 12.37v10.62c0 2.65.09 5.25.33 7.06h-5.19zm-.75-14.36c-4.05-.12-7.92 1.03-7.92 5.49 0 2.89 1.44 4.22 3.26 4.22 2.28 0 3.96-1.93 4.47-4.04.14-.54.19-1.14.19-1.63v-4.04zm11.65-5.25c0-3.86-.09-7-.18-9.77h5.03l.28 4.53h.09c1.68-3.32 4.33-5.19 7.78-5.19 5.22 0 9.55 5.79 9.55 14.96 0 10.62-5.17 15.75-10.34 15.75a7.05 7.05 0 0 1-6.39-3.92h-.09v15.2h-5.73v-31.56zm5.74 7.3c0 .72.05 1.39.19 2.05.56 3.01 2.61 5.19 5.03 5.19 3.64 0 5.78-3.92 5.78-9.71 0-5.19-1.96-9.41-5.64-9.41-2.38 0-4.57 2.23-5.13 5.49a8.62 8.62 0 0 0-.23 1.87v4.52zm27.22-17.07v11.22h8.76v-11.22h5.73v29.38h-5.73v-12.37h-8.76v12.37h-5.73v-29.38h5.73zm42.18 14.42c0 10.8-5.87 15.62-11.65 15.62-6.43 0-11.37-5.73-11.37-15.14 0-9.65 4.89-15.56 11.74-15.56 6.76-.01 11.28 6.15 11.28 15.08zm-17.11.3c0 5.67 2.15 9.95 5.64 9.95 3.26 0 5.54-4.16 5.54-10.07 0-4.58-1.59-9.83-5.5-9.83-4.04 0-5.68 5.06-5.68 9.95zm25.87 2.05c.14 5.31 3.35 7.6 6.99 7.6 2.66 0 4.57-.48 6.29-1.33l.84 5.13a17.1 17.1 0 0 1-7.92 1.81c-7.36 0-11.7-5.85-11.7-14.84 0-8.14 3.82-15.81 11.09-15.81 7.36 0 9.79 7.84 9.79 14.3 0 1.39-.09 2.47-.19 3.14h-15.19zm9.98-5.19c.05-2.71-.89-7.18-4.71-7.18-3.54 0-5.03 4.16-5.27 7.18h9.98zm39.66-11.58v29.38h-5.78v-23.65h-8.53v23.65h-5.73v-29.38h20.04zm6.11 9.77c0-3.86-.09-7-.18-9.77h5.03l.28 4.53h.09c1.68-3.32 4.33-5.19 7.78-5.19 5.22 0 9.55 5.79 9.55 14.96 0 10.62-5.17 15.75-10.34 15.75a7.05 7.05 0 0 1-6.39-3.92h-.09v15.2h-5.73v-31.56zm5.73 7.3c0 .72.05 1.39.19 2.05.56 3.01 2.61 5.19 5.03 5.19 3.64 0 5.78-3.92 5.78-9.71 0-5.19-1.96-9.41-5.64-9.41-2.38 0-4.57 2.23-5.13 5.49a8.62 8.62 0 0 0-.23 1.87v4.52zm25.59-.3c.14 5.31 3.35 7.6 6.99 7.6 2.66 0 4.57-.48 6.29-1.33l.84 5.13a17.1 17.1 0 0 1-7.92 1.81c-7.36 0-11.7-5.85-11.7-14.84 0-8.14 3.82-15.81 11.09-15.81 7.36 0 9.79 7.84 9.79 14.3 0 1.39-.09 2.47-.19 3.14h-15.19zm9.97-5.19c.05-2.71-.89-7.18-4.71-7.18-3.54 0-5.03 4.16-5.27 7.18h9.98zm29.55-11.58v24.01l2.42.12-.23 14.66h-4.38l-.23-9.41h-14.91l-.28 9.41h-4.38l-.19-14.6 2.05-.18a28.96 28.96 0 0 0 2.23-6.03 46.5 46.5 0 0 0 1.16-10.56v-7.42h16.74zm-11.74 9.53c0 3.14-.33 6.28-.98 9.11a25.61 25.61 0 0 1-1.67 5.25h8.85v-18.34h-6.2v3.98zm38.45-9.53v29.38h-5.78v-23.65h-8.53v23.65h-5.73v-29.38h20.04zm6.11 9.77c0-3.86-.09-7-.18-9.77h5.03l.28 4.53h.09c1.68-3.32 4.33-5.19 7.78-5.19 5.22 0 9.55 5.79 9.55 14.96 0 10.62-5.17 15.75-10.34 15.75a7.05 7.05 0 0 1-6.39-3.92h-.09v15.2h-5.73v-31.56zm5.73 7.3c0 .72.05 1.39.19 2.05.56 3.01 2.61 5.19 5.03 5.19 3.64 0 5.78-3.92 5.78-9.71 0-5.19-1.96-9.41-5.64-9.41-2.38 0-4.57 2.23-5.13 5.49a8.62 8.62 0 0 0-.23 1.87v4.52zm26.94-17.07v10.56c0 4.64-.14 7.78-.33 11.89h.14c1.21-3.44 1.91-5.61 3.08-8.69l5.59-13.75h6.94v29.38h-5.45v-10.5c0-4.71.14-6.88.37-12.43h-.18c-1.12 3.5-1.86 5.61-2.98 8.44-1.77 4.35-3.82 9.65-5.78 14.48h-6.85v-29.38h5.45zm40.18 29.38h-5.69v-11.65h-2.14a4.1 4.1 0 0 0-3.5 1.93c-1.44 1.63-2 4.76-2.8 7.3-.28.85-.51 1.57-.89 2.41h-6.15c.56-.9.98-2.05 1.4-3.26.89-2.59 1.67-6.39 3.4-8.44.7-.9 1.58-1.69 2.7-1.99v-.18c-2.7-.36-5.92-2.65-5.92-7.24 0-3.38 1.49-5.49 3.5-6.82 1.96-1.33 4.98-1.87 8.02-1.87 3.17 0 6.06.3 8.06.67l.01 29.14zm-5.69-24.8c-.79-.18-1.58-.3-2.84-.3-2.52 0-5.08 1.14-5.08 4.4 0 3.07 2.84 4.4 5.08 4.4 1.35 0 2.1 0 2.84-.06v-8.44zm28.43-4.58v5.73h-6.81v23.64h-5.73v-23.64h-6.81v-5.73h19.35zm8.72 0v10.56c0 4.64-.14 7.78-.33 11.89h.14c1.21-3.44 1.91-5.61 3.07-8.69l5.59-13.75h6.94v29.38h-5.45v-10.5c0-4.71.14-6.88.37-12.43h-.19c-1.12 3.5-1.86 5.61-2.98 8.44-1.77 4.35-3.82 9.65-5.78 14.48h-6.85v-29.38h5.47zm25.59 16.77c.14 5.31 3.35 7.6 6.99 7.6 2.66 0 4.57-.48 6.29-1.33l.84 5.13a17.1 17.1 0 0 1-7.92 1.81c-7.36 0-11.7-5.85-11.7-14.84 0-8.14 3.82-15.81 11.09-15.81 7.36 0 9.79 7.84 9.79 14.3 0 1.39-.09 2.47-.19 3.14h-15.19zm9.97-5.19c.05-2.71-.89-7.18-4.71-7.18-3.54 0-5.03 4.16-5.27 7.18h9.98zm-840.76 42.91v10.82h-24.32v15.53c1.9-.32 4.8-.54 6.87-.54 5.46 0 11 1.71 15.06 5.46 4.05 3.53 6.79 9.32 6.79 17.46 0 6.85-1.9 12.21-4.96 15.96-5.05 6-13.24 8.24-21.35 8.24-5.71 0-9.93-.54-12.49-.96v-71.97h34.4zm-24.33 62.43c1.49.32 3.31.43 5.38.43 3.72 0 7.45-1.5 9.76-4.5 1.82-2.25 2.9-5.46 2.9-9.43 0-4.5-1.41-7.71-3.72-9.74-2.48-2.46-5.87-3.43-9.26-3.43-1.57 0-3.39.21-5.05.43l-.01 26.24zm69.58-22.27h-21.02v21.2h23.5v10.82h-33.67v-72.18h32.43v10.82h-22.26v18.63h21.02v10.71zm53.53-40.16v72.18h-10.18v-61.36h-15.23v19.27c0 17.35-1.24 32.98-9.43 39.51a16.37 16.37 0 0 1-9.93 3.54l-1.24-10.6a10.9 10.9 0 0 0 6.12-3.85c3.89-5.03 4.47-16.38 4.47-27.63v-31.06h35.42zm22.83 0v28.91h23.58v-28.91h10.18v72.18h-10.18v-31.81h-23.58v31.8h-10.17v-72.17h10.17zm55.77 0v25.49c0 11.46-.25 22.06-.66 31.7l.17.11c2.9-8.14 6.54-16.81 10.18-24.95l14.73-32.34h10.34v72.18h-9.43v-25.6c0-11.35.08-20.56.74-29.88h-.17a230.99 230.99 0 0 1-9.93 24.95l-14.07 30.52h-11.33v-72.18h9.43zm90.18 0v72.18h-10.18v-61.36h-22.5v61.36h-10.17v-72.18h42.85zm22.08 0v25.49c0 11.46-.25 22.06-.66 31.7l.16.11c2.9-8.14 6.53-16.81 10.18-24.95l14.73-32.34h10.34v72.18h-9.43v-25.6c0-11.35.09-20.56.74-29.88h-.16a230.99 230.99 0 0 1-9.93 24.95l-14.07 30.52h-11.33v-72.18h9.43zm50.55 30.3h24.82c-.83-11.67-6.7-20.77-17.04-20.77-4.47 0-8.44 1.5-11.66 3.21l-2.15-9.74c3.72-2.14 8.85-4.18 14.56-4.18 18.7 0 27.3 16.92 27.3 37.37 0 23.99-12.49 37.16-28.13 37.16-5.71 0-11.09-1.61-14.48-3.54l1.9-10.28c3.06 1.71 7.53 3 11.58 3 10.76 0 17.38-9.32 18.12-21.95h-24.82v-10.28zm55.68-30.3v28.91h23.58v-28.91h10.18v72.18h-10.18v-31.81h-23.58v31.8h-10.17v-72.17h10.17zm77.53 40.16h-21.02v21.2h23.5v10.82h-33.67v-72.18h32.43v10.82h-22.26v18.63h21.02v10.71zm12.32-39.2c3.64-.85 8.69-1.5 15.55-1.5 7.45 0 12.91 2.04 16.46 5.89 3.31 3.53 5.46 9.21 5.46 15.96 0 6.85-1.66 12.53-4.8 16.38-4.05 5.25-10.42 7.71-17.62 7.71-1.9 0-3.64-.11-4.97-.43v27.2h-10.09v-71.21zm10.09 33.63c1.24.43 2.9.54 4.97.54 7.61 0 12.24-4.82 12.24-13.28 0-8.03-4.3-12.32-11.34-12.32-2.82 0-4.8.32-5.88.64v24.42zm68.92-34.59v10.82h-21.68v61.36h-10.17v-72.18h31.85zm54.11 35.34c0 24.2-11.34 38.02-26.72 38.02-15.72 0-25.65-15.53-25.65-36.73 0-22.17 10.76-37.8 26.47-37.8 16.3-.01 25.9 15.95 25.9 36.51zm-41.62 1.07c0 14.67 5.71 26.34 15.47 26.34 9.84 0 15.39-11.78 15.39-26.88 0-13.6-5.21-26.45-15.39-26.45-10.09 0-15.47 12.1-15.47 26.99zm94.16-36.41v72.18h-10.18v-61.36h-22.51v61.36h-10.17v-72.18h42.86zm12.65.96c3.64-.85 8.69-1.5 15.55-1.5 7.45 0 12.91 2.04 16.46 5.89 3.31 3.53 5.46 9.21 5.46 15.96 0 6.85-1.66 12.53-4.8 16.38-4.05 5.25-10.42 7.71-17.62 7.71-1.9 0-3.64-.11-4.97-.43v27.2h-10.09v-71.21zm10.1 33.63c1.24.43 2.9.54 4.97.54 7.61 0 12.24-4.82 12.24-13.28 0-8.03-4.3-12.32-11.34-12.32-2.82 0-4.8.32-5.88.64v24.42zm86.12.75c0 24.2-11.33 38.02-26.72 38.02-15.72 0-25.65-15.53-25.65-36.73 0-22.17 10.76-37.8 26.47-37.8 16.3-.01 25.9 15.95 25.9 36.51zm-41.62 1.07c0 14.67 5.71 26.34 15.47 26.34 9.85 0 15.39-11.78 15.39-26.88 0-13.6-5.21-26.45-15.39-26.45-10.09 0-15.47 12.1-15.47 26.99zm98.05 6.32c-.33-9.32-.74-20.56-.66-30.31h-.25a474.37 474.37 0 0 1-6.62 27.63l-8.11 31.27h-7.86l-7.45-30.84a450.76 450.76 0 0 1-5.63-28.06h-.17c-.25 9.42-.58 20.88-.99 30.73l-1.24 29.02h-9.52l3.72-72.18h13.4l7.28 29.02a450.63 450.63 0 0 1 5.13 25.06h.25a434.47 434.47 0 0 1 5.54-25.16l7.69-28.91h13.24l3.22 72.18h-9.93l-1.04-29.45zm-1044.6 31.17c.19-3.93.12-6.26.44-8.54 1.04-7.26-1.46-10.65-9.36-9.82-5.46.57-11.02.17-16.53.09-10.6-.15-12.35-1.87-12.36-12.42-.03-35.46-.02-70.91 0-106.37.01-10.88 2.45-13.32 13.35-13.32 36.77-.02 73.54-.11 110.3.04 16.29.07 32.57.66 46.01-11.91 1.26 19.54-10.54 31.78-30.21 31.93-27.84.21-55.68.06-83.51.06h-9.01c0 4.08.26 7.19-.06 10.24-.57 5.53 1.78 7.21 7.22 7.17 29.68-.2 59.36.21 89.03-.21 24.64-.35 44.09-15.82 46.46-38.35 1.68-15.9.32-32.12.32-48.59h-24.09c-2.53 23.17-12.71 32.32-35.62 32.35-40.71.05-81.42-.06-122.12.06-16.66.06-27.46 10.43-27.53 26.62-.17 37.8-.15 75.6.01 113.41.05 12.39 7.47 23.1 19.5 25.19 12.21 2.12 24.87 1.67 37.76 2.37zm131.42-37.04c2.45 15.73-.06 18.78-14.79 18.79l-97.7.01h-9.3c-.23 2.63-.45 4.17-.49 5.71-.27 11.97-.26 11.98 11.7 11.98 26.26 0 52.53.05 78.79-.02 9.71-.03 19.49.34 29.11-.67 14.54-1.51 23.56-11.93 23.81-26.4.18-10.69.04-21.38.04-32.07-.01-22.96-9.88-32.9-32.95-32.95-34.14-.07-68.29-.02-102.43 0-2.53 0-5.06.24-7.77.38-.14 2.21-.28 3.74-.31 5.28-.21 11.67-.21 11.67 11.19 11.67 33.36 0 66.71-.01 100.07.01 9.96.01 11.85 1.96 11.92 11.92.02 2.77 0 5.54 0 9.29h-75.09v17.07h74.2z"/><path class="st0" d="M57.39 200c-12.89-.7-25.54-.25-37.75-2.38-12.04-2.1-19.45-12.8-19.5-25.19-.16-37.8-.18-75.61-.01-113.41.07-16.18 10.87-26.55 27.53-26.6 40.71-.13 81.42-.02 122.12-.06 22.91-.03 33.09-9.18 35.62-32.35h24.09c0 16.47 1.35 32.68-.32 48.59-2.38 22.53-21.82 38.01-46.46 38.35-29.67.42-59.35.01-89.03.21-5.44.04-7.79-1.64-7.22-7.17.32-3.05.06-6.16.06-10.24h9.01c27.84 0 55.68.15 83.51-.06 19.66-.15 31.46-12.38 30.2-31.93-13.45 12.57-29.73 11.97-46.01 11.91-36.77-.15-73.54-.06-110.3-.04-10.89 0-13.34 2.44-13.35 13.32-.02 35.46-.03 70.91 0 106.37.01 10.54 1.75 12.27 12.36 12.42 5.51.08 11.08.48 16.53-.09 7.9-.83 10.4 2.57 9.36 9.82-.32 2.27-.25 4.6-.44 8.53z"/><path class="st0" d="M188.81 162.96h-74.2v-17.07h75.09v-9.29c-.07-9.96-1.96-11.91-11.92-11.92-33.35-.03-66.71-.01-100.07-.01-11.39 0-11.4-.01-11.19-11.67.03-1.53.18-3.07.31-5.28 2.71-.14 5.24-.38 7.77-.38 34.14-.02 68.29-.07 102.43 0 23.07.04 32.94 9.99 32.95 32.95 0 10.69.14 21.38-.04 32.07-.25 14.46-9.27 24.88-23.81 26.4-9.62 1-19.4.64-29.11.67-26.26.07-52.53.03-78.79.02-11.96 0-11.97-.01-11.7-11.98.04-1.54.25-3.07.49-5.71h9.3c32.57 0 65.13.01 97.7-.01 14.73-.01 17.25-3.06 14.79-18.79z"/></svg>