<svg viewBox="0 0 342 209" fill="none" xmlns="http://www.w3.org/2000/svg"><g clip-path="url(#a)" fill="#fff"><path d="M194.6 199.77c.26.14.74.35.73.4.01-.04-.47-.26-.72-.4Zm-52.5-5.37Zm-52.89-19.85-.09.27.1-.27Zm222.59-9.78c-.66-3.34-1.5-6.6-3.29-9.77 1.8 3.16 2.63 6.43 3.28 9.77Zm-274.62-4.47Zm94.33 32.38Z"/><path d="M316.43 101.14a11.7 11.7 0 0 0-7.45-5 17.77 17.77 0 0 0-9.77.75c-.85.3-1.26.29-1.64-.66-3.04-7.62-9.22-11.1-17.18-12.03-2.2-.26-4.47-.05-6.93-.05.3-.59.46-1 .7-1.37a50.2 50.2 0 0 1 8.98-10.44c2.43-2.09 5-3.91 8.3-4.46 2.59-.43 5.13-.43 6.96 1.75s1.6 4.67.62 7.12c-.42 1.07-1.1 2.04-1.7 3.13 2.72.8 5.23.5 7.62-.6 3.7-1.7 5.06-4.91 5.54-9.05 1.62 1.87 2.1 3.63 1.71 5.55-.97 4.85-4.55 7.16-9.06 8.37-1.95.52-4 .69-6.33 1.07.55.6.91 1.02 1.3 1.43 5.47 5.76 15.15 5.88 21.84 2.77 7.98-3.7 10.79-13.34 9.08-20.88-2.01-8.87-8.05-14.23-16.62-16.84-10.56-3.22-20.35-.79-29.46 4.81-6.41 3.95-11.08 9.5-14.92 15.79-.41.67-.87 1.3-1.42 2.1-.39-.63-.65-1-.86-1.4a24.6 24.6 0 0 0-8.4-9.22c-9.27-5.93-19.21-7-29.42-2.79-8.56 3.54-13.6 10.37-16.6 18.72a37.9 37.9 0 0 0-1.91 16.15c3.18-.74 6.28-1.44 9.35-2.2 2.99-.75 5.83-1.81 8.08-3.96.77-.74 1.42-1.6 2.47-2.78l4 10.08c-.23.01-.02.04.16-.02 5.03-1.63 8.2-4.96 9.12-10.02.45-2.5.28-5.1.37-7.64.18-4.97 4.06-8.02 8.75-6.76 5.1 1.38 7.1 4.98 7.18 8.97.09 4.21-3.2 8.06-7.57 8.8-2.38.4-4.86.27-7.45.38l-2.04 9.42c4.14.94 7.98.12 12.3-.72l-5.03 11.31-1.43-1.33a18.32 18.32 0 0 0-8.57-4.66c-8.64-1.95-15.78 1.57-22.75 5.75 1.65.92 3.25 1.7 4.7 2.66 1.47.98 2.8 2.16 4.2 3.26 2.56 2.02 5.4 3.6 8.68 4.14 2.38.39 4.84.35 7.43.52-1.62 1.54-3.03 3.13-5.4 3.72a266.36 266.36 0 0 1-55.58 7.58 279.28 279.28 0 0 1-75.17-7.58c-2.36-.57-3.78-2.17-5.73-3.98l2.92.15c4.66.26 8.85-1.12 12.53-3.8 3.16-2.33 5.98-5.13 9.98-6.52-3.96-2.62-8-4.63-12.47-5.75-5.3-1.31-10.45-1.03-15.21 1.79-1.77 1.04-3.34 2.42-5.26 3.83l-4.93-11.07c.99.18 1.53.34 2.08.37 3.02.2 6.04.37 9.07.52.92.04 1.15-.45.94-1.3-.6-2.59-1.13-5.2-1.79-7.77-.08-.34-.72-.77-1.1-.78-1.57-.02-3.15.23-4.7.15-4.55-.22-8.17-3.23-9.08-7.42-.89-4.03 1.18-7.98 5.2-10.03 3.83-1.95 9.63-.67 10.36 4.79.17 1.26.18 2.55.13 3.83-.1 2.79.14 5.51 1.3 8.1 1.71 3.81 4.7 6.1 8.37 7.09l3.94-9.76h.49c1.9 3 4.7 4.87 8.06 5.82 3.75 1.06 7.56 1.9 11.43 2.85.38-4.31.19-8.68-.95-12.98-2.34-8.86-6.98-16.18-15.3-20.89-6.05-3.42-12.62-4.01-19.38-3.01-7.43 1.1-13.6 4.45-18.22 10.28-1.22 1.55-2.21 3.28-3.4 5.06-1.04-1.59-1.98-3.05-2.95-4.5-7.06-10.53-16.59-17.54-29.68-19.23-8.05-1.05-15.45.63-21.91 5.62-7.85 6.07-9.97 15.73-6.9 24.18 4.4 12.13 20.5 13.3 27.58 8.22 1.3-.94 2.46-2.08 3.67-3.13l-.28-.41c-.82-.1-1.65-.2-2.48-.28-3.07-.34-6-1.1-8.54-2.88a9.4 9.4 0 0 1-4.08-6.32c-.35-2.07.43-4.19 1.8-4.92 1.43 7.4 8.17 12.02 12.88 9.06-.67-1.58-1.51-3.07-1.95-4.67-1.12-4.16 1.52-7.5 5.92-7.32 1.93.08 4.04.5 5.72 1.38 6.3 3.32 10.48 8.71 14.2 14.48.06.1-.03.28-.05.55-2.26 0-4.53-.22-6.74.04-7.9.93-14.03 4.4-17.07 11.94-.4.98-.82.98-1.76.75a31.32 31.32 0 0 0-6-1.06c-4.76-.23-8.56 1.56-11.26 5.5-7.67 11.13-15.32 22.28-23.11 33.34-1.9 2.7-1.9 5.27-.03 7.62a25.65 25.65 0 0 0 5.94 5.6c5.89 3.85 11.99 7.4 18.03 11.02.92.55 1.38 1.07 1.11 2.2a14.88 14.88 0 0 0-.35 3.36c-.05 7.83 3.07 14.4 8.53 20 .27.29 1.04.5 1.29.34 2.98-1.98 5.9-4.05 8.94-6.16-4.14-3.53-7.35-7.4-8.25-12.89 8.46 3.29 14.52 8.86 19.06 16.43 2.52-5.08 4.88-9.75 7.16-14.46.5-1.05.98-1.33 2.15-.9 2.74 1.05 5.52 1.99 8.33 2.85 1.32.4 1.82 1.05 1.73 2.42-.64 9.19-5.39 15-15.25 16.87-.48.1-.96.22-1.62.38.34.7.55 1.22.84 1.69 2.88 4.67 8.74 6.75 14.75 5.06 1.56-.44 2.18-.13 2.83 1.24a19.12 19.12 0 0 0 11.89 10.31c8.53 2.7 16.59 1.11 24.33-2.82.15-.08.24-.25.35-.37-2.05-1.23-4.08-2.31-5.95-3.62-1.84-1.29-3.51-2.8-5.48-4.4 7.48-1.74 12.03-5.63 11.91-10.03-4.06 1.16-7.93.8-11.48-1.47-3.4-2.18-5.78-5.17-7.57-9.12 50.75 11.94 101.14 11.9 151.84 0a20.96 20.96 0 0 1-6.51 8.37c-3.78 2.87-8.05 3.5-12.9 2.17 1.66 6.24 5.87 9.1 12.05 9.97-3.37 3.63-7.25 5.98-11.56 8.2 6.1 3.16 12.2 4.84 18.87 4.32 8.47-.65 14.68-4.52 18.3-12.07.47-.97.93-1.13 1.93-.8 3.08.99 6.2 1.02 9.26-.1 3.21-1.16 5.59-3.2 6.88-6.53-1.05-.25-1.91-.47-2.77-.66-9.36-2.05-13.7-8.4-14.03-17.03-.04-.96.3-1.47 1.27-1.8 3-.96 5.96-1.98 8.9-3.07 1.05-.39 1.5-.1 1.94.8 1.72 3.56 3.51 7.1 5.28 10.63l2.01 3.98a37.38 37.38 0 0 1 19.04-16.47c-.9 5.52-4.17 9.39-8.25 12.92 3.06 2.14 5.94 4.18 8.88 6.14.26.17 1.08-.08 1.38-.39 6.41-6.68 9.54-14.44 8.15-23.69-.07-.47.37-1.25.8-1.52 5.33-3.3 10.7-6.51 16.06-9.75 3.05-1.85 6.04-3.8 8.05-6.78 1.93-2.86 2.09-5.2.08-8.06-7.81-11.1-15.5-22.28-23.2-33.46l-.01-.02Zm19.8 34.43a10.03 10.03 0 0 1-4.31 5.84c-6.14 4.1-12.44 8-18.69 11.94-.26.17-.72.05-1.08.07.25-.38.4-.9.76-1.13 4.17-2.66 8.41-5.22 12.55-7.92a79.24 79.24 0 0 0 6.8-4.98c1.06-.87 1.79-2.11 2.69-3.17.28-.34.6-.65.91-.97l.37.32Zm-25.17 15.92c.22-.34.37-.78.68-1a5975.4 5975.4 0 0 1 20.22-13.8c.36-.24.77-.4 1.15-.61l.34.38c-1.16 1.13-2.17 2.45-3.49 3.35-5.8 3.95-11.69 7.78-17.58 11.62-.31.2-.87.05-1.32.06Zm-70.58-32.55c-4.74.7-9.08-.44-12.95-3.18-2.2-1.56-4.3-3.23-6.73-5.07 3.81-.72 7.4-.79 10.88.06 3.41.84 6.71 2.09 9.57 3a17.5 17.5 0 0 0-8.55-3.72c-3.26-.45-6.56-.6-9.92-1.14l9.79-1.7-5.48.32c4.6-1.83 9.22-1.8 13.76-.02 4.47 1.76 7.85 4.81 10.34 9.16.72-1.67 1.32-3.05 1.9-4.43l-.26-.13-1.37 2.28-.36-.15 2.18-5.33-.18-.1-2.4 4.1c-.11-.07-.24-.13-.36-.19l6.4-14.63.45.13c-.48 1.48-.94 2.97-1.41 4.45l.32.13 2.9-6.44.57.23-3.1 8.43.32.14 5.42-12.2c-5.4 3.93-11.15 6.06-17.74 5.63l-.2-.64c.6-.1 1.18-.3 1.77-.31 3.29-.07 6.4-.67 9.58-2.61-7.06 2.18-9.63 2.48-11.02 1.31l9.36-1.75-.06-.2c-2.53.3-5.04.61-7.58.83-.4.04-.85-.33-1.28-.52.45-.2.88-.5 1.35-.56 1.96-.24 3.92-.41 5.87-.8-2.27.08-4.54.72-6.77-.09l-.04-.52c.71-.04 1.42-.12 2.13-.11 4.06.05 7.7-.94 10.48-4.03a10.45 10.45 0 0 0 1-12.58c-2.6-4.04-7.56-6.13-11.9-5.01-3.6.92-5.73 3.72-5.92 7.6-.14 2.9-.18 5.84-.69 8.7-.3 1.7-1.4 3.28-2.15 4.91-.13-.06-.27-.11-.4-.18l1.8-7.44h-.14l-3.28 8.62-.56-.17c.84-2.92 1.84-5.81 1.28-8.75l-1.6 7.53-.58-.07v-7.45h-.2l-.55 6.8-.65.02-1-9.37h-.18v6.76c-2.24-2.13-2.5-5.88-.84-11.97l-9.22 7.87.24.31 6.19-4.66.31.32-6.71 6.15.16.23 5.72-4.34.45.42-6.84 6.34.07.15c.9-.56 1.8-1.1 2.66-1.7.88-.63 1.7-1.34 2.65-1.82-3.11 5.13-8.48 6.05-13.88 6.95-.66-3.45 2.14-5.47 3.37-8.52l-1.09 1.3c-.33.4-.67.78-1.13 1.3 3.3-8.95 13.58-22.36 31.69-20.78-8.06-1.53-15.4.13-21.87 5.06-6.28 4.78-10.03 11.27-12.51 18.55l-.48-.12c.24-1.66.37-3.35.74-4.98 2.5-10.94 8.48-19.17 19.8-22.67 12.02-3.72 26.9 1.13 32.6 13.2a16.7 16.7 0 0 1 1.31 10.63c-.05.23-.07.46-.13.96l11.18-17.66-.3-.23-8.31 11.7-.35-.2a82.78 82.78 0 0 1 10.55-16.05c-4.3 3.79-7.31 8.54-10.67 13.13.01-.27-.06-.58.06-.8 4.1-7.56 9.16-14.32 16.8-18.9a36.96 36.96 0 0 1 17.99-5.48c8.75-.3 18.2 3.51 22.62 11.62 3.54 6.53 2.74 14.99-1.97 20.48-2.83 3.3-6.68 4.62-10.93 5.14-2.75.34-5.4.06-7.9-1.25h3.91c-2.5-.1-4.9-.63-7.24-1.75 5.18-.64 9.63-2.34 12.12-7.12 2.63-5.06.66-9.1-3.66-12.75 2.87.13 5.6 3.44 5.98 6.56a14.4 14.4 0 0 1-1.7 8.44c4.57-7.24 3.66-13.18-5.03-17.23 5.78-1.07 10.07 6.8 8.5 14.65 1.67-3.62 1.7-7.24-.32-10.75-2.1-3.65-5.47-5.3-9.88-5.67 1.82 4.89 2.72 9.6-1.13 13.77a6.65 6.65 0 0 1-5.83 2.12c.42-.89.95-1.72 1.22-2.63 1.74-5.91-3.05-11-9.3-9.97a17.8 17.8 0 0 0-8.13 3.5 49.84 49.84 0 0 0-13.89 16.87c-.1.2-.15.44-.15.43 3.15-.27 6.33-.92 9.45-.72 6.3.4 11.68 2.82 15.2 8.26l.16.27c1.9 3.14 1.85 3.31-1.24 5.27-1.52.96-3.02 1.97-4.5 2.94l-1.83-6.34-.42.12c1.49 5.48 1.38 7.11-.6 7.71.37-2.95.44-5.82-1.45-8.17.26 1.75.84 3.64.74 5.49-.1 1.74-.03 3.91-2.76 4.95 2.1-4.13 2.28-7.84-.42-11.4 1.52 3.11 1.88 6.3.21 9.4-1.8 3.35-5 4.25-8.67 4.3l3.7.27.11.34c-1.65.82-3.28 1.67-4.96 2.44-.23.1-.77-.05-.94-.26a8.03 8.03 0 0 1-1.8-5.08c1.4.39 2.58.8 3.8 1.03 5.03.98 9.68-3.58 8.73-8.52a9.26 9.26 0 0 0-9.14-7.66c-6.11-.13-5.65-.68-8.54 4.74-2.85 5.36-5.26 10.93-7.94 16.36-1.03 2.07-2.36 3.99-3.44 6.03-1.1 2.08-3.12 2.28-5.42 2.85l1.63-3.19-.16-.09-2.98 3.98-.55-.33 2.57-4.27c-2.64.53-5.25 1.19-7.9 1.58Zm29.76-5.91-14.59 5.9c.23-.75.28-1.03.4-1.27 3.22-6.54 6.44-13.08 9.68-19.62.34-.68.78-1.34 1.07-2.04 1.03-2.6 2.97-3.33 5.72-3.1 3.94.33 6.71 2.13 7.62 5.33.79 2.74-.16 5.44-2.37 6.73a6.81 6.81 0 0 1-7.87-.88c-.25-.25-.42-.58-.81-.79-1.2 3.38-.87 6.52 1.16 9.74Zm-27.44 9.53 3.4-3.8.47.39c-1.22 1.18-1.45 3.26-3.88 3.4h.01Zm-197.36-25.92c1.81-4.61 5.28-7.52 9.88-9.32a22.75 22.75 0 0 1 14.21-.74l1.38.35c.09.03.2 0 .57 0-.45-.87-.81-1.68-1.25-2.44-3.43-5.95-7.66-11.27-13.32-15.38-3.25-2.37-6.85-3.77-11.03-3.2-5.64.77-7.94 7.13-5.33 11.55l.7 1.11c-2.7.1-4.92-.7-6.38-2.56-3.42-4.32-2.67-8.97-.62-13.58-5.03.53-9.02 2.62-10.85 7.45-1.24 3.29-.98 6.6.76 9.71-2.16-7.93 1.76-15.73 8.25-15.43-.6.45-.92.84-1.32.97-6.83 2.18-8.7 11.55-3.33 16.74-1.63-2.68-2.51-5.52-2.12-8.66.39-3.14 2.98-6.37 5.96-6.73-2.56 2.51-4.84 4.79-4.8 8.19.05 3.45 1.56 6.22 4.24 8.38 2.6 2.1 5.7 2.96 9.03 3.33a16.68 16.68 0 0 1-7.11 1.8h3.83l.08.46c-1.97.32-3.94.9-5.9.9-3.5.01-6.9-.74-9.91-2.61-4.42-2.75-6.4-6.95-7.08-11.79-1.68-11.93 7.73-20.88 18.48-22.44 14.58-2.13 25.88 3.76 34.81 14.55 2.26 2.73 3.97 5.89 5.9 8.86.22.35.27.8.22 1.28-3.11-4.17-5.74-8.65-9.7-12.16 3.73 4.7 6.9 9.73 9.63 15.02l-.37.23-8.64-12.19-.31.2 11.53 18.16c-.62-3.21-.75-6.18.24-9.06 2.95-8.6 9.26-13.77 18.08-15.95 17.2-4.24 30.9 6 34.92 21.32.56 2.14.77 4.36 1.15 6.54l-.5.11c-.7-1.72-1.34-3.48-2.14-5.16-2.83-6.03-6.75-11.21-12.56-14.84a27.13 27.13 0 0 0-19.01-3.8c-.25.03-.49.17-1.05.37 8.79-.72 16.38 1.4 22.64 7.06a32.5 32.5 0 0 1 9.2 13.46l-1.78-2.23-.18.1 3.97 6.72-1.16-.28.69 1.6c-6.02-.44-12.35-2.67-14.19-7.01l5.75 4.02.22-.27c-1.24-1.02-2.53-2-3.71-3.07-1.18-1.08-2.26-2.28-3.38-3.42l.34-.34 5.61 4.21.18-.22-6.77-6.14.3-.34 6.55 4.87.2-.25c-.1-.11-.18-.23-.3-.33-3-2.54-6-5.08-9.15-7.59 1.72 4.02 1.64 7.9-.85 11.67v-6.7l-.24-.01-.95 9.43h-.66l-.6-6.87h-.2v7.07l-.68.06-1.48-7.3c-.57 2.76.34 5.59 1.08 8.43l-.6.17-3.01-8.07-.16.01 1.82 7.54a10.68 10.68 0 0 1-2.94-6.27c-.28-2.01-.3-4.07-.32-6.12-.03-3.6-.9-6.77-4.63-8.33-3.94-1.65-7.6-.7-10.74 1.85-3.94 3.22-5.06 7.71-3.36 12.17 1.57 4.12 5.97 7.01 10.85 7.12 1.2.02 2.4 0 3.6.3-2.21 1.22-4.48.49-6.73.24l-.05.38c1.97.2 3.94.38 5.91.62.47.06.9.38 1.35.57-.43.18-.88.54-1.3.5-2.52-.22-5.05-.54-7.54-.82 1.45.4 2.97.93 4.53 1.23 1.55.3 3.14.36 4.92.54-.93.84-4.54.51-10.82-.98 3.2 2.36 7.17 2.25 10.94 2.95-3.2.8-6.3.43-9.18-.7-2.89-1.12-5.59-2.71-8.65-4.24l5.35 12.01.34-.13-3.14-8.49.54-.24 3.34 7.3.22-.08-1.72-5.3c.14-.05.3-.1.43-.16l6.43 14.58-.34.2-2.4-4.02-.18.06 2.17 5.3-.35.2-2-3.43-.15.07 2.37 5.58c3.16-5.37 7.57-8.75 13.52-10.06 3.6-.8 7.17-.5 10.64.94l-5.62-.32 10.12 1.72.02.45c-6.08.02-12.18-.07-17.35 3.77 6.03-2.56 12.25-3.6 19.18-2.45-1.44 1.06-2.54 1.95-3.73 2.72-2.44 1.57-4.77 3.4-7.41 4.54-4.7 2.04-9.56 1.32-14.34-.11l-2.33-.71 2.7 4.47-.46.34-3.07-3.87-.12.06 1.68 3.23c-2.06-.73-4.1-.56-5.1-2.45-2.9-5.5-5.75-11.02-8.61-16.53l-4.78-9.15c-.75-1.42-1.94-2-3.58-2-2.65 0-5.24.02-7.7 1.2-5.64 2.71-6.56 10.42-1.6 13.87 2.44 1.7 5.09 1.68 7.79.61.42-.17.84-.37 1.54-.68 0 2.19-.64 3.82-1.76 5.27-.16.22-.7.4-.91.3a25.32 25.32 0 0 1-4.9-2.79l3.64-.23c-3.31-.03-6.27-.9-8.2-3.6-1.89-2.65-1.83-5.67-.81-8.76-1.8 1.69-1.8 4.73-.38 9.95-.52-.57-1.25-1.07-1.53-1.74a10.27 10.27 0 0 1-.06-7.64c.13-.37.3-.72.35-1.1-2.07 2.43-2.1 5.28-1.61 8.28-1.43-.05-1.66-1.04-1.6-1.9.13-1.94.48-3.88.54-5.92l-1.85 6.19c-.32-.16-.81-.38-1.26-.66-1.59-1-3.1-2.11-4.76-3-1.1-.6-1.15-1.23-.76-2.24v.02Zm52.95 25.9c-1.56.1-2.87-1.2-3.4-3.74l3.4 3.74Zm-26.13-19.5a6.92 6.92 0 0 1-6.15 2.77c-2.46-.19-4.27-1.39-5.06-3.73a6.18 6.18 0 0 1 1.62-6.79c2.58-2.47 5.9-2.7 9.27-2.12.57.1 1.17.86 1.48 1.45 1.85 3.49 3.64 7 5.4 10.54 2.17 4.4 4.3 8.84 6.7 13.76l-14.64-5.9c2.15-3.25 2.28-6.44 1.38-9.98Zm-58.47 40.06c4.7 3.09 9.5 6.04 14.23 9.07.43.28.77.7 1.15 1.07l-.5.54c-1.8-1-3.63-1.97-5.38-3.04-5.41-3.32-11.04-6.35-15.65-10.77a9.2 9.2 0 0 1-2.83-4.87c.59.34.97.44 1.1.66 1.79 3.3 4.84 5.35 7.88 7.34Zm-5.98-6.74.28-.28c.5.32 1.02.61 1.51.95 6.5 4.41 12.98 8.84 19.47 13.26.13.08.32.13.4.24.2.34.37.7.55 1.05-.37-.02-.82.07-1.1-.1-2.25-1.31-4.54-2.58-6.67-4.06-4.43-3.1-8.78-6.29-13.13-9.48-.54-.4-.88-1.04-1.31-1.57Zm19.26 21.27c-.35-.17-.73-.32-1.07-.52-5.66-3.43-11.34-6.83-16.97-10.3-2.5-1.54-4.88-3.24-6.27-5.9-.39-.74-.61-1.56-.9-2.34l.43-.2c3.46 6.1 9.89 8.64 15.4 12.25 2.88 1.87 5.9 3.53 8.86 5.28.65.4 1.32.75.52 1.73Zm-.12-2.36c-6.56-4.12-13.2-8.14-19.59-12.5-1.73-1.18-2.73-3.4-3.99-5.19-.26-.37-.22-.94-.32-1.43.09 0 .18-.03.27-.04.88 1.22 1.65 2.53 2.66 3.64 3.66 4.06 8.58 6.5 13.13 9.42 2.76 1.77 5.6 3.4 8.39 5.14.29.18.37.66.55 1-.37 0-.83.13-1.1-.04Zm14.83 23.27-.4.4c-.45-.24-1.03-.36-1.34-.72-1.73-1.96-3.39-3.98-5.31-5.86l4.94 7.54c-2.56-1.07-3.92-3.29-5.4-5.4l-.38.28 4.28 6.26-.41.3c-2.45-1.78-4.2-4.17-5.74-6.73l-.39.25c1.22 1.87 2.43 3.75 3.66 5.62.17.26.47.45.57.73.15.4.17.84.24 1.26-.38-.15-.94-.2-1.12-.48-1.7-2.57-3.68-5.03-4.9-7.8-3.03-6.88-2.58-13.76.97-20.41.3-.56.72-1.06 1.09-1.59l.6.23c-2.02 3.9-3.63 7.89-3.39 12.35.79-4.12 1.88-8.1 4.55-11.5l-3.1 9.84.5.15c.95-3.25 1.88-6.51 4.24-9.2-1.48 3.45-2.88 6.9-2.73 10.43.45-1.52.85-3.34 1.54-5.06.65-1.63 1.6-3.17 2.42-4.74l.82.15c-5.61 9.13-2.62 16.75 4.2 23.7h-.01Zm19.5-11.8c-1.8 3.68-3.66 7.35-5.5 11.02-.04.07-.18.1-.4.2-.23-.26-.51-.54-.74-.85-3.71-5.04-8.37-9-14.14-11.7a21.55 21.55 0 0 1-3.02-1.65c-.42-.29-.62-.9-.7-1.53 6.23 2.9 12.44 5.7 16.79 11.36-.76-2.13-2.75-4.5-5.64-6.28-3.1-1.9-6.33-3.63-9.5-5.43-.31-.17-.73-.27-.94-.54-.1-.13-.16-.3-.2-.48l-.1-.55.25-.04c.26-.05.53-.11.71-.02 5.91 3.1 12.1 5.83 16.35 11.43-.74-2.23-3.18-4.91-6.28-6.72-3.1-1.82-6.28-3.5-9.43-5.26-.61-.34-1.5-.6-.48-1.71 5.98 3.28 12.45 5.91 16.97 11.4a14.9 14.9 0 0 0-5.64-5.96c-2.78-1.73-5.66-3.34-8.5-5-.49-.29-1.06-.49-1.48-.86-.31-.27-.43-.76-.63-1.15.41.02.9-.1 1.23.08 2.1 1.07 4.15 2.21 6.22 3.32 3.95 2.12 7.47 4.73 10.15 8.31l.34-.26-4.77-5.7c2.35.32 3.79 1.9 5.23 3.53l-.89-1.87c1.8.72 3.22 1.25 4.6 1.89.18.08.28.75.14 1.02Zm38.35 18.72a14.7 14.7 0 0 0 9.4 3.41c.54 0 1.1.08 1.65.13l.14.56c-.62.22-1.23.6-1.86.65-2.92.16-5.61-.64-8.15-1.98 2.27 1.98 5.02 2.76 8.05 2.79l.15.48c-.56.21-1.18.7-1.65.59-2.56-.6-5.09-1.33-7.75-1.95l6.63 3.14c-2.89 1.2-4.67-1.13-6.98-1.68l3.33 2.53c-4.07.44-4.78-3.15-7.38-4.42 1 1.75 1.87 3.6 3.07 5.21a32.73 32.73 0 0 0 4.22 4.55c1.55 1.43 3.3 2.65 5 3.98-2.43.34-9.14-3.88-12.7-7.97-3.39-3.9-5.48-8.45-6.94-13.4-.16 2.06 1.17 6.59 2.8 9.54 1.66 3.06 3.64 5.95 6.53 7.98 2.78 1.96 5.84 3.55 8.73 5.27-.9 0-2.05.06-3.18-.02-1.14-.09-2.27-.32-3.48-.21l5.03 1.23c-8.52 4.84-24.5-1.88-26.56-11.33 1.53 1.86 2.73 3.66 4.28 5.13 1.59 1.5 3.5 2.68 5.45 3.83-3.61-2.74-6.92-5.66-8.36-10.1a21.32 21.32 0 0 0 8.38 7.77c-3.2-2.57-6.08-5.38-7.4-9.34l5.93 6.32.35-.29c-2.35-2.86-5.67-5.18-5.58-9.65-1.9 2.7-3.88 5.08-7.1 6.05-3.15.95-6.16.73-9.07-.97l6.15-.52-7.2-.55v-.57c2.93.1 5.76-.25 8.35-1.62.77-.4 1.5-.88 2.19-1.48-3.68 1.72-7.42 2.88-11.63 2.01 4.22-1.53 8.1-3.47 10.78-7.16 2.67-3.68 3.61-7.85 3.75-12.28l.61-.12c.22.47.7.99.63 1.4-.54 3.01-1.17 6-1.81 8.98-.11.53-.4 1.02-.6 1.52 2.54-3.28 3.1-7.12 3.25-11.07 1.57-.16 1.46.8 1.32 1.66-.33 2.2-.72 4.4-.75 6.7l1.82-7.59c.88.16 1 .27.84 1.32-.4 2.56-.86 5.12-1.05 7.75l2.21-8.77c1.23.32 2.6.62 3.9 1.08.33.13.57.75.69 1.18.62 2.4 1.2 4.81 1.8 7.21l.41-.1c-.44-2.22-.91-4.43-1.32-6.66-.05-.25.07-.52.17-.79l.09-.27.22.2.24.2c.16.14.3.28.35.45.95 2.52 1.83 5.05 3.02 7.49l-2.23-7.69.61-.33c.38.43.86.8 1.11 1.3 1.77 3.53 3.92 6.78 7.1 9.28Zm167.92-2.55a17.87 17.87 0 0 0 9.27 6.81c.61.21 1.2.48 1.75.86-4.32.9-8.16-.4-11.87-2.3 3.12 2.64 6.81 3.56 10.9 3.35v.51l-5.8.64-.04.2 4.74.23c-1.41 1.64-5.47 2.07-9 1.05-3.29-.95-5.24-3.39-7.14-6.07.09 4.59-3.32 6.94-5.76 9.97.75-.6 1.54-1.14 2.25-1.78.77-.7 1.5-1.44 2.17-2.22.66-.78 1.2-1.63 2-2.31-1.32 3.94-4.16 6.76-7.4 9.28 3.6-1.75 6.27-4.44 8.41-7.72-1.43 4.43-4.72 7.34-8.42 9.93 4.24-1.77 7.24-4.84 9.63-8.59a15.76 15.76 0 0 1-7.62 9.5c-5.9 3.35-12.2 3.5-18.66 1.6l4.94-1.23-.05-.18-6.71.6-.24-.48c10.8-3.8 16.67-11.4 18.45-22.15-3.2 10.23-9.24 17.94-20.08 21.4 5.28-3.82 10.2-7.92 12.25-14.37-1.13 1.25-2.3 2.47-3.4 3.76-.9 1.05-1.94 1.23-3.4.81 1.2-.9 2.26-1.73 3.65-2.8-2.7.8-4.49 3.35-7.45 2.03l6.62-3.1-.23-.43c-6.36 2.83-8 3.1-9.13 1.43 1.12-.17 2.2-.26 3.25-.5.98-.21 1.94-.59 2.91-.89l-.08-.38c-.3.02-.6.04-.91.08-1.8.25-3.6.58-5.42.72-.54.04-1.12-.47-1.68-.73a17 17 0 0 0 .18-.42c1.5-.14 3.02-.14 4.48-.45 5.6-1.18 9.19-4.9 12.06-9.41.63-1 1.06-2.12 1.68-3.13.26-.44.73-.78 1.1-1.16l.56.31-2.01 7.11.22.08c.56-1.36 1.1-2.72 1.69-4.06.56-1.27.42-2.85 1.54-3.88l.54.14c-.22 1.41-.38 2.84-.67 4.23-.28 1.39-.7 2.74-1.06 4.12l.44.1c.68-2.58 1.45-5.16 2-7.77.2-.92.55-1.33 1.42-1.52 1.12-.25 2.21-.58 3.26-.85l2.16 8.82.3-.07c-.44-2.48-.91-4.94-1.28-7.43-.09-.58.2-1.2.33-1.81l.45.1 1.82 7.65.35-.07c-.36-2.16-.74-4.31-1.07-6.47-.13-.84-.35-1.82 1.26-1.86.26 3.95.7 7.84 3.13 11.27-.61-2.11-1.28-4.13-1.74-6.2a24.93 24.93 0 0 1-.5-4.4c-.01-.42.47-.85.72-1.27.2.4.58.8.6 1.21a19.62 19.62 0 0 0 3.35 10.56Zm-28.94-7.38a450.86 450.86 0 0 1-26.5 4.52 222.11 222.11 0 0 1-31.56 2.48c-9.14.03-18.29.03-27.42-.35a300.36 300.36 0 0 1-76.17-13.37c-20.97-6.63-40.8-15.5-58.84-27.96-1.97-1.36-3.82-2.88-5.8-4.24-2.11-1.44-4.3-2.78-6.66-4.28.7-1.04 1.62-2.45 2.57-3.83 5.78-8.36 11.77-16.6 17.3-25.12 3.52-5.42 8.66-6.5 14.63-4.97 4.02 1.02 7.2 3.5 10.55 5.7 12.17 7.97 25.4 13.78 39.24 18.33a221.24 221.24 0 0 0 37.45 8.77c8 1.15 16.05 2.08 24.11 2.52 9.76.54 19.56.78 29.33.55 8.28-.2 16.56-1.11 24.8-2a224.81 224.81 0 0 0 39.42-7.96c16.65-4.9 32.49-11.5 46.83-21.2 3-2.02 6-4 9.6-4.85 3.06-.73 6.18-1 9.07.5 1.39.71 2.83 1.71 3.7 2.95 7.02 9.96 13.91 20 20.84 30.01.2.29.34.6.56.99-5.62 1.72-9.36 6.02-13.96 9.08a212.75 212.75 0 0 1-34.44 18.54 258.34 258.34 0 0 1-48.65 15.2Zm64.84-11.64c-2.79 1.55-5.63 3-8.3 4.7-3.39 2.16-6 5.12-8.42 8.23-.3.4-.63.76-1.17 1.39l-6.15-12.33 4.93-1.92-.64 1.87c2.28-2.2 4.02-3.4 5.21-3.57l-4.7 5.53.34.32c4.05-5.7 10.38-8.34 16.26-11.57.35-.19.9 0 1.36 0-.26.38-.42.92-.78 1.13-3.27 1.95-6.62 3.78-9.86 5.76a17.24 17.24 0 0 0-6.1 6.35c1.66-1.55 3-3.22 4.72-4.33 3.88-2.52 7.94-4.77 11.96-7.08.27-.16.77.07 1.16.12-.21.34-.33.83-.64 1-3.17 1.82-6.4 3.51-9.54 5.37a15.57 15.57 0 0 0-6.12 6.16c4.17-4.98 9.97-7.61 15.57-10.52.4-.2.97-.09 1.46-.12-.27.42-.44 1-.83 1.22-3.33 1.94-6.75 3.75-10.04 5.76a14 14 0 0 0-5.53 6.05c4.3-5.5 10.54-8.24 16.57-11.38.68 1.1.01 1.47-.71 1.87h-.01Zm6.09 13.45c-.94 1.64-2.2 3.11-3.38 4.61-.25.31-.84.38-1.27.56l-.12-.36 4.93-7.65-.38-.23c-1.6 2.65-3.38 5.14-5.86 7.04l-.45-.32 4.26-6.25c-.12-.1-.25-.18-.38-.27-1.48 2.13-2.92 4.3-5.14 5.73l-.32-.26 4.95-7.53-.14-.02c-2 2.16-4 4.33-6.04 6.48-.06.06-.35-.08-.81-.2.54-.66.97-1.2 1.42-1.71 3.52-3.95 6.05-8.35 5.56-13.74-.2-2.26-1.27-4.47-1.97-6.69-.17-.53-.45-1.01-.43-1.63 2.56 2.73 3.53 6.14 4.34 9.82.08-3.93-1.27-7.3-3-10.6l.92-.28 3.86 9.42.24-.05-3.23-10.38c.52.72 1 1.45 1.4 2.18 1.8 3.16 2.63 6.42 3.29 9.76.16-3.6-.83-6.92-2.32-10.13a41 41 0 0 0-1.1-2.2l.49-.24c.35.43.78.81 1.04 1.29 4.35 8.01 4.14 15.99-.37 23.85Zm4.4-23.25c4.13-2.55 8.32-5 12.38-7.62a77.97 77.97 0 0 0 7.78-5.69c1.27-1.06 2.07-2.64 3.1-3.98l.58-.77.46.2c-.4.98-.58 2.13-1.24 2.9-1.6 1.87-3.18 3.92-5.2 5.25-5.68 3.77-11.58 7.22-17.4 10.79-.3.19-.65.31-1.01.48-.94-.96.03-1.23.56-1.56Zm23.82-12.24a34.03 34.03 0 0 1-5.82 5.08c-5.47 3.51-11.12 6.78-16.7 10.13-.38.23-.81.4-1.23.6-.8-1.1.02-1.44.68-1.84 5.26-3.17 10.55-6.3 15.79-9.53 3.33-2.05 6.5-4.32 8.32-7.93l.52.27c-.5 1.09-.76 2.4-1.56 3.22Z"/><path d="M143.94 47.05c-1.97-.37-4-.41-6.45-.65 1.97 2.23 3.72 4.12 5.33 6.1.54.67 1 1.63 1 2.45.06 19.61.06 39.23 0 58.84 0 .83-.45 1.78-.99 2.45-1.6 2-3.34 3.88-5.18 5.98 3.89-.25 7.42-.87 10.88-.6 6.74.54 13.43 1.67 20.16 2.38 6.04.64 12.1.41 18.02-1.02 8.8-2.14 14.96-6.96 16.6-16.17 1.63-9.11-3.38-17.29-12.39-20.25-4.72-1.54-9.62-1.47-14.49-1.73-.33-.02-.79.1-1 .32-1.64 1.75-3.24 3.55-5.15 5.66.88-.1 1.28-.11 1.66-.2 1.94-.45 3.86-1.02 5.82-1.33.97-.16 2.1-.08 3 .28 9.18 3.57 8.98 13.78 5.4 19.11-2.37 3.51-5.94 5.26-9.98 6.23-4.24 1.01-8.53 1.05-12.85.65-2.25-.21-2.38-.24-2.38-2.45v-56.08c0-3.4-.02-3.55 3.47-3.9 4.85-.5 9.69-.26 14.22 1.73 4.6 2.02 7.5 5.43 7.96 10.42.52 5.43-1.34 9.88-6.36 12.72-.65.36-1.6.48-2.35.34-2.5-.48-4.96-1.13-7.92-1.82 1.68 1.88 2.97 3.49 4.45 4.9a4.6 4.6 0 0 0 2.57 1.1c1.66.15 3.36.02 5.04-.03 7.47-.23 14.21-5.4 16.2-12.43 2.19-7.68-.18-15.46-6.07-19.96-4.77-3.64-10.3-5.25-16.25-5.51-7.66-.34-15.19.89-22.73 1.95-3.05.43-6.08 1.13-9.23.52Zm-69.85 15.72c.45-.37.79-.68 1.16-.94 2.98-2.1 5.94-4.2 8.94-6.25 2.02-1.38 4.23-2.52 6.13-4.03 3.65-2.88 5.8-6.6 6-11.39l-6.19 1.91c2.96-8.37-.16-15.1-4.43-21.85a28.74 28.74 0 0 1-8.25 8.49c-3.97 2.78-7.64 5.78-9.14 10.6l-.48-.03-.93-6.41c-4.09 4.3-5.8 9.02-4.55 14.53 1.55 6.78 6.67 11.02 11.74 15.37Zm-9.06-24.5c.1-.21.26-.4.62-.92.61 3.68 1.87 6.65 5.3 8.4 1-2.25 1.98-4.42 2.96-6.58l-.16-.11-3.32 5.32c.5-3.97 2.67-7.08 5.24-10-2.99 2.01-4.6 5-6.27 8.1 0-.35-.06-.71 0-1.05.78-3.8 3.02-6.73 6.1-9.02 3.17-2.36 6.61-4.4 9.05-7.58.08-.1.27-.12.55-.23a21.59 21.59 0 0 1-2.56 8.46c-1.99 3.89-4.08 7.74-5.9 11.7a30.66 30.66 0 0 0-1.95 6.72c1.96-6.12 5.73-11.37 8.62-17.03 1.39-2.72 2.53-5.5 2.71-8.58.02-.27.18-.53.29-.88 3.76 4.93 4.28 14.26 1.3 17.13l.51-8.4-.2.13c-.36 3.14-.6 6.37-2.43 9.23l1.2-8.1c-1.14 3.23-1.23 6.78-3.59 9.88l8.89-1.55.24.23-5.7 4.07.1.14 4.64-2.4.3.31-3.9 3.41.17.24 3.96-2.58.25.18c-.32.44-.57.97-1 1.3-2.42 1.86-4.85 3.73-7.36 5.47-2.82 1.96-5.72 3.8-8.64 5.62-.46.3-1.42.5-1.73.25-3.75-3.04-7.17-6.36-8.65-11.07a14.34 14.34 0 0 1 .35-10.2Zm180.46 5.81c1.6 4.87 5.34 7.92 9.65 10.48 2.91 1.73 5.75 3.58 8.56 5.46 1.16.77 2.15 1.77 3.2 2.64 3.3-2.1 7.68-6.63 9.9-10.3 2.58-4.29 3.13-8.83 1.42-13.54-.8-2.2-2.15-4.1-4.01-5.93l-.86 6.36-.56.08c-1.02-3.65-3.4-6.36-6.33-8.56-4.08-3.06-8.24-6-11.05-10.56-4.23 6.8-7.4 13.56-4.36 21.89l-6.44-2.02c.33 1.53.48 2.8.88 4Zm3.54-.8 9 1.6c-2.33-3.12-2.44-6.66-3.57-9.88l1.2 8.1c-1.83-2.88-2.08-6.16-2.45-9.41l-.48.08.93 8.31c-3.06-2.49-2.66-11.95 1.23-17.25.17 1.08.29 1.95.44 2.81.75 4.22 3 7.83 5.07 11.5 2.46 4.34 4.94 8.67 6.17 13.55-.3-3.96-1.68-7.6-3.45-11.11-2.01-4-4.09-7.95-5.96-12-.7-1.5-.89-3.2-1.43-5.25.67.42.92.54 1.13.72 2.44 2.08 4.76 4.3 7.33 6.21 3.63 2.72 6.72 5.72 7.54 10.34.05.27.01.56-.16.94-1.56-3.5-3.55-6.66-6.84-8.83 2.96 3.01 5.31 6.35 5.9 10.67l-2.72-4.66-.28.16 2.5 5.86c3.41-1.7 4.8-4.63 5.46-8.1a11.66 11.66 0 0 1 1.57 7.2c-.37 5.03-2.95 8.97-6.62 12.33-1.06.97-2.15 2.48-3.35 2.6-1.05.1-2.23-1.44-3.41-2.18-3.27-2.05-6.61-3.98-9.83-6.1-1.46-.97-2.7-2.27-4.01-3.45-.28-.24-.41-.63-.61-.95l.2-.16 4.67 2.87.08-.13-5.2-4.34.23-.35 4.55 2.47.16-.23-5.16-3.67.16-.28.01.01Zm-79.98 151.45c-3.3.02-5.2 2-5.2 5.4 0 3.39 2.08 5.56 5.31 5.53 2.94-.02 5.01-2.2 5.04-5.33.04-3.54-1.88-5.62-5.15-5.6Zm2.28 8.62c-.36.69-1.32 1.45-2.06 1.5-.75.04-1.92-.56-2.27-1.2a7.62 7.62 0 0 1-.16-7.06c.8-1.72 3.23-1.73 4.18-.02.59 1.08.71 2.39 1 3.39-.25 1.33-.22 2.48-.7 3.39Zm-24.05-7.62c-.06 1.95-.3 3.89-.48 5.83a17.76 17.76 0 0 1-2.2-3.1c-.66-1.1-1.3-2.23-1.97-3.33a5.1 5.1 0 0 0-.53-.73 2.19 2.19 0 0 0-1.96-.79c-.36.02-.77.11-1.24.25 1.38 1.26.94 2.77.64 4.18a9.3 9.3 0 0 0-.16.96c-.16 1.7.74 3.85-1.82 5.1l3.02.13c-.17-1.05-.45-2.04-.46-3.03-.02-1.38.16-2.75.27-4.13.03-.41.12-.83.23-1.6 2.34 3.4 3.83 6.86 6.19 9.75l.64-.3c.15-2.02.21-4.05.47-6.06.19-1.5-.36-3.3 1.45-4.48h-2.97c.32.47.9.92.88 1.35Z"/><path d="M138.9 193.86c1.38 1.26.94 2.77.64 4.18.3-1.41.74-2.92-.64-4.18Zm20.9 8.21-.4.07c-1.25-1.93-2.66-3.8-3.73-5.82-.96-1.82-2.32-2.08-4.13-1.69 1.33 1.51 1.09 8.68-.44 10.34h2.88c-.36-.48-.95-.91-.94-1.34.02-2.35.19-4.7.33-7.42 1.95 3 3.66 5.62 5.41 8.22.32.47.86.8 1.3 1.19l.4-.26c.11-2.23.25-4.46.33-6.69.05-1.37-.3-2.84 1.75-3.76h-3.53c2.1 2.32.32 4.83.77 7.16Zm10.78-202.07a101.3 101.3 0 0 0-.01 27.92 102.11 102.11 0 0 0 0-27.92Zm44.99 197.8c-.55-.45-1.2-.78-1.93-1.24 1.79-1.76 2.06-3.01.99-4.05-1.16-1.1-3.78-1.05-5.03.23-.43.44-.96 1.28-.8 1.7.46 1.14 1.26 2.16 1.98 3.33-.23.23-.7.63-1.07 1.1-1.14 1.41-.75 2.95 1 3.54 1.73.58 3.45.34 4.92-.74 1.23-.91 1.17-2.9-.06-3.88Zm-5.04-3.87a2.3 2.3 0 0 1 1.41-1.41c1.03-.27 1.75.73 1.77 2.59-.18.22-.5 1-1.02 1.16-.87.25-2.4-1.39-2.15-2.34Zm2.4 8.14c-1.1.1-2.02-1.08-2-2.99.22-.23.64-1.13 1.2-1.22 1.1-.18 2.58 1.4 2.57 2.45 0 1.13-.72 1.67-1.77 1.76Zm18.3-176.69a105.47 105.47 0 0 0-19.92 19.37 109.2 109.2 0 0 0 19.92-19.37Zm-93.38-17.95c.95 5.66 8.5 22.99 10.8 24.98a113.83 113.83 0 0 0-10.8-24.98Zm-7.91 37.21c-6-7.3-12.6-13.72-20-19.32 3.36 5.16 16.26 17.53 20 19.32Zm73.28-37.38a120.19 120.19 0 0 0-10.77 25.44c3.05-3.7 11.11-22.64 10.77-25.44Zm-70.97 186.44c-.08-.28-.31-.52-.54-.77l-.2-.25-.26.2c-.26.2-.53.4-.74.64-.24.26-.34.63-.52.94l-4.74 8.23 2.85.3c-1.75-1.36-.7-2.77-.03-3a6.2 6.2 0 0 1 3.79.25c.82.3.57 2.31-.23 3.2l3.78.4c-.42-.9-.85-1.58-1.06-2.32-.74-2.6-1.38-5.22-2.1-7.82Zm-3.68 5.13 2.02-4.02.32.07.87 4.34-3.2-.4Zm64.49-4.98c-1.5.15-2.56.85-3.06 2.26a2.91 2.91 0 0 0 .84 3.35c1.15 1.01 2.47.96 3.79.28-2.4-.9-3.23-2-2.72-3.87.16-.57.8-1.35 1.31-1.41.51-.07 1.38.51 1.65 1.03.73 1.4.87 2.89-.24 4.25l-.02.03c.24.14.72.36.71.4-.32.85-.57 1.77-1.09 2.5-.53.73-1.34 1.27-2.13 1.98 3.79-.3 6.05-4.84 5.18-7.88-.65-2.23-1.86-3.15-4.22-2.92Z"/><path d="m194.6 199.78.05-.04-.04.04Zm-8.15 2.52c-.12-2.64-.26-5.27-.4-8.1l-3.52 1.64.1.2 1.51-.11c.09.6.2 1.13.23 1.67.08 1.53.05 3.07.2 4.59.12 1.13.24 2.15-1.3 2.55l.23.38 4.48-.24.21-.48c-1.77.04-1.68-1.06-1.73-2.1h-.01Zm-1.79-186.75a29.7 29.7 0 0 0-2.95 14.42 30.55 30.55 0 0 0 2.95-14.42Zm-28.2-.03c-.1 5.04.8 9.87 2.97 14.45a29.2 29.2 0 0 0-2.97-14.45Zm-17.59 22.68a30.24 30.24 0 0 0-8.32-12.07c1.8 4.66 4.5 8.73 8.32 12.06Zm79.33 15.23a31.83 31.83 0 0 0 12.43-8.08 30.98 30.98 0 0 0-12.44 8.08Zm-7.65-27.24a29.1 29.1 0 0 0-8.14 11.83 29.54 29.54 0 0 0 8.14-11.83Zm-87.47 27.03a37.84 37.84 0 0 0-12.57-8c2.24 3.1 9.9 8 12.57 8Zm48.72 28.96c-.31-.4-1.13-.88-1.44-.74-1.46.64-2.82 1.49-4.46 2.4l3.11 1.76c1.91 1.07 1.84 1.02 3.53-.81 1.26-1.36-.17-1.88-.74-2.6Zm31.98 115.47c-.3-.06-.52-.51-.78-.82l-1 1.07-.38.41c2.87.73 3.76 1.64 3.23 3.18-.19.54-.7 1.37-1.08 1.38-1.13.03-2.27-.29-3.5-.48-.3.8.09 1.38 1.17 1.42.88.02 1.8.01 2.65-.2 1.87-.48 2.7-1.63 2.61-3.32-.08-1.5-.95-2.24-2.93-2.64Z"/><path d="m203 196.83-1 1.07a349 349 0 0 0 1-1.07Zm.03 0-.04-.03-.04-.03.07.08.01-.01Zm2.85-3.59-.32-.41c-1.43.14-2.87.3-4.3.42-2.34.2-2.53.56-1.34 2.7.95-1.46 2.13-1.88 3.86-1.37l-.7 2.04 2.8-3.38Z"/><path d="m203.02 196.82.07-.2-.14.16.04.02.03.02Zm3.59-35.71c.03-.35-.1-.7-.14-1.06l-.86-9.52c1.31-.25 2.16-.7 1.33-2.17-1.87.14-3.75.23-5.63.45-.29.03-.7.6-.72.93 0 .3.44.89.69.9 1.84.02 1.31.88.66 1.71-1.56 2-3.17 3.95-4.76 5.93-.4.5-.85.97-1.42 1.62-.2-.6-.38-.92-.4-1.26a124.9 124.9 0 0 1-.54-6.41c-.02-.32.58-.64.8-1.01.25-.4.56-.85.53-1.27-.01-.22-.66-.6-1.01-.58a38 38 0 0 0-4.4.35c-.36.06-.83.6-.9.97-.04.26.55.61.84.93.34.35.91.69.96 1.07.38 3.2.64 6.41.97 9.62.1 1.08.1 2.01-1.54 1.86.05.94-.42 1.95.95 1.84 1.82-.14 3.63-.38 5.45-.58.08-.92.32-1.7-.97-1.77-.18 0-.58-1-.42-1.2 2.05-2.7 4.2-5.34 6.3-7.99.25.16.4.2.4.27.29 2.53.58 5.06.8 7.6.02.24-.35.69-.6.75-1.37.3-.84 1.13-.71 2.01l6.15-.61v-1.84c-1.53.4-1.9-.33-1.81-1.53Zm-97.79-17.48c-3.05-.85-6.17-1.51-9.38-2.28-.18.65-.3 1.13-.44 1.6l.55.04c.24.62.8 1.3.69 1.86a209.2 209.2 0 0 1-2.4 9.81c-.08.34-.64.58-.99.84-.39.28-.8.54-1.2.82.33.37.6.98.99 1.08 2.68.7 5.38 1.3 8.1 1.87.75.16 1.57.1 2.34.05a3.93 3.93 0 0 0 3.45-2.54c.66-1.56.57-3.1-.66-4.44-.23-.24-.4-.54-.63-.87 2.01-.8 3.04-2.19 2.92-4.2-.12-2-1.53-3.13-3.34-3.64Zm-4.1 13.67c-1.95-.04-4.03-.88-3.8-1.55.55-1.53.3-3.41 1.54-4.53 3.63.53 5.19 1.26 5.16 3.31a2.74 2.74 0 0 1-2.91 2.77Zm1-7.35c-.76-.65-2.97.37-2.87-1.56.07-1.26-.4-3.49 1.6-3.78 2.44-.37 4.49 1.24 4.45 2.88-.03 1.56-1.18 2.52-3.18 2.46Zm-63.27-24.89c-1.2-.9-2.5-1.68-3.96-2.64l2.56-3.81 4.77 3-.78 1.62 1.68 1.1c.7-1.06 1.35-2.02 2.09-3.11-1.88-1.19-3.64-2.3-5.4-3.39l-5.31-3.3c-.65.69-1.41 1.19-.35 2.06.2.16.25.77.1 1-2.08 3.23-4.22 6.44-6.34 9.65l-1.65-.53-.9 1.47c2.9 1.78 5.64 3.58 8.5 5.15.92.5 2.24.65 3.3.48 2.11-.35 3.32-1.84 3.8-3.84.52-2.11-.5-3.68-2.11-4.92Zm-2.86 6.05c-2.3.81-3.62-1.03-5.48-2.02l3.3-5.08c1.7 1.42 4.13 1.75 4.21 4.27.04 1.35-.77 2.38-2.03 2.83Zm40.17 4.16c-1-.32-1.95-.77-2.92-1.14l-9.44-3.65-.7 1.64 2.08 1.09c-1.23 2.45-2.37 4.9-3.68 7.25a5.08 5.08 0 0 1-4.16 2.7c-1.03.08-1.16.71-.96 1.34.13.42.72.95 1.15 1 1.7.18 3.18-.41 4.48-1.5 2.1-1.77 3.21-4.13 4.3-6.52 1.7-3.76 1.76-3.78 5.52-1.74.04.02.06.09.17.26-.1.33-.21.77-.38 1.18-1.2 2.94-2.46 5.86-3.6 8.83-.42 1.1-.98 1.47-2.53.66.2 1 .13 1.96.47 2.12 1.66.82 3.44 1.43 5.28 2.16l.6-1.69-1.41-.86c1.35-3.22 2.73-6.37 3.97-9.56.46-1.19.9-2.05 2.3-1.49.93-1.07.7-1.68-.54-2.08Zm7.54 2.7c-.18.02-.82.05-1.42.21-3.77 1.02-5.13 3.98-5.94 7.26-.85 3.43.15 6.19 2.56 7.74 3.15 2.04 6.68 2.22 9.28.4 1.94-1.34 2.9-3.33 3.53-5.47 1.68-5.6-1.7-10.12-8.02-10.15Zm3.01 12.77c-.93 1.7-2.75 2.2-4.46 1.66-2.04-.66-3.32-2.12-2.94-4.14a23 23 0 0 1 2.13-6.15c.94-1.8 2.74-2.26 4.58-1.7 1.95.59 2.88 1.9 2.87 4.05l.43.16c-.85 2.05-1.54 4.19-2.61 6.12Zm25.12-5.02c-.01.42.31.85.52 1.27.22.43.7.87.65 1.25-.51 3.33-1.1 6.65-1.74 9.96-.07.37-.56.94-.9.95-1.42.08-1.22.94-1.14 1.92 3.46.58 6.87 1.1 10.27 1.72 3.17.57 3.16.61 3.8-2.44.35-1.67.08-1.91-1.8-1.61-.1.27-.28.56-.29.85-.03 1.26-.6 1.55-1.83 1.24-1.31-.33-2.69-.46-4.01-.76-.38-.08-1-.5-.97-.69.21-1.64.55-3.27.86-4.96 1.12.2 2 .38 2.87.53.85.14 1.71.26 2.51.38.71-1.4.55-2.05-1.06-2.1-1.28-.05-2.57-.38-4.04-.61.24-1.36.52-2.5.63-3.66.09-.99.57-1.2 1.45-1.05 1.4.24 2.82.38 4.19.72.36.09.73.7.84 1.12.1.4-.13.88-.25 1.49.84.13 1.78 1.01 2.23-.34.37-1.13.39-2.38.58-3.65-4.24-.73-8.3-1.46-12.39-2.12-.3-.04-.98.37-.98.59Zm107.58 12.11c-.01.33-.13.7-.03 1.02.45 1.48-.44 1.75-1.63 1.86-1.1.1-2.21.2-3.27.48-1.23.32-1.68-.1-1.9-1.25-.8-4.19-.83-4.19 3.5-4.63.73-.07 1.58.09 1.47-1.05-.12-1.2-.97-.98-1.76-.86-1.32.21-2.64.45-4.06.68-.25-1.5-.5-2.75-.62-4-.03-.32.35-.9.62-.95 1.82-.37 3.67-.61 5.53-.9.17.66.19 1.17.43 1.52.26.37.81.88 1.11.81.39-.09.92-.7.9-1.07-.06-1.15-.35-2.28-.56-3.49-4.3.63-8.39 1.2-12.48 1.84-.3.04-.81.5-.77.67.1.44.46 1.19.7 1.18 1.37-.04 1.31.84 1.42 1.73.11.96.34 1.9.5 2.86l1.09 7.34-1.52.7c.27 1.7.42 1.78 2.16 1.5l7.62-1.17c1.37-.22 2.74-.46 4.15-.7-.15-1.12-.28-2.03-.39-2.94-.16-1.33-.85-1.75-2.22-1.18h.01Zm-166.35-19.19-1.35 2.13c-1.79-.89-3.49-1.7-5.13-2.59-.28-.15-.55-.81-.44-1.07.67-1.43 1.46-2.8 2.25-4.3 1.25.65 2.36 1.2 3.45 1.8 1.68.9 1.67.9 2.36-.98-1.3-.63-2.58-1.31-3.92-1.86-1.12-.46-.95-1.2-.38-1.8.87-.9.37-3.25 2.6-2.66 1.39.37 2.64 1.24 3.95 1.9.68.33.93.77.44 1.45-1.04 1.45-.07 1.82 1.23 2.1.42-.79.78-1.59 1.27-2.3.75-1.1.65-1.84-.7-2.34-.74-.26-1.41-.68-2.11-1.03l-8.47-4.19-.83 1.53c.9.73 1.12 1.52.68 2.37l-.94 1.77c-1.36 2.53-2.7 5.06-4.06 7.57l-1.68-.32-.76 1.44c.44.29.77.54 1.13.72 2.8 1.4 5.62 2.78 8.42 4.19 2.7 1.36 2.7 1.36 4.15-1.3.9-1.65.85-1.75-1.16-2.24v.01Zm203.56 5.33a9.66 9.66 0 0 0-3.36.54c-3.48 1.03-3.65.98-4.32-2.5-.07-.34.14-.97.4-1.1 1.18-.6.69-1.27.2-2.13l-6.16 2c.17 1.1.28 1.9 1.57 1.56.23-.06.79.39.9.7 1.19 3.28 2.32 6.56 3.42 9.86.1.34-.06 1.08-.27 1.16-1.41.5-.8 1.26-.3 2.21 3.2-1.07 6.3-2 9.31-3.15 2.56-.97 3.46-2.62 3.13-5.02-.33-2.35-1.93-3.94-4.52-4.14v.01Zm-.45 7.75c-3.33 1.63-3.48 1.52-4.56-1.82-.61-1.86.14-3.06 2.25-3.6 2.22-.56 4.04.78 4.37 3.25-.68.74-1.22 1.76-2.06 2.17Zm31.99-12.01.99 1.52c3.02-1.79 5.95-3.38 8.73-5.2 2.2-1.44 2.62-3.46 1.56-5.64-1.17-2.38-3.28-3.42-5.83-2.69-1.14.33-2.19.96-3.26 1.48-.7.32-1.36.69-2 1.02-2.48-3.13-2.57-3.52-1.1-4.89l-.89-1.44-5.77 3.27.94 1.48 1.64-.54 6.3 10.48-1.31 1.15Zm1.16-7.63c1.69-1.02 3.1-2.6 5.32-1.95 1.38.4 2.01 1.58 2.08 2.95.07 1.45-1.21 2.57-4.47 3.92l-2.92-4.91Zm-13.04-2.9c-3.27.98-6.42 2.37-9.73 3.63l.92 1.78 1.57-.37c1.46 3.22 2.85 6.4 4.36 9.55.51 1.07.73 1.88-.67 2.4.25.6.45 1.1.7 1.67l6.43-2.77-.8-1.6-2.06.56-1.79-3.9c1.54-.76 2.9-1.32 4.15-2.05a4.52 4.52 0 0 0 1.95-5.61c-.82-2.29-2.95-3.91-5.03-3.29Zm-1.56 8.88c-.27-.05-.58-.4-.72-.68-.6-1.2-1.17-2.4-1.68-3.63-.13-.3-.12-.84.07-1.08.62-.78 3.25-1.33 4.13-.9a3.4 3.4 0 0 1 1.89 2.91c0 1.64-2.23 3.58-3.69 3.38Zm-110.59 12.09c-1.36-.1-2.72-.31-4.08-.26-3.74.14-5.97 1.88-6.87 5.4a13.5 13.5 0 0 0-.43 3.94c.15 2.81.93 5.39 3.91 6.65 2.58 1.09 5.25.88 7.9.34.34-.07.8-.8.75-1.17-.06-.36-.65-.85-1.07-.93-.64-.12-1.35.08-2.03.13-3.23.24-5.47-1.08-5.83-3.65-.2-1.46-.17-2.98.02-4.44.21-1.54.86-2.94 2.48-3.68 2.52-1.14 4.44-.27 4.37 2 2.02.8 2.16.72 2.18-1.29 0-.45-.04-.92.02-1.38.11-1-.26-1.58-1.32-1.66Zm76.19 5.73c-2.8.7-4.7-.19-5.8-2.8a11.4 11.4 0 0 1-.8-2.79c-.55-3.55.56-5.4 3.52-6.17 1.23-.33 2.14-.35 2.4 1.22.06.3.91.55 1.43.63.13.03.57-.7.54-1.08-.04-.75-.35-1.48-.48-2.23-.15-.9-.7-1.25-1.54-1.08-1.93.41-3.93.7-5.74 1.4a5.5 5.5 0 0 0-3.44 4.62c-.34 2.54.06 4.99 1.22 7.3.97 1.94 2.4 3.42 4.67 3.72 3.14.4 6-.52 8.72-2.19l-.87-1.7c-1.44.43-2.62.84-3.84 1.15h.01Zm27.2-8.93a344.38 344.38 0 0 1-3.34-9.73c-.12-.35 0-1.09.22-1.17 1.4-.58.68-1.29.31-2.16l-6.1 1.99.57 1.61.29-.32c.56.34 1.44.56 1.61 1.03 1.27 3.4 2.4 6.87 3.55 10.31.04.13-.04.3-.06.45l-1.28.68.62 1.67 5.97-1.93.3-.6c-.54-.33-1.08-.64-1.6-.99-.38-.25-.93-.48-1.06-.84Zm28.2-26.63c.6.23 1.47.3 1.74.72 2 3.11 3.86 6.3 5.97 9.78-.5.32-.95.59-1.44.88l1.03 1.58 5.56-3.2-.9-1.5c-.56.2-1.04.35-1.6.54-1.81-3.01-3.55-5.98-5.38-8.9-.67-1.06-1.05-1.96.36-2.74l-.93-1.42-5.57 3.15.88 1.52.28-.4Zm-121.77 44.14c-.21 0-.57-.65-.58-1.01-.15-3.31-.22-6.63-.34-9.94-.02-.75-.04-1.42 1-1.6.24-.04.53-.7.5-1.05 0-.24-.53-.63-.83-.63a57.17 57.17 0 0 0-4.72.08c-.28.02-.75.45-.76.7 0 .37.25.82.53 1.1.21.2.65.2 1.35.37v10.86c0 .69.04 1.31-.98 1.41-.24.02-.57.75-.55 1.13.02.27.58.73.9.72 1.76-.04 3.53-.2 5.48-.33-.07-.89.37-1.76-1-1.8Zm-33.72-1.09c-.25-.06-.57-.62-.54-.92.34-3.75.74-7.5 1.14-11.37.5-.07.92 0 1.09-.17.32-.34.57-.78.69-1.23.03-.14-.43-.56-.7-.6-1.56-.17-3.13-.3-4.7-.35-.3-.01-.85.32-.87.54-.04.36.22.77.42 1.13.23.43.79.84.76 1.22-.27 3.7-.64 7.4-.98 11.17-.48.04-.92-.05-1.16.13-.3.23-.6.67-.62 1.03-.02.27.37.77.62.8 1.85.25 3.71.4 5.58.59.19-.95.45-1.69-.73-1.97Z"/><path d="M139.56 155.94c-1.44-2.55-2.84-5.14-4.6-7.47-.5-.63-2.2-.5-3.33-.5-.25 0-.5.91-.67 1.25 1.12.69 2.07 1 2.6 1.65 1 1.23 1.71 2.68 2.64 3.98.6.83.42 1.43-.2 2.14a81.5 81.5 0 0 0-3.15 3.83c-.63.81-1.27 1.44-2.44 1.37-.3-.01-.84.45-.89.75-.05.3.28.91.58 1.01 2.04.66 3.07.9 4.5-.81 1.58-1.9 3.11-3.85 4.61-5.82.28-.36.53-1.07.35-1.38Zm45.32 6.99c-.82-.86-1.48-1.85-2.22-2.79-1.92-2.45-1.97-2.5-.08-4.95 1.05-1.36 1.62-3.32 3.9-3.45.07 0 .33-1.3.06-1.54-1.04-.94-3.06-.6-3.91.58-1.42 1.97-2.76 4-4.16 5.97-.62.88-.61 1.69.04 2.54 1.47 1.93 2.86 3.92 4.43 5.78.6.71 1.57 1.12 2.38 1.66l.24-.37c.37 0 .8.12 1.1-.03.5-.24.9-.66 1.35-1-.4-.36-.76-.75-1.19-1.07-.62-.47-1.4-.78-1.93-1.33Zm-30.66-12.95c-1.2-.8-3.08-.5-4.12.67-1.52 1.69-2.98 3.43-4.52 5.1-.69.76-.8 1.48-.32 2.37 1.1 2.03 2.2 4.06 3.23 6.13.67 1.36 1.67 2.06 3.01 1.89h.7c.79 0 1.63-.12 1.53-1.06-.04-.37-.81-.67-1.25-1-.44-.31-1-.55-1.29-.97-.53-.75-.92-1.6-1.36-2.41-1.36-2.53-1.05-4.85.92-6.98.86-.93 1.57-2.07 3.19-1.88.24.03.72-.55.81-.9.07-.28-.23-.77-.52-.96Zm-130.54-88.22c-5.06 4.61-5.99 13.38-1.85 18.83l-.64-1.54a14.76 14.76 0 0 1 5.48-18.44c5.32-3.59 11.27-4.34 17.47-3.15 3.04.58 6 1.65 8.99 2.5l.06-.08c-2.09-.88-4.1-2-6.27-2.59-8.48-2.31-16.47-1.7-23.24 4.47Zm81.87 1.88c-7.91-1.4-15.14.03-21.51 5.01 6.53-4.28 13.76-5.7 21.51-5.01Zm-37.3 24.07c-6.4-2.02-14.92.7-18.59 6.07 5.29-4.89 11.3-7 18.6-6.07Zm-47.51-25.13.63-.52c1.56-1.34 3-2.88 4.71-3.99 1.77-1.13 3.82-1.85 5.94-2.85-4.76.96-8.64 2.94-11.43 6.67-.13.17-.2.38-.26.6l-.13.54.54-.44Zm-.57.57.04-.12-.1.07.03.03.03.02Zm.17-.67-.14.55.14-.55Zm-.14.55.55-.44-.55.44Z"/><path d="M38.29 74.12c-.1-5.74 1.54-8.24 6.67-10.14-4.9.05-8.53 4.7-6.67 10.14Zm63.37 5.25c1.31-4.6-1.33-9.16-5.45-9.5 4.36 1.78 5.3 5.27 5.45 9.5Zm9.93-14.27 9.57 6.79a22.5 22.5 0 0 0-9.57-6.8Zm-29.63 8.97c-3.42 3.14-4.25 9.21-1.72 12.28-1.76-4.42-1.2-8.5 1.72-12.28Zm-.56 27.31-3.67-8.58-.52.21 3.63 8.6.57-.23Zm-18.15-30.37 6.05 8.71.4-.26-6.05-8.71-.4.26Zm47.63 44.54-10.15 2.1c3.3.6 7.14-.64 10.15-2.1Z"/><path d="M40.17 64.02c-2.95 1.14-3.95 3.45-3.53 7.97-.03-3.15.78-5.95 3.53-7.97Zm57.26 48.81 6.2-3.32c-2.29.42-5.28 2.05-6.2 3.32Zm-77.36-49.6c-1.1.94-2.1 3.56-2.04 5.42l1.35-3.52.69-1.9Zm.11-.08-.04-.03-.03-.03-.05.14.11-.08Zm-.11.08-.7 1.9.7-1.9Zm.11-.07-.04-.04.04.04Zm79.94 45.99-.17-.22-5.51 3.95.15.2 5.53-3.92Zm6.68-37.32-4.49-3.18c-.06.1-.14.18-.2.27l4.42 3.3.28-.38Zm1.4 43.17.01-.3-6.78 1.23.03.18 6.75-1.12Zm202.4-56.44c7.1 2.73 10.93 8.22 10.52 15.46-.12 2.13-.94 4.22-1.33 5.89 3.63-4.83 2.65-13.36-2.25-18.14-7.62-7.42-21.14-7.03-28.9-1.88.63-.19 1.24-.44 1.85-.67 6.63-2.43 13.31-3.28 20.11-.66Z"/><path d="M323.41 69.73c-1.33-8.54-6.33-13.31-15.28-14.65 9.2 2.76 13.56 7.37 15.28 14.65Zm-88.1-5.94c7.67-.83 14.6.49 20.91 4.42.05-.12.13-.25.1-.27-4.23-3.9-15.21-6.14-21-4.16Zm54.26 28.14c-3.3-4-10.95-6.04-16.77-4.17 6.45-.94 11.85.72 16.77 4.17Zm6.46-27.99c2.42.75 4.54 1.72 5.47 3.87.84 1.98 1.2 4.16 1.62 5.72 1.27-4.8-1.65-9.3-7.09-9.6Zm-56.52 15.26c.1-4.1 1.08-7.6 5.3-9.35a7.01 7.01 0 0 0-5.3 9.36Zm-19.03-7.8 9.55-6.47a21.35 21.35 0 0 0-9.55 6.47Zm56.94.26c-.15-.1-.3-.2-.46-.28l-6.02 8.98.35.21 6.14-8.9Zm-18.12 2.57c2.85 3.77 3.33 7.82 1.7 12.17 2.3-4.2 1.62-9.1-1.7-12.17Zm4.63 18.68-.51-.2-3.68 8.66.57.22 3.62-8.68Zm-34.05 22.38c3.22 1.97 7.92 2.84 10.94 2.2-1.45-.16-3.39-.26-5.27-.64-1.93-.38-3.8-1.03-5.68-1.56Z"/><path d="M300.4 63.73c3.05 1.86 4.1 4.65 4.09 8.34.47-4.91-.74-7.27-4.1-8.34Zm-63.02 45.71 6.6 3.52.17-.36-6.61-3.44-.16.28Zm-3.58-36.47 5.23-4.1a9.24 9.24 0 0 0-5.23 4.1Zm5.99 43-6.9-1.28-.05.27 6.86 1.17.08-.16Zm2.47-6.05 4.2 3.16.18-.2-4.2-3.18-.18.22Zm11.06 80.67a18.24 18.24 0 0 0 2.11-10.66l-2.11 10.66Zm-165.36.16-2.3-10.82c-.42 4.06.46 8 2.3 10.82Zm-17.73-136.34-4.83-9.86a14.7 14.7 0 0 0 4.83 9.86Zm11.64-1.99-.29-.39-5.8 3.7.25.37 5.84-3.67Zm-11.37-1.42-2.02-3.86-.4.13 1.99 3.93.42-.2Zm205.24-6.47-4.77 9.8a14.37 14.37 0 0 0 4.77-9.8Zm-10.14 11.34-6.06-3.8-.24.37 6.09 3.85.2-.42Zm7.4-8.41-.43-.17-1.89 3.7.4.2 1.91-3.73Z"/></g><defs><clipPath id="a"><path fill="#fff" transform="translate(.056)" d="M0 0h341v209h-341z"/></clipPath></defs></svg>