<svg viewBox="0 0 176 247" fill="none" xmlns="http://www.w3.org/2000/svg"><path d="M165.23 111.53c-.88 1.15-1.7 2.13-2.41 3.18a26.18 26.18 0 0 0-4.38 11.86c-.89 7.4 1.16 13.95 5.61 19.77 1.29 1.68 3.1 2.95 4.6 4.48.41.43.8 1.12.8 1.7.06 5.64.16 11.28 0 16.91-.13 4.21-.59 8.41-1 12.61a49.4 49.4 0 0 1-4.86 17.27 36.75 36.75 0 0 1-10.62 12.74 59.67 59.67 0 0 1-12.13 7.03c-4.7 2.14-9.54 3.96-14.3 5.96-3.82 1.6-7.64 3.17-11.4 4.89a117.71 117.71 0 0 0-19.84 11.23c-2.38 1.71-4.73 3.47-7.17 5.26-2.65-1.95-5.3-4.13-8.16-5.97a126.6 126.6 0 0 0-12.2-7.17c-6.25-3.07-12.7-5.74-19.06-8.58-6.22-2.78-12.48-5.46-18.63-8.37a38.63 38.63 0 0 1-9.28-6.41 36.49 36.49 0 0 1-8.42-11.33 47.98 47.98 0 0 1-3.97-12.88 79.01 79.01 0 0 1-1.3-14.35c.02-1.56-.13-3.13-.24-4.69-.06-.83.28-1.18 1.11-1.11.51.04 1.03.02 1.54 0 3.74-.08 7.48-.1 11.21-.27 3.71-.17 7.43-.4 11.12-.78a339.5 339.5 0 0 0 13.97-1.77c5.34-.78 10.69-1.56 15.98-2.6 5.06-1.02 10.1-2.25 15.07-3.62a249.14 249.14 0 0 0 16.48-5.08 298.49 298.49 0 0 0 17.82-6.95c4.92-2.1 9.75-4.45 14.52-6.89 8.6-4.39 16.86-9.42 24.77-14.96 4.99-3.5 9.75-7.31 14.78-11.1Zm-64.63 53.67c-2.48.78-4.9 1.25-7.42.39-2.15-.73-4.38-.69-6.59-.5-2.2.18-4.43.83-6.31-.98-.08-.08-.25-.04-.36-.1-1.79-.97-3.49-.52-5.26.17a4.1 4.1 0 0 0-2.73 4.64 4.25 4.25 0 0 0 3.96 3.42c2.36.11 3.93-1.34 5.47-2.73 1.24-1.13 2.39-1.53 4.05-.94 2.07.74 4.14 1.55 6.47 1.4 1.45-.1 2.78.57 3.34 1.56 0 1.41.02 2.42-.01 3.43-.02.5-.12 1-.2 1.49-.1.7-.41 1.46-.25 2.1.31 1.25 0 2.44-.63 3.3-1 1.37-.75 3.55-2.82 4.22-.33.1-.44.83-.72 1.22-.38.55-.73 1.17-1.23 1.57-1.47 1.17-3 2.27-4.54 3.37-.87.62-1.71 1.42-2.7 1.72-1.14.35-2.42.3-3.64.3-2.91.03-5.4 1.3-7.92 2.53-2.81 1.38-5.59 2.82-8.43 4.13-2.58 1.18-5.55 1.45-7.73 3.6-1.51 1.47-3.38 2.56-3 5.15.16 1.12.2 2.19 1.31 2.8 1.17.65 2.11.1 3.01-.58 1.5-1.12 3-2.26 4.46-3.43.48-.38.85-.89 1.32-1.28.86-.74 1.64-1.74 2.65-2.08 2.8-.94 5.67-1.66 8.54-2.35 5.18-1.24 10.43-2.22 15.33-4.45.74-.34 1.8-.87 2.35-.58 1.63.83 3.34.37 4.92.74-.11 1.42-.46 2.75-2.28 3.55.69.53 1.16.83 1.54 1.23.37.38.86.85.89 1.3.1 1.9.04 3.8.04 5.74-1.47-.5-1.83-1.04-1.77-3.07.03-1.03-.3-1.64-1.32-1.77-1.51-.18-2.77 1.02-2.8 2.6a4.56 4.56 0 0 1-.22 1.47c-.45 1.2-1 2.36-1.48 3.55-.49 1.22-1.32 2.44-.57 3.8.3.58.78 1.25 1.34 1.45.73.26 1.57.09 2.02-.82.35-.7.8-1.36 1.25-2.02.44-.67.95-1.02 1.6-.2.9 1.14 1.85 2.27 2.73 3.44.84 1.1 2.4 1.34 3 .3a58.22 58.22 0 0 0 2.86-5.59c1.2-2.75 2.26-5.57 3.33-8.38.74-1.94 1.67-3.88 1.98-5.9.31-2.08 1.03-4 1.65-5.96.28-.88 1.1-1.63 1.22-2.5.52-4.17 1.03-8.36 1.27-12.55.15-2.53.75-4.88 1.73-7.16.64-1.5 1.52-1.72 2.91-.98l-2.22 4.53.41.26 1.55-1.84.96 2.26c.68-.76-.23-1.94 1.09-2.05l.73 1.2c.28-.48.3-.85.31-1.22l.02-1 .98.43c.01-.24.06-.49.03-.73-.2-1.28.28-1.78 1.6-1.67.58.04 1.25-.22 1.78-.52a2.73 2.73 0 0 0 1.42-2.76c-.13-1.05-.99-1.53-2.12-1.59-1.2-.06-2.4-.31-3.6-.48-1.58-.22-3.15-.46-4.73-.64-1.28-.15-2.6-.45-3.86-.3-1.93.21-2.94-.64-2.52-2.49.14-.6.34-1.2.43-1.82.2-1.36.52-2.74.49-4.1-.04-1.83-3.04-3.44-4.94-2.56-1.17.54-2.6 1.4-3.02 2.47-.61 1.57-2.14 3.34-.45 5.21.09.1.06.33.06.5v4.13h-.01Zm-33.2 57.75-.1.32c1.81.99 3.6 2 5.45 2.94a78.73 78.73 0 0 1 13.95 9.1c.82.68 1.4 1.2 2.68.17a90.48 90.48 0 0 1 18.48-11.5c.43-.2.82-.48 1.22-.72l-.12-.3c-.85.23-1.71.45-2.56.71-6.02 1.85-11.9 4.1-17.59 6.84-.34.16-.88.2-1.2.05a120.22 120.22 0 0 0-17.6-6.84l-2.6-.77Zm68.84-172.21v-13.26h6.29v7.54h4.62v-7.5h6.42v7.52h4.58v-7.54h6.42v7.5h4.62v-7.52h6.33v13.14c-1.1.11-2.25.1-3.33.36-1.85.47-2.72 1.72-2.72 3.57 0 2.69-.01 5.38.01 8.07 0 .74-.1 1.21-1.02 1.2-8.5-.02-16.98-.01-25.47-.02-.08 0-.16-.04-.4-.11 0-2.8.01-5.64-.02-8.48 0-1.19-.22-2.3-1.14-3.22a4.07 4.07 0 0 0-3.06-1.25h-2.13Zm11.04-1.73v10.6h3.18v-10.6h-3.18Zm17.25 10.65v-10.62h-3.04v10.62h3.04Zm-7.14-10.6h-2.96v10.57h2.96v-10.57Zm-156.62 1.69v-13.25h6.32v7.51h4.62v-7.53h6.38v7.55h4.62v-7.52h6.42v7.53h4.58v-7.54h6.38v13.25c-.65 0-1.32.03-1.98-.01-2.26-.14-4.36 1.53-4.36 4.32v8.68c-.42.03-.78.07-1.15.07-8.1 0-16.21-.01-24.32.03-1.13 0-1.47-.34-1.43-1.46.07-2.6.02-5.2.02-7.8 0-2.26-1.53-3.8-3.8-3.83h-2.3Zm14.19 8.91v-10.64h-3.15v10.64h3.15Zm10.94-10.65v10.6h3.18v-10.6h-3.18Zm-6.9-.01v10.65h2.9v-10.65h-2.9Zm9.65-22.75c-2.6-1.34-5.03-2.48-7.34-3.82-.73-.42-1.21-.38-1.83-.04l-6.4 3.47c-.21.12-.45.18-.88.35.23-1.46.41-2.76.63-4.06.28-1.6.64-3.18.84-4.8.05-.32-.38-.78-.69-1.08-1.92-1.84-3.87-3.66-6.03-5.69l8.09-1.1c.86-.11 1.47-.43 1.87-1.36 1.03-2.38 2.22-4.7 3.43-7.24 1 1.98 2.1 3.73 2.8 5.63.78 2.1 2.04 3.13 4.28 3.25 2 .12 3.99.51 6.38.84-.9.9-1.6 1.63-2.34 2.33-1.32 1.26-2.8 2.38-3.91 3.8-.45.57-.2 1.79-.08 2.68.32 2.22.76 4.42 1.18 6.85Zm51.39-.03c.34-2.12.62-4 .93-5.9.11-.69.42-1.4.38-2.07a3.18 3.18 0 0 0-.69-1.89c-1.81-1.91-3.73-3.73-5.8-5.78 2.8-.39 5.35-.77 7.9-1.09.84-.1 1.41-.37 1.8-1.2 1.15-2.43 2.4-4.81 3.69-7.37 1.02 2.05 2.15 3.94 2.92 5.96.73 1.9 1.98 2.69 3.89 2.86 2.08.2 4.15.52 6.44.81-.28.37-.44.65-.66.86-1.44 1.38-2.87 2.78-4.36 4.1-1.07.94-1.71 1.85-1.3 3.46.59 2.29.85 4.67 1.3 7.23-1.2-.57-2.3-1.08-3.39-1.63-.97-.49-2-.92-2.85-1.58-1.64-1.3-3.03-.66-4.55.23-1.76 1.04-3.61 1.93-5.64 3Zm62.69-15.66c2.87-.38 5.46-.72 8.06-1.09.7-.1 1.24-.35 1.6-1.13 1.13-2.43 2.38-4.8 3.68-7.37.46.88.9 1.65 1.28 2.44.84 1.73 1.6 3.5 2.5 5.2.2.4.78.76 1.24.83 2.64.41 5.3.73 8.26 1.11l-4.01 3.97a6.8 6.8 0 0 0-2 6.42l.95 5.28c-1.45-.71-2.73-1.33-4-1.98-1.22-.63-2.4-1.34-3.66-1.92a1.79 1.79 0 0 0-1.37.05c-2.39 1.2-4.75 2.47-7.4 3.86.26-1.72.46-3.18.7-4.63.2-1.1.57-2.2.63-3.31a2.81 2.81 0 0 0-.65-1.89c-1.8-1.93-3.72-3.75-5.81-5.83Zm-81.73 93.21c1.94.29 3.9-.55 5.69.76 1.24.92 1.64 2.1 1.13 3.97a3.11 3.11 0 0 1-2.88 2.21c-1.28.02-2.56 0-3.94 0v-6.94Zm22.12 21.46c-1.13 0-1.95.9-1.95 2.17 0 1.25.82 2.17 1.95 2.17 1.12 0 1.96-.9 1.96-2.17 0-1.28-.8-2.17-1.96-2.17Z" fill="#fff"/><path d="M169.48 67.75v-1.55h-26.94v13.95h-6.37v-7.26h-6.42v7.24h-6.42v-7.27h-6.38v7.3h-6.2c-.07-.14-.14-.21-.14-.28-.01-5.04-.07-10.08 0-15.12.02-1.65.79-3.04 2.48-3.55a6.79 6.79 0 0 1 2.5-.2c1.27.12 1.72-.27 1.68-1.6-.1-3.12-.03-6.24-.03-9.36v-4.86h-10.04v7.28h-6.13v-7.27h-9.75v7.24h-6.37v-7.26h-9.75v7.3h-6.12v-7.28h-9.97v13.54c0 2.52-.25 2.4 2.26 2.2 2.81-.2 4.44 1.87 4.4 4.43-.05 4.49 0 8.97 0 13.46v1.31h-6.45v-7.26h-6.42v7.24h-6.37v-7.26h-6.43v7.29h-6.37v-13.93h-26.8c-.03.18-.06.26-.06.34 0 13.5-.01 27 .03 40.5 0 .5.39 1.08.77 1.46 1.5 1.52 3.29 2.8 4.6 4.47 4.84 6.14 6.8 13.18 5.55 20.9a25.68 25.68 0 0 1-9.04 16.05c-.53.44-1.03.9-1.46 1.27 5.32 0 10.62.07 15.93-.02 5.43-.08 10.86-.3 16.29-.5 2.96-.12 5.91-.3 8.86-.51 4.24-.31 8.49-.65 12.73-1.03 3.3-.3 6.62-.56 9.9-1.06 4.8-.73 9.55-1.67 14.32-2.51a165.78 165.78 0 0 0 21.07-5.36c8.7-2.75 17.08-6.25 25.26-10.25a176.4 176.4 0 0 0 9.22-4.86c5.09-2.89 10.16-5.8 15.17-8.82 4.05-2.44 7.94-5.12 12-7.51 1.17-.69 1.43-1.39 1.43-2.6-.03-12.81-.02-25.63-.02-38.44Zm-116.45 18.2h20.75c-.44 1.83-.84 3.63-1.34 5.4-.06.21-.67.38-1.03.39-3.03.03-6.06.01-9.09.01h-1.34v6.04c2.18.12 4.33.32 6.48.36 5.55.09 8.55 3.63 8.8 8.89.17 3.48-1.08 6.32-4 8.33-1.67 1.15-3.61 1.41-5.51 1.46-4.4.12-8.79.04-13.19.04-.16 0-.32-.04-.53-.07v-30.84Zm6.24 44.55h-1.09v-3.8l-1.61 3.8h-.89l-1.62-3.81v3.81h-1.09v-6.2h1.2l1.96 4.7 1.96-4.7h1.18v6.2Zm5.32-5.15h-3.2v1.52h3.07v1.06h-3.07v1.52h3.2v1.05h-4.3v-6.2h4.3v1.05Zm9.6 5.15h-8.57v-6.2h1.1v5.15h2.64v-5.15h1.09v5.15h2.65v-5.15h1.09v6.2Zm4.99 0-2.26-2.59h-.62v2.6h-1.08v-6.21h1.08v2.6h.63l2.04-2.6h1.34l-2.47 3.1 2.72 3.1h-1.38Zm3.94.13c-1.73 0-3.04-1.38-3.04-3.22 0-1.84 1.31-3.23 3.04-3.23s3.05 1.36 3.05 3.23c0 1.87-1.29 3.22-3.05 3.22Zm6.36-.13h-2.58v-6.2h2.58c1.32 0 2.22.69 2.22 1.7 0 .53-.28 1-.75 1.3.65.3 1.01.8 1.01 1.44 0 1.04-1.02 1.77-2.48 1.77Zm-.26-38.77c-1.12-.04-1.46.31-1.45 1.45.04 7.38.02 14.76.02 22.15v1.54c-2.43 0-4.7-.03-6.95.01-.94.02-1-.51-1-1.23.02-5.34.01-10.67.01-16v-13.68h16.85l-1.33 5.79c-2.06 0-4.1.05-6.15-.03Zm8.38 38.77h-2.64v-6.2h4.45v1.02h-3.36v1.1h1.55c1.32 0 2.36.9 2.36 2.05 0 1.14-.97 2.03-2.36 2.03Zm5.69-1.84h-1.5v1.84h-1.09v-6.2h2.6c1.37 0 2.4.94 2.4 2.18 0 1.24-1.1 2.18-2.4 2.18h-.01Zm7.46-3.31h-3.2v1.52h3.07v1.06h-3.07v1.52h3.2v1.05h-4.3v-6.2h4.3v1.05Zm3.72 4.22c.82 0 1.49-.46 1.8-1.23l.06-.13h1.15l-.1.28a3 3 0 0 1-2.9 2.14c-1.72 0-3.03-1.38-3.03-3.22 0-1.84 1.3-3.23 3.03-3.23a3 3 0 0 1 2.9 2.14l.1.28h-1.16l-.06-.14a1.88 1.88 0 0 0-1.8-1.23c-1.11 0-1.92.91-1.92 2.17 0 1.26.8 2.17 1.93 2.17Zm8.32-4.22h-2v5.15h-1.08v-5.15h-2v-1.05h5.08v1.05Zm-8-8.5c-.3-.01-.71-.37-.86-.67-2.28-4.53-4.53-9.08-6.79-13.62-.03-.06-.13-.08-.32-.19v14.4h-7.67v-30.83h7.57v13.05l.24.1c.23-.3.5-.59.67-.92l6.34-11.69c.14-.25.45-.58.69-.58 2.54-.05 5.08-.03 7.88-.03-1.12 1.92-2.1 3.65-3.12 5.36-1.66 2.8-3.36 5.58-5 8.4-.16.27-.13.82.03 1.12 1.85 3.37 3.73 6.73 5.6 10.1a641.6 641.6 0 0 1 3.32 6.03c-2.98 0-5.78.02-8.59-.03Z" fill="#fff"/><path d="M89.47 127.86h-1.5v1.63h1.68c-.1-.34-.04-.84 0-1.45l1.2.64v-.02c0-.59-.7-.8-1.38-.8Zm8.13-.42h-1.55v2.03h1.55c.29 0 .54-.06.75-.17v-1.08c.16-.04.32-.06.46-.06-.15-.42-.62-.72-1.22-.72Zm5.68-2.1h-1.5v2.27h1.5c.16 0 .3-.03.44-.07v-1.85l.7.2a1.33 1.33 0 0 0-1.14-.55Zm-13.81-.04h-1.5v1.57h1.5c.64 0 1.16-.35 1.16-.8 0-.46-.47-.78-1.16-.78Z" fill="#fff"/><path d="M89.65 129.48c.71-.04 1.18-.35 1.2-.8l-1.2-.64c-.04.6-.1 1.11 0 1.44Zm8.69-.18a.93.93 0 0 0 .53-.84c0-.1-.03-.2-.06-.3-.15 0-.3.02-.47.06v1.08Zm5.39-1.76c.52-.15.88-.57.88-1.07a.97.97 0 0 0-.18-.58l-.7-.2v1.85Z" fill="#fff"/></svg>