<svg viewBox="0 0 256 220" fill="none" xmlns="http://www.w3.org/2000/svg"><path d="M205.65 172.69c-.66-2.4-2-4.69-4.87-4.84-3-.16-6.03.04-9.02.31-1.8.17-2.93 1.86-2.85 3.54.23 4.55.49 9.1.61 13.67.1 3.74.16 7.5-.04 11.25a15.5 15.5 0 0 1-1.38 4.91c-.22.52-1.24.98-1.87.96-.52-.01-1.14-.7-1.47-1.24a3.6 3.6 0 0 1-.36-1.77c-.04-2.21-.02-4.43-.02-6.65l.26-.02c-.31-4.43-.39-8.9-1.03-13.3-.44-2.97-1.51-5.9-2.62-8.72-.79-2.02-2.62-3-4.87-3-2.06 0-4.13-.02-6.2 0-3.09.04-4.94 1.09-4.79 4.78.2 4.56.51 9.11.66 13.68.1 3.46.14 6.93-.04 10.4a13.2 13.2 0 0 1-1.26 4.6c-.28.63-1.36 1.2-2.1 1.22-.52.03-1.46-.81-1.58-1.4a66.14 66.14 0 0 1-1.14-7.75c-.13-1.55.12-3.14.3-4.7.38-3.22.84-6.42 1.22-9.64.32-2.6.7-5.23.79-7.84.05-1.47-.43-2.96-2.41-3.04-2.72-.12-5.45-.2-8.17-.32-4.32-.17-6.64 1.72-7.98 5.7-1.5 4.48-1.67 9.12-1.96 13.73-.22 3.42.2 6.88.27 10.32.1 4.67.73 9.25 2.45 13.6 2.56 6.48 8.35 8.23 13.7 6.67 2.21-.65 4.15-2.37 6.1-3.76 1.32-.94 2.26-.8 2.8.62.88 2.28 2.84 2.6 4.85 2.92 1.06.16 2.14.16 3.19.4 4.94 1.1 9.11-.3 12.72-3.69 1.43-1.34 2.35-1.22 3.18.53a3.9 3.9 0 0 0 4 2.44c2.1-.07 4.24.1 6.35-.06.95-.07 2.18-.4 2.7-1.07a18.5 18.5 0 0 0 2.62-4.62c1.82-4.5 1.85-9.32 2-14.03.16-4.95-.18-9.93-.67-14.86a59.37 59.37 0 0 0-2.06-9.92v-.01Zm-72.22 1.83c-1.5-4.54-2.56-6.63-8.12-6.4-1.82.09-3.64.42-5.43.3-2.34-.17-3.73 1.33-3.63 3.68.2 4.75.27 9.5.36 14.25.04 2.12-.63 2.7-2.85 2.57-2.12-.11-2.84-.67-2.6-2.67.5-4.26 1.17-8.5 1.9-12.73.39-2.19-.4-4.7-1.92-5.01-1.1-.22-2.24-.38-3.36-.36-2.33.03-4.65.24-6.98.3-2.93.08-4.68 1.38-5.9 4.14-1.77 4.03-2.15 8.33-2.28 12.59-.18 5.48.14 10.98.27 16.46.09 3.56.15 7.12.37 10.67.12 1.86.5 3.92 2.62 4.48 4.6 1.24 9.3 1.25 13.9.04.8-.2 1.91-1.28 1.93-1.98.07-2.63-.26-5.27-.44-7.9-.16-2.24-.42-4.48-.45-6.72-.01-1.15.84-1.77 2.05-1.76 1.52.01 3.09-.1 3.98 1.5.07.12 0 .32 0 .48.16 4.42.14 8.87.57 13.26.16 1.63 1.28 3.3 3.35 3.52 1.85.2 3.73.21 5.59.34 4.06.3 5.68-2.02 6.79-4.85 2.3-5.86 2.37-12.04 2.55-18.22-.17-2.48-.46-4.95-.47-7.43a39.94 39.94 0 0 0-1.8-12.56Zm-97.5 17.25c-3.4-2.92-7.7-4.5-12.1-5.58-2.53-.62-5.21-1.07-5.23-4.54 0-.12.02-.22.08-.63 2.56.15 5.05.27 7.53.45 4.12.3 8.23.71 12.35.95 1.68.1 2.69-1.05 2.71-2.77.03-1.88-.07-3.76.04-5.62.1-1.66-.81-2.67-2.02-3.47-.73-.49-1.61-.76-2.44-1.08-5.2-2.01-10.72-1.92-16.15-2.34a68.98 68.98 0 0 0-9.1 0c-2.97.16-5.93.52-8.64 1.93-1.74.92-2.77 2.19-2.63 4.25.08 1.07-.17 2.2.07 3.22.25 1.07.9 2.06 1.4 3.06.3.6.9 1.15.9 1.72 0 2.25-.18 4.5-.29 6.75-.12 2.66-.21 5.3-.35 7.95-.1 1.74-.14 3.5-.38 5.21-.59 4.22-.51 8.39.75 12.49a5.47 5.47 0 0 0 5.45 3.9c6.3-.14 12.6-.05 18.9-.04 3.52 0 7-.4 10.26-1.74 4.33-1.76 6.24-4.38 6.63-8.49.63-6.72-3.04-11.55-7.74-15.57Zm-12.67 16.1a3.3 3.3 0 0 1-2.34-.5c-1.71-1.25-2.74-5.62-2.18-7.2.48-1.36.87-2.83 2.63-3.04 1.87-.22 2.93 1.07 3.71 2.44.64 1.12.9 2.45 1.34 3.68-.27 2.97-.95 4.18-3.16 4.62Zm210.65-26.77c1.59.05 3.17.23 4.75.34 4.57.34 9.15.68 13.72 1 1.32.1 2.3-.5 2.47-1.77.27-1.88.34-3.8.38-5.7.06-2.87-.96-4.1-3.62-5.16-5.23-2.1-10.76-2.38-16.25-2.65-4.37-.2-8.8-.1-13.15.39a17.5 17.5 0 0 0-6.9 2.63c-1.93 1.18-.73 3.56-1 5.4v.17c-.05 1.64-.22 3.33 1.72 4.18.17.07.34.38.32.56-.36 2.78.98 5.77-.97 8.4-.28.36-.4.95-.35 1.42.17 2.28.57 4.55.6 6.82.03 2.58-.24 5.17-.43 7.75-.02.3-.25.66-.5.84-1.1.77-1.13 1.85-1.08 3.02.05 1.2.1 2.4-.01 3.58-.15 1.66.78 2.67 1.98 3.48.73.5 1.6.78 2.45 1.09 5.1 1.88 10.45 1.7 15.77 1.7l.06.5c5.16-.63 10.38-.93 15.44-1.96 4.01-.82 5.45-1.63 5.26-6.34-.04-1.02 0-2.04-.01-3.07-.03-2.76-1.17-3.64-3.99-3.53-5.65.22-11.3.34-16.95.34-.7 0-1.62-.84-2.04-1.53-.4-.66-.31-1.62-.41-2.45-.22-1.78.05-2.11 1.89-2.08 4.22.1 8.43.22 12.65.34 1.35.04 2.23-.52 2.29-1.9.08-1.76.01-3.53.01-5.3 0-2.77-.82-3.81-3.49-4.78a31.37 31.37 0 0 0-10.62-1.64c-1.22 0-1.84-.28-1.72-1.61.1-1.19-.08-2.55 1.72-2.49h.01Zm-149.32-3.16a21.5 21.5 0 0 0-8.7-8.05c-3.2-1.58-6.56-1.9-10.04-1.77-6 .22-10.7 2.89-14.24 7.55-4.06 5.38-5.42 11.57-5.44 18.22.32 2.5.56 5 .96 7.49a21.26 21.26 0 0 0 7.34 13.12c5.03 4.32 10.86 5.22 17.1 4.07 5.46-1 9.66-3.98 12.76-8.6a26.5 26.5 0 0 0 4.36-12.83c.55-6.74-.38-13.31-4.1-19.2Zm-14.43 23.2c-.1 1.65-1.5 3.16-2.78 3.13-1.25-.03-2.44-1.38-2.72-2.98a44.16 44.16 0 0 1 .02-15.19c.4-2.26 1.29-3.07 2.74-2.97 1.42.1 2.53 1.39 2.74 3.35.22 2.12.34 4.25.46 5.95-.16 3.2-.28 5.96-.46 8.7v.01Zm9.04-83.04 3.07.01c3.72.02 7.46-.22 11.16.1 6.98.63 13.93 1.6 20.9 2.38 9.76 1.09 19.51 1.2 29.28.2 8.45-.85 16.52-3.24 24.4-6.21 6.42-2.42 11.83-6.28 15.17-12.4 6.54-12 10.88-24.6 9.96-38.53-.06-.87-.01-1.74-.01-2.62l-.5-.17c-.3.4-.65.77-.92 1.19-1.83 2.74-3.43 5.65-5.49 8.21a52.4 52.4 0 0 1-2.9 3.31c-6.16 6.52-13.6 10.94-22.65 13.56l-.67.2-1.5.46-2.35.73a83.55 83.55 0 0 1-7.91 1.6 129.39 129.39 0 0 1-5.1.66 182.73 182.73 0 0 1-9.55.76h-.1c-3.27.17-6.54.25-9.8.36l-2.07.08c-2.25.1-4.48.23-6.72.43l-1.53.13c-2.74.29-5.5.47-8.27.7-4 .35-7.98.82-11.9 1.9-5.26 1.46-10.44 2.9-14.87 6.27a142.1 142.1 0 0 0-7.55 6.15 78.87 78.87 0 0 0-9.66 9.94c-.4.5-.62 1.13-1.16 2.11 6.66-1.92 12.96-1.44 19.23-1.5Zm72.2 6.96c-.74.2-1.07.25-1.37.36a30.6 30.6 0 0 1-13.07 2.2c-4.27-.25-8.5-.9-12.76-1.38-7.26-.83-14.53-1.6-21.78-2.53-5.96-.76-11.9-1.28-17.92-.91a67.3 67.3 0 0 0-18.8 4.12c-5.36 1.93-9.02 5.85-12.54 10-.2.23-.24.59-.54 1.38 1.17-.26 1.92-.43 2.67-.58.89-.18 1.79-.5 2.67-.47 3.94.14 7.88.26 11.8.61 7.45.67 14.88 1.51 22.32 2.25 1.6.16 3.2.11 4.8.24 4.77.4 9.54.94 14.32 1.2 2.5.14 5.03-.05 7.52-.33 4.1-.46 8.26-.78 12.24-1.78 3.52-.88 7.13-2.13 10.15-4.07 3.3-2.13 6-5.2 8.91-7.93.56-.53.81-1.36 1.4-2.38h-.01Z" fill="#fff"/><path d="M90.7 90.78a60.96 60.96 0 0 1 9.02-1.92 39.4 39.4 0 0 0-2.48-9.05c-.48-1.26-1.18-1.64-2.6-1.8-9.92-1.1-18.36-5-23.4-13.97-5.59-9.97-4.67-20.03.56-29.9 4.36-8.24 10.73-14.6 18.44-19.83 5-3.39 10.14-6.33 16.1-7.61 12.78-2.75 25.26-2.17 37.17 3.56 4.48 2.16 8.38 5.2 12.23 8.4a43.42 43.42 0 0 1 12.84 18.06c1.04 2.68 1.49 5.6 2 8.45.36 2 .38 4.05.62 7-.3 1.68-.6 4.27-1.26 6.74-1.42 5.23-4.9 9.17-8.88 12.59-4.6 3.95-10.23 5.94-16.1 7.2-1.22.26-1.45.78-1.46 1.83-.02 1.54-.11 3.09-.16 4.63 2.66-.24 5.31-.51 7.93-.97 9.7-1.67 18.66-5.18 26.33-11.5.1-.07.18-.14.25-.23l7.07-8.88a56.63 56.63 0 0 0-1.87-12.06c-1.9-7.47-4.27-14.69-8.51-21.22-8.98-12.62-17.83-19.07-30.36-24.31-12.15-5.08-24.65-6.98-37.58-4.59-19.35 3.59-33.9 14.2-43.84 30.98a65.44 65.44 0 0 0-8.84 27.84c-.68 7.52-.56 15.03 1.5 22.3 2.24 7.86 5.82 15.16 10.15 22.09a48.42 48.42 0 0 1 12.4-9.34c3.99-2.02 8.4-3.26 12.73-4.5Z" fill="#fff"/><path d="M144.25 58.48c.34.4.66.83.95 1.28a2.52 2.52 0 0 0-.95-1.28Z" fill="#fff"/><path d="M102.07 69.89c-.23-2.6.89-4.39 3.02-5.7a24.37 24.37 0 0 1 17.36-3.45c3.5.6 3.81 1.39 4.25 5.84.7 6.96 1.92 13.78 5.8 19.73l5.13-.6h.03c-.1-5 .36-9.93 2.16-14.63.97-2.54 2.57-4.85 3.9-7.26.33-.59.8-1.11 1.07-1.72.44-.94.58-1.69.4-2.33-.3-.45-.6-.89-.95-1.28-.25-.2-.55-.38-.89-.57a30.97 30.97 0 0 0-10.93-3.36 52.76 52.76 0 0 0-20.68 1.2c-3.32.87-6.55 1.78-9.5 3.52a15.1 15.1 0 0 0-2.5 1.78c-2.86 2.6-3.01 3.27-1.28 6.7 2.98 5.91 4.39 12.27 5.48 18.72.1.65.2 1.35.07 1.99l1.5-.11c-.58-2.77-1.19-5.54-1.7-8.32-.64-3.37-1.17-6.76-1.74-10.14v-.01Z" fill="#fff"/><path d="M149.43 60.48a23.12 23.12 0 0 0-10.14-6c-6.54-1.74-13.2-3.09-19.96-2.6-2.86 0-5.27.46-8.05.93-5.69.95-11.58 2.45-16.8 4.95a5.65 5.65 0 0 0-1.62 9.14c1.25 1.32 2.81 2.56 3.5 4.14 2.03 4.7 4.5 9.2 5.29 14.26.15 1 .4 2.24.62 3.29l.96-.08.79-.07c.12-.64.04-1.34-.07-2-1.1-6.44-2.5-12.8-5.49-18.7-1.73-3.44-1.58-4.11 1.29-6.7.75-.69 1.62-1.27 2.5-1.79 2.95-1.74 6.18-2.65 9.5-3.52a52.75 52.75 0 0 1 20.68-1.2c3.83.51 7.53 1.49 10.93 3.36.35.19.64.38.88.57.51.4.82.8.95 1.28.19.64.05 1.39-.39 2.33-.28.6-.74 1.13-1.07 1.72-1.33 2.41-2.93 4.72-3.9 7.26-1.8 4.7-2.27 9.64-2.16 14.64a129.64 129.64 0 0 1 3.37-.34c.32-2.12.6-4.26 1.12-6.33 1.1-4.43 2.52-8.75 6.55-11.6a5.3 5.3 0 0 0 1.32-1.56c1.21-1.94 1.04-3.81-.61-5.4v.02Z" fill="#fff"/><path d="M149.28 54.62c2.95 1.68 5.1 4.03 4.62 7.69-.55 4.24-2.63 7.55-6.64 9.5-.38.18-.86.46-.98.8-.47 1.32-.8 2.7-1.23 4.23.81-.13 1.57-.13 2.24-.37 2.57-.93 5.23-1.73 7.63-2.98 4.92-2.57 8.79-6.13 10.96-11.47 1.95-4.8 2.15-9.7 1.93-14.7-.18-4.01-.92-7.89-2.85-11.46-4.84-8.9-12.31-15.43-20.07-21.67-.46-.37-1.14-.46-1.44-.58.17 3.12.79 6.13.4 9.02-1.33 10.16-8.07 16.72-16 22.29-1.83 1.28-3.97 2.13-5.96 3.17 2.06.33 4.04.27 6.02.34a46.12 46.12 0 0 1 21.37 6.2Z" fill="#fff"/></svg>