<svg viewBox="0 0 311 304" fill="none" xmlns="http://www.w3.org/2000/svg"><g clip-path="url(#a)" fill="#fff"><path d="M.06 283.21c1 .03 1.99.12 2.98.07.74-.03 1.2.22 1.62.85 1.87 2.77 3.78 5.52 5.67 8.27l.51.69c.28-.4.54-.72.77-1.06 1.76-2.6 3.54-5.2 5.27-7.83.44-.67.91-.98 1.7-.92.83.07 1.68.02 2.49.02.26.95.32 18.6.08 20.13h-3.38v-14.46c-.35.42-.53.6-.68.8l-5.11 7.51c-.82 1.2-1.68 1.2-2.52 0l-4.89-7.1c-.21-.3-.45-.6-.84-1.11-.18 1.41-.07 2.58-.1 3.74v10.71h-3.57v-20.3Zm88.57 20.79c-.5-.17-1-.36-1.51-.5-5.04-1.39-8.14-6.2-7.47-11.62a10.28 10.28 0 0 1 9.92-8.92c5.05-.08 9.4 3.37 10.37 8.23a10.5 10.5 0 0 1-7.35 12.32c-.55.15-1.1.33-1.65.49h-2.3Zm1.17-3.51c3.82.04 6.74-2.99 6.78-7.02.05-4.04-2.82-7.13-6.64-7.16-3.81-.02-6.78 3.03-6.8 7.02-.04 4.02 2.85 7.12 6.66 7.16Zm50.96 3.51-1.65-.5a10.34 10.34 0 0 1-7.5-11.26c.61-5.32 4.84-9.2 9.97-9.28a10.36 10.36 0 0 1 10.24 7.65 10.52 10.52 0 0 1-7.23 12.9c-.52.13-1.02.32-1.52.49h-2.3Zm1.05-3.51c3.82.03 6.75-3.01 6.77-7.03.02-4.07-2.81-7.12-6.64-7.15-3.83-.03-6.75 3-6.78 7.02-.03 4.04 2.83 7.13 6.65 7.16Zm-78.09 3.51-1.65-.5a10.23 10.23 0 0 1-7.49-10.34c.1-5.1 3.42-9.09 8.17-9.98 3.37-.64 6.5-.05 9.18 2.29.21.18.4.37.6.57.08.07.12.19.22.36l-2.1 2.4-.76-.61a7.3 7.3 0 0 0-6.7-1.6c-3.25.76-5.35 4.07-4.97 7.7a6.78 6.78 0 0 0 6.32 6.15 7.47 7.47 0 0 0 5.43-1.9l.54-.44c.03-.02.07 0 .21-.02l2.08 2.34a9.8 9.8 0 0 1-4.9 3.09l-1.64.48h-2.54v.01Zm58.48-251.85 14.84-15.45-16.39-16.98 18.81-19.49 16.15 16.73 16.34-16.96 18.8 19.66-16.4 16.98 14.86 15.38 16.4-17 18.9 19.56-16.38 16.96 14.9 15.43 16.47-17.06 18.88 19.56-16.85 17.46 16.78 17.44-18.87 19.54-16.8-17.4-14.82 15.36c5.65 5.85 11.21 11.62 16.75 17.34-.47.9-17.6 18.74-18.88 19.71l-16.7-17.3c-4.94 5.13-9.82 10.2-14.84 15.38 1 1.06 2.11 2.2 3.21 3.34l3.43 3.55 3.34 3.46 3.43 3.55 3.26 3.38-18.88 19.57-16.26-16.85-16.18 16.77-18.9-19.57 16.57-17.15-14.82-15.35-16.62 17.22-18.88-19.57 16.6-17.2-14.88-15.4-16.5 17.08-18.87-19.54 16.74-17.33-16.84-17.45 18.88-19.56 16.44 17.03 14.85-15.38-16.4-16.98 18.86-19.54 16.48 17.07h-.02Zm-3.06 91.18h53.44c3.06 0 6.02-.5 8.91-1.57 6.92-2.54 11.2-8.77 11.21-16.36 0-3.94.04-7.88 0-11.82a15.9 15.9 0 0 0-6.24-12.84 19.12 19.12 0 0 0-12.03-4.12c-10.41-.08-20.83-.02-31.24-.02h-1.4v-6.39c.3-.02.57-.06.82-.06 11.49.04 22.98.04 34.47.16 3.38.04 6.72.63 9.88 2 .23.1.49.16.74.25.24-1.22.2-21.05-.03-21.94h-68.76c.53 1.11 1.08 2.11 1.5 3.16a34.16 34.16 0 0 1 2.38 12.55c.05 13.61.02 27.23.02 40.85 0 .4 0 .8-.04 1.2a49.17 49.17 0 0 1-3.26 13.94l-.37 1.02v-.01Zm-97.23-17.29-18.56-19.23 18.5-19.16 18.56 19.23-18.5 19.16Zm249.19-19.3 18.6-19.25 18.59 19.26-18.59 19.25-18.6-19.26Zm-89.8 196.73h-3.52v-9.42c0-1.57.02-3.13-.01-4.7l-.23-.06c-.25.34-.51.66-.74 1l-4.78 7.03c-.79 1.14-1.66 1.16-2.44.02-1.69-2.42-3.35-4.85-5.03-7.28a2.3 2.3 0 0 0-.87-.82v14.2h-3.18c-.25-.81-.33-18.35-.07-20.13 1.1 0 2.25-.05 3.38.04.3.02.62.42.83.72 1.9 2.71 3.76 5.44 5.63 8.16l.64.87c.26-.37.5-.66.7-.98 1.8-2.63 3.6-5.26 5.34-7.93.44-.67.92-.95 1.7-.9.87.06 1.75.01 2.65.01v20.18Zm8.88-.02v-20.06h14.7v3.35h-11.11v2.95h1.29c1.58 0 3.15-.03 4.73.01.8.03 1.62.11 2.38.33 3.05.84 4.88 3.53 4.77 6.88a6.59 6.59 0 0 1-5.13 6.36c-.56.13-1.14.23-1.71.23-3.11.02-6.23.01-9.34.01-.15 0-.3-.03-.58-.06Zm3.6-3.35c.29.02.51.06.73.06h5.06c.38 0 .77-.04 1.15-.12a3.44 3.44 0 0 0 2.7-3.5 3.29 3.29 0 0 0-2.84-3.35 8.4 8.4 0 0 0-1.37-.12h-4.37c-.34 0-.67.04-1.06.07v6.97-.01Zm-144.26-51.55v2.94c.35.03.68.08 1.02.08 1.65 0 3.3-.02 4.96.01.69.01 1.39.05 2.06.2 3.53.79 5.27 3.78 5.14 6.93-.15 3.62-2.6 6.24-6 6.57-.91.09-1.84.06-2.76.06h-6.8c-.38 0-.75-.03-1.18-.06v-20.02h14.7v3.25c-1.2.09-2.41.03-3.63.04h-7.51Zm0 13.36c2.37 0 4.67.13 6.95-.05 1.67-.12 2.74-1.77 2.68-3.6a3.22 3.22 0 0 0-2.83-3.24 8.03 8.03 0 0 0-1.15-.06h-4.73c-.29 0-.59.06-.91.09v6.86Zm165.81 21.46h3.4v13.92l.2.07c.24-.3.5-.57.72-.87 3.11-4.1 6.24-8.18 9.32-12.3.5-.66 1.03-.98 1.84-.9.64.06 1.29 0 2.02 0v20.13c-.2.03-.34.08-.48.08h-2.81c-.09-2.38-.03-4.7-.04-7.03v-7.3c-.41.47-.64.7-.84.96-3.16 4.16-6.33 8.3-9.47 12.48-.5.66-1.01.99-1.83.9-.64-.07-1.3-.01-1.93-.01-.25-.9-.33-18.25-.1-20.14v.01Zm30.87-18.03v-20.07h3.4v13.95c.57-.14.74-.56.98-.88 3.14-4.12 6.29-8.23 9.4-12.38.42-.55.84-.84 1.54-.79.72.06 1.45.01 2.16.01.24.94.3 18.14.09 20.1-.5.01-1.01.05-1.53.06h-1.75c-.11-4.7 0-9.32-.06-14.05-.57.12-.74.6-1 .94-3.1 4.05-6.2 8.11-9.27 12.2-.49.66-1 1-1.82.92-.67-.07-1.36-.01-2.13-.01Zm-26.45-20.09h3.4v13.92l.24.09c.28-.35.57-.7.84-1.06 3.1-4.07 6.2-8.12 9.25-12.2.46-.6.9-.9 1.64-.83.71.06 1.44.01 2.2.01v20.08c-.35.03-.65.07-.95.07-.76.01-1.52 0-2.41 0v-13.99l-.23-.08-.77.95c-3.12 4.09-6.25 8.18-9.34 12.29-.44.58-.88.92-1.62.84-.72-.07-1.45-.01-2.25-.01v-20.1.02Zm-190.39 58.17 3.98-6.06c-.27-.22-.49-.42-.73-.59a7.36 7.36 0 0 1-2.91-7.83 7.24 7.24 0 0 1 6.13-5.5c.57-.08 1.15-.13 1.72-.14h7.72c.34 0 .68.03 1.09.06v20.08h-3.47v-5.36c-1.16 0-2.19-.02-3.22 0-.95.02-2.05-.22-2.81.2-.72.4-1.08 1.49-1.6 2.27-.59.93-1.16 1.87-1.8 2.87h-4.1Zm13.46-16.58c-.13-.08-.2-.15-.26-.15-2.07.03-4.16-.07-6.21.12-1.93.18-3.18 1.87-3.19 3.9-.01 2.06 1.22 3.76 3.16 3.9 2.13.17 4.28.04 6.5.04v-7.81Zm68.2-41.58v3.31c-1.24.1-2.5.03-3.74.04h-7.66v4.44h10.14v3.38h-10.15v5.45h11.8v3.28c-.84.23-14.12.27-15.4.03v-19.93h15Zm-36.42 14.67v5.34h-3.59v-20c.3-.03.57-.08.82-.08h8.66c1.53 0 2.95.45 4.23 1.34a7.38 7.38 0 0 1 2.84 7.77 6.95 6.95 0 0 1-6 5.47c-1.71.18-3.45.12-5.18.15h-1.78v.01Zm.06-3.46c2.16 0 4.2.08 6.22-.03 2.09-.1 3.64-2.33 3.28-4.48a3.82 3.82 0 0 0-3.88-3.36c-1.72-.05-3.45-.01-5.17 0-.14 0-.28.07-.45.11v7.76Zm50.9 26.97-.38 3.1h-1.32a2.2 2.2 0 0 0-2.07 1.25c-.59 1.07-1.19 2.13-1.8 3.2-.33.57-.7 1.13-1.07 1.76l6.96 10.75c-1.47 0-2.72.05-3.96-.03-.3-.02-.62-.42-.81-.72-1.54-2.43-3.06-4.88-4.58-7.31-.2-.34-.42-.66-.62-.95h-4.1v8.97h-3.36c-.25-.83-.32-18.35-.09-20.08h3.42v7.67c1.21 0 2.28.05 3.34-.02.7-.05 1.14-.58 1.48-1.2.7-1.28 1.4-2.56 2.13-3.82 1.5-2.66 3.75-3.54 6.82-2.58h.01Zm162.26 20.03h-3.83l-1.6-3.58h-10.24l-1.57 3.57h-3.7c.13-.41.22-.75.36-1.06 2.58-6.04 5.18-12.07 7.73-18.12.3-.73.66-1.08 1.45-.99.6.07 1.23.06 1.84 0 .74-.07 1.08.27 1.37.94 2.42 5.72 4.88 11.42 7.31 17.13l.87 2.1Zm-6.84-7.1c-1.25-3.16-2.39-6.17-3.74-9.36l-3.66 9.35h7.4Zm-35.66-1.91v8.96h-3.38c-.23-.8-.32-18.08-.09-20.04h3.41v7.54h10.1v-7.55a20.9 20.9 0 0 1 3.35-.02c.23.9.3 18.53.08 20.09h-3.4v-8.98h-10.07Zm-43.48-38.12h-4.1v8.93h-3.47v-20.01h3.45v7.6c1.22 0 2.32.05 3.42 0 .67-.04 1.07-.58 1.39-1.15.71-1.28 1.43-2.54 2.13-3.83 1.56-2.9 3.77-3.19 6.13-2.85.22.03.43.16.7.26l-.37 3c-.41.02-.75.05-1.1.05a2.57 2.57 0 0 0-2.42 1.49c-.85 1.6-1.78 3.15-2.72 4.82l6.92 10.68h-3.89c-.54 0-.7-.43-.92-.78l-4.5-7.22c-.22-.37-.47-.72-.64-1v.01Zm-65.24-8.11-2.13 2.45-1.02-.85a7.16 7.16 0 0 0-6.43-1.37c-3.47.82-5.53 4.3-4.92 8.16a6.77 6.77 0 0 0 7.16 5.7 7.37 7.37 0 0 0 4.23-1.69l.97-.8 2.09 2.38c-2.97 4.1-10.33 4.8-14.56 1.08a10.87 10.87 0 0 1-.88-15.24c3.85-4.3 11.63-4.4 15.49.18Zm49.58-.03-2.2 2.52a7.45 7.45 0 0 0-6.66-2.41 6.12 6.12 0 0 0-3.93 2.04 7.48 7.48 0 0 0-.28 9.5 6.59 6.59 0 0 0 5.4 2.47c2.15-.03 3.92-.97 5.49-2.5l2.18 2.47a10.14 10.14 0 0 1-6.6 3.38c-4.97.6-9.66-2.36-11.12-7.1-2.1-6.86 2.54-14.36 10.84-13.74a9.92 9.92 0 0 1 6.88 3.37Zm-31.52 17.1h-3.51v-16.72c-2.47-.13-4.83.02-7.25-.1v-3.21h17.9v3.22h-7.14v16.8Zm155.4 18.08v3.27h-7.04v16.77h-3.56v-16.77h-7.15v-3.27h17.75Zm-57.16-43.95c.43 1.21 1.04 2.04 2.26 2.08 1.31.05 1.87-.9 2.36-2.06l2.42 1.06c-.2 2.1-2.1 3.78-4.43 3.95a4.78 4.78 0 0 1-5.12-3.9l2.5-1.13Z"/><path d="M141.79 123.73v-7.48c.39-.02.72-.05 1.06-.05h27.89c1.58 0 2.37.6 2.83 2.22.46 1.62.3 3.13-.84 4.44-.5.6-1.14.9-1.93.89-1.92-.03-3.84 0-5.76 0h-23.26v-.02Z"/></g><defs><clipPath id="a"><path fill="#fff" transform="translate(.056)" d="M0 0h310v304h-310z"/></clipPath></defs></svg>