<svg version="1.1" id="Слой_1" xmlns="http://www.w3.org/2000/svg" x="0" y="0" viewBox="0 0 310.2 200" style="enable-background:new 0 0 310.2 200" xml:space="preserve"><style>.st0{fill:#fff}</style><path class="st0" d="M283.43 114.37zm-119.62 59.15-.41.38.41-.38zm111.39-56.71v.43c.05.61-.02 1.25.17 1.81-.19-.56-.13-1.2-.17-1.81v-.43zm-10.87 3.39c-.13-.17-.3-.34-.44-.51.14.18.31.34.44.51zm-50.35 3.96.24-.11c-.08.03-.17.06-.24.11zm-64.09-24.94c-.5 0-1.01-.02-1.51 0 .51-.02 1.01 0 1.51 0 .47 0 .94.02 1.4 0-.46.02-.93 0-1.4 0zm-63.71 46.53c.11 1.32.26 2.64.29 3.97-.03-1.32-.18-2.64-.29-3.97-.04-1.22.15-1.89.73-2.22-.58.33-.77 1-.73 2.22zm1.08-2.36zm177.17-23.33c.21-.29.43-.58.61-.89-.18.31-.4.6-.61.89zm19.39-6.05c.2-.19.39-.39.59-.55-.2.16-.39.36-.59.55z"/><path class="st0" d="M310.19 117.54c-.25-1.32-.69-2.6-.99-3.91-.49-2.13-1-4.26-1.38-6.42-.5-2.82-.88-5.66-1.31-8.5-.05-.35-.06-.72-.11-1.07l-1.63-12.27c-.02-.18-.07-.35-.1-.53-.7-3.84-1.47-7.68-2.06-11.53-.6-3.86-.97-7.75-1.52-11.62-.34-2.41-.85-4.8-1.24-7.2-.19-1.13-.26-2.28-.43-3.42-.26-1.63-.64-3.24-.83-4.87a24.17 24.17 0 0 0-.95-4.48c-.91-2.89-2.69-5.13-4.69-7.21a7.88 7.88 0 0 0-3.77-2.3c-3.58-.71-7.25-1.1-10.91-.41-.77.15-1.63.2-2.26.59-1.29.79-2.64.74-4.05.77-1.93.04-3.86.2-5.77.42-1.49.17-2.96.53-4.45.76-1.63.25-3.27.45-4.9.69-1.07.15-1.64-.24-1.78-1.32-.1-.78-.09-1.58-.23-2.36a23.05 23.05 0 0 0-2.2-6.2 16.55 16.55 0 0 0-4.42-5.45c-1.19-.99-2.62-1.7-3.97-2.49a14.88 14.88 0 0 0-7.06-1.91c-2-.06-4.03.53-6.04.81-4.08.56-8.17 1.07-12.25 1.66-1.88.27-3.73.78-5.61 1.02-.97.13-2.12.18-2.95-.22-1.52-.73-2.88-1.81-4.28-2.77-1.5-1.03-2.9-2.23-4.47-3.13-2.72-1.55-5.53-2.94-8.32-4.36-.98-.49-2.04-.81-3.03-1.29-2.22-1.07-4.42-2.14-6.88-2.58a2.77 2.77 0 0 1-.41-.12c-1.82-.66-3.61-1.45-5.47-1.94-2.13-.56-4.33-.91-6.51-1.26-1.45-.23-2.92-.33-4.39-.46-2.92-.25-5.84-.61-8.77-.68-2.38-.06-4.78.21-7.17.38-2.43.18-4.93.14-7.27.71-1.9.46-3.77.94-5.72 1.16-.6.07-1.18.29-1.76.48-1.88.62-3.76 1.27-5.64 1.88-1.82.59-3.65 1.16-5.48 1.74-.1.03-.19.1-.29.15-2.13 1.09-4.27 2.15-6.38 3.26-1.86.98-3.75 1.91-5.51 3.04a94.97 94.97 0 0 0-7.08 5 110.5 110.5 0 0 0-6.65 5.78 63 63 0 0 0-4.51 4.59c-1.05 1.19-1.9 2.56-2.86 3.83-.45.6-.89 1.3-1.5 1.66-1.11.65-1.65 1.67-2.15 2.73a3.14 3.14 0 0 1-2.7 1.96c-1.32.14-2.73.15-3.9.67-1.66.73-3.31.78-5.04.86-1.42.06-2.84.3-4.23.6-2.84.61-5.63 1.58-8.5 1.89-3.08.34-5.76 1.4-8.04 3.35a30.33 30.33 0 0 0-4.17 4.59 10.3 10.3 0 0 0-2.19 4.91c-.18 1.28-.53 2.54-.63 3.82-.08.97.1 1.96.19 2.94.13 1.42.35 2.83.4 4.26.01.34-.49.7-.75 1.06-.27-.34-.61-.64-.78-1.03-.14-.31-.07-.71-.08-1.07-.07-1.69-.3-1.84-1.95-1.57-1.59.25-3.19.41-4.78.62-.78.1-1.59.15-2.33.4-.37.12-.8.6-.86.98-.13.73-.02 1.5-.01 2.26.02 1.38-.22 1.6-1.59 1.73-1.71.17-3.43.35-5.13.61-4 .63-7.99 1.31-11.99 1.97l-.11.01-9.24 1.53c-.17.03-.34.11-.49.21-1.12.73-2.32 1.38-3.34 2.23-2.3 1.94-4.18 4.18-4.69 7.3-.12.54-.38 1-.47 1.49-.18 1.05-.52 2.12-.41 3.15.24 2.35.71 4.68 1.06 7.02.16 1.06.22 2.14.39 3.21.73 4.64 1.48 9.27 2.22 13.91.16.99.22 2 .39 2.99.67 3.96 1.44 7.9 2.04 11.87.36 2.44.37 4.9.98 7.35.77 3.08 1.07 6.28 1.58 9.43l1.21 7.54c.08.5.1 1 .18 1.5l1.54 10.32c.03.17.09.35.19.5.68 1.12 1.29 2.31 2.09 3.34 1.75 2.25 3.7 4.27 6.67 4.86.34.07.63.33.96.46.46.19.92.47 1.39.49 2.93.08 5.9.47 8.73-.75a4.5 4.5 0 0 1 1.37-.27c2.63-.27 5.32-.1 7.86-1.12.4-.16 1.26.08 1.5.42.89 1.28 1.88 2.58 1.39 4.35-.12.44-.04.93-.1 1.39-.25 2.05.7 3.78 1.47 5.54.47 1.07 1.09 2.06 1.64 3.09l.4-.07c.27-1.97.7-3.94.77-5.91.06-1.67-.28-3.35-.47-5.02-.14-1.25.41-1.75 1.52-1.25.54.24.84.11 1.02-.35.27-.7.54-1.41.71-2.14.33-1.38.61-1.58 2.03-1.7 1.17-.1 2.34-.31 3.5-.52 1.12-.21 2.22-.56 3.35-.7 1.24-.16 2.51-.14 3.76-.22.77-.05 1.16.4 1.26 1.06a20.07 20.07 0 0 0 2.74 7.07c1.6 2.74 3.65 5.13 6.62 6.51 1.06.49 2.2.82 3.26 1.33 2.37 1.13 4.86 1.2 7.38.88 1.31-.17 2.57-.69 3.87-.88 4.29-.62 8.6-1.14 12.89-1.76 1.73-.25 3.43-.76 5.16-.98.77-.1 1.71.01 2.36.39 1.32.77 2.46 1.83 3.74 2.68 1.69 1.14 3.4 2.25 5.15 3.29 2.02 1.2 4.08 2.34 6.14 3.47 1.06.58 2.16 1.12 3.27 1.6 1.47.63 2.97 1.22 4.48 1.75 2.28.81 4.56 1.61 6.86 2.33 2.17.68 4.32 1.46 6.64 1.56.14.01.27.1.41.13 1.07.25 2.12.59 3.21.73 2.38.31 4.79.45 7.17.78 4 .55 8 .59 12 .11.71-.08 1.39-.37 2.1-.44 1.96-.21 3.93-.35 5.89-.54a15.5 15.5 0 0 0 1.91-.31c1.18-.26 2.34-.58 3.52-.83.77-.16 1.58-.16 2.33-.4 2.39-.74 4.75-1.55 7.12-2.34.27-.09.52-.24.78-.35.69-.28 1.38-.56 2.07-.82.4-.15.84-.21 1.22-.39 1.47-.71 2.94-1.44 4.39-2.2 1.2-.63 2.39-1.27 3.56-1.97 1.66-.99 3.3-2.01 4.91-3.07 1.7-1.12 3.41-2.24 5.01-3.48a54.2 54.2 0 0 0 4.9-4.17c3.23-3.15 6.43-6.34 9.5-9.65 1.62-1.74 2.87-3.82 4.39-5.65.76-.92 1.67-1.69 3.08-1.7 1.28 0 2.56-.31 3.83-.52 1.51-.25 3.02-.57 4.53-.83 1.55-.27 3.11-.5 4.67-.75 1.17-.18 2.34-.35 3.51-.55 2.79-.48 5.57-.98 8.36-1.48.17-.03.33-.13.49-.21l4.29-2.1c.16-.08.33-.16.44-.29 1.16-1.39 2.37-2.74 3.45-4.2.56-.76.83-1.73 1.32-2.55 1.24-2.02 1.03-4.42 1.76-6.57.02-.06 0-.14-.01-.21-.17-1.24-.33-2.49-.53-3.73-.19-1.2-.01-1.44 1.23-1.57 1.53-.16 3.06-.32 4.58-.56.84-.13 1.65-.6 2.49-.63 2.81-.09 5.55-.46 8.28-1.18 1.85-.49 3.84-.39 5.76-.65 1.87-.25 3.73-.62 5.59-.95.39-.07.8-.12 1.14-.29 2.47-1.25 4.85-2.62 6.61-4.86 1.38-1.76 2.7-3.5 2.66-5.92-.01-.61.49-1.23.72-1.86.15-.46.45-.97.37-1.4zm-269.35 50.49c-3.98.56-7.96 1.14-11.94 1.73-2.57.39-5.17.27-7.56-.58a10.6 10.6 0 0 1-4.96-3.8c-1.76-2.42-2.42-5.17-2.76-8.11-.47-3.99-1.28-7.93-1.91-11.9-.21-1.28-.31-2.57-.51-3.84-.77-4.89-1.59-9.78-2.32-14.67-.66-4.4-1.2-8.82-1.87-13.22-.62-4.04-1.4-8.06-2.02-12.1-.65-4.22-1.24-8.45-1.74-12.69-.31-2.62.12-5.22 1.68-7.39 1.36-1.9 2.94-3.6 5.27-4.56 1.37-.57 2.71-.79 4.12-1.02 4.57-.72 9.14-1.5 13.71-2.24 2.44-.4 4.89-.77 7.34-1.15.35-.05.74-.17 1.07-.09.47.12 1.24.34 1.29.62.13.71-.15 1.47-1.01 1.67-.73.17-1.5.17-2.24.32-.3.06-.55.34-.82.52.21.3.36.7.65.88.31.2.75.26 1.14.28 1.41.04 2.25.9 2.85 2.01a74.26 74.26 0 0 1 2.58 5.31c.16.37.02 1.06-.24 1.38-.75.9-1.57 1.78-2.5 2.48-.65.49-1.46.9-2.42.49-.3-.13-.79-.01-1.11.15-1.4.73-2.91.97-4.4.65-3.2-.68-4.41 1.86-3.95 4.56.33 1.97.63 3.96.84 5.95.11 1.12.23 1.99 1.67 2.1.96.07.99.76.44 1.68a9.02 9.02 0 0 0-.94 2.54c-.07.31.24.88.53 1.03.23.12.7-.23 1.05-.38.25-.11.49-.25.74-.38l.15.26c-.78 1.18-1.58 2.35-2.33 3.55a1.8 1.8 0 0 0-.25 1.02c.07 1.87.14 3.73.32 5.59.06.65.34 1.32.66 1.91a3.84 3.84 0 0 1-.37 4.49c-.23.3-.29.73-.49 1.06-1.09 1.79-2.2 3.57-3.3 5.35l-.52.91-1.87 3.35c-.45.81-.82 1.68-1.38 2.4a97.94 97.94 0 0 1-3.84 4.58c-.63.72-.38 1.04.41 1.25 1.21.32 2.41.72 3.64.97 2.02.41 3.71 1.43 5.38 2.55.92.61 1.86 1.19 2.83 1.73 1.21.68 1.84 1.63 1.78 3.05-.05 1.5.01 3.01-.02 4.51-.02.94.49 1.48 1.31 1.55 1.57.13 3.16.15 4.73.08.3-.01.69-.63.81-1.04.16-.54-.01-1.16.14-1.7.11-.39.49-.71.75-1.07.28.29.73.53.83.88.46 1.65.91 3.3 1.19 4.99.43 2.58.7 5.18 1.06 7.77.17 1.44.05 1.58-1.37 1.78zm2.44-75.08c-.42.01-1.05-.26-1.21-.58-.16-.33.01-1.05.3-1.28.23-.19.88.02 1.28.2.37.17.65.53 1.13.95-.64.32-1.06.7-1.5.71zm3.5-1.06c-.34.06-.79-.52-1.2-.81l1.53-1.25 1 1.05c-.44.37-.84.92-1.33 1.01zm7.45-35.85a16.13 16.13 0 0 1 6.73-7.55 23.07 23.07 0 0 1 8.54-2.7c4.63-.62 9.23-1.44 13.84-2.17 2.09-.33 4.18-.75 6.28-.98a4.13 4.13 0 0 0 2.86-1.69c1.91-2.37 3.67-4.87 5.72-7.11a95.77 95.77 0 0 1 14.61-12.91c1.66-1.21 3.48-2.21 5.27-3.23 2.07-1.17 4.19-2.28 6.3-3.38.92-.48 1.85-.98 2.83-1.3 3.4-1.11 6.8-2.22 10.24-3.19 2.31-.65 4.7-.96 7.02-1.58 3.35-.9 6.76-.98 10.17-.96 4.52.02 9.05.17 13.55.49 2.31.16 4.61.7 6.86 1.29 2.86.74 5.7 1.59 8.47 2.6 2.51.91 4.95 2.06 7.38 3.19 2.11.98 4.2 2 6.23 3.13 1.65.92 3.22 2 4.8 3.05 1.46.97 2.85 2.05 4.35 2.96.54.33 1.32.53 1.94.44 5.16-.73 10.3-1.58 15.45-2.33 3.59-.52 7.19-1.24 10.79-1.3 2.11-.04 4.26.97 6.36 1.63 2.67.83 4.62 2.74 6.4 4.75a16.1 16.1 0 0 1 2.37 3.79c.57 1.2.93 2.53 1.22 3.84.22 1.02-.33 1.73-1.4 1.94-.99.19-1.97.38-2.97.53-4.3.63-8.6 1.21-12.9 1.86-4.29.65-8.57 1.39-12.86 2.05-4.15.64-8.32 1.21-12.47 1.85-4.11.64-8.21 1.36-12.33 1.99-4.22.64-8.47 1.17-12.69 1.81-4.58.69-9.14 1.46-13.71 2.19s-9.14 1.49-13.71 2.18c-3.94.6-7.89 1.1-11.83 1.7-4.86.75-9.7 1.59-14.56 2.33-4.44.67-8.89 1.2-13.33 1.88-4.19.64-8.35 1.43-12.53 2.07-4.08.63-8.18 1.11-12.26 1.74-3.94.6-7.85 1.35-11.79 1.96-3.97.59-7.92 1.1-11.87 1.68-4.33.63-8.67 1.28-13 1.94-1.43.22-1.85-.05-1.93-1.49-.04-.75-.01-1.51-.01-2.26-.48-2.47.64-4.68 1.57-6.73zm211.96 83.81c-.35 1.88-1.29 3.66-1.97 5.48-.81 2.16-2.4 3.69-4.08 5.17a14.36 14.36 0 0 1-7.6 3.67c-5.87.83-11.72 1.76-17.58 2.66-2.13.33-4.28.57-6.37 1.07-.78.19-1.6.87-2.07 1.56-3.31 4.9-7.36 9.15-11.65 13.16-2.32 2.17-4.95 4-7.48 5.93a64.8 64.8 0 0 1-4.74 3.31 80.6 80.6 0 0 1-5.04 2.86c-1.44.77-2.9 1.54-4.4 2.19-1.63.7-3.32 1.3-5 1.88-2.06.71-4.14 1.38-6.22 2.03-.82.25-1.67.41-2.52.55-3.01.5-6.02 1-9.04 1.45-6.29.96-12.58.88-18.86-.12-3.26-.52-6.55-.97-9.72-1.84a75.56 75.56 0 0 1-10.82-3.74c-4.2-1.88-8.23-4.15-12.24-6.41-1.95-1.1-3.74-2.5-5.53-3.87a4.32 4.32 0 0 0-3.54-.8c-2.3.38-4.61.75-6.91 1.11-5.43.84-10.85 1.75-16.29 2.48-2.24.3-4.44 0-6.65-.81-2.03-.74-3.95-1.57-5.52-2.99a28.66 28.66 0 0 1-3.73-4.2c-.79-1.07-1.26-2.38-1.9-3.56-.39-.73-.21-1.21.58-1.35 2.85-.51 5.71-.98 8.57-1.48 1.34-.23 2.66-.53 4-.73 1.52-.23 3.06-.35 4.59-.58 1.3-.2 2.59-.52 3.89-.72 1.42-.22 2.85-.34 4.26-.56 1.45-.23 2.87-.56 4.32-.78 1.38-.21 2.78-.31 4.16-.52 1.41-.21 2.81-.52 4.22-.73 1.49-.22 2.99-.35 4.48-.57 1.31-.2 2.59-.51 3.9-.71 1.49-.23 2.99-.36 4.48-.59 1.38-.21 2.73-.54 4.11-.74 1.52-.22 3.06-.33 4.59-.56 1.27-.19 2.52-.52 3.79-.72 1.42-.22 2.85-.34 4.26-.56 1.41-.22 2.8-.54 4.22-.75 1.52-.22 3.07-.33 4.59-.56 1.31-.19 2.59-.52 3.9-.72 1.45-.22 2.92-.34 4.37-.56 1.34-.2 2.66-.51 4-.71 1.45-.22 2.92-.35 4.37-.57 1.37-.21 2.73-.53 4.11-.74 1.45-.22 2.92-.33 4.37-.55 1.38-.21 2.74-.53 4.11-.73 1.56-.23 3.14-.35 4.69-.58 1.23-.18 2.45-.5 3.68-.7 1.38-.22 2.77-.35 4.15-.57 1.48-.23 2.94-.57 4.43-.78 1.49-.22 3-.31 4.49-.53 1.31-.19 2.59-.51 3.9-.71 1.42-.22 2.85-.34 4.26-.56 1.41-.22 2.8-.54 4.22-.75 1.52-.23 3.06-.34 4.59-.57 1.31-.2 2.59-.53 3.89-.73 1.45-.22 2.92-.33 4.37-.55 1.38-.21 2.73-.55 4.11-.75 1.49-.22 2.99-.33 4.48-.55 1.31-.19 2.59-.51 3.9-.71 1.45-.22 2.92-.35 4.37-.58 1.37-.21 2.73-.53 4.11-.74 1.45-.22 2.92-.34 4.37-.56 1.34-.2 2.66-.51 4.01-.71 1.56-.23 3.13-.36 4.69-.59 1.23-.18 2.45-.47 3.68-.69 1.34-.24 2.68-.45 4.03-.67 3.21-.06 3.4 0 2.81 3.15zm38.26-16.46a10.64 10.64 0 0 1-4.49 4.19 14.48 14.48 0 0 1-4.46 1.49c-5.13.89-10.27 1.66-15.42 2.43-4.69.69-9.39 1.27-14.08 1.98-4.29.65-8.56 1.45-12.86 2.1-4.26.65-8.54 1.17-12.8 1.82-4.04.62-8.07 1.38-12.11 2-4.19.64-8.39 1.15-12.58 1.79-3.8.58-7.57 1.31-11.37 1.89-4.19.64-8.39 1.17-12.58 1.8-4.12.63-8.22 1.34-12.33 1.99-1.28.2-2.57.31-3.85.51-4.86.77-9.71 1.59-14.57 2.33-4.47.68-8.97 1.22-13.44 1.9-4.15.63-8.28 1.41-12.43 2.05-4.22.65-8.47 1.15-12.69 1.8-3.9.6-7.78 1.35-11.69 1.94-4.22.64-8.47 1.14-12.69 1.78-4.36.67-8.7 1.48-13.07 2.15-4.29.66-8.61 1.17-12.91 1.83-3.83.58-7.64 1.3-11.47 1.91-1.92.3-3.85.5-5.78.69-1.12.11-1.76-.48-1.8-1.65-.05-1.44 0-2.88-.03-4.31-.02-1.25-.16-2.5-.12-3.74.03-.9.12-1.85.44-2.69.4-1.07 1.2-1.52 2.49-1.27 1.29.25 2.59.07 3.85-.61 1.41-.75 2.97-1.22 4.45-1.85 2.03-.86 4.1-1.64 6.04-2.69.95-.51 1.9-1.23 1.89-2.74-.01-.74.79-1.7 1.48-2.18.98-.69.95-1.45.66-2.33-.65-1.99-1.83-3.7-2.99-5.42-.69-1.03-1.17-2.2-1.78-3.28-.63-1.11-1.29-2.21-1.95-3.31-.07-.12-.21-.21-.26-.34-.62-1.58-1.28-3.15-1.83-4.76-.28-.82.87-2.34 1.95-2.77.72-.29 1.65.18 2.27.99 1.17 1.53 2.42 3 3.62 4.5 1.11 1.4 2.19 2.81 3.29 4.21.12.15.3.26.45.39l.43-.24c-.32-.56-.62-1.14-.97-1.67-.47-.71-.98-1.38-1.47-2.08l-4.4-6.3c-.1-.15-.2-.31-.34-.41-.96-.7-.77-1.49-.25-2.35 1.47-2.44 3-4.86 4.32-7.38.33-.63.19-1.76-.17-2.45-.65-1.26-1.56-2.39-2.45-3.5-1.16-1.45-2.46-2.79-3.61-4.25-.82-1.04-1.45-1.26-2.49-.49-.58.43-.82.22-1-.35-.36-1.12.09-2.32 1.23-3.07.78-.51 1.65-.87 2.42-1.39a8.78 8.78 0 0 0 1.81-1.7c-1.42-.65-2.46-1.89-4.19-1.01-1.16.59-1.67.05-1.7-1.32-.03-1.62-1.6-2.69-3.17-2.36-1.35.28-2.76.35-4.14.37-1.41.01-2.28-.89-2.87-2.1-.58-1.2-1.63-1.63-2.88-1.76-2.16-.23-2.56-.6-2.36-2.77.09-1.03.59-2.02.86-3.04.19-.69.36-1.38.44-2.09.11-.93.45-1.53 1.46-1.71.33-.06.58-.55.87-.84-.31-.28-.59-.66-.95-.81-.49-.2-1.1-.13-1.57-.35-.43-.2-.74-.65-1.1-.98.36-.35.67-.92 1.09-1.02 1.53-.37 3.1-.62 4.66-.86 4.79-.76 9.57-1.5 14.36-2.23 1.28-.19 2.57-.29 3.85-.49 4.47-.71 8.93-1.47 13.4-2.15 4.15-.64 8.32-1.17 12.47-1.8 4.19-.64 8.36-1.38 12.54-2.02 4.29-.66 8.6-1.21 12.9-1.87 4.19-.64 8.36-1.37 12.55-2.02 1.92-.3 3.86-.44 5.77-.74 4.5-.71 8.99-1.5 13.5-2.19 4.26-.65 8.54-1.18 12.79-1.84 3.94-.61 7.85-1.37 11.79-1.97 4.37-.66 8.76-1.17 13.12-1.84 3.87-.59 7.71-1.35 11.57-1.94 4.51-.69 9.04-1.24 13.54-1.93 3.76-.57 7.5-1.3 11.26-1.88 4.19-.64 8.39-1.17 12.58-1.8 4.08-.62 8.15-1.31 12.23-1.95 1.17-.19 2.35-.32 3.52-.51 4.61-.73 9.21-1.48 13.82-2.2 3.44-.54 6.88-1.1 10.33-1.55 4.09-.54 7.42 1.05 10.15 3.99a10.36 10.36 0 0 1 2.79 5.69c.75 5.26 1.56 10.51 2.4 15.76.64 4.01 1.36 8 2.01 12 .19 1.17.25 2.36.43 3.53.77 4.85 1.6 9.7 2.34 14.56.66 4.4 1.18 8.82 1.85 13.22.62 4.04 1.34 8.07 2.03 12.1.52 2.88-.5 5.35-1.85 7.83zm-242.55-13.04c.01-.88.61-1.14 1.07-1.07 1.09.09 1.85.14 1.85 1.15 0 .72-.77 1.29-1.59 1.27-.88-.02-1.34-.52-1.33-1.35z"/><path class="st0" d="M92.99 81.23c.1.85.22 1.7.4 2.54.22 1.08.59 2.13.76 3.22.55 3.51 1.01 7.03 1.55 10.54.17 1.09.9 1.77 1.69 1.6 1.14-.25.84-1.18.77-1.93-.23-2.72-.48-5.43-.74-8.14-.07-.76.28-1.13.96-1.32 1.73-.48 2.78.1 3.42 2 1.19 3.56 3.83 5.64 7.24 6.59 3.94 1.09 7.62-.06 10.59-2.73a11.74 11.74 0 0 0 4.1-9.6c.47-2.15-1.06-4.13-1.52-6.35-.03-.13-.14-.25-.22-.37-1.01-1.52-2-3.02-3.61-4.03-1.81-1.13-3.63-2.14-5.84-2.17-1.91-.03-3.71.19-5.54.99-3.53 1.54-5.25 4.32-6.18 7.8-.24.9-.21 1.86-.43 2.76-.16.65-.39 1.42-.86 1.8-.52.42-1.34.55-2.05.63-.23.03-.69-.45-.75-.75-.52-2.7-.97-5.42-1.44-8.13-.05-.32-.02-.65-.08-.96-.19-.9-.99-1.57-1.75-1.45-.89.14-.91.9-1.01 1.57-.04.25-.03.5 0 .75.17 1.72.34 3.43.54 5.14zm12.14-3.37c1.04-2.18 2.95-3.24 5.07-4.01 1.21-.44 2.42-.5 3.6.31.92.64 2.08.98 2.9 1.72.93.83 1.63 1.93 2.36 2.97.45.63.78 1.35 1.15 2.04 1.25 2.34.79 4.73-.17 6.93-.63 1.45-1.83 2.7-2.93 3.89-1.3 1.41-3.08 1.74-4.84 1.63-3.96.36-7.27-2.92-8.12-6.03-.29-1.06-.81-2.11-.86-3.18-.12-2.26.89-4.27 1.84-6.27zm81.18 39.53c.12.6.18 1.29.53 1.73.35.43 1.03.78 1.57.79.42.01 1.14-.5 1.22-.88a8 8 0 0 0-1.3-6.04c-.14-.22-.54-.33-.83-.37-1.36-.18-1.5-.36-1.61-1.76-.1-1.25-.29-2.49-.5-3.72-.18-1.09-.51-2.16-.66-3.26-.23-1.63-.3-3.29-.54-4.92-.22-1.52-.66-3.01-.81-4.53-.28-2.87-.22-2.87-3.18-2.75-1.17.15-2.35.28-3.52.47-1.62.26-3.23.62-4.85.86a2.04 2.04 0 0 0-1.79 2.22c.29 2.78.65 5.56.76 8.35.05 1.4-.21 2.87-.63 4.22a18.86 18.86 0 0 1-1.93 4.15c-.96 1.61-2.13 3.09-3.2 4.63-.22.32-.57.61-.63.96a6.67 6.67 0 0 0 1.32 5.37c.56.74 1.56.57 1.89-.29.19-.51.2-1.11.18-1.67-.07-1.65.31-2.13 1.93-2.37 1.46-.22 2.9-.48 4.36-.71l10.53-1.67c.97-.17 1.5.23 1.69 1.19zm-4.37-3.77c-.71.07-1.44.07-2.14.18-1.27.21-2.52.49-3.78.73-.98.19-1.97.36-2.95.54l-.02-.09c-.29 0-.59.05-.86-.01-.5-.12-.98-.31-1.47-.46.21-.41.44-.81.61-1.24.55-1.37 1.14-2.73 1.59-4.13.38-1.19.6-2.43.84-3.66.12-.59.22-1.21.18-1.81-.15-1.93-.34-3.85-.58-5.77-.23-1.81.12-2.32 1.93-2.58 1.13-.16 2.26-.36 3.39-.56 1.32-.23 2.03.32 2.24 1.66.74 4.82 1.51 9.63 2.26 14.45.06.39.07.79.11 1.18.09 1.01-.41 1.48-1.35 1.57zm50.71-4.13c.96-.06 1.18-.42 1.12-2.42-.07-.47-.17-1.37-.31-2.25-.71-4.43-1.42-8.86-2.15-13.28a78.88 78.88 0 0 0-1-5.27c-.1-.42-.67-1-1.04-1.01a2.39 2.39 0 0 0-1.66.66 17.64 17.64 0 0 0-2.99 3.99c-1.36 2.65-3.06 5.13-4.5 7.74-1.11 2.02-2.03 4.15-3.06 6.21-.15.31-.4.6-.66.83-1.36 1.15-1.7 1.03-1.98-.76-.42-2.66-.78-5.32-1.21-7.98-.38-2.37.26-4.91-1.25-7.11-.36-.53-.6-.91-1.3-.84-.71.07-1.02.45-1.05 1.11-.02.47-.09.94-.03 1.4.36 2.48.76 4.95 1.16 7.43l1.13 7.1c.06.35.1.71.14 1.07.15 1.54.2 3.09.48 4.6.28 1.54 1.5 1.89 2.59.81 1.94-1.91 3.15-4.31 4.49-6.63.62-1.08 1.15-2.21 1.75-3.3 1.12-2.02 2.19-4.08 3.42-6.03.75-1.19 1.66-2.3 2.64-3.31.79-.81 1.27-.6 1.49.54.24 1.3.32 2.63.54 3.94.24 1.41.58 2.8.83 4.21.44 2.54.85 5.08 1.25 7.63.08.68.46.96 1.16.92zm-68.51-38.85a11.55 11.55 0 0 0-6.23-5.46 11.44 11.44 0 0 0-10.23 1.04c-3.07 1.88-4.38 5.05-5.14 8.35-.81 3.53.23 6.83 1.99 9.94 2.12 3.74 5.41 5.4 10.6 5.71 1.14.22 3.01-.77 4.67-1.79 3.03-1.85 5.33-4.39 5.71-8.21.33-3.32.31-6.54-1.37-9.58zm-5 14.63c-2.31 2.13-5.08 1.79-7.74 1.18-1.74-.4-2.95-1.79-4.04-3.21-2.25-2.92-2.02-6.25-1.25-9.47.49-2.04 1.6-4.11 3.57-5.18 2.09-1.13 4.16-2.18 6.85-.85 4.21 2.09 5.92 5.51 6.52 9.34-.06 3.72-1.66 6.12-3.91 8.19zm98.62 17.24c1.21.65 2.48 1.29 3.8 1.59 3.47.8 6.62-.18 9.37-2.31 2.41-1.86 4.09-4.2 4.46-7.4.47-4.07.09-7.91-2.6-11.17-2.36-2.85-5.28-4.74-9.08-4.46-3.38.13-6.23 1.19-8.41 3.7-1.09 1.25-1.67 2.76-2.29 4.3-1.62 4.01-.44 7.74.96 11.39a8.3 8.3 0 0 0 3.79 4.36zm-1.68-14.85c.74-2.5 2.19-4.78 5.11-5.65 1.24-.37 2.4-1.04 3.72-.6 2.36.79 4.35 2.07 5.72 4.27 1.09 1.75 2.13 3.47 2.24 5.59.19 3.57-1.43 6.22-4.17 8.35-1.48 1.15-3.04 1.73-4.72 1.31-3.51.27-5.47-1.63-7.12-4.24-1.86-2.92-1.66-6.06-.78-9.03zm37.25 5.9c-.14-3-1.31-4.71-4.21-5.7-.88-.3-.97-.74-.42-1.54.31-.46.59-.99.69-1.53a7.43 7.43 0 0 0-1.62-6.14c-1.49-1.92-3.49-2.66-5.9-2.46-.97.08-1.94.1-2.89.26-1.58.28-2.3 1.1-2.13 2.67.31 2.96.73 5.9 1.14 8.85.5 3.66 1.04 7.32 1.56 10.98.04.28.07.61.23.82.55.74.87 2 2.09 1.67 2.51-.69 5.17-.59 7.6-1.84 2.54-1.32 4-3.04 3.86-6.04zm-12.82-6.97c-.42-1.92-.86-3.84-1.16-5.79-.2-1.33.63-2.01 2.46-1.96 1.65.42 3.74.61 4.71 2.74.25.54.4 1.31.22 1.83-.82 2.33-2.57 3.62-4.98 4.07-.72.13-1.11-.26-1.25-.89zm2.37 11.64c-.46-.08-1.06-.69-1.16-1.16-.38-1.68-.54-3.4-.84-5.09-.16-.93.19-1.5 1.08-1.65 1.27-.22 2.55-.35 3.66-.49 1.61.23 3.16.01 4.09 1.57.93 1.57.85 3.61-.51 4.85a7.22 7.22 0 0 1-6.32 1.97zm-93.06 1.56c.11.25.13.57.12.85-.22 4.32 1.17 8.45 1.56 12.69.1 1.1.97 1.87 1.79 1.74 1.02-.17 1.4-.94 1.2-2.23-.37-2.34-.68-4.69-1.04-7.03-.11-.74.2-1.23.88-1.38 1.95-.45 3.91-.87 5.88-1.22 1.34-.23 2.71-.28 4.06-.48.71-.11 1.13.17 1.34.76.16.47.18.98.28 1.47.4 2.15.72 4.33 1.28 6.43.15.57 1.16 1.37 1.65 1.29.62-.1 1.12-.88.94-1.88-.63-3.38-1.16-6.77-1.65-10.17-.57-3.9-1.08-7.8-1.57-11.71-.13-1.03-.93-1.2-1.62-1.25-.7-.04-1.29.46-1.34 1.27-.03.42.04.86.11 1.28l1.11 7.23c-.06 1.71-.43 2.1-2.1 2.3-.89.1-1.77.3-2.65.43-1.81.26-3.62.58-5.44.73-1.78.15-1.99-.14-2.24-1.93-.36-2.56-.78-5.1-1.19-7.65-.11-.71-1.23-1.52-1.85-1.29-.69.26-.87.84-.77 1.58.35 2.74.14 5.56 1.26 8.17zm-107.8 1.4c.69-.2 1.38-.41 2.09-.49 1.68-.19 3.28-.46 4.84-1.26 2.44-1.25 3.71-2.95 3.71-6-.01-.25.03-.84-.08-1.4-.33-1.79-1.24-3.25-2.95-3.93a14.7 14.7 0 0 0-8.32-.86c-.91.17-1.56-.13-1.76-.97a48.78 48.78 0 0 1-1.08-5.59c-.16-1.37.4-1.83 1.81-2 .78-.09 1.58-.11 2.36-.24 2.01-.36 4.03-.72 6.01-1.19.4-.09.92-.61.98-1 .12-.74-.44-1.16-1.17-1.26a2.7 2.7 0 0 0-.75-.01c-3.62.48-7.24.95-10.85 1.48a2.17 2.17 0 0 0-1.77 2.43c.33 2.19.77 4.36 1.12 6.55.2 1.24.3 2.49.51 3.73.21 1.31.52 2.6.74 3.9.34 2.01.61 4.03.99 6.03.4 1.93 1.69 2.64 3.57 2.08zm-.03-11.18a21.9 21.9 0 0 1 4.92.19c1.31.19 2.42 1.93 2.49 3.42.08 1.78-.56 2.81-2.13 3.44-.83.33-1.63.74-2.48 1-.57.18-1.2.17-1.52.21-1.68 0-2.07-.34-2.32-1.7-.23-1.31-.46-2.61-.71-3.92-.28-1.47.27-2.52 1.75-2.64zm3.07 40.47a8.4 8.4 0 0 0 0-2.24c-.17-1.78-.34-3.57-.59-5.34-.18-1.27-.51-2.52-.73-3.78-.34-1.93-.66-3.87-.97-5.81-.11-.7-.2-1.42-.2-2.13 0-.82.47-1.3 1.28-1.51 1.13-.3 2.23-.77 3.37-.94 2.31-.34 4.64-.53 6.96-.76.77-.08 1.26.35 1.38 1.08.48 2.86.92 5.72 1.36 8.58.1.64 0 1.34.24 1.92.94 2.33.92 4.77 1.13 7.2.06.65.45 1.35.88 1.87.26.32.91.47 1.36.44.67-.05 1.09-.56 1.05-1.27-.06-1.11-.1-2.23-.27-3.32-.69-4.32-1.42-8.64-2.15-12.96a75.18 75.18 0 0 0-1-5.14c-.43-1.78-.48-1.76-2.28-1.67h-.32c-.65.03-1.09 0-1.51.09-1.58.33-3.13.85-4.73 1.01-2.74.27-5.49.33-8.14 1.27-1.26.45-1.77.79-1.62 2.09.25 2.29.52 4.57.87 6.84.64 4.08 1.35 8.15 2.02 12.22.13.78.21 1.56.34 2.34.13.78.76 1.02 1.36.88.37-.08.84-.59.91-.96zm164.38-23.96c.72.48 1.3.34 1.8-.26.48-.57.52-1.15-.13-1.69-.33-.27-.57-.67-.92-.91-2.71-1.84-5.41-3.69-8.17-5.47-1.9-1.22-2.42-2.63-1.44-4.49.4-.75.89-1.46 1.35-2.18 1.53-2.37 3.1-4.71 4.57-7.11.31-.51.34-1.23.35-1.86 0-.32-.26-.77-.54-.93-.16-.09-.68.19-.88.43a46.93 46.93 0 0 0-2.65 3.48 133.42 133.42 0 0 0-3.64 5.78c-.51.84-1.1 1.06-1.64.26a6.49 6.49 0 0 1-.91-2.56c-.21-1.34-.19-2.72-.31-4.08-.07-.73-1.18-1.71-1.75-1.62-.79.12-1.35 1.24-1.2 2.16.24 1.41.41 2.83.58 4.25.25 2.1.37 4.23.72 6.31.61 3.67 1.38 7.31 2.02 10.98.16.93.49 1.49 1.5 1.41 1.1-.09 1.04-.9.98-1.68l-.49-5.86c-.03-.8.3-1.1 1.21-.77.56.21 1.07.58 1.56.93.84.6 1.62 1.28 2.47 1.85 1.84 1.25 3.72 2.41 5.56 3.63zm-104.81 15.68c1-.88 1.2-1.47.7-2.3-1.9-3.14-3.77-6.31-5.72-9.42a184.9 184.9 0 0 0-5.7-8.67c-.81-1.14-1.69-2.49-3.62-2.67-.45.38-1.12.68-1.31 1.16-.86 2.19-1.6 4.43-2.36 6.65-.16.47-.22.98-.35 1.46l-2.18 8.41c-.29 1.14-.6 2.28-.87 3.43-.3 1.29-.62 2.59-.79 3.9-.06.48.23 1.02.45 1.5.07.16.5.34.58.28.55-.44 1.31-.85 1.51-1.44.59-1.71.95-3.5 1.39-5.27.12-.49.18-.99.32-1.47.64-2.1 1.39-4.18 1.94-6.31.48-1.85.6-3.75 1.41-5.56.69-1.53 1.1-1.87 2.38-.74.19.17.4.33.53.53 1.75 2.64 3.56 5.24 5.2 7.95 1.15 1.89 2.04 3.93 3.1 5.87.46.84 1.03 1.64 1.64 2.39.45.54 1 .98 1.75.32zm-36.44-5.98c1.88-.18 3.7-.25 5.43-1.35 1.74-1.11 3.21-2.21 3.59-4.35a6.85 6.85 0 0 0-1.61-5.6 7.25 7.25 0 0 0-6.02-2.73c-1 .04-2.06-.17-3.01.05-1.4.33-2.74.95-4.09 1.48-.16.06-.31.33-.34.52-.14 1.04-.38 2.09-.32 3.13.12 2.04.39 4.07.66 6.1.29 2.13.65 4.25.98 6.37.14.88.27 1.77.46 2.64.25 1.15.65 2.28.81 3.44.17 1.2.79 2.01 1.97 2.96.18-.92.45-1.57.4-2.21a175.5 175.5 0 0 0-.71-7.93c-.15-1.41.43-2.39 1.8-2.52zm-2.82-4.15c-.18-1.49-.49-2.97-.76-4.45-.18-.99.2-1.57 1.15-1.87.58-.18 1.14-.44 1.7-.67 2.61-1.08 6.22.77 6.54 3.47.2 1.72-.32 3.53-2.01 4.13-1.5.54-3.05.94-4.58 1.4l-.08-.27c-1.51.07-1.77-.23-1.96-1.74zm20.96-24.92c.33 2.01.19 4.12 1.32 5.94.2.33.59.78.87.77.3-.02.78-.49.82-.81.11-.79.05-1.6-.01-2.4-.16-2.18-.33-4.37-.56-6.55-.14-1.31.08-1.5 1.31-2.02 2-.85 4.23-.79 6.2-1.98 1.93-1.17 3.24-2.37 3.02-4.68.5-3.18-1.93-6.15-4.14-6.91-2.95-1.01-5.92-1.29-8.91 0-1.67.72-2.38 1.54-2.28 3.33.07 1.25.23 2.5.43 3.74.63 3.87 1.3 7.72 1.93 11.57zm2.17-16.23c1.69-.2 3.44-.24 5.13-.07 1.35.13 3.01 2.49 3.01 3.85-.04 1.38-1.8 3.71-3.65 4.04-1.34.24-2.66.58-4.01.77-.31.05-.86-.23-.98-.5-.24-.54-.27-1.17-.38-1.77-.2-1.16-.31-2.35-.61-3.48-.31-1.19.27-2.7 1.49-2.84zm29.71 37.73a6.5 6.5 0 0 1-1.71-1.41c-.23-.3-.27-1.11-.05-1.34 1.11-1.15 1.17-2.62 1.27-4.02a4.36 4.36 0 0 0-1.49-3.81c-1.41-1.27-3.12-1.57-4.74-1.79-1.44-.19-3 .42-4.48.77-.19.04-.4.68-.33.97.22.81.82 1.23 1.69 1.19.5-.02 1.01 0 1.51 0 .47 0 .94.02 1.4 0 1.41-.09 2.46.54 3.33 1.6.76.93.76 3.01-.17 3.76-1.21.98-2.58 1.77-3.79 2.75-.43.35-.78 1-.84 1.55-.03.27.65.74 1.09.9.52.19 1.13.14 1.7.2.78.08 1.6.05 2.35.26 1.53.42 3 1.11 3.25 2.89.22 1.56-.5 2.78-1.96 3.49-.82.4-1.62.88-2.48 1.18-1.41.49-2.9.77-4.27 1.34-.45.18-.76.94-.91 1.5-.06.22.56.88.83.86 1.35-.12 2.76-.19 4.01-.66a23.4 23.4 0 0 0 4.55-2.36 7.5 7.5 0 0 0 3.04-4.63c.61-2.34-1.13-4.16-2.8-5.19zm-51.11 32.19c-.24-1.04-.93-1.28-1.82-1.26-.82.02-1.66.03-2.47.16-.29.05-.53.42-.79.65.34.17.67.44 1.02.47.45.04.94-.27 1.36-.17.52.11.99.48 1.49.73-.41.34-.79.72-1.23 1.01-.85.56-1.75 1.03-2.58 1.61-.35.24-.58.64-.87.97-.26-.44-.53-.88-.77-1.33-.08-.15-.09-.35-.15-.52-.55-1.58-1.59-2.45-3-2.36-.96.06-1.91.41-2.86.38-1.11-.04-1.4.44-1.36 1.4.02.36-.03.72.02 1.08.4 2.65.8 5.29 1.26 7.93.04.24.46.41.7.62.17-.33.5-.67.48-.99-.1-1.24.1-1.52 1.26-1.78a4.63 4.63 0 0 0 2.95-1.76c.44-.63.98-1.19 1.57-1.88l.47.89c.99 1.74 2.41 2.1 4.14 1.07.29-.17.66-.25 1.01-.29 1.28-.15 1.69-.58 1.42-1.85-.34-1.62-.88-3.18-1.25-4.78zm-7.73 4.2c0 1.37-.84 2.6-2 2.77-.57.08-1.59-.17-1.76-.56-.57-1.31-1.12-2.73-.49-4.22.4-.95 1.96-1.43 2.72-.72.81.77 1.76 1.55 1.53 2.73zm7.25.29c-.49.67-1.26 1.14-2.12 1.86-.56-.6-1.13-.96-1.27-1.44-.11-.36.27-.91.53-1.32.16-.25.56-.33.77-.56.48-.53.99-.48 1.37 0 .35.43.87 1.25.72 1.46zm164.51-29.99c-.72-.56-1.42-1.44-2.63-1.09-2.78.81-3.35 1.51-3.44 4.39-.01.18.05.39-.03.53-.18.31-.4.6-.61.89l-.1.14c-.13-.17-.3-.34-.44-.51a1.35 1.35 0 0 1-.31-.54c-.14-.58-.04-1.21-.08-1.82-.08-1.02-1.9-2.18-2.51-1.55-.72.74-1.45.53-2.27.53-.44 0-1.25.37-1.25.59-.04 1.27.05 2.56.23 3.83.11.79.38 1.58.71 2.31.19.43.72 1.11.97 1.06 1.77-.35 3.9.11 5.02-1.95.14-.25.31-.49.5-.7.56-.62.99-.56 1.43.15.21.35.45.79.79.94 1.3.57 4.18-.11 4.95-1.26.43-.64.52-1.5.77-2.26-.2-1.48-.62-2.83-1.7-3.68zm-12.32 2.83 1.51-1.68 1.41 1.58c-.5.33-.98.89-1.5.92-.45.03-.94-.52-1.42-.82zm2.07 4.68c-.91-.03-1.32-.52-1.31-1.28.01-1.1.24-1.7 1.2-1.69 1.3.01 1.88.47 1.87 1.51 0 1.04-.54 1.49-1.76 1.46zm10.33-4.24a8.1 8.1 0 0 1-.76 2.32c-.44.83-1.95.93-2.79.31a3.22 3.22 0 0 1-1.39-2.75c-.02-1.97 1.48-3.21 3.19-2.63.64.23 1.88 2.02 1.75 2.75zm-6.78 1.45-.1.14.1-.14zm-141.84 18.24c-.22-.84-.55-1.2-1.45-1.19-3.49.07-3.49.04-3.42 3.47-.12 1.14-.18 2.29-.39 3.42-.15.78-.88 1.08-1.22.59-.8-1.13-1.73-2.2-1.38-3.79a1.9 1.9 0 0 0-1.66-2.34c-.84-.12-1.73-.08-2.58.02-.26.03-.48.48-.71.73.33.17.64.46.98.47.6.03 1.21-.19 1.8-.15.92.05 1.19.68.57 1.38-.42.47-1.01.79-1.48 1.22a1.1 1.1 0 0 0-.33.7c0 .12.37.27.59.33.2.05.43-.01.64-.01 1.23.02 1.69.72 1.02 1.73-.28.42-.82.75-1.32.92-.53.18-1.14.09-1.7.2-.2.04-.36.29-.54.44.15.17.27.42.46.5 1.25.5 3.23-.01 4.17-.97.28-.29.85-.71 1-.62.37.23.6.72.85 1.13.09.14.02.38.11.52.19.3.43.56.65.83.26-.25.56-.47.78-.75.27-.35.39-.88.73-1.12 1.07-.77 3.77-.5 4.81.34.27.22.67.29 1.01.42.02-.4.14-.84.04-1.21-.65-2.4-1.4-4.79-2.03-7.21zm-1.1 5.49c-.24.93-.98 1.09-1.78 1-.82-.09-.96-.76-.99-1.44-.02-.47 0-.93 0-1.4h.08c0-.54-.15-1.14.04-1.6.27-.69.73-1.33 1.23-1.89.11-.13.97.09 1.02.27.47 1.65.85 3.33.4 5.06zm157.21-30.63a2.2 2.2 0 0 0-1.52-.24c-1 .21-1.94.68-2.94.88-.98.2-1.25.77-.9 1.53.92 2 .79 4.13 1 6.23.09.89.18 1.8.44 2.64.1.31.7.46 1.07.69.18-.3.4-.59.51-.92.08-.26.01-.57.02-.86.04-1.51.31-1.78 1.85-1.89 1.36-.09 1.94-.55 2.25-1.88.17-.73.25-1.48.38-2.22.18-1.82-.78-3.03-2.16-3.96zm.74 4.86c-.12 1.74-1.47 2.71-3.14 2.15-.4-.13-.78-.68-.93-1.12-.19-.56-.13-1.2-.17-1.81v-.43c-.05-1.71.29-2.15 1.79-2.3 1.26-.13 2.22.66 2.4 2.01.06.5.08 1 .05 1.5zm-63.86 4.66c-.78.12-1.56.27-2.34.32-1.09.06-1.45.67-1.32 1.64.39 2.89.79 5.79 1.24 8.67.04.27.42.49.65.74.17-.27.52-.56.49-.8-.17-1.33.52-1.81 1.67-2.19.83-.28 1.78-.79 2.21-1.49.51-.84.53-1.98.77-3.02-.21-.81-.35-1.63-.65-2.38-.53-1.3-1.35-1.71-2.72-1.49zm1.81 5.21c-.12 1.09-1.28 2.07-2.25 2-.8-.06-1.84-1.23-1.92-2.16l-.12-1.39c-.03-1.1.26-1.82.88-2.18l.24-.11c.17-.07.35-.12.55-.15 1.43-.17 2.27.44 2.55 1.96.12.66.14 1.36.07 2.03zm68.5-16.01c-.56.23-1.15.38-1.75.49-.85.15-1.71.2-2.04 1.25-.42 1.35-.28 1.9.66 2.69.28.23.59.67.56.97-.13 1.16-.4 2.31-.66 3.7.53-.46 1.12-.87 1.57-1.4.51-.58.86-1.3 1.35-1.9.2-.24.66-.53.87-.45.31.12.58.51.71.85.14.35.02.8.15 1.16.08.22.49.52.65.46.26-.09.63-.44.62-.66-.12-1.93-.31-3.85-.51-5.77-.08-.78-1.56-1.65-2.18-1.39zm-.63 3.98c-.34-.05-.64-.29-.94-.59-.22-.22-.44-.47-.67-.69a4.26 4.26 0 0 0-.22-.21l.39-.36c.2-.19.39-.39.59-.55.2-.16.4-.27.61-.29.59-.05 1.24.54 1.86.85l.03.48c-.55.49-1.18 1.44-1.65 1.36zm-111.01 15.95c-.11-1.31-1.12-2-2.1-2.31-1.18-.37-2.65-.59-3.63.53-1.12 1.28-1.79 2.79-1.2 4.55.2.6.49 1.18.78 1.75.98 1.88 3.66 2.18 5.14.95 1.17-.97 1.22-2.08 1.22-3.34-.08-.71-.16-1.42-.21-2.13zm-2.76 4.95c-.74.23-1.89-.5-2.34-1.54a4.2 4.2 0 0 1 0-3.55c.62-1.37 1.93-1.5 3.02-.46.9.86 1.09 1.89 1.1 3.02a2.6 2.6 0 0 1-1.78 2.53zm34.5-12.67c-.87.09-1.63.18-1.97 1.15-.07.19-.4.28-.58.45-.17.16-.42.36-.42.55.01 2.32.07 4.68 2.47 5.96.61.32 1.55.41 2.19.19 1.98-.68 3.28-1.96 2.81-3.97 0-3.59-1.24-4.66-4.5-4.33zm2.12 6.73c-.29.14-.46.51-.66.74-1.69-.46-2.4-1.75-2.94-3.18-.4-1.06.47-2.83 1.53-3.18 1.23-.4 2.59.43 3.04 2.01.38 1.34.76 2.77-.97 3.61zm46.08-13.56c-1.47-.86-3.67-.45-4.61.96-1.45 2.18-.4 4.12.45 6.07.17.39.74.7 1.19.85 2.42.82 4.44-.37 4.88-2.83.07-.39.07-.78.11-1.18 0-1.65-.46-2.96-2.02-3.87zm-2.4 6.63a2.08 2.08 0 0 1-1.04-1.22 9.72 9.72 0 0 1-.19-2.85c.07-1.02.96-1.89 1.98-1.67.78.17 1.53.91 2.06 1.58.33.41.22 1.17.26 1.48.03 2.37-1.34 3.47-3.07 2.68zm-59.53 2.49c-.55-.11-1.19.22-1.77.18-1.57-.11-2.14 1.12-2.63 2.13-.8 1.65.62 4.81 2.18 5.73.83.49 1.43.03 2.13-.08 2.52-.39 2.93-.87 2.93-3.42l-.12-1.5c-.25-2.22-.54-2.6-2.72-3.04zm1.58 4.49c.01 1.66-.18 2.17-1.52 2.4-.73.13-1.94-.12-2.27-.62-.72-1.12-1.33-2.41-.49-3.9.73-1.3 2.42-1.71 3.31-.51.54.74.83 1.66 1.23 2.51l-.26.12zm-37.72 4.04c-.1-.56.03-1.16-.08-1.71-.08-.39-.38-.74-.58-1.11-.45.25-.98.41-1.31.76-.27.28-.24.82-.45 1.19-.56.99-1.18 1.94-1.78 2.91l-.46-.1-.81-3.69-.33.01c-.1.24-.29.48-.28.72.09 1.75.19 3.49.36 5.23.04.4.28.83.56 1.13.38.42.95.55 1.23-.09.5-1.13.85-2.33 1.34-3.46.17-.4.55-.71.84-1.06.28.37.67.71.8 1.13.19.61.08 1.32.33 1.89.13.3.75.39 1.15.58.07-.33.26-.69.2-.99-.2-1.13-.53-2.22-.73-3.34zm-24.58 2.61c-.13-.56.27-1.56-.67-1.55-.94.02-.46.93-.49 1.48-.06 1.04-.58 1.72-1.46 1.85-1.61.23-2.05-.01-2.47-1.33-.12-.39-.3-.77-.46-1.15l-.44-.03c-.12.44-.34.89-.33 1.33.04 1.29.17 2.58.29 3.87.04.5-.02 1.1.23 1.47.27.4.85.58 1.3.86.09-.39.27-.79.24-1.18-.03-.37-.38-.72-.4-1.1-.02-.33.09-.82.33-.99 1.59-1.19 3.1-.61 3.49 1.28l.02.11c.11.7.52 1.02 1.21.87.75-.16.64-.72.52-1.28-.3-1.51-.57-3.02-.91-4.51zm-42.24 4.57c-1.11.07-2.22.16-3.32.26-1.21.12-1.69.78-1.51 1.98.28 1.84.52 3.68.83 5.52.06.34.39.62.6.94.2-.36.57-.71.57-1.06-.03-1.32-.18-2.65-.29-3.97-.04-1.22.15-1.89.73-2.22.11-.06.22-.11.36-.15.2-.06.43-.09.69-.11 1.43-.09 2.1.54 2.26 2.22.11 1.14.12 2.3.28 3.43.04.27.46.48.7.72.21-.31.63-.64.6-.94-.14-1.68-.37-3.35-.59-5.02-.17-1.29-.64-1.68-1.91-1.6zm57.57-3.7c-.97-.74-1.09-1.15-.49-2.22.5-.88 1.02-1.74 1.57-2.67-.67-.3-1.34-.53-1.87.35-.44.73-.87 1.47-1.36 2.17-.18.26-.58.59-.81.54-.24-.05-.47-.48-.58-.79-.2-.54-.31-1.12-.53-1.92-.27.41-.43.54-.44.69-.04.85-.15 1.73-.03 2.56.2 1.37.52 2.72.87 4.06.07.25.5.41.76.61.13-.29.34-.57.38-.87.04-.34-.15-.72-.09-1.06.07-.38.24-.92.51-1.02.28-.11.79.14 1.08.38.58.47 1.04 1.08 1.62 1.55.19.16.59.06.9.08.01-.35.16-.81-.01-1.03-.42-.54-.95-1-1.48-1.41zm76.51-13.75a1.8 1.8 0 0 1-1.3-.49c-.47-.51-.73-1.21-1.12-1.81-.12-.19-.36-.3-.54-.45-.14.18-.39.36-.39.55-.02.64-.03 1.3.08 1.92.27 1.57.67 3.12.9 4.7.12.86.46 1.25 1.31 1.14.46-.06.93-.09 1.38-.21 1.71-.45 2.59-1.45 2.6-2.91.12-1.56-1.01-2.64-2.92-2.44zm-.4 3.86c-.19-.28-.68-.71-.81-1.23-.17-.66.99-1.5 1.9-1.25.44.12.9.77 1.02 1.26.14.66-.81 1.26-2.11 1.22zm13.87-2.17c-.52-.57-1.25-1.03-1.57-1.69-.55-1.13-.28-2.28.37-3.37.3-.51.38-1.14.57-1.72l-.46-.19c-.58.81-1.21 1.59-1.72 2.44-.49.82-.77.88-1.41.16-.35-.4-.71-.82-1.14-1.13-.3-.21-.73-.25-1.11-.36.06.41 0 .89.21 1.2.48.71 1.09 1.32 1.63 1.99.52.64.55 1.27-.01 1.94-.27.32-.55.72-.59 1.11-.07.59.07 1.2.12 1.79.3-.43.53-.92.9-1.27a5.07 5.07 0 0 1 1.66-1.12c.26-.09.74.46 1.1.74.11.08.14.32.24.34.58.12 1.4.48 1.72.22.63-.48-.22-.76-.51-1.08zm-51.5 2.62c.61-.57.56-1.14.14-1.87-.9.8-1.85 1.41-1.9 2.74-.01.34-.44.67-.67 1-.3-.31-.62-.61-.89-.95-.1-.12-.03-.37-.12-.51-.21-.35-.46-.68-.69-1.01-.18.39-.52.78-.5 1.15.1 1.64.3 3.28.49 4.92.04.33.19.65.35 1.14.26-.31.47-.45.5-.62.05-.35-.09-.73 0-1.06.12-.46.31-.93.59-1.3.06-.08.71.17.99.39.8.65 1.55 1.36 2.31 2.06.58.53 1.12.49 1.8-.1-.87-.89-1.71-1.71-2.51-2.56-.99-1.07-.95-2.43.11-3.42z"/><path class="st0" d="M134.31 116.42a63.05 63.05 0 0 0-.34-5.14c-.09-.98-.76-1.59-1.61-1.46-.89.13-1.4.68-1.31 1.84.27 1.6.53 3.4.89 5.19.16.79.94.84 1.48.66.4-.12.9-.71.89-1.09zm110.08 1.65c-.94.17-1.37.78-1.33 1.67.08 1.65.23 3.29.38 4.93.03.35.09.79.31 1.01.29.29.76.42 1.15.61.14-.36.44-.74.38-1.07-.21-1.2-.51-2.38-.82-3.56-.25-.97-.02-1.69.89-2.17.74-.39 1.46-.81 2.37-1.32-1.25-.54-2.29-.29-3.33-.1zm-106.07 16.9c-.51.97-.91 2-1.25 3.04-.11.33.11.77.18 1.17l.9-.6c.26-.16.59-.45.78-.38.23.08.44.47.48.75.09.64.03 1.29.1 1.93.06.46.24.91.36 1.36l.4.01c.15-.26.46-.54.43-.79-.2-2.07-.39-4.14-.75-6.18-.11-.82-1.26-1-1.63-.31zm58.18-9.43c-.33.04-.64.32-.95.48.32.17.62.46.95.49.84.07 1.49.38 1.7 1.22.31 1.27.53 2.56.8 3.84.11.53.25 1.05.38 1.57l.45-.02c.1-.36.28-.71.28-1.07a38.58 38.58 0 0 0-.17-3.22c-.06-.63-.52-1.45-.27-1.83.34-.51 1.19-.68 1.82-1 .05-.03.08-.11.25-.39-.45-.17-.87-.47-1.28-.45-1.33.06-2.65.21-3.96.38zm98.27-14.64c-.3-.09-.64-.09-.95-.06-1.39.14-2.78.28-4.17.46-.39.05-.77.22-1.15.34l.01.44c.62.07 1.24.19 1.86.21 1.71.07 1.96.31 2.01 2.04.03 1.15.04 2.3.15 3.44.03.25.45.47.69.7.18-.3.53-.6.51-.89-.04-1.11-.19-2.21-.32-3.31-.21-1.77-.22-1.76 1.39-2.42.2-.08.33-.32.49-.48-.17-.17-.32-.41-.52-.47zm-66.92 9.97c-.13.48-.35.96-.38 1.45-.08 1.5-.17 3-.09 4.49.03.62.33 1.43.79 1.75.45.32 1.26.13 1.7.15l-1.61-7.8-.41-.04zm-92.67 17.36c-.49-.81-.93-1.65-1.4-2.48l-.33.09c0 .47-.07.95.01 1.41.3 1.75.66 3.48.99 5.22.13.68.51.8 1.09.48a2.3 2.3 0 0 0 .46-3.62 5.63 5.63 0 0 1-.82-1.1zm25.71-.73c-.24-.02-.55.11-.73.28-1.28 1.16-.83 2.64-.83 4.03l.35.12c.32-.57.71-1.11.94-1.71.26-.67.42-1.39.55-2.11.05-.19-.16-.6-.28-.61zm-9.44-101.13-.1.46c1.05.42 2.13 1.25 3.15 1.18 2.15-.15 4.27-.74 6.38-1.24.88-.21 1.72-.64 2.58-.96.34-.13.69-.19 1.02-.34 2.31-1.03 4.54-2.4 6.96-3.02 2.71-.68 5.51-1.86 8.42-.67.39.16.85.2 1.27.2.23 0 .45-.22.68-.33-.17-.19-.31-.46-.53-.57-.41-.2-1-.19-1.29-.49-.87-.88-1.95-1.02-3-.82-2.2.41-4.42.86-6.55 1.54-2.05.65-4.01 1.61-6.01 2.43-1.22.5-2.55.83-3.65 1.52a6.3 6.3 0 0 1-3.37.9c-1.62.04-3.23.04-4.85.07-.38 0-.74.09-1.11.14zm-28.33 3.27c3.26-.01 6.52.08 9.78.11 3.47.03 6.94.03 10.41.04a5.3 5.3 0 0 0 3.51-1.43c.59-.52 1.53-1.06 1.19-2.44-.54.49-.83.9-1.23 1.08-1.96.89-3.95 1.78-6.16 1.72-4.25-.1-8.53.1-12.71-.97-.38-.1-.79-.13-1.18-.1-3.01.23-6.06.4-8.49 2.53-.33.29-.41.88-.6 1.33l.34.22c1.5-1.24 3.18-2.09 5.14-2.09zm24.44-7.86c.87.36 1.83.54 2.37-.66.09-.21.46-.31.72-.42a6.54 6.54 0 0 1 4.61-.3c.51.17 1.12.03 1.68.03l.04-.26c-.5-.31-.97-.67-1.51-.91-.72-.32-1.48-.7-2.24-.76-1.44-.11-2.57.75-3.66 1.55-1.18.87-1.52.9-2.71.08-.17-.12-.38-.2-.58-.26-1.95-.6-3.47.46-4.97 1.41-.24.15-.16.82-.26 1.47 2.25-1.34 4.26-1.89 6.51-.97zm7.27 1.79c.15-.56-.22-.99-.93-1.02-.78-.04-1.2.31-1.12 1.05.04.34.41.64.82 1.23.57-.56 1.12-.85 1.23-1.26zm-11.68 1.59.2.54c.67-.06 1.38.01 1.97-.23.22-.09.14-.9.2-1.38l-.46-.24-1.91 1.31zm58.89 128.58c-1.35 1.85-3.19 2.7-5.44 3.04-3.42.51-6.81.21-10.21.01-4.44-.26-8.87-.68-13.32-.1-2.2.29-3.67 1.41-4.73 3.67.72-.31 1.18-.55 1.66-.71 1.68-.58 3.34-1.47 5.06-1.61 3.13-.26 6.31-.15 9.46-.03 1.7.07 3.39.52 5.09.75.92.12 1.86.16 2.78.18 2.39.07 4.77-.25 6.91-1.25 1.26-.58 2.25-1.8 3.26-2.82.22-.22.03-.84.03-1.49-.37.25-.49.28-.55.36zm-40.4 6.64c.9.05 1.79.14 2.69.14.23 0 .52-.2.67-.39.06-.07-.14-.53-.3-.57-1.06-.31-2.13-.77-3.2-.78-1.6-.01-3.25.16-4.8.56-1.99.52-3.91 1.3-5.84 2.05-1.25.48-2.43 1.18-3.69 1.64-1.9.69-3.91 1.11-5.75 1.93-1.95.87-3.98.84-6 .94-1.13.06-2.3-.06-3.25-.89-.25-.22-.64-.31-.99-.4-.12-.03-.36.09-.42.21s-.03.41.06.48c.76.56 1.48 1.27 2.33 1.58 3.08 1.1 6.16.38 9.18-.37 1.13-.28 2.2-.85 3.27-1.33 1.45-.65 2.86-1.42 4.34-1.99 1.79-.68 3.69-1.09 5.46-1.83a14 14 0 0 1 6.24-.98zm14.28 3.88c-1.18.56-2.33 1.46-3.55 1.57-1.43.13-2.91-.45-4.38-.67-.32-.05-.81-.03-.99.17a5.3 5.3 0 0 1-4.44 1.96c-.75-.05-1.5-.15-2.25-.14-.37.01-.74.21-1.11.33.32.26.61.57.97.76.34.18.78.17 1.12.35 1.57.83 4.08.44 5.13-.95.48-.63 1.03-.91 1.74-.8.91.14 1.79.44 2.7.59.65.11 1.38.27 1.96.08 1.2-.39 2.42-.78 3.36-1.78.57-.6.72-1.07.31-1.83-.22.15-.39.27-.57.36zm-3.62-1.37v.02l.86-.04c.79-.02 1.06-.46 1-1.2-.07-.76-.6-.92-1.14-.72-.68.24-1.36.59-1.91 1.04-.42.35-.28.8.34.89.27.05.56.01.85.01zm-9.47-.12c-.18-.09-.52-.02-.72.09-.49.28-.93.63-1.4.95l1.45.63.06-.15c.25-.01.54.05.73-.06.16-.09.3-.21.44-.33l.41-.38a4.24 4.24 0 0 1-.24-.2c-.23-.2-.46-.41-.73-.55zm.74.55.24.2-.24-.2z"/></svg>