<svg id="_Слой_1" data-name="Слой 1" xmlns="http://www.w3.org/2000/svg" viewBox="0 0 401.05 200"><defs><style>.cls-1{fill:#fff}</style></defs><path class="cls-1" d="M401.05 153.44c-2.96 3.5-6.76 3.69-10.68 2.33a40.62 40.62 0 0 1-6.98-3.49c-2.35-1.38-4.55-1.56-6.82.03-.36.25-.78.4-1.12.66-5.69 4.37-11.42 4.47-17.33.38-3.89-2.69-7.79-2.43-11.65.26-5.21 3.62-10.5 3.94-15.69-.04-4.04-3.1-7.82-2.85-11.91.1-5.47 3.95-11.37 3.68-16.54-.67-2.77-2.33-5.38-2.43-8.36-.73-2.04 1.16-4.07 2.35-6.21 3.3a10.85 10.85 0 0 1-11.36-1.16 38 38 0 0 0-3.49-2.28c-2.61-1.43-5.09-1.27-7.56.53-6.52 4.75-10.27 4.8-17.34.43-5.02-3.1-7.35-3.02-12.14.43-5.05 3.64-10.01 3.73-15.23.27-5.71-3.78-6.82-3.77-12.31.18-4.37 3.15-8.9 3.04-13.51.66-1.77-.92-3.44-2.04-5.23-2.93-2.59-1.29-5.13-1.13-7.25.92-4.03 3.89-8.46 3.92-13.22 1.63-.47-.23-.98-.39-1.41-.67-5.16-3.3-10.03-3.51-15.09.56-3.72 3-7.93 2.61-11.93.05-.95-.61-1.94-1.16-2.93-1.72-3.55-2-6.91-2.09-10.57.13a24.57 24.57 0 0 1-8.18 3.11c-3.44.64-6.64-.66-9.49-2.8-3.82-2.87-5.98-2.82-9.92-.07-6.63 4.62-9.79 4.71-16.59.13-3.11-2.09-6.16-2.6-9.54-.84-1.93 1.01-3.93 1.87-5.88 2.81-3.48 1.69-6.88 1.63-10.18-.48-.59-.38-1.19-.73-1.78-1.1-5.73-3.56-7.74-3.49-13.22.49-4.18 3.03-8.96 3.25-13.4.55-1.04-.63-2-1.39-2.98-2.11-2.33-1.72-4.76-1.96-7.33-.54-2.21 1.22-4.36 2.56-6.66 3.58-4.38 1.94-8.46 1.33-12.08-1.9v-1.56c1.37-.19 2.91-.88 4.08-.48 3.95 1.36 7.23 1.32 10.49-1.91 3-2.98 7.05-3.24 11.01-1.95 1.62.53 3.17 1.43 4.6 2.39 5.06 3.42 5.94 3.48 10.86-.04 4.82-3.43 9.73-3.9 14.84-.69 1.1.69 2.24 1.33 3.37 1.99 3.02 1.76 5.97 1.74 8.77-.44 5.39-4.2 10.78-4.55 16.55-.57 4.52 3.11 8.88 2.9 12.84-.69 3.48-3.16 8.09-3.66 11.86-.91 5.91 4.31 11.14 4.28 17.12.18 4.49-3.08 9.27-2.59 13.83.79 5.23 3.87 6.88 3.71 11.98-.23 3.86-2.98 7.96-3.12 12.27-1.21 1.43.63 2.81 1.37 4.19 2.12 4.4 2.4 8.62 1.99 12.4-1.15 3.3-2.74 6.68-2.57 10.2-.9 2.12 1 4.08 2.32 6.15 3.42 3.73 1.97 6.37 1.64 9.56-1.12 5.28-4.56 9.5-4.82 15.34-1.06 1.52.98 3.14 1.88 4.82 2.52 2.39.91 4.5.4 6.44-1.46 4.44-4.27 10.02-4.76 15.29-1.56.45.27.92.51 1.32.83 3.92 3.12 7.83 3.42 11.82.12.66-.55 1.48-.9 2.24-1.33 4.55-2.58 8.92-2.28 13.24.66 5.72 3.9 7.66 3.85 13.47.02 5.4-3.55 8.31-3.54 13.63.02 1.16.77 2.32 1.53 3.54 2.2a6.39 6.39 0 0 0 7.55-.6c1.03-.8 2.08-1.59 3.2-2.24 3.92-2.26 7.9-2.44 11.89-.12.3.18.63.32.89.54 4.59 3.83 8.82 4.38 13.9.15 4.12-3.43 9.27-3 13.94-.12.89.55 1.75 1.14 2.6 1.74 2.99 2.09 5.92 2.29 8.83-.17.66-.56 1.42-1 2.14-1.48 4.96-3.28 7.98-3.27 12.97.02 1.09.72 2.14 1.5 3.3 2.1a8.84 8.84 0 0 0 7.79.38c1.17-.47 2.63-.22 3.95-.29l.01 2.08Z"/><path class="cls-1" d="M0 160.73c1.37-.19 2.91-.88 4.07-.48 3.95 1.35 7.24 1.33 10.49-1.91 3.01-2.99 7.05-3.23 11.01-1.96 1.62.52 3.17 1.43 4.6 2.39 5.1 3.41 5.92 3.49 10.86-.04 4.93-3.51 9.91-3.86 15.07-.56a47.2 47.2 0 0 0 3.85 2.2 6.95 6.95 0 0 0 7.64-.48 47.1 47.1 0 0 1 3.76-2.34c3.56-1.93 7.14-1.96 10.69.07 1.28.73 2.56 1.49 3.86 2.18 3.83 2.01 7.38 1.94 10.85-1.02 4.21-3.59 8.48-3.81 13.27-1.1.3.17.63.32.9.54 4.45 3.54 8.94 3.83 13.56.29.82-.63 1.83-1 2.77-1.46 4.38-2.11 8.47-1.86 12.51 1.05 5.76 4.15 7.11 4.07 12.63-.1 3.73-2.82 7.69-2.86 11.83-1.18.88.36 1.75.79 2.56 1.3 5.46 3.44 10.57 3.19 15.56-1.08 2.38-2.03 5.31-1.51 7.93-.42 2.31.96 4.45 2.36 6.66 3.57 4.13 2.26 6.7 2 10.22-1.05 4.98-4.32 9.36-4.58 14.93-1.02a28.91 28.91 0 0 0 5.04 2.66c2.38.92 4.5.4 6.44-1.46 4.46-4.27 10.05-4.76 15.29-1.55.52.32 1.07.6 1.55.97 3.77 2.97 7.54 3.22 11.39.12.74-.59 1.63-1 2.46-1.47 4.55-2.57 8.92-2.29 13.24.67 5.67 3.88 7.7 3.84 13.47.02 5.38-3.56 8.31-3.54 13.62.02 1.15.77 2.33 1.53 3.54 2.19a6.38 6.38 0 0 0 7.55-.6 28.3 28.3 0 0 1 2.76-1.98c4.13-2.53 8.33-2.81 12.56-.24 1.11.68 2.2 1.41 3.31 2.09 3.94 2.45 5.84 2.35 9.47-.45 5.55-4.29 10.94-4.44 16.82-.48 5.29 3.57 6.3 3.56 11.63-.07 6-4.08 8.62-4.12 14.68.05 3.43 2.36 6.88 3.59 10.96 1.55.86-.43 2.14 0 3.23.03v2.08c-2.95 3.52-6.76 3.67-10.68 2.32a39.14 39.14 0 0 1-6.97-3.49c-2.34-1.38-4.54-1.57-6.82.01-.42.3-.93.49-1.34.8-5.64 4.33-11.3 4.25-17.09.26-3.89-2.68-7.78-2.46-11.65.24-5.2 3.62-10.49 3.96-15.68 0-4.03-3.07-7.81-2.92-11.91.05-5.46 3.96-11.32 3.6-16.57-.57-3.28-2.6-4.81-2.72-8.54-.71-2.06 1.11-4.08 2.33-6.22 3.27-3.89 1.7-7.63 1.27-11.12-1.19-.99-.7-1.99-1.41-3.03-2.04-2.92-1.77-5.65-1.64-8.45.5-5.65 4.32-10.11 4.42-16.24.63-6.02-3.72-7.74-3.67-13.43.38-4.52 3.21-9.66 3.19-14.59-.07-5.87-3.88-6.83-3.85-12.51.2-4.28 3.06-8.76 2.93-13.28.64-1.78-.9-3.44-2.03-5.22-2.94-2.67-1.37-5.27-1.18-7.47.94-3.96 3.81-8.32 3.8-12.99 1.63-2.13-.99-4.25-2-6.41-2.89-2.32-.96-4.7-.96-6.69.66-6.11 4.97-12.1 5.13-18.52.42-3.17-2.32-6.77-2.25-10.25.07-3.37 2.25-7.08 4.05-11.26 3.05a23.03 23.03 0 0 1-6.8-2.97c-3.62-2.29-5.96-2.72-9.29 0-6.2 5.06-11.61 4.48-17.3.21-2.73-2.05-5.67-2.46-8.81-.88-2.1 1.05-4.25 2-6.36 3.02-3.49 1.68-6.88 1.59-10.17-.52l-1.33-.83c-6.2-3.89-8.01-3.84-13.87.41-4.18 3.03-9.57 3.36-13.77-.14-4.49-3.73-8.41-3.51-12.93-.38-3.77 2.6-7.95 4.07-12.52 1.9-1.07-.51-2-1.31-3-1.97v-1.55Zm252.82-64.48c-1.59-20.18-10.93-36.08-25.33-49.3-10.53-9.67-22.78-16.48-36.27-21.09-20.58-7.04-41.69-8.28-63.13-5.5-21.16 2.74-41.17 9.28-60.45 18.22-.79.37-1.58.74-2.37 1.09-.14.06-.32.03-.85-.31.38-.24.79-.45 1.15-.72 24.66-18.49 51.76-31.76 82.4-36.56 53.84-8.44 97.97 8.87 132.22 51.12a165.73 165.73 0 0 1 19.87 31.44 16.9 16.9 0 0 1 1.61 7.25c-.01 6.02-3.07 9.22-9.07 9.39-3.15.09-6.66 0-9.41-1.3-8.68-4.07-17.65-5.01-27-3.94-1.02.12-2.06.13-3.37.21Zm-2.23-63.89-.48.66c2.72 2.48 5.61 4.81 8.13 7.47 3.42 3.62 6.64 7.42 9.78 11.28 6.07 7.43 11.13 15.48 14.49 24.5 1.84 4.93 3.45 9.93 5.34 14.84.31.81 1.65 1.9 2.3 1.77 1.18-.23 2.86-1.08 3.15-2.03a9.97 9.97 0 0 0-.13-5.11c-2.04-8.04-6.36-15.03-10.94-21.75-7.53-11.03-16.32-21.01-27.27-28.89-1.39-1-2.91-1.83-4.37-2.74Zm-6.92-25.31a230.17 230.17 0 0 1 47.32 15.22c18.57 8.31 35.56 18.97 49.91 33.54a129.95 129.95 0 0 1 23.42 32.69c.43.85.84 1.74 1.04 2.65 1.42 6.37.04 8.51-6.3 10.1-5.89 1.48-11.61 1.18-16.93-1.9a33.85 33.85 0 0 0-25.64-3.82c-1.52.36-2.11-.18-2.65-1.57-2.72-7.04-5.41-14.09-8.4-21.02a125.24 125.24 0 0 0-43.86-53.83c-5.19-3.64-10.52-7.09-15.78-10.63l-2.13-1.42Zm91.97 52.9c4.18 5.97 8.59 11.37 11.95 17.35 2.49 4.44 3.73 9.6 5.31 14.51.54 1.69 1.19 2.96 3.05 2.71 1.98-.27 3.16-1.73 2.75-3.66-.63-2.95-1.24-6.04-2.62-8.68-4.16-7.92-10.33-14.25-17.08-20.03-.98-.84-2.16-1.43-3.35-2.21Z"/><path class="cls-1" d="M218.4 56.36c-7.61-2.1-15.16-4.45-22.83-6.25-13.82-3.23-27.78-4.73-41.91-2.02-23.32 4.48-38.55 20.51-41.86 43.92-.15 1.04-.79 2.46-1.62 2.88-8.91 4.56-18.36 6.96-28.43 5.97-6.02-.59-8.51-3.27-7.51-9.15.77-4.52 2.25-9.21 4.6-13.12 14.44-23.96 35.49-39.03 63.03-44.36 22.9-4.44 44 1.4 63.71 13.08 4.53 2.69 8.83 5.76 13.24 8.66l-.4.39Z"/><path class="cls-1" d="M122.51 28.65c-6.76 4.24-13.63 8.31-20.24 12.76-9.49 6.39-18.11 13.8-25.09 22.96-7.32 9.61-11.7 20.24-11.36 32.52.01.34-.07.68-.14 1.23-8.14 1.83-16.25 3.83-24.68 3.15-8.8-.71-12.42-7-8.89-15.4 3.36-8.01 8.89-14.48 15.22-20.26 15.99-14.61 34.85-24.28 55.14-31.37 6.54-2.28 13.26-4.06 19.9-6.07a9 9 0 0 0 .14.49Zm-37.55 111.66h-7.95v-22.02l.1-1.29c-1.46 1.84-14 12.91-12.06 23.29h-8.02v-32.03s.19-.18.34-.18c8.99.07 7.52-1.62 7.78 7.14l.2 11.69.04.67 11.16-13.75c.77-.95.33-2.73.78-4 .26-.73 1.13-1.65 1.83-1.74 1.87-.24 3.79-.08 5.8-.08v32.3Zm221.59-32.17h7.71l.62 11.91.42.16c.66-1.35 1.2-2.76 1.99-4.02 1.37-2.2 2.73-4.44 4.41-6.39a6.66 6.66 0 0 1 3.73-2.16c1.82-.27 3.95-.28 5.58.45 1.23.55 1.54 1.09 1.54 1.09s-.1-.03-1.2 3.58l-.61 2.01c-3.34.49-6.48.37-9.06 1.52-1.99.88-3.27 3.35-5.17 5.45 8.98 3.56 15.52 8.42 15.99 18.57h-8.99c-.95-6.26-2.07-12.34-7.99-15.78l-1 .24v15.54h-7.97v-32.14Zm39.61-.05s0-.11 5.33-.11c4.15 0 5.25.71 5.98 3.49 2.5 9.55 5.18 19.05 7.9 28.99-2.79 0-5.19.11-7.58-.07-.6-.04-1.4-.91-1.64-1.57-.76-2.08-1.3-4.23-2.03-6.67-1.18 1.91-2.05 3.58-3.17 5.07-2.73 3.64-6.91 4.89-10.61 3.33-3.32-1.41-5.51-5.34-4.32-9.64 1.05-3.76 3.01-7.32 4.96-10.74 2.3-3.03 3.36-4.48 4.83-5.79 1.57-1.76 3.86-3.28.34-6.29Zm3.18 5.26c-1.6 2.8-3.22 4.89-4.04 7.25a41.45 41.45 0 0 0-2.29 10.03c-.3 3.69 2.33 5.3 5.87 4.14 2.48-.82 3.81-2.74 3.87-6.13.08-5.08-1.51-9.82-3.41-15.28Zm-166.68 27.1c-2.59 0-4.94.13-7.25-.08-.68-.06-1.6-.93-1.86-1.63-.79-2.06-1.3-4.23-2.02-6.69-.99 1.68-1.73 3.13-2.64 4.47-1.61 2.38-3.69 4.14-6.69 4.51-4.75.59-8.13-1.99-8.82-6.72-.51-3.5.26-6.84 2.15-9.7a115.1 115.1 0 0 1 7.85-10.33c1.52-1.82 3.17-3.33.59-6.18 3.34 0 6.07-.12 8.76.1.6.05 1.39 1.21 1.61 2 2.17 7.58 4.24 15.18 6.33 22.78.66 2.39 1.28 4.8 1.99 7.47Zm-15.12-26.5-1.04.11c-3.47 4.95-6.24 10.18-6.17 16.46.04 3.84 2.55 5.49 6.15 4.18 2.94-1.08 3.97-3.58 3.65-6.25-.59-4.86-1.7-9.67-2.59-14.49Zm27.68 26.39h-9.95c1.85-8.8 7.99-13.09 15.75-16.34-1.27-.63-2.44-1.04-3.43-1.72-2.85-1.94-6-3.62-8.33-6.07-2.96-3.12-1.71-7.15 2.46-7.95 3.67-.71 7.66-.96 11.3-.29 5.63 1.04 8.48 5.41 8.97 10.82.64 7.06.69 14.17 1.01 21.46h-8.16v-14.85c-6.19.59-8.5 4.35-9.63 14.93Zm9.17-17c.27-4.42.35-8.51-1.74-12.3-.87-1.58-2.37-2.68-4.05-1.9a4.75 4.75 0 0 0-2.27 3.19c-.69 4.96 1.83 8.33 8.06 11.01Zm-161.54-15.14 6.9-.02v32.15c-2.56 0-5.35-.13-8.15-.13v-14.93l-2.23.86c-5.58 2.13-10.19-.42-11.74-2.82a5.18 5.18 0 0 1-1.46-3.33c-.53-4.19.24-9.13.52-12.65 2.25.17 2.83.18 4.46.33.46.04 1.02.11 1.58.19.51.07.9.47.97.98.12.85.2 2.38.15 4.84-.08 3.75-.28 6.15.93 8.79.41.91 1.23 2.09 2.82 1.95 1.79-.15 3.98-.63 4.01-3.31.04-3.73 0-7.44 0-11.16 0-1.73 1.26-1.74 1.26-1.74Zm257.67 8.16h-7.31c-.25-1.31-.41-2.51-.71-3.66-.61-2.4-2.29-3.62-4.68-3.87-2.32-.24-4.4.65-5.11 2.79a62.97 62.97 0 0 0-2.38 11.16c5.92-3.18 11.61-3.26 17.24-.44 1.37.69 2.28 2.28 3.41 3.46l-.49.91c-2.21 0-4.42.07-6.62-.07-.4-.03-.84-.91-1.1-1.47-1.03-2.22-2.93-2.84-5.14-2.84-2.61 0-5.19.46-6.7 2.75-.5.76-.04 2.36.35 3.45 1.31 3.66 2.79 7.25 4.21 10.92 4.42.05 6.65-2.13 7.67-7.79h7.13c-.72 6.13-7.42 9.92-16.93 9.46-.48-4.03-3.77-6.1-6.55-8.5-4.78-4.13-5.34-9.38-3.95-14.97 1.38-5.55 5.19-8.89 10.8-10.09 3.84-.82 7.63-.69 11.22 1.06 3.15 1.54 5.23 3.92 5.65 7.75Zm-182.47 2.85h-7.83c0-1.49.07-2.85-.01-4.2-.21-3.71-1.64-5.72-4.19-6.03-2.69-.32-4.71 1.32-5.64 5.02-1.23 4.93-1.68 9.91-.29 14.91.96 3.49 1.87 7 2.81 10.52 4.92.23 5.97-1.34 7.6-11.64h7.46c.32 2.83-.77 5.06-2.43 7.01a17.8 17.8 0 0 1-12.71 6.32c-.61.04-1.74-.42-1.81-.8-.64-3.57-3.28-5.7-5.74-7.84-5.28-4.6-5.85-10.22-3.77-16.35 3-8.85 16.18-11.98 23-5.54a10.7 10.7 0 0 1 3.55 8.61Zm23.66 21.14h-7.78v-30.37c-4.34-.95-6.98.85-11.34 8.03-.62-1.76-1.14-3.36-1.74-4.92-.61-1.6-1.3-3.17-2.01-4.92h37.86l-3.83 10.07c-2.51-4.76-5.04-9.1-11.16-8.48v30.59Zm111.98-.06h-8.17c-.11-1.48-.31-2.99-.31-4.51-.01-5.36-.48-10.79.2-16.06 1.06-8.18 6.33-12.21 14.59-12.07 1.98.04 4.02.18 5.93.65 3.63.89 4.99 3.98 3.15 7.24a12.29 12.29 0 0 1-3.52 4.08 77.51 77.51 0 0 1-10.01 6c-1.91.93-2.52 1.94-2.36 3.93.27 3.52.34 7.05.5 10.75Zm-.76-15.35c5.85-1.99 9.54-7.82 8.36-12.86-.23-1-1.2-2.34-2.07-2.55a4.33 4.33 0 0 0-3.44.94 6.44 6.44 0 0 0-1.86 3.59c-.5 3.53-.67 7.11-.99 10.89Zm117.5.55h11.87v3.16h-11.87zm-324.4 48.61v2.7h-7.98v15.69h-3.31v-18.38h11.28Zm17.63 0v18.38h-3.31v-15.76h-6.31v4.79c0 5.17-.49 8.62-2.89 10.18a5.38 5.38 0 0 1-3.65 1.14l-.34-2.62a4.2 4.2 0 0 0 1.82-.76c1.71-1.25 1.9-3.84 1.9-7.94v-7.41h12.76Zm16.6 18.38-.27-2.32h-.11a6.86 6.86 0 0 1-5.62 2.73c-3.72 0-5.62-2.62-5.62-5.28 0-4.45 3.95-6.88 11.05-6.84v-.38c0-1.52-.42-4.26-4.18-4.26-1.71 0-3.49.53-4.79 1.37l-.76-2.2a11.39 11.39 0 0 1 6.04-1.64c5.62 0 6.99 3.84 6.99 7.52v6.88c0 1.6.07 3.15.31 4.41h-3.04Zm-.5-9.38c-3.65-.08-7.79.57-7.79 4.14 0 2.17 1.44 3.19 3.15 3.19a4.57 4.57 0 0 0 4.44-3.08c.11-.34.19-.72.19-1.07v-3.19Zm9.51-8.77a38.9 38.9 0 0 1 5.85-.42c3.08 0 8.17.49 8.17 4.6 0 2.28-1.75 3.68-3.84 4.14v.08c2.7.38 4.67 1.9 4.67 4.56 0 4.83-6.08 5.43-9.69 5.43-2.05 0-4.18-.15-5.17-.23v-18.16Zm3.15 15.95c.95.12 1.63.15 2.7.15 2.24 0 5.58-.53 5.58-3.19s-2.66-3.23-5.85-3.23h-2.43v6.27Zm.04-8.47h2.51c2.47 0 5.02-.72 5.02-2.89 0-1.82-1.6-2.7-4.94-2.7-1.1 0-1.79.08-2.58.15v5.43Zm20.06-7.71v7.41h8.74v-7.41h3.31v18.38h-3.31v-8.32h-8.74v8.32h-3.31v-18.38h3.31Zm21.69 0v6.27c.72-.15 1.79-.23 3-.23 3.95 0 7.94 1.64 7.94 6.15a5.2 5.2 0 0 1-1.9 4.26c-2.01 1.71-4.98 2.13-7.41 2.13a46 46 0 0 1-4.94-.27v-18.31h3.31Zm0 16.07c.65.08 1.37.15 2.32.15 2.55 0 5.32-1.07 5.32-3.91s-2.66-3.88-5.17-3.88c-.95 0-1.79.08-2.47.19v7.45Zm16.56-16.07v18.38h-3.31v-18.38h3.31Zm9.51 0v7.75c0 2.93-.04 4.75-.19 7.37l.12.04a91.63 91.63 0 0 1 2.96-5.66l5.74-9.5h3.91v18.38h-3.19v-7.79c0-3 .07-4.56.23-7.52h-.12a107.16 107.16 0 0 1-3.04 5.7c-1.75 2.85-3.76 6.38-5.74 9.61h-3.84v-18.38h3.15Zm2.17-7.49c.12 1.64.91 2.89 2.43 2.89 1.63 0 2.39-1.22 2.58-2.89h2.4c-.15 3.12-2.13 4.71-5.05 4.71-3.34 0-4.64-2.09-4.79-4.71h2.43Zm40.87 7.49v18.38h-3.34v-15.72h-8.55v15.72h-3.31v-18.38h15.19Zm6.38 6c0-2.36-.08-4.26-.15-6h3l.15 3.15h.08a7.23 7.23 0 0 1 6.53-3.57c4.45 0 7.79 3.76 7.79 9.34 0 6.61-4.03 9.88-8.36 9.88-2.43 0-4.56-1.06-5.66-2.89h-.07v9.99h-3.31v-19.9Zm3.31 4.9a5.15 5.15 0 0 0 5.16 5.28c3.53 0 5.58-2.89 5.58-7.1 0-3.68-1.94-6.84-5.47-6.84a5.33 5.33 0 0 0-5.05 4.14c-.12.42-.23.91-.23 1.37v3.15Zm22.34-10.9v7.75c0 2.93-.04 4.75-.19 7.37l.12.04a91.63 91.63 0 0 1 2.96-5.66l5.74-9.5h3.91v18.38h-3.19v-7.79c0-3 .08-4.56.23-7.52h-.11a107.16 107.16 0 0 1-3.04 5.7c-1.75 2.85-3.76 6.38-5.74 9.61h-3.84v-18.38h3.15Zm35.55 9.04c0 6.8-4.71 9.76-9.16 9.76-4.98 0-8.81-3.65-8.81-9.46 0-6.15 4.03-9.76 9.12-9.76s8.85 3.84 8.85 9.46Zm-14.58.19c0 4.03 2.32 7.07 5.58 7.07s5.58-3 5.58-7.14c0-3.12-1.56-7.07-5.51-7.07s-5.66 3.65-5.66 7.14Zm19.76-3.23c0-2.36-.08-4.26-.15-6h3l.15 3.15h.08a7.23 7.23 0 0 1 6.53-3.57c4.44 0 7.79 3.76 7.79 9.34 0 6.61-4.03 9.88-8.36 9.88-2.43 0-4.56-1.06-5.66-2.89h-.08v9.99h-3.31v-19.9Zm3.31 4.9c0 .49.08.95.15 1.37a5.16 5.16 0 0 0 5.02 3.91c3.53 0 5.58-2.89 5.58-7.1 0-3.68-1.94-6.84-5.47-6.84a5.33 5.33 0 0 0-5.05 4.14 5.6 5.6 0 0 0-.23 1.37v3.15Zm22.33-10.9v7.75c0 2.93-.04 4.75-.19 7.37l.11.04a91.63 91.63 0 0 1 2.96-5.66l5.74-9.5h3.91v18.38h-3.19v-7.79c0-3 .08-4.56.23-7.52h-.11a107.16 107.16 0 0 1-3.04 5.7c-1.75 2.85-3.76 6.38-5.74 9.61h-3.84v-18.38h3.15Zm31.22 0v2.66h-5.74v15.72h-3.31v-15.72h-5.74v-2.66h14.78Zm5.25 9.8c.08 4.52 2.96 6.38 6.31 6.38 2.39 0 3.84-.42 5.09-.95l.57 2.39a14.93 14.93 0 0 1-6.12 1.14c-5.66 0-9.04-3.72-9.04-9.27s3.27-9.91 8.62-9.91c6 0 7.6 5.28 7.6 8.66 0 .68-.08 1.22-.11 1.55h-12.92Zm9.8-2.39c.04-2.13-.87-5.43-4.63-5.43-3.38 0-4.86 3.12-5.13 5.43h9.76Zm20.59-7.41v2.66h-5.74v15.72h-3.31v-15.72h-5.74v-2.66h14.78Z"/></svg>