<svg version="1.1" id="Слой_1" xmlns="http://www.w3.org/2000/svg" x="0" y="0" viewBox="0 0 572.03 200" style="enable-background:new 0 0 572.03 200" xml:space="preserve"><style>.st0{fill:#fff}</style><path class="st0" d="M56.28 3.34h4.38c35.02 0 70.04.01 105.06-.04 1.76 0 2.79.48 3.7 2.05 7.26 12.66 14.63 25.26 21.92 37.91 11.03 19.13 22.03 38.27 32.96 57.45.4.71.29 2.09-.14 2.85-3.87 6.89-7.87 13.71-11.82 20.56l-33.18 57.59c-3.24 5.62-6.51 11.23-9.7 16.89-.73 1.29-1.76 1.37-3.01 1.37-17.97-.02-35.94-.01-53.91-.01s-35.94-.04-53.91.05c-2.01.01-3.02-.56-4.03-2.34-6.27-11.04-12.76-21.95-19.1-32.95-8.74-15.16-17.42-30.37-26.12-45.56-3.05-5.31-6.14-10.6-9.12-15.96-.33-.6-.35-1.7-.02-2.29 9.55-16.66 19.17-33.26 28.76-49.87 8.71-15.09 17.41-30.19 26.1-45.3.42-.73.75-1.52 1.18-2.4zm56.69 181.33v-.01c15.14 0 30.29-.02 45.43.03 1.42.01 2.3-.34 3.04-1.65 6.23-10.88 12.54-21.71 18.83-32.56 8.25-14.23 16.41-28.51 24.8-42.67 1.95-3.28 3.26-6.14.17-9.34-.47-.48-.71-1.18-1.05-1.78l-27.68-48.32c-4.91-8.57-9.86-17.12-14.75-25.7-.92-1.61-2.05-2.28-4.02-2.28-30.07.07-60.15.05-90.23.01-1.29 0-1.88.55-2.45 1.54-8.21 14.24-16.43 28.48-24.68 42.7a9942.93 9942.93 0 0 1-21 36.03c-.72 1.24-.74 2.24 0 3.52 7.95 13.74 15.83 27.52 23.74 41.29 7.21 12.53 14.45 25.04 21.61 37.6.7 1.23 1.43 1.62 2.81 1.62 15.14-.04 30.29-.03 45.43-.03z"/><path class="st0" d="m107.57 47.08.46-5.55 9.31-.72c.09 1.15.31 2.39.24 3.61-.09 1.49.42 2.09 1.93 2.35a93.19 93.19 0 0 1 20.77 5.8c16.96 7.17 27.81 19.62 32.18 37.56.48 1.99 1.2 3.19 3.41 3.01.33-.03.68.14 1.63.35-1.06 4.34-1.89 8.69-3.2 12.88-1.9 6.07-5.21 11.42-9.29 16.28-1.05 1.24-1.77 2.48-1.53 4.17.1.69.02 1.41.02 2.12 0 5.64.03 5.68-4.66 8.74a93.26 93.26 0 0 1-7.96 4.79c-2.68 1.38-5.54 2.42-8.76 3.79l5.56 8.27c-.75.12-1.25.26-1.76.26-21.79.01-43.58 0-65.37-.01-2.61 0-3.24-.95-2.07-3.38.93-1.94 2.09-3.77 3.1-5.57-4.01-2.18-7.78-4.07-11.39-6.23a99.3 99.3 0 0 1-8.2-5.64c-.58-.43-1.13-1.52-1.02-2.19.61-3.83-.25-7.32-2.12-10.59a72.6 72.6 0 0 0-3.74-5.91c-4.14-5.87-6.03-12.55-7.22-19.51-.21-1.21-.01-1.87 1.28-2.1 1.99-.36 2.9-1.57 3.49-3.6 4.4-15.14 13.01-27.14 26.88-35.03 7.67-4.36 15.99-6.67 24.73-7.59l3.3-.36zm.1 63.7v-2.05l-.01-43.72c0-2.19-.1-4.39.02-6.58.11-2.09-.96-2.61-2.72-2.32-2.09.34-4.18.7-6.24 1.17-12 2.72-22.36 8.27-30.31 17.83-3.83 4.6-6.1 9.97-7.21 15.84-.19 1.03-.37 2.48 1.26 2.25 1.9-.27 2.13.75 2.36 2.12.61 3.73 1.47 7.35 3.18 10.82 2.73 5.54 6.23 10.29 11.57 13.56 1.29.79 2.45 1.81 3.75 2.77-.36.57-.59.91-.8 1.27-.99 1.72-2 2.6-3.92.87-2.07-1.86-4.6-3.23-6.54-5.2-2.38-2.41-4.44-5.16-6.48-7.88-3.19-4.26-4.55-9.31-5.39-14.44-.51-3.08-.39-3.27-3.54-3.3-.49 0-.99-.01-1.48.04-1.34.14-2.1.74-1.72 2.23.9 3.48 1.46 7.08 2.74 10.42 3.69 9.64 10.71 16.65 18.75 22.77 1.74 1.33 1.66 2.52-.35 3.47-1.24.59-2.61.91-4.31 1.49 6.93 4.41 14.08 7.45 21.78 8.53 7.63 1.07 15.4 1.21 23.36 1.77v5.3h22.27c-.76-1.37-1.21-2.49-1.91-3.42-6.83-9-13.75-17.94-20.53-26.98-1.54-2.05-3.31-2.86-5.85-3.1-9.03-.87-16.76-4.37-22.11-12.06-2.19-3.16-3.64-6.6-3.38-10.55 3.8-.57 3.85-.59 4.87 2.75 2.31 7.71 9.53 13.57 18.89 14.33zm33.99 11.48 1.75-1.23c9.31-6.43 15.81-14.63 16.77-26.39.05-.58 1.09-1.57 1.64-1.55 2.02.07 2.18-.94 1.98-2.53-.55-4.2-1.9-8.12-4.2-11.66-7.29-11.19-17.83-17.85-30.43-21.53a27.9 27.9 0 0 0-11.37-.86v54.25c10.24-1.96 17.28-7.53 18.62-15.66.12-.73.64-1.89 1.12-1.97 1.2-.2 2.55-.08 3.68.34.29.11.17 1.82-.04 2.73-1.88 8.32-7.21 13.69-14.8 17.06-2.41 1.07-4.89 1.95-7.41 2.95.2.38.3.64.47.86 5.95 7.81 11.88 15.63 17.91 23.38.43.55 1.64.9 2.35.74 5.93-1.33 11.42-3.67 16.04-7.73.88-.77 1.49-1.85 2.22-2.79l-.5-.54c-.82.46-1.69.85-2.43 1.41-3.65 2.75-3.64 2.77-6.62-.58-.12-.14-.16-.35-.3-.69 13.69-8.24 22.19-19.93 23.93-36.22h-6.5c-.53 2.68-.87 5.2-1.54 7.64-2.7 9.88-9.01 17.07-17.14 22.95-1.71 1.24-2.75.94-3.89-.44-.44-.54-.78-1.15-1.31-1.94z"/><path class="st0" d="M90.35 114.99c-.8.99-1.32 1.99-2.15 2.54-.6.4-1.84.57-2.38.21-7.89-5.26-13.08-12.31-14.01-22.02-.08-.88-.68-2.41 1.05-2.44 1.44-.03 3.26-.86 4.01 1.51.86 2.68 2.02 5.27 3.03 7.9a21.46 21.46 0 0 0 7.7 10.12c.86.61 1.66 1.3 2.75 2.18zm62.61-21.58c.28 9.49-6.26 20.03-15.15 25.15-2.41-2.41-2.42-3.93.13-6.09 4.8-4.05 8.62-8.71 9.66-15.14.02-.14.07-.27.1-.41.69-4.13.68-4.13 5.26-3.51zm121.75-76.04c0 4.1-1.42 7.29-4.27 9.57a16.16 16.16 0 0 1-10.14 3.52v3.75h-5.87v-3.75c-2.47-.06-4.77-.55-6.9-1.48s-3.91-2.39-5.35-4.41a12.08 12.08 0 0 1-2.16-7.2c0-4.07 1.38-7.27 4.15-9.62 2.77-2.35 6.19-3.58 10.26-3.71v-3.24h5.87v3.24c4.13.16 7.56 1.4 10.3 3.73 2.74 2.33 4.11 5.53 4.11 9.6zm-20.28 8.02v-16.28c-5.69.59-8.54 3.35-8.54 8.26 0 2.57.73 4.46 2.2 5.68 1.48 1.22 3.59 2 6.34 2.34zm14.41-8.02c0-4.91-2.85-7.67-8.54-8.26v16.29c2.75-.34 4.86-1.13 6.34-2.35 1.47-1.22 2.2-3.12 2.2-5.68zm25.4-17.37c4.72 0 8.57 1.62 11.52 4.86 2.96 3.24 4.43 7.46 4.43 12.65s-1.49 9.41-4.46 12.65c-2.97 3.24-6.84 4.86-11.59 4.86-4.79 0-8.66-1.61-11.62-4.83-2.96-3.22-4.43-7.45-4.43-12.67 0-5.07 1.45-9.25 4.34-12.56 2.9-3.31 6.83-4.96 11.81-4.96zm-.09 4.93a9.02 9.02 0 0 0-7.37 3.4c-1.85 2.27-2.77 5.3-2.77 9.08 0 3.88.91 6.96 2.74 9.25 1.83 2.28 4.32 3.43 7.49 3.43 3.03 0 5.47-1.15 7.3-3.45s2.75-5.36 2.75-9.18c0-3.82-.92-6.86-2.75-9.13a9 9 0 0 0-7.39-3.4zm48.3-4.13v33.42h-5.87v-15.02h-15.3v15.02h-5.87v-33.42h5.87v13.28h15.3v-13.28h5.87zm36.8 41.73h-5.68v-8.31h-21.78v8.31h-5.68v-13.38h3.24c1.28-2.25 2.33-5.54 3.14-9.86a72.16 72.16 0 0 0 1.22-13.33v-5.16h21.78v28.35h3.75v13.38zm-9.63-13.38v-23.28h-10.18v2.02c0 4.04-.37 8.05-1.1 12.04-.73 3.99-1.63 7.06-2.7 9.22h13.98zm-99.04 46.51c-.31 4.1-1.78 7.38-4.39 9.83-2.61 2.46-6 3.68-10.16 3.68-4.72 0-8.51-1.59-11.36-4.79-2.85-3.19-4.27-7.43-4.27-12.72 0-3.19.61-6.09 1.83-8.71a15.22 15.22 0 0 1 5.49-6.34 15.23 15.23 0 0 1 8.59-2.42c3.53 0 6.62.98 9.25 2.93 2.63 1.95 4.21 4.78 4.74 8.47h-5.82a7.69 7.69 0 0 0-2.82-4.72 8.6 8.6 0 0 0-5.44-1.71c-2.22 0-4.11.63-5.66 1.88a10.13 10.13 0 0 0-3.28 4.62 17.99 17.99 0 0 0-.96 5.98c0 1.63.19 3.16.56 4.6a14.5 14.5 0 0 0 1.69 3.97 8.3 8.3 0 0 0 3.07 2.89 9.2 9.2 0 0 0 4.53 1.08c4.97 0 7.82-2.85 8.54-8.54l5.87.02zm19.67-21.5c4.72 0 8.57 1.62 11.52 4.86 2.96 3.24 4.43 7.46 4.43 12.65s-1.49 9.41-4.46 12.65c-2.97 3.24-6.84 4.86-11.59 4.86-4.79 0-8.66-1.61-11.62-4.83s-4.43-7.45-4.43-12.67c0-5.07 1.45-9.25 4.34-12.56 2.9-3.31 6.83-4.96 11.81-4.96zm-.09 4.93a9.02 9.02 0 0 0-7.37 3.4c-1.85 2.27-2.77 5.3-2.77 9.08 0 3.88.92 6.96 2.74 9.25 1.83 2.28 4.32 3.43 7.49 3.43 3.03 0 5.47-1.15 7.3-3.45s2.75-5.36 2.75-9.18c0-3.82-.92-6.86-2.75-9.13a9.03 9.03 0 0 0-7.39-3.4zm48.15 24.22h3.66v13.38h-5.68v-8.31h-25.02v-33.42h5.87v28.35h15.3v-28.35h5.87v28.35zm7.56 5.07v-33.42h5.87v25.63l14.36-25.63h6.81v33.42h-5.87v-25.63l-14.36 25.63h-6.81zm49.24-33.47 12.91 33.47h-6.29l-3.19-8.87h-13.24l-3.28 8.87h-6.05l12.91-33.47h6.23zm1.88 20.19-4.97-14.08-5.21 14.08h10.18z"/><path class="st0" d="M437.31 88.38h-5.87v-28.35h-10.33l-.61 15.91c-.19 4.44-1.09 7.73-2.7 9.86s-3.7 3.19-6.27 3.19c-1.13 0-2.3-.21-3.52-.61v-4.51c.62.25 1.39.37 2.3.37s1.64-.22 2.2-.66c.56-.44 1.06-1.41 1.5-2.93.44-1.52.7-3.62.8-6.31l.66-19.39h21.83l.01 33.43zm33.14-10.37c0 3.32-.99 5.87-2.98 7.67-1.99 1.8-4.79 2.7-8.42 2.7h-14.79v-33.42h5.87v12.77h8.92c3.66 0 6.48.89 8.45 2.67 1.97 1.79 2.95 4.32 2.95 7.61zm-5.87.14a5.5 5.5 0 0 0-1.55-4.13c-1.03-1-2.47-1.5-4.32-1.5h-8.59v11.08h8.68c3.86-.01 5.78-1.82 5.78-5.45zm37.89-23.19v33.42h-5.87v-15.02h-15.3v15.02h-5.87v-33.42h5.87v13.28h15.3v-13.28h5.87zm21.35-.8c4.72 0 8.57 1.62 11.52 4.86 2.96 3.24 4.43 7.46 4.43 12.65s-1.49 9.41-4.46 12.65c-2.97 3.24-6.84 4.86-11.59 4.86-4.79 0-8.66-1.61-11.62-4.83-2.96-3.22-4.43-7.45-4.43-12.67 0-5.07 1.45-9.25 4.34-12.56 2.9-3.31 6.84-4.96 11.81-4.96zm-.09 4.93a9.02 9.02 0 0 0-7.37 3.4c-1.85 2.27-2.77 5.3-2.77 9.08 0 3.88.91 6.96 2.74 9.25 1.83 2.28 4.32 3.43 7.49 3.43a8.87 8.87 0 0 0 7.3-3.45c1.83-2.3 2.75-5.36 2.75-9.18 0-3.82-.91-6.86-2.75-9.13a9.02 9.02 0 0 0-7.39-3.4zm21.26 29.29v-33.42h5.87v25.63l14.36-25.63h6.81v33.42h-5.87v-25.63l-14.36 25.63h-6.81zm21.22-41.87c-.25 2.25-1 3.92-2.25 5s-3.07 1.62-5.44 1.62c-2.38 0-4.19-.54-5.44-1.62s-2-2.74-2.25-5h2.72c.59 2.38 2.25 3.57 4.97 3.57 2.72 0 4.38-1.19 4.97-3.57h2.72zm-299.43 86.37c0 1.13-.23 2.26-.7 3.4a12 12 0 0 1-2.13 3.33 10.37 10.37 0 0 1-4.01 2.65 15.78 15.78 0 0 1-5.91 1.03c-4.19 0-7.59-1-10.19-3-2.6-2-3.89-4.94-3.89-8.82h5.77c0 2.44.8 4.25 2.39 5.42s3.68 1.76 6.24 1.76c2.13 0 3.75-.5 4.88-1.5s1.69-2.46 1.69-4.36c0-1.75-.55-3.08-1.67-3.99-1.11-.91-2.64-1.36-4.58-1.36h-4.08v-4.55h4.08a5.3 5.3 0 0 0 3.82-1.45 4.94 4.94 0 0 0 1.52-3.75c0-1.47-.52-2.62-1.55-3.45-1.03-.83-2.49-1.24-4.36-1.24-4.51 0-6.93 1.95-7.27 5.87h-5.58c.12-3.57 1.33-6.21 3.61-7.93s5.24-2.58 8.87-2.58c3.53 0 6.43.76 8.68 2.28 2.25 1.52 3.38 3.78 3.38 6.78 0 1.69-.55 3.22-1.64 4.6a6.85 6.85 0 0 1-3.71 2.58v.14a7.6 7.6 0 0 1 4.58 2.79 8.3 8.3 0 0 1 1.76 5.35zm20.84-23.8 12.91 33.47h-6.29l-3.19-8.87h-13.24l-3.28 8.87h-6.05l12.91-33.47h6.23zm1.88 20.18-4.97-14.08-5.21 14.08h10.18zm13.94 13.29v-33.42h5.87v28.35h12.95v-28.35h5.87v28.35h12.95v-28.35h5.87v28.35h3.66v13.38h-5.68v-8.31h-41.49zm51.07 0v-33.42h5.87v25.63l14.36-25.63h6.81v33.42h-5.87v-25.63l-14.36 25.63h-6.81zm57.97-33.43v5.07h-10.65v28.35h-5.87v-28.35h-10.66v-5.07h27.18zm29.15 23.05c0 3.32-.99 5.87-2.98 7.67-1.99 1.8-4.79 2.7-8.42 2.7h-13.85v-33.42h5.87v12.77h7.98c3.66 0 6.48.89 8.45 2.67 1.97 1.79 2.95 4.33 2.95 7.61zm-5.87.14a5.5 5.5 0 0 0-1.55-4.13c-1.03-1-2.47-1.5-4.32-1.5h-7.65v11.08h7.74c3.86 0 5.78-1.82 5.78-5.45zm9.81-23.19h5.87v33.42h-5.87v-33.42zm-176.68 54.17v33.42h-5.87v-15.02h-15.3v15.02h-5.87v-33.42h5.87v13.28h15.3v-13.28h5.87zm22.2-.05 12.91 33.47h-6.29l-3.19-8.87h-13.24l-3.28 8.87h-6.05l12.91-33.47h6.23zm1.88 20.18-4.97-14.08-5.21 14.08h10.18zm42.81.57c-.31 4.1-1.78 7.38-4.39 9.83-2.61 2.46-6 3.68-10.16 3.68-4.72 0-8.51-1.59-11.36-4.79s-4.27-7.43-4.27-12.72c0-3.19.61-6.09 1.83-8.71a15.22 15.22 0 0 1 5.49-6.34 15.23 15.23 0 0 1 8.59-2.42c3.53 0 6.62.98 9.25 2.93 2.63 1.95 4.21 4.78 4.74 8.47h-5.82a7.73 7.73 0 0 0-2.82-4.72 8.6 8.6 0 0 0-5.44-1.71c-2.22 0-4.11.63-5.66 1.88a10.13 10.13 0 0 0-3.28 4.62 17.99 17.99 0 0 0-.96 5.98c0 1.63.19 3.16.56 4.6a14.5 14.5 0 0 0 1.69 3.97 8.3 8.3 0 0 0 3.07 2.89 9.2 9.2 0 0 0 4.53 1.08c4.97 0 7.82-2.85 8.54-8.54l5.87.02zm5.16 12.72v-33.42h5.87v25.63l14.36-25.63h6.81v33.42h-5.87v-25.63l-14.36 25.63h-6.81zm60.13 0h-5.87v-28.35h-10.33l-.61 15.91c-.19 4.44-1.09 7.73-2.7 9.86a7.5 7.5 0 0 1-6.27 3.19c-1.13 0-2.3-.21-3.52-.61v-4.51c.62.25 1.39.38 2.3.38.91 0 1.64-.22 2.2-.66.56-.44 1.06-1.41 1.5-2.93.44-1.52.7-3.62.8-6.31l.66-19.39h21.83l.01 33.42zm30.94-33.42v4.93h-18.26v8.87h16.94v4.74h-16.94v9.86h18.54v5.02h-24.36v-33.42h24.08zm32.48 0v33.42h-5.87v-15.02h-15.3v15.02h-5.87v-33.42h5.87v13.28h15.3v-13.28h5.87zm6.85 33.42v-33.42h5.87v25.63l14.36-25.63h6.81v33.42h-5.87v-25.63l-14.36 25.63h-6.81zm59.19 0h-5.87v-13.8h-6.66l-9.48 13.8h-7.32l10.28-14.36c-2.75-.84-4.65-2.09-5.68-3.75a11.27 11.27 0 0 1-1.55-6.05c0-2.82.97-5.06 2.91-6.73 1.94-1.67 4.66-2.51 8.17-2.51h15.21l-.01 33.4zm-5.86-18.26v-10.37h-8.73c-2 0-3.47.4-4.41 1.2-.94.8-1.41 2.06-1.41 3.78 0 3.6 1.91 5.4 5.73 5.4h8.82z"/></svg>