<svg viewBox="0 0 518 53" fill="none" xmlns="http://www.w3.org/2000/svg"><path d="M106.66 52.62c-7.67 0-15.34.06-23-.02-4.86-.06-8.42-2.53-10.8-6.68a16.85 16.85 0 0 1-2.07-8.63c.02-7.28-.04-14.55.02-21.8.03-3.46.78-6.74 2.87-9.6 2.52-3.46 5.89-5.45 10.14-5.46 15.41-.07 30.84-.05 46.26 0 2.87 0 5.37 1.17 7.57 3.04 3.05 2.6 4.55 5.96 4.9 9.9.1.9.21 1.78.22 2.68.02 7 .01 14 0 21.01 0 3.98-.83 7.76-3.4 10.88-2.28 2.77-5.25 4.6-8.9 4.65-7.93.1-15.86.03-23.8.03Zm.12-40.91c-4.1 0-8.2-.08-12.3.03-2.25.05-3.48.96-4.18 2.81-.32.89-.5 1.87-.5 2.81-.05 6.1-.12 12.2 0 18.3.1 4.49 2.06 5.75 5.63 5.82 7.55.16 15.12.17 22.67 0 3.67-.08 5.47-1.39 5.6-5.5.2-6.3.14-12.63.02-18.96-.06-2.88-1.15-5.31-5.34-5.31h-11.62.02Zm236.26 40.9c-7.86 0-15.73.12-23.59-.04-4.16-.09-7.42-2.24-9.75-5.75-2.03-3.07-2.62-6.53-2.62-10.15 0-7.04-.04-14.09.02-21.13.02-3.5.8-6.86 2.91-9.7 2.48-3.31 5.77-5.42 10-5.42 15.2-.05 30.4 0 45.6-.03 2.94 0 5.56.9 7.87 2.65 3.26 2.46 4.92 5.89 5.35 9.92.18 1.78.22 3.57.23 5.37.03 6.56.06 13.11-.01 19.66-.06 4.34-1.38 8.27-4.63 11.26-2.24 2.05-4.88 3.36-8.01 3.36h-23.37Zm-.03-40.9h-12.07c-.36 0-.73.02-1.08.12-3.14.85-3.68 2.63-3.73 5.25-.12 6.72.04 13.44.19 20.16a3.96 3.96 0 0 0 2.9 3.8c.91.31 1.93.46 2.9.47 6.85.04 13.7.03 20.56.01.95 0 1.9-.14 2.86-.22 3.27-.24 4.42-2.34 4.48-5.05.12-6.5.15-13.03 0-19.53-.07-2.8-1.43-5.03-5.05-5.03h-11.95l-.01.02Zm-173.75 40.89h-20.81v-52.2h1.25c14.27 0 28.53-.06 42.8.04 4.86.04 9.5 1.3 13.43 4.34a12.82 12.82 0 0 1 4.99 8.16c.67 3.99.25 7.9-1.52 11.6a10.31 10.31 0 0 1-5.87 5.34 28.32 28.32 0 0 1 6.7 9.8c1.4 3.24 2.58 6.57 3.84 9.86l1.18 3.1h-1.23c-6.4 0-12.81-.02-19.21.01-.87 0-1.23-.27-1.58-1.12-1.08-2.54-2.31-5.02-3.54-7.5-1.53-3.1-3.06-6.2-4.7-9.23a4.82 4.82 0 0 0-4.1-2.47c-3.77-.2-7.56-.18-11.34-.26-.1 0-.2.05-.31.08v20.46l.02-.02Zm-.07-31.62c4.58 0 9.05.1 13.5-.05 1.68-.06 3.37-.56 4.97-1.1 1.65-.57 2.03-2.13 2.04-3.7 0-1.52-.46-2.93-2.02-3.49a13.3 13.3 0 0 0-3.9-.89c-4.45-.11-8.92-.04-13.38-.04h-1.2v9.27Zm-149.16 11.16v20.42h-19.35v-51.85h19.33v20.18h25.72v-20.2h19.38v51.85h-19.32v-20.41h-25.76Zm382.91-20.34v40.76h-18.44v-52.15h1.27c16.65 0 33.3-.02 49.94 0 5.01.01 10.02 3.61 11.76 8.55a24.1 24.1 0 0 1 1.32 8.06v35.51h-19v-1.3c0-10.97.02-21.92-.02-32.88 0-1.18-.2-2.37-.47-3.5-.42-1.73-2.3-3.13-4.2-3.13-7.23-.03-14.46 0-21.69 0-.1 0-.2.03-.47.08Zm-124.85-.08h-32.64v-11.31h1.12c15.24 0 30.47-.04 45.7.03 2.68.01 5.4.38 7.38 2.55 3.32 3.63 3.92 8.73.5 12.4-1.5 1.61-3.23 3-4.9 4.44-1.92 1.66-3.9 3.26-5.85 4.89-2.4 2-4.82 3.99-7.22 6l-5.44 4.54-6.36 5.31c-.2.16-.35.37-.65.69h32.55c.04.37.1.66.1.95 0 3.16-.03 6.33.01 9.48.01.9-.25 1.17-1.14 1.17-11.17-.03-22.35 0-33.52-.03-3.94 0-7.88-.27-11.8-.16-2.1.06-4.13.05-5.93-1-4.5-2.64-6.66-9.28-2.2-13.95 2.54-2.67 5.5-4.93 8.3-7.35a780.6 780.6 0 0 1 7.32-6.26c2.45-2.07 4.94-4.09 7.39-6.16 2.38-2 4.73-4.05 7.29-6.23h-.01Zm239.47-.24h-21.05c-1.1 0-1.66.54-1.66 1.63v39.67h-18.78v-1.3c0-12.87-.01-25.75.02-38.63 0-1.08-.29-1.4-1.38-1.4-6.78.05-13.56.03-20.33.03h-1.28v-10.8h64.45v10.8h.01Zm-278.96 41.08h-19.6v-1.15c0-16.53 0-33.06-.03-49.6 0-1.16.34-1.44 1.46-1.43 5.66.05 11.32.03 16.98.03h1.18v52.16-.01Z" fill="#fff"/></svg>