<svg xmlns="http://www.w3.org/2000/svg" viewBox="0 0 588.09 200" style="enable-background:new 0 0 588.09 200" xml:space="preserve"><path d="M417.24.55v69.66h50.59v129.79h69.66v-129.79h50.6v-69.66zm-347.58 59.22v-59.77h-69.66v198.72h69.66v-59.77l17.76 10.09 87.42 49.68v-198.72l-87.42 49.68zm225.26-59.77c-54.87 0-99.36 44.48-99.36 99.36s44.48 99.36 99.36 99.36 99.36-44.48 99.36-99.36-44.48-99.36-99.36-99.36zm44.5 99.36-15.72 27.66-15.72-27.66-15.71-27.66v19.12h-19.22v36.2h-19.12v-36.2h-19.22v-19.12h120.43l-15.72 27.66z" style="fill:#fff"/></svg>