<svg viewBox="0 0 432 111" fill="none" xmlns="http://www.w3.org/2000/svg"><g clip-path="url(#a)" fill="#fff"><path d="M164.64 49.4c-.37 0-.57-.19-.57-.56v-16.88c0-3.07.05-7.03.48-9.99.12-.68-.48-.85-.71-.17-.52 1.42-1.1 2.76-1.67 4.16l-4.97 11.67a103 103 0 0 0-1.9 5.15c-.08.31-.31.48-.69.48h-4.34c-.31 0-.51-.17-.63-.48a92.72 92.72 0 0 0-1.9-5.15l-4.97-11.67c-.63-1.4-1.2-2.76-1.72-4.16-.26-.68-.78-.51-.72.17.4 2.96.52 6.92.52 10v16.87c0 .37-.2.57-.58.57h-4.77c-.37 0-.57-.2-.57-.57v-35.26c0-.37.2-.57.57-.57h7.33c.38 0 .58.17.7.45.37 1.31.82 2.76 1.28 3.84l5.23 12.5a74.55 74.55 0 0 1 2.04 6.03c.18.57.58.57.72 0a81.51 81.51 0 0 1 1.96-6.03l5.28-12.44c.52-1.2 1.04-2.67 1.41-3.9.06-.31.26-.45.63-.45h7.33c.37 0 .58.2.58.57v35.26c0 .37-.2.57-.58.57h-4.77Zm49.86 2.91c0 .4-.24.63-.64.63h-5.2c-.4 0-.63-.23-.63-.63v-21.63c0-3.02.06-5.3.46-7.83.11-.68-.46-.96-.75-.22-.57 1.14-1.26 2.44-2.01 3.81l-12.27 20.15a59.84 59.84 0 0 0-3.05 5.9c-.17.28-.4.45-.74.45h-6.87c-.4 0-.63-.23-.63-.63v-38.62c0-.4.23-.63.63-.63h5.29c.4 0 .63.23.63.63v21.52c0 3.07-.17 5.35-.52 7.94-.11.62.46.85.8.23.58-1.2 1.27-2.54 2.02-3.82l12.27-20.15a51.73 51.73 0 0 0 2.99-5.9c.17-.28.4-.45.74-.45h6.87c.4 0 .63.23.63.63v38.62h-.03Zm34.33.63c-.4 0-.66-.23-.66-.63v-16.99h-18.4v17c0 .4-.22.62-.62.62h-5.23c-.4 0-.63-.23-.63-.63v-38.62c0-.4.22-.63.63-.63h5.23c.4 0 .63.23.63.63v15.91h18.39v-15.91c0-.4.23-.63.66-.63h5.26c.4 0 .63.23.63.63v38.62c0 .4-.23.63-.63.63h-5.26Zm39.34-.86a23.04 23.04 0 0 1-8.48 1.48c-10.95 0-17.62-7.94-17.62-20.6 0-12.67 6.67-20.5 17.62-20.5 3.27 0 5.46.3 8.36 1.34l2.53.86c.34.11.52.4.4.74l-1.5 4.38c-.1.34-.4.51-.74.4l-2.56-.85a19.72 19.72 0 0 0-6.5-.97c-6.92 0-11 5.4-11 14.6s4.08 14.66 11 14.66c2.48 0 4.2-.23 6.56-1.03l2.53-.85c.34-.12.63.05.8.4l1.53 4.3c.17.4 0 .68-.4.8l-2.53.84Zm34.59-27.26c-2.18 3.56-5.12 6.06-7.96 7.2-.4.17-.46.54 0 .68 3.3 1.43 6.12 4.16 8.36 7.8l7.19 11.7c.28.4.05.74-.46.74h-5.78c-.37 0-.57-.12-.8-.4l-5.67-9.14c-2.7-4.52-6.66-8.1-10.88-8.1h-1.33v16.98c0 .4-.23.63-.63.63h-5.2c-.4 0-.63-.23-.63-.63v-38.59c0-.4.23-.63.63-.63h5.2c.4 0 .63.23.63.63v15.91h1.27c4.1 0 8.01-3.42 10.54-7.51l5.35-8.63c.23-.28.46-.4.8-.4h5.75c.46 0 .69.35.4.74l-6.72 10.99-.06.03Zm-163.98 53.85c-2.19 3.53-5.09 6.06-7.96 7.2-.4.17-.46.51 0 .68 3.33 1.42 6.15 4.16 8.36 7.8l7.18 11.7c.3.4.06.74-.46.74h-5.77a.93.93 0 0 1-.8-.4l-5.7-9.14c-2.7-4.5-6.63-8.08-10.88-8.08h-1.33v17c0 .39-.23.62-.63.62h-5.23c-.4 0-.63-.23-.63-.63v-38.65c0-.4.23-.63.63-.63h5.23c.4 0 .63.23.63.63v15.91h1.27c4.14 0 8.02-3.41 10.54-7.51l5.32-8.63c.23-.28.46-.4.8-.4h5.72c.46 0 .7.35.4.74l-6.72 11.02.03.03Zm29.62-11.76c8.7 0 13.82 4.73 13.82 12.67 0 8.45-5.77 13.18-16.4 13.18h-6.18v13.4c0 .4-.23.63-.63.63h-5.23c-.4 0-.63-.23-.63-.63v-38.65c0-.4.22-.63.63-.63h14.62v.03Zm-2.58 20.15c6.43 0 9.8-2.67 9.8-7.48 0-4.36-2.7-6.92-7.22-6.92h-8.76v14.38h6.18v.02Zm55.94 19.13c0 .4-.23.63-.63.63h-5.23c-.4 0-.63-.23-.63-.63v-21.63c0-3.02.05-5.3.46-7.83.11-.68-.46-.97-.75-.23a118.7 118.7 0 0 1-2.01 3.82l-12.27 20.15a60.1 60.1 0 0 0-3.05 5.9c-.17.27-.4.45-.74.45h-6.9c-.4 0-.6-.23-.6-.63v-38.65c0-.4.23-.63.6-.63h5.29c.4 0 .63.23.63.63v21.52c0 3.07-.17 5.35-.52 7.94-.11.62.46.85.8.22.58-1.2 1.27-2.53 2.02-3.8l12.27-20.16a51.4 51.4 0 0 0 2.96-5.9c.17-.28.4-.45.74-.45h6.87c.4 0 .63.23.63.63v38.65h.06Zm33.44-.23a23.04 23.04 0 0 1-8.47 1.48c-10.95 0-17.61-7.91-17.61-20.58 0-12.66 6.63-20.49 17.61-20.49 3.27 0 5.43.29 8.36 1.31l2.53.86c.34.1.52.4.4.74l-1.5 4.38c-.1.34-.4.51-.74.4l-2.58-.86c-2.02-.68-3.71-.9-6.47-.96-6.95 0-11.03 5.4-11.03 14.62 0 9.23 4.08 14.66 11.03 14.66 2.47 0 4.17-.22 6.52-1.02l2.53-.86c.35-.11.63.06.8.4l1.53 4.27c.17.4 0 .69-.4.8l-2.53.88.03-.03Zm27.9.23c0 .4-.22.63-.63.63h-5.28c-.4 0-.63-.23-.63-.63v-33.5h-12.16c-.4 0-.6-.23-.6-.63v-4.5c0-.4.23-.62.6-.62h30.92c.4 0 .6.23.6.63v4.5c0 .4-.23.62-.6.62h-12.21v33.5Zm17.96.11c-.11.34-.34.52-.69.52h-5.51c-.49 0-.7-.29-.49-.74l9.86-25.05c1.72-4.55 3.24-9.08 4.4-13.52.05-.4.28-.57.68-.57h7.04c.4 0 .63.17.69.51 1.2 4.5 2.76 9 4.48 13.58l9.86 25.05c.17.45 0 .74-.52.74h-5.49c-.34 0-.57-.17-.69-.52l-2.78-7.14h-18.02l-2.79 7.14h-.02Zm15.55-20.35a80.84 80.84 0 0 1-3.28-10.56c-.17-.62-.8-.62-.92 0a74.8 74.8 0 0 1-3.33 10.56l-2.99 7.49h13.54l-3.02-7.49Zm53.7 20.24c0 .4-.23.63-.63.63h-5.29c-.4 0-.63-.23-.63-.63v-33.5h-14.4v14.17c0 10.1-3.04 16.26-9.62 19.76l-2.01 1.08c-.35.23-.7.11-.86-.23l-1.96-4.16c-.11-.4-.06-.65.29-.85l2.07-1.08c3.8-2.1 5.54-6.69 5.54-14.49v-19.3c0-.4.23-.62.64-.62h26.2c.4 0 .63.23.63.63v38.65l.03-.06Zm40.75 0c0 .4-.23.63-.6.63h-5.3c-.4 0-.63-.23-.63-.63v-33.5h-14.4v14.17c0 10.1-3.04 16.26-9.62 19.76l-2 1.08c-.35.23-.7.11-.87-.23l-1.95-4.16c-.12-.4-.06-.65.28-.85l2.07-1.08c3.8-2.1 5.55-6.69 5.55-14.49v-19.3c0-.4.23-.62.63-.62h26.2c.4 0 .6.23.6.63v38.65l.04-.06Zm-334.2-25.13a56.1 56.1 0 0 0-2.1-6.55l-.49-1.3c-.77-2.17-1.58-4.3-2.38-6.47a673.16 673.16 0 0 1-3.91-10.64 70.25 70.25 0 0 1-3.68-16.14c-.4-3.96-.34-8 .17-12.44a88.82 88.82 0 0 1 5.64-21.91c0-.03 0-.06.03-.09 0-.03.02-.06.05-.11v-.09c0-.25-.2-.45-.49-.45h-.08c-.06 0-.12.05-.2.08a53.83 53.83 0 0 1-12.67 3.56c-2.04.31-4.06.46-5.95.46-5.03 0-9.8-1.06-14.17-3.16a23.39 23.39 0 0 1-7.61-5.64c0-.03-.06-.06-.09-.08a.48.48 0 0 0-.34-.15.44.44 0 0 0-.29.12l-.09.08a25.88 25.88 0 0 1-7.61 5.64 32.24 32.24 0 0 1-14.17 3.16c-1.92 0-3.93-.15-5.94-.46a57.23 57.23 0 0 1-12.73-3.53l-.18-.03c-.25 0-.46.2-.46.46 0 .06 0 .11.03.14 0 0 0 .06.03.09.09.2.17.37.23.54a88.82 88.82 0 0 1 5.4 21.34c.52 4.42.55 8.49.18 12.44a70.25 70.25 0 0 1-3.68 16.14 672.1 672.1 0 0 1-3.9 10.64l-2.42 6.46-.5 1.31c-.8 2.14-1.6 4.33-2.09 6.55-.72 3.19-.26 5.75 1.44 7.77a15.89 15.89 0 0 0 5.05 3.98 41.9 41.9 0 0 0 6.01 2.42c3.19 1.09 6.52 1.94 9.71 2.8 1.73.45 3.48.9 5.2 1.39l.52.14c4.14 1.17 8.45 2.4 12.36 4.44 2.95 1.54 5.86 3.44 7.5 6.66l.08.17c.09.12.2.17.37.17.18 0 .32-.08.4-.23 0-.02 0-.05.04-.08 1.63-3.3 4.54-5.18 7.47-6.72 3.93-2.05 8.21-3.27 12.35-4.44l.52-.14c1.72-.48 3.45-.94 5.2-1.4a170.7 170.7 0 0 0 9.71-2.78 45.5 45.5 0 0 0 6-2.42 15.5 15.5 0 0 0 5.06-3.99c1.73-2.02 2.19-4.58 1.47-7.77v.06Zm-24.48-9-2.7-3.8a36.47 36.47 0 0 0-2.82-3.65l4.08 21.2c-5.77 3.99-15.86 5.27-22.32 5.27-6.47 0-16.55-1.28-22.33-5.27l4.08-21.2a42.64 42.64 0 0 0-2.82 3.64l-2.7 3.81c-.6-.5-.54-12.43.2-17.84a34.7 34.7 0 0 1 1.81-7.77c.9-2.33 3.51-4.07 6.41-2.73a5.95 5.95 0 0 1 3.25 3.55c.2.55.37 1.06.57 1.66 1.15-.57 1.27-1.51 1.15-2.5-.31-2.97-2.07-4.82-4.82-5.79-1.5-.54-3.05-1.02-4.57-1.53a7.72 7.72 0 0 1-3.34-2.14c-2.32-2.76-.74-7.17 2.88-8.11.51-.14 1.06-.03 1.52-.34 3.5-3.13 6.35-6.92 9.83-10.05 0 0 .05-.06.11-.06.09 0 .17.09.17.18 0 .02 0 .08-.05.1-2.56 3.97-5.15 7.95-7.76 11.96.29 2.1.4 4.22-1.27 5.87.55.54 1.07.7 1.53.94 1.87.93 3.62 2.04 5.28 3.33 3.08 2.36 4.46 7.6.78 11.07-.43.4-.86.82-1.24 1.25a13.54 13.54 0 0 0-3.3 6.8c-.4 2.42-.72 4.84-1.1 7.26-.8 5.04-1.51 10.07-2.43 15.11l-.4 2.25c2.67 1.28 6.03 1.94 8.93 2.36.57.09 1.12.17 1.64.23 0-.08 1.18-20.18 1.26-21.32.09-1.16.26-4.6.49-5.49a7.25 7.25 0 0 1 1.81-2.76c.58-.48 1.2-.83 1.2-.83l-.14-.3a5.98 5.98 0 0 1-.4-2.14c.06-.77.49-2.48.63-3.1.15-.63.15-5.67.15-5.67s-.29-.37-.35-.71c-.03-.23.26-.57.46-.63.17-.05.7 0 .7 0s-.5-.34-1.01-1.45c-.55-1.1-.55-3.44-.55-3.44s.43-.46 1.55-.57c1.12-.12 3.13-.12 4.25 0 1.13.11 1.56.57 1.56.57s0 2.33-.55 3.44c-.55 1.11-1.03 1.45-1.03 1.45s.51-.05.69 0c.2.06.48.43.45.63-.05.37-.37.71-.37.71s0 5.04.15 5.66c.14.63.57 2.34.63 3.1a5.4 5.4 0 0 1-.4 2.14l-.15.31s.63.35 1.2.83a7.6 7.6 0 0 1 1.82 2.76c.23.85.4 4.3.49 5.5.08 1.16 1.26 21.23 1.26 21.31.52-.06 1.06-.14 1.64-.23 2.87-.4 6.23-1.08 8.93-2.36l-.4-2.25c-.89-5-1.64-10.07-2.44-15.11-.37-2.42-.66-4.84-1.1-7.26a13.3 13.3 0 0 0-3.3-6.8c-.4-.43-.83-.85-1.23-1.25-3.68-3.48-2.3-8.71.77-11.07a32.93 32.93 0 0 1 5.3-3.33c.48-.23 1-.4 1.51-.94-1.66-1.65-1.55-3.76-1.26-5.87-2.61-4.01-5.2-7.97-7.76-11.95l-.06-.11c0-.09.1-.18.18-.18.05 0 .08 0 .11.06 3.48 3.16 6.35 6.92 9.83 10.05.46.31 1 .23 1.52.34 3.6.94 5.2 5.35 2.85 8.11a7.23 7.23 0 0 1-3.34 2.14c-1.52.5-3.04.96-4.57 1.53-2.73 1-4.5 2.82-4.82 5.78-.12.97 0 1.9 1.15 2.5.2-.6.37-1.13.57-1.65a6.03 6.03 0 0 1 3.25-3.55c2.87-1.34 5.49.4 6.4 2.73a32.9 32.9 0 0 1 1.82 7.77c.77 5.44.86 17.36.25 17.84h.15Z"/></g><defs><clipPath id="a"><path fill="#fff" transform="translate(.056)" d="M0 0h431v111h-431z"/></clipPath></defs></svg>