<svg viewBox="0 0 292 200" fill="none" xmlns="http://www.w3.org/2000/svg"><path d="M149.37.2c.13.03.25.1.37.1a45.06 45.06 0 0 1 26.58 10.25 65.53 65.53 0 0 1 4.35 3.98 43.92 43.92 0 0 1 6.95 9.41l1.65 3.02c.2.36.24.69.1 1.12-.78 2.75-1.52 5.52-2.27 8.28-.02.07 0 .16 0 .27 1.27-.1 2.52-.13 3.61.54.65.4 1.25.9 1.8 1.41 1.28 1.17 2.51 2.39 3.77 3.58.4.37.81.72 1.18 1.04l-3.48 3.68-3.33-3.46c-.32-.32-.58-.71-.96-.93-.32-.2-.76-.26-1.17-.3-.53-.04-1.08 0-1.66 0l-.06.46-.47-.16c-.04.04-.08.07-.08.1-.06 1.03-.14 2.05-.15 3.08-.03 1.88-.1 3.77.03 5.64.17 2.26.5 4.51.81 6.76.47 3.28 1.47 6.44 2.46 9.6.08.23.05.55-.06.77a50.7 50.7 0 0 1-6.41 10.13 43.91 43.91 0 0 1-9.37 8.63 66.95 66.95 0 0 1-6.25 3.69 41.55 41.55 0 0 1-11.1 3.72c-2.56.5-5.16.74-7.8.8a44.7 44.7 0 0 1-15.5-2.47 45.5 45.5 0 0 1-18.62-12.24 46.36 46.36 0 0 1-6.76-9.38c-.54-.99-1.08-1.97-1.6-2.97a.83.83 0 0 1-.03-.55c.53-1.84 1.14-3.66 1.6-5.5.44-1.77.83-3.55 1.08-5.34.33-2.37.57-4.75.73-7.14.1-1.49-.02-3-.08-4.49-.04-1.15-.12-2.3-.18-3.33-.89.04-1.74.05-2.58.13-.3.04-.65.22-.86.44-1.39 1.37-2.74 2.77-4.24 4.3l-3.36-3.82c2.01-1.81 4.17-3.8 6.4-5.71.89-.77 2.05-.84 3.2-.72.17.02.36 0 .65 0-.15-.73-.24-1.44-.43-2.11a465.5 465.5 0 0 0-1.85-6.38c-.12-.38-.14-.7.05-1.07a53.7 53.7 0 0 1 5.71-9.18 46.59 46.59 0 0 1 17.52-13.73 39.42 39.42 0 0 1 9.93-3.1c2.15-.35 4.33-.5 6.5-.75.09-.01.17-.08.25-.12h3.44v.01Zm-2.71 89.34c7.06-.02 12.9-1.35 18.37-4.1a40.55 40.55 0 0 0 17.6-17.12c.15-.26.2-.66.1-.95a65.99 65.99 0 0 1-2.86-17.61 65.8 65.8 0 0 1 2.88-21.5 1.2 1.2 0 0 0-.11-1.03 38.62 38.62 0 0 0-8.94-11.13c-9.95-8.32-21.36-11.32-34.06-8.5-11.9 2.64-20.56 9.75-26.47 20.24-.15.26-.18.67-.1.96a66.32 66.32 0 0 1 2.85 16.93 67.02 67.02 0 0 1-2.85 22.22c-.1.3-.02.73.13 1.02a38.16 38.16 0 0 0 8.1 10.33c7.46 6.68 16.23 10.09 25.35 10.24Zm-139.78 110.14c-.16-1.36-.31-2.69-.49-4.02-.18-1.45-.4-2.9-.58-4.35-.14-1.16-.25-2.32-.4-3.47l-.57-4.41-.4-3.29-.47-3.58-.4-3.47c-.18-1.5-.39-3.02-.58-4.53l-.4-3.47-.47-3.76-.39-3.78-.46-4.13c-.06-.53-.12-1.08-.14-1.62-.06-1.21-.04-2.43-.15-3.64-.18-1.94.3-3.82.5-5.73.15-1.53.31-3.07.5-4.6.18-1.56.41-3.1.6-4.66.18-1.56.32-3.12.5-4.67l.59-4.66c.14-1.17.25-2.35.4-3.53l.45-3.64.4-3.6.59-4.7.4-3.48.6-4.83.26-2.34.13-1.05a1517.8 1517.8 0 0 0 278.52 0l.54 4.31.6 4.78c.13 1.18.24 2.36.38 3.53.19 1.58.4 3.15.58 4.71l.4 3.54c.16 1.27.33 2.54.48 3.82.14 1.18.25 2.36.39 3.53.18 1.58.39 3.14.58 4.72l.4 3.59.59 4.71c.14 1.18.25 2.36.4 3.54.18 1.59.44 3.17.57 4.77.09 1.18.04 2.37 0 3.54-.02.75-.14 1.49-.21 2.22l-.61 5.94c-.13 1.24-.24 2.48-.38 3.72-.18 1.55-.4 3.1-.6 4.65-.13 1.1-.24 2.2-.38 3.3-.2 1.59-.41 3.17-.6 4.76-.18 1.48-.33 2.96-.5 4.43-.18 1.48-.4 2.94-.58 4.41l-.4 3.29-.6 4.53-.39 3.35c-.2 1.67-.4 3.34-.62 5.02-.02.11-.2.3-.28.3-1.43-.13-2.86-.28-4.3-.4-1.06-.1-2.13-.2-3.2-.28l-5.51-.48c-1.14-.1-2.27-.17-3.4-.26l-5.94-.47c-1.24-.1-2.48-.17-3.71-.26-2.13-.15-4.25-.32-6.37-.48l-2.07-.12c-1.58-.1-3.17-.17-4.75-.26-1.93-.11-3.85-.24-5.78-.36-2.03-.13-4.05-.25-6.08-.36l-6.82-.37-4.57-.24-5.12-.25-5.37-.24a1576.54 1576.54 0 0 0-12.15-.5l-7.26-.24-3.92-.12-4.4-.12-4.83-.12c-1.84-.04-3.67-.09-5.51-.12l-6.86-.12c-3.13-.05-6.25-.1-9.38-.12-7.34-.05-14.69-.1-22.03-.1-3.33-.02-6.66.06-9.99.1l-6.73.13c-1.86.03-3.72.08-5.57.12l-4.96.12c-1.37.03-2.73.08-4.1.12l-8 .25-6.6.24c-2.1.07-4.2.16-6.29.24l-5.49.24a1284.32 1284.32 0 0 0-10.11.5l-4.51.24c-2.2.12-4.39.23-6.58.36l-5.96.37-5.84.36-5.35.37-6.98.49c-1.56.11-3.12.23-4.67.36l-6.85.6c-1.23.1-2.47.16-3.7.26-1.65.14-3.3.31-4.96.46-1.15.1-2.3.17-3.46.27-.72.05-1.45.12-2.27.2v-.01Zm61.39-16.68.07-.28c-.53-.47-1.08-.91-1.57-1.42-1.41-1.45-2.84-2.9-4.19-4.4a57.96 57.96 0 0 1-3.57-4.32 121.16 121.16 0 0 1-9.71-15.27 134.3 134.3 0 0 1-3.95-8.07c-1.14-2.49-2.14-5.05-3.24-7.56-.16-.37-.07-.58.1-.84 1.49-2.13 2.98-4.25 4.45-6.38l5.6-8.2 5-7.3 2.07-3c-.36-.05-.6-.1-.82-.1h-8.6a7.14 7.14 0 0 0-4.74 1.93c-1.06.92-1.64 2.16-2.3 3.35-.9 1.67-1.78 3.34-2.7 5-1.74 3.14-3.5 6.27-5.25 9.4-1.09 1.98-2.14 3.97-3.22 5.95-.27.5-.58.97-.9 1.5-.04-.1-.07-.14-.07-.17l.12-9.73.12-6.43.13-7.6c0-.14.06-.27.06-.4v-2.76h-12.51c.05.61.13 1.18.15 1.76.06 1.27.1 2.54.13 3.81l.12 4.5c.04 1.73.09 3.47.12 5.21.05 2.78.12 5.55.12 8.32-.01 4.5-.07 9-.12 13.5-.02 1.73-.08 3.44-.12 5.17l-.12 5.7-.12 7.53c0 .13-.03.24-.04.36l-.1 1.35h12.6c-.06-1.08-.13-2.1-.17-3.14a1130.32 1130.32 0 0 1-.25-9.16c-.05-2.13-.1-4.28-.12-6.43-.02-3.45 0-6.9 0-10.36v-.49c.37.62.65 1.23.93 1.84 1.93 4.2 3.8 8.43 5.81 12.58 2.05 4.23 4.24 8.39 6.37 12.57 1.2 2.35 3 4.2 5.07 5.8a22.3 22.3 0 0 0 5.31 3.12c2.06.82 4.14 1.6 6.26 2.22 1.87.55 3.82.86 5.75 1.22.66.13 1.36.09 2.05.12h-.01Zm162.57-19.84a625.86 625.86 0 0 1 0-38.12h-9.9c.05.78.14 1.51.16 2.25.06 1.98.1 3.96.12 5.95.05 3.28.11 6.56.12 9.84 0 2.37-.09 4.74-.11 7.11l-.13 10.7c-.01.74-.08 1.48-.12 2.23h-10.01c-.07-.8-.16-1.56-.18-2.33-.05-2.73-.13-5.46-.12-8.2.02-6.07.08-12.13.12-18.2v-5.84l.17-3.5h-9.93c.06 1.1.15 2.17.17 3.23.06 2.06.13 4.13.13 6.2l-.12 25.8c-.02 3.27-.07 6.53-.14 9.8 0 .62.2.76.8.76 7.47-.02 14.95-.01 22.41-.01h.78v8.53c2.1 0 4.12.01 6.15-.02.15 0 .4-.23.45-.39.36-1.54.61-3.12 1.04-4.65.96-3.43 2-6.85 3.02-10.28.2-.68.08-.87-.64-.87h-4.24Zm15.41-42.77c.98 1.43 1.93 2.8 2.86 4.2.24.36.43.7.29 1.21-1.06 3.74-2.06 7.5-3.11 11.24-1.15 4.09-2.33 8.16-3.52 12.24-.73 2.47-1.5 4.93-2.25 7.4l-3.28 10.76c-.34 1.12-.7 2.22-1.06 3.37h10.66l2.05-10.09 12.32.01c.14 0 .37.22.41.37.22.84.4 1.7.58 2.56.46 2.17.98 4.33 1.37 6.52.1.6.3.66.8.66h11.18l-.14-.56-1.78-5.75c-1.25-4-2.52-7.98-3.76-11.97-.88-2.83-1.74-5.66-2.6-8.48a3444.6 3444.6 0 0 1-4.14-13.43c-.52-1.69-1-3.39-1.51-5.07-.53-1.74-1.1-3.47-1.64-5.19h-13.73Zm-76.93 22.87h-11.6v-.62c.04-.75.1-1.5.12-2.23l.13-8.39c.04-2.13.07-4.25.13-6.37.02-.52-.16-.66-.67-.65-2.88.02-5.77 0-8.66 0-.15 0-.31.03-.38.03 0 1.9-.02 3.76 0 5.62.03 2.63.12 5.27.11 7.9-.01 7.02-.06 14.04-.12 21.06-.01 2.08-.09 4.17-.11 6.25-.02 1.48 0 2.96-.01 4.45 0 .4.14.54.54.53.91-.02 1.84 0 2.76 0h5.84c.43 0 .77-.08.7-.63-.06-.42-.12-.84-.13-1.26l-.13-9.12-.12-7.9c-.01-.43.1-.61.57-.61h10.44c.4 0 .57.12.54.52-.05.74-.1 1.49-.12 2.23l-.13 9c-.03 2.34-.06 4.7-.13 7.04-.02.58.22.72.74.72 2.83-.01 5.65-.02 8.48 0 .49 0 .64-.15.62-.63-.06-1.68-.1-3.36-.13-5.04-.04-2.75-.12-5.5-.11-8.26.01-6.88.07-13.76.11-20.63v-11.24h-9.75c.06.7.16 1.36.16 2.02a2116.29 2116.29 0 0 1 .15 14.9c.03.42.1.83.15 1.3Zm-97.51 15.14h.7c3.13-.1 6.28.22 9.4-.24 1.68-.24 3.3-.7 4.8-1.47a12.89 12.89 0 0 0 5.66-5.73 17.6 17.6 0 0 0 1.83-7.18 25 25 0 0 0-.46-7.09c-.82-3.48-2.47-6.46-5.37-8.63a15.4 15.4 0 0 0-9.1-3.03c-5.5-.1-11.01-.02-16.52-.02h-.64c.07.9.15 1.74.17 2.58.06 2.09.1 4.17.12 6.25.05 3.47.12 6.93.12 10.4 0 3.52-.07 7.05-.12 10.58l-.12 7.65c-.04 2.55-.07 5.1-.13 7.65-.02.58.21.73.74.72h8.47c.48 0 .65-.13.63-.62-.06-1.58-.1-3.15-.12-4.73-.02-2.03 0-4.06 0-6.1 0-.3-.04-.62-.06-.99Zm26.34-33.37v4.54c.03 3.17.1 6.33.12 9.49v16.76c0 1.41-.1 2.83-.12 4.24l-.13 10.27c0 .37.12.51.5.5 5.31-.04 10.63-.05 15.94-.14 1.24-.02 2.5-.2 3.7-.48 3.48-.8 6.36-2.59 8.43-5.5a14.69 14.69 0 0 0 2.49-6.03c.25-1.45.42-2.93.48-4.4.05-1.08-.13-2.17-.22-3.25a16.38 16.38 0 0 0-2.12-6.96 12.72 12.72 0 0 0-6.85-5.67c-2.13-.78-4.34-1-6.58-1.08-1.84-.05-3.68 0-5.52 0h-.68l.25-12.3h-9.7.01Zm34.22-.01c.06.92.15 1.78.17 2.64.06 2.14.1 4.28.12 6.43.05 3.58.12 7.17.12 10.76 0 3.22-.07 6.44-.12 9.66l-.12 7.72c-.04 2.63-.06 5.26-.13 7.89-.02.58.21.72.74.72h8.47c.48 0 .66-.13.63-.62-.06-1.44-.1-2.87-.13-4.3-.05-2.46-.12-4.9-.11-7.35.02-7.55.06-15.1.12-22.64.02-3.47.07-6.93.11-10.4l-.03-.52h-9.84Zm52.95.02c.06.67.14 1.3.16 1.93.06 2 .1 4 .13 6.01.04 3.18.12 6.36.1 9.54 0 4.68-.06 9.36-.1 14.05-.03 2.24-.09 4.49-.13 6.73-.04 2.27-.06 4.54-.13 6.8-.02.57.2.74.73.74 2.83-.02 5.65-.02 8.47 0 .54 0 .67-.2.65-.67-.06-1.7-.1-3.4-.13-5.1-.05-2.7-.13-5.38-.12-8.08.02-6.63.07-13.26.12-19.9l.12-11.42v-.64h-9.86Zm4.97-2.1a5.13 5.13 0 0 0 5.26-5.16 5.2 5.2 0 0 0-5.22-5.31 5.31 5.31 0 0 0-5.23 5c-.18 3 2.46 5.67 5.2 5.46Z" fill="#fff"/><path d="M86.05 50.37c.59.16.87-.26 1.24-.54.64-.48.84-.44 1.38.15l3.08 3.28c.67.71 1.38 1.38 2 2.14.35.44.62.98.81 1.52.18.52.2 1.1.29 1.65.71-.15 1.25-1.11 1.07-1.96a4.36 4.36 0 0 0-1.16-2.21c-2.1-2.18-4.18-4.38-6.26-6.58-1.79-1.9-3.58-3.77-5.35-5.68-1.53-1.66-3.17-3.25-4.3-5.23-1.32-2.3-1.37-4 .28-6.25.1.51.12 1.01.29 1.46a3.27 3.27 0 0 0 2.23 2.07c1.06.3 1.48.9 1.52 1.97.05 1.26.6 2.36 1.5 3.25a4.56 4.56 0 0 1 1.52 2.98c.03.46-.08.92-.13 1.4.41.15.72-.08 1.03-.37.79-.74.86-.74 1.61 0 .97.97 1.92 1.95 2.92 2.89a4.18 4.18 0 0 1 1.24 4.27c.51.19.85-.13 1.16-.42.73-.65.8-.66 1.52.05l1.7 1.68a4.08 4.08 0 0 1 1.15 2.76c.02.2 0 .4 0 .6.63-.08 1.06-.63 1.12-1.32a3.47 3.47 0 0 0-1.13-2.87c-4.06-4.02-8.1-8.05-12.16-12.06a6.47 6.47 0 0 1-2.05-4.8c0-.43-.18-.68-.55-.83-.32-.13-.65-.25-.97-.36-1.19-.43-1.55-1.55-1.16-2.78.3-.96 1.46-1.49 2.54-1.15.54.18 1.06.46 1.62.71-.02.01.04 0 .05-.02.38-1.16 1.22-1.46 2.4-1.45 2.41.04 4.82.1 7.2.64l.28.07.33.12v2.34c-.83.26-1.66.45-2.43.76a2.12 2.12 0 0 0-1.37 2.04c-.03.95.47 1.61 1.26 2.04.58.33 1.23.55 1.97.87-.15.12-.31.34-.52.4a4.56 4.56 0 0 1-4.12-.55 11 11 0 0 1-2.47-2.24c-.46-.59-.6-1.46-.75-2.24-.11-.56-.03-1.17-.02-1.76 0-.48-.07-1.05.48-1.26.59-.23 1.23-.2 1.8.17.6.4 1.19.72 1.94.74.5 0 .75-.46.8-.95.08-.57-.32-.55-.7-.56-1.32-.05-2.65-.06-3.97-.15-.67-.05-1.08.26-1.29.8-.84 2.16-.97 4.8 1.08 6.75 1.01.97 2.02 1.95 3.04 2.91 1.1 1.04 1.64 2.27 1.36 3.79a.93.93 0 0 0 0 .24l.03.44c.46-.3.85-.51 1.17-.8.58-.52.7-.54 1.26 0 2.02 1.95 4.04 3.9 6.04 5.87 1.33 1.3 1.65 3.21.67 4.55-.61.83-1.44 1.49-2.18 2.22-.73.74-1.49 1.44-2.18 2.2-.3.35-.24.78.11 1.14 2.15 2.17 4.31 4.33 6.44 6.52.61.64 1.23 1.3 1.7 2.04a2.6 2.6 0 0 1-1.96 4.02c-.07.01-.16 0-.27-.01.05-.71-.11-1.35-.87-1.55-.64-.17-1.21.02-1.52.71h-.16c-.18-.51-.51-1.02-.5-1.54.02-.78-.32-1.27-.85-1.77-1.74-1.66-3.45-3.34-5.19-5.01-.48-.47-.96-.93-1.47-1.36-1.46-1.21-1.65-2.74-1.19-4.45.03-.1.04-.22.07-.38a1.9 1.9 0 0 0-1.49.99c-1.02 1.66-.71 3.19.5 4.57.38.42.83.79 1.27 1.2l-2.17 2c-.67-1.81-2.06-3.22-3.47-4.63a642.79 642.79 0 0 1-7.34-7.43 20.2 20.2 0 0 1-2.35-2.83c-.44-.66-.7-1.5-.84-2.3-.27-1.6-.1-3.2.42-4.78.43.81.81 1.62 1.28 2.37.4.65.85 1.28 1.37 1.83 1.09 1.16 1.25 2.5.94 3.98.48.16.79-.13 1.1-.42.73-.68.91-.6 1.58.14.83.93 1.72 1.8 2.63 2.64.97.9 1.42 1.99 1.4 3.28v.24c.01.04.04.07.07.12.69-.18.95-.72 1.03-1.33a3.1 3.1 0 0 0-.93-2.7c-2.12-2.15-4.26-4.27-6.34-6.44a10.9 10.9 0 0 1-3.27-8.06c.01-.7.22-1.38.33-2.06.62.93 1.2 1.86 1.84 2.75.45.62.93 1.22 1.46 1.78 1.5 1.6 3.01 3.19 4.53 4.77.91.94 1.58 1.98 1.51 3.35-.02.4-.1.8-.17 1.21h.01Zm117.95 12.63c.67-.86 1.42-1.62 1.94-2.52.76-1.33.24-3.2-.99-4.1-.2-.14-.48-.2-.65-.27.04.9.11 1.72.1 2.55-.02.8-.48 1.43-1.04 1.98-2.33 2.26-4.64 4.53-6.98 6.77-.53.51-.9 1.02-.86 1.83.02.45-.3.92-.48 1.4-.36-.3-.59-.58-.88-.68-.28-.1-.65-.07-.95.03-.56.18-.78.7-.68 1.43-.98.23-2.37-.67-2.64-2.03-.24-1.21.32-2.11 1.09-2.9 2.14-2.21 4.31-4.39 6.48-6.58.35-.35.69-.73 1.02-1.12.3-.36.23-.92-.2-1.35-1.1-1.06-2.15-2.16-3.3-3.15-2.03-1.77-1.7-3.93-.06-5.6 1.99-2.02 4.1-3.93 6.16-5.9.48-.47.77-.12 1.13.15.33.26.69.5 1 .72.11-.98.16-1.87.35-2.72.1-.43.4-.84.71-1.17 1.1-1.12 2.17-2.28 3.36-3.3 2.1-1.8 2.08-5.14 1.02-7.1-.13-.26-.52-.53-.78-.53-1.53 0-3.06.07-4.59.12-.34.01-.52.17-.47.54.06.54.48 1.06.88.96.57-.14 1.18-.3 1.68-.6a3 3 0 0 1 1.67-.42c.47 0 .78.27.77.62-.03 1.36.27 2.74-.3 4.08-.43 1.03-1.25 1.68-2.05 2.35a5.2 5.2 0 0 1-4.63 1.24c-.34-.08-.79-.09-.85-.65a4.9 4.9 0 0 0 2.54-1.16c1.42-1.33.6-3.24-.86-3.78a9.63 9.63 0 0 0-1.8-.48c-.4-.06-.49-.21-.48-.55.02-.5-.04-1.02.03-1.52.03-.21.25-.54.44-.58 1.04-.22 2.1-.43 3.16-.51 1.44-.11 2.9-.09 4.34-.15 1.14-.05 2.02.24 2.25 1.46.71-.29 1.35-.6 2.03-.8.78-.23 1.92.4 2.2 1.15.42 1.06.14 2.38-.76 2.62-1.5.42-2.04 1.29-2.06 2.8-.02 1.22-.73 2.24-1.6 3.1l-12.28 12.2c-.83.82-1.43 1.75-1.33 2.98.06.74.45 1.29 1.06 1.41.05-.42.1-.83.17-1.25.12-.75.4-1.41.97-1.95.72-.69 1.43-1.4 2.13-2.11.28-.3.54-.4.87-.06.17.17.36.33.56.45.24.15.51.25.77.37.04-.81-.04-1.55.14-2.23.17-.63.5-1.27.95-1.75 1.11-1.22 2.34-2.33 3.49-3.52.42-.45.72-.4 1.1 0 .34.34.66.73 1.23.6 0-.7-.05-1.37.01-2.04.1-1.07.9-1.76 1.55-2.51a5.61 5.61 0 0 0 1.45-3.73c0-.5.16-.79.62-.97.48-.2.96-.4 1.43-.64a3.04 3.04 0 0 0 1.79-2.6c.01-.2.08-.38.13-.58a4.8 4.8 0 0 1 .79 5.13 17.91 17.91 0 0 1-3.25 4.56c-1.98 2.12-4 4.22-6 6.33l-5.52 5.85c-.72.77-1.44 1.54-2.12 2.35a2.9 2.9 0 0 0-.65 2.29c.08.67.36 1.17 1.06 1.44.06-.5.03-1.02.2-1.46a7.6 7.6 0 0 1 1.06-2.04c.74-.94 1.63-1.76 2.46-2.62.9-.92 1.8-1.83 2.66-2.78.41-.45.74-.38 1.1 0 .35.35.71.66 1.3.6-.48-1.81.03-3.23 1.31-4.56a175.1 175.1 0 0 0 6.23-6.89c.6-.69 1.02-1.53 1.55-2.36.12.47.3.93.35 1.4a10.6 10.6 0 0 1-2.43 7.7c-.56.7-1.21 1.32-1.83 1.96-1.77 1.8-3.57 3.57-5.3 5.4-.86.91-1.33 2-.76 3.26.14.33.45.6.7.91.25-.93.4-1.72.69-2.48.15-.41.47-.8.78-1.12 1-1.03 2.01-2.03 3.03-3.04.52-.51.65-.51 1.19 0 .4.38.78.56 1.16.54 0-.7-.08-1.4.01-2.1.13-.87.69-1.53 1.27-2.2a12 12 0 0 0 2.25-3.73c.02-.05.07-.09.12-.14.87 2.82.86 5.5-.77 7.68-.8 1.07-1.8 1.99-2.74 2.94-2.4 2.46-4.86 4.88-7.25 7.35-1.16 1.2-2.3 2.44-2.88 4.18l-2-2.1h.01Zm-133.83-3.29c-.15.76-.37 1.5-.44 2.27-.11 1.08-.3 2.2-.13 3.24.27 1.65 1.45 2.61 3.07 3.02 1.89.48 3.59.29 4.87-1.35.43-.55.82-1.14 1.2-1.73l3.58-5.39c.93.9 1.9 1.75 2.78 2.68.6.62 1.1 1.35 1.63 2.02.34.41.3.72-.1 1.12a74.75 74.75 0 0 0-3.72 3.94c-.31.37-.44.99-.46 1.5a44.3 44.3 0 0 0-.01 4.02c.1 2.33-1.19 3.36-2.87 3.96-.85.3-1.77.39-2.67.5-.77.09-1.1.37-1.1 1.14 0 1.7-.03 3.4.02 5.11 0 .3.24.64.45.9.42.5 1 .91 1.34 1.47.62 1.01-.08 2.4-1.14 2.8-.34-.97-.65-1.22-1.45-1.16-.63.04-.94.4-1.13 1.33-1.41.05-3.1-1.5-2.98-2.85.05-.46.44-.91.73-1.32.23-.33.54-.62.86-.87.75-.62.98-1.4.8-2.43-.49.32-.93.65-1.41.91-.27.15-.61.17-.92.25.06-.34 0-.74.2-.99a9.3 9.3 0 0 1 1.33-1.41c.73-.64.97-1.4.8-2.42-.16.08-.3.12-.42.2-.51.31-1.01.64-1.53.95-.3.18-.46.05-.47-.28v-2.62a6.24 6.24 0 0 0 3.15-.89c1.2-.78 1.54-1.98 1.62-3.27.08-1.19.02-2.4.02-3.59 0-.84-.45-1.3-1.32-1.29a5.77 5.77 0 0 1-3.92-1.33 3.38 3.38 0 0 1-1.15-2.28c-.29-2.02.4-3.92.88-5.86h.01Zm155.2-.18c.25 1.74.66 3.47.74 5.22.1 2.47-1.18 3.71-3.76 4.3-.63.14-1.28.15-1.91.25a.88.88 0 0 0-.78.88c0 1.74-.21 3.49.26 5.2.45 1.66 1.7 2.4 3.28 2.7.37.06.76.1 1.22.16 0 .88.01 1.79-.02 2.7 0 .06-.36.21-.46.16-.5-.28-.99-.61-1.49-.92-.12-.08-.26-.13-.4-.2-.4 1.3.46 2 1.15 2.78.24.28.5.53.78.78.4.35.55.78.37 1.35-.97-.08-1.5-.96-2.36-1.27-.13.94.06 1.75.8 2.4.3.27.56.6.87.86 1.37 1.1.76 2.6-.19 3.36-.42.34-.92.57-1.41.8-.28.13-.61.2-.7-.27-.1-.61-.48-.97-1.11-1-.66-.04-1.07.3-1.27.9-.02.06-.07.1-.1.15-1.27-.2-1.8-2.18-.9-3.1.33-.36.7-.7 1.08-.99.37-.3.57-.65.57-1.13 0-1.52.03-3.04 0-4.57-.03-1.04-.31-1.49-1.47-1.54a6.96 6.96 0 0 1-3.86-1.25 3.23 3.23 0 0 1-1.41-2.66 94.14 94.14 0 0 1 0-4.7c.01-.65-.2-1.14-.66-1.6-1.18-1.19-2.3-2.42-3.44-3.63-.36-.37-.59-.73-.16-1.22.35-.41.58-.94.97-1.3 1.17-1.08 2.4-2.1 3.59-3.12l2.76 4.18c.6.9 1.16 1.84 1.83 2.7 1.25 1.59 2.94 1.83 4.82 1.37a4.06 4.06 0 0 0 3.2-4.89l-.63-3.54c-.01-.09.01-.2.02-.29l.18-.02Zm-171.14 4.14c3.26 1.15 4.9-.54 5.19-2.06-1.2.54-2.4.64-3.65.2a4.75 4.75 0 0 1-3.12-3.54 5.03 5.03 0 0 1 1.36-5.05 4.84 4.84 0 0 1 3.4-1.36c2.46-.1 4.26 1 5.47 3.03.46.76.72 1.7.85 2.6a9.87 9.87 0 0 1-1.09 6.22 6.65 6.65 0 0 1-4.8 3.6 8.38 8.38 0 0 1-4.18-.36c-.15-.05-.35-.38-.31-.52.25-.92.57-1.82.88-2.76Zm4.24-4.54c.32-.07.67-.06.94-.21.23-.14.47-.42.52-.67.17-1.01-.58-2.37-1.52-2.84a1.49 1.49 0 0 0-2.14.84c-.54 1.44.54 2.84 2.2 2.88Zm189.89-1.81c1.94-.17 3.69-.03 5.19 1.2a4.54 4.54 0 0 1 1.66 4.41 4.9 4.9 0 0 1-4.12 4.33 7.75 7.75 0 0 1-7-1.85l1.75-2.92c.8.76 1.75 1.2 2.8 1.4 1.15.21 2.32-.08 2.69-1.17.3-.92-.22-1.94-1.25-2.18a6.78 6.78 0 0 0-3.88.22c-.67.24-1.55-.31-1.5-1.01.14-2.19.3-4.38.5-6.57.05-.67.54-1.06 1.24-1.06h6.57c.83 0 1.25.45 1.26 1.28v3.07h-3.26c-.1-.8-.58-1.2-1.43-1.2h-.43c-.49-.05-.7.14-.67.66.02.45-.07.9-.12 1.39Zm-38.62 14.05-5.68 4.43c-.35.27-.56.58-.55 1.08.04 1.88 0 3.77.03 5.66.02.71-.06 1.3-.74 1.69-.35.2-.69.43-1.04.65-.06-.38-.14-.76-.18-1.15-.07-.73-.11-1.47-.16-2.21-.84.13-1.54 1.42-1.57 2.22-.03.8-.08 1.62-.21 2.4-.18 1.06-.22 1.05-1.29 1.79l-.25-3.65a2.66 2.66 0 0 0-1.56 2.4c-.05.76-.19 1.52-.2 2.28 0 1.2-.95 1.55-1.76 2-.3.18-.68.21-1.03.31-.14-1.11-.39-1.5-1.07-1.6-.8-.13-1.2.4-1.5 1.08-.8-.73-1.2-1.59-1-2.62.2-1.08.96-1.79 2.03-1.86 1.27-.08 2.1-.73 2.87-1.6.73-.8 1.53-1.56 2.27-2.38.57-.64.88-1.42.88-2.3-.01-1.16.03-2.32-.02-3.47-.1-2.39 1.27-3.66 3.32-4.04 1.66-.3 3.35-.5 5.02-.75.94-.14 1.87-.3 2.8-.45.19-.03.37-.02.55-.04l.04.13Zm-124.17-.14c.86.11 1.6.2 2.32.31l4.67.68c1.42.2 2.85.39 3.9 1.55a3 3 0 0 1 .83 2c.02 1.28 0 2.56 0 3.84a4 4 0 0 0 1.25 3.08c.76.71 1.51 1.43 2.2 2.2a3.69 3.69 0 0 0 2.52 1.38c1.06.1 1.88.72 2.1 1.8.2 1.01-.1 1.95-1.01 2.65-.27-.72-.74-1.22-1.53-1.04-.73.18-1.06.77-1 1.62-1.12-.34-2.2-.63-2.67-1.73-.24-.55-.18-1.22-.26-1.84-.08-.63-.11-1.28-.25-1.9-.15-.72-.7-1.14-1.36-1.58l-.3 3.6c-1.27-.53-1.32-1.54-1.4-2.55l-.13-1.87c-.07-.72-.53-1.34-1.5-2.04l-.24 3.46c-.06.02-.1.06-.17.06-.5-.02-1.65-1.2-1.65-1.7 0-1.99-.04-3.98.02-5.97.02-.76-.32-1.2-.87-1.61-1.73-1.35-3.45-2.72-5.18-4.09l-.29-.3Zm-33.87-7.17v2.74c0 .38-.23.41-.52.41h-3.93c-1.74 0-3.48-.02-5.22.01-.5.01-.64-.16-.62-.63.03-.8.01-1.62.01-2.5h3.2v-7.31l-1.37 1.55-2.28-2.44 3.02-2.79c.01-.01.04 0 .05-.02.69-1.12 1.8-1 2.87-.96.47.02.94 0 1.5 0v.68c0 3.53 0 7.06-.02 10.6 0 .54.16.7.7.67.84-.04 1.67 0 2.61 0v-.01Zm187.37-8.79h-2.36c-.79 0-1.2.4-1.25 1.19h-3.28c0-1.16-.04-2.33.02-3.5.03-.49.36-.85.93-.85l10.13.01c.04 0 .08.03.13.05a5.66 5.66 0 0 1-.81 4.07c-1.37 2.21-2.6 4.51-3.88 6.78-.7 1.26-1.38 2.53-2.11 3.78a.88.88 0 0 1-.6.39c-1.2.03-2.4.01-3.74.01l6.82-11.94Zm-166.41-8.5c-.28-1.4-1.27-2.31-2.1-3.34-.53-.65-.63-1.13-.46-2.1.92.13 1.27 1.07 2.04 1.4.5-1.1.07-2-.62-2.85-.38-.47-.7-.98-1.09-1.45-.5-.61-.45-1.3-.21-2.13l2.57 2.53c.33-1.14.22-2.09-.48-2.92-.42-.5-.87-.97-1.32-1.43-.68-.7-1.12-1.48-.97-2.5.03-.23 0-.47 0-.7l.16-.11c1.22 1.16 2.5 2.26 3.64 3.5.66.71.75 1.73.6 2.68-.38 2.23-.8 4.45-1.2 6.67-.17.92-.37 1.83-.55 2.75Zm152.54-10.54c.23 1.1 0 1.88-.59 2.6-.52.64-.98 1.34-1.4 2.04-.37.6-.24 1.24 0 1.9.76-.41 1.09-1.3 1.99-1.44.31 1.05-.11 1.83-.78 2.54a6.61 6.61 0 0 0-1.74 2.9l-.47-2.4c-.4-2.08-.82-4.15-1.18-6.24-.35-1.95.04-3.63 1.8-4.87.83-.59 1.55-1.33 2.4-2.05.17 1.29.1 2.4-.9 3.28-.55.48-1.04 1.04-1.48 1.61-.44.56-.51 1.45-.33 2.7l2.67-2.57Z" fill="#fff"/><path d="M193.97 32.64c-.05.52-.13 1.02-.14 1.51 0 .67.47 1.1 1.15 1.15 1.2.1 2.12-.51 3.07-1.08.76-.45 1.54-.8 2.45-.76.56.02.91.25 1.1.85-1.35-.39-2.34.21-3.3.98-1.1.89-2.25 1.65-3.76 1.59-1.73-.07-2.85-1.63-2.3-3.24.27-.77.8-1.07 1.74-1Zm-100.24 1.67c.3-.92 1.29-1.02 1.97-.75 1.02.4 1.99.96 3 1.37.51.21 1.08.32 1.63.35.84.03 1.4-.72 1.23-1.54l-.25-1.1c.74-.14 1.33.09 1.7.74.4.69.25 1.95-.26 2.53-.95 1.07-2.34 1.33-3.83.58-.77-.38-1.45-.93-2.16-1.43-.9-.64-1.83-1.1-3.03-.75Zm53.07 53.26c-8.97-.14-17.35-3.65-24.38-10.36a39.12 39.12 0 0 1-7.38-9.75 1.36 1.36 0 0 1-.11-1.14 64.2 64.2 0 0 0 2.66-17.27 64.98 64.98 0 0 0-2.7-19.95c-.07-.24-.04-.57.08-.79 5.9-10.67 14.63-17.67 26.84-19.76 10.5-1.8 20 .9 28.35 7.46a38.7 38.7 0 0 1 10 11.96c.27.47.33.89.17 1.42a65.76 65.76 0 0 0 .02 36.98c.08.3.08.71-.07.97-5.06 9.24-12.47 15.69-22.69 18.8a36.55 36.55 0 0 1-10.79 1.43Zm-11.65-39.61 1.6 1.93 3.08 3.77c1.17 1.42 2.37 2.83 3.54 4.26.83 1 1.64 2.03 2.46 3.03 1.01 1.23 2.04 2.44 3.05 3.66.83 1 1.63 2.03 2.47 3.02 2.07 2.45 4.28 3.24 7.33 1.84a19.4 19.4 0 0 0 3.32-2.13c1.9-1.4 3.79-2.79 5.36-4.57a5.13 5.13 0 0 0 1.28-4.88.72.72 0 0 1 .06-.48c.22-.38.5-.72.7-1.1a14.6 14.6 0 0 0 2.07-6.12 12.9 12.9 0 0 0-.67-5.15 75.37 75.37 0 0 0-5.06-11.97c-.4-.76-1.1-1.22-1.7-1.04-.42.11-.8.37-1.21.56-.1-.17-.22-.35-.3-.55a80.22 80.22 0 0 0-4.7-9.55c-.59-1.06-2-1.17-2.64-.23-.21.3-.48.55-.75.86-1.82-2.74-3.66-5.4-5.39-8.12-.52-.83-2.15-.83-2.67 0-1.76 2.72-3.61 5.38-5.46 8.12l-.4-.55c-.93-1.29-2.36-1.24-3 .04-1.36 2.7-2.75 5.4-4.1 8.11-.33.66-.58 1.35-.88 2.03-1.25-.94-2.34-.62-2.92.64-.55 1.18-1.23 2.3-1.73 3.48a255.3 255.3 0 0 0-3.18 7.9 12.14 12.14 0 0 0-.74 5.8 14.8 14.8 0 0 0 2.5 6.52c.21.33.27.6.15.97a5.83 5.83 0 0 0 .04 4.1 7.23 7.23 0 0 0 2.62 3.08c2.4 1.72 5.1 2.93 7.78 4.17 2.77 1.28 5.6 2.48 8.37 3.75.35.16.71.54.84.9a4.1 4.1 0 0 1-.31 3.6c-.18.32-.27.77-.2 1.12.12.64.6 1.02 1.25 1.12a1.7 1.7 0 0 0 1.76-.9c.83-1.44 1-3.02.82-4.6a4.72 4.72 0 0 0-2.84-3.95c-3.04-1.4-6.1-2.74-9.15-4.12-2.3-1.04-4.6-2.08-6.63-3.6-.92-.7-1.6-1.49-1.52-2.77a9.57 9.57 0 0 1 1.22-3.71c.99-1.96 2.06-3.88 3.1-5.8.44-.83.9-1.64 1.38-2.48v-.01Zm125.39 105.29h-10.02l4.15-17.11.28-.01 5.6 17.12Zm-188.71-1.69v-19.78c1.35.06 2.6.06 3.86.18 1 .09 2.03.24 3.01.48a6.99 6.99 0 0 1 5.38 5.39c.67 2.62.71 5.28-.06 7.9-.86 2.94-2.95 4.6-5.85 5.35-2.08.53-4.2.54-6.34.48Zm35.95 12.31c-.06-.91-.16-1.77-.17-2.63-.02-2.97 0-5.93-.01-8.9 0-1.39-.09-2.78-.11-4.18-.03-1.27 0-2.54 0-3.9 1.28 0 2.43-.12 3.54.04 1.32.18 2.63.5 3.89.95 2.41.84 3.82 2.68 4.44 5.06.33 1.24.5 2.56.5 3.85a11.89 11.89 0 0 1-1.2 5.62 7.1 7.1 0 0 1-3.74 3.25c-2.3.94-4.7.9-7.14.84Z" fill="#fff"/><path d="m149.7 60.8 4.3-5.3 4.7-5.63c.39-.47.8-.9 1.14-1.4.33-.5.44-.19.58.1.4.78.78 1.57 1.2 2.35 1.04 1.97 2.12 3.93 3.13 5.92.3.6.46 1.27.58 1.92.21 1.08-.3 1.99-1.02 2.7-2 2.01-4.18 3.83-6.7 5.19-2.02 1.1-2.8.35-3.91-.95-1.06-1.23-2.06-2.5-3.09-3.76l-.91-1.14Zm-1.98-2.42-2.24-2.64-3.12-3.82c-.25-.3-.55-.59-.78-.91-.24-.32-.37-.61-.16-1.08a36.35 36.35 0 0 1 4.87-7.86l1.41-1.76c.8 1 1.65 1.9 2.32 2.9 1.16 1.74 2.22 3.54 3.3 5.32.22.36.3.8.55 1.13.42.59.24 1.03-.18 1.52-1.77 2.1-3.52 4.22-5.28 6.33l-.7.87Z" fill="#fff"/><path d="M156.46 47.74c-.75-1.25-1.45-2.4-2.12-3.58-.07-.12 0-.43.1-.53.76-.67 1.53-1.3 2.31-1.94.91-.76 1.84-1.5 2.75-2.25l3.94-3.3c.31-.27.42-.03.52.19.91 2.1 1.87 4.17 2.7 6.3a43 43 0 0 1 1.49 4.6c.52 1.95.16 3.87-.54 5.73-.17.44-.38.87-.61 1.4-.46-.8-.91-1.52-1.3-2.27-1.22-2.42-2.46-4.83-3.6-7.29-.56-1.22-2.1-1.44-2.88-.36-.84 1.15-1.82 2.2-2.77 3.3Zm-28.16 6.3a9.2 9.2 0 0 1-1.24-5.53c.2-1.58.7-3.14 1.25-4.64.81-2.16 1.79-4.25 2.7-6.37.16-.38.32-.77.53-1.13.05-.1.36-.16.43-.1 1.06.86 2.1 1.75 3.16 2.62l4.23 3.5c.6.5 1.2 1 1.8 1.52l-2.19 3.88-2.37-2.88c-.23-.28-.44-.58-.7-.82-.73-.67-1.94-.43-2.42.45l-4.34 7.98-.84 1.51Zm14.65-12.58-3.2-2.66 7.93-10.67 7.83 10.67c-.92.78-1.86 1.6-2.83 2.38-.07.05-.37-.08-.49-.2l-3.29-3.78c-.65-.74-1.75-.76-2.37-.01-1.1 1.33-2.24 2.63-3.36 3.95l-.23.32Zm17.47-6.73-2.49 2.08c-.81-1.05-1.63-2.07-2.42-3.11a110.4 110.4 0 0 1-2.38-3.3c-.1-.13-.1-.45 0-.58.8-1.09 1.65-2.15 2.49-3.22l.64-.8 4.16 8.93Zm-21.19-8.83 2.03 2.54c.34.44.7.88 1 1.34.09.12.12.39.05.49l-4.94 6.55c-.73-.61-1.42-1.18-2.1-1.78-.1-.09-.12-.36-.06-.5.4-1.04.79-2.08 1.26-3.08.83-1.78 1.71-3.52 2.58-5.27.04-.1.1-.17.18-.3Zm5.1 1.54c-.48-.62-.88-1.12-1.25-1.64-.08-.1-.13-.34-.07-.44 1.5-2.28 3.01-4.55 4.53-6.83.04-.06.11-.1.2-.18.7 1.04 1.4 2.05 2.08 3.08l2.44 3.76c.18.27.24.5-.05.8-.41.41-.73.92-1.15 1.48-.64-.85-1.24-1.64-1.81-2.45-.72-1-1.7-1.3-2.52-.64-.42.33-.7.86-1.04 1.3l-1.36 1.76Z" fill="#fff"/></svg>