<svg viewBox="0 0 258 359" fill="none" xmlns="http://www.w3.org/2000/svg"><g clip-path="url(#a)" fill="#fff"><path d="M105.66 38.19v-22.08l-7.18 14.37h-4.97l-7.22-14.37v22.08h-7.33v-37.87h7.22l9.83 20.48 9.76-20.48h7.22v37.87h-7.33Zm34.28 0v-15.12c-1.34.81-4.9 2.02-8.67 2.02-5.92 0-10.5-4.19-10.5-10.47v-14.3h7.33v13.02c0 3.34 2.12 5.15 5.4 5.15 2.78 0 5.31-.96 6.44-2.27v-15.9h7.32v37.87h-7.32Zm34.27-.71c-1.58.63-3.49.99-5.5.99-4.04 0-7.6-1.42-10.24-4.15-3.7-3.76-3.7-8.77-3.7-15.09v-1.52c0-7.56.77-10.58 3.7-13.56a13.87 13.87 0 0 1 10.18-4.15 13.77 13.77 0 0 1 10.39 4.37l-4.86 4.9c-2.05-2.03-3.39-2.67-5.53-2.67-1.94 0-3.53.64-4.69 1.95-1.83 2.06-1.83 6-1.83 9.62v2.02c0 6 .35 8.1 1.83 9.73a5.86 5.86 0 0 0 4.69 1.95c2.22 0 3.48-.64 5.53-2.66l4.86 4.9c-2.04 1.95-3.07 2.58-4.86 3.33l.03.04Zm-150.41 41.98c2.15 2.1 3.2 4.9 3.2 8.34 0 3.44-1.09 6.2-3.2 8.34-2.15 2.1-5.04 3.16-8.66 3.16h-14.62v-37.87h24.2v5.15h-18.5v9.72h8.92c3.62 0 6.51 1.06 8.66 3.16Zm-2.46 8.34c0-1.95-.6-3.48-1.73-4.62-1.16-1.13-2.75-1.7-4.8-1.7h-8.59v12.67h8.56c2.05 0 3.63-.57 4.8-1.67 1.16-1.1 1.72-2.66 1.72-4.65l.04-.03Zm37.86 11.5h-24.1v-37.87h24.1v5.15h-18.39v11.07h15.64v5.1h-15.64v11.4h18.4v5.15Zm34.35 0h-5.71v-32.72h-10.46l-.53 16.4c-.18 5.7-1.16 9.86-3 12.45-1.83 2.59-4.54 3.87-8.17 3.87h-2.85v-5.15h1.3c2.22 0 3.91-.82 5.08-2.52 1.16-1.67 1.8-4.79 1.93-9.4l.6-20.8h21.8v37.87Zm37.51 0h-5.95l-2.64-7.6h-14.83l-2.64 7.6h-6.03l13.77-37.87h4.58l13.74 37.87Zm-10.14-12.5-5.75-16.82-5.91 16.82h11.66Zm38.46-22.21c2.22 2.13 3.35 4.9 3.35 8.3 0 3.41-1.13 6.18-3.35 8.3-2.22 2.14-5.14 3.2-8.7 3.2h-8.56v14.9h-5.7v-37.86h14.26c3.56 0 6.45 1.06 8.7 3.2v-.04Zm-4.15 12.92a6.06 6.06 0 0 0 1.83-4.62c0-1.95-.6-3.47-1.8-4.61-1.2-1.14-2.82-1.7-4.9-1.7h-8.17v12.67h8.18c2.04 0 3.66-.57 4.9-1.7l-.04-.04Zm38.99-16.11-13.46 31.69c-1.76 4.11-4.4 6.17-7.92 6.17h-3.91v-5.15h2.67c2.08 0 3.53-1.02 4.37-3.01l1.3-3.09-12.18-26.62h6.02l8.98 20.27 8.07-20.27h6.06Zm27.86 33.74a19.1 19.1 0 0 1-4.86 3.41 14.1 14.1 0 0 1-5.53 1.07c-4.05 0-7.36-1.35-9.97-4.05a12.14 12.14 0 0 1-2.15-2.91 11.04 11.04 0 0 1-1.09-3.94c-.17-1.56-.31-2.8-.35-3.73-.04-.92-.07-2.48-.07-4.6a3.66 3.66 0 0 1-.07-.79c0-.35 0-.64.07-.75 0-3.72.25-6.56.7-8.48a11.11 11.11 0 0 1 2.93-5.18 13.44 13.44 0 0 1 9.93-4.04c2.04 0 3.91.35 5.6 1.06 1.45.64 3.07 1.78 4.86 3.4l-3.8 3.88a12.84 12.84 0 0 0-3.2-2.49 7.51 7.51 0 0 0-3.46-.7c-2.29 0-4.16.74-5.6 2.26a7.58 7.58 0 0 0-1.52 3.02 15.27 15.27 0 0 0-.6 3.55c-.06 1.06-.06 2.66-.06 4.72v1.7c0 3.27.14 5.6.45 7.06a7.32 7.32 0 0 0 1.77 3.59 7.25 7.25 0 0 0 5.6 2.27c1.34 0 2.5-.25 3.45-.71.95-.46 2.04-1.31 3.2-2.48l3.8 3.86h-.03Zm35.4 4.16h-5.7v-27.5l-16.84 27.5h-5.18v-37.87h5.7v27.47l16.81-27.47h5.21v37.87Z"/></g><g clip-path="url(#b)"><path d="M244.15 238.07s-13.27-3.82-42.64-28.4c4.73-36.84 16.5-52.33 16.5-52.33s-17.33 11.12-54.65 16.09c-28.29-31.04-31.4-47.85-31.4-47.85.06.36-5.8 16.75-35.1 48.33-34.87-4.55-47.66-15.97-47.66-15.97s10.34 13.45 15.37 47.6c-30.86 27.45-46.11 32.71-46.11 32.71s16.26 4.79 47.36 33.07c-4.18 37.74-15.97 54.3-15.97 54.3s15.85-10.58 53.53-15.43c23.38 27.63 28.76 42.7 28.7 43.06 0 0 5.32-15.67 29.13-44.13 37.61 3.89 57.65 16.38 57.65 16.38s-13.34-18.3-17.77-57.64c27.63-24.64 43.12-29.79 43.12-29.79h-.06Zm-38.8-67.63s-5.93 9.8-9.34 34.5a248.6 248.6 0 0 1-7.83-7c2.03-10.16 4.18-14.47 4.18-14.47s-4.54 2.22-14.83 4.43c-2.69-2.63-5.26-5.14-7.65-7.66 25-3.76 35.52-9.86 35.52-9.86l-.06.06Zm-107.77 16.74.6.78c-.78.48-1.74 1.14-2.88 1.91a96.24 96.24 0 0 0-8.43 6.82l3.17-3.17c1.32-1.38 2.45-2.63 3.7-3.89l3.24-3.4.66 1.01-.06-.06Zm89.58 82.95h-36.78l-16.68-23.62 11.72-.18 30.68-.3 5.98 8.01 2.69 3.65 6.46 8.73 2.75 3.7h-6.82Zm-120.26-36.6v-.12a70.7 70.7 0 0 1 6.34-14.95 74.42 74.42 0 0 1 7.47-10.95 65.89 65.89 0 0 1 3.17-3.64 52.7 52.7 0 0 0-2.87 5.44 70.77 70.77 0 0 0-5.44 18.3 73.28 73.28 0 0 0-.9 8.13h-.42c-2.33 0-4.78 0-7.3-.06h-.65c.18-.72.42-1.37.6-2.03v-.12Zm43.65-50.65s.36-.12.48-.18c.3.24.66.6 1.02 1.01.3.3.6.6.9.96a23.08 23.08 0 0 0 .3.3c.77.84 1.73 1.8 2.8 2.87a92.03 92.03 0 0 0 5.09 4.48c4.3 3.53 10.29 7.54 18.48 11.49-.36.6-.6 1.2-.72 1.85-.12.42-.3.9-.3 1.32-.18 0-.3 0-.48-.06a60.65 60.65 0 0 1-8.55-2.75 125.69 125.69 0 0 1-18.9-9.81l-.53-.36c-1.38-.9-2.64-1.8-3.83-2.63a43.28 43.28 0 0 1-3-2.33s-.11-.12-.17-.12c-.24-.18-.48-.42-.72-.6a1.6 1.6 0 0 0-.36-.3c-.36-.3-.66-.66-.95-.96l-.06-.06a7.8 7.8 0 0 1 1.07-.48c.42-.18.84-.42 1.26-.6a50.36 50.36 0 0 1 7.11-2.92l.06-.12Zm8.86.53 1.9-.35c2.04-.3 4.13-.54 6.29-.66 1.31.18 2.5.48 3.83.78a58.08 58.08 0 0 1 16.8 5.8c1.38.77 2.69 1.61 4 2.5a50.54 50.54 0 0 1 17.05 19.44c.84 1.68 1.67 3.3 2.4 5.09a74 74 0 0 1 4.72 18.95l-77.45.6c24.22-5.8 38.1-18.12 42.88-23.14.9.54 1.91.9 3.05.9a6.34 6.34 0 0 0 0-12.68c-1.14 0-2.15.36-3.05.9a96.31 96.31 0 0 1-15.73-9.16 76.17 76.17 0 0 1-8.25-6.93c-.48-.48-1.02-.96-1.44-1.44.96-.24 1.92-.36 2.94-.54l.06-.06Zm57.58 59.57-31.75.3-61.72.6h-5.92c0-1.08-.06-2.94 0-5.27h5.86l93.3-.72c.17 2.1.23 3.71.23 4.85v.24Zm-35.34-36v-.06c0-.72.3-1.38.66-1.92.3-.47.72-.83 1.2-1.07.41-.24.9-.36 1.43-.36.36 0 .66.12 1.02.18a3.29 3.29 0 0 1 2.33 3.17 3.3 3.3 0 0 1-3.35 3.35c-.24 0-.48-.12-.72-.12h-.3a4.63 4.63 0 0 1-1.31-.72.8.8 0 0 1-.18-.24c-.12-.12-.18-.24-.24-.36a3 3 0 0 1-.54-1.44c0-.11-.06-.17-.06-.3l.06-.11Zm-2.03 3.1s.12.13.18.24c-5.39 5.63-23.45 21.6-56.4 24.76-1.8.18-3.7.3-5.62.36.24-3.1.66-6.75 1.44-10.7.6-3.05 1.5-6.28 2.63-9.51a51.05 51.05 0 0 1 9.33-16.45 43.86 43.86 0 0 1 9.45-8.13s.06 0 .12-.06l.12.12a66.2 66.2 0 0 0 7.89 5.8c9.33 6.1 22.25 12.44 30.86 13.58Zm-78.58-39.64s8.19 6.04 29.84 9.8c-2.21 2.28-4.55 4.61-6.94 7.06-7-1.97-9.93-3.83-9.93-3.83s1.74 2.93 3.71 9.93c-2.33 2.27-4.66 4.43-6.88 6.52-3.94-21.47-9.8-29.42-9.8-29.42v-.06Zm.9 142.99s6.75-10.71 10.34-36c2.33 2.2 4.78 4.6 7.24 7.11-2.75 11.48-5.92 16.33-5.92 16.33s5.08-2.51 16.98-4.97c2.7 2.87 5.2 5.62 7.53 8.25-25.89 3.6-36.24 9.22-36.24 9.22l.06.06Zm70.08 27.38s-3.35-12.08-18.6-31.7c-1.55-1.96-3.17-4-4.96-6.1a323.9 323.9 0 0 0-7.77-8.78 289.63 289.63 0 0 0-12.14-12.2c-2.46-2.33-4.85-4.49-7.12-6.58a572.5 572.5 0 0 0-8.01-7.06l-6.82-5.74c-23.26-19.01-36.24-24.4-36.24-24.4s13.22-3.82 35.46-22.12c2.15-1.74 4.37-3.65 6.64-5.69 2.45-2.15 5.02-4.48 7.6-7 .53-.53 1.07-1 1.67-1.55-.54.6-1.08 1.2-1.62 1.86a79.02 79.02 0 0 0-13.58 21.83 82.36 82.36 0 0 0-3.28 10.04 53.63 53.63 0 0 1-7.95 3.77s4.18 1.44 11.84 6.1a127.5 127.5 0 0 1 7.3 4.84 287.3 287.3 0 0 1 8.84 6.64c4.9 3.89 10.35 8.55 16.33 14.17a160.06 160.06 0 0 1 19.02 21.18 132.8 132.8 0 0 1 6.4 9.5 81.36 81.36 0 0 1 3.47 6.34c2.57 5.32 3.34 8.38 3.34 8.38s.78-3.12 3.41-8.56c.96-1.91 2.1-4.12 3.53-6.58a133.1 133.1 0 0 1 6.4-9.74 176 176 0 0 1 15.73-18.6h23.02a344.55 344.55 0 0 0-19.97 20.4c-2.7 2.98-5.09 5.85-7.42 8.6-1.73 2.15-3.4 4.19-4.96 6.22-15.61 20.28-19.62 32.48-19.62 32.48l.06.05Zm74.16-26.43s-13.4-7.65-40.01-11.18c2.21-2.57 4.6-5.2 7.12-7.95 13.7 2.99 20.93 6.75 20.93 6.75s-3.71-6.88-6.64-21.59c2.57-2.57 5.14-5.02 7.53-7.3h.18c3.47 28.41 10.83 41.27 10.83 41.27h.06Zm-11.78-50.71s-.6.54-.9.78l-8.97-12.14v-.06c3.35-2.46 6.4-4.49 9.09-6.1 2.21-1.32 4.19-2.4 5.92-3.3 5.74-2.86 8.97-3.52 8.97-3.52s-3.11-1.2-8.85-4.73c-1.73-1.07-3.7-2.33-5.86-3.82-2.63-1.8-5.62-4-8.91-6.52-3.05-2.4-6.46-5.2-10.05-8.37-.12-.3-.18-.6-.36-.96-3.17-7.9-8.55-16.86-17.7-23.98a57.2 57.2 0 0 0-12.68-7.24c-.24-.36-.53-.66-.77-1.01a118.53 118.53 0 0 1-5.03-7.24c-5.74-9.03-6.52-13.63-6.52-13.63s-1.2 4.72-7.05 13.81a88.72 88.72 0 0 1-2.87 4.25 62 62 0 0 0-7.72 1.55 8.6 8.6 0 0 0-2.1-1.8l-.53-.3-.6.19a63.24 63.24 0 0 0-6.46 2.45 111.1 111.1 0 0 0-6.34 2.99l-.41.24a871.6 871.6 0 0 0 3.23-3.59c2.09-2.33 4-4.55 5.8-6.7 21.52-25.47 25-37.85 25-37.85s1.9 12.68 22.66 37.31a252.7 252.7 0 0 0 13.81 15.13 356.42 356.42 0 0 0 18.36 17.58c2.93 2.58 5.62 4.91 8.31 7.06 1.98 1.62 3.83 3.11 5.69 4.55 20.8 16.14 32.29 19.5 32.29 19.5s-11.3 3.22-32.65 20.63c-1.86 1.49-3.77 3.1-5.74 4.84h-.06Z" fill="#fff"/></g><defs><clipPath id="a"><path fill="#fff" transform="translate(.517)" d="M0 0h256.97v358.86h-256.97z"/></clipPath><clipPath id="b"><path fill="#fff" transform="translate(18.458 125.585)" d="M0 0h225.7v227.6h-225.7z"/></clipPath></defs></svg>