<svg viewBox="0 0 250 243" fill="none" xmlns="http://www.w3.org/2000/svg"><path d="M125.3 167.72c-25.08-.28-45.88-8.8-62.5-26.57-15.23-16.28-22.73-35.7-22.33-57.87.44-23.66 9.26-43.88 26.79-60.1 17-15.73 37.41-22.78 60.53-22.27 21.5.47 39.96 8.47 55.22 23.29 16.8 16.33 26.27 36.1 26.1 59.7-.18 24.05-8.8 44.7-26.76 61.18-16.25 14.91-35.53 22.48-57.05 22.65v-.01Zm-49.56-128.96c-2.01-1.87-3.97-3.64-5.86-5.48-1.14-1.1-2.18-2.3-3.34-3.54-.12.1-.48.37-.75.7a493.9 493.9 0 0 0-5.38 6.77c-3.66 4.72-6.47 9.95-8.88 15.36a70.7 70.7 0 0 0-4.6 13.85 159 159 0 0 0-1.57 8.67c-.33 2.09-.5 4.2-.75 6.3-.1.81.29 1.05 1.07 1.04 2.75-.02 5.5 0 8.24 0h3.55c.67-16.82 6.41-31.39 18.27-43.68Zm97.26-.14c.76.79 1.7 1.7 2.56 2.67 1.67 1.85 3.36 3.7 4.94 5.62a109.9 109.9 0 0 1 4.47 5.93c.44.61.57 1.44.85 2.18.42 1.07.81 2.14 1.25 3.2.7 1.72 1.58 3.4 2.1 5.18a68.43 68.43 0 0 1 3.02 15.52c.08 1.14.27 2.26.4 3.34l12.4-.61c-.78-20.3-8.86-37.5-22.64-52.43-.65.74-1.17 1.4-1.75 2-1.92 1.99-3.83 3.97-5.77 5.94-.49.49-1.07.87-1.83 1.47Zm19.6 48.02c-.22 1.95-.35 3.82-.68 5.66-.57 3.28-1.13 6.58-1.96 9.79a59.22 59.22 0 0 1-5.09 12.65 69.7 69.7 0 0 1-9.9 14.05c-.48.54-.62.77.06 1.36 1.74 1.54 3.35 3.23 4.98 4.87 1.15 1.16 2.27 2.33 3.61 3.72 2.45-3.24 4.94-6.2 7.05-9.4 2.32-3.5 4.38-7.2 6.4-10.89a50.69 50.69 0 0 0 4.92-12.84c.9-3.86 1.56-7.78 2.24-11.68.44-2.56.74-5.16 1.12-7.85-4.21.99-8.5.22-12.75.55v.01Zm-114.3 46.33c-.57.65-1.04 1.24-1.57 1.78-2.1 2.15-4.1 4.42-6.37 6.38-1.29 1.12-.28 1.52.3 1.99 2.38 1.88 4.84 3.7 7.27 5.53 4.49 3.4 9.5 5.9 14.6 8.22 2.79 1.26 5.75 2.17 8.68 3.09 2.63.8 5.32 1.47 8 2.07 2.27.5 4.57.88 6.87 1.2 2.1.29 4.23.42 6.2.6v-12.67a68.18 68.18 0 0 1-23.64-4.86 64.26 64.26 0 0 1-20.33-13.33Zm43.53-128.02c-20.08 1.24-37.35 8.53-52.3 21.77 3.03 2.89 5.97 5.71 8.96 8.48.16.15.83.01 1.08-.2 1.8-1.49 3.5-3.1 5.36-4.51 3.78-2.9 7.8-5.47 12.24-7.26a99.44 99.44 0 0 1 10.63-3.66c2.92-.8 5.97-1.17 8.98-1.64 1.74-.28 3.5-.39 5.04-.54v-12.44h.01Zm5 158.8c20.55-1.03 38.46-8.3 53.59-22.23-3.27-2.95-6.45-5.8-9.61-8.67.18-.31-.05-.05-.28.2-1.8 2.03-3.6 4.14-6.15 5.19-3.13 1.28-5.39 3.46-7.37 6.02-1.99 2.56-3.7 5.4-6.5 7.23-1.65 1.09-3.38 2.45-5.6 1.27-.73-.39-1.35-.97-2.03-1.43-1.04-.71-1.9-1.87-3.34-1.7-1.67.2-3.32.62-4.99.86-1.67.24-3.35.45-5.04.55-.86.05-1.73-.18-2.69-.29v12.99Zm44.38-129.4.4-.07a20.34 20.34 0 0 1 7.83-7.79c-1.42-1.27-2.7-2.56-4.12-3.68a82.78 82.78 0 0 0-16.4-10.29 76.48 76.48 0 0 0-12.8-4.7c-3.06-.8-6.2-1.28-9.3-1.81-1.95-.33-3.93-.5-5.88-.74l-4.3-.55v10.78l1.33-.55.7 2.65c2.21.11 4.49 0 6.66.4 3.5.65 6.98 1.46 10.34 2.55 2.34.76 4.49 2.08 6.72 3.16 2.05 1 4.13 1.8 6.41.82.72-.3 1.27-.26 2.06-.07 1.76.44 3.32 1.1 4.64 2.3 1.26 1.15 2.68 2.22 3.7 3.56.9 1.17 1.34 2.68 2 4.03h.01Zm-92.56 7.25a65.66 65.66 0 0 0-12 18.92 62.72 62.72 0 0 0-4.88 21.79h12.1c.09-.79.21-1.47.24-2.16.19-4.44 1.29-8.7 2.72-12.88a44.15 44.15 0 0 1 9.87-16.37c.58-.6.5-.96-.07-1.48a313.2 313.2 0 0 1-5.6-5.3c-.86-.83-1.65-1.74-2.38-2.51v-.01Zm-25.14 71.76s-.09.04-.12.07c-.54-.25-1.37-.37-1.57-.78a26.55 26.55 0 0 1-1.54-4.2c-.54-1.89-.02-3.67.88-5.36.7-1.32 1.71-1.59 3.02-.83.33.2.69.32 1.04.48.71-1.84 1.5-2.67 2.3-2.23.97.54 1.7 1.47 2.75 2.42a48.94 48.94 0 0 1-2.65-15.99h-12.78c.93 19.88 8.2 37.1 21.4 52.05l9.03-9.4c.03.06-.26-.16-.51-.4-1.62-1.54-2.9-3.37-5.06-4.39-.92-.44-1.45-1.74-2.03-2.48-.76 0-1.56.24-1.98-.05a7.91 7.91 0 0 1-2.32-2.35c-.5-.87-.62-1.61-1.89-2.08-1.52-.55-2.72-2-4.11-3.09l-.8 1.26-3.06-2.64v-.01Zm36.76-66.08a48.53 48.53 0 0 1 12.93-8.83 43.2 43.2 0 0 1 17.66-4.2c1.02 0 1.28-.35 1.23-1.28-.12-2.54-.22-5.07-.24-7.61-.01-1.06.18-2.12.3-3.38-15.58 1.14-29.08 6.58-40.12 16.22l8.24 9.08Zm76.16 74.26c.31-2.12.91-2.4 2.25-1.3a4.4 4.4 0 0 1 1.32 1.95c.45 1.38.69 2.82 1.03 4.3.22-.18.49-.34.69-.56 1.3-1.52 2.75-2.96 3.87-4.61 2.18-3.23 4.47-6.43 6.16-9.9a60.13 60.13 0 0 0 4.2-11.37c1.12-4.4 1.59-8.95 2.34-13.47h-12.27c-.06.73-.1 1.6-.23 2.47-.14.86-.4 1.7-.56 2.56-.22 1.23.3 2.21.98 3.22.37.56.34 1.42.32 2.14 0 .12-.91.23-1.42.31-.23.04-.49 0-.76 0-2.28 7.82-5.88 14.86-11.71 20.87l3.79 3.4Zm-7.94-80.16c.33 1.25.56 2.49 1 3.64.47 1.2.97 2.47 1.79 3.43.56.68 1.32 1.1 1.17 2.15-.03.2.3.52.54.66 1.54.88 2.91 1.84 2.9 3.9 0 .76.54 1.13 1.34.91.38-.1.74-.37 1.12-.4.46-.04 1.21-.06 1.35.18.21.36.07.98-.02 1.47-.08.4-.28.76-.4 1.1l1.83.13-.62 1.4c-.02.03-.06.05-.08.09-.6.85-.34 1.3.71 1.47.45.07 1.15.26 1.25.55.5 1.54 1.22 3.08.75 4.77-.28 1.03-.79 2.02.02 3.09.22.27.04.94-.1 1.37a24.51 24.51 0 0 1-2.9 6.09c-.68 1.06-1.55 1.44-2.72 1.27v3.3l4.78.3c-1.52-2.21-1.29-4.2-.3-6.2 1.62-3.28 2.79-5 3.52-5.17l-.1 1.53c-.08 1.14-.5 2.38-.2 3.4a16 16 0 0 1 .8 5.4c-.03.78.33.98 1.04.97 1.84-.02 3.7.04 5.53-.02 1.9-.05 3.8-.21 5.9-.33-.4-2.72-.66-5.38-1.2-8a59.69 59.69 0 0 0-4.28-13.45c-.37-.78-.62-.99-1.41-.7-1.16.45-2.13.3-2.68-1.01-1.4-3.32-4.57-4.76-7.46-6.27a6.15 6.15 0 0 1-2.48-2.33c-.36-.56-1.12-.87-1.74-1.24-.58-.33-1.24-.52-1.8-.89-1.4-.94-1.25-2.5-1.43-3.88a5.34 5.34 0 0 0-1.44-3.32c-.68-.66-1.42-1.04-2.35-.28-.54.43-1.22.7-1.63.92Zm-36.29 93.6c-10.8.65-19.85-3.64-28.38-9.6.25.58.6 1.04.95 1.48.65.8.6 1.4-.36 1.73-1.12.38-2.32.56-3.48.82-1.16.27-2.52.25-3.44.88-1.91 1.28-3.45.7-5.1-.34-.38-.25-.84-.4-1.26-.6l-.13.3c11.88 10.09 25.38 16.39 41.2 17.1v-11.77Zm4.31-113.38v1.54c.01 3.42 0 6.83.07 10.24 0 .3.5.78.8.82 2.8.39 5.61.6 8.4 1.02 4.24.63 8.18 2.2 11.97 4.12 1.85.94 3.6 2.07 5.66 3.26-.72-1.1-.83-2-.72-3.1.1-.86-1.53-1.47-1.2-3.2 1 .93 1.87 1.6 2.57 2.42.98 1.15 1.75 2.55 3.62 2.34-.05-.2-.1-.47-.2-.72-.47-1.35-1.3-2.6-.77-4.18.13-.39-.36-1-.6-1.48-.43-.84-1.03-1.62-1.29-2.5-.58-2.04-1.66-3.75-3.67-4.46a142.64 142.64 0 0 0-12.87-4.13c-3.79-.96-7.73-1.33-11.76-2Zm20.65 36.72 8.75-8.48a49.8 49.8 0 0 0-9.42-6.08 51.41 51.41 0 0 0-19.8-5.54c.1 1.89.28 3.75.28 5.61.02 1.7-.13 3.38-.22 5.06-.04.69-.04 1.28.87 1.4 1.16.14 2.32.28 3.46.5a34.28 34.28 0 0 1 16.07 7.53h.01Zm-25.05-20.04c-10.91.66-20.18 5.34-28.52 11.85l8.72 8.4c1.44-1.08 2.74-2.2 4.18-3.16a27.54 27.54 0 0 1 14.42-4.82c.85-.04 1.3-.33 1.17-1.23-.1-.67-.24-1.35-.23-2.02.06-3 .17-6.01.26-9.02Zm-8.66 54.7c.45-.7.72-1.17 1.02-1.6.22-.32.45-.8.75-.87 1.41-.32 1.66-1.3 1.74-2.51.02-.38.4-.96.72-1.03 1.05-.23 2.15-.3 3.23-.4 2.57-.23 3.68 1.57 2.44 4.01-.34.66-.87 1.29-.99 1.98-.3 1.88-1.4 2.97-3.34 3.01-.7.02-1.39 0-2.09 0l-.04.36a12.69 12.69 0 0 0 7.43 2.55c2.23.08 2.62-.28 3.18-2.42.61-2.35 1.03-2.68 3.47-2.68.4 0 .83.06 1.23-.03.38-.08.98-.27 1.03-.5.26-1.41 1.53-2.78.2-4.32-.28-.34-.13-1-.31-1.48-.39-1.05-.68-2.22-1.34-3.1-.92-1.21-1.12-1.46-.08-2.63.56-.63.46-1.1.16-1.73-.28-.58-.5-1.2-.83-2.02-.5-.43-1.24-1.07-1.95-1.75-.83-.78-1.57-1.81-2.83-1.66-1.72.21-2.63-.9-3.64-1.87-.28-.26-.33-.92-.23-1.33.06-.23.63-.38 1-.48.32-.09.67-.05 1.01-.07v-.23h-2.83l.5 2.04c.33 1.47.02 2.15-1.37 2.89-.8.43-1.69.76-2.48 1.21-.5.29-.93.69-1.35 1.08-.44.4-.81.85-1.24 1.25-.29.27-.71.44-.91.76-1.15 1.79-1.04 3.84-1.27 5.89l1.45-.5 1.11 1.94c-.47 1.03-1.1 2.06-1.37 3.17-.27 1.09-.85 1.53-1.99 1.56l.78 1.48.03.03Zm-25.58 24.99 10.54-10.8c-.35-.46-.68-.91-1.02-1.34a34.6 34.6 0 0 1-6.47-13.16c-.29-1.08-.6-1.71-1.61-1.9-.23.99-.37 1.98-.72 2.9-.14.37-1.02.87-1.1.8-.61-.55-1.12-1.21-1.66-1.84l1.4-.59.42.17c-.16-1.14-.34-2.27-.47-3.42-.03-.2.11-.58.23-.6.26-.06.71-.04.83.13 1.06 1.48 2.1.82 3.08.14 0-.49-.02-.9 0-1.28.07-1.33.23-2.65.22-3.97-.01-2.2-1.67-3.36-3.79-2.66-.67.22-1.28.64-1.1 1.49.21.96.5 1.9.75 2.86.42 1.6.34 1.63-1.28 1.71-.41.02-1.15.54-1.14.79.1 1.31-.66 1.9-1.7 2.31-.58.24-1.18.44-1.89.7l.37 1.38c.16.6.3 1.22.47 1.83.13.44.19.96.47 1.3 1.55 1.89 2.88 3.84 2.73 6.43-.01.27.02.58.15.82 1 1.83 1.07 3.82 1.07 5.82 0 1.06.35 1.92.93 2.86.7 1.14 1 2.56 1.22 3.9.07.44-.5 1.17-.97 1.49-1.23.84-1.27.78.02 1.73h.02Zm-4.82-35.64-.32-2.03c-.3-1.92.5-3.6 1.2-5.3.7-1.68 1.61-3.08 3.79-3.1.75 0 1.35-.46 1.17-1.45-.12-.64.08-.98.89-1.25 1-.34 1.87-1.15 2.77-1.8.9-.67 1.78-1.4 2.68-2.1.72-.56 1.48-1.1 2.17-1.69.71-.62 1.36-1.3 1.94-1.85l-8.93-8.5c-7.57 8.3-11.27 18.14-12.27 29.07h4.91Zm32.95 35.84c-5.5-1.46-10.44-3.81-14.2-7.86l-8.26 8.36c6.5 5.17 13.91 9.41 22.66 10.95-1.88-1.17-2.76-3.08-3.86-4.83-.5-.82-.45-1.43.2-2.14.45-.48.7-1.13 1.02-1.7.3-.52.5-1.13.89-1.57.44-.48 1.05-.82 1.56-1.2h-.01Zm-3.17-19.6-6.7 7.32c-.27.31-.47.7-.7 1.04 3.68 3.28 11.75 6.77 14.93 6.55 0-.64-.03-1.27 0-1.92.07-1.5.6-1.99 2.05-2.12.45-.05.9-.27 1.44-.44-.29-.43-.53-.7-.67-1-.24-.6-.58-1.23-.57-1.84.01-1.07.28-2.14.44-3.24-4.31-.14-8.93-2.14-10.23-4.34h.01Zm37.05 7.2v.47c.37.04.75.12 1.1.09 1.43-.12 2.4-.72 2.86-2.19.36-1.14 1.5-.98 2.48-1.04.93-.05 1.14.66 1.25 1.21.24 1.24.93 2.53-.07 3.77-.14.17-.18.44-.24.66-.44 1.68-.81 3.39-1.34 5.03-.41 1.25-1.63 1.7-2.93 1.28-1.22-.39-2.42-.85-3.66-1.11-2.3-.48-4.63-.85-6.89-1.25-.54 1.33.38 1.42.97 1.57 2.16.56 4.41.87 6.22 2.34.14.11.38.15.57.14 1.8-.16 3.62-.3 5.4-.57.36-.05.7-.65.9-1.06.4-.86.66-1.78 1.08-2.63.15-.3.58-.68.86-.67.27 0 .62.46.75.79.26.63.4 1.3.66 2.15 4.15-5.19 8.01-10.25 9.4-17.04l-3.32.62c-.74.12-1.67.55-2.2.26-1.32-.73-2.05-.49-2.82.74-.64.99-1.29.85-1.89-.2-.08-.15-.2-.28-.24-.31-.76 1.17-1.47 2.3-2.25 3.4-.17.23-.64.44-.93.38-1.2-.2-1.89.52-2.41 1.32-.8 1.19-1.6 2.2-3.32 1.86Zm18.7-33.7c-.36.46-.87.95-1.2 1.54a7.9 7.9 0 0 0-.73 1.95c-.1.34-.14.8.03 1.06.14.2.68.25.98.16 1.54-.47 2.8-2.67 2.4-4.25-.34-1.3-.7-2.6-1.2-3.85a5.58 5.58 0 0 0-1.48-2.14c-1.31-1.09-2.78-2-4.23-3 .16-.3.23-.65.44-.86 1.34-1.32.78-2.67-.07-3.86-1.46-2.03-3.06-3.96-4.66-6-3.4 3.55-6.67 6.97-9.88 10.3.92.1 1.78.19 2.66.3 1.1.15 2.25.57 3.33.46 2.54-.26 4.4.4 5.74 2.72.6 1.04 1.42 1.74.25 2.83l.97.84c.43-.28.78-.54 1.15-.77 1.2-.73 2.69-.58 3.42.27.62.73 1.27 1.42 2.08 2.3Zm-41.57-17.3v2.66c0 1.42-.02 2.84 0 4.26.02 1.32 2.14 2.84 3.41 2.47.15-.05.28-.16.4-.25l3.75-3.24c1.7 1.72 1.28 3.96-.48 5.44-1.3 1.1-2.73 2.01-4.2 3.08.32 0 .62.1.74-.01 1.16-1.1 2.11-.47 3.09.3.37.29.78.54 1.2.79.9.55 1.8.14 2.04-.6.6-1.83 2.2-2.41 3.59-3.33.92-.6 1.72-1.37 2.59-2.07l-2.12-.99c.99-.91 1.75-1.6 2.58-2.38a44.5 44.5 0 0 0-16.6-6.12h.01Zm-22.7 8.64c.63.2 1.12.33 1.6.51.5.2 1.04.41 1.5.7 1.43.91 1.42.92.25 2.5.53 0 1.06.14 1.2-.03.72-.84 1.3-.92 2.08-.04.25.3.9.26 1.38.34.27.04.61-.1.82.03 1.74 1.01 3.7-.77 3.82-2.63.06-1 .43-2.05 1.63-2.5.14.76-.25 1.75 1.01 1.62.9-.09 1.8-.24 2.4-.32v-8.69c-6.9 1.18-12.97 3.3-17.7 8.51h.01Zm-42.73 23.44 2.76 16.74a5.77 5.77 0 0 0 1.4-2.27c.3-1.11.18-2.33.56-3.4.58-1.64.76-3.65 2.96-4.25.3-.08.5-.45.75-.7.62-.59 1.14-1.38 1.87-1.71.65-.29 1.53-.06 2.18-.06v-4.36h-12.47Zm60.07 27.97c.88 1.05 1.59 1.35 2.87.65 1.68-.92 3.38-.6 5.13-.67.15 1.4 1.08 1.67 2.23 1.71.59.02 1.31.05 1.73.37.8.63 1.16.23 1.51-.4.26-.43.44-.91.64-1.38a9.22 9.22 0 0 0 5.52-2.93c.6-.67.9-1.62 1.17-2.5.06-.2-.75-.96-.93-.9-.63.27-1.27.68-1.7 1.2-.56.68-1.08.87-1.87.48-.3-.15-.64-.2-.97-.3l.21.38c-.48.44-1 1.28-1.44 1.24-.69-.05-1.35-.69-2.03-1.07l.1.33c-.47.24-1.17.8-1.35.65-.8-.59-1.62-1.06-2.47-1.55-.89-.49-1.4-.33-2.04.04-.67.38-1.36.77-1.9 1.3-.6.59-.93 1.49-1.59 1.97-.82.6-1.86.91-2.81 1.36l-.01.02Zm5.13 32.2 9.58-1.37.03-.33c-.88-.45-1.8-.85-2.61-1.4a6.03 6.03 0 0 1-1.5-1.46c-.9-1.24-.72-2.58-.09-3.86.51-1.05-.02-1.48-.95-1.61-1.55-.22-3.11-.35-4.45-.5v10.52Zm32.14-25.26.6-.65c-.34.2-.7.39-1.02.62-1.26.93-1.37 2.19-.17 3.2.91.77 1.97 1.36 2.95 2.04 1.23.84 1.31 2.01.36 3.1-.65.75-1.25 1.57-1.7 2.44-.2.37 0 .95.07 1.42.1.65.25 1.28.42 2.05l7.6-6.37c-1.89.32-2.67-.22-2.93-1.46-.16-.78-.4-1.72-.95-2.21-1.66-1.5-3.48-2.8-5.24-4.2l.01.02Zm-57.41-17.89c1.4-1.4 2.58-2.53 3.69-3.74.23-.26.3-.82.22-1.2-.2-.95-.51-1.9-.8-2.83-.1-.3-.3-.54-.46-.82a2.3 2.3 0 0 0-.26.11l.24 1.85c-1.59-.78-3.1-1.39-3.03-3.16-.71-.26-1.63-.3-1.82-.7-.74-1.51-1.98-1.2-3.62-1.2 1.97 3.97 3.84 7.7 5.84 11.7Zm68.85-9.54 1.28-7.97h-7.19c1.63 2.58 3.25 5.49 5.92 7.97Zm-65.28-6.1c1.87-.4 3.56-.77 5.25-1.09.89-.17 1.84-.43 2.43.69l.32-.02.52-2.02c-.43.41-.82 1-1.03.94a2 2 0 0 1-1.14-.9c-.35-.68-.5-1.46-.7-2.08-.51.06-.96.26-1.26.13-1.4-.6-2.22-.3-2.82 1.07-.42.98-.91 1.91-1.57 3.29v-.01Zm-27.16-1.66c.76 2.73 1.67 5.37 1.27 8.26 1.85-2 1.88-2.18.73-3.5l1.04-4.2c-.91-.18-1.92-.36-3.04-.56Zm64.56 11.1c-.7.82-.67 1.6.27 2.4.59.52 1.02 1.2 1.58 1.74.2.19.57.28.85.28.17 0 .5-.34.47-.44-.23-.74-.38-1.6-.85-2.16-.6-.7-1.48-1.18-2.32-1.82Zm-1.78 7.08-.27-.36c-1.69-.13-3.13.97-2.94 2.17.56-.26 1.15-.49 1.7-.8.52-.3 1-.67 1.5-1.02h.01Zm7.27-37.95.75-2.78c-2.1 1.23-2.2 1.62-.75 2.78Zm-40.68 30.88c1.01-.8 1.8-1.43 2.63-2.07-.46-.67-.9-.81-1.36.13-.3.6-.73 1.13-1.27 1.94Zm49.45 97.79-4.28 3.61c-2.27-2.02-4.58-3.9-6.7-5.97a91.38 91.38 0 0 0-15.1-11.96c-1.55-.99-3.22-1.77-4.85-2.62a.79.79 0 0 0-.62.03 56.52 56.52 0 0 0-13.88 8.5c-3.67 3.06-6.9 6.67-10.3 10.07-.8.81-1.52 1.73-2.32 2.64l-4.75-3.9c7.62-7.86 16.59-13.81 26.6-18.83-.84-.27-1.4-.57-1.96-.61-3.57-.3-7.08-.02-10.15 1.97-3.82 2.47-7.42 5.3-11.32 7.66a53.58 53.58 0 0 1-8.74 4.17c-4.64 1.78-9.55 1.98-14.48 1.74a26.36 26.36 0 0 1-12.26-3.54c-2.71-1.6-5.19-3.6-7.77-5.43-.42-.3-.82-.64-1.09-1.06 2.13.84 4.22 1.8 6.4 2.5a24.57 24.57 0 0 0 11.53.72 85.54 85.54 0 0 0 10.43-2.25c3.33-.98 6.5-2.49 9.74-3.72 3.58-1.36 6.83-3.52 10.65-4.27 1.85-.37 3.7-.74 5.58-.92 2.15-.2 4.31-.28 6.46-.25 3.67.04 7.3.58 10.83 1.62.49.14 1.1.11 1.58-.07a35.66 35.66 0 0 1 15.2-1.77c6.43.56 12.6 2.35 18.53 4.82 3.55 1.48 7 3.19 10.62 4.46 2.43.85 5.07 1.21 7.64 1.59 1.88.27 3.81.26 5.72.27 4.73.02 9-1.5 13.01-3.85.47-.28.96-.53 1.5-.71a35 35 0 0 1-7.27 6.4 30.07 30.07 0 0 1-9.95 4.4 35.12 35.12 0 0 1-12.9.44c-4.1-.6-7.88-1.86-11.44-3.83-3-1.68-5.83-3.67-8.78-5.43-3.08-1.84-6.13-3.81-9.4-5.26-1.55-.69-3.6-.35-5.42-.36-.82 0-1.65.28-2.83.5 9.81 5.16 18.75 11.02 26.53 18.51h.01Zm-90.91-27.54c-1.14-.26-2.28-.56-3.42-.77-4.42-.83-8.84-1.61-13.25-2.45-6-1.15-11.72-3-16.7-6.62a47.13 47.13 0 0 1-5.18-4.36c-2.24-2.19-4.52-4.39-6.4-6.87-2.56-3.36-4.7-7-5.82-11.14-.21-.83-.54-1.63-.66-2.48l3.4 4.59c1.74 2.32 4 4.07 6.37 5.7 4.33 2.97 9.06 5.2 13.79 7.47a70.06 70.06 0 0 1 14.83 9.24c1.24 1.03 2.74 1.74 4.12 2.6l.26-.28c-.56-.52-1.08-1.1-1.7-1.55-2.58-1.9-4.46-4.39-6.1-7.07a30.02 30.02 0 0 1-3.8-9.44c-.84-4-1.66-7.99-2.44-11.99-.7-3.57-1.22-7.18-2.8-10.56.68.77 1.38 1.54 2.04 2.34.69.83 1.33 1.7 1.97 2.57 4.25 5.74 7.16 12.16 9.61 18.81 1.48 4.01 2.73 8.13 4.51 12 1.21 2.64 3.12 4.98 4.83 7.37.72 1 1.76 1.78 2.65 2.65l-.12.25Zm118.44-.83c1.48-1.84 3.1-3.63 4.46-5.6 2.99-4.34 4.67-9.27 6.44-14.17 1.7-4.7 3.27-9.47 5.48-13.93 1.71-3.46 4.3-6.49 6.54-9.69.55-.79 1.2-1.52 2-2.17-.34 1-.76 1.98-.98 3-.79 3.6-1.52 7.22-2.24 10.83-1.12 5.55-1.82 11.21-4.5 16.34a23.45 23.45 0 0 1-7.77 8.85c-.2.14-.4.28-.57.44-.08.07-.13.2-.18.3.94.33.95.35 2.52-.94a87.8 87.8 0 0 1 15.97-10.4c3-1.55 6.1-2.89 9.03-4.52a53.35 53.35 0 0 0 6.47-4.33 30.12 30.12 0 0 0 6.8-7.17c.48-.72.92-1.46 1.38-2.2l.3.11c-.54 1.68-1 3.4-1.65 5.03-1.83 4.62-4.63 8.6-7.98 12.29a50.48 50.48 0 0 1-14.07 10.78c-4.38 2.3-9.04 3.5-13.9 4.33-4.41.75-8.75 1.88-13.13 2.83-.15.04-.32 0-.41 0h-.01Z" fill="#fff"/><path d="M215.34 138.05c.32-.3.75-.56.95-.93a54.2 54.2 0 0 1 7.76-10.63c2.57-2.8 5.23-5.51 7.7-8.4 2.98-3.5 5.9-7.07 8.63-10.77a15.65 15.65 0 0 0 2.74-6.93c.03-.25.19-.49.38-.7 0 3.4.15 6.75-.53 10.16a36.65 36.65 0 0 1-6.4 14.36 54.32 54.32 0 0 1-13.02 13.02 588.61 588.61 0 0 1-11.91 8.07c-1.49.99-3.1 1.78-4.5 2.58.87-2.15 2.05-4.42 2.69-6.83a87.28 87.28 0 0 0 1.99-10.51c.5-3.84.62-7.75 1.05-11.6.48-4.4.96-8.8 1.76-13.15.53-2.91 1.61-5.73 2.44-8.6l.44.1c0 1.06-.09 2.14.02 3.2.3 2.97.67 5.94 1.07 8.9.34 2.56.82 5.11 1.1 7.67.21 1.84.2 3.7.28 5.55a21.75 21.75 0 0 1-4.74 14.8c-.07.09-.12.2-.17.3l.26.35v-.01Zm-61.86 35.37c2.57-.8 5.06-1.63 7.58-2.37a20.81 20.81 0 0 0 8.23-4.53c3.75-3.4 7.32-6.98 11.06-10.38 3.38-3.08 6.87-6.05 10.34-9.04.56-.5 1.24-.88 2.08-1.45-2.53 4.73-4.85 9.25-7.35 13.68-2.46 4.34-5.53 8.23-10.07 10.61-1.75.93-3.85 1.25-5.79 1.82-.6.18-1.22.26-1.82.39l.04.4c1.43-.1 2.87-.13 4.29-.34 2.94-.42 5.85-1.03 8.8-1.4 3.01-.36 6.05-.46 9.07-.76 5.48-.55 10.98-1 16.23-2.79 4-1.36 7.64-3.36 10.64-6.36.1-.1.23-.18.53-.13-1 1.4-1.9 2.9-3 4.22a36.65 36.65 0 0 1-12.6 10.04 39.16 39.16 0 0 1-14.93 3.85c-5.16.29-10.11-.46-15.06-1.65-4.9-1.18-9.8-2.37-14.7-3.47-1.14-.26-2.33-.24-3.58-.35Zm-147.11-70.72a29.7 29.7 0 0 0 6.75 11.83c3.24 3.52 6.6 6.93 10.02 10.27a48.78 48.78 0 0 1 8.35 10.97c.76 1.33 1.54 2.7 3.16 3.39-.8-1.48-1.63-2.85-2.3-4.29a25.68 25.68 0 0 1-2.52-9.01c-.1-1.4-.47-2.78-.45-4.17.04-1.78.23-3.6.56-5.36.8-4.2 1.8-8.38 2.55-12.58.25-1.38.04-2.83.31-4.33.65 2.11 1.46 4.2 1.92 6.35.71 3.34 1.24 6.72 1.72 10.1.3 2.06.33 4.15.53 6.23.3 2.9.7 5.79.96 8.69.4 4.62 1.37 9.11 2.97 13.46.6 1.63 1.38 3.18 2.16 4.97-2.46-1.56-4.79-2.99-7.06-4.49-4.24-2.8-8.5-5.56-12.66-8.48a49.7 49.7 0 0 1-8.73-8.11 31.29 31.29 0 0 1-6.26-10.91 40.27 40.27 0 0 1-1.6-7.07c-.33-2.46-.29-4.98-.4-7.47h.02Zm26.56 59.37a25.73 25.73 0 0 0 9.72 5.78 51.2 51.2 0 0 0 7.66 1.91c3.76.54 7.56.7 11.36 1.03 3.66.32 7.33.56 10.99 1.01 2.33.29 4.63.93 6.95 1.32a5.5 5.5 0 0 0 2.63-.26c-1.67-.59-3.31-1.26-5-1.73-2.74-.76-5.03-2.23-7.2-3.98-3.64-2.95-5.63-6.95-7.56-11.06-1.51-3.22-3.32-6.3-5-9.4 1.5 1.07 3.22 2.1 4.67 3.42 4.59 4.16 9.04 8.46 13.6 12.65 3.24 3 6.65 5.83 10.56 7.95a24.93 24.93 0 0 0 9.52 3.04c-2.93.62-6 1.22-9.02 1.92-4.1.94-8.18 1.94-12.25 2.94a44.33 44.33 0 0 1-13.88 1.14c-3.64-.27-7.12-1.45-10.51-2.8-4.93-1.96-9-5.14-12.69-8.8-1.78-1.75-3.2-3.86-4.77-5.8l.23-.28Z" fill="#fff"/><path d="M215.59 70.54c2.02 6.18 5.98 11.3 9.21 16.8 2.98 5.09 4.67 10.53 4.02 16.48-.17 1.53-.67 3.01-1 4.52a5.7 5.7 0 0 0-.14 1.68 7.48 7.48 0 0 0 1.88-4.3c.72-5.88 2.51-11.43 4.88-16.85 1.6-3.68 3.14-7.38 4.45-11.17a28.1 28.1 0 0 0 1.45-11.85l.32-.05c.47 1.52 1.13 3 1.38 4.55.55 3.58 1.25 7.2 1.25 10.8 0 6.12-1.15 12.1-3.68 17.76-2 4.5-4.81 8.42-8.16 12.05-1.97 2.13-3.54 4.62-5.29 6.96-.58.78-1.15 1.59-1.73 2.39 0-1.78-.02-3.47 0-5.16.06-4.93-1.12-9.62-2.59-14.27-1.65-5.2-3.3-10.42-4.7-15.7-.6-2.3-.6-4.75-.85-7.13-.25-2.39-.49-4.77-.72-7.16-.01-.11.02-.24.03-.36l-.01.01Zm-189.94 51.15c-1.76-2.23-3.44-4.4-5.17-6.53-1.79-2.22-3.64-4.39-5.43-6.6-3.1-3.82-5.57-7.98-6.72-12.78-.7-2.9-1.24-5.84-1.56-8.79a46.8 46.8 0 0 1-.24-8.34c.28-4.02.9-8.04 2.68-11.78-.09.72-.31 1.45-.24 2.15.28 2.73.33 5.54 1.08 8.16a93.23 93.23 0 0 0 4.1 10.89c2.17 5.03 4.5 9.99 5.53 15.42.3 1.6.46 3.23.84 4.8.27 1.1.82 2.14 1.26 3.2l.36-.13c-.23-1.38-.57-2.74-.66-4.13a91.86 91.86 0 0 1-.24-7.4c.07-4.05 1.7-7.65 3.62-11.12 1.55-2.77 3.33-5.43 4.84-8.23 1.43-2.64 2.63-5.39 3.89-8.02-.1 1.57-.16 3.32-.3 5.07-.13 1.71-.25 3.44-.52 5.13-.44 2.74-.88 5.5-1.55 8.19-1.07 4.22-2.37 8.39-3.5 12.59-.83 3.05-1.81 6.1-2.23 9.22-.36 2.7-.46 5.5.13 8.23.05.23 0 .48 0 .8h.03Z" fill="#fff"/><path d="M19.95 91.43c-.73-2.46-1.4-4.9-2.15-7.32-.73-2.34-1.46-4.69-2.33-6.98a69.92 69.92 0 0 1-3.34-11.76c-1.24-6.64.06-12.94 2.76-18.97 1.37-3.03 3.22-5.85 4.88-8.75.14-.26.37-.48.57-.74-.48 1.71-1.13 3.35-1.35 5.03-.27 2.12-.22 4.29-.22 6.43 0 1.45.11 2.9.26 4.33.24 2.18.53 4.35.83 6.52.56 4.14 1.12 8.27.2 12.43-.23 1.01-.21 2.07-.3 3.1-.08 1.09-.18 2.16-.23 3.24-.02.48.08.95.14 1.42l.4.02c.3-1.33.81-2.64.89-3.98.2-3.92 2.05-7.1 4.5-9.93a110 110 0 0 1 7.83-8.02 48.31 48.31 0 0 0 7.28-8.28l.38.12c-.74 2.65-1.34 5.35-2.26 7.93-1.9 5.32-5.3 9.82-8.47 14.43-2.26 3.28-4.54 6.56-6.58 9.97-1.8 3-3.02 6.28-3.7 9.73v.03Zm210.05-1.53c-.46-1.44-.86-2.74-1.29-4.05a31.26 31.26 0 0 0-4.52-8.6c-3.23-4.5-6.64-8.88-9.79-13.45-2.8-4.07-4.46-8.67-5.5-13.48-.14-.65-.32-1.3-.58-2.3.78 1.03 1.27 1.85 1.94 2.5 4.1 4.03 8.27 7.99 12.36 12.04a21.31 21.31 0 0 1 5.11 8.02c.56 1.55.74 3.24 1.1 4.87l.5 2.23v-8.28c.03-3.1-.64-6.18-.06-9.3.4-2.12.36-4.3.54-6.47.15-1.72.42-3.42.47-5.14.14-4.53-.31-8.98-2.45-13.13l.3-.18c1.08 1.53 2.22 3.02 3.23 4.6 2.42 3.78 3.99 7.95 5.2 12.22a25.57 25.57 0 0 1 1.1 9 44.77 44.77 0 0 1-2.34 10.8c-1.74 5.16-3.33 10.39-4.95 15.6-.23.76-.25 1.57-.38 2.48v.02Z" fill="#fff"/><path d="M197.99 27.35c.93 1.23 1.67 2.26 2.46 3.24 2.85 3.55 6.76 5.83 10.35 8.5 2.18 1.62 4.45 3.19 6.43 5.04a17.2 17.2 0 0 1 4.8 7.08c.07.2.25.36.38.54l.4-.16c-.85-2.33-1.75-4.62-2.5-6.98a150.2 150.2 0 0 1-2.53-8.78c-1.07-4.3-1.84-8.71-4.33-12.5-.96-1.46-2.24-2.73-3.3-4.3 1.56.83 3.24 1.51 4.7 2.5a25.3 25.3 0 0 1 8.92 10.47 22.74 22.74 0 0 1 2.1 7.9c.15 2.29.28 4.6.23 6.89-.07 3.62-.35 7.23-.44 10.85-.03 1.3.23 2.6.33 3.72-1.14-1.47-2.29-3.17-3.67-4.68-3.23-3.52-7.16-6.22-10.96-9.07-4.14-3.1-8.03-6.47-10.58-11.08-1.32-2.4-1.82-5.04-2.44-7.66l-.35-1.51v-.01Zm-170.15 22.87c1.04-1.35 1.9-2.9 3.15-4.01 2.7-2.4 5.59-4.59 8.4-6.85 2.48-2 5.08-3.85 7.38-6.02 1.48-1.39 2.52-3.24 3.99-4.87-.49 1.8-.85 3.64-1.47 5.4-1.95 5.52-5.65 9.85-9.96 13.69-2.12 1.88-4.6 3.36-6.75 5.2a71.16 71.16 0 0 0-5.87 5.77c-1.26 1.36-2.27 2.96-3.24 4.27 0-2.75.06-5.7-.02-8.64-.1-4.03-.3-8.05-.48-12.07-.22-4.7 1.35-8.84 4.02-12.62a24.39 24.39 0 0 1 9.73-8.25c.19-.08.36-.2.55-.27.51-.2 1.02-.37 1.29-.47-1.24 1.52-2.76 3.09-3.94 4.89-1.9 2.87-2.83 6.17-3.53 9.51-.92 4.43-1.8 8.86-2.75 13.28-.14.7-.51 1.34-.78 2.01l.3.05h-.02Zm99.23 174.68v17.37h-4.66v-26.94c1.46 0 2.89-.04 4.3.04.34.02.73.44.93.77 1.26 2.08 2.47 4.19 3.68 6.28 2.12 3.6 4.22 7.22 6.33 10.83.03.04.14.03.35.07v-17.98c1.46 0 2.8-.06 4.12.06.24.01.58.76.6 1.19.04 4.21.02 8.43.02 12.65 0 3.98-.02 7.95.02 11.93 0 .88-.25 1.27-1.18 1.2a13.9 13.9 0 0 0-2.59 0c-1.18.16-1.7-.44-2.22-1.36-1.72-3.01-3.52-5.97-5.3-8.95l-4.19-7.17-.22-.01.01.01Zm-126.74-9.53h5.17v1.3c0 5.47.08 10.94-.03 16.41-.08 4.24 3.12 5.68 6.54 5.07 2.7-.48 3.47-2.11 3.53-4.79.13-5.51.04-11.02.04-16.54v-1.39h4.91c0 6.6.09 13.14-.02 19.67a7.78 7.78 0 0 1-7.84 7.5 45.4 45.4 0 0 1-5.74-.26c-3.08-.4-5.63-3-6.04-5.96-.3-2.18-.46-4.39-.5-6.58-.07-4.77-.02-9.55-.02-14.43Zm102.09 9.8v-9.74h4.84v26.87h-4.34v-2.69c-1 .78-1.8 1.45-2.63 2.07-2.83 2.1-7.15.82-8.94-1.75-2.52-3.58-2.67-7.5-1.67-11.55.84-3.48 3.2-5.47 6.7-5.93 1.9-.25 3.7.52 5.15 1.87l.9.84h-.01Zm.16 7.3c-.22-1.2-.31-2.44-.7-3.6a3.54 3.54 0 0 0-2.92-2.54c-1.55-.2-2.97.16-3.81 1.66-1.71 3.03-1.53 6.16-.03 9.12 1.07 2.13 4.1 2.28 5.65.7 1.51-1.53 1.65-3.36 1.8-5.34h.01Zm105.65-.03c-.2 4.32-1.75 7.72-5.68 9.49-4.85 2.18-11.6.19-13.04-6-.88-3.78-.54-7.42 2.16-10.53 1.3-1.5 3-2.35 4.91-2.74 3-.63 5.7.05 8.13 1.91 1.87 1.43 2.75 3.38 3.2 5.56.18.81.23 1.66.32 2.3v.01Zm-4.62.15c-.49-1.49-.75-2.87-1.37-4.07-1.17-2.26-4.43-2.56-6.36-.92-2.35 2.01-2.48 6.82-.88 9.09 2.03 2.84 5.2 2.78 7.02.32.89-1.2 1.07-2.9 1.58-4.42h.01Zm-51.87-3.89-4.2-.76a6.26 6.26 0 0 1 6.1-5.27c1.9-.01 3.86-.04 5.72.28 2.38.4 3.77 2.51 3.8 5.28v6.45c0 1.3-.12 2.61.03 3.9.14 1.24.56 2.45.88 3.8-1.34 0-2.68.03-4.01-.04-.28-.02-.64-.4-.8-.7-.2-.4-.23-.9-.36-1.41-1.57 1.19-3.08 2.31-5.16 2.45-2.21.13-4.23-.2-5.6-1.98a5.64 5.64 0 0 1-.76-5.87c.96-2.37 3.08-3.03 5.2-3.62 1.91-.54 3.89-.86 5.8-1.26.24-2.3-.17-3.15-1.67-3.58-2.3-.64-3.8.05-4.98 2.34Zm6.88 4.14c-2.03.6-3.85 1.06-5.6 1.7a2.07 2.07 0 0 0-1.27 2.5c.4 1.25 1.76 2.4 2.84 2.38 1.33-.02 3.33-1.33 3.63-2.62.28-1.2.26-2.46.4-3.95Zm-84.97 1.24c.3 2.26.83 4.25 3.23 4.84 2 .49 2.81-.08 4.31-2.62l4.45.8a7.05 7.05 0 0 1-6 5.47c-2.86.45-5.58.1-7.9-1.9-1.27-1.08-1.85-2.5-2.34-4.03a12.8 12.8 0 0 1 .85-10.03c1.56-3.18 5.57-4.8 9.23-3.9 3.87.94 5.78 4.06 6.2 7.21l.45 3.3c.12.9-.5.86-1.1.86h-11.39Zm.28-3.23h7.24c.63-2.14-1.71-4.67-3.53-4.58-2.28.1-3.86 1.88-3.71 4.58Zm138.25-7.91h4.3l.14 2.9c1.46-2.06 3.29-2.93 5.44-3.39 3.24-.68 6.73 1.98 6.78 5.26l.25 13.2v1.38h-4.92v-12.4c0-1.82-1.04-3.38-2.36-3.59-1.95-.3-3.89.77-4.44 2.53a7.21 7.21 0 0 0-.32 2.12c-.04 3.28-.01 6.56-.02 9.84 0 1.05-.55 1.57-1.64 1.58h-3.22v-19.43Zm-181.1 19.36h-4.83v-19.35h4.35v2.36c1.37-.84 2.66-1.81 4.1-2.46 2.78-1.23 7.3.1 8.02 3.62.16.78.38 1.57.4 2.34.03 4.46.01 8.92.01 13.46h-4.67c0-2.97.02-5.92-.01-8.87a46.3 46.3 0 0 0-.26-4.33c-.15-1.35-1.18-2.56-2.23-2.78-1.5-.32-3.5.42-4.11 1.7a7.33 7.33 0 0 0-.74 2.83c-.09 3.49-.04 6.98-.04 10.47v1l.01.01Z" fill="#fff"/><path d="M186.82 7.98c2.75 1.14 5.57 2.14 8.23 3.45a57.44 57.44 0 0 1 7.4 4.32c3.55 2.46 6.44 5.57 7.94 9.72 1.45 3.96 2.84 7.96 4.03 12.1l-1.25-.9c-.46-.31-.97-.56-1.37-.94-3.5-3.27-7.18-6.36-10.39-9.89-3.24-3.57-5.95-7.6-8.94-11.39-.8-1-1.72-1.93-2.63-2.85-1.07-1.1-2.19-2.16-3.3-3.23l.28-.39Zm45.71 229.02 4.65-.83c1.24 2.8 3.74 3.85 6.4 2.6a2.72 2.72 0 0 0 1.38-1.76c.1-.64-.48-1.27-1.39-1.51a70.1 70.1 0 0 1-7.1-2.18c-2.2-.83-3.61-3.14-3.38-5 .43-3.41 1.9-4.6 4.34-5.4 2.37-.77 4.78-.62 7.16-.02 2.1.53 3.72 2.14 4.45 4.56l-4.26.92c-1.68-2.35-3.38-3-5.82-2.07-.6.22-1.38.92-1.39 1.4 0 .5.77 1.25 1.34 1.44 2.04.7 4.14 1.23 6.23 1.76 3.06.77 4.92 3.02 4.57 5.96a5.95 5.95 0 0 1-4.75 5.39c-2.95.78-5.94.8-8.77-.63a6.85 6.85 0 0 1-3.66-4.65v.02Zm-171.34-227.5c-1.05 1.08-2.2 2.1-3.14 3.3a202.73 202.73 0 0 0-6.52 8.44c-2.55 3.55-4.9 7.25-8.2 10.2-2.03 1.81-4.2 3.48-6.32 5.2l-3.42 2.86c1.01-3.07 1.9-5.8 2.83-8.52 1.2-3.51 2.62-6.92 4.98-9.86a26.9 26.9 0 0 1 6.1-5.47c3.5-2.35 9.82-4.86 13.69-6.17v.01Zm2.14 213.36h3.08v3.9h-3.1c0 3.6-.03 7.08.01 10.56.02.99 1.02 1.6 2.02 1.36.42-.11.82-.3 1.3-.47.12 1.08.27 2.1.33 3.12.02.28-.2.78-.4.84-2.13.6-4.23 1.04-6.34-.22-1.23-.74-1.46-1.92-1.56-3.05-.21-2.24-.23-4.5-.28-6.75-.04-1.74 0-3.47 0-5.3l-2.16-.1v-3.8h2.16c0-1.12-.07-2.12.02-3.11.04-.4.31-.89.63-1.11 1.33-.92 2.73-1.74 4.3-2.73v6.87Zm109.9.06h3.4v3.82h-3.39v9.82c0 1.91.76 2.47 2.57 1.91l.74-.22.38 2.2c.17 1.11-.03 1.84-1.42 2.05-1.82.28-3.56.4-5.23-.53-1.54-.84-1.64-2.38-1.68-3.83-.08-3.2-.02-6.4-.02-9.61 0-1.15-.57-1.74-1.7-1.76-.2 0-.4-.02-.68-.04v-3.81h2.39c0-1.15-.06-2.23.02-3.3.03-.39.32-.86.64-1.08 1.25-.85 2.55-1.61 4-2.52v6.89h-.02Zm7.17.02h4.59v19.32h-4.6v-19.32Zm-132.02 0h4.53v19.37h-4.53v-19.37Zm131.92-3.07v-4.38h4.7v4.38h-4.7Zm-131.96 0v-4.45h4.56v4.45h-4.56Zm80.19-205.87c2.38.37 4.22-.97 6.21-1.86 2.53-1.13 4.87-.36 7.08.88.93.53.82 1.29-.08 1.9-1.52 1.01-3.23 1.03-4.97 1.06-1.47.02-2.94.04-4.37.28-1.4.24-3.61-.86-3.86-2.26h-.01Zm38.07 10.86c0 .67-.67 1.07-1.23.68-.5-.36-.9-.89-1.36-1.3-.4-.35-.89-.6-1.25-1-.26-.28-.37-.7-.54-1.05.34-.07.69-.16 1.03-.2.24-.01.48.05.72.06 1.94.06 2.69.86 2.63 2.8Z" fill="#fff"/></svg>