<svg viewBox="0 0 310 159" fill="none" xmlns="http://www.w3.org/2000/svg"><path d="M.28 61.14c.04-10.22 1.86-20.09 5.93-29.46a64.84 64.84 0 0 1 10.52-17.08c2.5-2.85 5.08-5.64 7.77-8.32a43.56 43.56 0 0 1 4.98-4.1c3.07-2.27 6.68-1.42 8.78 1.78 3.26 4.96 7.87 8.25 13.19 10.77 5.36 2.54 11.01 4.08 16.79 5.18 3.35.65 6.77.99 10.17 1.28 3.83.32 7.68.44 11.52.61 3.1.14 6.22.3 9.33.3 43.44.01 86.88-.04 130.32.07 4.92.02 9.88.7 14.75 1.47 4.55.7 9.07 1.74 13.5 2.98a75.7 75.7 0 0 1 16.1 6.73 67.68 67.68 0 0 1 15.1 11.1 63.5 63.5 0 0 1 6.7 7.78 88.4 88.4 0 0 1 6.26 10.06 60.72 60.72 0 0 1 5.77 16.37c1.2 5.78 2.14 11.64 1.9 17.6-.12 2.79.11 5.59-.06 8.36-.16 2.37-.62 4.72-1.04 7.06-.36 2-.8 3.99-1.3 5.95-.55 2.1-1.08 4.22-1.84 6.26a70.62 70.62 0 0 1-7.66 15.02 80.02 80.02 0 0 1-12.61 14.56 47.06 47.06 0 0 1-4.53 3.62c-2.96 2.08-6.44 1.51-8.45-1.5-4.46-6.7-10.83-10.67-18.35-12.99a199.5 199.5 0 0 0-12.73-3.49c-2.36-.56-4.83-.67-7.25-.97-10.94-1.34-21.94-.87-32.92-.88-39.62-.03-79.23.03-118.84-.06-4.4-.01-8.82-.52-13.18-1.18-5.03-.76-10.06-1.7-14.98-3-3.77-1-7.34-2.7-11.02-4.01-4.62-1.65-8.77-4.18-12.77-6.9a65.32 65.32 0 0 1-15.13-14.28c-4.46-5.8-8.06-12.1-10.13-19.13-1.36-4.59-2.5-9.25-3.53-13.92-.47-2.18-.49-4.47-.65-6.71-.17-2.31-.28-4.62-.4-6.93h-.01Zm60.34 4.48v31.12c0 2.46 1.47 3.77 3.88 3.95 2.81.2 4.18-1.87 4.18-3.94-.02-11.6 0-23.2-.01-34.8 0-2.34-1.53-3.84-3.83-3.84-7.2 0-14.42.1-21.62-.05-3.04-.07-4.33 1.98-4.34 4.33-.07 11.3-.05 22.61.01 33.92 0 1 .37 2.13.92 2.99 1.1 1.75 3.04 1.56 4.69 1.26 1.31-.24 2.27-1.29 2.42-2.8.06-.73.27-1.45.27-2.17.02-9.47.01-18.94.01-28.4v-1.57h13.42Zm199.95 25.51c.28.92.47 1.76.78 2.56.7 1.84 1.3 3.76 2.26 5.46 1 1.77 3.02 2.1 4.92 1.2a3.8 3.8 0 0 0 2.04-4.45 499.95 499.95 0 0 0-3.26-10.36c-2.57-7.95-5.15-15.9-7.76-23.83-1.4-4.26-7.08-4.92-9.9-2.27-1.6 1.51-1.93 3.58-2.55 5.45-1.98 5.9-3.7 11.88-5.56 17.82-1.26 4-2.7 7.95-3.85 11.99a6.37 6.37 0 0 0 .14 3.69c.62 1.71 2.12 2.4 4.01 2.28 1.73-.11 2.73-1.22 3.28-2.57.8-1.96 1.24-4.05 1.92-6.06.13-.38.68-.86 1.04-.87 4.16-.06 8.33-.04 12.5-.04Zm-41.8-5.07c.25.23.43.34.53.5 2.29 3.8 4.6 7.58 6.83 11.4 1.03 1.75 2.3 3.1 4.49 2.97 1.86-.1 3.08-1.24 3.66-2.93.65-1.86-.38-3.43-1.28-4.89-2.86-4.62-5.82-9.18-8.71-13.78-.2-.32-.28-.93-.1-1.2 2.52-4.1 5.18-8.1 7.64-12.23a10.84 10.84 0 0 0 1.64-4.57c.12-1.73-1.62-3.13-3.5-3.54-1.51-.33-3.11.37-4.1 1.95-1.45 2.29-2.8 4.64-4.2 6.96l-2.83 4.7c-2.28-3.78-4.46-7.33-6.57-10.93-1.42-2.42-2.98-3.12-5.71-2.36-1.67.46-2.97 3.01-2.22 4.58a60.7 60.7 0 0 0 2.9 5.53c2 3.32 4.16 6.55 6.2 9.86.21.35.22 1.05.01 1.4-1.4 2.28-2.9 4.51-4.34 6.78-1.81 2.87-3.78 5.66-5.3 8.67-1.03 2.02-.53 4.84 2.23 5.73 2.1.67 4.03-.2 5.27-2.28 2.44-4.08 4.93-8.13 7.47-12.31Zm-135.18-20.51c4.5 0 8.81.01 13.13-.02.82 0 1.66-.12 2.46-.3 1.5-.35 2.76-2.19 2.57-3.63-.28-2.04-1.68-3.49-3.4-3.5-6.12 0-12.23.13-18.34-.05-2.82-.08-4.46 1.5-4.47 4.33-.02 11.26-.08 22.51.04 33.76.03 3.07 1.01 4.37 4.15 4.46 6.26.18 12.52.08 18.78.04 2.23-.02 4.06-1.8 3.82-3.78-.26-2.1-1.32-3.63-3.96-3.64-4.38-.02-8.75 0-13.12 0h-1.55v-10.12c3.8 0 7.47.03 11.14-.02 2.07-.02 3.88-1.43 3.68-4.1-.15-1.97-1.51-3.31-3.68-3.32h-9.84c-.84.01-1.45-.06-1.43-1.16.04-2.91.01-5.83.01-8.96Zm62.92 21.71c1.83 0 3.42-.03 5 .01 3.05.09 5.9-.56 8.58-2.04 6.97-3.81 8.6-10.87 6.8-16.94-1.85-6.29-7.68-10.27-14.34-10.19-3.37.04-6.75 0-10.13 0-2.57 0-3.96 1.36-3.96 3.89v34.49c0 2.6 1.52 4.17 4.01 4.17 2.67 0 4.04-1.42 4.04-4.2v-9.19Zm39.01-9.13-1.15-2.43c-2.47-5.16-4.91-10.33-7.46-15.45-.56-1.11-1.46-2.02-2.94-2.17-3.63-.35-5.4 2.95-4.09 5.9 1.28 2.84 2.63 5.66 4 8.47 2.2 4.52 4.5 9 6.66 13.54.32.66.5 1.68.22 2.28-1.86 3.86-1.33 4.6-6.04 4.35h-.3c-1.9.04-3.77 1.61-4.04 3.4-.25 1.62.98 3.85 2.73 4.16 2.1.37 4.35.62 6.43.3 4.02-.63 6.16-3.66 7.74-7.09 3.4-7.4 6.76-14.83 10.12-22.26 1.15-2.56 2.32-5.12 3.35-7.74a3.9 3.9 0 0 0-2.04-4.99 3.8 3.8 0 0 0-5.1 1.72c-1.8 3.68-3.38 7.45-5.05 11.2l-3.04 6.8Zm-61.38-12.58c2.07 0 3.95.03 5.83-.02.92-.02 1.89-.03 2.74-.33 1.69-.57 2.75-1.7 2.47-4.12-.19-1.58-1.6-2.96-3.11-2.97a8262 8262 0 0 0-24.29 0c-1.36 0-2.3.7-2.72 1.98-.94 3 .23 5.27 3.94 5.44 2.22.1 4.44.02 6.8.02v1.75c0 9.61-.01 19.22.01 28.84 0 .76.13 1.56.37 2.29.58 1.72 2.15 2.32 3.68 2.41 1.44.1 3.01-.42 3.64-1.97.42-1 .61-2.16.62-3.25.05-7.53.02-15.07.02-22.6v-7.47Zm146.25.89c2.81.34 4.31-2.17 4.36-4.37.04-2.42-2.37-4.71-4.42-4.5-2.26.22-4.48 1.15-4.26 4.7.16 2.66 1.57 4.17 4.32 4.17Z" fill="#fff"/><path d="m254.04 68.06 4.34 15.25h-8.88l4.27-15.25h.27Zm-107.42-2.51c2.28 0 4.47-.14 6.64.03 2.67.21 5.11 1.75 5.66 5.2.4 2.62.35 5.3-1.97 7.35a6.45 6.45 0 0 1-3.98 1.66c-2.08.13-4.16.03-6.35.03v-14.27Zm126.64-3.35c-.1 2.48-.96 3.17-3.8 3.05-1.18-.05-2.53-1.83-2.45-3.22a3.41 3.41 0 0 1 3.66-3.33c1.83.1 2.68 1.25 2.59 3.5Zm-4.85-2.3c.45 1.57-.67 3.28 1.09 4.82l.34-2.1 2.22 1.87.37-.3c-.43-.91-.92-1.77-.44-2.86.1-.26-.68-1.17-1.2-1.38-.64-.24-1.44-.05-2.38-.05Z" fill="#fff"/></svg>