<svg viewBox="0 0 498 184" fill="none" xmlns="http://www.w3.org/2000/svg"><g clip-path="url(#a)" fill="#fff"><path d="M228.77 147.5c.91 3.53-.25 6.4-2.37 9.1-4.02 5.13-7.96 10.33-11.93 15.5-.5.65-.94 1.33-1.7 2.4.96-.3 1.58-.36 2.03-.67 3.62-2.58 7.48-4.9 10.75-7.88 8.02-7.3 16.2-14.32 25.67-19.68 1.98-1.12 3.86-1.11 5.65.28 1.73 1.34 1.63 2.46-.34 3.4-5.74 2.73-11.4 5.69-15.86 10.3-4.1 4.24-7.77 8.94-11.56 13.49-.7.84-1.1 1.94-1.88 3.36 1.22-.1 2.03-.02 2.74-.25 5.26-1.76 10.2-4.06 14.25-8.1a23.6 23.6 0 0 1 5.28-3.76c.56-.31 1.66.36 2.5.58-.2.78-.19 1.74-.66 2.29-2.37 2.77-4.87 5.44-7.78 8.65 1.09-.26 1.62-.26 2-.5 4.03-2.53 8.03-5.11 12.05-7.68 1.5-.96 2.9-2.13 4.52-2.77 1.06-.41 2.41-.03 3.63 0l-.4 3.38c1.64-.88 3.49-2.04 5.47-2.87.92-.38 2.1-.13 3.18-.16-.18.9-.12 1.95-.57 2.65-1.82 2.8-3.83 5.47-5.74 8.2-.78 1.12-1.59 2.22-2.24 3.42-1.08 1.97-4.74 3.58-7.87 3.17.93-4.64 5.37-6.8 7.4-10.78-6.83 2.16-10.65 9.18-17.48 10.95l-.7-.66 1.22-4.55c-2.54 1.43-4.93 2.72-7.27 4.1-1.24.73-2.36 1.34-3.77.27-1.37-1.03-.95-2.25-.64-3.52l.43-1.9c-3.69 1.95-7.04 3.87-10.53 5.5-1.2.56-3.3 1.03-3.92.43-.85-.84-.96-2.75-.89-4.16.1-1.67.73-3.3 1.22-5.33l-2.5 1.35c-4.6 2.53-9.22 5.09-13.84 7.6-1.67.92-3.19.75-4.12-1.05-.85-1.63-.9-3.09.7-4.57 3.86-3.6 7.66-7.27 11.26-11.13 1.52-1.62 2.5-3.77 3.37-6.1-.62.38-1.26.71-1.87 1.12-6.84 4.54-13.64 9.11-20.5 13.61-10.09 6.63-21.28 9.3-33.2 9.23a7.44 7.44 0 0 1-3.24-.87c-2.4-1.22-2.76-4.06-.75-5.8 2.44-2.13 5.21-2.83 8.35-1.67 7.87 2.93 15.46 2.7 22.92-1.56 8.93-5.1 17.36-10.83 24.46-18.4 3.46-3.69 7.48-6.48 12.42-7.77.47-.12.94-.26 1.42-.3.38-.04.78.07 1.24.11Zm-40.95-23.4v3h-187.76v-3h187.76Zm306.65-.05v3.1h-186.33v-3.1h186.33Zm-345.8-16.02c3.34-.34 3.48-2.69 3.49-5.1.03-7.36.08-14.72.06-22.08-.02-4.55-.06-4.55-4.46-5.52.4-.24.6-.47.82-.47 7.52.13 15.06-.01 22.56.5 7.55.52 12.86 5 14.56 11.36 2.5 9.39-2.95 18.5-12.75 20.82-3.11.74-6.4.9-9.62.94-4.45.07-8.9-.2-13.35-.33-.44-.02-.88-.08-1.31-.12Zm31.21-15.28c.04-10.5-9.91-18.22-20.22-15.6-.54.14-1.3 1.02-1.3 1.56a779.7 779.7 0 0 0 .17 24.23c.02.98 1.16 2.4 2.11 2.78 9.67 3.94 19.2-2.56 19.24-12.98Zm168.99-3.85c0-3.83.1-7.33-.03-10.8-.1-2.7-2.47-2.27-4.16-3h13.79c-4.2.38-3.54 3.56-3.55 6.31-.01 6.62-.02 13.25.03 19.87.04 5.22.07 5.22 4.71 6.6h-14.21c3.75-.34 3.43-3.23 3.5-5.76.09-3.5.02-7.02.02-10.72h-18.63c0 3.01-.02 6.07 0 9.14.02 1.14.18 2.28.17 3.42-.02 2.19.83 3.42 3.16 3.31.48-.02.97.21 1.4.7h-14.28c4.39-.66 3.46-4.12 3.5-6.93.1-6.46.06-12.92.05-19.38-.01-4.9-.02-4.9-4.7-6.64h14.14c-3.93.2-3.39 3.2-3.42 5.62-.03 2.66.2 5.33.31 8 2.5.08 4.99.21 7.48.24 3.53.03 7.08 0 10.73 0l-.01.01Zm35.82-14.83c1.98.29 4.18.43 6.28.94 7.17 1.75 11.54 6.5 12.45 13.32.95 7.08-2.25 14.02-8.32 17.5-6.55 3.74-13.46 3.94-20.33 1.08-6.68-2.79-10.61-9.85-9.84-16.98.84-7.74 6.07-13.52 13.77-15.1 1.89-.39 3.84-.5 5.98-.76Zm12.17 19.14c.06-5.31-1.19-9.25-3.68-12.23-5.57-6.63-16.5-6.12-20.14.95-3 5.8-2.02 15.02 2.28 19.9 3.66 4.15 8.36 5.6 13.65 4.26 4.76-1.22 6.77-5 7.6-9.54.23-1.28.23-2.6.28-3.34Zm-137.06-18.16c-3.6.26-3.31 3-3.37 5.43-.17 8.33-.3 16.68-.47 25-.02 1.03-.17 2.05-.27 3.07l-.7.43-26.41-24.82c0 3.91-.05 7.7.01 11.49.04 2.6.25 5.22.32 7.84.06 2.4.9 3.95 3.58 3.82.26-.01.53.2.74.64h-12.19c4.56-.3 3.88-3.77 3.94-6.66.17-8.08.28-16.18.42-24.26.01-.88.1-1.75.2-3.52l27.26 26.06c0-3.16.02-5.9 0-8.62-.03-3.1-.1-6.21-.15-9.32-.06-3.36-1.55-5.55-4.48-6.57h11.56v-.01Zm-227.06-.13c2.8 0 5.08-.03 7.37 0 3.71.06 7.44.01 11.14.3 3.25.26 5.94 1.74 7.13 5.05 1.19 3.32.2 6.26-1.98 8.86-1.04 1.24-2.16 2.41-3.49 3.9 5.16 4.88 8.4 12.27 16.22 14.85-3.92.07-8.11 1.32-11.4-2.02a57.1 57.1 0 0 1-6.88-8.22c-1.9-2.84-4.14-3.88-7.42-3.03 0 3.47-.13 7.02.1 10.56.05.72 1.39 1.45 2.25 1.98.52.32 1.28.24 1.88.81h-13.74c4.04-.48 3.48-3.58 3.5-6.24.04-7.28.04-14.55.01-21.83-.01-3.6-.07-3.6-3.7-4.28-.18-.04-.33-.23-.98-.7h-.01Zm10.42 2.47c0 4.45-.03 8.76.03 13.08 0 .48.27 1.16.64 1.4 1.88 1.18 6.24.44 7.7-1.22 2.12-2.44 2.4-7.42.6-10.39-1.7-2.8-5.08-3.95-8.97-2.87Zm250.82 99.17c-2.23 2.05-4.27 4.1-6.5 5.9-.62.5-1.83.25-2.76.34.24-.83.26-1.87.77-2.46a760.7 760.7 0 0 1 12.9-14.32c1.23-1.34 2.6-1.92 3.13.23 2.2-.56 4.32-1.31 6.5-1.61 1.6-.23 2.3.72 1.75 2.49-.96 3.13-3.03 4.82-6.4 5.53l.96-3.67c-3.69.04-5.94 2.55-5.34 5.93.31 1.82 1.38 1.97 3.05 1.4 5.9-1.96 11.74-4.55 17.8-5.4 8.05-1.12 16.29-.83 24.45-1.1 2.14-.06 3.86.84 4.37 3.09.32 1.33-1.9 3.13-4.22 3.3-1.32.1-2.89.04-4-.57-7.42-4.12-15.1-4.11-22.76-1.27-6.42 2.4-12.62 5.4-18.98 8.02-1.22.5-2.95 1.01-3.93.5-.75-.38-.77-2.36-.94-3.66-.12-.87.07-1.78.13-2.69l.02.02Zm-276.84-68.59h-14.28c3.97-.3 3.44-3.32 3.47-5.85.08-7.03.1-14.06.08-21.1-.03-4.65-.08-4.65-4.24-5.67.04-.13.09-.4.12-.4 5.9.05 11.81-.05 17.7.25 3.56.18 6.41 2 7.34 5.74.92 3.76-.43 6.96-3.24 9.45a9.93 9.93 0 0 1-9.41 2.23l1.68-.38c3.95-.93 6.11-4.33 5.56-8.75a7.52 7.52 0 0 0-7.62-6.77c-1.45.01-2.05.52-2.04 2 .1 8.18.07 16.35.22 24.53.06 3.59.2 3.58 3.67 4.05.24.03.48.07.7.17.1.04.13.24.29.5Zm185.06-16.81c0 4.3-.01 7.96.02 11.63.01 1.74.94 2.8 2.66 2.89 2.02.1 4.18.47 6.02-.1 1.64-.52 2.92-2.17 4.44-3.36-.19 1.37-.33 3.17-.71 4.9-.1.44-.9 1.03-1.39 1.03-6.84.07-13.68.05-20.77-.24 4.09-.45 3.58-3.48 3.62-6.02.1-6.96.22-13.91.06-20.86-.12-5.4.16-4.64-4.3-6h22.23l-.54 5.89c-1.15-4.35-4.58-3.54-7.53-3.67-1.2-.06-2.38-.01-3.7-.01v12.12l11.04-.6-.6 6.1c-2.1-5.75-6.82-2.39-10.53-3.7h-.01Zm240.64 16.29c3.76.22 3.8-2.34 3.82-4.73.07-7.85.03-15.7.06-23.56 0-2.28-.9-3.57-3.31-3.5-.34.02-.68-.18-.98-.71h22.24l-.68 6.05c-2.25-6.14-7.31-2.73-11.13-4.04v12.36l11-.57c-.15 1.72-.34 3.95-.55 6.18-2.1-5.9-6.88-2.46-10.58-3.73 0 4.25-.05 7.99.03 11.72.04 1.72 1.08 2.72 2.8 2.77 1.94.07 4.02.45 5.79-.11 1.65-.53 2.99-2.1 4.5-3.25-.17 1.3-.3 3.09-.7 4.81-.12.46-1.07 1.02-1.65 1.02-6.77.07-13.54.05-20.32.05l-.35-.77v.01Zm-350.37-5.47c-.23 1.68-.4 3.48-.76 5.26-.07.38-.8.9-1.23.9-6.74.07-13.47.05-20.35-.25 3.07-.6 3.09-2.9 3.1-5.08.07-7.92-.03-15.86.08-23.78.05-3.2-2.16-3.3-4.31-4.03h22.21l-.58 5.9c-.86-3.86-3.79-3.58-6.51-3.64-1.52-.04-3.05 0-4.86 0 0 3.67-.04 7.16.05 10.64 0 .45.67 1.24 1.03 1.24 3.26-.03 6.52-.2 10.1-.34l-.55 6.14c-2.08-5.81-6.85-2.48-10.46-3.74 0 4.35-.13 8.32.1 12.28.05.77 1.37 1.98 2.22 2.1 2.22.28 4.63.5 6.73-.1 1.48-.4 2.58-2.2 4-3.5h-.01Zm184.76-24.78c-3.3.17-6.4.1-9.4.61-1.33.23-2.46 1.65-3.95 2.73.4-2.07.79-4.07 1.13-5.9h30.68v6.93c-2.85-6.24-7.98-3.28-12.1-4.48-.12.92-.26 1.54-.26 2.16 0 7.35-.01 14.7.04 22.06.04 5.07.08 5.07 4.63 6.58h-14.24c3.86-.14 3.45-3.05 3.46-5.52.06-8.24.03-16.48.03-25.18h-.02Zm152.77 30.83c-.6.04-1.21.1-1.83.1-4.09.01-8.18 0-12.49-.25 4.06-.43 3.6-3.45 3.61-6 .08-8.07.03-16.15.03-24.72-4.5 1.04-9.63-1.76-13.41 3.3l1.15-5.82h30.66v6.95c-2.81-6.29-7.98-3.28-12.17-4.54-.08 1.02-.2 1.72-.2 2.4 0 7.28 0 14.56.04 21.84.03 5.06.06 5.06 4.62 6.74Zm-311.42-26.13c-2.69-4.7-4.63-6.1-8.5-5.59-1.93.26-3.6 1-4.35 3.04-.76 2.05 0 3.74 1.47 5.07 1.43 1.31 3.08 2.39 4.57 3.64 1.81 1.5 3.77 2.9 5.3 4.66 4.82 5.6 2.57 13.53-4.57 15.24-3.34.8-7.03.23-10.55.07-1.73-.08-2.43-1.3-2.21-3.1.23-1.82.27-3.65.96-5.51.15.47.32.94.43 1.41 1.11 4.97 6 7.31 10.54 5.03 3.06-1.53 3.94-4.95 1.77-7.85-1.1-1.48-2.64-2.62-4.05-3.84-1.9-1.64-4.05-3.05-5.74-4.88-5.35-5.81-3.17-13.05 4.54-14.56 2.93-.58 6.1-.02 9.15.12.43.02 1.18.57 1.2.92.12 2.04.06 4.1.06 6.15l-.02-.01Zm353.94 25.5c4.45.33 4.02-2.57 4.05-5.05.08-7.03.11-14.06.09-21.09-.02-4.56-.08-4.56-4.34-6.24h14.38c-5.1.14-3.99 3.94-4 6.93-.04 6.54 0 13.08.07 19.62.05 3.22.87 3.96 4.1 4.15.57.03 1.13.03 1.7.04 5.5.1 5.53.07 8.49-4.15-.25 1.78-.34 3.62-.8 5.33-.17.57-1.3 1.2-2.01 1.22-7.04.1-14.07.06-21.1.06l-.63-.82Zm-325.72-89.85c1.05 3.5 2.06 6.8 3.07 10.12l-.4.24c-2.6-2.06-5.17-4.13-7.88-6.29l-8.55 6.84c.91-2.96 1.46-5.38 2.4-7.62 1.02-2.43.65-4.03-1.65-5.42-1.9-1.16-3.55-2.7-5.8-4.44h10.33l3.27-10.99c1.01 3.45 1.95 6.25 2.64 9.1.36 1.5 1.05 1.93 2.51 1.86 2.58-.13 5.17-.04 8.5-.04-3.09 2.42-5.7 4.47-8.44 6.64Zm101.67 4.07-8.53 6.82c1.03-3.44 1.79-6.3 2.79-9.07.52-1.44.2-2.24-.97-3.07-2.17-1.56-4.26-3.25-6.9-5.28h10.32l3.03-10.2h.5c.73 2.54 1.58 5.04 2.16 7.6.43 1.89 1.18 2.76 3.27 2.54 2.4-.24 4.84-.05 7.94-.05-1.98 1.56-3.5 2.79-5.06 3.98-2.27 1.76-2.96 4.04-2.09 6.86l2.02 6.64c-3.17-2.53-5.75-4.6-8.5-6.78l.02.01Zm53.45.03-8.56 6.76c.97-3.12 1.58-5.65 2.54-8.05.83-2.08.59-3.4-1.41-4.63-2.02-1.24-3.8-2.9-6.24-4.81 3.36 0 6-.09 8.62.03 1.38.06 2.01-.37 2.35-1.74a44 44 0 0 1 2.93-8.37c.76 2.61 1.6 5.2 2.24 7.84.4 1.7 1.1 2.43 2.96 2.28 2.49-.2 5-.04 8.27-.04-2.49 1.93-4.4 3.6-6.5 4.97-1.75 1.14-2.06 2.32-1.3 4.24.96 2.48 1.62 5.08 2.6 8.28l-8.5-6.76Zm39.71-10.72c3.48 0 6.14-.06 8.8.03 1.27.04 1.87-.33 2.2-1.63a49.09 49.09 0 0 1 2.95-8.56c.76 2.59 1.67 5.14 2.21 7.77.42 2.03 1.36 2.6 3.33 2.44 2.4-.2 4.83-.05 7.96-.05-2.56 1.98-4.58 3.66-6.72 5.15-1.39.98-1.88 1.9-1.2 3.64 1.01 2.63 1.7 5.4 2.72 8.71l-8.51-6.78-8.55 6.79c1.06-3.48 1.81-6.3 2.8-9.03.52-1.41.26-2.22-.92-3.06-2.21-1.59-4.34-3.3-7.06-5.4l-.01-.02Zm-138.72 16.99-7.87-6.28-8.54 6.8c.99-3.24 1.64-5.93 2.64-8.5.75-1.9.27-2.97-1.33-4.04-2.05-1.38-3.95-3-6.43-4.9h10.37l3.27-10.98c.88 2.98 1.83 5.24 2.18 7.58.44 2.93 1.87 3.7 4.6 3.38 2.03-.25 4.13-.05 6.9-.05-2.54 1.99-4.45 3.71-6.59 5.08-1.74 1.1-1.88 2.23-1.2 4.03.95 2.48 1.62 5.07 2.4 7.62l-.4.27v-.01Zm-75.73 47.08h13c-4.03.5-3.43 3.61-3.45 6.26-.04 6.7-.05 13.4.02 20.1.06 5.15.14 5.15 4.75 6.5h-14.25c4.23-.38 3.49-3.63 3.5-6.34.06-6.79.07-13.57.03-20.36-.01-2.66.8-5.95-3.61-6.16Zm157.69 96.95 1.56-3.13-.63-.87-5.18 1.88c1.24 1.86 2.04 3.17 2.95 4.41 1.26 1.72 1.3 3.59-.23 4.84-2.14 1.75-4.5 3.5-7.04 4.4-2.2.78-4.8.45-7.21.44-.57 0-1.33-.6-1.62-1.15-.16-.3.41-1.09.78-1.55.4-.5.96-.88 1.43-1.33 1.4-1.35 2.67-1.55 4.5-.38.93.6 2.62 0 3.97-.05-.18-1.03-.2-2.1-.55-3.06-.48-1.24-1.99-2.66-1.67-3.48a12.3 12.3 0 0 1 3.49-5.1 14.32 14.32 0 0 1 9.69-3.24c1.92.06 2.58 1.04 2.14 2.9-.79 3.37-3.56 5.27-6.36 4.47h-.02Z"/><path d="M258.58 156.61c.24.38 1.02 1.08 1.07 1.83.14 2.28-1.83 4.56-3.74 4.11-1-.24-2.19-1.6-2.44-2.67-.37-1.48 2.33-3.3 5.12-3.26l-.01-.01Z"/></g><defs><clipPath id="a"><path fill="#fff" transform="translate(.056)" d="M0 0h497v184h-497z"/></clipPath></defs></svg>