<svg viewBox="0 0 373 68" fill="none" xmlns="http://www.w3.org/2000/svg"><g clip-path="url(#a)" fill="#fff"><path d="M37.26 41.12h-26.13v-11.52h26.13c1.52 0 2.58.3 3.12.81.53.52.86 1.48.86 2.88v4.14c0 1.48-.33 2.43-.86 2.95s-1.6.74-3.12.74Zm1.8-22.38h-39v49.26h11.07v-16.03h20.42l9.69 16.03h12.4l-10.67-16.1c3.94-.66 5.7-2 7.16-4.22 1.46-2.21 2.19-5.76 2.19-10.49v-3.69c0-2.8-.27-5.02-.73-6.72a11.54 11.54 0 0 0-2.4-4.5 10.63 10.63 0 0 0-4.1-2.73c-1.6-.52-3.6-.82-6.04-.82v.01Zm30.1 34.71v-34.72h-11.1v34.42c0 2.8.2 5.1.66 6.8a9.97 9.97 0 0 0 2.46 4.5 8.77 8.77 0 0 0 4.05 2.73c1.6.6 3.59.81 6.11.81h25.76c2.46 0 4.46-.22 6.05-.8a9.21 9.21 0 0 0 4.12-2.74 10.65 10.65 0 0 0 2.39-4.5c.46-1.7.73-4 .73-6.8v-34.42h-11.1v34.72c0 1.48-.33 2.43-.86 2.96-.54.52-1.6.73-3.12.73h-22.17c-1.6 0-2.66-.22-3.2-.73-.53-.53-.79-1.48-.79-2.96Zm81.44 14.55v-38.4h20.95v-10.87h-52.96v10.86h20.96v38.41h11.05Zm40.25-14.55v-34.72h-11.1v34.42c0 2.8.2 5.1.66 6.8a9.97 9.97 0 0 0 2.46 4.5 8.77 8.77 0 0 0 4.05 2.73c1.6.6 3.59.81 6.1.81h25.77c2.46 0 4.45-.22 6.05-.8a9.21 9.21 0 0 0 4.12-2.74 10.63 10.63 0 0 0 2.38-4.5c.47-1.7.74-4 .74-6.8v-34.42h-11.1v34.72c0 1.48-.33 2.43-.86 2.96-.53.52-1.6.73-3.13.73h-22.16c-1.6 0-2.67-.22-3.19-.73-.53-.53-.8-1.48-.8-2.96Zm60.54 3.69v-8.86h26.26c1.53 0 2.6.3 3.13.81.53.52.86 1.48.86 2.88v1.48c0 1.48-.33 2.43-.86 2.96-.53.52-1.6.73-3.13.73h-26.26Zm0-18.69v-8.86h23.6c1.59 0 2.65.3 3.18.82.54.52.8 1.47.8 2.88v1.47c0 1.48-.27 2.44-.8 2.96s-1.6.73-3.19.73h-23.6Zm38.62-5.39v-.95c0-4.58-1.06-7.98-3.19-10.12-2.12-2.15-5.52-3.26-10.04-3.26h-36.5v49.27h39.1c4.52 0 7.92-1.03 10.05-3.18 2.13-2.14 3.19-5.54 3.19-10.11v-1.04c0-4.58-1.07-7.83-3.2-9.75-.39-.3-.79-.52-1.2-.73-.39-.23-1.4-.52-2.13-.81a7.55 7.55 0 0 0 3.06-3.4c.54-1.34.86-3.33.86-5.92Zm19.36-3.46h39.99v-10.87h-51.07v49.27h51.07v-10.86h-39.99v-8.35h34.9v-10.86h-34.9v-8.34Zm54.17-10.87c4.7 0 8.52-4.19 8.52-9.36 0-5.18-3.81-9.37-8.52-9.37-4.7 0-8.5 4.2-8.5 9.37 0 5.17 3.8 9.36 8.5 9.36Z"/></g><defs><clipPath id="a"><path fill="#fff" transform="translate(.056)" d="M0 0h372v68h-372z"/></clipPath></defs></svg>