<svg viewBox="0 0 427 137" fill="none" xmlns="http://www.w3.org/2000/svg"><g clip-path="url(#a)" fill="#fff"><path d="M255.78 98.3c.95.03 1.22-.22 1.22-1.15-.02-18.39-.02-36.78 0-55.17 0-.79-.2-1-1.01-1-4.97.04-9.94.05-14.9 0-.97 0-1.1.27-1.1 1.1.03 11.68.02 23.37.02 35.06v1.77c-.55-.17-.71-.51-.95-.78l-18.89-22c-1.52-1.78-2.84-3.77-4.6-5.29-1.76-1.53-3.4-3.19-5.4-4.52a32.14 32.14 0 0 0-10.07-4.37c-1.2-.3-2.42-.46-3.67-.58-2.1-.2-4.2-.34-6.33-.36-.7 0-1.27.17-1.22 1.06.08 1.52.14 3.04.14 4.56v47.75c-.16.18-.24.36-.3.55a1.18 1.18 0 0 0 .27 1.05l.01.53c0 .18 0 .37-.04.55-.15.93.2 1.24 1.22 1.23 4.79-.05 9.58-.02 14.38 0 1.63 0 1.63.01 1.56-1.6-.02-.33-.02-.65-.02-.99l-.03-33.48c0-.66-.12-1.35.1-2.08.17.12.27.17.33.24l8.37 9.56c1.6 1.84 3.1 3.76 4.78 5.54 2.54 2.7 4.77 5.65 7.27 8.38 1.63 1.78 3.14 3.66 4.77 5.44.59.64 1.1 1.35 1.75 1.9.96.82 1.99 1.57 3.05 2.25 1.25.81 2.57 1.52 3.87 2.27 1.04.6 2.22.86 3.36 1.23a23.6 23.6 0 0 0 5.34 1.27c2.22.16 4.48 0 6.72.07Zm-195.72-56.04a63.13 63.13 0 0 0-10.13-1.9c-3.3-.34-6.6-.7-9.9-.64-2.7.04-5.38.13-8.07.46-3.18.38-6.32.9-9.4 1.82-3.46 1.05-6.74 2.47-9.47 4.8a13.58 13.58 0 0 0-4.36 6.63c-.68 2.36-.8 4.72-.15 6.95 1.3 4.43 4.77 7.15 8.92 9.16a32.47 32.47 0 0 0 7.03 2.63c2.48.55 4.94 1.2 7.43 1.7 2.98.6 5.96 1.14 8.95 1.7 3.2.62 6.43 1.22 9.57 2.1 1.06.3 2.1.63 3.06 1.18 2.85 1.65 2.83 4.74-.08 6.32a18.4 18.4 0 0 1-7.9 1.93c-3.31.17-6.65.23-9.99-.13-3.35-.37-6.7-.75-9.87-1.86-4.32-1.5-8.2-3.68-11.21-7.1-.5-.56-1.15-.84-1.68-.4-1.43 1.19-3.27 1.65-4.78 2.74-1.67 1.2-3.64 2-5.4 3.12-.72.45-1.48.9-2.16 1.44-.15.12-.57.2-.34.49a19.96 19.96 0 0 0 2.86 3.14 38.21 38.21 0 0 0 8.24 5.44c2.09.95 4.15 1.98 6.4 2.55 2.33.6 4.63 1.31 6.99 1.7 3.45.57 6.92 1.05 10.44 1.1 3.54.06 7.07.23 10.61-.04 3.72-.29 7.38-.8 10.97-1.8 3.05-.85 6.06-1.86 8.71-3.57 4.08-2.63 6.86-6.17 7.61-10.91.78-4.95-.93-9-5.07-12.07-3.5-2.6-7.58-4-11.77-5.17a91.97 91.97 0 0 0-9.17-2c-2.54-.42-5.04-1.1-7.6-1.52a69.67 69.67 0 0 1-9.97-2.24 8.34 8.34 0 0 1-3.13-1.66c-1.43-1.31-1.41-2.81.07-4.06a7.02 7.02 0 0 1 2.12-1.2c2.98-1.12 6.13-1.32 9.27-1.54 2.04-.14 4.11-.12 5.46.11 2.93.06 5.06.58 7.2 1.04 3.4.72 6.5 2 9.11 4.27 1.27 1.1 1.3 1.05 2.71.22l10.62-6.28c.47-.28.9-.5.32-1.1a28.52 28.52 0 0 0-13.07-7.54v-.01Zm365.44 54.39-10.98-20.38c-1.61-3.01-3.18-6.05-4.77-9.07-4.45-8.36-8.91-16.7-13.33-25.08-.45-.84-.95-1.25-1.95-1.23-3.26.07-6.52 0-9.79.3-2.06.2-3.91.9-5.68 1.83-3.19 1.7-5.05 4.6-6.63 7.53-1.44 2.68-2.77 5.43-4.16 8.15-2.4 4.69-5 9.27-7.47 13.92-4.4 8.32-8.6 16.75-13.5 24.84-.47.76-.03.81.58.81l16.66.03c.45 0 .75-.1.94-.57 1.4-3.5 3.2-6.81 4.88-10.17a1085 1085 0 0 1 4.24-8.34c1.16-2.25 2.1-4.62 3.26-6.88 1.25-2.44 2.48-4.89 3.74-7.32 1.56-3.01 2.79-6.19 4.54-9.12.15-.25.21-.66.56-.63.34.02.36.44.5.7.73 1.48 1.48 2.97 2.19 4.47 3.39 7.08 7.04 14.04 10.23 21.2.1.25.4.5.07.78-.27.22-.58.18-.84 0-2.51-1.76-5.38-2.97-7.91-4.7-2.41-1.65-5.17-2.75-7.61-4.35-.63-.42-1.27-.85-2.34-1.07 1.62 1.93 3.13 3.6 4.5 5.38 2.03 2.68 4.35 5.15 6.33 7.87 1.17 1.62 2.59 3.1 3.77 4.7 1.72 2.31 4.08 3.8 6.53 5.22 1.39.8 2.93 1.3 4.49 1.77 2 .6 4.09 1.16 6.13 1.12 3.91-.06 7.83.02 11.75-.07 1.88-.04 1.9-.02 1.03-1.63l.04-.01Zm-265.68-12.57c-1.7-3.11-3.5-6.19-5.18-9.3-1.57-2.93-3.1-5.88-4.63-8.82-1.65-3.17-3.36-6.32-5.04-9.48-.74-1.42-1.33-2.93-2.25-4.23-.97-1.36-1.59-2.9-2.33-4.33-1.01-1.95-1.92-3.95-3.07-5.84-.25-.4-.15-1.08-.88-1.14l-.02-.04-.02.03a23 23 0 0 0-1.66-.05c-1.1 0-2.2.04-3.3.08l-1.66.06c-2.3.04-4.54.36-6.73 1.14a16.35 16.35 0 0 0-3.68 1.82 18.34 18.34 0 0 0-6.03 6.8c-.9 1.7-1.77 3.39-2.68 5.07-2.07 3.84-4.16 7.68-6.21 11.54-1.57 2.95-3.08 5.93-4.64 8.89a1252.5 1252.5 0 0 1-6.11 11.43c-1.72 3.19-3.49 6.36-5.25 9.53-.15.28-.57.52-.44.82.18.4.67.22 1.03.23 4.35 0 8.7.08 13.03-.05 1.93-.06 3.9-.11 5.76-.8 3.23-1.21 6.4-2.48 8.77-5.07 1.26-1.37 2.23-2.97 3.48-4.32 2.47-2.69 4.45-5.74 6.94-8.42 1.35-1.45 2.57-3.05 3.87-4.56.64-.74 1.1-1.62 1.65-2.45-1.06.31-1.85.97-2.73 1.41-3.04 1.52-5.84 3.44-8.93 4.9-2.04.95-3.82 2.34-5.7 3.54-.35.22-.7.56-1.21.25.18-.33.36-.63.52-.95l5.5-11.2 7.05-14.35c.17-.34.27-.88.67-.88.44 0 .51.56.67.91 1.64 3.62 3.63 7.08 5.33 10.68 2.32 4.93 4.89 9.75 7.29 14.64 2.56 5.25 5.35 10.4 7.67 15.75.34.8.73 1.02 1.57 1.02 5.35-.03 10.69-.04 16.03-.01.87 0 1.03-.16.63-.92-2.38-4.43-4.68-8.88-7.08-13.29v-.04Zm158.86 13.09c-.04-14.23-.02-28.46-.05-42.7 0-.9.25-1.16 1.2-1.16 8.58.03 17.18 0 25.76.03.8 0 1.62.23 2.38-.18-.18-.58-.62-.86-1.12-1.1a61.73 61.73 0 0 1-5.16-2.87c-2.8-1.73-5.69-3.31-8.5-5.03a22.08 22.08 0 0 0-11.57-3.13c-14.03-.07-28.07-.04-42.1-.04-.31 0-.62.05-.92.08l-.04.03a132.73 132.73 0 0 1 .01 11.2c-.03.81.2 1.08 1.08 1.07 6.45-.04 12.9-.03 19.35-.04.24 0 .63.06.7-.04.4-.68.63-.04.9.1.47.25.25.7.25 1.07 0 14.23.02 28.47-.02 42.7 0 .94.3 1.15 1.21 1.14a1321 1321 0 0 1 15.42 0c.9 0 1.22-.17 1.22-1.13Zm-20.73-71.37c2.22.85 4.5 1.5 6.71 2.4 1.05.43 2 1.28 3.48 1.17-1.31-.73-2.48-1.36-3.63-2.02-6.32-3.65-12.66-7.29-18.97-10.96-5.67-3.29-11.3-6.63-16.96-9.92-3.51-2.04-7.1-3.94-10.46-6.2a1.57 1.57 0 0 0-1.79 0c-2.13 1.32-4.32 2.54-6.46 3.83-3.25 1.96-6.62 3.73-9.85 5.74-1.65 1.02-3.35 1.96-5.03 2.94-6.3 3.65-12.6 7.32-18.93 10.95-2.77 1.59-5.43 3.34-8.36 4.68-.24.12-.58.25-.5.65.51.12 1-.08 1.39-.27 4.18-2.04 8.67-3.3 13.04-4.86 2.97-1.06 6.02-1.91 9.06-2.8 3.73-1.12 7.5-2 11.3-2.84 1.75-.4 3.54-.6 5.32-.9 1.38-.24 2.8-.21 4.16-.4a55.1 55.1 0 0 1 5.47-.51c2.11-.06 4.2.36 6.3.5 1.81.13 3.63.38 5.4.68 2.47.41 4.93.91 7.37 1.49 3.3.78 6.56 1.66 9.8 2.58 4.12 1.19 8.17 2.56 12.15 4.08v-.01Zm93.85 92.59c-.33-.36-2.55-.06-2.83.36a141.8 141.8 0 0 1-6.32 8.77c-.34.43-.86.7-1.06 1.22-.56 1.52-1.66 2.75-2.48 4.13-.1.16-.22.26-.41.25-.3-.04-.23-.28-.23-.46 0-.49.12-.96.12-1.43.06-4.01.01-8.01.08-12.02.01-1.1-.67-.9-1.35-.96-.76-.07-.96.24-.95.92.04 1.68.04 3.36.04 5.05v11.38c0 .45-.07.98.37 1.26.6.38 2.14-.08 2.57-.7l7.98-11.52c.75-1.07 1.55-2.1 2.43-3.3.17 1.14-.1 2.03-.1 2.93-.06 3.83 0 7.66-.04 11.49 0 .84.36.96 1.1.96.79 0 1.2-.1 1.2-1.01-.06-3.8.04-7.6-.12-11.38l.05-.02-.06-.02c.04-1.7.08-3.43.1-5.14 0-.25.1-.55-.1-.76Zm31.42 4.31c-.03-1.52-.05-3.05-.06-4.58a1.9 1.9 0 0 1-1.44.13c-.8-.27-1.09.13-1.43.65-.57.9-1.18 1.75-1.76 2.63-1.23 1.87-2.75 3.55-4.05 5.36-1.34 1.87-2.56 3.8-3.83 5.72-.13.2-.24.43-.55.32-.31-.1-.16-.4-.16-.6 0-1.28.09-2.55.14-3.83.11-3.13 0-6.27.03-9.4 0-1.16-.86-.73-1.46-.82-.74-.13-.8.25-.8.84v15.84c0 1.9 0 1.89 1.99 1.77.46-.02.74-.17.96-.58.27-.52.61-1.01.95-1.5l8.78-12.54c.17-.23.28-.62.77-.55-.02 1.82-.31 3.61-.25 5.43.08 2.84.01 5.67.03 8.51 0 .4-.2 1.06.25 1.13.6.1 1.34.4 1.9-.22l.05-.01-.03-.03c.06-2.27.08-4.55.06-6.82-.01-2.28-.04-4.56-.09-6.84Zm-196.79-4.53a7.62 7.62 0 0 0-6.18 4.21 8.42 8.42 0 0 0-.9 4.89 8.98 8.98 0 0 0 .5 4.11c1.72 4.8 6 6.1 10.7 5.2 1.61-.32 3-1 4-2.21 3.07-3.68 3.12-7.82 1.38-11.92-1.9-4.44-5.63-4.69-9.5-4.28Zm7.04 13.98c-.97 1.8-2.62 2.61-4.66 2.74-1.2.07-2.39.14-3.53-.37a5.34 5.34 0 0 1-3.28-4.34c-.1-.68-.34-1.36-.35-2.02-.07-2.34.24-4.67 2.01-6.47 1.9-1.94 4.36-2.02 6.81-1.34 2.29.63 3.3 2.39 3.78 4.52.2.87.17 1.75.19 2.86a8.34 8.34 0 0 1-.96 4.41h-.01Zm68.33-12.72c0-.97-.31-1.2-1.3-1.2-4.1.02-8.2-.02-12.3-.09-.86-.01-1.04.27-1.03 1.03.05 2.74.02 5.47.02 8.22v8.21c0 1.1 0 1.03 1.67 1.13 1.02.06.8-.55.8-1.06 0-4.85.02-9.71-.01-14.56 0-.68.17-.89.9-.87 2.62.04 5.24.04 7.87 0 .8-.02 1.02.17 1.02.98-.05 4.85 0 9.7-.05 14.56-.01 1.1.7.87 1.36.92.72.05 1.07-.13 1.06-.91-.03-5.45-.05-10.9-.01-16.35v-.01Zm-202.17-1.19c-2.8.04-5.59-.01-8.38-.02-1.68 0-3.37 0-5.05.02l-.03-.04v.05c-.14.2-.14.42-.13.64l.01.22c0 5.52.04 11.03-.02 16.54-.02 1.5 1 .95 1.73 1.06 1.08.18.76-.6.76-1.08a1703 1703 0 0 0 0-14.56c0-.63.15-.84.84-.83 2.7.04 5.38.03 8.07 0 .67-.01.89.15.87.82-.05 2.44-.03 4.88-.03 7.33 0 2.52.02 5.02 0 7.53 0 1.1.84.7 1.4.77.62.08.94-.1.94-.8-.03-5.58-.03-11.16-.01-16.74 0-.67-.17-.91-.94-.9l-.03-.01Zm260.85 1.04c0-.65-.05-1.1-.91-1.01-.7.07-1.53-.3-1.5.96.09 2.2.03 4.41.03 6.63l-.06.01v.07c-1.95.14-3.9.07-5.85.09-.39 0-.78 0-1.17.02-.78.03-1.55.08-2.33.16-.71.08-.66-.4-.66-.82 0-2.08-.02-4.16.04-6.22.01-.73-.27-.98-.95-.88-.58.1-1.46-.4-1.45.79.04 2.6 0 5.2 0 7.8-.07.03-.21.05-.22.09v.1c.03.07.13.08.22.06v4.35c0 1.45 0 2.9-.02 4.36 0 .78.32.96 1.04.88.66-.07 1.4.15 1.38-.93-.05-2.28 0-4.55-.04-6.83 0-.7.18-.99.98-.97 2.68.05 5.37.05 8.06.03.8 0 1.08.28 1.06 1.06-.05 2.21-.01 4.42-.05 6.63-.02.71.1 1.12 1 1.03.77-.08 1.43.03 1.41-1.11-.06-5.44-.04-10.88-.01-16.32v-.03Zm-230.21-1.06c-4.2.04-8.4.05-12.61.02-.82 0-1.03.2-1.02.97.03 5.45.02 10.89.02 16.33 0 1.22.23 1.4 1.49 1.15.22-.05.42-.2.63-.3h.03l-.03-.02c.01-.08.04-.15.06-.22a.95.95 0 0 0 .04-.25l-.02-7.92v-6.83c0-.38-.16-.9.6-.88 3.1.07 6.19-.16 9.29.08l-.02.04h.05l.03.4c-.14 5.01-.08 10.03-.03 15.04 0 .65.15.99.91.9.65-.07 1.42.17 1.42-.9l.01-16.73c0-.6-.13-.87-.87-.86l.02-.02Zm75.4 17.23a158.15 158.15 0 0 0-7.08-7.49c-.63-.62-.59-.99 0-1.6 2.33-2.38 4.82-4.63 7.01-7.15.23-.26.58-.47.49-.84-1.62-.43-2.78.11-3.74 1.37-.86 1.1-1.9 2.08-2.9 3.1-1.3 1.33-2.63 2.63-4 4-.24-.45-.14-.81-.15-1.16 0-2.15-.08-4.3.02-6.44.06-1.27-.79-.9-1.46-.96-.76-.08-1.07.1-1.06.93.04 5.48.05 10.97 0 16.44 0 .91.32 1.13 1.19 1.1.78-.03 1.37 0 1.34-1.07-.08-2.64-.03-5.28-.03-8.15 2.7 2.87 5.3 5.5 7.76 8.26.88 1 1.88.9 2.95.9.49 0 .4-.3.23-.54-.17-.24-.38-.47-.57-.7Zm125.96-.38c-1.27-3.09-2.55-6.16-3.8-9.25-.9-2.24-1.77-4.5-2.65-6.74-.18-.45-.39-.91-1-.8-.55.1-1.24-.38-1.64.42-.7 1.42-.94 3.06-2.18 4.22-.5 2.8-1.88 5.28-2.87 7.9-.63 1.67-1.55 3.22-2.03 4.94-.09.32-.38.7.1.92.71.33 1.96-.24 2.25-.96.54-1.36 1.15-2.68 1.6-4.06.26-.78.7-.95 1.44-.88 1.93.18 3.86.07 5.8.03.65-.02 1 .19 1.24.77.55 1.38 1.13 2.75 1.7 4.13.26.62.6 1.13 1.35.99 1.23 0 1.29-.06.92-1.09l-.24-.54Zm-5.44-6.24-4.85.01c-.71.01-.74-.38-.52-.83.82-1.65 1.43-3.38 2.14-5.08.28-.65.23-1.42.87-2.07.95 2.55 1.84 5.03 2.79 7.5.2.5-.1.47-.43.47Zm-164.99 6.85c-.2-.45-.36-.92-.55-1.36-.72-1.73-1.48-3.44-2.17-5.17-1.35-3.37-2.68-6.73-4-10.11-.23-.62-.65-.8-1.34-.8-.72 0-1.1.19-1.37.86-.9 2.23-1.89 4.43-2.82 6.64-1.44 3.4-2.85 6.79-4.27 10.18-.1.24-.21.52.05.72.5.37 2.11-.16 2.35-.77.58-1.47 1.19-2.94 1.74-4.43.2-.52.5-.72 1.06-.7 2.1.07 4.2.1 6.3.13.55 0 .81.22 1 .67.56 1.35 1.18 2.66 1.67 4.03.29.83.78 1.18 1.65 1.12.5 0 .77-.04.87-.18.04-.07.05-.18.02-.31-.03-.13-.1-.31-.2-.52Zm-5.78-6.9c-1.65 0-3.3.03-4.94.06h-.17c-.37-.1-.41-.34-.26-.6.9-1.6 1.39-3.38 2.15-5.04.24-.53.46-1.1.48-1.7a.4.4 0 0 1 .36-.4c.27-.05.33.21.4.38.83 2.22 1.63 4.45 2.47 6.67.18.5.06.63-.48.63Zm-115.77-10.13c-2.43-.5-4.9-.36-7.35-.46-.7-.02-.93.18-.92.88.05 2.8.02 5.61.02 8.41v8.41c0 .48.02.92.69.79.57-.12 1.4.45 1.6-.67.34-1.94.12-3.87.16-5.8 0-.6.16-.86.82-.78 1.04.13 2.07.06 3.1-.08 3.69-.52 6.16-2.13 5.86-6.3a4.67 4.67 0 0 0-3.97-4.41v.01Zm-.65 8.34c-1.46.5-2.97.64-4.52.6-.53-.01-.63-.19-.62-.63.02-1.05 0-2.1 0-3.16 0-.92.05-1.84-.02-2.76-.06-.78.28-.96 1-.95 1.3.01 2.6.07 3.86.4 1.39.35 2.39 1.44 2.43 2.62.08 2.41-.4 3.3-2.13 3.88Zm32.76-8.76c-1.17-.1-1.78.3-2.22 1.35-1.28 3.1-2.66 6.18-4.01 9.26-.12.27-.23.65-.54.68-.37.03-.4-.4-.53-.65-1.69-3.2-3.39-6.4-5.05-9.6-.37-.7-.75-1.28-1.57-1-1.64 0-1.65.02-.95 1.28 2.14 3.83 4.27 7.66 6.44 11.47.38.68.37 1.22-.06 1.83a4.59 4.59 0 0 1-2.5 1.91c-1.12.34-2.14 0-3.2-.08-.18-.02-.34-.27-.5.04-.35.72.13 1.72.9 2.01.8.3 1.54-.02 2.3 0 2.47.1 3.94-1.22 5.03-3.11 1.15-2 2.04-4.1 3.03-6.16 1.34-2.79 2.64-5.58 3.97-8.36.3-.62.24-.8-.55-.87h.01Zm-54.46.84c.1-.4.18-.82-.58-.82-3.1 0-6.2-.03-9.3-.1-.78-.02-.88.29-.87.92.03 2.77.01 5.54.01 8.3v8.42c0 .28-.14.72.14.83.54.2 1.16.12 1.73 0 .48-.1.41-.53.41-.9 0-4.74.03-9.5-.02-14.24-.02-1.03.32-1.28 1.34-1.24 2.17.07 4.33 0 6.5.02 1.11.02.54-.76.64-1.19Zm398.4-2.15a7.2 7.2 0 0 0 2.62-.47 3.26 3.26 0 0 0 2.34-2.62c.06-.28.19-.67-.2-.89-.6-.33-1.54.03-1.85.69-.63 1.36-2.05 1.9-3.62 1.53-1.06-.27-1.67-.79-1.77-1.84-.01-.15 0-.37-.22-.37-.58 0-1.3-.25-1.69.13-.36.34-.17.95.07 1.46.85 1.83 2.56 2.14 4.32 2.38Zm-144.56 1.28v.05l-.55-.04-.9-.06h-.71c-.24 0-.48.02-.72.06-.03-.07-.05-.22-.07-.22l-.12.02a.21.21 0 0 0-.11.04c-.05.03-.08.08-.08.18-.41.64-.63 1.36-.87 2.08-.1.3-.2.6-.32.9-1.16 2.75-2.22 5.55-3.4 8.3-.55 1.24-.79 2.62-1.62 3.87-.2-.38-.38-.64-.5-.95-1.6-4.07-3.2-8.16-4.83-12.23-.27-.67-.25-1.49-.93-2a.52.52 0 0 0-.1-.24c-.01-.02-.03-.02-.04-.02-.1 0-.2.18-.3.24l-1.6.01c.07-.23-.07-.27-.25-.25-.16 0-.21.1-.16.25a2.52 2.52 0 0 0-.32-.05c-.46-.03-.65.18-.68.53 0 .15 0 .31.04.5.05.26.04.53.04.79 0 5.24.03 10.48.02 15.72 0 .72.2 1.06 1.05 1.03.77-.03 1.2-.12 1.18-1.01-.05-4.19-.04-8.37-.05-12.55v-.07l-.06-1.02a.67.67 0 0 0 .08-.28c.02-.3-.06-.6.2-.85.02.17 0 .34.06.49l5.85 14.42c.25.58.6.84 1.3.87 1.15.04 1.06-.83 1.3-1.41 1.85-4.55 3.67-9.11 5.52-13.66.07-.2.1-.45.52-.55v1.17l-.02 13.26c0 1.22.24 1.4 1.5 1.15.22-.05.42-.2.62-.31h.04l-.04-.02.06-.21a.9.9 0 0 0 .04-.25l.07-16.89c0-.25.08-.53-.14-.75v-.05.02Z"/></g><defs><clipPath id="a"><path fill="#fff" transform="translate(.056)" d="M0 0h426v137h-426z"/></clipPath></defs></svg>