<svg xmlns="http://www.w3.org/2000/svg" viewBox="0 0 1203.34 200" style="enable-background:new 0 0 1203.34 200" xml:space="preserve"><path d="M10.69 79.93v-14.86c2.85 1.2 5.66 1.8 8.44 1.8 2.55 0 4.54-.65 5.97-1.97a6.4 6.4 0 0 0 2.14-4.9c0-.67-.07-1.35-.22-2.02a25.6 25.6 0 0 0-1.46-4.22c-.22-.49-.58-1.22-1.07-2.19l-.96-1.91-23.53-49.55h19.48l18.12 42.22 17.79-42.22h18.8l-27.02 58.99c-3.83 8.41-7.65 14.28-11.48 17.62-3.83 3.34-8.89 5.01-15.2 5.01-3.53 0-6.79-.6-9.8-1.8zm141.07-79.82v80.16h-17.56v-65.18h-32.76v65.18h-17.57v-80.16h67.89zm17.45 0h34.56c9 0 16.15 2.16 21.44 6.47s7.94 10.75 7.94 19.31c0 8.41-2.63 14.77-7.88 19.08-5.25 4.32-12.12 6.47-20.6 6.47h-18.01v28.82h-17.45v-80.15zm17.45 14.41v23.08h15.65c9.15 0 13.73-3.83 13.73-11.48 0-7.73-4.54-11.59-13.62-11.59l-15.76-.01zm99.18-14.52 30.51 80.27h-18.46l-6.3-17.9h-29.83l-6.53 17.9h-18.03l30.51-80.27h18.13zm1.46 49.53-10.58-29.83-10.69 29.83h21.27zm37.49-49.42h37.94c7.5 0 13.64 1.67 18.41 5.01 4.76 3.34 7.15 8.39 7.15 15.14 0 3.75-.97 7.07-2.93 9.96a18.44 18.44 0 0 1-7.99 6.58c9.75 2.79 14.63 9.32 14.63 19.6 0 7.58-2.55 13.45-7.65 17.62-5.1 4.16-11.59 6.25-19.48 6.25h-40.08v-80.16zm17.11 13.62v18.8h15.99c8.85 0 13.28-3.11 13.28-9.34 0-3.68-1.2-6.17-3.6-7.49-2.4-1.31-5.63-1.97-9.68-1.97h-15.99zm0 30.74v21.84h17.67c4.58 0 8.2-.75 10.86-2.25s4-4.39 4-8.67c0-4.35-1.41-7.26-4.22-8.72-2.81-1.46-6.66-2.19-11.54-2.19l-16.77-.01zm130.14-44.36v80.16h-17.56v-65.18h-21.5l-1.13 34c-.75 21.84-8.18 32.76-22.29 32.76-3.9 0-7.2-.45-9.91-1.35v-14.19c1.8.9 3.86 1.35 6.19 1.35 2.78 0 4.91-1.26 6.42-3.77 1.5-2.51 2.36-7.52 2.59-15.03l1.35-48.75h55.84zm77.11 0v14.41h-42.67v17.45h39.18v13.85h-39.18v19.7h43.45v14.75h-60.9v-80.16h60.12zm82.52 0v80.16h-17.56v-34.56h-32.76v34.56h-17.56v-80.16h17.56v30.17h32.76v-30.17h17.56zm85.23 0v80.16h-17.56v-55.62h-.34l-30.17 55.61h-19.81v-80.15h17.56v55.5h.34l30.17-55.5h19.81zm77.45 0v14.41h-42.67v17.45h39.18v13.85h-39.18v19.7h43.45v14.75h-60.9v-80.16h60.12zm-715.77 167.02c-.9 10.06-4.43 18.05-10.58 23.98s-14.6 8.89-25.33 8.89c-11.63 0-20.99-3.84-28.09-11.54-7.09-7.69-10.64-17.88-10.64-30.56 0-12.01 3.58-21.99 10.75-29.95 7.17-7.95 16.72-11.93 28.65-11.93 9.53 0 17.52 2.7 23.98 8.1a28.92 28.92 0 0 1 10.69 20.6h-17.21c-.9-4.43-2.91-7.86-6.02-10.3-3.11-2.44-7.04-3.66-11.76-3.66-4.88 0-8.99 1.37-12.33 4.11a22.06 22.06 0 0 0-7.04 10.07 40.42 40.42 0 0 0-2.03 13.06c0 8.26 1.91 14.84 5.74 19.76 3.83 4.92 8.97 7.37 15.42 7.37 10.73 0 16.85-6 18.35-18.01l17.45.01zm81.51-49.2v80.16h-17.56v-65.19h-32.76v65.18h-17.57v-80.16h67.89zm53.58-1.91c11.71 0 21.18 3.88 28.43 11.65 7.24 7.77 10.86 17.92 10.86 30.45 0 12.53-3.62 22.65-10.86 30.34-7.24 7.69-16.76 11.54-28.54 11.54-11.86 0-21.43-3.84-28.71-11.54-7.28-7.69-10.92-17.8-10.92-30.34 0-12.68 3.62-22.87 10.86-30.56 7.25-7.7 16.87-11.54 28.88-11.54zm-.22 14.41c-6.6 0-11.88 2.48-15.82 7.43-3.94 4.95-5.91 11.59-5.91 19.93 0 8.63 1.95 15.39 5.85 20.26 3.9 4.88 9.27 7.36 16.1 7.43 6.68 0 11.93-2.48 15.76-7.43 3.83-4.95 5.74-11.71 5.74-20.26 0-8.4-1.95-15.07-5.85-19.98-3.9-4.93-9.19-7.38-15.87-7.38zm53.47-12.5h34.56c9 0 16.15 2.16 21.44 6.47 5.29 4.31 7.94 10.75 7.94 19.31 0 8.41-2.63 14.77-7.88 19.08-5.25 4.32-12.12 6.47-20.6 6.47h-18.01v28.82h-17.45v-80.15zm17.45 14.41v23.08h15.65c9.15 0 13.73-3.83 13.73-11.48 0-7.73-4.54-11.59-13.62-11.59l-15.76-.01zm118.88-14.41v14.97h-24.09v65.18h-17.67v-65.18h-24.09v-14.97h65.85zm50.89-.11 30.51 80.27h-18.46l-6.3-17.9h-29.83l-6.53 17.9h-18.03l30.51-80.27h18.13zm1.46 49.53-10.58-29.83-10.69 29.83h21.27zm138.59-49.42v80.16h-17.56v-55.61h-.34l-30.17 55.61h-19.82v-80.16h17.56v55.5h.34l30.17-55.5h19.82zm109.99 0v14.97h-24.09v65.18h-17.67v-65.18h-24.09v-14.97h65.85zm14.74 79.82v-14.86c2.85 1.2 5.66 1.8 8.44 1.8 2.55 0 4.54-.65 5.97-1.97a6.4 6.4 0 0 0 2.14-4.9c0-.67-.08-1.35-.22-2.02a25.6 25.6 0 0 0-1.46-4.22c-.22-.49-.58-1.22-1.07-2.19l-.96-1.91-23.53-49.53h19.48l18.12 42.22 17.79-42.22h18.8l-27.02 58.99c-3.83 8.41-7.65 14.28-11.48 17.62-3.83 3.34-8.89 5.01-15.2 5.01-3.53-.02-6.8-.62-9.8-1.82zm73.29-79.82h34.56c9 0 16.15 2.16 21.44 6.47 5.29 4.31 7.94 10.75 7.94 19.31 0 8.41-2.63 14.77-7.88 19.08-5.25 4.32-12.12 6.47-20.6 6.47h-18.01v28.82h-17.45v-80.15zm17.45 14.41v23.08h15.65c9.15 0 13.73-3.83 13.73-11.48 0-7.73-4.54-11.59-13.62-11.59l-15.76-.01zm127.21-14.41v80.16h-17.56v-55.61h-.34l-30.17 55.61h-19.81v-80.16h17.56v55.5h.34l30.17-55.5h19.81zm78.24 55.5c0 7.73-3 14.07-9 19.02-6 4.95-13.51 7.43-22.52 7.43-10.88 0-19.38-2.49-25.5-7.49-6.12-4.99-9.21-12.03-9.29-21.11h17.45c.15 5.1 1.8 8.89 4.95 11.37 3.15 2.48 7.28 3.71 12.38 3.71 4.05 0 7.37-1.22 9.96-3.66a12.07 12.07 0 0 0 3.88-9.17c0-7.5-5.03-11.26-15.08-11.26h-6.08v-11.93c.9.07 2.48.11 4.73.11 9.68 0 14.52-3.64 14.52-10.92 0-3.08-1.09-5.46-3.26-7.15-2.18-1.69-5.1-2.53-8.78-2.53-4.35 0-7.84 1.03-10.47 3.09-2.63 2.06-4.09 5.01-4.39 8.84h-16.66c.15-8.48 3.19-14.86 9.12-19.14 5.93-4.28 13.43-6.42 22.51-6.42 8.25 0 15.07 2.05 20.43 6.13 5.36 4.09 8.05 9.44 8.05 16.04 0 3.98-1.12 7.45-3.38 10.41a14.88 14.88 0 0 1-8.78 5.68c4.43.68 8.07 2.74 10.92 6.19 2.87 3.49 4.29 7.73 4.29 12.76zm13.96 24.66v-80.16h25.1l18.69 55.05 18.24-55.05h24.54v80.16h-16.55v-56.96l-19.7 56.96h-13.62l-19.93-56.4v56.4h-16.77zm143.77-80.27 30.51 80.27h-18.46l-6.3-17.9h-29.83l-6.53 17.9h-18.01l30.51-80.27h18.11zm1.46 49.53-10.58-29.83-10.69 29.83h21.27z" style="fill:#fff"/></svg>