<svg viewBox="0 0 344 126" fill="none" xmlns="http://www.w3.org/2000/svg"><path d="M144.32 125.32h-66.47v-124.98h66.47v124.98Zm-17.35-79.44h13.86v-23.27s-5.08.08-12.46.02c-2.74-.02-5.48 0-8.22 0h-38.82v23.25h14.35v53.09h31.28v-53.1Zm45.04 44.95-15.11-.24v-62.6h15.4v35.36c-.53-.21.54.2 0 0l25.85-35.36 15.49.12v62.72h-15.5v-34.1c-.6-.28.61.3 0 0m145.29 68.69h-115.82v-125.04h115.82v125.05-.01Zm-113.65-26.27h28.44c1.32-12.18 4.42-24.06 5.7-35.85l13.68 35.66h15.68l14.2-36.3 5.67 36.3h28.35l-10.77-76.33c-10.1 0-19.5.1-28.26-.04l-16.9 40.71-16.58-40.69h-28.44m-240.16 102.59v-125.05h71.4v125.04h-71.4Zm66.64-73.47c0-14.48.32-23.74.32-23.74-2.98-2.74-11.54-5.6-24.06-5.38-15.17.27-28.12 6.52-34.01 20-5.39 12.32-6.07 26.43 1.8 39.72 10.4 17.58 40.42 19.96 56.26 14.22v-24.16c-5.62 4.13-19.34 10.95-30.6-3.27-2.78-3.5-2.24-11.53.04-15.7 7.35-13.47 26.9-8.8 30.25-1.7Z" fill="#fff"/></svg>