<svg viewBox="0 0 447 109" fill="none" xmlns="http://www.w3.org/2000/svg"><path d="M384.37.93a42.13 42.13 0 0 1 42.15 42.28 42.2 42.2 0 0 1-42.18 42.27 42.2 42.2 0 0 1-42.15-42.3 42.14 42.14 0 0 1 42.18-42.25Zm-25.79 67.35c-1.36 1.35-2.21 3.67-1.42 4.69 1.3 1.68 2.82 3.35 5.03 3.77 3.12.62 6.1-.09 9.02-1.28 3.99-1.62 8.02-3.17 12.35-3.6 2.8-.28 3.96-1.78 3.37-4.53-.34-1.6-.79-3.24-.78-4.86 0-2.91-1.25-4.98-3.51-6.63a21.85 21.85 0 0 1-3.06-2.65c-1.42-1.52-1.26-3.43.1-5 .35-.4.45-1.13.43-1.7-.03-.69-.12-1.28.7-1.5.96-.28 1.19-.93 1.12-1.85-.03-.4.15-1.08.45-1.24 1.47-.79 1.5-.74.84-2.21-.79-1.79-.35-2.56 1.6-2.62a10.28 10.28 0 0 0 8.03-3.84 14.08 14.08 0 0 1 9.75-5.31c4.53-.42 8.28 1.37 11.8 4 11.17 8.36 10.65 25.01-2.78 32.05-1.9 1-3.97 1.4-6.11 1.34-1.82-.04-2.25.32-2.14 2.16.21 3.45 2.21 5.74 5.02 7.43.25.16.9-.04 1.18-.27a41.47 41.47 0 0 0 9.9-11.73c4.3-7.53 5.34-15.66 4.47-24.12a38.1 38.1 0 0 0-5.47-16.57c-.23-.38-.52-.72-.74-1.04l-6.98 4.03.95 2.29-.28.3c-1.62-1.51-3.67-1.93-5.67-2.5l2.89-1.3c-1.3-2.04-2.4-3.92-3.63-5.73-1.43-2.1-1.47-2.05-3.76-1.03-1.7.76-3.45 1.48-5.23 2.24l2.3 6.99c-.6.23-1.1.4-1.68.63l-2.31-6.82-9.6 1.33c0 2.28-.02 4.63.06 6.99 0 .22.62.6.94.59 1.6-.06 3.2-.23 4.8-.37l3.2-.3c-.8 1.2-1.6 2.17-3.06 2.24-1.65.1-3.27.34-4.92.43-.74.05-1.08.27-1.02 1.05.05.65 0 1.31 0 1.9-1.37.44-1.78.03-1.73-1.21.08-2.41.02-4.82.02-7.22v-4.02c-1.09 0-2.02-.06-2.93.02-1.23.12-1.7-.54-1.95-1.63l4.87.27c0-2.18.04-4.12-.04-6.05 0-.29-.48-.7-.81-.8-1.05-.28-2.19-.33-3.21-.68-.85-.3-1.2-.08-1.56.65-.68 1.39-1.45 2.74-2.22 4.16l-1.3-.7 2.62-4.66c-1.21-.8-2.27-1.56-3.38-2.21-.22-.13-.73.02-.98.2-1.02.75-2.08 1.47-2.98 2.36-.94.92-1.8.84-2.93.08l5.2-4.28c-.32-.4-.52-.67-.74-.92-1.48-1.72-.96-1.72-3.07-.7-14.44 6.95-22.05 18.57-23.3 34.46-.02.3.06.6.09.9 2.23-1.44 4.32-2.85 6.49-4.14 2.2-1.31 2.83-2.74 2.38-5.29-.35-1.99-.7-4.01-.67-6.01.05-5.69 3.63-10.08 9.11-11.47 6.2-1.58 15.18 3.47 17.05 9.59.96 3.15 0 5.9-1.86 8.43-.75 1.03-1.34 2.09-.99 3.39.24.9.11 1.53-.8 1.97-.25.12-.34.6-.48.92-.14.33-.3.65-.34 1-.16 1.25-1.39 1.5-2.06 2.27-1.1 1.27-2.45 1.56-4 1.26-1.25-.23-2.47-.61-3.72-.75-1.83-.2-2.8 1.01-2.53 2.8.66 4.22 1.3 8.43 1.84 12.65.16 1.22.66 2 1.75 2.38.75.26 1.54.42 2.33.54 1.5.21 3 .41 4.52.48a3.9 3.9 0 0 0 1.74-.53c.76-.36 1.43-.93 2.2-1.22 1.28-.46 1.68-.15 1.74 1.28.57-.17 1.15-.5 1.67-.44.5.06 1.29.44 1.41.84 1.04 3.43-2.53 7.27-5.98 6.31a8.86 8.86 0 0 0-4.68 0c-.94.23-1.9.43-2.86.53-3.06.33-6.18 1.37-9.05-.67l-.03.01Zm58.44-48.59c-1.78-2.82-3.77-5.08-6.4-6.71-.3-.19-.87-.33-1.1-.17-1.46.99-2.86 2.06-4.22 3.05l5.08 7.81 6.63-3.98h.01Zm-31.98.36 9-1.35c-1.17-2.3-2.16-4.3-3.2-6.26-.14-.25-.7-.45-1-.4-1.34.2-2.66.46-3.97.77-.31.08-.79.44-.8.68-.06 2.1-.03 4.2-.03 6.56Zm17.49-4.64.15-.54c-2.09-1.8-4.17-3.62-6.27-5.4-.18-.15-.6-.21-.77-.1-1.13.69-2.22 1.44-3.28 2.16l3.34 6.75 6.83-2.87Zm6.24-4.06v-.58c-2.56-1.45-5.07-2.96-7.68-4.31-1.87-.98-1.97-.86-3.26.84-.43.56-.38.88.13 1.35 1.9 1.74 3.73 3.55 5.62 5.29.23.21.82.37 1.04.23 1.4-.88 2.77-1.86 4.14-2.81h.01Zm-19.12-.9-4.2-5.88-.3.17v6.46l4.5-.74Zm-6.4-5.93-4.25 5.97 4.24.67v-6.64Zm11.24 3.33-6.45-3.72-.25.35 2.31 3.28c1.62 2.28 1.66 2.29 3.95.61.1-.07.16-.18.44-.52Zm-4.76-4.76-.14.41 6.3 3.43 1.81-2.13-7.97-1.72v.01Zm-15 4.8-.06.41c.77.41 1.51.86 2.3 1.2.21.1.69-.05.83-.24 1.07-1.48 2.1-2.99 3.37-4.83l-6.45 3.46h.01Zm4.02-4.48-.1-.36c-2.47.5-4.93 1-7.4 1.52l-.16.51c.7.47 1.62 1.48 2.06 1.3 1.94-.8 3.75-1.95 5.61-2.97Zm-109.75 72.89c-.9 6.03-3.22 11.05-7.68 14.95a25.16 25.16 0 0 1-11.26 5.5 37.28 37.28 0 0 1-17.19.06c-8.38-2.05-14.16-7.25-17.12-15.28-3.99-10.85-4.07-21.9.04-32.72 4.62-12.13 15.1-18.4 28.29-17.48 5.22.36 10.17 1.57 14.56 4.56 5.74 3.9 8.76 9.55 10.21 16.18 1 4.54.88 9.14.89 13.75 0 .64-.24.94-.9.9-.33-.02-.67 0-1 0-13.6 0-27.19.02-40.78-.03-1.28 0-1.67.34-1.7 1.62-.07 4.63.56 9.1 2.83 13.21 2.73 4.98 6.98 7.62 12.64 7.68 2.16.03 4.4-.23 6.5-.78 4.95-1.29 7.47-4.9 8.63-9.66.6-2.45.6-2.46 3.1-2.46h9.95Zm-27.4-17.75c4.9 0 9.8-.02 14.7.02.85 0 1.25-.23 1.16-1.14-.07-.89-.04-1.78-.12-2.66-.69-7.46-4.5-13.73-13.13-14.81-4.16-.52-8.1.05-11.51 2.7-4.72 3.67-6.42 8.8-6.84 14.53-.08 1.06.24 1.39 1.3 1.38 4.82-.05 9.63-.02 14.44-.02Zm-198.26 28.55c-.09.24-.13.49-.27.7-4.56 6.88-11.2 9.97-19.22 10.56-4.52.32-8.86-.3-12.8-2.67-5.21-3.13-8.13-7.9-9.36-13.7a35.5 35.5 0 0 1-.7-7.16c-.06-13.43-.03-26.86-.03-40.28v-1.53c.46-.03.86-.08 1.26-.08 3.09 0 6.17.04 9.25-.03 1.15-.03 1.4.36 1.4 1.44-.03 11.87-.09 23.73.02 35.6.03 3.3.33 6.67.99 9.91 1.2 5.86 4.8 8.88 10.74 9.6 7.74.93 14.13-2.98 16.54-10.29a36.52 36.52 0 0 0 1.5-6.9c.33-2.64.42-5.31.43-7.97.05-9.96.04-19.93 0-29.9 0-1.14.3-1.53 1.48-1.5 3.16.08 6.33.07 9.5 0 1.09-.02 1.34.37 1.34 1.39-.03 20.26-.03 40.53 0 60.8 0 .99-.28 1.32-1.3 1.3-3.03-.06-6.07-.06-9.11 0-.95.02-1.25-.3-1.22-1.24.07-2.2.02-4.39.02-6.58 0-.4-.04-.8-.07-1.2l-.39-.27Zm35.92-54.16v8.85c.3-.31.43-.42.51-.54 5.74-8.27 13.73-11.32 23.53-9.97 4.45.62 8.62 2.01 12.18 4.89 4.67 3.76 6.78 8.84 6.83 14.65.15 14.78.07 29.56.08 44.34 0 .24-.07.5-.1.83h-11.77v-1.54c0-12.5.07-25-.05-37.49a32.16 32.16 0 0 0-1.13-8.48c-1.59-5.5-5.85-7.76-11.25-8.26-5.96-.55-10.95 1.38-14.93 5.89-2.38 2.7-3.17 6.02-3.56 9.44a66.61 66.61 0 0 0-.36 7.08c-.04 10.77-.04 21.53 0 32.3 0 1.14-.27 1.53-1.46 1.5-3.07-.08-6.16-.05-9.23 0-.92 0-1.25-.26-1.25-1.22.03-20.35.02-40.7.02-61.05 0-.52-.17-1.2.7-1.2h11.24v-.02Zm127.84 20.12h-8c-1.1 0-2.5.37-3.2-.17-.66-.5-.6-1.96-.84-3-1.21-5.6-4.41-8.9-9.57-9.86-5.94-1.12-11.32 1-14.4 5.72-2.11 3.25-3.1 6.9-3.59 10.7-.92 7.1-.84 14.17 1.16 21.1.9 3.13 2.33 6.02 4.87 8.15 4.13 3.46 8.89 3.98 13.83 2.38 4.92-1.59 7.06-5.59 8.1-10.34.1-.5.28-1 .25-1.5-.14-1.56.68-1.75 1.98-1.7 2.83.08 5.66.03 8.49.03h1.75c-.43 2.12-.65 4.07-1.22 5.92-2.96 9.52-9.62 14.8-19.28 16.45-5.32.92-10.62.58-15.75-1.18-7.25-2.48-12.22-7.5-14.79-14.62-4.02-11.13-4.09-22.4.34-33.42 4.72-11.7 14.66-17 26.52-16.8 5.82.1 11.18 1.66 15.67 5.52 5 4.28 7.26 9.9 7.69 16.62h-.01Zm102.77-11.86h-14.62v1.6c0 17.1 0 34.2.03 51.3 0 1.27-.28 1.7-1.6 1.64-2.9-.1-5.82-.09-8.73 0-1.27.04-1.65-.31-1.64-1.61.05-17.06.03-34.13.03-51.19 0-1.18-.59-1.77-1.76-1.77-2.66 0-5.32-.03-7.98.02-.86.02-1.2-.24-1.18-1.15.06-1.98.05-3.97 0-5.95-.02-.88.29-1.18 1.17-1.17 2.83.04 5.66-.02 8.49.04 1 .01 1.3-.3 1.29-1.3-.05-4.02-.05-8.03-.01-12.04.04-4.82 1.26-9.2 4.87-12.63 3.02-2.88 6.76-4.19 10.81-4.8 3.87-.59 7.65-.1 11.43.8.83.2 1.17.54 1.15 1.45-.07 2.5-.07 4.98 0 7.48.03 1.05-.37 1.27-1.34 1.23-2.36-.13-4.72-.2-7.08-.18-.96 0-1.93.18-2.87.4-3.03.7-4.9 2.8-5 5.9-.11 4.25-.02 8.52-.07 12.8 0 .9.53.88 1.16.88 4.01 0 8.01.04 12.02-.03 1.19-.02 1.51.34 1.47 1.5-.09 2.18-.03 4.38-.03 6.79v-.01Zm-164.31 23.42c0 10.09-.02 20.17.03 30.26 0 1.25-.39 1.57-1.59 1.54a198.2 198.2 0 0 0-9.1 0c-1 .02-1.3-.31-1.3-1.3.03-20.31.03-40.6 0-60.9 0-1.02.35-1.3 1.33-1.3 3.07.06 6.16.07 9.23 0 1.14-.02 1.43.35 1.42 1.45-.04 10.1-.02 20.17-.02 30.27v-.02Zm254.65 41.61c-.1.18-.15.3-.23.4-1.6 1.73-1.73 1.74-3.25 0a49.97 49.97 0 0 0-11.36-9.8c-.72-.45-1.22-.43-1.93.01a50.52 50.52 0 0 0-10.66 9.28l-1.52 1.7c-.09.08-.22.12-.44.23l-2.05-1.68c3.52-4.77 7.99-8.23 13.1-11.35a19.78 19.78 0 0 0-6.76-1.92c-.24-.01-.56.19-.75.4-2.31 2.53-5.4 3.18-8.6 3.39-6.05.4-11.84-.75-17.4-3.13-.18-.07-.32-.21-.64-.43a76.72 76.72 0 0 1 13.79-2.46c7.62-.58 15.07.17 22.31 2.75.43.14 1 .12 1.44-.04 8.33-3 16.9-3.49 25.59-2.33 3.48.47 6.92 1.24 10.38 1.86l.05.48c-1.67.6-3.33 1.28-5.03 1.77a35.82 35.82 0 0 1-14.75 1.34 12.27 12.27 0 0 1-6.47-2.92c-.47-.4-1.31-.71-1.89-.6-2.02.4-4.02 1-6.01 1.72 4.94 3.23 9.58 6.57 13.1 11.34l-.02-.01Zm-260.85-88.3c-2.02 0-4.04-.02-6.07 0-.75.02-1.04-.24-1.03-1.02.03-3.66.03-7.33 0-11 0-.72.26-.95.97-.95 4.12.02 8.26.02 12.39 0 .7 0 .97.23.96.95-.02 3.67-.03 7.34 0 11 0 .78-.28 1.04-1.03 1.03-2.06-.04-4.13-.01-6.19-.01Zm304.84 40.43c.12 7.84-9.86 19.72-16.96 20.09.33-.9.55-1.72.94-2.46a53.9 53.9 0 0 1 8.67-11.47c1.77-1.85 3.77-3.48 5.7-5.17.42-.38.98-.6 1.65-1Zm-29.56 31.24a52.58 52.58 0 0 1 21.59-12.12c-1.98 4.1-4.6 7.62-8.42 10.1-4.04 2.63-8.43 3.16-13.17 2.02Zm-60.58.34c-4.57 1.09-8.84.65-12.76-1.77-4.02-2.48-6.75-6.1-8.83-10.33a51.41 51.41 0 0 1 21.6 12.1Zm-12.22-30.06c3.39 3.16 7.92 18.75 6.4 21.96-6.82-1.94-10.92-16.03-6.4-21.96Zm-17.52-1.38c4.83 2 16.26 15.66 16.61 19.85-5.93.5-17.92-13.84-16.61-19.85Zm96.21 23.54c-1.5-3.68 2.84-18.53 6.53-22.4 1.4 4.2 2.01 8.27 1 12.46-1.03 4.36-3.6 7.6-7.53 9.94Z" fill="#fff"/><path d="M349.48 74.03c5.93 4.3 11.9 8.49 16 15.12-4.84.47-8.9-.2-11.98-3.77-2.8-3.22-3.67-7.18-4.02-11.35Zm53.66 14.66c.47-.8.81-1.61 1.36-2.26a72.37 72.37 0 0 1 14.05-12.64c.1-.07.23-.07.58-.16-.12.63-.15 1.16-.32 1.64-.9 2.61-1.55 5.37-2.83 7.8a11.4 11.4 0 0 1-12.84 5.63v-.01Zm33.77-26.69c-1.15-3.66 5.9-19.79 9.19-22.38.32 3.9.32 7.55-.73 11.17-1.46 5.16-4.75 9.56-8.46 11.21Zm-113.72-22.6c4 3.93 9.55 17.66 9.01 22.16-5.71-1.3-11.9-16.34-9.01-22.16Zm106.81 7.09c4.63 6.34 7.02 15.36 1.45 21.87-2.4-2.67-3.39-17.15-1.44-21.87Zm-92.5 22.21c-5.05-6.15-4.4-13.85 1.3-22.13 1.96 7.75.57 14.95-1.3 22.13Zm102.03-23.48c-1.65-3.73-.44-18.87 1.77-22.14 3.77 4.26 2.67 18.1-1.77 22.14Zm-112.54-22.02c2.43 3.8 3.6 17.82 1.93 22.26-4.39-4.49-5.53-17.21-1.93-22.25Zm4.89 30.72c-2.72-8.21 1.35-14.02 6.31-19.52 1.39 3.5-3.25 16.46-6.3 19.52Zm104.73.13c-3.6-6.18-6.13-12.38-6.42-19.56 5.5 4.6 9.55 12.9 6.42 19.56Zm.36-16.27c-3.35-1.4-10.32-12.87-10.11-16.52 6.5 2.48 11.13 9.98 10.11 16.52Zm-95.12-16.18c.13 3.61-6.95 14.93-10.02 16.13-1.42-5.25 4.4-14.7 10.02-16.14Zm-2.82-9.57c-1.03 6.37-3.02 12.15-7.93 16.65-2.1-4.66 2.48-14.22 7.93-16.65Zm98.68 16.23c-3.9-2.82-7.62-10.65-7.92-16.49 4.95 1.74 9.71 11.56 7.92 16.49Z" fill="#fff"/></svg>