<svg viewBox="0 0 576 106" fill="none" xmlns="http://www.w3.org/2000/svg"><path d="M53 .93h-4.23c-22.9 0-34.35 0-41.46 7.37-7.11 7.36-7.11 19.22-7.11 42.92v4.38c0 23.7 0 35.56 7.1 42.92 7.12 7.37 18.57 7.37 41.47 7.37h4.22c22.9 0 34.35 0 41.46-7.37 7.12-7.36 7.12-19.22 7.12-42.92v-4.38c0-23.7 0-35.56-7.12-42.92-7.1-7.37-18.56-7.37-41.46-7.37Zm29.57 74.34h-7.39c-2.82 0-3.65-2.33-8.66-7.51-4.38-4.38-6.26-4.95-7.36-4.95-1.49 0-1.94.44-1.94 2.62v6.87c0 1.88-.58 2.97-5.27 2.97-7.84 0-16.45-4.92-22.55-14-9.17-13.3-11.67-23.35-11.67-25.38 0-1.13.42-2.16 2.53-2.16h7.4c1.89 0 2.6.85 3.3 2.98 3.62 10.9 9.72 20.43 12.22 20.43.94 0 1.37-.45 1.37-2.92v-11.27c-.27-5.19-2.93-5.62-2.93-7.46 0-.86.7-1.76 1.88-1.76h11.62c1.57 0 2.1.87 2.1 2.81v15.16c0 1.62.69 2.19 1.16 2.19.94 0 1.72-.57 3.45-2.35 5.32-6.16 9.08-15.65 9.08-15.65a3.2 3.2 0 0 1 3.22-2.16h7.39c2.24 0 2.7 1.19 2.24 2.8-.95 4.47-9.95 17.6-9.95 17.6-.79 1.3-1.1 1.95 0 3.4.78 1.14 3.36 3.41 5.09 5.52 3.17 3.7 5.57 6.82 6.24 8.97.6 2.16-.45 3.25-2.57 3.25Zm90.61-22.77v-.01Zm58.12-23.13h-12.25l-15.54 18.68h-2.5v-18.68h-10.27v48.1h10.27v-19.15h2.5l16.08 19.14h13.49l-21.35-24.97 19.56-23.12Zm-58.14 23.13c4.02-1.95 6.61-5.19 6.61-10.18 0-7.58-6.7-12.95-16.34-12.95h-22.25v48.1h23.23c10 0 16.97-5.65 16.97-13.33 0-5.82-3.66-10.17-8.21-11.65Zm-21.7-14.34h11.96c3.58 0 6.08 2.21 6.08 5.27 0 3.05-2.5 5.18-6.08 5.18h-11.97v-10.45Zm12.95 30.52h-12.95v-11.75h12.95c4.02 0 6.7 2.4 6.7 5.92 0 3.51-2.68 5.83-6.7 5.83Zm177.15-29.6h16.08v38.38h10.27v-38.38h16.08v-9.71h-42.43v9.71Zm-82.27-10.63c-14.56 0-24.83 10.35-24.83 24.97 0 14.6 10.27 24.97 24.83 24.97 14.56 0 24.84-10.36 24.84-24.97 0-14.62-10.28-24.98-24.84-24.98Zm0 40.23c-8.4 0-14.11-6.2-14.11-15.26 0-9.07 5.71-15.26 14.11-15.26 8.4 0 14.12 6.2 14.12 15.26 0 9.06-5.72 15.26-14.12 15.26Zm223.07-29.6h16.08v38.38h10.27v-38.38h16.08v-9.71h-42.43v9.7Zm93.39 13.78c0-13.87-10.01-24.42-24.12-24.42-14.12 0-24.12 10.46-24.12 24.97 0 14.52 10 24.97 24.12 24.97 9.64 0 18.76-4.71 22.24-13.87l-9.65-1.66c-2.23 3.42-6.52 5.82-11.97 5.82-7.86 0-13.04-5-14.02-12.4h37.34c.08-1 .18-2.12.18-3.41Zm-36.9-4.9c1.7-6.2 6.52-10.27 12.78-10.27 6.25 0 11.25 4.26 12.95 10.27h-25.73Zm-59.62-18.59h-12.24l-15.54 18.68h-2.5v-18.68h-10.27v48.1h10.27v-19.15h2.5l16.08 19.14h13.49l-21.35-24.97 19.56-23.12Zm-70.91-.93c-9.02 0-16.97 4.81-19.3 13.14l9.48 1.66a10.18 10.18 0 0 1 9.29-5.73c5.63 0 8.93 4.16 9.38 10.45h-10c-13.68 0-20.46 6.2-20.46 15.08 0 8.88 6.7 15.35 16.17 15.35 7.59 0 12.68-4.53 14.92-8.51l2.14 7.59h7.6v-27.02c0-13.96-7.33-22-19.22-22Zm-3.03 40.98c-5 0-8.22-2.69-8.22-6.85 0-3.7 2.59-6.29 10.45-6.29h9.74c0 7.87-4.83 13.14-11.97 13.14Zm-81.13-21.09h-20.82v-18.96h-10.27v48.1h10.27v-19.43h20.82v19.42h10.27v-48.1h-10.27v18.97Z" fill="#fff"/></svg>