<svg viewBox="0 0 369 174" fill="none" xmlns="http://www.w3.org/2000/svg"><g clip-path="url(#a)" fill="#fff"><path d="M32.15 145.72c-.74-.04-.93.32-1.07.9-.59 2.69-1.18 5.37-1.8 8.05-.77 3.45-1.57 6.89-2.35 10.34-.05.23-.15.45-.31.45-.17 0-.27-.24-.3-.46-.05-.43-.16-.85-.26-1.28-1.49-5.79-3-11.58-4.45-17.37-.13-.55-.38-.63-.8-.62-1.26 0-2.51.06-3.77 0-.5-.01-.57.24-.67.62-.56 2.1-1.14 4.2-1.68 6.3l-3.43 13.12c-.5-.76-.54-1.58-.7-2.32-1.2-5.7-2.51-11.4-3.75-17.08-.13-.59-.31-.62-.72-.6h-6.03v.62c.85 3 1.73 6.01 2.57 9.04 1.12 4.02 2.2 8.04 3.3 12.04.55 1.94 1.13 3.87 1.62 5.82.12.45.23.56.61.54 1.85 0 3.7-.05 5.52.01.68.04.68-.46.78-.78 1.02-3.7 2-7.41 3-11.12.4-1.48.8-2.94 1.17-4.42.06-.24.1-.57.3-.57.2 0 .26.31.32.55.9 3.42 1.8 6.86 2.75 10.26.58 2.03.91 4.13 1.75 6.07v.15h6.33v-.19c.79-2.8 1.58-5.58 2.35-8.38 1.39-4.95 2.77-9.92 4.12-14.87.43-1.56.81-3.14 1.24-4.79-1.93 0-3.8.05-5.67-.03h.03Zm286.45 10.48c-.46-2.6-1.31-5-3.08-6.98-2.15-2.42-4.94-3.35-7.97-3.71a1.3 1.3 0 0 0-1.4 0l-1.42.22a10.48 10.48 0 0 0-7.68 4.85 14.48 14.48 0 0 0-2.19 7.73 6.04 6.04 0 0 0 0 3.11c.1.74.07 1.46.2 2.2.7 4.26 2.69 7.48 6.5 9.4.85.43 1.77.55 2.63.96h5.14c.05-.22.23-.19.38-.2a9.6 9.6 0 0 0 5.72-3.22c2.32-2.68 3.32-5.94 3.39-9.53.3-.78.31-1.55 0-2.32.03-.84-.07-1.69-.21-2.53v.02Zm-7.46 10.53a6.04 6.04 0 0 1-3.4 2.06 2.15 2.15 0 0 0-1.79 0c-3.01-.46-4.32-2.7-4.9-5.43-.52-2.56-.5-5.19.17-7.75.56-2.13 1.67-3.88 3.8-4.48 2.22-.62 4.3-.24 5.94 1.61a7.7 7.7 0 0 1 1.7 4.08c.1.63.15 1.27.21 1.9v2.3c-.21 2.03-.48 4.03-1.76 5.71h.03Zm-248.84-11.49a12.95 12.95 0 0 0-2.96-6.09c-2.14-2.39-4.9-3.28-7.9-3.64a1.3 1.3 0 0 0-1.4 0c-.48.09-.95.19-1.42.22a10.1 10.1 0 0 0-6.36 3.11c-1.75 1.76-2.76 4-3.25 6.45-.2 1.03-.53 2.11-.26 3.21-.38.9-.1 1.8-.15 2.72.11.96.2 1.92.38 2.87.64 3.26 2.09 6.03 4.78 7.98 1.25.92 2.7 1.36 4.1 1.91h5.34c.03-.17.15-.19.28-.2a9.68 9.68 0 0 0 4.94-2.48c2.97-2.66 4-6.18 4.28-10.09.28-.9.28-1.8 0-2.7-.14-1.1-.2-2.2-.44-3.3l.03.03Zm-6.07 8.98c-.78 2.5-2.26 4.1-4.78 4.6-.64-.34-1.33-.15-2-.16-1.97-.25-3.12-1.62-3.9-3.35a8.87 8.87 0 0 1-.84-4.1v-2.7c0-1.66.36-3.22 1.1-4.7 1.1-2.2 3.73-3.18 5.94-2.8 3.46.6 4.54 3.75 4.84 6.24.05.43.15.84.23 1.27v2.7c-.31.97-.28 2-.57 3h-.02Zm211.2-4.84c0-.6-.4-.43-.7-.43l-10.56.01c-.31.1-.21.4-.21.6v3.29c-.02.62.18.84.79.84 1.71-.02 3.4 0 5.12 0a4.4 4.4 0 0 1-1.74 4.18 5.17 5.17 0 0 1-5.95 0c-2.38-1.69-2.97-4.3-3.13-7.08.24-.7.26-1.4 0-2.08-.22-.59.08-1.14.18-1.69.41-2.49 1.28-4.65 3.74-5.74 1.88-.82 4.97-.29 6 1.77.44.88.65 1.79.87 2.72.12.48.31.58.64.46 1-.32 2.01-.29 3.02-.56 1.78-.47 1.86-.4 1.5-2.27a9.94 9.94 0 0 0-3.7-5.98c-1.6-1.27-3.59-1.67-5.56-1.93a1.3 1.3 0 0 0-1.4 0c-1.98.04-3.9.52-5.59 1.53-3.96 2.4-5.37 6.32-5.64 10.86v3.94c.12.9.19 1.85.37 2.75a12.4 12.4 0 0 0 4.73 7.64c1.2.9 2.63 1.17 3.95 1.76h5.34c.31-.45.77-.14 1.17-.28a9.28 9.28 0 0 0 6.13-6.27c.84-2.63.58-5.36.6-8.08l.03.04Zm-28.3 14.22c-1.17-1.54-2.35-3.09-3.5-4.65l-6.48-8.8c-.23-.3-.33-.52-.07-.88 2.36-3.2 4.7-6.4 7.04-9.6l2.8-3.9h-6.46c-.38 0-.54.15-.76.44-1.65 2.36-3.34 4.7-5 7.05-1.06 1.55-2.26 2.99-3.19 4.66-.34-.3-.16-.7-.16-1.05 0-3.35 0-6.7-.02-10.05 0-.33.21-.76-.21-1.02h-5.69c-.41.31-.21.76-.21 1.14v27.08h5.93s.02-.12 0-.2c.4-.28.2-.7.2-1.04l.01-10.26c0-.34-.18-.76.17-1.05.13.23.25.47.41.67l8.3 11.69v.19h7.12c-.03-.16-.05-.33-.23-.4v-.02Zm-27.71-27.87c-1.62.09-3.23.04-4.83.04-.41.3-.22.75-.22 1.13l-.01 14.21c0 .4.16.84-.22 1.15-1.5-2.38-2.73-4.94-4.11-7.42a520.28 520.28 0 0 1-4.65-8.5c-.25-.47-.5-.6-.97-.6-1.69.03-3.35.01-5.03.01-.41.31-.21.76-.21 1.13v26.88h.2c1.6 0 3.22-.02 4.84.05.77.03.9-.22.9-.96-.03-4.78-.01-9.56-.01-14.33v-.91s.05-.06.1-.07h.03l1.43 2.47c2.46 4.4 4.91 8.78 7.35 13.18.2.36.4.62.88.6 1.8-.05 3.62-.03 5.43-.05 0-9.02 0-18.04.02-27.08 0-.72-.1-1.01-.89-.98l-.03.05Zm-51.64 13.63c-.42-.19-.56-.31-.1-.62 1.6-1.05 2.12-2.68 2.22-4.52.28-.56.3-1.13 0-1.7-.1-2.61-1.14-4.59-3.5-5.74a11.34 11.34 0 0 0-4.66-1c-3.54-.1-7.08 0-10.62 0-.35.1-.2.4-.2.59v27.39c0 .09 0 .15-.02.24h12.66v-.17c.97.05 1.9-.17 2.83-.47 2.94-.92 5.2-3.3 5.27-6.77.28-.43.32-.85 0-1.28a6.3 6.3 0 0 0-3.92-5.95h.04Zm-3.8-6.2v1.68c-.26 1.34-1.11 2.04-2.37 2.27h-4.78c0-2.06.04-4.13.05-6.19 1.26 0 2.5-.03 3.76-.05 1.83.07 2.87.77 3.35 2.27v.02Zm-1.77 15.65c-1.77.12-3.56 0-5.34 0v-7.16c2.07 0 4.17-.23 6.2.36 1.33.37 2.09 1.27 2.3 2.68v1.27c-.28 1.73-1.52 2.71-3.16 2.83v.02Zm29.28-12.61c-1.09-3.1-2.18-6.19-3.2-9.3-.28-.84-.63-1.25-1.56-1.17-1.27.1-2.57.07-3.86 0-.61-.03-.92.23-1.1.76-1.93 5.57-3.84 11.13-5.79 16.68a1647 1647 0 0 1-3.72 10.59c0 .09 0 .15-.02.24h6.13v-.22c.64-2.03 1.34-4.04 1.93-6.09.18-.62.44-.7.95-.7 2.48 0 4.95.03 7.42 0 .6 0 .82.19 1 .77.68 2.05 1.42 4.06 2.15 6.09v.17h5.93c0-.16 0-.33-.17-.43-2.02-5.8-4.07-11.58-6.1-17.38v-.01Zm-6.61-2.37h.18c.92 2.76 1.86 5.51 2.82 8.35h-5.77c.92-2.8 1.85-5.57 2.75-8.35h.02Zm190.9-1.09a7.83 7.83 0 0 0-3.02-4.96c-2.01-1.5-4.32-1.9-6.64-2-3.28-.13-6.57-.01-9.85 0-.32.1-.22.4-.22.6 0 9.13 0 18.27.02 27.4 0 .06 0 .15-.02.22h5.93l-.01-.24c0-2.94.01-5.9.03-8.83 1.65 0 3.3-.04 4.94-.05 1.14 0 2.23-.28 3.28-.6a7.86 7.86 0 0 0 5.4-5.63c.58-1.95.57-3.95.17-5.9h-.01Zm-5.64 3.65c-.44 2.13-1.6 3.07-3.5 3.42-.17.03-.3.24-.52.13-1.37-.37-2.75-.03-4.12-.17v-8.83c1.32 0 2.62-.02 3.94-.03 2.96-.04 4.78 2.71 4.2 5.48Zm-254.3 12.44c-3.51.03-7.04 0-10.55 0l-.01-21.91c0-.38.2-.83-.22-1.13-1.61 0-3.23.03-4.83-.04-.79-.03-.89.26-.89.98.02 9.02.02 18.04.02 27.08h17.38c0-1.34-.05-2.68.02-4.02.05-.79-.18-.96-.92-.94v-.02Zm137.47-100.58c.31-.67.13-1.39.17-2.08v-4.31c-.04-.69.16-1.4-.17-2.08l-.05-.41-.13-.83c.27-.4.25-.84 0-1.25-.03-.41 0-.86-.25-1.22.14-.52-.06-.98-.2-1.44.17-.7-.2-1.36-.2-2.05l-.4-2.08-.6-2.66c-.2-.69-.38-1.38-.57-2.08l-.6-2.06c-.2-.55-.4-1.1-.57-1.65l-.8-2.27c-.2-.48-.37-.96-.57-1.43a1.32 1.32 0 0 1-.6-.62l-1.18-.44h-1.17c-1.05.08-1.71.72-2.16 1.66v.4c-.33.55-.31 1.1-.02 1.65.02.22-.03.46.2.62.25.62.2 1.39.78 1.87.21.77.4 1.56.77 2.27.1.94.45 1.82.8 2.7-.04.84.32 1.61.44 2.44.2.75.38 1.5.57 2.28-.1.7.17 1.36.23 2.05l.19 1.25.18 1.43c0 .36-.14.74.16 1.05-.2.29-.18.55.05.8v5.37c0 .48 0 .96.02 1.44v1.01l-.2 1.03c-.03 2.24-.53 4.4-.8 6.6-.37 1.9-.85 3.78-1.64 5.55l-1.56 2.68c-.48.6-1.03 1.17-1.37 1.88h-.02c-.38-.38-.08-.86-.21-1.26v-3.3c-.04-.5.2-1.01-.15-1.46l-.03-2.23c.01-.36.11-.74-.17-1.05 0-.2-.03-.4-.05-.6-.05-.33-.13-.66-.16-.98-.23-2.1-.48-4.2-1-6.24-.19-.53-.1-1.15-.42-1.65.16-.75-.4-1.34-.41-2.06-.22-.62-.22-1.3-.58-1.86-.08-.79-.35-1.53-.6-2.26-.22-.7-.35-1.45-.78-2.07 0-.86-.43-1.54-.8-2.27-.03-.84-.57-1.49-.78-2.26-.3-.88-.6-1.74-1.14-2.5l-.45-1c0-.4-.23-.71-.4-1.04l-.62-1.25c.03-.35.33-.52.5-.8.3-.13.5-.42.72-.68.45-.16.61-.6.84-.96.31-.23.56-.5.76-.85.38-.24.54-.67.79-1.03a6.8 6.8 0 0 0 1.19-1.85c.46-.55.64-1.24.98-1.86.43-.62.7-1.3.8-2.06.34-.57.52-1.19.59-1.86.3-.5.28-1.1.41-1.65v-1.01c-.74-2.25-2.45-3.06-4.35-2.06-.86.58-1.42 1.34-1.4 2.47l-.76 2.48-.99 2.06c-.26.48-.7.86-.8 1.44-.51.26-.65.83-.96 1.24l-.43.6c-.9.77-.92.8-1.53-.3a67.58 67.58 0 0 0-4.4-6.68c-.64-.84-1.14-1.82-1.96-2.5-.48-.73-.99-1.43-1.6-2.05l-1.19-1.43a2.38 2.38 0 0 0-.77-.85 2.5 2.5 0 0 0-.8-.85 2.63 2.63 0 0 0-.78-.82c-.35-.47-.73-.9-1.19-1.24a9.7 9.7 0 0 0-1.58-1.63l-1.78-1.67-1.8-1.58c-.3-.3-.64-.6-.95-.9.2-.32.53-.11.79-.2h.38c.6.1 1.15.36 1.78.2.48 0 .9.4 1.4.2.72.13 1.43.29 2.16.43l1.2.19c.6.13 1.17.29 1.76.42l1 .21.59.2c.47 0 .9.33 1.38.25.41.34.92.4 1.38.58l1.97.62 1 .41c.66.28 1.3.55 1.96.85.46.22.87.56 1.39.63.65.53 1.44.83 2.17 1.22.23.17.5.24.8.22.52.31 1.04.31 1.57 0 1.17-.27 1.68-1.16 2-2.26v-1.24a5.65 5.65 0 0 0-1.39-2.27c-.36-.51-.6-1.12-1.18-1.44-.3-.88-1.1-1.33-1.6-2.03-.41-.53-.8-1.1-1.37-1.46-.31-.45-.61-.91-1.17-1.05-.35-.46-.7-.91-1.2-1.18-.43-.3-.68-.81-1.17-1.04-.38-.29-.7-.72-1.19-.84-.44-.51-.99-.9-1.58-1.22-.51-.38-.99-.8-1.58-1.03-.66-.41-1.32-.8-1.98-1.22-.4-.2-.8-.43-1.19-.63l-.97-.47c-.41-.34-.9-.57-1.4-.75-.4-.16-.8-.31-1.19-.49-.4-.32-.94-.37-1.38-.58l-.99-.41c-.28.01-.48-.33-.79-.2-.31-.18-.6-.44-.99-.42l-1.19-.41-.59-.21c-.34-.02-.6-.36-.99-.2-.47-.16-.97-.33-1.46-.45-1.49-.35-2.99-.67-4.47-1l-4.53-.67c-.4-.24-.8-.33-1.2 0-.41-.07-.83-.1-1.17-.38h-10.28c-.4.4-.98.12-1.39.45-.74-.19-1.45.15-2.17.2a5.6 5.6 0 0 0-1.98.37c-.53.05-1.09-.04-1.57.25-.69-.01-1.31.23-1.97.42-.86.2-1.72.4-2.57.62-.71.34-1.52.3-2.2.75-.72.22-1.45.45-2.16.69l-2.57 1.03c-.92.41-1.84.82-2.75 1.25l-1.97 1.03-2.18 1.24-.99.62-.4.2c-.3-.01-.34.35-.59.42l-2.17 1.44-2.4 1.79c-.78.65-1.56 1.29-2.35 1.92-.84.7-1.73 1.3-2.39 2.19-1 .92-2.12 1.75-2.91 2.92-.6.8-1.45 1.37-1.98 2.27-.27.46-.8.7-.99 1.23-1 1.4-2.04 2.75-3 4.18a64.79 64.79 0 0 0-9.85 24.02 53.23 53.23 0 0 0-1.04 10.35 11.61 11.61 0 0 0 0 4.33c-.02 2.5.25 5 .6 7.47.45 3.1 1.15 6.14 1.99 9.14a63.4 63.4 0 0 0 5.39 12.96 60 60 0 0 0 8.6 12.11 61.57 61.57 0 0 0 23.94 16.48 61.54 61.54 0 0 0 16.8 3.68h7.95c.38.17.66-.19 1.02-.19 1.68.03 3.33-.34 5-.58 3.12-.48 6.14-1.45 9.17-2.32l2.97-1.19c1.15-.41 2.29-.88 3.34-1.51.94-.41 1.95-.72 2.79-1.4 1.07-.6 2.19-1.08 3.18-1.85a18 18 0 0 0 2.77-1.85 19.17 19.17 0 0 0 2.94-2.26c1.03-.61 1.83-1.52 2.77-2.28.84-.84 1.83-1.51 2.57-2.48a19.1 19.1 0 0 0 1.98-2.06c.8-.63 1.29-1.54 1.98-2.27l1.58-2.04a15.4 15.4 0 0 0 1.8-2.5c.59-.6.95-1.35 1.38-2.05l.97-1.64c.46-.63.9-1.3 1.19-2.06l1.19-2.27c.5-.75.85-1.61 1.15-2.49.25-.46.54-.9.63-1.42.24-.54.57-1.04.6-1.65.35-.42.45-.95.58-1.45.4-.77.64-1.61.8-2.47.42-.84.62-1.76.77-2.68.06-.1.15-.2.18-.33l1.17-5.65c.4-2.25.58-4.54.79-6.82h.05l-.07.01Zm-18 5.31c.04.36.14.72.22 1.08v.1l.38 4.42v7.32c-.01.43-.3.83-.2 1.28v.1l-.18 1.56v.09c-.06.57-.11 1.13-.4 1.65 0 .02 0 .03-.03.05l-3.16 1.84s-.03 0-.05.02c-.84.37-1.7.75-2.54 1.15l-.18.08-2.63 1c-.05 0-.09.03-.14.05-.79.28-1.58.53-2.37.8-.02 0-.05 0-.06.03l-3.09.8-3.75.83-3.17.41-3.75.41h-1.78c-.47 0-.91-.03-1.37-.05v-1a7.5 7.5 0 0 0 .34-2.26c.15-.67.3-1.34.24-2.05a9 9 0 0 0 .36-3.1c.36-.73.16-1.52.25-2.26.34-.86.08-1.8.34-2.68 0-.2.03-.4.05-.6.28-.4.18-.83.17-1.26v-1.23l.2-2.68c0-.42.03-.81.04-1.22.32-.31.15-.7.15-1.05v-.62l.07-.41c.28-.31.13-.7.13-1.05v-4.31l.06-.21c.33-.74.09-1.53.15-2.29v-8.62c-.03-.78.2-1.55-.13-2.29v-.39c1.32-.02 2.64-.04 3.9-.47h.09c1.45-.08 2.87-.44 4.27-.82.47-.09.95-.14 1.38-.4.51.02.96-.19 1.38-.4a5.5 5.5 0 0 0 1.78-.63c.4-.14.8-.27 1.2-.43.5-.3 1.14-.3 1.57-.75l1.57-.7 1.28-.75.1-.05c.9-.07.8.86 1.19 1.3v.06c.41.88.79 1.75 1.19 2.63l.04.12c.24.77.53 1.51.9 2.22l.06.12c.21.92.53 1.82.96 2.66l.04.19c.24.77.32 1.61.76 2.32v.07c-.01.68.4 1.27.45 1.96l.38 1.37v.05c.59 2.29 1.03 4.6 1.35 6.96l-.02-.07Zm-25.93-10.67-.05-.03v-.04l.05-.07v.14Zm0 4.54v-.02.02Zm-17.37-46.2-.24.3-1.9 2.39c-.5.67-1.13 1.22-1.45 2.04-.6.52-.97 1.19-1.36 1.86-.5.46-.86 1.05-1.18 1.65a12 12 0 0 0-1.61 2.46c-.77.94-1.43 1.99-1.98 3.09a8.8 8.8 0 0 0-1.36 2.25c-.5.45-.73 1.07-1 1.65-.34.24-.5.62-.59 1.03-.46.34-.62.9-.79 1.43-.56.44-.64 1.25-1.17 1.72l-2.17-1.24-1.37-1.07c-.33-.25-.68-.51-1-.77l-1.37-1.08c-.32-.6-.94-.83-1.4-1.26l-1.19-1.23-1.58-1.88c-.9-1.08-1.63-2.28-2.38-3.47-.2-.4-.49-.8 0-1.2l2.58-1.44c.79-.43 1.58-.86 2.35-1.3.73-.34 1.5-.56 2.18-1.04.85-.4 1.71-.77 2.57-1.17l1.97-.82 1.77-.7c.6 0 1.09-.32 1.58-.6.77 0 1.45-.44 2.18-.63.82-.19 1.61-.43 2.38-.77.56 0 1.1-.12 1.59-.41.84.12 1.55-.45 2.35-.45l1.98-.41.99-.21c.36.14.67-.12 1-.19.07 0 .12-.03.19-.02.08.1.5-.07.23.3-.3.37-.65.7-.84 1.16l.04.02Zm-26.21 67.64.5-2.08c.3-.56.34-1.22.44-1.84.31-.72.5-1.49.6-2.26l.75-2.5c.5-.97.6-2.07.99-3.09.26-.9.74-1.72.82-2.66a8.4 8.4 0 0 0 .8-2.27c.4-.88.8-1.74 1-2.7l.97-2.47c.43-.95.87-1.9 1.15-2.9.6-1.05 1-2.17 1.44-3.29l.99-2.25c.54-.76.8-1.65 1.18-2.5.3-.35.5-.76.6-1.23.28-.36.49-.77.59-1.22l1.19-2.27c.59.21 1.16.42 1.76.62.46.2.87.54 1.4.55.31.16.57.52.99.41.56.33 1.15.54 1.78.64.94.5 1.96.72 2.96 1.03.86.2 1.68.6 2.57.62.81.4 1.68.53 2.57.62.65.19 1.29.43 1.98.41l2.37.41c.6.09 1.2-.05 1.77.21h2v.05c.27.3.65.14 1 .16 1.1-.18.66.73.8 1.25v11.34l-.06 1.86c-.33.53-.12 1.11-.15 1.66v2.27l-.05 1.02c-.28.3-.15.7-.16 1.06l.01.6-.2 2.46v1.46c-.16.74-.33 1.5-.18 2.27-.16.74-.33 1.5-.2 2.27-.37.93-.1 1.94-.4 2.88.06.9-.39 1.77-.19 2.68-.4.7-.2 1.53-.4 2.27l-.39 2.27-.23 1.84c-1.38 0-2.77.1-4.14-.15l-4.15-.42-3.76-.62c-.62-.32-1.33-.17-1.97-.4l-2.57-.63a25.9 25.9 0 0 1-3.96-1.03l-4.53-1.3-4.7-1.76c-.08-.03-.16-.07-.24-.08l-4.5-2.05c-.43-.19-.97-.3-.82-1.01l.04-.2h-.06Zm45.77-61.02.22.21c.46.62 1 1.13 1.58 1.63l.05.07c.72.86 1.48 1.7 2.32 2.44.07.05.12.12.2.2a21.7 21.7 0 0 0 2.57 3.08c.03.06.07.09.08.14.61 1 1.3 1.9 2.11 2.73.07.07.12.16.18.23.7 1.46 1.77 2.66 2.6 4.03.58 1.02 1.3 1.96 1.89 2.98.24.43.1.58-.15.82 0 0-.03 0-.05.02-.45.2-.9.43-1.34.64l-.08.05c-.4.3-.96.3-1.32.72-.59.03-1.07.38-1.58.6l-1.55.5-1.18.4-1.59.4-2.2.57c-.19 0-.38.04-.57.05-.97.23-1.95.37-2.94.4-.42 0-.84-.14-1.2.17v.04c-.29.01-.45-.14-.58-.38l-.04-.04c.07-.13.15-.25.22-.4 0-.35.13-.73-.15-1.06l-.58-6.97c.28-.4.22-.8.02-1.19a.14.14 0 0 0-.03-.07c-.04-.07-.04-.12-.07-.19-.33-.9-.2-1.87-.31-2.8a157.5 157.5 0 0 0-2.14-13.59c-.1-.43-.47-.91-.09-1.4l.18.16.27.23.13.1 1.15.98.04.03c.26.2.52.43.77.64l1.35 1.2.03.04 1.77 1.65.01-.06Zm3.18-17.57s.05.01.07.03l1.2.53.12.05 1.14.47.13.08c.2.16.4.26.64.31h.03l1.47.9.15.08 1.86 1.07.12.07.39.55-.2.03c-.05 0-.1 0-.15.02h-.01c-.6-.02-1.16-.36-1.78-.28l-.03-.01c-.4-.28-.88-.2-1.29-.33-.02 0-.05 0-.07-.02-.59-.03-1.15-.41-1.78-.22 0 0-.06 0-.11-.02l-1.65-.32-.21-.06-.78-.05a.78.78 0 0 0-.5-.2l-.39.01h-.11c-.2 0-.38-.03-.58-.05a2.17 2.17 0 0 0-.53-.19c-.3-.05-.57 0-.87.17-.23.12-.38-.12-.58-.12-.26 0-.52-.03-.8-.05h-.15v-.17l.26-.15 1.12-.67.2-.12.97-.57a.78.78 0 0 1 .18-.07c.35-.12.74-.15 1-.5l1.57-.26-.05.06Zm-12.44-3.51h.09l4.31.91-3.8 2.65c-.04.01-.07.05-.1.07-.22.13-.41.29-.66.46-.68-.93-.96-2.1-1.65-3-.06-.1-.1-.18-.16-.25.04-.46-.53-.65-.47-1.11.83 0 1.6.37 2.44.27Zm-4.33 16.34.13-.12c.26-.26.54-.51.8-.79.34-.34.62-.64.7.17.02.17.12.36.17.57.4 2.01.85 4.02 1.28 6.03l.07.31.85 5.74c0 .14-.06.27-.03.4.41 2.1.51 4.26.8 6.39 0 .36-.1.74.16 1.05 0 .2.03.4.05.6l.01 1.25c.23.74.13 1.51.17 2.27.01.34-.18.74.16 1.03l.05 2.66c-.2.36-.56.14-.82.24l-1.39-.01v-.04c-.28-.29-.64-.19-.98-.17h-1.39c-.44-.17-.89-.33-1.38-.19a5.58 5.58 0 0 0-2.38-.46c-.6-.4-1.35-.28-1.97-.57l-2.16-.46c-.61-.36-1.3-.5-1.98-.62-.89-.45-1.81-.74-2.77-.98-.84-.38-1.66-.8-2.57-1.03-.84-.28-.87-.81-.43-1.48l1.42-2.46 1.58-2.66c.4-.69.93-1.29 1.19-2.06.48-.38.67-.95.99-1.45l1.18-1.85 1.58-2.29 1.39-2.04c.87-1.12 1.76-2.22 2.64-3.34l2.88-3.67v.03Zm-7.22-17.16 1.37.05h.1c.5.4 1 .77 1.5 1.15a.3.3 0 0 1 .08.07c.41.62.8 1.25 1.22 1.85-.31.4-.56-.17-.82.02l-.05-.03c-.3-.18-.56-.42-.94-.38l-.13-.04-.65-.2a2.9 2.9 0 0 0-1.6-.62c-.52-.2-1.05-.38-1.58-.57l-2.35-.67v-.17c.28-.28.62-.2.95-.26h1.44c.38 0 .77.14 1.13-.14l.2-.06h.13Zm-23.22 7.06.2-.16c.63-.53 1.49-.5 2.18-.87h.08l1.81-.24h.07c.66-.43 1.47.06 2.1-.38.02 0 .06-.02.07-.04h4.76c.17 0 .35.04.52.06h.08c.48.34 1 .13 1.52.15h.06c.6.33 1.29.19 1.9.4l.08.01 2.77.62h.06c.74.05 1.4.4 2.11.6l1.77.48c.03.3.49.04.5.38-.32.36-.74.12-1.08.26l-2.57.6c-.65.28-1.37.17-1.98.57-.73.15-1.45.32-2.18.48l-1.97.62-1.96.62-1.78.61-1.98.81-2.57 1.03c-.78.43-1.68.59-2.37 1.17a11 11 0 0 0-2.75 1.3c-.83.42-1.72.7-2.4 1.38-.34.16-.72.26-1.05.47-.36.22-.56.22-.66.03a.94.94 0 0 1-.06-.48c0-.2-.02-.41-.04-.6l.05-.41c.22-.42.31-.85 0-1.26l.33-1.42.08-.21c.47-1.29 1-2.54 1.73-3.7.8-1 1.62-1.99 2.56-2.87l.01-.01Zm-22.16 19.35.1-.16c.05-.08.1-.17.17-.24l.04-.05c.42-.38.63-.9.91-1.36l1.58-2.27c.8-.94 1.58-1.9 2.38-2.85l.21-.24 2.16-2.46.18-.17 1.8-1.68 2.1-1.91.25-.22c.5.32.07.67 0 .96-.24 1-.13 2-.21 2.99-.25.34-.27.69 0 1.03.05 1.24 0 2.5.41 3.7.23.72-.64.73-.79 1.23l-.13.07c-.86.46-1.67 1-2.26 1.79-.87.34-1.42 1.13-2.14 1.7-.88.8-1.88 1.44-2.59 2.44-.8.86-1.9 1.43-2.52 2.47-.44.31-.8.7-1.04 1.22l-.2.2-.06.06c-1.83 1.82-3.33 3.94-4.83 6.05-.64.9-1.2 1.86-1.8 2.78-.5-1.37 2.94-9.6 6.28-15.05v-.03Zm13.68 61.94c-.51 2.7-.8 5.42-.82 8.15a11.27 11.27 0 0 0 0 4.33c.1 1.05-.12 2.1.39 3.37-1.25-.66-2.06-1.48-2.88-2.22a52.06 52.06 0 0 1-6.76-7.25 62.97 62.97 0 0 1-7.31-12.19 49.2 49.2 0 0 1-3.73-11.37c-.11-.62-.21-1.26-.23-1.9 0-.2-.1-.45.12-.56.23-.12.34.12.46.28a47.25 47.25 0 0 0 5.81 6.84 67.2 67.2 0 0 0 11.78 9.2c.75.47 1.46 1.02 2.26 1.33 1.02.38 1.09 1.05.9 1.98v.01Zm1.6-8.2c-.15.59-.32.68-.83.37a58.45 58.45 0 0 1-9.08-6.58 50.91 50.91 0 0 1-4.46-4.28c-3.1-3.46-5.75-7.2-7.45-11.64-.3-.77-.05-1.42.13-2.04a48.72 48.72 0 0 1 7.4-14.98c.2-.28.43-.52.63-.78l.2-.26c.13-.19.28-.37.4-.56l1.2-1.45 2.15-2.47 2.18-2.27c.72-.69 1.58-1.22 2.17-2.06a8.47 8.47 0 0 0 2.18-1.86c.06-.01.11-.07.16-.08.71-.33 1.2-.98 1.9-1.34l.1-.07c.05 0 .08.02.13.03h.06c.43.59.61 1.33 1.16 1.82l.01.02c.47 1.12 1.26 1.98 1.98 2.89l.1.12c.8.96 1.51 2 2.52 2.76.92.9 1.71 1.96 2.9 2.53.41.6 1.02.98 1.6 1.38.44.36.84.79 1.38 1.03l1.19.82 1.58 1.03c.61.28.2.69.15 1.07-.6.63-.84 1.48-1.15 2.28-.45.9-.9 1.79-1.34 2.7l-1.43 3.28c-.46.93-.94 1.86-1.2 2.87-.6.96-.93 2.05-1.32 3.11-.45.78-.7 1.64-1 2.48-.29.74-.68 1.46-.78 2.27-.48.9-.84 1.85-1.06 2.86l-1.12 3.12-.79 2.47-.64 2.25c-.23.67-.54 1.32-.54 2.06-.37.67-.5 1.43-.63 2.18 0 .04 0 .06-.02.1-.41.88-.5 1.88-.76 2.83h.04Zm33.33 34.56a2.79 2.79 0 0 1-1.93 1.34c-.57-.34-1.2-.12-1.8-.14-.47 0-.96-.2-1.4.14a53.87 53.87 0 0 1-15.8-3.47 57.33 57.33 0 0 1-4.92-2.15c-2.4-1.2-3.23-3.43-3.76-5.9-.54-2.59-.41-5.21-.36-7.83.25-.4.26-.82 0-1.25.05-1.84.31-3.66.6-5.59 4.42 1.9 8.78 3.82 13.4 4.94l.07.01c1.78.66 3.6 1.14 5.47 1.43.2.12.36.22.61.26 1.32.22 2.62.51 3.94.77l4.15.62 2.97.41c.72.07 1.46-.03 2.17.2.43 0 .86.04 1.27.04.92 0 1.24.48.94 1.45l-.46 2.25c-.35.86-.56 1.77-.73 2.7-.34.5-.36 1.11-.6 1.64l-.8 2.27c-.16.78-.74 1.36-.84 2.15l-.01.09c-.73 1.2-1.42 2.42-2.18 3.59v.03Zm6.58.59c.06-.59.36-1.02.57-1.48 0 0 0-.04.02-.04.48-.58.58-1.37.92-2.02l.84-2.27c.32-.59.5-1.2.6-1.86.33-.8.72-1.58.74-2.49.33-.72.57-1.46.6-2.27.27-.58.4-1.18.42-1.84.34-.7.43-1.5.6-2.26l1.56-.06h1.38c.35 0 .71.16 1-.15l.39-.07c1.25.19 2.48-.3 3.74-.19.13 0 .28-.14.4-.22 1.62.1 3.19-.34 4.75-.62l3.76-.83c1.07-.23 2.16-.5 3.16-.97 1.32-.21 2.56-.67 3.74-1.3a8.44 8.44 0 0 0 2.66-1.11l.13-.07c1.05-.03.13.55.21.8l-.01.04c-.27.6-.68 1.15-.81 1.83v.01a9.08 9.08 0 0 0-.97 1.82l-.02.04c-.5.79-1.02 1.56-1.53 2.35-.02.04-.03.07-.07.09-.66.48-.97 1.29-1.54 1.84l-.07.06c-.71.73-1.4 1.47-2.11 2.19h-.02l-2.85 2.06c-.03.02-.05.03-.08.07l-3.16 2.06-.07.03-2.98 1.7-.12.07-2.95 1.31a.13.13 0 0 0-.08.03l-2.93 1.16-.15.05-3.76 1.23-2.49.59c-.03 0-.05 0-.08.02-1.07.4-2.17.55-3.33.63l-.01.04Zm150.7 24.52h-5.5c-.3.05-.2.3-.2.48 0 5.6.02 11.2.04 16.8-.09.57-.12 1.14-.24 1.67-.42 1.9-1.58 3.82-3.74 3.92h-1.2c-2.65-.1-4.05-2.17-4.1-4.88-.12-5.72-.05-11.46-.02-17.2 0-.62-.08-.9-.79-.88-1.65.07-3.3.04-4.93.04-.36.24-.21.62-.21.92v15.92c0 .29-.08.61.16.87.05.88.02 1.75.23 2.61.55 2.34 1.44 4.44 3.35 5.97 1.2.96 2.6 1.39 3.97 1.94h5.54s.11-.17.18-.2c2.82-.44 4.8-2.07 6.14-4.63.88-1.65 1.1-3.47 1.4-5.26.29-.3.14-.69.15-1.05v-16.35c0-.25.14-.57-.21-.71l-.02.02Zm-254.71 23.3c-.27 0-.53-.05-.8-.02-1.48.19-2.5-.55-3.19-1.82-.9-1.68-1.6-3.5-2.73-5.05-.37-.5.03-.55.28-.7a7.58 7.58 0 0 0 3.32-4.6c.42-1.44.37-2.85.15-4.27-.31-2.05-1.1-3.8-2.83-5.04-2-1.42-4.27-1.66-6.53-1.78-3.38-.18-6.77-.04-10.16-.04-.42.31-.22.76-.22 1.13v26.88h.2c1.68 0 3.36 0 5.03.05.57.02.7-.19.7-.75v-9.39c1.06 0 2.11-.03 3.15-.05a4.19 4.19 0 0 1 2.64 2.46c.5 1.08.99 2.15 1.46 3.23 1 2.23 2.44 3.92 4.77 4.64h4.15c.08-.34.38-.14.56-.24.25-.09.23-.31.23-.5v-3.68c0-.19.05-.43-.21-.5l.03.04Zm-9.08-12.22c-.73 1.24-1.98 1.72-3.33 1.9-1.45 0-2.9-.03-4.33-.04v-7.8c1.45 0 2.88 0 4.33-.02a3.9 3.9 0 0 1 3.33 5.96Zm214.61 12.72c0-.2.05-.43-.22-.5-.72-.14-1.48.12-2.22-.17-1.07-.4-1.62-1.3-2.1-2.27-.74-1.48-1.38-3.03-2.4-4.31-.26-.35-.25-.49.13-.78.71-.55 1.5-1 2.08-1.75 1.22-1.6 1.6-3.44 1.73-5.38-.02-.36.16-.75-.17-1.06a4.57 4.57 0 0 0-.23-1.7 6.94 6.94 0 0 0-2.96-4.28c-1.93-1.24-4.07-1.48-6.2-1.59-3.38-.15-6.79-.03-10.17-.03-.4.31-.21.76-.21 1.13v26.88h.2c1.68 0 3.36 0 5.02.05.58 0 .71-.19.71-.75v-9.39c1.06 0 2.11-.03 3.15-.05 2.12.65 2.73 2.63 3.54 4.44.97 2.2 1.9 4.4 4.22 5.44.36.17.82.09 1.12.45h4.15c.09-.34.38-.14.56-.26.28-.12.23-.38.23-.6v-3.58l.04.06Zm-12.63-10.81c-1.44 0-2.9-.04-4.33-.05v-7.8c1.38 0 2.77-.02 4.14-.04 2.63.09 3.79 1.46 4.12 3.8.26 1.89-1.7 3.88-3.93 4.09Zm-148.79-.24c-.13-.9-.25-1.79-.43-2.68-1.2-5.9-5.35-9.28-10.64-9.9-.3-.3-.66-.2-1-.17h-9.09c-.34.08-.2.4-.2.58v27.4l-.01.23h10.48v-.17a10.41 10.41 0 0 0 7.84-3.63c2.01-2.33 2.82-5.24 3.05-8.33.31-.3.13-.7.15-1.05 0-.4 0-.8-.02-1.2.02-.36.17-.74-.13-1.06v-.02Zm-8.06 8.7a5.47 5.47 0 0 1-3.62 1.6c-1.24.08-2.5 0-3.74 0v-17.88c.92 0 1.84-.03 2.75-.03 4.05.05 6.33 3 6.7 6.56.05.43.15.84.22 1.27v2.72c-.25 2.14-.73 4.2-2.33 5.77l.02-.02Z"/></g><defs><clipPath id="a"><path fill="#fff" transform="translate(.056)" d="M0 0h368v174h-368z"/></clipPath></defs></svg>