<svg viewBox="0 0 273 162" fill="none" xmlns="http://www.w3.org/2000/svg"><g clip-path="url(#a)" fill="#fff"><path d="M80.28 0h85.9c.2.04.4.11.58.12 4.98.05 9.91.59 14.79 1.56a82.1 82.1 0 0 1 41.95 22.02 79.2 79.2 0 0 1 18.52 27.64 74.3 74.3 0 0 1 5.52 25.62c.24 8.14.19 16.3.22 24.45.03 6.76-.03 13.51.05 20.27.04 2.56.2 5.14.59 7.68 1.84 12.11 7.9 21.68 17.96 28.71 1.8 1.25 3.74 2.28 5.69 3.46-1.46.13-2.89.31-4.33.38-5.7.28-11.36-.13-16.95-1.25-12.87-2.58-24.7-7.67-35.7-14.75-.5-.31-.8-.37-1.32 0a82.62 82.62 0 0 1-28.06 13.02 91.17 91.17 0 0 1-22.66 2.53c-26.59-.07-53.17-.03-79.76-.02-6 0-11.96-.53-17.83-1.78-17.37-3.69-32.18-11.95-44.16-24.98-13.3-14.46-20.33-31.57-21.16-51.16a75.9 75.9 0 0 1 1.61-18.9 79.2 79.2 0 0 1 21.71-40.1 81.5 81.5 0 0 1 27.94-18.47 82.25 82.25 0 0 1 25.01-5.75c1.3-.09 2.6-.2 3.89-.3Zm-12.82 72.18h-26.64c-.65 0-1.33.04-1.98.12a9.8 9.8 0 0 0-8.53 9.2 9.85 9.85 0 0 0 9.99 10.3c8.73 0 17.47.02 26.2-.01.79 0 .99.2.98.97-.03 8.06-.03 16.12-.01 24.16a9.84 9.84 0 0 0 13.54 9.09 9.91 9.91 0 0 0 6.19-9.15v-25.01h34.02c4.78 22.38 27.12 39.1 52.38 34.77a45.34 45.34 0 0 0 37.65-43.88 45.4 45.4 0 0 0-38.64-45.56c-24.26-3.7-46.67 12.41-51.39 34.91h-34.02v-1.06c0-7.9 0-15.8-.02-23.7 0-.73-.07-1.48-.22-2.2a9.84 9.84 0 0 0-19.5 2.02v25.03Z"/><path d="M165.67 107.2a25.26 25.26 0 0 1-25.3-25.19 25.34 25.34 0 0 1 50.7.16c-.02 13.77-11.44 25.02-25.4 25.02Z"/></g><defs><clipPath id="a"><path fill="#fff" transform="translate(.056)" d="M0 0h272v162h-272z"/></clipPath></defs></svg>