<svg id="_Слой_1" data-name="Слой 1" xmlns="http://www.w3.org/2000/svg" viewBox="0 0 952.41 200"><defs><style>.cls-1{fill:#fff}</style></defs><path class="cls-1" d="M98.95 0h105.97c.24.05.47.14.71.15 6.14.06 12.22.72 18.23 1.93a101.22 101.22 0 0 1 51.75 27.18 97.73 97.73 0 0 1 22.83 34.12 91.88 91.88 0 0 1 6.82 31.63c.29 10.06.22 20.13.27 30.19.04 8.34-.04 16.68.06 25.02.04 3.17.25 6.35.72 9.48 2.28 14.96 9.75 26.77 22.16 35.45 2.21 1.54 4.61 2.82 7.01 4.27-1.79.17-3.56.39-5.34.47a85.28 85.28 0 0 1-20.91-1.54c-15.88-3.18-30.47-9.47-44.04-18.21-.62-.39-.98-.46-1.62 0a101.76 101.76 0 0 1-34.62 16.06c-9.18 2.31-18.49 3.16-27.95 3.13-32.79-.09-65.58-.04-98.38-.03-7.41 0-14.75-.65-22-2.2-21.43-4.55-39.69-14.75-54.47-30.85-16.37-17.82-25.04-38.95-26.07-63.13a93.9 93.9 0 0 1 1.99-23.34c4.03-19.14 13.03-35.61 26.78-49.52a100.67 100.67 0 0 1 34.47-22.8 101.3 101.3 0 0 1 30.85-7.1c1.6-.11 3.19-.24 4.79-.37Zm-15.81 89.11h-32.85c-.81 0-1.64.06-2.45.15a12.1 12.1 0 0 0-10.52 11.36 12.16 12.16 0 0 0 12.32 12.73c10.77 0 21.54.02 32.32-.02.96 0 1.21.24 1.2 1.2-.04 9.95-.04 19.89-.02 29.83a12.14 12.14 0 0 0 16.71 11.21 12.25 12.25 0 0 0 7.63-11.29v-30.88h41.97c5.9 27.63 33.45 48.28 64.61 42.93a55.97 55.97 0 0 0 46.43-54.17c.47-28.18-20.08-52.04-47.66-56.26-29.92-4.58-57.57 15.32-63.39 43.11h-41.97v-1.31c0-9.76 0-19.51-.02-29.26 0-.91-.09-1.83-.28-2.71a12.14 12.14 0 0 0-24.05 2.49v30.89Z"/><path class="cls-1" d="M204.27 132.35a31.18 31.18 0 0 1-31.2-31.1c0-17.17 14-31.14 31.26-31.18a31.31 31.31 0 0 1 31.27 31.37c-.02 17-14.1 30.89-31.32 30.89Zm212.99-57.41h-21.45v60.26h-13.23v-60.26h-21.45v-10.87h56.13v10.87Zm22.62-.35v19.72h24.89v10.18h-24.89v20.12h31.58v10.58h-44.86v-71.13h44.86v10.53h-31.58Zm100.65 60.61h-13.33v-60.95h-19.43a313.89 313.89 0 0 1-1.94 23.15 143.91 143.91 0 0 1-3 16.63c-1.17 4.57-2.49 8.29-3.99 11.14a23.33 23.33 0 0 1-4.89 6.66 14.4 14.4 0 0 1-5.71 3.25c-2.03.57-4.16.86-6.4.86-2.36 0-4.08-.21-5.16-.64-1.08-.43-1.62-1.05-1.62-1.87v-8.26h3.79c.85 0 1.71-.1 2.58-.3.87-.2 1.74-.61 2.61-1.25s1.72-1.57 2.56-2.78a22.68 22.68 0 0 0 2.41-4.89 58.07 58.07 0 0 0 2.16-7.55c.67-2.98 1.28-6.57 1.82-10.77.54-4.2 1.02-9.06 1.43-14.58s.71-11.85.91-18.96h45.21v71.13Zm29.12-60.61v19.72h24.89v10.18h-24.89v20.12h31.58v10.58h-44.86v-71.13h44.86v10.53h-31.58Zm103.65 60.61h-12a4.93 4.93 0 0 1-3.12-.98 9.74 9.74 0 0 1-2.34-2.9l-15.15-23.9c-.39-.69-.81-1.26-1.25-1.7s-.92-.8-1.43-1.08c-.51-.28-1.08-.47-1.72-.56s-1.37-.15-2.19-.15h-7.92v31.29h-13.23v-71.13h13.23v29.81h6.69c1.35 0 2.51-.23 3.49-.69a7.13 7.13 0 0 0 2.75-2.56l15.59-23.02a9.4 9.4 0 0 1 2.31-2.56 5.2 5.2 0 0 1 3.2-.98h11.31l-19.33 28.53a12.5 12.5 0 0 1-6.44 5.02c1.97.56 3.63 1.44 4.99 2.63s2.67 2.84 3.91 4.94l18.64 30.01Z"/><path class="cls-1" d="M742.21 135.2h-10.23c-1.15 0-2.08-.29-2.8-.86s-1.26-1.29-1.62-2.14l-5.31-14.51h-29.46l-5.31 14.51a4.68 4.68 0 0 1-1.52 2.07c-.76.62-1.71.94-2.85.94h-10.28l27.94-71.13h13.53l27.94 71.13Zm-23.37-26.86-8.66-23.66c-.43-1.05-.87-2.3-1.33-3.74s-.92-3-1.38-4.68c-.43 1.67-.87 3.24-1.33 4.7s-.9 2.73-1.33 3.81l-8.61 23.56h22.63Zm90.57-44.27v71.13h-13.28v-31.09h-33.4v31.09h-13.28v-71.13h13.28v30.6h33.4v-30.6h13.28Zm76.64 71.13h-10.23c-1.15 0-2.08-.29-2.8-.86s-1.26-1.29-1.62-2.14l-5.31-14.51h-29.46l-5.31 14.51a4.68 4.68 0 0 1-1.52 2.07c-.76.62-1.71.94-2.85.94h-10.28l27.94-71.13h13.53l27.94 71.13Zm-23.37-26.86-8.66-23.66c-.43-1.05-.87-2.3-1.33-3.74s-.92-3-1.38-4.68c-.43 1.67-.87 3.24-1.33 4.7s-.9 2.73-1.33 3.81l-8.61 23.56h22.63Zm89.73 26.86h-13.33v-60.95h-19.43a313.89 313.89 0 0 1-1.94 23.15 143.91 143.91 0 0 1-3 16.63c-1.17 4.57-2.49 8.29-3.99 11.14a23.33 23.33 0 0 1-4.89 6.66 14.4 14.4 0 0 1-5.71 3.25c-2.03.57-4.16.86-6.4.86-2.36 0-4.08-.21-5.16-.64-1.08-.43-1.62-1.05-1.62-1.87v-8.26h3.79c.85 0 1.71-.1 2.58-.3.87-.2 1.74-.61 2.61-1.25s1.72-1.57 2.56-2.78a22.68 22.68 0 0 0 2.41-4.89 58.07 58.07 0 0 0 2.16-7.55c.67-2.98 1.28-6.57 1.82-10.77.54-4.2 1.02-9.06 1.43-14.58.41-5.53.71-11.85.91-18.96h45.21v71.13Z"/></svg>