<svg version="1.1" id="Слой_1" xmlns="http://www.w3.org/2000/svg" x="0" y="0" viewBox="0 0 1454.62 200" style="enable-background:new 0 0 1454.62 200" xml:space="preserve"><style>.st0{fill:#fff}</style><path class="st0" d="M88.18 84.98a8.96 8.96 0 0 0 4.78 1.22h8.01l.2-.52-17.63-28.68a18.05 18.05 0 0 0-3.64-4.61 13.03 13.03 0 0 0-4.55-2.57 10.17 10.17 0 0 0 3.62-2.26c.98-.97 1.94-2.19 2.86-3.64l17.76-26.57h-10.1a7.16 7.16 0 0 0-6.28 3.62l-14.06 21.79a6.92 6.92 0 0 1-2.83 2.77 8.5 8.5 0 0 1-3.46.67h-6.09v-28.86h-12.05v28.86h-6.05c-1.3 0-2.46-.22-3.47-.67-1.02-.45-1.95-1.36-2.81-2.77l-14.1-21.81a7.1 7.1 0 0 0-6.24-3.62h-10.14l17.77 26.57a19.6 19.6 0 0 0 2.88 3.64c1 .97 2.2 1.72 3.6 2.26a13.42 13.42 0 0 0-4.5 2.57 17.63 17.63 0 0 0-3.64 4.61l-18.02 29.22h8.57a8.96 8.96 0 0 0 7.96-4.44l14.1-22.04a7.48 7.48 0 0 1 2.83-2.95 8.4 8.4 0 0 1 3.98-.86h7.29v30.29h12.05v-30.29h7.29c1.62 0 2.95.29 4 .86 1.05.57 2 1.55 2.86 2.95l14.09 22.04a9.11 9.11 0 0 0 3.16 3.22zm22.74 1.22c1.11 0 2.03-.3 2.76-.91a4.53 4.53 0 0 0 1.48-2l5.14-14.05h28.53l5.14 14.05a5.2 5.2 0 0 0 1.57 2.07c.7.56 1.6.84 2.71.84h9.91l-27.05-68.86h-13.09l-26.85 68.35.32.52h9.43zm21.05-48.82c.41-1.05.84-2.28 1.29-3.69.44-1.41.87-2.93 1.29-4.55.44 1.62.88 3.13 1.33 4.53.44 1.4.87 2.6 1.28 3.62l8.39 22.9h-21.91l8.33-22.81z"/><path class="st0" d="m101.49 86.2-.32-.51-.2.51zm116.3-5.88a18.54 18.54 0 0 0 4.93-6.79 22.28 22.28 0 0 0 1.69-8.81c0-2.64-.47-5.11-1.43-7.41-.95-2.3-2.44-4.3-4.46-6a22.02 22.02 0 0 0-7.81-4.02 39.5 39.5 0 0 0-11.5-1.47h-11.24v-18.58h33.9v-9.9h-46.72v68.86h24.01c4 0 7.57-.51 10.69-1.53a22.36 22.36 0 0 0 7.94-4.35zm-12.65-4.91c-1.6.53-3.6.79-5.98.79h-11.19v-20.38h11.24c2.38 0 4.36.24 5.95.71s2.88 1.15 3.86 2.02a7.24 7.24 0 0 1 2.09 3.22c.41 1.27.62 2.68.62 4.24 0 1.43-.21 2.76-.62 4s-1.12 2.32-2.09 3.24c-.98.91-2.27 1.64-3.88 2.16zm75.29-37.45c-.08 1.78-.12 3.47-.12 5.09v43.15h12.86v-68.86h-9.62c-.64 0-1.23.12-1.79.36a6.6 6.6 0 0 0-1.54.9 8.2 8.2 0 0 0-1.31 1.26c-.4.48-.74.95-1.03 1.43l-26.28 41.05a40.51 40.51 0 0 0-2.22 4 49.83 49.83 0 0 0-2.07 4.95c.29-2 .47-3.9.55-5.7.08-1.79.12-3.5.12-5.12v-43.13h-12.86v68.86h9.62c.6 0 1.19-.12 1.77-.36a7.78 7.78 0 0 0 2.88-2.17c.4-.47.74-.95 1.02-1.43l26.34-41.05a48.44 48.44 0 0 0 4.24-8.91c-.29 2.01-.48 3.9-.56 5.68zm86.13 48.24v-68.86h-12.85v29.62h-32.34v-29.62h-12.86v68.86h12.86v-30.1h32.34v30.1zm55.71-29.05a19.61 19.61 0 0 0-3.78-4.79 12.24 12.24 0 0 0-4.84-2.54 12.66 12.66 0 0 0 3.48-1.86 11.73 11.73 0 0 0 2.76-3l18.72-27.62h-10.95a5.1 5.1 0 0 0-3.1.95 9.29 9.29 0 0 0-2.24 2.48l-15.09 22.28a6.93 6.93 0 0 1-2.67 2.48c-.95.44-2.09.67-3.38.67h-6.48v-28.86h-12.81v68.86h12.81v-30.29h7.67c.79 0 1.5.05 2.12.15a5.28 5.28 0 0 1 3.05 1.59c.43.43.83.98 1.21 1.64l14.67 23.15a9.28 9.28 0 0 0 2.26 2.81 4.7 4.7 0 0 0 3.02.95h11.62l-18.05-29.05zm86.27 8.64c1.67-4.3 2.5-8.98 2.5-14.02 0-3.36-.37-6.57-1.12-9.62a34.3 34.3 0 0 0-3.26-8.48 32.74 32.74 0 0 0-5.22-7.07 31.32 31.32 0 0 0-6.93-5.39 34.87 34.87 0 0 0-8.48-3.43 38.6 38.6 0 0 0-9.86-1.22c-5.2 0-9.95.88-14.24 2.64a32.46 32.46 0 0 0-11.02 7.36 33.15 33.15 0 0 0-7.12 11.17 38.24 38.24 0 0 0-2.52 14.03c0 5.05.84 9.72 2.52 14.02a33.15 33.15 0 0 0 7.12 11.17 32.4 32.4 0 0 0 11.02 7.36 37.2 37.2 0 0 0 14.24 2.64c5.24 0 10.01-.88 14.29-2.64a32.13 32.13 0 0 0 11-7.36 32.52 32.52 0 0 0 7.08-11.16zm-12.11-3.86c-1.02 3-2.46 5.54-4.34 7.62a18.54 18.54 0 0 1-6.83 4.79 23.55 23.55 0 0 1-9.08 1.67c-3.36 0-6.39-.56-9.07-1.67a18.94 18.94 0 0 1-6.86-4.79 21.4 21.4 0 0 1-4.36-7.62c-1.02-3-1.53-6.39-1.53-10.16 0-3.78.51-7.17 1.53-10.17s2.46-5.55 4.36-7.64c1.89-2.1 4.18-3.7 6.86-4.81a23.5 23.5 0 0 1 9.07-1.67c3.36 0 6.39.56 9.08 1.67a18.59 18.59 0 0 1 6.83 4.81 21.7 21.7 0 0 1 4.34 7.64 31.5 31.5 0 0 1 1.52 10.17c0 3.78-.51 7.16-1.52 10.16zm62.57 22.74a23.23 23.23 0 0 0 7.86-4.22 17.96 17.96 0 0 0 4.86-6.4 19.55 19.55 0 0 0 1.67-8.09c0-8.1-4.74-13.21-14.19-15.34a23.08 23.08 0 0 0 5.5-2.67 16.77 16.77 0 0 0 3.81-3.5c1-1.29 1.74-2.67 2.21-4.15.48-1.47.72-3.02.72-4.64 0-2.83-.48-5.36-1.43-7.62s-2.45-4.18-4.5-5.76a22 22 0 0 0-7.88-3.67 45.7 45.7 0 0 0-11.57-1.28h-23.72v68.87h26.01c3.99 0 7.55-.51 10.65-1.53zm-23.85-57.43h10.91c4.32 0 7.5.77 9.53 2.29 2.03 1.53 3.05 4.08 3.05 7.67 0 3.46-1.12 5.98-3.36 7.57-2.24 1.59-5.55 2.39-9.93 2.39h-10.19v-19.92zm0 48.96v-20.2h12.91c2.26 0 4.19.22 5.78.67 1.6.45 2.91 1.09 3.93 1.93a7.46 7.46 0 0 1 2.24 3.05 12.59 12.59 0 0 1 .07 8.07 8.33 8.33 0 0 1-2.09 3.33 10.5 10.5 0 0 1-3.88 2.29c-1.62.57-3.62.86-6 .86h-12.96zm54.86.86a30.27 30.27 0 0 0 10.46 7.29 34.8 34.8 0 0 0 13.78 2.62c5.72 0 10.62-.92 14.7-2.76a27.78 27.78 0 0 0 10.31-7.95l-5.05-5.48a2.56 2.56 0 0 0-1.86-.81c-.38 0-.74.09-1.09.26-.35.18-.68.41-1 .7a21.51 21.51 0 0 1-3.17 2.4 17.74 17.74 0 0 1-7.29 2.5c-1.41.19-2.99.29-4.74.29-2.92 0-5.65-.54-8.19-1.64a18.93 18.93 0 0 1-6.62-4.74 22.44 22.44 0 0 1-4.45-7.62 30.06 30.06 0 0 1-1.64-10.33c0-3.84.5-7.26 1.52-10.26s2.45-5.54 4.29-7.62a18.29 18.29 0 0 1 6.6-4.77 21.34 21.34 0 0 1 8.46-1.64c1.81 0 3.4.14 4.78.4 1.38.27 2.6.6 3.64 1 1.05.4 1.97.84 2.77 1.31a61 61 0 0 1 2.09 1.31c.6.4 1.16.74 1.67 1a3.12 3.12 0 0 0 3.11-.02c.4-.29.73-.62.98-1l4.29-5.95a31.73 31.73 0 0 0-9.93-6.47 33.9 33.9 0 0 0-13.36-2.48c-5.05 0-9.65.87-13.81 2.6a31.67 31.67 0 0 0-10.74 7.26c-3 3.12-5.33 6.82-6.98 11.12s-2.48 9.04-2.48 14.22c0 5.11.77 9.82 2.31 14.14s3.75 8.01 6.64 11.12zm101.84 8.19a4.7 4.7 0 0 0 3.02.95h11.62l-18.05-29.05a19.61 19.61 0 0 0-3.78-4.79 12.24 12.24 0 0 0-4.84-2.54 12.66 12.66 0 0 0 3.48-1.86 11.73 11.73 0 0 0 2.76-3l18.72-27.62h-10.95a5.1 5.1 0 0 0-3.1.95 9.29 9.29 0 0 0-2.24 2.48l-15.09 22.28a6.93 6.93 0 0 1-2.67 2.48c-.95.44-2.09.67-3.38.67h-6.48v-28.86h-12.81v68.86h12.81v-30.29h7.67c.79 0 1.5.05 2.12.15a5.28 5.28 0 0 1 3.05 1.59c.43.43.83.98 1.21 1.64l14.67 23.15a9.54 9.54 0 0 0 2.26 2.81zm33.89.6a7.78 7.78 0 0 0 2.88-2.17c.4-.47.74-.95 1.02-1.43l26.34-41.05a48.44 48.44 0 0 0 4.24-8.91c-.29 2-.47 3.89-.55 5.67-.08 1.78-.12 3.47-.12 5.09v43.15h12.86v-68.86h-9.62c-.64 0-1.23.12-1.79.36a6.6 6.6 0 0 0-1.54.9 8.2 8.2 0 0 0-1.31 1.26c-.4.48-.74.95-1.03 1.43l-26.28 41.06a42.68 42.68 0 0 0-2.22 4 49.83 49.83 0 0 0-2.07 4.95c.29-2 .47-3.9.55-5.7.08-1.79.12-3.5.12-5.12v-43.14h-12.86v68.86h9.62c.6 0 1.19-.12 1.76-.35zm105.79-48.63a48.44 48.44 0 0 0 2.07-4.93c-.29 2-.47 3.89-.55 5.67-.08 1.78-.12 3.47-.12 5.09v43.15h12.86v-68.86h-9.62c-.64 0-1.23.12-1.79.36a6.6 6.6 0 0 0-1.54.9 8.2 8.2 0 0 0-1.31 1.26c-.4.48-.74.95-1.03 1.43l-26.28 41.06a42.68 42.68 0 0 0-2.22 4 49.83 49.83 0 0 0-2.07 4.95c.29-2 .47-3.9.55-5.7.08-1.79.12-3.5.12-5.12v-43.14h-12.86v68.86h9.62c.6 0 1.19-.12 1.77-.36a7.78 7.78 0 0 0 2.88-2.17c.4-.47.74-.95 1.02-1.43l26.34-41.05a54.69 54.69 0 0 0 2.16-3.97zm-25.45-26.5c1.36.82 3 1.45 4.9 1.88 1.91.43 4.04.64 6.39.64s4.47-.22 6.38-.64 3.54-1.05 4.91-1.88a8.2 8.2 0 0 0 4.24-7.39c0-.82-.2-1.59-.6-2.29a1.98 1.98 0 0 0-1.84-1.05h-6.95c0 1.46-.09 2.67-.29 3.62a4.82 4.82 0 0 1-1 2.26c-.47.56-1.11.95-1.9 1.16-.8.22-1.78.33-2.95.33-1.21 0-2.2-.11-2.98-.33-.78-.22-1.4-.6-1.88-1.16a4.97 4.97 0 0 1-1-2.26c-.19-.95-.29-2.15-.29-3.62h-6.95c-.82 0-1.43.35-1.83 1.05-.4.7-.6 1.47-.6 2.29a8.3 8.3 0 0 0 1.09 4.29 8.84 8.84 0 0 0 3.15 3.1zm112.31 49.57a23.22 23.22 0 0 0 8.36-4.67c2.22-2 3.88-4.39 5-7.16a24.53 24.53 0 0 0 1.67-9.17c0-3.21-.53-6.16-1.6-8.86a17.84 17.84 0 0 0-4.88-6.95 23.14 23.14 0 0 0-8.33-4.53c-3.36-1.08-7.35-1.61-11.95-1.61h-22.39v68.86h12.81v-24.24h9.57c4.48 0 8.39-.55 11.74-1.67zm-21.31-33.05h9.57c2.38 0 4.44.28 6.19.84a11.6 11.6 0 0 1 4.33 2.4 9.93 9.93 0 0 1 2.57 3.81c.57 1.49.86 3.15.86 5 0 1.94-.29 3.69-.86 5.26a10.15 10.15 0 0 1-2.59 4 11.75 11.75 0 0 1-4.36 2.53c-1.74.58-3.79.88-6.14.88h-9.57v-24.72zm73.29-9.9h-13.09l-27.05 68.86h9.95c1.11 0 2.03-.3 2.76-.91a4.53 4.53 0 0 0 1.48-2l5.14-14.05h28.53l5.14 14.05a5.2 5.2 0 0 0 1.57 2.07c.7.56 1.6.84 2.71.84h9.91l-27.05-68.86zm-17.47 42.86 8.33-22.81c.41-1.05.84-2.28 1.29-3.69.44-1.41.87-2.93 1.29-4.55.44 1.62.88 3.13 1.33 4.53.44 1.4.87 2.6 1.28 3.62l8.39 22.9h-21.91zm62.91 25.65a7.78 7.78 0 0 0 2.88-2.17c.4-.47.74-.95 1.02-1.43l26.34-41.05a48.44 48.44 0 0 0 4.24-8.91c-.29 2-.47 3.89-.55 5.67-.08 1.78-.12 3.47-.12 5.09v43.15h12.86v-68.86h-9.62c-.64 0-1.23.12-1.79.36a6.6 6.6 0 0 0-1.54.9 8.2 8.2 0 0 0-1.31 1.26c-.4.48-.74.95-1.03 1.43l-26.28 41.06a42.68 42.68 0 0 0-2.22 4 49.83 49.83 0 0 0-2.07 4.95c.29-2 .47-3.9.55-5.7.08-1.79.12-3.5.12-5.12v-43.14h-12.86v68.86h9.62c.6 0 1.19-.12 1.76-.35zm6.95-75.13c1.36.82 3 1.45 4.9 1.88 1.91.43 4.04.64 6.39.64s4.47-.22 6.38-.64a16.32 16.32 0 0 0 4.91-1.88 8.2 8.2 0 0 0 4.24-7.39c0-.82-.2-1.59-.6-2.29a1.98 1.98 0 0 0-1.84-1.05h-6.95c0 1.46-.09 2.67-.29 3.62a4.82 4.82 0 0 1-1 2.26c-.47.56-1.11.95-1.9 1.16-.8.22-1.78.33-2.95.33-1.21 0-2.2-.11-2.98-.33-.78-.22-1.4-.6-1.88-1.16a4.97 4.97 0 0 1-1-2.26c-.19-.95-.29-2.15-.29-3.62h-6.95c-.82 0-1.43.35-1.83 1.05-.4.7-.6 1.47-.6 2.29a8.3 8.3 0 0 0 1.09 4.29 8.92 8.92 0 0 0 3.15 3.1zm120.73 41.05c0-3.36-.37-6.57-1.12-9.62a34.3 34.3 0 0 0-3.26-8.48 32.74 32.74 0 0 0-5.22-7.07 31.32 31.32 0 0 0-6.93-5.39 34.87 34.87 0 0 0-8.48-3.43 38.6 38.6 0 0 0-9.86-1.22c-5.2 0-9.95.88-14.24 2.64a32.46 32.46 0 0 0-11.02 7.36c-3.06 3.15-5.44 6.87-7.12 11.17s-2.52 8.98-2.52 14.03c0 5.05.84 9.72 2.52 14.02s4.06 8.02 7.12 11.17a32.4 32.4 0 0 0 11.02 7.36 37.2 37.2 0 0 0 14.24 2.64c5.24 0 10.01-.88 14.29-2.64a32.13 32.13 0 0 0 11-7.36c3.05-3.15 5.4-6.87 7.07-11.17s2.51-8.96 2.51-14.01zm-14.62 10.16c-1.02 3-2.46 5.54-4.34 7.62a18.54 18.54 0 0 1-6.83 4.79c-2.68 1.11-5.71 1.67-9.08 1.67s-6.39-.56-9.07-1.67a18.94 18.94 0 0 1-6.86-4.79 21.4 21.4 0 0 1-4.36-7.62c-1.02-3-1.53-6.39-1.53-10.16 0-3.78.51-7.17 1.53-10.17s2.46-5.55 4.36-7.64c1.89-2.1 4.18-3.7 6.86-4.81 2.68-1.11 5.7-1.67 9.07-1.67s6.39.56 9.08 1.67a18.59 18.59 0 0 1 6.83 4.81 21.7 21.7 0 0 1 4.34 7.64 31.5 31.5 0 0 1 1.52 10.17c0 3.78-.51 7.16-1.52 10.16zm71.1-14.97h-32.34v-29.62h-12.86v68.86h12.86v-30.1h32.34v30.1h12.86v-68.86h-12.86zm73.39 0h-32.34v-29.62h-12.86v68.86h12.86v-30.1h32.34v30.1h12.86v-68.86h-12.86zm71.54 4.35a22.02 22.02 0 0 0-7.81-4.02 39.5 39.5 0 0 0-11.5-1.47h-11.24v-28.48h-12.81v68.86h24.01c4 0 7.57-.51 10.69-1.53 3.12-1.02 5.77-2.46 7.93-4.36s3.81-4.15 4.93-6.79a22.28 22.28 0 0 0 1.69-8.81c0-2.64-.47-5.11-1.43-7.41s-2.44-4.29-4.46-5.99zm-7.4 18.7a7.81 7.81 0 0 1-2.09 3.24c-.98.91-2.28 1.64-3.88 2.16-1.6.53-3.6.79-5.98.79h-11.19v-20.38h11.24c2.38 0 4.36.24 5.95.71s2.88 1.15 3.86 2.02a7.24 7.24 0 0 1 2.09 3.22c.41 1.27.62 2.68.62 4.24 0 1.43-.21 2.76-.62 4zm23.33-52.67h12.86v68.86h-12.86zm42.51 66.33c.4-.47.74-.95 1.02-1.43l26.34-41.05a48.44 48.44 0 0 0 4.24-8.91c-.29 2-.47 3.89-.55 5.67-.08 1.78-.12 3.47-.12 5.09v43.16h12.86v-68.86h-9.62c-.64 0-1.23.12-1.79.36a6.6 6.6 0 0 0-1.54.9 8.2 8.2 0 0 0-1.31 1.26c-.4.48-.74.95-1.03 1.43l-26.28 41.06a40.51 40.51 0 0 0-2.22 4 49.83 49.83 0 0 0-2.07 4.95c.29-2 .47-3.9.55-5.7.08-1.79.12-3.5.12-5.12v-43.14h-12.86v68.86h9.62c.6 0 1.19-.12 1.77-.36a7.36 7.36 0 0 0 2.87-2.17zm4.08-72.95c1.36.82 3 1.45 4.9 1.88 1.91.43 4.04.64 6.39.64s4.47-.22 6.38-.64a16.32 16.32 0 0 0 4.91-1.88 8.2 8.2 0 0 0 4.24-7.39c0-.82-.2-1.59-.6-2.29a1.98 1.98 0 0 0-1.84-1.05h-6.95c0 1.46-.09 2.67-.29 3.62a4.82 4.82 0 0 1-1 2.26c-.47.56-1.11.95-1.9 1.16-.8.22-1.78.33-2.95.33-1.21 0-2.2-.11-2.98-.33-.78-.22-1.4-.6-1.88-1.16a4.97 4.97 0 0 1-1-2.26c-.19-.95-.29-2.15-.29-3.62h-6.95c-.82 0-1.43.35-1.83 1.05-.4.7-.6 1.47-.6 2.29a8.3 8.3 0 0 0 1.09 4.29 8.92 8.92 0 0 0 3.15 3.1zm-1353.8 120.78a7.59 7.59 0 0 0-2.83 2.14c-.4.48-.74.94-1.02 1.42l-25.99 40.6a47.5 47.5 0 0 0-4.24 8.86c.28-1.98.46-3.86.54-5.63.08-1.78.11-3.46.11-5.07v-42.67h-12.7v68.1h9.51c.6 0 1.18-.11 1.75-.35a7.22 7.22 0 0 0 2.85-2.15c.39-.47.74-.94 1.01-1.41l26.05-40.6a45.34 45.34 0 0 0 4.2-8.81 56.4 56.4 0 0 0-.54 5.6 110.7 110.7 0 0 0-.11 5.04v42.67h12.72v-68.1h-9.51c-.66.01-1.25.12-1.8.36zm73.22 51.69c-.38 0-.74.08-1.08.26-.34.17-.67.4-.99.68-1.03.94-2.09 1.73-3.14 2.38s-2.16 1.17-3.34 1.58c-1.18.41-2.47.71-3.86.9-1.4.18-2.96.28-4.68.28-2.89 0-5.59-.54-8.1-1.62-2.51-1.09-4.69-2.65-6.55-4.69s-3.32-4.55-4.4-7.54a29.66 29.66 0 0 1-1.63-10.22c0-3.8.5-7.18 1.5-10.15 1-2.97 2.42-5.48 4.24-7.54a18.17 18.17 0 0 1 6.52-4.71 21.06 21.06 0 0 1 8.36-1.63 22.83 22.83 0 0 1 8.33 1.4c1.03.39 1.95.82 2.74 1.3.78.47 1.47.9 2.07 1.3.6.39 1.14.72 1.65.99.5.26.99.4 1.46.4.69 0 1.23-.15 1.63-.42.4-.28.72-.61.97-.99l4.24-5.89a31.35 31.35 0 0 0-9.82-6.41 33.57 33.57 0 0 0-13.21-2.45c-4.99 0-9.54.86-13.66 2.57a31.5 31.5 0 0 0-10.62 7.18c-2.97 3.08-5.27 6.75-6.9 11s-2.45 8.94-2.45 14.06c0 5.05.76 9.72 2.28 13.99a31.64 31.64 0 0 0 6.57 11.02 30.05 30.05 0 0 0 10.34 7.21 34.26 34.26 0 0 0 13.63 2.59c5.66 0 10.5-.9 14.53-2.73s7.44-4.45 10.2-7.87l-4.99-5.42a2.53 2.53 0 0 0-1.84-.81zm15.54 16.06h12.71v-58.35h29.58v58.35h12.77v-68.1h-55.06zm130.84-51.95a32.42 32.42 0 0 0-5.16-6.99 30.86 30.86 0 0 0-6.85-5.32 34.54 34.54 0 0 0-8.39-3.4c-3.04-.8-6.29-1.2-9.75-1.2-5.14 0-9.84.87-14.08 2.61a32.1 32.1 0 0 0-10.9 7.28 32.55 32.55 0 0 0-7.04 11.04 37.88 37.88 0 0 0-2.49 13.88c0 4.99.83 9.61 2.49 13.87a32.85 32.85 0 0 0 7.04 11.05 31.93 31.93 0 0 0 10.9 7.27 36.59 36.59 0 0 0 14.08 2.61c5.18 0 9.9-.87 14.14-2.61a31.75 31.75 0 0 0 10.88-7.27 32.53 32.53 0 0 0 6.99-11.05 38.03 38.03 0 0 0 2.48-13.87c0-3.33-.37-6.5-1.11-9.51a34.38 34.38 0 0 0-3.23-8.39zm-10.12 27.96a21.55 21.55 0 0 1-4.29 7.54 18.54 18.54 0 0 1-6.75 4.73c-2.65 1.1-5.65 1.65-8.98 1.65s-6.32-.54-8.97-1.65a18.82 18.82 0 0 1-6.78-4.73 21.19 21.19 0 0 1-4.31-7.54c-1-2.97-1.51-6.32-1.51-10.06s.51-7.09 1.51-10.06c1-2.97 2.44-5.49 4.31-7.56a18.65 18.65 0 0 1 6.78-4.76c2.65-1.1 5.64-1.65 8.97-1.65s6.32.55 8.98 1.65a18.29 18.29 0 0 1 6.75 4.76 21.48 21.48 0 0 1 4.29 7.56c1 2.97 1.5 6.32 1.5 10.06 0 3.73-.5 7.09-1.5 10.06zm34.73-25.96c-.39 5.3-.85 9.95-1.36 13.97-.52 4.02-1.1 7.46-1.74 10.32-.64 2.85-1.34 5.27-2.08 7.23s-1.5 3.52-2.31 4.68a10.86 10.86 0 0 1-2.45 2.66 6.82 6.82 0 0 1-2.5 1.2c-.84.18-1.66.28-2.47.28h-3.63v7.91c0 .78.52 1.38 1.56 1.79 1.03.41 2.68.61 4.94.61 2.14 0 4.18-.28 6.12-.82a13.82 13.82 0 0 0 5.47-3.11 22.4 22.4 0 0 0 4.68-6.38 50.39 50.39 0 0 0 3.82-10.67c1.11-4.38 2.07-9.69 2.87-15.92.8-6.23 1.43-13.61 1.86-22.15h18.6v58.35h12.76v-68.1h-43.27a402.3 402.3 0 0 1-.87 18.15zm104.01 11.14h-31.98v-29.29h-12.71v68.1h12.71v-29.77h31.98v29.77h12.72v-68.1h-12.72zm74.02-28.94a7.59 7.59 0 0 0-2.83 2.14c-.4.48-.74.94-1.02 1.42l-25.99 40.6a47.5 47.5 0 0 0-4.24 8.86c.28-1.98.46-3.86.54-5.63.08-1.78.11-3.46.11-5.07v-42.67h-12.72v68.1h9.51c.6 0 1.18-.11 1.75-.35a7.22 7.22 0 0 0 2.85-2.15c.39-.47.74-.94 1.01-1.41l26.05-40.6a45.34 45.34 0 0 0 4.2-8.81 56.4 56.4 0 0 0-.54 5.6 110.7 110.7 0 0 0-.11 5.04v42.67h12.72v-68.1h-9.51c-.64.01-1.23.12-1.78.36zm20.27 10.06h20.54v57.69h12.67v-57.69h20.54v-10.41h-53.75zm62.69 57.69h42.95v-10.13h-30.24v-19.26h23.84v-9.75h-23.84v-18.88h30.24v-10.08h-42.95zm64.92-49.95c-.39 5.3-.85 9.95-1.36 13.97-.52 4.02-1.1 7.46-1.74 10.32-.64 2.85-1.34 5.27-2.08 7.23s-1.5 3.52-2.31 4.68a10.86 10.86 0 0 1-2.45 2.66 6.82 6.82 0 0 1-2.5 1.2c-.84.18-1.66.28-2.47.28h-3.63v7.91c0 .78.52 1.38 1.56 1.79 1.03.41 2.68.61 4.94.61 2.14 0 4.18-.28 6.12-.82a13.82 13.82 0 0 0 5.47-3.11 22.4 22.4 0 0 0 4.68-6.38 50.39 50.39 0 0 0 3.82-10.67c1.11-4.38 2.07-9.69 2.87-15.92.8-6.23 1.43-13.61 1.86-22.15h18.6v58.35h12.76v-68.1h-43.28c-.17 6.81-.46 12.86-.86 18.15zm102.2 15.45a21.78 21.78 0 0 0-7.72-3.99 39.05 39.05 0 0 0-11.38-1.46h-11.12v-28.16h-12.67v68.1h23.74c3.96 0 7.48-.5 10.57-1.51 3.09-1 5.7-2.44 7.84-4.31a18.36 18.36 0 0 0 4.88-6.71 22.04 22.04 0 0 0 1.67-8.72c0-2.61-.47-5.04-1.41-7.32a15.27 15.27 0 0 0-4.4-5.92zm-7.32 18.49a7.64 7.64 0 0 1-2.07 3.2 9.98 9.98 0 0 1-3.84 2.14c-1.59.52-3.56.78-5.91.78h-11.07v-20.16h11.12c2.35 0 4.32.24 5.89.71 1.57.48 2.84 1.14 3.82 2a7.16 7.16 0 0 1 2.07 3.18c.41 1.26.61 2.65.61 4.19 0 1.41-.21 2.73-.62 3.96zm67.35-22.8h-31.98v-29.29h-12.71v68.1h12.71v-29.77h31.98v29.77h12.72v-68.1h-12.72zm70.77 4.31a21.78 21.78 0 0 0-7.72-3.99 39.05 39.05 0 0 0-11.38-1.46h-11.12v-28.16h-12.67v68.1h23.74c3.96 0 7.48-.5 10.57-1.51 3.09-1 5.7-2.44 7.84-4.31a18.36 18.36 0 0 0 4.88-6.71 22.04 22.04 0 0 0 1.67-8.72c0-2.61-.47-5.04-1.41-7.32a15.48 15.48 0 0 0-4.4-5.92zm-7.32 18.49a7.64 7.64 0 0 1-2.07 3.2 9.98 9.98 0 0 1-3.84 2.14c-1.59.52-3.56.78-5.91.78h-11.07v-20.16h11.12c2.35 0 4.32.24 5.89.71 1.57.48 2.84 1.14 3.82 2a7.16 7.16 0 0 1 2.07 3.18c.41 1.26.61 2.65.61 4.19a13.03 13.03 0 0 1-.62 3.96zm23.07-52.09h12.72v68.1h-12.72zm74.06.35a7.59 7.59 0 0 0-2.83 2.14c-.4.48-.74.94-1.02 1.42l-25.99 40.6a47.5 47.5 0 0 0-4.24 8.86c.28-1.98.46-3.86.54-5.63.08-1.78.11-3.46.11-5.07v-42.67h-12.72v68.1h9.51c.6 0 1.18-.11 1.75-.35a7.22 7.22 0 0 0 2.85-2.15c.39-.47.74-.94 1.01-1.41l26.05-40.6a45.34 45.34 0 0 0 4.2-8.81 56.4 56.4 0 0 0-.54 5.6 110.7 110.7 0 0 0-.11 5.04v42.67h12.72v-68.1h-9.51c-.64.01-1.23.12-1.78.36zm-22.63-13.92a18.6 18.6 0 0 1-.28-3.58h-6.88c-.81 0-1.42.34-1.81 1.04a4.4 4.4 0 0 0-.59 2.25c0 1.6.36 3.02 1.08 4.24a8.8 8.8 0 0 0 3.11 3.07c1.35.81 2.97 1.43 4.84 1.86 1.89.43 3.99.64 6.32.64 2.32 0 4.42-.21 6.31-.64 1.89-.42 3.5-1.04 4.85-1.86a8.77 8.77 0 0 0 3.1-3.07 8.11 8.11 0 0 0 1.09-4.24c0-.81-.2-1.56-.59-2.25-.39-.7-1-1.04-1.82-1.04h-6.88c0 1.45-.09 2.64-.28 3.58a4.69 4.69 0 0 1-.99 2.24c-.47.55-1.1.94-1.88 1.16-.79.21-1.76.33-2.92.33-1.2 0-2.18-.11-2.94-.33a3.73 3.73 0 0 1-1.86-1.16 4.98 4.98 0 0 1-.98-2.24zm108.16 48.21a12.03 12.03 0 0 0-4.78-2.52 11.66 11.66 0 0 0 6.17-4.81l18.51-27.31h-10.83a5 5 0 0 0-3.07.94 8.94 8.94 0 0 0-2.22 2.45l-14.93 22.05c-.82 1.19-1.69 2.01-2.64 2.45s-2.06.66-3.34.66h-6.41v-28.54h-12.67v68.1h12.67v-29.96h7.58c.78 0 1.49.05 2.1.15a5.09 5.09 0 0 1 3.01 1.57c.42.42.82.97 1.2 1.63l14.51 22.89a9.02 9.02 0 0 0 2.24 2.77c.8.63 1.79.94 2.99.94h11.49l-17.85-28.73a18.9 18.9 0 0 0-3.73-4.73zm87.21-18.49a32.42 32.42 0 0 0-5.16-6.99 30.86 30.86 0 0 0-6.85-5.32 34.7 34.7 0 0 0-8.39-3.4c-3.04-.8-6.29-1.2-9.75-1.2-5.14 0-9.84.87-14.08 2.61a32.1 32.1 0 0 0-10.9 7.28 32.55 32.55 0 0 0-7.04 11.04 37.88 37.88 0 0 0-2.49 13.88c0 4.99.83 9.61 2.49 13.87a32.85 32.85 0 0 0 7.04 11.05 31.93 31.93 0 0 0 10.9 7.27 36.59 36.59 0 0 0 14.08 2.61c5.18 0 9.9-.87 14.14-2.61a31.65 31.65 0 0 0 10.88-7.27 32.53 32.53 0 0 0 6.99-11.05 38.03 38.03 0 0 0 2.48-13.87c0-3.33-.37-6.5-1.11-9.51a34.78 34.78 0 0 0-3.23-8.39zm-10.13 27.96a21.55 21.55 0 0 1-4.29 7.54 18.54 18.54 0 0 1-6.75 4.73c-2.65 1.1-5.65 1.65-8.98 1.65s-6.32-.54-8.97-1.65a18.82 18.82 0 0 1-6.78-4.73 21.19 21.19 0 0 1-4.31-7.54c-1-2.97-1.51-6.32-1.51-10.06s.51-7.09 1.51-10.06c1-2.97 2.44-5.49 4.31-7.56a18.65 18.65 0 0 1 6.78-4.76c2.65-1.1 5.64-1.65 8.97-1.65s6.32.55 8.98 1.65a18.29 18.29 0 0 1 6.75 4.76 21.48 21.48 0 0 1 4.29 7.56c1 2.97 1.5 6.32 1.5 10.06 0 3.73-.49 7.09-1.5 10.06zm88.45-44.07a3.7 3.7 0 0 0-1.1.24c-.33.12-.64.33-.92.61-.28.28-.55.66-.8 1.13l-20.11 37.72a65.66 65.66 0 0 0-2.87 6.51c-.44-1.13-.88-2.23-1.34-3.3-.45-1.07-.95-2.1-1.48-3.1l-20.4-37.82a5.4 5.4 0 0 0-.77-1.13 2.4 2.4 0 0 0-.9-.61c-.33-.13-.7-.21-1.1-.24-.41-.03-.9-.05-1.46-.05h-9.56v68.1h11.16v-43.99c0-.85-.03-1.78-.09-2.78-.06-1-.14-2.02-.24-3.06l20.82 38.8a4.74 4.74 0 0 0 4.48 2.78h1.79c2.01 0 3.5-.93 4.48-2.78l20.58-38.67a61.62 61.62 0 0 0-.28 5.7v43.99h11.16v-68.1h-9.56c-.6.01-1.09.02-1.49.05zm72.32.31a7.59 7.59 0 0 0-2.83 2.14c-.4.48-.74.94-1.02 1.42l-25.99 40.6a47.5 47.5 0 0 0-4.24 8.86c.28-1.98.46-3.86.54-5.63.08-1.78.11-3.46.11-5.07v-42.67h-12.72v68.1h9.51c.6 0 1.18-.11 1.75-.35a7.22 7.22 0 0 0 2.85-2.15c.39-.47.74-.94 1.01-1.41l26.05-40.6a45.34 45.34 0 0 0 4.2-8.81 56.4 56.4 0 0 0-.54 5.6 110.7 110.7 0 0 0-.11 5.04v42.67h12.72v-68.1h-9.51c-.64.01-1.23.12-1.78.36zm20.27 10.06h20.54v57.69h12.67v-57.69h20.54v-10.41h-53.75zm62.68 57.69h42.96v-10.13h-30.24v-19.26h23.84v-9.75h-23.84v-18.88h30.24v-10.08h-42.96zm48-68.1v10.41h20.54v57.69h12.67v-57.69h20.53v-10.41z"/></svg>