<?xml version="1.0" standalone="no"?>
<!DOCTYPE svg PUBLIC "-//W3C//DTD SVG 20010904//EN"
 "http://www.w3.org/TR/2001/REC-SVG-20010904/DTD/svg10.dtd">
<svg version="1.0" xmlns="http://www.w3.org/2000/svg"
 width="752.000000pt" height="752.000000pt" viewBox="0 0 752.000000 752.000000"
 preserveAspectRatio="xMidYMid meet">
<metadata>
Created by potrace 1.14, written by Peter Selinger 2001-2017
</metadata>
<g transform="translate(0.000000,752.000000) scale(0.100000,-0.100000)"
fill="#000000" stroke="none">
<path d="M3498 6475 c-2 -2 -52 -6 -113 -9 -60 -4 -128 -9 -150 -11 -22 -3
-62 -7 -89 -10 -49 -4 -189 -23 -236 -30 -14 -3 -42 -7 -64 -10 -21 -4 -46 -8
-55 -10 -9 -1 -36 -6 -61 -10 -132 -22 -426 -92 -570 -136 -347 -106 -555
-187 -870 -337 -63 -30 -116 -58 -118 -63 -2 -5 -9 -9 -17 -9 -11 0 -72 -32
-205 -107 -88 -50 -278 -169 -367 -231 -156 -107 -168 -116 -176 -129 -4 -7
-13 -13 -19 -13 -6 0 -18 -7 -27 -15 -9 -8 -43 -36 -76 -62 -33 -26 -65 -52
-72 -58 -7 -5 -18 -14 -25 -20 -7 -5 -42 -35 -78 -65 -35 -30 -75 -64 -87 -74
l-23 -20 0 -1286 0 -1287 42 -38 c23 -20 90 -76 148 -124 58 -47 107 -89 108
-93 2 -5 8 -8 13 -8 5 0 22 -11 37 -24 54 -49 384 -276 400 -276 5 0 17 -9 27
-20 10 -11 22 -20 26 -20 5 0 32 -15 61 -34 29 -18 79 -47 111 -65 31 -17 81
-44 110 -60 151 -83 364 -184 547 -258 122 -50 333 -127 375 -137 6 -2 17 -6
25 -9 91 -36 436 -125 635 -163 11 -2 31 -6 45 -9 34 -6 78 -14 120 -21 19 -3
46 -7 60 -9 69 -11 180 -26 225 -31 28 -2 66 -6 85 -9 204 -27 933 -28 1103
-1 18 3 61 8 97 11 61 5 83 8 155 20 17 3 50 8 75 11 25 3 56 7 70 10 14 2 41
7 60 10 19 3 78 14 130 25 52 11 104 22 115 24 34 8 247 62 310 80 33 9 67 18
75 20 8 2 58 18 110 35 106 35 112 37 123 39 4 0 21 8 37 16 17 9 30 13 30 10
0 -3 10 0 23 7 12 6 29 13 38 15 8 1 29 9 45 18 16 8 33 15 37 15 5 0 23 6 40
14 18 8 66 29 107 46 130 56 379 175 440 211 8 4 58 32 110 61 52 29 97 55
100 59 3 3 15 9 28 13 12 4 22 12 22 17 0 5 5 9 10 9 6 0 38 18 71 40 33 22
63 40 65 40 6 0 67 42 74 51 3 3 16 12 30 19 28 15 317 228 348 257 11 10 37
32 58 48 21 17 71 59 111 94 l73 63 0 1287 0 1286 -23 20 c-12 12 -51 45 -87
75 -36 30 -67 57 -70 60 -3 3 -23 19 -45 35 -22 16 -49 37 -60 47 -11 9 -31
26 -44 37 -13 12 -27 21 -30 21 -3 0 -17 10 -31 23 -14 12 -42 33 -62 47 -21
14 -38 28 -38 33 0 4 -4 7 -9 7 -5 0 -79 47 -165 105 -86 58 -156 102 -156 98
0 -3 -8 1 -17 9 -40 35 -170 106 -406 224 -214 108 -361 172 -562 246 -123 45
-376 127 -415 134 -19 4 -41 11 -47 17 -7 5 -13 7 -13 4 0 -2 -33 4 -72 15
-78 20 -240 58 -273 64 -11 1 -58 10 -105 19 -90 17 -96 18 -205 34 -114 17
-157 22 -205 26 -25 2 -70 7 -100 10 -30 4 -80 9 -110 11 -62 5 -668 13 -672
9z m407 -879 c187 -12 376 -64 572 -156 367 -174 675 -500 813 -865 12 -33 26
-69 31 -80 12 -28 51 -188 58 -235 1 -3 31 -5 69 -6 71 0 161 -9 202 -18 14
-4 37 -8 51 -11 79 -14 309 -107 317 -127 2 -4 8 -8 14 -8 23 0 157 -100 228
-170 122 -120 192 -223 261 -385 59 -141 89 -359 75 -550 -7 -88 -8 -91 -57
-128 -56 -44 -346 -237 -354 -237 -3 0 -11 -5 -18 -10 -37 -33 -436 -240 -460
-240 -8 0 -20 -7 -27 -15 -6 -8 -15 -14 -18 -13 -4 1 -20 -5 -37 -12 -16 -7
-32 -14 -35 -15 -3 -1 -23 -9 -45 -18 -70 -31 -224 -87 -238 -87 -7 0 -17 -4
-23 -8 -5 -4 -25 -13 -44 -19 -81 -26 -211 -65 -227 -68 -10 -2 -18 -4 -18 -6
0 -1 -9 -3 -20 -4 -11 -2 -45 -10 -77 -19 -31 -8 -67 -17 -80 -20 -12 -3 -45
-9 -73 -15 -27 -5 -57 -12 -65 -15 -18 -6 -79 -17 -100 -18 -8 0 -35 -4 -60
-10 -25 -5 -63 -11 -85 -13 -22 -2 -60 -6 -85 -10 -53 -7 -94 -12 -215 -22
-118 -10 -644 -10 -762 0 -91 8 -115 10 -203 22 -25 3 -58 7 -75 9 -29 4 -82
12 -142 21 -33 6 -207 41 -243 49 -14 3 -34 8 -45 10 -37 9 -220 57 -250 66
-226 72 -373 125 -463 166 -29 13 -55 24 -57 24 -25 0 -385 184 -524 267 -20
12 -43 25 -51 30 -8 4 -75 48 -149 98 -74 49 -141 95 -149 100 -9 6 -24 17
-35 25 -58 46 -58 46 -62 122 -2 40 -5 75 -6 78 -4 16 9 212 17 253 2 12 7 38
11 57 4 19 7 37 8 40 3 23 51 156 57 158 5 2 8 10 8 18 0 7 14 40 31 71 107
199 285 370 495 476 58 30 199 88 207 86 1 -1 22 5 47 11 25 7 55 14 66 16 12
1 39 6 60 9 22 4 78 8 127 9 68 1 88 4 91 16 2 8 10 40 16 70 13 60 36 143 50
175 4 11 19 47 32 80 25 65 80 174 110 217 10 14 18 29 18 33 0 6 93 134 127
176 72 86 246 244 311 284 10 6 37 24 62 41 121 84 394 196 546 223 32 6 70
13 83 16 13 2 56 7 95 10 39 3 71 7 72 8 4 3 142 -1 239 -7z"/>
<path d="M3648 5195 c-1 -1 -23 -5 -48 -8 -88 -12 -191 -37 -209 -51 -8 -6
-16 -10 -18 -8 -1 1 -4 2 -5 1 -2 0 -11 -2 -21 -4 -37 -7 -174 -78 -254 -131
-100 -67 -214 -172 -273 -253 -25 -34 -48 -61 -52 -61 -5 0 -8 -4 -8 -9 0 -5
-17 -38 -38 -72 -54 -90 -108 -225 -127 -319 -2 -8 -4 -15 -5 -15 -2 0 -8 -34
-19 -103 -19 -121 2 -433 31 -469 6 -7 8 -13 4 -13 -3 0 0 -16 8 -35 8 -19 13
-35 11 -35 -7 0 47 -119 88 -195 49 -92 111 -174 199 -262 333 -336 827 -443
1273 -276 79 29 218 102 260 135 6 5 28 22 49 38 87 67 205 191 253 266 34 52
98 170 95 177 -1 4 2 7 6 7 5 0 15 19 22 43 8 23 17 47 20 52 12 18 42 138 55
219 13 78 13 324 1 376 -4 14 -9 39 -12 55 -10 61 -47 172 -80 243 -30 66
-100 190 -113 202 -4 3 -25 30 -49 61 -46 62 -147 160 -202 199 -19 13 -37 27
-40 30 -26 32 -240 137 -335 165 -58 16 -71 20 -125 30 -14 3 -36 7 -50 10
-28 6 -286 15 -292 10z m264 -706 c269 -88 423 -379 337 -639 -28 -86 -43
-115 -93 -176 -116 -143 -288 -208 -476 -181 -195 28 -366 182 -415 375 -32
123 -15 266 42 370 38 69 106 146 160 181 27 17 54 35 60 41 7 6 14 10 15 9 2
-1 26 5 53 14 76 24 84 25 175 25 55 -1 105 -7 142 -19z"/>
</g>
</svg>
