<svg xmlns="http://www.w3.org/2000/svg"><style>:root svg:not(:target){display:none}</style><svg viewBox="0 0 51 51" fill="none" id="anim_arm"><path d="M35 10.38c-.1.2-.02.59-.46.47-.02 0-.08.09-.1.14l-.07.3c-.34 1.34-1.27 1.71-2.5.99.7-.99.7-2.12.56-3.22-.18-1.38-.5-2.74-.8-4.1-.03-.15-.22-.26-.34-.4-.02.19-.09.38-.06.55.26 1.4.58 2.8.78 4.2.14.96.1 1.94-.55 2.77l.33.25c-.2.18-.36.35-.58.06a.3.3 0 0 0-.22-.1 3.05 3.05 0 0 1-1.93-.51c1.67-1.87.83-3.77.08-5.67-.04-.09-.2-.12-.3-.18-.03.13-.1.27-.07.38.24.89.59 1.76.75 2.67.18.96-.01 1.87-.93 2.5l.13.12c.04.05.1.08.19.15-.07.06-.12.13-.16.12a1.27 1.27 0 0 1-.54-.16c-.93.23-1.77.19-2.3-.65l-.77-.14a2.3 2.3 0 0 1-2.02.44c-.3-.07-.74.39-.78.79a27.42 27.42 0 0 1-1.4 6.26c-.62 1.73-1.34 3.43-1.99 5.07l.44.2-.22.25c3.54-1.83 6.8-1.22 9.81.99l.67-.12.04.15-.25.29.1.11 3.4 3.51c.1.1.17.25.29.34.06.05.23.08.25.05.05-.09.1-.22.06-.3a1.3 1.3 0 0 0-.26-.37l-3.47-3.78c.62-.55 1.31-1.22 2.05-1.82a15.05 15.05 0 0 1 6.94-3.28c2.8-.48 5.4.06 7.9 1.3a18.5 18.5 0 0 1 3.99 2.72c.14.13.27.36.27.54l.04 26.56-.04.18c-.59-.37-1.17-.7-1.73-1.07a40.8 40.8 0 0 1-11.74-12.13c-.36-.56-.38-.56-.75-.02a15.79 15.79 0 0 1-11.55 6.9c-3.9.46-7.64-.31-11.25-1.75a41.32 41.32 0 0 1-9.68-5.26 13.04 13.04 0 0 1-2.94-2.95c-1.62-2.33-1.64-4.8-.66-7.37a24.38 24.38 0 0 1 3.6-6.07c3.18-4.15 6.83-7.89 10.44-11.66 2.4-2.5 4.9-4.88 7.8-6.79 1.9-1.24 3.87-2.32 6.15-2.7a6.26 6.26 0 0 1 6.71 2.84c.7 1.04 1.2 2.2 1.82 3.36.36-.04.37-.03.45.61l-.43-.2c.25 1.25.68 2.5-.63 3.45l.45.2c-.3.14-.53.5-.78-.02-.01-.04-.2.01-.32.01h-.92c-.01-.06-.04-.12-.03-.19.06-1.93-.28-3.8-.72-5.67-.04-.17-.22-.3-.34-.45-.03.18-.12.37-.08.53.43 1.92.78 3.84.7 5.87l.48-.1Zm2.11 20.99.28.3a35.5 35.5 0 0 0 6.02 5.72c1 .73 2.1 1.31 3.18 1.94.12.07.32.01.48.01-.1-.13-.18-.32-.32-.4-.6-.35-1.23-.65-1.82-1.02a35.12 35.12 0 0 1-7.43-6.82c-.42-.48-.46-.48-.8.08a18.66 18.66 0 0 1-3.21 4.17 10.13 10.13 0 0 1-6.21 2.96c-2.53.21-4.83-.51-7-1.73-.76-.42-1.46-.97-2.2-1.44-.1-.07-.28-.04-.42-.05.05.13.07.28.15.37.18.17.39.31.6.46 2.24 1.59 4.68 2.7 7.47 2.85 3.04.18 5.6-.96 7.8-3a19.56 19.56 0 0 0 3.43-4.4Zm-18.42-7.43c-.83.92-1.55 1.86-2.4 2.66-.88.8-1.88 1.47-2.82 2.21-.1.08-.13.25-.19.38.14 0 .3.05.4 0a16.61 16.61 0 0 0 5.29-5.06l-.28-.2Zm3.87-12.77a7.12 7.12 0 0 1-2.3-2.15c-.06-.1-.23-.12-.35-.17 0 .13-.06.3 0 .39.63.94 1.4 1.76 2.42 2.3l.23-.37Zm2.94-.51c-.1-1.1-.18-2.08-.28-3.06-.02-.12-.12-.23-.18-.35-.08.1-.23.2-.23.3a7.3 7.3 0 0 0 .44 3.2l.25-.1Z" fill="#fff"></path><path d="M37.04 10.43c1.04-1 .92-2.13.7-3.35a6.56 6.56 0 0 1 2 2.09c.45.86.1 1.46-.87 1.45-.57 0-1.13-.11-1.83-.2Z" fill="#fff"></path></svg><svg viewBox="0 0 55 55" fill="none" id="anim_light"><g clip-path="url(#anim_light_0)" fill="#fff"><path d="M27.45 45.31h-6.12c-1.28 0-1.88-.6-1.89-1.86a8.4 8.4 0 0 0-2.43-6c-7.39-7.67-4.18-20.5 5.97-23.74 7-2.22 14.3.83 17.57 7.44a14.45 14.45 0 0 1-2.31 16.05c-1.2 1.31-2.19 2.7-2.5 4.48-.1.61-.15 1.24-.17 1.86-.04 1.14-.65 1.77-1.78 1.77h-6.33Zm1.66-24.28c-.01-.9-.73-1.58-1.68-1.6a8 8 0 0 0-7.7 5.92 1.6 1.6 0 0 0 1.05 1.92c.86.27 1.7-.15 2-1.04.29-.8.63-1.56 1.25-2.16a5.04 5.04 0 0 1 3.43-1.42c.99-.05 1.66-.73 1.65-1.62Zm-8.04 27.52h12.8c.34 2.61-.34 4.77-2.7 5.93-.54.26-1.18.42-1.8.46-1.24.06-2.5.09-3.75 0a4.74 4.74 0 0 1-4.54-4.51c-.06-.6-.01-1.21-.01-1.88Zm4.82-43.7v-3.1c0-1.04.7-1.76 1.63-1.75.91.01 1.59.72 1.59 1.73v6.32c0 1-.68 1.71-1.6 1.72-.92 0-1.6-.71-1.62-1.7v-3.22Zm-20.99 21.02h3.1c1.05.01 1.77.67 1.77 1.6 0 .94-.72 1.62-1.75 1.62-2.1.01-4.19.01-6.28 0-1.03 0-1.75-.69-1.74-1.62 0-.92.72-1.59 1.73-1.6h3.16Zm45.25 0h3.11c1.03.01 1.75.7 1.74 1.64-.02.91-.73 1.58-1.74 1.58h-6.32c-1 0-1.71-.68-1.71-1.6s.7-1.6 1.7-1.61h3.22Zm-34.7-12.27c-.04.83-.3 1.32-.84 1.62-.55.3-1.1.28-1.63-.04a2.1 2.1 0 0 1-.38-.3l-4.4-4.4c-.49-.5-.69-1.08-.44-1.76.21-.6.67-.95 1.3-1.05.54-.07 1 .11 1.37.48 1.5 1.5 3.02 3 4.5 4.52.28.29.4.72.52.93Zm31.89-4.1c-.1.19-.22.62-.5.91a240.23 240.23 0 0 1-4.5 4.51c-.7.69-1.66.68-2.3.03-.65-.65-.65-1.6.03-2.3 1.48-1.5 2.97-2.99 4.47-4.47.52-.52 1.13-.67 1.82-.39.6.25.98.85.98 1.71Z"></path></g><defs><clipPath id="anim_light_0"><path fill="#fff" d="M0 0h55v55h-55z"></path></clipPath></defs></svg><svg viewBox="0 0 46 43" fill="none" id="anim_monitor"><g clip-path="url(#anim_monitor_0)" fill="#fff"><path d="M0 25.34v-22.59c0-1.74 1.01-2.75 2.77-2.75h40.44c1.76 0 2.77 1 2.77 2.75v22.58h-45.98Zm0 1.62h45.98c-.06 1 .18 2.03-.17 3a2.41 2.41 0 0 1-2.18 1.68c-.18.02-.36.01-.54.01l-40.21.01c-.87 0-1.63-.2-2.22-.86a2.4 2.4 0 0 1-.65-1.54c-.02-.75 0-1.5 0-2.3Zm17.5 13.79v-7.49h10.97v7.49h5.07c.79.01 1.25.47 1.22 1.18-.02.52-.37.94-.89 1.03-.2.03-.39.04-.58.04h-20.02c-.14 0-.27 0-.4-.02-.65-.06-1.11-.55-1.09-1.15a1.1 1.1 0 0 1 1.11-1.07c1.33-.02 2.67-.01 4-.01h.6Z"></path></g><defs><clipPath id="anim_monitor_0"><path fill="#fff" d="M0 0h46v43h-46z"></path></clipPath></defs></svg><svg viewBox="0 0 62 35" fill="none" id="anim_star"><g clip-path="url(#anim_star_0)" fill="#fff"><path d="M30.98 3.1c.96.04 1.67.45 2.1 1.34 1.18 2.44 2.39 4.87 3.57 7.31.18.38.4.54.82.6 2.62.36 5.24.76 7.86 1.13.99.14 1.77.57 2.1 1.56.33 1.02-.05 1.84-.8 2.57-1.89 1.83-3.76 3.7-5.65 5.54-.3.3-.42.56-.34 1.02.49 2.67.92 5.35 1.38 8.03.16.95-.07 1.77-.85 2.35-.78.58-1.63.57-2.47.12-2.4-1.26-4.78-2.52-7.15-3.8-.4-.21-.67-.23-1.07-.01-2.31 1.25-4.65 2.46-6.97 3.7-.9.49-1.8.64-2.66 0-.9-.65-1.02-1.55-.83-2.6.48-2.63.9-5.27 1.32-7.9a1.1 1.1 0 0 0-.28-.83 414.76 414.76 0 0 0-5.68-5.6c-.75-.73-1.15-1.53-.83-2.56.34-1.07 1.18-1.47 2.22-1.6 2.6-.37 5.2-.75 7.79-1.16.28-.04.62-.3.75-.54a456.2 456.2 0 0 0 3.59-7.3 2.25 2.25 0 0 1 2.08-1.37Z"></path><path d="M21.56 8.27c-1.91.28-3.83.54-5.74.85a6.4 6.4 0 0 0-5.4 4.4 6.41 6.41 0 0 0 1.5 6.9c1.36 1.44 2.8 2.79 4.2 4.17.16.16.36.28.55.42l-.14.19c-.5-.27-1.04-.5-1.53-.8-.46-.3-.84-.25-1.32.01-1.82 1-3.67 1.94-5.5 2.93-.9.5-1.8.6-2.66-.04-.84-.63-.97-1.52-.8-2.5.36-2.02.68-4.04 1.06-6.05.11-.6.03-1.02-.44-1.46-1.52-1.43-2.98-2.92-4.48-4.37-.7-.69-1.06-1.46-.75-2.45.32-1 1.07-1.46 2.06-1.6 2.03-.3 4.06-.6 6.09-.87.6-.08.97-.29 1.24-.88.86-1.88 1.8-3.71 2.7-5.58.44-.93 1.1-1.55 2.17-1.54 1.05 0 1.68.61 2.12 1.52.9 1.89 1.86 3.74 2.73 5.64.25.53.58.77 1.13.8.41.04.81.12 1.22.18l-.01.13Zm18.87-.11c.16-.03.32-.1.47-.08 1.25.08 1.83-.65 2.29-1.73.7-1.67 1.57-3.26 2.35-4.9a2.18 2.18 0 0 1 2.08-1.35 2.2 2.2 0 0 1 2.14 1.36c.94 1.97 1.92 3.92 2.86 5.88.17.35.36.53.76.58 2.1.29 4.2.63 6.3.92 1.03.15 1.85.54 2.2 1.61.34 1.05-.1 1.84-.83 2.55-1.5 1.45-2.96 2.94-4.47 4.38-.38.36-.48.71-.38 1.22.36 2 .72 4.02 1.04 6.04a3.8 3.8 0 0 1-.05 1.64c-.4 1.3-1.84 1.83-3.1 1.18-1.96-1-3.9-2.03-5.82-3.08-.46-.26-.82-.26-1.26.02-.48.3-1 .54-1.59.71.12-.14.23-.28.35-.4 1.22-1.22 2.42-2.45 3.67-3.61 2.22-2.07 3.14-4.55 2.16-7.5-.97-2.91-3.21-4.27-6.16-4.61-1.67-.2-3.33-.48-5-.72v-.1Z"></path></g><defs><clipPath id="anim_star_0"><path fill="#fff" d="M0 0h62v35h-62z"></path></clipPath></defs></svg><svg viewBox="0 0 55 57" fill="none" id="clock"><g clip-path="url(#clock_0)" fill="#000"><path d="M21.13 0c7.16.5 14.1 1.79 20.33 5.69 1.29.81 2.69 1.45 3.95 2.29a12.06 12.06 0 0 1 4.93 6.45c1.1 3.42 2.35 6.8 3.18 10.29 1.5 6.32 0 12.18-3.56 17.48-1.38 2.05-3.16 3.83-4.76 5.73-.67.79-1.34 1.58-2 2.39-4.11 5.13-9.33 7.44-15.97 6.41-5.34-.83-10.34-2.5-14.76-5.61-6.09-4.28-9.65-10.23-11.22-17.46a48.71 48.71 0 0 1-1.05-15.08c.52-5.38 2.02-10.37 6.46-13.97 3.1-2.52 6.75-3.72 10.65-4.25 1.25-.17 2.52-.24 3.82-.36Zm28.35 27.92c-.52.2-.89.44-1.28.45-.38.02-.77-.19-1.15-.3.29-.17.56-.41.88-.5.93-.26 1.66-.66 1.68-1.78.03-1.76.17-3.53.08-5.29-.21-4.1-1.57-7.75-4.53-10.7-.22-.22-.55-.64-.7-.59-1.93.66-3.28-.74-4.82-1.35-2.26-.89-4.38-2.16-6.66-2.97-5.52-1.95-11.08-2.59-16.42.62-3.85 2.32-7.46 5.02-10.29 8.54-3.93 4.87-5.65 10.49-4.33 16.69a34.78 34.78 0 0 0 10.44 18.44c4.26 4 9.33 5.98 15.13 5.83 5.16-.13 9.7-2.09 13.89-5.05a13.12 13.12 0 0 0 4.56-5.73c2.23-5.17 2.72-10.69 3.5-16.32l.02.01Zm-48.55-5.3c.75-1.84 1.31-3.59 2.14-5.2 3.16-6.12 8.48-9.99 14.27-13.28a14.12 14.12 0 0 1 7.3-1.67c4.43.05 8.52 1.28 12.45 3.21 2.05 1 4.12 1.96 6.18 2.94l.17-.29c-.36-.31-.7-.67-1.08-.93a36.31 36.31 0 0 0-26.78-5.87c-4.41.72-8.31 2.74-11 6.53-3.08 4.33-3.62 9.3-3.65 14.56Zm45.88 22.31c8.13-9.46 7.6-18.3 3.4-27.8 1.02 9.26-.42 18.55-3.4 27.8Zm-6.45 6.94a29.36 29.36 0 0 1-11.73 4.08c4.55.46 8.5-.77 11.73-4.08Z"></path><path d="m26.24 30.54-.53.84c-.23-.33-.62-.64-.68-.99a245 245 0 0 1-1.15-7.61c-.37-2.72-.75-5.45-.97-8.18-.05-.6.59-1.26 1.19-1.85 1.85 5.93 2.02 12.08 3.14 18.07 4.86-1.6 9.82-1.38 14.76-1.37l.2.46c-.37.19-.76.58-1.12.55-4.62-.41-9.18-.26-13.61 1.26-1.57.54-1.03-.69-1.22-1.18h-.01Zm-16.98 4.05c-.5.24-.98.59-1.51.71-.68.16-1.39.13-2.09.19.6-.32 1.18-.67 1.8-.93.5-.21 1.05-.32 1.58-.47l.23.51-.01-.01Zm22.62 16.48-1.47-2.04c1.09-.41 1.71.28 1.47 2.04Zm-10.44-43.01c-.18-.75-.37-1.49-.52-2.25-.01-.07.24-.27.37-.27s.33.16.36.29c.17.68.29 1.36.43 2.05l-.65.18h.01Z"></path></g><defs><clipPath id="clock_0"><path fill="#fff" d="M0 0h54.09v56.98h-54.09z"></path></clipPath></defs></svg><svg viewBox="0 0 25 25" fill="none" id="close"><path d="m2 2 21 21m0-21-21 21" stroke="#fff" stroke-width="3" stroke-linecap="round"></path></svg><svg viewBox="0 0 61 61" fill="none" id="comment"><g clip-path="url(#comment_0)" fill="#000"><path d="M40.3 61c-2.34-2.65-4.5-4.79-6.27-7.2a4.77 4.77 0 0 0-4.03-2.13c-3.28-.12-6.58-.17-9.82-.57-6.24-.76-11.65-3.3-15.96-7.95a15.53 15.53 0 0 1-4.15-10.53c-.12-4.26-.12-8.57.32-12.8 1-9.71 6.97-15.28 16.1-17.87a48.26 48.26 0 0 1 23.2-.97c7.26 1.5 13.72 4.56 17.69 11.03a23.52 23.52 0 0 1 2.5 19.76c-.78 2.58-1.48 5.28-2.82 7.58-2.8 4.77-7.13 7.78-12.49 9.33-1.96.57-3.88 1.2-5.91 1.83.77 3.45 2.08 6.63 1.64 10.49Zm-3.07-11.62c4-2.12 7.97-3.96 11.6-6.3a41.74 41.74 0 0 0 7.17-6.17c2.22-2.26 3.36-5.1 2.7-8.37-.56-2.84-1.1-5.68-1.9-8.45a16.71 16.71 0 0 0-4.87-7.63c-5.3-4.97-11.96-6.96-18.85-8.1-6.74-1.13-13.21.42-19.31 3.32-9.6 4.55-14.5 13.58-11.34 23.71 1.42 4.52 3.66 8.5 7.88 10.98 1.92 1.14 4.13 1.78 6.19 2.7 4.62 2.07 9.58 2.77 14.49 3.72.7.14 1.48.53 1.97 1.05 2.03 2.2 3.97 4.5 5.94 6.76l.22-.1-1.9-7.13.01.01Zm22.42-22.98c.25-6.8-1.14-13.01-6.44-17.82-3.8-3.45-8.34-5.48-13.32-6.53a48.8 48.8 0 0 0-24.13 1.15 21.57 21.57 0 0 0-10.33 6.6 15.2 15.2 0 0 0-3.43 7.18c1.46-1.86 2.51-3.56 3.9-4.9 6.95-6.7 15.53-9.24 25-8.99 4.89.13 9.5 1.72 13.98 3.63 5.76 2.46 10.32 6.22 12.58 12.2.92 2.43 1.47 5 2.19 7.48Zm-58.63 5.37c.22 3.15.62 6.2 2.47 8.77a21.86 21.86 0 0 0 14.65 9.14c3.84.63 7.8.7 11.7 1 .75.06 1.52 0 2.38 0-.16-.3-.21-.54-.3-.57-.87-.19-1.76-.32-2.63-.5-5.51-1.2-11.01-2.4-16.23-4.71-3.17-1.4-6.05-3.08-7.95-6-1.46-2.26-2.68-4.67-4.08-7.14Zm54.96 7.15c-3.84 4.08-8.83 6.44-13.6 9.14a19.6 19.6 0 0 0 13.6-9.14Z"></path><path d="M45.28 21.43c1.33-.3 2.54-1.53 3.76.11a5.49 5.49 0 0 1 .44 5.4c-.76 1.37-2.2 1.43-3.23.12-1.28-1.66-1.1-3.57-.97-5.63Zm4.13 3.21c-.65-1.02-1.24-1.94-1.82-2.88-.46.82-1.1 1.57-1.34 2.45-.27 1.01 1.14 3.05 1.64 2.7.63-.45.94-1.35 1.53-2.28l-.01.01Zm-28.59 1.02v.16c-.07 1.9-.87 3.36-1.85 3.39-.94.02-2.39-1.64-2.54-3.19-.09-.82-.05-1.9.42-2.47.44-.54 1.83-1 2.27-.7.87.58 1.37 1.69 2.02 2.58l-.32.23Zm-1.85 2.49c.97-1.23.8-2.5.5-3.72-.07-.32-.56-.58-.9-.78-.08-.05-.4.14-.5.29-.48.6.1 3.56.9 4.2Zm16.9-2.45c-.64.85-1.13 1.95-1.97 2.5-.7.47-2.02-1-2.26-2.4a7.9 7.9 0 0 1-.07-1.6c.04-.75-.2-1.55 1.04-1.79 1.16-.22 1.9.06 2.36 1.05.28.62.42 1.3.63 1.95l.27.28Zm-2.84-1.45c-.28 1.38 0 2.35.82 2.9 1.04-1.99.89-2.53-.82-2.9Z"></path></g><defs><clipPath id="comment_0"><path fill="#fff" d="M0 0h61v61h-61z"></path></clipPath></defs></svg><svg viewBox="0 0 24 24" fill="none" id="inst"><path d="M6.67 0a6.67 6.67 0 0 0-6.67 6.66v10.67a6.67 6.67 0 0 0 6.67 6.66h10.66a6.67 6.67 0 0 0 6.67-6.66v-10.67a6.67 6.67 0 0 0-6.67-6.67h-10.66Zm13.33 2.66a1.33 1.33 0 1 1 0 2.67 1.33 1.33 0 0 1 0-2.67Zm-8 2.67a6.67 6.67 0 1 1 0 13.33 6.67 6.67 0 0 1 0-13.33Zm0 2.66a4 4 0 1 0 0 8 4 4 0 0 0 0-8Z" fill="#757575"></path></svg><svg viewBox="0 0 25 25" fill="none" id="linked"><g clip-path="url(#linked_0)" fill="#757575"><path d="M6.25 2.7c0 1.46-.94 2.66-2.67 2.66-1.6 0-2.67-1.2-2.67-2.53 0-1.46 1.08-2.8 2.67-2.8a2.6 2.6 0 0 1 2.67 2.67Zm0 4h-5.34v17.34h5.34v-17.34Zm12.8.26a5.8 5.8 0 0 0-5.06 2.66h-.14l-.27-2.26h-4.8c0 1.46.14 3.2.14 5.2v11.47h5.33v-9.48c0-.53 0-.94.14-1.34.4-.94 1.07-2.13 2.53-2.13 1.87 0 2.67 1.6 2.67 3.74v9.2h5.34v-9.85c0-4.93-2.54-7.2-5.88-7.2v-.01Z"></path></g><defs><clipPath id="linked_0"><path fill="#fff" transform="translate(.912 .03)" d="M0 0h24.02v24h-24.02z"></path></clipPath></defs></svg><svg viewBox="0 0 78 83" fill="none" id="mail"><g clip-path="url(#mail_0)" fill="#000"><path d="M12.93 35c-.58.17-.88.8-1.37.36-.49-.43-.14-.9.13-1.3.35-.53.71-1.05 1.15-1.5a103.1 103.1 0 0 1 10.97-10.24c1.96-1.62 3.83-3.34 5.79-4.95 2.47-2.05 4.97-4.05 7.5-6.06.46-.38.99-.69 1.5-.96 1-.56 1.97-.58 2.95.09a28.03 28.03 0 0 1 6.32 5.85c1.04 1.3 2.06 2.66 3.12 3.96.85 1.04 1.76 2.02 2.66 3.04 1.36 1.5 2.9 2.79 4.54 3.99 2.52 1.86 4.43 4.31 6.34 6.77.4.5.52 1.07.3 1.68-.39 1.12-.38 2.27-.37 3.43-.01.89-.05 1.8-.02 2.68.05 1.83.17 3.65.2 5.48.08 3.21.09 6.4.14 9.62.01.83.07 1.64.15 2.46.15 1.65.19 3.28-.1 4.91-.07.41-.08.82-.15 1.22-.08.6 0 1.09.44 1.55.23.24.37.57.52.86.57 1.15.11 2.2-1.16 2.27-1.63.09-3.28 0-4.9-.17-.86-.09-1.69-.24-2.54-.02-.53.15-1.1.14-1.67.17-2.42.11-4.85.23-7.27.32-1.42.07-2.84.11-4.25.2-1.72.12-3.42.27-5.13.4-1.87.16-3.73.21-5.58.44-3.46.44-6.95.12-10.42.19-.89.02-1.78.1-2.68.16-1.3.07-2.6.14-3.91.23-1.2.1-2-.59-2.53-1.53-.24-.45-.5-.8-.93-1.06-.46-.29-.7-.75-.4-1.24.46-.78.45-1.62.3-2.4-.47-2.17-.3-4.38-.53-6.57-.5-4.74-.14-9.48-.22-14.21a42.5 42.5 0 0 1 .1-4.37c.14-1.55.47-3.1.72-4.62.06-.33.16-.65.28-1.09l.01-.03Zm32.52 15.7.96-1c1.5-1.5 2.96-3.08 4.5-4.51 3.79-3.5 7.34-7.25 11.39-10.47.63-.5.61-.7.04-1.38-.57-.68-1.14-1.4-1.75-2.04a29.05 29.05 0 0 0-2.37-2.34c-.85-.73-1.78-1.37-2.65-2.05a36.51 36.51 0 0 1-6.26-6.7 50.33 50.33 0 0 0-6.2-6.9c-.72-.64-1.5-1.23-2.28-1.8-.5-.36-1.06-.28-1.58 0-.4.2-.78.44-1.12.73-2.92 2.33-5.84 4.65-8.71 7.04-2.87 2.38-5.64 4.9-8.51 7.28a68.86 68.86 0 0 0-6.61 6.36c-.25.27-.45.58-.7.89.53.15.99.19 1.35.4 1.98 1.2 3.94 2.44 5.89 3.68a20.4 20.4 0 0 1 4.91 4.22c1.3 1.6 2.48 3.27 3.79 4.86.75.93 1.6 1.76 2.43 2.65.7-.45 1.3-.83 1.88-1.22 1.27-.85 2.55-1.7 3.8-2.56.5-.34.96-.39 1.46-.04.42.3.85.6 1.26.92 1.69 1.3 3.36 2.61 5.13 4l-.05-.02Zm-31.25 17.08.16.33c.93-.04 1.85-.08 2.77-.16 1.16-.09 2.31-.21 3.47-.28 1.63-.1 3.28-.2 4.93-.23 2.3-.06 4.63-.15 6.95-.13 2.4.02 4.78.12 7.17.24 1.71.08 3.43.24 5.14.28 2.32.07 4.63.02 6.95.07 1.16.03 2.31.15 3.46.3 1.68.2 3.33.37 4.97-.25 1-.37 2.05-.6 3.22-.96-.35-.38-.57-.68-.85-.92-2.38-1.93-4.7-3.94-7.2-5.72-3.08-2.2-6.04-4.53-8.89-7-.46-.4-1.02-.67-1.66-1.1-.32-.34-.7-.9-1.2-1.32-1.45-1.18-2.96-2.3-4.41-3.46-.51-.4-.96-.49-1.52-.1-1.44 1-2.92 1.96-4.37 2.94-.17.11-.34.33-.35.5-.06.53-.42.76-.79 1.02-.99.74-2.03 1.42-2.95 2.24-1.92 1.71-3.76 3.53-5.67 5.25-1.7 1.53-3.42 3-5.15 4.5-1.16 1-2.34 1.98-3.48 3-.28.26-.48.6-.72.91l.02.05Zm.08-32.28a16.92 16.92 0 0 0-1.01 5.6c-.12 4.8-.11 9.62-.13 14.43 0 .74.02 1.5.06 2.24.1 1.63.21 3.27.33 4.9.06.67.17 1.35.26 2.14 5.56-5.03 11.27-9.59 16.87-14.27 0-.05-.01-.15-.06-.2-1.75-2.2-3.43-4.45-5.26-6.54a27.04 27.04 0 0 0-4.28-4.07c-2.14-1.55-4.47-2.8-6.78-4.23Zm32.33 16.15c.08.1.16.23.26.33 2.8 2.4 5.62 4.8 8.7 6.89 2.6 1.75 5.07 3.7 7.36 5.87.1.09.24.12.37.19.41-1.57.4-3.08.32-4.62-.09-1.56-.16-3.13-.2-4.7-.06-2.72.03-5.45-.18-8.17-.28-3.86-.14-7.7-.04-11.54-2.97 1.96-15.65 13.99-16.59 15.76v-.01Zm-3.43 17.85c-.28-.15-.36-.23-.46-.23-2.13-.2-4.23-.53-6.36-.56-4.14-.06-8.29-.13-12.43.22-2.85.24-5.74.32-8.6.5-.2 0-.4.1-.62.15.34.95.5 1.16 1.31 1.17 1.04 0 2.1-.05 3.14-.13 1.15-.07 2.3-.23 3.46-.25 3.33-.1 6.64-.13 9.97-.2.71-.02 1.42-.11 2.13-.15 2.75-.18 5.5-.34 8.48-.52h-.02Zm21.23-.66v-.26c-.6-.17-1.2-.23-2.02.25l2.02.01Z"></path><path d="M41.9 33.56c-.4.45-.68.79-1 1.1-.58.59-1.1 1.21-1.75 1.72-1.56 1.22-2.88 1.4-4.55-.09-2.82-2.5-3.24-6.19-.31-9.03a6.3 6.3 0 0 1 6.12-1.57c1.2.27 2.31 1.76 2.6 2.9.48 1.85.24 3.71.4 5.56.16 1.62.52 3.24 1.29 4.73.32.62.7 1.37 1.47 1.4.84 0 1.3-.74 1.58-1.43.42-1.07.84-2.19.94-3.32a18.4 18.4 0 0 0-1.81-10.22 5.36 5.36 0 0 0-2.5-2.47 9.49 9.49 0 0 0-4.74-1.18c-.48.03-.98.03-1.45 0-1.95-.17-3.67.5-5.29 1.47-2.83 1.64-4.81 4-5.89 7.09-.72 2.12-.95 4.3-.25 6.48a7.5 7.5 0 0 0 1.84 3.04 13.6 13.6 0 0 0 6.1 3.64c.55.15 1.18.16 1.75.06a9.45 9.45 0 0 0 3.76-1.38c.21-.14.48-.25.72-.25.46 0 .74.52.43.86-.35.38-.78.7-1.23.97a8.87 8.87 0 0 1-4.03 1.24c-.96.05-2.01-.2-2.93-.57a14.58 14.58 0 0 1-5.7-3.87 9.59 9.59 0 0 1-2.28-8.44c.32-1.82.88-3.55 1.93-5.1 2.15-3.14 4.97-5.44 8.72-6.47l.33-.08c3.17-.29 6.3-.22 9.15 1.44a7.32 7.32 0 0 1 3.03 3.37 19.17 19.17 0 0 1 1.8 7.89c0 1.61-.03 3.2-.5 4.76a7.9 7.9 0 0 1-1.32 2.7c-1.2 1.52-3.03 1.53-4.16-.04a13.46 13.46 0 0 1-1.78-4.53c-.15-.73-.28-1.45-.45-2.38h-.04Zm-.44-2.75c0-1.8-.87-2.94-2.25-3.35-.21-.07-.46-.05-.64-.15-1-.62-1.83-.25-2.69.32a4.75 4.75 0 0 0-2.25 3.7 4.65 4.65 0 0 0 1.93 4.06c1 .75 1.92.76 2.85-.09.9-.82 1.71-1.75 2.41-2.75.4-.57.5-1.36.64-1.74Z"></path></g><defs><clipPath id="mail_0"><path fill="#fff" transform="rotate(.436 -1268.938 1517.853)" d="M0 0h54.83v62.4h-54.83z"></path></clipPath></defs></svg><svg viewBox="0 0 59 80" fill="none" id="phone"><g clip-path="url(#phone_0)" fill="#000"><path d="M50.44 38.9c-2.36-5.3-4.12-10.87-6.1-16.33-1.64-4.5-3.17-9.02-4.84-13.5a10.96 10.96 0 0 0-1.97-3.64c-1.01-1.09-2.49-2.54-3.72-2.5-3.53.11-7.08.74-10.56 1.5-3.62.78-7.14 2.02-10.73 2.96-3.87 1-7.3 2.8-10.22 5.51-.35.33-.6.94-.59 1.41.02 1.04.15 2.08.38 3.09 1.3 5.75 2.64 11.49 3.97 17.24l-.3.07c2.08 7.74 3.97 15.54 6.31 23.2 1.36 4.46 3.34 8.74 5.27 13 1.43 3.16 4.05 4.74 7.6 4.62.54-.02 1.08.04 1.61.14 2.34.5 4.69.44 6.96-.21a329.87 329.87 0 0 0 15.03-4.63c3-1.02 4.94-3.13 5.25-6.54.78-8.72.29-17.2-3.35-25.4Zm-47.63-22.03c-.2-.92-.05-1.9-.06-3.26 1.54 7.4 2.97 14.37 4.43 21.35l-.2.05-1.98-8.59c-.74-3.18-1.53-6.36-2.18-9.55h-.01Zm14.1 51.28a398.3 398.3 0 0 1-5.25-14.16 40.4 40.4 0 0 1-1.7-6.92c2.24 6.33 4.43 12.67 6.76 18.95.99 2.67 1.99 5.4 4.07 7.5-2.05-1.25-3.05-3.3-3.87-5.38v.01Zm35.97-8.35c-.03 1.7.05 3.43-.2 5.1-.13.89-.64 2.03-1.34 2.46a53.84 53.84 0 0 1-7.05 3.65c-4.76 2-9.85 2.68-14.91 3.44-1.23.19-2.52.18-3.76.07-3.85-.29-5.72-2.95-6.97-6.15-1.21-3.11-2.2-6.3-3.34-9.43-.85-2.32-1.88-4.59-2.7-6.91-1.24-3.54-2.36-7.11-3.53-10.67l.27-.08c-1.72-8.12-3.44-16.23-5.14-24.35-.17-.84-.17-1.7-.24-2.56-.1-1.12.4-1.8 1.45-2.27 5.09-2.3 10.14-4.7 15.65-5.89 3.14-.67 6.25-1.42 9.38-2.14.14-.03.26-.06.4-.06 3.67-.17 3.9-.15 5.32 3.21 1.13 2.66 1.93 5.45 2.9 8.17 1.07 2.96 2.2 5.92 3.27 8.9.55 1.52 1.12 3.05 1.54 4.61 1.54 5.64 2.88 11.34 4.55 16.94 1.26 4.24 2.9 8.35 4.35 12.54.15.43.12.94.12 1.42h-.02Zm-3.11-17.93c.6 4.11 1.8 8.13 2.48 12.28-.78-2.13-1.7-4.22-2.32-6.4-1.94-6.82-3.69-13.72-5.67-20.54-.8-2.76-2-5.4-3-8.1-.74-1.98-1.43-3.99-2.13-5.98-.81-2.25-1.62-4.5-2.41-6.74-.08-.2-.1-.43-.15-.64l.31-.15c.61 1.22 1.34 2.38 1.82 3.65 1.22 3.24 2.32 6.54 3.48 9.81 1.53 4.29 3.08 8.57 4.58 12.87 1.14 3.27 2.52 6.42 3.03 9.94h-.02Zm2.93 8.3c-.06 0-.14.03-.21.04l-1.63-7.06.21-.05 1.63 7.06Z"></path><path d="M27.14 8.18c-1.01.22-2.03.45-3.04.7-3.85.96-7.7 1.88-11.2 3.95-1.63.97-.6 1.9-.28 2.75.16.44 1 .64 1.32.83 1.49-.61 2.56-1.1 3.64-1.5 3.46-1.28 6.94-2.53 10.41-3.81.84-.31 1.7-.82 1.37-1.84-.3-.96-1.2-1.28-2.22-1.07Zm1.45 1.68-15.08 5.66c-.49-1.02-.5-1.74.67-2.4 2.87-1.65 6.05-2.32 9.16-3.18 1.22-.34 2.45-.63 3.7-.86.47-.09.96.07 1.45.12l.09.65v.01Zm6.34 53.94c-.67.02-1.32.86-1.95 1.35-.12.1-.13.33-.18.5-.48 2.13 1.5 3.82 3.95 3.44.77-.6 1.76-1.04 2.24-1.82.42-.68.62-1.94.26-2.56-.99-1.67-2.83-.96-4.31-.91Zm3.32 3c-.7 1-1.7 1.55-3.02 1.31-1.03-.18-1.53-.81-1.66-1.6.75-.6 1.26-1.32 1.87-1.43.58-.1 1.27.44 2.06.75l-.35-1.5c.62.36 1.28.54 1.38.88.14.47 0 1.18-.28 1.59Z"></path></g><defs><clipPath id="phone_0"><path fill="#fff" transform="rotate(-13.027 42.93 4.902)" d="M0 0h43.32v71.54h-43.32z"></path></clipPath></defs></svg><svg viewBox="0 0 53 60" fill="none" id="pin"><g clip-path="url(#pin_0)" fill="#000"><path d="M45 21.23c-.52 13.39-5.85 24.48-16.53 32.78-4.78 3.71-9.09 3.05-12.92-1.6-6.09-7.37-11.15-15.32-13.3-24.84a34 34 0 0 1-.11-14.54c1.08-5.14 4.31-8.66 9.12-10.65 3.84-1.58 7.86-1.99 12.02-2.3 3.09-.24 5.88.08 8.74.72 6.13 1.38 11.82 7.92 12.43 14.16.2 2.03.37 4.07.56 6.27Zm-24.94 8.7c4.91 3.28 12.51-1.19 13.7-5.76 1.04-4.06 1.48-8.18.73-12.35-.94-5.23-3.83-8.7-9.14-9.9-5.9-1.3-11.3.07-16.34 3.18-2.62 1.62-4.7 3.95-5.2 6.93-.67 4.06-1.3 8.33-.78 12.36 1.43 10.96 7.2 19.95 14.31 28.08 2.72 3.13 6.25 3.54 9.55 1.07a39.23 39.23 0 0 0 7.52-6.97c7.01-8.96 10.44-19.07 8.9-30.61-.91-6.77-4.62-11.15-10.77-13.67-1.03-.42-2.18-.55-3.27-.81 3.21 2.29 5.27 5.11 6.16 8.94 1.12 4.76.77 9.42-.49 14.06-1.63 5.99-9.68 9.71-15.14 6.86-5.12-2.67-8.92-6.56-9.36-12.75-.3-4.1 1.02-8.77 6.57-9.73 1.92-.34 3.94-.2 5.92-.15 4.36.07 7.21 1.96 8.43 5.48 1.58 4.53.64 8.94-2.53 11.59-2.53 2.12-5.26 3.85-8.77 4.15Zm1.63-20c-4.99-.02-6.74 1.35-7.81 4.86-1.31 4.2-.56 8.04 1.9 11.6 1.28 1.86 3.38 2.84 5.48 2.03a35.9 35.9 0 0 0 6.35-3.39c4.12-2.61 3.68-8.55 1.9-11.94-.16-.32-.46-.67-.78-.77-2.75-.97-5.54-1.87-7.02-2.37l-.02-.01Z"></path><path d="M36.88 48.32c.55-.24.92-.55 1.3-.57 4.95-.19 9.55.84 13.4 4.18 2.08 1.79 1.89 3.69-.7 4.42-4.16 1.18-8.36 2.4-12.63 2.8-6.54.65-13.16.97-19.73.8a34.95 34.95 0 0 1-16.3-4.6c-1.24-.7-2.63-1.63-2.13-3.17.32-.98 1.51-1.97 2.53-2.38 2.19-.85 4.5-1.34 6.79-1.91.39-.1.87.19 1.32.29 0 .19.02.36.03.55-.5.18-.96.41-1.47.54-1.95.52-3.95.91-5.85 1.55-.83.28-1.49 1.1-2.22 1.67.67.69 1.21 1.66 2.01 2a71.32 71.32 0 0 0 8.67 3.13c6.84 1.87 13.86 1.62 20.8.83 5.46-.63 10.85-1.77 16.25-2.8.93-.18 1.75-.95 2.6-1.47-.69-.76-1.3-1.62-2.1-2.25-3.06-2.36-6.7-2.88-10.43-3.02-.52-.02-1.05 0-1.57-.04-.1 0-.19-.17-.6-.56l.03.01Z"></path></g><defs><clipPath id="pin_0"><path fill="#fff" d="M0 0h53v60h-53z"></path></clipPath></defs></svg><svg viewBox="0 0 24 20" fill="none" id="tg"><path d="M21.36.2c-3.08 1.31-16.28 6.98-19.93 8.53-2.45.99-1.01 1.92-1.01 1.92s2.08.74 3.87 1.3c1.8.55 2.75-.07 2.75-.07l8.4-5.88c3-2.1 2.28-.37 1.56.38-1.55 1.6-4.12 4.14-6.26 6.18-.96.87-.48 1.61-.06 1.98 1.55 1.36 5.78 4.15 6.02 4.33 1.26.93 3.74 2.26 4.12-.56l1.49-9.71c.48-3.28.95-6.31 1.01-7.18.18-2.1-1.96-1.23-1.96-1.23Z" fill="#050505"></path></svg><svg viewBox="0 0 19 21" fill="none" id="viber"><g clip-path="url(#viber_0)" fill="#000"><path d="M18.8 6.33a10.3 10.3 0 0 0-.61-2.37 5.08 5.08 0 0 0-1.78-2.28 8.6 8.6 0 0 0-4.03-1.43c-.79-.1-1.55-.2-2.31-.23a17.03 17.03 0 0 0-4.55.43c-.84.2-1.66.55-2.44 1.03a5.6 5.6 0 0 0-2.43 3.01 8.5 8.5 0 0 0-.4 2 45 45 0 0 0-.24 2.52 14.26 14.26 0 0 0 .77 4.96 4.85 4.85 0 0 0 2.87 2.92l.57.22.2.08c.04.01.06.02.06.08v1.63h-.02v1.87c0 .05 0 .12.06.18.05.05.12.05.17.05h.3l.24-.01c.1-.01.24-.05.33-.14l.92-.9.95-.99a485 485 0 0 1 1.08-1.1l.07-.02a58 58 0 0 1 .75-.03l1.35-.05c.71-.04 1.44-.1 2.14-.16l.32-.03a6.93 6.93 0 0 0 1.68-.37 5.72 5.72 0 0 0 2.25-1.35 6.1 6.1 0 0 0 1.23-2.13c.54-1.38.64-2.82.69-4.18.04-1.03-.02-2.08-.19-3.21Zm-13.24 12.43v-1.46c-.01-.5-.24-.87-.66-1.07-.36-.17-.68-.3-.98-.4a3.41 3.41 0 0 1-1.8-1.54 7.06 7.06 0 0 1-.75-2 13.15 13.15 0 0 1-.26-4.06c.06-.9.2-1.86.42-2.92a4.42 4.42 0 0 1 2.24-3 8.06 8.06 0 0 1 2.43-.91 16.04 16.04 0 0 1 4.2-.28c.5.03 1 .1 1.49.15l.38.04a7.75 7.75 0 0 1 2.98.92c.41.22.75.47 1.05.75.54.53.91 1.22 1.16 2.16.33 1.23.47 2.37.45 3.48v.04c-.01.78-.03 1.59-.09 2.38-.06.9-.31 1.84-.75 2.9-.3.7-.75 1.26-1.33 1.63-.71.46-1.52.76-2.47.9-.86.14-1.74.18-2.6.21l-.65.03c-.46.03-.93.03-1.34.04-.42 0-.77.16-1.07.5-.39.42-.8.83-1.2 1.23l-.43.45-.39.37-.03.04v-.58Z"></path><path d="M12.36 15.05c-.23-.07-.46-.12-.67-.21a16.46 16.46 0 0 1-3.39-2 14.53 14.53 0 0 1-3.31-3.75c-.51-.82-.84-1.71-1.2-2.6-.25-.62-.03-1.17.38-1.64.31-.36.73-.55 1.18-.66.3-.08.53.05.73.24a6.48 6.48 0 0 1 1.6 2.24c.14.3.02.56-.2.78-.06.07-.15.13-.23.2-.13.12-.26.23-.37.36a.85.85 0 0 0-.16.86c.19.56.46 1.06.83 1.5.6.73 1.36 1.24 2.22 1.58.3.12.56.04.79-.17.1-.09.19-.19.26-.3.38-.58 1-.64 1.5-.3a27 27 0 0 1 1.75 1.28c.35.29.43.61.25 1.03a2.5 2.5 0 0 1-1.77 1.51c-.06.02-.12.02-.18.02l-.01.03Zm2.49-6.88-.14 1.06c-.03.2-.27.38-.45.35a.44.44 0 0 1-.36-.5c.11-.73.15-1.46-.1-2.17a3.94 3.94 0 0 0-4.42-2.7l-.37.03c-.19 0-.34-.14-.38-.35-.04-.16.05-.38.2-.43.23-.08.48-.12.72-.16.62-.1 1.23.01 1.83.18.97.28 1.76.84 2.4 1.63a4.7 4.7 0 0 1 1.04 3.05h.04Z"></path><path d="M10 4.66c1.11 0 2.02.43 2.72 1.3.64.8.87 1.7.76 2.7-.04.28-.13.4-.35.45a.4.4 0 0 1-.5-.4c0-.13.01-.26.03-.38a2.71 2.71 0 0 0-1.52-2.6 2.73 2.73 0 0 0-1.57-.2.44.44 0 0 1-.5-.3.4.4 0 0 1 .22-.5c.1-.05.21-.06.32-.07h.4Z"></path><path d="M10.04 5.99a2.24 2.24 0 0 1 2.12 2.27.4.4 0 0 1-.36.4c-.25.02-.43-.1-.46-.33l-.07-.43a1.39 1.39 0 0 0-1.3-1.06c-.36 0-.54-.32-.4-.62.09-.17.23-.24.47-.23Z"></path></g><defs><clipPath id="viber_0"><path fill="#fff" d="M0 0h19v21h-19z"></path></clipPath></defs></svg><svg viewBox="0 0 33 20" fill="none" id="vk"><path fill-rule="evenodd" clip-rule="evenodd" d="M32.23 1.33c.24-.78 0-1.34-1.08-1.34h-3.62c-.9 0-1.33.5-1.56 1.06 0 0-1.83 4.58-4.43 7.52-.86.87-1.2 1.12-1.68 1.12-.23 0-.56-.27-.56-1.05v-7.3c-.02-.95-.26-1.35-1.05-1.35h-5.67c-.56 0-.93.45-.93.84 0 .9 1.3 1.1 1.45 3.58v5.42c0 1.18-.2 1.4-.66 1.4-1.2 0-4.21-4.59-5.96-9.85-.37-.98-.7-1.39-1.62-1.39h-3.62c-1.03 0-1.24.5-1.24 1.06 0 .98 1.2 5.8 5.7 12.2 2.98 4.37 7.2 6.74 11 6.74 2.29 0 2.58-.53 2.58-1.42v-3.32c0-1.05.21-1.26.97-1.26.54 0 1.45.26 3.58 2.37 2.44 2.5 2.86 3.63 4.22 3.63h3.62c1.03 0 1.55-.53 1.24-1.55-.33-1.03-1.5-2.53-3.04-4.31-.86-1.03-2.11-2.1-2.48-2.66-.54-.71-.38-1.03 0-1.64 0-.01 4.4-6.34 4.86-8.5h-.02Z" fill="#757575"></path></svg><svg viewBox="0 0 20 20" fill="none" id="whatsapp"><path fill-rule="evenodd" clip-rule="evenodd" d="M14.67 11.97a41.6 41.6 0 0 0-1.67-.88c-.22-.09-.39-.14-.56.1-.17.25-.67.8-.82.95-.16.16-.3.18-.54.04-.25-.13-1.04-.42-1.96-1.3a7.58 7.58 0 0 1-1.32-1.78c-.13-.25 0-.38.13-.5.12-.11.26-.29.4-.43.12-.14.17-.24.25-.4.1-.16.06-.3 0-.44-.06-.12-.5-1.36-.7-1.87-.18-.5-.4-.43-.54-.44-.15 0-.3-.03-.47-.04a.9.9 0 0 0-.68.29c-.24.24-.9.82-.95 2.04-.04 1.23.8 2.44.92 2.61.12.17 1.62 2.82 4.1 3.92 2.5 1.09 2.51.75 2.97.73.46-.02 1.5-.55 1.72-1.12.23-.58.25-1.07.2-1.18-.07-.1-.23-.17-.47-.3Zm-4.57 5.9c-1.65 0-3.18-.5-4.46-1.35l-3.12 1 1.02-3.01a8.12 8.12 0 1 1 14.68-4.75c0 4.46-3.65 8.1-8.12 8.1Zm0-17.86a9.74 9.74 0 0 0-8.34 14.77l-1.76 5.23 5.4-1.73a9.74 9.74 0 1 0 4.7-18.27Z" fill="#050505"></path></svg><svg viewBox="0 0 28 20" fill="none" id="youtube"><g clip-path="url(#youtube_0)"><path d="M27.43 3.12a3.55 3.55 0 0 0-2.49-2.53c-2.18-.6-10.93-.6-10.93-.6s-8.77 0-10.94.6a3.55 3.55 0 0 0-2.48 2.53c-.4 2.28-.6 4.58-.59 6.9-.01 2.31.19 4.61.59 6.89a3.5 3.5 0 0 0 2.48 2.49c2.19.6 10.94.6 10.94.6s8.76 0 10.93-.6a3.54 3.54 0 0 0 2.49-2.5c.4-2.27.6-4.57.58-6.89.02-2.31-.18-4.61-.58-6.89Zm-16.3 11.12v-8.45l7.33 4.22-7.32 4.23Z" fill="#757575"></path></g><defs><clipPath id="youtube_0"><path fill="#fff" transform="translate(0 -.006)" d="M0 0h28v20h-28z"></path></clipPath></defs></svg></svg>