<svg xmlns="http://www.w3.org/2000/svg"><style>:root svg:not(:target){display:none}</style><svg viewBox="0 0 20 20" fill="none" id="phone"><path d="M17.86 14.55c-.6-.48-1.25-.92-1.88-1.36-1.26-.89-2.42-.96-3.36.47-.53.8-1.27.84-2.05.48a9.05 9.05 0 0 1-4.74-4.63c-.43-.96-.43-1.82.57-2.5.53-.35 1.07-.78 1.03-1.56-.06-1.03-2.54-4.45-3.52-4.8-.4-.16-.81-.15-1.23 0-2.3.77-3.25 2.66-2.34 4.9 2.73 6.68 7.51 11.34 14.1 14.18.39.16.8.22 1.01.28 1.5.01 3.26-1.43 3.77-2.87.49-1.38-.54-1.93-1.36-2.58Zm-7.4-13.48c4.82.74 7.05 3.03 7.66 7.89.06.45-.1 1.12.53 1.13.67.02.51-.65.52-1.1.05-4.57-3.94-8.81-8.57-8.97-.35.05-1.07-.24-1.11.54-.03.53.58.45.97.5Z" fill="#050505"></path><path d="M11.4 2.4c-.45-.06-1.07-.28-1.18.37-.1.67.57.6 1.01.7 2.98.67 4.01 1.75 4.5 4.7.08.44-.07 1.1.67 1 .54-.09.34-.66.39-1 .02-2.83-2.41-5.41-5.38-5.77Z" fill="#050505"></path><path d="M11.68 4.72c-.3 0-.61.04-.73.37-.17.5.19.61.56.67 1.22.2 1.86.91 1.98 2.13.04.33.25.6.57.56.44-.05.48-.44.47-.82.02-1.36-1.53-2.95-2.85-2.91Z" fill="#050505"></path></svg><svg viewBox="0 0 24 20" fill="none" id="tg"><path d="M21.36.2c-3.08 1.31-16.28 6.98-19.93 8.53-2.45.99-1.01 1.92-1.01 1.92s2.08.74 3.87 1.3c1.8.55 2.75-.07 2.75-.07l8.4-5.88c3-2.1 2.28-.37 1.56.38-1.55 1.6-4.12 4.14-6.26 6.18-.96.87-.48 1.61-.06 1.98 1.55 1.36 5.78 4.15 6.02 4.33 1.26.93 3.74 2.26 4.12-.56l1.49-9.71c.48-3.28.95-6.31 1.01-7.18.18-2.1-1.96-1.23-1.96-1.23Z" fill="#050505"></path></svg><svg viewBox="0 0 20 20" fill="none" id="whatsapp"><path fill-rule="evenodd" clip-rule="evenodd" d="M14.67 11.97a41.6 41.6 0 0 0-1.67-.88c-.22-.09-.39-.14-.56.1-.17.25-.67.8-.82.95-.16.16-.3.18-.54.04-.25-.13-1.04-.42-1.96-1.3a7.58 7.58 0 0 1-1.32-1.78c-.13-.25 0-.38.13-.5.12-.11.26-.29.4-.43.12-.14.17-.24.25-.4.1-.16.06-.3 0-.44-.06-.12-.5-1.36-.7-1.87-.18-.5-.4-.43-.54-.44-.15 0-.3-.03-.47-.04a.9.9 0 0 0-.68.29c-.24.24-.9.82-.95 2.04-.04 1.23.8 2.44.92 2.61.12.17 1.62 2.82 4.1 3.92 2.5 1.09 2.51.75 2.97.73.46-.02 1.5-.55 1.72-1.12.23-.58.25-1.07.2-1.18-.07-.1-.23-.17-.47-.3Zm-4.57 5.9c-1.65 0-3.18-.5-4.46-1.35l-3.12 1 1.02-3.01a8.12 8.12 0 1 1 14.68-4.75c0 4.46-3.65 8.1-8.12 8.1Zm0-17.86a9.74 9.74 0 0 0-8.34 14.77l-1.76 5.23 5.4-1.73a9.74 9.74 0 1 0 4.7-18.27Z" fill="#050505"></path></svg></svg>