<svg xmlns="http://www.w3.org/2000/svg"><style>:root svg:not(:target){display:none}</style><svg viewBox="0 0 24 24" fill="none" id="inst"><path d="M6.67 0a6.67 6.67 0 0 0-6.67 6.66v10.67a6.67 6.67 0 0 0 6.67 6.66h10.66a6.67 6.67 0 0 0 6.67-6.66v-10.67a6.67 6.67 0 0 0-6.67-6.67h-10.66Zm13.33 2.66a1.33 1.33 0 1 1 0 2.67 1.33 1.33 0 0 1 0-2.67Zm-8 2.67a6.67 6.67 0 1 1 0 13.33 6.67 6.67 0 0 1 0-13.33Zm0 2.66a4 4 0 1 0 0 8 4 4 0 0 0 0-8Z" fill="#757575"></path></svg><svg viewBox="0 0 25 25" fill="none" id="linked"><g clip-path="url(#linked_0)" fill="#757575"><path d="M6.25 2.7c0 1.46-.94 2.66-2.67 2.66-1.6 0-2.67-1.2-2.67-2.53 0-1.46 1.08-2.8 2.67-2.8a2.6 2.6 0 0 1 2.67 2.67Zm0 4h-5.34v17.34h5.34v-17.34Zm12.8.26a5.8 5.8 0 0 0-5.06 2.66h-.14l-.27-2.26h-4.8c0 1.46.14 3.2.14 5.2v11.47h5.33v-9.48c0-.53 0-.94.14-1.34.4-.94 1.07-2.13 2.53-2.13 1.87 0 2.67 1.6 2.67 3.74v9.2h5.34v-9.85c0-4.93-2.54-7.2-5.88-7.2v-.01Z"></path></g><defs><clipPath id="linked_0"><path fill="#fff" transform="translate(.912 .03)" d="M0 0h24.02v24h-24.02z"></path></clipPath></defs></svg><svg viewBox="0 0 20 20" fill="none" id="phone"><path d="M17.86 14.55c-.6-.48-1.25-.92-1.88-1.36-1.26-.89-2.42-.96-3.36.47-.53.8-1.27.84-2.05.48a9.05 9.05 0 0 1-4.74-4.63c-.43-.96-.43-1.82.57-2.5.53-.35 1.07-.78 1.03-1.56-.06-1.03-2.54-4.45-3.52-4.8-.4-.16-.81-.15-1.23 0-2.3.77-3.25 2.66-2.34 4.9 2.73 6.68 7.51 11.34 14.1 14.18.39.16.8.22 1.01.28 1.5.01 3.26-1.43 3.77-2.87.49-1.38-.54-1.93-1.36-2.58Zm-7.4-13.48c4.82.74 7.05 3.03 7.66 7.89.06.45-.1 1.12.53 1.13.67.02.51-.65.52-1.1.05-4.57-3.94-8.81-8.57-8.97-.35.05-1.07-.24-1.11.54-.03.53.58.45.97.5Z" fill="#050505"></path><path d="M11.4 2.4c-.45-.06-1.07-.28-1.18.37-.1.67.57.6 1.01.7 2.98.67 4.01 1.75 4.5 4.7.08.44-.07 1.1.67 1 .54-.09.34-.66.39-1 .02-2.83-2.41-5.41-5.38-5.77Z" fill="#050505"></path><path d="M11.68 4.72c-.3 0-.61.04-.73.37-.17.5.19.61.56.67 1.22.2 1.86.91 1.98 2.13.04.33.25.6.57.56.44-.05.48-.44.47-.82.02-1.36-1.53-2.95-2.85-2.91Z" fill="#050505"></path></svg><svg viewBox="0 0 24 20" fill="none" id="tg"><path d="M21.36.2c-3.08 1.31-16.28 6.98-19.93 8.53-2.45.99-1.01 1.92-1.01 1.92s2.08.74 3.87 1.3c1.8.55 2.75-.07 2.75-.07l8.4-5.88c3-2.1 2.28-.37 1.56.38-1.55 1.6-4.12 4.14-6.26 6.18-.96.87-.48 1.61-.06 1.98 1.55 1.36 5.78 4.15 6.02 4.33 1.26.93 3.74 2.26 4.12-.56l1.49-9.71c.48-3.28.95-6.31 1.01-7.18.18-2.1-1.96-1.23-1.96-1.23Z" fill="#050505"></path></svg><svg viewBox="0 0 19 21" fill="none" id="viber"><g clip-path="url(#viber_0)" fill="#000"><path d="M18.8 6.33a10.3 10.3 0 0 0-.61-2.37 5.08 5.08 0 0 0-1.78-2.28 8.6 8.6 0 0 0-4.03-1.43c-.79-.1-1.55-.2-2.31-.23a17.03 17.03 0 0 0-4.55.43c-.84.2-1.66.55-2.44 1.03a5.6 5.6 0 0 0-2.43 3.01 8.5 8.5 0 0 0-.4 2 45 45 0 0 0-.24 2.52 14.26 14.26 0 0 0 .77 4.96 4.85 4.85 0 0 0 2.87 2.92l.57.22.2.08c.04.01.06.02.06.08v1.63h-.02v1.87c0 .05 0 .12.06.18.05.05.12.05.17.05h.3l.24-.01c.1-.01.24-.05.33-.14l.92-.9.95-.99a485 485 0 0 1 1.08-1.1l.07-.02a58 58 0 0 1 .75-.03l1.35-.05c.71-.04 1.44-.1 2.14-.16l.32-.03a6.93 6.93 0 0 0 1.68-.37 5.72 5.72 0 0 0 2.25-1.35 6.1 6.1 0 0 0 1.23-2.13c.54-1.38.64-2.82.69-4.18.04-1.03-.02-2.08-.19-3.21Zm-13.24 12.43v-1.46c-.01-.5-.24-.87-.66-1.07-.36-.17-.68-.3-.98-.4a3.41 3.41 0 0 1-1.8-1.54 7.06 7.06 0 0 1-.75-2 13.15 13.15 0 0 1-.26-4.06c.06-.9.2-1.86.42-2.92a4.42 4.42 0 0 1 2.24-3 8.06 8.06 0 0 1 2.43-.91 16.04 16.04 0 0 1 4.2-.28c.5.03 1 .1 1.49.15l.38.04a7.75 7.75 0 0 1 2.98.92c.41.22.75.47 1.05.75.54.53.91 1.22 1.16 2.16.33 1.23.47 2.37.45 3.48v.04c-.01.78-.03 1.59-.09 2.38-.06.9-.31 1.84-.75 2.9-.3.7-.75 1.26-1.33 1.63-.71.46-1.52.76-2.47.9-.86.14-1.74.18-2.6.21l-.65.03c-.46.03-.93.03-1.34.04-.42 0-.77.16-1.07.5-.39.42-.8.83-1.2 1.23l-.43.45-.39.37-.03.04v-.58Z"></path><path d="M12.36 15.05c-.23-.07-.46-.12-.67-.21a16.46 16.46 0 0 1-3.39-2 14.53 14.53 0 0 1-3.31-3.75c-.51-.82-.84-1.71-1.2-2.6-.25-.62-.03-1.17.38-1.64.31-.36.73-.55 1.18-.66.3-.08.53.05.73.24a6.48 6.48 0 0 1 1.6 2.24c.14.3.02.56-.2.78-.06.07-.15.13-.23.2-.13.12-.26.23-.37.36a.85.85 0 0 0-.16.86c.19.56.46 1.06.83 1.5.6.73 1.36 1.24 2.22 1.58.3.12.56.04.79-.17.1-.09.19-.19.26-.3.38-.58 1-.64 1.5-.3a27 27 0 0 1 1.75 1.28c.35.29.43.61.25 1.03a2.5 2.5 0 0 1-1.77 1.51c-.06.02-.12.02-.18.02l-.01.03Zm2.49-6.88-.14 1.06c-.03.2-.27.38-.45.35a.44.44 0 0 1-.36-.5c.11-.73.15-1.46-.1-2.17a3.94 3.94 0 0 0-4.42-2.7l-.37.03c-.19 0-.34-.14-.38-.35-.04-.16.05-.38.2-.43.23-.08.48-.12.72-.16.62-.1 1.23.01 1.83.18.97.28 1.76.84 2.4 1.63a4.7 4.7 0 0 1 1.04 3.05h.04Z"></path><path d="M10 4.66c1.11 0 2.02.43 2.72 1.3.64.8.87 1.7.76 2.7-.04.28-.13.4-.35.45a.4.4 0 0 1-.5-.4c0-.13.01-.26.03-.38a2.71 2.71 0 0 0-1.52-2.6 2.73 2.73 0 0 0-1.57-.2.44.44 0 0 1-.5-.3.4.4 0 0 1 .22-.5c.1-.05.21-.06.32-.07h.4Z"></path><path d="M10.04 5.99a2.24 2.24 0 0 1 2.12 2.27.4.4 0 0 1-.36.4c-.25.02-.43-.1-.46-.33l-.07-.43a1.39 1.39 0 0 0-1.3-1.06c-.36 0-.54-.32-.4-.62.09-.17.23-.24.47-.23Z"></path></g><defs><clipPath id="viber_0"><path fill="#fff" d="M0 0h19v21h-19z"></path></clipPath></defs></svg><svg viewBox="0 0 33 20" fill="none" id="vk"><path fill-rule="evenodd" clip-rule="evenodd" d="M32.23 1.33c.24-.78 0-1.34-1.08-1.34h-3.62c-.9 0-1.33.5-1.56 1.06 0 0-1.83 4.58-4.43 7.52-.86.87-1.2 1.12-1.68 1.12-.23 0-.56-.27-.56-1.05v-7.3c-.02-.95-.26-1.35-1.05-1.35h-5.67c-.56 0-.93.45-.93.84 0 .9 1.3 1.1 1.45 3.58v5.42c0 1.18-.2 1.4-.66 1.4-1.2 0-4.21-4.59-5.96-9.85-.37-.98-.7-1.39-1.62-1.39h-3.62c-1.03 0-1.24.5-1.24 1.06 0 .98 1.2 5.8 5.7 12.2 2.98 4.37 7.2 6.74 11 6.74 2.29 0 2.58-.53 2.58-1.42v-3.32c0-1.05.21-1.26.97-1.26.54 0 1.45.26 3.58 2.37 2.44 2.5 2.86 3.63 4.22 3.63h3.62c1.03 0 1.55-.53 1.24-1.55-.33-1.03-1.5-2.53-3.04-4.31-.86-1.03-2.11-2.1-2.48-2.66-.54-.71-.38-1.03 0-1.64 0-.01 4.4-6.34 4.86-8.5h-.02Z" fill="#757575"></path></svg><svg viewBox="0 0 20 20" fill="none" id="whatsapp"><path fill-rule="evenodd" clip-rule="evenodd" d="M14.67 11.97a41.6 41.6 0 0 0-1.67-.88c-.22-.09-.39-.14-.56.1-.17.25-.67.8-.82.95-.16.16-.3.18-.54.04-.25-.13-1.04-.42-1.96-1.3a7.58 7.58 0 0 1-1.32-1.78c-.13-.25 0-.38.13-.5.12-.11.26-.29.4-.43.12-.14.17-.24.25-.4.1-.16.06-.3 0-.44-.06-.12-.5-1.36-.7-1.87-.18-.5-.4-.43-.54-.44-.15 0-.3-.03-.47-.04a.9.9 0 0 0-.68.29c-.24.24-.9.82-.95 2.04-.04 1.23.8 2.44.92 2.61.12.17 1.62 2.82 4.1 3.92 2.5 1.09 2.51.75 2.97.73.46-.02 1.5-.55 1.72-1.12.23-.58.25-1.07.2-1.18-.07-.1-.23-.17-.47-.3Zm-4.57 5.9c-1.65 0-3.18-.5-4.46-1.35l-3.12 1 1.02-3.01a8.12 8.12 0 1 1 14.68-4.75c0 4.46-3.65 8.1-8.12 8.1Zm0-17.86a9.74 9.74 0 0 0-8.34 14.77l-1.76 5.23 5.4-1.73a9.74 9.74 0 1 0 4.7-18.27Z" fill="#050505"></path></svg><svg viewBox="0 0 28 20" fill="none" id="youtube"><g clip-path="url(#youtube_0)"><path d="M27.43 3.12a3.55 3.55 0 0 0-2.49-2.53c-2.18-.6-10.93-.6-10.93-.6s-8.77 0-10.94.6a3.55 3.55 0 0 0-2.48 2.53c-.4 2.28-.6 4.58-.59 6.9-.01 2.31.19 4.61.59 6.89a3.5 3.5 0 0 0 2.48 2.49c2.19.6 10.94.6 10.94.6s8.76 0 10.93-.6a3.54 3.54 0 0 0 2.49-2.5c.4-2.27.6-4.57.58-6.89.02-2.31-.18-4.61-.58-6.89Zm-16.3 11.12v-8.45l7.33 4.22-7.32 4.23Z" fill="#757575"></path></g><defs><clipPath id="youtube_0"><path fill="#fff" transform="translate(0 -.006)" d="M0 0h28v20h-28z"></path></clipPath></defs></svg></svg>