<svg version="1.1" id="Слой_1" xmlns="http://www.w3.org/2000/svg" x="0" y="0" viewBox="0 0 619.2 200" style="enable-background:new 0 0 619.2 200" xml:space="preserve"><style>.st0{fill:#fff}</style><path class="st0" d="M1 8c1.8-7.2 1.8-7.1 8-7.2 23.2-.3 46.3-.5 69.5-.8h4.3c-.7 8.9-1.1 17.3-2.3 25.7-.3 2.4-2.8 4.4-5.1 6.4-.3-3.7-.5-7.3-.8-11-.7-7.7-3.8-11.4-11.3-12-8.3-.6-16.6-.8-24.9-.5-7.5.3-9.7 3.1-9.7 10.7v85.1c0 7.8 2.5 10.5 10.1 9.6 4.2-.5 8.6-2 12.1-4.3 11.7-8 19.2-19 20.9-33.7 1.7-14.7-8.1-26.8-22.5-27.4-4.4-.2-8.8.4-13.3.7 1.2-6.5 1.9-7.6 9.7-8.2 16.5-1.3 30.4 4.1 39.8 18.7 7.5 11.6 6.5 23.7.6 35.5-8 15.9-21.2 25.2-38.1 26.8-15.8 1.5-31.8.3-48 .3.8-3.3 1.1-6.7 5.9-7.1 3.4-.2 4.8-3.1 5.3-6.2.4-2.2.4-4.6.4-6.9v-81.5c0-1.2 0-2.4-.1-3.6-.4-6.4-2.2-8.2-8.4-8.9-.6 0-1.3-.1-2.1-.2zm465 72.1c0 10.5-.1 21 .1 31.5.1 3.6 2.4 5.6 5.8 6 1.5.2 3.1 0 5 0-1.3 3.5-3.1 5.2-6.8 5.1-9.9-.3-19.7-.1-29.8-.1.2-3.1 1.2-4.7 4.2-4.8 3.8-.2 5.7-2.6 5.8-6.4.1-19.9.2-39.7.1-59.6 0-4.6-2.2-6.3-6.8-6.7-.9-.1-1.8-.2-2.9-.3.2-3.6 1.5-5.1 5.1-5 10.2.2 20.5.1 31.1.1-1 3-2 4.8-5.2 5-3.7.2-5.8 2.8-5.8 6.4-.2 8.8-.1 17.5-.1 27.7 5-2.7 9.6-4.4 13.2-7.4 5.9-4.9 11.7-10.1 16.5-16 5.8-7.1 4.6-9.4-4.1-11.2.3-3 1.4-4.7 4.8-4.8 6.5-.1 13.1-.8 20.4-1.2-1.6 2.6-2.7 4.6-4.1 6.5-7.7 11-16.7 20.9-27.5 28.8-2.6 1.9-3 3.5-.9 6.1 8.2 10.4 15.6 21.4 24.4 31.2 11.7 13 25.6 22.9 44 23.3.1.4.1.8.2 1.2-3.9 1-7.7 2.5-11.7 3-13.3 1.7-24.5-3.9-34.7-11.7-12.7-9.7-22.6-22.1-31.8-35.3-2.7-3.9-5.4-7.9-8-11.8 0 .2-.2.3-.5.4z"/><path class="st0" d="M566.4 125.7c-24.5.1-41.6-17.8-41.7-43.5-.1-27.4 17.3-45.3 43.9-45.3 26.4 0 42.5 16.4 42.5 43.3.2 26.7-18.3 45.4-44.7 45.5zm29.3-42.9c-1-6.4-1.6-12.8-3.2-19-5.3-20.4-27.2-27.6-42.1-14-5.8 5.3-8 12.5-8.8 20.2-1.5 13.4-.5 26.5 6.8 38.2a23.79 23.79 0 0 0 41.1-.8c4.4-7.5 5.5-15.9 6.2-24.6zm-344.6 34.9c-1.8 3.5-4 5.5-8.3 5.4-9.1-.4-18.2-.1-27.3-.1-1.3 0-2.6-.1-4.2-.2 1.2-3.5 2.5-5.9 6.5-6 4.4-.1 6.6-2.6 6.9-7.3.2-4.3.1-8.6.1-13 0-15.5-.1-31.1.1-46.6 0-3.1-.9-4-3.8-3.9-4.2.2-8.4 0-12.6.1-5.5 0-6.6 1.2-6.9 6.9-.6 10.4-.8 20.8-2.1 31.1-1.4 10.7-4 21.3-10.5 30.2-2.5 3.4-5.7 6.3-9.1 8.7-2.9 2-6.7 3.2-10 .6-3.2-2.5-3-6.3-2.7-9.9 12.6-.3 20.1-6.2 23.7-18.6 3.1-10.7 4.5-21.6 3.9-32.8-.7-12.8-3-15.4-15.1-17.1.8-3.8 2.7-5.4 6.7-5.3 19.8.2 39.5.1 59.3.1h4.6c-1.1 3-1.7 5.6-5.4 5.8-3.2.2-4.1 3.1-4.1 5.9-.1 5.8-.1 11.6-.1 17.4v38.5c0 8.4 1 9.4 9.3 9.7.3 0 .6.2 1.1.4zm179.2.2c-1.7 3.6-3.9 5-7.6 4.9-10.3-.3-20.5-.1-31.1-.1.8-3.2 1.8-5.3 5.3-5.7 6-.6 7.7-2.3 7.8-8.8.2-16.7.2-33.5.2-50.2 0-3-.1-5.9 0-8.9.1-2.4-1-3.3-3.3-3.3-4.7.1-9.5-.1-14.2 0-4.6.1-6 1.7-6.2 6.5-.5 11.6-.2 23.3-1.6 34.8-1 8.5-3.4 16.9-6.3 24.9-3.6 9.8-11.2 14.1-19.6 12.8-3.7-.5-6.1-2.3-6.4-6.5 14.4-.8 19.8-11.2 23.4-23.4 3.7-12.2 4.8-24.6 3.4-37.2-1.2-9.7-3.8-11.8-13.2-12.5-.4 0-.7-.3-1.1-.4.6-3.7 2.5-4.9 6.2-4.9 19.8.2 39.5.1 59.3.1h4.3c-.8 3.1-1.5 5.3-5.2 5.6-3.7.3-4.1 3.8-4.1 6.8-.1 8 0 15.9 0 23.9v29.6c-.2 10.4 0 10.7 10 12zm-84.8-.1c-1.9 3.7-4.4 4.8-8 4.7-10-.2-20-.1-29.9-.1-.2-.4-.4-.9-.6-1.3 1.4-.9 2.8-2.2 4.3-2.5 4.3-.8 6.2-2.4 5.3-6.8-1.6-7.2-4-14.2-6.2-21.3-.2-.7-1.6-1.3-2.4-1.3-7.4-.1-14.8-.1-22.1 0-1.1 0-2.6 1.2-3.1 2.2-2 4.4-3.7 8.9-5.5 13.4-3.5 8.9-.9 13 8.4 13.6.5 0 1 .1 2.1 1-1.5.9-2.9 2.7-4.4 2.7-9.3.3-18.7.1-29 .1 1.3-1.7 1.9-3.5 2.9-3.7 6-1.5 9-6.1 11.2-11.2 5.5-12.3 10.6-24.7 15.9-37.1 1.6-3.8 3.2-7.7 4.8-11.5.6-1.5 1.2-3 1.6-4.6 1.9-6.4.9-8.2-5.4-9.4.8-3.6 2.7-5.4 6.6-5.4 4.1 0 8.1-.7 12.2-1.3 3-.5 4.6.2 5.7 3.5 6.9 20.6 14 41 21.1 61.5.8 2.4 1.8 4.8 3 7 2.2 5.1 5.6 8.2 11.5 7.8zm-48-66.3c-4.1 11.1-7.8 21-11.6 31.2h21.9c-3.4-10.3-6.7-20.2-10.3-31.2zm-202.4-6.2c.5-4 1.9-5.5 5.7-5.5 19.9.2 39.7.1 59.8.1 1.8 6.8-1.2 18.9-6.1 22.2-.4-2.8-.8-5.4-1.2-8.1-.5-3.9-2.7-6.5-6.3-6.7-7.1-.4-14.2-.4-21.2-.1-3.3.1-5.1 2.7-5.1 6.1-.1 7.6 0 15.1 0 22.8h26.3c-.5 6.1-1.7 7.1-7.6 6.9-6-.2-12.1 0-18.8 0v28c0 2.6.6 4.6 3.4 5 8.6 1.3 17.1 1.4 25.3-1.7 3.1-1.2 5.6-3.8 8.9-6.1 1.1 1.1 4.1 2.8 3.9 4.1-.6 3.5-2.3 6.8-3.8 10.1-.2.5-1.7.5-2.6.5h-59.7c-.4 0-.8-.2-1.4-.3.6-2.7 1.2-5 4.7-5 3.2 0 5.1-2.1 5.5-5.3.2-1.5.4-3 .4-4.4v-52.3c0-2-.1-4.1-.6-6-1.4-4.9-5.6-4.1-9.5-4.3zm135.8 103.1c.4 5.6.7 10.6 1.1 16-73.7-3-146.9-6-220.2-8.9v-.8l219.1-6.3zm164.9 16.8c.4-5.5.7-10.5 1.1-16l222.2 6.3v.6c-74.2 3.1-148.5 6.1-223.3 9.1zm-109.7 5.9c-1.9-1.6-3.7-3-5.4-4.6-3.4-3.3-5.1-7.2-3.8-12 1.2-4.6 4.6-7.2 8.8-7.6 5-.5 10.3-.6 15.2.5 7.1 1.6 9.1 9.2 4.4 14.9-2 2.4-4.7 4.2-7.4 6.5 2 1.1 4.1 2.3 6.1 3.5 10 5.8 7.2 17.1 1.2 22-6.4 5.2-18.3 6.3-25.4 2.2-7.1-4.2-8.3-13.3-2.3-19.1 2.6-2.5 5.6-4.2 8.6-6.3zm16.4 14.7c0-5.3-8.3-13.4-13.2-12.7-.4 0-.7.3-1 .5-4.7 2.4-7.2 7.5-6.3 12.8 1 5.5 5.9 9.3 11.4 8.9 5.8-.4 9.1-3.8 9.1-9.5zm-9.4-36.5c-6 0-8.7 2.2-8.7 6.9 0 3.9 6.1 10.5 9.7 10.6 3 0 7.6-6.2 7.6-10.3-.1-4.9-2.9-7.3-8.6-7.2zm26.3 48.2c10.4-3.7 17.2-10.8 20.5-21.9-3.5 1.7-6.5 3.8-9.7 4.5-8.1 1.7-14.7-2.5-17.1-10-2.6-8.4.8-17.8 8.1-21.6 11-5.7 27.9-2.8 27.9 17.2 0 16.1-10.8 29.8-26.1 33.1-1.1.2-2.3-.1-3.4-.2-.1-.4-.1-.7-.2-1.1zm.9-35.4c.5 2.5.8 5 1.7 7.4 1.6 4.8 4.5 6.8 8.8 6.6 4.3-.2 7.6-2.9 8.8-7.4 1.4-5 .7-9.9-1.5-14.6-1.4-3.1-4-4.8-7.6-4.9-6.6 0-9.9 4.2-10.2 12.9zm-52.7 33.1c-1.4.7-2.8 1.8-4.2 1.9-5.9.2-11.8.1-18.3-.8 1-.9 1.9-2.3 3-2.5 3-.7 4.2-2.6 4.3-5.4.1-10.3.2-20.5.1-30.8 0-4.3-3.2-5.4-6.7-5.8 1-3.1 6.6-4.8 15.8-4.8v4.7c-.1 11.7-.1 23.5-.2 35.2 0 5.9.5 6.5 6 7.2 0 .4.1.8.2 1.1zm108-39h-25.2c.6-2.4 1.3-4.8 2-7.4h30.1c-.8 2.1-1.3 4.2-2.5 5.8-9.8 13.5-15 28.6-15.2 45.5-5.9-2.4-6.3-3.1-5.1-8.9 2.2-10.9 7.1-20.5 12.7-29.8 1.1-1.8 2.1-3.3 3.2-5.2zm-272-156.2v24.8l515.6-13.2z"/></svg>