<svg id="_Слой_1" data-name="Слой 1" xmlns="http://www.w3.org/2000/svg" viewBox="0 0 486.2 200"><defs><style>.cls-2{fill:#fff}.cls-5{letter-spacing:0}</style></defs><path class="cls-2" d="M133.96 90.13c-.72.94-1.38 1.73-1.97 2.59a21.27 21.27 0 0 0-3.57 9.66c-.72 6.04.95 11.36 4.58 16.1 1.05 1.37 2.52 2.4 3.74 3.65.34.35.65.92.66 1.39.05 4.59.13 9.19 0 13.78-.1 3.43-.48 6.85-.81 10.27a40.35 40.35 0 0 1-3.95 14.07 29.8 29.8 0 0 1-8.66 10.37 48.8 48.8 0 0 1-9.88 5.73c-3.83 1.74-7.77 3.23-11.65 4.85-3.1 1.3-6.22 2.58-9.28 3.98a95.67 95.67 0 0 0-16.16 9.15c-1.94 1.39-3.85 2.82-5.84 4.28-2.16-1.59-4.32-3.37-6.65-4.87-3.24-2.07-6.5-4.14-9.94-5.84-5.09-2.51-10.34-4.68-15.52-6.99-5.06-2.26-10.16-4.45-15.17-6.82a31.5 31.5 0 0 1-7.56-5.22 29.98 29.98 0 0 1-6.86-9.23 39.17 39.17 0 0 1-3.24-10.49 65.42 65.42 0 0 1-1.06-11.69c.01-1.27-.11-2.55-.2-3.82-.05-.68.23-.96.91-.91.41.03.83.01 1.25 0 3.05-.07 6.09-.08 9.14-.22 3.02-.14 6.05-.32 9.05-.63 3.8-.4 7.6-.89 11.38-1.44 4.35-.64 8.7-1.27 13.01-2.13a207.93 207.93 0 0 0 25.7-7.07 243.6 243.6 0 0 0 14.52-5.66c4.01-1.71 7.94-3.63 11.82-5.61a170.87 170.87 0 0 0 20.18-12.19c4.06-2.85 7.94-5.95 12.04-9.04Zm-52.65 43.71c-2.02.64-3.99 1.01-6.04.32-1.75-.6-3.57-.56-5.37-.41-1.8.15-3.61.68-5.14-.8-.06-.06-.21-.03-.3-.08-1.46-.8-2.84-.43-4.28.13-1.6.62-2.53 2.07-2.23 3.78a3.48 3.48 0 0 0 3.23 2.79c1.92.09 3.2-1.09 4.45-2.22 1.01-.92 1.95-1.25 3.3-.77 1.69.6 3.37 1.27 5.27 1.14 1.19-.08 2.27.46 2.72 1.27 0 1.15.02 1.97 0 2.79-.01.41-.1.81-.15 1.21-.08.57-.34 1.19-.21 1.71a3.2 3.2 0 0 1-.51 2.69c-.81 1.11-.61 2.89-2.3 3.43-.27.09-.36.67-.59 1-.31.45-.59.95-1.01 1.27-1.2.96-2.45 1.85-3.69 2.74-.71.51-1.4 1.16-2.2 1.4-.93.28-1.97.24-2.97.25-2.37.02-4.4 1.05-6.45 2.06-2.29 1.12-4.55 2.3-6.87 3.36-2.1.97-4.51 1.18-6.3 2.93-1.23 1.2-2.75 2.09-2.44 4.2.13.91.16 1.78 1.07 2.29.95.52 1.72.07 2.45-.48 1.22-.91 2.44-1.84 3.63-2.79.39-.31.69-.73 1.08-1.05.7-.6 1.34-1.41 2.15-1.69a80.3 80.3 0 0 1 6.95-1.91c4.22-1.02 8.5-1.81 12.49-3.63.61-.28 1.47-.7 1.92-.48 1.33.68 2.72.31 4.01.61-.09 1.16-.38 2.24-1.86 2.89.56.44.95.68 1.25 1.01.3.31.7.69.72 1.06.08 1.55.03 3.1.03 4.68-1.2-.4-1.49-.85-1.44-2.5.02-.84-.25-1.34-1.08-1.44-1.23-.15-2.25.83-2.28 2.11 0 .4-.03.83-.17 1.2-.37.98-.82 1.92-1.2 2.89-.4 1-1.07 1.99-.47 3.1.25.47.64 1.01 1.09 1.17.6.22 1.28.07 1.65-.67.29-.58.66-1.11 1.01-1.65.36-.54.78-.83 1.3-.16.74.94 1.51 1.86 2.23 2.81.68.9 1.96 1.09 2.44.24a48.73 48.73 0 0 0 2.33-4.55 167.3 167.3 0 0 0 2.72-6.83c.6-1.58 1.36-3.16 1.61-4.8.26-1.7.85-3.26 1.35-4.86.23-.71.9-1.33.99-2.04.43-3.4.84-6.81 1.04-10.22.12-2.06.61-3.97 1.41-5.83.52-1.23 1.24-1.4 2.38-.8l-1.81 3.69.33.22 1.26-1.51.78 1.84c.55-.62-.19-1.58.88-1.67l.6.97c.23-.38.25-.68.26-.98l.01-.82.8.35c0-.19.05-.4.02-.6-.16-1.04.23-1.45 1.31-1.36.47.04 1.01-.18 1.44-.42a2.21 2.21 0 0 0 1.16-2.25c-.11-.86-.81-1.25-1.73-1.3-.98-.05-1.96-.26-2.93-.39-1.28-.18-2.57-.37-3.85-.52-1.05-.12-2.12-.36-3.15-.25-1.57.18-2.4-.52-2.05-2.02.11-.49.28-.98.35-1.49.16-1.11.42-2.23.39-3.34-.03-1.5-2.47-2.81-4.02-2.09-.95.44-2.13 1.14-2.46 2.01-.5 1.28-1.75 2.72-.37 4.25.07.08.05.27.05.41v3.37Zm-27.03 47.04-.09.27c1.48.8 2.94 1.63 4.44 2.39a63.94 63.94 0 0 1 11.36 7.42c.67.54 1.14.98 2.19.13a73.12 73.12 0 0 1 15.06-9.37c.34-.16.66-.39.99-.58l-.1-.25c-.69.19-1.39.37-2.08.58a102.62 102.62 0 0 0-14.33 5.57c-.28.13-.72.17-.99.04a98.02 98.02 0 0 0-16.45-6.19Zm56.07-140.27v-10.8h5.12v6.14h3.77v-6.11h5.23v6.13h3.73v-6.14h5.23v6.12h3.77v-6.13h5.15v10.7c-.9.09-1.83.07-2.71.29-1.51.38-2.22 1.4-2.22 2.91v6.57c0 .6-.08.99-.83.98-6.91-.02-13.83-.02-20.74-.02-.06 0-.13-.03-.33-.09v-6.91c0-.97-.18-1.88-.94-2.62a3.3 3.3 0 0 0-2.48-1.01h-1.74Zm8.99-1.41v8.64h2.59v-8.64h-2.59Zm14.05 8.67v-8.65h-2.47v8.65h2.47Zm-5.82-8.63h-2.41v8.61h2.41v-8.61Zm-127.57 1.37v-10.79h5.15v6.12h3.77v-6.13h5.19v6.15h3.77v-6.12h5.23v6.14h3.73v-6.15h5.2v10.79c-.54 0-1.08.03-1.62 0-1.84-.11-3.55 1.25-3.55 3.52v7.07c-.34.02-.64.06-.94.06-6.6 0-13.2-.01-19.81.02-.93 0-1.2-.28-1.17-1.19.06-2.12.02-4.24.02-6.36a2.97 2.97 0 0 0-3.09-3.11h-1.88Zm11.56 7.26v-8.67h-2.56v8.67h2.56Zm8.92-8.68v8.64h2.59v-8.64h-2.59Zm-5.62 0v8.67h2.36v-8.67h-2.36Zm7.85-18.52c-2.13-1.09-4.1-2.03-5.98-3.11-.59-.34-.99-.31-1.49-.04l-5.21 2.83c-.17.09-.37.15-.72.28.18-1.18.33-2.24.52-3.3.22-1.3.52-2.6.68-3.91.03-.27-.31-.64-.56-.88-1.57-1.5-3.15-2.98-4.91-4.64l6.58-.89c.71-.1 1.2-.36 1.53-1.11.83-1.94 1.8-3.82 2.79-5.89.82 1.61 1.71 3.04 2.28 4.59.63 1.71 1.66 2.55 3.48 2.65 1.63.09 3.25.41 5.19.68-.73.73-1.31 1.33-1.9 1.9-1.07 1.02-2.29 1.94-3.19 3.09-.36.46-.16 1.45-.06 2.18.26 1.81.62 3.6.96 5.58Zm41.86-.03.75-4.8c.09-.57.34-1.14.31-1.7a2.53 2.53 0 0 0-.56-1.53c-1.47-1.56-3.04-3.04-4.72-4.71 2.29-.32 4.35-.63 6.43-.89.69-.09 1.16-.3 1.48-.99.93-1.98 1.95-3.91 2.99-6 .84 1.68 1.76 3.21 2.38 4.86.59 1.55 1.61 2.19 3.17 2.34 1.7.16 3.38.42 5.25.66-.23.3-.36.52-.54.7-1.17 1.12-2.33 2.26-3.55 3.34-.87.77-1.39 1.51-1.06 2.82.48 1.87.69 3.8 1.05 5.9-.98-.47-1.87-.88-2.75-1.33-.79-.4-1.63-.75-2.32-1.29-1.34-1.05-2.47-.54-3.71.19-1.44.85-2.94 1.57-4.6 2.44Zm51.06-12.76c2.34-.31 4.45-.59 6.57-.89.58-.08 1.01-.29 1.3-.92.92-1.98 1.94-3.91 2.99-6.01.38.72.73 1.34 1.05 1.99.68 1.41 1.3 2.85 2.03 4.24.17.32.64.62 1.01.67 2.15.33 4.32.59 6.73.9l-3.27 3.23a5.54 5.54 0 0 0-1.63 5.23c.26 1.37.5 2.74.78 4.3-1.18-.58-2.23-1.08-3.26-1.61-1-.51-1.97-1.09-2.99-1.56a1.47 1.47 0 0 0-1.11.04c-1.95.98-3.87 2.01-6.03 3.14.21-1.4.37-2.59.57-3.77.16-.9.46-1.79.5-2.7a2.26 2.26 0 0 0-.53-1.54c-1.47-1.57-3.03-3.06-4.74-4.75Zm-66.57 75.92c1.57.24 3.18-.45 4.63.62 1.02.75 1.34 1.71.92 3.24a2.54 2.54 0 0 1-2.35 1.8c-1.04.02-2.08 0-3.2 0v-5.66Zm18.01 17.48c-.92 0-1.59.74-1.59 1.77s.67 1.77 1.59 1.77 1.6-.73 1.6-1.77-.64-1.77-1.6-1.77Z"/><path class="cls-2" d="M137.42 54.46v-1.26h-21.94v11.36h-5.19v-5.92h-5.23v5.9h-5.23v-5.92h-5.19v5.94h-5.06c-.05-.11-.11-.17-.11-.23 0-4.1-.05-8.21 0-12.31.02-1.34.64-2.47 2.02-2.89a5.54 5.54 0 0 1 2.03-.15c1.03.09 1.4-.22 1.37-1.32-.08-2.54-.02-5.08-.02-7.62v-3.96h-8.18v5.93h-4.99v-5.91h-7.94v5.9h-5.19v-5.92h-7.94v5.94h-4.99v-5.92h-8.12v11.03c0 2.05-.2 1.95 1.84 1.8 2.29-.17 3.62 1.51 3.59 3.6-.04 3.65-.01 7.31-.01 10.96v1.07h-5.25v-5.91h-5.23v5.89h-5.19v-5.91h-5.23v5.93h-5.19v-11.35h-21.83c-.03.15-.05.22-.05.28 0 10.99-.01 21.99.02 32.98 0 .4.32.88.63 1.2 1.23 1.23 2.68 2.28 3.75 3.64 3.94 5 5.54 10.73 4.52 17.02a20.9 20.9 0 0 1-7.37 13.07c-.43.36-.84.73-1.19 1.04 4.33 0 8.65.05 12.97-.01 4.42-.07 8.85-.24 13.27-.41 2.41-.09 4.81-.24 7.22-.41 3.46-.25 6.91-.53 10.37-.84 2.69-.24 5.39-.45 8.07-.86 3.9-.6 7.78-1.36 11.66-2.05a133.53 133.53 0 0 0 17.16-4.36 149.77 149.77 0 0 0 28.09-12.31c4.15-2.35 8.28-4.73 12.36-7.18 3.3-1.98 6.47-4.17 9.78-6.12.95-.56 1.16-1.13 1.16-2.12-.03-10.44-.02-20.87-.02-31.31Zm-94.86 14.83h16.9c-.36 1.48-.68 2.95-1.09 4.39-.05.17-.55.31-.84.32-2.47.02-4.94.01-7.4.01h-1.09v4.91c1.78.1 3.52.26 5.27.29 4.52.07 6.96 2.96 7.17 7.24a7.29 7.29 0 0 1-3.27 6.79c-1.35.93-2.93 1.15-4.48 1.19-3.58.1-7.16.03-10.74.03-.13 0-.26-.03-.44-.05v-25.12Zm5.09 36.29h-.89v-3.09l-1.31 3.09h-.72l-1.32-3.11v3.11h-.89v-5.05h.97l1.6 3.83 1.6-3.83h.96v5.05Zm4.33-4.2h-2.61v1.24h2.5v.87h-2.5v1.24h2.61v.86h-3.5v-5.05h3.5v.85Zm7.81 4.2h-6.97v-5.05h.89v4.19h2.16v-4.19h.89v4.19h2.16v-4.19h.89v5.05Zm4.07 0-1.83-2.11h-.5v2.11h-.89v-5.05h.89v2.11h.51l1.66-2.11h1.09l-2.02 2.52 2.22 2.53h-1.13Zm3.21.1c-1.41 0-2.47-1.13-2.47-2.62s1.06-2.63 2.47-2.63 2.48 1.11 2.48 2.63-1.05 2.62-2.48 2.62Zm5.18-.1h-2.1v-5.05h2.1c1.08 0 1.81.56 1.81 1.39 0 .43-.22.8-.61 1.06.53.24.83.65.83 1.17 0 .85-.83 1.44-2.02 1.44Zm-.21-31.58c-.91-.04-1.19.25-1.18 1.17.04 6.01.02 12.03.02 18.05v1.26c-1.98 0-3.82-.02-5.66 0-.77.01-.81-.42-.81-1.01v-24.18h13.72l-1.08 4.72c-1.68 0-3.35.05-5.01-.02Zm6.82 31.58h-2.15v-5.05h3.63v.83h-2.74v.89h1.26c1.08 0 1.92.73 1.92 1.67s-.79 1.66-1.92 1.66Zm4.63-1.5h-1.22v1.5h-.89v-5.05h2.11c1.12 0 1.96.76 1.96 1.77s-.9 1.78-1.96 1.78Zm6.08-2.7h-2.61v1.24h2.5v.87h-2.5v1.24h2.61v.86h-3.5v-5.05h3.5v.85Zm3.02 3.44c.67 0 1.22-.38 1.47-1l.04-.11h.94l-.08.23a2.44 2.44 0 0 1-2.36 1.74c-1.41 0-2.47-1.13-2.47-2.62s1.06-2.63 2.47-2.63c1.1 0 2 .67 2.36 1.74l.08.23h-.95l-.04-.11c-.25-.63-.8-1-1.46-1-.91 0-1.57.74-1.57 1.77s.66 1.77 1.57 1.77Zm6.78-3.44h-1.63v4.2h-.89v-4.2h-1.63v-.85h4.14v.85Zm-6.52-6.93c-.24 0-.58-.3-.7-.54-1.86-3.69-3.69-7.4-5.53-11.09-.02-.05-.11-.07-.26-.16v11.73h-6.24v-25.11h6.16v10.62l.2.09c.18-.25.4-.48.55-.75l5.17-9.52c.11-.21.36-.48.56-.48 2.07-.03 4.14-.02 6.42-.02-.91 1.56-1.71 2.98-2.53 4.37-1.35 2.28-2.74 4.55-4.08 6.84-.13.23-.1.67.03.91 1.5 2.75 3.04 5.48 4.56 8.22l2.71 4.91c-2.43 0-4.71.02-6.99-.02Z"/><path class="cls-2" d="M72.25 103.43h-1.22v1.33h1.36c-.07-.27-.03-.68 0-1.18l.98.53v-.02c0-.48-.58-.65-1.13-.65Zm6.62-.35h-1.26v1.65h1.26c.24 0 .44-.05.61-.14v-.88c.14-.03.26-.04.38-.04-.12-.35-.51-.59-.99-.59Zm4.63-1.7h-1.22v1.85h1.22c.13 0 .25-.02.36-.05v-1.51l.57.16a1.1 1.1 0 0 0-.93-.45Zm-11.25-.04h-1.22v1.28h1.22c.52 0 .94-.29.94-.65 0-.38-.38-.64-.94-.64Z"/><path class="cls-2" d="M72.39 104.75c.58-.04.97-.29.98-.65l-.98-.53c-.04.5-.08.91 0 1.18Zm7.08-.15a.75.75 0 0 0 .43-.69.64.64 0 0 0-.05-.24c-.12 0-.24 0-.38.04v.88Zm4.4-1.43c.42-.13.72-.46.72-.87a.75.75 0 0 0-.15-.47l-.57-.16v1.51Z"/><text transform="translate(170.98 64.78)" style="font-family:Lato-Bold,Lato;font-size:39.57px;font-weight:700;fill:#fff"><tspan x="0" y="0">БР</tspan><tspan x="49.4" y="0" style="letter-spacing:-.02em">Е</tspan><tspan class="cls-5" x="71.54" y="0">С</tspan><tspan x="97.72" y="0" style="letter-spacing:-.02em">Т</tspan><tspan class="cls-5" x="120.51" y="0">СКИЙ</tspan><tspan x="0" y="47.49" style="letter-spacing:-.09em">Г</tspan><tspan x="17.96" y="47.49">АНДБ</tspan><tspan x="132.7" y="47.49" style="letter-spacing:-.02em">О</tspan><tspan x="163.98" y="47.49">ЛЬНЫЙ</tspan><tspan x="0" y="94.97" style="letter-spacing:0">К</tspan><tspan x="27.86" y="94.97">ЛУБ</tspan></text></svg>