<svg xmlns="http://www.w3.org/2000/svg" viewBox="0 0 720.8 200" style="enable-background:new 0 0 720.8 200" xml:space="preserve"><path d="M200.9 80.3h-29.2a4.7 4.7 0 0 1-4.8-4.6v-26.8c0-4.7-4-8.5-8.9-8.5h-27.5a4.7 4.7 0 0 1-4.8-4.6v-27.3c0-4.7-4-8.5-8.9-8.5h-23.5c-4.9 0-8.9 3.8-8.9 8.5v27.3c0 2.5-2.2 4.6-4.8 4.6h-28.8c-4.9 0-8.9 3.8-8.9 8.5v26.8c0 2.5-2.2 4.6-4.8 4.6h-28.2c-4.9 0-8.9 3.8-8.9 8.5v22.4c0 4.7 4 8.5 8.9 8.5h28.1c2.7 0 4.8 2.1 4.8 4.6v26.8c0 4.7 4 8.5 8.9 8.5h28.8c2.7 0 4.8 2.1 4.8 4.6v27.3c0 4.7 4 8.5 8.9 8.5h23.5c4.9 0 8.9-3.8 8.9-8.5v-27.3c0-2.5 2.2-4.6 4.8-4.6h27.6c4.9 0 8.9-3.8 8.9-8.5v-26.8c0-2.5 2.2-4.6 4.8-4.6h29.2c4.9 0 8.9-3.8 8.9-8.5v-22.4c0-4.7-4-8.5-8.9-8.5z" style="fill:#fff;fill-opacity:.8"/><path d="M159.1 80.1h-27.7c-2.7 0-4.9-2.1-4.9-4.6v-27.2c0-4.7-4-8.6-9-8.6h-23.7c-5 0-9 3.8-9 8.6v27.1c0 2.6-2.2 4.6-4.9 4.6h-29.2c-5 0-9 3.8-9 8.6v22.7c0 4.7 4 8.6 9 8.6h29.2c2.7 0 4.9 2.1 4.9 4.6v27.1c0 4.7 4 8.6 9 8.6h23.8c5 0 9-3.8 9-8.6v-27.1c0-2.6 2.2-4.6 4.9-4.6h27.7c5 0 9-3.8 9-8.6v-22.7c-.1-4.7-4.1-8.5-9.1-8.5zm114.9 45.8h-5.1c-13.8 0-20.5-7.3-20.5-20.6v-27.9c0-13.4 6.8-20.6 20.5-20.6h5.1v-4.9h13.5v4.9h5.1c13.8 0 20.5 7.3 20.5 20.6v27.9c0 13.4-6.8 20.6-20.5 20.6h-5.1v9.4h-13.5v-9.4zm0-57.6h-5.1c-4.4 0-6.9 2.3-6.9 8.2v29.6c0 6 2.5 8.3 6.9 8.3h5.1v-46.1zm13.5 0v46.1h5.1c4.4 0 6.9-2.4 6.9-8.3v-29.5c0-6-2.5-8.2-6.9-8.2h-5.1zm81.2 68.6h-13.9l-2.4-15.1h-16.9l-2.4 15.1h-12.7l14-83.5h20.2l14.1 83.5zm-31.4-26.5h13.3l-6.6-42.2-6.7 42.2zm81.6-36.4v10.8c0 13.4-6.8 29.6-20.5 29.6h-6.5v22.4h-13.8v-83.5h20.3c13.7 0 20.5 7.3 20.5 20.7zm-27.1-8.7v37.2h6.5c6.8 0 6.8-10.8 6.8-16.8v-12.5c0-6-2.4-7.9-6.8-7.9h-6.5zm66.9 47.4 9.4-59.2h19.1v83.5h-13v-60l-9.5 59.8h-13l-10.3-59v59h-12v-83.4h19.1l10.2 59.3zm88.5 24.2h-13.9l-2.4-15.1h-16.9l-2.4 15.1h-12.6l14-83.5h20.2l14 83.5zm-31.4-26.5h13.3l-6.6-42.2-6.7 42.2zm44.5-57h13.8v71.6h15.6v-71.6h14v71.8h6v22.9h-13.4v-11.2h-36v-83.5zm76.8 83.8h-14.1v-83.4h12.2v52.8l5-18.4 11.3-34.5h15.2v83.5h-12.4v-58.8l-5.6 20.5-11.6 38.3zm41-.3c1.4-3.1 1.5-6.1 1.5-10.1l.1-7.5c0-8.7 2.1-16.2 9-19-6.1-2.7-9-12.5-9-21.1v-6.6c0-12.9 6.1-19.2 20.4-19.2h20.8v83.5h-13.8v-29.8h-4.7c-6.3 0-8.9 4.1-8.9 11.8l-.1 7.7c0 6.8-.5 8.1-1.3 10.2h-14zm22.4-71.6c-4.9 0-7 2.6-7 8.6v8.2c0 6.7 3.1 13 8.3 13h5.4v-29.7l-6.7-.1z" style="fill:#fff"/></svg>