<svg xmlns="http://www.w3.org/2000/svg" viewBox="0 0 564.2 200" style="enable-background:new 0 0 564.2 200" xml:space="preserve"><path d="M264.7 84.9v-28.7l-9.3 18.7h-6.5l-9.4-18.7v28.7h-9.5v-49.3h9.4l12.8 26.6 12.7-26.6h9.4v49.2h-9.6zm44.6 0v-19.7c-1.7 1.1-6.4 2.6-11.3 2.6-7.7 0-13.7-5.4-13.7-13.6v-18.6h9.5v16.9c0 4.3 2.7 6.7 7 6.7 3.6 0 6.9-1.2 8.4-3v-20.6h9.5v49.2h-9.4zm44.6-.9c-2.1.8-4.5 1.3-7.1 1.3-5.3 0-9.9-1.8-13.3-5.4-4.8-4.9-4.8-11.4-4.8-19.6v-2c0-9.8 1-13.8 4.8-17.6 3.4-3.5 8-5.4 13.2-5.4 2.7 0 5.1.4 7.2 1.3 2.3 1 3.6 1.8 6.3 4.3l-6.3 6.4c-2.7-2.6-4.4-3.5-7.2-3.5-2.5 0-4.6.8-6.1 2.5-2.4 2.7-2.4 7.8-2.4 12.5v2.6c0 7.8.5 10.5 2.4 12.6 1.5 1.7 3.5 2.5 6.1 2.5 2.9 0 4.5-.8 7.2-3.5l6.3 6.4c-2.7 2.7-4.1 3.5-6.3 4.6zm-93.6 54.6c2.8 2.7 4.2 6.4 4.2 10.8s-1.4 8.1-4.2 10.8c-2.8 2.7-6.6 4.1-11.3 4.1h-19v-49.2h31.5v6.7h-24v12.6h11.5c4.7.1 8.5 1.4 11.3 4.2zm-3.2 10.8c0-2.5-.8-4.5-2.2-6-1.5-1.5-3.6-2.2-6.2-2.2h-11.2v16.5h11.1c2.7 0 4.7-.7 6.2-2.2 1.5-1.4 2.2-3.5 2.3-6.1zm49.2 15h-31.3v-49.2h31.3v6.7h-23.9v14.4h20.3v6.6h-20.3v14.8h23.9v6.7zm44.7 0h-7.4v-42.5h-13.6l-.7 21.3c-.2 7.4-1.5 12.8-3.9 16.2-2.4 3.4-5.9 5-10.6 5h-3.8v-6.7h1.7c2.9 0 5.1-1.1 6.6-3.3 1.5-2.2 2.3-6.2 2.5-12.2l.8-27h28.4v49.2zm48.8 0h-7.8l-3.4-9.9h-19.3l-3.4 9.9h-7.9l17.9-49.2h6l17.9 49.2zm-13.2-16.3-7.5-21.9-7.7 21.9h15.2zm50-28.9c2.9 2.8 4.4 6.4 4.4 10.8s-1.5 8-4.4 10.8c-2.9 2.8-6.7 4.2-11.3 4.2h-11.1v19.4h-7.4v-49.2h18.6c4.5-.1 8.3 1.3 11.2 4zm-5.4 16.8c1.6-1.5 2.4-3.5 2.4-6s-.8-4.5-2.3-6c-1.6-1.5-3.7-2.2-6.4-2.2h-10.6v16.5h10.6c2.6 0 4.7-.8 6.3-2.3zm50.7-20.9-17.5 41.2c-2.3 5.4-5.7 8-10.3 8h-5.1v-6.7h3.5c2.7 0 4.6-1.3 5.7-3.9l1.7-4-15.9-34.6h7.8l11.7 26.4 10.5-26.4h7.9zm36.2 43.9c-2.3 2.1-4.4 3.6-6.3 4.4-2.2.9-4.6 1.4-7.2 1.4-5.3 0-9.6-1.8-13-5.3-1.1-1.2-2.1-2.4-2.8-3.8-.7-1.4-1.2-3.1-1.4-5.1-.2-2-.4-3.6-.5-4.8 0-1.2-.1-3.2-.1-6 0-.2-.1-.6-.1-1 0-.5 0-.8.1-1 0-4.8.3-8.5.9-11 .6-2.5 1.9-4.8 3.8-6.7 3.5-3.5 7.8-5.3 12.9-5.3 2.7 0 5.1.5 7.3 1.4 1.9.8 4 2.3 6.3 4.4l-4.9 5c-1.5-1.5-2.9-2.6-4.2-3.2-1.3-.6-2.7-.9-4.5-.9-3 0-5.4 1-7.3 3-.9 1-1.5 2.3-2 3.9-.5 1.7-.7 3.2-.8 4.6-.1 1.4-.1 3.5-.1 6.1v2.2c0 4.2.2 7.3.6 9.2a9.9 9.9 0 0 0 2.3 4.7c1.8 2 4.3 3 7.3 3 1.7 0 3.3-.3 4.5-.9 1.2-.6 2.7-1.7 4.2-3.2l5 4.9zm46.1 5.4h-7.4v-35.8l-21.9 35.8h-6.7v-49.2h7.4v35.7l21.8-35.7h6.8v49.2zm-365.9-65.6s-11.7-3.4-37.5-25c4.2-32.4 14.5-46 14.5-46s-15.2 9.8-48 14.1c-24.9-27.1-27.6-41.9-27.6-41.9.1.3-5.1 14.7-30.8 42.4-30.6-4-41.9-14-41.9-14s9.1 11.8 13.5 41.8c-27.1 24.2-40.5 28.8-40.5 28.8s14.3 4.2 41.6 29.1c-3.7 33.1-14 47.7-14 47.7s13.9-9.3 47-13.6c20.5 24.3 25.3 37.5 25.2 37.8 0 0 4.7-13.8 25.6-38.8 33 3.4 50.6 14.4 50.6 14.4s-11.7-16.1-15.6-50.6c24.3-21.7 37.9-26.2 37.9-26.2zm-34.1-59.4s-5.2 8.6-8.2 30.3c-2.2-1.9-4.5-3.9-6.9-6.1 1.8-8.9 3.7-12.7 3.7-12.7s-4 1.9-13 3.9c-2.4-2.3-4.6-4.5-6.7-6.7 21.9-3.4 31.1-8.8 31.1-8.7zm-94.7 14.7s.3.4.5.7c-.7.4-1.5 1-2.5 1.7-2 1.5-4.6 3.5-7.4 6l2.8-2.8c1.2-1.2 2.2-2.3 3.3-3.4.9-1 1.9-2 2.8-3l.5.8zm78.7 72.9h-32.3l-14.7-20.8 10.3-.2 27-.3 5.3 7 2.4 3.2 5.7 7.7 2.4 3.3h-6.1zm-105.6-32.2v-.1c1.4-4.8 3.4-9.2 5.6-13.1 2-3.6 4.3-6.8 6.6-9.6.9-1.2 1.8-2.2 2.8-3.2-.9 1.6-1.8 3.2-2.5 4.8-2.5 5.5-4 11.1-4.8 16.1-.4 2.6-.7 5-.8 7.1h-.4c-2 0-4.2 0-6.4-.1h-.6c.2-.6.4-1.2.5-1.8v-.1zm38.3-44.5s.3-.1.4-.2c.3.2.6.5.9.9l.8.8.1.1.2.2c.7.7 1.5 1.6 2.5 2.5a82.3 82.3 0 0 0 20.7 14c-.3.5-.5 1.1-.6 1.6-.1.4-.3.8-.3 1.2-.2 0-.3 0-.4-.1-2.2-.5-4.8-1.4-7.5-2.4-5.5-2.3-11.7-5.5-16.6-8.6-.2-.1-.3-.2-.5-.3-1.2-.8-2.3-1.6-3.4-2.3-.9-.7-1.8-1.4-2.6-2 0 0-.1-.1-.2-.1-.2-.2-.4-.4-.6-.5l-.3-.3-.8-.8-.1-.1c.3-.2.6-.3.9-.4.4-.2.7-.4 1.1-.5 1.9-1 4-1.8 6.3-2.6v-.1zm7.8.5 1.7-.3c1.8-.3 3.6-.5 5.5-.6 1.2.2 2.2.4 3.4.7 5.5 1.1 10.4 2.7 14.8 5.1 1.2.7 2.4 1.4 3.5 2.2 6.3 4.2 11.3 9.9 15 17.1.7 1.5 1.5 2.9 2.1 4.5 2.5 6.1 3.6 12.1 4.2 16.7l-68 .5c21.3-5.1 33.5-15.9 37.7-20.3.8.5 1.7.8 2.7.8 3 0 5.6-2.5 5.6-5.6 0-3-2.5-5.6-5.6-5.6-1 0-1.9.3-2.7.8-5.8-2.7-10.3-5.5-13.8-8-3.1-2.3-5.5-4.4-7.2-6.1-.4-.4-.9-.8-1.3-1.3.6-.3 1.4-.4 2.4-.6zm50.6 52.3-27.9.3-54.2.5h-5.2c0-.9-.1-2.6 0-4.6h5.1l82-.6c.2 1.8.2 3.3.2 4.3v.1zm-31.1-31.6c0-.7.3-1.3.6-1.7.3-.4.6-.7 1.1-.9.4-.2.8-.3 1.3-.3.3 0 .6.1.9.2 1.2.4 2 1.5 2 2.8 0 1.7-1.3 2.9-2.9 2.9-.2 0-.4-.1-.6-.1h-.3l-1.2-.6-.2-.2c-.1-.1-.2-.2-.2-.3-.3-.4-.4-.8-.5-1.3 0-.1-.1-.2-.1-.3l.1-.2zm-1.8 2.7.2.2c-4.7 4.9-20.6 19-49.5 21.7-1.6.2-3.3.3-4.9.3.2-2.7.6-5.9 1.3-9.4.5-2.7 1.3-5.5 2.3-8.4 1.8-5 4.4-10 8.2-14.4 2.4-2.8 5.2-5.1 8.3-7.1 0 0 .1 0 .1-.1l.1.1c1.8 1.6 4.2 3.3 6.9 5.1 8.1 5.5 19.5 11 27 12zm-69-34.8s7.2 5.3 26.2 8.6c-1.9 2-4 4-6.1 6.2-6.1-1.7-8.7-3.4-8.7-3.4s1.5 2.6 3.3 8.7c-2 2-4.1 3.9-6 5.7-3.5-18.8-8.7-25.7-8.7-25.8zm.8 125.6s5.9-9.4 9.1-31.6c2 1.9 4.2 4 6.4 6.3-2.4 10.1-5.2 14.3-5.2 14.3s4.5-2.2 14.9-4.4c2.4 2.5 4.6 4.9 6.6 7.2-22.8 3.2-31.9 8.2-31.8 8.2zm61.6 24.1s-2.9-10.6-16.3-27.8c-1.4-1.7-2.8-3.5-4.4-5.4-2.1-2.5-4.4-5-6.8-7.7-3.2-3.4-6.7-7-10.7-10.7-2.2-2-4.3-3.9-6.3-5.8-2.5-2.2-4.8-4.3-7-6.2-2.1-1.8-4.1-3.5-6-5-20.4-16.8-31.8-21.5-31.8-21.5s11.6-3.4 31.2-19.4c1.9-1.5 3.8-3.2 5.8-5 2.2-1.9 4.4-3.9 6.7-6.1.5-.5.9-.9 1.5-1.4-.5.5-.9 1.1-1.4 1.6a70.24 70.24 0 0 0-11.9 19.2 75.6 75.6 0 0 0-2.9 8.8c-4.5 2.5-7 3.3-7 3.3s3.7 1.3 10.4 5.4c1.9 1.2 4 2.6 6.4 4.3 2.4 1.7 4.9 3.6 7.8 5.8 4.3 3.4 9.1 7.5 14.3 12.5 7.1 6.7 12.6 13 16.6 18.5 2.3 3 4.1 5.9 5.6 8.4 1.3 2.1 2.3 3.9 3 5.6 2.3 4.7 2.9 7.4 2.9 7.4s.7-2.7 3-7.5c.8-1.7 1.8-3.6 3.1-5.8 1.5-2.6 3.4-5.4 5.6-8.6 3.5-4.8 8-10.3 13.8-16.3h20.2a282.29 282.29 0 0 0-17.6 18c-2.4 2.6-4.5 5.1-6.5 7.6-1.5 1.9-3 3.7-4.4 5.5-13.5 17.5-17 28.2-16.9 28.3zm65.1-23.2s-11.8-6.7-35.1-9.8c1.9-2.3 4-4.6 6.3-7 12 2.6 18.4 5.9 18.4 5.9s-3.3-6-5.8-19c2.3-2.3 4.5-4.4 6.6-6.4h.2c2.9 25 9.4 36.3 9.4 36.3zm-10.3-44.6s-.5.5-.8.7l-7.9-10.7v-.1a103 103 0 0 1 8-5.4c1.9-1.2 3.7-2.1 5.2-2.9 5-2.5 7.9-3.1 7.9-3.1s-2.7-1.1-7.8-4.2a50 50 0 0 1-5.1-3.4c-2.3-1.6-4.9-3.5-7.8-5.7a158 158 0 0 1-8.8-7.4c-.1-.3-.2-.5-.3-.8-2.8-6.9-7.5-14.8-15.6-21.1-3.2-2.4-6.9-4.6-11.1-6.4-.2-.3-.5-.6-.7-.9-1.7-2.3-3.2-4.5-4.4-6.4-5-7.9-5.7-12-5.7-12s-1.2 4.5-6.3 12.5c-.7 1.2-1.6 2.4-2.5 3.7-2.4.3-4.6.8-6.8 1.4-.7-.7-1.3-1.3-1.8-1.6l-.5-.3-.5.2c-1.2.3-3.4 1.2-5.7 2.2-2 .9-4.1 1.8-5.6 2.6l-.4.2c1-1.1 1.9-2.2 2.8-3.2 1.8-2 3.5-4 5.1-5.9 18.9-22.4 22-33.3 22-33.3s1.7 11.1 19.9 32.8c1.6 1.9 3.4 4 5.4 6.1 2 2.3 4.4 4.7 6.8 7.1 1.3 1.4 2.6 2.7 4.1 4.2 4.3 4.2 8.2 7.9 12 11.3 2.6 2.3 4.9 4.3 7.3 6.2 1.7 1.4 3.4 2.7 5 4 18.3 14.2 28.4 17.1 28.4 17.1s-9.9 2.8-28.7 18.1c-1.7 1.5-3.4 2.9-5.1 4.4z" style="fill:#fff"/></svg>