<svg id="_Слой_1" data-name="Слой 1" xmlns="http://www.w3.org/2000/svg" viewBox="0 0 861.74 200"><defs><style>.cls-1{fill:#fff}</style></defs><path class="cls-1" d="M570.25 90.11v41.29h-11.09v-64c3.47 0 6.86-.11 10.23.08.79.04 1.74 1.04 2.21 1.83 2.98 4.95 5.85 9.96 8.75 14.92 5.02 8.57 10.01 17.15 15.03 25.73.06.11.34.08.84.17v-42.71c3.45 0 6.65-.15 9.78.13.58.04 1.39 1.83 1.42 2.82.11 10.02.06 20.04.06 30.08 0 9.45-.04 18.89.04 28.34 0 2.1-.58 3.01-2.81 2.87a33.03 33.03 0 0 0-6.13 0c-2.81.36-4.05-1.06-5.3-3.25-4.07-7.15-8.36-14.18-12.57-21.27-3.35-5.67-6.65-11.36-9.97-17.02l-.51-.04.02.04Zm-301.17-22.64h12.27v3.08c0 13.01.19 26-.06 39.01-.19 10.06 7.42 13.48 15.55 12.04 6.43-1.15 8.23-5.01 8.38-11.38.3-13.1.09-26.19.09-39.29v-3.31h11.69c0 15.69.19 31.23-.06 46.74-.17 9.91-8.62 17.79-18.61 17.81-4.55 0-9.14-.04-13.64-.62a17.05 17.05 0 0 1-14.37-14.16 128 128 0 0 1-1.18-15.64c-.17-11.34-.04-22.69-.04-34.28Zm242.57 23.29v-23.14h11.49v63.85h-10.31v-6.39c-2.36 1.85-4.27 3.44-6.24 4.92-6.71 4.99-16.98 1.93-21.25-4.16-5.98-8.51-6.33-17.81-3.97-27.45 2.02-8.28 7.59-13.01 15.91-14.1 4.55-.59 8.79 1.23 12.24 4.44l2.14 2-.02.02Zm.39 17.36c-.54-2.87-.75-5.82-1.67-8.56-1.07-3.18-3.43-5.6-6.93-6.05-3.69-.49-7.06.38-9.07 3.95-4.05 7.2-3.62 14.63-.06 21.67 2.55 5.05 9.76 5.41 13.42 1.68 3.6-3.65 3.92-8 4.29-12.69h.02Zm251.05-.08c-.47 10.25-4.16 18.34-13.51 22.54-11.52 5.18-27.58.45-30.99-14.26-2.08-8.98-1.29-17.62 5.15-25.01 3.09-3.57 7.12-5.58 11.67-6.52 7.12-1.49 13.53.13 19.32 4.54 4.44 3.4 6.52 8.02 7.61 13.2.41 1.93.54 3.95.75 5.48v.02Zm-10.98.34c-1.16-3.52-1.78-6.81-3.26-9.66-2.79-5.37-10.53-6.09-15.12-2.19-5.58 4.78-5.9 16.2-2.08 21.59 4.83 6.77 12.37 6.62 16.68.79 2.1-2.84 2.53-6.92 3.75-10.51l.02-.02Zm-123.26-9.22c-3.43-.64-6.69-1.23-9.97-1.83 1.11-6.18 6.26-12.48 14.47-12.53 4.55-.02 9.18-.08 13.62.68 5.66.96 8.94 5.97 9.01 12.55.04 5.12 0 10.21 0 15.33 0 3.08-.28 6.2.09 9.25.34 2.95 1.33 5.84 2.1 9.02-3.2 0-6.37.08-9.54-.08-.66-.04-1.52-.93-1.89-1.63-.49-.98-.56-2.14-.86-3.38-3.73 2.82-7.31 5.5-12.27 5.82-5.25.32-10.06-.47-13.32-4.69-3.17-4.12-3.86-8.83-1.8-13.95 2.3-5.65 7.31-7.2 12.35-8.62 4.55-1.27 9.24-2.04 13.79-2.99.58-5.48-.41-7.47-3.97-8.49-5.45-1.53-9.05.11-11.84 5.54h.02Zm16.36 9.83c-4.83 1.44-9.16 2.5-13.32 4.03a4.9 4.9 0 0 0-3 5.97c.92 2.95 4.18 5.67 6.73 5.62 3.15-.04 7.91-3.16 8.62-6.22.66-2.84.62-5.84.97-9.38v-.02Zm-201.92 2.96c.73 5.35 1.97 10.08 7.68 11.48 4.78 1.17 6.69-.19 10.25-6.22l10.57 1.91c-1.44 6.77-6.91 11.84-14.26 12.99-6.8 1.06-13.25.23-18.76-4.5-3.02-2.59-4.4-5.96-5.58-9.59-2.72-8.28-1.76-16.15 2.04-23.84 3.71-7.56 13.23-11.42 21.94-9.28 9.18 2.25 13.72 9.66 14.71 17.15.34 2.61.71 5.24 1.07 7.85.3 2.14-1.18 2.04-2.59 2.04h-27.08.02Zm.66-7.68h17.22c1.5-5.09-4.07-11.1-8.38-10.89-5.43.25-9.18 4.48-8.84 10.89Zm328.51-18.8h10.23l.32 6.88c3.47-4.9 7.83-6.96 12.93-8.05 7.7-1.63 16 4.69 16.13 12.48.17 10.47.39 20.91.58 31.37v3.29h-11.69v-29.48c0-4.31-2.47-8.02-5.62-8.51-4.63-.7-9.22 1.83-10.55 6.01a17.4 17.4 0 0 0-.75 5.03c-.09 7.79-.02 15.6-.04 23.39 0 2.48-1.3 3.72-3.9 3.74h-7.65v-46.15h.02Zm-430.31 46h-11.49v-45.98h10.34v5.6c3.26-2 6.33-4.31 9.76-5.84 6.6-2.93 17.35.23 19.04 8.6.39 1.85.92 3.71.94 5.56.09 10.59.04 21.18.04 31.97h-11.11c0-7.05.06-14.05-.02-21.06-.04-3.44-.26-6.88-.62-10.3-.34-3.23-2.79-6.09-5.3-6.62-3.56-.74-8.32 1.02-9.76 4.03a17.46 17.46 0 0 0-1.76 6.75c-.21 8.28-.09 16.58-.09 24.88v2.36l.02.04Zm478.68-12.61c3.71-.66 7.42-1.3 11.04-1.95 2.94 6.67 8.88 9.13 15.22 6.18a6.47 6.47 0 0 0 3.26-4.18c.24-1.53-1.14-3.04-3.3-3.61a166.46 166.46 0 0 1-16.85-5.18c-5.25-1.97-8.6-7.45-8.04-11.89 1.01-8.09 4.5-10.93 10.31-12.82 5.62-1.83 11.34-1.47 17-.04 4.98 1.25 8.84 5.09 10.57 10.83-3.39.72-6.75 1.47-10.12 2.19-3.99-5.58-8.02-7.13-13.83-4.9-1.42.53-3.28 2.19-3.3 3.33 0 1.17 1.82 2.95 3.19 3.42 4.85 1.63 9.82 2.91 14.8 4.18 7.27 1.83 11.69 7.17 10.85 14.16-.73 6.03-4.03 10.89-11.28 12.8-7.01 1.87-14.11 1.91-20.84-1.49-4.4-2.21-7.23-5.71-8.68-11.06v.04Zm-402.04-33.57h7.31v9.28h-7.38c0 8.55-.06 16.81.04 25.07.04 2.36 2.42 3.82 4.78 3.23 1.01-.26 1.95-.7 3.09-1.1.3 2.57.67 4.99.79 7.41.04.66-.47 1.85-.94 2-5.06 1.44-10.06 2.46-15.08-.53-2.92-1.74-3.45-4.54-3.71-7.24-.49-5.33-.54-10.7-.66-16.05-.09-4.12 0-8.24 0-12.57-1.8-.11-3.39-.19-5.12-.28v-9h5.12c0-2.67-.15-5.05.06-7.41.08-.93.73-2.1 1.48-2.63 3.17-2.19 6.5-4.14 10.21-6.47v16.32-.02Zm261.14.12h8.06v9.08h-8.04v23.33c0 4.54 1.8 5.86 6.11 4.54l1.76-.53c.3 1.76.62 3.5.9 5.22.41 2.65-.06 4.37-3.37 4.88-4.33.66-8.47.93-12.44-1.25-3.67-2.02-3.9-5.67-3.99-9.11-.19-7.6-.06-15.22-.06-22.84 0-2.73-1.34-4.13-4.03-4.18-.47 0-.94-.04-1.61-.08v-9.06h5.66c0-2.74-.13-5.31.06-7.85.06-.91.75-2.04 1.52-2.55 2.96-2.02 6.05-3.84 9.48-5.99v16.37l-.02.02Zm17.03.06h10.9v45.91h-10.9v-45.91Zm-313.7 0h10.75v46.02h-10.75v-46.02Zm313.45-7.29v-10.42h11.16v10.42h-11.16Zm-313.55-.01v-10.57h10.84v10.57h-10.84Zm-263.55 89.6c-25.22-.28-46.14-8.84-62.85-26.72-15.31-16.38-22.85-35.9-22.44-58.19.44-23.8 9.31-44.13 26.93-60.44 17.09-15.82 37.63-22.91 60.88-22.39 21.62.48 40.17 8.52 55.52 23.42 16.91 16.42 26.42 36.31 26.24 60.04-.17 24.17-8.84 44.95-26.91 61.52-16.34 14.99-35.73 22.6-57.36 22.77Zm-49.83-129.68c-2.02-1.88-3.99-3.66-5.9-5.51-1.14-1.1-2.19-2.32-3.36-3.57-.12.11-.48.38-.75.71a448.66 448.66 0 0 0-5.41 6.81c-3.68 4.74-6.51 10-8.93 15.44a71.3 71.3 0 0 0-4.63 13.92c-.62 2.89-1.12 5.8-1.58 8.72-.33 2.1-.51 4.22-.75 6.33-.1.82.29 1.06 1.08 1.05 2.76-.03 5.53 0 8.29 0h3.57c.68-16.91 6.45-31.56 18.38-43.92Zm97.8-.13c.76.79 1.71 1.71 2.58 2.68 1.68 1.87 3.38 3.72 4.96 5.66 1.57 1.93 3.06 3.93 4.49 5.96.44.62.58 1.46.86 2.19.42 1.08.82 2.16 1.25 3.22.71 1.73 1.59 3.42 2.12 5.21 1.52 5.1 2.71 10.28 3.03 15.61.07 1.14.26 2.27.39 3.36l12.47-.62c-.78-20.41-8.9-37.7-22.76-52.72-.65.75-1.18 1.4-1.76 2.01-1.92 2-3.85 4-5.8 5.97-.49.49-1.08.88-1.84 1.48Zm19.72 48.28c-.23 1.96-.36 3.85-.69 5.7-.58 3.3-1.13 6.61-1.98 9.84a59.46 59.46 0 0 1-5.11 12.73 70 70 0 0 1-9.95 14.12c-.49.55-.63.77.05 1.37 1.75 1.55 3.37 3.24 5.01 4.9 1.15 1.16 2.28 2.35 3.63 3.74 2.47-3.26 4.96-6.23 7.09-9.45a157.7 157.7 0 0 0 6.44-10.95 51.36 51.36 0 0 0 4.95-12.91c.91-3.88 1.57-7.82 2.25-11.75.44-2.58.74-5.19 1.13-7.9-4.24 1-8.54.22-12.82.56Zm-114.94 46.59c-.58.66-1.05 1.25-1.59 1.79-2.1 2.16-4.12 4.45-6.4 6.42-1.3 1.12-.29 1.53.3 1.99 2.4 1.9 4.86 3.72 7.31 5.56 4.52 3.41 9.56 5.94 14.68 8.26 2.8 1.28 5.78 2.19 8.73 3.11 2.64.82 5.35 1.48 8.05 2.08 2.28.5 4.59.89 6.91 1.21 2.11.29 4.26.41 6.23.6v-12.74a68.4 68.4 0 0 1-23.77-4.9c-7.68-3.09-14.37-7.64-20.45-13.4Zm43.77-128.74c-20.19 1.25-37.56 8.58-52.6 21.89 3.05 2.91 6.01 5.75 9.01 8.53.16.15.83 0 1.09-.21 1.81-1.49 3.53-3.11 5.39-4.54 3.8-2.91 7.84-5.5 12.31-7.29a98.42 98.42 0 0 1 10.69-3.68c2.94-.81 6.01-1.18 9.03-1.65 1.75-.28 3.53-.39 5.07-.54v-12.51Zm5.02 159.69c20.67-1.02 38.69-8.34 53.9-22.35l-9.66-8.71c.18-.31-.05-.05-.27.21-1.81 2.04-3.62 4.16-6.19 5.21-3.15 1.28-5.42 3.48-7.41 6.05-2 2.58-3.72 5.43-6.52 7.27-1.67 1.1-3.41 2.47-5.64 1.28-.74-.4-1.36-.98-2.05-1.45-1.04-.71-1.91-1.88-3.36-1.7-1.68.2-3.33.61-5.01.85-1.69.24-3.38.46-5.07.56-.86.05-1.74-.18-2.7-.29v13.06Zm44.64-130.12.4-.06a20.44 20.44 0 0 1 7.88-7.83c-1.43-1.28-2.72-2.58-4.15-3.7a83.36 83.36 0 0 0-16.5-10.35 77.3 77.3 0 0 0-12.87-4.73c-3.07-.8-6.23-1.28-9.36-1.82-1.95-.33-3.94-.5-5.91-.75l-4.32-.55v10.83l1.33-.55.71 2.66c2.22.12 4.51 0 6.7.4 3.51.66 7.02 1.47 10.4 2.57 2.35.76 4.51 2.09 6.75 3.18 2.06 1.01 4.16 1.81 6.45.82.72-.31 1.27-.26 2.07-.06a10.3 10.3 0 0 1 4.66 2.31c1.27 1.16 2.7 2.23 3.72 3.58.9 1.18 1.35 2.69 2.01 4.06h.02Zm-93.08 7.29a66 66 0 0 0-12.06 19.03 62.9 62.9 0 0 0-4.91 21.91h12.16c.09-.79.22-1.47.24-2.17.19-4.47 1.3-8.76 2.74-12.95a44.4 44.4 0 0 1 9.92-16.47c.58-.61.51-.96-.06-1.48a284.5 284.5 0 0 1-5.64-5.34c-.86-.84-1.66-1.74-2.4-2.52Zm-25.28 72.16-.12.07c-.54-.25-1.38-.37-1.58-.78a27.67 27.67 0 0 1-1.54-4.22c-.54-1.9-.03-3.7.88-5.4.71-1.32 1.72-1.59 3.04-.83.33.19.69.31 1.04.48.72-1.85 1.51-2.69 2.31-2.24.97.54 1.71 1.47 2.76 2.43a49.02 49.02 0 0 1-2.66-16.08h-12.85c.93 19.99 8.25 37.31 21.53 52.34l9.08-9.46c.03.06-.26-.15-.52-.4-1.62-1.55-2.91-3.39-5.08-4.41-.94-.44-1.46-1.75-2.04-2.5-.77 0-1.57.24-2-.05a7.94 7.94 0 0 1-2.33-2.36c-.51-.87-.63-1.62-1.9-2.08-1.53-.56-2.74-2.01-4.14-3.11l-.8 1.27-3.09-2.66Zm36.97-66.45a48.97 48.97 0 0 1 13-8.88 43.4 43.4 0 0 1 17.76-4.22c1.02 0 1.28-.36 1.23-1.29-.12-2.55-.22-5.1-.24-7.65 0-1.07.18-2.13.3-3.4-15.66 1.14-29.24 6.61-40.34 16.3l8.29 9.14Zm76.58 74.68c.32-2.14.92-2.41 2.27-1.3a4.43 4.43 0 0 1 1.33 1.96c.45 1.38.69 2.83 1.03 4.32.22-.18.49-.34.69-.57 1.32-1.53 2.77-2.97 3.89-4.64 2.2-3.24 4.49-6.47 6.2-9.96a60.55 60.55 0 0 0 4.22-11.43c1.13-4.42 1.6-9 2.35-13.55h-12.33c-.06.74-.1 1.62-.24 2.49-.14.86-.41 1.71-.56 2.57-.22 1.24.31 2.23.99 3.24.37.56.34 1.43.32 2.15 0 .13-.92.23-1.42.31-.24.04-.49 0-.76 0-2.3 7.86-5.92 14.94-11.78 20.98l3.81 3.41Zm-7.99-80.61c.34 1.25.56 2.5 1.02 3.66.46 1.2.97 2.48 1.79 3.45.57.68 1.33 1.1 1.18 2.16-.03.2.3.52.54.66 1.55.89 2.93 1.85 2.91 3.92 0 .77.54 1.15 1.35.93.38-.11.74-.37 1.13-.4.46-.04 1.22-.06 1.35.18.22.37.07.99-.02 1.48-.07.4-.28.76-.41 1.1l1.85.14-.63 1.4c-.02.04-.06.05-.08.09-.6.85-.35 1.31.72 1.48.45.07 1.15.26 1.25.56.5 1.55 1.23 3.09.76 4.79-.29 1.04-.8 2.03.02 3.11.22.28.04.94-.1 1.38a24.72 24.72 0 0 1-2.91 6.12c-.69 1.07-1.57 1.46-2.74 1.28v3.32l4.8.3c-1.52-2.22-1.29-4.21-.3-6.23 1.63-3.3 2.81-5.03 3.54-5.2-.03.54-.05 1.04-.09 1.54-.09 1.15-.51 2.39-.2 3.42.53 1.8.9 3.58.8 5.43-.04.77.33.98 1.04.97 1.85-.03 3.71.04 5.56-.02 1.91-.05 3.81-.22 5.94-.33-.41-2.74-.67-5.42-1.22-8.04a60.1 60.1 0 0 0-4.3-13.54c-.37-.78-.62-.99-1.42-.69-1.16.44-2.14.29-2.7-1.02-1.42-3.34-4.59-4.79-7.5-6.31a6.27 6.27 0 0 1-2.49-2.34c-.36-.56-1.13-.87-1.75-1.24-.58-.34-1.25-.53-1.81-.9-1.42-.94-1.26-2.52-1.44-3.91a5.34 5.34 0 0 0-1.45-3.33c-.68-.66-1.42-1.04-2.36-.29-.54.44-1.23.7-1.64.93Zm-36.49 94.13c-10.86.65-19.96-3.66-28.54-9.67.25.58.6 1.05.96 1.49.65.81.6 1.41-.36 1.74-1.13.39-2.33.56-3.5.83-1.17.27-2.53.25-3.46.88-1.92 1.29-3.48.7-5.13-.34-.39-.25-.84-.4-1.27-.6l-.13.31c11.94 10.14 25.52 16.48 41.42 17.19v-11.83Zm4.34-114.02v1.55c0 3.43 0 6.86.06 10.29 0 .3.5.78.82.83 2.8.39 5.64.61 8.44 1.02 4.27.64 8.22 2.21 12.03 4.14 1.86.94 3.63 2.08 5.69 3.28-.72-1.1-.83-2-.72-3.11.09-.87-1.54-1.49-1.22-3.22 1.01.93 1.89 1.61 2.59 2.43.99 1.16 1.76 2.56 3.65 2.35-.05-.21-.11-.48-.2-.73-.48-1.36-1.32-2.61-.78-4.2.13-.39-.36-1-.61-1.48-.43-.84-1.03-1.63-1.29-2.52-.59-2.05-1.67-3.76-3.69-4.48a141.08 141.08 0 0 0-12.94-4.15c-3.81-.96-7.78-1.34-11.82-2Zm20.76 36.93 8.79-8.53a50.1 50.1 0 0 0-9.47-6.12 51.7 51.7 0 0 0-19.92-5.57c.11 1.9.28 3.76.29 5.64.02 1.7-.14 3.4-.23 5.08-.04.69-.04 1.29.88 1.41 1.16.14 2.33.28 3.48.5a34.47 34.47 0 0 1 16.16 7.57Zm-25.19-20.16c-10.97.66-20.29 5.37-28.68 11.92l8.77 8.45c1.44-1.1 2.76-2.23 4.2-3.18a27.7 27.7 0 0 1 14.5-4.85c.85-.04 1.31-.33 1.18-1.24-.1-.67-.24-1.36-.24-2.03.06-3.02.17-6.05.26-9.06Zm-8.71 55.01c.45-.71.73-1.18 1.03-1.62.22-.31.44-.81.74-.87 1.42-.32 1.67-1.31 1.75-2.52.03-.38.41-.96.73-1.03 1.06-.23 2.16-.3 3.25-.4 2.59-.24 3.7 1.57 2.45 4.02-.34.66-.87 1.29-.99 1.99-.31 1.89-1.42 2.98-3.36 3.03-.7.02-1.4 0-2.11 0l-.04.36a12.78 12.78 0 0 0 7.47 2.56c2.24.08 2.63-.28 3.19-2.43.62-2.36 1.04-2.7 3.49-2.7.41 0 .83.06 1.23-.03.38-.08.99-.27 1.03-.5.26-1.42 1.54-2.79.21-4.34-.29-.34-.14-1.02-.32-1.49-.39-1.06-.68-2.24-1.34-3.12-.93-1.22-1.13-1.47-.08-2.65.56-.63.46-1.1.15-1.73-.28-.58-.5-1.2-.83-2.03-.49-.44-1.24-1.08-1.96-1.76-.83-.78-1.58-1.82-2.84-1.67-1.73.22-2.65-.91-3.67-1.88-.27-.26-.33-.93-.23-1.34.05-.23.63-.39 1-.49.33-.09.68-.05 1.03-.07v-.23h-2.84l.5 2.06c.34 1.47.03 2.17-1.37 2.9-.82.43-1.7.76-2.5 1.22-.5.29-.93.69-1.36 1.09-.44.4-.82.85-1.24 1.26-.29.27-.72.44-.92.76-1.15 1.8-1.04 3.85-1.28 5.92l1.46-.51 1.12 1.96c-.47 1.04-1.11 2.07-1.38 3.19-.27 1.1-.85 1.54-2 1.57l.78 1.48.03.04Zm-25.72 25.13 10.6-10.86c-.35-.46-.68-.92-1.03-1.35a34.94 34.94 0 0 1-6.51-13.23c-.29-1.09-.61-1.73-1.62-1.91-.23 1-.36 1.99-.72 2.91-.15.38-1.03.88-1.11.81-.62-.55-1.13-1.21-1.67-1.85.47-.2.94-.4 1.42-.58l.42.16c-.16-1.14-.35-2.28-.48-3.43-.03-.21.12-.58.24-.61.26-.05.72-.04.83.13 1.06 1.49 2.11.83 3.09.14 0-.49-.02-.9 0-1.29.07-1.33.24-2.66.23-3.99-.02-2.22-1.69-3.38-3.81-2.68-.68.22-1.29.65-1.11 1.5.21.96.5 1.91.75 2.87.42 1.61.34 1.64-1.29 1.72-.42.02-1.16.54-1.14.79.1 1.32-.66 1.9-1.71 2.33-.59.23-1.19.44-1.91.7l.37 1.38c.15.61.3 1.23.47 1.84.13.45.19.97.47 1.31 1.56 1.9 2.89 3.86 2.75 6.47-.02.27.02.58.15.82 1.01 1.84 1.08 3.84 1.08 5.86 0 1.06.35 1.93.93 2.87.7 1.15 1 2.58 1.23 3.93.07.44-.5 1.17-.97 1.49-1.24.85-1.28.79.02 1.74h.02Zm-4.85-35.84-.33-2.04c-.3-1.93.5-3.62 1.21-5.32.71-1.7 1.62-3.11 3.81-3.13.75 0 1.36-.46 1.18-1.45-.12-.65.08-.99.89-1.26 1.02-.34 1.89-1.16 2.79-1.81.92-.67 1.8-1.41 2.69-2.11.73-.57 1.49-1.1 2.19-1.7.72-.62 1.37-1.3 1.95-1.86l-8.98-8.54c-7.61 8.35-11.33 18.24-12.33 29.23h4.94Zm33.13 36.05c-5.53-1.47-10.5-3.84-14.28-7.91l-8.3 8.41c6.53 5.19 13.99 9.46 22.79 11-1.89-1.18-2.78-3.09-3.87-4.85-.52-.83-.45-1.44.2-2.16.44-.48.7-1.13 1.03-1.72.3-.52.5-1.13.89-1.57.44-.49 1.06-.83 1.57-1.21Zm-3.19-19.71c-2.25 2.45-4.5 4.9-6.73 7.36-.28.31-.48.7-.72 1.04 3.71 3.31 11.82 6.81 15.02 6.58 0-.64-.03-1.28 0-1.92.07-1.51.6-2 2.06-2.14.45-.04.9-.27 1.45-.44-.29-.43-.54-.7-.67-1.02-.24-.6-.59-1.23-.58-1.84.02-1.08.28-2.16.44-3.26-4.34-.14-8.97-2.15-10.29-4.37h.02Zm37.25 7.24v.47c.37.04.75.12 1.12.09 1.42-.12 2.4-.73 2.87-2.2.36-1.15 1.51-.99 2.5-1.04.93-.05 1.14.66 1.25 1.21.24 1.25.93 2.54-.07 3.79-.14.17-.17.44-.24.66-.44 1.69-.82 3.4-1.35 5.06-.41 1.26-1.63 1.71-2.94 1.28-1.23-.39-2.43-.85-3.68-1.11-2.31-.48-4.66-.85-6.92-1.26-.54 1.34.38 1.43.97 1.58 2.18.57 4.44.87 6.26 2.35.14.11.38.15.57.14 1.81-.16 3.64-.3 5.44-.57.35-.05.7-.66.89-1.07.41-.86.67-1.79 1.09-2.64.15-.31.59-.69.87-.68.27 0 .62.47.75.8.26.63.41 1.31.66 2.16 4.17-5.22 8.06-10.31 9.46-17.14l-3.34.62c-.74.13-1.68.56-2.21.27-1.33-.74-2.07-.49-2.85.74-.64 1-1.29.86-1.9-.2a1.43 1.43 0 0 0-.24-.31c-.77 1.18-1.48 2.32-2.27 3.41-.17.24-.64.45-.93.4-1.2-.21-1.9.52-2.42 1.32-.8 1.19-1.62 2.21-3.34 1.87Zm18.8-33.88c-.36.45-.87.94-1.21 1.54-.34.6-.55 1.29-.74 1.97-.09.34-.14.81.04 1.06.14.2.68.25.98.16 1.55-.47 2.81-2.69 2.41-4.27-.34-1.31-.7-2.62-1.21-3.87a5.71 5.71 0 0 0-1.48-2.16c-1.33-1.1-2.8-2-4.26-3.01.15-.31.23-.66.44-.87 1.35-1.33.79-2.69-.06-3.88-1.47-2.05-3.09-3.98-4.69-6.03l-9.93 10.35c.92.1 1.79.19 2.67.31 1.12.15 2.26.57 3.35.46 2.56-.26 4.42.4 5.77 2.74.6 1.04 1.43 1.74.25 2.84l.97.85c.44-.29.79-.55 1.16-.78 1.2-.73 2.7-.58 3.44.28.62.73 1.28 1.42 2.09 2.31Zm-41.8-17.4v2.67c0 1.43-.02 2.86 0 4.28.02 1.33 2.15 2.86 3.43 2.48.15-.05.28-.15.4-.25l3.78-3.25c1.71 1.73 1.29 3.98-.49 5.47-1.3 1.1-2.74 2.02-4.22 3.1.32 0 .63.09.74-.02 1.17-1.1 2.12-.47 3.1.3.38.3.79.55 1.21.8.91.56 1.82.14 2.05-.59.61-1.85 2.21-2.43 3.61-3.35.93-.61 1.73-1.38 2.6-2.08l-2.13-1 2.6-2.39a44.71 44.71 0 0 0-16.7-6.15h.02Zm-22.82 8.69c.63.2 1.13.32 1.6.51.52.21 1.05.41 1.52.71 1.43.91 1.42.92.24 2.5.54 0 1.06.14 1.21-.03.73-.84 1.31-.92 2.09-.04.25.3.91.26 1.39.34.27.04.62-.1.83.03 1.75 1.02 3.71-.77 3.84-2.64.06-1.01.44-2.06 1.64-2.51.14.76-.25 1.76 1.02 1.63.91-.09 1.81-.24 2.41-.32v-8.74c-6.93 1.19-13.04 3.32-17.8 8.56Zm-42.97 23.56 2.77 16.83a5.8 5.8 0 0 0 1.41-2.28c.3-1.11.19-2.35.57-3.41.58-1.65.76-3.67 2.98-4.28.29-.08.5-.46.75-.7.62-.59 1.14-1.39 1.88-1.72.65-.29 1.54-.06 2.2-.06v-4.38h-12.55Zm60.4 28.13c.89 1.06 1.6 1.37 2.89.66 1.69-.93 3.4-.59 5.16-.67.15 1.41 1.08 1.68 2.24 1.72.59.02 1.32.04 1.73.37.82.63 1.17.23 1.53-.4.25-.44.44-.93.64-1.39a9.24 9.24 0 0 0 5.54-2.95c.6-.67.92-1.64 1.18-2.52.06-.21-.75-.96-.93-.9-.64.26-1.28.67-1.71 1.2-.56.69-1.09.88-1.89.48-.3-.15-.64-.2-.97-.3l.21.38c-.48.45-1 1.28-1.44 1.25-.7-.05-1.36-.69-2.04-1.08l.1.33c-.47.24-1.18.8-1.36.66-.8-.59-1.62-1.07-2.49-1.55-.89-.49-1.4-.33-2.05.04-.67.38-1.37.77-1.91 1.3-.61.59-.93 1.5-1.6 1.99-.83.6-1.87.92-2.83 1.37v.02Zm5.16 32.37 9.63-1.37.03-.33c-.88-.46-1.81-.86-2.62-1.4a6.29 6.29 0 0 1-1.52-1.48c-.9-1.24-.72-2.59-.08-3.87.52-1.06-.02-1.49-.95-1.63-1.56-.22-3.13-.35-4.47-.49v10.57Zm32.32-25.4.6-.65c-.34.21-.7.39-1.02.62-1.27.93-1.38 2.2-.17 3.23.92.77 1.98 1.37 2.97 2.05 1.23.84 1.32 2.02.35 3.12-.65.75-1.25 1.57-1.71 2.45-.19.37 0 .95.08 1.43.1.65.25 1.28.42 2.06l7.64-6.41c-1.9.32-2.68-.22-2.94-1.46-.16-.79-.41-1.73-.96-2.23-1.66-1.5-3.49-2.82-5.26-4.21Zm-57.73-17.98c1.41-1.41 2.6-2.55 3.71-3.76.24-.26.31-.83.23-1.2-.2-.96-.52-1.9-.82-2.85-.09-.3-.3-.55-.45-.83-.09.04-.18.07-.26.12l.24 1.86c-1.6-.79-3.11-1.4-3.05-3.18-.72-.26-1.64-.31-1.83-.7-.74-1.53-1.99-1.2-3.64-1.2l5.87 11.76Zm69.24-9.59 1.29-8.01h-7.23c1.63 2.59 3.27 5.52 5.95 8.01Zm-65.65-6.14c1.88-.4 3.58-.77 5.28-1.1.89-.17 1.85-.43 2.44.69.11 0 .22 0 .33-.02l.52-2.03c-.44.41-.83 1-1.03.94-.44-.12-.93-.5-1.14-.91-.35-.68-.51-1.46-.71-2.09-.52.06-.96.27-1.27.13-1.41-.6-2.23-.31-2.83 1.08-.43.98-.92 1.92-1.58 3.31Zm-27.32-1.67c.77 2.75 1.68 5.4 1.28 8.31 1.86-2.02 1.89-2.19.74-3.51l1.04-4.24-3.06-.56Zm64.92 11.16c-.7.83-.67 1.62.27 2.43.59.51 1.03 1.19 1.59 1.74.2.19.57.28.86.28.16 0 .49-.34.46-.44-.23-.75-.37-1.61-.85-2.17-.6-.71-1.49-1.19-2.33-1.82Zm-1.79 7.12-.27-.36c-1.7-.14-3.15.98-2.96 2.18.56-.26 1.16-.49 1.71-.81.53-.3 1.02-.67 1.52-1.02Zm7.31-38.16.76-2.79c-2.11 1.24-2.21 1.63-.76 2.79Zm-40.9 31.05 2.64-2.08c-.46-.67-.9-.82-1.37.14-.3.59-.73 1.13-1.27 1.95Zm49.75 98.33-4.3 3.63c-2.29-2.03-4.61-3.92-6.73-6.01a92.44 92.44 0 0 0-15.2-12.03c-1.55-.99-3.23-1.78-4.87-2.63-.16-.08-.44-.05-.62.03a57.1 57.1 0 0 0-13.96 8.54c-3.69 3.09-6.93 6.72-10.35 10.13-.82.82-1.53 1.74-2.34 2.66l-4.77-3.92c7.66-7.91 16.68-13.9 26.75-18.95-.84-.27-1.41-.57-1.98-.61-3.58-.31-7.11-.02-10.2 1.98-3.85 2.49-7.47 5.33-11.39 7.71a54.03 54.03 0 0 1-8.78 4.2c-4.66 1.79-9.61 1.99-14.57 1.75a26.52 26.52 0 0 1-12.32-3.57c-2.73-1.61-5.22-3.62-7.81-5.45a4.16 4.16 0 0 1-1.1-1.07c2.14.84 4.25 1.81 6.44 2.51a24.86 24.86 0 0 0 11.59.73 86.19 86.19 0 0 0 10.49-2.25c3.34-.99 6.52-2.51 9.79-3.75 3.6-1.37 6.87-3.54 10.71-4.29 1.86-.37 3.72-.75 5.61-.93 2.16-.21 4.34-.28 6.5-.25 3.69.04 7.33.58 10.89 1.63a2.7 2.7 0 0 0 1.59-.06c4.96-1.78 10.12-2.22 15.29-1.78 6.46.56 12.66 2.35 18.63 4.84 3.57 1.49 7.04 3.21 10.68 4.48 2.44.85 5.09 1.22 7.68 1.6 1.9.27 3.84.26 5.75.27 4.76.03 9.05-1.51 13.09-3.87.47-.28.96-.53 1.5-.71a35.06 35.06 0 0 1-7.31 6.44 30.34 30.34 0 0 1-10 4.41 35.3 35.3 0 0 1-12.97.45 33.45 33.45 0 0 1-11.51-3.85c-3.02-1.68-5.86-3.68-8.83-5.45-3.1-1.85-6.16-3.84-9.46-5.29-1.56-.69-3.61-.35-5.44-.36-.83 0-1.66.28-2.85.49 9.86 5.19 18.86 11.09 26.68 18.62Zm-91.43-27.69c-1.14-.26-2.29-.57-3.44-.78-4.44-.84-8.88-1.62-13.32-2.46-6.03-1.16-11.79-3.01-16.8-6.66a48.38 48.38 0 0 1-5.2-4.38c-2.25-2.2-4.55-4.41-6.44-6.91-2.57-3.38-4.73-7.03-5.84-11.2-.22-.84-.54-1.64-.67-2.5l3.43 4.62c1.74 2.34 4.02 4.1 6.4 5.73 4.36 2.99 9.11 5.23 13.87 7.51a70.46 70.46 0 0 1 14.92 9.3c1.24 1.03 2.75 1.75 4.14 2.61l.26-.29c-.56-.52-1.09-1.1-1.71-1.55-2.6-1.91-4.49-4.41-6.14-7.11a30.2 30.2 0 0 1-3.81-9.49c-.85-4.02-1.68-8.03-2.46-12.06-.7-3.59-1.23-7.22-2.82-10.63.69.78 1.4 1.55 2.06 2.36.69.84 1.33 1.71 1.98 2.58 4.27 5.78 7.21 12.23 9.66 18.92 1.49 4.03 2.75 8.17 4.54 12.07 1.22 2.65 3.13 5 4.85 7.4.73 1.01 1.77 1.79 2.67 2.67l-.13.25Zm119.1-.84c1.5-1.86 3.12-3.66 4.49-5.64 3-4.36 4.69-9.32 6.47-14.24 1.71-4.73 3.29-9.53 5.51-14.01 1.72-3.48 4.34-6.52 6.58-9.74.55-.8 1.21-1.54 2.01-2.19-.34 1.01-.75 1.99-.98 3.03-.79 3.62-1.52 7.26-2.25 10.89-1.13 5.58-1.83 11.27-4.52 16.43a23.6 23.6 0 0 1-7.82 8.9c-.2.13-.39.28-.57.44-.08.07-.13.2-.18.3.94.33.96.36 2.53-.94a88.6 88.6 0 0 1 16.06-10.47c3.01-1.55 6.13-2.89 9.08-4.54a53.92 53.92 0 0 0 6.51-4.36 30.34 30.34 0 0 0 6.83-7.2c.48-.73.93-1.47 1.39-2.21l.3.11c-.54 1.69-1 3.41-1.65 5.06-1.84 4.64-4.66 8.65-8.03 12.35a50.82 50.82 0 0 1-14.15 10.84c-4.4 2.31-9.09 3.53-13.98 4.36-4.44.75-8.8 1.89-13.2 2.85-.15.04-.32 0-.42 0Z"/><path class="cls-1" d="M210.16 137.93c.33-.31.75-.56.96-.93a54.14 54.14 0 0 1 7.8-10.69c2.59-2.81 5.26-5.54 7.74-8.44 3-3.52 5.93-7.11 8.68-10.83a15.73 15.73 0 0 0 2.75-6.97c.04-.25.19-.48.39-.7 0 3.42.15 6.79-.54 10.21a36.76 36.76 0 0 1-6.43 14.44 54.79 54.79 0 0 1-13.09 13.09 599.62 599.62 0 0 1-11.98 8.12c-1.5.99-3.11 1.79-4.52 2.59.87-2.16 2.06-4.44 2.69-6.86a88.3 88.3 0 0 0 2.01-10.57c.51-3.86.63-7.79 1.05-11.66.49-4.42.97-8.85 1.77-13.22.54-2.93 1.62-5.77 2.46-8.64l.44.09c0 1.07-.09 2.16.02 3.22.31 2.99.67 5.97 1.07 8.96.35 2.58.83 5.14 1.12 7.72.21 1.84.19 3.72.27 5.58a21.9 21.9 0 0 1-4.76 14.88c-.07.09-.12.21-.17.31l.26.35Zm-62.2 35.57c2.59-.81 5.09-1.64 7.62-2.38 3.1-.92 5.91-2.4 8.28-4.55 3.77-3.42 7.36-7.02 11.12-10.44 3.4-3.1 6.91-6.08 10.4-9.09.57-.49 1.25-.88 2.1-1.46-2.55 4.75-4.88 9.3-7.4 13.75-2.47 4.37-5.56 8.27-10.12 10.67-1.77.93-3.87 1.26-5.83 1.83-.6.18-1.23.26-1.83.39l.05.4c1.43-.11 2.89-.13 4.31-.34 2.96-.42 5.88-1.04 8.85-1.4 3.03-.37 6.09-.47 9.12-.77 5.51-.55 11.04-1.01 16.33-2.8a27.22 27.22 0 0 0 10.7-6.4c.1-.1.23-.18.53-.13-1 1.42-1.91 2.91-3 4.25a36.82 36.82 0 0 1-12.69 10.1 39.31 39.31 0 0 1-15.01 3.87c-5.18.29-10.16-.47-15.14-1.66-4.93-1.19-9.86-2.38-14.79-3.49-1.14-.26-2.34-.23-3.59-.35Zm-147.93-71.12a29.76 29.76 0 0 0 6.79 11.9c3.26 3.54 6.63 6.97 10.07 10.33a48.83 48.83 0 0 1 8.39 11.03c.76 1.34 1.55 2.7 3.19 3.4-.81-1.49-1.64-2.87-2.31-4.31a25.76 25.76 0 0 1-2.54-9.06c-.1-1.4-.47-2.79-.44-4.19.04-1.8.23-3.62.56-5.39.8-4.23 1.8-8.43 2.56-12.66.25-1.38.04-2.85.32-4.35.65 2.12 1.46 4.21 1.92 6.38.72 3.36 1.25 6.76 1.73 10.16.3 2.07.33 4.18.54 6.26.3 2.92.71 5.82.96 8.74a52.43 52.43 0 0 0 2.99 13.54c.6 1.63 1.39 3.2 2.17 4.99-2.47-1.56-4.81-3-7.1-4.51-4.27-2.81-8.55-5.6-12.73-8.53a49.53 49.53 0 0 1-8.78-8.16 31.55 31.55 0 0 1-6.3-10.97 41.11 41.11 0 0 1-1.61-7.11c-.34-2.48-.29-5.01-.41-7.52h.03Zm26.7 59.71a25.81 25.81 0 0 0 9.77 5.81 51.9 51.9 0 0 0 7.7 1.92c3.77.54 7.6.7 11.42 1.03 3.68.32 7.38.57 11.05 1.02 2.35.29 4.66.93 7 1.33.84.14 1.72.03 2.64-.27-1.68-.58-3.33-1.26-5.04-1.73-2.75-.76-5.05-2.25-7.22-4.01-3.67-2.96-5.67-6.99-7.61-11.12-1.52-3.23-3.34-6.32-5.02-9.46 1.5 1.09 3.23 2.12 4.69 3.45 4.61 4.19 9.08 8.51 13.67 12.72 3.27 3.01 6.7 5.86 10.63 7.99 3 1.63 6.24 2.74 9.57 3.05-2.95.63-6.03 1.23-9.07 1.93-4.11.94-8.22 1.95-12.31 2.96a44.67 44.67 0 0 1-13.96 1.15c-3.67-.27-7.16-1.46-10.57-2.82-4.95-1.97-9.05-5.16-12.76-8.84-1.79-1.77-3.21-3.89-4.8-5.85l.24-.27Z"/><path class="cls-1" d="M210.41 70.05c2.03 6.22 6.02 11.35 9.27 16.89 2.99 5.12 4.7 10.59 4.04 16.57-.17 1.54-.67 3.03-1.01 4.55-.12.54-.18 1.1-.14 1.69a7.55 7.55 0 0 0 1.89-4.32c.73-5.92 2.53-11.5 4.91-16.95 1.62-3.69 3.16-7.42 4.47-11.23a28.08 28.08 0 0 0 1.46-11.91l.33-.05c.47 1.53 1.13 3.02 1.38 4.57.55 3.6 1.26 7.24 1.26 10.86 0 6.15-1.16 12.16-3.7 17.86a44.6 44.6 0 0 1-8.2 12.12c-1.98 2.15-3.57 4.64-5.32 7-.59.79-1.16 1.6-1.74 2.41 0-1.79-.02-3.49 0-5.19.05-4.95-1.13-9.67-2.6-14.35a348.83 348.83 0 0 1-4.72-15.79c-.61-2.31-.61-4.77-.86-7.17l-.73-7.2.03-.37v.02Zm-191 51.43c-1.77-2.24-3.46-4.42-5.2-6.57-1.8-2.23-3.66-4.41-5.45-6.63-3.11-3.84-5.61-8.03-6.76-12.85a72.1 72.1 0 0 1-1.57-8.84 47 47 0 0 1-.24-8.38c.28-4.05.91-8.08 2.7-11.85-.09.72-.32 1.46-.25 2.16.28 2.75.34 5.58 1.09 8.21a93.74 93.74 0 0 0 4.11 10.95c2.19 5.06 4.54 10.04 5.57 15.51.31 1.61.46 3.25.84 4.83.27 1.1.83 2.15 1.26 3.22l.36-.13c-.23-1.38-.57-2.76-.66-4.15a97.13 97.13 0 0 1-.24-7.44c.06-4.08 1.7-7.7 3.64-11.18 1.56-2.79 3.35-5.46 4.86-8.28 1.43-2.65 2.64-5.42 3.91-8.07-.09 1.58-.16 3.34-.3 5.1-.14 1.72-.25 3.46-.53 5.16-.44 2.76-.88 5.53-1.56 8.24-1.07 4.25-2.38 8.44-3.52 12.66-.83 3.07-1.81 6.14-2.23 9.28a24.2 24.2 0 0 0 .13 8.27c.05.23 0 .48 0 .81h.03Z"/><path class="cls-1" d="M13.67 91.05c-.73-2.47-1.4-4.92-2.16-7.36-.74-2.35-1.47-4.72-2.34-7.02a71.15 71.15 0 0 1-3.36-11.82c-1.25-6.67.06-13.02 2.78-19.08 1.37-3.05 3.24-5.87 4.9-8.79.15-.26.38-.49.58-.75-.48 1.72-1.14 3.37-1.36 5.06-.27 2.13-.22 4.31-.22 6.47 0 1.46.11 2.91.26 4.36.24 2.19.53 4.37.83 6.56.57 4.16 1.13 8.31.2 12.5-.23 1.02-.21 2.08-.29 3.13-.09 1.09-.19 2.17-.24 3.25-.02.48.08.95.14 1.43l.41.02c.31-1.34.82-2.66.89-4.01.2-3.93 2.07-7.14 4.53-9.98 2.45-2.84 5.15-5.49 7.88-8.07a48.68 48.68 0 0 0 7.31-8.33l.39.13c-.75 2.66-1.35 5.37-2.28 7.97-1.91 5.35-5.33 9.87-8.52 14.52-2.27 3.3-4.56 6.59-6.62 10.03a30.22 30.22 0 0 0-3.71 9.78v.03Zm211.23-1.54c-.45-1.45-.86-2.76-1.29-4.07a31.5 31.5 0 0 0-4.55-8.64c-3.25-4.53-6.68-8.94-9.85-13.53-2.81-4.1-4.48-8.72-5.53-13.56-.15-.66-.33-1.3-.59-2.32.79 1.03 1.28 1.86 1.95 2.52 4.13 4.05 8.32 8.03 12.43 12.11a21.46 21.46 0 0 1 5.14 8.06c.56 1.56.74 3.26 1.11 4.9.15.72.32 1.44.51 2.25 0-2.87-.02-5.6 0-8.33.03-3.12-.64-6.21-.06-9.35.39-2.13.36-4.33.54-6.5.15-1.72.42-3.44.47-5.17.14-4.56-.32-9.04-2.47-13.21l.31-.18c1.08 1.54 2.22 3.04 3.24 4.62 2.43 3.81 4.01 8 5.23 12.3a25.97 25.97 0 0 1 1.11 9.06 44.96 44.96 0 0 1-2.35 10.84c-1.75 5.2-3.35 10.46-4.97 15.7-.24.75-.25 1.57-.39 2.49v.02Z"/><path class="cls-1" d="M192.71 26.62c.94 1.24 1.69 2.27 2.48 3.26 2.87 3.57 6.8 5.86 10.41 8.54 2.2 1.63 4.47 3.21 6.47 5.07a17.4 17.4 0 0 1 4.83 7.12c.06.2.24.36.37.54l.4-.16c-.84-2.34-1.75-4.64-2.5-7.02-.93-2.92-1.8-5.87-2.54-8.83-1.08-4.32-1.85-8.76-4.36-12.57-.97-1.47-2.25-2.75-3.33-4.32 1.58.83 3.27 1.52 4.73 2.52 3.92 2.7 7 6.16 8.98 10.53a22.92 22.92 0 0 1 2.11 7.94c.15 2.3.28 4.62.24 6.93-.07 3.64-.35 7.28-.44 10.91-.04 1.3.23 2.61.33 3.74-1.14-1.47-2.3-3.19-3.68-4.71-3.25-3.54-7.21-6.25-11.03-9.12-4.17-3.13-8.08-6.5-10.64-11.14-1.33-2.42-1.83-5.08-2.46-7.71l-.35-1.52Zm-171.09 22.99c1.04-1.36 1.91-2.92 3.17-4.03 2.71-2.42 5.62-4.61 8.45-6.89 2.49-2 5.1-3.86 7.41-6.05 1.49-1.4 2.53-3.26 4.01-4.9-.49 1.81-.85 3.67-1.48 5.43-1.96 5.55-5.68 9.91-10.01 13.76-2.13 1.9-4.63 3.38-6.79 5.24a71.79 71.79 0 0 0-5.91 5.79c-1.26 1.37-2.28 2.98-3.26 4.29 0-2.76.06-5.72-.02-8.69-.11-4.05-.3-8.09-.48-12.14-.22-4.73 1.35-8.89 4.04-12.69a24.55 24.55 0 0 1 9.79-8.29c.18-.08.35-.2.54-.27l1.3-.48c-1.24 1.53-2.77 3.11-3.96 4.91-1.91 2.89-2.85 6.21-3.55 9.57-.93 4.46-1.81 8.91-2.77 13.36-.15.7-.52 1.35-.79 2.02.1.02.2.04.3.04Z"/><path class="cls-1" d="M181.48 7.14c2.77 1.14 5.6 2.15 8.28 3.47a57.42 57.42 0 0 1 7.43 4.34c3.58 2.48 6.48 5.61 7.99 9.77 1.45 3.99 2.85 8 4.05 12.18l-1.25-.91c-.46-.32-.98-.57-1.38-.95-3.51-3.29-7.22-6.4-10.44-9.94-3.26-3.59-5.99-7.64-8.99-11.45-.8-1.02-1.72-1.94-2.64-2.87-1.08-1.1-2.21-2.17-3.31-3.25l.27-.39Zm-126.33 1.52c-1.05 1.1-2.21 2.13-3.16 3.32-2.24 2.78-4.46 5.6-6.55 8.49-2.57 3.57-4.93 7.29-8.24 10.25-2.05 1.83-4.24 3.5-6.36 5.25l-3.44 2.87c1.02-3.08 1.91-5.83 2.84-8.57 1.21-3.53 2.64-6.95 5.01-9.91a27.31 27.31 0 0 1 6.13-5.51c3.53-2.36 9.87-4.89 13.77-6.2Zm67.72 4.54c2.4.37 4.25-.98 6.25-1.88 2.54-1.13 4.89-.36 7.11.89.93.53.83 1.29-.08 1.9-1.52 1.02-3.25 1.04-5 1.07-1.47.02-2.95.04-4.39.29-1.41.23-3.63-.87-3.88-2.27Zm38.29 10.91c-.02.67-.68 1.08-1.24.68-.51-.36-.9-.89-1.37-1.3-.4-.35-.89-.61-1.25-1-.26-.29-.37-.71-.55-1.07.35-.06.69-.15 1.04-.19.24-.02.48.04.73.05 1.95.06 2.7.86 2.64 2.82Z"/></svg>