<svg xmlns="http://www.w3.org/2000/svg" viewBox="0 0 1167.9 200" style="enable-background:new 0 0 1167.9 200" xml:space="preserve"><path d="M133.8 95.8c3.4 1.2 6.7 2 9.7 3.4 14 5.9 23.6 16 26.7 31 3.3 15.6 1.8 30.9-7.2 44.8-6.9 10.6-16.9 17-29 20.5-8.5 2.5-17.1 4-26 4.1-25.7.2-51.4.4-77.1.5-6.3 0-12.2-1.7-17.5-5.3-7.3-4.9-11.5-11.8-12.8-20.4-.4-2.3-.5-4.7-.5-7.1 0-45.9-.1-91.9 0-137.8.1-14.1 11-26.8 25.5-28.7 2.6-.3 5.2-.5 7.9-.5 21.8 0 43.7-.2 65.5 0 11.1.1 22.1 1.5 32.7 5.2 15.9 5.6 25.8 16.6 29.7 32.8 2.2 9.4 2.6 18.9 0 28.2a40.91 40.91 0 0 1-19.9 25.4c-2.4 1.6-5 2.6-7.7 3.9zm-82 64.9h3.1c10.7 0 21.5.2 32.2-.1 6.3-.2 12.6-.9 18.7-2.2 6.4-1.4 11.1-5.3 13-11.9 1.2-4 1.5-8 1.2-12.3-.6-6.9-5-14.2-12.4-16.7-6.4-2.2-13-2.7-19.6-2.9-11.3-.4-22.5-.1-33.8-.1-.8 0-1.5.1-2.4.1v46.1zm0-80.8c.7 0 1 .1 1.3.1 12.3-.2 24.6-.2 36.9-.6 4-.2 8-1.3 11.9-2.5 4-1.2 6.1-4.4 7.9-8.1 2-4.1 1.6-8.2 1.4-12.4-.3-5.8-2.9-10.5-8.1-13.4-4.9-2.7-10.3-3.1-15.7-3.3-11-.3-22-.1-33-.1-.9 0-1.7.1-2.6.1v40.2zm190.1 6.3v2.8c0 27.3 0 54.5.1 81.8 0 2.2-.7 3.3-2.6 4.3-10.3 5.1-20.6 10.3-30.8 15.5-5.9 3-11.7 6.1-17.8 9.3v-3.1c0-55.7-.1-111.5.1-167.2 0-11.3 5.7-20 15.7-25.3 10.4-5.7 21.4-5.4 32.1-.9 5.7 2.4 9.9 6.7 12.9 12.2 6.7 12.2 13.4 24.4 20 36.5l21.9 39.9c1.7 3.1 3.4 6.2 5.3 9.6 2.3-4.2 4.6-8.1 6.7-12 6.7-12.3 13.3-24.6 19.9-36.9 5.8-10.8 11.7-21.5 17.5-32.3 3-5.6 6.2-11.1 11.7-14.8 12.3-8.3 32.2-7 42.6 4.4 4.4 4.8 7.5 10.4 7.6 17 .3 21.2.4 42.4.5 63.6 0 .7-.6 1.9-1.3 2.2-16.5 8.3-33.1 16.5-49.6 24.8-.1.1-.3 0-.8 0v-30.6c-.2 0-.4-.1-.6-.1-1 1.8-2.1 3.6-3.1 5.5-5.9 10.9-11.9 21.8-17.7 32.7-1.7 3.2-4.1 5.4-7.3 7-9.6 4.7-19 9.5-28.5 14.3-4.7 2.4-9.5 4.8-14.1 7.3-1.7.9-2.5.7-3.5-1.1-7.1-13.2-14.2-26.4-21.4-39.6-4.9-9-9.9-17.9-14.8-26.9-.3.1-.5.1-.7.1zm163 29.2v7.3c0 11.1-.1 22.3 0 33.4.1 6.5-2 12.4-4.8 18.1-4 8.2-10.2 14.5-18.1 19.1-6.3 3.7-13.2 6.1-20.7 6.1-27.4.1-54.8 0-82.3 0h-43.4c56.3-27.8 112.7-55.9 169.3-84zm107.8 76.4c-.5.5-.6.7-.8.7-6.4.6-9.6-2.3-9.6-8.7v-33.8c-3.2 5.9-6.8 12.4-10.3 18.9-1.3 2.4-2.5 4.9-4 7.3-2.3 3.7-8.5 3.4-10.7-.5-4.9-8.6-9.7-17.2-14.6-25.9v42.2c-.6.3-.9.6-1.1.6-6.1.3-9.2-2.7-9.2-8.9 0-15.9-.1-31.9.1-47.8 0-2 1.5-5.7 2.6-5.8 3.3-.4 7.1-1.8 9.6 3 5.6 10.9 11.8 21.4 18 32.5 6.3-11 12.3-21.5 18.3-32.1 1.8-3.2 7.3-5.2 10.3-3.4.7.5 1.4 1.7 1.4 2.7v59zm313.1-43.5v44c.1 0-.3.3-.7.3-11.1.3-8.9.3-9-8.4-.1-16.1-.1-32.2.1-48.3 0-2 .7-5.1 2-5.8 3.7-1.9 8.1-.1 10.1 3.3 2 3.5 3.8 7 5.7 10.5 3.9 6.9 7.8 13.8 12.1 21.6 4.3-7.4 8.2-14.1 12-20.8 2.1-3.6 3.8-7.4 6.1-10.8 1.1-1.6 2.9-3.6 4.6-3.9 6.7-1.3 7.6-.3 7.6 6.5v49.7c0 4.4-2.2 6.6-6.7 6.6h-2.8v-45.6c-.1.1-.6.6-.8 1.1-5 9.3-9.8 18.7-14.9 27.9-2.1 3.7-8.4 3.8-10.4.2-5.4-9.7-10.4-19.4-15-28.1zm-331.6-95.2c10.6 6.4 10.8 16.8 7.3 24-3 6.2-8.7 8.6-15 8.9-9.2.5-18.4 0-27.6.2-3.2.1-4.1-1.5-4.2-4.1v-54.6c0-2.8 1.3-4 4.3-3.9 8.9.2 17.8 0 26.7.1 7.4 0 15.3 5.7 15 15-.2 5.8-.7 11-6.5 14.4zm-27.9 6v16.8h16.5c5.7 0 9.1-3.1 9.2-8.3.1-4.7-3.5-8.3-8.9-8.5-5.5-.1-10.9 0-16.8 0zm-.4-9.3c5.6 0 10.6.2 15.6 0 5.1-.2 8-3.1 8.5-7.8.5-4.4-1.6-7.1-6.9-7.9-4.7-.7-9.5-.9-14.3-.8-1 0-2.7 1.9-2.8 3.1-.3 4.1 0 8.5-.1 13.4zm281.1 36.3v-62.5c7.8 0 15.7-.1 23.6 0 3.4 0 6.9-.2 10.1.8 12.3 3.6 15.8 17.9 6.9 27.1-.5.6-1 1.1-.8.9 2.7 4.4 6.2 8 7.3 12.3.9 3.7-.3 8.2-1.6 12-2 6.4-8 8.8-13.6 9.2-10.6.8-21.2.2-31.9.2zm10.2-10.2h18.1c4.6 0 7.4-2.7 7.9-7.2.5-4.1-2.9-9.2-6.9-9.5-6.3-.3-12.6-.1-19.1-.1v16.8zm9.4-25.7c3.2-.4 6.4-.6 9.5-1.4 3.9-1 5.5-4.5 4.9-7.8-.4-2.6-2.7-5.9-5-6.8-3.7-1.3-8-1.1-12.1-1.2-7-.1-7.1 0-7 7.1.2 11.2-1.4 9.5 9.7 10.1zm391.4-10.4c-9.3 14.4-18.4 28.6-27.6 42.8-2.1 3.3-7.6 5.2-10.9 3.4-1.2-.6-2-3-2-4.6-.1-17.7-.1-35.4-.1-53.1 0-3.1.9-5 4.6-4.7 2 .2 4 0 6 0v46.1c2.9-4.8 5.8-10.1 9.1-15.2 6-9.4 12.1-18.6 18.1-27.9 1.7-2.6 9-4.4 11.4-2.6.8.6 1.2 2.1 1.2 3.2.1 18.2 0 36.3.1 54.5 0 5.1-3.4 4.3-6.7 4.5-3.4.2-4.7-.9-4.7-4.5.2-10.6 0-21.1.1-31.7.2-3.4.9-6.8 1.4-10.2zm-102.4-15.9h9.9v45.4c3.9-6.5 7.2-12.2 10.8-17.7 5.5-8.6 11.2-17 16.9-25.5 1.5-2.2 9.1-3.7 11-2 .8.7 1.1 2.2 1.1 3.3.1 18.3 0 36.7.1 55 0 4.3-2.7 3.8-5.4 3.7-2.5-.1-6 1.3-6-3.5.3-14 .5-28 .7-41.8-1.5 2.5-3.3 5.5-5.2 8.5-7.4 11.5-15.1 22.9-22.3 34.5-2.7 4.3-6.4 1.8-9.6 2-.5 0-1.8-3.4-1.9-5.3-.1-17.4-.1-34.8-.1-52.2v-4.4zm-98.9 150.7c5.6-8.5 10.6-16.3 15.7-24 4-6.2 8.2-12.2 12.1-18.5 2.6-4.2 6.4-1.7 9.7-2 .5 0 1.7 3.2 1.7 5 .1 17.7.1 35.4.1 53v4.3h-9.9v-45.4c-8.2 12.8-16.4 25.6-24.8 38.3-5.1 7.7-5.2 7.6-15 7.1-.1-1.3-.3-2.6-.3-4 0-17.8.1-35.7-.1-53.5 0-4.1 1.2-5.4 5.3-5.4 4.3 0 6.3 1 6.1 5.7-.5 11.4-.7 22.7-1 34.1.1 1.5.3 3 .4 5.3zm-66.7 18.1c-.5-8.9-1.3-17.1-1.3-25.3 0-11.3.6-22.7.8-34.1 0-2.6 1.1-3.6 3.7-3.6 11.9.1 23.9.1 35.8 0 4.1 0 3.9 2.6 3.9 5.3 0 2.8-.3 5.2-4.2 5.1-9.4-.2-18.8-.1-28.5-.1v14.1c5.2 0 10.4-.2 15.5.1 6.5.4 12.9 1.4 17.4 7.1 5.1 6.6 4.9 14.2 2.3 21.1-2.4 6.5-8.1 10.3-15.7 10.2-9.9.1-19.7.1-29.7.1zm10.1-9.4c5.6 0 10.9.3 16.1-.1 6.3-.5 9.1-3.8 9.1-9.4 0-5.3-2.9-8.8-8.3-9.2-5.6-.3-11.1-.1-16.9-.1v18.8zm-378.2 9.4c4.2-8.7 8.2-16.8 12.2-25-10.7-8-13.5-18.3-8-29.1 3.4-6.6 9.6-8.4 16.1-8.8 8.3-.5 16.6 0 24.9-.1 2.7 0 4 .7 4 3.7-.1 19.5 0 39 0 58.4-.5.4-.7.7-.9.7-6.3.5-9.4-2.4-9.4-8.5v-14.7c-4.3 0-8.7-.8-12.5.3-2.6.8-4.7 4.1-6.3 6.7-2.2 3.8-4 7.9-5.5 12.1-1.3 3.6-3.5 4.7-7 4.3-2.2-.2-4.4 0-7.6 0zm28.2-33.8c2 0 4.1-.2 6.1.1 3.3.5 4.4-1.2 4.5-4 .1-3.9.3-7.8-.1-11.7-.1-1.2-2.1-2.9-3.4-3-4.5-.4-9.1-.3-13.6-.1-6.2.2-8.4 2.9-8.3 10.1 0 4.9 3.6 8.5 8.8 8.6 2 .1 4 0 6 0zm89.9 3c0-5.1-.7-10.4.2-15.4 1.8-10.5 9.3-16.4 19.2-17.4 5.6-.6 11.6-.2 17 1.3 8.3 2.3 13.4 9 14 17.2.7 10.5.6 21.2-1.1 31.5-1.7 10.4-9.9 14-20.9 15.3-4.9.6-10.2-.5-15-1.8-7.8-2.1-13.4-10.4-13.5-18.5v-12.2h.1zm11.2-.2c0 3.1.3 6.3-.1 9.4-.8 6.7 3.3 11.2 9.5 12.7 8.1 2 19.8-.8 18.9-13.6-.5-6.7-.1-13.4-.1-20.2 0-3.8-1.2-7.3-4.9-8.6-3.8-1.3-8-2-12-2.2-6.8-.3-11.3 4.4-11.3 11.2-.1 3.8 0 7.5 0 11.3zm84.8-106.9c-.5 5.7-.4 11.4-1.5 17-1.8 8.8-8.4 13.6-16.6 15-5.6.9-11.8.4-17.4-.8-8.1-1.7-13.9-7.1-14.6-15.5-.8-10.4-.6-20.9 0-31.3.6-8.9 6.8-13.5 14.9-15.9 8.4-2.4 16.6-1.9 24.4 2.2 6.9 3.6 9.7 9.8 10.3 17.2.3 4 .1 8.1.1 12.1h.4zm-11.7.3v-8.8c0-8.9-2.2-11.8-10.6-13.9-10-2.5-17.4 3.3-17.4 13.5 0 6.5-.1 13 0 19.6 0 1.6.4 3.3.9 4.9 1.8 5.7 7.1 6.2 11.8 7.3 7.5 1.7 15.3-4.6 15.4-12.2-.1-3.6-.1-7-.1-10.4zm81.8 107.2c-.5 5-.4 10.7-1.8 16-3.7 14-16.8 17.4-29.1 16-9.4-1.1-17.8-5.2-19.5-15.5-1.5-9.4-1.2-19-1.2-28.6 0-3.7 1.1-7.6 2.7-11 2.9-6.2 8.9-9.2 15.2-10 8.4-1.1 17-1.3 24.6 4.2 4.3 3.1 6.8 7.2 7.6 12.1.9 5.3 1 10.8 1.5 16.8zm-11.7-.8h-.3c0-4.5 1.2-9.5-.3-13.5-2.3-6.6-4.4-9.5-16.7-8.8-5.4.3-10.1 2.9-10.9 8.2-1 7.5-.9 15.1-1.1 22.7-.2 8.1 3.6 13 11.4 14.1 9.7 1.3 18.5-2.4 17.8-14.7-.1-2.7.1-5.4.1-8zm-231.3-106.4c-.9 6.2-1.2 12.5-2.8 18.5-2 7.8-10.3 13.4-18.4 13.5-6.9 0-13.9.8-20.3-2.9-6.1-3.6-9.7-8.8-9.9-15.9-.2-8.1.4-16.2-.1-24.2-.6-8.8 5.4-18 15.3-20.6 6.6-1.7 13-2 19.4-.2 11.4 3.3 14.9 11.4 15.9 22.5.3 3.1 0 6.2 0 9.3h.9zm-12-.2c.1-3-.2-5.9.1-8.8.6-6.7-2.5-12.3-11-13.8-8.3-1.5-18.8 1.9-18.1 14.1.3 5.1 0 10.2 0 15.4 0 10 3.4 14.1 13.2 15.9 6.7 1.2 14.7-3.8 15.6-10.3.6-4.1.1-8.3.2-12.5zm468.5 137.6h-10.2c-.1-1.3-.3-2.7-.3-4 0-17.8.1-35.7-.1-53.5 0-4.2 1.3-5.2 5.4-5.3 4.4-.1 5.3 1.6 5.2 5.5-.3 6.7-.1 13.4-.1 20.5h27.3c0-6.9.2-13.9-.1-20.8-.1-3.8.9-5.3 5-5.2 3.9.1 6.5.3 6.5 5.3-.2 17.4-.2 34.7 0 52.1.1 4.7-1.5 6.2-5.9 5.7-1.7-.2-3.4 0-5.4 0v-25.9h-27.4l.1 25.6zm-387.1-168.6c11.7-.5 11.3-1.5 11.2 9.5v14.9c0 .3.1.6.6 2.3 2.1-1.4 4.2-2.2 5.4-3.7 5.2-6.4 10.1-13 15.1-19.6 3.1-4.1 9.4-5.2 15.3-2.5-6.9 8.8-13.6 17.5-20.2 26 10.8 9.5 14.5 22.7 21.2 34.2-8.1 3-11.8 1.7-15.1-4.9-2.1-4.1-4.5-8-6.2-12.3-2.9-7.2-5.7-9.7-16.1-8.5v20.3c0 5.9-4.5 8.8-9.6 6.2-.8-.4-1.5-2-1.5-3-.1-19.5 0-39-.1-58.9zm366.9 0c7.5-.6 11.2 2.5 11.2 9.2v18c2.7-1.8 4.7-2.6 5.8-4 5.3-6.5 10.3-13.3 15.4-19.9 3-3.9 8.3-4.8 15.3-2.5-6.9 8.9-13.7 17.6-20.3 26.1 10.8 9.2 14.3 22.6 21.2 33.9-6.6 3.4-12 1.7-15-4.3-2.1-4.2-4.7-8.3-6.4-12.7-2.8-7.4-6.5-9.7-16.1-8.4v20.3c0 5.8-4.5 8.8-9.7 6.1-.8-.4-1.5-2-1.5-3 .1-19.4.1-38.9.1-58.8zm-380.2.1v61.6c-.3.3-.5.5-.6.5-6.3.6-9.5-2.3-9.5-8.7 0-13.4-.1-26.7.1-40.1 0-3.4-1-3.9-4.2-3.6-5 .5-10.1.1-15.5.1 0 6.2.5 11.9-.1 17.6-.8 7.5-1.9 15.1-3.8 22.4-1.6 6-6.2 10-11.9 12.8-2.8 1.4-4.4.3-5.3-2.4-.8-2.3-4.3-5-.2-6.9 8.3-4 9.6-11.6 9.9-19.1.5-11.2.1-22.5.1-34.1l41-.1zm132.2 168.7c-4.5 0-7.5.3-10.3-.1-1.5-.2-3.3-1.6-4.1-3-2.6-4.5-4.8-9.3-7.2-13.9-4.8-9.4-5.7-9.9-17.2-8.9v25.2c-.8.4-1 .7-1.3.7-9.3.4-9.2.4-9.2-9 .1-14.8 0-29.7 0-44.6 0-.8-.1-1.6 0-2.3.3-2.1-.1-5.5 1-6 2.1-1.1 5.1-.9 7.6-.6.7.1 1.6 2.4 1.6 3.8.2 7.3.1 14.6.1 21.8 3.4.8 5.4.4 7.4-2.6 4.5-6.7 9.9-12.9 14.6-19.6 3.9-5.5 9.3-3.5 16.1-3.7-7.6 10-14.5 19-21.3 27.8 11.3 9.3 14.4 22.9 22.2 35zm53.6-106.6v-62.2h9.9v21.2c5.7 0 11-.3 16.2.1 10.6.8 17.9 3.8 19.9 14.1 2.7 13.7-1.7 26.6-20.1 26.8-8.5.1-17.1 0-25.9 0zm10.1-10.2h14.7c5.7 0 9.7-3.2 10.4-8.2.8-5.9-2.3-11.3-8-12-5.6-.7-11.3-.1-17.1-.1v20.3zm249.5 116.3c2.4-6.3 4.6-12.6 7-18.8 5.2-13.2 10.6-26.4 15.5-39.7 1.2-3.3 2.9-4 5.8-3.9 2.9.1 5.6-.8 7.2 3.7 6.8 18.9 14.3 37.7 21.6 56.5.3.7.3 1.5.5 2.8-3.4 0-6.5.2-9.5-.1-1-.1-2.3-1.3-2.8-2.3-1.6-3.8-2.8-7.7-4.3-11.6-7.6 0-14.9-.1-22.3.1-1.2 0-2.5 1.3-3.4 2.2-.7.7-.8 2-1.1 3-3.2 9.6-3.5 9.8-14.2 8.1zm28.8-49.9c-2.8 8.5-5.9 17.9-9.1 27.5h18.2c-3.2-9.8-6.3-19.1-9.1-27.5zm-169.8-75.7c.9.2 1.4.2 1.7.4 2.6 1.3 7.4 3.4 7.3 3.9-1.3 3.9-2.7 8.3-5.6 11.1-7.9 7.7-32.3 7.9-38.7-2.5-1.9-3.2-4.6-6.7-4.7-10.1-.4-10.2-.2-20.4.7-30.5.8-9.1 7.6-13.6 15.7-15.8 8.2-2.1 16.7-1.9 23.9 2.9 3.7 2.5 6.2 6.8 8.7 10.7.4.6-1.6 3.8-3.1 4.4-2.3.9-5.1 3.1-7.3-1.2-4.9-9.3-18.1-10.9-25-3.3-1.5 1.7-2.5 4.3-2.6 6.5-.3 7.3-.1 14.6-.1 21.9 0 8.3 8.2 14.3 16.4 12.6 6.6-1.3 10.7-5 12.7-11zm28.1-12v10.3c0 8.3 8.2 14.6 16.4 12.6 5.4-1.3 10.2-3.1 11.9-9.3.2-.6 1.8-1.1 2.7-1 1.3.1 2.6.9 3.9 1.2 3.8.7 4.1 2.7 2.8 6-2.9 7-8.1 11.3-15.3 12.1-5.9.7-12.1.5-17.9-.5-10.6-1.9-15.8-11.6-15.7-21.3.2-8.6.1-17.3.9-25.9.9-9.1 7.5-13.7 15.6-15.8 8.7-2.3 17.6-1.8 25.1 3.6 3.3 2.4 5.5 6.7 7.7 10.4.3.6-1.9 3.6-3.5 4.2-2 .8-4.9 3.1-6.6-.9-3.4-7.9-12.3-9.8-20-7.3-5.4 1.8-8 5.3-8 10.9v10.7zm-328.4 94.9c-.5-.7-1-1.3-1.3-2-3.7-9.8-15.2-10.4-22.9-6.8-4 1.9-5.6 5.1-5.6 9.3 0 7.7-.6 15.5.1 23.1.8 10.4 11.3 12.4 19 10.6 4-1 6.9-3.2 8.5-7.1 2.5-6 6.3-1.3 9.2-.7 3.5.7 2 3.5 1.1 5.6-5 11.8-18.1 14.1-28.6 12.7-7-.9-13.6-3.4-17.1-10.2-1.6-3.2-2.9-6.8-3.1-10.3-.5-7.2.2-14.4-.2-21.6-.6-11.8 5.7-21.2 18.8-23 7.4-1.1 15.5-1.6 22 3.4 3.6 2.8 6.2 7 8.8 10.9.4.6-1.3 3.2-2.5 4-1.8 1.2-4 1.4-6.2 2.1zm513.1 43.2v-52.6c-5.1 0-10-.1-14.8 0-4 .1-4.1-2.4-4.1-5.1 0-2.7-.1-5.3 4-5.3 13.3.1 26.7.2 40 0 4.6-.1 3.9 2.7 4.1 5.6.2 3.1-.4 5.1-4.3 4.9-4.3-.3-8.7-.1-13.7-.1v15.6c0 10.3-.2 20.7.1 31 .2 4.7-1.2 6.7-6 6-1.5-.2-3.1 0-5.3 0zm-264.6-106.8c-6.7.5-10-2.4-10-8.8v-53.2h10v62zm286.8-79c-2.1 7.9-9.4 12.9-16.7 12.1-8.4-.9-13.8-5.3-14.2-11.5 1.4-.6 2.7-1.5 4.1-1.6 1.3-.1 3.3.2 4 1.1 4.9 6 8.7 6.1 13.7 0 3.3-4 5.9.6 9.1-.1z" style="fill:#fff"/></svg>