<svg xmlns="http://www.w3.org/2000/svg" viewBox="0 0 877.1 200" style="enable-background:new 0 0 877.1 200" xml:space="preserve"><path d="M281.9 75.4c-1.3-.1-1.7.6-1.9 1.6-1.1 4.7-2.1 9.5-3.2 14.2l-4.2 18.3c-.1.4-.3.8-.6.8s-.5-.4-.5-.8c-.1-.8-.3-1.5-.5-2.2-2.6-10.2-5.3-20.5-7.9-30.7-.2-1-.7-1.1-1.4-1.1-2.2 0-4.4.1-6.7 0-.9 0-1 .4-1.2 1.1l-3 11.1c-2 7.7-4 15.3-6.1 23.2-.9-1.3-1-2.8-1.3-4.1-2.1-10.1-4.4-20.1-6.6-30.2-.2-1-.6-1.1-1.3-1.1h-10.7v1.1c1.5 5.3 3.1 10.6 4.6 16 2 7.1 3.9 14.2 5.9 21.3 1 3.4 2 6.8 2.9 10.3.2.8.4 1 1.1.9 3.3 0 6.5-.1 9.8 0 1.2.1 1.2-.8 1.4-1.4 1.8-6.5 3.6-13.1 5.3-19.6l2.1-7.8c.1-.4.2-1 .5-1 .4 0 .5.5.6 1 1.6 6 3.2 12.1 4.9 18.1 1 3.6 1.6 7.3 3.1 10.7v.3h11.2v-.3l4.2-14.8c2.5-8.7 4.9-17.5 7.3-26.3.8-2.8 1.4-5.6 2.2-8.5-3.4-.1-6.7 0-10-.1zm507.6 18.5c-.8-4.6-2.3-8.8-5.5-12.3-3.8-4.3-8.8-5.9-14.1-6.6-.8-.5-1.6-.5-2.5 0-.8.1-1.7.3-2.5.4-5.7.8-10.4 3.5-13.6 8.6-2.7 4.1-3.8 8.7-3.9 13.7-.5 1.8-.5 3.6 0 5.5.2 1.3.1 2.6.4 3.9 1.2 7.5 4.8 13.2 11.5 16.6 1.5.8 3.2 1 4.7 1.7h9.1c.1-.4.4-.3.7-.4 4-.7 7.5-2.6 10.1-5.7 4.1-4.7 5.9-10.5 6-16.8.5-1.4.6-2.7 0-4.1 0-1.6-.2-3-.4-4.5zm-13.3 18.6c-1.6 2.1-3.7 3-6 3.6a3.6 3.6 0 0 0-3.2 0c-5.3-.8-7.6-4.8-8.7-9.6-.9-4.5-.9-9.2.3-13.7 1-3.8 2.9-6.9 6.7-7.9 3.9-1.1 7.6-.4 10.5 2.9 1.8 2 2.6 4.5 3 7.2.2 1.1.3 2.2.4 3.4v4.1c-.3 3.5-.7 7-3 10zm-440.9-20.3c-.9-4-2.5-7.7-5.2-10.7-3.8-4.2-8.7-5.8-14-6.4-.8-.5-1.6-.5-2.5 0-.8.2-1.7.3-2.5.4-4.4.4-8.1 2.3-11.3 5.5-3.1 3.1-4.9 7.1-5.8 11.4-.4 1.8-.9 3.7-.5 5.7-.7 1.6-.2 3.2-.3 4.8.2 1.7.4 3.4.7 5.1 1.1 5.8 3.7 10.7 8.5 14.1 2.2 1.6 4.8 2.4 7.3 3.4h9.5c.1-.3.3-.3.5-.4 3.3-.6 6.2-2.1 8.8-4.4 5.3-4.7 7.1-10.9 7.6-17.8.5-1.6.5-3.2 0-4.8-.3-2.1-.4-4-.8-5.9zm-10.7 15.9c-1.4 4.4-4 7.3-8.5 8.1-1.1-.6-2.4-.2-3.5-.3-3.5-.4-5.5-2.9-6.9-5.9-1-2.2-1.6-4.7-1.5-7.2v-4.8c0-2.9.6-5.7 2-8.3 2-3.9 6.6-5.6 10.5-4.9 6.1 1.1 8.1 6.6 8.6 11 .1.8.3 1.5.4 2.2v4.8c-.6 1.7-.5 3.5-1.1 5.3zm374.2-8.6c0-1.1-.7-.8-1.2-.8h-18.7c-.6.2-.4.7-.4 1.1v5.8c0 1.1.3 1.5 1.4 1.5h9.1c.3 3-.7 5.6-3.1 7.4-2.9 2.2-7.3 2.2-10.5 0-4.2-3-5.3-7.6-5.5-12.5.4-1.2.5-2.5 0-3.7-.4-1 .1-2 .3-3 .7-4.4 2.3-8.2 6.6-10.1 3.3-1.5 8.8-.5 10.6 3.1.8 1.5 1.2 3.2 1.5 4.8.2.8.6 1 1.1.8 1.8-.6 3.6-.5 5.3-1 3.2-.8 3.3-.7 2.7-4-.8-4.4-3.2-7.9-6.5-10.6-2.9-2.2-6.4-2.9-9.9-3.4-.8-.5-1.6-.5-2.5 0-3.5.1-6.9.9-9.9 2.7-7 4.2-9.5 11.2-10 19.2v6.9c.2 1.6.3 3.3.6 4.9 1.2 5.6 3.9 10.1 8.4 13.5 2.1 1.6 4.7 2.1 7 3.1h9.5c.6-.8 1.4-.2 2.1-.5 5.4-1.9 9.1-5.5 10.9-11.1 1.5-4.5 1-9.4 1.1-14.1zm-50.1 25.1c-2.1-2.7-4.2-5.5-6.2-8.2-3.8-5.2-7.6-10.4-11.5-15.5-.4-.5-.6-.9-.1-1.5 4.2-5.6 8.3-11.3 12.5-17 1.6-2.2 3.2-4.5 5-6.9h-11.4c-.7 0-1 .3-1.3.8-2.9 4.2-5.9 8.3-8.8 12.4-1.9 2.7-4 5.3-5.7 8.2-.6-.5-.3-1.2-.3-1.9v-17.8c0-.6.4-1.3-.4-1.8h-10.1c-.7.5-.4 1.3-.4 2v47.8h10.5v-.3c.7-.5.4-1.2.4-1.9v-18.1c0-.6-.3-1.3.3-1.9.2.4.4.8.7 1.2 4.9 6.9 9.8 13.8 14.7 20.6v.3h12.6c-.2 0-.2-.3-.5-.5zm-49.1-49.2c-2.9.2-5.7.1-8.6.1-.7.5-.4 1.3-.4 2v25.1c0 .7.3 1.5-.4 2-2.7-4.2-4.8-8.7-7.3-13.1-2.8-5-5.5-10-8.2-15-.4-.8-.9-1.1-1.7-1.1-3 .1-5.9 0-8.9 0-.7.5-.4 1.3-.4 2v47.5h.4c2.9 0 5.7 0 8.6.1 1.4.1 1.6-.4 1.6-1.7-.1-8.4 0-16.9 0-25.3v-1.6s.1-.1.2-.1h.1c1 1.7 1.8 3 2.5 4.4 4.3 7.8 8.7 15.5 13 23.3.4.6.7 1.1 1.5 1.1 3.2-.1 6.4-.1 9.6-.1v-47.8c0-1.4-.2-1.9-1.6-1.8zm-91.5 24.1c-.7-.3-1-.5-.2-1.1 2.8-1.9 3.8-4.7 3.9-8 .5-1 .5-2 0-3-.2-4.6-2-8.1-6.2-10.1-2.6-1.3-5.5-1.7-8.3-1.8-6.3-.2-12.6 0-18.8 0-.6.2-.4.7-.4 1v48.8h22.4v-.3c1.7.1 3.4-.3 5-.8 5.2-1.6 9.2-5.8 9.3-12 .5-.8.6-1.5 0-2.3 0-5-2.4-8.4-6.7-10.4zm-6.8-11v3c-.5 2.4-2 3.6-4.2 4h-8.5c0-3.6.1-7.3.1-10.9 2.2 0 4.4-.1 6.7-.1 3.3.1 5.1 1.4 5.9 4zm-3.1 27.7c-3.1.2-6.3 0-9.5 0v-12.7c3.7 0 7.4-.4 11 .6 2.3.7 3.7 2.2 4.1 4.7v2.2c-.5 3.2-2.7 4.9-5.6 5.2zm51.9-22.3c-1.9-5.5-3.9-10.9-5.7-16.4-.5-1.5-1.1-2.2-2.8-2.1-2.2.2-4.6.1-6.8 0-1.1-.1-1.6.4-2 1.3-3.4 9.8-6.8 19.7-10.2 29.5-2.2 6.3-4.4 12.5-6.6 18.7v.4h10.9v-.4c1.1-3.6 2.4-7.1 3.4-10.7.3-1.1.8-1.2 1.7-1.2 4.4 0 8.8.1 13.1 0 1.1 0 1.5.3 1.8 1.4 1.2 3.6 2.5 7.2 3.8 10.7v.3h10.5c0-.3 0-.6-.3-.8-3.6-10.2-7.2-20.4-10.8-30.7zm-11.7-4.2h.3c1.6 4.9 3.3 9.7 5 14.8h-10.2c1.6-5 3.2-9.9 4.9-14.8zm338.2-1.9c-.7-3.6-2.4-6.6-5.3-8.8-3.6-2.6-7.6-3.3-11.8-3.5-5.8-.2-11.6 0-17.5 0-.6.2-.4.7-.4 1.1v48.8h10.5v-.4c0-5.2 0-10.4.1-15.6 2.9 0 5.8-.1 8.8-.1 2 0 3.9-.5 5.8-1.1 4.8-1.5 8.1-4.8 9.6-9.9.9-3.5.9-7 .2-10.5zm-10 6.4c-.8 3.8-2.8 5.4-6.2 6-.3.1-.6.4-.9.2-2.4-.7-4.9-.1-7.3-.3v-15.5c2.3 0 4.6 0 7-.1 5.2 0 8.4 4.8 7.4 9.7zm-450.6 22c-6.2.1-12.5 0-18.7 0v-38.7c0-.7.4-1.5-.4-2-2.9 0-5.7.1-8.6-.1-1.4-.1-1.6.5-1.6 1.7v47.8h30.8c0-2.4-.1-4.7 0-7.1.3-1.3-.2-1.6-1.5-1.6zm417.2-40.7h-9.8c-.5.1-.4.5-.4.8 0 9.9 0 19.8.1 29.7-.1 1-.2 2-.4 2.9-.8 3.3-2.8 6.7-6.6 6.9h-2.1c-4.7-.2-7.2-3.8-7.3-8.6-.2-10.1-.1-20.2 0-30.4 0-1.1-.1-1.6-1.4-1.5-2.9.1-5.8.1-8.7.1-.6.4-.4 1.1-.4 1.6v28.1c0 .5-.1 1.1.3 1.5.1 1.5 0 3.1.4 4.6 1 4.1 2.5 7.8 5.9 10.5 2.1 1.7 4.6 2.5 7 3.4h9.8s.2-.3.3-.3c5-.8 8.5-3.7 10.9-8.2 1.5-2.9 1.9-6.1 2.5-9.3.5-.5.2-1.2.3-1.9v-28.9c0-.2.2-.8-.4-1zm-451.3 41.1c-.5 0-.9-.1-1.4 0-2.6.3-4.4-1-5.7-3.2-1.6-3-2.8-6.2-4.8-8.9-.6-.9.1-1 .5-1.2 3-1.9 4.9-4.6 5.9-8.1.7-2.6.6-5 .3-7.6-.6-3.6-2-6.7-5-8.9-3.5-2.5-7.6-2.9-11.6-3.2-6-.3-12-.1-18-.1-.7.5-.4 1.3-.4 2v47.5h.4c3 0 6 0 8.9.1 1 0 1.3-.3 1.3-1.3v-16.6c1.9 0 3.7-.1 5.6-.1 2.2.7 3.7 2.2 4.7 4.3.9 1.9 1.8 3.8 2.6 5.7 1.8 3.9 4.3 6.9 8.4 8.2h7.4c.1-.6.7-.2 1-.4.4-.2.4-.5.4-.9v-6.5c-.2-.3-.1-.7-.5-.8zm-16.1-21.5c-1.3 2.2-3.5 3-5.9 3.4-2.6 0-5.1-.1-7.7-.1v-13.8h7.7c5.5 0 8.7 5.6 5.9 10.5zm380.2 22.4c0-.3.1-.8-.4-.9-1.3-.2-2.6.2-3.9-.3-1.9-.7-2.9-2.3-3.7-4-1.3-2.6-2.5-5.3-4.3-7.6-.5-.6-.4-.9.2-1.4 1.3-1 2.7-1.8 3.7-3.1 2.2-2.8 2.8-6.1 3.1-9.5 0-.6.3-1.3-.3-1.9.1-1-.1-2-.4-3-.9-3.1-2.4-5.8-5.3-7.6-3.4-2.2-7.2-2.6-11-2.8-6-.3-12-.1-18-.1-.7.5-.4 1.3-.4 2v47.5h.4c3 0 6 0 8.9.1 1 0 1.3-.3 1.3-1.3v-16.6c1.9 0 3.7-.1 5.6-.1 3.8 1.2 4.8 4.6 6.3 7.8 1.7 3.9 3.4 7.8 7.5 9.6.6.3 1.5.2 2 .8h7.4c.1-.6.7-.2 1-.5.5-.2.4-.7.4-1.1-.1-1.9-.1-4-.1-6zm-22.3-19.1c-2.6 0-5.1-.1-7.7-.1v-13.8c2.5 0 4.9 0 7.3-.1 4.7.2 6.7 2.6 7.3 6.7.5 3.4-3 7-6.9 7.3zm-263.7-.4c-.2-1.6-.4-3.2-.8-4.7-2.1-10.4-9.5-16.4-18.9-17.5-.5-.5-1.2-.4-1.8-.3h-16.1c-.6.2-.4.7-.4 1v48.8h18.6v-.3c5.5-.2 10.2-2.2 13.9-6.4 3.6-4.1 5-9.3 5.4-14.7.6-.5.2-1.2.3-1.9v-2.1c.1-.6.4-1.3-.2-1.9zm-14.2 15.4c-1.8 1.8-4 2.7-6.4 2.9-2.2.1-4.4 0-6.6 0v-31.6c1.6 0 3.3-.1 4.9-.1 7.2.1 11.2 5.3 11.9 11.6.1.8.3 1.5.4 2.2v4.8c-.6 3.8-1.4 7.4-4.2 10.2zm-253.6-6.8c.5-1 .2-2.2.3-3.2v-6.7c-.1-1.1.3-2.2-.3-3.2l-.1-.6c-.1-.4-.1-.9-.2-1.3.4-.6.4-1.3 0-2-.1-.6 0-1.3-.4-1.9.2-.8-.1-1.5-.3-2.3.3-1.1-.3-2.1-.3-3.2-.2-1.1-.4-2.2-.6-3.2l-.9-4.2-.9-3.2-.9-3.2c-.3-.9-.6-1.7-.9-2.6-.4-1.2-.8-2.4-1.2-3.5-.3-.8-.6-1.5-.9-2.2-.4-.2-.7-.5-.9-1l-1.9-.7h-1.8c-1.7.1-2.7 1.1-3.4 2.6v.6c-.5.9-.5 1.7 0 2.6 0 .3-.1.7.3 1 .4 1 .3 2.2 1.2 2.9.3 1.2.6 2.4 1.2 3.5.2 1.5.7 2.8 1.2 4.2-.1 1.3.5 2.5.7 3.8l.9 3.6c-.2 1.1.3 2.1.4 3.2l.3 2 .3 2.2c0 .6-.2 1.2.3 1.6-.3.5-.3.9.1 1.3v12.3l-.3 1.6c-.1 3.5-.8 6.9-1.2 10.3-.6 3-1.3 5.9-2.6 8.7-.8 1.4-1.6 2.8-2.5 4.2-.7.9-1.6 1.8-2.1 2.9-.6-.6-.1-1.3-.3-2v-5.1c-.1-.8.3-1.6-.2-2.3 0-1.2-.1-2.3-.1-3.5 0-.6.2-1.2-.3-1.6 0-.3-.1-.6-.1-.9l-.3-1.5c-.4-3.3-.7-6.5-1.6-9.7-.3-.8-.2-1.8-.6-2.6.3-1.2-.6-2.1-.6-3.2-.3-1-.3-2-.9-2.9-.1-1.2-.5-2.4-.9-3.5s-.6-2.3-1.2-3.2c0-1.3-.7-2.4-1.2-3.5-.1-1.3-.9-2.3-1.2-3.5-.5-1.4-.9-2.7-1.8-3.9-.2-.5-.5-1.1-.7-1.6 0-.6-.4-1.1-.6-1.6-.3-.6-.6-1.3-1-2 .1-.5.5-.8.8-1.2.5-.2.8-.7 1.1-1.1.7-.2 1-.9 1.3-1.5.5-.3.9-.8 1.2-1.3.6-.4.9-1 1.2-1.6.8-.9 1.4-1.8 1.9-2.9.7-.9 1-1.9 1.5-2.9.7-1 1.1-2 1.2-3.2.5-.9.8-1.9.9-2.9.5-.8.4-1.7.6-2.6v-1.6c-1.2-3.5-3.8-4.8-6.8-3.2-1.3.9-2.2 2.1-2.2 3.9l-1.2 3.9c-.5 1.1-1 2.1-1.5 3.2-.4.8-1.1 1.3-1.3 2.3-.8.4-1 1.3-1.5 1.9-.2.3-.4.6-.7.9-1.4 1.2-1.4 1.2-2.4-.5-2.1-3.6-4.4-7.1-6.9-10.4-1-1.3-1.8-2.8-3.1-3.9-.7-1.1-1.5-2.2-2.5-3.2a20 20 0 0 0-1.9-2.2c-.3-.6-.7-1-1.2-1.3-.3-.5-.7-1-1.2-1.3-.3-.5-.7-1-1.2-1.3-.5-.7-1.1-1.4-1.9-1.9-.7-.9-1.5-1.8-2.5-2.5l-2.8-2.6c-.9-.8-1.9-1.6-2.8-2.5-.5-.5-1-.9-1.5-1.4.3-.5.8-.2 1.2-.3h.6c.9.2 1.8.6 2.8.3.7 0 1.4.6 2.2.3 1.1.2 2.2.5 3.4.7l1.9.3c.9.2 1.8.5 2.8.7l1.5.3.9.3c.7 0 1.4.5 2.2.4.6.5 1.4.6 2.2.9 1 .3 2 .6 3.1 1 .5.2 1.1.4 1.6.6 1 .4 2 .9 3.1 1.3.7.3 1.4.9 2.2 1 1 .8 2.3 1.3 3.4 1.9.4.3.8.4 1.2.3.8.5 1.7.5 2.5 0 1.8-.4 2.6-1.8 3.1-3.5v-1.9c-.4-1.4-1.3-2.5-2.2-3.5-.6-.8-1-1.7-1.9-2.3-.5-1.4-1.7-2.1-2.5-3.2-.6-.8-1.2-1.7-2.1-2.3-.5-.7-1-1.4-1.8-1.6-.5-.7-1.1-1.4-1.9-1.9-.7-.5-1.1-1.3-1.8-1.6-.6-.5-1.1-1.1-1.9-1.3a7.9 7.9 0 0 0-2.5-1.9c-.8-.6-1.5-1.3-2.5-1.6-1-.6-2.1-1.3-3.1-1.9-.6-.3-1.2-.7-1.9-1-.5-.2-1-.5-1.5-.7-.6-.5-1.4-.9-2.2-1.2-.6-.2-1.2-.5-1.9-.8-.6-.5-1.5-.6-2.2-.9l-1.5-.6c-.4 0-.7-.5-1.2-.3-.5-.3-.9-.7-1.5-.6-.6-.2-1.2-.4-1.9-.6l-.9-.3c-.5 0-1-.6-1.5-.3-.7-.2-1.5-.5-2.3-.7-2.3-.5-4.7-1-7-1.6-2.4-.3-4.7-.7-7.1-1-.6-.4-1.3-.5-1.9 0-.6-.1-1.3-.2-1.8-.6h-16.3c-.6.6-1.5.2-2.2.7-1.2-.3-2.3.2-3.4.3-1.1 0-2.1.2-3.1.6-.8.1-1.7-.1-2.5.4-1.1 0-2.1.3-3.1.6-1.3.3-2.7.6-4 1-1.1.5-2.4.5-3.4 1.2-1.1.3-2.3.7-3.4 1.1-1.3.5-2.7 1.1-4 1.6-1.4.6-2.9 1.3-4.3 2-1 .5-2.1 1.1-3.1 1.6l-3.4 1.1c-.5.3-1 .6-1.5 1l-.6.3c-.5 0-.5.5-.9.6-1.1.8-2.3 1.5-3.4 2.3l-3.7 2.8c-1.2 1-2.5 2-3.7 3-1.3 1.1-2.7 2-3.7 3.4-1.6 1.4-3.3 2.7-4.6 4.6-.9 1.3-2.3 2.1-3.1 3.5-.4.7-1.2 1.1-1.5 1.9-1.6 2.2-3.2 4.3-4.7 6.5-4.6 6.3-8 13.2-10.8 20.4-2.2 5.6-3.8 11.3-4.9 17.1-1 5.3-1.7 10.7-1.6 16.2-.4 2.3-.4 4.5 0 6.8 0 3.9.4 7.8 1 11.7.7 4.8 1.8 9.6 3.1 14.3 2 7.1 5 13.8 8.4 20.2a90.3 90.3 0 0 0 13.5 18.9c4.4 4.8 9.1 9.2 14.4 13.1 7.2 5.3 14.9 9.5 23.2 12.7 8.5 3.2 17.3 5 26.3 5.7h12.4c.6.3 1-.3 1.6-.3 2.6.1 5.2-.5 7.8-.9 4.9-.8 9.6-2.3 14.4-3.6 1.5-.6 3.1-1.2 4.6-1.9 1.8-.6 3.6-1.4 5.2-2.4 1.5-.6 3-1.1 4.4-2.2 1.7-.9 3.4-1.7 5-2.9 1.5-.8 3-1.8 4.3-2.9 1.7-1 3.2-2.2 4.6-3.5 1.6-1 2.9-2.4 4.3-3.6 1.3-1.3 2.9-2.4 4-3.9 1.1-1 2.1-2.1 3.1-3.2 1.2-1 2-2.4 3.1-3.5.8-1.1 1.7-2.1 2.5-3.2 1.1-1.2 2-2.5 2.8-3.9.9-.9 1.5-2.1 2.2-3.2.5-.9 1-1.7 1.5-2.5.7-1 1.4-2 1.9-3.2.6-1.2 1.2-2.4 1.9-3.5.8-1.2 1.3-2.5 1.8-3.9.4-.7.9-1.4 1-2.2.4-.8.9-1.6 1-2.6.5-.6.7-1.5.9-2.3.6-1.2 1-2.5 1.2-3.9.7-1.3 1-2.7 1.2-4.2.1-.2.2-.3.3-.5.6-3 1.2-5.9 1.8-8.8.6-3.6.9-7.1 1.2-10.7h.1-.1zm-28.2 8.3c.1.6.2 1.1.4 1.7v.2l.6 6.9v11.3c0 .7-.5 1.3-.3 2v.2l-.3 2.4v.1c-.1.9-.2 1.8-.6 2.6 0 0 0 .1-.1.1-1.7 1-3.3 1.9-5 2.9h-.1c-1.3.6-2.7 1.2-4 1.8-.1.1-.2.1-.3.1-1.4.5-2.8 1-4.1 1.6-.1 0-.1.1-.2.1-1.2.4-2.5.8-3.7 1.3h-.1c-1.6.4-3.2.8-4.8 1.3-2 .4-3.9.9-5.9 1.3l-5 .6-5.9.6h-2.7c-.7 0-1.4-.1-2.1-.1v-1.6c.4-1.2.5-2.3.5-3.5.2-1 .5-2.1.4-3.2.4-1.6.7-3.2.6-4.9.6-1.1.3-2.4.4-3.5.5-1.3.1-2.8.5-4.2 0-.3.1-.6.1-.9.4-.6.3-1.3.3-2v-1.9l.3-4.2c0-.6.1-1.3.1-1.9.5-.5.2-1.1.2-1.6v-1c0-.2.1-.4.1-.6.4-.5.2-1.1.2-1.6v-6.7c0-.1.1-.2.1-.3.5-1.2.1-2.4.2-3.6v-13.5c-.1-1.2.3-2.4-.2-3.6v-.6c2.1 0 4.1-.1 6.1-.7h.1c2.3-.1 4.5-.7 6.7-1.3.7-.1 1.5-.2 2.2-.6.8 0 1.5-.3 2.2-.6 1-.2 1.9-.5 2.8-1 .6-.2 1.2-.4 1.9-.7.8-.5 1.8-.5 2.5-1.2.8-.3 1.7-.7 2.5-1.1.7-.4 1.3-.8 2-1.2.1 0 .1-.1.2-.1 1.4-.1 1.2 1.3 1.9 2v.1a75.03 75.03 0 0 0 2 4.3c.4 1.2.8 2.4 1.4 3.5 0 .1.1.1.1.2.3 1.4.8 2.8 1.5 4.2 0 .1.1.2.1.3.4 1.2.5 2.5 1.2 3.6v.1c0 1.1.6 2 .7 3.1l.6 2.1v.1c.9 3.6 1.6 7.2 2.1 10.9l-.4-.1zm-40.6-16.7-.1-.1.1-.1v.2zm0 7.1zm-27.2-72.1c-.1.2-.3.3-.4.5-1 1.2-2 2.5-3 3.7-.8 1-1.8 1.9-2.3 3.2-.9.8-1.5 1.9-2.1 2.9-.8.7-1.3 1.6-1.8 2.6-1 1.2-1.9 2.4-2.5 3.8-1.2 1.5-2.2 3.1-3.1 4.8-.9 1-1.5 2.3-2.1 3.5-.8.7-1.1 1.7-1.5 2.6-.5.4-.8 1-.9 1.6-.7.5-1 1.4-1.2 2.2-.9.7-1 2-1.8 2.7-1.1-.6-2.3-1.3-3.4-1.9-.7-.6-1.4-1.1-2.1-1.7-.5-.4-1.1-.8-1.6-1.2l-2.4-1.7c-.5-.9-1.5-1.3-2.2-2l-1.8-1.9c-.8-1-1.7-2-2.5-2.9-1.4-1.7-2.6-3.6-3.7-5.4-.3-.6-.8-1.3 0-1.9 1.3-.8 2.7-1.5 4-2.3 1.2-.7 2.5-1.3 3.7-2 1.1-.5 2.3-.9 3.4-1.6 1.3-.6 2.7-1.2 4-1.8 1-.4 2.1-.9 3.1-1.3l2.8-1.1c.9 0 1.7-.5 2.5-.9 1.2 0 2.3-.7 3.4-1 1.3-.3 2.5-.7 3.7-1.2.9 0 1.7-.2 2.5-.6 1.3.2 2.4-.7 3.7-.7l3.1-.6 1.5-.3c.6.2 1.1-.2 1.6-.3.1 0 .2-.1.3 0 .1.2.8-.1.4.5-.5.4-1.1.9-1.3 1.7zm-41.1 105.6c.3-1.1.5-2.2.8-3.2.5-.9.5-1.9.7-2.9.5-1.1.8-2.3 1-3.5l1.2-3.9c.8-1.5 1-3.2 1.5-4.8.4-1.4 1.2-2.7 1.3-4.2.5-1.1 1-2.3 1.2-3.5.6-1.4 1.3-2.7 1.6-4.2l1.5-3.9c.7-1.5 1.4-3 1.8-4.5.9-1.6 1.6-3.4 2.2-5.1.5-1.2 1-2.3 1.5-3.5.9-1.2 1.3-2.6 1.9-3.9.5-.6.8-1.2.9-1.9.4-.6.8-1.2.9-1.9.6-1.2 1.2-2.4 1.9-3.5.9.3 1.8.6 2.8 1 .7.3 1.4.8 2.2.9.5.2.9.8 1.5.6.9.5 1.8.8 2.8 1 1.5.8 3.1 1.1 4.6 1.6 1.3.3 2.6.9 4 1 1.3.6 2.6.8 4 1 1 .3 2 .7 3.1.6l3.7.6c.9.1 1.9-.1 2.8.3h3.1v.1c.4.5 1 .2 1.6.2 1.7-.3 1 1.2 1.3 2v17.7c0 1-.1 1.9-.1 2.9-.5.8-.2 1.7-.2 2.6v3.5c0 .5-.1 1-.1 1.6-.4.5-.2 1.1-.3 1.7v.9l-.3 3.8v2.3c-.3 1.2-.5 2.3-.3 3.5-.3 1.2-.5 2.3-.3 3.5-.6 1.4-.2 3-.6 4.5.1 1.4-.6 2.8-.3 4.2-.6 1.1-.3 2.4-.6 3.5l-.6 3.5c-.1 1-.3 1.9-.4 2.9-2.2 0-4.3.2-6.5-.2l-6.5-.6c-2-.3-3.9-.6-5.9-1-1-.5-2.1-.3-3.1-.6-1.3-.3-2.7-.6-4-1-2.1-.3-4.2-.9-6.2-1.6-2.4-.7-4.7-1.3-7.1-2-2.5-.9-4.9-1.8-7.4-2.7-.1-.1-.3-.1-.4-.1-2.3-1.1-4.7-2.1-7-3.2-.7-.3-1.5-.5-1.3-1.6 0-.1.1-.2.1-.3zm71.7-95.3.3.3c.7 1 1.6 1.8 2.5 2.5l.1.1c1.1 1.3 2.3 2.7 3.6 3.8l.3.3c1.2 1.7 2.6 3.4 4 4.8.1.1.1.1.1.2 1 1.6 2 3 3.3 4.3l.3.3c1.1 2.3 2.8 4.2 4.1 6.3.9 1.6 2 3.1 3 4.6.4.7.2.9-.2 1.3h-.1c-.7.3-1.4.7-2.1 1l-.1.1c-.6.5-1.5.5-2.1 1.1-.9.1-1.7.6-2.5.9-.8.3-1.6.5-2.4.8-.6.2-1.2.4-1.9.6l-2.5.6-3.5.9c-.3 0-.6.1-.9.1-1.5.3-3.1.6-4.6.6-.6 0-1.3-.2-1.9.3v.1c-.4 0-.7-.2-.9-.6l-.1-.1.3-.6c0-.6.2-1.2-.2-1.7l-.7-10.6c.4-.6.3-1.2 0-1.9 0 0 0-.1-.1-.1-.1-.1-.1-.2-.1-.3-.5-1.4-.3-2.9-.5-4.4-.9-7.1-1.8-14.2-3.4-21.2-.2-.7-.7-1.4-.1-2.2.1.1.2.2.3.2l.4.3.2.2 1.8 1.5s.1 0 .1.1c.4.3.8.7 1.2 1 .7.6 1.4 1.3 2.1 1.9l.1.1 2.8 2.5zm5-27.4s.1 0 .1.1c.6.3 1.3.6 1.9.8.1 0 .1.1.2.1.6.2 1.2.5 1.8.7.1.1.1.1.2.1.3.2.6.4 1 .5h.1c.8.5 1.5.9 2.3 1.4.1.1.2.1.2.1 1 .6 1.9 1.1 2.9 1.7.1 0 .1.1.2.1l.6.9s-.2 0-.3.1h-.2c-.9 0-1.8-.6-2.8-.4h-.1c-.6-.4-1.4-.3-2-.5h-.1c-.9-.1-1.8-.6-2.8-.3h-.2c-.9-.2-1.7-.3-2.6-.5l-.3-.1c-.4 0-.8-.1-1.2-.1-.3-.2-.5-.3-.8-.3h-.8c-.3 0-.6-.1-.9-.1-.3-.1-.5-.2-.8-.3-.5-.1-.9 0-1.4.3-.4.2-.6-.2-.9-.2-.4 0-.8-.1-1.3-.1h-.2v-.3c.1-.1.3-.2.4-.2l1.8-1s.2-.1.3-.2l1.5-.9c.1-.1.2-.1.3-.1.5-.2 1.2-.2 1.5-.8.8-.3 1.7-.5 2.4-.5zm-19.5-5.5h.1c2.2.5 4.5.9 6.8 1.4-2 1.4-4 2.8-6 4.1-.1 0-.1.1-.2.1-.3.2-.6.5-1 .7-1.1-1.4-1.5-3.3-2.6-4.7-.1-.1-.2-.3-.3-.4.1-.7-.8-1-.7-1.7 1.4.1 2.6.7 3.9.5zm-6.8 25.5.2-.2c.4-.4.9-.8 1.3-1.2.5-.5 1-1 1.1.3 0 .3.2.6.3.9.6 3.1 1.3 6.3 2 9.4 0 .2.1.3.1.5.4 3 .9 6 1.3 9 0 .2-.1.4-.1.6.6 3.3.8 6.7 1.2 10 0 .6-.2 1.2.3 1.6 0 .3.1.6.1.9v2c.4 1.2.2 2.4.3 3.5 0 .5-.3 1.2.3 1.6 0 1.4.1 2.8.1 4.2-.3.6-.9.2-1.3.4h-2.2v-.1c-.4-.5-1-.3-1.5-.3h-2.2c-.7-.3-1.4-.5-2.2-.3-1.2-.6-2.4-.7-3.7-.7-1-.6-2.1-.4-3.1-.9-1.1-.2-2.3-.5-3.4-.7-1-.6-2-.8-3.1-1-1.4-.7-2.8-1.2-4.3-1.5-1.3-.6-2.6-1.3-4-1.6-1.3-.4-1.4-1.3-.7-2.3.7-1.3 1.5-2.6 2.2-3.8.8-1.4 1.7-2.8 2.5-4.2.6-1.1 1.4-2 1.9-3.2.7-.6 1.1-1.5 1.5-2.3l1.9-2.9c.8-1.2 1.7-2.4 2.5-3.6a61 61 0 0 1 2.2-3.2c1.4-1.7 2.8-3.5 4.1-5.2 1.5-1.9 3-3.8 4.4-5.7zm-11.3-26.8c.7 0 1.4.1 2.1.1h.2c.8.6 1.6 1.2 2.3 1.8.1 0 .1.1.1.1.6 1 1.3 2 1.9 2.9-.5.6-.9-.3-1.3 0 0 0-.1 0-.1-.1-.5-.3-.9-.6-1.5-.6l-.2-.1-1-.3c-.7-.6-1.6-.9-2.5-1-.8-.3-1.7-.6-2.5-.9-1.2-.3-2.5-.7-3.7-1v-.3c.4-.4 1-.3 1.5-.4h2.2c.6 0 1.2.2 1.8-.2h.7zm-36.3 11s.2-.2.3-.2c1-.8 2.3-.8 3.4-1.4h.1c1-.1 1.9-.2 2.8-.4h.1c1-.7 2.3.1 3.3-.6 0 0 .1 0 .1-.1h7.5c.3 0 .5.1.8.1h.1c.7.5 1.6.2 2.4.2h.1c.9.5 2 .3 3 .6h.1c1.4.3 2.9.6 4.3 1h.1c1.2.1 2.2.6 3.3.9l2.8.8c.1.5.8.1.8.6-.5.6-1.2.2-1.7.4l-4 .9c-1 .4-2.1.3-3.1.9-1.1.2-2.3.5-3.4.8-1 .3-2.1.6-3.1 1l-3.1 1c-.9.3-1.9.6-2.8 1-1 .4-2.1.8-3.1 1.3-1.3.5-2.7 1.1-4 1.6-1.2.7-2.6.9-3.7 1.8-1.5.4-2.9 1.2-4.3 2-1.3.6-2.7 1.1-3.7 2.1-.5.2-1.1.4-1.7.7-.6.3-.9.3-1 .1-.1-.2-.1-.4-.1-.8 0-.3 0-.6-.1-.9 0-.2.1-.4.1-.6.3-.6.5-1.3 0-2l.5-2.2s.1-.2.1-.3c.7-2 1.6-4 2.7-5.8 1.3-1.5 2.6-3.1 4.1-4.5zm-34.7 30.3s.1-.2.2-.2c.1-.1.2-.3.3-.4l.1-.1c.6-.6 1-1.4 1.4-2.1.8-1.2 1.7-2.4 2.5-3.5 1.2-1.5 2.5-3 3.7-4.5l.3-.4c1.1-1.3 2.2-2.5 3.4-3.8l.3-.3c.9-.9 1.9-1.7 2.8-2.6l3.3-3c.1-.1.3-.2.4-.3.8.5.1 1 0 1.5-.4 1.6-.2 3.1-.3 4.7-.4.5-.4 1.1 0 1.6.1 1.9 0 3.9.6 5.8.4 1.1-1 1.2-1.2 1.9-.1 0-.1.1-.2.1-1.3.7-2.6 1.6-3.5 2.8-1.4.5-2.2 1.8-3.4 2.7-1.4 1.3-2.9 2.3-4.1 3.8-1.3 1.3-3 2.2-3.9 3.9-.7.5-1.3 1.1-1.6 1.9l-.3.3-.1.1c-2.9 2.8-5.2 6.1-7.6 9.4-1 1.4-1.9 2.9-2.8 4.3-1-2.2 4.4-15.1 9.7-23.6zm21.4 96.7c-.8 4.2-1.3 8.5-1.3 12.7-.4 2.3-.4 4.5 0 6.8.2 1.6-.2 3.3.6 5.3-2-1-3.2-2.3-4.5-3.5-3.8-3.4-7.4-7.2-10.6-11.3-4.5-5.9-8.3-12.2-11.5-19-2.6-5.7-4.7-11.6-5.8-17.8-.2-1-.3-2-.4-3 0-.3-.2-.7.2-.9.4-.2.5.2.7.4 2.7 3.9 5.8 7.4 9.1 10.7 5.7 5.5 11.8 10.3 18.5 14.4 1.2.7 2.3 1.6 3.5 2.1 1.7.6 1.8 1.6 1.5 3.1zm2.5-12.8c-.2.9-.5 1-1.3.6-5-3-9.8-6.4-14.2-10.3-2.4-2.1-4.8-4.3-7-6.7-4.9-5.4-9-11.2-11.7-18.2-.5-1.2-.1-2.2.2-3.2 2.4-8.6 6.5-16.3 11.6-23.4.3-.4.7-.8 1-1.2.1-.1.2-.3.3-.4l.6-.9c.6-.8 1.2-1.5 1.9-2.3 1.1-1.3 2.2-2.6 3.4-3.9 1.1-1.2 2.3-2.4 3.4-3.5s2.5-1.9 3.4-3.2c1.3-.8 2.5-1.7 3.4-2.9.1 0 .2-.1.3-.1 1.1-.5 1.9-1.5 3-2.1.1 0 .1-.1.2-.1s.1 0 .2.1h.1c.7.9 1 2.1 1.8 2.8.7 1.7 2 3.1 3.1 4.5l.2.2c1.3 1.5 2.4 3.1 3.9 4.3 1.4 1.4 2.7 3.1 4.5 3.9.6.9 1.6 1.5 2.5 2.1.7.6 1.3 1.2 2.2 1.6.6.4 1.2.9 1.9 1.3.8.5 1.7 1.1 2.5 1.6 1 .4.3 1.1.2 1.7-.9 1-1.3 2.3-1.8 3.6l-2.1 4.2-2.2 5.1c-.7 1.4-1.5 2.9-1.9 4.5-.9 1.5-1.4 3.2-2.1 4.9-.7 1.2-1.1 2.5-1.5 3.9-.5 1.2-1.1 2.3-1.2 3.5-.7 1.4-1.3 2.9-1.7 4.5-.6 1.6-1.2 3.2-1.8 4.9l-1.2 3.9c-.3 1.2-.7 2.4-1 3.5-.4 1-.9 2.1-.9 3.2-.6 1-.8 2.2-1 3.4v.1c-.7 1.5-.9 3-1.2 4.5zm52.2 54c-.7 1.1-1.7 1.9-3 2.1-.9-.5-1.9-.2-2.8-.2-.7 0-1.5-.3-2.2.2a84.72 84.72 0 0 1-32.5-8.8c-3.7-1.9-5.1-5.4-5.9-9.2-.9-4-.6-8.1-.6-12.2.4-.6.4-1.3 0-2 .1-2.9.5-5.7 1-8.7 6.9 3 13.7 6 21 7.7h.1c2.8 1 5.7 1.8 8.6 2.2.3.2.6.3 1 .4 2.1.3 4.1.8 6.2 1.2 2.2.3 4.3.6 6.5 1l4.6.6c1.1.1 2.3-.1 3.4.3.7 0 1.3.1 2 .1 1.4 0 1.9.8 1.5 2.3-.2 1.2-.5 2.4-.7 3.5-.5 1.3-.9 2.8-1.1 4.2-.5.8-.6 1.7-1 2.6-.4 1.2-.8 2.4-1.2 3.5-.3 1.2-1.2 2.1-1.3 3.4v.1c-1.3 1.9-2.4 3.8-3.6 5.7zm10.3.9c.1-.9.6-1.6.9-2.3v-.1c.7-.9.9-2.1 1.4-3.2.4-1.2.9-2.4 1.3-3.5.5-.9.8-1.9.9-2.9.5-1.3 1.1-2.5 1.2-3.9.5-1.1.9-2.3.9-3.5.4-.9.6-1.9.7-2.9.5-1.1.7-2.3 1-3.5.8 0 1.6-.1 2.4-.1h2.2c.5 0 1.1.2 1.6-.2.2 0 .4-.1.6-.1 2 .3 3.9-.5 5.9-.3.2 0 .4-.2.6-.3 2.5.2 5-.5 7.4-1 2-.4 3.9-.9 5.9-1.3 1.7-.4 3.4-.8 5-1.5 2.1-.3 4-1 5.9-2 1.5-.3 2.9-.9 4.2-1.7.1-.1.2-.1.2-.1 1.7-.1.2.9.3 1.3v.1c-.4.9-1.1 1.8-1.3 2.8-.6.9-1.1 1.8-1.5 2.8v.1c-.8 1.2-1.6 2.4-2.4 3.7 0 .1-.1.1-.1.1-1 .8-1.5 2-2.4 2.9l-.1.1c-1.1 1.1-2.2 2.3-3.3 3.4-1.5 1.1-3 2.1-4.5 3.2-.1 0-.1.1-.1.1-1.7 1.1-3.3 2.1-5 3.2l-.1.1c-1.5.9-3.1 1.8-4.7 2.7-.1 0-.1.1-.2.1-1.5.7-3.1 1.4-4.6 2-.1 0-.1 0-.1.1-1.5.6-3.1 1.2-4.6 1.8-.1 0-.2.1-.2.1-2 .6-3.9 1.3-5.9 1.9l-3.9.9h-.1c-1.8.5-3.6.7-5.4.9z" style="fill:#fff"/></svg>