<svg viewBox="0 0 106 28" fill="none" xmlns="http://www.w3.org/2000/svg"><path d="m90.06 11.91-.1 5.12 9.97.19-.2 10.23 4.99.1.28-15.36-14.94-.28Z" fill="#8BA6C3"/><path d="m84.88 22.06.29-15.36 14.95.28.1-5.12-19.94-.37-.48 25.6 14.95.27.1-5.12-9.97-.18Zm-55.34-15.21c-.13 0-.18 0-.3-.03a1.76 1.76 0 0 1-.37-.11 1 1 0 0 1-.56-.57 1.32 1.32 0 0 1-.09-.53 2 2 0 0 1 .1-.59c.05-.14.12-.26.2-.35.09-.09.3-.36.9-.46.34-.06 1.73-.07 1.73-.07l.01-.5c-.03-.48-.58-.61-.81-.62-.72-.03-.94.4-.98.62l-1-.02c.06-.5.27-.81.63-1.07.37-.25.82-.37 1.36-.36.17 0 .34.01.49.04a1.84 1.84 0 0 1 .88.45c.12.11.21.27.28.47.08.2.1.42.1.67l-.03 1.8c0 .09.1.25.2.25h.24l-.02.92-.75-.01c-.31 0-.5-.15-.56-.42l-.04-.17h-.04c-.4.45-.92.67-1.58.66Zm.23-.8c.38 0 .7-.1.96-.32.26-.21.4-.41.4-.8v-.05s-1.1-.02-1.43.05c-.35.07-.57.28-.57.61-.01.33.2.5.64.5Zm4.78-1.06-.03 1.84-.93-.02.09-4.45.92.02-.03 1.7 1.93.03.03-1.7.93.03-.08 4.44-.94-.01.04-1.84-1.93-.04Zm9.21 8.99-.04 1.84-.92-.02.08-4.45.92.02-.03 1.7 1.93.03.03-1.7.94.03-.08 4.44-.94-.01.03-1.84-1.92-.04Zm-5.2-7.08.08-4.44.97.02-.03 1.7h.2l1.79-1.67 1.2.02-2.17 2.12 2.14 2.33-1.22-.02-1.77-1.88h-.18l-.04 1.84-.97-.01Zm19.63.37.08-4.45.97.02-.03 1.7.2.01 1.79-1.67 1.2.02-2.18 2.11 2.14 2.34-1.21-.02-1.77-1.88h-.19l-.03 1.84-.97-.02Zm-13.07-.13a2.03 2.03 0 0 1-1.86-1.15 2.6 2.6 0 0 1-.27-1.23c.02-.7.23-1.25.65-1.68.42-.42.94-.63 1.56-.62.63.01 1.13.24 1.53.68.4.44.6 1 .59 1.7a2.38 2.38 0 0 1-.65 1.68c-.42.43-.93.63-1.55.62Zm.02-.9c.35 0 .65-.13.89-.39.23-.25.36-.6.36-1.03.01-.43-.1-.77-.33-1.04a1.1 1.1 0 0 0-.87-.4c-.36-.01-.66.11-.9.37s-.37.6-.37 1.02c-.01.43.1.78.33 1.05s.53.4.88.41Zm3.03.85.09-4.45 2.34.04c.46 0 .83.12 1.1.34.28.21.41.5.4.85 0 .41-.23.73-.66.94v.04c.23.1.42.24.55.43.14.2.2.41.2.66 0 .35-.15.64-.43.86a1.6 1.6 0 0 1-1.11.33l-2.48-.05Zm.95-2.68 1.36.03c.42 0 .64-.15.64-.46a.42.42 0 0 0-.16-.36.77.77 0 0 0-.47-.14l-1.36-.02-.02.95Zm-.04 1.89 1.47.03c.2 0 .36-.05.48-.14.11-.1.17-.23.18-.4a.47.47 0 0 0-.17-.38.72.72 0 0 0-.47-.15l-1.47-.03-.02 1.07Zm6.04 1.03a2.03 2.03 0 0 1-1.54-.67 2.34 2.34 0 0 1-.57-1.71c0-.7.22-1.26.63-1.68a2 2 0 0 1 1.56-.62 1.97 1.97 0 0 1 1.67.83c.2.28.34.6.41.99l-.97-.02c-.1-.29-.24-.5-.44-.66a1.14 1.14 0 0 0-.68-.23c-.37 0-.67.12-.9.37-.22.26-.34.6-.35 1.03 0 .43.1.79.32 1.05.21.26.5.4.88.4.26.01.5-.06.7-.2.19-.14.34-.36.45-.64l.97.02c-.08.38-.23.7-.44.97s-.47.46-.76.59c-.29.12-.6.18-.94.18Zm12.1-4.33-.09 4.44-.82-.02.05-2.92h-.04l-2.4 2.88-.82-.02.08-4.44.83.01-.05 2.91h.03l2.4-2.86.83.01Zm-58.19 7.6c.6.02 1.1.24 1.46.68.36.43.54 1 .52 1.7-.01.7-.2 1.26-.59 1.69-.38.42-.87.63-1.48.61-.6 0-1.1-.25-1.47-.71h.03l-.04 2.34-.97-.01.12-6.22.96.02v.57h-.04c.4-.46.89-.68 1.5-.67Zm-.3 3.77c.37 0 .68-.12.92-.38.25-.26.38-.6.39-1.03 0-.42-.11-.77-.35-1.04a1.2 1.2 0 0 0-.91-.4c-.37-.02-.7.11-.94.37-.26.26-.39.6-.4 1.02 0 .42.11.77.36 1.04.24.27.55.41.93.42Zm12.85.13-.04 1.88-.96-.02.02-.97-3.52-.07.09-4.45.97.02-.07 3.54 1.95.04.07-3.54.99.02-.07 3.54h.56Zm2.85 1.08a2.15 2.15 0 0 1-1.88-1.16 2.55 2.55 0 0 1-.26-1.23c0-.69.23-1.25.65-1.67.43-.43.95-.64 1.57-.63.62.02 1.13.23 1.52.66.4.43.59.94.58 1.63l-.03.38-3.34-.06c.05.36.18.7.4.9.21.22.48.34.8.34a1.14 1.14 0 0 0 1.05-.59l1 .02a2.2 2.2 0 0 1-.79 1.03c-.36.26-.79.39-1.28.38Zm-1.15-2.85 2.36.04a1.25 1.25 0 0 0-.38-.73c-.2-.2-.45-.3-.76-.31-.31 0-.57.08-.79.27-.21.19-.36.4-.43.73Zm24.41 3.17.08-4.45 3.19.06-.02.93-2.25-.04-.07 3.51-.93-.02Zm16.01.3-2.1-.05.09-4.44.82.01-.02 1.49 1.25.02c.48 0 .81.14 1.1.4.29.25.43.62.42 1.11-.01.5-.16.86-.46 1.1-.3.24-.63.36-1.1.35Zm-1.23-2.17-.02 1.32 1.16.02c.24 0 .37-.05.49-.17a.64.64 0 0 0 .19-.47c0-.21-.05-.38-.18-.5-.12-.12-.25-.18-.5-.18l-1.14-.03Zm4.58-2.22-.08 4.45-.98-.02.08-4.45.98.02Zm-43.47-10.23-.03 1.36 1.84.04c.66 0 1.17.2 1.52.55.35.35.52.81.51 1.38a1.8 1.8 0 0 1-.56 1.35c-.36.34-.88.5-1.54.5l-2.86-.06.1-6.08 4.59.1-.02.93-3.55-.07Zm-.08 4.2 1.83.03c.35.01.6-.07.79-.23a.9.9 0 0 0 .28-.69c0-.3-.08-.53-.25-.7-.18-.18-.43-.27-.78-.28l-1.84-.03-.03 1.9Zm48.96-2.69-.08 4.45-.83-.02.05-2.92h-.04l-2.4 2.88-.82-.02.08-4.45.83.02-.05 2.91h.03l2.4-2.87.83.02Zm-1.14-1.46-1.7-.03-.02.85 1.7.03.02-.85Zm.98 10.27-.09 4.45-.83-.01.06-2.92h-.04l-2.4 2.87-.82-.01.08-4.45.83.02-.06 2.9h.04l2.4-2.86.83.01Zm-1.14-1.45-1.71-.03-.02.85 1.71.03.02-.85Zm-57.14 4.93a2.03 2.03 0 0 1-1.86-1.15 2.6 2.6 0 0 1-.26-1.23c.01-.7.23-1.25.64-1.68.42-.43.94-.63 1.57-.62.63.01 1.13.24 1.53.68.4.44.6 1 .58 1.7a2.38 2.38 0 0 1-.64 1.68c-.42.42-.94.63-1.56.62Zm.02-.91c.36 0 .65-.12.9-.38.23-.26.35-.6.36-1.03 0-.43-.1-.77-.33-1.04s-.52-.4-.88-.41c-.35 0-.66.12-.9.38s-.36.6-.37 1.02c0 .42.1.78.34 1.05.23.27.52.4.88.4Zm39.6 1.65a2.03 2.03 0 0 1-1.86-1.15 2.6 2.6 0 0 1-.26-1.23c.01-.7.23-1.25.64-1.68.42-.43.94-.63 1.57-.62.62.01 1.13.24 1.53.68.4.44.6 1 .58 1.7a2.38 2.38 0 0 1-.64 1.68c-.42.43-.94.63-1.56.62Zm.02-.91c.36 0 .65-.12.9-.38.23-.26.35-.6.36-1.03 0-.43-.1-.77-.33-1.04s-.52-.4-.88-.41c-.35 0-.66.12-.9.38s-.36.6-.37 1.02c0 .42.1.78.34 1.05.23.27.52.4.88.4Zm-24.07.46a2.03 2.03 0 0 1-1.55-.67 2.43 2.43 0 0 1-.57-1.71c.02-.7.23-1.26.64-1.68.4-.42.93-.63 1.56-.62a2.1 2.1 0 0 1 1.67.83c.2.28.34.6.41.99l-.97-.02c-.1-.28-.24-.5-.44-.65a1.08 1.08 0 0 0-.68-.24c-.37 0-.67.12-.9.38-.22.25-.34.6-.35 1.02 0 .43.1.79.31 1.05.22.27.51.4.89.4.26.01.5-.06.7-.2.19-.14.34-.35.45-.64l.97.02c-.08.38-.23.7-.44.97s-.47.47-.76.59c-.29.13-.6.19-.94.18Zm4.97.1a2.03 2.03 0 0 1-1.54-.68c-.4-.44-.58-1-.57-1.7.01-.7.23-1.27.63-1.69.42-.42.94-.63 1.57-.61a1.98 1.98 0 0 1 1.67.83c.2.27.34.6.4.98l-.96-.02c-.1-.28-.25-.5-.44-.65-.2-.15-.42-.23-.69-.24-.36 0-.66.12-.89.38-.23.25-.34.6-.35 1.03 0 .42.1.78.31 1.04.22.27.51.4.88.41.27 0 .5-.06.7-.2.2-.15.35-.36.46-.65l.97.02c-.08.38-.23.7-.44.97-.22.27-.47.47-.76.6-.3.12-.6.18-.95.17Zm7.19-4.44-.08 4.45-.83-.01.05-2.92h-.03l-2.4 2.87-.83-.01.09-4.45.82.01-.05 2.92h.03l2.4-2.87.83.01Zm15.02 4.73.09-4.44 2.3.04c.47 0 .83.12 1.1.34.28.21.41.5.4.84 0 .42-.23.74-.66.95v.03c.24.1.42.25.56.44.13.2.2.41.19.66 0 .35-.15.64-.42.86-.28.23-.65.34-1.12.33l-2.44-.05Zm.9-2.67 1.37.02c.42.01.64-.14.65-.45 0-.16-.05-.28-.17-.37a.77.77 0 0 0-.47-.13l-1.36-.03-.01.96Zm-.03 1.88 1.47.03c.2 0 .36-.04.48-.14s.18-.22.18-.39a.48.48 0 0 0-.17-.39.72.72 0 0 0-.47-.15l-1.47-.03-.02 1.08Zm-11.16 9.55.1-5.97 1.04.02-.09 5 2.9.06.1-5 1.03.01-.1 5.01.65.01-.04 2.2-1.06-.02.02-1.23-4.55-.09Zm8.52.18a2.28 2.28 0 0 1-1.11-.32c-.33-.2-.59-.48-.77-.84a2.55 2.55 0 0 1-.27-1.23c.02-.7.23-1.25.66-1.68a2.1 2.1 0 0 1 1.57-.62 2.12 2.12 0 0 1 2.09 2.28l-.02.39-3.34-.06c.04.35.18.69.4.9.21.22.48.33.8.34.22 0 .43-.05.61-.15.19-.1.33-.25.44-.44l1 .02a2.2 2.2 0 0 1-.79 1.02c-.37.26-.8.4-1.28.38Zm-1.16-2.86 2.36.05a1.25 1.25 0 0 0-.37-.74c-.2-.2-.45-.3-.76-.3a1.1 1.1 0 0 0-.79.27c-.22.19-.36.4-.44.72Zm5.16.94-.03 1.84-.93-.02.09-4.44.92.01-.03 1.7 1.93.04.03-1.7.93.02-.08 4.45-.94-.02.04-1.84-1.93-.04Zm3.7-1.63.01-.9 4.13.07-.02.91-1.58-.03-.06 3.54-.97-.02.07-3.54-1.58-.03Zm7.4-.89c.61.01 1.1.24 1.46.67.37.44.54 1 .53 1.7-.01.7-.21 1.27-.59 1.7-.38.42-.87.62-1.48.61-.61 0-1.1-.25-1.47-.71h.03l-.04 2.34-.97-.02.11-6.21.97.01v.58h-.04c.39-.46.89-.68 1.5-.67Zm-.3 3.77c.38 0 .68-.12.93-.38.25-.27.37-.6.38-1.03.01-.42-.1-.77-.34-1.04a1.2 1.2 0 0 0-.91-.41c-.38 0-.7.12-.95.38s-.38.6-.39 1.02c0 .42.11.77.35 1.04.25.27.56.41.93.42Zm-69.6-9.21.1-5.98 5.03.1-.11 5.98-1.12-.02.1-5.03-2.78-.06-.1 5.03-1.12-.02Z" fill="#8BA6C3"/></svg>