<svg viewBox="0 0 105 11" fill="none" xmlns="http://www.w3.org/2000/svg"><path d="M56.25 10.09h-2.58v-3.34c0-.15-.02-.25-.2-.25h-3.14v3.31c0 .22-.06.3-.28.3h-2.02c-.23 0-.34-.06-.34-.34v-9.07c0-.24.05-.34.3-.34.77.02 1.53 0 2.34 0v3.37c0 .23.06.31.3.31h2.66c.38 0 .38-.01.38-.4v-3.25h2.58v1.74c0 .51.03 1.02 0 1.53-.02.33.12.38.38.38h2.88v2.46h-2.8c-.3 0-.46.15-.46.45v3.14Zm-49.28-5c.03.02.07.06.13.08.93.35 1.41 1.1 1.39 2.07a2.76 2.76 0 0 1-.55 1.75c-.3.37-.71.59-1.15.76a5 5 0 0 1-1.78.3l-4.9.05-.11-.01v-9.7l.28-.02c1.39 0 2.78-.04 4.16.01.92.03 1.84.1 2.69.55a2 2 0 0 1 1.1 1.67c.07.67.01 1.34-.46 1.86-.22.24-.52.41-.8.63Zm-4.41 2.8 1.95-.01c.25-.01.51-.03.73-.14.19-.09.41-.27.47-.46.24-.81-.22-1.12-.81-1.19-.7-.08-1.41-.05-2.12-.07-.16 0-.23.06-.22.23v1.63Zm0-3.74c.8 0 1.55.05 2.3-.01.53-.05.75-.36.75-.67 0-.66-.08-.87-.66-.92-.78-.08-1.58-.02-2.38-.02v1.62Zm33.81-.78h-2.55c-.07 0-.17-.1-.18-.18-.1-.5-.4-.74-.87-.86-.5-.13-1-.13-1.48.03a.74.74 0 0 0-.54.65c-.01.36.1.58.47.71.4.14.83.24 1.25.31 1.04.18 2.11.28 3.03.9a2.3 2.3 0 0 1 1 1.92 3.1 3.1 0 0 1-.5 2c-.43.62-1.03.96-1.72 1.2-.94.32-1.92.28-2.88.22a3.82 3.82 0 0 1-2.69-1.08 3.35 3.35 0 0 1-.83-1.97c-.05-.48-.04-.48.47-.48h2.02c.19 0 .27.07.32.23.23.76.65 1.12 1.4 1.15.36 0 .71-.02 1.07-.06.34-.04.67-.4.7-.73a.76.76 0 0 0-.56-.82c-.58-.15-1.17-.27-1.77-.37a5.9 5.9 0 0 1-2.54-.84 2.1 2.1 0 0 1-.86-1.57 2.96 2.96 0 0 1 .4-2.05c.35-.52.8-.9 1.37-1.12a6.44 6.44 0 0 1 4.25-.1c1.25.37 1.98 1.3 2.17 2.66l.05.25Zm10.24.97-2.7-.01c-.07 0-.19-.14-.2-.21-.08-.92-.67-1.53-1.6-1.52-.25 0-.5.01-.75.06-.75.14-1.18.81-1.27 1.52a9.66 9.66 0 0 0-.07 1.67c.03.6.17 1.16.64 1.59.43.38.95.45 1.49.42.25-.01.52-.1.76-.22.5-.22.68-.7.8-1.21l.08-.47h2.61c.16 0 .27.04.23.22-.1.52-.18 1.06-.35 1.56a3.58 3.58 0 0 1-2.46 2.31c-.89.29-1.8.29-2.7.22a3.78 3.78 0 0 1-3.72-3.46c-.1-.88-.14-1.78-.06-2.66.16-1.88 1.23-3.39 3.19-3.77.62-.13 1.26-.2 1.89-.18 1.07.06 2.1.32 2.93 1.1.6.55.95 1.23 1.11 2.03.06.32.1.64.15 1Zm-28.05-3.96h2.67c.03.38.08.74.08 1.1l.01 4.57c.01.5.1 1 .5 1.34.33.3.72.43 1.16.33.2-.05.43-.06.6-.16.5-.27.65-.79.66-1.3.04-1.83.05-3.66.07-5.48v-.38c.06-.01.11-.03.17-.03h2.31c.2 0 .27.06.27.27 0 1.62.03 3.24-.01 4.87a6.9 6.9 0 0 1-.44 2.6 3.28 3.28 0 0 1-2.2 1.98 5.96 5.96 0 0 1-3.5-.06 3.13 3.13 0 0 1-2-1.99 6.13 6.13 0 0 1-.34-2.14c-.02-1.72 0-3.44 0-5.17v-.35Zm-10.06 9.72.74-1.97 1.4-3.75 1.48-3.88c.03-.06.15-.13.22-.13a73.1 73.1 0 0 1 2.46 0c.1.01.23.14.27.24l.97 2.57 1.96 5.11.6 1.59c.02.06.01.13.02.22h-2.47c-.08 0-.2-.12-.23-.2a23.8 23.8 0 0 1-.46-1.27c-.06-.18-.14-.28-.35-.27h-3.07c-.2 0-.28.08-.33.25-.14.42-.27.84-.43 1.25-.03.1-.15.23-.23.23-.83.02-1.66.02-2.55.02Zm6.15-3.8-1.04-3.04-.1-.02-1.03 3.06h2.17Zm54.26 3.88v-3.88c.01-.25-.04-.35-.31-.35h-4.2c-.22 0-.3.07-.3.3l.01 3.61c0 .25-.01.39-.33.32-.3-.06-.63-.01-.95-.01v-9.68c.37-.02.73-.05 1.09-.05.17 0 .2.14.19.3v3.57c0 .07-.02.15 0 .2.04.08.12.18.18.18h4.62v-4.19c.37-.02.72-.06 1.07-.07.16 0 .23.1.23.27v9.25c0 .2-.05.27-.28.24-.32-.05-.66-.01-1.01-.01Zm9.95-3.45h-6.15c-.12 1 .51 2.17 1.66 2.45 1.45.36 2.62-.08 3.02-1.29h1.41c-.1.27-.17.52-.29.74a3.3 3.3 0 0 1-2.21 1.66c-.9.21-1.8.17-2.67-.13a2.91 2.91 0 0 1-1.7-1.39 5.12 5.12 0 0 1-.45-3.46c.16-.85.47-1.6 1.1-2.18.56-.52 1.22-.8 1.97-.9.66-.1 1.3-.08 1.94.12.81.25 1.43.75 1.86 1.5.51.9.6 1.86.5 2.88Zm-3.64-1.01h2.05c.24 0 .36-.08.32-.35-.07-.5-.24-.96-.55-1.34-.33-.4-.75-.64-1.28-.73-.92-.15-1.75.02-2.42.73-.4.4-.54.94-.66 1.48-.01.05.16.2.24.2h2.3Zm4.94-.66c.02-.98.43-1.7 1.16-2.2a4.16 4.16 0 0 1 3.03-.64c.62.07 1.19.23 1.7.6.6.42.9 1.03.91 1.75.03 1.74.01 3.48.01 5.23 0 .4-.06.46-.45.4l-.13-.03c-.47 0-.46 0-.48-.49 0-.22-.03-.43-.06-.65l-.08-.59c-.31.37-.63.77-.99 1.12a3 3 0 0 1-1.82.81c-.86.1-1.72.08-2.44-.53-.55-.47-.7-1.1-.63-1.77.06-.56.26-1.09.74-1.41.33-.23.69-.47 1.07-.57.85-.2 1.73-.32 2.59-.5.32-.07.64-.18.95-.3.58-.19.56-.8.37-1.24-.27-.6-.82-.74-1.37-.83a2.88 2.88 0 0 0-1.98.35c-.44.26-.73.68-.8 1.22-.03.17-.11.28-.32.27-.31-.02-.62 0-.98 0Zm2.65 4.28c.21-.02.44.01.64-.05a3.2 3.2 0 0 0 1.7-1.16c.43-.6.62-1.23.58-1.95 0-.13-.05-.2-.2-.11-.19.1-.38.2-.59.24-.65.14-1.31.23-1.97.37-.53.12-1.05.26-1.45.7-.42.46-.3 1.42.18 1.71.36.22.72.25 1.1.24h.01Zm15.7-5.57.33-.46a2.36 2.36 0 0 1 1.82-1.07c.4-.03.83-.06 1.23 0 .82.13 1.46.55 1.84 1.33.27.54.37 1.1.36 1.7-.02 1.55 0 3.09 0 4.63 0 .31-.06.34-.37.3a1.53 1.53 0 0 0-.64-.02c-.24.07-.22-.05-.22-.2v-3.97a3.57 3.57 0 0 0-.4-1.84c-.22-.36-.52-.6-.88-.72-.8-.26-1.58-.2-2.25.35-.38.32-.63.75-.76 1.25-.23.9-.07 1.82-.1 2.74-.03.78-.01 1.57-.01 2.43h-1.1c-.17-.01-.2-.14-.2-.3l.01-3.72v-5.71c0-.43.1-.5.46-.49.83.02.83 0 .83.85v2.88l.05.04Zm-4.86-1.37h2.22v1.14h-2.22v.3c0 1.26-.02 2.51.01 3.76.01.32.12.67.28.95.2.37.63.37 1 .4.3.04.6.01.92.01v1.21c-.8-.03-1.6.13-2.38-.23a1.55 1.55 0 0 1-.87-1.06 6.42 6.42 0 0 1-.18-1.46c-.03-1.17-.01-2.34-.01-3.51v-.35h-1.44v-1.05c.34-.05.7-.13 1.04-.15.25-.02.38-.17.44-.36.08-.25.1-.52.13-.78.03-.2-.01-.43.08-.58.19-.32.52-.09.8-.14.04 0 .17.15.17.23.02.42.01.84.01 1.26v.4Zm-5.04 7.78v-9.75c0-.28.14-.42.43-.42h.61c.17 0 .25.08.25.27v9.67c0 .19-.03.27-.27.24-.32-.05-.66-.01-1.02-.01Z" fill="#8BA6C3"/></svg>