<svg viewBox="0 0 72 38" fill="none" xmlns="http://www.w3.org/2000/svg"><g clip-path="url(#a)" fill="#8BA6C3"><path d="M36 0a11.66 11.66 0 0 0-11.52 11.75c0 6.47 5.17 11.75 11.52 11.75 6.34 0 11.52-5.28 11.52-11.75s-5.17-11.75-11.52-11.75Zm0 21.01-10-12.32h3.79l.06.01h.05l.06.02h.06l.06.02.06.02.06.03.06.02.06.03.06.03.06.04.06.03.05.04.06.05.05.04.05.05.02.02v-3.4h4.54l.13.01.05.01.05.01.05.01.05.02.05.01.05.02.05.02.05.02.05.02.04.03.05.02.04.03h.02l.03-.01.04-.03.05-.02.05-.03.05-.02.05-.02.05-.02.05-.01.05-.02.05-.01.05-.02h.06l.05-.01.05-.01h.06l.05-.01h4.49v3.4l.02-.01.05-.05.05-.05.06-.04.05-.04.06-.04.06-.03.06-.03.06-.03.06-.03.06-.02.06-.02.06-.01.06-.01.05-.01.06-.01h.16l.04-.01h3.65l-10 12.32h-.01Z"/><path d="M34.48 8.3h-2.1v-.89h3.08v6.68h-.66l1.2 1.5 1.2-1.5h-.66v-6.68h1.02v6.24l1.07-1.34v-2.9h.99v1.68l1.07-1.34v-3.43h-1.07v1.98h-.99v-1.98h-1.93l-.03.01h-.03l-.04.02h-.03l-.03.01-.04.01-.03.02-.03.01-.03.01-.03.02-.03.01-.03.02-.03.02-.02.02-.03.02-.03.02-.02.02-.03.02-.02.02-.02.03-.03.02-.02.03-.02.02-.02.03-.02.03-.01.01-.01-.01-.02-.03-.02-.03-.02-.02-.02-.03-.02-.02-.03-.02-.02-.03-.02-.02-.03-.02-.02-.02-.03-.02-.03-.02-.03-.01-.03-.02-.02-.02-.03-.01-.03-.02-.03-.01-.03-.01-.04-.01-.03-.01-.03-.01-.03-.01h-.04l-.03-.01h-.04l-.03-.01h-3.93v3.4l3.17 3.95v-5.37Zm-1.08 2.32-.97-1.22h.97v1.22Z"/><path d="M42.79 9.28h-.12c-.54 0-.74-.08-1.24.55l-.1.11-5.33 6.65-5.34-6.65-.09-.1c-.5-.64-.7-.56-1.24-.56h-2.1l8.77 10.8 8.77-10.8h-1.98Z"/><path fill-rule="evenodd" clip-rule="evenodd" d="M2.95 37.77h.7l.01-.01h.1v-.01h.07l.01-.01h.07l.01-.01h.06l.01-.01h.03l.01-.01h.03l.01-.01h.04v-.01h.04v-.01h.04v-.01h.02v-.01h.04l.01-.01h.03l.01-.01h.03l.01-.01h.03v-.01h.02v-.01h.02v-.01h.02v-.01h.02v-.01h.02l.01-.01h.01l.01-.01h.01l.01-.01h.01l.01-.01h.01v-.01h.02v-.01h.02v-.01h.01l.01-.01h.01v-.01h.01l.01-.01.01-.01h.01v-.01h.01l.01-.01h.01v-.01h.01l.01-.01h.01v-.01h.01l.01-.01h.01l.1-.09.09-.08.09-.09.07-.1.08-.1.06-.1.06-.11.05-.12.05-.12.04-.13.03-.13.02-.14.02-.14.01-.14v-.67h-.01v-.06h-.01v-.04h-.01v-.03l-.01-.01v-.02l-.01-.01v-.02l-.01-.01v-.02l-.01-.01v-.02l-.01-.01-.04-.11-.05-.1-.05-.1-.06-.09-.01-.01-.01-.01-.01-.01-.01-.01-.01-.01v-.01h-.01v-.01h-.01v-.01h-.01v-.01h-.01v-.01h-.01v-.01h-.01v-.01h-.01v-.01h-.01v-.01h-.01v-.01h-.01v-.01h-.01v-.01h-.01v-.01h-.01v-.01h-.01v-.01h-.01v-.01h-.01v-.01h-.01v-.01h-.01v-.01h-.01v-.01h-.01v-.01h-.01v-.01h-.01v-.01h-.01v-.01h-.01v-.01h-.01v-.01h-.01v-.01h-.01v-.01l-.1-.07-.1-.07-.1-.06h-.01l-.01-.01h-.01l-.01-.01h-.01l-.01-.01h-.01l-.01-.01h-.01l-.01-.01h-.01l-.01-.01h-.01l-.01-.01h-.01l-.01-.01h-.01l-.01-.01h-.02l-.01-.01h-.02l-.01-.01h-.02l-.01-.01h-.02l-.01-.01h-.01l-.01-.01h-.02l-.01-.01h-.02l-.01-.01h-.02l-.01-.01h-.02l-.01-.01h-.02l-.01-.01h-.04v-.01h-.06v-.01h-.06v-.01h-.08v-.01h-.08v-.01h-2.23v-.78h3.61v-1.32l-5.1.01v6.22h2.94l-.1-.09Zm-.13-1.33h-1.32v-1.5h1.46l.13.01h.16l.1.02.1.03.07.03.08.04.06.04.05.05.05.05.04.06.03.07.02.07.02.08.02.09v.2l-.02.1-.02.09-.02.07-.04.07-.01.03-.02.03-.05.05-.06.04-.06.04-.08.03-.09.03-.1.03h-.51l.01.05Zm4.78-4.7-.14.05-.13.06-.12.07-.12.07-.11.08-.11.08-.1.1-.1.1-.09.1-.08.1-.08.13-.07.12-.06.13-.06.14-.05.14-.05.15-.04.15-.03.16-.03.17-.03.17-.02.18v.19l-.02.19v.4l.01.2.02.19.03.18.03.18.04.17.05.16.05.16.07.15.07.14.08.14.09.13.09.12.1.12.11.1.12.1.11.1.12.07.11.07.12.06.01.01h.01l.01.01h.01l.01.01h.01l.01.01h.01l.01.01h.01l.01.01h.01l.01.01h.01l.01.01h.01l.01.01h.02l.01.01h.02l.01.01h.02l.01.01h.03v.01h.03v.01h.03v.01h.03v.01h.03v.01h.02v.01h.03v.01h.04l.01.01h.05l.01.01h.05l.01.01h3v-1.29h-2.43l-.07-.02h-.08l-.06-.02-.07-.01-.06-.02-.06-.02-.06-.02-.05-.03-.05-.02-.04-.03-.05-.03-.04-.03-.04-.04-.03-.04-.04-.04-.03-.04-.03-.05-.02-.05-.03-.06-.02-.06-.02-.06-.02-.07-.01-.07-.02-.07v-.1l-.01-.01v-.2h3.46v-1.3h-3.45l.01-.1.02-.08.01-.07.02-.06.02-.07.02-.06.02-.06.03-.05.02-.05.03-.05.03-.05.03-.04.04-.04.04-.04.04-.04.04-.03.04-.04.05-.02.04-.03.06-.03.05-.02.06-.02.05-.02.07-.01.06-.02h.07l.07-.02h2.41v-1.3h-2.56l-.17.02-.16.02-.16.03-.15.03-.15.04-.14.05.06.04Zm6.65-.2h-.42l-.02.01h-.14l-.01.01h-.07l-.01.01-.14.03h-.03l-.01.01h-.02l-.01.01h-.03v.01h-.03v.01h-.03l-.01.01-.12.05-.12.05-.12.07-.1.07-.12.08-.1.1-.11.1-.09.1-.08.1-.06.1-.07.1-.05.11-.05.1v.04l-.01.01v.02l-.01.01v.01l-.01.01v.02l-.01.01v.02l-.01.01v.02l-.01.01v.03h-.01v.03h-.01v.03h-.01v.03h-.01v.04l-.01.01v.05l-.01.01v.05l-.01.01v4.42h1.23v-.01h.03l.01-.01h.02l.01-.01h.02l.02-.01.01-.01h.01l.01-.01h.01v-.01h.01v-.01h.01v-.01h.01v-.01l.01-.01v-.01h.01v-.01l.01-.01v-.01l.02-.03v-.01l.01-.01v-.02h.01v-.03h.01v-3.78l.01-.01v-.1l.01-.02v-.07l.01-.02v-.06l.01-.01v-.05h.01v-.05h.01v-.04l.01-.01v-.03h.01v-.07l.01-.01v-.01h.01v-.01h.01v-.01h.01v-.01h.01v-.01h.01v-.01h.01v-.01l.01-.01.01-.01.01-.01h.01v-.01l.01-.01h.01v-.01h.01v-.01h.01v-.01h.01v-.01h.01v-.01h.01v-.01h.01v-.01h.01v-.01h.01v-.01h.01l.01-.01h.01l.01-.01h.01l.01-.01h.01v-.01h.02v-.01h.02v-.01h.02v-.01h.02v-.01h.02v-.01h.02v-.01h.02v-.01h.03l.01-.01h.04v-.01h.05l.01-.01.08-.01h.04l.01-.01h.07l.01-.01h1.15v4.97h1.48v-6.22h-2.72l.05.08Zm3.3 3.4.02.16.01.17.03.16.03.16.03.15.04.15.04.14.05.14.06.13.06.13.07.12.07.12.08.1.08.11.1.1.09.1.1.09.11.08.11.08.12.07.13.07.13.06.13.05.14.05.15.04.15.04.16.03.16.03.17.02h.4l.02.01h1.26l.17-.03.16-.03.16-.03.15-.04.15-.04.14-.05.13-.05.13-.06.13-.07.11-.07.12-.08.1-.08.1-.09.1-.09.1-.1.08-.1.08-.1.07-.12.07-.12.06-.13.06-.13.05-.13.04-.14.04-.14.04-.15.03-.16.02-.15.02-.17.01-.16.01-.18v-.53l-.02-.17-.02-.16-.02-.16-.03-.16-.04-.15-.03-.15-.05-.14-.05-.14-.05-.13-.07-.13-.06-.13-.08-.11-.08-.12-.08-.1-.1-.1-.09-.1-.1-.09-.1-.08-.12-.08-.12-.07-.13-.07-.13-.05-.13-.06-.14-.04-.15-.04-.15-.03-.16-.02-.16-.02-.17-.01h-1.65l-.16.01-.16.02-.16.02-.15.03-.15.04-.14.04-.13.06-.13.05-.13.07-.12.07-.11.07-.1.08-.11.1-.1.09-.09.1-.09.1-.07.11-.08.12-.07.12-.06.13-.06.13-.05.13-.04.14-.04.15-.04.15-.03.15-.02.16-.02.16-.01.17-.01.16v.54h-.02Zm4.1 1.6h-1.28l-.08-.02-.08-.03-.07-.03-.07-.03-.07-.03-.07-.03-.06-.04-.06-.04-.06-.04-.05-.04-.05-.05-.05-.04-.05-.05-.04-.05-.04-.06-.04-.06-.04-.06-.03-.06-.03-.06-.03-.07-.03-.07-.03-.08-.02-.08-.02-.08-.02-.08-.01-.09-.02-.09v-.1l-.01-.09-.01-.2v-.4l.01-.08.02-.09v-.08l.03-.08.01-.08.02-.08.03-.07.02-.07.03-.07.03-.07.03-.06.04-.06.04-.06.04-.05.04-.06.04-.05.05-.05.05-.04.05-.04.05-.05.06-.03.06-.04.06-.03.06-.03.07-.03.07-.03h.03v-.01h.02l.01-.01.02-.01h.03v-.01h.03l.01-.01h.02l.02-.01h.03l.02-.01h.04l.01-.01h.06l.02-.01h1.17l.09.02.07.02.08.03.07.02.07.03.06.03.06.04.06.03.06.04.05.05.06.04.04.04.05.05.05.05.04.06.04.05.03.06.04.07.03.06.03.07.03.07.02.07.03.08.02.08.01.08.02.09.01.08.01.1.01.09.01.2v.4l-.02.09v.09l-.02.08-.02.09-.02.08-.02.08-.02.07-.03.07-.02.07-.03.07-.04.06-.03.06-.04.06-.04.06-.04.05-.05.05-.04.05-.05.05-.05.04-.06.05-.06.04-.06.04-.06.03-.06.04-.07.03-.07.03-.08.03-.08.02-.07.02-.03.02Zm3.33-4.99v6.22h1.5v-2.08h2.3l.01-.01h.07l.01-.01h.08v-.01h.04v-.01h.05v-.01h.05v-.01h.03v-.01h.03v-.01h.03v-.01h.03v-.01h.03v-.01h.03v-.01h.03v-.01h.03v-.01h.03v-.01h.03v-.01h.02v-.01h.02v-.01h.01l.11-.05.1-.06.1-.07.1-.07v-.01h.01v-.01h.01l.01-.01v-.01h.01v-.01h.01v-.01h.01v-.01h.01v-.01h.01v-.01h.01v-.01h.01v-.01l.08-.08.07-.09.07-.09.06-.1.05-.1v-.01h.01v-.02h.01v-.02h.01v-.02l.01-.01v-.02l.01-.01v-.02l.01-.01v-.02l.01-.01v-.02l.01-.01v-.02l.01-.01v-.03h.01v-.03h.01v-.03h.01v-.03h.01v-.03h.01v-.05h.01v-.06l.01-.01v-.06h.01v-.67l-.02-.14-.02-.13-.03-.13-.04-.13-.04-.12-.05-.11-.05-.12-.06-.1-.07-.1-.08-.1-.08-.09-.09-.08-.1-.08-.1-.08-.08-.06h-.03v-.01h-.01l-.01-.01h-.01l-.01-.01h-.01l-.01-.01h-.01l-.01-.01h-.02v-.01h-.02v-.01h-.02v-.01h-.02v-.01h-.02v-.01h-.03v-.01h-.03v-.01h-.03v-.01h-.02v-.01h-.03v-.01h-.03v-.01h-.04v-.01h-.04v-.01h-.04v-.01h-.04v-.01h-.04v-.01h-.04v-.01h-.08v-.01h-.08v-.01h-.23l-.02-.01h-.09l-.02-.01h-3.43v-.08Zm2.82 1.32h.21l.13.01h.14l.01.01h.01l.1.03.09.02.07.04.06.04.06.04.04.05.04.06.03.06.03.08.02.09.01.1v.2l-.01.09-.02.08-.03.07-.03.07-.04.06-.04.05-.05.05-.07.04-.07.04-.08.03-.09.03-.1.02-.1.01h-1.63v-1.5h1.32l-.01.03Zm2.4-1.32 2.43 3.7-1.24 2.52h1.65l3.28-6.22h-1.74l-1.2 2.37-1.46-2.37h-1.71Zm8.52 1.28h2.18v-1.28h-2.38l-.17.01-.17.01-.17.02-.15.02-.15.03-.15.04-.14.03-.13.05-.13.05-.13.06-.12.07-.1.07-.11.07-.1.09-.1.09-.09.1-.08.1-.08.11-.07.12-.06.13-.06.13-.05.14-.05.14-.04.15-.04.16-.03.16-.02.17-.02.18-.01.19v.2l-.01.2v.36l.02.17.01.17.03.17.02.16.03.15.04.15.04.14.05.14.05.13.06.13.07.12.07.12.08.1.08.11.1.1.09.09.1.09.11.07.12.08.12.06.13.06.14.06.14.05.15.04.15.03.16.03.17.02.18.02h.18l.18.01h2.24v-1.3h-2.36l-.08-.01-.08-.01-.07-.02-.08-.01-.06-.02-.07-.03-.06-.02-.05-.03-.05-.04-.05-.03-.05-.04-.04-.04-.04-.05-.04-.05-.04-.05-.03-.06-.04-.06-.02-.06-.03-.07-.03-.08-.02-.08-.02-.08-.01-.09-.02-.1-.01-.09-.01-.1-.01-.22-.01-.23v-.26l.02-.24v-.11l.02-.1.02-.1.01-.1.02-.09.03-.08.02-.08.03-.08.03-.06.03-.07.03-.06.04-.05.04-.05.04-.05.04-.04.05-.03.05-.04.05-.03.05-.03.06-.03.07-.02.06-.02.07-.01.08-.02h.08l.08-.01.09-.01h.1Zm4.3-1.28h-1.5v6.22h1.5v-2.5h2.04v2.5h1.5v-6.22h-1.5v2.42h-2.03v-2.42Zm5.22.44-.11.08-.1.09-.1.09-.1.1-.1.1-.08.11-.07.12-.07.12-.07.13-.06.14-.05.14-.04.15-.05.16-.03.16-.03.16-.02.18-.02.18-.02.18v.79l.02.2.03.17.03.18.04.17.05.16.06.16.06.15.07.15.08.13.09.13.1.13.1.11.1.11.12.1.12.09.11.08.12.06.11.06h.01v.01h.02v.01h.02v.01h.02v.01h.02v.01h.01v.01h.02v.01h.02v.01h.02l.01.01h.02l.01.01h.02l.01.01h.02l.01.01h.02l.01.01h.02l.01.01h.02l.01.01h.03v.01h.03v.01h.02v.01h.03v.01h.03v.01h.06v.01h.06l.01.01h.23v.01h2.79v-1.3h-2.43l-.07-.01-.08-.01-.07-.01-.06-.02-.06-.02-.06-.02-.06-.02-.05-.02-.05-.03-.05-.03-.04-.03-.04-.03-.04-.04-.03-.03-.04-.04-.03-.05-.03-.05-.02-.05-.03-.05-.02-.06-.02-.06-.02-.07-.01-.07-.02-.07-.01-.08v-.23h3.46v-1.3h-3.44v-.1l.02-.08.01-.07.02-.07.02-.06.02-.06.02-.06.03-.06.02-.05.03-.05.03-.04.04-.05.03-.04.04-.04.04-.03.04-.04.04-.03.05-.03.05-.03.05-.02.05-.02.06-.03.06-.01.06-.02.07-.01.06-.01.07-.01.15-.01h2.26v-1.3h-2.38l-.18.01-.17.02-.16.02-.16.02-.15.04-.15.04-.14.04-.13.05-.13.06-.13.07-.12.07.05.04Zm7.77 4.49h-.42l-.16-.01-.07-.01-.07-.02-.06-.01-.06-.02-.06-.02-.06-.02-.05-.02-.05-.03-.05-.03-.04-.03-.04-.03-.04-.04-.03-.04-.04-.04-.03-.04-.03-.05-.02-.05-.03-.06-.02-.05-.02-.07-.02-.06-.01-.07-.02-.07-.01-.08v-.09l-.02-.17v-1.13l.02-.16.01-.08.01-.07.02-.07.02-.07.01-.06.02-.06.03-.06.02-.06.03-.05.03-.05.03-.04.03-.05.04-.04.03-.04.04-.03.04-.04.05-.03.05-.03.04-.03.05-.02.06-.02.06-.02.05-.02.07-.02.06-.01.07-.01.07-.01.15-.01h.35v3.62h-.03Zm2.03-3.61h.07l.07.02.06.01.06.02.06.01.06.03.05.02.05.02.05.03.05.03.04.03.04.03.04.04.04.04.04.04.03.05.03.04.03.05.02.05.03.06.02.06.02.06.02.06.02.07.01.07.02.07.01.16v.08l.02 1.03v.19l-.02.08v.08l-.02.08-.01.08-.01.07-.02.06-.02.06-.03.06-.02.06-.03.05-.03.05-.03.04-.03.04-.03.04-.04.03-.04.04-.05.03-.04.03-.05.02-.05.03-.06.02-.06.02-.06.02-.07.01-.06.01-.08.01-.15.02h-.45v-3.63h.35l.15.01Zm-3.85-1-.12.06-.12.07-.11.08-.1.09-.1.09-.1.1-.1.1-.07.1-.08.13-.07.12-.07.13-.05.14-.06.14-.04.15-.05.15-.03.16-.03.17-.02.17-.02.18-.02.19v.79l.02.19.03.18.03.18.04.17.05.16.06.16.06.15.07.14.08.14.09.13.09.12.1.12.11.1.12.1.11.1.12.07.11.07.12.06h.01l.01.01h.01l.01.01h.01l.01.01h.01l.01.01.01.01h.01l.01.01h.01l.01.01h.01l.01.01h.03v.01h.03v.01h.02v.01h.03v.01h.03v.01h.04v.01h.02l.01.01h.02l.01.01h.02l.01.01h.02l.01.01h.02l.01.01h.05v.01h.06v.01h.06l.01.01h1.06v.23h1.5v-.22h1.1v-.01h.08l.01-.01h.05l.01-.01h.04l.01-.01h.04v-.01h.03v-.01h.03v-.01h.03v-.01h.02v-.01h.03v-.01h.03v-.01h.03v-.01h.03v-.01h.03v-.01h.03v-.01h.02l.11-.06.11-.06.12-.07.11-.07.12-.1.11-.1.11-.1.1-.11.1-.13.09-.13.08-.14.07-.14.06-.15.06-.16.04-.16.04-.17.04-.18.02-.18.02-.2.01-.19v-.6l-.02-.18-.02-.18-.02-.17-.03-.17-.04-.16-.04-.15-.05-.15-.05-.14-.06-.14-.06-.13-.07-.12-.08-.12-.08-.11-.09-.1-.1-.1-.1-.1-.1-.08-.11-.08-.12-.07-.13-.06-.13-.06-.13-.06-.14-.04-.15-.04-.15-.03-.16-.03-.16-.02-.17-.02h-.65v-.28h-1.5v.27h-.48l-.18.01-.16.02-.17.02-.15.03-.16.03-.14.04-.14.04-.14.06-.13.06.12-.03Zm8.51.99v4.91h1.55v-4.91h1.92v-1.3h-5.39v1.3h1.92Zm6.73 4.91h.74l.01-.01h.07l.01-.01h.07l.02-.01h.06l.02-.01h.05l.01-.01h.02l.01-.01h.03l.01-.01h.03l.01-.01h.04v-.01h.03l.01-.01h.02l.01-.01h.02l.01-.01h.02l.01-.01h.02v-.01h.03v-.01h.02l.01-.01h.02l.01-.01h.02v-.01h.02l.09-.05h.02v-.01h.02v-.01h.02v-.01h.02v-.01h.01v-.01h.01l.1-.08.1-.08.1-.08.08-.09.08-.1.07-.09.07-.1.06-.11.05-.12.05-.11.03-.13.04-.12.02-.14.02-.13v-.84l-.01-.01v-.04l-.01-.01v-.03h-.01v-.03h-.01v-.03h-.01v-.03h-.01v-.03h-.01v-.03l-.05-.1v-.03l-.01-.01v-.01l-.01-.01v-.01l-.01-.01v-.01l-.01-.01v-.01l-.01-.01v-.01l-.01-.01v-.01l-.01-.01v-.01l-.06-.1-.06-.1-.07-.08-.07-.08-.08-.08-.09-.08-.09-.07-.1-.06-.1-.06-.11-.06h-.02l-.01-.01h-.02l-.01-.01h-.02l-.01-.01h-.02l-.01-.01h-.02l-.01-.01h-.02l-.01-.01h-.01l-.01-.01h-.02l-.01-.01h-.02l-.01-.01h-.02l-.01-.01h-.02l-.01-.01h-.02l-.01-.01h-.05v-.01h-.06v-.01h-.06v-.01h-.08v-.01h-.08v-.01h-2.22v-2.1h-1.5v6.23h2.95l-.08-.08Zm-.14-1.32h-1.32v-1.5h1.74l.11.03.09.02.08.04.07.03.06.05.05.05.05.05.04.06.03.06.02.07.02.08.02.1v.2l-.02.1-.02.08-.02.08-.03.06-.04.06-.05.05-.05.05-.06.04-.08.03-.08.03-.1.02-.11.02h-.39l-.01.04Z"/></g><defs><clipPath id="a"><path fill="#fff" d="M0 0h72v38h-72z"/></clipPath></defs></svg>