<svg viewBox="0 0 65 40" fill="none" xmlns="http://www.w3.org/2000/svg"><g clip-path="url(#a)" fill="#8BA6C3"><path d="m37.08 38.23.14.08-.14-.08Zm-10-1.03Zm-10.08-3.8Zm42.42-1.86Zm-52.34-.86h.05-.05Zm17.98 6.2-.05.03.05-.03Zm35.24-17.52a2.2 2.2 0 0 0-1.41-.96 3.37 3.37 0 0 0-1.87.14c-.16.06-.24.06-.31-.12-.58-1.46-1.76-2.13-3.27-2.3-.42-.06-.86-.01-1.33-.01l.14-.27a9.6 9.6 0 0 1 1.71-2c.46-.4.95-.74 1.58-.85.5-.08.98-.08 1.33.34.35.41.3.89.12 1.36-.08.2-.21.39-.33.6a2 2 0 0 0 1.46-.12c.7-.32.96-.94 1.05-1.73.31.36.4.7.33 1.06-.19.93-.87 1.37-1.73 1.6-.37.1-.76.14-1.2.21l.24.27c1.04 1.1 2.9 1.13 4.17.53 1.52-.7 2.05-2.55 1.73-4-.39-1.7-1.54-2.72-3.17-3.22-2.01-.61-3.88-.15-5.62.93a8.77 8.77 0 0 0-2.84 3.02l-.27.4-.17-.27a4.7 4.7 0 0 0-1.6-1.76 5.8 5.8 0 0 0-5.6-.54 5.68 5.68 0 0 0-3.17 3.59 7.28 7.28 0 0 0-.36 3.09l1.78-.43a3.3 3.3 0 0 0 1.54-.75c.15-.14.27-.3.47-.53l.76 1.92h.03a2.38 2.38 0 0 0 1.74-1.92c.09-.47.05-.97.07-1.46.04-.95.78-1.53 1.67-1.3a1.7 1.7 0 0 1 1.37 1.72c.01.81-.61 1.55-1.45 1.69-.45.07-.92.05-1.41.07l-.4 1.8c.8.18 1.53.03 2.35-.13l-.96 2.16-.27-.25c-.47-.44-1-.75-1.63-.9-1.65-.37-3.01.3-4.34 1.1.31.18.62.33.9.51.28.2.53.42.8.63.48.39 1.03.69 1.65.79.45.07.92.07 1.42.1-.31.3-.58.6-1.03.71a53.03 53.03 0 0 1-24.92 0c-.46-.1-.73-.41-1.1-.76l.56.03a3.6 3.6 0 0 0 2.39-.73c.6-.44 1.14-.98 1.9-1.25a7.62 7.62 0 0 0-2.38-1.1c-1-.25-1.99-.2-2.9.34-.34.2-.63.47-1 .74l-.94-2.12.4.07 1.73.1c.17 0 .21-.09.18-.25-.12-.5-.22-1-.35-1.49-.01-.06-.13-.14-.2-.14-.3 0-.6.04-.9.02a1.82 1.82 0 0 1-1.73-1.42c-.17-.77.22-1.52.99-1.92.73-.37 1.83-.12 1.97.92.04.24.04.49.03.73-.02.54.02 1.06.25 1.55.32.73.9 1.17 1.6 1.36l.74-1.87h.1c.36.58.9.93 1.53 1.12.72.2 1.44.36 2.18.54.07-.82.04-1.66-.18-2.48a6.14 6.14 0 0 0-2.92-4 5.6 5.6 0 0 0-3.7-.58c-1.4.21-2.58.86-3.46 1.97-.24.3-.43.63-.65.97l-.56-.86a7.81 7.81 0 0 0-5.66-3.68 5.42 5.42 0 0 0-4.18 1.07 4.02 4.02 0 0 0-1.31 4.63c.84 2.32 3.9 2.55 5.25 1.57.25-.18.47-.4.7-.6l-.05-.07-.47-.06a3.4 3.4 0 0 1-1.63-.55c-.43-.3-.7-.7-.78-1.2-.07-.4.08-.8.35-.95.27 1.42 1.55 2.3 2.45 1.73-.13-.3-.29-.58-.37-.89-.22-.8.29-1.43 1.13-1.4.37.02.77.1 1.09.26 1.2.64 2 1.67 2.7 2.78v.1c-.44 0-.87-.04-1.29.01-1.5.18-2.67.84-3.25 2.28-.08.2-.16.2-.34.15-.37-.1-.76-.19-1.14-.2-.91-.05-1.63.3-2.15 1.05-1.46 2.13-2.92 4.26-4.4 6.38-.37.51-.37 1-.01 1.46.32.4.7.79 1.13 1.07 1.12.74 2.29 1.41 3.44 2.1.17.11.26.21.21.43-.05.2-.06.43-.07.64a5.3 5.3 0 0 0 1.63 3.83c.05.05.2.1.25.07l1.7-1.19a4.09 4.09 0 0 1-1.57-2.46 7.15 7.15 0 0 1 3.63 3.14c.48-.97.93-1.86 1.36-2.76.1-.2.2-.26.41-.18.53.2 1.06.38 1.6.55.24.08.34.2.32.46-.12 1.76-1.03 2.87-2.9 3.23l-.31.07c.06.14.1.24.16.33.55.89 1.66 1.29 2.8.96.3-.08.42-.02.55.24a3.65 3.65 0 0 0 2.26 1.98c1.63.51 3.17.2 4.64-.55.03-.01.05-.04.07-.06-.4-.24-.78-.45-1.14-.7-.35-.24-.67-.53-1.04-.84 1.42-.33 2.3-1.08 2.27-1.92a2.6 2.6 0 0 1-2.19-.28 3.86 3.86 0 0 1-1.44-1.75 62.06 62.06 0 0 0 28.94 0c-.3.68-.7 1.2-1.24 1.6-.72.56-1.53.67-2.46.42.32 1.2 1.12 1.74 2.3 1.9a7.58 7.58 0 0 1-2.2 1.58c1.16.6 2.32.92 3.6.83a3.93 3.93 0 0 0 3.48-2.32c.09-.18.18-.21.37-.15.59.2 1.18.2 1.76-.02a2.08 2.08 0 0 0 1.32-1.25l-.53-.12c-1.79-.4-2.61-1.61-2.68-3.26 0-.19.06-.28.25-.35a42.9 42.9 0 0 0 1.7-.59c.2-.07.28-.01.36.16l1 2.03.4.77a7.14 7.14 0 0 1 3.62-3.16 4.13 4.13 0 0 1-1.57 2.48c.58.4 1.13.8 1.69 1.17.05.03.2-.02.26-.07a5.19 5.19 0 0 0 1.56-4.54c-.02-.09.07-.24.15-.29 1.01-.63 2.04-1.25 3.06-1.86a4.65 4.65 0 0 0 1.53-1.3c.37-.55.4-1 .02-1.54-1.49-2.13-2.95-4.27-4.42-6.4v-.01Zm3.78 6.59c-.12.47-.43.85-.82 1.11-1.17.79-2.37 1.54-3.56 2.29-.05.03-.14.01-.21.01.05-.07.08-.17.14-.21.8-.51 1.6-1 2.4-1.52.45-.3.88-.61 1.3-.95.2-.17.33-.4.5-.61l.18-.18.07.06Zm-4.8 3.04c.05-.06.07-.15.13-.19l3.86-2.64c.06-.05.14-.08.22-.12l.06.08c-.22.21-.41.47-.66.64-1.11.75-2.23 1.49-3.36 2.22-.06.04-.16.01-.25.01Zm-13.45-6.23a3.3 3.3 0 0 1-2.47-.6c-.42-.3-.82-.62-1.28-.97a4.81 4.81 0 0 1 2.07 0c.65.17 1.28.4 1.83.58a3.33 3.33 0 0 0-1.63-.71c-.63-.09-1.25-.12-1.9-.22.6-.1 1.2-.2 1.87-.33l-1.04.07a3.45 3.45 0 0 1 2.62 0c.85.33 1.5.91 1.97 1.75l.36-.85-.05-.03-.26.44-.07-.03.42-1.02-.04-.02-.45.79-.07-.04 1.22-2.8.08.02-.27.86.07.02.55-1.23.1.04-.58 1.62.06.02 1.03-2.33a5.02 5.02 0 0 1-3.38 1.08 7.38 7.38 0 0 0-.04-.13l.34-.06a3.44 3.44 0 0 0 1.82-.5c-1.34.42-1.83.48-2.1.25.6-.1 1.2-.22 1.79-.33l-.01-.04c-.48.06-.96.12-1.45.16-.08 0-.16-.06-.24-.1.08-.04.17-.1.25-.1.38-.05.75-.09 1.12-.16-.43.02-.86.14-1.29-.02v-.1l.4-.02c.78.01 1.47-.18 2-.77a2 2 0 0 0 .2-2.4 2.14 2.14 0 0 0-2.28-.97c-.68.18-1.09.72-1.13 1.46-.02.56-.03 1.12-.13 1.66-.06.33-.27.63-.4.94-.03 0-.06-.02-.08-.03l.34-1.42h-.03l-.62 1.64c-.04 0-.07-.02-.1-.03.15-.55.34-1.11.23-1.67l-.3 1.44-.11-.01v-1.43h-.04l-.1 1.3h-.13l-.19-1.79h-.03v1.3c-.43-.41-.48-1.13-.16-2.3l-1.76 1.51.04.06 1.18-.9.06.07-1.27 1.18.03.04 1.09-.83.08.08-1.3 1.21.01.03c.17-.1.35-.2.5-.32.18-.12.33-.26.51-.35-.59.98-1.61 1.16-2.64 1.33-.13-.66.4-1.05.64-1.63l-.2.25-.22.25c.63-1.72 2.58-4.28 6.04-3.98a5.04 5.04 0 0 0-4.17.97 7.2 7.2 0 0 0-2.39 3.55l-.09-.02c.05-.32.07-.65.14-.96.48-2.1 1.62-3.67 3.78-4.34 2.29-.7 5.13.22 6.21 2.53.31.65.39 1.33.25 2.03l-.02.19 2.13-3.38-.06-.05-1.58 2.24-.07-.04c.55-1.1 1.22-2.12 2.01-3.07-.82.73-1.4 1.64-2.03 2.52v-.16a8.96 8.96 0 0 1 3.21-3.61 6.93 6.93 0 0 1 3.43-1.05c1.67-.06 3.47.67 4.31 2.22a3.56 3.56 0 0 1-.37 3.92 3.1 3.1 0 0 1-2.09.98 2.5 2.5 0 0 1-1.5-.24h.74a3.45 3.45 0 0 1-1.38-.33c.99-.12 1.84-.45 2.31-1.36.5-.97.13-1.74-.7-2.44.55.02 1.07.66 1.15 1.25.07.58-.08 1.12-.33 1.62.87-1.39.7-2.52-.96-3.3 1.1-.2 1.92 1.3 1.62 2.8.32-.69.32-1.38-.06-2.05-.4-.7-1.04-1.02-1.88-1.09.35.94.52 1.84-.22 2.64-.3.33-.76.47-1.1.4.07-.17.17-.33.22-.5.34-1.13-.58-2.1-1.77-1.9-.58.09-1.1.3-1.55.66a9.5 9.5 0 0 0-2.65 3.23l-.03.08c.6-.05 1.21-.17 1.8-.14a3.5 3.5 0 0 1 2.9 1.59l.03.05c.37.6.36.63-.23 1l-.86.57-.35-1.22-.08.03c.28 1.05.27 1.36-.11 1.47.07-.56.08-1.11-.28-1.56.05.33.16.7.14 1.05-.02.33 0 .75-.53.95.4-.8.44-1.5-.07-2.18.28.6.35 1.2.04 1.8-.35.64-.96.8-1.66.82l.7.05.03.06-.95.47c-.04.02-.14 0-.17-.05-.23-.28-.34-.6-.35-.97.27.07.5.15.72.2.96.18 1.85-.69 1.67-1.63a1.77 1.77 0 0 0-1.74-1.47c-1.17-.03-1.08-.13-1.63.9-.54 1.03-1 2.1-1.51 3.14-.2.4-.45.76-.66 1.15-.2.4-.6.44-1.03.55l.3-.61-.02-.02c-.2.25-.38.5-.57.76l-.1-.06.49-.82c-.5.1-1 .23-1.51.3Zm5.67-1.13-2.78 1.13c.04-.14.05-.2.08-.24l1.84-3.76c.07-.13.15-.25.2-.39.2-.5.57-.63 1.1-.59.75.06 1.28.4 1.45 1.02.15.53-.03 1.04-.45 1.29a1.3 1.3 0 0 1-1.5-.17c-.05-.05-.08-.11-.16-.15-.23.64-.16 1.25.22 1.86Zm-5.23 1.83.65-.73.09.07c-.24.23-.28.63-.74.65Zm-37.62-4.96a3.1 3.1 0 0 1 1.88-1.79c.9-.35 1.8-.37 2.71-.14l.27.07h.1l-.23-.47a9.26 9.26 0 0 0-2.54-2.94 2.83 2.83 0 0 0-2.1-.61c-1.08.14-1.52 1.36-1.02 2.2l.13.22c-.51.02-.94-.14-1.21-.5-.66-.82-.51-1.7-.12-2.6-.96.1-1.72.51-2.07 1.44-.24.62-.19 1.26.15 1.85-.42-1.52.33-3 1.57-2.95-.12.09-.18.16-.25.19-1.3.41-1.66 2.2-.64 3.2a2.53 2.53 0 0 1-.4-1.66c.07-.6.57-1.22 1.13-1.29-.49.48-.92.92-.91 1.57a2 2 0 0 0 .8 1.6c.5.4 1.1.57 1.73.64-.43.23-.89.32-1.36.35h.73l.02.08c-.38.07-.75.18-1.13.18a3.5 3.5 0 0 1-1.89-.5 2.97 2.97 0 0 1-1.35-2.26c-.32-2.28 1.48-4 3.53-4.3 2.78-.4 4.93.73 6.63 2.8.43.51.76 1.12 1.13 1.69.04.06.05.15.04.24-.6-.8-1.1-1.65-1.85-2.33.71.9 1.32 1.87 1.84 2.88l-.08.04-1.64-2.33-.06.04 2.2 3.47a3.31 3.31 0 0 1 .04-1.73 4.56 4.56 0 0 1 3.45-3.05c3.28-.81 5.89 1.15 6.65 4.08.11.4.15.83.22 1.25l-.09.02-.4-.99a6.43 6.43 0 0 0-2.4-2.84 5.15 5.15 0 0 0-3.63-.73l-.2.08a5.45 5.45 0 0 1 4.32 1.35c.79.71 1.4 1.56 1.75 2.57l-.34-.42s-.02 0-.03.02l.76 1.28-.23-.05.14.3c-1.15-.08-2.36-.5-2.7-1.34l1.09.77.04-.05c-.24-.2-.48-.38-.7-.59-.23-.2-.44-.43-.65-.65l.06-.07 1.07.81.04-.04-1.3-1.18.06-.06c.42.3.83.62 1.25.93l.04-.05-.06-.06a63.6 63.6 0 0 0-1.74-1.45c.33.77.31 1.5-.16 2.23v-1.28h-.05l-.18 1.8h-.13l-.1-1.32a.7.7 0 0 1-.05 0v1.36h-.13c-.1-.47-.2-.94-.28-1.39-.11.53.06 1.07.2 1.62l-.11.03-.57-1.55h-.03l.34 1.45c-.34-.35-.5-.76-.56-1.2a9.03 9.03 0 0 1-.06-1.17c0-.7-.17-1.3-.88-1.6-.75-.31-1.45-.13-2.05.36a1.97 1.97 0 0 0-.64 2.33c.3.78 1.14 1.34 2.07 1.36.23 0 .46 0 .69.06-.43.23-.86.09-1.29.04v.08l1.12.11c.09.02.17.08.26.11-.08.04-.17.1-.25.1-.48-.04-.96-.1-1.44-.16.28.08.57.18.87.24.3.05.6.06.93.1-.17.16-.86.1-2.06-.19.61.45 1.37.43 2.09.57-.61.15-1.2.08-1.75-.14-.55-.21-1.07-.52-1.65-.8l1.02 2.3.06-.03-.6-1.63.1-.04.64 1.4.05-.02-.33-1.02c.03 0 .05-.02.08-.03l1.23 2.8c-.03 0-.05.02-.07.03l-.46-.77-.03.01.41 1.02-.06.03-.38-.65-.03.01.45 1.07a3.84 3.84 0 0 1 2.58-1.93 3.3 3.3 0 0 1 2.02.18l-1.07-.06 1.93.33v.09c-1.15 0-2.32-.01-3.3.72a6.36 6.36 0 0 1 3.65-.47c-.27.2-.48.37-.7.52-.47.3-.92.65-1.42.87-.9.4-1.82.25-2.73-.02l-.45-.14.52.86-.09.06-.59-.74-.02.01.32.62c-.4-.14-.78-.1-.97-.47l-1.64-3.16-.91-1.75c-.15-.27-.37-.38-.69-.38-.5 0-1 0-1.46.23-1.08.52-1.25 2-.3 2.65.46.33.96.32 1.48.12l.3-.13c0 .42-.13.73-.34 1-.04.05-.14.08-.18.06-.32-.14-.63-.3-.93-.53l.7-.05c-.64 0-1.2-.17-1.57-.68-.36-.51-.35-1.09-.16-1.68-.34.32-.34.9-.07 1.9-.1-.1-.24-.2-.29-.33-.2-.48-.19-.97-.01-1.46.02-.07.06-.14.06-.21-.39.46-.4 1-.3 1.58-.27 0-.32-.2-.3-.36.02-.37.08-.74.1-1.13l-.36 1.18-.24-.12c-.3-.2-.59-.4-.9-.58-.21-.11-.22-.24-.15-.43Zm10.1 4.95c-.3.02-.55-.23-.66-.71l.65.71Zm-4.99-3.73c-.31.39-.7.56-1.17.53-.47-.03-.81-.27-.96-.71-.17-.5-.06-.95.3-1.3.5-.48 1.13-.52 1.77-.4.11.01.23.16.28.27.36.67.7 1.34 1.03 2.02.42.84.82 1.69 1.28 2.63l-2.79-1.13c.4-.62.43-1.23.26-1.91Zm-11.14 7.67c.9.59 1.8 1.15 2.71 1.73l.22.2-.1.11c-.34-.2-.69-.38-1.02-.58-1.03-.64-2.1-1.22-2.98-2.06a1.76 1.76 0 0 1-.54-.93c.1.06.18.08.2.12.35.63.93 1.03 1.5 1.4Zm-1.14-1.3.05-.05.29.19 3.71 2.53.08.05.1.2c-.07 0-.15.01-.2-.02-.44-.25-.87-.5-1.28-.78-.84-.59-1.67-1.2-2.5-1.81-.1-.08-.17-.2-.25-.3Zm3.67 4.08-.2-.1c-1.08-.66-2.17-1.3-3.24-1.97-.47-.3-.93-.62-1.2-1.13-.07-.14-.11-.3-.17-.45l.09-.04c.65 1.17 1.88 1.66 2.93 2.35.55.36 1.13.67 1.69 1 .12.08.25.15.1.34Zm-.02-.45c-1.25-.8-2.52-1.56-3.74-2.4-.33-.22-.52-.65-.76-.99-.05-.07-.04-.18-.06-.27h.05c.17.22.32.47.5.69.7.77 1.64 1.24 2.51 1.8.53.34 1.07.65 1.6.98.06.04.07.13.1.2-.06 0-.15.02-.2-.01Zm2.82 4.45-.07.08c-.09-.05-.2-.07-.26-.14-.33-.38-.64-.76-1.01-1.12l.94 1.44c-.49-.2-.75-.63-1.03-1.03l-.07.05.81 1.2-.07.05a4.2 4.2 0 0 1-1.1-1.28l-.07.05.7 1.07c.03.05.09.09.1.14.03.08.04.16.05.24-.07-.03-.18-.04-.21-.09-.33-.5-.7-.96-.94-1.5a4.3 4.3 0 0 1 .19-3.9c.05-.1.14-.2.2-.3l.12.04c-.39.75-.7 1.51-.65 2.37a4.9 4.9 0 0 1 .87-2.2l-.59 1.88.1.03c.18-.63.35-1.25.8-1.76a4.72 4.72 0 0 0-.52 2c.09-.3.17-.65.3-.98.12-.31.3-.6.46-.9l.16.02c-1.07 1.75-.5 3.21.8 4.54Zm3.72-2.26-1.05 2.11-.07.04-.14-.16a6.98 6.98 0 0 0-2.7-2.24c-.2-.1-.4-.2-.58-.32-.08-.05-.11-.17-.13-.3 1.19.57 2.37 1.1 3.2 2.18-.14-.4-.52-.86-1.07-1.2-.6-.36-1.21-.7-1.81-1.04-.07-.03-.14-.05-.18-.1a.22.22 0 0 1-.04-.1l-.02-.1a.6.6 0 0 0 .05 0c.05-.02.1-.03.13-.01 1.13.6 2.3 1.12 3.12 2.19-.14-.43-.6-.94-1.2-1.29-.59-.35-1.2-.67-1.8-1-.11-.07-.28-.12-.09-.33 1.14.63 2.38 1.13 3.24 2.18a2.85 2.85 0 0 0-1.08-1.14c-.53-.33-1.08-.64-1.62-.96-.1-.05-.2-.1-.28-.16-.06-.06-.08-.15-.12-.22.08 0 .17-.02.23.01.4.2.8.43 1.19.64.75.4 1.42.9 1.93 1.59l.07-.05-.91-1.1c.45.07.72.37 1 .68l-.17-.36c.34.14.61.24.87.37.04.01.06.14.03.2Zm7.31 3.58a2.8 2.8 0 0 0 1.8.66l.3.02.03.1c-.11.05-.23.13-.35.13a2.93 2.93 0 0 1-1.56-.37c.44.37.96.52 1.54.53l.03.1c-.1.03-.23.12-.32.1-.48-.11-.97-.25-1.47-.37l1.26.6c-.55.23-.89-.21-1.33-.32l.63.48c-.77.09-.9-.6-1.4-.84.19.33.35.69.58 1 .24.31.52.6.8.87.3.27.64.5.96.76-.46.06-1.74-.74-2.42-1.53a6.7 6.7 0 0 1-1.32-2.56c-.03.4.22 1.26.53 1.82.32.59.7 1.14 1.24 1.53.53.38 1.12.68 1.67 1-.17 0-.4.02-.6 0-.22-.01-.44-.05-.67-.04l.96.24c-1.62.93-4.67-.36-5.06-2.17.29.36.52.7.81.98.3.3.67.52 1.04.74a4.07 4.07 0 0 1-1.6-1.93c.41.62.92 1.14 1.6 1.48a3.93 3.93 0 0 1-1.4-1.79l1.12 1.21.07-.05c-.45-.55-1.08-1-1.06-1.85-.36.52-.74.97-1.36 1.16-.6.18-1.17.14-1.73-.19l1.18-.1-1.37-.1v-.11a3.1 3.1 0 0 0 1.59-.31c.14-.08.28-.17.41-.28-.7.33-1.41.55-2.21.38a4.1 4.1 0 0 0 2.05-1.37c.51-.7.7-1.5.72-2.35l.11-.02c.05.09.14.19.12.27-.1.57-.22 1.14-.34 1.71-.02.1-.08.2-.12.3.49-.63.6-1.37.62-2.12.3-.03.28.15.26.31-.07.43-.14.85-.15 1.28l.35-1.45c.17.03.2.05.16.26-.08.49-.17.98-.2 1.48l.42-1.68c.23.06.5.12.74.2.07.03.11.15.13.23l.35 1.38c.02 0 .05 0 .08-.02l-.26-1.27c0-.05.02-.1.04-.15l.01-.05.05.04.04.03c.03.03.06.06.07.09.18.48.35.97.58 1.43l-.43-1.47.12-.06c.07.08.16.15.2.25a5 5 0 0 0 1.36 1.77Zm32-.48a3.4 3.4 0 0 0 1.78 1.3c.11.04.22.1.33.16a3.33 3.33 0 0 1-2.26-.43c.6.5 1.3.68 2.07.64v.1c-.37.03-.73.07-1.1.12v.03l.9.05c-.28.31-1.05.4-1.72.2-.63-.18-1-.65-1.36-1.16.01.88-.63 1.33-1.1 1.9.14-.1.3-.21.43-.34.14-.13.29-.27.41-.42.13-.15.23-.31.38-.44a3.8 3.8 0 0 1-1.4 1.77 4 4 0 0 0 1.6-1.47 3.9 3.9 0 0 1-1.6 1.9c.8-.34 1.37-.93 1.83-1.65-.24.8-.73 1.41-1.46 1.82a4.39 4.39 0 0 1-3.55.3l.94-.23a.5.5 0 0 1-.01-.03l-1.28.11-.05-.09a5.06 5.06 0 0 0 3.52-4.24c-.6 1.96-1.76 3.43-3.83 4.1 1.01-.73 1.95-1.52 2.34-2.75-.22.24-.44.47-.65.72-.17.2-.37.23-.65.15l.7-.54c-.51.16-.86.65-1.42.4l1.26-.6a2.66 2.66 0 0 0-.04-.08c-1.21.54-1.53.6-1.74.27.21-.03.42-.05.62-.1.18-.03.37-.1.55-.16l-.01-.08-.18.02c-.34.05-.69.11-1.03.14-.1 0-.21-.1-.32-.14l.03-.08c.29-.03.58-.03.86-.09 1.06-.23 1.75-.94 2.3-1.8.12-.2.2-.4.32-.6.05-.08.13-.15.2-.22l.11.06-.38 1.36.04.01.32-.77c.11-.25.08-.55.3-.75l.1.03c-.04.27-.07.54-.13.81-.05.27-.13.53-.2.79l.08.02c.13-.5.28-.99.39-1.49.03-.17.1-.25.27-.3l.62-.15.4 1.69.07-.02c-.09-.47-.18-.94-.25-1.42-.01-.11.04-.23.06-.35l.09.02.35 1.47.06-.02-.2-1.24c-.02-.16-.07-.34.24-.35a4 4 0 0 0 .6 2.16c-.12-.4-.25-.8-.34-1.2a4.79 4.79 0 0 1-.09-.83c0-.08.09-.17.14-.25.04.08.1.16.11.24.03.73.22 1.4.64 2.02Zm-5.5-1.41c-1.68.35-3.37.6-5.06.86-2 .3-4 .47-6.01.47-1.75.01-3.5.01-5.23-.06a57.07 57.07 0 0 1-14.52-2.56 41.4 41.4 0 0 1-11.22-5.35c-.37-.26-.73-.56-1.1-.81-.4-.28-.82-.54-1.27-.82l.49-.74c1.1-1.6 2.24-3.17 3.3-4.8.67-1.04 1.65-1.25 2.78-.96.77.2 1.38.67 2.02 1.1a31.36 31.36 0 0 0 7.48 3.5 41.3 41.3 0 0 0 7.13 1.68c1.53.22 3.06.4 4.6.48a53.56 53.56 0 0 0 10.32-.27 42.7 42.7 0 0 0 7.51-1.53c3.17-.93 6.2-2.2 8.93-4.05a5.63 5.63 0 0 1 1.83-.93c.58-.14 1.18-.2 1.73.1.26.13.54.32.7.56 1.34 1.9 2.65 3.82 3.97 5.74l.11.19c-1.07.33-1.78 1.15-2.66 1.74a40.5 40.5 0 0 1-6.56 3.55 49.1 49.1 0 0 1-9.28 2.9Zm12.35-2.23c-.53.3-1.07.57-1.58.9-.65.4-1.14.98-1.6 1.57l-.23.27-1.17-2.36.94-.37-.12.36c.43-.42.76-.65 1-.69l-.9 1.06.06.06c.77-1.09 1.98-1.6 3.1-2.21.06-.04.17 0 .26 0-.05.07-.08.18-.15.22-.62.37-1.26.72-1.88 1.1-.48.3-.87.7-1.16 1.21.31-.3.57-.61.9-.82.74-.49 1.51-.92 2.28-1.36.05-.03.14.01.22.02-.04.07-.07.16-.12.2-.6.34-1.23.67-1.82 1.02-.5.3-.9.67-1.17 1.18.8-.95 1.9-1.46 2.97-2.01.07-.04.18-.02.28-.02-.06.08-.09.18-.16.23-.64.37-1.29.72-1.91 1.1-.46.28-.83.66-1.06 1.16.82-1.05 2-1.58 3.16-2.18.13.21 0 .28-.14.36Zm1.16 2.57c-.18.31-.42.6-.64.88-.05.06-.16.08-.24.11l-.03-.07.94-1.46-.07-.05c-.3.51-.64.99-1.12 1.35l-.08-.06.81-1.2-.07-.05c-.28.41-.56.83-.98 1.1l-.06-.05.94-1.44h-.03l-1.15 1.23c0 .02-.06-.01-.15-.04l.27-.32c.67-.76 1.15-1.6 1.06-2.63-.04-.44-.24-.86-.38-1.28-.03-.1-.08-.2-.08-.31.49.52.67 1.17.83 1.87.01-.75-.24-1.4-.57-2.02l.17-.06.74 1.8h.04c-.2-.64-.4-1.27-.61-1.99l.27.42c.34.6.5 1.23.62 1.87a4.14 4.14 0 0 0-.44-1.94 7.85 7.85 0 0 0-.21-.42l.1-.05.2.25a4.43 4.43 0 0 1-.08 4.56Zm.84-4.45c.79-.49 1.59-.95 2.36-1.46.52-.33 1.02-.7 1.48-1.09.25-.2.4-.5.6-.76l.1-.15.1.04c-.08.2-.12.41-.24.56-.3.36-.6.75-1 1-1.08.72-2.2 1.38-3.31 2.07l-.2.09c-.17-.18.01-.24.11-.3Zm4.54-2.34c-.34.35-.7.7-1.1.97-1.05.67-2.13 1.3-3.19 1.94l-.23.11c-.16-.2 0-.27.12-.35 1-.6 2.02-1.2 3.01-1.82.64-.4 1.24-.83 1.59-1.52l.1.05c-.1.21-.15.46-.3.62Z"/><path d="M27.43 9c-.38-.07-.77-.07-1.23-.12.37.43.7.79 1.01 1.17.1.13.2.3.2.47v11.26c0 .16-.1.34-.2.47-.3.38-.63.74-.98 1.14.74-.05 1.41-.17 2.07-.11 1.29.1 2.56.32 3.84.45a10 10 0 0 0 3.44-.2c1.68-.4 2.85-1.33 3.16-3.09a3.37 3.37 0 0 0-2.36-3.87c-.9-.3-1.83-.28-2.76-.33-.06 0-.15.01-.19.06l-.98 1.08c.16-.02.24-.02.31-.04.37-.08.74-.2 1.11-.25.19-.03.4-.02.58.05 1.74.68 1.7 2.64 1.02 3.66a3 3 0 0 1-1.9 1.2c-.8.18-1.62.2-2.45.11-.43-.04-.45-.04-.45-.46v-10.74c0-.65 0-.68.66-.74.93-.1 1.85-.05 2.71.33a2.33 2.33 0 0 1 1.52 2 2.34 2.34 0 0 1-1.22 2.43.66.66 0 0 1-.44.06c-.48-.1-.95-.22-1.51-.35.32.36.56.67.85.94.12.12.31.2.49.21.31.03.64 0 .96 0a3.35 3.35 0 0 0 3.09-2.38 3.53 3.53 0 0 0-1.16-3.82c-.91-.7-1.96-1-3.1-1.06-1.46-.06-2.9.17-4.33.38-.58.08-1.16.21-1.76.1Zm-13.32 3.01.22-.18 1.7-1.2c.4-.26.81-.48 1.18-.76.7-.56 1.1-1.27 1.14-2.18l-1.18.36c.56-1.6-.03-2.89-.85-4.18-.42.68-.95 1.2-1.57 1.62-.75.54-1.45 1.11-1.74 2.03h-.1l-.17-1.23c-.78.82-1.1 1.73-.87 2.78.3 1.3 1.28 2.11 2.24 2.94Zm-1.73-4.68c.02-.05.06-.08.12-.18.12.7.36 1.27 1.01 1.6l.57-1.25-.03-.03-.64 1.02c.1-.76.51-1.35 1-1.9-.57.38-.87.95-1.2 1.54v-.2a2.9 2.9 0 0 1 1.17-1.73c.6-.45 1.26-.84 1.73-1.45.01-.02.05-.02.1-.04a4.14 4.14 0 0 1-.49 1.62c-.38.74-.78 1.48-1.12 2.24-.19.4-.28.84-.37 1.28.37-1.17 1.09-2.17 1.64-3.26.26-.52.48-1.05.52-1.64 0-.05.03-.1.05-.17.72.95.82 2.73.25 3.28l.1-1.6-.04.02c-.07.6-.12 1.22-.47 1.77l.23-1.55c-.21.61-.23 1.3-.68 1.89l1.7-.3.04.04-1.09.78.02.03.89-.46.05.06-.74.65.03.05.76-.5.05.04c-.07.08-.11.18-.2.25-.46.35-.92.71-1.4 1.04-.54.38-1.09.73-1.64 1.08-.1.06-.28.1-.33.05a4.56 4.56 0 0 1-1.65-2.12c-.21-.66-.2-1.31.06-1.95Zm34.4 1.11c.31.93 1.02 1.51 1.84 2 .56.33 1.1.69 1.64 1.05.22.14.4.34.6.5a6.99 6.99 0 0 0 1.89-1.97 2.9 2.9 0 0 0-.5-3.73l-.16 1.22-.1.02a3.1 3.1 0 0 0-1.21-1.64c-.78-.59-1.57-1.15-2.1-2.02-.81 1.3-1.42 2.6-.84 4.19l-1.22-.39c.06.3.09.54.16.76Zm.68-.16 1.72.3c-.45-.59-.47-1.26-.69-1.88l.23 1.55c-.35-.55-.4-1.18-.46-1.8l-.1.01.18 1.6c-.58-.48-.5-2.3.24-3.3l.08.53c.14.8.57 1.5.97 2.2.46.83.94 1.66 1.17 2.6a5.64 5.64 0 0 0-.66-2.13c-.38-.77-.77-1.52-1.13-2.3-.13-.28-.17-.61-.27-1l.21.13c.47.4.9.83 1.4 1.2.69.51 1.28 1.09 1.44 1.97a.3.3 0 0 1-.04.18 3.73 3.73 0 0 0-1.3-1.69 3.6 3.6 0 0 1 1.13 2.04l-.52-.89-.06.03.48 1.12c.65-.32.91-.88 1.04-1.55.27.44.33.9.3 1.38a3.5 3.5 0 0 1-1.26 2.36c-.2.19-.41.48-.64.5-.2.02-.43-.28-.65-.42-.62-.39-1.26-.76-1.87-1.17-.28-.18-.52-.43-.77-.66-.05-.04-.08-.12-.11-.18l.03-.03.9.55.01-.02-1-.83.05-.07.87.47.03-.04-.98-.7.03-.06Zm-15.25 28.99c-.62 0-.99.38-.99 1.03s.4 1.07 1.02 1.06c.56 0 .95-.42.96-1.02 0-.68-.36-1.08-.99-1.07Zm.44 1.65c-.07.13-.25.28-.4.28a.55.55 0 0 1-.43-.22 1.51 1.51 0 0 1-.03-1.36c.15-.32.62-.33.8 0 .11.2.13.46.19.65-.05.25-.04.48-.13.65Zm-4.59-1.46c0 .37-.05.74-.09 1.12-.18-.2-.3-.4-.42-.6l-.37-.63a.96.96 0 0 0-.1-.14.42.42 0 0 0-.38-.16l-.24.05c.27.24.18.53.13.8l-.03.19c-.03.32.14.73-.35.97l.58.03c-.04-.2-.09-.4-.1-.58 0-.27.04-.53.06-.8l.04-.3c.45.65.73 1.31 1.18 1.87l.13-.06c.02-.39.04-.78.08-1.16.04-.29-.06-.63.28-.86h-.56c.06.1.17.18.16.26Z"/><path d="M26.47 37.1c.26.24.17.53.12.8.05-.27.14-.56-.13-.8Zm3.98 1.57-.08.02c-.24-.37-.5-.73-.7-1.12-.2-.34-.45-.4-.8-.32.26.29.21 1.66-.08 1.98h.55c-.07-.1-.18-.18-.18-.26 0-.45.04-.9.06-1.42l1.04 1.58c.06.09.16.15.24.22l.08-.05c.02-.42.05-.85.06-1.28.01-.26-.05-.54.33-.72h-.67c.4.45.06.93.15 1.37Zm2.05-38.67a19.47 19.47 0 0 0 0 5.34 19.1 19.1 0 0 0 0-5.34Zm8.58 37.86c-.1-.09-.23-.15-.37-.24.34-.34.4-.58.2-.78-.23-.2-.73-.2-.97.05-.08.08-.18.24-.15.32.09.22.24.42.38.64-.05.05-.14.12-.2.21-.22.27-.15.57.18.68a1 1 0 0 0 .94-.14c.24-.18.22-.56-.01-.74Zm-.96-.74c.03-.11.16-.25.27-.27.2-.05.33.14.34.5-.04.03-.1.18-.2.21-.16.05-.46-.26-.4-.44h-.01Zm.46 1.55c-.21.02-.39-.2-.38-.57.04-.04.12-.21.22-.23.21-.04.5.27.5.47 0 .21-.14.32-.34.33Zm3.49-33.81a20.14 20.14 0 0 0-3.8 3.7 20.86 20.86 0 0 0 3.8-3.7Zm-17.8-3.44c.18 1.09 1.62 4.4 2.05 4.78a21.84 21.84 0 0 0-2.05-4.78Zm-1.51 7.12a22.5 22.5 0 0 0-3.81-3.7c.64 1 3.1 3.36 3.8 3.7Zm13.97-7.15a23.06 23.06 0 0 0-2.06 4.87c.59-.7 2.12-4.33 2.06-4.87Zm-13.53 35.68c-.02-.05-.06-.1-.1-.15l-.04-.04-.05.03-.14.13c-.05.05-.07.12-.1.18l-.9 1.57.54.06c-.34-.26-.14-.53 0-.57.2-.08.5-.04.71.04.16.06.11.45-.04.61l.72.08c-.08-.17-.16-.3-.2-.44l-.4-1.5Zm-.7.98.38-.77.06.02.17.83-.61-.08Zm12.29-.95c-.29.03-.49.16-.58.43a.56.56 0 0 0 .16.64c.21.2.47.19.72.06-.46-.17-.62-.38-.52-.74.03-.11.15-.26.25-.27.1-.02.26.1.31.2.14.26.17.55-.04.8v.01l.13.08c-.06.16-.1.34-.2.48-.1.14-.26.24-.41.38.72-.06 1.15-.93.98-1.51-.12-.43-.35-.6-.8-.56Zm.29 1.14.01-.01Zm-1.55.48-.08-1.55-.67.31.02.04.29-.02c.02.11.04.22.04.32.02.3.01.59.04.88.02.21.05.4-.24.49l.04.07.85-.05.04-.09c-.34 0-.32-.2-.33-.4Zm-.34-35.74a5.7 5.7 0 0 0-.56 2.76 6 6 0 0 0 .56-2.76Zm-5.38-.01c-.02.96.15 1.89.57 2.77a5.6 5.6 0 0 0-.57-2.77Zm-3.35 4.33a5.79 5.79 0 0 0-1.59-2.3c.35.9.86 1.67 1.6 2.3Zm15.12 2.93a6.07 6.07 0 0 0 2.37-1.55 5.9 5.9 0 0 0-2.37 1.55Zm-1.46-5.22a5.57 5.57 0 0 0-1.55 2.27 5.66 5.66 0 0 0 1.55-2.27Zm-16.67 5.18a7.2 7.2 0 0 0-2.4-1.54c.43.6 1.89 1.54 2.4 1.54Zm9.29 5.54c-.06-.08-.22-.17-.28-.14-.28.12-.54.28-.85.46l.6.33c.36.2.35.2.67-.15.24-.26-.03-.36-.14-.5Zm6.09 22.1c-.06-.01-.1-.1-.14-.16l-.2.2-.07.08c.55.14.72.32.62.61-.04.1-.14.27-.21.27-.21 0-.43-.06-.66-.1-.06.16.01.27.22.28.16 0 .34 0 .5-.04.36-.1.52-.31.5-.64-.02-.29-.18-.43-.56-.5Zm-.14-.16-.2.2.2-.2Zm.01 0h-.02v-.01.01h.01Zm.53-.69-.06-.08-.82.09c-.44.03-.48.1-.25.51.18-.28.4-.36.73-.26l-.13.4.53-.66Z"/><path d="m38.69 37.67.01-.04-.02.03v.01Zm.68-6.84-.02-.2-.17-1.82c.25-.05.41-.13.26-.41-.36.02-.72.04-1.08.08-.05 0-.13.11-.13.18 0 .06.08.17.13.17.35 0 .25.17.12.33l-.9 1.13-.28.31c-.03-.11-.07-.17-.07-.24-.04-.4-.08-.82-.1-1.23 0-.06.1-.12.15-.19.05-.07.1-.16.1-.24 0-.04-.13-.11-.2-.11-.27 0-.56.02-.83.07-.07 0-.16.1-.17.18-.01.05.1.12.16.18.06.07.17.13.18.2l.18 1.84c.02.21.02.39-.29.36 0 .18-.08.37.18.35.35-.02.7-.07 1.04-.1.02-.18.06-.34-.19-.35-.03 0-.1-.19-.07-.23l1.2-1.53c.04.03.07.04.07.06.06.48.11.96.15 1.45 0 .05-.06.13-.11.14-.26.06-.16.22-.14.39l1.18-.12v-.35c-.3.07-.36-.06-.35-.3Zm-18.64-3.34c-.58-.16-1.17-.29-1.79-.44l-.08.3.1.02c.05.12.16.25.14.35a40 40 0 0 1-.46 1.88c-.02.07-.12.11-.19.16l-.23.16c.07.07.12.18.2.2.5.14 1.02.25 1.53.36.15.03.3.02.45.01.32-.03.54-.2.66-.49.12-.3.1-.59-.13-.84l-.12-.17c.39-.15.58-.42.56-.8-.02-.39-.3-.6-.64-.7Zm-.78 2.61c-.37 0-.77-.16-.72-.3.1-.28.05-.64.29-.86.7.1.99.24.98.64 0 .31-.24.53-.55.53Zm.2-1.4c-.15-.13-.58.07-.56-.3.02-.24-.07-.67.3-.72.48-.07.86.23.86.55 0 .3-.23.48-.6.47Zm-12.07-4.77c-.23-.17-.47-.32-.75-.5l.48-.73.91.58-.14.3.32.21.4-.6-1.03-.64-1.02-.63c-.12.13-.27.23-.06.4.03.02.04.14.01.19l-1.2 1.84-.32-.1-.17.28c.55.34 1.07.69 1.62.99.18.1.43.12.63.09.4-.07.63-.35.72-.73.1-.41-.1-.71-.4-.95Zm-.54 1.16c-.44.16-.7-.2-1.05-.38l.63-.98c.32.28.79.34.8.82a.53.53 0 0 1-.38.54Zm7.66.8c-.2-.06-.38-.15-.56-.22l-1.8-.7-.13.32.4.2c-.24.47-.46.94-.71 1.4a.97.97 0 0 1-.8.5c-.2.02-.21.15-.18.27.03.08.14.18.22.19.33.03.6-.08.86-.3.4-.33.6-.78.81-1.24.33-.72.34-.72 1.06-.33 0 0 0 .02.03.05l-.07.23-.69 1.68c-.08.21-.19.28-.48.13.04.2.02.38.09.4.32.16.65.28 1 .42l.12-.32-.27-.17c.26-.61.52-1.22.76-1.83.09-.22.17-.39.44-.28.17-.2.13-.33-.1-.4Zm1.43.51-.27.05c-.72.2-.98.76-1.13 1.38-.16.66.03 1.19.49 1.49.6.39 1.27.42 1.76.07.37-.25.56-.63.68-1.04.32-1.08-.33-1.94-1.53-1.95Zm.58 2.45c-.18.33-.53.42-.86.32-.38-.13-.63-.4-.56-.8.08-.4.22-.8.41-1.17.18-.35.52-.43.87-.33.38.11.55.37.55.78.03 0 .05.02.08.03-.16.4-.3.8-.5 1.17Zm4.79-.96c-.01.08.05.16.1.24.03.08.13.17.12.24-.1.64-.21 1.27-.34 1.9-.01.08-.1.19-.17.19-.27.01-.23.18-.22.37.66.1 1.31.2 1.96.33.6.1.6.11.73-.47.06-.32.01-.37-.35-.3a.38.38 0 0 0-.05.15c0 .24-.12.3-.35.24-.25-.06-.51-.09-.77-.14-.07-.02-.18-.1-.18-.14.04-.31.1-.62.16-.95.22.04.38.08.55.1l.48.08c.14-.27.1-.4-.2-.4-.25-.01-.5-.08-.77-.12.04-.26.1-.48.12-.7.01-.19.1-.23.27-.2.27.04.54.07.8.14.07.01.14.13.16.21.02.08-.02.17-.05.28.17.03.34.2.43-.06.07-.22.07-.45.11-.7-.8-.14-1.58-.28-2.36-.4-.06-.01-.19.07-.19.1Zm20.5 2.31c0 .07-.03.14 0 .2.08.29-.1.34-.32.36-.2.02-.42.04-.62.09-.24.06-.32-.02-.36-.24-.16-.8-.16-.8.66-.89.14-.01.3.02.28-.2-.02-.23-.18-.18-.33-.16l-.78.13c-.04-.29-.1-.53-.11-.77 0-.06.06-.17.11-.18.35-.07.7-.12 1.06-.17.03.13.03.22.08.29.05.07.16.17.21.16.08-.02.18-.14.17-.21 0-.22-.06-.44-.1-.67l-2.38.35c-.06.01-.16.1-.15.13.02.09.09.23.13.23.27 0 .25.16.27.33l.1.55.2 1.4-.28.14c.05.32.08.34.41.28l1.45-.22.8-.13-.08-.57c-.03-.25-.16-.33-.42-.22Zm-31.71-3.67-.26.41c-.34-.17-.66-.32-.98-.5-.05-.02-.1-.15-.08-.2.13-.27.28-.54.43-.82l.66.34c.32.17.32.18.45-.19-.25-.12-.5-.25-.75-.35-.21-.09-.18-.23-.07-.34.16-.18.07-.63.5-.51.26.07.5.23.74.36.13.06.18.15.09.28-.2.27-.01.34.23.4.08-.15.15-.3.24-.44.15-.21.13-.35-.13-.45-.14-.05-.27-.13-.4-.2l-1.61-.8-.16.3c.17.13.21.29.13.45l-.18.34-.78 1.45-.32-.07-.14.28.22.14 1.6.8c.51.26.51.26.8-.25.16-.31.15-.33-.23-.43Zm38.81 1.03a1.8 1.8 0 0 0-.65.1c-.66.2-.7.19-.82-.48-.01-.07.02-.19.07-.21.23-.12.14-.24.04-.4l-1.17.38c.03.2.05.36.3.3.04-.02.15.07.17.13.23.62.44 1.25.65 1.88.02.07-.01.2-.05.22-.27.1-.15.25-.06.43.61-.2 1.2-.38 1.78-.6.49-.2.66-.5.6-.97a.9.9 0 0 0-.87-.79Zm-.1 1.48c-.63.3-.66.29-.86-.35-.12-.36.02-.59.43-.69.42-.1.77.15.83.62-.13.14-.23.34-.4.42Zm6.1-2.3.2.29c.57-.34 1.13-.65 1.66-1 .41-.27.5-.66.3-1.07-.23-.46-.63-.66-1.12-.52-.21.06-.41.18-.62.28l-.38.2c-.47-.6-.49-.68-.21-.94l-.17-.27-1.1.62.18.29.31-.1 1.2 2-.25.22Zm.23-1.46c.32-.2.59-.5 1-.38.27.08.4.3.4.57.02.28-.23.5-.85.75l-.55-.94Zm-2.49-.56c-.62.2-1.22.46-1.85.7l.17.34.3-.07c.28.61.54 1.22.83 1.83.1.2.14.36-.13.46l.14.32c.42-.19.8-.36 1.22-.53l-.15-.31-.4.1-.33-.74c.29-.15.55-.25.79-.4a.87.87 0 0 0 .37-1.07c-.16-.44-.56-.75-.96-.63Zm-.3 1.7c-.05 0-.1-.07-.13-.13a6.29 6.29 0 0 1-.32-.7.23.23 0 0 1 0-.2c.13-.15.63-.25.8-.17.25.12.34.34.36.56 0 .3-.43.68-.7.64Zm-21.08 2.32c-.26-.02-.52-.06-.78-.05-.71.02-1.13.36-1.3 1.03-.07.25-.1.5-.09.76.03.53.18 1.03.75 1.27.49.2 1 .17 1.5.06.07-.01.16-.15.15-.22-.01-.07-.13-.16-.2-.18-.13-.02-.26.02-.4.03-.61.04-1.04-.21-1.1-.7a3.13 3.13 0 0 1 0-.85c.04-.3.16-.57.47-.7.48-.22.85-.06.83.38.39.15.42.13.42-.25v-.26c.02-.2-.05-.3-.25-.32Zm14.52 1.09c-.53.14-.9-.03-1.1-.53a2.3 2.3 0 0 1-.15-.54c-.1-.68.1-1.03.67-1.18.23-.06.4-.06.46.24 0 .05.17.1.27.12.02 0 .1-.14.1-.2 0-.15-.07-.3-.09-.44-.03-.17-.14-.24-.3-.2-.36.08-.74.13-1.09.27-.38.15-.6.48-.66.88-.06.48.02.95.24 1.4.18.37.45.65.89.7.6.09 1.14-.1 1.66-.41l-.16-.33c-.28.09-.5.16-.74.22Zm5.19-1.71-.64-1.86c-.02-.07 0-.2.04-.22.27-.11.13-.25.06-.41l-1.16.38.11.3.05-.06c.11.07.28.11.31.2.24.65.46 1.31.68 1.97l-.01.09-.25.13.12.32 1.14-.37.05-.11-.3-.2c-.07-.04-.18-.09-.2-.16Zm5.37-5.09c.12.04.29.05.34.14.38.6.73 1.2 1.13 1.87-.1.06-.18.1-.27.17l.2.3 1.06-.61-.18-.3c-.1.05-.2.08-.3.11l-1.03-1.7c-.12-.2-.2-.38.07-.53l-.18-.27-1.06.6.17.3.05-.08Zm-23.21 8.45c-.04 0-.1-.13-.1-.2l-.07-1.9c0-.14-.01-.27.19-.3.04-.01.1-.14.1-.2 0-.05-.1-.13-.17-.13-.3 0-.6 0-.9.02-.05 0-.14.08-.14.13 0 .07.05.16.1.21.04.04.13.04.26.07v2.08c0 .13 0 .25-.19.27-.04 0-.1.15-.1.22 0 .05.1.14.17.14.34-.01.67-.04 1.04-.07 0-.17.07-.34-.19-.34Zm-6.43-.21c-.04-.02-.1-.12-.1-.18l.22-2.18c.1 0 .18 0 .2-.03a.46.46 0 0 0 .14-.23c0-.03-.08-.11-.13-.12l-.9-.07c-.06 0-.16.07-.17.1 0 .08.05.16.08.23.05.08.15.16.15.23-.05.7-.12 1.42-.19 2.14-.09 0-.17-.01-.22.02a.31.31 0 0 0-.12.2c0 .05.07.15.12.15.35.05.7.08 1.07.11.03-.18.08-.32-.14-.37Z"/><path d="M26.6 29.84c-.28-.48-.55-.98-.89-1.42-.09-.13-.41-.1-.63-.1-.05 0-.1.17-.13.24.22.13.4.2.5.31.19.24.32.52.5.77.12.16.08.27-.04.4l-.6.74c-.12.15-.24.27-.46.26-.06 0-.16.09-.17.14-.01.06.05.18.1.2.4.12.6.17.87-.16.3-.36.59-.73.88-1.11.05-.07.1-.2.06-.27Zm8.63 1.34c-.16-.16-.28-.35-.42-.53-.37-.47-.38-.48-.02-.95.2-.26.31-.63.75-.66 0 0 .06-.25 0-.3-.2-.17-.58-.1-.74.12-.27.37-.52.76-.8 1.14-.1.17-.1.32.02.49.28.36.54.75.84 1.1.12.14.3.22.45.32l.05-.07c.07 0 .15.02.2 0 .1-.05.18-.13.27-.2l-.23-.2c-.12-.1-.27-.15-.37-.26Zm-5.84-2.48c-.23-.15-.59-.09-.79.13l-.86.98c-.13.14-.15.28-.06.45.2.39.42.78.61 1.18.13.26.32.4.58.36h.13c.15 0 .31-.03.3-.2-.01-.08-.16-.13-.25-.2-.08-.06-.18-.1-.24-.18-.1-.15-.18-.3-.26-.46-.26-.49-.2-.93.17-1.34.17-.18.3-.4.61-.36.05 0 .14-.1.16-.17.01-.05-.05-.15-.1-.19Zm-24.89-16.88a2.81 2.81 0 0 0-.35 3.6l-.12-.29a2.83 2.83 0 0 1 1.04-3.53 4.28 4.28 0 0 1 3.33-.6c.58.1 1.15.31 1.72.47v-.01c-.39-.17-.77-.38-1.19-.5-1.61-.44-3.14-.32-4.43.86Zm15.6.36c-1.5-.27-2.88 0-4.1.96a6.22 6.22 0 0 1 4.11-.96Zm-7.1 4.61a3.36 3.36 0 0 0-3.54 1.16c1-.94 2.15-1.34 3.54-1.16Zm-9.06-4.81.12-.1c.3-.26.57-.55.9-.77.34-.21.73-.35 1.13-.54a3.4 3.4 0 0 0-2.18 1.28.33.33 0 0 0-.05.11l-.02.1.1-.08Zm-.11.11.01-.03-.02.02h.01Zm.04-.13-.03.1.03-.1Zm-.03.1.1-.08-.1.08Z"/><path d="M7.29 14.19c-.02-1.1.3-1.58 1.27-1.95-.94.02-1.63.9-1.27 1.95Zm12.08 1c.25-.88-.26-1.75-1.04-1.82.83.34 1 1.01 1.04 1.82Zm1.89-2.73 1.82 1.3a4.27 4.27 0 0 0-1.82-1.3Zm-5.65 1.72c-.65.6-.8 1.76-.33 2.35a2.26 2.26 0 0 1 .33-2.35Zm-.11 5.22-.7-1.64-.1.04.7 1.65.1-.05Zm-3.45-5.8 1.15 1.66.08-.05-1.16-1.67-.07.05Zm9.08 8.52-1.94.4a3.4 3.4 0 0 0 1.94-.4Z"/><path d="M7.65 12.25c-.57.22-.76.66-.68 1.53 0-.6.15-1.14.68-1.53Zm10.91 9.35 1.18-.64c-.43.08-1 .4-1.18.63Zm-14.75-9.5c-.2.18-.4.68-.38 1.04l.25-.67c.05-.12.1-.25.13-.37Zm.03-.01h-.01v-.01l-.02.02.02-.01Z"/><path d="m3.81 12.1-.13.37c.05-.12.1-.25.13-.37Zm.03-.01-.01-.01Zm15.23 8.8-.03-.04-1.05.75.03.04 1.05-.75Zm1.28-7.14-.86-.61-.04.05.84.63.06-.07Zm.27 8.25v-.05l-1.3.24.01.03 1.29-.21Zm38.58-10.8c1.35.53 2.08 1.58 2 2.97-.02.4-.18.8-.25 1.12.69-.92.5-2.55-.43-3.47-1.45-1.42-4.03-1.34-5.51-.36.12-.03.23-.08.35-.13a5.25 5.25 0 0 1 3.83-.12Z"/><path d="M61.64 13.35c-.26-1.64-1.21-2.55-2.92-2.8 1.76.52 2.59 1.4 2.92 2.8Zm-16.8-1.15a6.1 6.1 0 0 1 3.99.85l.02-.05a5 5 0 0 0-4-.8Zm10.35 5.4c-.63-.77-2.1-1.16-3.2-.8a4.26 4.26 0 0 1 3.2.8Zm1.23-5.36c.46.14.86.33 1.04.74.16.38.23.8.3 1.1.25-.93-.3-1.79-1.34-1.84Zm-10.78 2.92c.02-.79.21-1.46 1.02-1.8-.82.15-1.3 1-1.02 1.8Zm-3.62-1.5 1.82-1.23a4 4 0 0 0-1.82 1.23Zm10.85.05-.09-.05-1.15 1.72.07.04 1.17-1.7Zm-3.45.49c.54.73.63 1.5.32 2.34.44-.8.3-1.75-.32-2.33Zm.88 3.58-.1-.04-.7 1.66.1.04.7-1.66Zm-6.5 4.28c.62.38 1.52.55 2.1.43-.28-.04-.65-.05-1.01-.13-.37-.07-.73-.2-1.08-.3Zm13.45-9.86c.58.35.78.89.78 1.6.09-.95-.14-1.4-.78-1.6Zm-12.01 8.75 1.26.67.03-.07-1.26-.66-.03.06Zm-.68-6.99 1-.78c-.43.15-.77.39-1 .78Zm1.14 8.24-1.32-.25v.05l1.3.23.02-.04Zm.47-1.16.8.6.03-.04-.8-.6-.03.04Zm2.11 15.44a3.5 3.5 0 0 0 .4-2.04l-.4 2.04Zm-31.52.02-.44-2.06c-.08.77.09 1.53.44 2.07Zm-3.38-26.09-.92-1.88c.06.7.33 1.35.92 1.88Zm2.22-.38-.06-.07-1.1.7.04.08 1.11-.7Zm-2.17-.27-.39-.74-.07.03.38.75.08-.04Zm39.12-1.24-.91 1.88c.59-.53.85-1.2.9-1.88Zm-1.93 2.18c-.39-.25-.77-.5-1.16-.73l-.05.07 1.17.73.03-.08Zm1.41-1.62c-.03 0-.06-.02-.08-.03l-.37.7.08.05.37-.72Z"/></g><defs><clipPath id="a"><path fill="#fff" d="M0 0h65v40h-65z"/></clipPath></defs></svg>