<svg viewBox="0 0 34 47" fill="none" xmlns="http://www.w3.org/2000/svg"><path d="M31.34 21.09c-.17.22-.32.4-.46.6a4.99 4.99 0 0 0-.83 2.26 5.02 5.02 0 0 0 1.07 3.77c.24.32.59.56.87.85.08.09.15.22.15.33.02 1.07.04 2.15 0 3.22-.02.8-.1 1.6-.19 2.4a9.41 9.41 0 0 1-.92 3.3 7 7 0 0 1-2.03 2.42c-.7.56-1.5.97-2.3 1.34-.9.4-1.83.76-2.73 1.14-.73.3-1.46.6-2.17.93-1.33.6-2.6 1.3-3.79 2.14l-1.36 1c-.5-.37-1.01-.79-1.56-1.14a24.1 24.1 0 0 0-2.32-1.36c-1.2-.59-2.42-1.1-3.63-1.64-1.19-.53-2.38-1.04-3.55-1.6a7.36 7.36 0 0 1-3.38-3.37 9.14 9.14 0 0 1-.75-2.46c-.16-.9-.26-1.81-.25-2.73 0-.3-.03-.6-.05-.9 0-.16.06-.22.21-.2h.3l2.13-.06a58.96 58.96 0 0 0 4.79-.48c1.01-.15 2.03-.3 3.04-.5a47.6 47.6 0 0 0 12.18-4.3c1.64-.83 3.2-1.8 4.72-2.85.95-.66 1.85-1.39 2.81-2.11Zm-12.32 10.22a2.2 2.2 0 0 1-1.41.08c-.4-.14-.83-.13-1.26-.1-.42.04-.84.16-1.2-.18-.01-.02-.05-.01-.07-.02-.34-.19-.66-.1-1 .03-.37.14-.6.48-.52.88.06.37.4.64.76.66.45.02.74-.26 1.04-.52.23-.22.45-.3.77-.18.4.14.79.3 1.23.26.28-.02.53.11.64.3v.65c0 .1-.03.2-.04.29-.02.13-.08.28-.05.4.06.24 0 .46-.12.63-.19.26-.14.67-.54.8-.06.02-.08.16-.13.23-.07.1-.14.23-.24.3-.28.23-.57.44-.86.64-.17.12-.33.28-.52.33-.22.07-.46.06-.7.06-.55 0-1.02.25-1.5.48-.54.26-1.07.54-1.6.79-.5.22-1.06.27-1.48.68-.29.29-.64.5-.57.99.03.21.04.41.25.53.22.12.4.02.57-.11l.85-.65c.1-.08.16-.17.25-.25.17-.14.32-.33.5-.4.54-.17 1.09-.31 1.63-.44 1-.24 2-.43 2.93-.85.14-.07.34-.17.44-.11.31.16.64.07.94.14-.02.27-.09.52-.43.68l.3.23c.06.07.16.16.16.25.02.36 0 .72 0 1.1-.27-.1-.34-.2-.33-.6 0-.19-.06-.3-.25-.33-.29-.03-.53.2-.53.5a.7.7 0 0 1-.05.28c-.08.22-.19.45-.28.67-.1.24-.25.47-.1.73.05.1.14.23.25.27.14.05.3.02.38-.15.07-.14.16-.26.24-.39.09-.13.18-.2.3-.04l.53.66c.16.21.46.26.57.06.2-.35.38-.7.54-1.07.23-.52.44-1.06.64-1.6.14-.37.32-.74.37-1.12.07-.4.2-.76.32-1.14.05-.16.21-.3.23-.47.1-.8.2-1.6.24-2.4.03-.48.15-.92.33-1.36.13-.29.3-.33.56-.18l-.42.86.07.05.3-.35.18.43c.13-.15-.04-.37.2-.4l.15.23a.43.43 0 0 0 .06-.23v-.19l.19.09c0-.05.01-.1 0-.14-.03-.25.06-.34.31-.32.11 0 .24-.05.34-.1.2-.11.3-.32.27-.53-.03-.2-.19-.29-.4-.3-.23-.01-.46-.06-.7-.1l-.9-.12c-.24-.02-.49-.08-.73-.05-.37.04-.56-.12-.48-.48.03-.11.07-.23.08-.34.04-.26.1-.52.1-.78-.01-.35-.58-.66-.94-.5-.23.11-.5.27-.58.48-.12.3-.4.63-.09 1 .02.01.02.05.02.09v.78Zm-6.32 11-.02.07 1.04.56c.94.48 1.83 1.06 2.65 1.74.16.12.27.22.52.03 1.08-.88 2.26-1.6 3.52-2.2.08-.03.15-.09.23-.13l-.02-.06-.49.14c-1.15.35-2.27.78-3.35 1.3a.3.3 0 0 1-.23 0c-1.09-.51-2.2-.95-3.35-1.3l-.5-.14Zm13.12-32.81v-2.52h1.2v1.43h.88v-1.43h1.22v1.43h.87v-1.43h1.23v1.43h.88v-1.44h1.2v2.5c-.2.03-.43.03-.63.08-.35.09-.52.33-.52.68v1.54c0 .14-.02.23-.2.23l-4.85-.01-.07-.02v-1.62a.8.8 0 0 0-.23-.61.77.77 0 0 0-.58-.24h-.4Zm2.1-.33v2.02h.6v-2.02h-.6Zm3.29 2.03v-2.02h-.58v2.02h.58Zm-1.36-2.02h-.57v2.02h.57v-2.02Zm-29.85.32v-2.52h1.2v1.43h.89v-1.44h1.21v1.44h.88v-1.43h1.22v1.44h.88v-1.44h1.21v2.52h-.37c-.44-.03-.83.3-.83.83v1.65l-.22.01h-4.64c-.21 0-.28-.06-.27-.27v-1.49c0-.43-.29-.72-.72-.73h-.44Zm2.7 1.7v-2.03h-.6v2.03h.6Zm2.09-2.03v2.02h.6v-2.02h-.6Zm-1.32 0v2.03h.56v-2.03h-.56Zm1.84-4.33c-.5-.26-.95-.48-1.4-.73-.13-.08-.23-.08-.35-.01l-1.21.66-.17.07.12-.78c.05-.3.12-.6.16-.91 0-.06-.07-.15-.13-.2l-1.15-1.1 1.54-.2c.16-.02.28-.08.36-.26.2-.45.42-.9.65-1.38.2.38.4.71.53 1.07.15.4.4.6.82.62.38.02.76.1 1.21.16l-.44.45c-.25.24-.54.45-.75.72-.08.1-.04.34-.01.51.06.42.14.84.22 1.3Zm9.79-.01.18-1.12c.02-.14.08-.27.08-.4a.6.6 0 0 0-.14-.36c-.34-.37-.7-.71-1.1-1.1.53-.08 1.02-.15 1.5-.2.16-.03.27-.08.35-.24l.7-1.4c.2.39.41.75.56 1.13.14.37.37.52.74.55l1.23.15-.13.17-.83.78c-.2.18-.33.35-.25.66.11.43.16.89.25 1.38l-.65-.32c-.18-.09-.38-.17-.54-.3-.31-.24-.58-.12-.87.05-.33.2-.69.37-1.07.57Zm11.95-2.99 1.54-.2c.13-.02.24-.07.3-.22l.7-1.4c.1.16.18.31.25.46.16.33.3.67.47 1 .04.07.16.14.24.15.5.08 1.01.14 1.58.21l-.77.76a1.3 1.3 0 0 0-.38 1.22l.18 1c-.27-.13-.52-.24-.76-.37-.23-.12-.46-.25-.7-.36a.34.34 0 0 0-.26 0l-1.4.74.13-.88c.03-.21.1-.42.11-.63a.54.54 0 0 0-.12-.36c-.34-.37-.7-.72-1.1-1.11Zm-15.57 17.76c.37.06.74-.1 1.08.15.24.18.31.4.22.76a.6.6 0 0 1-.55.42h-.75v-1.32Zm4.22 4.1c-.22 0-.38.17-.38.41 0 .24.16.41.37.41.22 0 .38-.17.38-.41 0-.24-.15-.41-.38-.41Z" fill="#8BA6C3"/><path d="M32.15 12.74v-.3h-5.13v2.67h-1.22v-1.39h-1.22v1.38h-1.23v-1.38h-1.21v1.39h-1.18l-.03-.06v-2.88c0-.31.15-.58.48-.67.14-.05.31-.05.47-.04.24.02.33-.05.32-.3-.02-.6 0-1.2 0-1.8v-.92h-1.92v1.39h-1.17v-1.38h-1.85v1.38h-1.22v-1.39h-1.86v1.4h-1.16v-1.4h-1.9v2.59c0 .48-.05.45.43.42.53-.04.84.35.84.84v2.81h-1.23v-1.38h-1.23v1.38h-1.21v-1.38h-1.22v1.38h-1.22v-2.65h-5.1l-.02.07v7.71c0 .1.08.2.15.28.3.3.63.54.88.85a4.95 4.95 0 0 1 1.06 3.99 4.9 4.9 0 0 1-1.72 3.05l-.28.25h3.03c1.04-.02 2.07-.06 3.1-.1.57-.02 1.13-.06 1.7-.1.8-.06 1.61-.12 2.42-.2.63-.05 1.26-.1 1.89-.2.91-.14 1.82-.31 2.73-.48a34.94 34.94 0 0 0 10.59-3.9c.96-.55 1.93-1.1 2.88-1.68.78-.46 1.52-.97 2.3-1.43.21-.13.26-.26.26-.5v-7.32Zm-22.2 3.47h3.96l-.25 1.03c-.01.04-.13.07-.2.07h-1.99v1.16c.42.02.83.06 1.24.07 1.06.01 1.63.69 1.68 1.69.03.66-.21 1.2-.77 1.59-.31.22-.68.27-1.05.28-.83.02-1.67 0-2.5 0l-.11-.01v-5.88Zm1.2 8.5h-.2v-.73l-.32.72h-.17l-.3-.73v.73h-.21v-1.18h.22l.38.9.37-.9h.23v1.18Zm1.01-1h-.6v.3h.58v.2h-.59v.29h.61v.2h-.82v-1.18h.82v.2Zm1.83 1h-1.63v-1.2h.2v.99h.51v-.98h.2v.98h.51v-.98h.21v1.18Zm.95 0-.43-.5h-.12v.5h-.2v-1.2h.2v.5h.12l.4-.5h.25l-.47.6.52.6h-.27Zm.75.01a.58.58 0 0 1-.58-.6c0-.36.25-.62.58-.62.33 0 .58.25.58.61s-.24.61-.58.61Zm1.21-.02h-.49v-1.18h.5c.25 0 .42.13.42.32a.3.3 0 0 1-.15.25c.13.06.2.15.2.28 0 .2-.2.33-.47.33Zm-.04-7.39c-.22 0-.28.06-.28.28v4.52h-1.32c-.18 0-.2-.1-.2-.24l.01-3.05v-2.6h3.21l-.25 1.1h-1.17Zm1.6 7.4h-.51v-1.2h.85v.2h-.64v.21h.3c.24 0 .44.17.44.4 0 .21-.18.38-.45.38Zm1.08-.36h-.29v.35h-.2v-1.18h.49c.26 0 .46.18.46.41 0 .24-.21.42-.46.42Zm1.42-.63h-.61v.29h.58v.2h-.58v.29h.6v.2h-.8v-1.18h.8v.2Zm.7.8c.16 0 .3-.08.35-.23l.01-.03h.22l-.02.06c-.08.25-.3.4-.55.4a.58.58 0 0 1-.58-.6c0-.36.25-.62.58-.62.26 0 .47.15.55.4l.02.06h-.22l-.01-.03a.36.36 0 0 0-.34-.23c-.22 0-.37.17-.37.41 0 .24.15.41.37.41Zm1.6-.8h-.39v.98h-.2v-.98h-.39v-.2h.97v.2Zm-1.53-1.62c-.06 0-.14-.07-.17-.13l-1.29-2.6-.06-.03v2.74h-1.46v-5.87h1.44v2.48l.05.03.12-.18 1.21-2.23c.03-.05.09-.1.13-.11h1.5l-.59 1.02-.95 1.6c-.03.05-.03.15 0 .21l1.07 1.92.63 1.15h-1.63Z" fill="#8BA6C3"/><path d="M16.9 24.2h-.28v.3h.32c-.02-.06-.01-.15 0-.27l.23.13c0-.12-.14-.16-.27-.16Zm1.55-.08h-.3v.38h.3a.3.3 0 0 0 .15-.03v-.2l.08-.01c-.02-.09-.11-.14-.23-.14Zm1.09-.4h-.29v.43h.29a.3.3 0 0 0 .08-.01v-.36l.13.04a.25.25 0 0 0-.21-.1Zm-2.64-.02h-.28v.3h.28c.13 0 .22-.06.22-.14 0-.1-.08-.15-.22-.15Z" fill="#8BA6C3"/><path d="M16.94 24.5c.13 0 .22-.06.23-.15l-.23-.12c-.01.12-.02.21 0 .28Zm1.66-.03c.06-.03.1-.09.1-.16l-.02-.05h-.09v.21Zm1.02-.33c.1-.03.17-.11.17-.2a.2.2 0 0 0-.03-.12.33.33 0 0 1-.14-.04v.36Z" fill="#8BA6C3"/></svg>