<svg viewBox="0 0 49 42" fill="none" xmlns="http://www.w3.org/2000/svg"><path d="M39.13 32.84c-.12-.46-.38-.9-.92-.92-.57-.03-1.15 0-1.72.05-.34.04-.56.36-.55.68.05.87.1 1.73.12 2.6.02.72.03 1.43 0 2.15-.02.31-.15.63-.27.93-.04.1-.24.19-.36.19-.1 0-.21-.14-.28-.24a.69.69 0 0 1-.07-.34v-1.26h.05c-.06-.85-.07-1.7-.2-2.54a7.7 7.7 0 0 0-.5-1.66c-.14-.39-.5-.58-.92-.58h-1.18c-.6.01-.95.21-.92.91.04.87.1 1.74.13 2.61.02.66.03 1.32 0 1.98-.02.3-.13.6-.25.88-.05.12-.26.23-.4.23-.1 0-.28-.15-.3-.26-.1-.5-.18-.99-.22-1.48-.02-.3.03-.6.06-.9l.23-1.83c.06-.5.14-1 .15-1.5.01-.28-.08-.56-.46-.58l-1.55-.06c-.83-.03-1.27.33-1.52 1.09-.29.85-.32 1.74-.38 2.61-.04.66.04 1.32.05 1.97.02.9.14 1.76.47 2.6.49 1.23 1.6 1.56 2.61 1.26.42-.12.8-.45 1.16-.71.26-.18.43-.16.54.11.17.44.54.5.92.56.2.03.41.03.6.08.95.2 1.75-.06 2.43-.7.28-.26.45-.24.6.1.16.32.4.47.77.46.4-.01.8.02 1.21-.01.18-.01.42-.08.52-.2.2-.27.37-.57.5-.88.34-.86.35-1.78.38-2.68.03-.94-.04-1.9-.13-2.83-.07-.64-.22-1.27-.4-1.89Zm-13.76.35c-.29-.87-.49-1.27-1.55-1.22-.34.01-.69.08-1.03.05-.45-.03-.71.26-.7.7.05.91.06 1.82.08 2.72 0 .4-.12.51-.55.5-.4-.03-.54-.14-.5-.52.1-.81.23-1.62.37-2.42.07-.42-.08-.9-.37-.96a3 3 0 0 0-.64-.07c-.44 0-.88.05-1.33.06-.55.02-.89.26-1.12.79a6.35 6.35 0 0 0-.44 2.4c-.03 1.04.03 2.09.06 3.13.01.68.02 1.36.07 2.04.02.35.1.74.5.85.87.24 1.77.24 2.65 0 .15-.03.36-.24.36-.37.02-.5-.05-1-.08-1.5-.03-.43-.08-.86-.09-1.29 0-.21.16-.33.4-.33.28 0 .58-.02.75.29.02.02 0 .06 0 .09.03.84.03 1.69.11 2.52.03.32.24.63.64.68.35.03.71.04 1.06.06.78.06 1.09-.39 1.3-.92.44-1.12.45-2.3.48-3.48-.03-.47-.08-.94-.09-1.41a7.6 7.6 0 0 0-.34-2.4Zm-18.57 3.28a5.47 5.47 0 0 0-2.31-1.06c-.49-.12-1-.2-1-.87l.01-.12 1.44.09c.78.06 1.57.14 2.35.18.32.02.51-.2.52-.53v-1.07c.03-.31-.15-.5-.38-.66-.14-.1-.3-.14-.46-.2-1-.39-2.05-.37-3.08-.45-.58-.04-1.16-.03-1.74 0-.56.03-1.13.1-1.64.37-.33.17-.53.41-.5.8.01.21-.04.43.01.62.05.2.17.4.27.58.05.12.17.22.17.33 0 .43-.04.86-.06 1.29l-.06 1.51c-.02.33-.03.67-.08 1-.1.8-.1 1.6.15 2.38.13.43.52.75 1.04.74 1.2-.03 2.4-.01 3.6 0 .67 0 1.33-.09 1.95-.34.83-.34 1.2-.83 1.27-1.62.12-1.28-.58-2.2-1.48-2.97Zm-2.42 3.07a.63.63 0 0 1-.45-.1c-.33-.23-.52-1.07-.41-1.37.09-.25.16-.54.5-.58.35-.04.56.2.7.47.13.21.18.47.26.7-.05.57-.18.8-.6.88Zm40.14-5.1c.3 0 .6.04.9.07l2.62.19c.25.01.44-.1.47-.34.05-.36.07-.73.07-1.09.01-.54-.18-.78-.69-.98a9.4 9.4 0 0 0-3.1-.5 15.5 15.5 0 0 0-2.5.07c-.45.05-.92.25-1.32.5-.36.22-.13.68-.19 1.03v.03c0 .31-.04.63.33.8.03.01.07.07.06.1-.07.53.19 1.1-.18 1.6a.43.43 0 0 0-.07.27c.03.44.11.87.12 1.3 0 .5-.05.99-.09 1.48 0 .06-.04.13-.1.16-.2.15-.2.35-.2.58.01.22.02.45 0 .68-.03.31.15.5.38.66.14.1.3.15.46.21.98.36 2 .33 3.01.32l.01.1c.98-.12 1.98-.18 2.94-.38.77-.15 1.04-.3 1-1.2v-.59c0-.52-.22-.7-.76-.67-1.07.04-2.15.07-3.23.07-.13 0-.3-.17-.38-.3-.08-.12-.06-.3-.08-.46-.04-.34 0-.4.36-.4l2.4.06c.27.01.43-.1.44-.36.02-.33 0-.67 0-1 0-.54-.15-.73-.66-.92a5.98 5.98 0 0 0-2.02-.31c-.24 0-.35-.06-.33-.3.02-.23-.01-.5.33-.48Zm-28.46-.6a4.1 4.1 0 0 0-1.65-1.54 3.88 3.88 0 0 0-1.92-.33 3.43 3.43 0 0 0-2.71 1.44 5.56 5.56 0 0 0-1.04 3.47c.06.47.1.95.19 1.42a4 4 0 0 0 1.4 2.5c.95.83 2.06 1 3.26.78a3.64 3.64 0 0 0 2.43-1.64c.5-.75.76-1.57.83-2.44a5.77 5.77 0 0 0-.79-3.66Zm-2.75 4.42c-.02.31-.28.6-.52.6-.24-.01-.47-.27-.52-.57a8.42 8.42 0 0 1 0-2.9c.08-.43.25-.58.52-.56.27.02.48.26.52.63.05.4.07.81.1 1.14l-.1 1.66Zm1.73-15.82h.58c.71 0 1.42-.05 2.13.02 1.33.11 2.65.3 3.98.45 1.86.2 3.72.23 5.58.04a18.6 18.6 0 0 0 4.65-1.19 5.23 5.23 0 0 0 2.9-2.36c1.24-2.29 2.07-4.69 1.89-7.34v-.5l-.1-.03-.17.22c-.35.53-.66 1.08-1.05 1.57a9.35 9.35 0 0 1-4.87 3.21l-.12.04-.29.09-.45.14c-.42.1-.84.19-1.25.26l-.26.04a27.98 27.98 0 0 1-2.79.27h-.02c-.62.04-1.24.05-1.87.07a57.53 57.53 0 0 0-1.67.1l-.3.02c-.51.06-1.04.1-1.57.14-.76.06-1.52.15-2.27.36a8 8 0 0 0-2.83 1.2c-.5.37-.97.76-1.44 1.16-.66.59-1.28 1.2-1.84 1.9-.07.1-.12.21-.22.4 1.27-.36 2.47-.27 3.67-.28Zm13.76 1.32-.26.07c-.8.32-1.64.47-2.5.42-.8-.05-1.62-.17-2.43-.26-1.38-.16-2.77-.3-4.15-.49a18.06 18.06 0 0 0-3.41-.17 13.4 13.4 0 0 0-3.59.78 5.78 5.78 0 0 0-2.39 1.9c-.03.05-.04.12-.1.27l.51-.1c.17-.04.34-.1.51-.1.75.03 1.5.05 2.25.12 1.42.13 2.83.29 4.25.43.3.03.61.02.92.05.9.07 1.81.17 2.73.22.47.03.95 0 1.43-.06.78-.09 1.57-.15 2.33-.34.67-.17 1.36-.4 1.93-.78.64-.4 1.15-.99 1.7-1.5.11-.1.16-.27.27-.46Z" fill="#8BA6C3"/><path d="M17.23 17.23c.56-.16 1.14-.3 1.72-.37a7.51 7.51 0 0 0-.47-1.72c-.1-.24-.23-.31-.5-.35-1.9-.2-3.5-.95-4.46-2.66-1.07-1.9-.89-3.81.1-5.7a10.51 10.51 0 0 1 3.52-3.78 8.79 8.79 0 0 1 3.07-1.45 10.7 10.7 0 0 1 7.08.68c.86.41 1.6 1 2.33 1.6a8.27 8.27 0 0 1 2.45 3.45c.2.5.28 1.06.38 1.6.07.39.07.78.12 1.34-.06.32-.11.81-.24 1.28a4.9 4.9 0 0 1-1.7 2.4 6.74 6.74 0 0 1-3.06 1.38c-.23.05-.28.14-.28.34 0 .3-.02.6-.03.89.5-.05 1.01-.1 1.51-.19 1.85-.32 3.56-.99 5.02-2.19l.05-.04 1.34-1.7a10.8 10.8 0 0 0-.35-2.3c-.36-1.42-.82-2.8-1.62-4.04a12.31 12.31 0 0 0-5.8-4.63 12.39 12.39 0 0 0-7.15-.87c-3.69.68-6.46 2.7-8.36 5.9a12.47 12.47 0 0 0-1.68 5.3c-.13 1.44-.1 2.87.29 4.25.42 1.5 1.1 2.9 1.93 4.21.7-.7 1.47-1.33 2.36-1.78.76-.38 1.6-.62 2.43-.85Z" fill="#8BA6C3"/><path d="M27.43 11.07c.07.08.13.16.18.25a.48.48 0 0 0-.18-.25Z" fill="#fff"/><path d="M19.4 13.25c-.05-.5.16-.84.57-1.09a4.64 4.64 0 0 1 3.31-.66c.67.12.73.27.81 1.12a8.16 8.16 0 0 0 1.1 3.76l.98-.12c-.01-.95.08-1.9.42-2.79.19-.48.49-.92.74-1.38.07-.11.15-.21.2-.33.09-.18.12-.32.08-.44a2.15 2.15 0 0 0-.18-.25l-.17-.1a5.9 5.9 0 0 0-2.08-.64 10.05 10.05 0 0 0-5.75.9c-.17.1-.33.2-.48.34-.54.49-.57.62-.24 1.27a12.4 12.4 0 0 1 1.04 3.57c.02.12.04.26.02.38l.28-.02c-.11-.53-.23-1.06-.32-1.59-.12-.64-.22-1.29-.33-1.93Z" fill="#8BA6C3"/><path d="M28.42 11.45a4.39 4.39 0 0 0-1.93-1.14 11.56 11.56 0 0 0-3.8-.5c-.55 0-1 .1-1.54.18-1.08.18-2.2.47-3.2.94a1.08 1.08 0 0 0-.3 1.75c.23.25.53.48.66.79.38.9.85 1.75 1 2.71l.12.63.19-.02h.15c.02-.13 0-.26-.02-.39-.2-1.23-.47-2.44-1.04-3.56-.33-.66-.3-.79.24-1.28.15-.13.31-.24.48-.34a10.05 10.05 0 0 1 5.75-.9 5.88 5.88 0 0 1 2.25.75c.1.07.16.15.18.24.04.13.01.27-.07.45-.05.11-.14.21-.2.32-.26.46-.56.9-.75 1.39-.34.9-.43 1.83-.41 2.79a25.5 25.5 0 0 1 .64-.07c.06-.4.12-.8.22-1.2.2-.85.48-1.67 1.24-2.21.1-.08.19-.2.26-.3.23-.37.2-.73-.12-1.03Z" fill="#8BA6C3"/><path d="M28.4 10.34c.55.32.96.76.87 1.46a2.2 2.2 0 0 1-1.26 1.81c-.08.04-.17.09-.19.16-.09.25-.15.5-.23.8.15-.02.3-.02.42-.07.5-.18 1-.33 1.46-.57a4.24 4.24 0 0 0 2.08-2.18 6.4 6.4 0 0 0 .37-2.8 4.94 4.94 0 0 0-.54-2.19c-.92-1.7-2.35-2.94-3.83-4.13-.08-.07-.21-.09-.27-.1.03.59.15 1.16.08 1.71-.26 1.94-1.54 3.19-3.05 4.25-.35.24-.76.4-1.14.6.4.07.77.05 1.15.07a8.7 8.7 0 0 1 4.07 1.18Z" fill="#8BA6C3"/></svg>