<svg viewBox="0 0 49 51" fill="none" xmlns="http://www.w3.org/2000/svg"><g clip-path="url(#a)" fill="#8BA6C3"><path d="M41.76 14.6h-5.31a.85.85 0 0 1-.88-.83v-4.88c0-.85-.72-1.55-1.62-1.55h-5a.85.85 0 0 1-.87-.83v-4.96c0-.86-.72-1.55-1.62-1.55h-4.28c-.89 0-1.62.7-1.62 1.55v4.97c0 .46-.4.83-.87.83h-5.23c-.9 0-1.63.69-1.63 1.54v4.88c0 .46-.39.84-.87.84h-5.12c-.89 0-1.62.69-1.62 1.54v4.08c0 .85.73 1.54 1.62 1.54h5.12c.49 0 .87.38.87.83v4.88c0 .85.73 1.55 1.63 1.55h5.23c.48 0 .87.37.87.83v4.97c0 .85.73 1.55 1.62 1.55h4.28c.9 0 1.62-.7 1.62-1.55v-4.97c0-.46.4-.83.87-.83h5c.9 0 1.62-.7 1.62-1.55v-4.88c0-.46.4-.83.88-.83h5.3c.9 0 1.63-.69 1.63-1.54v-4.08c0-.85-.73-1.54-1.62-1.54Z" fill-opacity=".8"/><path d="M34.16 14.56h-5.04a.87.87 0 0 1-.88-.84v-4.94a1.6 1.6 0 0 0-1.64-1.56h-4.33c-.9 0-1.63.7-1.63 1.56v4.94c0 .46-.4.84-.89.84h-5.3c-.9 0-1.64.7-1.64 1.56v4.12c0 .87.73 1.56 1.64 1.56h5.3c.5 0 .89.38.89.85v4.93c0 .86.73 1.56 1.63 1.56h4.33c.9 0 1.64-.7 1.64-1.56v-4.93c0-.47.4-.85.88-.85h5.04c.9 0 1.64-.7 1.64-1.56v-4.12a1.6 1.6 0 0 0-1.64-1.56Zm-31.5 34.14h-.53c-1.43 0-2.13-.75-2.13-2.14v-2.89c0-1.38.7-2.13 2.13-2.13h.53v-.51h1.4v.5h.53c1.42 0 2.13.76 2.13 2.14v2.9c0 1.38-.7 2.13-2.13 2.13h-.53v.98h-1.4v-.98Zm0-5.97h-.53c-.46 0-.71.24-.71.86v3.06c0 .62.25.87.7.87h.54v-4.79Zm1.4 0v4.79h.53c.45 0 .71-.25.71-.87v-3.06c0-.62-.26-.86-.71-.86h-.53Zm8.42 7.11h-1.44l-.25-1.57h-1.75l-.25 1.57h-1.31l1.45-8.66h2.1l1.45 8.66Zm-3.26-2.75h1.38l-.69-4.37-.68 4.38Zm8.46-3.77v1.12c0 1.39-.7 3.07-2.13 3.07h-.67v2.32h-1.43v-8.65h2.1c1.43 0 2.13.75 2.13 2.13v.01Zm-2.8-.9v3.86h.67c.7 0 .7-1.13.7-1.74v-1.3c0-.62-.24-.82-.7-.82h-.67Zm6.92 4.91.98-6.15h1.99v8.66h-1.35v-6.2l-.99 6.2h-1.35l-1.06-6.12v6.12h-1.25v-8.66h1.98l1.05 6.15Zm9.2 2.51h-1.45l-.25-1.57h-1.75l-.24 1.57h-1.32l1.46-8.66h2.09l1.45 8.66Zm-3.26-2.75h1.37l-.68-4.37-.69 4.38Zm4.62-5.91h1.42v7.42h1.62v-7.42h1.46v7.45h.62v2.37h-1.4v-1.16h-3.73v-8.66Zm7.96 8.7h-1.47v-8.66h1.27v5.48l.52-1.9 1.17-3.58h1.57v8.66h-1.29v-6.1l-.58 2.13-1.2 3.97Zm4.24-.04c.15-.32.16-.63.16-1.05l.01-.78c0-.9.22-1.68.94-1.97-.64-.28-.94-1.3-.94-2.18v-.68c0-1.34.64-2 2.12-2h2.15v8.66h-1.43v-3.09h-.49c-.65 0-.92.42-.92 1.22l-.01.8c0 .71-.06.85-.13 1.07h-1.46Zm2.33-7.42c-.51 0-.73.27-.73.89v.85c0 .7.32 1.35.86 1.35h.55v-3.09h-.68Z"/></g><defs><clipPath id="a"><path fill="#fff" d="M0 0h49v51h-49z"/></clipPath></defs></svg>