<svg viewBox="0 0 99 10" fill="none" xmlns="http://www.w3.org/2000/svg"><path d="M20.2 9.95c-1.47 0-2.93.02-4.39 0a2.31 2.31 0 0 1-2.06-1.27c-.29-.5-.4-1.06-.39-1.65v-4.15c0-.66.15-1.28.55-1.83a2.33 2.33 0 0 1 1.93-1.04h8.82c.54 0 1.02.22 1.44.58.58.5.87 1.14.94 1.89.01.17.04.34.04.5v4.01c0 .76-.16 1.48-.65 2.07-.44.53-1 .88-1.7.89-1.5.02-3.02 0-4.53 0Zm.02-7.8-2.34.01c-.43.02-.67.19-.8.54-.06.17-.1.36-.1.54 0 1.16-.02 2.32 0 3.48.02.86.4 1.1 1.07 1.11 1.44.03 2.89.04 4.32 0 .7-.01 1.05-.26 1.07-1.04.04-1.2.03-2.41 0-3.62 0-.55-.21-1.01-1.01-1.01h-2.22Zm45.02 7.8c-1.5 0-3 .03-4.5 0a2.23 2.23 0 0 1-1.85-1.1 3.39 3.39 0 0 1-.5-1.93v-4.03a3 3 0 0 1 .56-1.85 2.33 2.33 0 0 1 1.9-1.03h8.7c.55 0 1.05.16 1.5.5a2.6 2.6 0 0 1 1.01 1.89c.04.34.04.68.05 1.02v3.75a2.83 2.83 0 0 1-.89 2.14c-.43.4-.93.64-1.52.64h-4.46Zm0-7.8h-2.3a.8.8 0 0 0-.21.03c-.6.17-.7.5-.71 1-.02 1.28 0 2.56.03 3.84.01.36.22.62.56.73.17.06.37.09.55.09h3.92c.18 0 .36-.03.54-.04.63-.05.85-.45.86-.96.02-1.24.03-2.49 0-3.73-.02-.53-.28-.95-.97-.95h-2.27Zm-33.11 7.8h-3.97v-9.94h.24c2.72 0 5.43-.02 8.15 0 .93.01 1.81.25 2.56.83.5.39.85.91.95 1.55.13.76.05 1.5-.29 2.21-.23.49-.6.83-1.11 1.02a5.4 5.4 0 0 1 1.27 1.87c.27.62.5 1.25.73 1.88l.23.59h-3.9c-.16 0-.23-.05-.3-.21-.2-.49-.44-.96-.67-1.43-.3-.6-.58-1.18-.9-1.76a.92.92 0 0 0-.78-.47c-.72-.04-1.44-.04-2.16-.05l-.06.01v3.9Zm-.02-6.02c.88 0 1.73.02 2.58-.01.31-.01.64-.11.94-.21.32-.11.39-.4.39-.7 0-.3-.09-.57-.38-.67a2.2 2.2 0 0 0-.75-.17c-.85-.02-1.7 0-2.55 0h-.23v1.76Zm-28.42 2.12v3.9h-3.69v-9.89h3.68v3.85h4.9v-3.85h3.7v9.88h-3.68v-3.89h-4.91Zm72.97-3.87v7.76h-3.52v-9.93h9.76c.96 0 1.91.68 2.24 1.63.18.5.25 1 .25 1.53v6.77h-3.62v-6.52c0-.22-.04-.45-.09-.66-.08-.33-.44-.6-.8-.6h-4.13l-.1.02Zm-23.8-.02h-6.22v-2.15h8.92c.52 0 1.04.07 1.41.49.64.69.75 1.66.1 2.36-.29.3-.62.57-.93.85l-1.12.93-1.38 1.14-1.03.87-1.21 1.01-.13.13h6.2l.02.18v1.8c0 .18-.04.23-.21.23h-6.4c-.74 0-1.5-.06-2.24-.03-.4 0-.79 0-1.13-.2-.86-.5-1.27-1.76-.42-2.65.49-.51 1.05-.94 1.58-1.4l1.4-1.2 1.4-1.17 1.4-1.19Zm45.64-.04h-4.02c-.2 0-.3.1-.3.3v7.57h-3.59v-7.61c0-.2-.05-.27-.26-.27h-4.11v-2.05h12.28v2.06Zm-53.16 7.82h-3.74v-9.67c0-.22.06-.27.28-.27h3.46v9.95Z" fill="#8BA6C3"/></svg>