<svg viewBox="0 0 56 39" fill="none" xmlns="http://www.w3.org/2000/svg"><path d="m28.29 0 .07.02a8.45 8.45 0 0 1 5.06 1.95c.28.25.57.5.83.76.52.54.96 1.14 1.32 1.8l.32.57c.04.07.04.13.02.22-.15.52-.3 1.05-.43 1.57v.06c.24-.02.48-.03.68.1.13.07.24.17.35.27l.71.68.23.2-.66.7-.64-.66c-.06-.06-.1-.14-.18-.18a.53.53 0 0 0-.22-.05h-.32l-.01.08-.1-.03v.02l-.04.59c0 .36-.01.72.01 1.07.03.43.1.86.16 1.3.08.62.28 1.22.46 1.82.02.04.01.1 0 .15a9.66 9.66 0 0 1-1.23 1.93 8.37 8.37 0 0 1-2.98 2.35 7.92 7.92 0 0 1-3.6.86 8.52 8.52 0 0 1-6.5-2.8 8.83 8.83 0 0 1-1.29-1.8l-.3-.56a.16.16 0 0 1 0-.1l.3-1.05a12.24 12.24 0 0 0 .34-2.38c.02-.28 0-.57-.01-.86l-.04-.63c-.17 0-.33 0-.49.03a.3.3 0 0 0-.16.08l-.81.82-.64-.73 1.22-1.09c.17-.15.39-.16.6-.14h.13c-.03-.14-.04-.27-.08-.4l-.35-1.21c-.03-.08-.03-.14 0-.2a9.18 9.18 0 0 1 4.43-4.37c.6-.28 1.24-.49 1.9-.6.4-.06.82-.09 1.23-.14l.05-.02h.66Zm-.52 17.03a7.56 7.56 0 0 0 6.86-4.04.26.26 0 0 0 .01-.19 12.58 12.58 0 0 1 0-7.45.23.23 0 0 0-.01-.2c-.45-.8-1-1.52-1.7-2.12a7.23 7.23 0 0 0-6.5-1.62 7.5 7.5 0 0 0-5.04 3.86.26.26 0 0 0-.02.18 12.77 12.77 0 0 1 0 7.46c-.02.06 0 .14.02.2.4.74.91 1.4 1.55 1.97a7.35 7.35 0 0 0 4.83 1.95Zm-26.64 20.99-.1-.77-.1-.83-.08-.66-.1-.84-.08-.63-.1-.68-.07-.66-.1-.86-.09-.66-.08-.72-.08-.72-.09-.79-.02-.3c-.02-.24-.01-.47-.03-.7-.04-.37.06-.73.1-1.1l.09-.87.11-.89.1-.89.11-.88.07-.68.1-.7.07-.68.11-.9.08-.65.11-.93.05-.44.03-.2a289.25 289.25 0 0 0 53.07 0l.1.82.12.91.07.67.11.9.08.67.09.73.07.68.11.9.08.68.11.9.08.67c.03.3.08.6.1.91.03.22.02.45 0 .68l-.03.42-.12 1.13-.07.7-.11.9-.08.62-.11.91-.1.85-.1.84-.08.62-.12.87-.07.63-.12.96c0 .02-.04.06-.05.06l-.82-.08-.61-.05-1.05-.1-.65-.04-1.13-.1-.71-.04-1.21-.1c-.14 0-.27 0-.4-.02l-.9-.05-1.1-.06a214.54 214.54 0 0 0-2.46-.14l-.87-.05-.98-.05-1.02-.04a285.42 285.42 0 0 0-2.32-.1l-1.38-.04-.75-.03-.84-.02a218.07 218.07 0 0 0-3.28-.07l-1.78-.02-4.2-.02-1.9.02-1.29.02-1.06.03-.94.02-.78.02-1.53.05-1.26.05-1.2.04-1.04.05a250.93 250.93 0 0 0-2.79.14l-1.25.07-1.14.07a690.8 690.8 0 0 0-2.13.14l-1.33.09-.9.07-1.3.11-.7.05-.95.09-.66.05-.43.04Zm11.7-3.18.01-.05-.3-.27-.8-.84c-.23-.27-.46-.54-.67-.83a23.08 23.08 0 0 1-2.6-4.44c-.22-.48-.41-.97-.62-1.44-.03-.07-.02-.11.02-.16l.84-1.22 1.07-1.56.95-1.4.4-.57-.16-.01h-1.64c-.35 0-.64.14-.9.36-.2.18-.31.41-.44.64l-.51.95-1 1.8-.62 1.13-.17.28-.01-.03.02-1.85.02-1.23.03-1.44v-.61h-2.38l.03.34.03.72.02.86.02 1c.01.52.03 1.05.03 1.58 0 .86-.02 1.72-.03 2.57l-.02.99-.02 1.08-.03 1.44v.07l-.02.25h2.4l-.03-.6-.03-.8-.02-.94-.02-1.22v-2.08l.17.36 1.11 2.4c.4.8.8 1.6 1.22 2.4a4.25 4.25 0 0 0 1.98 1.7 11.92 11.92 0 0 0 2.29.65c.12.02.25.01.38.02Zm30.98-3.78c-.09-2.43-.06-4.85 0-7.27h-1.89l.03.43.03 1.14.02 1.87-.02 1.36-.03 2.04-.02.42h-1.9c-.02-.15-.04-.3-.04-.44l-.02-1.57.02-3.46v-1.12l.03-.67h-1.89l.03.62.03 1.18a1646.16 1646.16 0 0 1-.05 6.79c0 .12.03.14.15.14h4.42v1.63h1.17c.03 0 .08-.05.09-.08.07-.3.11-.6.2-.89l.57-1.96c.04-.13.02-.16-.12-.16h-.8Zm2.94-8.15c.18.27.37.53.54.8.05.07.09.13.06.23l-.6 2.14a232 232 0 0 1-.67 2.33l-.42 1.41-.63 2.05-.2.65h2.03l.4-1.93h2.34c.03 0 .07.05.08.08l.1.48c.1.42.2.83.27 1.25.02.11.06.12.15.12h2.13c0-.04-.02-.07-.03-.1-.1-.37-.22-.74-.33-1.1l-.72-2.28-.5-1.62-.79-2.56-.28-.96-.32-1h-2.61Zm-14.66 4.36h-2.21v-.12l.02-.43.02-1.6.03-1.21c0-.1-.03-.13-.13-.12h-1.72v1.07l.02 1.5-.02 4.02-.02 1.2v.84c0 .08.02.1.1.1h1.63c.09 0 .15-.01.14-.12l-.02-.24-.03-1.74-.02-1.5c0-.08.01-.12.1-.12h2c.07 0 .1.02.1.1l-.02.43-.03 1.71-.02 1.34c0 .11.04.14.14.14h1.61c.1 0 .12-.03.12-.12l-.02-.96-.03-1.57.03-3.94v-2.14h-1.86c0 .14.03.26.03.39l.02 2.63v.2l.04.25Zm-18.59 2.88h.14c.6-.02 1.2.04 1.8-.04.31-.05.62-.14.9-.28.48-.25.84-.62 1.08-1.1a4.46 4.46 0 0 0 .26-2.72 2.77 2.77 0 0 0-2.75-2.22c-1.05-.02-2.1 0-3.15 0h-.12c0 .17.03.33.03.49l.02 1.2c.01.65.03 1.31.02 1.97 0 .67 0 1.35-.02 2.02l-.02 1.46-.03 1.46c0 .1.04.13.14.13h1.62c.1 0 .12-.02.12-.12l-.02-.9v-1.16l-.01-.19Zm5.03-6.36v.87l.02 1.8v3.2l-.02.8-.03 1.97c0 .07.02.1.1.1l3.03-.04c.24 0 .48-.04.7-.09.67-.15 1.22-.5 1.61-1.05.25-.34.4-.73.48-1.14.05-.28.08-.56.1-.85 0-.2-.03-.4-.05-.61a3.12 3.12 0 0 0-.4-1.33c-.3-.52-.74-.87-1.31-1.08-.4-.15-.83-.2-1.25-.2-.36-.02-.7 0-1.06 0h-.13l.05-2.35h-1.85Zm6.52 0c0 .17.02.34.03.5l.02 1.23.02 2.05-.02 1.84-.02 1.47-.03 1.5c0 .12.04.14.14.14h1.62c.1 0 .12-.02.12-.12l-.02-.82c-.01-.46-.03-.93-.03-1.4 0-1.44.02-2.87.03-4.31l.02-1.98v-.1h-1.88Zm10.09 0c0 .13.02.25.03.37l.02 1.15.02 1.81-.02 2.68-.02 1.29-.03 1.3c0 .1.04.13.14.13h1.62c.1 0 .12-.03.12-.13l-.03-.97-.02-1.54.02-3.79.03-2.18v-.12h-1.88Zm.94-.4c.57.03 1-.45 1-.98a1 1 0 0 0-.99-1.01c-.56 0-.97.47-1 .95-.03.57.47 1.08 1 1.04Z" fill="#8BA6C3"/><path d="M16.22 9.57c.11.03.16-.05.23-.1.13-.1.17-.1.27.02l.59.63.38.4c.06.09.12.2.15.3l.06.3c.13-.02.23-.2.2-.37a.83.83 0 0 0-.22-.42l-1.2-1.25-1.01-1.08c-.3-.32-.6-.62-.82-1-.25-.44-.26-.76.05-1.2.02.1.02.2.06.29.07.2.22.33.42.39.2.06.28.17.29.38a.9.9 0 0 0 .29.62.9.9 0 0 1 .29.56c0 .1-.02.18-.03.27.08.03.14-.02.2-.07.15-.14.16-.14.3 0l.56.55c.24.23.31.5.24.81.1.04.16-.02.22-.07.14-.13.15-.13.29 0l.32.32c.15.15.2.33.22.53v.12c.12-.02.2-.13.21-.26a.66.66 0 0 0-.21-.54l-2.32-2.3c-.26-.26-.4-.56-.39-.92 0-.08-.03-.13-.1-.16l-.19-.06c-.23-.09-.3-.3-.22-.53.06-.19.28-.29.48-.22.1.03.2.08.31.13h.01c.07-.22.24-.28.46-.28a6.52 6.52 0 0 1 1.43.14l.06.02v.45c-.16.05-.32.08-.46.14a.4.4 0 0 0-.27.39c0 .18.1.3.24.39.11.06.24.1.38.16-.03.03-.06.07-.1.08a.87.87 0 0 1-.78-.1 2.09 2.09 0 0 1-.48-.43c-.08-.11-.1-.28-.14-.43-.02-.1 0-.22 0-.33 0-.1-.02-.2.09-.24a.36.36 0 0 1 .34.03c.12.08.23.14.37.14.1 0 .15-.09.16-.18 0-.11-.07-.1-.14-.1l-.76-.04c-.12 0-.2.05-.24.16-.16.4-.19.91.2 1.28l.58.56c.21.2.32.43.26.72v.13l.23-.15c.11-.1.14-.1.24 0l1.15 1.11c.26.25.32.62.13.87-.12.16-.27.29-.42.43-.13.14-.28.27-.41.42-.06.06-.05.14.02.21l1.23 1.25c.11.12.23.24.32.38.19.3.05.7-.37.77h-.05c0-.14-.03-.26-.17-.3-.12-.03-.23 0-.29.14h-.03c-.03-.1-.1-.2-.1-.3 0-.15-.06-.24-.16-.33l-.98-.96-.29-.26c-.27-.23-.31-.52-.22-.85l.01-.07a.36.36 0 0 0-.28.19c-.2.32-.14.6.1.87l.23.23-.41.38c-.13-.34-.4-.61-.66-.88l-1.4-1.42a3.85 3.85 0 0 1-.45-.54 1.15 1.15 0 0 1-.16-.43 1.9 1.9 0 0 1 .08-.91l.25.45c.07.12.16.24.26.35.2.22.24.47.18.75.09.03.15-.02.2-.08.15-.13.18-.11.3.03l.51.5a.8.8 0 0 1 .26.63v.04l.02.03c.13-.04.18-.14.2-.26a.59.59 0 0 0-.18-.51l-1.21-1.23a2.08 2.08 0 0 1-.62-1.53c0-.14.04-.27.06-.4l.35.53.28.34.86.9c.18.18.3.38.29.64 0 .08-.02.15-.03.23Zm22.48 2.4c.12-.16.27-.3.37-.48.14-.25.04-.61-.2-.78-.03-.03-.08-.04-.12-.05.01.17.03.33.02.48 0 .16-.09.28-.2.38l-1.33 1.3c-.1.09-.17.19-.16.34 0 .09-.06.17-.1.27-.06-.06-.1-.11-.16-.13a.31.31 0 0 0-.18 0c-.1.04-.15.14-.13.28-.19.04-.45-.13-.5-.4-.05-.22.06-.4.2-.54l1.24-1.26.2-.21c.05-.07.04-.18-.04-.26l-.63-.6c-.39-.34-.33-.75-.01-1.06.37-.4.78-.75 1.17-1.13.1-.09.15-.02.21.03l.2.14c.02-.2.03-.36.06-.52a.5.5 0 0 1 .14-.22c.2-.22.41-.44.64-.63.4-.35.4-.98.2-1.36-.03-.05-.1-.1-.16-.1l-.87.02c-.06 0-.1.04-.1.1.02.11.1.2.18.2.1-.04.22-.07.32-.12.1-.07.2-.08.32-.08.09 0 .14.05.14.11 0 .26.05.53-.05.78-.09.2-.24.32-.4.45a.99.99 0 0 1-.88.24c-.06-.02-.15-.02-.16-.13.18-.03.35-.1.48-.22.27-.25.12-.62-.16-.72a1.84 1.84 0 0 0-.34-.1c-.08 0-.1-.03-.1-.1l.01-.29c0-.04.05-.1.09-.1.2-.05.4-.09.6-.1.27-.03.55-.02.83-.03.21-.01.38.04.42.28.14-.06.26-.12.39-.16.15-.04.37.08.42.22.08.2.03.46-.14.5-.3.08-.4.25-.4.53 0 .24-.14.43-.3.6l-2.34 2.32c-.16.16-.27.33-.26.57.01.14.09.25.2.27l.04-.24a.62.62 0 0 1 .18-.37l.4-.4c.06-.06.11-.08.18-.02l.1.1.15.06c0-.15-.01-.3.02-.42.04-.12.1-.25.19-.34.2-.23.44-.44.66-.67.08-.08.14-.07.21 0 .07.07.13.14.23.12v-.4c.03-.2.18-.33.3-.47.18-.2.27-.44.28-.71 0-.1.03-.15.12-.19l.27-.12c.2-.1.32-.26.34-.5l.02-.1a.9.9 0 0 1 .16.97c-.16.33-.38.61-.62.87l-1.15 1.2-1.05 1.12-.4.45a.55.55 0 0 0-.13.44c.02.12.07.22.2.27.02-.1.01-.2.04-.28.06-.13.12-.27.2-.39l.47-.5c.17-.17.35-.34.51-.52.08-.1.14-.08.21 0 .07.06.14.12.25.1-.1-.33 0-.6.25-.86.41-.42.8-.87 1.19-1.31.11-.13.19-.3.3-.45l.06.27a2 2 0 0 1-.47 1.46c-.1.14-.23.25-.35.38-.33.34-.68.68-1 1.03-.17.17-.26.38-.15.62.03.06.09.1.13.17.05-.18.08-.33.13-.47a.67.67 0 0 1 .15-.22l.58-.57c.1-.1.13-.1.23 0 .07.07.15.1.22.1 0-.14-.02-.27 0-.4.03-.17.13-.3.24-.42.19-.21.34-.45.43-.71l.02-.03c.17.54.17 1.05-.14 1.46-.15.2-.34.38-.52.56l-1.39 1.4a2.1 2.1 0 0 0-.54.8l-.38-.4Zm-25.5-.62c-.04.14-.08.28-.1.43-.01.2-.05.41-.02.62.06.31.28.5.59.57.36.1.68.05.93-.26l.23-.33.68-1.02.53.5.31.4c.06.07.06.13-.02.2-.24.25-.48.5-.7.76a.4.4 0 0 0-.1.28v.77c.02.44-.22.64-.55.75-.16.06-.33.08-.5.1-.15.01-.21.07-.21.21v.98c0 .06.05.12.09.17.08.1.19.17.25.28.12.2-.01.46-.22.53-.06-.18-.12-.23-.27-.22-.12.01-.18.08-.22.26-.27 0-.59-.29-.56-.55 0-.08.08-.17.13-.25.05-.06.1-.12.17-.17.14-.11.18-.26.15-.46l-.27.18-.17.04c0-.06 0-.14.03-.18.08-.1.16-.2.26-.27.14-.13.18-.27.15-.46l-.08.03-.3.18c-.05.04-.08.01-.08-.05v-.5c.22-.01.42-.05.6-.17.23-.15.3-.38.3-.62.02-.23.01-.46.01-.68 0-.17-.08-.25-.25-.25a1.1 1.1 0 0 1-.75-.25.64.64 0 0 1-.22-.44c-.05-.38.08-.75.17-1.11Zm29.57-.05c.05.34.13.67.14 1 .02.48-.22.71-.72.82-.12.03-.24.03-.36.05-.1.02-.15.1-.15.17 0 .33-.04.66.05.99.09.32.32.46.62.51l.24.04v.5c0 .02-.07.05-.1.04l-.28-.17-.07-.04c-.08.24.08.38.21.53l.15.14c.08.07.1.15.07.26-.18-.01-.28-.18-.45-.24-.02.18.02.34.16.46l.16.16c.26.21.15.5-.03.64-.08.07-.18.11-.27.16-.05.02-.12.03-.14-.06-.02-.11-.09-.18-.2-.19-.13 0-.21.06-.25.18l-.02.02c-.24-.04-.34-.41-.17-.59l.2-.19a.26.26 0 0 0 .12-.21v-.87c-.01-.2-.06-.29-.28-.3a1.33 1.33 0 0 1-.74-.24.62.62 0 0 1-.27-.5v-.9a.4.4 0 0 0-.13-.3l-.65-.7c-.07-.06-.11-.13-.03-.23.07-.07.1-.17.18-.24l.69-.6.52.8c.12.17.22.35.35.51.24.3.56.35.92.26.44-.1.7-.46.61-.93l-.12-.67v-.06h.04Zm-32.62.8c.63.22.94-.1 1-.4a.91.91 0 0 1-.7.04.9.9 0 0 1-.6-.67c-.09-.36 0-.7.26-.96.18-.18.4-.25.65-.26.47-.02.81.19 1.04.57.09.15.14.33.17.5.06.41-.01.81-.21 1.19-.2.37-.5.6-.92.68-.27.05-.53.02-.8-.07-.02 0-.06-.07-.05-.1l.16-.52Zm.81-.87c.06-.01.13 0 .18-.04.05-.02.1-.08.1-.12a.56.56 0 0 0-.29-.54.28.28 0 0 0-.4.15c-.1.28.1.55.41.55Zm36.19-.34c.37-.03.7 0 .99.23.27.22.36.51.32.84a.93.93 0 0 1-.79.82c-.5.1-.94-.01-1.33-.35l.33-.55c.15.14.33.22.53.26.22.04.45-.01.52-.22a.32.32 0 0 0-.24-.42 1.3 1.3 0 0 0-.74.04c-.13.05-.3-.05-.29-.19l.1-1.25c0-.13.1-.2.23-.2h1.26c.16 0 .24.08.24.24v.59h-.62c-.02-.16-.12-.23-.28-.23h-.08c-.1-.01-.13.02-.13.12l-.02.27Zm-7.36 2.68-1.08.84a.22.22 0 0 0-.1.2v1.09c0 .13-.01.24-.14.32l-.2.12c-.01-.07-.03-.14-.03-.22l-.04-.42c-.16.03-.29.27-.3.42 0 .16-.01.31-.03.46-.04.2-.05.2-.25.34l-.05-.7a.5.5 0 0 0-.3.46c0 .15-.03.3-.03.44 0 .23-.18.3-.34.38-.06.03-.13.04-.2.06-.02-.21-.07-.29-.2-.3-.15-.03-.23.07-.29.2-.15-.14-.22-.3-.19-.5.04-.2.19-.34.4-.35.23-.02.39-.14.54-.3l.43-.46a.63.63 0 0 0 .17-.44v-.66c-.02-.46.24-.7.63-.77.31-.06.64-.1.95-.14l.54-.1h.1l.01.03Zm-23.66-.03.44.06.89.13c.27.04.54.07.74.3.1.1.16.23.16.37v.74c0 .22.07.42.24.58a7 7 0 0 1 .42.42.7.7 0 0 0 .48.27c.2.01.36.13.4.34.04.2-.02.37-.2.5-.04-.13-.13-.23-.29-.2-.14.04-.2.15-.19.31-.2-.06-.42-.12-.5-.33-.05-.1-.04-.23-.05-.35l-.05-.36c-.03-.13-.13-.22-.26-.3l-.06.69c-.24-.1-.25-.3-.26-.49l-.03-.36c-.01-.13-.1-.25-.28-.38l-.05.65-.03.02c-.1 0-.32-.23-.32-.33v-1.14c0-.14-.06-.22-.16-.3l-.99-.78-.05-.06Zm-6.46-1.37v.53c0 .07-.04.07-.1.07h-1.74c-.1 0-.12-.02-.12-.11v-.48h.61v-1.4l-.26.3-.43-.46.57-.54h.01c.13-.21.34-.19.55-.18h.28v2.15c0 .1.03.13.14.13h.5Zm35.71-1.67h-.45c-.15 0-.23.07-.24.22h-.62v-.66c0-.1.07-.16.18-.16h1.95c.05.28 0 .53-.15.78-.26.43-.5.86-.74 1.3l-.4.72c-.02.03-.08.07-.12.07h-.71l1.3-2.27Zm-31.71-1.62c-.06-.27-.24-.44-.4-.64-.1-.12-.12-.21-.09-.4.17.03.24.2.39.27.1-.21.01-.38-.12-.54-.07-.1-.13-.2-.2-.28-.1-.12-.1-.25-.05-.4l.5.47c.06-.21.03-.4-.1-.55-.08-.1-.16-.19-.25-.27-.13-.14-.21-.29-.19-.48v-.13l.03-.02c.24.22.48.43.7.66.13.14.14.33.11.51l-.23 1.27-.1.53Zm29.06-2.01c.05.21 0 .36-.1.5-.1.12-.2.25-.27.38-.07.12-.05.24 0 .37.14-.08.2-.25.38-.28.06.2-.02.35-.15.49a1.1 1.1 0 0 0-.33.55l-.1-.46-.22-1.19c-.07-.37.01-.69.34-.93.16-.1.3-.25.46-.39.03.25.02.46-.17.63-.1.09-.2.2-.28.3-.09.11-.1.28-.06.52l.5-.49Z" fill="#8BA6C3"/><path d="m36.79 6.19-.03.28c0 .13.09.21.22.22.23.02.4-.1.58-.2.15-.09.3-.16.47-.15.1 0 .17.05.2.16-.25-.07-.44.04-.62.2-.2.16-.43.3-.71.3-.34-.02-.55-.32-.44-.62.05-.15.15-.2.33-.2Zm-19.11.31c.06-.17.25-.19.38-.14.2.08.38.18.57.26.1.04.2.06.3.07.17 0 .28-.14.24-.3l-.04-.2c.14-.03.25.01.32.14.08.13.05.37-.05.48-.18.2-.45.25-.73.11-.15-.07-.28-.18-.41-.27-.17-.13-.35-.21-.58-.15Zm10.12 10.15a6.8 6.8 0 0 1-4.65-1.97 7.46 7.46 0 0 1-1.4-1.86.26.26 0 0 1-.03-.22 12.24 12.24 0 0 0 0-7.09.21.21 0 0 1 .01-.15 7 7 0 0 1 5.12-3.76c2-.35 3.8.17 5.4 1.42a7.2 7.2 0 0 1 1.9 2.28c.05.09.07.17.04.27a12.53 12.53 0 0 0 0 7.05c.01.05.01.13-.01.18a6.97 6.97 0 0 1-6.38 3.85Zm-2.22-7.55.3.37.59.72.67.81.47.58.58.7.47.57c.4.47.82.62 1.4.36.22-.1.43-.26.63-.41.36-.27.72-.53 1.02-.87a.98.98 0 0 0 .25-.93v-.1l.14-.2c.21-.37.36-.75.4-1.17.03-.33-.03-.66-.13-.98a13.9 13.9 0 0 0-.96-2.28c-.08-.15-.22-.23-.33-.2-.08.02-.15.07-.23.1l-.06-.1c-.25-.63-.56-1.23-.9-1.82a.3.3 0 0 0-.5-.04l-.14.16c-.35-.52-.7-1.03-1.03-1.55-.1-.15-.4-.15-.5 0l-1.04 1.55-.08-.1c-.18-.25-.45-.24-.57 0l-.79 1.55-.16.39c-.24-.18-.45-.12-.56.12l-.33.66-.6 1.5c-.14.36-.19.74-.14 1.11.05.45.22.87.47 1.24.04.07.05.12.03.19-.08.26-.1.52 0 .78.11.25.3.44.5.59.47.33.98.56 1.49.8l1.6.7c.06.04.13.11.16.18.08.23.06.46-.06.69a.34.34 0 0 0-.04.21c.02.12.11.2.24.21.13.02.26-.04.33-.17.16-.27.2-.57.16-.88a.9.9 0 0 0-.54-.75c-.58-.27-1.17-.52-1.75-.78a6.7 6.7 0 0 1-1.26-.69c-.18-.13-.3-.28-.29-.53.02-.26.12-.48.23-.7.19-.38.4-.74.6-1.11l.25-.47Zm23.89 20.07h-1.9l.78-3.26h.05l1.07 3.26Zm-35.96-.32v-3.77c.26 0 .5.01.73.03.2.02.4.05.58.1.55.13.89.49 1.02 1.02.13.5.14 1 0 1.5-.17.57-.57.88-1.12 1.03-.4.1-.8.1-1.21.09Zm6.85 2.35-.03-.5v-1.7c0-.27-.02-.53-.03-.8v-.74c.25 0 .47-.03.68 0 .25.04.5.1.74.18.46.17.73.52.85.97a2.83 2.83 0 0 1-.14 1.8c-.16.3-.4.5-.7.62-.45.18-.9.18-1.37.16Z" fill="#8BA6C3"/><path d="m28.35 11.55.82-1 .9-1.08c.07-.09.15-.17.21-.27s.08-.03.11.02l.23.45.6 1.13c.05.11.08.24.1.36.05.21-.05.38-.19.52-.38.38-.8.73-1.27.99-.39.2-.54.06-.75-.18l-.59-.72-.17-.22Zm-.38-.45-.42-.51-.6-.73-.15-.17c-.04-.07-.07-.12-.03-.21.25-.54.56-1.04.93-1.5l.27-.33c.15.19.31.36.44.55.22.33.42.67.63 1.01l.1.22c.08.11.05.2-.03.29l-1 1.2-.14.17Z" fill="#8BA6C3"/><path d="M29.64 9.06a8.03 8.03 0 0 1-.4-.68c-.02-.02 0-.08.01-.1l.44-.37.53-.43.75-.63c.06-.05.08 0 .1.04l.51 1.2c.11.29.2.58.28.87.1.38.04.74-.1 1.1l-.12.26c-.08-.15-.17-.28-.24-.43-.23-.46-.47-.92-.69-1.39a.32.32 0 0 0-.55-.07c-.16.22-.34.42-.52.63Zm-5.37 1.2a1.76 1.76 0 0 1-.24-1.05c.04-.3.14-.6.24-.88.16-.42.34-.81.52-1.22.03-.07.06-.15.1-.21 0-.02.07-.03.08-.02l.6.5.8.66.35.3-.42.73-.45-.55-.13-.15a.3.3 0 0 0-.46.08l-.83 1.52-.16.3Zm2.79-2.39-.61-.51 1.51-2.03 1.5 2.03-.54.45c-.02.01-.08-.01-.1-.04l-.62-.71c-.13-.15-.34-.15-.46 0-.2.25-.42.5-.64.74l-.04.07Zm3.33-1.29-.47.4-.46-.6c-.16-.2-.31-.4-.46-.62-.02-.03-.02-.09 0-.11l.48-.62.12-.15.79 1.7Zm-4.04-1.68.39.49.2.25v.1l-.94 1.24-.4-.34c-.02-.01-.02-.06-.01-.1.07-.19.15-.39.24-.58l.49-1 .03-.06Zm.98.3-.24-.32c-.02-.02-.03-.06-.01-.08l.86-1.3.04-.04.4.59.46.72c.03.05.04.1-.01.15-.08.08-.14.17-.22.28l-.35-.47c-.13-.19-.32-.24-.48-.12-.08.07-.13.17-.2.25l-.25.33Z" fill="#8BA6C3"/></svg>