<svg viewBox="0 0 82 21" fill="none" xmlns="http://www.w3.org/2000/svg"><g clip-path="url(#a)" fill="#8BA6C3"><path d="M31.31 9.35c-.07 0-.1-.04-.1-.11v-3.2c0-.57 0-1.32.09-1.88.02-.13-.1-.16-.14-.04-.1.27-.2.53-.32.8l-.94 2.2-.36.97c-.02.06-.06.1-.14.1h-.82c-.06 0-.1-.04-.12-.1l-.36-.97-.95-2.2a13.5 13.5 0 0 1-.33-.8c-.04-.12-.14-.1-.13.04.07.56.1 1.3.1 1.89v3.19c0 .07-.04.1-.11.1h-.91c-.07 0-.11-.03-.11-.1v-6.67c0-.07.04-.1.11-.1h1.4c.06 0 .1.02.12.08.08.24.16.52.25.72l1 2.37c.14.35.29.8.38 1.14.04.1.11.1.14 0 .1-.35.24-.8.37-1.14l1-2.36c.1-.22.2-.5.28-.73 0-.06.05-.09.12-.09h1.39c.07 0 .11.04.11.1v6.68c0 .07-.04.1-.11.1h-.9Zm9.49.55c0 .07-.05.12-.12.12h-1c-.07 0-.11-.05-.11-.12v-4.1c0-.57 0-1 .08-1.48.03-.13-.08-.18-.14-.04-.1.22-.24.46-.38.72l-2.33 3.81c-.2.34-.42.75-.58 1.12-.04.05-.08.09-.15.09h-1.3c-.08 0-.12-.05-.12-.12v-7.31c0-.08.04-.12.12-.12h1c.08 0 .12.04.12.12v4.07c0 .58-.03 1.01-.1 1.5-.02.12.1.16.16.05.1-.23.24-.48.38-.73l2.34-3.8c.2-.34.41-.76.56-1.12.04-.06.08-.09.15-.09h1.3c.08 0 .12.04.12.12v7.3Zm6.53.12c-.08 0-.13-.05-.13-.12v-3.22h-3.5v3.22c0 .07-.04.12-.11.12h-1c-.08 0-.12-.05-.12-.12v-7.31c0-.08.04-.12.12-.12h1c.07 0 .12.04.12.12v3.01h3.5v-3.01c0-.08.04-.12.12-.12h1c.08 0 .12.04.12.12v7.3c0 .08-.04.13-.12.13h-1Zm7.48-.17c-.59.2-1 .28-1.6.28-2.1 0-3.36-1.5-3.36-3.9s1.27-3.87 3.35-3.87c.62 0 1.04.05 1.6.25l.47.16c.07.02.1.08.08.14l-.28.83c-.03.07-.08.1-.15.08l-.48-.16a3.77 3.77 0 0 0-1.24-.19c-1.32 0-2.1 1.03-2.1 2.77 0 1.73.78 2.77 2.1 2.77.47 0 .8-.04 1.25-.2l.48-.16c.06-.02.12.01.15.08l.3.81c.02.08 0 .13-.08.15l-.49.16Zm6.59-5.15a3.32 3.32 0 0 1-1.52 1.36c-.07.03-.09.1 0 .13a3.6 3.6 0 0 1 1.6 1.47l1.36 2.22c.05.07.01.14-.09.14h-1.1c-.07 0-.1-.03-.15-.08l-1.08-1.73c-.51-.85-1.26-1.53-2.07-1.53h-.25v3.21c0 .08-.04.12-.12.12h-.99c-.08 0-.12-.04-.12-.12v-7.3c0-.08.04-.12.12-.12h.99c.08 0 .12.04.12.12v3.01h.24c.78 0 1.53-.65 2-1.42l1.02-1.63a.18.18 0 0 1 .16-.08h1.09c.09 0 .13.07.08.14l-1.28 2.08h-.01Zm-31.2 10.18a3.32 3.32 0 0 1-1.52 1.37c-.07.03-.08.1 0 .12.64.27 1.17.8 1.6 1.48l1.36 2.21c.06.08.01.14-.09.14h-1.1a.18.18 0 0 1-.15-.07l-1.08-1.73c-.51-.85-1.26-1.53-2.07-1.53h-.25v3.21c0 .08-.05.12-.12.12h-1c-.08 0-.12-.04-.12-.12v-7.3c0-.08.04-.13.12-.13h1c.07 0 .12.05.12.12v3.01h.24c.78 0 1.52-.64 2-1.42l1.01-1.63a.18.18 0 0 1 .16-.08h1.08c.1 0 .14.07.08.14l-1.28 2.09Zm5.63-2.22c1.66 0 2.63.9 2.63 2.4 0 1.6-1.1 2.49-3.12 2.49h-1.17v2.53c0 .08-.05.12-.12.12h-1c-.07 0-.12-.04-.12-.12v-7.3c0-.08.05-.13.12-.13h2.78Zm-.49 3.81c1.23 0 1.87-.5 1.87-1.41 0-.83-.52-1.31-1.38-1.31h-1.66v2.72h1.17Zm10.65 3.62c0 .08-.05.12-.12.12h-1c-.08 0-.12-.04-.12-.12v-4.1c0-.56.01-1 .09-1.47.02-.13-.09-.19-.14-.05l-.39.73-2.33 3.8c-.2.34-.42.75-.58 1.12a.15.15 0 0 1-.14.09h-1.32c-.07 0-.11-.04-.11-.12v-7.31c0-.08.04-.12.11-.12h1.01c.08 0 .12.04.12.12v4.07c0 .58-.03 1.01-.1 1.5-.02.12.09.16.16.04.1-.22.24-.48.38-.72l2.33-3.81c.2-.33.41-.75.57-1.11.03-.06.07-.1.14-.1h1.3c.08 0 .12.05.12.13v7.31h.02Zm6.36-.04c-.6.2-1 .28-1.61.28-2.09 0-3.36-1.5-3.36-3.9s1.27-3.87 3.36-3.87c.62 0 1.03.05 1.59.24l.48.17c.06.02.1.07.07.14l-.28.83c-.02.06-.08.1-.14.07l-.5-.16c-.38-.13-.7-.17-1.22-.18-1.33 0-2.1 1.02-2.1 2.76 0 1.75.77 2.78 2.1 2.78.47 0 .79-.05 1.24-.2l.48-.16c.06-.02.12.01.15.08l.3.8c.02.08 0 .13-.09.16l-.48.16Zm5.31.04c0 .08-.05.12-.12.12h-1c-.09 0-.13-.04-.13-.12v-6.34h-2.31c-.08 0-.12-.04-.12-.12v-.85c0-.07.05-.12.12-.12h5.88c.08 0 .12.05.12.12v.85c0 .08-.05.12-.12.12h-2.32v6.34Zm3.41.02c-.02.07-.06.1-.13.1h-1.05c-.09 0-.13-.06-.09-.14l1.87-4.74c.33-.86.62-1.72.84-2.56.01-.07.06-.1.13-.1h1.34c.08 0 .12.03.13.1.23.84.53 1.7.86 2.56l1.87 4.74c.03.08 0 .14-.1.14h-1.04c-.07 0-.11-.03-.13-.1l-.53-1.35h-3.43l-.53 1.35Zm2.96-3.85c-.25-.67-.51-1.46-.62-2-.03-.11-.16-.11-.18 0-.1.54-.37 1.32-.63 2l-.57 1.42h2.58l-.58-1.42Zm10.22 3.83c0 .08-.05.12-.12.12h-1c-.08 0-.13-.04-.13-.12v-6.34h-2.74v2.68c0 1.92-.58 3.08-1.83 3.74l-.38.2c-.07.05-.13.03-.17-.04l-.37-.78c-.02-.08 0-.13.06-.17l.4-.2c.71-.4 1.05-1.27 1.05-2.74v-3.65c0-.08.04-.12.12-.12h4.98c.08 0 .12.04.12.12v7.31-.01Zm7.75 0c0 .08-.04.12-.11.12h-1.01c-.08 0-.12-.04-.12-.12v-6.34h-2.74v2.68c0 1.92-.58 3.08-1.83 3.74l-.38.2c-.07.05-.13.03-.17-.04l-.37-.78c-.02-.08-.01-.13.06-.17l.39-.2c.72-.4 1.05-1.27 1.05-2.74v-3.65c0-.08.05-.12.12-.12h4.99c.08 0 .12.04.12.12v7.31-.01Zm-63.58-4.75c-.1-.42-.25-.84-.4-1.24l-.1-.25c-.14-.41-.3-.81-.45-1.22l-.74-2.02c-.36-1.01-.6-2.04-.7-3.05-.08-.75-.07-1.51.03-2.35a16.72 16.72 0 0 1 1.08-4.17v-.03c0-.05-.03-.09-.08-.09h-.02l-.04.02a10.29 10.29 0 0 1-3.54.76 6.2 6.2 0 0 1-2.7-.6 4.45 4.45 0 0 1-1.44-1.07l-.02-.01a.1.1 0 0 0-.07-.03 25.17 25.17 0 0 1-.07.04c-.42.45-.91.8-1.45 1.06a6.14 6.14 0 0 1-3.82.51c-.8-.11-1.61-.34-2.42-.66h-.04a.09.09 0 0 0-.08.08v.04l.05.1c.54 1.42.87 2.74 1.03 4.04.1.84.1 1.6.03 2.35-.1 1.01-.34 2.04-.7 3.06l-.74 2.01-.46 1.22-.1.25c-.15.4-.3.82-.4 1.24-.13.6-.04 1.09.28 1.47.26.3.58.56.96.75a8 8 0 0 0 1.14.46c.61.2 1.25.37 1.85.53l1 .26.09.03a12 12 0 0 1 2.35.84 3.06 3.06 0 0 1 1.44 1.3l.07.02c.04 0 .06-.01.08-.04v-.01a3.1 3.1 0 0 1 1.43-1.28c.75-.38 1.56-.61 2.35-.84l.1-.02.99-.27c.6-.16 1.24-.32 1.84-.52.46-.15.83-.3 1.15-.46a3 3 0 0 0 .96-.76c.33-.38.41-.86.28-1.47v.02Zm-4.66-1.7-.51-.73a6.9 6.9 0 0 0-.54-.69l.78 4.01c-1.1.76-3.02 1-4.25 1s-3.15-.24-4.25-1l.78-4c-.2.21-.37.45-.54.68l-.51.72c-.12-.1-.1-2.35.04-3.37.06-.5.16-1 .34-1.47.17-.44.67-.77 1.22-.52.3.14.5.36.62.67l.1.32c.23-.11.25-.29.23-.48-.06-.56-.4-.9-.92-1.1l-.87-.28a1.47 1.47 0 0 1-.64-.4c-.44-.53-.14-1.36.55-1.54.1-.03.2 0 .29-.06.67-.6 1.2-1.31 1.87-1.9l.02-.02c.02 0 .03.02.03.04v.02l-1.48 2.26c.05.4.07.8-.24 1.1.1.11.2.14.29.19.35.17.69.38 1 .63.59.44.85 1.43.15 2.1l-.23.23c-.34.36-.55.8-.63 1.28l-.21 1.38c-.15.95-.3 1.9-.47 2.86l-.07.42c.5.24 1.15.37 1.7.45l.3.04.25-4.03c.02-.22.05-.87.1-1.04.04-.17.22-.43.34-.52.1-.1.23-.16.23-.16l-.03-.06a1.13 1.13 0 0 1-.08-.4c.01-.15.1-.47.12-.59.03-.12.03-1.07.03-1.07s-.05-.07-.06-.13c-.01-.05.04-.11.08-.12h.13s-.09-.07-.19-.28c-.1-.2-.1-.65-.1-.65s.08-.09.3-.1c.2-.03.59-.03.8 0 .22.01.3.1.3.1s0 .44-.1.65c-.11.21-.2.28-.2.28h.13c.04 0 .1.08.09.12a.3.3 0 0 1-.08.13s0 .95.03 1.07c.03.12.11.44.12.59.01.14-.05.35-.07.4l-.03.06s.12.07.23.16c.1.09.3.35.34.52.05.16.08.81.1 1.04l.24 4.03c.1 0 .2-.02.3-.04a6.1 6.1 0 0 0 1.7-.45l-.07-.42c-.17-.95-.31-1.9-.46-2.86l-.21-1.38a2.5 2.5 0 0 0-.63-1.28l-.23-.24c-.7-.66-.44-1.65.14-2.1.32-.24.65-.45 1-.62.1-.05.2-.08.3-.18-.32-.31-.3-.71-.24-1.11-.5-.76-1-1.5-1.48-2.26v-.02c0-.02 0-.04.02-.04l.03.01c.66.6 1.2 1.31 1.87 1.9.08.06.19.05.28.07.69.18 1 1.01.55 1.53-.17.2-.4.33-.64.4l-.87.3c-.52.19-.86.53-.92 1.1-.02.18 0 .35.22.47l.11-.32c.11-.3.32-.53.62-.67.55-.25 1.04.08 1.22.52.19.47.28.97.34 1.47.15 1.03.17 3.28.05 3.37h.03Z"/></g><defs><clipPath id="a"><path fill="#fff" d="M0 0h82v21h-82z"/></clipPath></defs></svg>