<svg viewBox="0 0 61 15" fill="none" xmlns="http://www.w3.org/2000/svg"><g clip-path="url(#a)" fill="#8BA6C3"><path fill-rule="evenodd" clip-rule="evenodd" d="m10.14 13-1.2 2h52.03v-2h-50.83Zm-2.18-12.83v7.74c0 .22 0 .47-.02.72-.01.21-.06.42-.13.63a.84.84 0 0 1-.3.39c-.24.18-.86.17-1.08 0a.87.87 0 0 1-.3-.4c-.06-.2-.1-.4-.11-.61l-.02-.72v-7.75h-2.57v7.78a6 6 0 0 0 .25 1.83c.15.47.41.91.77 1.27a3.93 3.93 0 0 0 5.14-.16c.35-.4.6-.88.72-1.4.14-.62.21-1.25.2-1.9v-7.42h-2.55Zm34.66 6.53h-1.82l.92-3.69.9 3.7Zm.7-6.53h-3.13l-2.84 11.57h2.37l.66-2.94h2.67l.66 2.94h2.38l-2.77-11.57Zm-28.28 9.53.48 2.09 2.45-.07-1.16-5.52-1.77 3.5Zm-.71-7.51-.49-2.09-2.45.08 1.16 5.52 1.78-3.51Zm1.81-2.02-5.6 11.59h2.7l5.44-11.59h-2.54Z"/><path fill-rule="evenodd" clip-rule="evenodd" d="m23.5.17-1.71 8.25-1.7-8.25h-2.4l2.5 11.57h3.18l2.54-11.57h-2.42Zm37.46 11.63h-5.95v-11.58h5.95v1.76h-3.6v2.84h3.64l-.02 1.75h-3.62v3.47h3.6v1.76Zm-8.5 0v-.57c-2.31 1.53-5.55.77-5.93-2.5-.2-1.68-.34-5.1.44-6.6 1.06-2 3.78-2.6 5.8-1.13.66.48 1.03 1.27 1.02 2.35l-.02 1.2h-2.45v-1.57c0-1.1-2.35-1.13-2.35.15v6.2c0 1.15 2.35 1.34 2.35 0v-1.51h-1.2v-1.72h3.64v5.7h-1.3Zm-15.52-8.49h-2.57v-.57c0-.6-.23-.9-.68-.9-.26 0-.44.07-.54.22-.1.14-.14.37-.14.68-.02.37.11.73.36 1 .25.26.73.69 1.44 1.3.71.6 1.25 1.19 1.6 1.75.35.56.53 1.24.53 2.04 0 1.08-.28 1.88-.82 2.4-.54.53-1.36.79-2.44.79-.94 0-1.7-.2-2.32-.6-.6-.4-.91-1.06-.91-1.99v-1.03h2.56v.89c0 .33.06.56.16.69.1.12.28.19.52.19.46 0 .69-.3.69-.88 0-.59-.15-1.05-.45-1.38-.45-.49-.93-.94-1.45-1.34a7.14 7.14 0 0 1-1.52-1.63 3.72 3.72 0 0 1-.51-2.05c0-1.93 1.1-2.89 3.28-2.89.97 0 1.74.2 2.33.6.58.4.88 1.05.88 1.96v.75Z"/><path d="M29.26.22h-2.5v11.58h2.5v-11.58Z"/><path fill-rule="evenodd" clip-rule="evenodd" d="M7.96 15h-7.96v-14.78h2.4v12.77h6.8l-1.24 2.01Z"/></g><defs><clipPath id="a"><path fill="#fff" d="M0 0h61v15h-61z"/></clipPath></defs></svg>