<svg viewBox="0 0 62 23" fill="none" xmlns="http://www.w3.org/2000/svg"><g clip-path="url(#a)" fill="#8BA6C3"><path d="M48.7 13.96c.03.07.08.04.12.04h1.66c.04 0 .1.02.12-.04l.01-.25v-10.1c0-.08-.03-.17.04-.24l.46.59 1.31 1.71 1.09 1.4 1.13 1.5c.13.08.26.07.4.01l1.06-1.4.87-1.14 1.06-1.4.9-1.2c.03-.04.05-.08.12-.07v10.59c.03.06.09.04.13.04h1.66c.04 0 .1.03.11-.04v-11.33l.01-2.25c0-.11 0-.17-.14-.17h-1.52c-.1 0-.15.04-.2.12l-.45.58-.95 1.25-.94 1.21-.97 1.26-.88 1.16c-.06.08-.08.06-.14-.02l-.9-1.17-1.36-1.73c-.65-.84-1.3-1.67-1.93-2.51a.33.33 0 0 0-.3-.15h-1.35c-.18 0-.23.04-.23.24v13.3l.01.2Zm-19.8 0c0 .06.05.04.09.04h1.67c.03 0 .08.01.1-.04.07-.05.03-.13.03-.2v-13.35c0-.06.05-.14-.04-.19h-1.65c-.18-.01-.22.05-.22.23v13.3l.01.2Zm31.94 1.81h-32.03v.41h32.23v-.4l-.2-.01Zm-1.64 2.23a.16.16 0 0 0-.05-.03c-.16-.06-.27-.06-.34 0-.05.01-.06.04-.06.12a.71.71 0 0 0-.02.19v.23c-.02.18.05.37-.04.54l-.91-1.06c-.1-.08-.22-.02-.32-.04-.1-.01-.13.04-.13.14l.02 1.8h.02c.14.06.29.06.44 0v-1.08h.04l.92 1.07c.14.08.29.08.43 0v-1.88Zm-9.95.97-.82-.98a.52.52 0 0 0-.44 0v1.9c.15.06.3.06.44 0h.02l.01-1.1c.24.2.4.46.6.68l.4.45c.12 0 .25.05.37-.02l.02-.01v-1.6c0-.38.08-.33-.32-.34-.13 0-.16.05-.15.17v.92c-.07.02-.1-.03-.13-.07Zm7.73.03c.07-.07.05-.14 0-.21l-.02-.12c-.14-.43-.45-.64-.86-.72a.33.33 0 0 0-.32 0c-.07.01-.15.02-.22.05-.33.11-.6.4-.66.8a.3.3 0 0 0 0 .29c.02.19.09.35.21.5.19.2.41.32.67.37.1 0 .22.04.33-.03.44.02.9-.51.87-.92Zm-.91.51c-.08 0-.17-.03-.25.03-.5-.07-.58-.77-.26-1.04.31-.28.78-.12.95.33v.22c-.05.26-.2.42-.44.46Zm-3.91 2.39a1.23 1.23 0 0 0-.68-.01h-.03l-.04.02c0 .24.08.37.27.38.05.2-.07.25-.23.25h-.24c-.24-.04-.38-.19-.44-.43v-.25c.05-.28.19-.4.51-.47h.25c.19.01.36.15.55.13a.42.42 0 0 0 0-.4c-.15-.1-.32-.07-.47-.15a.57.57 0 0 0-.44 0c-.17.05-.34.1-.5.18-.42.23-.53.92-.3 1.32.2.33.5.45.83.52h.29c.08 0 .15-.03.22-.04.35-.06.45-.2.45-.56v-.48Zm-6.24-3.9c-.03-.06-.08-.05-.12-.05h-.8c-.05.04-.04.1-.04.16v1.64c0 .05 0 .1.04.14.01.04.05.04.08.04h.88c.57-.09.85-.43.86-.97 0-.59-.39-.95-.9-.97Zm-.08 1.54c-.11-.07-.24 0-.36-.04v-1.12l.32-.01c.32.01.47.14.52.46v.22c-.04.3-.21.45-.48.5Zm-9.45 2.28c.03-.05.01-.13.06-.17.06-.07.05-.14 0-.21-.1-.24-.23-.43-.52-.42-.27-.09-.56-.02-.83-.04-.04 0-.07 0-.08.04v1.89c.16.07.31.07.47 0v-.54c0-.07-.04-.17.04-.2.09-.04.17.02.23.08.05.05.1.12.12.18l.22.48c.17.07.34.07.5 0l-.24-.6c-.11-.25-.12-.25.03-.5Zm-.62-.04h-.27c0-.07-.02-.14 0-.2.01-.07-.07-.2.06-.22.14-.02.32-.03.4.14.06.16-.07.23-.19.29Zm1.88-2.65c.07-.34.01-.7.03-1.04 0-.05.01-.1-.04-.13h-.43c-.07.03-.05.1-.05.15v1.06c0 .03-.02.05-.03.07-.1.23-.31.35-.52.3-.18-.03-.32-.25-.32-.5v-1.04a.53.53 0 0 0-.47 0l-.01 1.13c-.02.34.13.56.4.72.12.06.23.09.35.11.12 0 .25.04.36-.03.43-.03.7-.33.72-.8Zm.58 1.89a.78.78 0 0 0-.55 0c-.03.04-.06.07-.07.11l-.68 1.78a.6.6 0 0 0 .5 0c.07-.1.08-.25.17-.34l.8.01c.04.13.05.27.15.36.16 0 .32.06.48-.03l-.8-1.89Zm-.5 1.17c.03-.23.14-.44.22-.71l.29.71h-.52Zm11.56-1.17a.78.78 0 0 0-.58 0l-.72 1.89a.6.6 0 0 0 .5 0c.04-.11.07-.23.13-.33h.5c.1 0 .23-.04.34.04l.11.3c.16.08.32.02.48.03.06 0 .04-.05 0-.08l-.76-1.84Zm0 1.17-.51.02c0-.22.12-.4.19-.6.04-.1.08-.02.1.04l.22.54Zm9.2.28c-.48.22-.83.1-1.03-.36.07-.1.03-.2.03-.3.05-.23.27-.39.52-.41.26-.03.49.09.72.17a.53.53 0 0 0 0-.43c-.12-.13-.3-.08-.44-.17a.48.48 0 0 0-.4 0l-.22.05c-.42.11-.77.57-.72.99.06.59.37.87.86.95.12.06.24.04.37.03.2-.04.4-.08.59-.2.07-.16.08-.31-.01-.46l-.27.14Zm2.08-3.68c-.14-.07-.3-.1-.43-.2-.06-.04-.12-.07-.1-.15a.17.17 0 0 1 .18-.11c.18 0 .36.02.52.12.05.03.1.09.16.03.07-.06-.01-.36-.1-.42-.1-.07-.22-.04-.32-.11a.4.4 0 0 0-.36 0l-.13.03c-.28.1-.43.26-.42.53 0 .25.13.43.35.54l.44.19c.2.08.2.16.04.31-.1.01-.2-.04-.28.03a1.73 1.73 0 0 1-.47-.24.5.5 0 0 0 0 .46l.47.16h.24c.06.03.09-.02.13-.03.3-.07.5-.29.5-.56.01-.23-.18-.47-.42-.58Zm-16.84.75v-.1c0-.36-.04-.3.3-.31.16-.01.33.05.5-.05l-.01-.33c-.04-.08-.1-.04-.16-.04h-.63v-.01c0-.4-.02-.31.32-.33.17-.01.35.06.51-.05v-.32c-.01-.02-.02-.04-.04-.04l-1.2-.01c-.1 0-.1.06-.1.14v1.8c.02.05.07.04.1.04h1.15c.03 0 .08 0 .1-.05a.35.35 0 0 0 0-.33l-.84-.01Zm-9.95 0v-.1c0-.36-.03-.3.3-.31.16-.01.34.05.5-.05v-.33c-.04-.08-.11-.04-.16-.04h-.64c0-.41-.02-.32.32-.34.17-.01.35.06.51-.05v-.32c0-.05-.04-.05-.07-.05l-1.23.01c-.06.03-.05.08-.05.13v1.7c0 .05-.01.1.05.13h1.2c.04 0 .09.02.1-.04.06-.1.08-.22 0-.33h-.83Zm20.31 3.08-.02-.04-.83-.01v-.1c0-.36-.04-.3.3-.32.16 0 .33.06.5-.04a.36.36 0 0 0 0-.34l-.01-.03a227.48 227.48 0 0 1-.79-.01c0-.4-.02-.32.31-.34.18 0 .36.06.52-.04a.36.36 0 0 0 .01-.34l-.01-.03h-1.2c-.12 0-.15.04-.15.16v1.66c0 .12.04.16.15.15h1.01c.25 0 .3-.07.21-.32v-.01Zm-12.31-1.17c0-.32-.16-.48-.47-.47-.05.03-.05.08-.05.13v1.71c0 .05 0 .1.05.13h.27c.16.03.2-.03.2-.2v-1.3Zm-10.94-.47c-.13.02-.25-.05-.37.04l-.07.06-.4.5c-.08.1-.12.16-.22 0-.12-.2-.3-.38-.45-.56-.13-.08-.27-.03-.4-.03-.06.02-.04.08-.04.12v1.71c0 .05-.02.1.04.13h.43c.08-.06.04-.15.04-.23.03-.28-.04-.57.04-.85.12.15.25.29.35.45.07.1.1.1.18.02.14-.15.23-.34.38-.48.1.27.02.55.05.82 0 .09-.04.2.04.27h.43l.03-.03.01-1.84c0-.06-.02-.1-.08-.1Zm10-3.02c-.13 0-.28-.06-.4.04v1.88a.5.5 0 0 0 .43.01h.02l.01-1.8c0-.05.02-.13-.06-.13Zm13.36-.01c-.1-.01-.13.05-.13.14l.01 1.8h.03c.14.06.29.06.44 0v-1.9c-.11-.09-.24-.02-.36-.04Zm-7.45 3.04h-.43c-.07.04-.04.12-.04.18v.67c0 .07.02.14-.05.2l-.16-.16c-.25-.29-.47-.6-.75-.86-.12-.08-.26-.03-.4-.03-.05.02-.04.08-.04.12v1.71c0 .05-.01.1.04.13h.43c.07-.05.05-.12.05-.19v-.9l.14.13c.28.3.5.65.81.92.13.09.27.03.4.04.05-.03.04-.08.04-.13v-1.7c0-.05.01-.1-.04-.13Zm-14.72.12c0-.05 0-.1-.05-.13h-.27c-.16-.02-.2.04-.2.2v1.3c0 .32.16.48.47.47.05-.03.05-.08.05-.13v-1.71Zm8.73-.13h-1.68l-.02.02c-.06.12-.02.24-.02.35.21.1.44.02.66.05v1.07c0 .33.17.5.48.48.08-.06.04-.14.04-.21v-1.17c0-.13.04-.17.16-.18.16 0 .33.06.48-.04v-.33c-.02-.06-.06-.04-.1-.04Zm-1.36-1.98-.85-1c-.14-.1-.29-.03-.43-.04-.06.03-.04.1-.04.15v1.64c0 .05 0 .1.03.14h.01c.15.07.29.07.43 0h.01c.06-.06.04-.13.04-.2v-.9l.11.1.8 1c.15.07.3.07.44 0 .04-.03.04-.07.04-.12v-1.68c0-.05 0-.1-.05-.13h-.42c-.07.05-.05.12-.05.19v.69c0 .06.03.15-.07.16Zm-4.99 2.9h-.03a1.23 1.23 0 0 0-.72 0v.34c.07.09.16.02.24.05v.2c-.06.06-.13.04-.2.05-.08 0-.17-.04-.24.03-.2-.1-.42-.17-.44-.45v-.3c.07-.28.27-.39.52-.43h.24l.51.14c.02.02.06.04.07 0 .01-.13.06-.28-.03-.42l-.51-.14a.5.5 0 0 0-.4 0c-.07 0-.12.04-.19.06a.8.8 0 0 0-.68.61c-.1.35-.07.69.17.98.2.24.46.32.74.37.1 0 .2.04.28-.03.24 0 .46-.07.64-.25.08-.27.02-.53.03-.8Zm-1.54-14.37c.04.36.07.73.13 1.08.15.8.44 1.53.83 2.23a6.47 6.47 0 0 0 3.88 3.05c.5.14 1 .24 1.52.27h1.16c.11.03.22-.02.32-.03a6.96 6.96 0 0 0 4.15-1.86c.54-.5.97-1.1 1.32-1.77.5-.96.74-2 .82-3.1a1.2 1.2 0 0 0 0-.63c-.06-.31-.07-.64-.12-.96a6.92 6.92 0 0 0-3.99-5.17 8.05 8.05 0 0 0-2.74-.6.7.7 0 0 0-.48 0c-.53.03-1.05.1-1.56.21a6.45 6.45 0 0 0-4.73 4.13c-.24.6-.38 1.23-.46 1.87-.03.17-.07.35-.02.52-.07.25-.02.5-.03.76Zm2-1.05c.1-.82.34-1.6.78-2.29a4.62 4.62 0 0 1 3.82-2.26h.8c1.14.04 2.17.42 3.04 1.2a5.16 5.16 0 0 1 1.42 2.15c.17.48.27.98.32 1.49v.59a6 6 0 0 1-1.18 3.15 4.84 4.84 0 0 1-2.59 1.64c-.62.19-1.27.23-1.9.16a4.98 4.98 0 0 1-4.49-4.3c-.03-.15-.02-.3-.04-.44v-.63c-.07-.16 0-.32.01-.46Zm26.09 14.52-.52-.01c-.18.16-.27.39-.42.57-.17-.15-.24-.37-.38-.54-.16-.1-.33-.02-.5-.04-.02 0-.08-.02-.08.04-.01.05.03.07.06.09l.65.91v.76c0 .06-.02.13.04.17h.43c.05-.03.04-.08.04-.13v-.8l.68-1v-.02Zm-10.39-1.12c.05-.11.06-.25.16-.34l.8.02c0 .12.07.22.12.32.16.1.32.03.49.04.03 0 .02-.05-.01-.08l-.77-1.84a.78.78 0 0 0-.55 0c-.16.3-.27.65-.4.98-.1.3-.25.59-.32.9l-.01.02v.01c.16.01.33.07.48-.02Zm.8-.72h-.52c.05-.22.13-.42.25-.66l.26.67Zm-9.08.72.01-1.5h.3c.12-.02.25.04.37-.05 0-.12.04-.24-.03-.35l-.01-.02h-1.74l-.02.01v.01c-.06.11-.02.23-.02.35.21.1.44.01.66.05l.01 1.5c.16.08.32.08.47 0Zm10.83.02.03-.01.01-1.51c.22-.04.45.05.67-.06 0-.11.04-.23-.03-.34l-.01-.02h-1.45c-.34 0-.34 0-.33.36.04.08.11.05.17.05h.5v1.51c.15.07.3.07.44.01Zm-20.32 0 .02-.01v-1.8c0-.05.02-.13-.05-.13-.14 0-.29-.06-.42.04v.7h-.87v-.24c-.03-.17.04-.34-.05-.5h-.43l-.01.01v.05c-.05.62-.06 1.25 0 1.87h.01c.14.07.29.07.43 0 .07-.05.04-.13.04-.2v-.56h.76c.1 0 .12.03.12.13v.62c.15.08.3.07.44.02Zm23.27 1.09c-.08.06-.04.15-.04.23-.03.28.04.57-.04.85l-.92-1.05a.5.5 0 0 0-.43 0v1.89c.09.1.2.02.3.04.14.03.17-.04.17-.17v-.96c.07.04.11.1.16.17l.83.96c.13-.01.27.05.4-.04v-1.89c-.14-.09-.3-.03-.43-.03Zm-27.14-2.62h.63v1.36c0 .07-.03.15.05.2.14-.02.3.04.44-.04.05-.06.03-.14.03-.2v-1.14c0-.14.04-.18.17-.18.14 0 .29.04.43-.03a.39.39 0 0 0 0-.38h-1.75a.44.44 0 0 0 0 .41Zm-2.28-7.15v-.66c0-.09.04-.18-.03-.26-.05-.33-.04-.66-.09-.99a17.48 17.48 0 0 0-3.14-7.94c-.25-.35-.52-.7-.79-1.04a.27.27 0 0 0-.23-.12h-2.17c.27.24.47.49.68.72.43.48.85.98 1.25 1.5.61.8 1.12 1.66 1.56 2.58a14.55 14.55 0 0 1 1.27 4.05c.06.43.08.86.15 1.29a18 18 0 0 1 0 .75h-3.49c-.1 0-.13-.02-.14-.13l-.15-.99a12.76 12.76 0 0 0-2.51-5.68 10.88 10.88 0 0 0-3.82-3.1 9.98 9.98 0 0 0-3.54-.95c-.06-.06-.13-.03-.2-.03h-.59c-.14 0-.28-.04-.4.04a9.6 9.6 0 0 0-5.01 1.68c-.69.44-1.31.96-1.86 1.59-.35.4-.71.79-1.03 1.23-.63.88-1.15 1.84-1.52 2.87a12.1 12.1 0 0 0-.78 3.8c-.06.07-.03.15-.03.22v.96c0 .1-.03.2.03.3-.07.09 0 .17 0 .25a16.8 16.8 0 0 0 1.42 5.55 17.63 17.63 0 0 0 2.64 4.2c.05.07.11.04.17.04h1.98c.04 0 .1.02.12 0 .06-.05-.01-.06-.03-.09-.45-.5-.93-.98-1.35-1.51a14.33 14.33 0 0 1-3.08-6.05 15.6 15.6 0 0 1-.34-1.93c-.02-.17-.06-.36-.01-.54v-.76h3.46c.08 0 .12 0 .13.1 0 .18.05.36.07.53a12.5 12.5 0 0 0 3.13 6.8c.6.68 1.28 1.25 2 1.75a9.93 9.93 0 0 0 4.81 1.7h1.12c.08 0 .17.04.25-.03.2-.03.39-.02.58-.04a9.56 9.56 0 0 0 3.96-1.44 11.14 11.14 0 0 0 3.13-2.96 12.86 12.86 0 0 0 2.4-6.96c.06-.09.02-.2.03-.3Zm-7.35-3.03c.3.76.5 1.55.6 2.36.02.13.01.28.06.4.04.1.01.16-.1.15h-1.71c-.03-.14.03-.29-.04-.42-.08-1.03-.34-2-.82-2.94h1.37c.47 0 .47 0 .64.45Zm-3.85-4.82c.07-.06.1-.04.17 0a10.05 10.05 0 0 1 3.15 3.6l-1.65.01c-.07 0-.15-.02-.21.04-.18-.24-.35-.48-.53-.7a8.5 8.5 0 0 0-1.37-1.4c-.26-.2-.54-.37-.83-.56.47-.3.88-.63 1.27-.99Zm-4.18 3.61v-1.72c.7-.04 1.37-.2 2.01-.46a.39.39 0 0 1 .36.01 7.31 7.31 0 0 1 2.4 2.03l.08.14h-4.85Zm.23-5.13c.79.1 1.57.26 2.31.55.4.16.8.36 1.19.57a5.98 5.98 0 0 1-3.74 1.7v-2.82h.24Zm-.96 5.13h-4.78c-.07 0-.14.02-.15-.08a7.1 7.1 0 0 1 2.5-2.11c.08-.05.17-.04.26 0 .7.28 1.42.46 2.17.48v1.7Zm0-5.12v2.77c-.18.12-.37.01-.54-.01a5.68 5.68 0 0 1-2.89-1.28l-.49-.42a8.03 8.03 0 0 1 3.92-1.06Zm-6.72 3.5a9.2 9.2 0 0 1 2.07-1.98c.14-.09.24-.11.4.04.36.36.75.67 1.2.93-.38.27-.75.51-1.1.8-.52.45-.97.97-1.38 1.53l-.2.3h-2.02c.28-.58.63-1.12 1.03-1.61Zm-.2 4.95c0 .06-.06.1-.03.16v.4c-.01.15.04.36-.04.45-.09.1-.28.03-.43.03h-1.38c-.11 0-.16-.01-.15-.15.02-.45.1-.88.18-1.32.13-.68.35-1.33.58-1.98.04-.1.08-.17.2-.16h1.82c-.17.37-.32.72-.44 1.1-.15.48-.28.96-.3 1.47Zm.84 1.04h-.24c-.02-.09.02-.18-.04-.25v-.12a.39.39 0 0 0 0-.34c.01-.39.09-.76.17-1.13.14-.6.39-1.13.65-1.66.05-.1.11-.11.2-.11h11.19c.18 0 .27.06.35.21.35.7.6 1.45.72 2.24.02.17.06.35.05.53v.51c.01.2-.05.4.04.58h4.15l.77.01.01.63a6.97 6.97 0 0 1-.83 2.88c-.04.07-.08.1-.15.1h-11.26c-.17 0-.24-.06-.32-.21a7.8 7.8 0 0 1-.63-1.75c-.06-.3-.08-.6-.14-.88 0-.03.02-.07.04-.1v-.6c-.02-.17.05-.36-.05-.53h-4.68Zm11.7 6.55-.01-1.48c0-.19.04-.24.22-.24h4.72c-.27.46-.65.81-1.02 1.17-.4.4-.88.7-1.37.99-.2.12-.37.09-.57 0-.44-.17-.9-.27-1.36-.35-.2-.04-.42.01-.61-.09Zm-.82.01c-.25.03-.49.08-.73.12-.45.07-.88.2-1.3.38a.26.26 0 0 1-.25-.01 6.84 6.84 0 0 1-2.48-2.13c.02-.12.11-.08.18-.08h4.67v1.6c0 .07 0 .11-.1.12Zm-7.87-2.6c-.31-.73-.5-1.5-.66-2.27-.06-.28-.08-.58-.13-.87 0-.08.03-.1.1-.1h1.67c.18 0 .07.14.1.2l.01.3c.02.46.12.9.22 1.33.13.53.35 1.02.56 1.53h-1.7c-.09 0-.12-.03-.17-.13Zm3.56 4.5a8.89 8.89 0 0 1-2.21-2.14c-.35-.47-.66-.96-.94-1.48h1.9c.27.4.55.79.88 1.14a7.72 7.72 0 0 0 1.79 1.47c-.07.14-.2.17-.31.24-.33.22-.64.49-.94.76-.07.07-.1.06-.17 0Zm2.16 1.12a7.83 7.83 0 0 1-1.54-.73 6.18 6.18 0 0 1 3.59-1.67l.2.01v2.63c0 .15-.05.2-.18.19-.7-.1-1.4-.2-2.07-.43Zm5.68-.13a7.1 7.1 0 0 1-2.71.55v-2.8l.15-.02c1.41.15 2.65.7 3.7 1.72-.37.23-.75.4-1.15.55Zm3.91-2.93c-.26.33-.55.62-.84.93-.4.41-.84.75-1.3 1.08-.05.03-.08.06-.13 0a8 8 0 0 0-1.37-1.07 7.97 7.97 0 0 0 2.67-2.6.13.13 0 0 1 .07-.06c.07.06.14.03.21.03h1.78c-.31.6-.68 1.16-1.09 1.69Zm2.29-5.9a10.34 10.34 0 0 1-.79 3.32c-.05.1-.08.14-.18.14h-1.8l.25-.6a6.6 6.6 0 0 0 .45-1.65c.03-.21.07-.43.08-.65.07-.23.02-.48.04-.71h1.8c.11-.01.16.01.15.15Zm19.3 9.89a.92.92 0 0 0-.37-.67c-.15-.13-.33-.16-.51-.22a.4.4 0 0 0-.36 0c-.06 0-.12.04-.19.06a1 1 0 0 0-.68.8 1 1 0 0 0 .5 1c.13.09.27.11.4.16.12 0 .23.04.33-.03.41.01.84-.43.88-.84.05-.09.06-.18 0-.26Zm-.92.68h-.28c-.23-.05-.35-.18-.4-.43v-.25c.04-.31.21-.43.46-.46.3-.04.59.12.63.36 0 .04.02.07.03.1v.26c-.07.22-.2.38-.44.42Z"/><path d="M9.75 12.02c.13.05.2-.04.24-.17l.47-1.42c.02-.07.03-.13.1-.12.05.3.11.6.13.9.02.23.13.45.07.7l-.66 2.65c-.03.14-.03.24.1.27.13.03.25.04.31-.16l.71-2.18c.02-.05.03-.1.1-.12l.33 1.02.4 1.26c.06.16.16.23.31.19.13-.03.15-.15.12-.26l-.44-1.8c-.08-.35-.24-.7-.22-1.07.02-.33.09-.66.14-.99.02-.14.01-.29.1-.45.29.76.61 1.48.87 2.21.11.3.16.6.04.9-.05.14-.06.3-.08.45 0 .02-.07.08 0 .08.18 0 .13.14.11.2-.06.2-.02.4-.03.59 0 .07 0 .14.1.14.09 0 .13-.03.14-.13.02-.22.06-.45.07-.67 0-.16.1-.14.17-.12.08.02.22-.1.24.11.01.23.05.46.07.7.01.1.08.12.16.1.19-.03.14-.19.11-.3-.05-.2-.1-.46 0-.57.12-.15.05-.25.02-.35-.12-.4-.16-.8 0-1.2l.87-1.95c.02-.04.04-.08.11-.06l.09.7v.34l-.11.34c-.18.65-.3 1.3-.37 1.98-.03.3-.05.62-.1.92-.02.18.02.17.14.15h.24l.27-.04h.25l.16-.03c.34.04.68.1 1.03.08.08-.09.05-.17 0-.26.02-.13-.03-.25-.04-.38a12.38 12.38 0 0 0-.52-2.81v-.3c0-.24.04-.47.1-.71.07.04.08.1.1.14l.52 1.14c.05.09.09.25.22.18.12-.06.05-.2.02-.3l-.32-.89-.45-1.14c-.04-.1-.12-.03-.19-.05-.1-.02-.21.04-.31-.04a.46.46 0 0 0 .3-.32c.06-.25 0-.58-.34-.66a.48.48 0 0 0-.6.33c-.1.3.01.54.31.65-.08.09-.18.02-.27.04-.1.02-.2-.05-.28.05l-.08.26c-.26.66-.53 1.32-.76 2-.13-.01-.26.04-.39-.04.1 0 .15-.09.19-.16.1-.15.05-.42-.06-.5-.2-.15-.43-.13-.57.05-.13.15-.12.34.04.5l.15.15h-.39c-.09-.26-.19-.5-.26-.76-.16-.54-.38-1.04-.5-1.58-.05-.08-.13-.04-.2-.05-.18-.02-.37.04-.55-.04a.62.62 0 0 0 .35-.46c.06-.33-.15-.59-.5-.67-.23-.06-.55.13-.6.4-.06.27 0 .63.34.73-.12.08-.26.02-.4.04-.1.01-.23-.05-.33.03l-.02.01c-.22.78-.48 1.54-.69 2.32-.03.13-.04.23.1.28Z"/></g><defs><clipPath id="a"><path fill="#fff" transform="translate(.034)" d="M0 0h61v23h-61z"/></clipPath></defs></svg>