<svg viewBox="0 0 48 47" fill="none" xmlns="http://www.w3.org/2000/svg"><path d="M24.28 31.8c-4.78-.06-8.74-1.68-11.9-5.07-2.9-3.1-4.34-6.8-4.26-11.03a15.42 15.42 0 0 1 5.1-11.45c3.24-3 7.13-4.34 11.54-4.25 4.1.1 7.61 1.62 10.52 4.44 3.2 3.11 5 6.88 4.97 11.38a15.34 15.34 0 0 1-5.1 11.66 15.86 15.86 0 0 1-10.87 4.32Zm-9.44-24.58-1.12-1.05c-.21-.2-.41-.43-.63-.67a.75.75 0 0 0-.15.13l-1.02 1.3a14.45 14.45 0 0 0-2.57 5.56c-.12.55-.21 1.1-.3 1.65-.06.4-.1.8-.14 1.2-.02.16.05.2.2.2h2.25c.13-3.2 1.22-5.98 3.48-8.32Zm18.53-.03.5.51c.31.35.63.7.93 1.07.3.37.58.75.85 1.13.09.12.11.28.17.42l.23.6c.14.33.3.65.4 1 .3.96.52 1.94.58 2.95l.08.64 2.36-.12a15.23 15.23 0 0 0-4.31-9.99l-.34.38-1.1 1.13c-.09.1-.2.17-.35.28Zm3.74 9.15c-.04.37-.07.73-.13 1.08-.11.63-.21 1.25-.37 1.87a13.28 13.28 0 0 1-2.85 5.09c-.1.1-.13.14 0 .25.33.3.64.62.95.93l.69.71c.47-.62.94-1.18 1.34-1.79.44-.67.84-1.37 1.22-2.08.43-.77.74-1.59.94-2.44a41.77 41.77 0 0 0 .63-3.73c-.8.2-1.6.05-2.42.11Zm-21.78 8.83-.3.34c-.4.41-.78.84-1.21 1.22-.25.21-.06.29.05.38l1.39 1.05c.85.65 1.8 1.12 2.78 1.57.53.24 1.1.41 1.65.58a19.45 19.45 0 0 0 2.84.63c.4.05.8.08 1.18.11v-2.41a12.23 12.23 0 0 1-8.38-3.47Zm8.3-24.4a16.1 16.1 0 0 0-9.97 4.15c.57.55 1.13 1.1 1.7 1.62.03.03.16 0 .2-.04.35-.28.68-.59 1.03-.86.72-.55 1.49-1.04 2.33-1.38.66-.27 1.34-.5 2.03-.7.56-.15 1.14-.22 1.71-.31.33-.05.67-.08.96-.1v-2.38Zm.94 30.27c3.92-.2 7.34-1.58 10.22-4.24l-1.83-1.65c.03-.06-.01-.01-.06.04-.34.38-.68.79-1.17.99a3.4 3.4 0 0 0-1.4 1.14c-.38.5-.7 1.03-1.24 1.38-.32.2-.65.47-1.07.24-.14-.07-.26-.18-.39-.27-.2-.13-.36-.36-.63-.32-.32.04-.63.11-.95.16-.32.05-.64.09-.96.1-.17.02-.33-.03-.52-.05v2.47Zm8.46-24.66.08-.02c.35-.63.86-1.11 1.5-1.48-.28-.24-.52-.49-.8-.7a15.77 15.77 0 0 0-5.56-2.86c-.58-.15-1.18-.24-1.77-.34-.37-.07-.75-.1-1.12-.14l-.82-.1v2.04l.25-.1.14.5c.42.03.85 0 1.27.08.66.13 1.32.28 1.97.49.44.14.85.4 1.28.6.39.2.78.34 1.22.16.13-.06.24-.05.4-.02a2 2 0 0 1 .87.44c.25.22.52.42.71.68.17.22.26.51.38.77Zm-17.64 1.38a12.51 12.51 0 0 0-3.21 7.76h2.3l.05-.41c.03-.85.24-1.66.52-2.46a8.41 8.41 0 0 1 1.88-3.12c.1-.11.1-.18-.01-.28-.37-.33-.72-.67-1.07-1.01-.17-.16-.32-.33-.46-.48Zm-4.79 13.67-.02.02c-.1-.05-.26-.07-.3-.15a5.07 5.07 0 0 1-.3-.8c-.1-.36 0-.7.18-1.02.13-.25.32-.3.57-.16.06.04.13.06.2.09.14-.35.28-.5.44-.42.18.1.32.28.52.46a9.33 9.33 0 0 1-.5-3.05h-2.44a15.68 15.68 0 0 0 4.08 9.92l1.72-1.8c0 .02-.05-.02-.1-.07-.3-.3-.55-.64-.96-.83-.18-.09-.28-.34-.39-.48-.14 0-.3.05-.38 0a1.5 1.5 0 0 1-.44-.46c-.1-.16-.12-.3-.36-.4-.29-.1-.52-.37-.78-.58l-.15.24-.59-.5Zm7-12.59a9.25 9.25 0 0 1 2.47-1.68 8.23 8.23 0 0 1 3.37-.8c.2 0 .24-.07.23-.25-.02-.48-.04-.96-.04-1.45 0-.2.03-.4.05-.64a12.74 12.74 0 0 0-7.64 3.1l1.57 1.72Zm14.52 14.15c.06-.4.18-.45.43-.24.11.09.2.23.25.37.09.26.13.53.2.82.04-.04.1-.07.13-.11.25-.29.52-.56.74-.88.41-.61.85-1.22 1.17-1.89.34-.69.61-1.42.8-2.16.21-.84.3-1.7.45-2.57h-2.34l-.04.47-.11.49c-.04.23.06.42.19.61.07.1.06.27.06.41 0 .02-.18.04-.27.06h-.15a9.3 9.3 0 0 1-2.23 3.98l.72.64Zm-1.51-15.27c.06.24.1.47.2.7.08.22.18.46.33.64.1.13.25.21.22.42 0 .03.06.1.1.12.3.17.56.35.56.74 0 .15.1.22.25.18.08-.02.15-.07.22-.08.09 0 .23-.01.25.03.05.07.02.2 0 .29-.01.07-.05.14-.08.2l.35.03-.11.27-.02.01c-.11.16-.07.25.14.28.08.02.21.05.23.1.1.3.24.6.15.92-.06.2-.15.38 0 .59.04.05 0 .17-.02.26-.12.41-.32.8-.55 1.16-.13.2-.3.27-.52.24v.63l.91.06c-.29-.43-.24-.8-.06-1.18.31-.63.54-.96.67-.99l-.01.3c-.02.2-.1.44-.04.64.1.34.17.68.15 1.03 0 .15.06.18.2.18h1.05l1.13-.06c-.08-.52-.13-1.03-.23-1.53-.19-.88-.43-1.74-.82-2.56-.07-.15-.11-.19-.27-.13-.22.08-.4.05-.5-.2-.28-.63-.88-.9-1.43-1.2a1.17 1.17 0 0 1-.47-.44c-.07-.1-.21-.16-.33-.23-.11-.07-.24-.1-.34-.17-.27-.18-.24-.48-.28-.74-.03-.24-.1-.46-.27-.63-.13-.13-.27-.2-.45-.06-.1.08-.23.13-.31.18Zm-6.92 17.84c-2.06.12-3.78-.7-5.4-1.84.04.11.1.2.18.29.12.15.11.26-.07.33-.22.07-.44.1-.67.15-.22.05-.48.05-.65.17-.37.25-.66.13-.97-.06l-.24-.12-.03.06a12.78 12.78 0 0 0 7.85 3.26v-2.25Zm.83-21.61v2.24c0 .06.1.15.16.16.53.07 1.07.12 1.6.2.81.11 1.56.41 2.28.78.35.18.69.4 1.08.62a.82.82 0 0 1-.14-.59c.02-.16-.29-.28-.23-.61.2.18.36.3.5.46.18.22.33.49.69.45l-.04-.14c-.1-.26-.25-.5-.15-.8.02-.07-.07-.19-.12-.28-.08-.16-.2-.3-.24-.48-.11-.38-.32-.71-.7-.85-.8-.28-1.62-.57-2.45-.78-.72-.18-1.48-.26-2.24-.38Zm3.93 7 1.67-1.62a9.8 9.8 0 0 0-5.57-2.21c.02.35.05.7.05 1.06 0 .33-.02.65-.04.97 0 .13 0 .24.17.27a6.53 6.53 0 0 1 3.72 1.53Zm-4.77-3.82a9.7 9.7 0 0 0-5.44 2.26l1.66 1.6c.28-.21.53-.43.8-.6a5.25 5.25 0 0 1 2.75-.92c.16-.01.25-.07.22-.24-.02-.13-.05-.26-.04-.38 0-.58.03-1.15.05-1.72Zm-1.65 10.42c.08-.13.13-.22.2-.3.03-.06.08-.16.13-.17.27-.06.32-.25.33-.48 0-.07.08-.18.14-.2.2-.04.41-.05.62-.07.49-.05.7.3.46.76-.06.13-.16.25-.19.38-.05.36-.26.57-.63.58h-.4v.06c.4.32.89.47 1.4.49.43.01.5-.05.61-.46.12-.45.2-.51.66-.51h.24c.07-.02.19-.06.2-.1.04-.27.29-.53.03-.83-.05-.06-.02-.19-.06-.28-.07-.2-.12-.42-.25-.59-.18-.23-.22-.28-.02-.5.11-.12.1-.21.03-.33-.05-.11-.1-.23-.15-.39l-.38-.33c-.15-.15-.3-.34-.53-.32-.33.05-.5-.17-.7-.35-.05-.05-.06-.18-.04-.25 0-.05.12-.08.19-.1l.2-.01-.01-.04h-.54l.1.38c.06.28 0 .42-.26.55-.16.09-.33.15-.48.24-.1.05-.17.13-.25.2l-.24.24c-.06.05-.14.08-.17.15-.22.34-.2.73-.25 1.12l.28-.1.21.37c-.09.2-.2.4-.26.6-.05.21-.16.3-.38.3l.15.28v.01Zm-4.88 4.76 2.01-2.06-.2-.25a6.6 6.6 0 0 1-1.23-2.5c-.05-.21-.11-.34-.3-.37-.05.19-.07.38-.14.55-.03.07-.2.17-.21.15-.12-.1-.21-.23-.32-.35l.27-.1.08.02-.1-.65c0-.04.03-.1.05-.11.05-.01.14-.01.16.02.2.29.4.16.59.03v-.25c.01-.25.04-.5.04-.75 0-.42-.32-.64-.72-.5-.13.03-.25.11-.21.28l.14.54c.08.3.07.31-.24.33-.08 0-.22.1-.22.15.02.25-.12.36-.32.44l-.36.13.07.26c.03.12.05.24.09.35.02.09.03.19.09.25.3.36.54.73.52 1.23 0 .05 0 .1.02.15.2.35.2.73.2 1.11 0 .2.08.37.19.55a2 2 0 0 1 .23.74c.01.08-.1.22-.19.28-.23.16-.24.15 0 .33h.01Zm-.92-6.79-.06-.39c-.06-.36.1-.68.23-1 .13-.33.3-.6.72-.6.14 0 .26-.08.23-.27-.03-.12.01-.19.16-.24.2-.07.36-.22.53-.34l.51-.4c.14-.11.29-.21.42-.33l.37-.35-1.7-1.62a9.19 9.19 0 0 0-2.34 5.54h.93Zm6.28 6.83a5.52 5.52 0 0 1-2.7-1.5l-1.58 1.6a9.63 9.63 0 0 0 4.32 2.08c-.36-.22-.53-.58-.73-.92-.1-.15-.1-.27.03-.4.09-.1.14-.22.2-.33.05-.1.1-.21.17-.3.08-.09.2-.15.3-.23Zm-.6-3.73-1.28 1.4c-.05.05-.09.12-.13.19.7.63 2.24 1.29 2.84 1.25v-.37c.02-.28.12-.38.4-.4.08-.01.16-.05.27-.09l-.13-.19c-.05-.11-.11-.23-.1-.35 0-.2.04-.4.07-.62-.82-.02-1.7-.4-1.95-.82Zm7.06 1.37v.09c.07 0 .14.02.2.01.28-.02.46-.13.55-.41.07-.22.29-.19.48-.2.17-.01.21.12.23.23.05.24.18.48-.01.72-.03.03-.03.08-.05.12-.08.32-.15.65-.25.96-.08.24-.31.33-.56.25-.23-.08-.46-.17-.7-.21-.44-.1-.88-.17-1.3-.24-.11.25.06.27.17.3.42.1.85.16 1.2.44.02.02.06.03.1.03l1.03-.1c.07-.02.13-.13.17-.21.08-.17.13-.34.2-.5.03-.06.12-.13.17-.13.05 0 .12.09.14.15.05.12.08.25.13.41.79-.99 1.53-1.95 1.79-3.25l-.63.12c-.14.02-.32.1-.42.05-.25-.14-.4-.1-.54.14-.12.19-.24.16-.36-.04l-.04-.06-.43.65c-.04.05-.13.09-.18.07-.23-.03-.36.1-.46.26-.15.22-.3.41-.63.35Zm3.56-6.42c-.07.08-.16.18-.23.29-.06.11-.1.24-.14.37-.01.07-.02.15.01.2.03.04.13.05.19.03.29-.09.53-.5.45-.8-.06-.25-.13-.5-.23-.74a.94.94 0 0 0-.28-.4c-.25-.22-.53-.39-.8-.58.03-.06.04-.12.08-.16.26-.26.15-.51-.01-.74-.28-.39-.59-.75-.9-1.14l-1.87 1.96.5.06c.21.03.43.1.64.09.48-.05.84.07 1.1.51.1.2.26.33.04.54l.18.16.22-.14c.23-.14.52-.11.66.05.11.14.24.27.4.44Zm-7.92-3.3v1.32c0 .25.4.54.65.47l.08-.05.71-.62c.33.33.25.76-.1 1.04-.24.2-.51.38-.8.59h.15c.22-.21.4-.1.59.05.07.06.15.1.23.15.17.1.34.03.39-.11.11-.35.41-.46.68-.64.17-.11.33-.26.5-.39l-.41-.19.5-.45c-1-.6-2.05-1-3.17-1.17Zm-4.33 1.65c.12.03.22.06.3.1.1.03.2.07.3.13.27.17.27.17.04.47.1 0 .2.03.23 0 .14-.16.25-.18.4-.01.05.06.17.05.26.06h.16c.33.2.7-.14.72-.5.02-.18.09-.38.32-.47.02.15-.05.34.19.31l.46-.06v-1.66a5.52 5.52 0 0 0-3.38 1.63Zm-8.14 4.46.53 3.2c.13-.15.22-.29.26-.44.06-.21.04-.44.11-.65.11-.31.15-.7.57-.8.05-.02.09-.1.14-.14.11-.11.21-.26.35-.33.13-.05.3 0 .42 0v-.84h-2.38Zm11.45 5.33c.17.2.3.26.55.13.32-.18.64-.12.97-.13.03.27.2.32.43.33.11 0 .25 0 .33.07.15.11.22.04.29-.08l.12-.26c.34-.04.77-.25 1.05-.56.11-.13.17-.31.22-.48.01-.04-.14-.18-.17-.17a.83.83 0 0 0-.33.23c-.1.13-.2.16-.36.09-.05-.03-.12-.04-.18-.06l.04.07c-.1.09-.19.25-.27.24-.14 0-.26-.13-.4-.2l.03.06c-.1.05-.23.15-.26.12-.15-.1-.3-.2-.47-.29-.17-.1-.27-.06-.39 0-.13.08-.26.15-.36.25-.12.12-.18.29-.3.38-.16.11-.36.17-.54.26Zm.98 6.14c.62-.1 1.22-.18 1.82-.26v-.06c-.16-.1-.34-.17-.49-.27a1.15 1.15 0 0 1-.29-.28c-.17-.24-.13-.5-.01-.73.1-.2 0-.29-.18-.31l-.85-.1v2Zm6.12-4.82.11-.12-.19.12c-.24.18-.26.42-.03.61.17.15.37.26.56.39.24.16.25.38.07.59-.13.14-.24.3-.33.46-.03.07 0 .18.02.28l.08.38 1.45-1.2c-.36.05-.51-.05-.56-.29a.84.84 0 0 0-.18-.42c-.32-.28-.67-.53-1-.8Zm-10.94-3.4c.27-.27.5-.49.7-.72.05-.05.06-.15.05-.22-.04-.19-.1-.37-.16-.54l-.08-.16-.05.02.04.35c-.3-.15-.59-.26-.58-.6-.13-.05-.3-.06-.34-.13-.14-.3-.38-.23-.7-.23l1.12 2.23Zm13.12-1.82.25-1.52h-1.37c.3.49.61 1.05 1.12 1.52Zm-12.44-1.16 1-.21c.17-.03.35-.08.46.13h.07l.1-.39c-.09.08-.16.19-.2.18a.38.38 0 0 1-.22-.17c-.07-.13-.1-.28-.13-.4-.1.01-.18.05-.24.03-.27-.12-.43-.06-.54.2l-.3.63Zm-5.18-.32c.15.52.32 1.02.25 1.57.35-.38.35-.41.14-.66l.2-.8-.59-.11Zm12.3 2.11c-.12.16-.12.31.06.46.11.1.2.23.3.33.04.04.1.06.16.06.03 0 .1-.07.1-.09-.05-.14-.08-.3-.17-.4-.11-.14-.28-.23-.44-.35Zm-.33 1.35-.05-.06c-.32-.03-.6.18-.56.4.1-.04.22-.08.32-.14l.29-.2Zm1.38-7.23.15-.53c-.4.24-.42.31-.15.53Zm-7.75 5.89.5-.4c-.09-.13-.17-.15-.26.03-.05.11-.13.21-.24.37Zm9.43 18.63-.82.69c-.43-.38-.87-.74-1.28-1.14a17.4 17.4 0 0 0-2.88-2.28c-.29-.19-.6-.34-.92-.5h-.12c-.96.42-1.85.96-2.64 1.63-.7.58-1.32 1.27-1.96 1.92-.16.15-.3.33-.45.5l-.9-.74a18.31 18.31 0 0 1 5.07-3.6c-.16-.04-.27-.1-.38-.1a2.95 2.95 0 0 0-1.93.37c-.73.47-1.41 1-2.16 1.46-.52.32-1.09.57-1.66.8-.89.33-1.82.37-2.76.33a5.02 5.02 0 0 1-2.34-.68c-.52-.3-.99-.69-1.48-1.03a.78.78 0 0 1-.2-.2c.4.15.8.34 1.21.47.72.22 1.46.26 2.2.14a16.3 16.3 0 0 0 1.99-.43c.63-.19 1.23-.48 1.85-.71.69-.26 1.3-.67 2.03-.81.36-.07.7-.15 1.07-.18.4-.04.82-.05 1.23-.05.7.01 1.39.11 2.06.31.1.03.21.02.3-.01a6.8 6.8 0 0 1 2.9-.34c1.22.1 2.4.45 3.53.92.68.28 1.33.6 2.02.85.47.16.97.23 1.46.3.36.05.73.05 1.09.05.9 0 1.71-.28 2.48-.73l.28-.14c-.4.47-.86.88-1.38 1.23-.59.38-1.22.68-1.9.83a6.7 6.7 0 0 1-4.63-.64c-.58-.32-1.12-.7-1.68-1.04-.59-.35-1.17-.72-1.79-1-.3-.13-.68-.07-1.03-.07-.16 0-.32.05-.54.1 1.87.98 3.57 2.1 5.05 3.52Zm-17.33-5.25-.65-.14-2.53-.47a7.77 7.77 0 0 1-4.16-2.1c-.43-.4-.87-.83-1.23-1.3a6.16 6.16 0 0 1-1.1-2.12c-.04-.16-.1-.32-.13-.48l.65.88c.33.44.76.77 1.21 1.08.83.57 1.73 1 2.63 1.43 1 .48 1.97 1.04 2.83 1.76.23.2.52.33.78.5l.05-.06-.32-.3a5.72 5.72 0 0 1-1.89-3.15c-.16-.75-.32-1.51-.46-2.28-.14-.68-.24-1.36-.54-2l.4.44.37.49a14.1 14.1 0 0 1 1.83 3.58c.28.77.52 1.55.86 2.29.23.5.59.95.92 1.4.13.2.33.34.5.5l-.02.06Zm22.57-.15c.28-.36.6-.7.85-1.07.57-.83.9-1.77 1.23-2.7.32-.9.62-1.8 1.04-2.66.33-.66.82-1.23 1.25-1.84.1-.15.23-.3.38-.42-.06.2-.14.38-.19.58-.15.68-.29 1.37-.42 2.06-.22 1.06-.35 2.14-.86 3.11a4.47 4.47 0 0 1-1.6 1.77l-.03.06c.18.06.19.07.48-.18.94-.78 1.97-1.42 3.05-1.98.57-.3 1.16-.55 1.72-.86.43-.24.84-.53 1.23-.83.5-.38.95-.83 1.3-1.36l.26-.42.06.02-.31.96a7.72 7.72 0 0 1-1.53 2.34 8.74 8.74 0 0 1-5.33 2.88c-.84.14-1.66.36-2.5.54h-.08Z" fill="#8BA6C3"/><path d="M41.44 26.14c.06-.06.15-.1.18-.18.4-.74.91-1.4 1.48-2.02.5-.54 1-1.05 1.47-1.6a37.9 37.9 0 0 0 1.64-2.06c.29-.38.45-.84.53-1.32 0-.05.03-.09.07-.13 0 .65.03 1.29-.1 1.94a6.99 6.99 0 0 1-1.22 2.73c-.69.96-1.5 1.8-2.48 2.48a82.4 82.4 0 0 1-2.27 1.54c-.29.19-.6.34-.86.5.17-.42.4-.85.51-1.3.17-.67.3-1.34.38-2.01.1-.73.12-1.48.2-2.21.1-.84.19-1.68.34-2.5.1-.56.3-1.1.46-1.65l.09.02c0 .2-.02.41 0 .61l.2 1.7c.07.49.16.97.21 1.46.04.35.04.7.06 1.06a4.14 4.14 0 0 1-.9 2.82l-.04.05.05.07Zm-11.79 6.74 1.45-.45a3.97 3.97 0 0 0 1.57-.86c.71-.65 1.4-1.33 2.1-1.98.65-.59 1.31-1.16 1.97-1.73.11-.09.24-.16.4-.27-.48.9-.92 1.76-1.4 2.6a4.87 4.87 0 0 1-1.92 2.03c-.33.17-.73.24-1.1.34-.11.04-.23.05-.35.08l.01.07c.27-.02.55-.02.82-.06.56-.08 1.11-.2 1.67-.27.58-.07 1.16-.08 1.73-.14 1.05-.1 2.1-.2 3.1-.53a5.15 5.15 0 0 0 2.02-1.22c.02-.01.05-.03.1-.02-.19.27-.36.55-.57.8a6.98 6.98 0 0 1-2.4 1.92c-.9.43-1.84.68-2.84.73a9.84 9.84 0 0 1-2.87-.31l-2.8-.67c-.22-.05-.45-.04-.69-.06Zm-28.03-13.48c.25.86.69 1.6 1.29 2.26.61.67 1.25 1.32 1.9 1.96a9.29 9.29 0 0 1 1.6 2.09c.14.25.3.5.6.64-.15-.28-.31-.54-.44-.82a4.9 4.9 0 0 1-.48-1.71c-.02-.27-.09-.53-.08-.8 0-.34.04-.68.1-1.02.15-.8.34-1.6.49-2.4.05-.26 0-.54.06-.82.12.4.27.8.36 1.2.14.64.24 1.29.33 1.93.06.4.06.8.1 1.19.06.55.14 1.1.18 1.66.08.88.27 1.73.57 2.56.11.31.26.6.41.95-.47-.3-.91-.57-1.34-.86-.81-.53-1.62-1.06-2.42-1.61a9.37 9.37 0 0 1-1.66-1.55 5.96 5.96 0 0 1-1.2-2.08 7.64 7.64 0 0 1-.3-1.34c-.06-.47-.05-.95-.07-1.43Zm5.06 11.32c.55.49 1.15.88 1.85 1.1.48.15.97.3 1.46.36.72.1 1.45.14 2.17.2.7.06 1.4.1 2.1.2.44.05.87.17 1.32.24.16.03.32 0 .5-.05-.32-.1-.63-.24-.96-.33a3.79 3.79 0 0 1-1.36-.76 5.58 5.58 0 0 1-1.45-2.1c-.29-.62-.63-1.2-.95-1.8.28.21.61.4.89.66.87.8 1.72 1.61 2.59 2.4a9.84 9.84 0 0 0 2.01 1.52 4.8 4.8 0 0 0 1.82.58l-1.72.37-2.34.56a6.82 6.82 0 0 1-4.65-.32 7.28 7.28 0 0 1-2.41-1.67c-.34-.34-.61-.74-.91-1.11l.04-.05Z" fill="#8BA6C3"/><path d="M41.49 13.28c.39 1.17 1.14 2.15 1.76 3.2.56.97.89 2 .76 3.14-.03.29-.13.57-.19.86-.02.1-.03.2-.03.32.22-.24.33-.52.36-.82.14-1.12.48-2.18.93-3.21.3-.7.6-1.4.85-2.13s.35-1.48.28-2.26h.06c.09.28.21.56.26.86.1.68.24 1.37.24 2.06 0 1.16-.22 2.3-.7 3.38a8.5 8.5 0 0 1-1.56 2.3c-.37.4-.67.88-1 1.32-.12.15-.22.3-.33.46v-.99a8.68 8.68 0 0 0-.5-2.71c-.31-1-.63-1.99-.9-3-.1-.43-.1-.9-.16-1.35l-.13-1.37v-.07Zm-36.19 9.74c-.34-.42-.66-.84-1-1.24-.33-.43-.69-.84-1.03-1.26a6.16 6.16 0 0 1-1.28-2.44c-.13-.55-.23-1.1-.3-1.67a8.92 8.92 0 0 1-.04-1.59 6 6 0 0 1 .51-2.24c-.02.13-.06.27-.05.4.06.52.07 1.06.21 1.56.2.7.49 1.4.78 2.07.41.96.86 1.9 1.06 2.94.05.3.08.62.16.92.05.2.15.4.24.6.02 0 .04 0 .06-.02-.04-.26-.1-.52-.12-.78-.03-.47-.05-.94-.05-1.41a4.5 4.5 0 0 1 .7-2.12c.29-.53.63-1.04.92-1.57.27-.5.5-1.03.74-1.53l-.06.97c-.03.32-.05.65-.1.97-.08.53-.17 1.05-.3 1.56-.2.81-.45 1.6-.66 2.4-.16.59-.35 1.17-.43 1.76-.06.52-.08 1.05.03 1.57v.15Z" fill="#8BA6C3"/><path d="m4.2 17.25-.4-1.39c-.14-.45-.28-.9-.45-1.33a13.3 13.3 0 0 1-.63-2.24 6 6 0 0 1 .52-3.62c.26-.57.62-1.11.93-1.66l.11-.14c-.09.32-.21.63-.26.95-.05.4-.04.82-.04 1.23 0 .28.02.55.05.83l.16 1.24c.1.79.21 1.57.04 2.37-.05.19-.04.4-.06.59l-.04.61.02.28h.08c.06-.26.16-.5.17-.76.04-.75.4-1.35.86-1.9.46-.53.97-1.03 1.49-1.52.51-.49 1-.99 1.39-1.58l.07.02c-.14.5-.26 1.02-.43 1.51-.36 1.02-1.01 1.88-1.62 2.76-.43.62-.86 1.25-1.25 1.9-.34.57-.57 1.2-.7 1.85Zm40.04-.29c-.1-.27-.17-.52-.25-.77-.2-.6-.5-1.13-.86-1.64-.62-.85-1.27-1.69-1.87-2.56a7.13 7.13 0 0 1-1.04-2.57l-.12-.44c.15.2.25.36.37.48.79.77 1.58 1.52 2.36 2.3.44.43.77.94.97 1.52.11.3.14.62.21.93l.1.42v-1.57c0-.6-.12-1.18-.01-1.78.07-.4.07-.82.1-1.23.03-.32.08-.65.09-.98a5 5 0 0 0-.47-2.5l.06-.03c.2.29.42.57.61.87.47.72.77 1.52 1 2.33.15.56.25 1.14.2 1.72-.05.7-.21 1.38-.44 2.05-.33.99-.63 1.98-.94 2.98-.05.14-.05.3-.08.47Z" fill="#8BA6C3"/><path d="m38.14 5.04.47.62c.54.68 1.28 1.11 1.97 1.62.41.31.85.6 1.22.96.4.38.74.82.92 1.35.01.04.05.07.07.1.03 0 .05-.02.08-.03-.16-.44-.34-.88-.48-1.33-.17-.55-.34-1.1-.48-1.67-.2-.82-.35-1.66-.83-2.38-.18-.28-.42-.52-.63-.82.3.16.62.29.9.48a4.82 4.82 0 0 1 2.1 3.5c.03.43.05.87.04 1.3 0 .7-.06 1.39-.08 2.08 0 .24.04.5.06.7-.21-.27-.43-.6-.7-.89-.61-.67-1.36-1.18-2.09-1.73a6.88 6.88 0 0 1-2.01-2.1c-.25-.46-.35-.97-.47-1.47l-.06-.28Zm-32.43 4.36c.2-.26.36-.55.6-.76.52-.46 1.07-.88 1.6-1.3.48-.39.97-.74 1.4-1.15.3-.27.49-.62.77-.93-.1.34-.16.7-.28 1.03a6.38 6.38 0 0 1-1.9 2.6c-.4.36-.88.64-1.28 1-.4.34-.77.71-1.12 1.1-.24.26-.44.56-.62.8v-1.64l-.1-2.3c-.04-.9.26-1.68.77-2.4a4.65 4.65 0 0 1 1.85-1.57l.1-.06.25-.09c-.23.3-.52.6-.75.94a5.13 5.13 0 0 0-.67 1.8l-.52 2.54c-.03.13-.1.26-.15.38l.05.01Zm18.91 33.29v3.31h-.89v-5.13h.82c.07 0 .14.09.18.15l.7 1.2 1.2 2.06.08.01v-3.42c.27 0 .53-.01.78.01.05 0 .11.15.11.23v2.4l.01 2.28c0 .17-.04.24-.22.23a2.64 2.64 0 0 0-.5 0c-.22.03-.32-.08-.42-.26l-1-1.7-.8-1.37h-.05Zm-24.15-1.82h.98v.25c0 1.04.02 2.09 0 3.13-.02.8.6 1.08 1.24.97.52-.1.67-.4.68-.92.02-1.05 0-2.1 0-3.15v-.26h.94c0 1.25.02 2.5 0 3.74a1.5 1.5 0 0 1-1.5 1.43c-.36 0-.73 0-1.09-.05a1.37 1.37 0 0 1-1.15-1.13 10.7 10.7 0 0 1-.1-1.26v-2.75Zm19.45 1.87v-1.85h.92v5.12h-.82v-.52l-.5.4c-.54.4-1.36.15-1.7-.33a2.57 2.57 0 0 1-.33-2.2 1.4 1.4 0 0 1 1.28-1.14c.37-.04.7.1.98.36.05.04.1.08.17.16Zm.03 1.4c-.04-.24-.06-.47-.13-.7a.7.7 0 0 0-.56-.48c-.3-.04-.56.03-.72.32-.33.58-.3 1.17 0 1.74.2.4.77.43 1.07.13.29-.3.31-.64.34-1.02Zm20.14-.01c-.04.82-.34 1.47-1.09 1.8-.92.42-2.2.04-2.48-1.14-.17-.72-.1-1.41.41-2 .25-.29.57-.45.94-.53.57-.12 1.08.01 1.55.37.35.27.52.64.6 1.06.04.15.05.31.07.44Zm-.88.02c-.1-.28-.15-.54-.26-.77-.23-.43-.85-.49-1.22-.18-.44.39-.47 1.3-.16 1.74.38.54.99.53 1.33.06.17-.23.2-.56.3-.84Zm-9.89-.73-.8-.15c.1-.5.5-1 1.16-1 .37 0 .74-.01 1.1.05.45.08.71.48.72 1v1.23c0 .25-.02.5 0 .75.03.23.11.46.17.72h-.76c-.06-.01-.12-.08-.15-.14-.04-.08-.05-.17-.07-.27-.3.23-.59.44-.99.47-.42.02-.8-.04-1.06-.38-.26-.33-.31-.7-.15-1.12.19-.45.59-.57 1-.69.36-.1.73-.16 1.1-.24.04-.44-.03-.6-.32-.68-.44-.12-.73.01-.95.45Zm1.31.78c-.38.12-.73.2-1.06.33a.4.4 0 0 0-.24.48c.07.23.33.45.54.45.25 0 .63-.26.69-.5.05-.23.05-.47.07-.75Zm-16.19.24c.06.43.16.8.62.92.38.1.53-.01.82-.5l.85.16c-.12.54-.56.95-1.15 1.04-.54.08-1.06.02-1.5-.36a1.67 1.67 0 0 1-.45-.77c-.22-.67-.14-1.3.16-1.91.3-.61 1.07-.92 1.76-.75.74.18 1.1.78 1.18 1.38l.09.63c.02.17-.1.16-.2.16h-2.18Zm.05-.62h1.38c.13-.4-.32-.89-.67-.87-.43.02-.73.36-.7.87Zm26.35-1.5h.82l.03.55c.27-.4.62-.56 1.03-.65.62-.13 1.29.38 1.3 1l.04 2.52v.26h-.93v-2.36c0-.35-.2-.64-.46-.68a.74.74 0 0 0-.84.48c-.04.13-.06.27-.06.4v1.88c0 .2-.11.3-.32.3h-.61v-3.7Zm-34.51 3.68h-.92v-3.68h.83v.45c.26-.16.5-.35.78-.47.53-.23 1.39.02 1.53.69.03.15.07.3.07.45v2.56h-.89v-1.69c0-.27-.02-.55-.05-.82-.03-.26-.22-.5-.42-.54-.29-.06-.67.09-.78.33a1.4 1.4 0 0 0-.15.54v2.18Z" fill="#8BA6C3"/><path d="M36 1.35c.53.22 1.07.41 1.58.66.48.24.96.51 1.4.82a3.88 3.88 0 0 1 1.52 1.85c.27.76.54 1.52.77 2.31l-.24-.17c-.09-.06-.19-.1-.26-.18-.67-.62-1.37-1.21-1.98-1.88-.62-.68-1.14-1.45-1.7-2.17-.16-.2-.33-.37-.5-.55l-.63-.61.05-.08Zm8.72 43.65.88-.16c.24.53.72.73 1.23.5a.52.52 0 0 0 .26-.34c.02-.12-.1-.24-.27-.3-.45-.11-.91-.24-1.35-.4-.42-.16-.69-.6-.64-.96.08-.65.36-.88.82-1.03.45-.14.91-.12 1.37 0 .4.1.7.4.84.87l-.8.17c-.33-.45-.65-.57-1.12-.4-.11.05-.26.18-.26.28 0 .09.14.23.25.27.4.13.8.23 1.2.34.57.14.93.57.86 1.13-.06.49-.32.87-.9 1.03a2.3 2.3 0 0 1-1.67-.12 1.3 1.3 0 0 1-.7-.89Zm-32.65-43.36c-.2.2-.42.4-.6.63a36.2 36.2 0 0 0-1.24 1.6c-.49.69-.94 1.4-1.57 1.95-.38.35-.8.67-1.2 1l-.65.54.54-1.62a5.06 5.06 0 0 1 2.11-2.93c.67-.44 1.87-.92 2.6-1.17Zm.41 40.66h.58v.75h-.59v2c0 .2.2.31.39.27.08-.02.15-.06.24-.1.03.21.06.4.07.6 0 .05-.04.15-.08.16-.4.12-.8.2-1.2-.04-.24-.14-.28-.37-.3-.58-.04-.43-.05-.86-.06-1.29v-1l-.4-.03v-.72h.4v-.6a.39.39 0 0 1 .13-.2c.25-.18.52-.34.82-.52v1.3Zm20.94.01h.65v.73h-.65v1.87c0 .37.14.47.5.37l.13-.05.07.42c.04.22 0 .35-.27.4-.34.05-.68.07-1-.1-.29-.17-.3-.46-.31-.74-.02-.6 0-1.22 0-1.83 0-.22-.12-.33-.33-.33l-.13-.01v-.73h.45v-.63a.3.3 0 0 1 .13-.2l.76-.48v1.31Zm1.36.01h.88v3.68h-.88v-3.68Zm-25.15 0h.86v3.69h-.86v-3.7Zm25.13-.59v-.83h.9v.83h-.9Zm-25.14 0v-.85h.87v.85h-.87Zm15.28-39.23c.45.07.8-.18 1.18-.36.49-.21.93-.06 1.35.17.18.1.16.25-.01.36-.3.2-.62.2-.95.2-.28.01-.56.02-.83.06-.27.05-.7-.16-.74-.43Zm7.26 2.07c0 .13-.13.2-.24.13-.1-.07-.17-.17-.26-.25-.07-.07-.17-.11-.24-.19-.05-.05-.07-.13-.1-.2l.2-.04.13.01c.37.02.52.17.5.54Z" fill="#8BA6C3"/></svg>