<svg viewBox="0 0 45 45" fill="none" xmlns="http://www.w3.org/2000/svg"><g clip-path="url(#a)" fill="#8BA6C3"><path d="M44.99 21.71a22.64 22.64 0 0 0-22.54-21.71c-12.85 0-22.84 10.92-22.44 22.47-.4 11.99 9.94 22.45 22.28 22.53a22.65 22.65 0 0 0 22.7-23.29Zm-22.82 22.46a21.62 21.62 0 0 1-21.44-21.63 21.6 21.6 0 0 1 21.64-21.72 21.64 21.64 0 0 1 21.81 21.89 21.6 21.6 0 0 1-22 21.46Z"/><path d="M22.27 2.43c-11.12.1-19.98 9.56-19.9 20.1.06 10.8 8.98 20.13 20.26 20.04 11.37-.1 20.15-9.78 19.87-20 .29-10.63-8.81-20.25-20.23-20.14Zm.53 39.81c-10.81.12-20.1-8.27-20.13-19.66a19.53 19.53 0 0 1 19.35-19.81 19.59 19.59 0 0 1 20.21 19.1 19.67 19.67 0 0 1-19.43 20.37Z"/><path d="M22.56 20.99c-.48.2-1 .3-1.51.46.03.08.05.17.1.25l1.06 1.74a23.79 23.79 0 0 0 3.61 4.6c1.18 1.12 2.56.99 3.97.83l.04-.07c-1.47-.74-2.53-1.95-3.59-3.15a32.75 32.75 0 0 1-2.91-3.9c.4-.1.76-.18 1.09-.3.33-.14.66-.31.95-.5 2-1.32 2.12-4.13.24-5.6a4.88 4.88 0 0 0-2.93-.92c-1.44-.05-2.88 0-4.33 0h-.92c.57.5.83 1.09.83 1.82v10.8c0 .66-.14 1.25-.7 1.65-.05.03-.08.09-.14.18h3.64l-.01-.11a.37.37 0 0 0-.09-.09c-.5-.37-.68-.88-.68-1.48.01-3.6.02-7.18 0-10.77 0-.42.17-.55.52-.56.52-.01 1.05-.03 1.57 0 1.6.07 2.6 1.38 2.28 2.94-.24 1.16-1.08 1.76-2.1 2.18Zm-12.69 6.77c1.09.69 2.66.57 3.56-.27.61-.57.7-1.1.31-1.76-.47-.77-1.73-1.17-2.46-.78-.54.29-.79.95-.52 1.4.32.53.97.7 1.48.4.3-.19.3-.32.03-.56-.06.08-.1.17-.16.24-.2.22-.46.27-.72.12-.26-.14-.56-.28-.53-.66.04-.45.77-1.03 1.21-.93.62.14 1.19.39 1.6.9.26.31.26.6-.01.93a2.52 2.52 0 0 1-2.6.92c-1.02-.21-2-1.32-1.9-2.23.23-2.3 3.13-3.57 5-2.7.72.33 1.12.94 1.46 1.62a2.9 2.9 0 0 0-1.48-2.18c-1.57-.96-3.79-.9-4.98.8-1.22 1.74-.96 3.67.71 4.74Z"/><path d="M30.48 18.31c-1.1.08-2.14.9-2.36 1.86-.2.87.11 1.7.73 1.99.8.36 1.93-.03 2.35-.81a.97.97 0 0 0-.43-1.34c-.56-.29-1.1-.13-1.37.42-.19.36-.07.56.33.62-.05-.17-.2-.4-.14-.5.15-.21.43-.51.61-.5.3.04.6.27.8.5.12.15.16.52.06.68-.34.6-.87.96-1.6.93-.51-.02-.82-.26-.97-.75a1.96 1.96 0 0 1 1.49-2.55c1.28-.31 2.55.38 3.06 1.75.45 1.2.08 2.83-1.24 3.41-.46.2-1 .27-1.5.4.1.03.23.08.37.1a3.5 3.5 0 0 0 3.38-1.83c.2-.42.34-.95.27-1.4a3.56 3.56 0 0 0-3.84-2.98Zm-15.4 1.27.57 1.7c.32-1.38-.11-2.42-.98-3.37-.86-.94-1.95-1.02-3.14-.93 1.03.5 1.13 1.48 1.36 2.4.09.34.27.69.5.94.6.6 1.24 1.13 1.9 1.73-.03-.87-.52-1.63-.34-2.46h.13Zm11.8-11.26c-.05-.09-.11-.24-.07-.3.5-.88.76-1.91 1.54-2.6l-.3 3.67.12.04.37-.3c.6-.54 1.18-1.1 1.79-1.62.2-.18.44-.29.67-.43l.06.1-.92 1.9c-.2.41-.34.87-1 .74l.02.15 1.56.75c-.03-.31-.16-.65-.07-.91.19-.59.48-1.15.75-1.71.24-.53.3-1.23 1.15-1.27-.23-.14-.47-.2-.66-.31-.36-.23-.63-.11-.92.15-.62.57-1.27 1.11-1.9 1.66-.05.04-.12.06-.2.1l-.02-.24.12-2.65c0-.14-.03-.35-.12-.4-.32-.2-.67-.34-1.01-.5-.01.15.01.26.08.3.35.2.26.44.09.72-.38.61-.74 1.23-1.1 1.86-.22.4-.41.85-1 .84-.02 0-.04.05-.06.08l1.23.55c-.03-.16-.13-.26-.2-.37Zm-5.18 26.9c3.8.2 7.06-1.07 9.77-3.72a11.08 11.08 0 0 0 2.79-4.42c-.9 1.64-1.83 3.24-3.23 4.5-1.41 1.27-3 2.23-4.82 2.8-1.83.56-3.7.73-5.59.43a13 13 0 0 1-5.18-2.02 15.1 15.1 0 0 1-3.9-3.95c.26.71.7 1.31 1.18 1.87a12.34 12.34 0 0 0 8.99 4.51Zm3.5-25.18c-3.62-.77-7-.07-10.05 2.03a13.15 13.15 0 0 0-3.83 4.21l.13.1.38-.45c.47-.61.9-1.28 1.42-1.84a12.34 12.34 0 0 1 13.03-3.41c3.1 1.02 5.49 2.9 7.07 5.76.17.32.37.62.56.93l.12-.06c0-.56-.39-.97-.66-1.4a12.56 12.56 0 0 0-8.17-5.87Zm10.31 16.46a3.09 3.09 0 0 0 2.82-2.07c-.59.35-1.15.34-1.74.24-.66-.12-1.35-.32-2-.25-.78.08-1.54.4-2.3.61l-.01.1 2.24.61-.05.23-1.48-.25c.36.52 1.5.88 2.53.78Zm-2.35-14.08-.02.16 1.13 1.55.18-.01c-.38-.6.04-.82.37-1.1.1-.07.18-.18.28-.23.12-.06.33-.14.4-.08.1.08.18.28.16.41-.03.21-.16.4-.24.6-.13.33-.28.64-.37.97-.11.43.15.97.46 1.1.2-.57.41-1.15.57-1.74.12-.47.36-.58.8-.42.48.18.84-.05 1.12-.4a.93.93 0 0 0 .03-1.1c-.42-.67-.9-1.3-1.36-1.93-.01-.03-.07-.02-.16-.03.24.5 0 .75-.4.99-.54.34-1.07.73-1.6 1.12-.4.3-.77.74-1.35.14Zm3.81-.96c.09-.05.36-.01.4.06.12.24.27.53.24.78-.07.44-.44.68-.88.77-.5.1-.83-.16-1.12-.59.48-.36.9-.7 1.36-1.02Zm-21.15-5.23c.18.7.4 1.4.62 2.1.09.28.17.52-.17.7-.06.04-.08.15-.15.3.68-.2 1.3-.34 1.87-.59.45-.19.88-.46 1.24-.78.66-.6.74-1.37.48-2.18a1.77 1.77 0 0 0-1.64-1.3c-.33-.02-.66.05-.98.13-.71.17-1.42.38-2.12.57l-.07.1c.6.08.8.46.92.95Zm.8-1.27.72-.2c.75.04 1.35.65 1.62 1.68.24.92.02 1.56-.66 1.93l-.25.15c-.38.2-.62.14-.8-.25-.1-.21-.15-.45-.22-.67-.22-.7-.42-1.4-.67-2.09-.1-.3-.04-.47.27-.55Zm-10.17 8.14c.2-.17.36-.1.55.03.65.47 1.29.97 1.98 1.38.43.26.68.53.56 1.05l.07.05 1.03-1.48c-.18.01-.29.1-.42.14-.11.04-.28.06-.36 0-.86-.6-1.7-1.2-2.54-1.81-.25-.18-.27-.4-.03-.62.35-.32.74-.36 1.14-.11.64.4.74.77.35 1.63.6-.4 1.11-.15 1.62-.1.67.04 1.23-.24 1.5-.84-.64 0-1.3-.02-1.98 0-.41.02-.59-.12-.54-.55.06-.47-.27-.73-.62-.94a.75.75 0 0 0-.96.1c-.61.68-1.17 1.4-1.74 2.1l.1.1c.1-.04.21-.06.29-.13Zm2.58 5.67c-1.14.33-1.9 1.18-1.86 2.02.4-.03.84-.16 1.2-.05 1.24.37 2.35.11 3.39-.57-.44-.63-1.3-.48-1.85-.92l.04-.14 2.1.43c-.44-.7-1.9-1.1-3.02-.77Zm6.96 16.79-1.28-.87c.1.29.33.61.25.75-.42.7-.91 1.34-1.39 2h-.1l-.13-1.73-.17-1.73c-.05-.47-.45-.88-1.02-1.02.06.12.08.23.15.3.26.23.18.46 0 .7l-1.5 2.02c-.2.27-.4.56-.8.35-.05-.02-.14.04-.24.07.45.3.85.59 1.25.87a.38.38 0 0 0-.12-.3c-.22-.2-.21-.4-.05-.63l1.26-1.76c.08-.1.18-.19.3-.32.06.14.1.22.1.29l.26 3.77c0 .12.08.23.13.35.1-.07.24-.13.31-.23.36-.49.65-1.04 1.06-1.48.48-.53.62-1.48 1.73-1.4Zm21.82-14.13c.07-.67-.66-1.77-1.19-1.85-.02.53 0 .55-.56 1.15a2.77 2.77 0 0 0-.65 2.6l1.55-1.08.12.11-1.23 1.39c1-.16 1.85-1.2 1.96-2.32Zm-13.66 19.02c-.22.43-1.19.7-1.6.42a.48.48 0 0 1-.15-.3 8.13 8.13 0 0 1-.07-1.12c0-.1.15-.27.26-.3.45-.11.88-.08 1.17.5v-1.3l-.08-.08c-.3.65-.81.65-1.35.57-.03-.43-.1-.86-.1-1.28 0-.13.16-.36.27-.37.53-.08 1.1-.21 1.4.45.01.04.07.06.13.1.08-.65-.04-.87-.46-.86l-2.37.06c-.1 0-.2.03-.38.06.13.1.18.15.24.17.36.1.45.32.46.68 0 .73 0 1.47.09 2.2.06.52 0 .89-.55 1.05-.02 0-.02.06-.02.06h2.61c.69-.03.91-.35.7-1.1l-.2.39Zm8.69-4.89c-.41.04-.83.05-1.24.06-.16 0-.34-.02-.49-.08-.43-.16-.52-.65-.2-.96.36-.36.9-.2 1.18.35l.23.53c.34-.84.21-1.22-.39-1.42-.52-.17-1.3.3-1.53.93-.26.72.2 1.37.96 1.36.5-.01 1.02-.08 1.53-.07.38 0 .64.3.66.64.01.22-.17.52-.36.67-.27.22-.62.16-.87-.1-.18-.2-.29-.46-.42-.7-.06-.1-.1-.2-.14-.3l-.11.01c-.05.2-.12.39-.14.58-.1.73.48 1.21 1.2 1.04.53-.13.9-.47 1.17-.92.23-.4.2-.82-.06-1.22-.24-.35-.57-.44-.98-.4Zm2.66-4.17c-.7-.38-1.43-.2-1.9.46-.37.53-.25 1.4.25 1.85.57.5 1.36.38 1.74-.27l.4-.7c.38.99.38 1.85-.07 2.7.1-.02.18-.05.23-.1 1.07-1.13.72-3.2-.66-3.94Zm-.27 1.88c-.52.17-1.47-.44-1.54-.99-.04-.29.25-.59.57-.59.34 0 1.31.63 1.42.93.08.22-.15.55-.45.65Zm-23.1-21.13 1.07-.77c-.33-.1-.64.04-.74-.4-.1-.47-.19-.78.34-1.1.63-.37.6-.47 1.18 0 .18.14.22.46.33.73l1.28-.97c-.43-.16-.89-.26-1.26-.5-.82-.5-1.6-1.08-2.41-1.61-.17-.12-.35-.2-.65-.35.16.74.3 1.35.42 1.96.19.99.83 1.9.44 3Zm-.28-3.78 1.25.88-.87.85c-.18-.6-.53-1.06-.38-1.73Zm-3.96 21.8c.04-.4.08-.8.15-1.2.06-.33.32-.59.63-.55.26.02.58.24.72.46.1.18 0 .52-.08.76-.06.18-.24.32-.37.48.9-.31 1.02-.7.56-1.45a2.32 2.32 0 0 0-.22-.3c-.35-.43-.8-.6-1.33-.42-.52.17-.74.58-.8 1.1-.04.43-.1.86-.22 1.26a.64.64 0 0 1-.83.43c-.45-.12-.7-.42-.6-.85.06-.28.26-.54.4-.8.07-.11.17-.22.3-.38-.85.1-1.2.67-.94 1.43.08.24.24.47.4.67.37.48.88.65 1.4.48.53-.17.77-.58.83-1.12Zm14.47-22.12c-.1-.08-.17-.11-.2-.16-.09-.15-.27-.34-.22-.44.11-.29.26-.65.5-.78.25-.13.63-.04.94 0 .11 0 .25.12.3.22.22.43.2.55-.07 1.2h1.78c-.68-.4-.85-1.03-1.06-1.64-.3-.9-.64-1.79-1.01-2.8-.15.2-.26.3-.31.42-.33.77-.62 1.54-.95 2.3-.26.58-.33 1.28-1 1.6v.08h1.3Zm.57-3.22.11.05c.13.4.27.8.37 1.2.01.08-.12.26-.2.27-.27.03-.55 0-.95 0l.67-1.52Zm-3.09 31.93c-.55-.18-1.08-.43-1.65-.51a2.18 2.18 0 0 0-2.28 1.37 2.1 2.1 0 0 0 .75 2.57c.55.4 1.18.55 1.84.57.38.01.82-.48.85-.93-.1.08-.19.14-.27.22-.8.76-2.11.42-2.38-.67a2.41 2.41 0 0 1 .75-2.53 1.4 1.4 0 0 1 2.28.64l.1.29.16-.01v-.84c-.01-.06-.09-.15-.15-.17Zm-8.19-4.52.07-.06-1.19-1.48c.01.5-.17.9-.53 1.19-.52.41-1.07.8-1.54 1.25-.36.36-.67.58-1.15.24l-.07.05 1.22 1.5c.03-.37-.22-.65.13-.9.67-.5 1.33-1.03 1.96-1.6.35-.3.67-.46 1.1-.2v.01Zm22.3-23.59a41.1 41.1 0 0 0-1.6 1.86c-.3.37-.56.73-1.14.33v.15l1.41 1.18.11-.08c-.1-.25-.4-.45-.12-.76.58-.64 1.14-1.29 1.68-1.95.27-.33.55-.57 1-.4.02 0 .04-.04.08-.09l-1.39-1.13-.08.06c.03.07.04.16.09.21.2.23.13.41-.05.62Zm-4.86 30.16c-.06-.18-.14-.36-.21-.53l-.93-2.35-1.25.88c.15.02.2.05.25.04.42-.13.59.07.71.45.21.61.46 1.22.73 1.8.19.42.35.77-.17 1.04-.02.01 0 .08 0 .2l1.78-.76v-.17c-.6.2-.78-.16-.91-.59Zm7.51-11.07-.33-.32-1.08 2.45.96.65c-.12-.35-.31-.6-.26-.78.17-.54.44-1.05.72-1.7l2.43 3.27c.19-.3.14-.55-.07-.8l-2.37-2.77Zm-29.77-3.89c.52-.27 1.05-.45 1.47-.78.43-.34.67-.85.93-1.34l-.13-.11-1.41.99-.1-.1.76-1.07c-.85.18-1.7 1.03-1.52 2.4Zm27.49-5.79c-.37.93.02 2.22.9 2.57l-.61-1.74.07-.04.98 1.3c.07-1.03-.5-1.63-1.34-2.09Zm-23.34-.62-.1-.05-.41.61.13.08c.33-.09.4-.34.38-.64Zm-.96 7.96h.13l.05-.68h-.18v.68Z"/></g><defs><clipPath id="a"><path fill="#fff" d="M0 0h45v45h-45z"/></clipPath></defs></svg>