<svg viewBox="0 0 85 21" fill="none" xmlns="http://www.w3.org/2000/svg"><path d="M73.07 0c4.44 0 8.03 3.6 8.03 8.06a8.04 8.04 0 1 1-16.07-.01 8.03 8.03 0 0 1 8.04-8.05Zm-4.92 12.83c-.26.26-.42.7-.27.9.25.32.54.64.96.72a3 3 0 0 0 1.72-.25 8.8 8.8 0 0 1 2.35-.68c.54-.06.76-.34.65-.87-.07-.3-.16-.61-.15-.92 0-.56-.24-.95-.67-1.27a4 4 0 0 1-.59-.5c-.27-.3-.24-.65.02-.96.07-.07.09-.21.09-.32-.01-.13-.03-.24.13-.29.18-.05.22-.17.21-.35 0-.07.03-.2.09-.23.28-.15.28-.14.16-.42-.15-.34-.07-.5.3-.5a1.96 1.96 0 0 0 1.53-.74c.48-.57 1.1-.94 1.86-1a3.1 3.1 0 0 1 2.25.76 3.55 3.55 0 0 1-.53 6.1c-.36.2-.76.27-1.16.26-.35-.01-.43.06-.41.41.04.66.42 1.1.95 1.42.05.03.17-.01.23-.06a7.46 7.46 0 0 0 2.74-6.83 7.26 7.26 0 0 0-1.04-3.15l-.15-.2-1.33.76.18.44-.05.06c-.3-.29-.7-.37-1.08-.48l.55-.25c-.24-.38-.46-.74-.7-1.09-.26-.4-.27-.39-.7-.2l-1 .43.43 1.33-.31.12-.45-1.3-1.82.26v1.33c0 .04.12.12.19.11.3-.01.6-.04.91-.07l.61-.06c-.15.23-.3.42-.58.43-.32.02-.63.07-.94.08-.14.01-.2.06-.2.2v.37c-.25.08-.33 0-.32-.23v-2.15h-.56c-.23.03-.32-.1-.37-.3l.93.05v-1.15c-.01-.06-.1-.14-.17-.16-.2-.05-.41-.06-.6-.13-.17-.05-.23-.01-.3.13-.13.26-.28.52-.43.79l-.24-.14.5-.88c-.24-.15-.44-.3-.65-.42-.04-.03-.14 0-.19.04-.2.14-.4.28-.56.44-.18.18-.35.17-.56.02l.99-.82-.14-.17c-.28-.33-.18-.33-.59-.14a7.47 7.47 0 0 0-4.44 6.57l.02.17c.42-.27.82-.54 1.24-.79.42-.25.54-.52.45-1a6.3 6.3 0 0 1-.13-1.15c.01-1.08.7-1.92 1.74-2.18 1.18-.3 2.9.66 3.25 1.82.18.6 0 1.13-.36 1.61-.14.2-.25.4-.19.65.05.17.03.29-.15.37-.05.02-.06.12-.09.18s-.06.12-.06.19c-.04.24-.27.28-.4.43-.2.24-.46.3-.76.24-.24-.04-.47-.12-.7-.14-.36-.04-.54.19-.49.53.13.8.25 1.6.35 2.41.03.23.13.38.33.45a8.73 8.73 0 0 0 1.3.2.8.8 0 0 0 .34-.1c.15-.07.27-.18.42-.23.24-.1.32-.03.33.24.11-.03.22-.1.32-.08.1 0 .25.08.27.16.2.65-.48 1.38-1.14 1.2-.31-.09-.6-.07-.9 0-.17.04-.35.08-.54.1-.58.06-1.18.26-1.72-.13Zm11.14-9.26a3.85 3.85 0 0 0-1.22-1.27c-.06-.04-.17-.07-.21-.04l-.8.58.96 1.5 1.27-.77Zm-6.1.07 1.72-.25c-.22-.44-.41-.83-.61-1.2-.03-.05-.13-.08-.2-.07-.25.03-.5.08-.75.14-.06.02-.15.09-.15.13v1.25Zm3.34-.88c0-.04.02-.07.03-.1-.4-.35-.8-.7-1.2-1.03-.03-.03-.11-.04-.15-.02l-.62.4.64 1.3c.44-.2.87-.37 1.3-.55Zm1.19-.77v-.12c-.49-.27-.97-.56-1.47-.82-.35-.18-.37-.16-.62.16-.08.11-.07.17.03.26.36.33.7.68 1.07 1 .04.05.15.08.2.05l.78-.53Zm-3.65-.18a686 686 0 0 0-.8-1.12l-.05.03v1.24l.85-.15Zm-1.22-1.13-.8 1.14.8.13v-1.27Zm2.14.64-1.22-.71-.05.07.44.62c.3.44.32.44.75.12l.08-.1Zm-.9-.9-.03.07 1.2.65.35-.4-1.52-.33Zm-2.86.9-.01.08c.14.08.29.17.44.23.04.02.13 0 .15-.04l.65-.92-1.23.66Zm.77-.85-.02-.07-1.41.3-.03.09c.13.09.3.28.39.25.37-.16.71-.37 1.07-.57Zm-20.92 13.89a4.49 4.49 0 0 1-1.46 2.85 4.8 4.8 0 0 1-2.15 1.05 7.1 7.1 0 0 1-3.27.01 4.43 4.43 0 0 1-3.27-2.91 8.67 8.67 0 0 1 .01-6.24c.88-2.3 2.88-3.5 5.4-3.33.99.07 1.93.3 2.77.87a4.76 4.76 0 0 1 1.94 3.08c.2.87.17 1.75.17 2.62 0 .13-.04.18-.17.18h-7.96c-.24 0-.32.05-.32.3-.02.88.1 1.73.53 2.52a2.63 2.63 0 0 0 2.41 1.46c.42 0 .84-.04 1.24-.15.94-.24 1.43-.93 1.65-1.84.11-.47.1-.47.59-.47h1.89Zm-5.22-3.38h2.8c.16 0 .24-.04.22-.21-.01-.17 0-.34-.02-.51-.13-1.42-.86-2.62-2.5-2.82-.8-.1-1.55 0-2.2.51-.9.7-1.22 1.68-1.3 2.77-.01.2.05.27.25.26h2.75Zm-37.78 5.44-.05.13a4.5 4.5 0 0 1-3.67 2.02 4.04 4.04 0 0 1-2.44-.51 3.8 3.8 0 0 1-1.78-2.62c-.1-.44-.13-.9-.13-1.36v-7.97l.23-.01h1.76c.22-.01.27.06.27.27 0 2.26-.02 4.52 0 6.78.01.63.07 1.27.2 1.9.22 1.1.9 1.68 2.04 1.82a2.8 2.8 0 0 0 3.15-1.96c.14-.43.23-.87.29-1.32.06-.5.08-1 .08-1.51v-5.7c0-.22.06-.3.28-.29.6.02 1.2.01 1.81 0 .2 0 .26.07.26.27v11.58c0 .2-.06.25-.25.25h-1.74c-.18 0-.23-.05-.23-.24v-1.48l-.08-.05Zm6.84-10.32v1.69l.1-.1a4.34 4.34 0 0 1 4.48-1.9c.85.11 1.65.38 2.33.92a3.51 3.51 0 0 1 1.3 2.8c.03 2.81.01 5.63.01 8.45l-.02.15h-2.24v-7.43a6.8 6.8 0 0 0-.22-1.62c-.3-1.05-1.12-1.48-2.15-1.57a3.2 3.2 0 0 0-2.84 1.12c-.46.51-.6 1.15-.68 1.8-.05.44-.07.9-.07 1.35v6.15c0 .22-.05.3-.28.29-.59-.02-1.17-.01-1.76 0-.17 0-.24-.05-.24-.23v-11.64c0-.1-.02-.23.14-.23h2.14Zm24.36 3.83h-1.52c-.2 0-.48.07-.6-.03-.14-.1-.12-.37-.17-.57-.23-1.07-.84-1.7-1.82-1.88a2.58 2.58 0 0 0-2.75 1.09 4.8 4.8 0 0 0-.68 2.04 9.77 9.77 0 0 0 .22 4.02c.17.6.44 1.15.93 1.55.78.66 1.7.76 2.63.46.94-.3 1.35-1.07 1.55-1.97.02-.1.05-.2.04-.29-.02-.3.13-.33.38-.32h1.95c-.08.4-.12.78-.23 1.13a4.32 4.32 0 0 1-3.67 3.14 6.02 6.02 0 0 1-3-.23 4.4 4.4 0 0 1-2.82-2.78 8.7 8.7 0 0 1 .06-6.37c.9-2.23 2.8-3.24 5.05-3.2 1.11.01 2.13.31 3 1.05a4.3 4.3 0 0 1 1.46 3.16Zm19.59-2.26h-2.79v10.09c0 .24-.04.32-.3.3h-1.66c-.24.01-.31-.05-.31-.3v-9.75c0-.23-.1-.34-.33-.34h-1.52c-.17 0-.23-.04-.23-.22a22 22 0 0 0 0-1.13c0-.17.06-.23.23-.22h1.61c.2 0 .25-.05.25-.25v-2.29c0-.92.24-1.75.92-2.4.58-.55 1.3-.8 2.07-.92a5.64 5.64 0 0 1 2.17.15c.16.04.23.1.22.28v1.42c0 .2-.07.25-.25.24-.45-.03-.9-.04-1.35-.04-.18 0-.37.04-.55.08-.58.13-.93.53-.95 1.12-.02.81 0 1.63-.01 2.44 0 .18.1.17.22.17h2.29c.22 0 .29.06.28.28-.02.42 0 .84 0 1.3h-.01Zm-31.31 4.47v5.76c0 .24-.07.3-.3.3-.58-.02-1.16-.02-1.73 0-.2 0-.25-.06-.25-.25v-11.6c0-.2.06-.26.25-.25h1.76c.22 0 .27.06.27.27v5.77Zm48.53 7.93-.05.07c-.3.33-.33.33-.62 0a9.52 9.52 0 0 0-2.16-1.87c-.14-.08-.24-.08-.37 0a9.63 9.63 0 0 0-2.32 2.1l-.09.04-.39-.32a8.46 8.46 0 0 1 2.5-2.16c-.44-.2-.85-.33-1.29-.37-.04 0-.1.04-.14.08-.44.48-1.03.6-1.64.65a7.15 7.15 0 0 1-3.32-.6l-.12-.08c.89-.24 1.75-.4 2.63-.47 1.45-.11 2.87.03 4.25.52.08.03.2.02.28 0 1.58-.58 3.22-.67 4.87-.45.67.09 1.32.24 1.98.36l.01.09c-.32.11-.63.24-.96.34-.92.26-1.85.37-2.81.25a2.34 2.34 0 0 1-1.23-.56c-.1-.07-.25-.13-.36-.11a7.9 7.9 0 0 0-1.15.33 9.17 9.17 0 0 1 2.5 2.16Zm-49.71-16.83h-1.16c-.14 0-.2-.05-.2-.2v-2.1c0-.13.05-.17.19-.17h2.36c.13 0 .18.04.18.18v2.1c0 .14-.05.2-.2.19h-1.17Zm58.09 7.7c.02 1.5-1.88 3.76-3.23 3.83.06-.17.1-.33.18-.47.44-.8 1.01-1.52 1.65-2.18.33-.35.72-.66 1.08-.99.08-.07.19-.11.32-.19Zm-5.64 5.96a10.02 10.02 0 0 1 4.12-2.31 4.56 4.56 0 0 1-1.6 1.92c-.77.5-1.61.6-2.52.39Zm-11.53.06c-.88.2-1.7.13-2.44-.34a4.6 4.6 0 0 1-1.68-1.96 9.8 9.8 0 0 1 4.11 2.3Zm-2.34-5.73c.65.6 1.51 3.58 1.22 4.19-1.3-.37-2.08-3.06-1.22-4.19Zm-3.34-.26c.92.38 3.1 2.98 3.17 3.78-1.13.1-3.42-2.63-3.17-3.78Z" fill="#8BA6C3"/><path d="M79.96 15.46c-.29-.7.54-3.54 1.24-4.27.27.8.38 1.57.2 2.37a3 3 0 0 1-1.44 1.9Zm-13.54-1.53c1.13.82 2.26 1.62 3.05 2.88-.93.09-1.7-.04-2.29-.72a3.62 3.62 0 0 1-.76-2.16Zm10.22 2.79c.1-.15.16-.3.26-.43a13.8 13.8 0 0 1 2.68-2.4c.02-.02.04-.02.11-.04-.02.12-.03.22-.06.32-.17.5-.3 1.02-.54 1.48a2.17 2.17 0 0 1-2.45 1.07Zm6.44-5.08c-.22-.7 1.12-3.77 1.75-4.27.06.74.06 1.44-.14 2.13-.28.98-.9 1.82-1.61 2.14Zm-21.68-4.31c.77.75 1.83 3.37 1.72 4.22-1.08-.24-2.26-3.11-1.71-4.22Zm20.36 1.35c.88 1.21 1.34 2.93.28 4.17-.46-.51-.65-3.27-.28-4.17Zm-17.63 4.23c-.96-1.17-.83-2.64.25-4.21a8.1 8.1 0 0 1-.25 4.21Zm19.45-4.47c-.32-.71-.09-3.6.34-4.22.71.81.5 3.45-.34 4.22Zm-21.45-4.2c.46.73.69 3.4.37 4.24-.84-.85-1.05-3.27-.37-4.24Zm.93 5.86c-.51-1.57.26-2.67 1.2-3.72.27.66-.61 3.13-1.2 3.72Zm19.96.02a7.91 7.91 0 0 1-1.22-3.73c1.05.88 1.82 2.46 1.22 3.73Zm.07-3.1c-.64-.26-1.97-2.45-1.93-3.15 1.24.48 2.12 1.9 1.93 3.15Zm-18.13-3.08c.03.69-1.32 2.84-1.9 3.07-.28-1 .83-2.8 1.9-3.07Zm-.53-1.83a5.17 5.17 0 0 1-1.52 3.18c-.4-.9.48-2.71 1.52-3.18Zm18.8 3.09a4.82 4.82 0 0 1-1.5-3.14c.93.34 1.84 2.2 1.5 3.15Z" fill="#8BA6C3"/></svg>