<svg viewBox="0 0 48 44" fill="none" xmlns="http://www.w3.org/2000/svg"><path d="M16.26 12.03c.4.13.78.24 1.14.39a4.92 4.92 0 0 1 3.12 3.62 6.8 6.8 0 0 1-.84 5.23 5.74 5.74 0 0 1-3.38 2.39c-1 .29-2 .47-3.04.47l-9.02.07a3.57 3.57 0 0 1-3.6-3.81c0-5.37-.02-10.74 0-16.1a3.46 3.46 0 0 1 2.98-3.36 7 7 0 0 1 .92-.06c2.55 0 5.1-.02 7.66 0 1.3.02 2.57.18 3.81.61a5.1 5.1 0 0 1 3.48 3.84c.26 1.1.3 2.2 0 3.3a4.76 4.76 0 0 1-2.33 2.97c-.28.16-.58.28-.9.44Zm-9.58 7.58h.37c1.25 0 2.5.03 3.76-.01.73-.03 1.47-.1 2.18-.26.74-.16 1.3-.62 1.52-1.39.14-.47.18-.94.14-1.43a2.27 2.27 0 0 0-1.45-1.96 7.7 7.7 0 0 0-2.28-.34c-1.32-.04-2.64-.01-3.95 0h-.29v5.39Zm0-9.44h.16c1.44-.01 2.88-.01 4.31-.07.47-.02.94-.15 1.4-.3.46-.14.7-.51.92-.94.23-.47.19-.96.16-1.45a1.8 1.8 0 0 0-.95-1.56 3.92 3.92 0 0 0-1.83-.38c-1.29-.03-2.57 0-3.86 0h-.3v4.7Zm22.22.73v9.88c0 .26-.08.4-.3.5-1.2.6-2.4 1.2-3.6 1.82-.69.35-1.37.71-2.08 1.09v-.37c0-6.51-.02-13.03 0-19.54a3.24 3.24 0 0 1 1.84-2.96 4.22 4.22 0 0 1 3.76-.1c.66.28 1.16.8 1.5 1.43l2.35 4.26 2.56 4.67.62 1.12.78-1.4 2.33-4.32 2.04-3.77a4.5 4.5 0 0 1 1.37-1.73c1.44-.97 3.76-.82 4.97.52.51.56.88 1.2.9 1.98.03 2.48.04 4.96.05 7.43 0 .1-.07.22-.14.26l-5.8 2.9-.1-.01v-3.56l-.06-.02-.36.64c-.7 1.28-1.4 2.55-2.08 3.83-.2.37-.48.63-.85.81l-3.34 1.67-1.65.85c-.2.11-.3.09-.4-.12l-2.51-4.63-1.73-3.14-.08.02Zm19.04 3.4v4.76a5.3 5.3 0 0 1-2.67 4.36 4.8 4.8 0 0 1-2.42.71h-14.68l19.77-9.82Zm-43.39 28.7-.05.05c-.42.04-.63-.15-.63-.57v-2.24l-.68 1.25-.26.48c-.16.25-.56.23-.7-.03l-.98-1.71v2.78l-.07.04c-.4.02-.6-.17-.6-.58v-3.16c0-.14.1-.38.17-.39.22-.02.47-.12.63.2.37.72.79 1.42 1.2 2.15.4-.73.8-1.43 1.2-2.12.12-.22.49-.34.68-.22.05.03.09.11.1.17v3.9Zm20.69-2.88v2.91s-.02.02-.05.02c-.73.02-.59.03-.6-.55l.01-3.2c0-.13.05-.33.13-.38.25-.12.54 0 .67.22l.38.7.8 1.42.8-1.37c.13-.24.24-.5.4-.72.06-.1.18-.23.3-.26.44-.08.5-.02.5.43v3.28c0 .3-.15.44-.44.44h-.19v-3.02l-.05.07c-.33.62-.65 1.24-.99 1.85-.13.25-.55.25-.68.02l-.99-1.86Zm-22.04-6.33c.7.42.71 1.11.48 1.6-.2.4-.58.56-1 .59-.6.03-1.22 0-1.83.01-.21 0-.28-.1-.28-.27v-3.63c0-.19.09-.27.29-.26h1.77c.5 0 1.02.38 1 1-.02.39-.05.73-.44.96Zm-1.86.4v1.11h1.1c.38 0 .6-.2.61-.55.01-.31-.23-.55-.6-.56h-1.1Zm-.02-.62h1.03c.34-.02.54-.21.57-.53.03-.29-.1-.47-.46-.52a5.84 5.84 0 0 0-.95-.06c-.06 0-.18.13-.18.2-.02.3-.01.58-.01.9Zm18.68 2.42v-4.16h1.58c.22 0 .46 0 .67.05.81.24 1.05 1.2.46 1.8a.5.5 0 0 0-.05.06c.17.3.4.54.48.82.06.24-.02.54-.1.8-.14.42-.53.58-.91.61-.7.05-1.4.02-2.12.02Zm.69-.69h1.2c.3 0 .5-.17.53-.47.03-.28-.2-.62-.46-.63-.42-.03-.84-.01-1.27-.01v1.12Zm.63-1.7c.2-.04.42-.05.63-.1.26-.07.36-.3.33-.52-.03-.17-.18-.4-.33-.45-.25-.09-.54-.07-.8-.08-.47 0-.48 0-.47.47 0 .75-.1.64.64.67Zm26.02-.7-1.83 2.85c-.14.21-.5.34-.73.22-.08-.04-.13-.2-.14-.3v-3.53c0-.2.06-.34.3-.31h.4v3.07l.6-1.01 1.21-1.86c.12-.18.6-.3.76-.17.05.04.09.14.09.21v3.63c0 .34-.23.28-.44.3-.23 0-.32-.07-.31-.3v-2.11c.01-.23.06-.46.1-.69Zm-6.81-1.06h.66v3.03l.71-1.18 1.13-1.7c.1-.14.6-.24.73-.13.05.05.07.15.07.22v3.66c0 .29-.18.25-.35.24-.17 0-.4.1-.4-.23l.05-2.78-.35.57c-.5.76-1 1.52-1.48 2.3-.18.27-.43.11-.64.13-.04 0-.12-.23-.12-.36l-.01-3.47v-.3Zm-6.63 10.02 1.03-1.58c.26-.41.54-.81.8-1.23.17-.28.42-.11.63-.13.04 0 .12.22.12.33v3.8h-.65v-3c-.54.84-1.08 1.69-1.64 2.53-.33.5-.34.5-.99.47l-.01-.27v-3.53c-.01-.27.07-.36.34-.36.29 0 .42.07.4.38l-.06 2.25.02.34Zm-4.42 1.2c-.03-.59-.08-1.13-.08-1.67 0-.75.03-1.5.05-2.25 0-.18.07-.24.24-.24h2.37c.27 0 .25.18.26.35 0 .2-.02.34-.28.34h-1.88v.93c.34 0 .68-.02 1.02 0 .43.03.85.1 1.15.47.34.44.32.94.15 1.4-.16.42-.54.67-1.04.67h-1.96Zm.67-.62c.37 0 .72.02 1.07 0 .41-.04.6-.26.6-.63 0-.35-.2-.58-.55-.6-.37-.03-.74-.01-1.12-.01v1.24Zm-24.99.62.8-1.65c-.7-.53-.88-1.2-.52-1.92.22-.44.63-.56 1.06-.58.55-.03 1.1 0 1.65 0 .18-.01.27.04.27.24v3.85c-.04.03-.05.05-.07.05-.41.03-.62-.16-.62-.56v-.97c-.28 0-.57-.06-.83.02-.16.05-.3.27-.4.44-.16.25-.27.52-.37.8-.09.24-.23.31-.47.28h-.5Zm1.87-2.23c.13 0 .27-.02.4 0 .22.03.3-.08.3-.26 0-.26.02-.52-.01-.77-.01-.08-.14-.2-.22-.2-.3-.03-.6-.02-.9-.01-.41.01-.55.2-.55.67 0 .32.24.56.58.57h.4Zm5.94.2c0-.34-.05-.7 0-1.02.13-.7.62-1.08 1.28-1.16a3.1 3.1 0 0 1 1.12.09c.55.15.89.6.93 1.13.04.7.04 1.4-.08 2.09-.11.69-.65.92-1.38 1.01a2.6 2.6 0 0 1-.99-.12c-.51-.14-.88-.68-.89-1.22v-.8Zm.74-.02c0 .2.02.42 0 .62-.06.44.2.74.62.84.54.13 1.31-.05 1.25-.9-.03-.44 0-.88 0-1.33 0-.25-.09-.48-.33-.57a2.87 2.87 0 0 0-.8-.14c-.45-.02-.74.29-.74.74v.74Zm5.56-7.11c-.03.38-.02.76-.1 1.13-.12.59-.55.9-1.1 1-.38.06-.79.02-1.16-.06-.54-.1-.93-.47-.97-1.02-.05-.7-.04-1.4 0-2.09.04-.59.45-.9 1-1.05.55-.16 1.1-.13 1.62.14.45.25.64.66.68 1.15.02.26 0 .53 0 .8h.03Zm-.77.02v-.59c0-.59-.15-.78-.7-.92-.67-.17-1.17.22-1.17.9v1.3c0 .1.03.22.06.32.12.38.47.41.79.48a.86.86 0 0 0 1.02-.8v-.69Zm5.44 7.13c-.03.33-.03.7-.12 1.06-.24.92-1.1 1.15-1.92 1.05-.62-.07-1.18-.34-1.29-1.02-.1-.61-.08-1.25-.07-1.88 0-.25.07-.5.17-.73.2-.41.6-.6 1-.66.56-.08 1.13-.1 1.63.27.28.21.44.48.5.8.06.35.07.71.1 1.11Zm-.77-.05h-.02c0-.3.08-.63-.02-.9-.15-.43-.29-.62-1.1-.58-.36.02-.67.2-.72.54-.07.5-.06 1-.07 1.5-.01.54.24.86.75.93.64.1 1.22-.16 1.18-.97v-.52Zm-15.39-7.08c-.06.41-.08.83-.19 1.23-.13.52-.68.9-1.22.9-.46 0-.92.05-1.34-.2a1.2 1.2 0 0 1-.66-1.06c-.01-.53.03-1.07-.01-1.6-.04-.6.36-1.2 1.02-1.38.44-.11.86-.13 1.29 0 .76.21 1 .75 1.06 1.49v.62h.05Zm-.8-.01v-.59c.05-.44-.16-.82-.72-.92-.56-.1-1.25.13-1.21.95.02.34 0 .68 0 1.02 0 .66.23.94.88 1.06.45.08.98-.26 1.04-.69.04-.27 0-.55 0-.83Zm31.06 9.13h-.67l-.01-.26-.01-3.54c0-.27.09-.34.35-.35.3 0 .36.11.35.37-.02.44-.01.89-.01 1.36h1.8c0-.46.02-.92 0-1.38 0-.25.06-.35.33-.34.26 0 .43.02.43.35-.02 1.14-.02 2.3 0 3.44 0 .3-.1.41-.4.37h-.35v-1.71h-1.8v1.7Zm-25.64-11.19c.78-.04.75-.1.74.63v1l.05.14c.13-.09.27-.14.35-.24.35-.43.67-.87 1-1.3.21-.27.63-.35 1.03-.17l-1.35 1.73c.72.63.97 1.5 1.41 2.27-.54.2-.78.11-1-.32-.14-.27-.3-.54-.41-.82-.2-.47-.38-.64-1.08-.56v1.35c0 .39-.3.58-.64.4-.05-.02-.1-.12-.1-.2v-3.91Zm24.4 0c.5-.04.74.16.74.61v1.2c.18-.12.31-.17.4-.27l1.02-1.32c.2-.26.55-.32 1.01-.17l-1.35 1.74c.72.61.95 1.5 1.41 2.26-.44.22-.8.11-1-.29-.14-.28-.3-.55-.42-.84-.19-.5-.43-.64-1.07-.56v1.35c0 .39-.3.58-.64.4-.06-.02-.1-.12-.1-.2v-3.9Zm-25.29 0v4.1l-.04.03c-.42.04-.63-.16-.63-.58v-2.67c.01-.23-.06-.26-.28-.24-.33.03-.66.01-1.02.01 0 .41.03.8-.01 1.17-.05.5-.13 1-.26 1.5-.1.4-.4.66-.78.84-.2.1-.3.02-.36-.15-.05-.16-.28-.33-.01-.46.55-.27.64-.77.66-1.28.04-.74 0-1.5 0-2.27h2.73Zm8.81 11.21c-.3 0-.49.02-.68 0a.44.44 0 0 1-.27-.2c-.17-.3-.32-.62-.47-.93-.32-.62-.38-.65-1.14-.59v1.67l-.09.04c-.61.03-.6.03-.6-.6v-3.09c.01-.14 0-.36.06-.4a.94.94 0 0 1 .5-.04c.06.01.12.17.12.25v1.45c.23.05.36.02.5-.17.3-.45.65-.86.96-1.3.26-.36.61-.23 1.06-.24l-1.4 1.84c.73.61.94 1.51 1.45 2.31Zm3.54-7.07v-4.15h.66v1.42c.39 0 .74-.03 1.08 0 .71.06 1.2.26 1.33.94.18.91-.12 1.77-1.34 1.79h-1.73Zm.68-.69h.98c.38 0 .65-.2.7-.54.05-.4-.16-.75-.54-.8-.37-.05-.76 0-1.14 0v1.35Zm16.48 7.72.46-1.24c.34-.87.7-1.74 1.03-2.62.08-.22.2-.27.38-.26.2.01.37-.05.48.25.45 1.25.95 2.48 1.43 3.73l.03.18h-.63c-.06-.01-.15-.1-.18-.16l-.28-.77h-1.48c-.07 0-.16.09-.22.16-.04.04-.05.12-.07.2-.22.64-.25.65-.95.53Zm1.9-3.3-.6 1.83h1.2l-.6-1.82Zm-11.17-5.03c.06 0 .1 0 .12.02.17.09.5.23.48.26-.08.26-.18.55-.37.74-.53.5-2.14.52-2.57-.17-.13-.22-.3-.45-.31-.68a16.1 16.1 0 0 1 .05-2.03c.05-.6.5-.9 1.04-1.05a1.91 1.91 0 0 1 1.59.2c.24.16.4.45.58.71.02.04-.11.25-.2.3-.16.06-.34.2-.5-.08a1.04 1.04 0 0 0-1.66-.22.75.75 0 0 0-.17.43c-.02.49 0 .97 0 1.46 0 .55.54.95 1.09.84.43-.09.7-.33.83-.73Zm1.87-.79v.67c0 .56.54.97 1.09.84.36-.08.68-.2.8-.61 0-.04.11-.08.17-.07.1 0 .18.06.26.08.26.05.28.18.19.4-.2.46-.54.75-1.02.8-.4.05-.8.04-1.2-.03-.7-.13-1.04-.77-1.03-1.42 0-.57 0-1.15.06-1.72.06-.6.5-.91 1.04-1.06a1.92 1.92 0 0 1 1.67.24c.22.17.36.45.5.7.03.04-.12.23-.23.27-.13.06-.32.2-.44-.06-.22-.52-.82-.65-1.33-.48-.36.12-.53.35-.53.73v.71Zm-21.76 6.3c-.03-.04-.07-.08-.08-.12-.25-.65-1-.7-1.52-.45-.26.12-.36.34-.37.61 0 .51-.03 1.03 0 1.53.06.69.76.82 1.27.7a.75.75 0 0 0 .56-.47c.16-.4.4-.08.6-.04.23.04.13.23.08.37-.33.77-1.2.92-1.9.84-.46-.06-.9-.23-1.12-.68-.11-.21-.2-.45-.2-.68-.04-.48 0-.95-.02-1.43-.04-.78.37-1.4 1.24-1.52.5-.07 1.03-.1 1.45.23.24.18.41.46.58.72.03.03-.08.2-.16.26-.12.07-.26.1-.4.14Zm33.9 2.86v-3.47h-.97c-.27 0-.28-.16-.28-.34 0-.18 0-.35.27-.35h2.64c.3 0 .26.18.27.37.01.2-.02.34-.28.32-.29-.02-.58 0-.9 0v1.03c0 .68-.02 1.36 0 2.05.01.3-.08.44-.4.4-.1-.02-.2-.01-.35-.01Zm-17.45-7.09c-.44.03-.66-.16-.66-.59v-3.54h.66v4.13Zm19.07-5.26c-.14.53-.62.86-1.1.8-.57-.06-.92-.34-.95-.76.1-.04.18-.1.28-.1.09-.01.22 0 .27.06.32.4.58.41.9 0 .21-.25.39.05.6 0Z" fill="#8BA6C3"/></svg>