<svg viewBox="0 0 71 33" fill="none" xmlns="http://www.w3.org/2000/svg"><g clip-path="url(#a)" fill="#8BA6C3"><path d="M6.14 27.64c-.14-.01-.18.06-.2.17l-.35 1.52-.44 1.97c-.01.04-.03.08-.06.08s-.05-.05-.06-.09c0-.08-.03-.16-.05-.24l-.85-3.3c-.02-.1-.07-.11-.15-.11h-.71c-.1 0-.11.04-.13.12l-.32 1.2-.65 2.48c-.1-.14-.1-.3-.14-.44-.22-1.08-.48-2.16-.71-3.24-.03-.11-.06-.12-.14-.11h-1.15v.11l.5 1.72.62 2.28c.1.37.22.73.31 1.1.02.1.04.11.12.1l1.05.01c.12 0 .12-.09.14-.15l.57-2.1.23-.85c0-.04.02-.1.05-.1.04 0 .05.06.07.1l.52 1.95c.1.38.17.78.33 1.15v.03h1.2v-.04l.45-1.59.79-2.82.23-.9-1.08-.01h.01Zm54.49 1.98a2.6 2.6 0 0 0-.59-1.32 2.27 2.27 0 0 0-1.52-.7.25.25 0 0 0-.26 0l-.27.04a2 2 0 0 0-1.46.92 2.7 2.7 0 0 0-.42 1.46c-.05.2-.05.4 0 .6.02.13.01.27.04.41.13.81.51 1.42 1.23 1.78.17.09.34.1.5.19h.98c.01-.05.05-.04.08-.04.42-.08.8-.28 1.08-.61.44-.51.64-1.13.65-1.81a.58.58 0 0 0 0-.44c0-.16-.01-.32-.04-.48Zm-1.42 2c-.17.22-.4.32-.65.4a.4.4 0 0 0-.34 0c-.57-.1-.82-.52-.93-1.04-.1-.48-.1-.98.03-1.47.1-.4.32-.73.73-.85.42-.11.81-.04 1.12.3.2.22.28.5.33.78l.04.36v.44c-.04.38-.1.76-.34 1.08Zm-47.34-2.18c-.1-.43-.26-.82-.56-1.15-.4-.46-.93-.62-1.5-.7a.25.25 0 0 0-.27 0l-.27.05c-.47.04-.87.25-1.2.59-.34.33-.53.76-.63 1.22-.03.2-.1.4-.05.61-.07.17-.01.34-.02.52.02.18.03.36.07.54.12.62.4 1.14.9 1.51.24.18.52.26.79.37h1.01c0-.04.03-.04.06-.04.35-.06.66-.22.94-.47.56-.5.76-1.17.81-1.91a.85.85 0 0 0 0-.52c-.03-.2-.04-.42-.08-.62Zm-1.15 1.7c-.15.48-.43.78-.91.88-.12-.07-.25-.03-.38-.03-.37-.05-.6-.31-.74-.64a1.7 1.7 0 0 1-.16-.77v-.52c0-.31.07-.6.2-.89.22-.42.72-.6 1.14-.53.66.11.86.71.92 1.18 0 .08.03.16.04.24v.52c-.06.18-.05.38-.1.57h-.01Zm40.18-.91c0-.12-.08-.08-.14-.08h-2c-.07.02-.05.07-.05.11v.62c0 .12.04.16.15.16h.98c.02.33-.08.6-.34.8a.99.99 0 0 1-1.13 0c-.45-.32-.56-.82-.6-1.35a.55.55 0 0 0 0-.4c-.03-.1.02-.2.04-.31.08-.47.25-.88.71-1.09.36-.15.95-.05 1.14.34.09.16.13.34.17.51.02.1.06.11.12.09.19-.06.38-.06.58-.1.33-.1.35-.08.28-.44a1.88 1.88 0 0 0-.7-1.13c-.3-.24-.68-.32-1.06-.37a.25.25 0 0 0-.27 0c-.37.01-.74.1-1.06.3-.75.45-1.02 1.2-1.07 2.05v.75c.02.17.03.35.07.52.13.6.41 1.09.9 1.45.23.17.5.22.75.33h1.01c.06-.08.15-.02.23-.05.58-.2.97-.59 1.16-1.19.16-.5.11-1.02.12-1.53Zm-5.39 2.69-.67-.88-1.23-1.67c-.04-.06-.06-.1-.01-.16l1.34-1.82.53-.74h-1.23c-.07 0-.1.02-.14.08l-.95 1.34c-.2.29-.44.56-.61.88-.07-.06-.03-.13-.03-.2v-1.9c0-.07.04-.15-.05-.2h-1.08c-.08.06-.04.15-.04.22v5.13h1.13v-.03c.08-.06.04-.14.04-.2v-1.95c0-.06-.03-.14.03-.2l.08.13 1.58 2.22v.03h1.35c0-.03 0-.06-.04-.07Zm-5.27-5.28c-.3.02-.62 0-.92 0-.08.06-.04.15-.04.22v2.7c0 .07.03.16-.04.21-.29-.45-.52-.93-.79-1.4-.3-.54-.6-1.08-.88-1.62-.05-.08-.1-.11-.19-.11h-.95c-.08.06-.04.15-.04.22v5.1h.96c.14.01.17-.04.17-.18v-2.89l.01-.01h.01c.1.18.2.32.27.47l1.4 2.5c.04.07.08.11.17.11h1.03v-5.14c0-.14-.01-.2-.16-.2l-.01.02Zm-9.82 2.58c-.08-.03-.11-.06-.02-.11.3-.2.4-.51.42-.86a.34.34 0 0 0 0-.32c-.02-.5-.22-.87-.66-1.1a2.16 2.16 0 0 0-.9-.18c-.67-.02-1.34 0-2.01 0-.07.02-.04.07-.04.11v5.24h2.4v-.03c.19 0 .37-.04.54-.1.56-.17.99-.62 1-1.27.06-.09.06-.17 0-.25a1.2 1.2 0 0 0-.74-1.13Zm-.73-1.17v.32c-.05.25-.2.38-.45.43h-.9v-1.18h.72c.35 0 .54.14.63.42Zm-.33 2.97c-.34.02-.68 0-1.02 0v-1.36c.4 0 .8-.05 1.18.07.25.07.4.24.44.5v.24a.62.62 0 0 1-.6.54Zm5.57-2.4c-.21-.58-.42-1.17-.61-1.76-.06-.16-.12-.24-.3-.22a5.5 5.5 0 0 1-.73 0c-.12 0-.18.04-.21.14l-1.1 3.17-.71 2v.05h1.16v-.04l.37-1.16c.03-.11.08-.13.18-.13h1.41c.11 0 .16.04.2.15.12.38.26.77.4 1.15v.03h1.13c0-.03 0-.06-.03-.08l-1.16-3.3Zm-1.26-.45h.03l.54 1.59h-1.1l.53-1.59Zm36.31-.2c-.07-.38-.25-.7-.57-.94a2.2 2.2 0 0 0-1.27-.38c-.62-.03-1.25 0-1.87 0-.06.02-.04.07-.04.11v5.24h1.13v-1.72l.94-.01c.22 0 .42-.05.62-.11a1.5 1.5 0 0 0 1.03-1.07c.11-.37.11-.75.03-1.12Zm-1.07.69c-.09.4-.3.58-.67.65-.03 0-.05.04-.1.02-.26-.07-.52 0-.78-.03v-1.67l.75-.01c.56 0 .9.52.8 1.04Zm-48.37 2.36h-2.01v-4.16c0-.07.03-.15-.04-.21h-.92c-.15-.01-.17.04-.17.18v5.13h3.3l.01-.76c.01-.15-.03-.18-.17-.18Zm26.15-19.08c.06-.12.02-.26.03-.39v-.82c0-.13.03-.27-.03-.4l-.01-.07-.03-.16a.21.21 0 0 0 0-.23c0-.08 0-.17-.04-.24.02-.1-.02-.18-.04-.27.03-.13-.04-.26-.04-.39l-.08-.4-.11-.5-.11-.4-.11-.38-.11-.32-.15-.43-.11-.27a.25.25 0 0 1-.12-.11l-.22-.09h-.22c-.2.02-.33.14-.42.32v.07a.3.3 0 0 0 0 .32c0 .04 0 .08.04.11.05.12.04.27.15.36.04.14.07.3.14.43.02.18.09.34.15.51 0 .16.07.3.09.46l.1.44c-.01.13.04.25.05.38l.04.24c0 .1.02.18.03.27 0 .07-.02.14.03.2-.03.06-.03.1.01.15v1.49l-.03.2c0 .42-.1.83-.15 1.24a4.8 4.8 0 0 1-.32 1.06l-.3.5c-.08.12-.19.23-.25.36-.08-.07-.02-.16-.05-.24v-.62c0-.1.04-.2-.03-.28v-.42c0-.07.02-.14-.03-.2l-.01-.12-.03-.18c-.05-.4-.1-.8-.2-1.19-.03-.1-.01-.21-.07-.3.03-.15-.08-.26-.08-.4-.04-.12-.04-.25-.11-.35-.02-.15-.07-.3-.12-.43-.04-.14-.06-.28-.15-.4 0-.16-.08-.29-.15-.42 0-.16-.1-.29-.15-.43a1.73 1.73 0 0 0-.21-.48 11.2 11.2 0 0 0-.09-.19c0-.07-.04-.13-.08-.2l-.11-.23c0-.07.06-.1.1-.15.05-.03.09-.08.13-.13.08-.03.12-.12.16-.18a.5.5 0 0 0 .14-.16c.08-.05.1-.13.15-.2.1-.1.17-.22.23-.35.09-.1.12-.24.19-.35a.87.87 0 0 0 .15-.4.8.8 0 0 0 .11-.35c.06-.1.06-.2.08-.3v-.2c-.14-.43-.47-.58-.83-.4-.16.12-.27.26-.26.48l-.15.47-.19.39c-.05.09-.13.16-.15.27-.1.05-.12.16-.18.24l-.08.11c-.18.15-.18.15-.3-.06-.25-.44-.53-.86-.83-1.26-.12-.16-.22-.35-.37-.48l-.3-.39-.23-.27a.45.45 0 0 0-.15-.16.48.48 0 0 0-.15-.16.5.5 0 0 0-.15-.16 1.12 1.12 0 0 0-.23-.23 1.77 1.77 0 0 0-.3-.31l-.34-.32-.34-.3-.18-.17c.04-.06.1-.02.15-.04h.07c.11.02.22.07.34.04.1 0 .17.08.27.04l.4.08.24.04.33.08.19.04.11.04c.1 0 .17.06.27.04.07.07.17.08.26.11l.37.12.2.08.37.16c.08.04.16.1.26.12.12.1.28.16.41.23.05.03.1.05.15.04.1.06.2.06.3 0 .23-.05.32-.22.38-.43v-.23c-.04-.17-.15-.3-.26-.43-.07-.1-.12-.21-.23-.28-.05-.16-.2-.25-.3-.38-.08-.1-.15-.2-.26-.28-.06-.08-.12-.17-.22-.2a.73.73 0 0 0-.23-.22c-.08-.06-.13-.15-.22-.2-.08-.05-.13-.13-.23-.16a.96.96 0 0 0-.3-.23c-.1-.07-.19-.15-.3-.2l-.38-.22-.22-.13-.19-.08a.92.92 0 0 0-.26-.15l-.23-.09c-.08-.06-.18-.07-.26-.1l-.2-.09c-.04 0-.08-.06-.14-.04-.06-.03-.11-.08-.19-.07l-.23-.08-.1-.04c-.07 0-.12-.07-.2-.04l-.27-.09-.85-.18-.87-.13c-.07-.05-.15-.06-.23 0-.07-.01-.15-.02-.22-.07h-1.95c-.08.07-.19.02-.27.08-.14-.03-.27.03-.41.04-.13 0-.25.02-.38.07-.1 0-.2 0-.3.05-.13 0-.25.04-.37.08l-.49.11c-.13.07-.29.06-.42.15l-.4.13-.5.2-.52.23-.38.2-.4.23-.2.12-.07.04c-.06 0-.07.06-.12.08l-.4.27-.46.34-.45.36c-.16.13-.33.25-.46.42-.19.17-.4.33-.55.55-.11.15-.28.26-.38.43-.05.09-.15.13-.19.24l-.57.79a12.27 12.27 0 0 0-1.95 8.75 12 12 0 0 0 3.04 6.49 11.72 11.72 0 0 0 4.55 3.13c1.03.4 2.1.6 3.2.7h1.51c.07.03.12-.04.2-.04.31 0 .63-.07.94-.11.6-.1 1.17-.27 1.75-.44l.56-.23c.22-.07.44-.16.64-.28.18-.08.37-.14.53-.27.2-.11.41-.2.6-.35.2-.1.36-.22.53-.35.2-.12.38-.27.56-.43.2-.11.35-.29.53-.43.16-.16.34-.29.49-.47.13-.12.26-.25.37-.4.15-.11.25-.28.38-.42l.3-.39c.13-.15.24-.3.34-.47.11-.12.18-.26.26-.4a44.71 44.71 0 0 0 .64-1.12c.1-.15.16-.31.22-.48.05-.08.1-.17.12-.27.05-.1.1-.2.11-.31.07-.08.09-.18.11-.27.08-.15.13-.31.16-.47.08-.16.11-.34.14-.51l.04-.06.22-1.08c.07-.42.1-.86.15-1.29Zm-3.43 1.01.04.2v.03l.08.83v1.39c0 .08-.06.16-.04.24v.02l-.04.3v.02c0 .1-.02.21-.07.3v.02l-.6.35h-.02l-.48.22-.04.01-.5.2h-.02l-.45.16h-.02l-.58.15-.72.16a1237.92 1237.92 0 0 1-1.31.16h-.35l-.25-.01v-.2c.04-.13.06-.28.06-.42.03-.13.06-.26.05-.4.05-.18.09-.38.07-.58.07-.14.03-.29.04-.43.07-.16.02-.34.07-.5v-.12c.06-.07.04-.16.04-.24v-.23l.04-.51v-.23c.07-.06.04-.13.04-.2v-.2c.06-.06.03-.13.03-.2v-.81l.02-.04c.06-.14.01-.3.02-.44v-1.63c0-.15.04-.3-.02-.44v-.07c.25 0 .5 0 .74-.09h.02c.27-.01.54-.08.8-.15.1-.02.2-.03.27-.08.1 0 .18-.04.27-.08a6.25 6.25 0 0 0 .56-.2c.1-.06.22-.06.3-.14l.3-.13.24-.14.02-.01c.17-.02.15.16.23.24v.01l.22.5.01.03c.05.14.1.28.17.42l.01.02c.05.17.1.34.19.5v.04c.05.15.07.3.15.44v.01c0 .13.08.24.08.37l.08.26v.01c.11.44.2.88.25 1.32Zm-4.93-2.02v-.02.02Zm0 .86Zm-3.3-8.77-.05.06-.36.46c-.1.12-.22.23-.28.38-.1.1-.18.23-.26.36-.1.08-.16.2-.22.3-.12.15-.23.3-.3.47-.15.18-.28.38-.38.6-.12.12-.2.27-.26.42-.1.08-.14.2-.2.31a.3.3 0 0 0-.1.2c-.1.06-.12.17-.15.27-.11.08-.13.24-.23.32l-.41-.23-.26-.2-.2-.15-.25-.2c-.06-.12-.18-.16-.27-.24l-.22-.24-.3-.35c-.17-.2-.32-.44-.46-.66-.04-.08-.09-.15 0-.23l.5-.27.44-.25c.14-.06.29-.1.41-.2l.5-.22.37-.15.34-.13c.1 0 .2-.07.3-.12.14 0 .27-.08.41-.12.16-.04.3-.08.45-.15a.6.6 0 0 0 .3-.07c.17.02.3-.09.45-.09l.38-.08.19-.04c.07.03.13-.02.19-.03h.03c.02.01.1-.02.05.05-.06.07-.13.13-.16.22Zm-4.99 12.84.1-.4c.05-.1.06-.23.08-.35.06-.13.1-.28.11-.43l.15-.47c.09-.19.11-.4.18-.59.05-.17.14-.32.16-.5.07-.14.13-.28.15-.43.08-.17.15-.33.2-.51.05-.16.11-.32.18-.47.08-.18.16-.36.22-.55.1-.2.19-.41.27-.63l.19-.42c.1-.15.15-.32.22-.48.06-.06.1-.14.12-.23a.52.52 0 0 0 .1-.23l.23-.43.34.11c.09.04.17.1.27.1.06.04.1.1.18.09.11.06.22.1.34.12.18.1.38.13.57.2.16.03.32.1.49.11.15.08.32.1.48.12.13.03.25.08.38.08l.45.07c.11.02.23 0 .34.04h.38v.01c.05.06.12.03.19.03.2-.03.12.14.15.24v2.15l-.01.35c-.06.1-.02.22-.03.32v.63c-.06.05-.04.13-.04.2v.1c0 .16-.02.32-.03.47v.28c-.04.14-.07.28-.04.43a1.1 1.1 0 0 0-.04.43c-.07.18-.02.37-.07.55 0 .17-.08.33-.04.5-.07.14-.04.3-.07.44l-.08.43-.04.35c-.27 0-.53.02-.79-.03l-.79-.08-.71-.12c-.12-.06-.26-.03-.38-.08l-.49-.11a66.12 66.12 0 0 1-1.61-.44l-.9-.34a.26.26 0 0 0-.04-.02l-.86-.38c-.08-.04-.19-.06-.16-.2l.01-.03h-.01Zm8.7-11.58.05.04c.09.12.19.22.3.31v.01c.15.17.29.33.45.47l.04.03c.14.21.3.41.49.59l.01.03c.12.18.25.36.4.51l.04.05c.13.27.33.5.49.76.11.2.25.37.36.57.05.08.02.1-.03.15l-.26.13h-.02c-.07.06-.18.06-.25.14-.11 0-.2.07-.3.12l-.3.1-.22.07-.3.07-.42.11-.1.01c-.2.04-.38.07-.57.08-.08 0-.16-.03-.23.03-.05 0-.08-.02-.1-.07h-.01l.04-.08c0-.07.02-.14-.03-.2l-.1-1.32c.04-.08.03-.15 0-.23l-.01-.01-.01-.04c-.07-.17-.04-.35-.06-.53-.11-.86-.23-1.72-.41-2.58-.02-.08-.09-.17-.02-.26l.04.03.05.04.02.02.22.19c.06.04.1.09.16.12l.25.23v.01l.34.31Zm.61-3.33h.01l.23.1.03.02.21.08.03.02a.3.3 0 0 0 .12.06l.28.17.03.01.36.2.02.02.07.1-.03.01h-.03c-.12 0-.22-.06-.34-.05h-.01c-.08-.05-.17-.04-.24-.06h-.02c-.11-.01-.22-.08-.34-.05h-.02l-.31-.06-.04-.01-.15-.01a.15.15 0 0 0-.1-.04h-.2a.41.41 0 0 0-.1-.05.24.24 0 0 0-.17.04c-.04.02-.07-.03-.1-.03h-.19v-.04c.02 0 .03-.02.05-.03l.22-.12.03-.03.19-.1.03-.02c.07-.02.14-.03.2-.1.1 0 .2-.02.3-.04h-.02Zm-2.36-.67h.01l.82.18-.72.5-.02.01-.13.09c-.12-.18-.18-.4-.3-.57l-.04-.05c0-.08-.1-.12-.09-.2.16 0 .3.06.47.04Zm-.83 3.1.03-.02.15-.15c.06-.06.12-.12.13.03 0 .04.02.07.03.11l.25 1.14.01.06.16 1.1c0 .02-.01.04 0 .07.08.4.1.8.15 1.2 0 .08-.02.15.03.2v.12l.01.24c.05.14.03.29.03.43 0 .06-.03.14.03.2l.01.5c-.03.07-.1.03-.15.05h-.27v-.01c-.05-.06-.12-.04-.18-.04h-.27c-.08-.03-.17-.06-.26-.03-.14-.07-.3-.08-.45-.09-.12-.08-.26-.05-.38-.1l-.41-.1a1.1 1.1 0 0 0-.38-.11 2.54 2.54 0 0 0-.52-.19c-.16-.07-.32-.15-.5-.2-.15-.05-.16-.15-.07-.27l.27-.47.3-.5c.07-.14.17-.25.22-.4.1-.07.13-.18.2-.27l.22-.35.3-.44.26-.38.5-.64.55-.7v.01Zm-1.37-3.25h.28l.28.23h.02l.23.36c-.06.08-.1-.03-.16 0-.06-.04-.11-.08-.18-.07l-.03-.01-.12-.04a.55.55 0 0 0-.3-.12l-.3-.1-.45-.13v-.03c.05-.06.11-.04.18-.05h.27c.07 0 .15.02.22-.03l.03-.01h.02Zm-4.42 1.34.04-.03c.12-.1.28-.1.41-.17h.02l.34-.04h.02c.12-.09.28 0 .4-.08h1.02c.1.07.2.03.3.04h.01c.11.06.24.03.36.07h.02l.52.12h.02c.14.01.26.08.4.12l.33.09c0 .05.1 0 .1.07-.06.07-.14.02-.2.05l-.5.11c-.12.05-.26.03-.37.11l-.42.1-.37.1-.38.13-.33.11-.38.16-.49.2c-.15.07-.32.1-.45.21a2.1 2.1 0 0 0-.52.25c-.16.08-.33.13-.46.26-.06.03-.14.05-.2.09-.07.04-.1.04-.12 0a.18.18 0 0 1-.02-.09v-.19c.05-.08.07-.16 0-.24l.07-.27.01-.03c.1-.25.2-.49.33-.7.15-.2.31-.38.49-.55Zm-4.21 3.67s0-.02.02-.03c0-.02.01-.04.03-.05.08-.08.13-.18.18-.27l.3-.43.45-.54.04-.04.41-.47a.3.3 0 0 0 .04-.03l.34-.32.4-.36.05-.04c.09.06 0 .12 0 .18-.05.19-.03.38-.04.56-.05.07-.05.14 0 .2 0 .24 0 .47.07.7.05.14-.12.14-.15.24h-.02c-.16.1-.32.2-.43.35-.17.06-.27.21-.4.32-.17.15-.37.27-.5.46-.15.17-.36.27-.48.47a.56.56 0 0 0-.2.23l-.04.04v.01c-.36.35-.64.75-.93 1.15l-.34.53c-.1-.26.56-1.82 1.2-2.86Zm2.6 11.74c-.1.52-.16 1.03-.16 1.55-.05.27-.05.55 0 .82.02.2-.02.4.08.64-.24-.12-.4-.28-.55-.42a9.9 9.9 0 0 1-1.29-1.38 11.94 11.94 0 0 1-1.39-2.3 9.32 9.32 0 0 1-.75-2.53c0-.03-.02-.08.02-.1.04-.02.07.02.09.05.33.47.7.9 1.1 1.3.7.67 1.44 1.25 2.25 1.75.14.08.27.19.43.25.19.07.2.2.17.37Zm.3-1.55c-.03.11-.06.13-.15.07a11.11 11.11 0 0 1-2.58-2.06 7.12 7.12 0 0 1-1.42-2.2c-.05-.15 0-.28.03-.4.3-1.03.79-1.97 1.4-2.84l.12-.14.04-.05.08-.11c.07-.1.15-.18.23-.27l.4-.47.42-.43c.14-.13.3-.23.41-.4.16-.1.3-.2.42-.35l.03-.01c.13-.06.23-.19.36-.26l.02-.01h.04c.08.12.11.26.21.35.1.22.25.38.38.55l.02.03c.16.18.3.38.48.52.18.17.33.37.55.48.08.11.2.19.3.26.1.07.17.15.27.2l.23.15.3.2c.11.05.04.13.03.2-.12.12-.16.28-.22.43l-.26.52-.27.62c-.09.17-.18.35-.23.54-.11.18-.17.39-.25.6-.08.14-.13.3-.19.46-.05.14-.13.28-.15.43a2 2 0 0 0-.2.55l-.21.59-.15.46-.12.43c-.05.13-.1.25-.1.4-.08.12-.1.26-.13.4v.02c-.08.17-.1.36-.14.54Zm6.34 6.55a.53.53 0 0 1-.36.26c-.11-.07-.23-.02-.35-.03-.09 0-.18-.04-.26.03a10.28 10.28 0 0 1-3.95-1.07c-.45-.23-.6-.65-.71-1.12-.1-.49-.08-.99-.07-1.48a.21.21 0 0 0 0-.24c.01-.35.06-.7.12-1.06.84.36 1.66.73 2.55.94.35.12.7.22 1.05.27l.11.05c.26.04.5.1.75.15l.8.11.56.08c.14.01.28 0 .41.04h.24c.18 0 .24.1.18.28-.03.14-.05.29-.09.43-.06.16-.1.33-.13.51-.07.1-.07.21-.12.31l-.15.43c-.03.15-.14.26-.16.41v.02c-.14.22-.27.46-.42.68Zm1.25.11c.02-.1.07-.19.11-.28.1-.11.12-.26.18-.39l.16-.43a.8.8 0 0 0 .11-.35c.07-.15.14-.3.15-.47.06-.14.1-.28.1-.43a.83.83 0 0 0 .09-.35c.07-.13.08-.28.12-.43l.3-.01h.25c.07 0 .14.03.2-.03l.07-.01c.24.03.47-.06.7-.04.03 0 .06-.02.09-.04.3.02.6-.07.9-.12l.71-.15c.2-.05.41-.1.6-.19.26-.04.5-.13.72-.24.18-.05.35-.12.5-.22h.03c.2-.02.02.1.04.14v.01c-.06.11-.13.22-.16.35-.07.1-.14.22-.18.34v.01l-.3.45-.01.01c-.13.1-.19.25-.3.35v.02l-.4.4h-.01l-.54.4-.02.01-.6.4h-.01c-.2.1-.38.22-.57.32l-.02.02-.56.24-.02.01-.56.22h-.03c-.23.09-.47.17-.71.24l-.47.11h-.02c-.2.09-.41.11-.63.13Zm28.67 4.66h-1.05c-.05 0-.03.05-.03.09v3.18l-.04.32c-.08.36-.3.72-.71.74h-.23c-.5-.02-.77-.4-.78-.92-.02-1.09-.01-2.18 0-3.26 0-.12-.02-.17-.16-.17h-.93c-.07.05-.04.12-.04.18v3.02c0 .05-.02.12.03.17 0 .16 0 .33.04.5.1.43.27.83.64 1.12.23.18.5.27.75.37h1.06l.03-.04c.54-.08.91-.39 1.17-.88.17-.3.2-.65.27-1 .05-.05.02-.12.02-.2v-3.1c0-.04.03-.1-.04-.13Zm-48.45 4.41h-.15c-.28.04-.48-.1-.6-.34-.18-.32-.31-.67-.53-.96-.07-.1 0-.1.05-.14.33-.2.53-.49.64-.87.08-.27.07-.54.02-.8a1.35 1.35 0 0 0-.53-.96 2.24 2.24 0 0 0-1.25-.34c-.64-.03-1.28 0-1.93 0-.08.05-.04.14-.04.2v5.1h.03l.96.01c.11 0 .14-.03.14-.14v-1.78h.6c.24.06.4.23.5.46l.28.61c.19.42.46.74.9.88h.8c0-.07.07-.03.1-.05.05-.01.04-.05.04-.09v-.7c0-.03.01-.08-.04-.1v.01Zm-1.73-2.31c-.14.23-.37.32-.63.36l-.83-.01v-1.48h.83c.59 0 .94.6.63 1.13Zm40.82 2.41c0-.04.01-.08-.04-.1-.13-.02-.28.03-.42-.03-.2-.07-.3-.25-.4-.43-.14-.28-.26-.57-.46-.82-.05-.06-.04-.09.03-.14.13-.1.28-.2.4-.34.23-.3.3-.65.32-1.02 0-.06.03-.14-.03-.2a.86.86 0 0 0-.04-.32c-.1-.34-.26-.62-.57-.81a2.3 2.3 0 0 0-1.17-.3c-.65-.03-1.3 0-1.94 0-.08.05-.04.14-.04.2v5.1h.03l.96.01c.11 0 .14-.03.14-.14v-1.78h.6c.4.12.52.49.67.83.19.42.36.84.8 1.04.07.03.16.01.22.08h.79c.01-.07.07-.03.1-.05.06-.02.05-.07.05-.11v-.68Zm-2.4-2.05-.82-.01v-1.48h.79c.5.01.72.27.78.71.05.36-.32.74-.75.78Zm-28.3-.05-.08-.5a2.25 2.25 0 0 0-2.03-1.88c-.05-.06-.12-.04-.19-.03h-1.73c-.06.01-.03.07-.03.1v5.25h1.99v-.04c.58-.02 1.1-.23 1.49-.68.38-.45.54-1 .58-1.58.06-.06.02-.14.03-.2v-.23c0-.07.03-.14-.03-.2Zm-1.53 1.65c-.2.2-.43.3-.7.3-.23.02-.47 0-.7 0v-3.38l.52-.01c.77.01 1.2.57 1.27 1.24l.05.25v.51c-.05.4-.14.8-.45 1.1Z"/></g><defs><clipPath id="a"><path fill="#fff" transform="translate(.034)" d="M0 0h70v33h-70z"/></clipPath></defs></svg>