<svg viewBox="0 0 52 31" fill="none" xmlns="http://www.w3.org/2000/svg"><g clip-path="url(#a)" fill="#8BA6C3"><path d="M15.34 0h16.42l.11.02a15.7 15.7 0 0 1 14.39 9.8c.63 1.58 1 3.21 1.05 4.9.05 1.57.04 3.13.05 4.69v3.87c.01.5.04.99.12 1.47a7.92 7.92 0 0 0 3.43 5.5c.34.24.72.44 1.09.66-.28.03-.55.06-.83.07-1.09.06-2.17-.02-3.24-.24a19.68 19.68 0 0 1-6.82-2.82c-.1-.06-.16-.07-.26 0a15.79 15.79 0 0 1-9.7 2.98c-5.08-.02-10.16 0-15.24 0-1.15 0-2.29-.1-3.41-.35a15.59 15.59 0 0 1-8.44-4.78 15 15 0 0 1-3.74-13.4 15.6 15.6 0 0 1 9.5-11.2c1.53-.63 3.12-1 4.77-1.11l.75-.06Zm-2.45 13.81h-5.1l-.38.02a1.88 1.88 0 0 0 .28 3.74h5.01c.15 0 .2.03.2.18-.02 1.54-.02 3.08-.01 4.62a1.88 1.88 0 0 0 3.77 0v-4.79h6.5a8.7 8.7 0 0 0 10.02 6.65 8.67 8.67 0 0 0-.2-17.12 8.7 8.7 0 0 0-9.82 6.69h-6.5v-4.74c0-.14-.02-.29-.05-.42a1.88 1.88 0 0 0-3.72.38v4.79Z"/><path d="M31.66 20.51a4.83 4.83 0 1 1 .01-9.65 4.84 4.84 0 1 1 0 9.65Z"/></g><defs><clipPath id="a"><path fill="#fff" d="M0 0h52v31h-52z"/></clipPath></defs></svg>