<svg viewBox="0 0 51 51" fill="none" xmlns="http://www.w3.org/2000/svg"><path d="M35 10.38c-.1.2-.02.59-.46.47-.02 0-.08.09-.1.14l-.07.3c-.34 1.34-1.27 1.71-2.5.99.7-.99.7-2.12.56-3.22-.18-1.38-.5-2.74-.8-4.1-.03-.15-.22-.26-.34-.4-.02.19-.09.38-.06.55.26 1.4.58 2.8.78 4.2.14.96.1 1.94-.55 2.77l.33.25c-.2.18-.36.35-.58.06a.3.3 0 0 0-.22-.1 3.05 3.05 0 0 1-1.93-.51c1.67-1.87.83-3.77.08-5.67-.04-.09-.2-.12-.3-.18-.03.13-.1.27-.07.38.24.89.59 1.76.75 2.67.18.96-.01 1.87-.93 2.5l.13.12c.04.05.1.08.19.15-.07.06-.12.13-.16.12a1.27 1.27 0 0 1-.54-.16c-.93.23-1.77.19-2.3-.65l-.77-.14a2.3 2.3 0 0 1-2.02.44c-.3-.07-.74.39-.78.79a27.42 27.42 0 0 1-1.4 6.26c-.62 1.73-1.34 3.43-1.99 5.07l.44.2-.22.25c3.54-1.83 6.8-1.22 9.81.99l.67-.12.04.15-.25.29.1.11 3.4 3.51c.1.1.17.25.29.34.06.05.23.08.25.05.05-.09.1-.22.06-.3a1.3 1.3 0 0 0-.26-.37l-3.47-3.78c.62-.55 1.31-1.22 2.05-1.82a15.05 15.05 0 0 1 6.94-3.28c2.8-.48 5.4.06 7.9 1.3a18.5 18.5 0 0 1 3.99 2.72c.14.13.27.36.27.54l.04 26.56-.04.18c-.59-.37-1.17-.7-1.73-1.07a40.8 40.8 0 0 1-11.74-12.13c-.36-.56-.38-.56-.75-.02a15.79 15.79 0 0 1-11.55 6.9c-3.9.46-7.64-.31-11.25-1.75a41.32 41.32 0 0 1-9.68-5.26 13.04 13.04 0 0 1-2.94-2.95c-1.62-2.33-1.64-4.8-.66-7.37a24.38 24.38 0 0 1 3.6-6.07c3.18-4.15 6.83-7.89 10.44-11.66 2.4-2.5 4.9-4.88 7.8-6.79 1.9-1.24 3.87-2.32 6.15-2.7a6.26 6.26 0 0 1 6.71 2.84c.7 1.04 1.2 2.2 1.82 3.36.36-.04.37-.03.45.61l-.43-.2c.25 1.25.68 2.5-.63 3.45l.45.2c-.3.14-.53.5-.78-.02-.01-.04-.2.01-.32.01h-.92c-.01-.06-.04-.12-.03-.19.06-1.93-.28-3.8-.72-5.67-.04-.17-.22-.3-.34-.45-.03.18-.12.37-.08.53.43 1.92.78 3.84.7 5.87l.48-.1Zm2.11 20.99.28.3a35.5 35.5 0 0 0 6.02 5.72c1 .73 2.1 1.31 3.18 1.94.12.07.32.01.48.01-.1-.13-.18-.32-.32-.4-.6-.35-1.23-.65-1.82-1.02a35.12 35.12 0 0 1-7.43-6.82c-.42-.48-.46-.48-.8.08a18.66 18.66 0 0 1-3.21 4.17 10.13 10.13 0 0 1-6.21 2.96c-2.53.21-4.83-.51-7-1.73-.76-.42-1.46-.97-2.2-1.44-.1-.07-.28-.04-.42-.05.05.13.07.28.15.37.18.17.39.31.6.46 2.24 1.59 4.68 2.7 7.47 2.85 3.04.18 5.6-.96 7.8-3a19.56 19.56 0 0 0 3.43-4.4Zm-18.42-7.43c-.83.92-1.55 1.86-2.4 2.66-.88.8-1.88 1.47-2.82 2.21-.1.08-.13.25-.19.38.14 0 .3.05.4 0a16.61 16.61 0 0 0 5.29-5.06l-.28-.2Zm3.87-12.77a7.12 7.12 0 0 1-2.3-2.15c-.06-.1-.23-.12-.35-.17 0 .13-.06.3 0 .39.63.94 1.4 1.76 2.42 2.3l.23-.37Zm2.94-.51c-.1-1.1-.18-2.08-.28-3.06-.02-.12-.12-.23-.18-.35-.08.1-.23.2-.23.3a7.3 7.3 0 0 0 .44 3.2l.25-.1Z" fill="#fff"/><path d="M37.04 10.43c1.04-1 .92-2.13.7-3.35a6.56 6.56 0 0 1 2 2.09c.45.86.1 1.46-.87 1.45-.57 0-1.13-.11-1.83-.2Z" fill="#fff"/></svg>