<svg viewBox="0 0 46 43" fill="none" xmlns="http://www.w3.org/2000/svg"><g clip-path="url(#a)" fill="#fff"><path d="M0 25.34v-22.59c0-1.74 1.01-2.75 2.77-2.75h40.44c1.76 0 2.77 1 2.77 2.75v22.58h-45.98Zm0 1.62h45.98c-.06 1 .18 2.03-.17 3a2.41 2.41 0 0 1-2.18 1.68c-.18.02-.36.01-.54.01l-40.21.01c-.87 0-1.63-.2-2.22-.86a2.4 2.4 0 0 1-.65-1.54c-.02-.75 0-1.5 0-2.3Zm17.5 13.79v-7.49h10.97v7.49h5.07c.79.01 1.25.47 1.22 1.18-.02.52-.37.94-.89 1.03-.2.03-.39.04-.58.04h-20.02c-.14 0-.27 0-.4-.02-.65-.06-1.11-.55-1.09-1.15a1.1 1.1 0 0 1 1.11-1.07c1.33-.02 2.67-.01 4-.01h.6Z"/></g><defs><clipPath id="a"><path fill="#fff" d="M0 0h46v43h-46z"/></clipPath></defs></svg>