<svg viewBox="0 0 55 55" fill="none" xmlns="http://www.w3.org/2000/svg"><g clip-path="url(#a)" fill="#fff"><path d="M27.45 45.31h-6.12c-1.28 0-1.88-.6-1.89-1.86a8.4 8.4 0 0 0-2.43-6c-7.39-7.67-4.18-20.5 5.97-23.74 7-2.22 14.3.83 17.57 7.44a14.45 14.45 0 0 1-2.31 16.05c-1.2 1.31-2.19 2.7-2.5 4.48-.1.61-.15 1.24-.17 1.86-.04 1.14-.65 1.77-1.78 1.77h-6.33Zm1.66-24.28c-.01-.9-.73-1.58-1.68-1.6a8 8 0 0 0-7.7 5.92 1.6 1.6 0 0 0 1.05 1.92c.86.27 1.7-.15 2-1.04.29-.8.63-1.56 1.25-2.16a5.04 5.04 0 0 1 3.43-1.42c.99-.05 1.66-.73 1.65-1.62Zm-8.04 27.52h12.8c.34 2.61-.34 4.77-2.7 5.93-.54.26-1.18.42-1.8.46-1.24.06-2.5.09-3.75 0a4.74 4.74 0 0 1-4.54-4.51c-.06-.6-.01-1.21-.01-1.88Zm4.82-43.7v-3.1c0-1.04.7-1.76 1.63-1.75.91.01 1.59.72 1.59 1.73v6.32c0 1-.68 1.71-1.6 1.72-.92 0-1.6-.71-1.62-1.7v-3.22Zm-20.99 21.02h3.1c1.05.01 1.77.67 1.77 1.6 0 .94-.72 1.62-1.75 1.62-2.1.01-4.19.01-6.28 0-1.03 0-1.75-.69-1.74-1.62 0-.92.72-1.59 1.73-1.6h3.16Zm45.25 0h3.11c1.03.01 1.75.7 1.74 1.64-.02.91-.73 1.58-1.74 1.58h-6.32c-1 0-1.71-.68-1.71-1.6s.7-1.6 1.7-1.61h3.22Zm-34.7-12.27c-.04.83-.3 1.32-.84 1.62-.55.3-1.1.28-1.63-.04a2.1 2.1 0 0 1-.38-.3l-4.4-4.4c-.49-.5-.69-1.08-.44-1.76.21-.6.67-.95 1.3-1.05.54-.07 1 .11 1.37.48 1.5 1.5 3.02 3 4.5 4.52.28.29.4.72.52.93Zm31.89-4.1c-.1.19-.22.62-.5.91a240.23 240.23 0 0 1-4.5 4.51c-.7.69-1.66.68-2.3.03-.65-.65-.65-1.6.03-2.3 1.48-1.5 2.97-2.99 4.47-4.47.52-.52 1.13-.67 1.82-.39.6.25.98.85.98 1.71Z"/></g><defs><clipPath id="a"><path fill="#fff" d="M0 0h55v55h-55z"/></clipPath></defs></svg>