<svg viewBox="0 0 62 35" fill="none" xmlns="http://www.w3.org/2000/svg"><g clip-path="url(#a)" fill="#fff"><path d="M30.98 3.1c.96.04 1.67.45 2.1 1.34 1.18 2.44 2.39 4.87 3.57 7.31.18.38.4.54.82.6 2.62.36 5.24.76 7.86 1.13.99.14 1.77.57 2.1 1.56.33 1.02-.05 1.84-.8 2.57-1.89 1.83-3.76 3.7-5.65 5.54-.3.3-.42.56-.34 1.02.49 2.67.92 5.35 1.38 8.03.16.95-.07 1.77-.85 2.35-.78.58-1.63.57-2.47.12-2.4-1.26-4.78-2.52-7.15-3.8-.4-.21-.67-.23-1.07-.01-2.31 1.25-4.65 2.46-6.97 3.7-.9.49-1.8.64-2.66 0-.9-.65-1.02-1.55-.83-2.6.48-2.63.9-5.27 1.32-7.9a1.1 1.1 0 0 0-.28-.83 414.76 414.76 0 0 0-5.68-5.6c-.75-.73-1.15-1.53-.83-2.56.34-1.07 1.18-1.47 2.22-1.6 2.6-.37 5.2-.75 7.79-1.16.28-.04.62-.3.75-.54a456.2 456.2 0 0 0 3.59-7.3 2.25 2.25 0 0 1 2.08-1.37Z"/><path d="M21.56 8.27c-1.91.28-3.83.54-5.74.85a6.4 6.4 0 0 0-5.4 4.4 6.41 6.41 0 0 0 1.5 6.9c1.36 1.44 2.8 2.79 4.2 4.17.16.16.36.28.55.42l-.14.19c-.5-.27-1.04-.5-1.53-.8-.46-.3-.84-.25-1.32.01-1.82 1-3.67 1.94-5.5 2.93-.9.5-1.8.6-2.66-.04-.84-.63-.97-1.52-.8-2.5.36-2.02.68-4.04 1.06-6.05.11-.6.03-1.02-.44-1.46-1.52-1.43-2.98-2.92-4.48-4.37-.7-.69-1.06-1.46-.75-2.45.32-1 1.07-1.46 2.06-1.6 2.03-.3 4.06-.6 6.09-.87.6-.08.97-.29 1.24-.88.86-1.88 1.8-3.71 2.7-5.58.44-.93 1.1-1.55 2.17-1.54 1.05 0 1.68.61 2.12 1.52.9 1.89 1.86 3.74 2.73 5.64.25.53.58.77 1.13.8.41.04.81.12 1.22.18l-.01.13Zm18.87-.11c.16-.03.32-.1.47-.08 1.25.08 1.83-.65 2.29-1.73.7-1.67 1.57-3.26 2.35-4.9a2.18 2.18 0 0 1 2.08-1.35 2.2 2.2 0 0 1 2.14 1.36c.94 1.97 1.92 3.92 2.86 5.88.17.35.36.53.76.58 2.1.29 4.2.63 6.3.92 1.03.15 1.85.54 2.2 1.61.34 1.05-.1 1.84-.83 2.55-1.5 1.45-2.96 2.94-4.47 4.38-.38.36-.48.71-.38 1.22.36 2 .72 4.02 1.04 6.04a3.8 3.8 0 0 1-.05 1.64c-.4 1.3-1.84 1.83-3.1 1.18-1.96-1-3.9-2.03-5.82-3.08-.46-.26-.82-.26-1.26.02-.48.3-1 .54-1.59.71.12-.14.23-.28.35-.4 1.22-1.22 2.42-2.45 3.67-3.61 2.22-2.07 3.14-4.55 2.16-7.5-.97-2.91-3.21-4.27-6.16-4.61-1.67-.2-3.33-.48-5-.72v-.1Z"/></g><defs><clipPath id="a"><path fill="#fff" d="M0 0h62v35h-62z"/></clipPath></defs></svg>