<svg viewBox="0 0 55 57" fill="none" xmlns="http://www.w3.org/2000/svg"><g clip-path="url(#a)" fill="#000"><path d="M21.13 0c7.16.5 14.1 1.79 20.33 5.69 1.29.81 2.69 1.45 3.95 2.29a12.06 12.06 0 0 1 4.93 6.45c1.1 3.42 2.35 6.8 3.18 10.29 1.5 6.32 0 12.18-3.56 17.48-1.38 2.05-3.16 3.83-4.76 5.73-.67.79-1.34 1.58-2 2.39-4.11 5.13-9.33 7.44-15.97 6.41-5.34-.83-10.34-2.5-14.76-5.61-6.09-4.28-9.65-10.23-11.22-17.46a48.71 48.71 0 0 1-1.05-15.08c.52-5.38 2.02-10.37 6.46-13.97 3.1-2.52 6.75-3.72 10.65-4.25 1.25-.17 2.52-.24 3.82-.36Zm28.35 27.92c-.52.2-.89.44-1.28.45-.38.02-.77-.19-1.15-.3.29-.17.56-.41.88-.5.93-.26 1.66-.66 1.68-1.78.03-1.76.17-3.53.08-5.29-.21-4.1-1.57-7.75-4.53-10.7-.22-.22-.55-.64-.7-.59-1.93.66-3.28-.74-4.82-1.35-2.26-.89-4.38-2.16-6.66-2.97-5.52-1.95-11.08-2.59-16.42.62-3.85 2.32-7.46 5.02-10.29 8.54-3.93 4.87-5.65 10.49-4.33 16.69a34.78 34.78 0 0 0 10.44 18.44c4.26 4 9.33 5.98 15.13 5.83 5.16-.13 9.7-2.09 13.89-5.05a13.12 13.12 0 0 0 4.56-5.73c2.23-5.17 2.72-10.69 3.5-16.32l.02.01Zm-48.55-5.3c.75-1.84 1.31-3.59 2.14-5.2 3.16-6.12 8.48-9.99 14.27-13.28a14.12 14.12 0 0 1 7.3-1.67c4.43.05 8.52 1.28 12.45 3.21 2.05 1 4.12 1.96 6.18 2.94l.17-.29c-.36-.31-.7-.67-1.08-.93a36.31 36.31 0 0 0-26.78-5.87c-4.41.72-8.31 2.74-11 6.53-3.08 4.33-3.62 9.3-3.65 14.56Zm45.88 22.31c8.13-9.46 7.6-18.3 3.4-27.8 1.02 9.26-.42 18.55-3.4 27.8Zm-6.45 6.94a29.36 29.36 0 0 1-11.73 4.08c4.55.46 8.5-.77 11.73-4.08Z"/><path d="m26.24 30.54-.53.84c-.23-.33-.62-.64-.68-.99a245 245 0 0 1-1.15-7.61c-.37-2.72-.75-5.45-.97-8.18-.05-.6.59-1.26 1.19-1.85 1.85 5.93 2.02 12.08 3.14 18.07 4.86-1.6 9.82-1.38 14.76-1.37l.2.46c-.37.19-.76.58-1.12.55-4.62-.41-9.18-.26-13.61 1.26-1.57.54-1.03-.69-1.22-1.18h-.01Zm-16.98 4.05c-.5.24-.98.59-1.51.71-.68.16-1.39.13-2.09.19.6-.32 1.18-.67 1.8-.93.5-.21 1.05-.32 1.58-.47l.23.51-.01-.01Zm22.62 16.48-1.47-2.04c1.09-.41 1.71.28 1.47 2.04Zm-10.44-43.01c-.18-.75-.37-1.49-.52-2.25-.01-.07.24-.27.37-.27s.33.16.36.29c.17.68.29 1.36.43 2.05l-.65.18h.01Z"/></g><defs><clipPath id="a"><path fill="#fff" d="M0 0h54.09v56.98h-54.09z"/></clipPath></defs></svg>