<svg viewBox="0 0 61 61" fill="none" xmlns="http://www.w3.org/2000/svg"><g clip-path="url(#a)" fill="#000"><path d="M40.3 61c-2.34-2.65-4.5-4.79-6.27-7.2a4.77 4.77 0 0 0-4.03-2.13c-3.28-.12-6.58-.17-9.82-.57-6.24-.76-11.65-3.3-15.96-7.95a15.53 15.53 0 0 1-4.15-10.53c-.12-4.26-.12-8.57.32-12.8 1-9.71 6.97-15.28 16.1-17.87a48.26 48.26 0 0 1 23.2-.97c7.26 1.5 13.72 4.56 17.69 11.03a23.52 23.52 0 0 1 2.5 19.76c-.78 2.58-1.48 5.28-2.82 7.58-2.8 4.77-7.13 7.78-12.49 9.33-1.96.57-3.88 1.2-5.91 1.83.77 3.45 2.08 6.63 1.64 10.49Zm-3.07-11.62c4-2.12 7.97-3.96 11.6-6.3a41.74 41.74 0 0 0 7.17-6.17c2.22-2.26 3.36-5.1 2.7-8.37-.56-2.84-1.1-5.68-1.9-8.45a16.71 16.71 0 0 0-4.87-7.63c-5.3-4.97-11.96-6.96-18.85-8.1-6.74-1.13-13.21.42-19.31 3.32-9.6 4.55-14.5 13.58-11.34 23.71 1.42 4.52 3.66 8.5 7.88 10.98 1.92 1.14 4.13 1.78 6.19 2.7 4.62 2.07 9.58 2.77 14.49 3.72.7.14 1.48.53 1.97 1.05 2.03 2.2 3.97 4.5 5.94 6.76l.22-.1-1.9-7.13.01.01Zm22.42-22.98c.25-6.8-1.14-13.01-6.44-17.82-3.8-3.45-8.34-5.48-13.32-6.53a48.8 48.8 0 0 0-24.13 1.15 21.57 21.57 0 0 0-10.33 6.6 15.2 15.2 0 0 0-3.43 7.18c1.46-1.86 2.51-3.56 3.9-4.9 6.95-6.7 15.53-9.24 25-8.99 4.89.13 9.5 1.72 13.98 3.63 5.76 2.46 10.32 6.22 12.58 12.2.92 2.43 1.47 5 2.19 7.48Zm-58.63 5.37c.22 3.15.62 6.2 2.47 8.77a21.86 21.86 0 0 0 14.65 9.14c3.84.63 7.8.7 11.7 1 .75.06 1.52 0 2.38 0-.16-.3-.21-.54-.3-.57-.87-.19-1.76-.32-2.63-.5-5.51-1.2-11.01-2.4-16.23-4.71-3.17-1.4-6.05-3.08-7.95-6-1.46-2.26-2.68-4.67-4.08-7.14Zm54.96 7.15c-3.84 4.08-8.83 6.44-13.6 9.14a19.6 19.6 0 0 0 13.6-9.14Z"/><path d="M45.28 21.43c1.33-.3 2.54-1.53 3.76.11a5.49 5.49 0 0 1 .44 5.4c-.76 1.37-2.2 1.43-3.23.12-1.28-1.66-1.1-3.57-.97-5.63Zm4.13 3.21c-.65-1.02-1.24-1.94-1.82-2.88-.46.82-1.1 1.57-1.34 2.45-.27 1.01 1.14 3.05 1.64 2.7.63-.45.94-1.35 1.53-2.28l-.01.01Zm-28.59 1.02v.16c-.07 1.9-.87 3.36-1.85 3.39-.94.02-2.39-1.64-2.54-3.19-.09-.82-.05-1.9.42-2.47.44-.54 1.83-1 2.27-.7.87.58 1.37 1.69 2.02 2.58l-.32.23Zm-1.85 2.49c.97-1.23.8-2.5.5-3.72-.07-.32-.56-.58-.9-.78-.08-.05-.4.14-.5.29-.48.6.1 3.56.9 4.2Zm16.9-2.45c-.64.85-1.13 1.95-1.97 2.5-.7.47-2.02-1-2.26-2.4a7.9 7.9 0 0 1-.07-1.6c.04-.75-.2-1.55 1.04-1.79 1.16-.22 1.9.06 2.36 1.05.28.62.42 1.3.63 1.95l.27.28Zm-2.84-1.45c-.28 1.38 0 2.35.82 2.9 1.04-1.99.89-2.53-.82-2.9Z"/></g><defs><clipPath id="a"><path fill="#fff" d="M0 0h61v61h-61z"/></clipPath></defs></svg>