<svg viewBox="0 0 25 25" fill="none" xmlns="http://www.w3.org/2000/svg"><g clip-path="url(#a)" fill="#757575"><path d="M6.25 2.7c0 1.46-.94 2.66-2.67 2.66-1.6 0-2.67-1.2-2.67-2.53 0-1.46 1.08-2.8 2.67-2.8a2.6 2.6 0 0 1 2.67 2.67Zm0 4h-5.34v17.34h5.34v-17.34Zm12.8.26a5.8 5.8 0 0 0-5.06 2.66h-.14l-.27-2.26h-4.8c0 1.46.14 3.2.14 5.2v11.47h5.33v-9.48c0-.53 0-.94.14-1.34.4-.94 1.07-2.13 2.53-2.13 1.87 0 2.67 1.6 2.67 3.74v9.2h5.34v-9.85c0-4.93-2.54-7.2-5.88-7.2v-.01Z"/></g><defs><clipPath id="a"><path fill="#fff" transform="translate(.912 .03)" d="M0 0h24.02v24h-24.02z"/></clipPath></defs></svg>