<svg viewBox="0 0 78 83" fill="none" xmlns="http://www.w3.org/2000/svg"><g clip-path="url(#a)" fill="#000"><path d="M12.93 35c-.58.17-.88.8-1.37.36-.49-.43-.14-.9.13-1.3.35-.53.71-1.05 1.15-1.5a103.1 103.1 0 0 1 10.97-10.24c1.96-1.62 3.83-3.34 5.79-4.95 2.47-2.05 4.97-4.05 7.5-6.06.46-.38.99-.69 1.5-.96 1-.56 1.97-.58 2.95.09a28.03 28.03 0 0 1 6.32 5.85c1.04 1.3 2.06 2.66 3.12 3.96.85 1.04 1.76 2.02 2.66 3.04 1.36 1.5 2.9 2.79 4.54 3.99 2.52 1.86 4.43 4.31 6.34 6.77.4.5.52 1.07.3 1.68-.39 1.12-.38 2.27-.37 3.43-.01.89-.05 1.8-.02 2.68.05 1.83.17 3.65.2 5.48.08 3.21.09 6.4.14 9.62.01.83.07 1.64.15 2.46.15 1.65.19 3.28-.1 4.91-.07.41-.08.82-.15 1.22-.08.6 0 1.09.44 1.55.23.24.37.57.52.86.57 1.15.11 2.2-1.16 2.27-1.63.09-3.28 0-4.9-.17-.86-.09-1.69-.24-2.54-.02-.53.15-1.1.14-1.67.17-2.42.11-4.85.23-7.27.32-1.42.07-2.84.11-4.25.2-1.72.12-3.42.27-5.13.4-1.87.16-3.73.21-5.58.44-3.46.44-6.95.12-10.42.19-.89.02-1.78.1-2.68.16-1.3.07-2.6.14-3.91.23-1.2.1-2-.59-2.53-1.53-.24-.45-.5-.8-.93-1.06-.46-.29-.7-.75-.4-1.24.46-.78.45-1.62.3-2.4-.47-2.17-.3-4.38-.53-6.57-.5-4.74-.14-9.48-.22-14.21a42.5 42.5 0 0 1 .1-4.37c.14-1.55.47-3.1.72-4.62.06-.33.16-.65.28-1.09l.01-.03Zm32.52 15.7.96-1c1.5-1.5 2.96-3.08 4.5-4.51 3.79-3.5 7.34-7.25 11.39-10.47.63-.5.61-.7.04-1.38-.57-.68-1.14-1.4-1.75-2.04a29.05 29.05 0 0 0-2.37-2.34c-.85-.73-1.78-1.37-2.65-2.05a36.51 36.51 0 0 1-6.26-6.7 50.33 50.33 0 0 0-6.2-6.9c-.72-.64-1.5-1.23-2.28-1.8-.5-.36-1.06-.28-1.58 0-.4.2-.78.44-1.12.73-2.92 2.33-5.84 4.65-8.71 7.04-2.87 2.38-5.64 4.9-8.51 7.28a68.86 68.86 0 0 0-6.61 6.36c-.25.27-.45.58-.7.89.53.15.99.19 1.35.4 1.98 1.2 3.94 2.44 5.89 3.68a20.4 20.4 0 0 1 4.91 4.22c1.3 1.6 2.48 3.27 3.79 4.86.75.93 1.6 1.76 2.43 2.65.7-.45 1.3-.83 1.88-1.22 1.27-.85 2.55-1.7 3.8-2.56.5-.34.96-.39 1.46-.04.42.3.85.6 1.26.92 1.69 1.3 3.36 2.61 5.13 4l-.05-.02Zm-31.25 17.08.16.33c.93-.04 1.85-.08 2.77-.16 1.16-.09 2.31-.21 3.47-.28 1.63-.1 3.28-.2 4.93-.23 2.3-.06 4.63-.15 6.95-.13 2.4.02 4.78.12 7.17.24 1.71.08 3.43.24 5.14.28 2.32.07 4.63.02 6.95.07 1.16.03 2.31.15 3.46.3 1.68.2 3.33.37 4.97-.25 1-.37 2.05-.6 3.22-.96-.35-.38-.57-.68-.85-.92-2.38-1.93-4.7-3.94-7.2-5.72-3.08-2.2-6.04-4.53-8.89-7-.46-.4-1.02-.67-1.66-1.1-.32-.34-.7-.9-1.2-1.32-1.45-1.18-2.96-2.3-4.41-3.46-.51-.4-.96-.49-1.52-.1-1.44 1-2.92 1.96-4.37 2.94-.17.11-.34.33-.35.5-.06.53-.42.76-.79 1.02-.99.74-2.03 1.42-2.95 2.24-1.92 1.71-3.76 3.53-5.67 5.25-1.7 1.53-3.42 3-5.15 4.5-1.16 1-2.34 1.98-3.48 3-.28.26-.48.6-.72.91l.02.05Zm.08-32.28a16.92 16.92 0 0 0-1.01 5.6c-.12 4.8-.11 9.62-.13 14.43 0 .74.02 1.5.06 2.24.1 1.63.21 3.27.33 4.9.06.67.17 1.35.26 2.14 5.56-5.03 11.27-9.59 16.87-14.27 0-.05-.01-.15-.06-.2-1.75-2.2-3.43-4.45-5.26-6.54a27.04 27.04 0 0 0-4.28-4.07c-2.14-1.55-4.47-2.8-6.78-4.23Zm32.33 16.15c.08.1.16.23.26.33 2.8 2.4 5.62 4.8 8.7 6.89 2.6 1.75 5.07 3.7 7.36 5.87.1.09.24.12.37.19.41-1.57.4-3.08.32-4.62-.09-1.56-.16-3.13-.2-4.7-.06-2.72.03-5.45-.18-8.17-.28-3.86-.14-7.7-.04-11.54-2.97 1.96-15.65 13.99-16.59 15.76v-.01Zm-3.43 17.85c-.28-.15-.36-.23-.46-.23-2.13-.2-4.23-.53-6.36-.56-4.14-.06-8.29-.13-12.43.22-2.85.24-5.74.32-8.6.5-.2 0-.4.1-.62.15.34.95.5 1.16 1.31 1.17 1.04 0 2.1-.05 3.14-.13 1.15-.07 2.3-.23 3.46-.25 3.33-.1 6.64-.13 9.97-.2.71-.02 1.42-.11 2.13-.15 2.75-.18 5.5-.34 8.48-.52h-.02Zm21.23-.66v-.26c-.6-.17-1.2-.23-2.02.25l2.02.01Z"/><path d="M41.9 33.56c-.4.45-.68.79-1 1.1-.58.59-1.1 1.21-1.75 1.72-1.56 1.22-2.88 1.4-4.55-.09-2.82-2.5-3.24-6.19-.31-9.03a6.3 6.3 0 0 1 6.12-1.57c1.2.27 2.31 1.76 2.6 2.9.48 1.85.24 3.71.4 5.56.16 1.62.52 3.24 1.29 4.73.32.62.7 1.37 1.47 1.4.84 0 1.3-.74 1.58-1.43.42-1.07.84-2.19.94-3.32a18.4 18.4 0 0 0-1.81-10.22 5.36 5.36 0 0 0-2.5-2.47 9.49 9.49 0 0 0-4.74-1.18c-.48.03-.98.03-1.45 0-1.95-.17-3.67.5-5.29 1.47-2.83 1.64-4.81 4-5.89 7.09-.72 2.12-.95 4.3-.25 6.48a7.5 7.5 0 0 0 1.84 3.04 13.6 13.6 0 0 0 6.1 3.64c.55.15 1.18.16 1.75.06a9.45 9.45 0 0 0 3.76-1.38c.21-.14.48-.25.72-.25.46 0 .74.52.43.86-.35.38-.78.7-1.23.97a8.87 8.87 0 0 1-4.03 1.24c-.96.05-2.01-.2-2.93-.57a14.58 14.58 0 0 1-5.7-3.87 9.59 9.59 0 0 1-2.28-8.44c.32-1.82.88-3.55 1.93-5.1 2.15-3.14 4.97-5.44 8.72-6.47l.33-.08c3.17-.29 6.3-.22 9.15 1.44a7.32 7.32 0 0 1 3.03 3.37 19.17 19.17 0 0 1 1.8 7.89c0 1.61-.03 3.2-.5 4.76a7.9 7.9 0 0 1-1.32 2.7c-1.2 1.52-3.03 1.53-4.16-.04a13.46 13.46 0 0 1-1.78-4.53c-.15-.73-.28-1.45-.45-2.38h-.04Zm-.44-2.75c0-1.8-.87-2.94-2.25-3.35-.21-.07-.46-.05-.64-.15-1-.62-1.83-.25-2.69.32a4.75 4.75 0 0 0-2.25 3.7 4.65 4.65 0 0 0 1.93 4.06c1 .75 1.92.76 2.85-.09.9-.82 1.71-1.75 2.41-2.75.4-.57.5-1.36.64-1.74Z"/></g><defs><clipPath id="a"><path fill="#fff" transform="rotate(.436 -1268.938 1517.853)" d="M0 0h54.83v62.4h-54.83z"/></clipPath></defs></svg>