<svg viewBox="0 0 20 20" fill="none" xmlns="http://www.w3.org/2000/svg"><path d="M17.86 14.55c-.6-.48-1.25-.92-1.88-1.36-1.26-.89-2.42-.96-3.36.47-.53.8-1.27.84-2.05.48a9.05 9.05 0 0 1-4.74-4.63c-.43-.96-.43-1.82.57-2.5.53-.35 1.07-.78 1.03-1.56-.06-1.03-2.54-4.45-3.52-4.8-.4-.16-.81-.15-1.23 0-2.3.77-3.25 2.66-2.34 4.9 2.73 6.68 7.51 11.34 14.1 14.18.39.16.8.22 1.01.28 1.5.01 3.26-1.43 3.77-2.87.49-1.38-.54-1.93-1.36-2.58Zm-7.4-13.48c4.82.74 7.05 3.03 7.66 7.89.06.45-.1 1.12.53 1.13.67.02.51-.65.52-1.1.05-4.57-3.94-8.81-8.57-8.97-.35.05-1.07-.24-1.11.54-.03.53.58.45.97.5Z" fill="#050505"/><path d="M11.4 2.4c-.45-.06-1.07-.28-1.18.37-.1.67.57.6 1.01.7 2.98.67 4.01 1.75 4.5 4.7.08.44-.07 1.1.67 1 .54-.09.34-.66.39-1 .02-2.83-2.41-5.41-5.38-5.77Z" fill="#050505"/><path d="M11.68 4.72c-.3 0-.61.04-.73.37-.17.5.19.61.56.67 1.22.2 1.86.91 1.98 2.13.04.33.25.6.57.56.44-.05.48-.44.47-.82.02-1.36-1.53-2.95-2.85-2.91Z" fill="#050505"/></svg>