<svg viewBox="0 0 59 80" fill="none" xmlns="http://www.w3.org/2000/svg"><g clip-path="url(#a)" fill="#000"><path d="M50.44 38.9c-2.36-5.3-4.12-10.87-6.1-16.33-1.64-4.5-3.17-9.02-4.84-13.5a10.96 10.96 0 0 0-1.97-3.64c-1.01-1.09-2.49-2.54-3.72-2.5-3.53.11-7.08.74-10.56 1.5-3.62.78-7.14 2.02-10.73 2.96-3.87 1-7.3 2.8-10.22 5.51-.35.33-.6.94-.59 1.41.02 1.04.15 2.08.38 3.09 1.3 5.75 2.64 11.49 3.97 17.24l-.3.07c2.08 7.74 3.97 15.54 6.31 23.2 1.36 4.46 3.34 8.74 5.27 13 1.43 3.16 4.05 4.74 7.6 4.62.54-.02 1.08.04 1.61.14 2.34.5 4.69.44 6.96-.21a329.87 329.87 0 0 0 15.03-4.63c3-1.02 4.94-3.13 5.25-6.54.78-8.72.29-17.2-3.35-25.4Zm-47.63-22.03c-.2-.92-.05-1.9-.06-3.26 1.54 7.4 2.97 14.37 4.43 21.35l-.2.05-1.98-8.59c-.74-3.18-1.53-6.36-2.18-9.55h-.01Zm14.1 51.28a398.3 398.3 0 0 1-5.25-14.16 40.4 40.4 0 0 1-1.7-6.92c2.24 6.33 4.43 12.67 6.76 18.95.99 2.67 1.99 5.4 4.07 7.5-2.05-1.25-3.05-3.3-3.87-5.38v.01Zm35.97-8.35c-.03 1.7.05 3.43-.2 5.1-.13.89-.64 2.03-1.34 2.46a53.84 53.84 0 0 1-7.05 3.65c-4.76 2-9.85 2.68-14.91 3.44-1.23.19-2.52.18-3.76.07-3.85-.29-5.72-2.95-6.97-6.15-1.21-3.11-2.2-6.3-3.34-9.43-.85-2.32-1.88-4.59-2.7-6.91-1.24-3.54-2.36-7.11-3.53-10.67l.27-.08c-1.72-8.12-3.44-16.23-5.14-24.35-.17-.84-.17-1.7-.24-2.56-.1-1.12.4-1.8 1.45-2.27 5.09-2.3 10.14-4.7 15.65-5.89 3.14-.67 6.25-1.42 9.38-2.14.14-.03.26-.06.4-.06 3.67-.17 3.9-.15 5.32 3.21 1.13 2.66 1.93 5.45 2.9 8.17 1.07 2.96 2.2 5.92 3.27 8.9.55 1.52 1.12 3.05 1.54 4.61 1.54 5.64 2.88 11.34 4.55 16.94 1.26 4.24 2.9 8.35 4.35 12.54.15.43.12.94.12 1.42h-.02Zm-3.11-17.93c.6 4.11 1.8 8.13 2.48 12.28-.78-2.13-1.7-4.22-2.32-6.4-1.94-6.82-3.69-13.72-5.67-20.54-.8-2.76-2-5.4-3-8.1-.74-1.98-1.43-3.99-2.13-5.98-.81-2.25-1.62-4.5-2.41-6.74-.08-.2-.1-.43-.15-.64l.31-.15c.61 1.22 1.34 2.38 1.82 3.65 1.22 3.24 2.32 6.54 3.48 9.81 1.53 4.29 3.08 8.57 4.58 12.87 1.14 3.27 2.52 6.42 3.03 9.94h-.02Zm2.93 8.3c-.06 0-.14.03-.21.04l-1.63-7.06.21-.05 1.63 7.06Z"/><path d="M27.14 8.18c-1.01.22-2.03.45-3.04.7-3.85.96-7.7 1.88-11.2 3.95-1.63.97-.6 1.9-.28 2.75.16.44 1 .64 1.32.83 1.49-.61 2.56-1.1 3.64-1.5 3.46-1.28 6.94-2.53 10.41-3.81.84-.31 1.7-.82 1.37-1.84-.3-.96-1.2-1.28-2.22-1.07Zm1.45 1.68-15.08 5.66c-.49-1.02-.5-1.74.67-2.4 2.87-1.65 6.05-2.32 9.16-3.18 1.22-.34 2.45-.63 3.7-.86.47-.09.96.07 1.45.12l.09.65v.01Zm6.34 53.94c-.67.02-1.32.86-1.95 1.35-.12.1-.13.33-.18.5-.48 2.13 1.5 3.82 3.95 3.44.77-.6 1.76-1.04 2.24-1.82.42-.68.62-1.94.26-2.56-.99-1.67-2.83-.96-4.31-.91Zm3.32 3c-.7 1-1.7 1.55-3.02 1.31-1.03-.18-1.53-.81-1.66-1.6.75-.6 1.26-1.32 1.87-1.43.58-.1 1.27.44 2.06.75l-.35-1.5c.62.36 1.28.54 1.38.88.14.47 0 1.18-.28 1.59Z"/></g><defs><clipPath id="a"><path fill="#fff" transform="rotate(-13.027 42.93 4.902)" d="M0 0h43.32v71.54h-43.32z"/></clipPath></defs></svg>