<svg viewBox="0 0 53 60" fill="none" xmlns="http://www.w3.org/2000/svg"><g clip-path="url(#a)" fill="#000"><path d="M45 21.23c-.52 13.39-5.85 24.48-16.53 32.78-4.78 3.71-9.09 3.05-12.92-1.6-6.09-7.37-11.15-15.32-13.3-24.84a34 34 0 0 1-.11-14.54c1.08-5.14 4.31-8.66 9.12-10.65 3.84-1.58 7.86-1.99 12.02-2.3 3.09-.24 5.88.08 8.74.72 6.13 1.38 11.82 7.92 12.43 14.16.2 2.03.37 4.07.56 6.27Zm-24.94 8.7c4.91 3.28 12.51-1.19 13.7-5.76 1.04-4.06 1.48-8.18.73-12.35-.94-5.23-3.83-8.7-9.14-9.9-5.9-1.3-11.3.07-16.34 3.18-2.62 1.62-4.7 3.95-5.2 6.93-.67 4.06-1.3 8.33-.78 12.36 1.43 10.96 7.2 19.95 14.31 28.08 2.72 3.13 6.25 3.54 9.55 1.07a39.23 39.23 0 0 0 7.52-6.97c7.01-8.96 10.44-19.07 8.9-30.61-.91-6.77-4.62-11.15-10.77-13.67-1.03-.42-2.18-.55-3.27-.81 3.21 2.29 5.27 5.11 6.16 8.94 1.12 4.76.77 9.42-.49 14.06-1.63 5.99-9.68 9.71-15.14 6.86-5.12-2.67-8.92-6.56-9.36-12.75-.3-4.1 1.02-8.77 6.57-9.73 1.92-.34 3.94-.2 5.92-.15 4.36.07 7.21 1.96 8.43 5.48 1.58 4.53.64 8.94-2.53 11.59-2.53 2.12-5.26 3.85-8.77 4.15Zm1.63-20c-4.99-.02-6.74 1.35-7.81 4.86-1.31 4.2-.56 8.04 1.9 11.6 1.28 1.86 3.38 2.84 5.48 2.03a35.9 35.9 0 0 0 6.35-3.39c4.12-2.61 3.68-8.55 1.9-11.94-.16-.32-.46-.67-.78-.77-2.75-.97-5.54-1.87-7.02-2.37l-.02-.01Z"/><path d="M36.88 48.32c.55-.24.92-.55 1.3-.57 4.95-.19 9.55.84 13.4 4.18 2.08 1.79 1.89 3.69-.7 4.42-4.16 1.18-8.36 2.4-12.63 2.8-6.54.65-13.16.97-19.73.8a34.95 34.95 0 0 1-16.3-4.6c-1.24-.7-2.63-1.63-2.13-3.17.32-.98 1.51-1.97 2.53-2.38 2.19-.85 4.5-1.34 6.79-1.91.39-.1.87.19 1.32.29 0 .19.02.36.03.55-.5.18-.96.41-1.47.54-1.95.52-3.95.91-5.85 1.55-.83.28-1.49 1.1-2.22 1.67.67.69 1.21 1.66 2.01 2a71.32 71.32 0 0 0 8.67 3.13c6.84 1.87 13.86 1.62 20.8.83 5.46-.63 10.85-1.77 16.25-2.8.93-.18 1.75-.95 2.6-1.47-.69-.76-1.3-1.62-2.1-2.25-3.06-2.36-6.7-2.88-10.43-3.02-.52-.02-1.05 0-1.57-.04-.1 0-.19-.17-.6-.56l.03.01Z"/></g><defs><clipPath id="a"><path fill="#fff" d="M0 0h53v60h-53z"/></clipPath></defs></svg>