<svg viewBox="0 0 19 21" fill="none" xmlns="http://www.w3.org/2000/svg"><g clip-path="url(#a)" fill="#000"><path d="M18.8 6.33a10.3 10.3 0 0 0-.61-2.37 5.08 5.08 0 0 0-1.78-2.28 8.6 8.6 0 0 0-4.03-1.43c-.79-.1-1.55-.2-2.31-.23a17.03 17.03 0 0 0-4.55.43c-.84.2-1.66.55-2.44 1.03a5.6 5.6 0 0 0-2.43 3.01 8.5 8.5 0 0 0-.4 2 45 45 0 0 0-.24 2.52 14.26 14.26 0 0 0 .77 4.96 4.85 4.85 0 0 0 2.87 2.92l.57.22.2.08c.04.01.06.02.06.08v1.63h-.02v1.87c0 .05 0 .12.06.18.05.05.12.05.17.05h.3l.24-.01c.1-.01.24-.05.33-.14l.92-.9.95-.99a485 485 0 0 1 1.08-1.1l.07-.02a58 58 0 0 1 .75-.03l1.35-.05c.71-.04 1.44-.1 2.14-.16l.32-.03a6.93 6.93 0 0 0 1.68-.37 5.72 5.72 0 0 0 2.25-1.35 6.1 6.1 0 0 0 1.23-2.13c.54-1.38.64-2.82.69-4.18.04-1.03-.02-2.08-.19-3.21Zm-13.24 12.43v-1.46c-.01-.5-.24-.87-.66-1.07-.36-.17-.68-.3-.98-.4a3.41 3.41 0 0 1-1.8-1.54 7.06 7.06 0 0 1-.75-2 13.15 13.15 0 0 1-.26-4.06c.06-.9.2-1.86.42-2.92a4.42 4.42 0 0 1 2.24-3 8.06 8.06 0 0 1 2.43-.91 16.04 16.04 0 0 1 4.2-.28c.5.03 1 .1 1.49.15l.38.04a7.75 7.75 0 0 1 2.98.92c.41.22.75.47 1.05.75.54.53.91 1.22 1.16 2.16.33 1.23.47 2.37.45 3.48v.04c-.01.78-.03 1.59-.09 2.38-.06.9-.31 1.84-.75 2.9-.3.7-.75 1.26-1.33 1.63-.71.46-1.52.76-2.47.9-.86.14-1.74.18-2.6.21l-.65.03c-.46.03-.93.03-1.34.04-.42 0-.77.16-1.07.5-.39.42-.8.83-1.2 1.23l-.43.45-.39.37-.03.04v-.58Z"/><path d="M12.36 15.05c-.23-.07-.46-.12-.67-.21a16.46 16.46 0 0 1-3.39-2 14.53 14.53 0 0 1-3.31-3.75c-.51-.82-.84-1.71-1.2-2.6-.25-.62-.03-1.17.38-1.64.31-.36.73-.55 1.18-.66.3-.08.53.05.73.24a6.48 6.48 0 0 1 1.6 2.24c.14.3.02.56-.2.78-.06.07-.15.13-.23.2-.13.12-.26.23-.37.36a.85.85 0 0 0-.16.86c.19.56.46 1.06.83 1.5.6.73 1.36 1.24 2.22 1.58.3.12.56.04.79-.17.1-.09.19-.19.26-.3.38-.58 1-.64 1.5-.3a27 27 0 0 1 1.75 1.28c.35.29.43.61.25 1.03a2.5 2.5 0 0 1-1.77 1.51c-.06.02-.12.02-.18.02l-.01.03Zm2.49-6.88-.14 1.06c-.03.2-.27.38-.45.35a.44.44 0 0 1-.36-.5c.11-.73.15-1.46-.1-2.17a3.94 3.94 0 0 0-4.42-2.7l-.37.03c-.19 0-.34-.14-.38-.35-.04-.16.05-.38.2-.43.23-.08.48-.12.72-.16.62-.1 1.23.01 1.83.18.97.28 1.76.84 2.4 1.63a4.7 4.7 0 0 1 1.04 3.05h.04Z"/><path d="M10 4.66c1.11 0 2.02.43 2.72 1.3.64.8.87 1.7.76 2.7-.04.28-.13.4-.35.45a.4.4 0 0 1-.5-.4c0-.13.01-.26.03-.38a2.71 2.71 0 0 0-1.52-2.6 2.73 2.73 0 0 0-1.57-.2.44.44 0 0 1-.5-.3.4.4 0 0 1 .22-.5c.1-.05.21-.06.32-.07h.4Z"/><path d="M10.04 5.99a2.24 2.24 0 0 1 2.12 2.27.4.4 0 0 1-.36.4c-.25.02-.43-.1-.46-.33l-.07-.43a1.39 1.39 0 0 0-1.3-1.06c-.36 0-.54-.32-.4-.62.09-.17.23-.24.47-.23Z"/></g><defs><clipPath id="a"><path fill="#fff" d="M0 0h19v21h-19z"/></clipPath></defs></svg>