<svg viewBox="0 0 33 20" fill="none" xmlns="http://www.w3.org/2000/svg"><path fill-rule="evenodd" clip-rule="evenodd" d="M32.23 1.33c.24-.78 0-1.34-1.08-1.34h-3.62c-.9 0-1.33.5-1.56 1.06 0 0-1.83 4.58-4.43 7.52-.86.87-1.2 1.12-1.68 1.12-.23 0-.56-.27-.56-1.05v-7.3c-.02-.95-.26-1.35-1.05-1.35h-5.67c-.56 0-.93.45-.93.84 0 .9 1.3 1.1 1.45 3.58v5.42c0 1.18-.2 1.4-.66 1.4-1.2 0-4.21-4.59-5.96-9.85-.37-.98-.7-1.39-1.62-1.39h-3.62c-1.03 0-1.24.5-1.24 1.06 0 .98 1.2 5.8 5.7 12.2 2.98 4.37 7.2 6.74 11 6.74 2.29 0 2.58-.53 2.58-1.42v-3.32c0-1.05.21-1.26.97-1.26.54 0 1.45.26 3.58 2.37 2.44 2.5 2.86 3.63 4.22 3.63h3.62c1.03 0 1.55-.53 1.24-1.55-.33-1.03-1.5-2.53-3.04-4.31-.86-1.03-2.11-2.1-2.48-2.66-.54-.71-.38-1.03 0-1.64 0-.01 4.4-6.34 4.86-8.5h-.02Z" fill="#757575"/></svg>