<svg viewBox="0 0 20 20" fill="none" xmlns="http://www.w3.org/2000/svg"><path fill-rule="evenodd" clip-rule="evenodd" d="M14.67 11.97a41.6 41.6 0 0 0-1.67-.88c-.22-.09-.39-.14-.56.1-.17.25-.67.8-.82.95-.16.16-.3.18-.54.04-.25-.13-1.04-.42-1.96-1.3a7.58 7.58 0 0 1-1.32-1.78c-.13-.25 0-.38.13-.5.12-.11.26-.29.4-.43.12-.14.17-.24.25-.4.1-.16.06-.3 0-.44-.06-.12-.5-1.36-.7-1.87-.18-.5-.4-.43-.54-.44-.15 0-.3-.03-.47-.04a.9.9 0 0 0-.68.29c-.24.24-.9.82-.95 2.04-.04 1.23.8 2.44.92 2.61.12.17 1.62 2.82 4.1 3.92 2.5 1.09 2.51.75 2.97.73.46-.02 1.5-.55 1.72-1.12.23-.58.25-1.07.2-1.18-.07-.1-.23-.17-.47-.3Zm-4.57 5.9c-1.65 0-3.18-.5-4.46-1.35l-3.12 1 1.02-3.01a8.12 8.12 0 1 1 14.68-4.75c0 4.46-3.65 8.1-8.12 8.1Zm0-17.86a9.74 9.74 0 0 0-8.34 14.77l-1.76 5.23 5.4-1.73a9.74 9.74 0 1 0 4.7-18.27Z" fill="#050505"/></svg>