<svg viewBox="0 0 28 20" fill="none" xmlns="http://www.w3.org/2000/svg"><g clip-path="url(#a)"><path d="M27.43 3.12a3.55 3.55 0 0 0-2.49-2.53c-2.18-.6-10.93-.6-10.93-.6s-8.77 0-10.94.6a3.55 3.55 0 0 0-2.48 2.53c-.4 2.28-.6 4.58-.59 6.9-.01 2.31.19 4.61.59 6.89a3.5 3.5 0 0 0 2.48 2.49c2.19.6 10.94.6 10.94.6s8.76 0 10.93-.6a3.54 3.54 0 0 0 2.49-2.5c.4-2.27.6-4.57.58-6.89.02-2.31-.18-4.61-.58-6.89Zm-16.3 11.12v-8.45l7.33 4.22-7.32 4.23Z" fill="#757575"/></g><defs><clipPath id="a"><path fill="#fff" transform="translate(0 -.006)" d="M0 0h28v20h-28z"/></clipPath></defs></svg>