<svg version="1.1" id="Слой_1" xmlns="http://www.w3.org/2000/svg" x="0" y="0" viewBox="0 0 1151.5 200" style="enable-background:new 0 0 1151.5 200" xml:space="preserve"><style>.st0{fill:#fff}</style><path class="st0" d="M1077.8 117.05v-45.25c-.82.35-1.26.46-1.6.7a81.83 81.83 0 0 0-18.71 18.34c-.75 1.02-1.03 2.58-1.04 3.9-.1 7.36-.05 14.72-.05 22.31h-17.8v-63.2h17.84v16.05l.86.42 6.44-6.88c.32-.34.71-.61 1.05-.93 6.63-6.46 14.12-10.52 23.83-8.95 2.18.35 4.46.05 6.95.05v63.43l-17.77.01zm-537.75-63.22v13.66h-32.19v36.66c5.36-.01 10.83.87 16.1-1.21 3.45-1.36 5.07-4.66 4.52-8.43a8.48 8.48 0 0 0-7.93-7.42c-2.95-.24-5.94-.05-9.31-.05 0-3.54-.04-7.5.06-11.45.01-.41.75-1.09 1.22-1.16 7.57-1.16 15.1-1.26 22.3 1.83 8.72 3.75 12.89 11.3 12.08 21.53-.7 8.88-6.87 15.81-16.49 18.17a41.38 41.38 0 0 1-9.13 1.24c-10.09.15-20.18.06-30.27.05-.27 0-.54-.1-1.06-.19v-63.23h50.1zm590.82 99.1c-.89.39-1.33.51-1.67.75a82.73 82.73 0 0 0-18.85 18.59c-.64.88-.79 2.25-.8 3.4-.07 7.45-.04 14.91-.04 22.59h-17.8v-63.42h17.69v16.67c.99-.9 1.52-1.33 2-1.81 1.26-1.25 2.45-2.56 3.75-3.77 11.9-11.16 16.8-12.78 33.45-11.03v63.43h-17.73v-45.4zm-461.27-66.94c.11-13.52 4.45-24.44 16.84-30.35 10.66-5.09 21.76-4.92 32.52 0 7.3 3.34 12.23 9.09 14.8 16.71a39.99 39.99 0 0 1 .13 25.82c-4.63 14.06-17.5 21.46-33.57 20.51a42.5 42.5 0 0 1-9.63-1.65c-11.69-3.5-19.83-13.9-20.78-26.2-.14-1.76-.23-3.53-.31-4.84zm48.49-.36c-1.06-4.14-1.6-8.06-3.07-11.6-2.22-5.35-6.72-7.75-12.51-7.69-5.68.06-10.01 2.52-12.22 7.75-3.23 7.63-3.24 15.45.18 23.04 2.23 4.96 6.38 7.33 11.83 7.45 5.56.12 10.03-2.04 12.31-7.09 1.69-3.75 2.37-7.93 3.48-11.86zm309.31 49.16h17.97v13.22c3.43-1.9 6.33-3.28 8.98-5.05 2.08-1.38 4.26-2.96 5.65-4.96 2.04-2.93 4.5-3.54 7.8-3.4 5.38.24 10.78.06 16.68.06-5.07 9.14-11.93 15.89-20.45 21.31 11.04 12.3 18.65 26.14 22.03 42.39h-18.37c-.21-.63-.5-1.29-.66-1.98-2.84-11.91-8.86-22.07-17.1-30.99-.56-.61-2.08-1.02-2.73-.69a3.51 3.51 0 0 0-1.67 2.58c-.12 9.23-.07 18.47-.07 27.71v3.27h-18.04c-.02-21.13-.02-42.17-.02-63.47zm5.45-17.63h-18.17c-.67-2.3-1.28-4.61-2.02-6.88-3.22-9.81-8.58-18.36-15.57-25.9-.62-.67-2-.94-3-.88-1.65.09-1.85 1.39-1.85 2.85.05 10.16.02 20.31.02 30.71h-17.6v-63.28h17.56v12.77a32.93 32.93 0 0 0 15.8-10.64c1.4-1.7 2.73-2.38 4.89-2.33 5.97.13 11.94.05 18.52.05a58.88 58.88 0 0 1-19.89 20.86c4.47 6.79 9.12 13.28 13.16 20.14 4.03 6.82 6.64 14.29 8.15 22.53zm-371.65-63.55v63.45h-17.74v-46.25c0-3.31-.17-3.45-3.5-3.22-10 .7-16.4 6.96-17.2 18.25-.59 8.32.04 16.74.18 25.11.03 2.02.28 4.04.44 6.2h-18.02c-.46-4.77-1.05-9.54-1.37-14.33-.63-9.42-.71-18.82 1.98-28.02 4.05-13.85 13.8-21.15 28.29-21.18 8.88-.02 17.75-.01 26.94-.01zm104.57 34.66c3.12.14 5.93.65 8.64.31 5.63-.7 8.53-4.24 8.71-9.86.17-5.5-2.92-9.73-8.35-10.58-4.02-.63-8.15-.54-12.66-.8v49.74h-17.86v-63.05c.16-.11.31-.3.45-.3 11.95.12 23.94-.37 35.82.57 13.73 1.09 21.78 11.81 20.98 26.17-.72 12.82-10.31 21.94-23.54 22.22-3.34.07-6.7-.34-10.04-.62-1.26-.11-2.25-.51-2.2-2.22.13-3.91.05-7.83.05-11.58zm168.24 99.44h-18.08c1.05-4.22 1.96-8.19 3.09-12.1.15-.53 1.39-1.03 2.14-1.07 2.88-.12 5.77-.05 9.58-.05l-6.96-18.67-.84.01c-.44.94-.91 1.88-1.33 2.83-5.28 11.99-8.76 24.53-11.11 37.39-.33 1.81-.83 2.54-2.77 2.49-5.13-.13-10.26-.04-15.95-.04 1.6-6.53 2.99-12.84 4.7-19.05 4.02-14.56 8.87-28.82 16.23-42.12 1.06-1.93 2.25-2.83 4.57-2.7 3.91.22 7.85.19 11.76.01 2.08-.1 3.15.71 4.15 2.44 8.63 14.88 14.37 30.85 18.13 47.57 1 4.45 1.85 8.92 2.86 13.83-5.87 0-11.5.04-17.12-.07-.46-.01-1.17-1.02-1.31-1.66-.66-2.91-1.14-5.84-1.74-9.04zm-93.89-104.87c4.26-9.51 6.66-18.99 6.96-29.08h17.47c-.84 4.7-1.5 9.27-2.48 13.76-2.15 9.85-5.22 19.38-9.91 28.38-8 15.34-20.83 22.56-37.87 22.82-.76.01-2.17-.95-2.2-1.51-.19-4.07-.1-8.16-.1-12.45 7.45-.31 13.95-2.43 19.65-7.49-15.35-10.67-23.47-25.61-27.38-43.53h18.43c2.68 11.46 8.46 21 17.43 29.1zm266.42 34.22v-63.28h41.28c0 4.21.09 8.29-.11 12.35-.02.51-1.55 1.33-2.39 1.35-6.17.12-12.34.09-18.51.05-1.55-.01-2.42.29-2.41 2.13.07 10.73.04 21.46.05 32.19 0 .36.13.72.27 1.41h24.49v13.8h-42.67zm-551.11-.01v-63.24h41.11v13.63h-23.07v35.77h24.67v13.84h-42.71zm285.65 31.02c-10.34-1.77-20.27-2.22-26.13 7.96-4.34 7.53-4.13 15.91 1.06 23.03 6.28 8.61 15.48 7.5 25.05 5.54 0 4.4.05 8.71-.07 13.02-.01.44-.96 1.13-1.55 1.24-8.36 1.43-16.72 1.87-24.95-.73-11.83-3.72-19.91-14.15-20.52-27.26-.24-5.14.05-10.53 1.35-15.48 3.14-11.99 13.83-20.56 26.79-21.64 5.61-.47 11.32.21 16.98.51.69.04 1.9.93 1.92 1.46.14 4.05.07 8.13.07 12.35zm73.76-81.17c-10.25-1.79-19.97-2.18-25.9 7.57-4.59 7.54-4.44 16.03.64 23.27 6.26 8.92 15.63 7.95 25.08 5.83v13.88c-11.89 2-23.62 2.82-34.26-4.37-7.57-5.12-11.56-12.71-12.35-21.61-.47-5.3-.35-10.89.83-16.04 2.93-12.8 14.02-21.83 27.58-22.82 5.34-.39 10.77.28 16.15.48 1.73.07 2.34.94 2.27 2.7-.13 3.62-.04 7.25-.04 11.11zm52.18 0c-10.17-1.81-19.79-2.15-25.77 7.37-4.71 7.5-4.57 15.99.42 23.29 6.25 9.14 15.73 8.12 25.34 5.99 0 4.19.07 8.28-.07 12.35-.02.63-.93 1.66-1.56 1.77-8.35 1.44-16.71 1.88-24.94-.74a29.1 29.1 0 0 1-20.3-26.21c-.28-4.97-.24-10.15.84-14.97 2.92-13.03 14.18-22.26 27.92-23.16 5.26-.34 10.59.3 15.88.5 1.74.07 2.34.95 2.28 2.71-.13 3.61-.04 7.24-.04 11.1zm-108.63 81.87h-15.01v-13.89h48.23v13.84h-15.07v49.61h-18.15v-49.56zm140.22 18.17h-17.38v-14.22h17.37v-17.88h18.04v63.43h-18.03v-31.33zm-38.98-32.16h17.72v63.51h-17.72v-63.51zm153.47-130.99c2.63 0 5.06-.17 7.45.08 1.04.11 2.31.86 2.92 1.71 2.64 3.67 5.06 7.49 7.46 11.09l5.95-9.58c1.55-2.5 3.62-3.84 6.74-3.34 1.54.24 3.15.04 4.98.04v31.76h-8.65v-18.54c-4.06 4.06-5.12 8.67-6.37 13.34h-5.4c-1.31-4.5-2.33-9.24-6.31-13.29v18.51h-8.78l.01-31.78zm-43.25.06v24.63l3.14.57v6.48h-34.51v-6.6h22.16v-17.74c-6.84-1-10.4 1.81-10.58 8.42-.07 2.4.2 4.81.33 7.4h-8.54a22.12 22.12 0 0 1-.33-13.44c1.77-5.95 6.14-9.27 13.26-9.66 4.84-.28 9.7-.06 15.07-.06zm-170.81 31.42v-30.91c6.91 0 13.76-.27 20.57.12 3.01.17 5.13 2.55 5.88 5.65.83 3.42-.09 5.38-3.5 8.16 1.46 1.57 3.37 2.92 4.3 4.77 2.65 5.23-.17 11.32-6.27 12.03-6.84.8-13.86.18-20.98.18zm9.11-5.94c2.41-.11 4.63-.1 6.82-.36 1.77-.21 2.86-1.3 2.84-3.22-.02-1.91-1.08-2.92-2.89-3.15-1.63-.21-3.27-.33-4.91-.49v-6.06c1.74-.16 3.42-.01 4.84-.54.97-.36 2.1-1.61 2.21-2.57.09-.71-1.25-2.18-2.11-2.31-2.23-.33-4.55-.11-6.8-.11v18.81zm77.06-25.32v8.38c5.7-5.93 11.16-10.7 19.61-8.13v31.31h-8.78v-22.39c-9.6 4.83-12.59 12.37-10.38 22.35h-9.27v-31.53l8.82.01zm-123.64 15.87c-.02-10.37 6.21-16.71 16.43-16.74 10.39-.03 16.75 6.34 16.73 16.76-.02 10.16-6.51 16.69-16.61 16.69-10.12-.01-16.54-6.48-16.55-16.71zm24.26-.08c-.56-2.08-.87-4.13-1.67-5.96-1.11-2.54-3.32-3.59-6.1-3.58-2.79.02-4.93 1.15-6.07 3.67a13.64 13.64 0 0 0 .07 11.85c1.13 2.4 3.21 3.57 5.83 3.64 2.73.07 5.03-.99 6.16-3.51.86-1.9 1.2-4.03 1.78-6.11zm-84.67.14c-.05 10.17-6.56 16.69-16.64 16.65-10.22-.04-16.59-6.6-16.53-17.03.06-10.19 6.48-16.47 16.78-16.42 10.16.04 16.44 6.48 16.39 16.8zm-24.11-.14c.36 1.76.52 3.54 1.1 5.18a6.43 6.43 0 0 0 6.43 4.45c3-.04 5.19-1.46 6.34-4.2a13.77 13.77 0 0 0 .03-10.85c-1.17-2.88-3.42-4.15-6.63-4.11a6.19 6.19 0 0 0-6.16 4.35c-.61 1.63-.75 3.42-1.11 5.18zm314.92-16.67c10.23-.02 16.61 6.31 16.71 16.55.1 10.24-6.54 16.95-16.72 16.9-10.1-.04-16.56-6.59-16.56-16.77-.01-10.22 6.39-16.66 16.57-16.68zm-7.47 16.55c.33 1.75.47 3.44.98 5a6.57 6.57 0 0 0 6.5 4.76 6.63 6.63 0 0 0 6.47-4.43 13.67 13.67 0 0 0-.04-10.58c-1.2-2.92-3.37-4.18-6.59-4.16a6.2 6.2 0 0 0-6.2 4.31c-.61 1.63-.77 3.41-1.12 5.1zm-268.01 1.48c2.89.43 6.16 1.08 7.65-2.15.74-1.6.71-4.29-.18-5.74-2.12-3.43-5.9-2.23-9.53-2.31v24.58h-8.74v-32.02c6.59.3 13.24.1 19.73 1.03 6.1.88 9.28 6.45 8.71 13.35-.47 5.7-4.74 9.9-10.61 10.44-.19.02-.37.04-.56.04-7.75.01-6.97.62-6.47-7.22zm114.92 14.32v-31.54h8.84v8.6c0 4.57.11 9.13-.04 13.7-.07 2.17.74 2.87 2.76 2.6.83-.11 1.68-.08 2.51-.19 3.92-.55 5.41-2.36 4.92-5.93-.41-3.01-2.86-4.64-6.42-4.25-.46.05-.91.15-1.79.3 0-1.87-.16-3.62.08-5.32.09-.66.97-1.58 1.64-1.74 10.43-2.46 18.39 5.96 15.29 16.09-1.42 4.65-4.88 7.24-9.43 7.58-6.02.44-12.09.1-18.36.1zm-189.13-24.5v-7.04h23.84v6.91h-7.35v24.9c-2.81 0-5.32.12-7.79-.1-.5-.05-1.22-1.43-1.24-2.21-.1-6.34-.06-12.68-.06-19.02v-3.43l-7.4-.01zm96.05-7.04h21.46v6.82h-12.49v24.75h-8.97v-31.57z"/><path class="st0" d="M577.04 73.34h23.4v13.59h-23.4v-13.59zm551.3.01h23.16v13.56h-23.16v-13.56zm-166.21-69.42h8.66v31.6h-8.66v-31.6zm22.79-3.93h11.33c-1.05 2.95-3.28 3.64-5.77 3.62-2.38-.02-4.54-.69-5.56-3.62zm-683.36 19.31c-2.14.2-4.29.37-6.43.59a560.09 560.09 0 0 0-62.57 9.78c-17.08 3.74-33.93 8.26-50.07 15.1-10.29 4.36-20.27 9.31-28.21 17.5-8.81 9.09-8.81 19.15.12 28.21 6.94 7.04 15.6 11.43 24.51 15.34 3.48 1.53 7.06 2.83 10.69 4.28-1.92 2.57-4.05 4.08-7.15 4.67-6.88 1.3-13.65 3.15-20.52 4.51-1.96.39-4.28.34-6.14-.32-6.6-2.33-13.04-5.09-19.61-7.51-1.72-.64-3.72-1-5.53-.85-8.14.66-16.26 1.55-24.39 2.34-.74.07-1.63.21-2.23-.11-4.97-2.65-9.9-5.4-14.83-8.11l.2-.8 24.7-3.85c-2.59-2.89-5.56-5.62-7.79-8.87-1.93-2.81-4.19-3.3-7.26-3.23-7.88.17-15.77-.02-23.65.11-2.17.04-3.43-.62-4.03-2.69-.66-2.28-1.39-4.55-2.27-7.4l30.2-1.38 4.05-12.32-27.96-2.73-.44-.72c3.09-2.94 6.14-5.93 9.32-8.77.5-.45 1.63-.32 2.46-.27 8.54.43 17.08.95 25.63 1.28a9.1 9.1 0 0 0 4.5-1.17c4.8-2.61 9.49-5.43 14.23-8.17.71-.41 1.44-.79 2.84-1.55l-22.52-5.26-.13-.72c6.86-2.51 13.7-5.1 20.62-7.45 1.14-.39 2.64.22 3.96.42 7.02 1.08 14.03 2.2 21.05 3.24 1.11.16 2.33.18 3.4-.1 9.35-2.47 18.69-5.03 28.02-7.57.44-.12.88-.28 2.08-.65l-14.07-6.74.01-.65c3.79-.78 7.57-1.59 11.36-2.34 3.11-.62 6.26-1.02 9.34-1.78 6.04-1.49 11.85-1.38 17.68 1.15a35.33 35.33 0 0 0 21.79 2.41c9.29-1.88 18.83-2.45 28.27-3.59.38-.05.74-.14 1.56-.31l-4.99-7.99c2.89-.28 5.51-.6 8.13-.79 9.01-.65 18.02-1.31 27.04-1.82 1.1-.06 2.56.42 3.33 1.19 5.57 5.52 12.03 6.99 19.82 6.31 10.03-.88 20.17-.61 30.26-.67 2.22-.01 3.64-.6 4.51-2.64 2.01-4.72 5.37-6.2 10.63-5.77 9.47.76 19.02.62 28.53.86.85.02 1.69.11 2.87.19 0 2.11.09 4.11-.03 6.09-.1 1.76.61 2.25 2.32 2.38 16.09 1.28 32.17 2.6 48.24 4.04 7.16.64 14.3 1.59 21.46 2.82h-2.45c-27.39-.36-54.79-.87-82.18-1.01-12.4-.07-24.8.51-37.19 1.01-1.48.06-3.17 1.19-4.31 2.29-14.29 13.84-28.5 27.78-42.73 41.68l-47.02 45.94c-19.79 19.34-39.57 38.69-59.42 57.96a7.17 7.17 0 0 1-4 1.65c-12.8 1.35-25.62 2.58-38.43 3.83-.53.05-1.07.01-2.27.01l153.43-149.88a10.1 10.1 0 0 1-.34-.63z"/><path class="st0" d="m280.23 176.13 14.46 6.86c-6.55 1.34-12.3 2.53-18.05 3.68-1.5.3-3.09.27-4.54.72-5.88 1.84-11.54 1.15-17.02-1.33-7.45-3.38-14.97-3.54-22.98-2.04-9.21 1.72-18.62 2.4-28.43 3.59l5.08 8.19c-7.96.62-15.56 1.24-23.17 1.79-3.83.28-7.68.55-11.51.55-1.42 0-2.88-.67-4.23-1.24a7.66 7.66 0 0 1-2.3-1.72c-4-4.13-8.82-4.84-14.41-4.5-11.03.67-22.09.76-33.14.92-2.19.03-3.64.53-4.53 2.61-1.96 4.56-5.22 6.14-10.37 5.73-9.57-.75-19.21-.68-28.81-.97-.84-.03-1.68-.19-2.78-.32v-7.7l-73.5-6.93.06-.11c5.08 0 10.16-.16 15.23.03 39.7 1.46 79.41 1.09 119.07-.94 21.94-1.12 43.84-3.57 65.66-6.21a376.4 376.4 0 0 0 68.83-14.86c13.47-4.28 26.69-9.22 38.43-17.31a55.04 55.04 0 0 0 8.78-7.41c8.6-9.06 8.27-19.22-.6-27.97-7.4-7.3-16.5-11.77-25.88-15.82l-2.5-1.04c2.83-2.93 5.52-5.79 8.31-8.54.56-.55 1.5-.8 2.31-1.01 1.48-.39 3.08-.45 4.48-1 6.43-2.52 12.52-1.34 18.58 1.34 3.68 1.63 7.66 2.68 11.18 4.58 3.39 1.84 6.74 1.72 10.28 1.33 6.77-.74 13.55-1.52 20.34-2.02 1.89-.14 4.05.28 5.74 1.13a80.35 80.35 0 0 1 12.37 7.74l-25.71 4.08c2.7 2.55 5.53 4.49 7.35 7.13 2.8 4.07 6.25 5.04 10.93 4.78 7.09-.39 14.22 0 21.34-.16 2.22-.05 3.44.71 4.05 2.71l2.24 7.35-30.13 1.48-4.05 12.27 27.92 2.83.46.69c-3.09 2.92-6.14 5.89-9.33 8.7-.51.45-1.67.23-2.52.19-8.74-.39-17.47-.84-26.21-1.2a5.86 5.86 0 0 0-2.99.59c-5.53 3.08-11 6.27-16.48 9.44-.31.18-.54.47-1.14 1.01l22.29 5.12.06.68c-6.53 2.48-12.98 5.24-19.64 7.28-2.37.73-5.3-.16-7.94-.54-5.51-.8-10.98-1.91-16.51-2.58a19.73 19.73 0 0 0-7.01.48c-8 1.99-15.95 4.23-23.91 6.37-1.1.3-2.2.57-3.31.86l-.2.64z"/></svg>