<svg xmlns="http://www.w3.org/2000/svg" viewBox="0 0 1229.51 200" style="enable-background:new 0 0 1229.51 200" xml:space="preserve"><path d="M.28 18h28.78c7.5 0 13.45 1.8 17.86 5.39 4.4 3.59 6.61 8.95 6.61 16.08 0 7-2.19 12.3-6.56 15.89-4.38 3.6-10.09 5.39-17.15 5.39h-15v24h-14.54v-66.75zm14.53 12v19.22h13.03c7.62 0 11.44-3.19 11.44-9.56 0-6.44-3.78-9.65-11.34-9.65l-13.13-.01zm99.46-12v12h-35.53v14.53h32.62v11.53h-32.62v16.41h36.18v12.28h-50.71v-66.75h50.06zm71.8 40.97c-.75 8.37-3.69 15.03-8.81 19.97s-12.15 7.4-21.09 7.4c-9.69 0-17.48-3.2-23.39-9.61-5.9-6.4-8.86-14.89-8.86-25.45 0-10 2.99-18.31 8.95-24.93 5.97-6.62 13.92-9.94 23.86-9.94 7.93 0 14.59 2.25 19.97 6.75s8.34 10.22 8.9 17.16h-14.34c-.75-3.69-2.42-6.55-5.01-8.58-2.6-2.03-5.86-3.05-9.8-3.05-4.06 0-7.49 1.14-10.26 3.42-2.78 2.28-4.74 5.08-5.86 8.39s-1.69 6.94-1.69 10.88c0 6.88 1.59 12.36 4.78 16.45 3.19 4.1 7.47 6.14 12.84 6.14 8.94 0 14.03-5 15.28-15h14.53zm67.87-40.97v66.75h-14.62v-54.28h-27.28v54.28h-14.62v-66.75h56.52zm17.53 66.46v-12.37c2.38 1 4.72 1.5 7.03 1.5 2.12 0 3.78-.54 4.97-1.64a5.3 5.3 0 0 0 1.78-4.08c0-.56-.06-1.12-.19-1.69s-.31-1.19-.56-1.88-.47-1.23-.66-1.64c-.19-.4-.48-1.01-.89-1.83l-.8-1.59-19.58-41.24h16.22l15.09 35.15 14.81-35.15h15.65l-22.5 49.12c-3.19 7-6.38 11.89-9.56 14.67-3.19 2.78-7.4 4.17-12.65 4.17-2.94 0-5.66-.5-8.16-1.5zm75.65-42.46h17.44c7.06 0 12.78 1.8 17.15 5.39 4.37 3.6 6.56 8.89 6.56 15.89 0 7.12-2.2 12.48-6.61 16.08-4.4 3.6-10.36 5.39-17.86 5.39h-31.2v-66.75h49.49v12.09h-34.96l-.01 11.91zm26.91 21.09c0-6.38-3.81-9.56-11.44-9.56h-15.47v19.22h15.56c7.56 0 11.35-3.22 11.35-9.66zm80.89-45.09v66.75h-14.62v-54.28h-17.9l-.94 28.31c-.62 18.18-6.81 27.28-18.56 27.28-3.25 0-6-.38-8.25-1.12v-11.82c1.5.75 3.22 1.12 5.15 1.12a5.89 5.89 0 0 0 5.34-3.14c1.25-2.09 1.97-6.26 2.15-12.51l1.14-40.59h46.49zm70.69 0v66.75h-14.62v-46.31h-.28l-25.12 46.31h-16.5v-66.75h14.62v46.21h.28l25.12-46.21h16.5zm73.77 0-26.15 26.34 28.59 40.4h-18.37l-20.25-30-8.53 8.44v21.56h-14.43v-66.74h14.43v27.75l26.24-27.75h18.47zm43.03-.09 25.41 66.84h-15.37l-5.25-14.9h-24.84l-5.44 14.9h-15l25.41-66.84c-.01-.01 15.08-.01 15.08 0zm1.21 41.24-8.81-24.84-8.91 24.84h17.72zm87.84-41.15v66.75h-14.62v-28.78h-27.28v28.78h-14.62v-66.75h14.62v25.12h27.28v-25.12h14.62zm74.06 40.97c-.75 8.37-3.69 15.03-8.81 19.97s-12.16 7.4-21.09 7.4c-9.69 0-17.48-3.2-23.39-9.61-5.91-6.4-8.86-14.89-8.86-25.45 0-10 2.98-18.31 8.95-24.93 5.97-6.62 13.92-9.94 23.86-9.94 7.93 0 14.59 2.25 19.97 6.75s8.34 10.22 8.91 17.16h-14.34c-.75-3.69-2.42-6.55-5.02-8.58-2.59-2.03-5.86-3.05-9.8-3.05-4.06 0-7.48 1.14-10.27 3.42-2.78 2.28-4.73 5.08-5.86 8.39s-1.69 6.94-1.69 10.88c0 6.88 1.59 12.36 4.78 16.45 3.19 4.1 7.47 6.14 12.84 6.14 8.94 0 14.03-5 15.28-15h14.54zm70.68-40.97-26.15 26.34 28.59 40.4h-18.37l-20.25-30-8.53 8.44v21.56h-14.43v-66.74h14.43v27.75l26.24-27.75h18.47zm66.37 0v66.75h-14.62v-46.31h-.28l-25.12 46.31h-16.5v-66.75h14.62v46.21h.28l25.12-46.21h16.5zm70.96 0v66.75h-14.62v-46.31h-.28l-25.13 46.31h-16.5v-66.75h14.62v46.21h.28l25.13-46.21h16.5zm-18.19-18h5.25c0 9-5.09 13.5-15.28 13.5s-15.28-4.5-15.28-13.5h5.25c.81 4.12 4.16 6.19 10.03 6.19s9.22-2.07 10.03-6.19zm-931.41 200h-14.15v-17.15h-49.78v-66.75h14.62v54.28h27.28v-54.28h14.62v54.28h7.4l.01 29.62zm58.78-83.9v12h-35.53v14.53h32.62v11.53h-32.62v16.4h36.18v12.28h-50.71v-66.74h50.06zm68.71 0v66.75h-14.62v-28.78h-27.28v28.78h-14.62v-66.75h14.62v25.12h27.28v-25.12h14.62zm64.02 0v12.47h-20.06v54.28h-14.72v-54.28h-20.06v-12.47h54.84zm9.28 0h28.78c7.5 0 13.45 1.8 17.86 5.39 4.4 3.6 6.61 8.95 6.61 16.08 0 7-2.19 12.3-6.56 15.89-4.38 3.6-10.09 5.39-17.15 5.39h-15v24h-14.53v-66.75zm14.53 12v19.22h13.03c7.62 0 11.44-3.19 11.44-9.56 0-6.43-3.78-9.65-11.34-9.65h-13.13zm123.46-12v12.47h-31.87v54.28h-14.62v-66.75h46.49zm39-1.59c9.75 0 17.64 3.24 23.67 9.7 6.03 6.47 9.04 14.92 9.04 25.36s-3.02 18.86-9.04 25.26c-6.03 6.41-13.95 9.61-23.76 9.61-9.88 0-17.84-3.2-23.9-9.61-6.06-6.4-9.09-14.82-9.09-25.26 0-10.56 3.02-19.04 9.05-25.45 6.01-6.41 14.03-9.61 24.03-9.61zm-.19 12c-5.5 0-9.89 2.06-13.17 6.19s-4.92 9.65-4.92 16.59c0 7.19 1.62 12.81 4.88 16.88s7.72 6.12 13.4 6.19c5.56 0 9.94-2.06 13.12-6.19s4.78-9.75 4.78-16.88c0-7-1.62-12.54-4.88-16.64-3.24-4.1-7.65-6.14-13.21-6.14zm104.05 30.56c-.75 8.38-3.69 15.03-8.81 19.97s-12.16 7.4-21.09 7.4c-9.69 0-17.48-3.2-23.39-9.61-5.91-6.4-8.86-14.89-8.86-25.45 0-10 2.98-18.31 8.95-24.93 5.97-6.62 13.92-9.94 23.86-9.94 7.93 0 14.59 2.25 19.97 6.75s8.34 10.22 8.91 17.15h-14.34c-.75-3.69-2.42-6.54-5.02-8.58-2.59-2.03-5.86-3.04-9.8-3.04-4.06 0-7.48 1.14-10.27 3.42-2.78 2.28-4.73 5.08-5.86 8.39s-1.69 6.94-1.69 10.88c0 6.88 1.59 12.36 4.78 16.45 3.19 4.1 7.47 6.14 12.84 6.14 8.94 0 14.03-5 15.28-15h14.54zm70.31-7.69c0 10.56-2.95 19.04-8.86 25.45-5.91 6.41-13.7 9.61-23.39 9.61-8.5 0-15.28-2.25-20.34-6.75s-8.16-10.62-9.28-18.37h14.62c1.75 8.5 6.72 12.75 14.91 12.75 4.75 0 8.66-1.62 11.72-4.88s4.94-7.69 5.62-13.31h-24.47v-11.53h24c-1-4.62-2.91-8.38-5.72-11.25-2.81-2.87-6.59-4.31-11.34-4.31-3.62 0-6.7.89-9.23 2.67a13.43 13.43 0 0 0-5.2 7.54h-14.53a24.13 24.13 0 0 1 9.23-16.17c5.28-4.22 11.77-6.33 19.45-6.33 9.94 0 17.89 3.31 23.86 9.94 5.96 6.63 8.95 14.94 8.95 24.94zm71.34-33.28-26.15 26.34 28.59 40.4h-18.37l-20.25-30-8.53 8.44v21.56h-14.43v-66.74h14.43v27.75l26.25-27.75h18.46zm69.46 40.97c-.75 8.38-3.69 15.03-8.81 19.97s-12.16 7.4-21.09 7.4c-9.69 0-17.48-3.2-23.39-9.61-5.91-6.4-8.86-14.89-8.86-25.45 0-10 2.98-18.31 8.95-24.93 5.97-6.62 13.92-9.94 23.86-9.94 7.93 0 14.59 2.25 19.97 6.75s8.34 10.22 8.91 17.15h-14.34c-.75-3.69-2.42-6.54-5.02-8.58-2.59-2.03-5.86-3.04-9.8-3.04-4.06 0-7.48 1.14-10.27 3.42-2.78 2.28-4.73 5.08-5.86 8.39s-1.69 6.94-1.69 10.88c0 6.88 1.59 12.36 4.78 16.45 3.19 4.1 7.47 6.14 12.84 6.14 8.94 0 14.03-5 15.28-15h14.54zm67.87-40.97v66.75h-14.62v-54.28h-27.28v54.28h-14.62v-66.75h56.52zm64.49 0v12h-35.53v14.53h32.62v11.53h-32.62v16.4h36.18v12.28h-50.72v-66.74h50.07zm12.28 0h28.78c7.5 0 13.45 1.8 17.86 5.39 4.41 3.6 6.61 8.95 6.61 16.08 0 7-2.19 12.3-6.56 15.89-4.38 3.6-10.09 5.39-17.16 5.39h-15v24h-14.53v-66.75zm14.53 12v19.22h13.03c7.62 0 11.43-3.19 11.43-9.56 0-6.43-3.78-9.65-11.34-9.65h-13.12zm98.99-12v12.47h-20.06v54.28h-14.72v-54.28h-20.06v-12.47h54.84zm65.72 0v66.75h-14.62v-46.31h-.28l-25.12 46.31h-16.5v-66.75h14.62v46.22h.28l25.12-46.21 16.5-.01zm65.15 46.22c0 6.44-2.5 11.72-7.5 15.84s-11.25 6.19-18.75 6.19c-9.06 0-16.14-2.08-21.23-6.23s-7.67-10.01-7.73-17.58h14.53c.12 4.25 1.5 7.4 4.12 9.47s6.06 3.09 10.31 3.09c3.38 0 6.14-1.01 8.3-3.04s3.23-4.58 3.23-7.64c0-6.25-4.19-9.38-12.56-9.38h-5.06v-9.94c.75.06 2.06.1 3.94.1 8.06 0 12.09-3.03 12.09-9.09 0-2.56-.91-4.54-2.72-5.95-1.81-1.4-4.25-2.11-7.31-2.11-3.62 0-6.53.86-8.72 2.58-2.19 1.72-3.41 4.17-3.66 7.36h-13.88c.12-7.06 2.66-12.37 7.59-15.93 4.94-3.56 11.19-5.34 18.75-5.34 6.87 0 12.55 1.71 17.02 5.11 4.47 3.41 6.7 7.86 6.7 13.36 0 3.31-.94 6.2-2.81 8.67a12.43 12.43 0 0 1-7.31 4.74c3.69.56 6.72 2.28 9.09 5.15 2.38 2.85 3.57 6.38 3.57 10.57zm62.05-.94c0 7.12-2.2 12.49-6.61 16.08-4.41 3.6-10.36 5.39-17.86 5.39h-25.97v-66.75h14.53v24h12.19c7.06 0 12.78 1.8 17.16 5.39 4.37 3.59 6.56 8.89 6.56 15.89zm-14.25-.19c0-6.38-3.81-9.56-11.44-9.56h-10.22v19.22h10.31c7.57 0 11.35-3.22 11.35-9.66zm21.38-45.09h14.62v66.75h-14.62v-66.75z" style="fill:#fff"/></svg>