<svg xmlns="http://www.w3.org/2000/svg" viewBox="0 0 1773.16 200" style="enable-background:new 0 0 1773.16 200" xml:space="preserve"><path d="M0 195.44v-190.88h59.78l44.5 131.1 43.43-131.1h58.44v190.88h-39.41v-135.65l-46.92 135.66h-32.42l-47.45-134.32v134.31h-39.95zm409.11-190.88v190.88h-41.82v-132.44h-.8l-71.85 132.44h-47.18v-190.88h41.82v132.17h.8l71.85-132.17h47.18zm202.95 0v190.88h-41.82v-82.3h-78.01v82.3h-41.82v-190.88h41.82v71.85h78.01v-71.85h41.82zm198.65 0v190.88h-41.82v-155.22h-51.2l-2.69 80.96c-1.79 52.01-19.48 78.01-53.08 78.01-9.29 0-17.16-1.07-23.59-3.21v-33.78c4.29 2.14 9.2 3.22 14.74 3.22 6.61 0 11.7-2.99 15.28-8.98 3.57-5.98 5.63-17.91 6.16-35.79l3.22-116.08 132.98-.01zm183.64 0v34.31h-101.61v41.55h93.3v32.98h-93.3v46.91h103.48v35.12h-145.03v-190.87h143.16zm205.36 117.16c-2.15 23.95-10.55 42.99-25.2 57.1-14.66 14.12-34.76 21.18-60.32 21.18-27.7 0-50-9.16-66.89-27.48s-25.33-42.58-25.33-72.79c0-28.59 8.53-52.37 25.6-71.31 17.06-18.95 39.81-28.42 68.23-28.42 22.7 0 41.73 6.43 57.1 19.3 15.37 12.87 23.86 29.22 25.47 49.06h-41.02c-2.15-10.54-6.93-18.72-14.34-24.53-7.42-5.8-16.75-8.71-28.02-8.71-11.62 0-21.4 3.26-29.35 9.78a52.28 52.28 0 0 0-16.75 23.99c-3.22 9.48-4.83 19.84-4.83 31.1 0 19.66 4.56 35.35 13.67 47.05 9.11 11.71 21.35 17.56 36.73 17.56 25.56 0 40.12-14.3 43.7-42.89l41.55.01zm188.47-117.16-61.39 91.15 67.02 99.73h-50.13l-41.82-66.22-42.36 66.22h-47.72l67.29-99.73-62.2-91.15h48.79l38.07 61.39 38.34-61.39h46.11zm113.4-4.56c27.88 0 50.44 9.25 67.69 27.75 17.24 18.5 25.87 42.67 25.87 72.52s-8.62 53.93-25.87 72.25-39.9 27.48-67.96 27.48c-28.24 0-51.03-9.16-68.36-27.48-17.34-18.32-26-42.4-26-72.25 0-30.2 8.62-54.46 25.87-72.79 17.24-18.32 40.16-27.48 68.76-27.48zm-.54 34.32c-15.73 0-28.28 5.9-37.67 17.69s-14.07 27.61-14.07 47.45c0 20.55 4.64 36.64 13.94 48.26 9.29 11.62 22.07 17.52 38.34 17.69 15.91 0 28.42-5.9 37.53-17.69 9.11-11.8 13.67-27.88 13.67-48.26 0-20.01-4.65-35.88-13.94-47.58s-21.89-17.56-37.8-17.56zm272.12 102.41c0 18.41-7.15 33.51-21.45 45.31-14.3 11.8-32.17 17.69-53.62 17.69-25.92 0-46.16-5.94-60.72-17.83-14.57-11.88-21.94-28.64-22.12-50.27h41.55c.35 12.16 4.29 21.18 11.8 27.08 7.51 5.9 17.33 8.85 29.49 8.85 9.65 0 17.56-2.9 23.72-8.71 6.17-5.8 9.25-13.09 9.25-21.85 0-17.87-11.97-26.81-35.92-26.81h-14.48v-28.42c2.15.18 5.9.27 11.26.27 23.06 0 34.58-8.67 34.58-26 0-7.33-2.59-13-7.77-17.02-5.19-4.02-12.16-6.03-20.91-6.03-10.37 0-18.68 2.46-24.93 7.37-6.26 4.92-9.74 11.93-10.46 21.04h-39.68c.35-20.19 7.59-35.39 21.71-45.57 14.12-10.19 31.99-15.28 53.62-15.28 19.66 0 35.88 4.87 48.66 14.61 12.77 9.74 19.17 22.48 19.17 38.2 0 9.47-2.68 17.74-8.04 24.8a35.47 35.47 0 0 1-20.91 13.54 40.6 40.6 0 0 1 26 14.74c6.8 8.22 10.2 18.32 10.2 30.29z" style="fill:#fff"/></svg>