<svg version="1.1" id="Слой_1" xmlns="http://www.w3.org/2000/svg" x="0" y="0" viewBox="0 0 1052.18 200" style="enable-background:new 0 0 1052.18 200" xml:space="preserve"><style>.st0{fill:#fff}</style><path class="st0" d="m40.64 176.19-.01-.01.01.01zm4.78-9.81zm1.39.57s.01 0 0 0c.01 0 0 0 0 0zm.14.12c0 .01 0 .01 0 0 0 .01 0 .01 0 0zm-5.31-2.01-6.19 6.68 6.19-6.68zm-2.72-5.03-.79-.74-7.47 8 7.47-8 .79.74zm-3.73-2.09zm-2.08-.7c.21-1.23-.87-2.56-2.19-2.77-1.02-.15-2.4.59-3.43 1.6 1.02-1.01 2.41-1.75 3.42-1.59 1.33.2 2.4 1.54 2.2 2.76-.07.41-.25.8-.38 1.22l.73.55-.72-.55c.12-.41.3-.81.37-1.22zm14.05 11.65-.95 4.7c.37-1.78.66-3.24.95-4.7.16-.79.15-1.31-.11-1.69.26.38.27.9.11 1.69zm-2.68-3.66-.24-.22.24.22zm-13.64-2.6c-1.65.89-3.22.83-4.64-.29-1.64-1.3-2.49-2.99-1.97-5.13a6.04 6.04 0 0 1-.01 0c-.52 2.14.33 3.83 1.97 5.13 1.44 1.13 3 1.18 4.65.29zm12.24 12.73c-.39.02-.88-.16-1.46-.52-.14-.09-.29-.16-.51-.28l.51.28c.58.36 1.06.54 1.46.52zm15.78 7.01-.05.25c-.31 1.32-1.15 2.23-2.52 2.47a2.9 2.9 0 0 1-1.63-.13c-1.92-.94-3.79-1.99-5.75-3.03 1.96 1.04 3.83 2.09 5.76 3.03.46.23 1.1.22 1.63.13 1.38-.23 2.21-1.15 2.52-2.46l.04-.26zm2.77 2.2c.85-2.25 1.78-4.48 2.73-6.87l7.11 2.85-7.11-2.85c-.96 2.4-1.88 4.62-2.73 6.87-.41 1.09-.89 1.89-2.27 1.14l-.57 1.45.57-1.45c1.38.75 1.85-.05 2.27-1.14zm3.74 5.31 3.37-8.43-3.37 8.43zm6.08-9.29-3.9 9.73 3.9-9.73zm4.57 1.31-3.11 10.47 3.11-10.47zm-17.13 5.32c2.53 1.41 3.36 1.14 4.46-1.34-1.1 2.48-1.93 2.76-4.46 1.34zm-3.6-12.22-1.24 2.15 1.24-2.15 5.2 2.87.86-1.58-.86 1.58-5.2-2.87zm-37.99-24.82c-.81-1.79-.43-3.34.97-4.86-1.41 1.52-1.79 3.07-.97 4.86.84 1.88 2.19 3.09 4.32 3.18-2.13-.1-3.47-1.31-4.32-3.18zm33.96 20.38c.48-.03.89.34 1.83 1.18-3.08 1.72-6.1 3.44-9.15 5.11 3.05-1.67 6.07-3.39 9.15-5.11-.94-.84-1.36-1.21-1.83-1.18zm136.91-80.35c1.5.39 2.69.78 3.9 1-1.21-.21-2.4-.6-3.9-1z"/><path class="st0" d="M56.48 182.36c-.31.52-.72.73-1.17.72.45 0 .86-.2 1.17-.72.53-.88.06-1.5-.63-1.96-.84-.56-1.74-1.04-2.7-1.6.96.56 1.86 1.03 2.7 1.59.69.47 1.15 1.09.63 1.97zm-4.76-.98 1.06-1.91-1.06 1.91zm131.44-91.3zm-173.16 19.47 3.69-.22-3.69.22zm4.17-4.9c-.64-.03-1.28-.2-1.91-.32h-.02.02c.63.12 1.27.29 1.91.32zm-4.6-3.61zm5.61 1.63zm.64 8.52-.23-1.99-1.9.11 1.9-.11.23 1.99zm88.98.4.07-1.1-.07 1.1zm-89.55-6.38zm1.27-20.74-10.83-1.43-.27 2.13.26-2.13 10.84 1.43zm-.91 6.52-4.68-.68 4.68.68zm-8.37 16.79zm4.22-1.7c-1.92-.38-3.78-.84-5.67-1.08 1.89.24 3.76.7 5.67 1.08zm-6.66-16.51 4.27.48.6-4.24-.6 4.24-4.27-.48-.21 2.13.21-2.13zm6.6 16.63c-.05.11-.08.18-.12.19.04-.01.06-.08.12-.19zm6.89 32.67c-.6-.64-.91-1.53-1.39-2.41.48.88.79 1.77 1.39 2.41zm-14.05-35.56c-.04 1.1.42 1.54 1.55 1.69-1.12-.15-1.59-.59-1.55-1.69zm179.31-12.92zm-111.16 101.83-1.02-.3 1.02.3zm-49.54-45.31-1.48.96 1.72 2.8-1.71-2.8 1.47-.96zm3.15-.19c-.34-1.21-1.18-1.85-2.47-1.87-1.35-.02-.71-1.33-1.48-1.9.77.57.13 1.88 1.48 1.9 1.29.02 2.13.66 2.47 1.87.36 1.29-.3 2.2-1.3 3.03 1-.83 1.67-1.74 1.3-3.03z"/><path class="st0" d="M20.82 141.42c1.31-.55 2.27-1.68 2.21-2.81.06 1.13-.9 2.25-2.21 2.81-1.52.64-3 .3-3.89-1.03-.64-.95-1.12-2.01-1.74-3.15.62 1.14 1.1 2.21 1.74 3.16.89 1.33 2.37 1.66 3.89 1.02zm1.73 9.5z"/><path class="st0" d="M19.96 139.23c.01 0 .01 0 0 0l.08-.04-.08.04c.01 0 .01 0 0 0zm-14.97-27.28 9.78-.69-9.78.69zm5.6 25.01.93 1.97 3.68-1.69-3.68 1.68-.93-1.96zm171.98-48.23zm-72.33 22.38-.08-.1.08.1zm-14.54 30.91s0 .01 0 0l6.1-1.32 1.17-18.31-1.17 18.31-6.1 1.32zm-.27-4.28-.86-13.48.86 13.48zm-55.7 6.06c.46-2.29.9-4.57 1.34-6.86.01-.08-.02-.16-.04-.36.02.19.06.28.04.36-.44 2.29-.88 4.57-1.34 6.86-.29 1.44-.54 2.82-.04 4.32a9.5 9.5 0 0 0 .87 2.17c-.29-.42-.51-1.09-.87-2.17-.5-1.5-.24-2.88.04-4.32zm70.34-32.88-.03-.03.03.03zm-94.46-19.93-.04.39.04-.39zm18.84 40.99c-.86-2.18-.07-3.6 1.51-5.17 1.99-2 4.11-3.65 6.75-4.61.79-.29 1.12-.75 1.07-1.64-.14-2.5-.15-5-.29-7.5-.03-.58-.3-1.16-.54-1.71-2.84-6.43-5.57-12.91-7.22-19.77l-.36-1.45c3.45-.36 6.74-.76 10.04-.99.56-.04 1.17.68 1.96 1.17.76-.67 1.69-1.48 2.59-2.32 1.39-1.3 2.77-2.6 4.11-3.95.55-.55 1.07-.82 1.82-.46 1.09.51 2 .32 2.58-.79 1.2-2.28 3.5-2.61 5.63-3.21.33-.09.57-.07.74.03-.17-.1-.41-.13-.75-.03-2.13.6-4.44.94-5.63 3.21-.58 1.11-1.5 1.3-2.58.79-.76-.36-1.28-.08-1.82.46-1.34 1.35-2.73 2.65-4.11 3.95-.9.84-1.84 1.64-2.59 2.32-.79-.49-1.4-1.2-1.96-1.17-3.3.23-6.59.63-10.04.99l.36 1.45c1.64 6.87 4.37 13.34 7.22 19.77.24.54.51 1.13.54 1.71.13 2.5.14 5 .29 7.5.05.89-.27 1.35-1.07 1.64-2.64.96-4.76 2.61-6.75 4.61-1.57 1.58-2.36 2.99-1.5 5.17.26.66.47 1.19 1.05 1.58-.58-.38-.79-.91-1.05-1.58zm34.21-50.07c-.79-2-1.61-3.93-2.3-5.9a6.3 6.3 0 0 1-.32-2.36c.13-2.02.29-4.05.62-6.05.14-.87.53-1.83 1.11-2.47 1.12-1.24 2.47-2.28 3.72-3.41.45-.4 1.04-.73 1.32-1.22.8-1.45 2.08-1.9 3.59-2.12 4.18-.59 8.36-1.21 12.77-1.86-4.41.64-8.59 1.27-12.77 1.86-1.51.21-2.79.66-3.59 2.12-.28.5-.87.82-1.32 1.22-1.25 1.13-2.59 2.17-3.72 3.41-.58.64-.97 1.6-1.11 2.47-.32 2-.49 4.03-.61 6.05-.05.78.06 1.63.32 2.36.68 1.97 1.5 3.91 2.29 5.9l-3 1.63 3-1.63zm20.5-25.39.47 6.97-.47-6.97zm1.48-12.8c-.84.15-1.09.41-1.09 1.09 0-.68.24-.94 1.09-1.09zm14.83 58-.12 1.67.12-1.67zm-22.87 28.29c2.94 2.54 6.51 3.88 10.17 4.93-3.67-1.06-7.24-2.39-10.17-4.93l-.6-.56c.18.19.38.38.6.56zm8.72-23.75c-2.83-.74-5.73-1.28-8.51-2.15 2.79.87 5.68 1.41 8.51 2.15zm-.62-42.96c-.37-5.86-.7-11.72-1.1-17.57.39 5.86.73 11.72 1.1 17.57zm-52.03 115.89-1.34-1.05 1.34 1.05zm54.82-54.65-.11.05.11-.05zm-57.17 52.78zm5.19 3.98zm52.15-53.47-3.34-2 3.34 2zm11-14.05.11-1.65-.11 1.65zm1.94-11.76zm-1.64 6.8c1.49.46 2.91.74 4.16 1.36-1.25-.62-2.67-.9-4.16-1.36zm-11.45 16.03.15 2.98-.15-2.98zm16.41-14.09.06.06-.06-.06zm-.74 3.15c.68-.38 1.57-1.24 1.53-1.81.04.58-.85 1.43-1.53 1.81zm-25.82 7.68c2.66-2.07 5.84-2.95 9.04-3.68l1.29-.29-1.29.29c-3.21.73-6.39 1.61-9.04 3.68-2.58 2-2.83 4.93-.51 7.16 3.11 2.99 7.09 4.22 11.25 5.44-4.15-1.22-8.14-2.45-11.24-5.44-2.33-2.23-2.08-5.16.5-7.16zm10.46 72.72c-.2-.68-.5-1.04-1.24-1-.43.03-.88.03-1.29-.08-.76-.21-1.37-.22-1.87.02.5-.24 1.11-.23 1.87-.02.41.11.86.1 1.29.08.74-.04 1.04.33 1.24 1 .45 1.55.56 1.84 1.76 1.8-1.2.04-1.31-.25-1.76-1.8zm-28.81-129.88zm17.58 123.81zm3.22 6.89 1.67-3.44c.96-1.98 2-3.92 2.87-5.93.22-.5.48-.76.82-.89-.34.13-.6.39-.82.9-.88 2.01-1.91 3.96-2.87 5.93-.57 1.14-1.12 2.29-1.67 3.43l.25.42c.62-.2 1.56-.27 1.98-.54-.42.27-1.37.34-1.98.54l-.25-.42zm-11.37-13.7.76.22-.76-.22zm38.32-142.57c-1 1.39-2.28 2.58-3.53 3.76-.32.29-1 .39-1.48.32.49.08 1.17-.02 1.49-.32 1.24-1.18 2.52-2.38 3.52-3.76 3.2-4.45 2.1-8.07-2.98-10.14 5.07 2.07 6.17 5.69 2.98 10.14zm-23.7 4.2c.22 0 .45-.05.64-.09-.19.04-.42.08-.64.09zm.94 148.19 1.63-3.53-1.63 3.53zm-5.93-5.22c.41-.4.98-.62 1.88-.39v-.01c-.9-.22-1.46 0-1.88.4zm-4.6 2.84-.09.42.09-.42zm2.97-3.64c-.45.59-.8 1.24-1.29 1.79.49-.55.84-1.21 1.29-1.79zm-3.95-2.58-2.21 10.67 2.12.46v-.01l-2.12-.46 2.21-10.66zm2.72 10.09c-.21-.88-.41-1.77-.72-2.62-.15-.4-.56-.71-1.02-1.26.46.55.87.86 1.02 1.26.31.86.5 1.75.72 2.62.48 1.96.52 2.01 2.98 2.04v-.01c-2.45-.03-2.5-.07-2.98-2.03zm27.06-135.35-1.23 19.08 1.23-19.08zm17.12 5.09zm-50.86-11.42c4.57-1.21 9.24-2.03 14.08-3.07l.05.76-.05-.76c-4.83 1.04-9.51 1.86-14.08 3.07zm55.16 18.35a15.42 15.42 0 0 1-4.76 2.5c-5.84 1.62-11.74 3.01-17.9 4.56 6.16-1.55 12.06-2.94 17.9-4.56a15.2 15.2 0 0 0 4.76-2.5c1.61-1.18 1.67-2.83.22-4.12 1.45 1.29 1.39 2.94-.22 4.12zm-37.94 10.02zm-7.83-39.37zm2.94 2.75c.37.37.72.76 1.06 1.16.6.71.58 1.94.86 3.01l-12.27 2.26 12.27-2.26c-.28-1.08-.27-2.3-.86-3.01-.34-.4-.7-.78-1.06-1.16zm15.45-41.58zm-93.45 140.5zm8.11 14.41zm40.11-87.74s-.01 0 0 0zm-23.85 106.28zm-18.15-67.6c.3-.18.47-.46.39-1.07.08.61-.1.9-.39 1.07zm123.2-83.73-.72-.34.72.34c.75.35 1.5.18 1.77-.52-.27.69-1.02.86-1.77.52zm2.6-3.85c-1.04-.67-2.16-1.21-3.3-1.85 1.14.64 2.26 1.18 3.3 1.85zm-8.32 3.01 5.07-9.73-5.07 9.73c-.01 0 0 0 0 0zm59.33 54.94.02.21-.02-.21zm-51.8-54.72zm51.68 54.17.03.15-.03-.15zm-55.05-57.62-1.36 2.63 1.36-2.63zm26.36 24.08-.25.01.25-.01c1.29-.13 2.44-1.11 2.59-2.34.02-.14.02-.29.02-.44 0 .15 0 .29-.02.44-.16 1.23-1.31 2.21-2.59 2.34zm2.07-10.99c1.78.1 3.94 2.39 4.03 4.18.09 1.61-.97 2.61-2.79 2.64 1.81-.04 2.88-1.03 2.79-2.64-.09-1.79-2.25-4.08-4.03-4.18-.58-.03-1.18.16-1.92.3.73-.13 1.33-.33 1.92-.3zm-.94 2.25zm-17.35-16.99-5.03 9.67 5.03-9.67zm14.91 23.38c-1.17-.32-1.59-1.44-1.44-3.33-.15 1.89.26 3.01 1.44 3.33zm-59.43-31.62c-.88-1.41-1.68-2.88-2.54-4.38.86 1.5 1.66 2.96 2.54 4.38zm16.73 1.54zm72.1 64.49.11.21-.11-.21zm-76.46-57.91zm-.89-8.3c.71-.98 2.06-1.25 3.28-.81 1.11.4 1.72 1.22 1.97 2.53-.25-1.31-.86-2.13-1.97-2.53-1.22-.44-2.57-.17-3.28.81zm50.04 27.7c.36.23.78.58 1.23.73-.45-.16-.86-.5-1.23-.73zm-58.36-26.41 3.51-4.95a1199.3 1199.3 0 0 0-3.51 4.95zm24.01 7.48c-.13.4-.86.87-1.32.88.46-.01 1.19-.49 1.32-.88.15-.45-.17-1.36-.56-1.59-.97-.58-2.11-.88-3.3-1.33 1.19.46 2.33.76 3.3 1.33.39.22.71 1.14.56 1.59zm1.13-4.61c-.17.42-.86.94-1.27.89-.91-.11-1.79-.43-2.74-.73.95.3 1.84.62 2.75.73.4.05 1.1-.47 1.26-.89.12-.28-.16-.92-.47-1.2.32.28.59.92.47 1.2zm60.97 63 .04.14-.04-.14zm-70.36-64.7z"/><path class="st0" d="M131.06 15.59c.28.86.76 1.69.77 2.52.02 1.74-1.76 3.19-3.46 2.77-2.11-.51-4.17-1.27-6.34-1.95 2.18.68 4.23 1.44 6.35 1.95a2.9 2.9 0 0 0 3.46-2.78c-.01-.82-.5-1.64-.78-2.51 1.08-.42 1.93-1.21 1.88-2.62.05 1.41-.8 2.2-1.88 2.62zm-115.22 65.84-9.28-2.18 9.28 2.18zm86.61-66.96 1.6-2.18 1.41 2.45c.96 1.67 1.29 1.82 3.31 1.35-2.02.47-2.35.32-3.31-1.35l-1.41-2.45c-.59.79-1.1 1.48-1.6 2.18-1.2 1.66-1.2 1.66-3.52 1.13 2.32.53 2.32.53 3.52-1.13zm82.92 49.66-.73.29.73-.29c.32.86.8 1.64.84 2.43-.03-.79-.52-1.57-.84-2.43z"/><path class="st0" d="m176.11 65.44 10.21-4.05c.7 1.93 1.49 3.78 2.02 5.71.31 1.15-.22 2.19-1.25 2.88 1.03-.69 1.57-1.73 1.25-2.88-.52-1.93-1.32-3.78-2.02-5.71l-10.21 4.05zm11.74 9.98a2.66 2.66 0 0 1 2.08 2.09c.33 1.48-.18 2.7-1.57 3.31-.89.39-1.88.64-2.85.71l-.27.01.27-.01a8.6 8.6 0 0 0 2.85-.71c1.39-.61 1.9-1.84 1.57-3.31-.22-1.04-.89-1.77-2.08-2.09zm-.3-.07.2.05-.2-.05zm-17.15-20.9.88-.12-.88.12c.53 1.51.66 1.88 1.49 1.88-.82-.01-.96-.38-1.49-1.88zm5.2 6.08c.18-.25.4-.68.3-.89a27.08 27.08 0 0 0-1.76-3.16c-.12-.18-.49-.24-.82-.25.34.01.7.07.82.25.67 1 1.24 2.07 1.76 3.16.1.2-.12.64-.3.89-.68.91-.97 1.31-.89 1.82-.08-.51.22-.91.89-1.82zm10.9 14.72zm.32-2.22c-3.63 0-6.22 2.14-6.23 5.16.02-3.02 2.61-5.16 6.23-5.16zm-2.41 2.87c.81-.34 1.65-.5 2.08-.64-.43.13-1.27.3-2.08.64zm2.97-2.84zm-.16 2.24.14.02-.14-.02zm-7.01-20.21-4.3.71 4.3-.71c0 .01 0 0 0 0zm-9.03-2.13-1.68 1.25 1.68-1.25zm-1.74-2.63-1.4-1.87c.46.59.92 1.21 1.4 1.87zm22.52 28.57c-.01.18-.04.36-.07.54l.07-.54zm-17.93-31.99 1.27-.95-1.88-2.49 1.88 2.49-1.27.95zm16.52 35.05-.3.28.3-.28zm1.4-3.94.02.6c0-.2 0-.4-.02-.6zm-27.08-33.17c.69-.03 1.49.15 2.04-.14 1.86-.99 3.63-2.13 5.42-3.23.4-.24.77-.54 1.24-.88-.48.34-.84.64-1.24.89-1.8 1.1-3.56 2.25-5.42 3.23-.56.28-1.36.1-2.04.13zm-6.12-7.98.72.37-.72-.37zm20.13 16.43 2.4-.3-2.4.3zm-10.14-.85-4.08-5.47 4.08 5.47-1.87 1.52 1.09 1.38-1.09-1.38 1.87-1.52zm2.44.51-.31-.25.31.25zm-6.38-8.42s0-.01 0 0l-3.17 2.38 1.1 1.38-1.1-1.37 3.17-2.39zm26.61 31.34zm-158.92-33.66c-.58.89-1.28 1.71-1.98 2.63.7-.92 1.4-1.74 1.98-2.63 1.02-1.54.71-3.18-.74-4.37 1.45 1.19 1.76 2.83.74 4.37zm151.53 44.82c.08.37.15.64.2.92-.05-.28-.12-.55-.2-.92z"/><path class="st0" d="m32.22 49.15 1.39-1.67-3.1-2.64 3.09 2.64c-.44.55-.87 1.05-1.38 1.67zm7.61-19.5-.24.36.24-.36c-1.82-1.24-3.89-.92-5.51.78 1.63-1.69 3.69-2.01 5.51-.78zm-21.71 21.87a4.12 4.12 0 0 0 1.34 2.9c.37-.65 1.09-1.37 1.05-1.85.03.48-.68 1.2-1.05 1.85a4.16 4.16 0 0 1-1.34-2.9zm9.95-11.56c.66-.72 1.46-.98 2.27-.31.41.34.57.72.56 1.11.01-.39-.15-.77-.56-1.12-.81-.67-1.6-.4-2.27.32-.47.5-.9 1.04-1.43 1.67.54-.63.97-1.17 1.43-1.67zm17.08-15.76.85 1.16-.85-1.16 2.56-2.01-1.09-1.39 1.09 1.39-2.56 2.01zm3.6 8.61 1.73-1.3-2.07-2.83 2.07 2.83-1.73 1.3zm-13.53 1.92a10.8 10.8 0 0 0 2.17 2.51c.96.85 2.11.98 3.21.2-1.1.78-2.26.65-3.21-.2a11.01 11.01 0 0 1-2.17-2.51zm-14.22 14.66c.72-.7 1.53-.81 2.44-.58-.92-.24-1.73-.13-2.44.58zm21.45-11.08a4.04 4.04 0 0 0 .52-5.31l-1.83.84 1.83-.84a4.05 4.05 0 0 1-.52 5.31zm-1.2-4.16-.11-.32.11.32zm-2.38-3.03.2-.3-.2.3zm-27.36 37.7zm5.79.64-.49-.43 1.17-1.62-1.18 1.62.5.43c.94.78 1.26 1.76.77 2.89a2.82 2.82 0 0 1 .01-.01c.48-1.13.16-2.1-.78-2.88zm170.62 3.68zm-170.24 6.48-.04.16.04-.16zm-3.93-13.85-.04.33.04-.33zm12.22-15.57-1.85 2.78-1.49-.94 1.49.94 1.85-2.78c1.01.88 1.46 1.6 1.44 2.38.03-.78-.42-1.5-1.44-2.38zm-19.26 28.43.3-1.31-.3 1.31zm14.79-14.81-3.85-1.84 3.85 1.84zm1.67-6.98c2.57.85 4.62-.13 5.78-2.64a4.7 4.7 0 0 0 0-.01c-1.16 2.52-3.21 3.5-5.78 2.65zm-10.04 6.57zm10.83-.8-8.17-3.98 8.17 3.98zm-8.45-7.66 1.64.76-1.64-.76-3.74 7.81 3.74-7.81zm44.31-29.31c-1.71 1.07-3.49 2.05-5.36 3.14 1.87-1.09 3.65-2.07 5.36-3.14zm4.69-2.57zm122.05 65.95c1.84-1.2 3.66-2.43 5.49-3.64l.01-.01-.01.01c-1.83 1.21-3.65 2.44-5.49 3.64zm-145.85-61.66 2.65-1.85-2.65 1.85zm29.57-6.77c.68.27 1.44.01 2.3-.66-.86.67-1.62.92-2.3.66zm-2.99-3.07-2.74 1.16 2.74-1.16zm-2.81-.39zm22.8-.49zm103.28 57.96c.09.09.17.2.25.3l-.25-.3zm-98.64-69.31.17-.02-.17.02c-.51.09-1.27.37-1.39.75-1.12 3.43-2.14 6.9-3.25 10.61 1.12-3.71 2.13-7.18 3.26-10.61.11-.38.87-.66 1.38-.75zm3.12 9.01c-.19-.34-.73-.58-1.15-.66-.49-.1-1.03.09-1.54.05l-.26-.01.26.01c.51.03 1.05-.15 1.54-.05.41.08.95.32 1.15.66.5.88.75 1.33 1.13 1.5-.39-.17-.63-.62-1.13-1.5zm95.84 60.69.17.25-.17-.25zm-100.02-63.04 1.16-4.13-1.16 4.13zm-28.4 9.87v2.2-2.2zm.94-9.88c.9-.37 1.37-.16 1.98.49 2.36 2.51 4.76 4.97 7.2 7.5-2.44-2.53-4.85-4.99-7.2-7.5-.6-.65-1.08-.86-1.98-.49-.86.35-1.04.84-1.04 1.61 0-.77.19-1.26 1.04-1.61zm-10.25 10.01-1.26-2.26 1.26 2.26zm3.05-2.88c.02.45-.13.99-.39 1.23.26-.23.41-.78.39-1.23zm-8.66 12.09-4.18-5.65 4.18 5.65zm135 56.16 1.48-.29-1.48.29c-.01.28-.02.53-.01.76-.01-.23 0-.48.01-.76zm11.36 6.55c-3.08-.97-6.17-1.9-9.21-2.95 3.04 1.06 6.13 1.98 9.21 2.95.06.02.14-.02.2-.04-.06.03-.14.06-.2.04zm-136-73.75.26-.01-.26.01zm38.42-4.28c-.01 0-.01 0 0 0-.01 0-.01 0 0 0zm-39 .81c1.11.93 1.23 2.11.57 3.47.66-1.35.54-2.54-.57-3.47-1.01-.85-2.07-.74-3.12-.26 1.05-.47 2.11-.59 3.12.26zm-3.32 6.83 1.7-.88-1.7.88zm4.31.94c-.86.56-1.77 1.05-2.8 1.65l-1.31-2.23 1.31 2.23c1.03-.6 1.94-1.09 2.8-1.65.47-.3.77-.69.76-1.17.01.48-.29.87-.76 1.17zm-47.87 49.69a4.54 4.54 0 0 1-1.27-4.75 4.52 4.52 0 0 0 1.27 4.75zm159.91 90.7-.21.27.21-.27zm-19.83-92.2.26-.78c-.08.27-.16.53-.26.78zm-6.99 5.79c-.01 0-.01 0 0 0-.01 0-.01 0 0 0zm20.59 18.56c-1.38.09-2.76.18-4.14.17-.44 0-1.07-.18-1.29-.5-.94-1.34-2.25-.99-3.55-1.06-.91-.05-1.29.19-1.61 1-.64 1.59-1.4 3.13-2.19 4.86.78-1.72 1.54-3.26 2.18-4.85.33-.81.7-1.05 1.61-1 1.3.08 2.61-.28 3.55 1.06.23.32.85.5 1.29.5 1.38.01 2.76-.08 4.14-.17.23-.02.49-.18.66-.36 2.67-2.89 5.31-5.78 8.07-8.8l-8.07 8.78c-.16.19-.42.36-.65.37zm-2.73 65.94c-1.22-1.26-2.83-1.47-4.18-.4l-.92.75.92-.75c1.36-1.06 2.96-.85 4.18.4zm-4.91-55.79.07-.15.07-.16-.07.15-.07.16zm11.32 54.79c-2.52-.67-5.04-1.31-7.59-1.97 2.54.66 5.07 1.3 7.59 1.97zm1.28 4.13-1.13-1.04 1.13 1.04zm-81.47-70.01c1.06.61 2.31.89 3.45 1.38.32.14.76.48.78.77.2 2.31.31 4.63.46 7.07-.15-2.45-.26-4.77-.46-7.08-.03-.28-.46-.63-.78-.77-1.14-.48-2.39-.76-3.45-1.37-1.12-.65-1.34-1.55-.68-2.34-.66.79-.44 1.7.68 2.34zm-26.46 96.24-1.43-.61 1.43.61zm25.85-98.66.09-.1-.09.1zm71.23 21.2 2.73-3.36-2.73 3.36zm-70.96-32.87c7.62-1.92 15.33-3.48 22.98-5.27 5.2-1.22 10.38-2.5 15.53-3.92 1.5-.42 2.95-1.25 4.23-2.17a5.82 5.82 0 0 0 0-.01 13.7 13.7 0 0 1-4.23 2.17 391.78 391.78 0 0 1-15.53 3.92c-7.65 1.8-15.36 3.36-22.98 5.28-3.96 1-7.79 2.56-10.93 5.33l-.36.33.36-.33c3.14-2.77 6.97-4.33 10.93-5.33zm72.26 82.52c.09.05.17.1.23.17.33.36.37 1.32.12 1.81-.37.73-1.1 1.28-1.78 2.02.68-.74 1.41-1.29 1.78-2.02.24-.49.21-1.44-.12-1.81a.81.81 0 0 0-.23-.17zm-50.84-108.13.33-6.34-.33 6.34zm-37.36 139.54zm84.53-29.85c.63-.52 1.14-1.07 1.72-1.43-.58.36-1.09.92-1.72 1.43zm19.06-12c.57.23 1.8-.35 2.28-.93.43-.53.31-1.56.3-2.37-.01-.34-.35-.67-.58-1.08.23.4.57.74.57 1.07.01.81.13 1.84-.3 2.37-.47.59-1.7 1.17-2.27.94z"/><path class="st0" d="m178.51 148.39-1.59 1.25 1.59-1.25c.01 0 .01 0 0 0zm-57.51-33.49.16-.3c-.05.1-.1.21-.16.3zm74.87-24.78-.03-.03.03.03zm-75.45 17.53a25.67 25.67 0 0 0-5.43-3.67c-2.72-1.28-5.63-2.13-8.46-3.17-.32-.11-.65-.2-1.04-.32l.74-11.35-.74 11.36c.39.12.72.2 1.04.32 2.83 1.03 5.75 1.89 8.46 3.17 1.96.92 3.77 2.26 5.43 3.67 1.66 1.4 2.01 3.34 1.36 5.45a8.26 8.26 0 0 1 0-.01c.64-2.1.29-4.05-1.36-5.45zm49.48 39.59c1.23-1.59 2.7-2.06 4.73-1.46-2.04-.61-3.5-.14-4.73 1.46-1.41 1.81-1.62 3.87-.48 5.65a7.44 7.44 0 0 0 .01.01c-1.15-1.79-.94-3.84.47-5.66zm-57.48-6.81a3.71 3.71 0 0 1-1.31 1.43c-1.5.95-3.21 1.71-4.92 2.18-3.94 1.08-7.95 1.92-11.92 2.9a9.3 9.3 0 0 0-2.29.86c-.64.36-.96.82-.97 1.29.01-.47.33-.93.97-1.28.71-.39 1.5-.66 2.29-.86 3.97-.98 7.98-1.82 11.92-2.9a18.07 18.07 0 0 0 4.92-2.18c.6-.39 1.03-.89 1.31-1.44zm44.27-16.47c.33-.71 1.18-.94 2.1-1.17 1.6-.4 3.17-.95 4.89-1.47l-.01-.01c-1.72.52-3.28 1.07-4.87 1.47-.93.23-1.79.46-2.11 1.18zm9.64 28.89c1.41 3.22 2.83 6.39 4.2 9.57-1.37-3.18-2.78-6.35-4.2-9.57zm-15.88-25.92c0 .01 0 .01 0 0 .28-.73.71-.94 1.43-1.01 1.54-.16 3.06-.4 4.73-.63v-.01c-1.66.23-3.19.47-4.72.63-.72.07-1.16.29-1.44 1.02zm17.06 32.91-1.02-1.97 1.02 1.97zm-1.31-6.87c-.85.75-1.23 1.1-1.25 1.55.02-.45.4-.81 1.25-1.55zm13.9-14.29c.68-1.1 1.62-1.67 2.67-1.7-1.05.03-1.99.6-2.67 1.7-.65 1.05-1.18 2.17-1.81 3.35.63-1.17 1.16-2.29 1.81-3.35zm-12.58 21.18-.05-.01.05.01zm-25.09-15.07c-.49-.68-1.02-1.04-1.91-1.05a28.16 28.16 0 0 1-4-.34c-.87-.14-1.7-.52-2.88-.9-.6.63-1.49 1.6-2.42 2.53a3.1 3.1 0 0 1-4.64-.45l-3.25-4.84c-1.24 1.9-2.46 3.66-3.56 5.49-.46.76-.96.88-1.69.58l-6.44-2.71-.01.01 6.45 2.71c.73.31 1.23.18 1.69-.58 1.11-1.83 2.32-3.59 3.56-5.49l3.25 4.84a3.1 3.1 0 0 0 4.64.45c.93-.93 1.82-1.9 2.42-2.53 1.19.38 2.02.76 2.88.9 1.32.21 2.66.32 4 .34.88.01 1.42.37 1.91 1.05.76 1.04 1.61 2.01 2.5 3.1l4.32-4.03v-.01l-4.31 4.03c-.9-1.1-1.75-2.07-2.51-3.1zm20.82 13.77a5.08 5.08 0 0 0-1.56-.34c.35-.02.82.12 1.56.34zm-39.5 31.21zm16.66-13.11-2.93 1.5 2.93-1.5 4.14 8.11 1.94-.99-1.94.99-4.14-8.11zm-19.86 15.04c.46-.21.9-1.06.86-1.57.04.52-.4 1.36-.86 1.57zm-3.28.88-.53-2.39.53 2.39zm3.5-8.28.78-.18-.14-.6.14.6-.78.18zm-5.27 10.51c1.95-.43 3.72-.78 5.47-1.22-1.75.43-3.52.78-5.47 1.22zm2.63-2.42c-.28.06-.57.12-.86.2.29-.08.58-.14.86-.2zm1.65-.4c-.53.16-1.08.27-1.65.4.57-.13 1.13-.24 1.65-.4zm-69.75-5.21zm84.97.58.64 1.68-3.15 1.13 3.16-1.13-.65-1.68zm-6.73-.79.99 2.8-.99-2.8 5.16-1.88-.61-1.68.61 1.68-5.16 1.88zm9.23-.02.14.33-.14-.33zm-6.62-5.49 1.49-.55-.62-1.7.61 1.7-1.48.55zm7.39 6.84c-.13-.17-.29-.36-.42-.56l-.09-.17.09.17c.13.2.29.39.42.56 1.82-.67 2.59-1.24 2.56-2.27.03 1.03-.74 1.6-2.56 2.27zm23.67-15.09-2.72-3.07 2.72 3.07zm-23.9 11.17c-1.13-2.08-2.17-4.21-3.32-6.47 1.15 2.27 2.18 4.4 3.32 6.47.29.53.53 1.02.5 1.46.02-.43-.21-.93-.5-1.46zm-10.41.84-.77-2.28 2-.73-2.01.73.78 2.28zm-11.4 3.06-.46-2.46 2.48-.56-2.48.56c.14.82.28 1.56.46 2.46zm35.37-10.35c-.66.5-1.08.94-1.11 1.55.03-.6.45-1.04 1.11-1.55 1.57-1.18 2.96-1.98 4.43.04l.73-.5-.73.5c-1.47-2.01-2.86-1.22-4.43-.04zm-63.89-83.16c-.11.32.09.65.6.89 1.04.47 2.13.82 3.4 1.3-1.26-.47-2.36-.82-3.4-1.29-.51-.25-.71-.58-.6-.9zm30.9-44.89c-3.11-.61-6.25-1.07-9.48-1.61 3.23.55 6.37 1 9.48 1.61 7.12 1.41 14.1 3.32 20.57 6.73 3 1.58 5.88 3.41 7.85 6.22a16.98 16.98 0 0 1 2.47 5.19 7.75 7.75 0 0 1 .01 0 17.22 17.22 0 0 0-2.47-5.19c-1.97-2.81-4.85-4.64-7.85-6.22-6.48-3.41-13.45-5.33-20.58-6.73zm33.7 125.41-3.55-2.51 3.55 2.51zm-15.09-128.55zm12.61 130.25-1.07-4.21 1.07 4.21zm-93.04 13.73c-.72-.34-1.43-.69-2.14-1.05.71.36 1.43.7 2.14 1.05zm64.95 3.01-.01.01.01-.01zm-5.13-5.52 1.96-.39-1.96.39zm41.48-11.65-1.1.75 1.1-.75zm-11.65-4.73c-.01.26.06.55.24.91.13.27.17.58.23.89-.06-.31-.09-.62-.23-.89a1.85 1.85 0 0 1-.24-.91zm2.63 10.94-2.12-8.91-.01-.04.01.04 2.12 8.91c.76-.71 2.07-.84 1.72-2.07.35 1.23-.97 1.36-1.72 2.07zm-38.6-139.41c-1.44 1.06-1.51 2.31-1.42 3.85-.09-1.54-.02-2.79 1.42-3.85a14.47 14.47 0 0 0 4.51-5.76c.12-.28.37-.6.63-.69 2.77-.92 5.62-1.63 8.3-2.74 2.15-.89 3.93-.89 5.91.39 1.95 1.25 4.13 2.15 6.16 3.29a2.31 2.31 0 0 1-.01 0c-2.03-1.14-4.21-2.04-6.16-3.29-1.98-1.27-3.76-1.28-5.91-.38-2.68 1.12-5.54 1.82-8.3 2.74-.26.09-.51.41-.63.69a14.48 14.48 0 0 1-4.5 5.75zm1.76 92.41c-2.16-1.99-4.87-2.91-7.62-3.66-.82-.23-1.12-.5-1.04-1.39.19-2.11.35-4.22.36-6.33a3.04 3.04 0 0 1 0 .02c0 2.11-.17 4.23-.36 6.33-.08.89.21 1.16 1.04 1.39 2.76.76 5.47 1.67 7.62 3.66a4.6 4.6 0 0 1 0-.02zm-9.03.9zm-9.16 28.78c2.9.63 5.89.9 8.88.04-2.99.87-5.98.59-8.88-.04zm2.63-7.64-.24-3.73c-.11-1.72-.18-3.45-.31-5.17-.05-.67.12-1 .83-1.13-.72.13-.88.46-.83 1.13.13 1.72.2 3.45.31 5.17l.24 3.73zm86.57-17.96c.43.28.84 1.15.72 1.64v.02-.02c.11-.49-.29-1.36-.72-1.64zm-3.32 3.41 2.66 1.35-2.66-1.35zm-91.72 56.39-1.51-.18 1.51.18zm80.89-169.2zm-64.15 107.76c-.51-.3-1.09-.5-1.78-.81.69.31 1.26.51 1.78.81.67.4 1.02.9 1.04 1.41-.02-.51-.37-1.01-1.04-1.41zm-6.31 37.28zm-20.04 22.61-.42-.09.42.09zm18.98-26.24-.28-4.71.28 4.71zm94.49-72.24zm-5.15 1.48c-.6-.42-1.15-.94-1.79-1.26-1.04-.52-1.62-1.22-1.67-2.25.05 1.03.63 1.73 1.67 2.25.64.33 1.19.85 1.79 1.26zm-103.52 97.89-.4-.06.4.06zm107.87-99.64c-.99-.07-1.43.51-1.48 1.39l-.03.73c0-.24.01-.49.03-.73.05-.89.49-1.46 1.48-1.39zm-89.91 64.96c3.68-1.52 4.27-4.23 1.59-7.17-.93-1.02-.93-1.02-.72-2.21-.22 1.2-.22 1.2.72 2.22 2.68 2.94 2.08 5.64-1.59 7.16-.4.17-.81.34-1.23.4-2.04.27-4.08.5-6.09.74 2.01-.24 4.05-.48 6.09-.74.42-.06.83-.23 1.23-.4zm-2.47-16.92.45-.1-.45.1zm97.41-56.51c.2.21.32.54.59.96-.26-.42-.39-.75-.59-.96zm-97.88 73.08h.02-.02zm1.7 3.19c-.17 2.65-.31 5.22-.53 7.78-.02.23-.59.58-.9.57.31.01.88-.34.9-.57.23-2.56.37-5.13.53-7.78h-.73.73zm83.35-61.23v-2.13 2.13h10.84c0-1.05.02-2.09.03-3.12-.01 1.03-.03 2.07-.03 3.12h-10.84zm6.29-3.72v-.74.74zm-80.81 11.07c.75-.33.95-.82.57-1.23.38.4.19.89-.57 1.23zm86.8-22.89c-.52-.61-.45-1.21.21-2.03.19-.24.19-.63.33-1.13-.14.5-.14.89-.33 1.13-.65.82-.73 1.43-.21 2.03zm-102.04 1.83c3.16-.66 6.3-1.38 9.55-2.12-3.25.74-6.39 1.46-9.55 2.12-.54.11-.86.29-1.01.6.16-.31.47-.49 1.01-.6zm80.69 48.31c0-.01 0-.01 0 0l-.94 1.96.94-1.96zm18.12-39.71-.02-.3c.02.1.02.2.02.3zm-89.02 14.06zm-17.28 34.33c.03 1.04.71 2.06 2.03 2.76 1.87.98 3.92 1.63 6.01 2.39-2.09-.77-4.14-1.41-6.01-2.4-1.32-.69-2-1.72-2.03-2.75z"/><path class="st0" d="M169.09 30.05a99.15 99.15 0 0 0-66.78-28.82c-.85-.03-1.7-.04-2.55-.05-54.94-.26-100.04 44.59-99.76 99.29a97.45 97.45 0 0 0 15.66 53.7 134.04 134.04 0 0 0 2.65 3.9l1.39 1.9c3.53 4.71 7.48 9.1 11.78 13.12.57.54 1.15 1.06 1.74 1.59l.88.78a98.7 98.7 0 0 0 3.22 2.68l1.34 1.05.94.71a132.79 132.79 0 0 0 3.84 2.75l.98.66c.66.44 1.32.86 1.98 1.28a136.16 136.16 0 0 0 3.63 2.18l1.47.83 1.04.57a139.9 139.9 0 0 0 4.25 2.15l1.08.5a103.69 103.69 0 0 0 3.28 1.44l1.11.45 1.92.75a96.73 96.73 0 0 0 19.21 5.12 90.9 90.9 0 0 0 4.82.66c2.83.31 5.7.51 8.6.58 55.85 1.34 100.99-43.56 101.76-97.83v-.32a99.06 99.06 0 0 0-29.48-71.62zm24.06 54.68c.46 2.24.46 2.24-1.31 3.3l-3.69 2.19h.01c1.51.39 2.69.78 3.9 1l.08.01c.28.05.53.11.77.18a2.77 2.77 0 0 1 .78.41c.31.26.5.62.53 1.12.01.25-.01.53-.08.86l-.05.03c-.05.03-.13.06-.2.04-3.08-.97-6.17-1.9-9.21-2.95a4.68 4.68 0 0 1-1.14-.53c-.15-.1-.28-.2-.39-.32a2.28 2.28 0 0 1-.59-1.35 4.22 4.22 0 0 1-.04-.64l.01-.76 1.48-.29v.01c.08.37.15.64.2.92.18.93.68 1.43 1.34 1.41.3-.01.64-.12.99-.36 1.84-1.2 3.66-2.43 5.49-3.64l.01-.01 1.11-.63zm-2.35-9.83.08.09.17.25.12.17.11.21.13.25.07.18.13.32.04.14.12.39.03.15.08.4.02.21a4.4 4.4 0 0 1 .06.96l-.01.28c-.01.18-.04.36-.07.54a4.93 4.93 0 0 1-.54 1.48l-.14.22c-.19.29-.41.57-.66.82l-.3.28c-.17.15-.35.28-.53.41l-.23.15c-.16.1-.32.19-.5.27l-.26.12a7.53 7.53 0 0 1-1.43.45l-.31.06c-.31.05-.63.08-.96.09l-.33.01c-3.01 0-5.13-2.33-5.11-5.62.01-3.01 2.61-5.16 6.23-5.16a5.12 5.12 0 0 1 1.09.11c1.04.21 1.92.71 2.61 1.44l.03.03c.1.1.18.2.26.3zm-2.46-7.8c.31 1.15-.22 2.19-1.25 2.88-.28.19-.59.35-.93.48-1.59.61-3.12.18-3.94-1.24-.58-1-.99-2.09-1.51-3.22l-.46.17-3.32 1.27-.82-2 10.22-4.05c.69 1.93 1.48 3.78 2.01 5.71zm-7.06-14.1c.33-.04.88.43 1.07.79.24.45.47 1.25.24 1.55-2.25 2.9-4.59 5.72-6.98 8.66a5.22 5.22 0 0 1-.89-1.66c-.08-.5.21-.9.89-1.81.18-.25.4-.68.3-.89a26.29 26.29 0 0 0-1.76-3.16c-.12-.18-.48-.24-.82-.25l-.31.01c-.47.05-.83.09-1.11.09-.83 0-.96-.37-1.49-1.88l.88-.12c2.54-.35 5.07-.7 7.6-1.03l2.38-.3zm-7.72-12.41 4.5 6.04c-2.17 1.62-4.32 3.19-6.41 4.82-.37.28-.52.84-.78 1.26l.31.25-1.68 1.25-1.53 1.14-1.09-1.38 1.87-1.52-4.08-5.47-1.93 1.32-1.1-1.38 3.17-2.38.07.32c.69-.04 1.49.14 2.04-.15 1.86-.98 3.62-2.13 5.42-3.23.38-.25.75-.55 1.22-.89zm-15.14-3.24c.06-.15.19-.28.32-.48l.72.37.16.08.7.36c-.14 1.89.27 3.01 1.45 3.33.13.03.27.05.43.05.47-.01 1.03-.18 1.25-.46.89-1.09-.19-1.86-.83-2.88l1.24-.81c.37.23.78.58 1.23.73.45.16.93.12 1.44-.41.32-.34.47-1.17.29-1.61-.31-.76-.86-1.15-1.57-1.18-.32-.01-.67.05-1.04.18l-1.15-1.92.17-.03c.74-.14 1.34-.33 1.92-.3 1.78.1 3.94 2.39 4.03 4.18.09 1.61-.97 2.61-2.79 2.64-.26.01-.53-.01-.82-.04.03.52.11.99.11 1.43 0 .15 0 .29-.02.44-.15 1.23-1.3 2.21-2.59 2.34l-.26.01c-2.62.02-5.36-3.63-4.39-6.02zm-9.61-18.73-5.07 9.71-.48-.26-.93-.5-.5-.27 5.03-9.67 1.95.99zm-9.26-4.81-1.98 3.84c1.15.63 2.27 1.17 3.3 1.84.3.2.57.41.79.65a3.05 3.05 0 0 1 .53 3.6c-.75 1.56-2.4 2.3-3.98 1.59-1.88-.83-3.69-1.83-5.66-2.82l5.08-9.73 1.92 1.03zm-14.46-3.98.44-1.31c1.82.63 3.49 1.2 5.14 1.79.95.34 1.72.85 2.06 1.7.12.28.19.61.2.97.05 1.41-.8 2.2-1.88 2.62.28.86.76 1.69.77 2.52a2.9 2.9 0 0 1-3.46 2.78c-2.12-.51-4.17-1.27-6.35-1.95l3.08-9.12zm-14.58 2.59c.04-3.64 2.24-6.21 5.25-6.14 3.35.08 5.58 2.26 5.5 5.39a7.25 7.25 0 0 1-.9 3.5 4.84 4.84 0 0 1-4.48 2.47c-.4-.01-.79-.05-1.16-.12a4.94 4.94 0 0 1-4.21-5.1zm-11.58 3.18c1.12-1.53 2.17-3.04 3.3-4.49.23-.3.36-.56.39-.84.02-.27-.07-.55-.27-.88-.88-1.42-1.68-2.89-2.54-4.38l.41-.05c1.92-.22 1.98-.11 2.94 1.63.35.64.72 1.27 1.09 1.91 1.48-1.22 1.67-4.27 4.77-2.96l-3.51 4.95 3.27 5.58c-2.02.47-2.36.32-3.31-1.35l-1.41-2.45-1.6 2.18c-1.21 1.68-1.21 1.68-3.53 1.15zm-8.4-9.56c.12-.38.88-.66 1.39-.75l.17-.02c.42-.01.99.14 1.12.39 1.69 3.29 3.3 6.61 4.94 9.95-.94.21-1.46.32-1.83.23h-.01a.58.58 0 0 1-.14-.05c-.39-.17-.63-.61-1.13-1.5-.19-.34-.73-.58-1.15-.66-.49-.1-1.03.09-1.54.05l-.26-.01c-1.28-.03-2.08.42-2.28 1.95-.17 1.28-1.18.84-2.12.94a1.9 1.9 0 0 0-.4.08c1.1-3.71 2.12-7.17 3.24-10.6zm-27.13 5.9c.9-.37 1.37-.16 1.98.49 2.36 2.51 4.76 4.97 7.2 7.5-.86.67-1.62.93-2.3.66a2.56 2.56 0 0 1-1.11-1.02c-.15-.23-.62-.48-.84-.4-1.18.41-2.34.87-3.45 1.42-.21.1-.27.67-.27 1.02.01.71.01 1.16-.1 1.47-.18.51-.69.63-2.06.95v-2.2l-.01-2.17c-.01-1.98-.01-3.97-.08-5.95v-.16c0-.77.18-1.26 1.04-1.61zm-9.69 4.7.5-.25c1.05-.47 2.11-.58 3.12.26 1.11.93 1.23 2.12.57 3.47l.26-.01c.99 0 1.8.23 2.38.89.17.19.32.42.44.68a2.96 2.96 0 0 1-1.15 3.94c-1.72 1.08-3.49 2.05-5.36 3.14l-5.37-9.58 4.61-2.54zm-7.09 4.16 1.1 1.4-2.56 2.01.84 1.16 2.42 3.31 2.07 2.83-1.73 1.31-1.21-1.64-4.18-5.65-2.65 1.85-1.06-1.45c2.32-1.73 4.6-3.4 6.96-5.13zm-12.62 9.99c.1-.13.21-.25.32-.36 1.62-1.7 3.69-2.02 5.51-.78l-.24.36-.53.8-.2.3c-.84 0-1.59-.15-2.26.03-.37.1-.69.28-.95.53-.79.73-1.04 2-.43 3.04a10.8 10.8 0 0 0 2.17 2.51c.95.85 2.11.98 3.21.2.13-.09.25-.19.36-.3.73-.73.77-1.67.39-2.69l-.1-.29-.11-.32 1.83-.84a4.05 4.05 0 0 1-.52 5.31c-.21.22-.45.43-.71.63-2.13 1.64-4.8 1.27-6.95-.96-2.25-2.31-2.55-5.04-.79-7.17zm-6.63 7.25a3.04 3.04 0 0 1 2.13-1.06c.75-.03 1.52.27 2.26.88 1.45 1.2 1.76 2.83.74 4.37-.59.89-1.29 1.71-1.98 2.63l3.1 2.64-1.39 1.67-8.41-7.04c1.22-1.43 2.33-2.81 3.55-4.09zm-8.07 10.38c1.71-2.16 4.36-2.46 7.08-.79 1.99 1.23 3.05 2.97 3 4.77-.02.6-.16 1.2-.43 1.8-1.16 2.52-3.21 3.5-5.78 2.65l.52-2.01c1.5.25 2.9.24 3.56-1.45.11-.28.17-.54.18-.8.02-.78-.43-1.49-1.44-2.37l-1.85 2.78-1.49-.94 1.78-2.89a6.47 6.47 0 0 0-.98-.35c-.91-.23-1.72-.12-2.44.59a2.32 2.32 0 0 0-.75 1.81c.01.4.1.82.25 1.28l.02.1c.04.48-.68 1.2-1.05 1.85a4.18 4.18 0 0 1-1.34-2.9 4.8 4.8 0 0 1 1.16-3.13zm-3.79 6.52 1.65.76-1.37 2.92 8.17 3.98-.93 1.95-1.53-.73-3.85-1.84-2.78-1.33-1.5 2.87-.23-.11-1.01-.48-.36-.17 3.74-7.82zm-6.35 14.42a5.2 5.2 0 0 1 1.22-2.34 3.95 3.95 0 0 1 1.82-1.05c.44-.11.91-.12 1.55-.2l-.04.33-.23 1.78c-.92.25-1.55.54-1.96.94-.41.4-.6.89-.63 1.55-.07 1.27.63 2.22 2.21 2.84.75.29 1.57.5 2.37.6.89.12 1.65-.13 2.17-.74.17-.2.32-.44.44-.72.49-1.13.17-2.11-.77-2.89l-.49-.43 1.18-1.62a3.95 3.95 0 0 1 2.16 4.65 5 5 0 0 1-2.72 3.56c-.61.28-1.3.43-2.04.42a7.18 7.18 0 0 1-4.95-1.94 4.5 4.5 0 0 1-1.29-4.74zm-2.6 9.89.14-.63.3-1.31.04-.19 10.63 2.49a.75.75 0 0 1-.04.16l-.45 1.97-1.35-.32c-3.13-.72-6.17-1.44-9.27-2.17 0 .01 0 0 0 0zm-1.76 10.32 4.27.48.6-4.24-4.24-.63.27-2.13 10.83 1.43-.29 2.13-4.73-.55-.58 4.26 4.68.68-.04.39-.19 1.76-10.79-1.43.21-2.15zm-.39 6.15h10.79v2.06h-10.79v-2.06zm.58 16.23c-.66-3.19-.66-3.18 2.25-4.17l4.03-1.39c.05-.01.07-.08.12-.19a.75.75 0 0 1 .07-.12c-1.92-.38-3.78-.84-5.67-1.08-1.13-.14-1.59-.58-1.55-1.69.02-.59-.06-1.19-.1-1.91l5.44-.37 5.43-.37.18 2-5.65.41-1.85.13-.03.25 4.59.87h.02c.64.12 1.27.29 1.91.32.57.03.89.21 1.08.56l.1.23.04.13c.04.13.06.28.08.45.08.6-.09.89-.39 1.07-.2.12-.46.2-.74.28l-3.11 1.01-3.1 1.02.04.25 1.82-.11 3.69-.22 1.9-.11.23 1.99-1.05.07-9.78.69zm10.2 25.29-3.68 1.69-.93-1.96 9.98-4.66c.82 1.97 1.73 3.86 2.38 5.83.05.16.08.32.09.49.06 1.13-.9 2.26-2.21 2.81-1.52.64-3 .31-3.89-1.02-.64-.98-1.12-2.04-1.74-3.18zm6.43 16.12c-2.13-.09-3.47-1.31-4.32-3.18-.81-1.79-.43-3.34.98-4.87l1.63 1.37c-1.14 1.76-1.2 2.75-.27 3.78.46.51 1.03.76 1.7.74.37-.01.78-.1 1.21-.28l.53-.25-1.72-2.8 1.48-.96 1.86 2.84c1-.83 1.66-1.74 1.29-3.03-.34-1.21-1.18-1.85-2.47-1.87-1.35-.02-.71-1.33-1.48-1.9a4.24 4.24 0 0 1 2.84-.1c.56.2 1.07.55 1.54 1.02 1.41 1.45 2.1 3.16 1.43 5.19-.76 2.34-3.77 4.41-6.23 4.3zm4.58 8.98c-1.64-1.3-2.49-2.99-1.97-5.13.22-.92.78-1.82 1.52-2.6 1.19-1.25 2.84-2.15 4.36-2.19 2.11-.05 3.6 1.07 4.59 2.85.49.89.67 1.78.49 2.66a4.3 4.3 0 0 1-.84 1.76l-.89-.68-.73-.55c.13-.42.31-.81.38-1.22.21-1.23-.87-2.57-2.19-2.77-1.02-.15-2.4.59-3.42 1.59-.79.78-1.37 1.72-1.37 2.53-.01 1.93 1.47 2.76 3.92 2.13l.81 1.9c-1.67.9-3.23.85-4.66-.28zm10.83 10.88-1.59-1.49 6.19-6.68a752 752 0 0 1-3.13-2.94l-6.23 6.66-1.61-1.48 7.47-8 .79.74 5.32 4.98.24.22-7.45 7.99zm6.91 3.63c-.46.25-.9.36-1.3.35-.73-.02-1.38-.41-2-1.01l-.01-.01-.21-.21a4.8 4.8 0 0 1-.21-.23l.89-1.19.51.28c.58.36 1.07.54 1.46.52.65-.03 1.05-.59 1.22-1.7l1.13-7.28a4.11 4.11 0 0 1 1.38.57l.01.01.13.12.01.01.1.13c.26.38.27.9.11 1.69l-.95 4.69a359.3 359.3 0 0 0 3.53-2.27c.73-.47 1.14-.74 1.51-.76.48-.03.89.34 1.83 1.18-3.07 1.72-6.09 3.44-9.14 5.11zm12.35 8.24a2.9 2.9 0 0 1-1.63-.13c-1.92-.94-3.8-1.99-5.76-3.03l5.34-9.59 7.11 3.97-.86 1.58-5.2-2.87-1.24 2.15c1.21.73 2.4 1.4 3.53 2.16a2.86 2.86 0 0 1 1.27 3.05l-.05.25c-.3 1.31-1.13 2.22-2.51 2.46zm9.08 4.79 3.37-8.43-3.05-1.23-1.81 4.42-.5 1.19-.02.05c-1.1 2.48-1.94 2.75-4.46 1.34l-.11-.06.57-1.45c1.38.75 1.86-.05 2.27-1.14.85-2.25 1.78-4.48 2.73-6.87l7.11 2.85-.01.04-3.9 9.73-.16.39-2.03-.83zm7.54 2.49-.52-.15-1.02-.3-.56-.16 1.55-5.22 1.56-5.26.51.15.76.22.82.24c-1.02 3.5-2.04 6.92-3.1 10.48zm11.29 2.4c-.01 0-.01 0 0 0-.01 0-.01.01 0 0-2.46-.02-2.51-.07-2.99-2.03-.22-.88-.41-1.77-.72-2.62-.15-.4-.56-.71-1.02-1.26l-.09.42-.48 2.2-.49 2.28v.01l-2.12-.46 2.21-10.67v-.01l2.11.42-.92 4.87c.71-.43 1.17-.59 1.46-.91.49-.54.84-1.2 1.29-1.78.26-.35.52-.62.78-.83.79-.62 1.65-.62 3.02-.08l-.28 1.32v.01c-.9-.22-1.46-.01-1.88.39-.64.62-.91 1.67-1.48 2.21-.13.13-.28.23-.46.29l2.06 6.23zm9.61-.46c-.2-.68-.5-1.05-1.24-1-.43.03-.88.03-1.29-.08-.76-.21-1.37-.22-1.87.02s-.88.73-1.17 1.54a.42.42 0 0 1-.2.22c-.42.27-1.37.34-1.98.54l-.26-.42 1.67-3.44c.97-1.98 2-3.92 2.87-5.93.22-.5.48-.77.82-.9.27-.1.58-.12.97-.11.95.03 1.21.53 1.44 1.3.99 3.34 2.02 6.65 3.05 10-.42.03-.76.06-1.05.06-1.19.04-1.3-.25-1.76-1.8zm5.37-13.92a79.82 79.82 0 0 1-79.79-79.87c0-44.17 35.81-79.96 79.92-79.87a79.82 79.82 0 0 1 79.79 79.87 79.82 79.82 0 0 1-79.92 79.87zm22.56 12.94-.01.01-.11.04a4 4 0 0 1-.64.2c-1.75.44-3.52.79-5.47 1.23l-2.33-10.7 7.97-1.72.26 1.14.14.6-.78.18-2.53.57-2.48.56.46 2.46.38-.07 1.96-.39.96-.19a3.88 3.88 0 0 1 2.78.36 3.22 3.22 0 0 1 1.44 2.17c.2.91.04 1.73-.44 2.39-.34.48-.87.88-1.56 1.16zm6.08-1.48-3.68-10.31 7.62-2.73.62 1.7-1.49.55-2.02.74-2 .73.78 2.28 5.17-1.8.61 1.68a589.3 589.3 0 0 0-5.15 1.88l.99 2.8 5.74-2 .65 1.68-3.16 1.13c-1.55.54-3.09 1.1-4.68 1.67zm18.68-8.07-1.94.99-4.14-8.11-2.93 1.5c.92 1.85 1.82 3.6 2.67 5.38.42.88.66 1.54.67 2.09.03 1.03-.74 1.61-2.56 2.27-.13-.17-.29-.36-.42-.56l-.09-.17a6.53 6.53 0 0 0-.13-.28l-.14-.33c.74-.3 1.02-.68 1.04-1.11a3.1 3.1 0 0 0-.5-1.46c-1.13-2.08-2.17-4.21-3.32-6.47l5.93-3.04.89-.46 4.97 9.76zm9.53-6.21c-1.47-2.01-2.86-1.22-4.43-.03-.66.5-1.08.94-1.11 1.54-.01.27.05.58.2.94l.1.27c.35 1.23-.96 1.36-1.72 2.08l-2.12-8.91-.01-.04a1.42 1.42 0 0 1-.04-.2c-.06-.31-.1-.62-.23-.89a1.85 1.85 0 0 1-.24-.91c.03-.77.77-1.16 1.49-1.54.23-.12.67-.05.91.11 3.03 1.99 6.03 4.01 9.25 6.16l-1.1.75-.23.16c-.22.17-.46.33-.72.51zm5.75-10.35c-.37.48-.82.89-1.25 1.31-.39.39-.81.75-1.31 1.21l2.72 3.07-1.6 1.48-7.32-8.18c1.13-.98 2.19-1.94 3.27-2.85l.92-.75c1.36-1.07 2.97-.86 4.18.4.73.75 1.1 1.59 1.09 2.42 0 .65-.23 1.29-.7 1.89zm8.94-3.22a2.18 2.18 0 0 1-.37.81l-.21.27-.18.2c-.13.13-.26.26-.41.38l-.47.37-1.13-1.04.19-.21c.18-.21.35-.39.49-.59.67-.97.32-1.97-.81-2.28h-.02c-2.52-.67-5.04-1.31-7.59-1.97h-.02c.63-1.21.9-1.68 1.49-1.71.35-.02.82.12 1.56.34l4.22 1.28.05.01-.01-.03-1.02-1.97-.92-1.77c-.4-.77-.63-1.21-.61-1.57.02-.45.4-.8 1.25-1.55l.13-.11c1.42 3.22 2.83 6.39 4.2 9.57.26.58.3 1.1.19 1.57zm8.51-10.44c-1.08 1.94-3.07 3.01-5.05 2.61a7.18 7.18 0 0 1-4.78-3.28c-1.14-1.78-.93-3.84.48-5.65 1.24-1.59 2.7-2.06 4.74-1.46h.01c-.27.98-.22 2-1.85 1.96-1.75-.04-2.86 2.43-1.65 3.78a10.98 10.98 0 0 0 3.77 2.48c.57.23 1.8-.35 2.28-.93.43-.53.31-1.56.3-2.37 0-.34-.35-.67-.57-1.07l1.59-1.25v.01c1.54 1.69 1.74 3.34.73 5.17zm6.72-12.24c-.79 1.9-1.78 3.71-2.73 5.67l-9.77-4.92.94-1.96 3.9 1.92c.63-1.18 1.16-2.3 1.81-3.35.68-1.11 1.63-1.68 2.68-1.7.35-.01.71.04 1.08.16 1.85.56 2.83 2.38 2.09 4.18zm8.35-35.8h-10.84v-2.14h4.32c.08-.3.13-.58.14-.83.02-.77-.32-1.37-1.01-1.85-.6-.42-1.15-.94-1.79-1.26-1.04-.52-1.62-1.22-1.67-2.25a4.15 4.15 0 0 1 .23-1.52l4.66 3.37c.36-1.26 1.17-2.27 2.75-2.39 1.69-.13 3.09.92 3.19 2.65.06 1.03.07 2.06.06 3.09-.01 1.04-.04 2.08-.04 3.13zm.07-16.03c-.21-1.24.3-2 1.91-2.67-.14.5-.14.89-.33 1.13-.66.81-.74 1.42-.21 2.03l.1.1.03.03c.09.09.2.19.33.28l.09.08c.2.21.32.54.59.96-1.58-.07-2.31-.73-2.51-1.94zm-107.68 109.58zm-49.36-20.93-1.01-.82 1.01.82zm22.39 13.51zm23.27 6.88zm-39.55-15.88z"/><path class="st0" d="M19.71 159.98c-.47-.63-.94-1.26-1.39-1.9l1.39 1.9zm26.7 24.62zm5.1 3.01-1.47-.83 1.47.83zm3.15 1.66zm23.51 8.34zm-13.99-4.15zm41.93-192.04zm-9.31 198.41c55.85 1.34 100.99-43.56 101.76-97.83v-.32.32c-.77 54.27-45.92 99.16-101.76 97.83zm-53.15-48.77c1.1.04 1.86-.26 2.56-1.1.98-1.15 1.92-2.44 3.16-3.23 1.75-1.11 2.45-2.63 2.74-4.51.1-.66.4-1.03 1.17-1.09a15.3 15.3 0 0 0 3.44-.59 29.84 29.84 0 0 1 13.3-1.06c2.01.26 3.86.08 5.55-1.05 1.3-.87 2.51-.8 3.97-.18 3.66 1.57 7.44 2.77 11.47 2.84 1.17.02 2.34-.23 3.48-.36-.08-1.49-.21-2.7-.18-3.91.02-.65-.12-1.07-.45-1.37-.25-.23-.62-.4-1.1-.54-3.66-1.05-7.23-2.39-10.17-4.93-.21-.18-.41-.37-.6-.56-2.78-2.88-2.45-6.56 1.03-8.93 1.65-1.12 3.58-1.87 5.45-2.62 1.43-.58 2.95-.9 4.5-1.36-.2-3.19-.38-6.33-.64-9.46-.01-.12-.1-.25-.23-.37a1.83 1.83 0 0 0-.78-.45c-2.83-.74-5.72-1.28-8.51-2.15a21.35 21.35 0 0 1-4.43-1.92 15.45 15.45 0 0 1-3.76-3.07c-3.2-3.63-3.14-8.69.39-11.99a20.76 20.76 0 0 1 5.44-3.65c2.97-1.35 6.11-2.33 9.21-3.38.75-.26 1.02-.51.96-1.33-.28-3.75-.49-7.5-.73-11.25l-.26-4.03-.47-6.97c-4.41.65-8.59 1.27-12.77 1.86-1.51.21-2.79.67-3.59 2.12-.28.5-.87.82-1.32 1.22-1.25 1.12-2.59 2.17-3.72 3.41-.58.64-.97 1.6-1.11 2.47-.32 2-.49 4.03-.62 6.05-.05.78.06 1.63.32 2.36.7 1.97 1.52 3.91 2.3 5.9l-3 1.63c-.1-1.04-.14-1.85-.28-2.64-.08-.48-.16-1.07-.54-1.29-.17-.1-.41-.12-.74-.03-2.13.6-4.44.94-5.63 3.21-.58 1.11-1.5 1.3-2.58.79-.75-.36-1.27-.08-1.82.46-1.34 1.35-2.73 2.65-4.11 3.95-.9.84-1.84 1.64-2.59 2.32-.79-.49-1.4-1.2-1.96-1.17-3.3.23-6.59.63-10.04.99.16.64.27 1.04.36 1.45 1.65 6.87 4.37 13.34 7.22 19.77.24.54.51 1.13.54 1.71.13 2.5.15 5 .29 7.5.05.89-.27 1.35-1.07 1.64-2.64.96-4.76 2.61-6.75 4.61-1.57 1.58-2.36 2.99-1.51 5.17.26.66.48 1.2 1.05 1.58.08.06.17.11.27.16 1.81.91 3.56 1.92 5.27 2.86.03.2.06.28.04.36l-1.34 6.86c-.29 1.44-.54 2.82-.04 4.32.36 1.08.58 1.75.87 2.17.49.71 1.18.73 3.09.8z"/><path class="st0" d="M65.38 80.9c.14.79.17 1.59.28 2.64-.1-1.04-.14-1.85-.28-2.64-.08-.48-.16-1.07-.54-1.29.38.23.46.81.54 1.29zm29.11 59.85c-.08-1.49-.21-2.7-.18-3.91.02-.65-.12-1.07-.45-1.37.32.3.46.72.45 1.37-.04 1.21.1 2.42.18 3.91-1.14.12-2.32.38-3.48.35-4.03-.07-7.82-1.27-11.47-2.84-1.45-.62-2.67-.69-3.97.18-1.7 1.13-3.54 1.31-5.55 1.05a29.84 29.84 0 0 0-13.3 1.06c-1.1.36-2.28.49-3.44.59-.77.06-1.07.43-1.17 1.09-.3 1.88-1 3.4-2.74 4.51-1.24.79-2.19 2.07-3.16 3.23a2.87 2.87 0 0 1-2.56 1.1c-1.91-.07-2.6-.09-3.08-.77.48.69 1.18.71 3.09.78 1.1.04 1.86-.26 2.56-1.1.98-1.15 1.92-2.44 3.16-3.23 1.75-1.11 2.45-2.63 2.74-4.51.11-.66.4-1.03 1.17-1.09a15.3 15.3 0 0 0 3.44-.59 29.84 29.84 0 0 1 13.3-1.06c2.01.26 3.86.08 5.55-1.05 1.3-.87 2.51-.8 3.97-.18 3.66 1.56 7.44 2.77 11.47 2.84 1.16.02 2.33-.23 3.47-.36zm-3.87-61.98c.06.83-.21 1.08-.96 1.33-3.1 1.05-6.24 2.03-9.21 3.38a20.6 20.6 0 0 0-5.44 3.65c-3.53 3.29-3.59 8.36-.39 11.99-3.2-3.63-3.14-8.69.39-11.99a20.76 20.76 0 0 1 5.44-3.65c2.97-1.35 6.11-2.33 9.21-3.38.75-.25 1.02-.5.96-1.33-.28-3.74-.49-7.5-.73-11.24l-.27-4.03.26 4.03c.25 3.74.46 7.5.74 11.24zm-54.86 54.95c-.1-.05-.19-.1-.27-.16l.27.16c1.81.91 3.56 1.92 5.27 2.86-1.71-.94-3.46-1.95-5.27-2.86zm57.22-17.18c-1.55.46-3.08.78-4.5 1.36-1.87.76-3.8 1.5-5.45 2.62-3.48 2.37-3.81 6.05-1.03 8.93-2.78-2.88-2.45-6.56 1.03-8.92 1.65-1.12 3.58-1.87 5.45-2.62 1.42-.58 2.95-.91 4.5-1.37-.2-3.18-.37-6.33-.64-9.46-.01-.12-.1-.25-.23-.37.13.12.22.25.23.37.26 3.13.43 6.28.64 9.46zm49.69-36.52c-1.28.62-2.58 1.26-3.95 1.6-7.26 1.86-14.53 3.68-21.82 5.4-3.51.83-7.07 1.42-10.67 2.13l-.74 11.35c.39.12.72.21 1.04.32 2.83 1.03 5.75 1.89 8.46 3.17a25.3 25.3 0 0 1 5.43 3.67c1.66 1.4 2.01 3.35 1.36 5.45-.13.43-.29.85-.48 1.24l-.14.26c-.05.1-.1.21-.16.3a6.6 6.6 0 0 1-2.21 2.31c-1.38.86-2.83 1.7-4.37 2.2-2.82.92-5.7 1.71-8.6 2.32-.97.21-1.5.54-1.74 1.18-.11.29-.15.65-.16 1.08a74.36 74.36 0 0 1-.36 6.33c-.08.89.21 1.16 1.04 1.39 2.76.76 5.47 1.67 7.62 3.66a4.62 4.62 0 0 1 1.27 5.24 5.32 5.32 0 0 1-1.1 1.67l-.74.81 6.44 2.71c.73.31 1.23.18 1.69-.58 1.1-1.83 2.32-3.59 3.56-5.49 1.15 1.71 2.19 3.28 3.25 4.84a3.1 3.1 0 0 0 4.64.45c.93-.93 1.82-1.9 2.42-2.53 1.19.38 2.02.76 2.88.9 1.32.21 2.66.32 4 .34.89.01 1.42.37 1.91 1.05.76 1.04 1.61 2.01 2.5 3.1l4.31-4.03c-.88-1.68-1.78-3.25-2.52-4.89a3 3 0 0 1-.15-2.02c1.24-3.36 2.61-6.66 3.88-10.01v-.01c.28-.74.72-.95 1.43-1.03 1.54-.16 3.06-.4 4.72-.63-.11-.57-.07-.99.08-1.32.32-.72 1.18-.95 2.1-1.18 1.6-.4 3.16-.94 4.87-1.47l-5.44-6.5.01-.01 2.73-3.36c-1.3-.89-2.47-1.79-3.72-2.51-.84-.48-1.08-1.04-.76-1.82l.07-.16.07-.15c.3-.75-.07-1.18-.69-1.65-1.6-1.23-3.14-2.53-4.59-3.7l.01-.01c.79-1.73 1.55-3.27 2.19-4.86.32-.81.7-1.05 1.61-1 1.29.08 2.61-.28 3.55 1.06.22.32.85.5 1.29.5 1.38.01 2.76-.08 4.14-.17.23-.01.49-.18.66-.36l8.07-8.78c-1.4-.99-2.65-1.83-3.85-2.74-.91-.69-2.41-1.05-1.69-2.81.09-.22-.5-.71-.78-1.08-.02-.03-.08-.03-.12-.04-2.59-.47-5.15-1.58-7.82-.3-.43.2-.97.19-1.63.3 0-1.85.03-3.52-.02-5.19-.01-.41-.18-1.03-.47-1.19-1.83-1.02-3.71-1.94-5.68-2.95l-.26.78c-1.43 3.8-4.49 5.79-7.87 7.42z"/><path class="st0" d="M163.66 121.31h.01l-5.44-6.5-.01.01c1.78 2.1 3.54 4.21 5.44 6.49zm-50.16 19.3a5.28 5.28 0 0 1-1.1 1.66l-.75.82.74-.81c.5-.51.87-1.08 1.11-1.67zm33.07-3.66c-.21.59-.12 1.43.15 2.02.74 1.64 1.64 3.21 2.52 4.89l.01-.01c-.88-1.68-1.79-3.25-2.53-4.9a3 3 0 0 1-.15-2.02c1.23-3.35 2.61-6.65 3.88-10-1.27 3.36-2.65 6.66-3.88 10.02zm-40.75-15.22c2.9-.61 5.78-1.4 8.6-2.32 1.53-.5 2.99-1.34 4.37-2.2a6.6 6.6 0 0 0 0-.02c-1.38.86-2.83 1.7-4.37 2.2-2.82.93-5.7 1.71-8.6 2.32-.98.21-1.51.54-1.74 1.19.24-.63.77-.96 1.74-1.17zm50.79 3.55zm-.68-20.14c.62.47.99.91.69 1.65.31-.75-.07-1.19-.69-1.67-1.6-1.22-3.14-2.52-4.59-3.7l-.01.01c1.47 1.19 3.01 2.49 4.6 3.71zm-17.2-23.51c1.37-.35 2.67-.99 3.95-1.6 3.38-1.63 6.44-3.62 7.85-7.41-1.42 3.78-4.47 5.76-7.84 7.4-1.28.62-2.58 1.26-3.95 1.6-7.26 1.86-14.53 3.68-21.82 5.4-3.51.83-7.08 1.42-10.68 2.13v.01c3.6-.71 7.16-1.3 10.67-2.13 7.29-1.73 14.56-3.55 21.82-5.4zm18.51 27.3c1.26.72 2.42 1.62 3.72 2.51l.01-.01c-1.31-.89-2.47-1.79-3.73-2.51-.84-.48-1.08-1.04-.76-1.81-.32.78-.08 1.34.76 1.82zm-.31-32.95c.05 1.67.02 3.35.02 5.19.66-.12 1.2-.1 1.63-.3 2.67-1.28 5.23-.17 7.82.3.04.01.1.01.12.04.28.36.87.86.78 1.08-.72 1.76.78 2.12 1.69 2.81 1.2.91 2.45 1.75 3.85 2.74-1.39-.99-2.65-1.83-3.84-2.75-.91-.69-2.41-1.05-1.69-2.81.09-.22-.5-.71-.78-1.08-.02-.03-.08-.03-.12-.04-2.59-.47-5.15-1.58-7.82-.3-.43.21-.97.19-1.63.3 0-1.85.03-3.52-.02-5.19-.01-.41-.18-1.03-.47-1.19-1.83-1.02-3.71-1.95-5.68-2.95v.01c1.97 1.01 3.85 1.93 5.68 2.95.29.16.45.78.46 1.19zm-35.77 38.62.14-.26-.14.26z"/><path class="st0" d="M149.49 67.61a17.22 17.22 0 0 0-2.47-5.19c-1.97-2.81-4.85-4.64-7.85-6.22-6.47-3.41-13.45-5.32-20.57-6.73-3.11-.61-6.24-1.06-9.48-1.61l-.11 2.11-.33 6.34.12.03.56.13c5.53 1.19 11.02 2.51 16.19 4.86 1.63.75 3.24 1.66 4.64 2.78 2.2 1.75 2.41 3.94.68 5.72-.25.25-.54.5-.86.74a13.92 13.92 0 0 1-4.23 2.17 396.22 396.22 0 0 1-15.53 3.92c-7.65 1.79-15.36 3.35-22.98 5.27-3.96 1-7.79 2.56-10.94 5.34l-.36.33c-3.59 3.46-3.59 8.26.29 11.55a26.48 26.48 0 0 0 6.42 3.73 31.53 31.53 0 0 0 9.6 2.37c-.15-2.45-.26-4.76-.46-7.07-.02-.28-.46-.63-.78-.77-1.14-.49-2.39-.77-3.45-1.38-1.12-.65-1.34-1.55-.68-2.34l.07-.08.09-.1a9.58 9.58 0 0 1 3.44-1.78 1246.1 1246.1 0 0 1 18.09-4.17c8.87-2 17.76-3.88 26.61-6 2.89-.69 5.7-1.69 8.3-3.16h.01c.86-.49 1.7-1.03 2.51-1.63.49-.36.93-.74 1.33-1.14a7.71 7.71 0 0 0 2.13-8.02z"/><path class="st0" d="M130.19 64.11a22.92 22.92 0 0 0-4.64-2.78c-5.17-2.36-10.66-3.67-16.19-4.86l-.56-.13.55.13c5.53 1.19 11.02 2.51 16.19 4.86 1.64.75 3.25 1.67 4.65 2.78 2.2 1.75 2.41 3.94.68 5.72 1.73-1.78 1.52-3.97-.68-5.72zm13.34 14.29c.86-.49 1.7-1.03 2.51-1.63a11.63 11.63 0 0 0 .01 0c-.82.6-1.66 1.14-2.52 1.63zm-67.26 20.75c-3.88-3.29-3.88-8.1-.29-11.55-3.6 3.45-3.59 8.26.29 11.55a26.48 26.48 0 0 0 6.42 3.73 31.46 31.46 0 0 1 .01 0c-2.27-1-4.57-2.15-6.43-3.73zm10.73-5.55-.07.08.07-.08zm22.13-45.73-.11 2.11.11-2.11zm-.51 39.69a1246.1 1246.1 0 0 0-18.09 4.17 9.91 9.91 0 0 0 0 .01c6.02-1.46 12.05-2.82 18.09-4.18 8.87-2 17.76-3.88 26.6-5.99a31.78 31.78 0 0 0 0-.01c-8.84 2.12-17.73 4-26.6 6zm-19.03-41.83c.4 5.86.73 11.71 1.1 17.57l.04.57.41 6.38.6 9.18 14.26-3.09 2.01-32.15a42.8 42.8 0 0 0-17.37-.47c-.84.15-1.09.41-1.09 1.09l.01.32.03.6z"/><path class="st0" d="m91.75 79.43 14.26-3.09 2.01-32.16-2.01 32.15c-4.78 1.05-9.45 2.06-14.26 3.1zm-1.05-16.13.03.57.41 6.38-.41-6.38-.03-.57zm-1.14-18.16.04.59-.04-.59-.01-.32c-.01.09 0 .2.01.32zm-6.63-9.61c-.63-2.02.12-3.66 1.68-4.94 2.27-1.88 5.02-2.64 7.84-3.12l.05-.01-.05.01c-2.82.47-5.57 1.24-7.84 3.12-1.56 1.28-2.31 2.91-1.68 4.94zm16.06-8.78c-2.17.23-4.35.36-6.5.71 2.15-.35 4.33-.48 6.5-.71z"/><path class="st0" d="M109.78 28.72a29.4 29.4 0 0 0-9.4-1.89l-1.39-.07c-2.17.23-4.35.36-6.5.72l-.05.01c-2.82.47-5.57 1.24-7.84 3.12-1.55 1.28-2.31 2.92-1.68 4.94.12.38.25.74.4 1.1a15.07 15.07 0 0 0 5.19 6.31c.13.1.33.13.55.12.22-.01.45-.05.64-.09a39.01 39.01 0 0 1 17.95-.05l.1.02c.49.08 1.17-.02 1.48-.32 1.25-1.18 2.54-2.37 3.53-3.76 3.19-4.47 2.09-8.09-2.98-10.16z"/><path class="st0" d="M94.05 42.19c4.53-.55 9.06-.31 13.59.73l.1.02-.1-.02a38.94 38.94 0 0 0-13.59-.73zm-5.54.75c.13.1.33.13.55.12-.21 0-.41-.03-.55-.12zm47.46-5.49c-2.03-1.14-4.21-2.03-6.16-3.29-1.98-1.28-3.76-1.28-5.91-.39-2.68 1.11-5.54 1.82-8.3 2.74-.26.09-.51.42-.63.69a14.44 14.44 0 0 1-4.5 5.76c-1.43 1.06-1.51 2.31-1.42 3.85 10.56 1.34 20.86 3.46 30.36 8.15 1.28-3.35.77-6.18-2.4-8.45l.21-.17a3.8 3.8 0 0 0 1.28-1.93c.31-1.19-.12-2.41-.65-3.65-.27-.63-.37-1.35-.69-1.94-.16-.3-.36-.6-.59-.87a2.32 2.32 0 0 0-.6-.5z"/><path class="st0" d="M137.85 40.76c.53 1.24.96 2.46.65 3.65.31-1.19-.12-2.42-.65-3.65-.27-.63-.37-1.34-.69-1.94a4.22 4.22 0 0 0-.01 0c.33.59.43 1.31.7 1.94zm1.56 14.2c-9.49-4.69-19.79-6.81-30.36-8.15 10.57 1.34 20.87 3.46 30.36 8.15 1.28-3.35.77-6.18-2.4-8.45 3.17 2.27 3.68 5.1 2.4 8.45zm-46.38 73.78c-.89-.6-1.89-1.05-2.73-1.71-1.04-.82-.96-1.71.2-2.37.82-.46 1.71-.85 2.62-1.07 3.72-.91 7.48-1.66 11.18-2.62 3.91-1.02 7.81-2.12 11.65-3.39a7.33 7.33 0 0 0 4.33-3.71c1.18-2.33.95-4.11-.98-5.83a19 19 0 0 0-3.38-2.37c-.68-.38-1.37-.73-2.07-1.06a43.51 43.51 0 0 0-7.24-2.6l-1.13-.3-.12 1.67-.39 5.43c1.5.46 2.91.74 4.17 1.36.26.13.53.33.78.56l.02.02.06.06.06.06.03.03.08.09.08.1.03.04c.24.31.42.65.44.96.04.58-.85 1.43-1.53 1.81-.96.54-2.07.87-3.16 1.1-1.8.39-3.61.77-5.42 1.14-2.31.48-4.62.95-6.92 1.46l-1.29.29c-3.2.73-6.38 1.61-9.04 3.68-2.58 2-2.83 4.93-.51 7.16 3.1 2.99 7.09 4.22 11.24 5.44-.1-1.65-.15-3.12-.32-4.57-.04-.31-.43-.65-.74-.86z"/><path class="st0" d="M110.27 111.14a.14.14 0 0 1-.03-.04l.03.04z"/><path class="st0" d="M115.95 117.58a7.33 7.33 0 0 0 4.33-3.71c1.18-2.33.95-4.11-.98-5.83a19.37 19.37 0 0 0-3.38-2.37 31.24 31.24 0 0 0-.01 0 18.5 18.5 0 0 1 3.38 2.37c1.93 1.73 2.16 3.51.98 5.83a7.34 7.34 0 0 1-4.32 3.71 189.07 189.07 0 0 1-11.65 3.39c-3.7.97-7.46 1.72-11.18 2.62-.91.22-1.81.61-2.62 1.07-1.16.66-1.24 1.55-.2 2.37.84.66 1.84 1.11 2.73 1.71.31.21.71.56.74.88.16 1.45.21 2.92.32 4.57-.11-1.66-.15-3.12-.32-4.57-.04-.32-.43-.67-.74-.88-.89-.6-1.89-1.05-2.73-1.71-1.04-.82-.96-1.7.2-2.37a10.5 10.5 0 0 1 2.62-1.08c3.72-.91 7.48-1.66 11.18-2.62 3.91-1.02 7.81-2.11 11.65-3.38zm-6.05-6.84.02.02-.02-.02zm.14.14-.06-.06.06.06zm.12.13-.08-.09.08.09zm-4.69-9.29zm-.51 7.1zm-11.28 8.8c2.3-.51 4.61-.98 6.92-1.46-2.31.48-4.62.95-6.92 1.46zm-46.74-46.12 1.72-.22c-.57.06-1.14.14-1.72.22zm-.83-1.76c-.53.02-1.48-.13-1.54-.38.06.24 1.01.4 1.54.38z"/><path class="st0" d="M64.56 60.92c7.72-3.61 16.04-4.47 24.56-5.36l-.46-6.81-.05-.76c-4.84 1.04-9.51 1.86-14.08 3.07a76.58 76.58 0 0 0-8.41 2.76 81.63 81.63 0 0 0-19.66 11.18 5.9 5.9 0 0 0-1.86 1.93c-.22.48-.24 1.1-.16 1.69.03.25.08.5.14.74.06.24 1.01.4 1.54.38 1.54-.06 3.06-.21 4.56-.48 1.84-.33 3.63-.84 5.38-1.59.81-.35.95.08 1.02.73a27.44 27.44 0 0 1-7.78 2.24l-.63.63c2.5-.33 5.01-.64 7.48-1.11 2.45-.47 4.85-1.24 6.86-2.86a5.4 5.4 0 0 0 2.01-2.87c.25-1.05.1-2.21-.46-3.51zm-13.92 6.16c-.83-.03-1.59-.27-1.61-1.28l.01-.07.01-.09.01-.04c.14-.68 1.03-1.28 2.05-1.42l.17-.02.32-.01c.71.07 1.51.21 1.5 1.26-.01.87-1.28 1.71-2.46 1.67zm38.02-18.33.46 6.81-.46-6.81z"/><path class="st0" d="M57.07 68.4c-.08-.65-.22-1.08-1.02-.73.81-.35.95.08 1.02.73zm-10.13 3.1 1.72-.23.63-.63-3.67.58c.46.24.9.33 1.32.28zm16.07-4.2c-2.01 1.62-4.41 2.39-6.86 2.86-2.48.47-4.98.79-7.48 1.11 2.5-.33 5.01-.64 7.49-1.11 2.44-.47 4.84-1.24 6.85-2.86zm1.55-6.38c7.72-3.61 16.04-4.46 24.56-5.36-8.52.89-16.84 1.74-24.56 5.36zm60.38 10.99a15.42 15.42 0 0 0 4.76-2.5c1.61-1.18 1.67-2.83.22-4.12l-.16-.14-.07-.06a15.57 15.57 0 0 0-4.29-2.61h-.01a165.93 165.93 0 0 0-8.19-2.7l-3.3-1.01-1.65-.51c-.47-.14-.94-.26-1.43-.37-.49-.11-.99-.2-1.5-.3l-1.04-.21-1.23 19.08c6.15-1.54 12.05-2.93 17.89-4.55zm-7.75-12.12zm-6.38-1.89zm-1.5-.3zm4.58 1.17 3.3 1.01-3.3-1.01z"/><path class="st0" d="m129.91 65.29-.16-.14-.07-.06.07.06.16.14zm-4.52-2.81h-.01.01zm-31.69 29.33c-.54.11-.86.29-1.01.6-.12.24-.15.55-.12.98.3 3.75.5 7.5.74 11.25l.78 11.71 9.4-1.87 1.61-25.19-1.85.41c-3.25.73-6.39 1.45-9.55 2.11z"/><path class="st0" d="M93.31 104.63c-.24-3.75-.44-7.5-.74-11.25-.03-.42-.01-.74.12-.98-.12.24-.15.56-.12.98.3 3.75.5 7.5.74 11.25l.77 11.71 9.41-1.87-9.4 1.87-.78-11.71zm11.79-15.35-1.85.41 1.85-.41zm-13.12 58.51a9.3 9.3 0 0 1 2.29-.86c3.97-.97 7.98-1.81 11.92-2.9a18.38 18.38 0 0 0 4.92-2.18 3.64 3.64 0 0 0 1.31-1.43 3.3 3.3 0 0 0-.49-3.75c-2.25-2.47-5.33-3.28-8.49-4.15l-.01.16-.24 3.57-.05.73c.69.31 1.27.5 1.78.81.68.4 1.02.9 1.04 1.41.01.51-.31 1.01-.97 1.42-.69.42-1.48.73-2.26.92-2.55.62-5.16 1.03-7.68 1.77-2.38.7-4.81 1.44-6.95 2.65-1.3.74-1.93 1.78-1.9 2.82.03 1.04.71 2.06 2.03 2.76 1.87.99 3.92 1.63 6.01 2.4l.9.34c.37-1.83.12-2.81-1.49-3.07a4.88 4.88 0 0 1-1.75-.81c-.61-.39-.92-.87-.91-1.34.03-.46.35-.92.99-1.27z"/><path class="st0" d="M91.92 150.41c.54.34 1.14.71 1.75.81 1.61.26 1.86 1.24 1.49 3.07.38-1.83.12-2.81-1.49-3.07a4.98 4.98 0 0 1-1.75-.81c-.61-.39-.92-.87-.91-1.34-.01.47.29.95.91 1.34zm11.23-13.41.05-.73-.05.73zm8.79-.32c-2.25-2.47-5.33-3.28-8.49-4.15l-.01.16.01-.16c3.16.88 6.24 1.69 8.49 4.15zm-23.82 9.3c2.14-1.21 4.57-1.95 6.95-2.65 2.52-.74 5.12-1.15 7.68-1.77.79-.19 1.57-.5 2.26-.92.67-.41.99-.91.97-1.42.01.51-.31 1.01-.97 1.42-.69.42-1.48.73-2.26.92-2.55.62-5.16 1.03-7.68 1.77-2.38.7-4.82 1.44-6.95 2.65-1.3.73-1.93 1.78-1.9 2.82-.03-1.04.59-2.09 1.9-2.82zm7.31-8.24.27 4.28 6.1-1.32 1.17-18.31a2297 2297 0 0 0-8.4 1.86l.86 13.49zm.27 4.28-.27-4.29.27 4.29zm-1.13-17.77 8.4-1.86-8.4 1.86zm1.54 24.26c.13 1.72.2 3.45.31 5.17l.24 3.73.42 6.35 1.33-.2h.02c1.94-.33 1.94-.34 2.06-2.32l.83-13.44c.03-.42 0-.85 0-1.38l-2.01.47-.45.1c-.64.15-1.27.28-1.91.39h-.02c-.7.14-.87.47-.82 1.13z"/><path class="st0" d="m98.41 163.56-1.33.2c.59-.08.96-.13 1.33-.2zm2.92-15.76-.83 13.44c-.12 1.98-.12 1.99-2.06 2.32 1.94-.33 1.94-.34 2.06-2.32l.83-13.44c.03-.42 0-.85 0-1.38l-2.01.47 2.01-.47c0 .54.03.96 0 1.38zm-2.45-.81c-.64.15-1.27.28-1.91.39h-.02.02c.63-.11 1.27-.24 1.91-.39zm-10.97-103.02c-.33-.4-.69-.78-1.06-1.16a47.46 47.46 0 0 0-2.05-1.93l-.89-.81-.61-.57c-1.94 2.42-3.96 4.88-5.89 7.41-.45.59-.58 1.44-.92 2.33l12.27-2.26c-.27-1.07-.25-2.3-.85-3.01z"/><path class="st0" d="M83.31 39.5c-1.94 2.42-3.96 4.88-5.89 7.41-.45.6-.58 1.44-.92 2.34.34-.9.46-1.74.92-2.33 1.93-2.54 3.96-5 5.89-7.42zm1.5 1.38c.71.64 1.4 1.27 2.05 1.93-.65-.66-1.35-1.29-2.05-1.93zm21.88 120.57a6.17 6.17 0 0 0-4.47-6.93c-.22 1.19-.22 1.19.72 2.21 2.69 2.95 2.09 5.65-1.59 7.17-.4.16-.81.34-1.23.4-2.04.27-4.08.5-6.09.74 2.9.63 5.89.9 8.88.04.25-.07.51-.15.76-.24a4.21 4.21 0 0 0 3.02-3.39z"/><path class="st0" d="M102.22 154.53a6.16 6.16 0 0 1 4.47 6.93c-.31 1.75-1.4 2.83-3.02 3.4 1.61-.57 2.71-1.65 3.02-3.4a6.15 6.15 0 0 0-4.47-6.93zm-2.64 20c.22-2.56.36-5.13.53-7.78h-2.82a664.4 664.4 0 0 0 .5 7.75c.01.12.15.27.34.39.16.11.35.19.5.21l.06.01c.3 0 .87-.35.89-.58zm-.9.57-.06-.01.06.01z"/><path class="st0" d="M97.79 174.5c.01.12.15.27.34.39-.19-.12-.33-.27-.34-.39zm11.15-61.63c.75-.33.94-.82.57-1.23a1.67 1.67 0 0 0-.58-.38c-1.22-.52-2.52-.84-4.03-1.33l-.04.57-.07 1.1-.03.54-.11 1.65-.04.58.6-.2c1.37-.44 2.56-.79 3.69-1.28l.04-.02zm-.01-1.61z"/><path class="st0" d="M104.91 109.93c1.51.49 2.81.81 4.03 1.33-1.22-.52-2.52-.84-4.03-1.33zm4.03 2.94-.03.01c-1.14.49-2.33.83-3.69 1.28 1.37-.44 2.56-.79 3.69-1.28l.03-.01zm-20.68-19.04c-.3.16-.48.35-.55.54-.11.32.09.65.6.88 1.04.47 2.13.82 3.4 1.29l-.28-4.17c-1.16.53-2.2.93-3.17 1.46z"/><path class="st0" d="M88.26 93.83c.97-.53 2.01-.93 3.17-1.45-1.16.52-2.2.92-3.17 1.45-.3.16-.48.35-.55.54.07-.19.25-.38.55-.54zm3.17-1.46.28 4.17-.28-4.17zm1.95 32.21-1.77.73-.83.34-.46.19 3.34 2-.15-2.98-.02-.31c-.04 0-.07.02-.11.03zm.11-.04.02.31-.02-.31zm-1.88.77 1.77-.73-1.77.73zm-.84.34.83-.34-.83.34zm77.28-77.2 1.4 1.87 4.59-3.42 1.27-.95-1.88-2.49-6.32 3.7c.3.43.62.86.94 1.29zm5.98-1.54-4.59 3.42 4.59-3.42z"/><path class="st0" d="m167.09 47.17.95 1.28-.95-1.28 6.32-3.7-6.32 3.7zm-38.99-28.31h.09c.47-.01 1.2-.49 1.32-.88.15-.45-.17-1.36-.56-1.59-.97-.57-2.1-.87-3.3-1.33l-.83 2.49-.12.37c1.26.37 2.31.81 3.4.94zm-3.4-.94c1.26.37 2.31.81 3.4.94h.09-.09c-1.09-.13-2.14-.57-3.4-.94zm.95-2.87-.83 2.49.83-2.49zm3.72-.79c.41.05 1.1-.47 1.27-.89.11-.28-.16-.92-.47-1.2l-.13-.1c-.92-.48-1.95-.74-3.01-1.11l-.71 2.14-.1.31.41.12c.95.29 1.84.62 2.74.73z"/><path class="st0" d="m130.04 12.07.13.1a.3.3 0 0 0-.13-.1c-.92-.48-1.95-.74-3.01-1.12l-.71 2.14.71-2.14c1.06.38 2.1.64 3.01 1.12zm-73.04 9.88-1.3.65-1.7.88.21.36 1.31 2.23c1.03-.6 1.94-1.09 2.8-1.65.47-.3.77-.69.76-1.17 0-.22-.07-.45-.22-.7-.44-.74-1.07-.98-1.86-.6z"/><path class="st0" d="M57 21.95c.79-.38 1.42-.14 1.85.61-.42-.75-1.06-.99-1.85-.61zm-4.41-2.66-.7.39 1.26 2.26c1.01-.6 1.95-1 2.67-1.64.26-.24.41-.78.39-1.23a1.18 1.18 0 0 0-.08-.4c-.12-.31-1.05-.56-1.48-.42l-.35.13c-.35.14-.69.32-1.03.51l-.68.4zm3.54-.61zm-1.83-.29zm-1.71.9.68-.39-.68.39zm68.81 170.84c-.03-.38-.87-.97-1.35-.97-1.13.01-2.25.31-3.43.5l.12.52.53 2.39.86-.2c.57-.12 1.12-.23 1.65-.4.26-.08.52-.17.76-.29.47-.19.91-1.03.86-1.55z"/><path class="st0" d="M121.4 190.13c-.03-.38-.87-.97-1.35-.97.48 0 1.32.59 1.35.97zm-4.66.06-.12-.52.12.52zm-.11-.52c1.18-.19 2.3-.5 3.43-.5-1.13 0-2.26.31-3.43.5zm-61.32-6.59c.45.01.86-.2 1.17-.72.52-.88.05-1.5-.63-1.96-.84-.56-1.74-1.03-2.7-1.59l-.37.66-1.06 1.91c1.02.55 1.87 1.05 2.75 1.47.29.14.57.22.84.23z"/><path class="st0" d="M55.31 183.08a2.08 2.08 0 0 1-.84-.23c-.89-.42-1.73-.92-2.75-1.47 1.02.55 1.87 1.05 2.75 1.47.29.14.57.22.84.23zm-2.16-4.27-.37.66.37-.66zm139.36-78.4-.02-.3c-.05-.38-.18-.69-.44-.9a1.38 1.38 0 0 0-.8-.27c-.99-.07-1.43.51-1.48 1.39l-.03.73v.74l.01.75.01.77h2.75v-2.91zm.01 2.91v-2.91 2.91zm-2.76-.77-.01-.75.01.75zm-1.39-21.73c1.39-.61 1.9-1.84 1.57-3.31a2.66 2.66 0 0 0-2.18-2.11l-.2-.05-.19-.03-.14-.02-.18-.02a4.63 4.63 0 0 0-.54-.03c-.43.14-1.27.31-2.08.64l-.34.16a2.75 2.75 0 0 0-1.47 3.25c.34 1.32 1.31 2.21 2.64 2.24l.27-.01a8.6 8.6 0 0 0 2.84-.71z"/><path class="st0" d="M182.6 79.3a2.72 2.72 0 0 1 1.47-3.25l.34-.16-.35.16a2.73 2.73 0 0 0-1.46 3.25c.34 1.32 1.3 2.21 2.64 2.24-1.33-.03-2.3-.92-2.64-2.24zm5.15-3.9.1.02-.1-.02zm-.39-.08.19.03-.19-.03zm-.32-.04.18.02-.18-.02zm-69.93-66.88c-1.23-.44-2.58-.17-3.28.81a4.94 4.94 0 0 0-.86 4.52c.35 1.2 1.24 1.84 2.45 2 1.18.15 2.19-.28 2.73-1.33.46-.89.69-1.91 1.02-2.87l-.08-.59c-.26-1.31-.87-2.14-1.98-2.54z"/><path class="st0" d="M115.42 15.73c-1.21-.15-2.1-.79-2.45-2 .35 1.21 1.24 1.85 2.45 2 1.18.15 2.19-.28 2.73-1.33.46-.89.69-1.91 1.02-2.88-.33.96-.56 1.98-1.02 2.87-.55 1.05-1.56 1.49-2.73 1.34zm34.41 160.86 2.48-1.7-3.55-2.51 1.07 4.21zm2.48-1.7zm27.9-119.79-4.3.7 1.49 2.59 2.81-3.29z"/><path class="st0" d="m177.41 58.39-1.49-2.59 1.49 2.59 2.81-3.3-2.81 3.3zm-85.78 129.32-1.63 3.53 2.96.29-1.04-3.83c-.1.02-.19.01-.29.01zm1.33 3.83-1.04-3.83 1.04 3.83zm-.94-183.72-1.16 4.13 3-.19-1.84-3.94zm0 0 1.84 3.94-1.84-3.94zm-1.16 4.13 3-.19-3 .19zm-26.38 5.18.07 1.56 2.74-1.16-2.94-3.14.13 2.74zm2.81.39-2.94-3.14 2.94 3.14zm69.43 1.76-1.36 2.63 1.48.74.72.36.72.34c.75.35 1.5.18 1.77-.52l.04-.09c.1-.35.02-.87-.16-1.28a1.48 1.48 0 0 0-.31-.46c-.83-.7-1.88-1.14-2.9-1.72zm0 0c1.03.59 2.07 1.02 2.9 1.72-.83-.7-1.88-1.14-2.9-1.72zm3.33 3.54.04-.09-.04.09zm-3.21-.18-1.48-.74 1.48.74zm46.4 116.81c-.01 0-.01 0 0 0-.33-.21-1.31.08-1.61.46-.68.85-1.12 1.9-1.7 2.96l2.66 1.34c.5-1.09 1.1-2.05 1.37-3.1v-.02c.11-.49-.29-1.36-.72-1.64z"/><path class="st0" d="M183.23 139.45c-.33-.21-1.31.08-1.61.46-.68.86-1.12 1.9-1.7 2.96.59-1.05 1.03-2.1 1.7-2.96.31-.38 1.28-.67 1.61-.46zm.72 1.65c-.26 1.05-.87 2.01-1.37 3.1.51-1.08 1.11-2.05 1.37-3.1zm-153.61-101.45c-.81-.67-1.61-.41-2.27.31-.47.5-.89 1.04-1.43 1.67l2.42 1.99c.5-.62.95-1.14 1.35-1.69.28-.38.47-.78.49-1.17.02-.39-.14-.76-.56-1.11z"/><path class="st0" d="m29.06 43.62-2.42-1.99 2.42 1.99c.5-.62.95-1.14 1.35-1.68a2.09 2.09 0 0 1 0-.01c-.4.56-.85 1.07-1.35 1.69zm130.82 122.8c.25-.49.21-1.44-.12-1.81a1.06 1.06 0 0 0-.23-.17 2.14 2.14 0 0 0-1.55-.09c-.14.06-.27.13-.4.22-.58.36-1.09.92-1.72 1.43l2.24 2.43c.68-.73 1.41-1.28 1.78-2.01zm-.35-1.97zm-1.43 3.99-2.24-2.43 2.24 2.43zm-139.81-29.57c.34.36 1.24.56 1.67.36h.01l.07-.04c.4-.25.79-1.02.73-1.47-.13-.88-.63-1.71-1-2.64l-.38.18-.73.35-1.77.84c.49.89.8 1.78 1.4 2.42zm.37-3.26.73-.35-.73.35z"/><path class="st0" d="M18.29 138.87c.34.36 1.24.56 1.67.36-.43.19-1.33 0-1.67-.36zm2.48-1.15c.06.45-.33 1.22-.73 1.47.41-.25.8-1.02.73-1.47-.13-.89-.63-1.71-1-2.64l-.38.18.38-.18c.38.93.88 1.76 1 2.64zm163.87-73.3-2.19.87c.39.87.68 1.62 1.05 2.34.4.76 1.18 1.09 1.83.65.48-.32.91-1.14.88-1.72-.04-.79-.52-1.57-.84-2.43l-.73.29z"/><path class="st0" d="M185.33 68.29c-.65.44-1.44.11-1.83-.65-.37-.72-.67-1.47-1.05-2.34.39.87.68 1.62 1.05 2.34.39.76 1.18 1.08 1.83.65zm-2.88-2.99zm43.84-19.23v-45h14.09l10.49 30.91 10.24-30.91h13.78v45h-9.29v-31.98l-11.06 31.98h-7.65l-11.19-31.66v31.66h-9.41zm96.44-44.99v45h-9.86v-31.23h-.19l-16.94 31.22h-11.12v-45h9.86v31.16h.19l16.94-31.16h11.12zm47.85 0v45h-9.86v-19.4h-18.39v19.4h-9.86v-45h9.86v16.94h18.39v-16.94h9.86zm47.84 0v45h-9.86v-31.23h-.19l-16.94 31.22h-11.12v-45h9.86v31.16h.19l16.94-31.16h11.12zm49.93 27.61c-.51 5.65-2.49 10.13-5.94 13.46-3.46 3.33-8.2 4.99-14.22 4.99-6.53 0-11.79-2.16-15.77-6.48-3.98-4.32-5.97-10.04-5.97-17.16 0-6.74 2.01-12.35 6.04-16.81 4.02-4.47 9.39-6.7 16.09-6.7 5.35 0 9.84 1.52 13.46 4.55a16.24 16.24 0 0 1 6 11.57h-9.67a9.43 9.43 0 0 0-3.38-5.78c-1.75-1.37-3.95-2.05-6.61-2.05-2.74 0-5.05.77-6.92 2.31a12.34 12.34 0 0 0-3.95 5.66 22.67 22.67 0 0 0-1.14 7.33c0 4.64 1.08 8.33 3.22 11.09a10.42 10.42 0 0 0 8.66 4.14c6.03 0 9.46-3.37 10.3-10.11l9.8-.01zm41.08-27.61v8.41h-13.53v36.59h-9.92v-36.6h-13.53v-8.4h36.98zm39.94 0v8.09h-23.95v9.8h21.99v7.78h-21.99v11.05h24.4v8.28h-34.19v-45h33.74zm8.28 0h19.4c5.06 0 9.07 1.21 12.04 3.64 2.97 2.42 4.46 6.04 4.46 10.84 0 4.72-1.47 8.29-4.43 10.71-2.95 2.42-6.81 3.64-11.57 3.64h-10.11v16.18h-9.8l.01-45.01zm9.79 8.09v12.96h8.79c5.14 0 7.71-2.15 7.71-6.45 0-4.34-2.55-6.51-7.65-6.51h-8.85zm73.5 19.52c-.51 5.65-2.49 10.13-5.94 13.46-3.46 3.33-8.2 4.99-14.22 4.99-6.53 0-11.79-2.16-15.77-6.48-3.98-4.32-5.97-10.04-5.97-17.16 0-6.74 2.01-12.35 6.04-16.81 4.02-4.47 9.39-6.7 16.08-6.7 5.35 0 9.84 1.52 13.46 4.55a16.28 16.28 0 0 1 6.01 11.57h-9.67a9.43 9.43 0 0 0-3.38-5.78c-1.75-1.37-3.95-2.05-6.61-2.05-2.74 0-5.05.77-6.92 2.31a12.34 12.34 0 0 0-3.95 5.66 22.67 22.67 0 0 0-1.14 7.33c0 4.64 1.08 8.33 3.22 11.09a10.42 10.42 0 0 0 8.66 4.14c6.03 0 9.46-3.37 10.3-10.11l9.8-.01zm41.08-27.61v8.41h-13.52v36.59h-9.92v-36.6h-13.53v-8.4h36.97zm6.13 0h21.3c4.21 0 7.66.94 10.33 2.81 2.67 1.88 4.01 4.71 4.01 8.5 0 2.11-.55 3.97-1.64 5.59a10.36 10.36 0 0 1-4.49 3.7c5.48 1.56 8.22 5.23 8.22 11 0 4.26-1.43 7.55-4.3 9.89-2.86 2.34-6.51 3.51-10.93 3.51h-22.5v-45zm9.61 7.64v10.56h8.98c4.97 0 7.46-1.75 7.46-5.25 0-2.07-.67-3.47-2.02-4.2-1.35-.74-3.16-1.11-5.44-1.11h-8.98zm0 17.26v12.26h9.92c2.57 0 4.6-.42 6.1-1.27 1.49-.84 2.24-2.47 2.24-4.87 0-2.44-.79-4.08-2.37-4.9-1.58-.82-3.74-1.23-6.48-1.23l-9.41.01zm56.31-25.98c6.57 0 11.89 2.18 15.96 6.54s6.1 10.06 6.1 17.1c0 7.04-2.03 12.71-6.1 17.03s-9.41 6.48-16.02 6.48c-6.66 0-12.03-2.16-16.12-6.48-4.09-4.32-6.13-10-6.13-17.03 0-7.12 2.03-12.84 6.1-17.16 4.06-4.32 9.47-6.48 16.21-6.48zm-.13 8.09c-3.71 0-6.67 1.39-8.88 4.17-2.21 2.78-3.32 6.51-3.32 11.19 0 4.85 1.1 8.64 3.29 11.38s5.2 4.13 9.04 4.17c3.75 0 6.7-1.39 8.85-4.17 2.15-2.78 3.22-6.57 3.22-11.38 0-4.72-1.1-8.46-3.28-11.22-2.2-2.76-5.17-4.14-8.92-4.14zm-493.46 100.57c0 4.34-1.69 7.9-5.06 10.68-3.37 2.78-7.59 4.17-12.64 4.17-6.11 0-10.88-1.4-14.32-4.2-3.44-2.8-5.17-6.75-5.22-11.85h9.8c.09 2.87 1.01 4.99 2.78 6.38 1.77 1.39 4.09 2.09 6.95 2.09 2.28 0 4.14-.69 5.59-2.05a6.8 6.8 0 0 0 2.18-5.15c0-4.21-2.82-6.32-8.47-6.32h-3.41v-6.7c.51.04 1.39.06 2.66.06 5.44 0 8.15-2.04 8.15-6.13 0-1.73-.61-3.07-1.83-4.01-1.22-.95-2.87-1.42-4.93-1.42-2.44 0-4.4.58-5.88 1.74a6.63 6.63 0 0 0-2.47 4.96h-9.35c.09-4.76 1.79-8.34 5.12-10.74 3.33-2.4 7.54-3.6 12.64-3.6 4.64 0 8.46 1.15 11.47 3.45 3.01 2.3 4.52 5.3 4.52 9.01 0 2.23-.63 4.18-1.9 5.85a8.34 8.34 0 0 1-4.93 3.19 9.56 9.56 0 0 1 6.13 3.48 10.62 10.62 0 0 1 2.42 7.11zm51.64 25.41h-9.54v-11.57h-28.57v11.57h-9.54v-19.97h3.41a33.05 33.05 0 0 0 5.53-12.36c1.11-4.78 1.68-10.59 1.68-17.41v-6.83h32.04v36.59h4.99v19.98zm-14.86-19.98v-28.56h-12.39v.76c0 11.25-2 20.52-6 27.81h18.39zm21.3-36.59h19.4c5.06 0 9.07 1.21 12.04 3.64 2.97 2.42 4.46 6.04 4.46 10.84 0 4.72-1.48 8.29-4.43 10.71s-6.81 3.64-11.57 3.64h-10.11v16.18h-9.8v-45.01zm9.8 8.09v12.96h8.79c5.14 0 7.71-2.15 7.71-6.45 0-4.34-2.55-6.51-7.65-6.51h-8.85zm55.68-8.15 17.13 45.06h-10.37l-3.54-10.05h-16.75l-3.67 10.05h-10.11l17.13-45.06h10.18zm.82 27.81-5.94-16.75-6 16.75h11.94zm21.04-27.75h21.3c4.21 0 7.66.94 10.33 2.81s4.01 4.71 4.01 8.5c0 2.11-.55 3.97-1.64 5.59a10.36 10.36 0 0 1-4.49 3.7c5.48 1.56 8.22 5.23 8.22 11 0 4.26-1.43 7.55-4.3 9.89s-6.51 3.51-10.93 3.51h-22.5v-45zm9.61 7.65v10.55h8.98c4.97 0 7.46-1.75 7.46-5.25 0-2.07-.67-3.47-2.02-4.2-1.35-.74-3.16-1.11-5.44-1.11h-8.98zm0 17.25v12.26h9.92c2.57 0 4.6-.42 6.1-1.27 1.49-.84 2.25-2.47 2.25-4.87 0-2.44-.79-4.08-2.37-4.9-1.58-.82-3.74-1.23-6.48-1.23l-9.42.01zm56.31-25.97c6.57 0 11.89 2.18 15.96 6.54 4.07 4.36 6.1 10.06 6.1 17.1 0 7.04-2.03 12.71-6.1 17.03s-9.41 6.48-16.02 6.48c-6.66 0-12.03-2.16-16.12-6.48-4.09-4.32-6.13-10-6.13-17.03 0-7.12 2.03-12.84 6.1-17.16s9.47-6.48 16.21-6.48zm-.13 8.09c-3.71 0-6.67 1.39-8.88 4.17-2.21 2.78-3.32 6.51-3.32 11.19 0 4.85 1.1 8.64 3.29 11.38s5.2 4.13 9.04 4.17c3.75 0 6.7-1.39 8.85-4.17 2.15-2.78 3.22-6.57 3.22-11.38 0-4.72-1.1-8.46-3.29-11.22s-5.16-4.14-8.91-4.14zm50.31-8.09c6.57 0 11.89 2.18 15.96 6.54s6.1 10.06 6.1 17.1c0 7.04-2.03 12.71-6.1 17.03s-9.41 6.48-16.02 6.48c-6.66 0-12.03-2.16-16.12-6.48-4.09-4.32-6.13-10-6.13-17.03 0-7.12 2.03-12.84 6.1-17.16s9.47-6.48 16.21-6.48zm-.13 8.09c-3.71 0-6.67 1.39-8.88 4.17-2.21 2.78-3.32 6.51-3.32 11.19 0 4.85 1.09 8.64 3.29 11.38 2.19 2.74 5.2 4.13 9.04 4.17 3.75 0 6.7-1.39 8.85-4.17 2.15-2.78 3.22-6.57 3.22-11.38 0-4.72-1.09-8.46-3.29-11.22-2.19-2.76-5.16-4.14-8.91-4.14zm66.74-7.02-14.47 21.49 15.8 23.51h-11.82l-9.86-15.61-9.99 15.61h-11.25l15.86-23.51-14.65-21.49h11.5l8.98 14.47 9.04-14.47h10.86zm6.45 0h19.4c5.06 0 9.07 1.21 12.04 3.64 2.97 2.42 4.46 6.04 4.46 10.84 0 4.72-1.48 8.29-4.42 10.71-2.95 2.42-6.81 3.64-11.57 3.64h-10.11v16.18h-9.8v-45.01zm9.79 8.09v12.96h8.79c5.14 0 7.71-2.15 7.71-6.45 0-4.34-2.55-6.51-7.65-6.51h-8.85zm55.68-8.15 17.13 45.06h-10.36l-3.54-10.05h-16.75l-3.67 10.05h-10.11l17.13-45.06h10.17zm.83 27.81-5.94-16.75-6 16.75h11.94zm59.21-27.75v45h-9.86v-19.4h-18.39v19.4h-9.86v-45h9.86v16.94h18.39v-16.94h9.86zm43.48 0v8.09h-23.95v9.8h21.99v7.78h-21.99v11.06h24.4v8.28h-34.19v-45h33.74zm46.33 0v45h-9.86v-19.4h-18.39v19.4h-9.86v-45h9.86v16.94h18.39v-16.94h9.86zm47.84 0v45h-9.86v-31.22h-.19l-16.94 31.22h-11.12v-45h9.86v31.16h.19l16.94-31.16h11.12zm31.1 27.37-13.15 17.63h-12.39l13.97-18.2a14.1 14.1 0 0 1-7.49-4.52c-1.88-2.21-2.81-5.05-2.81-8.5 0-4.55 1.46-7.98 4.39-10.3 2.93-2.32 6.63-3.48 11.09-3.48h22.06v45h-9.8v-17.63h-5.87zm5.87-7.14v-12.45h-9.8c-2.53 0-4.54.42-6.04 1.27-1.5.84-2.24 2.45-2.24 4.8 0 2.53.77 4.23 2.31 5.09 1.54.87 3.67 1.3 6.42 1.3h9.35zm-668.84 56.2h19.4c5.06 0 9.07 1.21 12.04 3.64 2.97 2.42 4.46 6.04 4.46 10.84 0 4.72-1.48 8.29-4.42 10.71-2.95 2.42-6.81 3.64-11.57 3.64h-10.11v16.18h-9.8v-45.01zm9.8 8.09v12.96h8.79c5.14 0 7.71-2.15 7.71-6.45 0-4.34-2.55-6.51-7.65-6.51h-8.85zm67.06-8.09v8.09h-23.95v9.8h21.99v7.78h-21.99v11.06h24.4v8.28h-34.19v-45h33.74zm48.41 27.62c-.51 5.65-2.49 10.13-5.94 13.46-3.46 3.33-8.2 4.99-14.22 4.99-6.53 0-11.79-2.16-15.77-6.48-3.98-4.32-5.97-10.04-5.97-17.16 0-6.74 2.01-12.35 6.04-16.81 4.02-4.47 9.39-6.7 16.09-6.7 5.35 0 9.84 1.52 13.46 4.55a16.24 16.24 0 0 1 6 11.57h-9.67a9.43 9.43 0 0 0-3.38-5.78c-1.75-1.37-3.95-2.05-6.61-2.05-2.74 0-5.05.77-6.92 2.31a12.34 12.34 0 0 0-3.95 5.66 22.67 22.67 0 0 0-1.14 7.33c0 4.64 1.08 8.33 3.22 11.09a10.42 10.42 0 0 0 8.66 4.14c6.03 0 9.46-3.37 10.3-10.11l9.8-.01zm45.75-27.62v45h-9.86v-36.59h-18.39v36.59h-9.86v-45h38.11zm11.82 44.81v-8.34c1.6.68 3.18 1.01 4.74 1.01 1.43 0 2.55-.37 3.35-1.11.8-.74 1.2-1.65 1.2-2.75 0-.38-.04-.76-.12-1.14-.08-.38-.21-.8-.38-1.27-.17-.46-.32-.83-.44-1.11l-.6-1.23-.54-1.08-13.21-27.81h10.93l10.18 23.7 9.99-23.7h10.56l-15.17 33.12c-2.15 4.72-4.3 8.02-6.45 9.89-2.15 1.88-4.99 2.81-8.53 2.81-1.99.02-3.83-.32-5.51-.99zm51-28.63h11.76c4.76 0 8.62 1.21 11.57 3.64s4.43 6 4.43 10.71c0 4.8-1.49 8.42-4.46 10.84-2.97 2.42-6.98 3.64-12.04 3.64h-21.05v-45h33.37v8.15h-23.57l-.01 8.02zm18.14 14.22c0-4.3-2.57-6.45-7.71-6.45h-10.43v12.96h10.49c5.1 0 7.65-2.17 7.65-6.51zm54.54-30.4v45h-9.86v-36.59h-12.07l-.63 19.09c-.42 12.26-4.59 18.39-12.51 18.39-2.19 0-4.05-.25-5.56-.76v-7.96c1.01.51 2.17.76 3.48.76 1.56 0 2.76-.71 3.6-2.12.84-1.41 1.33-4.22 1.45-8.44l.76-27.37h31.34zm47.65 0v45h-9.86v-31.22h-.19l-16.94 31.22h-11.12v-45h9.86v31.16h.19l16.94-31.16h11.12zm49.74 0-17.63 17.76 19.28 27.24h-12.39l-13.65-20.23-5.75 5.69v14.54h-9.73v-45h9.73v18.71l17.7-18.71h12.44zm44.75 0v45h-9.86v-31.22h-.19l-16.94 31.22h-11.12v-45h9.86v31.16h.19l16.94-31.16h11.12zm38.23 16.18h11.76c4.76 0 8.62 1.21 11.57 3.64 2.95 2.42 4.43 6 4.43 10.71 0 4.8-1.48 8.42-4.46 10.84-2.97 2.42-6.98 3.64-12.04 3.64h-21.05v-45h33.37v8.15h-23.57l-.01 8.02zm18.14 14.22c0-4.3-2.57-6.45-7.71-6.45h-10.43v12.96h10.49c5.1 0 7.65-2.17 7.65-6.51zm51.19-30.4v8.09h-23.95v9.8h21.99v7.78h-21.99v11.06h24.4v8.28h-34.19v-45h33.74zm45.31 0v45h-9.86v-36.59h-12.07l-.63 19.09c-.42 12.26-4.59 18.39-12.51 18.39-2.19 0-4.05-.25-5.56-.76v-7.96a7.6 7.6 0 0 0 3.47.76c1.56 0 2.76-.71 3.6-2.12.84-1.41 1.33-4.22 1.45-8.44l.76-27.37h31.35zm31.92-.06 17.13 45.06h-10.37l-3.54-10.05h-16.75l-3.67 10.05h-10.1l17.13-45.06h10.17zm.82 27.8-5.94-16.75-6.01 16.75h11.95zm21.17-27.74h19.4c5.06 0 9.07 1.21 12.04 3.64 2.97 2.42 4.46 6.04 4.46 10.84 0 4.72-1.48 8.29-4.43 10.71-2.95 2.42-6.81 3.64-11.57 3.64h-10.11v16.18h-9.8l.01-45.01zm9.8 8.09v12.96h8.79c5.14 0 7.71-2.15 7.71-6.45 0-4.34-2.55-6.51-7.65-6.51h-8.85zm35.39 36.72v-8.34c1.6.68 3.18 1.01 4.74 1.01 1.43 0 2.55-.37 3.35-1.11s1.2-1.65 1.2-2.75c0-.38-.04-.76-.13-1.14-.09-.38-.21-.8-.38-1.27-.17-.46-.32-.83-.44-1.11l-.6-1.23-.54-1.08-13.21-27.81h10.93l10.18 23.7 9.99-23.7h10.56l-15.17 33.12c-2.15 4.72-4.3 8.02-6.45 9.89-2.15 1.88-4.99 2.81-8.53 2.81-1.98.02-3.82-.32-5.5-.99zm81.27-17.19c-.51 5.65-2.49 10.13-5.94 13.46-3.46 3.33-8.2 4.99-14.22 4.99-6.53 0-11.79-2.16-15.77-6.48-3.98-4.32-5.97-10.04-5.97-17.16 0-6.74 2.01-12.35 6.04-16.81 4.02-4.47 9.39-6.7 16.09-6.7 5.35 0 9.84 1.52 13.46 4.55a16.28 16.28 0 0 1 6.01 11.57h-9.67a9.43 9.43 0 0 0-3.38-5.78c-1.75-1.37-3.95-2.05-6.61-2.05-2.74 0-5.05.77-6.92 2.31a12.34 12.34 0 0 0-3.95 5.66 22.67 22.67 0 0 0-1.14 7.33c0 4.64 1.08 8.33 3.22 11.09a10.42 10.42 0 0 0 8.66 4.14c6.03 0 9.46-3.37 10.3-10.11l9.79-.01zm43.93 2.9c0 4.8-1.49 8.42-4.46 10.84-2.97 2.42-6.98 3.64-12.04 3.64h-19.91v-45h9.8v16.18h10.62c4.76 0 8.62 1.21 11.57 3.64 2.94 2.42 4.42 5.99 4.42 10.7zm-9.61-.12c0-4.3-2.57-6.45-7.71-6.45h-9.29v12.96h9.35c5.1 0 7.65-2.17 7.65-6.51z"/></svg>