<svg xmlns="http://www.w3.org/2000/svg" viewBox="0 0 2029.79 200" style="enable-background:new 0 0 2029.79 200" xml:space="preserve"><path d="M126.04 110.63c0 15.33-4.59 27.15-13.78 35.47s-22.16 12.47-38.94 12.47h-73.32v-154.45h113.67v23.43h-86.55v35.58h46.2c16.92 0 29.94 4.12 39.05 12.37 9.11 8.23 13.67 19.94 13.67 35.13zm-27.12.65c0-8.1-2.39-14.46-7.16-19.09-4.77-4.63-11.43-6.94-19.96-6.94h-44.68v51.2h45.12c17.78-.01 26.68-8.39 26.68-25.17zm77.44-64.65v14.97c7.52-12.15 19.67-18.22 36.44-18.22 15.47 0 27.84 5.43 37.09 16.27 9.25 10.85 13.88 25.31 13.88 43.38 0 17.65-4.52 31.78-13.56 42.41-9.04 10.63-21.08 15.94-36.12 15.94-15.91 0-28.06-5.86-36.44-17.57v56.19h-24.51v-153.37h23.22zm31.46 16.71c-9.69 0-17.28 3.47-22.78 10.41-5.5 6.94-8.24 16.56-8.24 28.85 0 12.15 2.78 21.69 8.35 28.63 5.57 6.94 13.27 10.41 23.1 10.41 9.4 0 16.85-3.47 22.34-10.41 5.5-6.94 8.24-16.34 8.24-28.2 0-12.15-2.79-21.8-8.35-28.96-5.56-7.15-13.12-10.73-22.66-10.73zm181.13 60.3c-2.75 12.15-8.72 21.62-17.9 28.42-9.19 6.8-20.14 10.2-32.86 10.2-16.92 0-30.34-5.46-40.24-16.38-9.91-10.92-14.86-24.91-14.86-41.97 0-17.5 5.1-31.96 15.29-43.38 10.2-11.42 23.17-17.14 38.94-17.14 16.34 0 29.29 5.61 38.83 16.81 9.55 11.21 14.32 26.5 14.32 45.88v2.6h-82.65c.29 11.28 3.11 19.99 8.46 26.14 5.35 6.15 12.8 9.22 22.34 9.22 6.8 0 12.33-1.63 16.59-4.88 4.27-3.25 7.63-8.42 10.09-15.51h23.65zm-23.21-31.45c-.73-9.4-3.66-16.81-8.79-22.24-5.14-5.42-11.75-8.14-19.85-8.14-8.1 0-14.64 2.6-19.63 7.81-4.99 5.21-8.06 12.73-9.22 22.56l57.49.01zm148.6 24.08c-1.74 13.74-7.23 24.7-16.49 32.87-9.26 8.17-20.9 12.26-34.93 12.26-16.78 0-30.15-5.32-40.13-15.94-9.98-10.63-14.97-24.55-14.97-41.76 0-18.51 5.02-33.22 15.08-44.14 10.05-10.92 23.61-16.38 40.67-16.38 14.32 0 25.85 3.62 34.6 10.85 8.75 7.23 13.85 17.28 15.29 30.15h-24.51c-1.45-7.09-4.34-12.51-8.68-16.27s-9.84-5.64-16.49-5.64c-9.55 0-17.07 3.58-22.56 10.74-5.5 7.16-8.24 16.96-8.24 29.39 0 12.44 2.64 22.13 7.92 29.07 5.28 6.94 12.62 10.41 22.02 10.41 7.38 0 13.41-2.2 18.11-6.62 4.7-4.41 7.7-10.74 9-18.98l24.31-.01zm109.11-50.11h-36.88v92.41h-24.73v-92.41h-36.88v-19.53h98.48v19.53zm69.42-22.78c17.06 0 30.66 5.35 40.78 16.05 10.12 10.71 15.19 25.09 15.19 43.17 0 18.22-5.03 32.68-15.08 43.38-10.05 10.71-23.68 16.05-40.89 16.05-17.5 0-31.38-5.35-41.65-16.05-10.27-10.7-15.4-25.16-15.4-43.38 0-18.08 5.17-32.47 15.51-43.17 10.33-10.7 24.18-16.05 41.54-16.05zm22.67 30.04c-5.57-7.01-13.27-10.52-23.1-10.52-9.84 0-17.57 3.54-23.21 10.63-5.64 7.09-8.46 16.78-8.46 29.07 0 12.58 2.82 22.42 8.46 29.5 5.64 7.09 13.45 10.63 23.43 10.63 9.69 0 17.32-3.58 22.89-10.74s8.35-17.03 8.35-29.61c-.01-12.29-2.8-21.94-8.36-28.96zm165.18 30.49c0 17.5-4.92 31.49-14.75 41.97-9.84 10.49-22.92 15.73-39.26 15.73-25.16 0-42.08-10.34-50.76-31.02-3.76-8.68-5.64-20.46-5.64-35.36 0-29.36 4.7-51.27 14.1-65.73 4.92-7.52 10.92-13.13 18.01-16.81 7.09-3.69 16.05-5.89 26.9-6.62 1.3-.14 3.07-.29 5.32-.43 2.24-.14 3.83-.25 4.77-.33.94-.07 2.17-.22 3.69-.43a20.7 20.7 0 0 0 3.25-.65c.65-.22 1.41-.51 2.28-.87a4.49 4.49 0 0 0 1.95-1.41c.43-.58.87-1.23 1.3-1.95h24.73a40.02 40.02 0 0 1-4.34 12.8 14.25 14.25 0 0 1-3.8 4.34c-1.67 1.3-3.04 2.39-4.12 3.26-1.09.87-2.79 1.67-5.1 2.39-2.32.73-4.12 1.27-5.42 1.63-1.3.36-3.4.73-6.29 1.09-2.9.36-5.03.62-6.4.76-1.38.15-3.76.33-7.16.54-3.4.22-5.82.4-7.27.54-19.96 1.59-33.05 15.62-39.26 42.08h.65c4.77-7.66 10.34-13.41 16.7-17.25 6.36-3.83 14.75-5.75 25.16-5.75 14.46 0 26.54 5.28 36.23 15.84 9.69 10.54 14.53 24.42 14.53 41.64zm-24.72 0c0-11.42-2.79-20.61-8.35-27.55-5.57-6.94-12.91-10.41-22.02-10.41s-16.45 3.44-22.02 10.31c-5.57 6.87-8.35 16.09-8.35 27.66s2.78 20.83 8.35 27.77c5.57 6.94 12.91 10.41 22.02 10.41s16.45-3.47 22.02-10.41c5.56-6.96 8.35-16.21 8.35-27.78zm148.16 54.66h-24.73v-92.41h-34.27l-1.52 49.02c-.43 14.61-3.58 25.92-9.44 33.95-5.86 8.03-13.85 12.04-23.97 12.04-6.22 0-11.28-.8-15.19-2.39v-19.31c1.45.73 4.41 1.09 8.9 1.09 9.83 0 15.04-9.25 15.62-27.77l1.95-66.16h82.65v111.94zm144.03 35.58h-23.43v-35.58h-79.61v35.58h-23.43v-55.1h14.1c8.82-20.68 13.23-47.29 13.23-79.83v-12.59h84.17v92.41h14.97v55.11zm-39.26-55.1v-73.33h-36.23v7.59c0 11.71-1.23 23.97-3.69 36.77-2.46 12.8-5.07 22.45-7.81 28.96h47.73zm109.77-95.67c17.06 0 30.66 5.35 40.78 16.05 10.12 10.71 15.19 25.09 15.19 43.17 0 18.22-5.03 32.68-15.08 43.38-10.05 10.71-23.68 16.05-40.89 16.05-17.5 0-31.38-5.35-41.65-16.05-10.27-10.7-15.4-25.16-15.4-43.38 0-18.08 5.17-32.47 15.51-43.17 10.33-10.7 24.18-16.05 41.54-16.05zm22.66 30.04c-5.57-7.01-13.27-10.52-23.1-10.52-9.84 0-17.57 3.54-23.21 10.63-5.64 7.09-8.46 16.78-8.46 29.07 0 12.58 2.82 22.42 8.46 29.5 5.64 7.09 13.45 10.63 23.43 10.63 9.69 0 17.32-3.58 22.89-10.74s8.35-17.03 8.35-29.61c0-12.29-2.79-21.94-8.36-28.96zm81.24-26.79v14.97c7.52-12.15 19.67-18.22 36.44-18.22 15.47 0 27.84 5.43 37.09 16.27 9.25 10.85 13.88 25.31 13.88 43.38 0 17.65-4.52 31.78-13.56 42.41-9.04 10.63-21.08 15.94-36.12 15.94-15.91 0-28.06-5.86-36.44-17.57v56.19h-24.51v-153.37h23.22zm31.46 16.71c-9.69 0-17.28 3.47-22.78 10.41-5.5 6.94-8.24 16.56-8.24 28.85 0 12.15 2.78 21.69 8.35 28.63 5.57 6.94 13.27 10.41 23.1 10.41 9.4 0 16.85-3.47 22.34-10.41 5.5-6.94 8.24-16.34 8.24-28.2 0-12.15-2.79-21.8-8.35-28.96-5.56-7.15-13.12-10.73-22.66-10.73zm182.43 52.93c-1.74 13.74-7.23 24.7-16.49 32.87-9.26 8.17-20.9 12.26-34.92 12.26-16.78 0-30.15-5.32-40.13-15.94-9.98-10.63-14.97-24.55-14.97-41.76 0-18.51 5.02-33.22 15.08-44.14 10.05-10.92 23.61-16.38 40.67-16.38 14.32 0 25.85 3.62 34.6 10.85 8.75 7.23 13.85 17.28 15.29 30.15h-24.51c-1.45-7.09-4.34-12.51-8.68-16.27s-9.84-5.64-16.49-5.64c-9.54 0-17.07 3.58-22.56 10.74-5.5 7.16-8.24 16.96-8.24 29.39 0 12.44 2.64 22.13 7.92 29.07 5.28 6.94 12.62 10.41 22.02 10.41 7.38 0 13.41-2.2 18.11-6.62 4.7-4.41 7.7-10.74 9-18.98l24.3-.01zm109.12-50.11h-36.88v92.41h-24.73v-92.41h-36.88v-19.53h98.48l.01 19.53zm41.21-19.53v14.97c7.52-12.15 19.67-18.22 36.44-18.22 15.47 0 27.84 5.43 37.09 16.27 9.25 10.85 13.88 25.31 13.88 43.38 0 17.65-4.52 31.78-13.56 42.41-9.04 10.63-21.08 15.94-36.12 15.94-15.91 0-28.06-5.86-36.44-17.57v56.19h-24.51v-153.37h23.22zm31.46 16.71c-9.69 0-17.28 3.47-22.78 10.41-5.5 6.94-8.24 16.56-8.24 28.85 0 12.15 2.79 21.69 8.35 28.63 5.57 6.94 13.27 10.41 23.1 10.41 9.4 0 16.85-3.47 22.34-10.41 5.49-6.94 8.24-16.34 8.24-28.2 0-12.15-2.79-21.8-8.35-28.96-5.56-7.15-13.12-10.73-22.66-10.73zm132.76-19.96c17.06 0 30.66 5.35 40.78 16.05 10.12 10.71 15.19 25.09 15.19 43.17 0 18.22-5.03 32.68-15.08 43.38-10.05 10.71-23.68 16.05-40.89 16.05-17.5 0-31.38-5.35-41.65-16.05-10.27-10.7-15.4-25.16-15.4-43.38 0-18.08 5.17-32.47 15.51-43.17 10.33-10.7 24.18-16.05 41.54-16.05zm22.67 30.04c-5.57-7.01-13.27-10.52-23.1-10.52-9.84 0-17.57 3.54-23.21 10.63-5.64 7.09-8.46 16.78-8.46 29.07 0 12.58 2.82 22.42 8.46 29.5 5.64 7.09 13.45 10.63 23.43 10.63 9.69 0 17.32-3.58 22.89-10.74s8.35-17.03 8.35-29.61c-.01-12.29-2.8-21.94-8.36-28.96zm88.83 85.15h-31.24v-111.94h24.73v81.57h.65l41.87-81.57h31.24v111.94h-24.73v-81.57h-.65l-41.87 81.57zm53.58-158.14c-1.16 10.41-4.63 18.11-10.41 23.1-5.79 4.99-14.17 7.48-25.16 7.48s-19.38-2.5-25.16-7.48c-5.79-4.99-9.26-12.69-10.41-23.1h12.58c2.75 10.99 10.41 16.49 22.99 16.49s20.25-5.49 22.99-16.49h12.58z" style="fill:#fff"/></svg>