<svg xmlns="http://www.w3.org/2000/svg" viewBox="0 0 813.71 200" style="enable-background:new 0 0 813.71 200" xml:space="preserve"><path d="M61.29 19.52v72.37h-15.85v-58.85h-29.58v58.85h-15.86v-72.37h61.29zm48.39-1.73c10.57 0 19.13 3.51 25.67 10.52s9.81 16.18 9.81 27.5-3.27 20.45-9.81 27.39c-6.54 6.95-15.13 10.42-25.77 10.42-10.71 0-19.35-3.47-25.92-10.42-6.57-6.94-9.86-16.08-9.86-27.4 0-11.45 3.27-20.65 9.81-27.6 6.53-6.94 15.23-10.41 26.07-10.41zm-.2 13.01c-5.96 0-10.72 2.24-14.28 6.71s-5.34 10.47-5.34 17.99c0 7.79 1.76 13.89 5.28 18.3 3.52 4.4 8.37 6.64 14.53 6.71 6.03 0 10.77-2.24 14.23-6.71 3.46-4.47 5.18-10.57 5.18-18.3 0-7.59-1.76-13.6-5.29-18.04-3.51-4.44-8.28-6.66-14.31-6.66zm98.6-11.28v13.52h-34.56v58.85h-15.86v-72.37h50.42zm9.65 0h31.21c8.13 0 14.59 1.95 19.36 5.85 4.78 3.9 7.17 9.71 7.17 17.43 0 7.59-2.37 13.33-7.11 17.23-4.74 3.9-10.95 5.85-18.6 5.85h-16.27v26.02h-15.76v-72.38zm15.76 13.01v20.84h14.13c8.27 0 12.4-3.46 12.4-10.37 0-6.98-4.1-10.47-12.3-10.47h-14.23zm89.55-13.12 27.55 72.48h-16.67l-5.69-16.16h-26.94l-5.89 16.16h-16.27l27.55-72.48h16.36zm1.32 44.73-9.55-26.94-9.66 26.94h19.21zm95.25-44.62v72.37h-15.86v-31.21h-29.58v31.21h-15.86v-72.37h15.86v27.24h29.58v-27.24h15.86zm76.95 0v72.37h-15.86v-50.21h-.3l-27.24 50.21h-17.89v-72.37h15.86v50.11h.3l27.24-50.11h17.89zm38.52 44.52c-8.47 0-14.91-1.98-19.31-5.95-4.41-3.96-6.61-10.42-6.61-19.36v-19.21h15.86v19.41c0 4.34.86 7.4 2.59 9.2 1.73 1.8 4.62 2.69 8.69 2.69 3.32 0 8.1-.54 14.33-1.63v-29.67h15.86v72.37h-15.86v-29.88c-6.57 1.35-11.75 2.03-15.55 2.03zm107.86-44.52v72.37h-15.86v-31.21h-29.58v31.21h-15.86v-72.37h15.86v27.24h29.58v-27.24h15.86zm70.34 49.09c0 7.72-2.39 13.54-7.17 17.43-4.78 3.9-11.23 5.85-19.36 5.85h-28.16v-72.37h15.76v26.02h13.22c7.66 0 13.86 1.95 18.6 5.85 4.73 3.89 7.11 9.64 7.11 17.22zm-15.45-.2c0-6.91-4.14-10.37-12.4-10.37h-11.08v20.84h11.18c8.2 0 12.3-3.49 12.3-10.47zm23.17-48.89h15.86v72.37h-15.86v-72.37zm92.71 0v72.37h-15.86v-50.21h-.3l-27.25 50.21h-17.89v-72.37h15.86v50.11h.3l27.24-50.11h17.9zm-19.72-19.52h5.69c0 9.76-5.53 14.64-16.57 14.64-11.05 0-16.57-4.88-16.57-14.64h5.69c.88 4.47 4.51 6.71 10.88 6.71 6.37 0 10-2.24 10.88-6.71zm-729.65 125.9-28.36 28.56 31 43.81h-19.92l-21.95-32.53-9.25 9.15v23.38h-15.66v-72.37h15.65v30.09l28.46-30.09h20.03zm43.41-1.73c10.57 0 19.13 3.51 25.67 10.52 6.54 7.01 9.81 16.18 9.81 27.5s-3.27 20.45-9.81 27.4c-6.54 6.95-15.13 10.42-25.77 10.42-10.71 0-19.35-3.47-25.92-10.42-6.57-6.95-9.86-16.08-9.86-27.4 0-11.45 3.27-20.65 9.81-27.6 6.53-6.95 15.22-10.42 26.07-10.42zm-.21 13.01c-5.96 0-10.72 2.24-14.28 6.71s-5.34 10.47-5.34 17.99c0 7.79 1.76 13.89 5.28 18.3 3.52 4.4 8.37 6.64 14.53 6.71 6.03 0 10.77-2.24 14.23-6.71 3.46-4.47 5.18-10.57 5.18-18.3 0-7.59-1.76-13.6-5.29-18.04-3.5-4.44-8.28-6.66-14.31-6.66zm48.19 61.09v-72.37h22.67l16.88 49.71 16.47-49.71h22.16v72.37h-14.94v-51.43l-17.79 51.43h-12.3l-17.99-50.93v50.93h-15.16zm155.12-72.37v72.37h-15.86v-50.22h-.3l-27.24 50.21h-17.89v-72.37h15.86v50.11h.3l27.24-50.11 17.89.01zm69.42 0v13.52h-21.75v58.85h-15.96v-58.86h-21.75v-13.52l59.46.01zm64.24 0v13.01h-38.52v15.76h35.37v12.5h-35.37v17.79h39.24v13.32h-54.99v-72.38h54.27zm66.99 0v13.52h-21.75v58.85h-15.96v-58.86h-21.75v-13.52l59.46.01z" style="fill:#fff"/></svg>