<svg viewBox="0 0 400 436" fill="none" xmlns="http://www.w3.org/2000/svg"><g clip-path="url(#a)" fill="#000"><path d="M89.58 347.3a22.78 22.78 0 0 0 6.67-7.2c3.3-5.53 6.33-11.22 8.47-17.33a62.97 62.97 0 0 0 3.07-14.78 677.4 677.4 0 0 0 1.47-17.37c.79-11.25 3.04-22.2 6.19-33.02 2.1-7.23 4.51-14.34 7.77-21.15a76.12 76.12 0 0 1 6.98-11.66 18.7 18.7 0 0 1 2.3-2.69c1.98-1.86 4.12-3.48 7.15-3.07 1.2-2.26 3.22-2.65 5.44-2.3 3.46.56 6.92 1.13 10.32 1.94 1.4.33 2.7 1.23 3.98 1.97 1.16.66 2.22 1.5 3.36 2.2a28.3 28.3 0 0 1 6.8 5.53c.43.5.93.96 1.44 1.4 5.72 4.73 9.89 10.7 13.47 17.1 2.24 3.99 4.43 8 6.48 12.09 1.11 2.2 1.85 4.57 2.82 6.84 2.67 6.22 4.22 12.78 5.73 19.34.86 3.7 1.77 7.4 2.41 11.15a95.31 95.31 0 0 1 1.03 21.67c-.3 5.18-.52 10.4-1.26 15.52a68.3 68.3 0 0 1-5.28 18.19c-.33.74-.74 1.46-1.14 2.24a15.24 15.24 0 0 0 7-5.46c.11-.17.22-.35.35-.5.66-.83.94-.88 1.79-.27a4 4 0 0 1 .58.5c.17.18.32.39.4.48-1.72 3.87-3.37 7.63-5.06 11.37-.71 1.58-.7 3.21-.52 4.85a51.43 51.43 0 0 0 6.46 20.11 64.4 64.4 0 0 1 3.06 6.39 40.16 40.16 0 0 0 4.9 8.7c.8 1.05 1.27 1.18 2.3.31 2.2-1.86 4.37-3.75 6.45-5.74a9.93 9.93 0 0 0 3.01-7.68c0-.63-.28-1.44.46-1.83.72-.38 1.31.2 1.79.6 1.97 1.69 4.31 2.57 6.7 3.42 2.24.8 4.25.55 6.31-.72a30.3 30.3 0 0 0 8.1-7.3c2.64-3.42 5.68-6.53 7.97-10.23.04-.06.18-.06.54-.2-.15.49-.17.88-.36 1.16-1.02 1.42-2.02 2.86-3.13 4.22-2.17 2.67-4.44 5.28-6.63 7.95-1.97 2.4-4.59 3.96-7.18 5.53a5.88 5.88 0 0 1-5.08.44c-2.47-.86-5.04-1.54-7.06-3.36-.44-.38-1-.63-1.7-1.06l-.07 2.05c-.08 2.56-.77 4.95-2.6 6.77-2.31 2.33-4.8 4.5-7.3 6.64-1.16 1-2.05.75-3-.5a42 42 0 0 1-4.99-8.83 102.7 102.7 0 0 0-3.95-8 52.66 52.66 0 0 1-3.43-8.4 47.78 47.78 0 0 1-2.2-10.07c-.26-2.37.06-4.56 1.1-6.74 1.52-3.14 2.84-6.39 4.3-9.71l-.93-.84c-.2.15-.36.21-.43.33-1.6 2.57-3.92 4.29-6.51 5.77-1.46.84-2.71 2.04-4.05 3.08a4 4 0 0 0-.55.54c-3.8 4.12-8.74 6.09-14.02 7.34-1.45.34-3.09.22-4.59 0-7.65-1.15-14.03-4.51-18.77-10.77-5.5-7.25-10.82-14.63-15.28-22.58-1.36-2.4-2.41-5-3.61-7.5-2.27-4.74-4.1-9.65-5.6-14.68-3.58-11.88-5.72-23.97-5.47-36.44.1-5.14-.01-10.29.05-15.43.08-5.99.97-11.88 2.05-17.76.08-.43.14-.86.1-1.31a24.8 24.8 0 0 0-2.2 5.85c-.9 3.21-1.78 6.44-2.8 9.63a36.07 36.07 0 0 0-1.33 5.7c-.83 5.69-1.84 11.37-2.61 17.07-.37 2.7-.4 5.44-.52 8.15-.55 12.12-2.13 24.1-5.42 35.79a114.31 114.31 0 0 1-10.26 25.12c-1.84 3.27-3.5 6.66-5.11 10.05-.45.93-.44 2.08-.66 3.24l-.9-.18-1.04.82-.21-.59c.75-.7.91-1.48.6-2.48-1.02-3.23-2-6.47-3.47-9.52l-1.25.69-.21-.58.02-.01Zm98.5-32.43c.55-1.5 1.09-2.6 1.33-3.77.36-1.71.62-3.45.69-5.2.12-2.91.07-5.85.1-8.78.01-.43.1-.86.18-1.67l2.8 2.4c1.74 1.5 1.8 1.57 2 2.67l-4.28-3.8-.05 1.93c-.03 2.67 0 5.35-.12 8.02-.13 2.73-.52 5.42-1.8 7.86l6.3 4.9c.05-.13.1-.22.12-.31.59-6.82 1.08-13.64.74-20.5a98.98 98.98 0 0 0-2.85-18.55c-1-4.09-1.94-8.2-3.21-12.22a90.79 90.79 0 0 0-6.8-16.19c-2.66-4.83-5.54-9.48-9.15-13.69-3.3-3.84-7-7.08-11.63-9.21-1.4-.65-2.77-1.38-4.15-2.06-.3-.15-.62-.23-1.16-.42.32 1.98.63 3.74.9 5.5 1 6.31 1.4 12.66 1.38 19.05 0 1.28-.04 2.57.09 3.85.12 1.27.39 2.54.66 3.78.19.81.67 1.28 1.63 1.32 4.42.15 7.79 2.32 10.53 5.6l1.88 2.25c3 3.49 5.34 7.28 6.07 11.93a68.19 68.19 0 0 1 1.04 11.03c-.03 5.55.21 11.1-.47 16.64a21.88 21.88 0 0 1-3.4 9.34c-.71-.62-.12-1.08.13-1.49a18.65 18.65 0 0 0 2.63-8.32c.25-3.38.4-6.78.45-10.16.09-5.35.06-10.69-.85-15.99-.55-3.13-1.34-6.14-3.28-8.71-1.83-2.41-3.61-4.87-5.63-7.12a13.09 13.09 0 0 0-4.14-3.14c-1.6-.74-3.46-.96-5.23-1.22-.9-.12-1.44-.46-1.78-1.2-.2-.47-.32-.98-.46-1.47-.6-2.27-.54-4.58-.52-6.9.06-7.88-.67-15.7-2.09-23.45-.15-.8-.24-1.65-1.14-2-2.13-.86-4.26-1.7-6.47-2.57.01.38-.01.74.03 1.09.4 3.99.85 7.97 1.22 11.96.53 5.68 1.2 11.35 2.62 16.89 1.35 5.23 2.1 10.57 2.91 15.9.05.26-.07.55-.17 1.14-.68-.59-1.22-.95-1.63-1.42a10.98 10.98 0 0 0-7.58-4c-1.64-.17-3.27-.41-4.9-.6-3.1-.36-3.6-1.5-3.82-3.73l-.3-3.22c-.43-5.29-.72-10.55.42-15.82a30.83 30.83 0 0 1 3.45-8.88c1.41-2.47 3.92-3.75 5.72-5.78.04-.04.18 0 .4.02-.1.25-.13.51-.28.65-.77.76-1.57 1.49-2.35 2.23-.7.67-1.5 1.27-2.07 2.04a22.99 22.99 0 0 0-4.47 11.65c1.72 2.48 2.6 5.09 4.03 7.4 1.48 2.4 2.97 4.8 4.52 7.17 1.49 2.25 3.07 4.45 4.6 6.68-1.42-.6-2.72-2.24-7.28-9.58-2.13-3.4-3.97-6.99-6.02-10.62-.08.37-.16.65-.19.94-.58 5.35.08 10.67.63 15.99.12 1.2.95 1.76 2.02 2.04.49.13 1.02.11 1.53.19 2.14.32 4.28.6 6.4.97a9.25 9.25 0 0 1 4.95 2.7l1.37 1.38c.12-.43.09-.79-.1-1.01-2.23-2.59-3.86-5.57-5.63-8.46-2.42-3.94-5.01-7.77-7.5-11.66-.5-.77-.93-1.6-1.32-2.44-.22-.48 0-.79.41-.73.5 1 .9 1.93 1.42 2.77 3.34 5.36 6.7 10.72 10.09 16.05.7 1.1 1.55 2.12 2.32 3.18.17-.68.12-1.23.01-1.77-.72-3.67-1.4-7.37-2.22-11.02a133.57 133.57 0 0 1-2.62-17.2c-.4-4.25-.86-8.49-1.26-12.74-.07-.68-.22-1.14-.94-1.39-2.39-.81-4.77-1.24-7.28-.64-.74.18-1.2.5-1.43 1.21-.39 1.23-.88 2.43-1.18 3.67-2.27 9.25-4.27 18.55-5.18 28.06-.47 4.87-.67 9.75.07 14.61 1.46 9.51 3.95 18.8 6.02 28.19.73 3.26 1.6 6.48 2.37 9.73 1.47 6.2 2.74 12.46 4.45 18.59a53.23 53.23 0 0 0 11.07 20.63 19.25 19.25 0 0 0 3.73 3.43c3.38 2.27 6.94 4.05 11.1 4.79 3.39.6 6.7.9 10.1.64.75-.05 1.47-.3 2.11-.45-.79-2.9-1.72-5.58-2.23-8.33-1.8-9.75-3.47-19.53-5.18-29.3-.06-.35 0-.72 0-1.09.11 0 .21-.02.32-.03.09.3.22.6.27.92 1.42 7.99 2.85 15.98 4.24 23.98.62 3.54 1.2 7.09 2.29 10.54.31.99.72 1.85 1.73 2.46a20.5 20.5 0 0 0 5.72-10l-4.24 5.83a29.08 29.08 0 0 1-1.54-4.23c-1.57-5.33-3.13-10.65-4.68-15.98-.54-1.83-1.06-3.66-1.58-5.48-.11-.41-.2-.82.42-.82 2.49 8.33 4.71 16.69 7.48 25.13 1.83-2.42 3.49-4.57 5.11-6.74.18-.24.25-.56.34-.85.37-1.07.68-2.17 1.1-3.22a1.9 1.9 0 0 0-.23-2c-2.39-3.34-3.93-7.1-5.42-10.87-.3-.77-.68-1.5-1.09-2.21-.66-1.19-.7-1.2-2.06-.98-1.3.22-2.6.5-3.98.76.08.54.1 1.06.24 1.54.6 2.13 1.16 4.28 1.88 6.36 1.37 3.94 2.84 7.84 4.26 11.75.27.74.49 1.47.32 2.28a1.08 1.08 0 0 1-.52-.55c-1.11-3.15-2.24-6.29-3.3-9.46a448.07 448.07 0 0 1-3.23-10.13c-.25-.81-.55-1.66-.19-2.52.97-.12 1.88-.2 2.8-.34.7-.11 1.4-.31 2.11-.42.95-.14 1.71.05 2.1 1.1.32.86.82 1.65 1.2 2.49 1.18 2.63 2.3 5.28 3.54 7.87.51 1.08 1.27 2.04 1.96 3.1.2-.21.26-.25.25-.29.54-4.5 1.09-8.98 1.6-13.47.03-.3-.16-.73-.39-.92-1.43-1.25-2.9-2.46-4.38-3.64-.8-.63-1.66-1.18-2.31-1.64l-.08.02Zm-1.7 44.39c1.75-.82 3.2-1.54 4.68-2.2a5.96 5.96 0 0 0 2.87-2.5c1.03-1.82 2.18-3.64 2.9-5.6 2.57-7.08 4.54-14.32 4.95-21.9.12-2.2.27-4.41.4-6.62.44-7.56.45-15.12-.7-22.62-.54-3.5-1.3-6.97-2.1-10.42-.98-4.2-1.95-8.41-3.18-12.54-1.07-3.6-2.46-7.09-3.75-10.61-.56-1.55-1.1-3.12-1.86-4.57-2.5-4.78-4.98-9.57-7.7-14.23-3.3-5.65-7.13-10.93-12.26-15.14a18 18 0 0 1-2.1-2.04 23.29 23.29 0 0 0-4.84-4.04 217.9 217.9 0 0 1-5.02-3.32 11.64 11.64 0 0 0-4.51-1.93c-2.9-.52-5.77-1.09-8.67-1.52-1-.16-2.07-.13-3.06.07-.82.17-1.83.47-1.64 1.77.02.12-.3.29-.46.44l-.55.57c2.93-.5 5.67.1 8.3 1.04.19-.56.3-.94.42-1.32l.3.05.23 1.87c1.43.64 2.95 1.38 4.5 2.02 1.05.43 2.2.6 3.2 1.1 2.4 1.17 4.77 2.43 7.13 3.69 2.32 1.23 4.6 2.55 6.5 4.39 3.13 3 6 6.24 8.41 9.83a95.88 95.88 0 0 1 11.34 23.04 156.63 156.63 0 0 1 4.25 16.1c1.5 6.74 2.57 13.54 2.45 20.46-.08 5.19-.47 10.37-.72 15.56-.03.75-.21 1.49.28 2.23.18.28.08 1-.16 1.25-.45.48-.44 1-.51 1.55-.5 4.03-1.03 8.06-1.53 12.1-.03.3-.11.66.01.89.65 1.2.19 2.18-.52 3.13a14.79 14.79 0 0 0-2.25 4.53c-1 3.23-2.63 6.15-4.85 8.72-.7.8-1.39 1.79-2.3 2.21-1.06.5-2.37.56-3.58.67-3.36.3-6.7.17-9.94-.86-.3-.09-.6-.11-.9-.17a24.41 24.41 0 0 1-14.13-8.24 49.66 49.66 0 0 1-7.14-10.76 53.01 53.01 0 0 1-4.15-10.61 1325.2 1325.2 0 0 1-5.67-23.68c-2.1-9.16-4.1-18.35-6.15-27.52a60.06 60.06 0 0 1-.9-19.47 194.24 194.24 0 0 1 6.27-32.05l-1.14-.04c1.33-1.04 2-1.85 2.02-2.41-.52.25-1.05.39-1.39.71-1 .95-2.09 1.87-2.88 2.98-3.66 5.12-5.8 10.92-7.09 16.99a90.8 90.8 0 0 0-2.03 17.91c-.03 3.24-.08 6.49-.02 9.72.1 5.65.1 11.3.48 16.94.45 6.52 1.86 12.9 3.52 19.23a127.74 127.74 0 0 0 7.64 21.32c.87 1.86 1.68 3.77 2.7 5.55a204.73 204.73 0 0 0 15.85 23.3c4.66 6 10.92 9.03 18.28 10.13 1.95.29 3.92.27 5.8-.43 2.37-.9 4.74-1.76 7.04-2.8a9.37 9.37 0 0 0 3.22-2.64c-1.25.05-2.09 1.16-3.56.72l-.03.02Zm-50.49-138.77a11.6 11.6 0 0 0-4.63 4c-1.86 2.73-3.7 5.47-5.35 8.31-3.8 6.6-6.38 13.71-8.62 20.95-3.68 11.88-6.48 23.93-7.33 36.38-.4 5.9-.99 11.79-1.48 17.67a63.8 63.8 0 0 1-7.2 24.58c-2.64 5.01-5.11 10.14-9.4 14.04-.07.06-.1.17-.13.22l1.8 4.97c.6 1.64.99 3.37 1.86 4.94.32-.5.48-.97.64-1.45.6-1.8 1.06-3.67 1.81-5.41 1.73-4.02 3.6-7.98 5.39-11.97.53-1.17 1.07-2.36 1.4-3.59 2.1-7.8 4.43-15.55 6.1-23.45 2-9.45 4.28-18.86 5.62-28.45.38-2.7.8-5.37.81-8.11.03-5.34 1.34-10.49 2.71-15.62.27-.99.5-2 .63-3.01.92-7.18 2.9-14.1 5.25-20.92.83-2.4 2.09-4.6 3.9-6.41.42-.41.7-1.06 1.49-.95.12.02.33-.22.4-.38 1.2-2.3 2.66-4.39 4.34-6.34h-.01Zm-19.1 64.96-.3-.08-.32 1.96c-.28 1.67-.48 3.37-.86 5.01-2.14 9.22-3.66 18.57-6.13 27.72-1.29 4.76-2.57 9.53-3.9 14.29a21.91 21.91 0 0 1-1.15 3.03c-1.8 4.03-3.66 8.06-5.48 12.09-.21.48-.36.97-.55 1.47 12.46-20.1 17.7-42.2 18.7-65.5v.01Zm12.33-54.42.23.25c-.4.45-.84 1.28-1.21 1.26-1.16-.08-1.24.8-1.42 1.4-1.53 5.06-2.98 10.14-4.45 15.22-.06.2 0 .46.01.68.72-1.59 1.2-3.2 1.7-4.8 1.1-3.64 1.71-7.48 4.36-10.49l.07-.14 2.38-6.12a7.12 7.12 0 0 0-2.61 2.97l.94-.24Zm-10.17 35.88-.32-.03c-.26 1.59-.65 3.15-.32 4.8l.64-4.77Zm140.68-2.1-.86-.33.28-1.05c-.09-.03-.17-.08-.25-.09-.9-.13-1.72.13-2.48.6-1.62 1-3.21 2.05-4.85 3.01-1.18.7-1.48 1.63-1.12 2.87.12.4.18.8.3 1.19a41.56 41.56 0 0 1 2.1 17.01c-.22 2.56-.58 5.11-.95 7.65a7.82 7.82 0 0 1-1.82 4.03c-.33.4-.53.89-.83 1.3-.3.42-.3.8-.14 1.29 1.41 4.4 2.74 8.84 4.2 13.23 1.83 5.51 3.77 11 5.66 16.5.72 2.08 1.33 4.21 2.14 6.27 2.23 5.64 4.5 11.27 6.83 16.87.61 1.48.66 2.88.2 4.35-.09.28-.2.64-.42.8-1.32.9-2.05 2.29-3.02 3.46-.18.22-.45.36-.98.77.17-.56.17-.8.3-.94 1.04-1.2 1.82-2.58 3.06-3.65.9-.78.94-2.13.63-3.32-.19-.73-.52-1.44-.82-2.16-2.22-5.53-4.56-11.02-6.63-16.61a660.81 660.81 0 0 1-7.05-20.26c-1.53-4.58-2.82-9.24-4.3-13.84-.58-1.81-1.43-3.53-2.08-5.31-.87-2.42-1.65-4.87-2.5-7.3-.2-.57-.45-1.14-.72-1.69-.58-1.17-.87-1.28-2.03-.88-1.4.48-1.7.9-1.5 2.07.34 1.86.68 3.73 1 5.6.52 3.24 1.83 6.21 3 9.23 1.32 3.41 2.55 6.84 3.57 10.35.98 3.4 2.4 6.68 3.48 10.06a1822.4 1822.4 0 0 1 8.35 26.64c1.15 3.78 2.14 7.63 2.94 11.5.42 1.98.3 4.08.33 6.13.02.99-.15 2.12-1.26 2.42-1.15.31-1.74-.66-2.22-1.54-.27-.5-.54-1-.7-1.54-1.16-4.1-2.31-8.2-3.43-12.32-.73-2.68-1.4-5.37-2.12-8.05-1-3.77-2.02-7.54-3-11.32a453.2 453.2 0 0 1-2.56-10.32c-1.66-7.1-3.26-14.22-4.9-21.33-.62-2.7-1.31-5.4-1.87-8.11-.5-2.46-.87-4.96-1.32-7.43-.22-1.21.24-1.99 1.38-2.38a13.3 13.3 0 0 1 1.61-.49c.7-.15 1.23.12 1.52.77.41.94.82 1.88 1.17 2.84 1.06 2.9 2.08 5.8 3.11 8.71.07.18.2.33.36.58 1.26-1.5 2.34-2.96 2.7-4.85 1.13-6.06 1.55-12.13.5-18.24-.38-2.19-.75-4.36-1.63-6.41a4.97 4.97 0 0 1-.2-.59c-.6-2.34-.38-3.12 1.69-4.4 2.3-1.42 4.73-2.65 7.1-4 .28-.16.59-.42.73-.7 1.76-3.6 3.85-7.07 4.7-11.06.7-3.32 1.62-6.6 2.24-9.94a101.6 101.6 0 0 0 .35-34.22c-1.1-7.09-2.79-14.02-5.7-20.6-1.7-3.85-3.61-7.59-5.78-11.34-.79.29-1.52.53-2.22.82-.68.28-1.3.21-1.93-.12-3.32-1.72-5.82-4.14-7.02-7.8a41.25 41.25 0 0 1-1.88-9.5c-.12-1.37-.02-2.78.15-4.15a3.2 3.2 0 0 0-.58-2.28 48.47 48.47 0 0 0-16.24-15.53c-1.54-.93-2.94-2.08-4.4-3.14-.4-.3-.8-.63-1.35-.82l.46 1.07c-.21.02-.4.1-.47.04-.34-.3-.77-.6-.93-1-.83-1.97-2.6-2.75-4.4-3.33a3.15 3.15 0 0 1-2.31-2.34c-1.34-4.37-2.8-8.7-3.6-13.22-.19-1-.57-1.98-.94-2.93-.7-1.82-2-2.56-3.92-2.1a38.54 38.54 0 0 0-11.68 4.78 45.15 45.15 0 0 0-6.98 5.3c-1.8 1.69-3.84 3.09-5.9 4.72.3 1.84.62 3.81.92 5.78a267.41 267.41 0 0 1 3.15 33.9c.1 4.8-.79 9.4-2.72 13.83-.34.77-.46 1.63-.68 2.46l.03-.07-1.16.82c-.58-.32-1.06-.7-1.15-1.7l1.12.76c.1-.11.23-.21.29-.34a36.63 36.63 0 0 0 3.6-17.8 317.26 317.26 0 0 0-4.16-38.3c-1.19-7.14-2.5-14.27-4.49-21.25-1.63-5.68-3.45-11.3-5.25-16.93-1.1-3.45-2.97-6.54-4.98-9.54a10.9 10.9 0 0 0-1.55-1.9c-2.6-2.57-5.2-5.14-7.87-7.62-3.57-3.31-7.74-5.8-11.9-8.26-1.53-.9-3.1-.84-4.72 0-.94.48-2 .71-3.04 1.01-.19.06-.44-.1-.95-.23l.91-.39c.92-.3 1.9-.5 2.74-.95a5.35 5.35 0 0 1 5.59.09c5.5 3.25 10.85 6.73 15.2 11.51.69.76 1.46 1.46 2.24 2.13 4.1 3.51 6.78 8.04 8.57 13 4.4 12.1 7.84 24.47 9.8 37.22.07.56.21 1.1.34 1.79.32-.15.61-.21.82-.38 2.26-1.87 4.44-3.84 6.77-5.62a72.06 72.06 0 0 1 6.5-4.42 36.14 36.14 0 0 1 10.48-4.04c2.2-.52 3.73.3 4.57 2.38.47 1.14.84 2.33 1.1 3.53a68.9 68.9 0 0 0 2.84 10.4c.34.86.54 1.77.77 2.67.16.58.48 1 1.06 1.22l3.9 1.51-.14.3c.09-.04.2-.05.28-.1 1.4-.97 1.41-.97.97-2.56a421.36 421.36 0 0 1-4.24-17.36 38.61 38.61 0 0 0-3.18-8.33c-1.55-3.1-4.43-4.47-7.83-4.7a3.97 3.97 0 0 0-1.96.34c-3.52 1.83-7.1 3.56-10.47 5.63-3.5 2.14-6.8 4.63-10.22 6.94-.83.55-1.63 1.22-2.83 1.3.09-.26.1-.43.18-.48 3.69-2.46 7.44-4.81 11.04-7.37 3.05-2.16 6.38-3.77 9.7-5.44.22-.12.49-.18.69-.34 3.55-2.82 9.99-.5 12.12 3.5 1.25 2.35 2.06 4.93 3.06 7.4l.33.92c1.4-.08 2.56-.75 3.69-1.42 8.17-4.79 16.32-9.63 24.5-14.42 2.93-1.72 5.92-3.34 8.88-5a24.77 24.77 0 0 1 7.01-2.36c1.7-.37 3.14-.02 4.17 1.54.63.95 1.65 1.64 1.65 2.95 0 .25.27.5.52.96.5-.66.94-1.15 1.3-1.69 2.74-4.13 6.7-6.04 11.52-6.6 2.23-.25 4.41-.97 6.63-1.4 4.37-.83 8.7-.82 12.94.75 2.27.84 4.58 1.57 6.84 2.44 1.15.43 2.23 1.03 3.45 1.6l.8-.37c1.33 3.44 2.63 6.78 3.88 10.14.92 2.46 1.87 4.91 2.62 7.42 2.2 7.33 4.47 14.64 6.25 22.1 1.75 7.3 3.77 14.53 5.77 21.77 1.3 4.7 2.8 9.35 4.1 14.06a268.07 268.07 0 0 1 4.43 19.54c.76 3.88 1.77 7.71 2.7 11.55 1.48 6.15 3.02 12.28 4.49 18.43 1.49 6.25 3.2 12.44 5.26 18.54 1.23 3.65 2.28 7.36 3.38 11.06.23.77.29 1.6.43 2.45-1.06.56-2 1.22-2.16 2.35-.15.98-.01 2 0 3.15-2.32-.83-4.34.14-6.45.78-3.54 1.08-7.16 1.93-10.73 2.94-6.44 1.83-13.06 2.35-19.68 2.95l-1.57.15c.38 1.06 1.17 1.01 2.13.84l-.3.9c2.58 3.12 6.02 4.41 10.04 4.32 1.38-.02 2.75-.12 4.13-.2.33 1.38.67 2.61.9 3.86.06.31-.25.7-.42 1.17 3.29 1.82 5.91 4.47 8.25 7.43a35.06 35.06 0 0 1 6.43 13.2c.2.8.43 1.6.65 2.38.63 2.27.63 4.56.34 6.88-.68 5.58-2.43 10.72-6 15.16a7.27 7.27 0 0 1-3.03 2.27c-3.44 1.4-6.83 2.91-10.21 4.44-1.68.75-3.3 1.67-4.97 2.46-.48.23-1.1.18-1.6.4-5.4 2.2-10.79 4.39-16.16 6.65-.57.24-.99.84-1.26 1.08-.83.15-1.49.14-2 .4a37.4 37.4 0 0 1-6.85 2.8l-2.27.69c-.73 1.9-1.38 3.81-2.19 5.64a13.72 13.72 0 0 1-1.86 2.99c-.9 1.11-1.98 2.08-2.96 3.14a5.66 5.66 0 0 1-2.5 1.4c-2.75.95-5.13.46-7.67-.88-2.66-1.4-4.25-3.3-4.7-6.22-.02-.2-.13-.38-.27-.75l-6.82-.15c.39-.46.65-.9.76-.87 1.97.63 3.97.1 6.05.38l.1-2.85c.2-4.02 1.2-7.81 3-11.41 1.99-3.93 4.78-6.81 9.42-7.25 0-.2.03-.32 0-.4-1.49-3.45-1.7-7.19-2.43-10.8-1.45-7.36-2.97-14.7-4.47-22.05-.15-.76-.28-1.52-.47-2.27-.1-.42-.23-.87-.45-1.25-.6-.98-.62-1.35.4-1.82a82.3 82.3 0 0 1 5.7-2.33c1.07-.4 2.2-.66 3.36-.81-2.48 1.65-5.63 1.69-8.28 3.51.4.37.7.66 1.03.92.93.71 2 1.3 2.78 2.15 2.74 3.07 5.44 6.2 6.96 10.1a76.4 76.4 0 0 1 2.2 6.74 68.73 68.73 0 0 1 2.45 15.65c.15 2.95-.28 5.22-1.4 7.44 1.9 1.63 2.3 3.86 2.2 6.25-.06 1.13-.1 2.26-.12 3.4-.01.48.05.97.1 1.55.52-.04.88-.03 1.2-.12 3.3-.9 6.39-2.35 9.38-3.95.48-.26.84-.89 1.07-1.42a36.7 36.7 0 0 0 3-11.91c.2-2.51.25-5.03.35-7.55.16-4.33-.85-8.47-2.25-12.52-1.98-5.7-4.18-11.31-8.08-16.03-2.29-2.76-4.85-5.3-7.3-7.94-.23-.26-.55-.46-.84-.67-4.48-3.13-4.14-2.4-7.88-1.03-2.42.9-4.8 1.9-7.23 2.76-2.62.93-5.27 1.73-8.06 2.64l.3 2.36c.56.12 1.19.1 1.56.38.35.27.6.86.65 1.34.54 4.6.6 9.23.15 13.85-.11 1.17-.82 1.86-1.93 2.14-1.1.29-2.13-.13-2.8-1.13-.11-.15-.1-.37.06-.73.25.24.54.46.77.72 1.02 1.13 3.2.46 3.26-1.14.08-2.77.18-5.54.24-8.32.02-.87-.14-1.74-.11-2.61.04-1.31-.33-2.32-1.68-2.72-.31 1.65-.65 3.35-.96 5.06-1.28 6.88-3.84 13.34-6.79 19.65-.62 1.32-1.7 2.44-2.65 3.57-.39.47-1 .84-1.95.3 2.49-.9 3.5-2.9 4.4-4.86 3.18-7.06 5.85-14.3 6.97-22.02.23-1.6.03-3.27-.05-4.9a2.38 2.38 0 0 0-.48-1.27c-1.3-1.67-2-3.59-2.3-5.65-.12-.92.02-1.88.04-2.81.83.05.82.8 1.07 1.32.25.49.4 1.02.55 1.44 1.32-.48 2.51-.93 3.72-1.35 6.33-2.18 12.7-4.26 19-6.57 4.36-1.6 8.71-3.17 13.22-4.32 2.71-.7 5.41-1.34 8.22-.7.91.21 1.76.24 2.56-.3-.16-.34-.36-.65-.46-.98-.76-2.72-1.55-5.44-2.26-8.17-1.4-5.42-2.76-10.86-4.13-16.28-1.11-4.39-2.3-8.75-3.31-13.15-1.3-5.66-2.49-11.34-3.7-17.02-1.53-7.07-3.03-14.16-4.56-21.24-.9-4.22-1.86-8.42-2.77-12.64-1.02-4.72-1.97-9.45-3.02-14.16-1.19-5.32-2.34-10.64-3.71-15.91-1-3.87-2.31-7.67-3.51-11.5-1.35-4.32-2.7-8.64-4.11-12.94-1.27-3.86-2.94-7.57-4.6-11.28-1.15-2.63-1.94-5.43-3.03-8.08-.56-1.36-1.38-2.63-2.15-3.89-.57-.94-1.5-1.22-2.55-1-1.47.3-3 .47-4.34 1.06a97.91 97.91 0 0 0-8.72 4.3c-3.78 2.1-7.43 4.42-11.16 6.63-4.92 2.9-9.84 5.8-14.79 8.68-1.72 1-3.5 1.9-5.38 2.92.51 6.48 2.9 12.58 4.27 18.88 4.03.78 7.94 1.46 11.81 2.31 3.82.84 7.61 1.81 11.4 2.8.98.26 1.9.79 2.83 1.22.8.37 1.55.82 2.35 1.16 1.78.75 3.35 1.8 4.77 3.1.56.5 1.17.98 1.84 1.54.67-1 1.34-1.85 1.87-2.77a10.45 10.45 0 0 1 4.74-4.28c2.25-1.05 4.6-1.6 7.04-.66 2.37.92 4.57 2.17 6.32 4.06 4.23 4.54 6.86 9.94 8.3 15.96.41 1.75.23 3.48.02 5.2-.21 1.72-.5 3.46-1.01 5.12a7.67 7.67 0 0 1-5.17 5.15c-1.51.48-2.74 1.47-4.35 1.84.29 1.1.6 2.13.83 3.17.98 4.25 1.91 8.52 2.9 12.78a90.7 90.7 0 0 1 2.46 24.62c-.42 9.6-2.28 19-5.15 28.16a50.91 50.91 0 0 1-5.16 11.7c-1.41 2.28-2.76 4.6-4.19 6.85a67.37 67.37 0 0 1-2.64 3.8c-.6.82-1.31 1.58-1.93 2.4-.2.29-.61.64-.15 1.06l-.02-.03Zm66.41-23.96c-.85-.4-1.16-1.18-1.47-1.9-.78-1.73-1.6-3.45-2.2-5.25-1.79-5.2-3.67-10.38-5.14-15.68-1.4-5.1-2.58-10.27-3.43-15.49-1.64-10.03-3.02-20.11-4.43-30.2a419.78 419.78 0 0 0-5.84-31.66c-1.2-5.47-2.25-10.97-3.46-16.44a555.96 555.96 0 0 0-3.84-16.35c-.92-3.58-2.13-7.09-3.12-10.65a70.97 70.97 0 0 0-4.62-12.41c-.63-1.3-1.54-2.09-3.12-1.9-1.22.14-2.46.13-3.7.2a14.83 14.83 0 0 0-5.04 1.77l.58 1.07c2.5 4.26 4.7 8.68 6.59 13.24a185.8 185.8 0 0 1 8.33 25.33 670.7 670.7 0 0 1 4.81 20.88c1.68 7.68 3.23 15.4 4.86 23.09 1.01 4.78 2.08 9.54 3.08 14.32 1.24 5.88 2.42 11.78 3.64 17.66 1.12 5.44 2.22 10.88 3.42 16.3 1.05 4.76 2.2 9.5 3.39 14.24.69 2.74 1.54 5.44 2.3 8.16.13.45.5.94-.12 1.48-.2-.23-.44-.42-.55-.67-.5-1.07-1.01-2.14-1.41-3.25-1.73-4.85-3.48-9.68-5.08-14.57-1.28-3.9-2.43-7.86-3.5-11.83-1.62-5.95-3.13-11.93-4.69-17.9-.97-3.72-1.94-7.45-2.97-11.17-1.95-7.09-3.91-14.17-5.9-21.24-1.34-4.8-2.75-9.58-4.1-14.38-1.96-7.02-3.9-14.06-5.84-21.1-.86-3.11-1.78-6.22-2.6-9.35-1.18-4.52-2.27-9.07-3.47-13.59-1-3.82-2.11-7.63-3.2-11.43-.37-1.31-.8-2.6-1.25-4.04-.96.53-1.74 1.04-2.58 1.42-3.61 1.6-4.1 6.16-2.93 9.03 1.04 2.58 2.32 5.05 3.32 7.64 1.19 3.07 2.24 6.19 3.24 9.32 2.23 6.95 4.46 13.9 6.55 20.9a152.5 152.5 0 0 1 2.67 10.77c.9 4.06 1.57 8.17 2.46 12.24 1.62 7.43 3.39 14.83 5 22.26 2.05 9.44 3.95 18.91 6.05 28.34 1.57 7.02 3.34 14 5.04 20.99.85 3.49 1.75 6.98 2.64 10.46.5 1.92 1 3.84 1.5 5.68 1.03-.2 1.87-.4 2.73-.52 3.72-.53 7.47-.9 11.16-1.6 4-.76 7.93-1.83 11.9-2.75 3.9-.91 7.83-1.8 11.73-2.73.93-.22 1.9-.44 2.68-1.19l-2.06-4.38c-.82-1.77-1.65-3.54-2.45-5.32-1.35-3-2.83-5.95-3.98-9.03a254.55 254.55 0 0 1-8.47-27.23c-1.83-7.32-4-14.56-5.9-21.87a416.63 416.63 0 0 1-3.91-16.66 180.58 180.58 0 0 0-5.48-20.7 935.75 935.75 0 0 1-8.69-26.53 176.1 176.1 0 0 0-7.58-20.38c-1.62-.5-3.1-1.48-5.01-1.04.83 1.97 1.7 3.88 2.43 5.84 1.56 4.24 3.21 8.47 4.53 12.8 1.92 6.29 3.6 12.65 5.34 19 .93 3.37 1.76 6.76 2.62 10.15 1.36 5.38 2.68 10.77 4.04 16.16 1.1 4.33 2.25 8.65 3.33 12.99 1.58 6.33 3.12 12.67 4.68 19.01 1.19 4.84 2.4 9.68 3.58 14.52 1.69 6.89 3.33 13.79 5.04 20.67 1.5 6.04 3.04 12.06 4.63 18.07.56 2.13 1.15 4.28 2.69 5.99.03.03-.05.18-.12.4-.26-.14-.58-.2-.71-.4-.47-.74-1.02-1.47-1.27-2.28-.87-2.8-1.64-5.62-2.41-8.44a576.06 576.06 0 0 1-2.96-11.18c-1.7-6.88-3.35-13.77-5.04-20.66l-4.5-18.1c-2.2-8.92-4.38-17.86-6.6-26.78-2.2-8.82-4.35-17.66-6.7-26.44a635.24 635.24 0 0 0-7.26-25.5c-1.58-5.1-3.77-10.01-5.73-14.98-.17-.42-.6-.95-.98-1.03-.88-.19-1.82-.13-2.91-.18l.4.87a63.01 63.01 0 0 1 4.18 10.44c1.3 4.28 2.62 8.56 3.76 12.88a365.74 365.74 0 0 1 3.68 15.13 1270.2 1270.2 0 0 1 4.8 22.78c1.32 6.6 2.7 13.2 3.74 19.84 1.71 10.9 3.13 21.86 4.75 32.8a158.4 158.4 0 0 0 4.33 20.66c.8 2.82 1.68 5.61 2.67 8.37 1.37 3.88 2.86 7.71 4.33 11.55a5 5 0 0 0 .92 1.4c.34.38.56.7.19 1.24Zm23.09-5.53c-.37-1.02-.75-1.97-1.06-2.94-.65-2-1.35-3.99-1.85-6.02-.88-3.49-1.6-7.01-2.43-10.5-.9-3.75-1.9-7.47-2.82-11.21-1.26-5.03-2.66-10.03-3.7-15.12-1.73-8.46-4.04-16.77-6.3-25.1-.82-3.02-1.68-6.03-2.52-9.05-1.38-4.95-2.74-9.9-4.15-14.84-.7-2.47-1.6-4.89-2.26-7.37-1.26-4.72-2.43-9.45-3.61-14.19-1.06-4.24-2.03-8.5-3.15-12.71-1-3.82-1.83-7.7-3.52-11.33a9.68 9.68 0 0 1-.7-2.04c-.57-2.66-2.29-4.28-4.72-5.27-1.95-.8-3.9-1.6-5.87-2.37-.57-.22-1.16-.58-1.82-.38-.02.16-.03.22-.02.26 2.91 6.55 5.18 13.32 7.42 20.11 1.69 5.13 3.18 10.32 4.85 15.45 1.25 3.87 2.73 7.66 3.98 11.53 2.52 7.78 4.31 15.76 6.02 23.75 1.92 9 4.37 17.86 6.82 26.73.79 2.87 1.51 5.76 2.31 8.64 1.21 4.35 2.43 8.71 3.7 13.05.75 2.5 1.6 5 2.47 7.47.8 2.33 1.6 4.68 2.57 6.94 2.01 4.62 4.13 9.2 6.22 13.77.57 1.23 1.24 2.42 1.85 3.59l2.3-.84-.01-.01Zm-28.87 83.54c.48-.17.75-.26 1.02-.37l5.8-2.54c2.46-1.08 4.88-2.25 7.38-3.2a7.27 7.27 0 0 0 3.22-2.5 26.87 26.87 0 0 0 5.32-12.5c.36-2.29.8-4.6.35-6.9-.94-4.76-2.35-9.38-4.9-13.56a32.63 32.63 0 0 0-9.46-10.22c-.82-.55-1.93-.13-2.57-1-.04-.05-.28.05-.44.08-1.71.3-3.44.57-5.15.92-2.67.56-5.03-.05-7.34-1.49-1.91-1.19-4.02-2.06-6.1-2.97-.9-.39-1.94-.49-2.98-.74.04.31.02.44.07.5 2.86 3.88 5.8 7.71 8.59 11.65a46.33 46.33 0 0 1 8.35 20.66c1.05 7.66 1.2 15.26-.88 22.8-.1.37-.16.76-.28 1.37v.01Zm-36.7-52.43.02.23c.33.04.7 0 .99.13.3.13.53.46.83.62 3.78 1.95 6.48 5.01 8.79 8.48a92.93 92.93 0 0 1 7.8 14.51 29.47 29.47 0 0 1 2.03 5.97c.86 4.44 1.5 8.92 2.1 13.4.49 3.63 0 7.18-1.52 10.56-.7 1.55-1.4 3.1-2.08 4.65l-.58 1.45c.54-.2.86-.3 1.17-.43 4.81-1.98 9.6-4.03 14.45-5.92 1.31-.51 2.02-1.28 2.31-2.58l.87-3.92c.3-1.3.14-2.65.32-3.97.21-1.55 0-3.19-.23-4.75-.91-6.34-2.92-12.4-4.81-18.48a81.45 81.45 0 0 0-5.13-12.55c-1.88-3.72-3.8-7.41-6.95-10.29a2.7 2.7 0 0 1-.51-.57c-.54-.88-1.3-.95-2.26-.85-4.27.48-8.4 1.59-12.52 2.74-1.71.48-3.4 1.05-5.1 1.58Zm-27.75-92.41.38.82c1.71 3.39 3.55 6.72 5.13 10.18 3.07 6.73 4.83 13.87 5.94 21.16 1.2 7.79 1.5 15.61 1 23.5-.52 7.97-2.15 15.68-4.29 23.32-.3 1.08-.8 2.12-1.29 3.13-1.02 2.17-2.1 4.3-3.15 6.48.13-.03.26 0 .32-.06 1.47-1.72 3.01-3.38 4.04-5.44.38-.77.9-1.49 1.38-2.22a70.3 70.3 0 0 0 5.64-10.27c2.5-5.69 3.94-11.7 5.23-17.73 2.47-11.54 2.95-23.14.75-34.76-1.23-6.5-2.78-12.94-4.23-19.4-.18-.84-.57-1.61-.9-2.54-.7.25-1.32.45-1.93.7a86 86 0 0 0-3.08 1.43c-.73.34-1.35.32-1.98-.26-.45-.4-1.01-.67-1.27-.84l-7.7 2.8Zm59.13 58.87c-.12-.72-.22-1.45-.39-2.16-.57-2.35-1.25-4.67-1.75-7.03-2.05-9.64-4.04-19.3-6.07-28.95-2.14-10.15-4.32-20.3-6.47-30.44-1.59-7.49-3.23-14.97-4.74-22.47a263.5 263.5 0 0 0-7.33-28.65c-2.9-9.03-6.27-17.85-11.06-26.08l-1.35-2.26c-.8.36-1.43.65-2.15.96l1.74 6.23c1.5 5.44 3.01 10.9 4.49 16.35 2.1 7.68 4.14 15.38 6.24 23.07 1.23 4.5 2.51 9 3.78 13.51 1.68 5.99 3.35 11.99 5.04 17.96 1.07 3.76 2.24 7.5 3.26 11.26 1.62 6.01 3.14 12.04 4.72 18.06 1.24 4.72 2.55 9.43 3.74 14.16a221.1 221.1 0 0 0 8.3 26.49Zm-33.39-80.67c-1.2-2.49-2.23-4.72-3.36-6.92a25.8 25.8 0 0 0-4.36-6.5 10.63 10.63 0 0 0-5.57-3.1c-1.34-.26-2.75-.19-4.12-.3a4.06 4.06 0 0 0-3.83 1.83 8.29 8.29 0 0 0-1.63 5.2c.03 2.88.11 5.76.28 8.63a10 10 0 0 0 1.36 4.84c.98 1.56 1.94 3.15 3.08 4.6 3.03 3.85 7.08 4.81 11.74 3.94 3.46-.66 5.71-2.72 6.96-5.9.29-.74.42-1.62.32-2.4-.19-1.41-.61-2.8-.87-3.92Zm25.5 97.3 1.8-.31c1.88-.36 3.73-.81 5.61-1.07 4.75-.66 9.5-1.2 14.24-1.85a529.1 529.1 0 0 0 13.74-2.07c1.4-.24 2.73-.83 4.11-1.18.95-.23 1.92-.32 2.89-.48-.06.4-.19.57-.35.62-1.64.47-3.24 1.07-4.91 1.34a643.9 643.9 0 0 1-18.62 2.86c-6.1.82-12.26 1.24-18.37 2.94l1.43 3.92c1.55 0 3.14.09 4.71-.03 3.03-.22 6.05-.54 9.07-.86 6.17-.67 12.08-2.54 18.1-3.96 2.97-.7 5.65-2.58 9-2.13a4.73 4.73 0 0 1 2.25-5.11l-1.96-5.38c-.23-.63-.74-.69-1.27-.48-.76.3-1.48.75-2.27.97-2.7.81-5.42 1.63-8.17 2.3-4.7 1.16-9.43 2.2-14.13 3.32a99.7 99.7 0 0 1-15.4 2.46c-.82.06-1.62.4-2.48.62l.96 3.58.01-.01Zm20.23 12.05c-1.26.06-2.44.15-3.61.17-3.76.07-7.15-.9-9.78-3.74-.92-1-2.27-1.4-3.14-2.5-.69-.88-1.83-.49-2.77-.24a6.1 6.1 0 0 1-2.4.07c-1.67-.2-3.44-.48-5.05-.15-3.37.7-6.7 1.68-9.98 2.73-3.23 1.04-6.37 2.38-9.59 3.5-5.45 1.9-10.93 3.7-16.38 5.6-1.1.37-2.14.92-3.32 1.43l1.34 4.27c2.9-.56 5.55-1.35 8.13-2.4 4.44-1.82 8.93-3.48 13.54-4.82 5.74-1.67 11.44-3.43 17.41-4.11 2.1-.24 4.13-.14 6.04.65 2.22.92 4.37 2.05 6.5 3.19 1.33.7 2.61 1.51 4.18 1.4 3.23-.22 6.45-.46 9.53-1.89l-.65-3.16Zm-56.14 75.39c.46.86 1.1 1.9 1.62 3.03.82 1.8 2.22 2.85 4 3.62 1.95.85 3.74.6 5.4-.56a11.34 11.34 0 0 0 4.87-7.26c.43-2.12.8-4.25 1.02-6.4.36-3.62-.02-7.08-2.64-9.93-2.87-3.13-4.09-3.75-8.08-1.25a13.38 13.38 0 0 0-4.14 4.33c-2.77 4.4-3.66 9.1-2.06 14.42Zm-52.64-207.48c.07.27.07.4.13.46 2.53 1.85 5.05 3.72 7.6 5.54 1.21.86 2.52 1.6 3.72 2.47a44.9 44.9 0 0 1 11.41 11.78c.35.53.76 1.03 1.05 1.4 3.01-1.85 5.98-3.17 9.3-3.46l.22-2.3c.08-1.05.4-1.96 1.3-2.66.48-.39.83-.97 1.23-1.46-2.19-2.1-4.36-3.9-7.06-4.93-.53-.2-1-.54-1.52-.76-1.42-.58-2.82-1.25-4.3-1.69-6.66-1.98-13.53-3.07-20.34-4.43-.35-.07-.96-.23-1.03-.1-.5.83-1.1 0-1.72.13v.01Zm68.34 190.05a10.47 10.47 0 0 0 1.25-5.8c-.12-2.66-.4-5.33-.68-7.98-.52-4.83-1.85-9.49-3.44-14.05-1.64-4.7-4.83-8.43-8.2-12a5.4 5.4 0 0 0-2.75-1.41c.3 1.55.53 2.9.81 4.23.86 4.07 1.79 8.12 2.58 12.2 1 5.2 1.85 10.42 2.85 15.62.28 1.45.88 2.83 1.37 4.23.16.43.45.82.76 1.38 2.26.2 3.54 2.3 5.44 3.58h.01Zm-24.22-148.59c-7.68-5.66-11.33-13.1-10.8-22.53-.63.04-1.1.06-1.55.11-2.24.28-4.17 1.42-6.17 2.33a2 2 0 0 0-.93 1.3c-.26 1.46-.54 2.95-.49 4.42a37.6 37.6 0 0 0 1.89 10.41c1.09 3.34 3.34 5.57 6.32 7.24.74.4 1.4.43 2.2.13 2.7-1 5.43-1.94 8.15-2.9l1.4-.51h-.02Zm-1.6 201.1c.93-.5 1.01-1.26 1-1.96-.05-2 .1-4.05-.33-5.98-.88-4.11-2.04-8.16-3.17-12.22-.8-2.86-1.74-5.7-2.63-8.54-1.92-6.07-3.82-12.15-5.78-18.2-1.08-3.33-2.45-6.56-3.4-9.92-.97-3.42-2.2-6.7-3.6-9.96.03.56.05 1.12.17 1.66 1.6 6.9 3.18 13.8 4.81 20.7.82 3.45 1.68 6.88 2.56 10.32.93 3.62 1.91 7.25 2.87 10.87l2.23 8.5c.95 3.57 1.87 7.15 2.88 10.7.3 1.03.79 2.01 1.3 2.96.24.44.74.75 1.08 1.08Zm-5.22-231.22c-.99 1.09-1.82 1.93-2.55 2.84-.3.37-.54.9-.57 1.37-.12 1.9-.15 3.8-.2 5.7-.09 4 .88 7.74 2.85 11.2 1.66 2.93 3.69 5.58 6.5 7.53.96.67 2.08 1.13 3 1.85.74.58 1.38.54 2.13.2 1.7-.76 3.42-1.51 5.23-2.3-.32-.08-.55-.14-.8-.18a10.3 10.3 0 0 1-6.13-3.3 33.35 33.35 0 0 1-3.1-4.01c-1.98-2.99-3.02-6.4-4.27-9.72-1.33-3.53-2.35-7.1-2.1-11.18Zm23.65 175.38c-3.43.36-5.76 2.3-7.43 5.15a25.82 25.82 0 0 0-3.6 16.8c.25 1.92.92 3.73 2.73 4.78 1.2.7 2.44 1.33 3.7 1.93 1.08.53 2.21.65 3 .27-.84-.5-1.87-1.06-2.85-1.7-.63-.43-1.35-.86-1.75-1.47a25.11 25.11 0 0 1-2.52-4.57c-2.1-5.52-1.05-10.72 2.16-15.52a15.13 15.13 0 0 1 6.56-5.68v.01Zm-16.9-155.44c.03.2.02.36.08.48a17.76 17.76 0 0 0 5.1 5.7c4.41 3 13.06 2.14 14.5-6.02.04-.19 0-.4-.02-.82-3.53 6.4-14.5 7.45-19.66.65Zm-4.38-10.74c0-.35.02-.7 0-1.05-.04-2.21-.15-4.41-.14-6.62 0-2.17.6-4.16 2.04-5.85a4.37 4.37 0 0 1 3.6-1.75c1.14.03 2.27.05 3.4.13a11 11 0 0 1 7.4 3.68c2.52 2.65 4.07 5.9 5.67 9.12.64 1.28 1.2 2.6 1.8 3.9-.87-4.56-3.36-9.3-6.78-13.33a17.08 17.08 0 0 0-6.78-4.69 6.5 6.5 0 0 0-3.48-.34c-1.67.25-3.2.86-4.56 1.8-2.12 1.46-3.58 3.43-3.84 6.05-.32 3.12.36 6.11 1.67 8.95Zm53.02 122.71c4.84 9.67 7.64 20.01 10.2 30.43-.02-11.27-3-21.55-10.2-30.43Zm-2.66-185.02c-.74-1.26-1.99-2-3.41-2.52-2.43-.87-4.88-1.65-7.27-2.58-3.88-1.5-7.86-1.42-11.87-.96-.44.05-.88.26-1.3.4.7.17 1.39.1 2.07.02.24-.03.47-.13.7-.1.7.08 1.4.22 2.1.3 2.55.23 5.1.08 7.58 1.12 3.74 1.58 7.58 2.89 11.4 4.32Zm14.6 47.2c.1-.03.21-.04.31-.06-1.73-7.32-3.41-14.65-5.8-21.8l5.5 21.85h-.01Zm-18.94 184.26a15.7 15.7 0 0 0 1.06-9.7l-1.06 9.7Zm-34.44-232.1c1.96-1.02 3.7-1.92 5.42-2.83-2.23.16-3.78 1-5.42 2.84Zm77.43 140.16-.13.04 1.04 2.86.13-.04-1.04-2.86Zm-58.68 97.27h.32l-.42-1.95-.23.05.33 1.9Zm40.91-168.6-.07.03.6 1.66.07-.03-.6-1.66Zm1.06 3.76-.1.04.66 1.84.1-.04-.66-1.84Zm.86 3.32-.05.02.54 1.49.06-.02-.55-1.49Zm-64.81-71.73-.24-.1c-.1.17-.24.33-.27.5-.02.19.09.39.14.58l.2-.02.17-.96Zm24.4 181.74.15-.13-.71-.75-.16.14.73.74Zm-26.72 3.65-.32.19.5.65.21-.14-.38-.69Z"/><path d="M148.78 203.97c-.83.58-1.62 1.07-2.32 1.65a7.74 7.74 0 0 1-5.08 1.93c-3.82.01-7.64-.03-11.3-1.24a13.1 13.1 0 0 1-3.33-1.58 99.98 99.98 0 0 1-6.9-5.2c-3.1-2.56-5.3-5.89-7.1-9.42-1.9-3.7-3.5-7.55-5.17-11.36-1.62-3.72-3.33-7.42-4.68-11.24-2.29-6.5-4.6-13-6.39-19.65-1.84-6.9-2.64-14.02-2.93-21.18-.25-6.37-.7-12.74-.04-19.1.36-3.47.88-6.94 1.6-10.35.82-3.88 1.92-7.69 2.94-11.52a38.57 38.57 0 0 1 5.55-12c2.71-3.95 5.4-7.92 9.09-11.07 2.7-2.32 5.54-4.48 8.95-5.68a9.65 9.65 0 0 1 8.35.69 38.32 38.32 0 0 1 8.84 6.9c4.26 4.6 7.57 9.85 10.76 15.2a81 81 0 0 1 7.6 17.5c1.9 6.08 3.52 12.25 5.23 18.38 1 3.62 1.91 7.25 2.9 10.87a74.25 74.25 0 0 1 2.33 23.68c-.44 7.77-1.1 15.49-3.07 23.05a49.4 49.4 0 0 1-2.6 7.58c-2.6 5.84-5.36 11.6-9 16.89-1.1 1.6-2.33 3.14-3.47 4.73-.32.46-.51 1.02-.76 1.53Zm-43.27-33.38.33-.11 1.53 4.2c2.12 5.7 4.46 11.29 7.15 16.73 2.07 4.22 5.34 7.45 9.23 9.93 2.36 1.5 5.11 2.4 7.71 3.52a19.44 19.44 0 0 0 9.08 1.45c3.33-.23 6.35-1.35 8.4-4.22 1.66-2.3 3.33-4.58 4.9-6.93 3.37-5.04 5.78-10.58 8.17-16.1a39.78 39.78 0 0 0 1.82-5.57c1.83-6.9 2.59-13.94 3.05-21.04.6-9 .07-17.87-2.4-26.58-.96-3.4-1.79-6.86-2.74-10.27-1.75-6.24-3.4-12.5-5.33-18.68a76.01 76.01 0 0 0-6.43-15.17c-3.14-5.48-6.46-10.85-10.63-15.66a39.97 39.97 0 0 0-9.51-7.78 8.44 8.44 0 0 0-7.45-.86 30.34 30.34 0 0 0-6.07 3.31c-4.47 2.94-7.85 6.96-10.72 11.4-3.14 4.89-5.67 10.05-6.76 15.82a188.22 188.22 0 0 0-3.37 30.49c-.27 11.65 1.78 23.04 4.65 34.27 1.53 6.02 3.56 11.91 5.37 17.86l.02-.01Zm-8.12-78.6c-.06-.02-.13-.02-.2-.03-.07.17-.16.35-.21.53a78.96 78.96 0 0 0-2.88 15.76c-.45 6.48-.13 12.95.19 19.42.35 7.15 1.22 14.26 3.13 21.16 1.6 5.8 3.66 11.45 5.55 17.17.55 1.65 1.19 3.28 1.78 4.91-.52-2.37-1.27-4.65-1.97-6.96-1.01-3.3-2.1-6.57-2.95-9.9-1.01-3.98-1.84-8-2.69-12.02a108.29 108.29 0 0 1-2.32-23.42c.08-8.35 1.2-16.6 2.35-24.86l.22-1.75v-.02Zm34.47 114.1.13-.32-4.76-1.85c1.29 1.4 2.95 1.8 4.63 2.17Zm80.7-48.02c.1.23.25.45.29.7.88 5.58 1.7 11.17 2.62 16.74.81 4.92 1.63 9.84 2.6 14.72.69 3.37 1.6 6.7 2.5 10.03a530.9 530.9 0 0 0 4 14.4 149.57 149.57 0 0 0 5.99 16.53c.16.37.39.7.63 1.13 5.21-.84 8.54-4.6 12.44-7.63 1.23.46 1.4 1.04.38 1.95a17.6 17.6 0 0 1-1.94 1.53c-2.18 1.48-4.42 2.85-6.53 4.4-2.9 2.12-7.55.57-8.78-2.42-.98-2.42-1.88-4.88-2.69-7.37-1.61-4.93-3.1-9.9-4.71-14.84-1.1-3.39-1.66-6.88-2.29-10.37-.05-.25-.12-.48-.23-.88-.76.39-1.43.75-2.1 1.08-.75.35-1.46.79-2.24 1.02-.97.3-1.45.02-1.82-.9a12.83 12.83 0 0 1-.97-6.03c.07-.82.35-1.36 1.19-1.57.9-.22 1.79-.47 2.68-.68.55-.13 1.1-.22 1.76-.35-.33-1.96-.68-3.82-.95-5.7-1.07-7.47-2.12-14.94-3.14-22.43-.13-.98-.35-2 .12-3.18.2.27.38.4.4.54.48 4.17.89 8.37 1.46 12.54.76 5.5 1.5 11 2.54 16.45 1.19 6.17 2.2 12.38 3.67 18.5.25.99.6 1.96.9 2.94 1.12 3.43 2.28 6.84 3.37 10.27.57 1.8.97 3.68 1.59 5.47.6 1.8 1.3 3.57 2.1 5.29a4.44 4.44 0 0 0 2.83 2.51c-.15-.5-.2-.81-.33-1.11-.8-1.95-1.66-3.89-2.38-5.86-.9-2.46-1.72-4.96-2.54-7.45a276.8 276.8 0 0 1-6.84-24.65c-1.54-6.65-2.5-13.43-3.69-20.15-.74-4.2-1.42-8.41-2.08-12.63-.13-.83-.42-1.72.22-2.5l-.04-.04Zm4.17 37.92c-.37-1.97-.69-4-1.32-6.1-1.46.32-2.75.6-4.03.9-.7.15-1 .58-1.04 1.3-.1 1.76.13 3.47.77 5.11.42 1.12.71 1.27 1.83.75 1.25-.59 2.45-1.26 3.8-1.96Zm26.19 30.71-.21-.35-1.97 1.57.18.26 2-1.48Zm-10.17 6.06.06.17 1.75-.64-.06-.16-1.75.63Zm-53.06-54.11-.03.07.61-1.28c.28.04.43.02.47.08 1.52 1.95 3.52 3.67 3.57 6.4.04 2.35.1 4.71-.14 7.04-.3 2.88-1.33 5.48-4.18 7.2l2.27 1.2-.76.37c-.54-.3-1.12-.54-1.6-.9a7.25 7.25 0 0 0-6.06-1.46c-.54.1-1.11.04-1.82.07.16 1.3.22 2.63.5 3.92.45 2.09 1.53 2.71 3.68 2.37a8.5 8.5 0 0 0 3.66-1.62v-.6c0-1.26.01-1.26 1.29-1.61.13-.04.25-.16.37-.24 1.2.94 2.09.81 2.52-.59.59-1.85 1-3.77 1.32-5.7.2-1.15.65-2.03 1.64-2.64.38-.22.75-.34 1.09.19-.08.1-.15.27-.25.28-1.2.24-1.6 1.09-1.8 2.2-.31 1.77-.7 3.53-1.14 5.27a3.49 3.49 0 0 1-.95 1.72c-.4.34-1.12.38-1.7.42-.5.03-1-.13-1.73-.26.09 1.92.4 3.64.83 5.52 1.67-.38 3.08.2 4.45.94.85.45 1.63.24 2.22-.47.42-.52.76-1.1 1.1-1.67.33-.58.6-1.2.93-1.78a2.16 2.16 0 0 1 2.04-1.13c.91.01 1.82-.04 2.88-.08-1.1-3.4-2.09-6.64-3.24-9.8a5.78 5.78 0 0 0-2.19-3.1l-.67 1.48c-.5-.74-.44-1.34.21-1.83.59-.44 1.14-.22 1.49.26.63.87 1.27 1.77 1.68 2.75.66 1.61 1.13 3.3 1.68 4.95l1.2 3.66c.1.35.26.68.35 1.03.2.87.04 1.16-.82 1.27-.77.1-1.55.14-2.31.08-.99-.08-1.56.38-1.97 1.18-.38.73-.68 1.5-1.12 2.2-1.34 2.08-2.52 2.34-4.37 1.3a4.15 4.15 0 0 0-2.96-.63c-.77.16-1.16-.28-1.32-.95-.22-.89-.39-1.78-.6-2.79-.5.25-.84.46-1.21.59-.92.31-1.84.72-2.79.86-2.28.35-3.51-.47-4.08-2.68-.27-1.08-.38-2.2-.58-3.43-2.1 2.36-4.54 4.11-7.44 4.9-2.85.79-5.78.69-8.74-.8-2 .43-3.88 1.88-5.96 2.77l-.27-.69c3.13-1.45 6.27-2.9 9.4-4.37-.24 1.23-1.41 1.13-2.16 1.88.27.18.5.46.8.52 3.41.75 6.74.81 9.78-1.31 1.27-.89 2.66-1.58 3.6-2.87.64-.86 1.18-1.7.71-2.8.38-.36.93.12 1.26-.55 2.6-5.38 5.26-10.72 7.34-16.33l.02.02Zm.06 18.92c2.33-1.75 3-2.57 3.54-5.5.35-1.9.34-3.86.52-5.8.3-3.13-.97-5.62-3.14-7.72l-8.32 18.2c1.38-.06 2.6-.27 3.76-.13 1.2.13 2.36.6 3.64.96Zm53.48-13.15c.62-.33 1.12-.5 1.5-.82.64-.52 1.18-1.15 1.8-1.68 1.12-.96 1.75-.86 2.43.42.45.87.84 1.76 1.28 2.63 2.55 5.17 4.56 10.56 6.66 15.92 2.33 5.93 4.82 11.8 7.36 17.64 1.02 2.34 2.35 4.54 3.62 6.98-1.29 2.33-2.67 4.9-4.14 7.43-.65 1.13-1.37 1.18-2.14.1a49.21 49.21 0 0 1-3.13-4.94 94.8 94.8 0 0 1-7.3-17.8c-1.32-4.27-2.8-8.49-4.12-12.75-1.05-3.39-1.96-6.81-2.94-10.22-.28-.98-.6-1.96-.88-2.9Zm4.57-2.82-3.24 3.18c-.4.38-.31.81-.17 1.28.89 3 1.73 6.03 2.63 9.03.7 2.37 1.47 4.72 2.2 7.07 2.13 6.77 4.16 13.57 7.05 20.07a61.43 61.43 0 0 0 5.13 9.47c.35.52.81.97 1.4 1.65l4.35-7.94c-.53-.89-1.03-1.62-1.4-2.4-1.54-3.3-3.09-6.6-4.54-9.95-1.68-3.87-3.38-7.73-4.86-11.67-2-5.35-4.02-10.68-6.56-15.8l-2-3.99h.01Zm-19.3 127.35c-.19-.7-.35-1.2-.44-1.73-.97-5.46-1.78-10.96-2.94-16.38-.91-4.27-2.28-8.44-4.59-12.22-.35-.56-.79-1.08-1.14-1.64-.21-.36-.34-.76-.6-1.34l1.1.3.2-3.14c.47.41.77.59.92.84 1.07 1.75 2.06 3.56 3.15 5.3 1.37 2.17 2.72 4.36 4.23 6.44 1.19 1.65 1.96 3.35 1.87 5.42-.03.66.05 1.33.12 2 .14 1.4.55 2.72 1.68 3.68 1.31 1.12 1.48 2.4.92 4.01-.97 2.8-2.45 5.33-3.85 7.9-.09.17-.29.27-.64.57Zm-7.67-34.4c-.27.98-.2 1.55.25 2.22 1 1.49 2.05 3 2.73 4.63a103.6 103.6 0 0 1 4.87 14.79 31.06 31.06 0 0 0 2.57 6.9c.45-1.18.74-2.08 1.13-2.95.55-1.27.29-2.28-.74-3.17-1.34-1.15-1.83-2.68-1.93-4.38-.04-.61-.15-1.23-.11-1.84.1-1.9-.64-3.46-1.73-4.98-1.5-2.09-2.86-4.26-4.23-6.44-.94-1.5-1.8-3.04-2.82-4.78h.01Zm1.24 4.65-.26.11c.14.39.24.79.43 1.15a41.48 41.48 0 0 1 3.53 10.32c1.07 4.92 1.82 9.9 2.71 14.85.09.48.22.95.4 1.77.5-.86.83-1.42 1.14-2 .31-.57.6-1.17.74-1.46-.8-2.14-1.63-3.96-2.17-5.86-1.43-5-2.78-10-4.73-14.83-.55-1.36-1.2-2.7-1.8-4.04h.01Zm-6.13 60.92.98 1.08c.49-.44.98-.79 1.36-1.25 2.17-2.64 3.7-5.55 3.8-9.07.02-.87.1-1.74.21-2.6.2-1.78.8-2.36 2.54-2.48.66-.05 1.36-.12 2 .03 2.2.54 4.36 1.18 6.53 1.79.84.23 1.14.75.99 1.62-.55 3.3-.93 6.61-1.6 9.88-.75 3.66-2.67 6.76-5.25 9.45-.42.44-.93.81-1.45 1.12-1.19.7-1.47.52-2.35-.59-1.21-1.52-2.53-2.95-3.84-4.4a93.6 93.6 0 0 0-2.56-2.72c-.13-.15-.37-.22-.57-.26-.74-.15-1-.56-.79-1.62v.02Zm8.99 9.29c.87-.06 1.56-.65 2.1-1.3a37.25 37.25 0 0 0 2.98-3.94 17.33 17.33 0 0 0 2.45-6.78c.43-2.94.9-5.87 1.36-8.9a29.2 29.2 0 0 0-7.68-2.07 6.84 6.84 0 0 0-1.54.05c-1.09.13-1.42.46-1.6 1.55-.11.71-.18 1.44-.2 2.15-.04 4.3-1.84 7.84-4.66 10.96-.06.07-.08.19-.12.31l1.18.65a5.37 5.37 0 0 0 2.93-3.83c.49-2.47.9-4.95 1.2-7.45.29-2.32.29-2.4 2.59-2.37.77 0 1.54-.1 2.31-.09 1.39.01 2.77.06 4.15.12.25 0 .5.18.75.27-1.49.24-2.95.16-4.4.19-1.48.03-2.96.17-4.49.27l-.22 1.57c-.39 2.49-.73 4.97-1.2 7.45a6.22 6.22 0 0 1-3.15 4.37c-.16.09-.27.25-.42.39l5.69 6.43h-.01Zm-6.29-23.81c.33-12.79-.3-25.49-2.08-38.48.8.61 1.35.72 2.04.5.6-.18 1.04.37 1.24.93.3.87.56 1.77.82 2.65 1.2 4.12 1.53 8.37 1.89 12.62.3 3.53.7 7.05 1.1 10.56.09.76-.04 1.36-.4 2.05a45.76 45.76 0 0 0-2.02 4.48 16.04 16.04 0 0 1-2.59 4.7v-.01Zm-1.26-36.8c1.76 11.39 1.87 22.82 2.13 34.28.3-.48.52-1 .75-1.5.85-1.92 1.73-3.84 2.55-5.78.17-.4.2-.89.16-1.32-.43-4.6-.95-9.2-1.34-13.8a55.7 55.7 0 0 0-2.11-11.19c-.4-1.38-.6-1.42-2.14-.7Zm.04-169.3c-1.85.83-3.31 2.1-4.73 3.42a20.09 20.09 0 0 1-5.5 3.66c-1.74.78-4.88.2-6.14-1.17-.05-.05 0-.2.01-.43l1.58.69.15-.2c-1.19-1.1-2.38-2.21-3.55-3.32-.71-.68-1.46-1.31-2.07-2.06-1.05-1.3-.88-1.95.66-2.53 1.25-.46 2.53-.88 3.82-1.2 2.27-.58 4.17-1.7 5.82-3.34a86.58 86.58 0 0 1 3.27-3.06 5.4 5.4 0 0 1 1.28-.85c.94-.44 1.59-.24 2.04.69a31.96 31.96 0 0 1 1.51 3.54c.6 1.74 1.12 3.52 1.66 5.3.1.28.14.58.2.86Zm-1.24-2.2c-.79-2.14-1.55-4.38-2.41-6.57-.53-1.35-1.05-1.52-2.17-.63a31.98 31.98 0 0 0-3.18 2.9 14.48 14.48 0 0 1-7.1 4.13c-1.4.34-2.9.63-4.28 1.67.61.73 1.12 1.43 1.73 2.03 1.24 1.21 2.6 2.33 3.81 3.59.79.8 1.56.89 2.5.42.4-.2.83-.4 1.23-.64 1.54-.92 3.12-1.8 4.63-2.78 1.2-.79 2.31-1.69 3.44-2.56.57-.43 1.08-.93 1.8-1.55Zm-12.03 8.76c.78.4 1.58.5 2.33.1 1.41-.72 2.85-1.43 4.13-2.35 1.78-1.28 3.44-2.75 5.15-4.14.2-.16.45-.3.55-.52.11-.25.09-.56.12-.84l-.3-.17c-3.35 3.58-7.79 5.48-11.98 7.92Zm-28.47-16.08c-.25-.45-.4-.7-.5-.96-1.53-3.87-3.03-7.76-4.58-11.62-1.04-2.57-2.19-5.1-3.28-7.65-.2-.47-.39-.95-.56-1.43a2.88 2.88 0 0 1 3-3.8c2.27.21 3.42 1.66 4.06 3.66.45 1.42.86 2.85 1.35 4.26.62 1.8 1.29 3.58 1.95 5.36.17.48.35 1 .68 1.37.82.89.93 1.86.66 2.99-.16.7-.21 1.42-.28 2.14a7.66 7.66 0 0 1-1.44 3.85c-.35.5-.62 1.05-1.07 1.83Zm-.02-1.71a5.58 5.58 0 0 0 1.8-3.43c.11-.71.11-1.45.27-2.15.27-1.25.37-2.41-.66-3.42-.28-.26-.37-.73-.5-1.12l-3.37-9.77c-.53-1.51-1.27-2.77-3.04-3.14-1.2-.26-1.94.33-2.71 1.05-.74.7-.19 1.32 0 1.97.13.44.32.87.5 1.3 1.1 2.6 2.26 5.18 3.32 7.8 1.32 3.23 2.57 6.5 3.86 9.74.14.37.32.71.53 1.16Zm60 60.95c-.99-3.55-.85-6.87.36-10.14a15.81 15.81 0 0 1 5.98-7.74c.08.44-.19 1-.8 1.66 2.16-.17 2.77.51 3.3 2.4.39 1.39.59 2.82.87 4.23.57 2.8 1.18 5.62 1.7 8.45.13.72.28 1.79-.1 2.17a7.82 7.82 0 0 1-2.78 1.53c-.3.12-.83-.27-1.23-.47-1.24-.63-2.42-1.36-3.68-1.9a4.51 4.51 0 0 0-3.62-.19Zm10.97.55c-.07-.58-.1-1.14-.2-1.69-.74-3.82-1.5-7.65-2.26-11.46a9.88 9.88 0 0 0-.59-1.91c-.27-.64-.76-1.16-1.54-1.04-1.2.18-2.4.42-3.2 1.56-2.76 3.94-3.82 8.23-2.76 13.01 2.55-.09 4.8.74 6.75 2.23 1 .77 1.84.67 2.78.04.34-.22.65-.48 1.03-.75h-.01Zm-52.23 70.06c.51-1.28 1.07-2.6 1.57-3.94.53-1.42.48-1.55-.68-2.48-.64-.51-1.28-1.03-1.94-1.52a22.85 22.85 0 0 1-5.99-6.35 9.29 9.29 0 0 0-1.24-1.56c-.68-.7-1.18-.66-1.75.14-.36.51-.61 1.1-1 1.8-.22-1.57.6-2.9 1.77-3.05.36-.05.85.1 1.1.34.6.56 1.16 1.18 1.6 1.87a23.06 23.06 0 0 0 5.99 6.35c.74.55 1.43 1.17 2.19 1.7.95.67 1.14 1.5.72 2.55-.15.39-.26.78-.44 1.15-.63 1.36-1.23 2.73-1.15 4.27v.63l-.42-.05c-.25-.3-.52-.56-.75-.86-1.14-1.45-2.2-2.96-3.4-4.36-2.7-3.1-5.45-6.16-8.17-9.24a3.67 3.67 0 0 1-.6-.88c-.23-.5.03-.83.95-1.14-.6.96.02 1.45.52 2.01l11.11 12.63h.02Zm74.8 89.49c-.13-.19-.33-.36-.38-.56a15.77 15.77 0 0 1-.49-6.56c.2-1.57.9-2.94 1.88-4.16a3.8 3.8 0 0 1 4.36-1c.32.12.63.3 1.18.59.01-.76.05-1.38.02-2l-.96-18.9c0-.24.04-.48.08-.92.6.44.64.88.66 1.37.3 6.25.62 12.5.9 18.75.05 1.06-.07 2.12-.13 3.56-.51-.53-.78-.78-1.03-1.05a3.02 3.02 0 0 0-4.69.14 7.6 7.6 0 0 0-1.64 3.94c-.15 1.75-.23 3.48.3 5.2.15.47.18.98.26 1.48l-.32.12Zm-39.56 34.38c.22-.24.37-.5.59-.63 7.69-4.09 15.04-8.8 22.8-12.76.11.23.15.27.15.32.01.04 0 .1-.03.13-.33.24-.65.51-1 .72l-22.1 12.35c-.05.03-.18-.06-.4-.13Zm4.94-.6c3.92-1.34 7.24-3.73 10.83-5.62 3.69-1.94 7.39-3.86 11.08-5.77.47-.23.94-.6 1.86-.22-.7.36-1.16.63-1.64.84-4.88 2.11-9.4 4.87-14.04 7.44-1.97 1.1-4 2.13-6 3.16-.65.32-1.34.65-2.09.18Zm1.08-33.71c1.73-.42 3.94.88 4.46 2.63a6.7 6.7 0 0 1-.05 4.4 23.06 23.06 0 0 1-4.16 7c-.7.8-1.65 1.37-2.53 1.99-.25.17-.63.14-1.05-.02.17-.14.32-.31.51-.4a9.36 9.36 0 0 0 3.88-3.66 69.5 69.5 0 0 0 2.23-3.89 6.8 6.8 0 0 0 .85-3.56c-.13-2.3-1.1-3.48-3.33-4.03-.24-.05-.47-.12-.71-.18-.03-.01-.03-.1-.1-.27v-.01Z"/><path d="M214 210.37c.65 1.42 1.33 2.78 1.91 4.19.45 1.08.38 2.23.02 3.33-.31 1-1.1 1.22-1.7.41-1.5-2-2.5-4.23-2.59-6.78 0-.13.15-.25.26-.43.59.16.6.53.58 1.05-.08 2.33 1.17 4.12 2.4 6.04 1.26-2.16.5-4.85-2.07-7.8.95-.86 2-1.46 3.43-1.78-.48 1.15-1.8 1-2.24 1.77Zm-1.41-52.27.4-.79-1.5-.04-.09-.33c.48-.18.96-.5 1.45-.5a6.07 6.07 0 0 0 2.86-1.02c.7-.41 1.43-.8 2.17-1.16.68-.31 1.38-.37 2.13.25-.31.21-.55.46-.85.58-1.03.44-2.1.8-3.13 1.28-.78.35-1.5.85-2.26 1.24-.37.2-.8.31-1.2.46l.03.02h-.01Zm-54.19 58.65-1.72-12.76c.7.76 1.21 2.62 1.69 6.28.27 2.15.57 4.3.34 6.47h-.32Zm22.8-8.87c-2.73.72-4.66 2.56-6.92 3.87 1.31-1.92 3.3-2.92 5.25-3.98.45-.25 1.01-.5 1.68.1Zm38.91 8.52c-.56.7-1.3.89-1.95 1.21-.67.33-1.29.72-2.02 1.13.44-1.24 2.28-2.32 3.97-2.33Zm-86.33 54.1c1.38.1 2.6.25 3.8.26 3.44.06 6.4 1.47 9.23 3.2.92.57 1.93.68 3.03.34-.21.36-.3.65-.47.77-.74.46-1.48.3-2.19-.11-1.02-.6-2.04-1.2-3.08-1.76a14.38 14.38 0 0 0-7.12-1.77c-.82.01-1.63-.06-2.65-.09l.87 5.07c2.38 1.27 4.85 1.3 7.3 1.28 1.8-.01 3.6-.12 5.4-.17.53-.02 1.07.01 1.87.02-1.57 1.04-8.84.99-14.11.06.04.37.04.7.11 1.03 1.5 7.09 2.99 14.18 4.54 21.26a297.1 297.1 0 0 0 2.8 11.7 138.3 138.3 0 0 0 2.76 9.14 19.53 19.53 0 0 0 3.1 6c.33.43.75.8 1.3 1.36.5-.95.94-1.68 1.3-2.45a39.35 39.35 0 0 1 6.16-9.4l1.6-1.8c-.87-1.95-1.68-4-2.68-5.95a59.35 59.35 0 0 1-6.35-31.34c.06-.9.09-1.8.42-2.74.1.18.26.36.26.54.02.72.02 1.44-.03 2.16-.53 6.57.3 13.03 1.77 19.42.9 3.94 2.63 7.56 4.3 11.22 1.03 2.28 2.1 4.55 3.19 6.9-4.41 4.05-7.27 9.2-9.68 14.72-2.36-2.09-3.8-4.66-4.93-7.45-1.97-4.84-3.16-9.88-4.28-14.95-1.77-7.98-3.52-15.95-5.27-23.93-.76-3.47-1.5-6.93-2.2-10.4-.14-.72-.06-1.5-.08-2.14h.01Zm38.56 82.55-1.54-8.02c-.65-3.32-1.36-6.64-1.9-9.98-.51-3.27-.23-6.56.02-9.85.04-.55.06-1.1.09-1.7-2.58-.84-5.38-.89-7.77-3.01.57.04.82-.02.97.08 1.91 1.23 4.11 1.58 6.28 2.05 1.06.23 1.19.35 1.17 1.43 0 .77-.07 1.54-.16 2.3-.59 5.23.1 10.37 1.16 15.47.61 2.97 1.23 5.93 1.88 8.89.23 1.04.56 2.05.89 3.21-.35-.06-.7-.06-.99-.2-3.06-1.47-6.32-2.64-9.1-4.52a28.62 28.62 0 0 1-8.62-8.9c-1.08-1.8-1.17-3.34-.16-5.16 1.77-3.2 3.4-6.47 5.13-9.69.36-.67.83-1.3 1.34-1.88.34-.4.83-.65 1.3-1 .1.28.18.42.16.44-1.47 1.21-2.33 2.86-3.19 4.5a958.83 958.83 0 0 0-3.78 7.26c-.33.64-.57 1.33-.9 1.96-.38.72-.27 1.35.09 2.04 1.1 2.19 2.6 4 4.26 5.81 2.77 3.05 6.13 5.12 9.83 6.77 1.1.5 2.19 1.05 3.56 1.71h-.02Zm-.66-96.5c-.6-.24-1.06-.47-1.54-.6-.83-.25-1.67-.56-2.52-.65-.87-.09-1.18-.52-1.21-1.28-.03-.61-.03-1.23 0-1.85.28-4.87.56-9.75.86-14.63.05-.84.11-1.7.67-2.63l.45.77a20.7 20.7 0 0 0 3.83 5.19c1.05 1.02 1.85 2.3 2.77 3.47.65.82.64 1.67.26 2.6a147.8 147.8 0 0 0-1.79 4.78c-.38 1.06-.69 2.15-1.07 3.22-.18.52-.43 1-.71 1.62v-.01Zm-.24-.91.54-1.53c.65-1.79 1.24-3.6 1.94-5.37 1.22-3.08 1.15-3.69-.98-6.22a4.38 4.38 0 0 0-.41-.45 21.74 21.74 0 0 1-4.22-5.08c-.02-.04-.15-.02-.38-.05-.28 5.86-.86 11.66-.89 17.37 1.56.48 2.92.9 4.4 1.33Zm122.59 13.84 7.82-1.7.09.35c-1.8.91-3.81 1.15-5.76 1.54-.62.12-1.35.5-2.15-.2Zm-15.75 64.35c-.59.24-.96.09-1.06-.4-.1-.44-.16-.92-.1-1.36.23-1.55.36-3.16.88-4.62.23-.66 1.29-1.07 2.03-1.46.13-.07.76.46.87.8a3.7 3.7 0 0 1 0 1.52c-.25 1.82-1.12 3.4-2.07 4.94-.15.26-.42.44-.55.58Zm2.04-6.69c-.75-.34-1.06.01-1.28.43a9.68 9.68 0 0 0-1.1 5.56c1.29-1.79 2.4-3.62 2.38-6v.01Zm-162.15-217.54c0 .3.05.62-.03.9-.13.53-.56.65-.95.35a6 6 0 0 1-1.17-1.2c-3-3.98-5.98-7.97-8.94-11.97-1.53-2.06-3.02-4.16-4.52-6.24a1.51 1.51 0 0 1-.29-.86c1.38.72 1.81 2.3 3.16 3.5-.3-.68-.42-1.07-.63-1.41-.52-.89-1.08-1.7-.24-2.76.26-.34.12-1 .13-1.51a15.46 15.46 0 0 1 2.97-8.93c.92-1.3 1.6-2.77 2.42-4.13 1.14-1.89 2.22-3.84 3.53-5.61a11.45 11.45 0 0 1 9.27-4.76 8.32 8.32 0 0 1 4.95 1.45c1.07.7 2.23 1.26 3.36 1.86 2.93 1.54 4.74 3.94 5.16 7.22.22 1.71.12 3.49-.03 5.22-.58 6.62-1.78 13.14-3.06 19.65-.3 1.5-.83 2.97-1.28 4.45a2.75 2.75 0 0 1-2.16 1.98c-1.4.33-2.83.6-4.18 1.1-1.43.53-2.81 1.26-4.17 1.96-1.4.74-2.17.72-3.3-.25-.53-.37-1.1-.69-1.57-1.11-.6-.53-1.14-1.15-1.71-1.73a18 18 0 0 0 2.08 3c.47.56.86.36 1.19-.18Zm4.55-42.17c-2-.39-3.54.38-4.69 2.09-1.5 2.22-3.05 4.4-4.55 6.62-4 5.93-5.23 12.56-4.88 19.55.04.98.37 2.08.93 2.87 1.95 2.7 4.02 5.33 6.11 7.93.74.92 1.6 1.75 2.5 2.5 1.16.97 1.88.9 3.23.17 1.3-.7 2.66-1.37 4.05-1.87 1.35-.5 2.77-.78 4.18-1.11.94-.23 1.55-.75 1.82-1.7.4-1.43.94-2.84 1.2-4.3.83-4.4 1.55-8.81 2.3-13.22.07-.39.06-.8.1-1.39a17.92 17.92 0 0 1-5.81 2.4 19 19 0 0 0-3.24 1c-2.5 1.1-4.94 2.32-7.43 3.45-.6.27-1.25.5-1.9.55-1.03.09-1.43-.31-1.45-1.33-.02-.82.03-1.65.1-2.46.6-6 2.5-11.66 4.87-17.16.68-1.58 1.68-3.04 2.56-4.59Zm-7.01 24.69c1.53.25 1.53.23 2.64-.34 3.81-1.93 7.64-3.8 11.85-4.76 1.69-.38 3.38-.96 4.58-2.37.22-.25.51-.54.53-.83.18-2.6.55-5.23.41-7.82-.18-3.53-2.16-5.99-5.44-7.36-.34-.14-.68-.26-.98-.45-.96-.62-1.86-1-3.14-.94-1.5.07-2.63.45-3.46 1.59a17 17 0 0 0-1.64 2.78 62.77 62.77 0 0 0-4.68 14.49c-.4 1.94-.45 3.95-.67 6.01Zm-8.22 3.7.32-.09.02-1.04c.16-5.68.54-11.34 3.67-16.33 2.1-3.36 4.34-6.62 6.57-9.88a4.03 4.03 0 0 1 3.6-1.75c1.6.03 3.21-.05 5.04-.1a5.3 5.3 0 0 0-3.36-1 10.75 10.75 0 0 0-9.2 4.47c-1.27 1.73-2.32 3.63-3.44 5.47-.9 1.5-1.67 3.08-2.66 4.52a14.5 14.5 0 0 0-2.67 8.07c-.02 1.03-.11 2.05-.1 3.07.01.5.09 1.05.31 1.48.58 1.07 1.26 2.08 1.9 3.11Zm36.91 30.96.48 2.05c.21-.52.38-.87.5-1.24a12.7 12.7 0 0 1 5.7-6.86c.53-.31 1.08-.61 1.6-.93 1.5-.9 2.76-.82 4.15.18a7.1 7.1 0 0 1 2.24 3.07c1.1 2.52 1.63 5.2 2.1 7.88 1.33 7.7 1.35 15.45.63 23.2-.56 5.84-1.38 11.65-2.06 17.47-.52 4.53-1.98 8.83-3.34 13.15-.63 2-1.62 2.35-3.57 1.52a6.32 6.32 0 0 1-3.23-3.4 82.4 82.4 0 0 1-2.48-5.8c-2.27-6.13-4.48-12.28-6.71-18.41-.16-.44-.3-.88-.47-1.32a3.07 3.07 0 0 1 .5-3.17 23.6 23.6 0 0 0 4.13-10.06c.9-4.94.83-9.93-.31-14.85-.18-.77-.23-1.58-.34-2.37l.46-.1.02-.01Zm.6 19.32c-.1.12-.2.23-.25.37-1.15 2.97-2 6.07-4.07 8.63-.3.36-.27 1.07-.21 1.6.05.54.32 1.08.51 1.6 1.94 5.32 3.84 10.65 5.82 15.95 1 2.7 2.1 5.36 3.23 8a6.1 6.1 0 0 0 2.87 3.32c1.65.8 2.4.57 2.93-1.14 1.35-4.38 2.81-8.73 3.33-13.31.6-5.37 1.34-10.72 1.9-16.1a90.2 90.2 0 0 0-.28-22.45 39.7 39.7 0 0 0-2.12-8.83c-.5-1.3-1.15-2.53-2.37-3.33-.85-.57-1.81-.87-2.77-.36-1.86 1-3.73 2.05-5.12 3.67-1.53 1.77-2.73 3.8-2.76 6.23-.02 1.9.14 3.8.28 5.7.48 6.5.57 12.94-2.06 19.12-.47 1.1-.57 2.36-.91 3.82 1.87-.77 2.69.17 3.4 1.35.1.17.22.34.31.53.84 1.64 1.66 3.3 2.5 4.95 2.67 5.3 4.77 10.82 6.68 16.42.07.2.05.41.12.98-.93-.83-1.1-1.64-1.32-2.38a101.42 101.42 0 0 0-5.98-14.54c-.95-1.94-1.92-3.87-2.98-5.74-.83-1.43-1.04-1.42-2.53-.62-.07.05-.2.02-.42.02-.07-.35-.26-.75-.2-1.1.18-1.32.37-2.65.7-3.93.3-1.1.81-2.12 1.18-3.19.6-1.7.73-3.44.59-5.24Zm-19.95 45.59.34-3.03c-4.62-1.5-7.74-4.74-10.5-8.59a43.55 43.55 0 0 1-6.69-13.27c-.32-1.09-.74-2.14-1.16-3.2a33.15 33.15 0 0 1-2.27-11.11c-.1-3.03-.15-6.06-.07-9.1.05-1.78.28-3.58.62-5.35.33-1.84.94-2.16 2.8-2.04 1.13.08 2.25.06 3.37.04 1.25-.02 1.75.15 2.03 1.2.9 3.4 2.9 6.2 4.74 9.11 1.88 2.94 3.68 5.94 5.54 8.88.74 1.17 1.59 2.28 2.35 3.44 1.39 2.1 2.82 4.17 4.1 6.33.45.76.71 1.76.68 2.63a31.06 31.06 0 0 1-.6 5.8c-.75 3.37-1.77 6.67-2.65 10-.69 2.58-1.33 5.17-2 7.75-.05.2-.14.36-.22.54l-.42-.03h.01Zm.55-4.94.38-.12c1.67-5.29 3.41-10.56 4.23-16.08.15-1 .2-2.06.08-3.07-.1-.84-.38-1.7-.77-2.46-.56-1.09-1.27-2.1-1.97-3.12-1.4-2.09-2.9-4.12-4.26-6.24-2.05-3.2-3.96-6.48-6.04-9.66-1.69-2.59-3.34-5.17-4.22-8.18-.3-1.08-.58-1.15-1.69-1.11-1.06.03-2.14.03-3.2-.04-1.58-.11-1.97.04-2.23 1.6-.3 1.77-.53 3.56-.57 5.35-.07 2.88-.07 5.76.09 8.64.13 2.24.28 4.55.9 6.7 1.3 4.38 2.8 8.7 4.43 12.97 1.47 3.89 4.18 7.05 6.61 10.37 1.63 2.2 3.81 3.72 6.21 4.97.48.25 1.02.39 1.53.58l.2-.24c-.21-.43-.41-.87-.66-1.3-2.18-3.6-4.37-7.2-6.58-10.78a52.53 52.53 0 0 1-5.58-12.5c-1.7-5.66-3.02-11.42-3.33-17.35-.1-1.78.1-3.58.22-5.37.03-.44.2-.93.44-1.3.15-.23.6-.43.88-.39.67.1 1.62 1.82 1.52 2.77l-1.74-2.16a11.52 11.52 0 0 0-.74 5.45c.36 4.35.76 8.7 2 12.92.71 2.41 1.26 4.88 2.06 7.25a47.55 47.55 0 0 0 4.36 9.52c2.5 4.11 4.95 8.26 7.43 12.4l.01-.02Zm23.06 8.85c-.5.3-.74.5-1.01.6-2.36.9-4.7 1.83-7.08 2.65-1.5.52-3.04.97-4.6 1.27-2.28.42-3.5-.6-3.72-2.92-.48-4.92-.21-9.84-.17-14.77.06-5.29.15-10.57.13-15.86 0-1.2.59-1.72 1.51-2.17l14.94 31.2Zm-5.94-11.11c-.31.82-.42 1.26-.63 1.66-.59 1.08-1.17 2.17-1.83 3.2-.43.68-1.06 1.14-1.96.91-1.3-.33-2.28-1.06-2.55-2.4-.83-4.09-1.52-8.19-.9-12.39.18-1.21.27-2.45 1.36-3.28-.94-2.28-1.68-4.55-3.03-6.59-.18.39-.27.76-.27 1.13-.06 4.93-.14 9.87-.16 14.8-.03 5.19-.38 10.38.15 15.55.2 2.01 1.07 2.77 3.07 2.36 1.51-.3 3-.74 4.45-1.25 2.09-.74 4.14-1.6 6.2-2.42.3-.12.6-.27 1.02-.45a253.4 253.4 0 0 0-4.93-10.84Zm-5.92-11.8c-.47.58-.82.87-.98 1.23-.18.42-.2.9-.27 1.36-.67 4.18-.04 8.28.85 12.36.12.54.54 1.12.98 1.48 1.06.88 1.87.76 2.54-.41.76-1.34 1.4-2.74 2-4.15.28-.66.23-1.34-.2-2.05-.7-1.18-1.23-2.47-1.84-3.71l-3.07-6.11h-.01Zm-29.16-54.15 1-1.01a21 21 0 0 0-.24 10c.44-.07.83-.1 1.2-.18 1.67-.33 3.33-.68 4.99-1 .3-.07.62-.07.91-.16 1.77-.49 2.27-1.58 1.34-3.13-1.14-1.89-2.38-3.72-3.59-5.57-1.93-2.97-3.83-5.96-5.81-8.89-.98-1.44-2.1-2.77-3.18-4.15-.45-.59-.92-1.16-1.42-1.79.72-.38.95.02 1.2.3 2.53 2.92 4.52 6.2 6.52 9.5 1.8 2.98 3.92 5.78 5.86 8.68.54.8 1.01 1.68 1.36 2.58.43 1.09.23 1.77-.78 2.38-.71.44-1.59.68-2.42.88-1.6.39-3.22.67-4.83 1-.77.15-1.49.4-1.67 1.6-.64-.93-1.36-.9-2.12-.82-.81.1-1.64.2-2.46.18-2.37-.03-3.86-1.25-4.4-3.54-.11-.5-.2-1.01-.24-1.52-.28-3.17-.71-6.35-.77-9.52-.05-2.5.32-5.02.57-7.52.06-.6.31-1.2.6-1.75.83-1.6 1.82-1.8 3.2-.65a15.05 15.05 0 0 1 3.52 4.05c.49.85.9 1.74 1.39 2.58.85 1.47.88 3.03.64 4.64-.13.85-.23 1.7-.39 2.83h.02Zm-.84 9.56c-.05-2.4-.2-4.6-.1-6.78.09-1.95.5-3.87.66-5.81.09-1 .2-2.12-.13-3.03a16.73 16.73 0 0 0-5.17-7.51c-.4-.33-.96-.45-1.4-.66a5.14 5.14 0 0 0-1.43 3.05 38.38 38.38 0 0 0-.41 9.2c.24 2.4.44 4.8.7 7.2.06.66.18 1.32.37 1.95.43 1.49 1.44 2.4 2.98 2.5 1.36.08 2.74-.07 3.93-.11Zm42.54-36.3c.74-.54 1.33-.23 1.91.3.58.55 1.2 1.05 1.9 1.64-1.57.47-1.92-1.41-3.27-1.52l7.89 17.02c-1.89.3-3.39 1.12-4.83 2.1a79.5 79.5 0 0 1-2.47 1.58c-1.66 1.03-3.34 2.02-4.99 3.06-1.23.78-2.37.49-3.48-.18-1.09-.66-1.41-1.72-1.34-2.92.17-2.8.77-5.5 1.52-8.18 1.06-3.77 2.14-7.52 2.7-11.4.13-.86.4-1.72.75-2.5.5-1.1 1.31-1.24 2.24-.47.47.39.87.86 1.46 1.46l.01.01Zm.27 1.34c-.33.43-.44.54-.51.67-1.31 2.65-4.45 15.44-4.5 18.34 0 .2-.03.41-.01.61.03.25.06.51.16.75.28.77.78 1.05 1.57.82a8.27 8.27 0 0 0 1.86-.72c2.87-1.64 5.42-3.81 8.56-5l-7.13-15.47Zm-2.74-2.86a5 5 0 0 0-1.33 3.1c-.57 3.97-1.68 7.83-2.77 11.68a38.52 38.52 0 0 0-1.46 7.87c-.07 1 .2 1.86 1.1 2.36.93.51 1.9.9 2.9-.07-1.38-.94-1.53-2.33-1.33-3.81.16-1.22.27-2.45.58-3.64 1.31-5.12 2.15-10.37 4.4-15.35l-2.1-2.13h.01Zm-20.99 48.31c-.23-.5-.29-.85-.49-1.03-1.6-1.45-1.12-3.29-.9-5.03.13-.9.6-.94 1.67-1.02a8.89 8.89 0 0 0 2.76-.81c1.39-.6 1.5-.63 1.93.81.4 1.32.65 2.68 1 4 .25.98-.22 1.53-1.03 1.98-1.54.83-3.23.84-4.94 1.1Zm.75-6.26c1.5 1.85.77 3.64-.03 5.52 1.12-.17 2.08-.27 3.02-.5 1.34-.34 1.79-1 1.51-2.36-.27-1.32-.7-2.62-1.06-3.91l-3.44 1.25Zm-1.42.34c-.63 2.27-.35 3.63.89 4.29 1.32-2.19 1.03-3.64-.9-4.29Z"/></g><defs><clipPath id="a"><path fill="#fff" transform="rotate(-20.006 287.032 50.626)" d="M0 0h295.96v356.04h-295.96z"/></clipPath></defs></svg>