<svg viewBox="0 0 32 33" fill="none" xmlns="http://www.w3.org/2000/svg"><g clip-path="url(#a)" fill="#8BA6C3"><path d="m30.86 0-.07.07-3.65.5c-.34.98-.74 3.17-4.85 5.24v4.25l1.88.29s1.32-.46 2.34-1.32v11.78l4.35.35v-.1l1.14-.82v-19.03l-1.14-1.21Zm-12.97 4.83h-.06l-6-1.15-.03.09-.03-.1-2.57 1.33-9.2 26.56 1.71 1.44 7.2-.75 1.72-5.98 6.3-.3 1.24 4.27 2.17.8 5.15-.57-7.6-25.64Zm-5.32 16.27-.2.28.2-.28h-.68l2-6.66 1.83 6.66h-3.14Z"/></g><defs><clipPath id="a"><path fill="#fff" d="M0 0h32v33h-32z"/></clipPath></defs></svg>