<svg viewBox="0 0 69 60" fill="none" xmlns="http://www.w3.org/2000/svg"><g clip-path="url(#a)" fill="#8BA6C3"><path d="M23 18.22c-.33.23-.58.38-.8.56-.51.38-.97.86-1.52 1.17-.91.52-.86 1.13-.57 2.06.13.4.25.8.64 1.08.3.21.2 1.55-.07 1.85l-.75.83-.19-1.52c-.11-1.04-.24-2.09-.3-3.14-.02-.27.1-.58.24-.82.25-.46.6-.86.84-1.32.24-.47.63-.68 1.08-.83.4-.14.82-.25 1.2-.42a.95.95 0 0 0 .44-.4c.43-.7.82-1.42 1.24-2.12.1-.16.27-.3.43-.37.73-.34 1.48-.66 2.22-.99a18.5 18.5 0 0 0 5.12-3.2c.55-.51 1.35-.75 2.05-1.1.44-.23.93-.38 1.35-.65.98-.63 2.01-.7 3.12-.54 1.37.2 2.75.29 4.11.45.22.03.48.16.62.33 1.71 1.96 3.37 3.97 5.12 5.9.6.65 1.4 1.11 2.13 1.65.3.23.61.48.95.64 1.27.63 1.73 1.75 1.9 3.07l.17.87 2.66-.67c-.82.86-1.56 1.8-2.79 2.05a.8.8 0 0 0-.44.32c-.34.5-.66 1-.96 1.51-.33.58-.71 1.1-1.3 1.43-.14.08-.25.25-.34.4-.27.5-.53 1-.78 1.52a9.08 9.08 0 0 1-1.26 1.82c-.38.47-.58 1.1-.9 1.64-.1.18-.28.36-.47.44-.78.35-1.58.38-2.4.1l-.8 1.5c-.05.1-.1.21-.17.3-.28.34-.59.58-1.07.14-.05.82-.1 1.55-.13 2.28 0 .1.13.22.21.32.48.54 1.09.98 1.17 1.8 0 .08.26.18.4.19l6.48.12c5.29.1 10.57.22 15.86.33.04 0 .08.01.12.09l-55.32 1.59.26-2.7h7.53c-.48-.67-.17-1.29.06-1.92.03-.08.04-.25 0-.29-.35-.26-.18-.55-.08-.84.38-1.1.75-2.22 1.15-3.31.17-.46.24-.9 0-1.34-.32-.63-.23-1.18.19-1.74a3 3 0 0 0 .64-2.22 3.24 3.24 0 0 1 1.07-2.86c.33-.3.42-.68.43-1.13.04-1.26.14-2.52.22-3.91Zm15.26 18.05c.75.21 1.27.65 1.56 1.43.24.67.32.66 1.06.5 0-.2.04-.4.02-.6-.02-.22-.03-.51-.15-.6-.47-.36-.68-.8-.65-1.4.01-.26-.03-.53-.07-.8l-.35-1.87-.13.01-.32 1.04c-.7-.54-.94-1.35-1.2-2.12 0 .8-.03 1.57.01 2.33.04.7.16 1.4.24 2.1-.43-.16-.52-.57-.6-.94-.2-.8-.75-1.51-.57-2.41 0-.06-.06-.19-.12-.22-.28-.13-.58-.24-.9-.36l-.17.69-.95-1.16-.2.12c.12.44.16.91.35 1.3.57 1.1 1.21 2.15 1.8 3.24a2.25 2.25 0 0 0 2.29 1.18c-.02-.63-.08-.7-.64-.63-.27.02-.53.07-.8.1l-.02-.09.74-.53-.22-.31Zm-10.31-10.09c-.27.18-.54.32-.75.5-.4.36-.82.61-1.38.58-.57-.04-.96.2-1.24.75-.46.92-1 1.81-2.05 2.16-.11.04-.2.21-.25.34l-.9 2.06c-.72 1.7-1.08 3.38.22 5 .16.2.27.34.55.34 1.89.02 3.78.07 5.67.1l.46-.02.06-.13c-.28-.25-.57-.5-.84-.77-.45-.47-.42-1 .07-1.4l.25-.22c-.1-.16-.21-.3-.27-.46-.05-.11-.07-.3-.01-.36.42-.44.47-1.02.58-1.57.27-1.29.63-2.57.13-3.89-.13-.33-.33-.75.2-.98.04-.02.03-.14.06-.2.35-.78-.19-1.26-.57-1.83Zm3.84 3.12c-.42.25-.78.45-1.13.67a.7.7 0 0 0-.23.24l-.66 1.26c-.16.33-.4.65-.47 1-.14.83-.17 1.69-.3 2.53-.07.56.05 1.07.22 1.58.1.3.2.6.22.91.03.57.01.57.6.58 1.29.02 2.58.06 3.87.07.99.02 1.98 0 2.95 0 .11-.91-.92-1.3-.91-2.17 0-.05-.1-.1-.16-.15-.5-.47-.99-.95-1.49-1.4-.5-.46-.85-.95-.8-1.7.02-.5-.01-1.08-.24-1.49-.39-.69-.96-1.28-1.47-1.93Zm-3.47-8.4c-.1-.55-.17-1.12-.33-1.66-.31-1.1-.33-2.1.29-3.14.6-.99.92-2.15 1.78-2.98.16-.16.3-.34.44-.52-.11-.04-.16-.02-.2.01-1.49.91-2.94 1.9-4.63 2.38-.71.2-1.05.72-1.36 1.3-.17.32-.4.65-.44 1-.05.4.07.83.11 1.25l.2 2.02-.09.02-.71-1.46c-.18 1.81-.2 3.6.22 5.35.03.13.24.28.38.3.68.13 1.25-.26 1.86-.43.43-.12.53-.3.39-.74-.15-.45-.32-.94-.27-1.4.06-.56.34-1.1.56-1.75.5.69 1.06.92 1.8.45Zm6.51-.16c.4-.08.8-.14 1.17-.24.1-.02.2-.17.26-.28.69-1.27 1.35-2.56 2.05-3.83.2-.34.2-.65.13-1.02a6.98 6.98 0 0 0-1.48-3.28l-3.48 1.25a.78.78 0 0 0-.32.27c-.7.94-1.14 1.95-.7 3.16.03.08.01.18.03.27l.24 1.67c.57-.42 1.05-.76 1.5-1.13.12-.1.15-.32.16-.48.04-.59.06-1.18.05-1.76 0-.57.35-.87.67-1.22l.15.04-.43 6.58Zm18.15-.72c-.06-.91-.34-1.44-.97-1.9l-4.34-3.18c-.51-.38-1.66-.35-2.22-.01a7.54 7.54 0 0 0-2.24 2.31.43.43 0 0 0-.04.36c.12.27.28.51.48.87.8-1.24 1.99-.93 3.07-1.05-.4.33-.82.64-1.26.9-.37.2-.35.45-.16.79a2.91 2.91 0 0 1 1.94-.12c1.15.3 2.32.5 3.49.7.73.14 1.47.22 2.25.33Zm-10.08-10.37c-.1-.06-.14-.1-.18-.1l-5.1-.92a.93.93 0 0 0-.52.05c-1.14.5-2.28 1.03-3.41 1.56-.1.05-.24.17-.25.27-.03.32 0 .65 0 1.01.97-.07 1.89-.04 2.58-.8.55-.6 1.25-.63 1.98-.57v.15c-.42.7-.2 1.47-.24 2.2 0 .08.03.19.08.25l1.18 1.33c.31-.94.56-1.72.84-2.5a.92.92 0 0 1 .37-.44c.86-.5 1.74-.98 2.67-1.49Zm8.06 11.81h.12l.32 1.6c.03.2-.12.51.24.51.3 0 .72.23.87-.32.17-.63.4-1.26.56-1.9.03-.1-.08-.3-.18-.35-.4-.23-.83-.45-1.26-.63-.13-.05-.38.01-.48.12-.21.22-.4.23-.6.05a4.45 4.45 0 0 0-2.31-.9c-.35-.06-.74-.25-1.03-.15-.68.24-1.31.62-2.05.99.48.38.84.73 1.26 1 .74.46 1.33 1.01 1.54 1.9.01.06.06.1.11.18.14-.08.29-.12.4-.21.5-.4 1-.57 1.58-.16.21.15.34.05.41-.2.15-.51.33-1.01.5-1.52Zm-19.18 4.72c.63-.53 1.2-1 1.75-1.48.52-.45.41-1.1-.21-1.36-.15-.06-.3-.14-.46-.17-.31-.08-.34-.25-.23-.53.24-.67.5-1.35.67-2.05a2.3 2.3 0 0 0-.07-1.14c-.04-.12-.42-.17-.65-.2-.27-.04-.36-.18-.41-.43-.12-.58-.27-1.14-.42-1.82a12.58 12.58 0 0 0-1.21 4.48c-.02.46-.19.97-.06 1.38.35 1.1.83 2.15 1.3 3.33Zm14.23-12.54v-.1l-2.56-3.44c-.06-.07-.25-.11-.32-.07-.88.55-1.75 1.1-2.66 1.7.51.4.97.8 1.48 1.1.5.3.6.72.64 1.23.02.27-.04.4-.33.44-.65.1-1.29.24-1.96.37l.06 1.39c1.37-.38 2.84-.37 3.75-1.68.09-.12.22-.2.32-.32.38-.48.82-.8 1.46-.6.04.02.08-.01.12-.02Zm-1.62 15.81.1.1c.3-.58.85-.58 1.34-.68.39-.07.78-.12 1.17-.21.15-.04.38-.12.43-.24.37-.93.7-1.89 1.06-2.86l-.46-.2c-.06.15-.14.26-.16.37-.09.5-.4.73-.87.77-.6.05-1.05.34-1.27.94 0 .03-.06.04-.11.07l-.1-.44h-.94c-.24-.02-.3.1-.3.32l.11 2.06Zm-11.62-18.28-.14.07c-1.09.81-1.77 2-2.63 3a.44.44 0 0 0-.07.34c.22.97.46 1.94.7 2.9a.9.9 0 0 0 .27-.47c.25-.86.53-1.72.74-2.59.12-.48.35-.88.67-1.24l.6-.72c.44-.55.42-.72-.14-1.29Zm-2.9 9.33c.16-.73.5-1.42.42-2.06-.13-1.05-.52-2.07-.84-3.24-.3.7-.53 1.28-.81 1.83-.2.4-.27.78-.2 1.21l.18 1.29c.03.12.1.27.19.33.31.22.65.4 1.06.64Zm-9.05 9.24c-.04.6-.06 1.1-.11 1.6-.13 1.26-.65 2.4-1.05 3.57a1.3 1.3 0 0 0-.06.42c0 .3.07.62.02.91-.14.92-.16.9.74.68.4-.1.43-.28.33-.64-.1-.34-.24-.72-.18-1.04.23-1.16.36-2.3.3-3.49-.02-.36.15-.76.32-1.1.06-.11.37-.1.56-.15.02 0 .03-.04.05-.09l-.92-.67Zm7.71 2.4a11.71 11.71 0 0 1-.83 4.28c.26.48.6.3.98.11.4-.2.09-.45.08-.69-.01-.22 0-.45.03-.67.1-.79.22-1.57.33-2.36.05-.4-.14-.6-.59-.66Zm-6.82-6.35c0 .39.04.75-.01 1.1-.06.36-.23.7-.28 1.06-.02.11.17.35.3.36.26.05.54 0 .82-.03.41-.04.64-.4.48-.78-.16-.4-.36-.79-.5-1.2-.14-.36-.41-.47-.81-.5Zm24.77-1.36c.74-.85-.07-2.22-1.6-2.51-.1.26-.18.53-.29.79-.12.28 0 .4.25.5.66.22 1.4.34 1.64 1.22Zm-.42 6.81c.26-.14.6-.33.95-.5.33-.15.2-.45.05-.51-.55-.22-1.13-.39-1.7-.51-.17-.04-.4.11-.57.22-.23.13-.2.31 0 .45.42.3.84.57 1.27.85Zm-23.15-8.07c-.5.82-.36 1.5.28 1.57-.1-.5-.18-.99-.28-1.57Zm-.94 2.03c.52-.36.55-.5.21-1.04-.55.4-.57.5-.21 1.04Zm-21.87 13.4c.2-.8.2-.8.9-.8l7.75-.09h.48c-.08.99-.13 1.93-.25 2.87-.04.26-.3.49-.57.7l-.1-1.22c-.06-.86-.41-1.27-1.25-1.33-.92-.07-1.84-.09-2.77-.05-.83.03-1.08.34-1.08 1.2v9.48c0 .87.28 1.17 1.12 1.07.47-.05.96-.22 1.35-.48a5.08 5.08 0 0 0 2.33-3.75c.18-1.64-.9-2.99-2.51-3.06-.5-.02-.99.05-1.48.07.13-.73.21-.84 1.08-.91 1.84-.15 3.4.45 4.44 2.08.82 1.28.71 2.64.05 3.95a5.15 5.15 0 0 1-4.24 2.98c-1.76.17-3.55.04-5.35.04.09-.37.13-.75.66-.79.38-.02.53-.35.6-.69.03-.25.04-.51.04-.77a7784.26 7784.26 0 0 0-.01-9.48c-.05-.7-.25-.91-.94-.99l-.24-.03Zm51.83 8.04v3.51c.01.4.27.63.65.67.18.02.35 0 .57 0-.15.4-.34.58-.76.57-1.1-.03-2.2 0-3.32 0 .02-.35.14-.53.47-.55.43-.02.65-.29.65-.7 0-2.22.02-4.43 0-6.65 0-.5-.24-.7-.75-.74l-.32-.03c.02-.4.17-.57.57-.56 1.14.02 2.28 0 3.46 0-.1.34-.22.54-.57.56-.42.02-.65.31-.65.72-.02.97-.01 1.95-.01 3.08.55-.3 1.07-.5 1.48-.82.65-.55 1.3-1.13 1.84-1.79.64-.78.52-1.05-.46-1.24.04-.33.15-.53.54-.54.73-.01 1.46-.08 2.28-.13-.18.28-.3.51-.46.72a13.84 13.84 0 0 1-3.06 3.22c-.29.21-.33.38-.1.68.91 1.16 1.74 2.39 2.72 3.48 1.3 1.45 2.85 2.55 4.9 2.59l.02.13c-.43.12-.86.28-1.3.34-1.49.2-2.73-.43-3.87-1.3a17.22 17.22 0 0 1-3.54-3.94l-.9-1.32-.08.03Z"/><path d="M63.12 51.72c-2.73 0-4.64-1.99-4.64-4.85-.01-3.05 1.92-5.04 4.9-5.04 2.94 0 4.73 1.82 4.73 4.83a4.82 4.82 0 0 1-4.99 5.06Zm3.27-4.78c-.12-.71-.18-1.44-.36-2.13-.58-2.27-3.03-3.07-4.69-1.55-.64.59-.9 1.4-.99 2.25a6.43 6.43 0 0 0 .77 4.26 2.65 2.65 0 0 0 4.58-.09c.49-.84.61-1.77.69-2.74Zm-38.4 3.89c-.21.39-.45.62-.93.6-1-.04-2.02-.01-3.04-.02l-.46-.02c.14-.4.28-.66.73-.67.5 0 .73-.29.76-.8.03-.49.01-.97.01-1.45l.01-5.2c0-.34-.1-.44-.42-.43-.47.03-.94 0-1.41 0-.62.01-.74.14-.77.77-.07 1.16-.1 2.32-.24 3.46a7.05 7.05 0 0 1-1.17 3.37c-.27.37-.63.7-1.02.97-.32.22-.74.35-1.1.06-.36-.27-.35-.7-.3-1.1 1.4-.04 2.23-.7 2.63-2.08a11 11 0 0 0 .43-3.65c-.08-1.43-.33-1.72-1.68-1.91.08-.43.3-.6.75-.6 2.2.03 4.4.02 6.6.02h.52c-.13.33-.2.62-.6.65-.36.03-.46.34-.46.66-.02.65-.02 1.3-.02 1.94v4.3c0 .93.11 1.04 1.04 1.08.04 0 .08.03.14.05Zm19.96.02c-.19.4-.44.56-.85.55-1.14-.03-2.28-.01-3.46-.01.08-.36.2-.6.58-.63.68-.07.87-.27.88-.99.02-1.87.02-3.73.02-5.6v-1c0-.26-.1-.36-.37-.36h-1.58c-.51.02-.67.2-.69.73-.05 1.3-.03 2.6-.18 3.87-.1.95-.37 1.89-.7 2.78-.4 1.1-1.25 1.57-2.19 1.43-.41-.06-.68-.26-.7-.73 1.6-.09 2.2-1.25 2.6-2.6.42-1.36.54-2.75.38-4.15-.13-1.08-.43-1.31-1.48-1.4-.04 0-.08-.02-.12-.04.06-.42.28-.54.68-.54 2.2.02 4.4 0 6.6 0h.48c-.08.35-.17.6-.57.63-.41.04-.45.43-.46.76v5.97c0 1.16.02 1.19 1.13 1.33Zm-9.45-.01c-.21.41-.49.54-.88.53-1.12-.03-2.23-.01-3.34-.01l-.07-.15c.16-.1.31-.24.48-.28.48-.09.7-.27.59-.75-.18-.8-.44-1.59-.69-2.37-.02-.07-.18-.15-.27-.15a62.4 62.4 0 0 0-2.47 0c-.12.01-.29.14-.34.26-.22.49-.41 1-.61 1.5-.4.98-.1 1.45.93 1.5.06 0 .12.02.24.12-.17.1-.33.3-.5.3-1.03.03-2.07.02-3.22.02.14-.2.21-.39.32-.42.67-.16 1-.68 1.25-1.24.62-1.36 1.19-2.75 1.77-4.13a97.08 97.08 0 0 0 .72-1.8c.21-.71.1-.9-.6-1.04.08-.4.3-.6.73-.6.45 0 .9-.07 1.35-.14.34-.05.52.02.64.4.77 2.28 1.56 4.56 2.35 6.84.1.27.2.53.33.79.26.51.63.87 1.3.82Zm-5.35-7.4-1.29 3.48h2.44l-1.15-3.47Zm-22.55-.68c.06-.45.2-.62.63-.61 2.22.02 4.43 0 6.66 0 .2.76-.13 2.1-.67 2.48-.05-.3-.1-.6-.13-.9-.06-.43-.3-.72-.7-.74-.8-.05-1.59-.04-2.37 0-.37 0-.57.3-.57.67v2.55h2.93c-.06.68-.19.79-.84.76-.68-.02-1.35 0-2.1 0v3.12c0 .29.07.5.38.56a5.4 5.4 0 0 0 2.82-.2c.35-.12.63-.41 1-.67.12.12.45.31.43.45-.06.39-.26.76-.43 1.12-.02.06-.18.06-.28.06h-6.65l-.16-.03c.06-.3.13-.56.52-.56.36 0 .57-.23.62-.6.02-.16.04-.32.04-.49v-5.83c0-.22-.02-.45-.08-.67-.15-.54-.62-.45-1.05-.47Zm15.13 11.49.12 1.78-24.54-1v-.09l24.42-.69Zm18.38 1.88.12-1.78 24.77.7v.06l-24.89 1.02Zm-12.23.65c-.2-.18-.42-.34-.6-.52-.38-.36-.57-.8-.42-1.34.13-.51.5-.8.98-.84a5.49 5.49 0 0 1 1.69.05c.79.18 1.02 1.02.5 1.66-.23.27-.53.46-.83.72l.68.39c1.12.64.8 1.9.14 2.45-.71.58-2.04.7-2.83.24a1.31 1.31 0 0 1-.25-2.13c.27-.25.6-.44.94-.68Zm1.83 1.64c0-.59-.92-1.49-1.47-1.41-.04 0-.08.03-.12.05-.52.27-.8.84-.7 1.43.11.6.66 1.04 1.28 1 .64-.05 1-.44 1.01-1.07Zm-1.05-4.07c-.66 0-.97.24-.97.76 0 .44.68 1.18 1.08 1.18.33 0 .84-.7.84-1.16 0-.52-.31-.79-.95-.78Zm2.94 5.37a3.49 3.49 0 0 0 2.28-2.44c-.4.19-.72.43-1.09.5-.9.19-1.64-.28-1.9-1.12-.3-.93.09-1.98.9-2.4 1.23-.64 3.1-.31 3.1 1.92 0 1.79-1.2 3.32-2.9 3.69-.12.02-.26-.02-.39-.03v-.12Zm.09-3.95c.06.28.1.56.18.83.19.53.5.76.98.73.48-.02.85-.31.98-.82.15-.56.08-1.1-.16-1.62a.89.89 0 0 0-.85-.54c-.72-.01-1.09.46-1.13 1.43Zm-5.87 3.7c-.15.07-.3.2-.46.2-.66.03-1.32.02-2.04-.08.1-.1.2-.25.33-.28.34-.07.48-.3.48-.6.01-1.15.02-2.29 0-3.43 0-.48-.35-.6-.74-.64.1-.35.73-.54 1.75-.54v.53l-.02 3.92c0 .66.06.72.67.8l.04.12Zm12.04-4.36h-2.8l.22-.83h3.35c-.1.23-.14.47-.27.65a8.62 8.62 0 0 0-1.7 5.07c-.66-.27-.7-.35-.56-1 .25-1.2.79-2.28 1.42-3.32l.34-.56Zm3.51-50.04-.27.47c-.25-.12-.21-.42.12-.9.19-.1.4-.17.55-.3.4-.4.8-.8 1.17-1.23.17-.18.28-.24.52-.11.25.13.28.27.22.54-.13.58-.24 1.17-.33 1.77-.02.15.05.33.18.5l-.42.82c-.12-.06-.23-.1-.35-.17l.23-.51-1.62-.88Zm1.82-1.46-.08-.04-1.2 1.3c.31.17.58.3.88.45l.4-1.7Zm11.28 33.35-.26.54c-.71-.12-1.39-.24-2.07-.33-.16-.02-.34.05-.62.1-.11-.17-.7-.06-.64-.71l.6.24.8-1.67-.44-.27c.03-.26.1-.42.4-.23.23.15.63.15.55.61-.01.07.12.16.18.24l1.3 1.6.2-.12Zm-2.41-.38 1.64.36.05-.11-1.25-1.14-.44.9Zm-33.23-32.88.36-.24 1.45 2.37-.44.32-.81-1.39-.09.01v1.93l-.36.23-1.45-2.37.45-.3.89 1.5v-2.06Zm37.07 14.89-2.56.91-.19-.53 1.54-.5v-.1l-1.89-.45-.12-.37 2.57-.91.19.51-1.55.53v.09c.52.12 1.03.31 1.56.34.37.02.38.21.46.48Zm-46.7-4.22 1.4.78.08-.08-.96-1.7.18-.34 2.41 1.3-.24.5-1.4-.8-.1.07 1 1.71-.2.35-2.4-1.3.23-.49Zm5.03-2.91-.33.44-1.31-1-.07.05.74 1.87-.23.3-2.2-1.63.3-.46 1.32 1.02.08-.05-.76-1.86.23-.33 2.23 1.65Zm40.91 19.04c-.18.23-.49.36-.87.14-.38-.21-.44-.58-.4-.97.03-.3.08-.59.13-.9l2.7.45c-.05.33-.05.66-.16.94-.1.25-.3.57-.52.63-.22.06-.52-.16-.88-.28Zm-.82-1.12c-.05.4-.11.77.32.81.42.05.45-.32.53-.67l-.85-.14Zm1.2.2c-.02.34-.1.7.31.7.35.02.36-.29.37-.58l-.67-.13Zm-18.69-27.68c.28.24.46.5.3.9-.17.41-.5.53-.9.5l-.98-.15.53-2.76c.46.09.98.05 1.38.43.33.31.18.77-.33 1.08Zm-1 1.02c.3-.07.54-.08.72-.2.08-.04.12-.35.06-.43-.13-.16-.35-.24-.59-.4l-.2 1.03Zm.24-1.22c.3-.08.5-.1.65-.2.06-.04.09-.3.03-.35-.12-.13-.3-.19-.52-.3l-.16.85Zm18.58 32.78c-.4-.2-.84-.33-1.21-.58-.4-.27-.5-.75-.35-1.2.16-.47.5-.76.96-.73.43.03.89.17 1.28.37.5.26.63.77.47 1.28-.17.51-.54.77-1.15.86Zm.2-.55c.17-.16.44-.3.48-.48a.8.8 0 0 0-.25-.62 2.62 2.62 0 0 0-.94-.33c-.28-.06-.51.07-.61.37-.1.32.05.55.3.67.3.15.62.24 1.02.39Zm-5.57-22.43-.35-.44 2.17-1.73.34.46-.86.65.57.76.83-.68.35.45-2.16 1.72-.35-.45 1-.77-.57-.75-.97.78Zm-11.03-8.46c.16-.4.27-.82.49-1.18.28-.49.77-.62 1.26-.44a1 1 0 0 1 .7 1.13c-.06.41-.2.84-.42 1.2-.27.48-.74.6-1.22.44-.48-.16-.73-.55-.8-1.15h-.01Zm2.03-.62c-.16-.2-.28-.48-.46-.53-.18-.04-.52.08-.61.24-.18.3-.3.68-.33 1.04-.02.17.18.47.34.53.16.05.49-.05.6-.2.2-.3.29-.67.46-1.08Zm-8.18-.91c-.02.94-.47 1.47-1.23 1.41h-.04c-.7-.08-1.1-.85-.97-1.84.1-.77.65-1.2 1.35-1.05.54.1.89.69.88 1.48Zm-1.7-.1h-.03c.02.2 0 .43.09.57.12.2.34.44.51.44.18 0 .46-.24.51-.42a2.7 2.7 0 0 0 0-1.02c-.04-.3-.22-.52-.56-.5-.37.04-.48.3-.52.62-.02.1 0 .21 0 .31Zm14.17 5.11c0-.83.8-1.72 1.52-1.71.56 0 1.04.5 1.05 1.06.01.77-.82 1.73-1.51 1.74a1.1 1.1 0 0 1-1.06-1.1Zm2.05-.68c0-.4-.38-.66-.73-.48-.45.23-.7.64-.81 1.12-.1.4.3.71.7.59.34-.12.85-.85.84-1.23Zm-28.79 1.95-.41.36-1.5-1.81-.44.37c.3.48.63.93.89 1.4.12.23.19.52.17.77-.01.12-.29.31-.43.3-.15 0-.28-.17-.14-.44.08-.13-.03-.43-.14-.6-.3-.48-.64-.93-.99-1.42l1.21-1.07 1.78 2.14Zm4.54-2.83-.5.23-1.12-2.55.51-.24.44 1.06h.08c.03-.3.1-.6.08-.88-.03-.42.13-.62.57-.66-.05.4-.13.8-.15 1.19-.01.12.07.3.17.38.39.3.8.55 1.22.84-.33.26-.6.38-.95 0a1.8 1.8 0 0 0-.86-.51l.51 1.14Zm-13.37 12.97c-.19-.22-.34-.46-.55-.63-.32-.26-.35-.53-.09-.9l.63.83c.16.25.32.36.64.24.4-.15.84-.2 1.3-.3-.06.42-.16.7-.65.68-.31 0-.64.13-.96.2v.12l1.16.38-.19.54c-.85-.3-1.69-.6-2.57-.93l.18-.55c.37.15.7.28 1.04.4l.06-.08Zm2.55 17.87-2.54 1.17-.54-1.25.37-.26.33.84c.21-.1.4-.17.59-.25l-.19-.66c-.09-.37.03-.66.36-.83.34-.19.7-.22.96.1.26.35.44.76.66 1.14Zm-1.4.06.79-.36c-.18-.32-.29-.68-.7-.5-.4.19-.26.5-.09.86Zm44.03-8.25c-.27-.75.38-.6.68-.76.06-.5-.15-.85-.65-1.02v-.52c.87.3 1.72.57 2.56.88.09.03.14.27.14.41 0 .1-.07.29-.15.3-.85.26-1.71.48-2.58.71Zm1.17-1.43v.6l.88-.22v-.1l-.88-.28Zm-28.55-25.65c.3-.05.58-.11.85-.14.56-.04.83.15.94.66.1.46-.11.85-.56 1.04l-.4.14.09.49.08.47-.54.12-.46-2.78Zm.76 1.34c.23-.18.44-.26.5-.41.07-.13.01-.4-.09-.49-.12-.1-.34-.1-.58-.16l.17 1.05Zm-17.29 30.61.14.54-2.63.78c-.1-.35-.21-.72-.26-1.1a.66.66 0 0 1 .4-.72c.36-.16.72-.2 1.01.12.17.18.28.41.43.65l.91-.27Zm-1.35.45c-.12-.43-.31-.66-.67-.5-.14.08-.3.43-.25.51.28.42.56-.06.92 0Zm46.62-9.21c-.34.51-.6.63-1 .47-.4-.17-.64-.64-.58-1.2.07-.6.13-.66.58-.57-.04.22-.1.43-.1.65-.02.3.02.62.4.63.38 0 .4-.3.39-.61l-.03-.24c.2-.06.39-.13.44.2.03.27.19.47.49.38.3-.1.26-.36.18-.6-.04-.13-.1-.24-.21-.48.2.02.4-.03.48.05.32.33.33 1.09.06 1.38-.26.28-.66.26-1.1-.06Zm-4.64-9.82c.84-.46 1.6-.9 2.42-1.34l.28.47-.95.51.21.54c.15.45.05.75-.3.97-.4.24-.72.2-1.02-.17-.24-.3-.42-.64-.64-.98Zm1.38-.16-.74.41c.16.3.3.66.69.46.4-.19.22-.51.05-.87Zm-3.75-5.02-.4-.2c-.43-.24-.5-.53-.2-.91.22-.3.47-.57.74-.87l.37.42c-.14.14-.3.28-.43.43-.4.4-.37.55.18.83l.79-.81.33.4-1.95 1.85.07.15-.4-.39.9-.9Zm-23.35-7.8.18.4c-.28.1-.54.17-.83.26l.2.64.8-.23.07.42-.76.24.24.8.8-.28.11.44-1.3.41-.8-2.69 1.3-.4Zm-15.46 29.33-2.7.47-.23-1.36.4-.15.15.87.63-.07-.1-.88.4-.02.14.8.8-.13-.15-.86c.29-.1.46-.07.49.28.03.35.1.7.17 1.05Zm-2.67-4.23c-.03.46-.1.94.45 1.13.41.14.83.13 1.17-.15.37-.31.22-.7.03-1.07.44-.15.59.08.65.44.11.7-.19 1.16-.87 1.34-.99.27-1.84-.22-1.95-1.1-.04-.37.01-.64.52-.59Zm2.39-5.86c.4-.03.47.2.47.5-.01.74-.45 1.17-1.17 1.16-1.07-.03-1.75-.73-1.6-1.63.07-.35.2-.58.5-.42.05.4-.02.8.15 1.07.14.23.53.36.82.4.64.1.83-.18.83-1.08Zm-2.24 2.64-.09.7 2.31.18-.06.56-2.28-.22-.05.67c-.33.07-.46-.05-.42-.4.04-.37.08-.74.09-1.12 0-.37.16-.46.5-.37Zm44.7-7.06 2.4-1.33.26.46-2.4 1.33-.26-.46Zm-18.73-14.09h.55l.45.05v.45c-.3-.02-.57-.02-.83-.08-.07-.01-.1-.22-.17-.42Zm-22.66 8.85c.51-.24.52-.25.47-.82.27.19.38.43.21.68-.12.18-.35.28-.53.41l-.15-.28Zm46.19 7.33c-.69.03-1-.34-.82-.77.03-.07.12-.15.18-.14.06 0 .17.13.16.15-.2.4.09.55.48.76Z"/></g><defs><clipPath id="a"><path fill="#fff" d="M0 0h69v60h-69z"/></clipPath></defs></svg>