<svg viewBox="0 0 54 45" fill="none" xmlns="http://www.w3.org/2000/svg"><path d="m0 13.67 3.91-4.66c.06-.07.2-.12.28-.09 3 1.13 5.96.86 8.9-.23 2.5-.93 4.74-2.33 6.88-3.92a56.7 56.7 0 0 0 5.29-4.5c.15-.14.28-.2.5-.17 2.03.29 4.06.28 6.08-.1h.23c-3.06 1.61-6.1 3.27-9.18 4.82a128.64 128.64 0 0 1-16.07 6.88c-1.9.65-3.85 1.19-5.79 1.78-.22.07-.43.17-.66.23-.12.03-.25 0-.37.01v-.05Zm11.24-3.95c-.12-.17-.3-.1-.44-.08-.7.08-1.4.21-2.11.23-.79.03-1.59 0-2.37-.1-.63-.08-1.25-.28-1.87-.46-.34-.1-.42-.1-.64.18l-1.89 2.38-.94 1.18c.4.25 9.73-2.79 10.26-3.33Zm3.66 27c3.79 2.12 7.85 3.09 12.04 3.65l-.12.02h-.16c-3.43.05-6.8.49-10.1 1.5a.96.96 0 0 1-.46-.01 11.28 11.28 0 0 1-7.72-5.72 24.77 24.77 0 0 1-2.47-6.55 85.2 85.2 0 0 1-1.47-8.11.18.18 0 0 1 .03-.15l.1.24c.28.68.54 1.38.85 2.05.12.26.36.46.53.7a1 1 0 0 1 .14.32c.5 2.2 1.3 4.28 2.52 6.19a16.97 16.97 0 0 0 3.95 4.29c.1.07.24.13.37.13a7.2 7.2 0 0 0 2.21-.25 2.82 2.82 0 0 0 2.08-2.6c.1-1.2-.19-2.33-.56-3.45a33.84 33.84 0 0 0-2.53-5.55c-1.89-3.45-4-6.77-6.1-10.09l-.2-.32h.24l10.6.4a.6.6 0 0 1 .36.11 65.97 65.97 0 0 1 10.12 10.18 22.87 22.87 0 0 1 2.42 3.7c.51.99.66 2.03.48 3.13-.03.2-.11.42.21.47.27.04.42-.06.5-.37.23-1.02.47-2.04.69-3.07.05-.21.13-.28.34-.28h4.98l-.28 1.2c-.34 1.47-.69 2.93-1.02 4.4-.05.2-.11.26-.3.25h-2.21l.87-3.77c-.25-.05-.4.04-.45.25-.1.47-.2.94-.32 1.41a2.84 2.84 0 0 1-1 1.64c-.4.3-.82.46-1.3.46h-.74c-.51 0-.64-.14-.62-.68l-.2.29a2.9 2.9 0 0 1-1.92 1.25c-4.72.88-9.44 1.78-14.15 2.67l-.23.07Zm4.04-3.8 1.38-.01c.9-.03 1.82-.04 2.73-.11.9-.08 1.55-.62 2.07-1.31.38-.5.47-1.12.48-1.76.01-.57-.26-.97-.69-1.28a2.69 2.69 0 0 0-1.63-.48h-1.13l.14-.63h3.35c.18 0 .27-.05.3-.22l.23-1.08.11-.53h-5.61l-1.72 7.4Zm9.1-2.2.2-.02h3.28c.13 0 .25-.01.26-.17.04-.41.11-.82.1-1.24a1.86 1.86 0 0 0-.44-1.18c-.61-.7-1.44-.77-2.25-.65-1.35.2-2.31.97-2.83 2.27-.4 1-.23 1.97.49 2.62a2.5 2.5 0 0 0 2.52.52 3.9 3.9 0 0 0 1.6-.97c.25-.23.43-.54.64-.82l-.05-.06h-1.76c-.03 0-.07.04-.1.06-.2.12-.39.28-.6.34a.8.8 0 0 1-1.06-.7Zm10.36-3.1h-4.67l-.11.48c-.2.84-.42 1.67-.57 2.52-.11.63-.52.74-1.03.61l-.08.19c-.07.38-.11.77-.22 1.13-.07.23.06.3.19.3.45-.01.93.02 1.35-.1.98-.3 1.4-1.1 1.6-2.06.11-.56.25-1.11.37-1.66h.97l-.83 3.6c-.05.21.01.23.17.23.45 0 .9-.02 1.35 0 .24.02.32-.1.36-.3l.33-1.47.83-3.48Zm-25.53 9.35c.17-.02.41-.04.64-.09a4.2 4.2 0 0 0 2.3-1.31c.08-.1.13-.22.2-.34-.13.01-.26 0-.38.04a8.5 8.5 0 0 1-2.5.4c-.57.02-1.14-.12-1.7-.17a.47.47 0 0 0-.34.12c-.07.07-.09.22-.06.32.05.15.13.31.24.44.4.47.95.56 1.6.59Zm39.34 7.13h-1.76l.42-1.83h-1.95c-.36 0-.57.17-.65.5l-.28 1.15c-.02.08-.12.18-.19.18-.5.02-1.02 0-1.56 0l.26-1.1c.16-.64.3-1.29.47-1.93a.64.64 0 0 1 .17-.3 4.08 4.08 0 0 0 1.6-3.12c0-.08.02-.15.03-.23l.04-.13h4.47l-.82 3.46.53.04-.78 3.3Zm-.18-3 .84-3.51h-3.27c-.33 0-.53.15-.6.46v.03a3.78 3.78 0 0 1-1.34 2.66c-.33.28-.45.6-.53.98-.03.13-.05.27-.09.4l-.4 1.66h1.05c.12-.52.26-1.04.37-1.57.05-.24.14-.34.4-.31.17.02.35 0 .54 0h2.03c.2 0 .28.02.21.26-.12.4-.2.83-.3 1.24l-.07.38h1.08l.63-2.67h-.55Zm-7.43 1.14.19-.83-.05-.05c-.1.1-.18.23-.28.32-.44.38-.96.57-1.53.58-.88.02-1.75 0-2.63 0l-.15-.02.41-1.74c.24-1 .48-1.99.7-2.99.05-.2.14-.24.32-.24h1.65l-.36 1.56.29.02c.29.02.59.01.87.07.5.1.91.36 1.13.96l.41-1.73c.06-.23.1-.47.17-.7.02-.07.08-.17.13-.17h1.83l-.75 3.16-.4 1.63c-.01.06-.1.16-.15.16h-1.8v.01Zm-4.05-.34c.96 0 1.88.06 2.79-.02.69-.06 1.18-.53 1.45-1.19.18-.47.09-1.01-.25-1.21-.27-.16-.6-.26-.9-.3-.37-.05-.75-.01-1.16-.01l.36-1.58c-.41 0-.77-.01-1.12.01-.07 0-.18.11-.2.2l-.68 2.86-.29 1.24Zm5.72 0 1.03-4.3-1.07-.01c-.15 0-.21.05-.25.2-.1.47-.22.96-.34 1.44-.2.88-.42 1.77-.64 2.66h1.27Zm-3.97-5.28.25-1.22h-1.05c-.04 0-.1.1-.12.17-.08.28-.14.56-.19.85-.03.14-.08.21-.24.2h-.7c.01-.09.01-.15.03-.22l.59-2.66c.04-.2.13-.26.31-.25.2.02.42 0 .66 0l-.28 1.27h1.04c.05 0 .13-.11.14-.18.08-.29.14-.58.2-.87.03-.15.1-.23.26-.21h.54c0 .08 0 .14-.02.19l-.6 2.72c-.04.16-.1.23-.28.22-.17-.02-.34 0-.55 0Z" fill="#8BA6C3"/><path d="M31.42 33.5h2.3c-.04.2-.07.37-.13.52-.02.05-.13.1-.2.1h-.94c-.38 0-.39 0-.4.44l.57.04c.52.07.79.3.85.73a1.1 1.1 0 0 1-.94 1.26h-1.82l.71-3.08Zm.26 2.57c.32-.07.6-.1.84-.2.1-.04.18-.25.16-.37-.01-.1-.16-.23-.27-.26-.17-.04-.35 0-.53 0l-.03.07-.17.75Zm1.82.53.05-.3c.02-.18.08-.28.3-.3.28 0 .43-.2.5-.46.14-.6.28-1.2.4-1.8.05-.18.1-.25.3-.25h1.82l.26.02-.29 1.27-.37 1.64c-.03.16-.1.22-.26.2h-.61l.54-2.4c-.24 0-.42-.02-.61 0-.06.01-.14.12-.16.2l-.28 1.2c-.19.78-.77 1.14-1.6.98Zm12.17-1.67.95 1.7c-.34 0-.64 0-.94-.02-.05 0-.12-.08-.15-.14-.1-.23-.21-.46-.3-.7-.08-.23-.23-.3-.48-.29-.08.32-.16.63-.22.94-.03.14-.08.22-.24.2h-.6l.16-.72.49-2.15c.04-.2.12-.28.33-.26.16.02.32 0 .52 0l-.24 1.13c.16-.08.3-.1.39-.19.15-.14.29-.3.4-.47a1 1 0 0 1 .91-.47h.54l.05.08-1.57 1.35Zm-5.61 4.74c.4.41.48.88.22 1.4-.36.66-.92 1.1-1.67 1.13-1.08.06-2.16.05-3.25.06l-.08-.04.2-.87.92-3.85c.04-.17.1-.23.27-.23.83 0 1.65-.02 2.47.01.54.02 1.03.19 1.34.68.32.51.22 1.13-.23 1.54l-.2.17Zm-4.4 2.24.09.04c.97-.02 1.94.01 2.9-.07.67-.05 1.2-.44 1.4-1.11.18-.6.08-.76-.44-.92l-.52-.15c.25-.08.45-.14.64-.22a1 1 0 0 0 .63-.8c.06-.33-.1-.6-.35-.78a1.49 1.49 0 0 0-.72-.3c-.86-.03-1.73 0-2.6 0l-1.03 4.31Zm1.18-5.29.89-1.47.8-1.32c.19-.3.57-.45.9-.32.04.01.09.08.1.12l.37 2.99c-.2 0-.36.02-.53-.01-.06-.02-.14-.15-.14-.23 0-.28-.13-.37-.39-.33-.1.01-.2.01-.28 0-.38-.06-.66.05-.8.43-.02.06-.1.13-.16.13-.23.02-.46.01-.76.01Zm2.09-2.01-.06-.02-.5.88h.7l-.14-.86Zm7.93 2.01 1.4-2.32c.08-.12.17-.23.22-.35.15-.44.48-.53.88-.45.07 0 .17.1.18.15.13.95.24 1.91.36 2.86l-.02.1c-.15 0-.32.03-.46 0-.07-.02-.16-.15-.17-.23-.02-.27-.13-.38-.39-.34a.84.84 0 0 1-.26 0c-.38-.05-.68.03-.81.44-.02.06-.11.12-.17.13h-.76Zm2.1-2-.07-.03-.51.89h.7l-.13-.86Zm-27.5-3.65.24-1.16c.01-.04.07-.1.1-.1.42 0 .83.02 1.24.05.24.01.4.2.4.42 0 .24-.07.5-.31.62-.17.09-.37.14-.55.16-.36.02-.71 0-1.12 0Zm6.94-1.54c.11-.38.44-.55.96-.51.33.02.6.22.65.5h-1.62Zm20.38 11.65c.27-.39.57-.74.77-1.14.17-.36.24-.76.33-1.15.03-.14.06-.2.2-.2h.97c.13 0 .2 0 .15.2-.17.68-.33 1.38-.48 2.07-.04.19-.14.26-.34.26-.46-.02-.92 0-1.38-.01-.08 0-.15-.02-.22-.03Zm2.04-2.14h-.3c-.23-.03-.32.05-.39.3-.1.39-.29.77-.45 1.15-.05.12-.13.22-.22.37h.8a.3.3 0 0 0 .16-.13l.4-1.68Zm-8.8 2.17c.09-.35.18-.68.25-1.01.04-.17.12-.22.27-.2l.35.05c.43.07.5.14.5.45-.01.37-.25.68-.57.7-.26.03-.52.01-.8.01Zm.4-.28c.18-.02.34 0 .45-.07.1-.06.16-.21.2-.33.02-.04-.03-.14-.08-.16-.23-.13-.45-.02-.5.24-.03.09-.04.17-.07.32Z" fill="#8BA6C3"/><path d="M37.53 39.98c.3.03.58.04.86.09.13.02.33.11.34.2.03.18 0 .42-.1.55a.96.96 0 0 1-.55.28c-.26.05-.55.01-.84.01l.28-1.12Zm.92.4c-.6-.16-.79-.06-.76.41.5.08.72-.03.76-.4Zm-.79-.98.19-.88.87.07c.17.02.3.13.3.3-.02.2-.08.4-.3.43-.34.04-.68.05-1.05.08Zm1.02-.43v-.12l-.55.01c-.03 0-.04.14-.07.23.25 0 .46.06.62-.12Z" fill="#8BA6C3"/></svg>