<svg viewBox="0 0 59 58" fill="none" xmlns="http://www.w3.org/2000/svg"><g clip-path="url(#a)" fill="#8BA6C3"><path d="M0 54.03c.19 0 .38.03.57.02.14 0 .23.04.3.16l1.09 1.58.1.13.14-.2 1-1.5c.09-.12.18-.19.33-.17h.47c.05.18.06 3.55.02 3.84h-.65v-2.76l-.13.16-.97 1.43c-.16.23-.32.23-.48 0l-.93-1.36-.16-.2c-.04.26-.01.48-.02.7v2.05h-.68v-3.88Zm16.86 3.97-.29-.1a1.99 1.99 0 0 1-1.42-2.21 1.96 1.96 0 0 1 3.86-.13 2 2 0 0 1-1.4 2.35l-.31.09h-.44Zm.22-.67c.73 0 1.28-.57 1.3-1.34 0-.77-.55-1.36-1.27-1.36-.73 0-1.3.57-1.3 1.34 0 .76.55 1.35 1.27 1.36Zm9.7.67-.31-.1a1.97 1.97 0 0 1-1.43-2.14 1.95 1.95 0 0 1 1.9-1.77c.91-.02 1.72.58 1.94 1.45a2 2 0 0 1-1.37 2.47l-.3.09h-.43Zm.2-.67c.72 0 1.28-.57 1.29-1.34 0-.78-.54-1.36-1.27-1.36-.73-.01-1.28.57-1.29 1.34 0 .77.54 1.35 1.27 1.36Zm-14.86.67-.32-.1a1.95 1.95 0 0 1-1.42-1.97c.02-.97.65-1.73 1.55-1.9a1.97 1.97 0 0 1 1.86.54l.05.07-.4.46-.15-.12c-.37-.32-.8-.41-1.27-.3-.62.14-1.02.78-.95 1.47a1.3 1.3 0 0 0 1.2 1.17c.4.02.74-.1 1.04-.36l.1-.09h.04l.4.45c-.27.3-.57.49-.94.59l-.3.09h-.5Zm11.13-48.05 2.82-2.95-3.12-3.24 3.58-3.72 3.08 3.2 3.1-3.24 3.58 3.75-3.12 3.24 2.83 2.93 3.12-3.24 3.6 3.73-3.12 3.24 2.84 2.94 3.13-3.25 3.6 3.73-3.21 3.33 3.2 3.33-3.6 3.73c-1.04-1.09-2.1-2.2-3.2-3.32l-2.82 2.93 3.19 3.3c-.09.18-3.35 3.58-3.6 3.77l-3.17-3.3-2.82 2.93.6.64.66.67.63.66.66.68.62.65-3.6 3.73-3.1-3.21-3.07 3.2-3.6-3.74 3.16-3.27-2.82-2.93-3.17 3.29-3.6-3.74 3.17-3.28-2.83-2.94-3.14 3.26-3.6-3.73 3.19-3.3-3.2-3.33 3.59-3.73 3.13 3.24 2.82-2.93-3.12-3.24 3.6-3.73 3.13 3.26Zm-.59 17.4h10.18a5 5 0 0 0 1.7-.3 3.23 3.23 0 0 0 2.13-3.12v-2.26a3.04 3.04 0 0 0-1.2-2.45 3.63 3.63 0 0 0-2.28-.79h-6.21v-1.22l.15-.01c2.19 0 4.38 0 6.56.03.64 0 1.28.12 1.88.38l.14.05c.05-.23.04-4.02 0-4.19h-13.09l.29.6c.3.77.45 1.58.45 2.4v8.02a9.4 9.4 0 0 1-.62 2.66l-.08.2Zm-18.5-3.3-3.53-3.67 3.52-3.66 3.53 3.67-3.52 3.66Zm47.43-3.69 3.53-3.67 3.54 3.68-3.53 3.67-3.54-3.68Zm-17.09 37.54h-.68v-2.7h-.04l-.14.18-.91 1.34c-.15.22-.32.23-.47.01l-.95-1.39a.44.44 0 0 0-.17-.16v2.71h-.6c-.05-.15-.07-3.5-.02-3.84l.65.01c.05 0 .11.08.15.14l1.08 1.55.12.17.13-.19 1.02-1.5c.08-.14.17-.2.32-.18h.5v3.85Zm1.68 0v-3.83h2.8v.64h-2.11v.56h1.14c.16 0 .31.02.46.06.58.17.93.68.9 1.32-.01.6-.4 1.08-.97 1.21-.1.03-.22.05-.33.05h-1.77l-.12-.01Zm.69-.64h1.1c.08 0 .15 0 .22-.02a.66.66 0 0 0 .52-.66.63.63 0 0 0-.55-.64 49.1 49.1 0 0 0-1.1-.02h-.19v1.34Zm-27.46-9.84v.56l.2.02h.94c.13 0 .27 0 .4.04.67.15 1 .72.97 1.32-.03.69-.5 1.19-1.14 1.25-.17.02-.35.01-.52.01h-1.52v-3.83h2.8v.62c-.23.02-.46.01-.7.01h-1.42Zm0 2.55c.45 0 .9.02 1.33 0 .32-.03.52-.35.5-.7a.61.61 0 0 0-.53-.61 93 93 0 0 0-1.12-.01l-.17.01v1.31Zm31.56 4.09h.65v2.66l.04.01c.04-.05.1-.1.13-.16.6-.78 1.2-1.56 1.78-2.35.1-.12.2-.19.35-.17h.38v3.84l-.09.01h-.53c-.02-.45 0-.9-.01-1.34v-1.39l-.16.18-1.8 2.38c-.1.13-.2.2-.35.18-.12-.02-.25 0-.37 0-.05-.18-.06-3.49-.02-3.85Zm5.88-3.44v-3.82h.64v2.66c.11-.03.14-.11.2-.17l1.78-2.36c.08-.1.16-.16.3-.15h.4c.05.18.06 3.46.02 3.83l-.3.01h-.32c-.02-.9 0-1.77-.02-2.68-.1.03-.14.12-.19.18l-1.76 2.33c-.1.13-.19.2-.35.18-.12-.02-.26 0-.4 0Zm-5.04-3.83h.65v2.66l.05.01.16-.2 1.76-2.33c.08-.11.17-.17.3-.15h.43v3.83l-.18.01h-.46v-2.67l-.05-.01-.14.18c-.6.78-1.2 1.56-1.78 2.34-.08.11-.17.18-.31.16h-.43v-3.83Zm-36.23 11.1.75-1.16-.13-.1a1.4 1.4 0 0 1 .6-2.55l.34-.03h1.46l.21.01v3.83h-.66v-1.02h-.61c-.18 0-.39-.04-.54.04-.13.07-.2.28-.3.43l-.34.55h-.78Zm2.56-3.16-.05-.03c-.4 0-.8-.02-1.18.02-.37.03-.6.36-.6.75-.01.39.22.71.6.74.4.03.8 0 1.23 0v-1.48Zm12.98-7.93v.63h-2.17v.85h1.93v.64h-1.93v1.05h2.24v.62c-.16.04-2.68.05-2.93 0v-3.8h2.86Zm-6.93 2.8v1.01h-.69v-3.81l.16-.02h1.65a1.39 1.39 0 0 1 1.34 1.74c-.13.56-.57.98-1.14 1.04-.32.04-.66.02-.98.03h-.34Zm0-.67c.42 0 .8.02 1.2 0 .39-.02.68-.45.62-.86a.73.73 0 0 0-.74-.64h-.99l-.08.02v1.48Zm9.7 5.15-.08.59h-.25c-.17 0-.3.08-.4.24l-.33.6-.2.34 1.32 2.06-.76-.01c-.05 0-.12-.08-.15-.14-.3-.46-.58-.93-.87-1.4a6.01 6.01 0 0 0-.12-.18h-.78v1.72h-.64a53.2 53.2 0 0 1-.02-3.83h.65v1.46h.64c.13-.01.22-.12.28-.23l.4-.73c.3-.51.72-.68 1.3-.5Zm30.88 3.82h-.73l-.3-.68h-1.95l-.3.68h-.7l.06-.2c.5-1.16.99-2.3 1.47-3.46.06-.14.13-.2.28-.2.11.02.23.02.35 0 .14 0 .2.06.26.19l1.4 3.27.16.4Zm-1.3-1.36-.71-1.78-.7 1.78h1.4Zm-6.79-.36v1.7h-.64c-.05-.14-.07-3.44-.02-3.81h.65v1.43h1.92v-1.44a4 4 0 0 1 .64 0c.04.17.05 3.54.01 3.83h-.64v-1.71h-1.92Zm-8.28-7.28h-.78v1.71h-.66v-3.82h.66v1.45h.65c.13 0 .2-.1.26-.22l.41-.73c.3-.55.72-.6 1.17-.54.04 0 .08.03.13.05l-.07.57-.2.01a.5.5 0 0 0-.47.28c-.16.31-.34.6-.52.92l1.32 2.04h-.74c-.1 0-.13-.08-.18-.15l-.85-1.37c-.04-.07-.1-.14-.12-.2Zm-12.41-1.54c-.14.16-.27.3-.4.47l-.2-.16c-.37-.3-.79-.37-1.23-.27-.66.16-1.05.83-.93 1.56.1.66.7 1.14 1.36 1.09.3-.03.57-.13.8-.32l.19-.16.4.46c-.57.78-1.97.91-2.77.2a2.08 2.08 0 0 1-.17-2.9 2.03 2.03 0 0 1 2.95.03Zm9.43 0-.42.47a1.42 1.42 0 0 0-1.26-.46c-.3.04-.55.17-.75.4a1.4 1.4 0 0 0-.05 1.8c.26.33.61.48 1.02.48.41 0 .75-.19 1.05-.48l.41.47a1.9 1.9 0 0 1-1.25.65 1.96 1.96 0 0 1-2.12-1.36c-.4-1.3.48-2.74 2.07-2.62.5.04.94.24 1.3.64Zm-5.99 3.25h-.67v-3.18c-.47-.03-.92 0-1.38-.02v-.62h3.4v.62h-1.35v3.2Zm29.57 3.46v.62h-1.34v3.2h-.68v-3.2h-1.36v-.62h3.38Zm-10.88-8.39c.08.23.2.4.43.4.25 0 .36-.17.45-.4l.46.2c-.03.4-.4.73-.84.76a.91.91 0 0 1-.98-.74l.48-.22Z"/><path d="M26.97 23.6v-1.42l.2-.01h5.31c.3 0 .46.12.54.42.1.31.06.6-.16.85a.46.46 0 0 1-.36.17h-5.53Z"/></g><defs><clipPath id="a"><path fill="#fff" d="M0 0h59v58h-59z"/></clipPath></defs></svg>