<svg viewBox="0 0 45 54" fill="none" xmlns="http://www.w3.org/2000/svg"><path d="M31.57 5.98c-.25.35-.52.7-.85.96-.41.32-.92.57-1.43.24-.64-.4-1.32-.4-2.02-.37-.3.02-.53.3-.6.66-.04.31.06.46.4.61l.47.2c.18.1.22.26.14.42-.08.18-.22.1-.36.06-.16-.03-.38-.06-.47.02-.1.08-.13.31-.1.46.19.69.6 1.23 1.25 1.56.53.26 1.1.23 1.65.02.54-.2.87-.04.95.53.12.85.08 1.7-.3 2.5a6.88 6.88 0 0 1-1.43 1.94c-.24.23-.25.3-.04.55.27.31.54.64.86.87.53.37.94.34 1.28-.1.14-.17.3-.32.46-.47.07-.06.15-.1.22-.15l.06.05-.23.38c-.03.06-.05.17-.02.21.04.06.15.09.21.07a.9.9 0 0 0 .28-.13c.15-.09.29-.2.44-.27.78-.34 1.63-.38 2.44-.55.57-.12 1.18-.15 1.7-.37.8-.33 1.53-.77 2.28-1.2.19-.1.37-.29.48-.48a5.1 5.1 0 0 0 .19-4.79c-.4-.93-.95-1.77-1.6-2.55a8.94 8.94 0 0 0-2.3-2.07c-.85-.51-1.72-.65-2.63-.14-.58.32-1 .8-1.38 1.33Zm1.07 5.71c0 .23-.18.4-.41.39a.4.4 0 0 1-.39-.4c0-.21.18-.4.4-.4.23 0 .4.18.4.41Zm6.22 21.32c-.68-.29-1.32-.65-1.97-1a.57.57 0 0 1-.26-.3c-.13-.4-.4-.6-.8-.71a4.72 4.72 0 0 1-.82-.31c-.47-.23-.53-.43-.4-.94.06-.22.1-.47.05-.69-.14-.6-.08-1.14.32-1.63l.07-.14c-.33.05-.64.15-.78.39-.22.4-.48.28-.77.16l-.3-.11c-.48-.2-.52-.25-.49-.76.02-.2.06-.39.1-.58.01-.09.04-.18.07-.27a.59.59 0 0 0-.62.4c-.08.25-.12.52-.13.78-.03.47-.06.58-.51.72-.44.12-.9.21-1.35.25-.5.04-.92.22-1.26.58-.3.29-.66.41-1.06.47l-2.28.37a.99.99 0 0 0-.85.79c-.11.48-.13.97.04 1.46.16.48.5.7.97.8.18.04.38.1.54.2.62.38 1.22.78 1.84 1.17.18.11.4.17.55.31.46.45.95.9 1.34 1.4a4.66 4.66 0 0 1 1.07 3.6c-.07.45.05.65.47.84.45.2.92.16 1.38.03.97-.28 1.8-.85 2.6-1.46a18 18 0 0 0 2.59-2.53c.45-.52.93-1.03 1.21-1.68.26-.6.17-1.3-.56-1.6Zm-8.54-2.48h-.12c-.05-.1-.17-.2-.16-.3.02-.07.13-.14.21-.2l.04-.03.03.03c.07.07.18.15.18.23.01.08-.12.18-.18.27Zm-17.66-22.43a12.16 12.16 0 0 0 6.13 2.52c.24.03.53-.02.76-.12a4.68 4.68 0 0 0 2.2-2.07 9.05 9.05 0 0 0 1.2-5.43c-.15-1.44-.97-2.54-2.45-2.9a2.55 2.55 0 0 0-2.35.5c-.3.25-.61.52-.88.82-.5.55-1.09.73-1.81.51-.5-.14-1-.22-1.3-.29a4.06 4.06 0 0 0-2.4.74 2.47 2.47 0 0 0-1.03 2.73 5.4 5.4 0 0 0 1.93 3Z" fill="#8BA6C3"/><path d="M29.37 40.3c.37-.73.55-1.5.18-2.28a6.69 6.69 0 0 0-2.84-3.09 9.84 9.84 0 0 0-2.66-1 .68.68 0 0 1-.5-.42l-.28-.6a.64.64 0 0 1 .04-.7c.15-.22.2-.47.18-.74a1.03 1.03 0 0 0-.73-.93 1.02 1.02 0 0 0-1.13.25c-.14.14-.37.23-.57.27-.33.07-.62.18-.8.48-.4.66-.03 1.49.74 1.67.25.06.48.14.6.4.24.53.18.8-.3 1.13-.64.43-1.25.88-1.73 1.48a4.73 4.73 0 0 0-1.04 2.31 4.7 4.7 0 0 0 .78 3.31c.33.52.72 1.02 1.17 1.44.62.57 1.44.66 2.3.67.09 0 .22 0 .35-.02a8.68 8.68 0 0 0 4.23-1.53 5.8 5.8 0 0 0 2.01-2.1Zm-7.23 2.17c-.4-.24-.5-.48-.4-.95.1-.44.36-.8.67-1.12 1-.99 2.2-1.6 3.6-1.81.17-.03.35-.03.53-.04.47-.02.9.07 1.3.33.19.13.27.3.3.53.03.49-.16.88-.48 1.23a6.23 6.23 0 0 1-4.16 2.08c-.48.05-.94 0-1.36-.25Zm21.79-21.32c-.3.02-.3.01-.28-.3a2.37 2.37 0 0 0-1.96-2.43c-.37-.06-.76-.03-1.15-.04-.13-.01-.3 0-.4-.06a3.6 3.6 0 0 0-2.24-.41c-.22.02-.44.02-.51.3-.24-.41-.28-.45-.56-.51a5.07 5.07 0 0 0-2.03-.05c-.1.02-.2.04-.29 0a2.72 2.72 0 0 0-1.33-.11c-.95.1-1.75.85-1.9 1.78-.02.16-.01.32-.01.42-.17.07-.32.09-.37.16-.1.16-.1.35.05.5.3-.1.33-.08.36.12.1.75.57 1.25 1.2 1.6a3.1 3.1 0 0 0 1.59.35c.07 0 .13-.03.2-.04l-.13-.42.07-.03c.04.06.07.14.12.2.1.1.2.25.32.31.63.33 1.3.5 2.01.42.25-.03.33-.14.35-.36l.03-.31h.07c0 .1.03.19.02.28-.02.35.17.52.47.63.5.2 1.04.28 1.57.2.48-.08 1-.32 1-1.05l.03-.17c.06.05.09.1.08.15-.05.24-.08.49-.15.72-.06.17-.04.26.15.29l.7.11c.87.13 2.12-.66 2.27-1.46.02-.1.07-.2.13-.36l.12.26c.12.23.25.25.39.02.09-.15.15-.32.2-.5.05-.14-.02-.23-.2-.21h.01Zm-35.68 10.45c.05.26.07.47.13.67.13.38.37.57.78.53.25-.02.52-.09.75-.2.38-.17.71-.44 1.1-.58.68-.23 1.38-.42 2.08-.57a4.55 4.55 0 0 0 1.79-.64c.47-.34.94-.68 1.29-1.16.16-.23.19-.48.03-.7-.26-.38-.51-.76-.83-1.09-.48-.5-.97-1-1.26-1.64-.25-.56-.47-1.13-.7-1.7a7.15 7.15 0 0 1-.27-4.43c.16-.7.52-1.35.78-2.03.05-.12.04-.27.05-.4-.14.04-.29.07-.43.12a.28.28 0 0 0-.12.08c-.25.31-.59.58-.74.93-.36.82-.64 1.67-.93 2.51-.2.57-.37 1.15-.57 1.72-.05.17-.18.26-.37.31-.22.07-.46.18-.64.33-.55.43-.86 1.04-1.23 1.6-.18.28-.37.55-.48.86-.2.54-.05 1.1.12 1.63.27.85.3 1.68-.02 2.53-.16.43-.22.9-.31 1.32Zm-1.9-23.36c-.1.36-.29.6-.6.8-.15.1-.3.25-.4.41-.05.1-.01.27.05.38.03.05.21.06.3.03.5-.15 1-.1 1.47.08.57.22.78.54.66 1.14-.13.66-.3 1.32-.47 1.97-.21.8-.4 1.6-.41 2.53 0 .13 0 .36.04.58.08.65.2 1.28.63 1.8.35.44.91.59 1.33.32.18-.12.35-.27.49-.44.51-.6.8-1.34 1.1-2.06.16-.38.3-.79.54-1.12.37-.52.96-.74 1.57-.9.8-.19 1.1-.52 1.2-1.33a3.26 3.26 0 0 0-.6-2.22 6.36 6.36 0 0 0-2.82-2.44 5.5 5.5 0 0 0-2.53-.61c-.68.02-1.39.49-1.55 1.08Zm.96.29c.16 0 .28.08.27.31 0 .15-.13.25-.29.2-.1-.02-.24-.15-.26-.25-.03-.17.11-.27.28-.26Zm8.01 30.5c1-.03 1.78-.55 2.1-1.45a7 7 0 0 0 .34-1.42c.13-.91.3-1.79.86-2.54.14-.2.24-.41.34-.63.14-.3.17-.63.01-.94a1.79 1.79 0 0 0-2.57-.73c-.3.18-.6.39-.9.58-.44.28-.89.47-1.42.49-.65.03-1.3.13-1.95.27-1.31.29-1.87 1.11-1.7 2.43.18 1.3.8 2.38 1.64 3.36.23.28.53.45.91.47l2.1.1h.24Zm-.64-2.55c.03.08 0 .18-.02.26-.06.2-.2.26-.37.12-.24-.19-.43-.42-.4-.74 0-.23-.1-.35-.29-.43a3.83 3.83 0 0 1-.54-.3c-.04-.03-.06-.14-.06-.2 0-.04.1-.06.16-.08.23.1.46.17.67.27.3.14.56.1.81-.13.3-.25.6-.48.9-.7.07-.05.17-.04.25-.05-.02.08 0 .2-.05.25-.18.19-.37.35-.56.52-.36.32-.65.67-.5 1.2Zm26.92-11.32a9.59 9.59 0 0 0-4.6-1.41c-.29.03-.6.04-.89.1-.52.11-1 .3-1.36.73-.43.5-.64 1.4.15 1.94.61.42 1.06.99 1.14 1.78.06.6.27 1.17.74 1.58.44.4.9.76 1.4 1.08 1.05.7 2.22.61 3.16-.23a6.2 6.2 0 0 0 1.6-2.42c.2-.54.2-1.1-.03-1.64a3.32 3.32 0 0 0-1.31-1.51Zm-1.94 3.8a.71.71 0 0 1-.67-.7c.01-.4.58-.86 1.04-.86.3 0 .63.37.62.7-.01.42-.53.87-.99.86Zm-37.81-5.84c.17-.08.37-.08.56-.1l1.07-.13c.84-.11 1.46-.5 1.7-1.37.16-.6.27-1.22.25-1.86-.04-1.07.1-2.12.32-3.17.07-.32.03-.68-.07-.98-.17-.54-.43-1.04-.66-1.55a1.18 1.18 0 0 0-.22-.33c-.03-.04-.19-.03-.2 0-.18.37-.38.76-.24 1.19.12.35.29.69.43 1.03l.2.44-.1.04c-.43-.31-.58-.84-.85-1.37-.1.35-.22.62-.24.9-.02.2.13.4-.18.44-.02 0-.04.04-.05.06-.13.22-.05.75.13.95.14.17.28.34.37.54.06.15.04.34.06.52-.04 0-.07.02-.11.03-.28-.29-.2-.85-.71-1l-.1.32c-.12.45-.25.9-.4 1.36-.02.08-.11.15-.18.22l-.08-.04c.01-.72.45-1.37.4-2.13-.22.06-.4.13-.6.17-.05.01-.12-.04-.18-.07.03-.06.04-.15.09-.18.07-.04.17-.05.25-.07.52-.13.92-.77.8-1.36-.32.1-.63.23-.94.33-.06.02-.15-.02-.22-.02 0-.08 0-.17.04-.22a.56.56 0 0 1 .23-.17c.22-.1.44-.2.67-.23.3-.04.47-.2.59-.46l.22-.54c.03-.09.03-.18.05-.3a.78.78 0 0 0-.58.29c-.04.05-.12.06-.19.1-.02-.1-.09-.2-.06-.28.03-.09.13-.16.22-.22.2-.13.41-.24.62-.36.25-.15.37-.43.3-.76l-.22.12-1.95 1.45a4.7 4.7 0 0 0-1.58 2.05 5.96 5.96 0 0 0-.44 3.2c.2 1.15.63 2.21 1.15 3.24.2.4.23.45.63.28Zm4.66 8.33a2.84 2.84 0 0 0 1.35-3.12 6.22 6.22 0 0 0-1.99-3.52 4.13 4.13 0 0 0-3.43-1.04c-.32.05-.6.2-.74.5-.03.06-.08.1-.13.18-.1-.21-.13-.45-.39-.38-.3.08-.55.26-.65.58-.1.37.07.63.53.65-.42.24-.59.58-.6.96 0 .46 0 .93.08 1.38.14.75.51 1.4.92 2.04.56.87 1.3 1.55 2.27 1.9.94.35 1.9.39 2.78-.13Zm-3.77-3.67c-.08-.33-.06-.68-.08-1.01 0-.1 0-.18-.02-.27-.07-.33.01-.45.35-.48h.27c.76-.03 1.2.48 1.62.98.35.4.6.88.7 1.4.04.22.05.46 0 .66-.14.57-.72.77-1.36.5a2.49 2.49 0 0 1-1.48-1.78Zm19.92-19.4c-.24.46-.35.93-.08 1.42l-.1.08-.1.08c.15.22.34.3.37.19.06-.2.2-.16.33-.18a1 1 0 0 0 .3-.11c.43-.25.78-.6 1.07-1a7.2 7.2 0 0 0 1.2-2.98c.13-.68.18-1.36.06-2.05a1.47 1.47 0 0 0-.7-1.07c-.12-.08-.22-.19-.33-.29-.15-.12-.12-.2.08-.28.21.54.7.56 1.17.56.4 0 .8-.02 1.2-.04.54-.02 1.06.05 1.58.22.52.18 1.03.47 1.6.34.55-.12 1.04.07 1.53.28-.09.04-.2.08-.27.05a1.1 1.1 0 0 0-.86.01c-.14.06-.28.11-.4.18-.9.46-1.82.62-2.82.4-.37-.07-.77-.13-1.1.19-.08-.05-.13-.1-.19-.12-.04-.02-.1 0-.15.01.01.05.01.13.04.15.17.08.14.22.14.37 0 .13.03.28.1.4.25.47.68.75 1.19.86 1.21.27 2.34.03 3.4-.62.39-.24.73-.55.91-.99.07-.16.05-.35.11-.51.1-.22.3-.4.17-.67-.01-.03.02-.08.04-.12.14-.34.1-.53-.16-.79a3.72 3.72 0 0 0-1.34-.76c-.94-.36-1.93-.58-2.93-.7-.7-.08-1.41-.1-2.09.19-.35.15-.64.35-.82.7a.4.4 0 0 1-.17.15c-.17.08-.36.14-.34.39 0 .03-.06.09-.1.12a.81.81 0 0 0-.36.64c-.03.55-.04 1.1-.04 1.64.01.73-.07 1.45-.38 2.12-.23.52-.5 1.03-.76 1.54Zm-13.46 31.87c.6.36 1.22.67 1.83 1 .1.05.24.05.36.08l.03-.06c-.05-.1-.08-.2-.15-.27-.34-.4-.65-.82-1.04-1.17a19.4 19.4 0 0 1-2.7-3.1c-.05-.06-.04-.15-.06-.23.09.01.2 0 .25.04.15.14.3.3.42.47.29.39.54.8.83 1.18.15.2.36.36.55.52.05.04.15.04.2.01.04-.01.03-.12.02-.19l-.09-.48c0-.07.03-.15.05-.29.25.26.27.54.35.79.1.3.14.64.33.87.46.57.98 1.1 1.49 1.63.07.07.18.12.31.2l-.01-.12-.12-.16a5.3 5.3 0 0 1-.97-1.63l-.7-1.99a11.05 11.05 0 0 0-1.94-3.43 3.65 3.65 0 0 0-3.18-1.44c-.24.02-.5-.03-.73-.05-.2-.02-.38-.05-.57-.04-.28 0-.38.17-.29.43l.14.28c.1.25.22.5.26.75.2 1.35.73 2.54 1.67 3.56a16.1 16.1 0 0 0 3.46 2.84Zm14.05-27.87c.33.47 1.2.62 1.71.35a.3.3 0 0 1 .46.25l.03.37c.01.25.13.4.38.48.16.05.32.13.46.22.47.28.52.3.9-.08.18-.17.32-.16.5-.05.3.19.6.37.91.54.08.05.18.08.27.11l.05-.08c-.34-.3-.68-.6-1.04-.87-.13-.11-.17-.2-.12-.37.16-.5.06-.95-.33-1.32-.15-.15-.33-.21-.54-.11-.35.16-.71.32-1.06.5-.18.09-.33.03-.45-.06-.05-.04 0-.2.02-.3 0-.07.05-.13.08-.18.18-.36.1-.54-.3-.57a3.87 3.87 0 0 0-1.01.01c-.4.07-.84.13-1.09.54-.01.04-.08.06-.12.06-.25 0-.53.1-.68-.22-.03-.06-.12-.1-.2-.14a1.4 1.4 0 0 0-1.08-.02c-.11.04-.25.18-.27.28-.03.28-.21.32-.42.35l-.29.06c-.23.07-.4.07-.49-.22-.1-.3-.3-.36-.58-.21a1.6 1.6 0 0 0-.38.26l-1.09 1.1-.01.1c.22-.13.35-.04.46.14.02.04.15.04.22.02.3-.1.6-.22.9-.34.17-.07.38-.14.47-.28.2-.28.48-.32.77-.38.36-.07.36-.07.42.28.05.3.15.43.44.43.28 0 .56-.03.82-.12.34-.1.7-.25.55-.75.31-.04.54-.05.73.22Zm-10.47 4.07c-.01.1.06.22.1.34.1-.05.22-.09.32-.15.07-.05.1-.17.18-.2.33-.1.7-.05 1.03-.24.03-.02.08 0 .12 0 .44.08.8-.06 1.1-.38.43-.44.66-1 .82-1.57a3.51 3.51 0 0 0-1.38-4.02c-.09-.06-.28-.08-.36-.02-.08.05-.14.23-.12.34.03.22.1.44.19.65.22.58.4 1.16.2 1.79a4.7 4.7 0 0 1-1 1.75c-.13.15-.24.3-.22.52 0 .05-.1.15-.17.17-.17.05-.22.14-.13.3l.17.2-.33.07c-.26.03-.47.2-.51.45Zm17.3 33.73c-.31-.43-.76-.6-1.26-.68-.16-.03-.27-.08-.35-.24a.52.52 0 0 0-.38-.25c-.14 0-.32.12-.39.24-.09.16-.18.23-.35.24l-.26.05c-.82.18-1.3.74-1.32 1.53.05.22.07.44.15.64.25.63.8.85 1.41.95.17.03.27.07.35.24.14.3.59.36.74.07.14-.27.34-.3.58-.35.13-.02.25-.06.38-.1a1.54 1.54 0 0 0 .7-2.34Zm-2.45.9v.61c0 .15-.07.2-.22.2-.37-.04-.68-.41-.66-.84.01-.42.34-.78.7-.78.07 0 .17.11.17.18.02.2.01.42.01.63Zm1.18.8c-.18.04-.29 0-.28-.22v-1.19c.01-.15.07-.23.24-.19.37.08.62.4.62.8a.8.8 0 0 1-.58.79Zm10.41.52-.07-.03c-.17-.03-.19-.15-.19-.29v-1.1h.01v-1.1c0-.31-.12-.44-.43-.45h-1.5c-.45 0-.68.22-.75.67-.02.15-.02.31-.05.46-.14.51-.27 1.02-.43 1.52-.04.11-.2.18-.28.28-.1.11-.22.23-.24.36-.04.27-.02.55-.01.83 0 .2.13.31.31.36.28.07.5-.12.5-.45 0-.25.08-.32.32-.32.6.02 1.19.01 1.78.01.25 0 .4.13.43.38.05.34.38.5.65.32.31-.22.27-1.25-.05-1.45Zm-1.21-.3c0 .15-.06.24-.23.24h-.8c-.17 0-.2-.09-.16-.26.12-.48.23-.96.32-1.45.05-.3.08-.35.38-.36h.02c.31 0 .47.15.47.45v1.37Zm-17.28-2.73c-1.16.03-1.92.8-1.91 2 0 1.12.8 1.89 1.99 1.88 1.22-.01 1.99-.76 2-1.94 0-1.16-.82-1.97-2.08-1.94Zm.05 3c-.61-.01-.98-.4-.98-1.04 0-.7.37-1.08 1.05-1.07.6 0 .98.43.97 1.07 0 .66-.4 1.04-1.04 1.03Zm-12.34-29.88c.34-.3.57-.7.56-1.18a1.41 1.41 0 0 0-.69-1.2 8.9 8.9 0 0 0-1-.53c-.06-.03-.19 0-.25.06-.22.19-.42.4-.63.6-.74.7-.6 1.84.2 2.29l.33.21c.4.28.69.62.7 1.14l.05.68c.03.27.14.37.35.34.24-.03.17-.22.16-.36-.03-.3-.07-.59-.14-.87-.11-.47-.02-.84.36-1.18Zm-.69 26.98c-.23-.07-.42 0-.58.2-.35.47-.7.93-1.06 1.38l-.35.43-.07-.03-.03-.28v-1.2c0-.33-.19-.53-.47-.53-.28 0-.46.21-.47.54v2.62c0 .1.02.22.07.3.18.31.55.33.8.02l1.24-1.58c.06-.09.14-.16.26-.3l.01.34v1.23c.01.32.21.53.5.53.26 0 .47-.22.47-.53v-2.65c0-.23-.09-.42-.32-.49Zm4.77 3.68c.3 0 .48-.22.48-.6v-2.54c0-.36-.17-.55-.48-.56-.3 0-.47.2-.48.55v.62c0 .2-.09.27-.29.27h-.88c-.18 0-.28-.06-.27-.26v-.69c-.01-.3-.2-.49-.47-.5-.29 0-.48.2-.48.5v2.7c0 .3.18.5.45.5.27.01.48-.2.49-.5v-.7c0-.16.07-.23.23-.23h.98c.16 0 .23.07.23.22v.62c0 .38.19.6.5.6Zm25.08-36.65c-.16.06-.28.2-.22.4.06.18.22.24.4.22l.92-.1c.52-.08 1.05-.16 1.58-.2.12-.02.29.08.4.18.18.17.32.38.5.57.16.17.32.16.52-.04-.13-.1-.25-.16-.35-.25-.05-.04-.06-.1-.08-.16.06-.02.14-.07.19-.06.12.03.22.1.33.15.25.1.61.05.78-.14.27-.34.43-.72.36-1.16-.14-.83-.92-1.2-1.66-.8-.05.03-.1.04-.23.07.09-.15.16-.23.17-.31.02-.09-.02-.18-.04-.27-.09.03-.2.04-.26.1-.08.1-.1.24-.16.36-.07.14-.12.32-.23.42a3 3 0 0 1-1.55.69c-.46.07-.92.2-1.37.34Zm-20.09 36.66c.31-.03.39-.14.22-.4-.25-.4-.5-.8-.76-1.17-.16-.23-.16-.42 0-.65.26-.36.5-.75.74-1.12.08-.13.1-.25-.05-.34-.23-.13-.78 0-.93.24-.16.26-.3.54-.49.78-.12.15-.3.27-.47.36-.14.06-.25-.02-.24-.2v-.66c0-.34-.2-.55-.5-.54-.28 0-.46.2-.46.54v2.64c0 .32.18.5.46.51.28 0 .48-.2.5-.5v-.6c.01-.11.03-.3.08-.3a.48.48 0 0 1 .37.05c.1.06.2.17.27.28.14.2.28.4.38.62.19.38.48.5.88.46Zm11.61-25.56c.47-.03.81-.29 1.12-.59a5.06 5.06 0 0 0 1.4-2.66c.2-.83.04-1.57-.65-2.13l-.3.23c-.08.08-.2.16-.24.26-.07.21-.12.44-.16.66-.07.45-.1.91-.2 1.35-.16.6-.54 1.11-.91 1.6-.2.27-.37.55-.33.9.01.12-.01.24-.02.36 0 .07 0 .03.29.02Zm-15.6 14.67.38.2c.3.16.41.14.62-.14.1-.13.2-.13.28 0 .08.14.14.29.22.42.1.18.24.33.51.39l-.03-.37c-.02-.28.07-.36.35-.32.11.01.24.01.34-.02.22-.08.43-.17.64-.27l-.31-.47c-.07-.1-.08-.16.02-.24l.63-.61-1.21-.2.04-.74c0-.03-.05-.09-.06-.09a.27.27 0 0 0-.13.07c-.09.07-.16.18-.27.23-.2.1-.43.19-.7.3 0 0 0-.04-.03-.05-.18-.17-.36-.34-.55-.47-.07-.04-.2.01-.29.02.03.1.03.2.09.26.07.1.2.13.3.22.05.04.1.15.08.2a.3.3 0 0 1-.2.14c-.08.01-.18-.03-.28-.05-.21-.05-.42-.12-.64-.15-.09-.01-.19.06-.28.09l.17.24c.1.16.25.3.3.48.03.08-.13.22-.2.34v.02c.29.13.36.32.2.57Zm1.33-1.86Zm2.13 1.69-.15.07.05.08.1-.15Zm17.62 7.3c-.32-.19-.87 0-1 .33l-.4.95c-.03.09-.11.16-.17.24-.06-.07-.13-.14-.17-.22-.16-.31-.32-.62-.46-.94-.14-.3-.35-.45-.7-.45-.13.05-.33.07-.4.16-.04.08.06.27.13.4l1.04 1.85c.16.3.05.52-.28.6-.07.02-.15.02-.22.03-.24.04-.35.2-.37.47-.02.26.16.29.34.31.53.08.98-.06 1.28-.53.18-.3.33-.61.48-.93l.94-1.96c.06-.12.1-.23-.05-.32Z" fill="#8BA6C3"/><path d="M10.54 19.98c-.33.84-.61 1.69-.71 2.59-.02.14.06.3.1.46.12-.13.29-.24.34-.38.16-.51.34-1.03.42-1.56.16-.98.31-1.96.6-2.91.07-.2.08-.45.36-.5.03-.01.07-.08.09-.12l.53-2c-.04 0-.07 0-.1-.02l-.1.3c-.13.39-.25.78-.4 1.16-.02.06-.12.1-.2.14-.03-.08-.1-.17-.1-.24.04-.25.11-.5.17-.74l.2-.77-.07-.02a.35.35 0 0 0-.08.1c-.18.57-.37 1.14-.53 1.71-.02.1.06.24.1.36.03.08.1.17.08.24-.22.74-.42 1.49-.7 2.2Zm-5.15-11.44c.17.16.38.11.47-.1.07-.15.1-.31.15-.47.09-.34.26-.62.56-.8.32-.2.64-.37.96-.56.17-.1.3-.21.3-.42 0-.2-.08-.32-.25-.4-.18-.06-.33-.04-.45.11-.07.1-.13.23-.19.34-.15.32-.2.33-.43.08-.2-.2-.34-.22-.47.02-.12.22-.15.49-.23.73-.05.14-.1.3-.2.42-.07.09-.22.13-.34.17-.23.09-.29.25-.2.45.08.16.19.3.32.43Zm1.61 3.26c.14.13.29.08.35-.12s.09-.41.12-.62a.62.62 0 0 0-.3-.67c-.22-.13-.48-.2-.72-.3-.17.09-.41 0-.41.26 0 .2.03.45.14.6.24.3.53.58.81.85Zm17.58 39.6c-.06-.05-.19-.03-.22-.03l-.26.01c-.2.03-.32.13-.33.33 0 .22.14.33.34.34.16 0 .33.02.46-.04.1-.04.22-.2.22-.3 0-.1-.11-.23-.2-.3Zm1.35-11.06c-.52-.12-1.45.31-1.7.8-.12.23-.03.41.23.46.08.02.17.02.25.02a1.89 1.89 0 0 0 1.4-.72c.2-.25.11-.5-.18-.56Z" fill="#8BA6C3"/></svg>