<svg viewBox="0 0 59 30" fill="none" xmlns="http://www.w3.org/2000/svg"><path d="M0 11.48c0-1.95.35-3.83 1.13-5.62a12.36 12.36 0 0 1 2-3.25c.48-.54.97-1.07 1.49-1.58.28-.3.61-.54.94-.79.59-.43 1.28-.27 1.68.34.62.95 1.5 1.57 2.51 2.05 1.02.49 2.1.78 3.2 1 .64.12 1.3.18 1.94.24.73.06 1.46.08 2.2.11.59.03 1.18.06 1.77.06l24.84.01a22.1 22.1 0 0 1 5.38.85 14.43 14.43 0 0 1 5.95 3.4c.46.46.9.95 1.27 1.48.44.61.84 1.26 1.2 1.92a14.5 14.5 0 0 1 1.46 6.47c-.02.53.02 1.07-.01 1.6-.03.45-.12.9-.2 1.34-.07.38-.15.76-.25 1.14-.1.4-.2.8-.35 1.19-.38 1-.85 1.96-1.46 2.86a15.25 15.25 0 0 1-2.4 2.77c-.28.25-.56.48-.87.7-.56.39-1.22.28-1.6-.3a6.2 6.2 0 0 0-3.5-2.47c-.8-.24-1.61-.47-2.43-.66-.45-.1-.92-.13-1.38-.19-2.09-.25-4.18-.16-6.28-.16-7.54-.01-15.1 0-22.64-.02a26.97 26.97 0 0 1-5.37-.8c-.72-.18-1.4-.5-2.1-.76-.88-.31-1.67-.8-2.43-1.31a12.45 12.45 0 0 1-4.82-6.37 38.5 38.5 0 0 1-.67-2.65c-.09-.42-.09-.85-.12-1.28l-.08-1.32Zm11.5.85v5.93c0 .47.28.72.74.76.53.03.8-.36.8-.75v-6.64c0-.44-.3-.73-.74-.73-1.37 0-2.74.02-4.12 0-.58-.02-.82.37-.82.82-.02 2.15-.01 4.3 0 6.46 0 .2.07.4.17.57.21.33.58.3.9.24.25-.04.43-.24.46-.53.01-.14.05-.28.05-.42v-5.71h2.56Zm38.1 4.86.15.5c.14.34.25.7.43 1.03.2.34.58.4.94.23a.72.72 0 0 0 .39-.85l-.62-1.97-1.48-4.54c-.27-.81-1.35-.94-1.89-.43-.3.28-.37.68-.48 1.03-.38 1.13-.7 2.27-1.06 3.4-.24.76-.52 1.52-.74 2.28-.06.22-.05.5.03.7.12.33.4.47.76.44.33-.02.52-.23.63-.49.15-.37.23-.77.37-1.15.02-.07.12-.17.2-.17h2.37Zm-7.96-.96c.04.04.08.06.1.1l1.3 2.17c.2.33.44.58.85.56.36-.02.6-.24.7-.56.13-.35-.07-.65-.24-.93l-1.66-2.63c-.04-.05-.05-.17-.02-.22.48-.78.99-1.55 1.46-2.33.15-.27.29-.58.3-.88.03-.32-.3-.6-.66-.67a.74.74 0 0 0-.78.37c-.28.44-.53.89-.8 1.33l-.54.9c-.43-.73-.85-1.4-1.25-2.09-.27-.46-.57-.6-1.09-.45-.32.09-.57.58-.42.87.17.36.34.72.55 1.06.38.63.8 1.25 1.18 1.88a.3.3 0 0 1 0 .26c-.26.44-.55.86-.82 1.3-.35.54-.72 1.07-1.01 1.65-.2.38-.1.92.42 1.09.4.13.77-.04 1-.43l1.43-2.35Zm-25.76-3.91h2.5c.16 0 .31-.03.47-.06a.72.72 0 0 0 .49-.7c-.06-.38-.32-.66-.65-.66-1.17 0-2.33.03-3.5 0-.53-.03-.85.27-.85.82v6.43c.02.58.2.83.8.85 1.2.03 2.39.01 3.58 0 .43 0 .77-.34.73-.71-.05-.4-.25-.7-.76-.7h-2.8v-1.93h2.13c.4 0 .74-.27.7-.78-.03-.38-.29-.63-.7-.63h-1.88c-.16 0-.27-.02-.27-.22v-1.71Zm11.99 4.14h.95a3 3 0 0 0 1.63-.39 2.68 2.68 0 0 0 1.3-3.23 2.75 2.75 0 0 0-2.73-1.94h-1.93c-.5 0-.76.26-.76.74v6.57c0 .5.3.8.77.8.5 0 .77-.27.77-.8v-1.75Zm7.43-1.74-.22-.47c-.47-.98-.93-1.96-1.42-2.94-.1-.21-.28-.39-.56-.41-.7-.07-1.03.56-.78 1.12.24.54.5 1.08.76 1.61.42.87.86 1.72 1.27 2.58.06.13.1.32.04.44-.35.73-.25.88-1.15.83h-.05a.8.8 0 0 0-.77.65c-.05.3.18.73.52.79.4.07.82.12 1.22.06.77-.12 1.18-.7 1.48-1.35l1.92-4.25c.22-.49.45-.97.64-1.47a.74.74 0 0 0-.39-.95.72.72 0 0 0-.97.32c-.34.7-.64 1.43-.96 2.14l-.58 1.3Zm-11.7-2.4h1.11c.18 0 .36-.01.53-.07.32-.1.52-.32.47-.78-.04-.3-.3-.57-.6-.57h-4.62a.5.5 0 0 0-.52.38c-.18.57.04 1 .75 1.04h1.3v5.83c0 .14.02.3.07.43.1.33.4.45.7.47.27.01.57-.09.7-.38.07-.2.1-.41.11-.62v-5.73Zm27.87.17c.54.06.83-.41.83-.83.01-.47-.45-.9-.84-.86-.43.04-.85.22-.81.9.03.5.3.79.82.79Z" fill="#8BA6C3"/><path d="m48.36 12.8.83 2.9h-1.7l.82-2.9h.05Zm-20.47-.48c.43 0 .85-.03 1.26 0 .51.05.98.34 1.08 1 .08.5.07 1-.37 1.4-.23.2-.48.3-.76.31-.4.03-.8.01-1.21.01v-2.72Zm24.13-.64c-.02.47-.18.6-.72.58-.23 0-.48-.35-.47-.61a.65.65 0 0 1 .7-.64c.35.02.5.24.5.67Zm-.92-.44c.08.3-.13.63.2.92l.07-.4.42.36.07-.06c-.08-.17-.17-.34-.08-.55.02-.04-.13-.22-.23-.26-.12-.04-.27 0-.45 0Z" fill="#8BA6C3"/></svg>