<svg viewBox="0 0 42 37" fill="none" xmlns="http://www.w3.org/2000/svg"><g clip-path="url(#a)" fill="#8BA6C3"><path d="M42 31.23v-21.95l-7.28-3.79v25.74h7.28Zm-7.87 0v-25.74l-5.01 2.8v2.1l3.25-1.66.04 22.5h1.72Zm-5.01 0v-27.44l-7.29-3.79v31.23h7.29Z"/><path d="M1.83 35.5v-22.15l17.66-10.12.04 28h1.72v-31.23l-21.25 12.38v24.62h42v-1.55l-40.17.06Zm40.08-3.43-.11-.02.11.02Zm-.11-.02Zm.16.75Z"/><path d="M22.38 32.14h-.65v.96l-.07.03-1.12-1.05c-.17.16-.31.3-.5.46l.91.82c-.15.13-.3.25-.42.37-.06.06-.16.13-.16.2-.02.25-.05.51.02.8l1-.9c.46.18.3.57.36.86h.66c.01-.33-.11-.7.33-.86l1.05.93v-.67a.4.4 0 0 0-.17-.35l-.42-.38.62-.6.6-.59c-.22-.05-.4-.04-.58-.05a.59.59 0 0 0-.49.19c-.24.24-.5.47-.75.7-.05.05-.11.08-.22.14v-1Zm3.15.83-.21.14v-1.08c-.19.16-.31.29-.45.4a.48.48 0 0 0-.2.43v1.56c0 .06 0 .13.02.24l1.68-1.54.07.04v1.47h.63v-2.55c-.34-.08-.6-.02-.83.23-.22.24-.47.44-.71.66Zm16.27-.92a.74.74 0 0 0-.7.27c-.22.25-.48.46-.73.69-.04.04-.1.05-.17.09-.03-.36 0-.69-.04-1.06-.18.16-.3.3-.44.4a.47.47 0 0 0-.19.42v1.55l.03.25 1.74-1.58c.02.56-.01 1.06.02 1.55h.6c.03-.13.04-.49.05-.9v-.74l-.01-.2v-.1a7.27 7.27 0 0 0-.05-.62 1.07 1.07 0 0 0-.12-.02Zm-36.44 1.55c.06.59.51 1.04 1.1 1.1a1.2 1.2 0 0 0 1.28-.87c.09-.32.08-.65-.01-.97a1.18 1.18 0 0 0-1.17-.85c-.54 0-1 .35-1.15.87-.04.15-.05.31-.08.47h.03v.26Zm.75-.69c.1-.19.28-.27.49-.26.21 0 .38.1.45.3.05.14.07.29.1.45-.04.14-.06.3-.13.44a.52.52 0 0 1-.89.01.94.94 0 0 1-.02-.94Zm31.73 1.79c.57.04 1.07-.3 1.23-.84.05-.16.06-.33.1-.54-.04-.17-.07-.39-.15-.58-.17-.45-.6-.74-1.08-.73-.52.01-.9.24-1.12.7-.15.32-.15.66-.1 1 .1.56.54.95 1.12.99Zm-.36-1.83c.18-.32.68-.32.87 0 .09.15.11.34.16.49-.04.16-.06.3-.11.42a.48.48 0 0 1-.46.3.47.47 0 0 1-.46-.24.95.95 0 0 1 0-.96Z"/><path d="m17.94 32.92.01 1.5.03.21h1.7v-.6h-1.02v-.39h1.03v-.6h-1.04v-.35c.12 0 .22-.03.3-.01.57.1 1-.11 1.33-.54l.03-.08c-.34 0-.66.03-.96-.01a1.3 1.3 0 0 0-1.23.48c-.1.12-.18.23-.17.4Zm-12.94 1.72v-2.58c-.3 0-.57.02-.84 0-.5-.07-.88.09-1.2.46-.1.12-.17.22-.17.38v1.53l.03.2h.64v-1.94c.32 0 .6-.04.9.03v1.93h.63Zm7.42-2.59c-.5-.06-.89.1-1.2.47-.1.12-.18.22-.18.38l.01 1.5.03.23h1.7v-.6h-1.05v-.34c.36-.1.73.04 1.05-.09v-.56h-1.06v-.36l.86-.01c.1 0 .23-.04.32-.1.18-.14.34-.3.5-.45l-.01-.07c-.33 0-.65.03-.97 0Zm-1.79 2.59v-2.55c-.51-.07-.63-.06-.8.09l-1.65 1.52c-.05.05-.12.12-.12.18v.75l.07.02 1.76-1.63.08.02v1.6h.66Zm19.31 0v-2.55c-.38-.07-.68-.06-.97.23-.45.47-.96.9-1.44 1.35-.06.06-.15.14-.15.22-.02.25-.01.5-.01.82l.66-.6c.2-.2.4-.39.62-.57.2-.18.35-.42.64-.55v1.65h.64Zm-14.2-2.12a.45.45 0 0 0-.17.39v1.49c0 .07.03.15.04.25h1c.74-.02 1.2-.72.9-1.37a.92.92 0 0 0-1.08-.54v.52c.4.12.56.3.49.52-.09.24-.3.3-.69.2v-1.9c-.2.17-.33.31-.49.44Zm19.56.94v.55c.6.04 1.05-.33 1.1-.88a.98.98 0 0 0-.9-1.07c-.23-.02-.43.02-.58.2-.1.1-.2.2-.32.28a.42.42 0 0 0-.16.36v1.53c0 .06.03.14.04.21h.63v-1.92c.43-.07.62 0 .68.25.06.22-.07.35-.48.5Zm-4.04-1.33a1.3 1.3 0 0 0-.92 1.54c.16.65.86 1.07 1.56.94v-.55l-.34-.04c-.35-.08-.6-.37-.59-.67.02-.32.3-.6.65-.66l.16-.01c.07-.02.14-.02.18-.06.2-.16.38-.33.57-.5-.44-.05-.86-.11-1.27.01Zm-17.86 1.47c.1.68.9 1.2 1.58 1v-.51c-.2-.05-.39-.07-.55-.15-.48-.23-.52-.82-.08-1.1.12-.09.28-.11.42-.15.1-.03.21-.02.28-.07.2-.16.37-.34.6-.55-.41 0-.75-.03-1.08.01-.68.1-1.3.64-1.17 1.52Z"/><path d="M33.75 34.62v-1.85l.76-.65c-.48-.06-.92-.06-1.37-.06a.24.24 0 0 0-.15.05c-.19.16-.37.34-.6.55l.69.04v1.93c.24.04.45.04.67-.01Zm6.65-2.55v.64l.68-.64h-.69Z"/></g><defs><clipPath id="a"><path fill="#fff" d="M0 0h42v37h-42z"/></clipPath></defs></svg>