<svg viewBox="0 0 95 35" fill="none" xmlns="http://www.w3.org/2000/svg"><g clip-path="url(#a)" fill="#8BA6C3"><path d="M43.64 28.06c.18.67-.04 1.21-.45 1.73-.77.97-1.52 1.96-2.28 2.95l-.32.45c.18-.06.3-.07.39-.13.69-.48 1.42-.93 2.05-1.5a27.5 27.5 0 0 1 4.9-3.74c.38-.21.73-.2 1.08.06.32.25.3.46-.07.64-1.1.52-2.17 1.08-3.03 1.96-.78.8-1.48 1.7-2.2 2.57-.14.16-.21.37-.36.64.23-.02.39 0 .52-.05 1-.33 1.95-.77 2.72-1.54.29-.3.65-.52 1.01-.72.1-.06.32.07.48.11-.04.15-.04.34-.13.44-.45.53-.93 1.03-1.48 1.65.2-.05.3-.05.38-.1l2.3-1.46c.28-.18.55-.4.86-.53.2-.08.46 0 .7 0l-.09.65c.32-.17.67-.4 1.05-.55.18-.07.4-.03.6-.03-.03.17-.02.37-.1.5-.35.53-.73 1.04-1.1 1.56-.15.21-.3.42-.43.65-.2.38-.9.68-1.5.6.18-.88 1.03-1.29 1.42-2.04-1.3.4-2.04 1.74-3.34 2.08l-.14-.13.24-.86c-.49.27-.94.51-1.39.78-.24.14-.45.25-.72.05-.26-.2-.18-.43-.12-.67l.08-.36c-.7.37-1.34.73-2 1.04-.24.11-.64.2-.76.09-.16-.16-.18-.53-.16-.8.01-.31.13-.62.23-1.01l-.48.26-2.64 1.44c-.32.18-.6.15-.79-.2-.16-.3-.17-.58.14-.87a47.5 47.5 0 0 0 2.15-2.11c.28-.31.47-.72.64-1.16l-.36.2-3.9 2.6a11.16 11.16 0 0 1-6.35 1.75c-.2 0-.43-.07-.61-.16-.46-.23-.53-.77-.15-1.1.47-.4 1-.54 1.6-.32 1.5.56 2.95.51 4.37-.3 1.7-.97 3.31-2.06 4.67-3.5a4.94 4.94 0 0 1 2.37-1.48c.09-.02.18-.05.27-.05.07-.01.15 0 .24.02Zm-7.81-4.46v.58h-35.83v-.57h35.83Zm58.52 0v.58h-35.56v-.58h35.56Zm-65.99-3.05c.64-.07.66-.51.66-.97l.02-4.2c0-.87-.02-.87-.85-1.05.07-.05.11-.1.15-.09 1.44.02 2.88 0 4.3.1 1.45.1 2.46.94 2.78 2.16a3.17 3.17 0 0 1-2.43 3.96c-.6.14-1.22.17-1.83.18-.85 0-1.7-.04-2.55-.07l-.25-.02Zm5.96-2.9c0-2-1.9-3.47-3.86-2.98-.1.03-.25.2-.25.3 0 1.54 0 3.08.03 4.61 0 .19.22.46.4.53a2.6 2.6 0 0 0 3.68-2.47Zm32.24-.75c0-.72.02-1.38 0-2.05-.02-.5-.48-.43-.8-.57h2.63c-.8.08-.67.68-.67 1.2v3.79c0 .99.02.99.9 1.25h-2.71c.71-.06.65-.61.67-1.1v-2.03h-3.55v1.73l.03.66c0 .41.16.65.6.63.1 0 .19.03.27.13h-2.73c.84-.13.66-.79.67-1.32.02-1.23.01-2.46.01-3.69 0-.93 0-.93-.9-1.26h2.7c-.75.04-.64.6-.65 1.07 0 .5.04 1.01.06 1.52l1.42.05h2.05Zm6.84-2.81c.37.05.8.08 1.2.18 1.36.33 2.2 1.24 2.37 2.53a3.3 3.3 0 0 1-1.59 3.33 4.23 4.23 0 0 1-3.88.2 3.13 3.13 0 0 1-1.87-3.22 3.2 3.2 0 0 1 2.62-2.88c.36-.07.74-.09 1.14-.14Zm2.32 3.64a3.4 3.4 0 0 0-.7-2.33c-1.07-1.26-3.15-1.16-3.85.18a3.71 3.71 0 0 0 .44 3.79c.7.79 1.6 1.07 2.6.81.91-.23 1.3-.95 1.45-1.81.05-.25.05-.5.06-.64Zm-26.16-3.45c-.68.05-.63.57-.64 1.03l-.09 4.76c0 .19-.03.38-.05.58l-.13.08-5.04-4.72v2.18c0 .5.05 1 .06 1.5.01.45.17.75.68.72.05 0 .1.04.14.12h-2.32c.87-.05.74-.71.75-1.26l.08-4.62.04-.67 5.2 4.96v-1.64c0-.6-.02-1.18-.03-1.77 0-.64-.3-1.06-.85-1.25h2.2Zm-43.32-.03h1.4c.71.01 1.42 0 2.13.06.62.05 1.13.33 1.36.96.23.63.04 1.19-.38 1.68-.2.24-.41.46-.66.74.98.94 1.6 2.34 3.1 2.83-.76.01-1.56.25-2.19-.38-.47-.49-.93-1-1.3-1.57-.37-.54-.8-.74-1.42-.57 0 .66-.03 1.33.02 2 0 .14.26.28.43.38.1.06.24.05.35.16h-2.62c.77-.1.67-.68.67-1.2v-4.14c0-.69-.01-.69-.7-.82-.04 0-.07-.04-.2-.13Zm1.98.47.01 2.49c0 .09.05.22.12.26.36.23 1.2.09 1.47-.23.4-.46.46-1.4.12-1.97-.33-.54-.97-.75-1.71-.55Zm47.87 18.86c-.43.4-.82.79-1.24 1.13-.12.1-.35.05-.53.06.05-.16.05-.35.15-.47.8-.92 1.63-1.82 2.46-2.72.23-.26.5-.37.6.04.42-.1.82-.25 1.24-.3.3-.05.43.13.33.47-.18.6-.58.92-1.22 1.05l.18-.7c-.7.01-1.13.49-1.02 1.13.06.35.27.38.59.27 1.12-.37 2.24-.87 3.4-1.03 1.53-.21 3.1-.16 4.66-.2.4-.02.73.15.83.58.06.25-.36.6-.8.63-.26.02-.55 0-.77-.11a5 5 0 0 0-4.34-.24c-1.23.45-2.4 1.02-3.62 1.52-.24.1-.56.2-.75.1-.14-.07-.15-.45-.18-.7-.02-.16.01-.34.02-.5Zm-52.83-13.04h-2.72c.75-.06.65-.63.66-1.11.01-1.34.02-2.68.01-4.02 0-.88-.01-.88-.8-1.08l.02-.07c1.12 0 2.25-.01 3.37.04.68.04 1.23.38 1.4 1.1.18.71-.08 1.32-.61 1.8a1.9 1.9 0 0 1-1.8.42l.32-.07c.75-.18 1.17-.83 1.06-1.67-.1-.76-.7-1.3-1.45-1.29-.28 0-.4.1-.39.38.02 1.56.01 3.11.04 4.67.01.68.04.68.7.77.05 0 .1.01.13.03.02.01.03.05.06.1Zm35.32-3.2v2.21c0 .33.18.54.5.55.39.02.8.1 1.16-.02.3-.1.55-.4.84-.64-.03.27-.06.6-.13.94-.02.08-.18.2-.27.2-1.3 0-2.61 0-3.96-.05.78-.09.68-.67.69-1.15.02-1.32.04-2.64.01-3.97-.02-1.03.03-.88-.82-1.14h4.24l-.1 1.12c-.22-.83-.88-.67-1.44-.7h-.7v2.3l2.1-.1-.11 1.15c-.4-1.09-1.3-.45-2.01-.7Zm45.92 3.1c.71.04.72-.45.72-.9.02-1.5 0-2.99.01-4.48 0-.44-.17-.68-.63-.67-.06 0-.13-.03-.18-.13h4.24l-.13 1.15c-.43-1.17-1.4-.52-2.13-.77v2.35a944 944 0 0 0 2.1-.1l-.1 1.17c-.4-1.12-1.31-.47-2.02-.71v2.23c.01.32.21.51.54.53.37 0 .77.08 1.1-.03.32-.1.58-.4.86-.62-.03.25-.05.6-.13.92-.02.09-.2.2-.31.2h-3.88l-.07-.14Zm-66.87-1.04c-.04.32-.07.66-.14 1-.01.07-.15.17-.23.17-1.29.01-2.57 0-3.89-.05.59-.11.6-.55.6-.96v-4.53c.02-.6-.4-.63-.81-.76h4.23l-.1 1.12c-.17-.74-.73-.68-1.25-.7h-.93l.01 2.03c0 .09.13.24.2.24.62 0 1.24-.04 1.93-.07l-.1 1.17c-.4-1.1-1.31-.47-2-.71 0 .83-.03 1.58.02 2.33 0 .15.26.38.42.4.42.06.88.1 1.28-.01.29-.08.5-.42.77-.67Zm35.27-4.72c-.64.04-1.23.02-1.8.12-.26.05-.47.32-.76.52l.22-1.12h5.85v1.32c-.54-1.2-1.52-.63-2.3-.86-.03.18-.05.3-.05.41v4.2c.01.96.02.96.89 1.25h-2.72c.74-.02.66-.58.66-1.05v-4.79Zm29.14 5.87-.35.02c-.78 0-1.56 0-2.38-.05.77-.08.69-.66.69-1.14v-4.7c-.85.2-1.83-.34-2.55.62l.22-1.1h5.85v1.32c-.54-1.2-1.53-.62-2.33-.86l-.03.45v4.16c0 .96.02.96.88 1.28Zm-59.42-4.97c-.52-.9-.89-1.16-1.62-1.06-.37.05-.7.19-.84.57-.14.4 0 .71.29.97.27.25.58.45.87.69.34.29.72.55 1 .89.93 1.06.5 2.57-.86 2.9-.64.15-1.34.04-2.02 0-.33 0-.46-.24-.42-.58.05-.35.05-.7.19-1.05l.08.27a1.37 1.37 0 0 0 2 .96c.6-.3.76-.95.35-1.5-.21-.28-.5-.5-.78-.73-.36-.31-.77-.58-1.1-.93-1.01-1.1-.6-2.48.88-2.77.55-.1 1.16 0 1.74.03.08 0 .23.1.23.17.02.4.01.78.01 1.17Zm67.54 4.85c.85.06.76-.49.77-.96l.02-4.01c0-.87-.02-.87-.83-1.2h2.74c-.97.04-.76.76-.76 1.33l.01 3.73c.01.61.17.75.79.79h.32c1.05.03 1.06.02 1.62-.78-.05.34-.07.69-.16 1.01-.03.11-.24.23-.38.23-1.34.02-2.68.01-4.02.01l-.12-.15Zm-62.16-17.09.59 1.92-.08.05-1.5-1.2-1.63 1.3c.17-.56.28-1.02.45-1.45.2-.46.13-.76-.31-1.03-.36-.22-.68-.51-1.1-.84h1.96l.63-2.1c.2.66.37 1.2.5 1.74.07.29.2.37.48.35.5-.02.99 0 1.62 0l-1.6 1.26Zm19.4.77-1.63 1.3c.2-.65.35-1.2.54-1.73.1-.27.03-.42-.19-.58-.41-.3-.81-.62-1.31-1h1.96l.58-1.94h.1c.14.48.3.96.41 1.44.08.36.23.53.62.49.46-.05.93-.01 1.52-.01l-.96.75c-.44.34-.57.77-.4 1.3l.38 1.27-1.62-1.29Zm10.2.01-1.63 1.28c.18-.59.3-1.07.48-1.53.16-.4.12-.64-.27-.88-.38-.23-.72-.55-1.19-.91.65 0 1.15-.02 1.65 0 .26.01.38-.07.45-.33.13-.53.3-1.06.56-1.59.14.5.3.99.42 1.49.08.32.21.46.57.43.47-.03.95 0 1.58 0-.48.36-.84.68-1.24.94-.34.22-.4.44-.25.8.18.48.3.98.5 1.58l-1.63-1.28Zm7.58-2.04h1.68c.24.01.36-.06.42-.3.13-.54.3-1.08.56-1.63.15.49.32.97.42 1.47.08.4.26.5.64.47.46-.04.92-.01 1.52-.01-.5.38-.88.7-1.28.98-.27.18-.36.36-.23.7.19.5.32 1.02.52 1.65l-1.63-1.3-1.63 1.3c.2-.66.35-1.2.54-1.72.1-.27.04-.42-.18-.58-.42-.3-.83-.63-1.35-1.03Zm-26.47 3.23-1.5-1.2-1.63 1.3c.19-.62.31-1.13.5-1.62.14-.36.05-.56-.25-.77-.4-.26-.76-.56-1.23-.93h1.98c.2-.67.4-1.31.62-2.09.17.57.35 1 .42 1.45.08.55.36.7.88.64.39-.05.79-.01 1.31-.01-.48.38-.85.7-1.25.96-.34.22-.36.43-.23.77.18.47.3.97.46 1.45l-.08.05Zm-14.45 8.96h2.48c-.77.1-.66.68-.66 1.19v3.82c.02.98.03.98.91 1.24h-2.72c.8-.08.67-.7.67-1.21v-3.87c0-.5.16-1.13-.68-1.17Zm30.09 18.43.3-.59-.12-.16-1 .36.57.83c.24.33.25.69-.04.92-.41.34-.86.67-1.35.84-.42.15-.91.09-1.37.09-.11 0-.26-.12-.31-.22-.03-.06.08-.21.15-.3.07-.1.18-.17.27-.25.27-.26.51-.3.86-.07.18.11.5 0 .76-.01-.04-.2-.04-.4-.11-.59-.09-.23-.38-.5-.32-.66.14-.36.37-.73.67-.97a2.74 2.74 0 0 1 1.85-.61c.36 0 .49.2.4.55-.14.64-.67 1-1.2.85h-.01Z"/><path d="M49.33 29.79c.05.07.2.2.2.35.03.43-.34.86-.7.78-.2-.05-.42-.3-.47-.5-.07-.29.44-.64.97-.63Z"/></g><defs><clipPath id="a"><path fill="#fff" d="M0 0h94.84v35h-94.84z"/></clipPath></defs></svg>