<svg viewBox="0 0 82 26" fill="none" xmlns="http://www.w3.org/2000/svg"><g clip-path="url(#a)" fill="#8BA6C3"><path d="M48.86 18.65c.18.01.23-.04.23-.21v-10.47c0-.15-.04-.2-.2-.2-.94.01-1.89.02-2.84 0-.18 0-.2.06-.2.21v7c-.1-.04-.14-.1-.19-.15l-3.6-4.18c-.3-.34-.55-.71-.88-1-.34-.3-.65-.6-1.04-.86a6.17 6.17 0 0 0-2.62-.94c-.4-.04-.8-.06-1.21-.07-.13 0-.24.03-.23.2l.02.87v9.06a.26.26 0 0 0-.05.1l-.01.05c0 .05.02.1.06.15v.21c-.04.18.03.23.22.23h2.75c.31 0 .31 0 .3-.3v-6.54c0-.13-.03-.26 0-.4l.07.05 1.6 1.81c.3.35.6.72.92 1.05.48.52.9 1.08 1.38 1.6.32.33.6.69.92 1.03.1.12.2.25.33.36.18.15.38.3.58.43l.74.43c.2.11.43.16.64.23.34.1.68.21 1.02.24.43.03.86 0 1.29.01Zm-37.4-10.63a12.4 12.4 0 0 0-1.93-.36c-.63-.06-1.26-.13-1.9-.12-.5 0-1.02.02-1.53.09-.61.07-1.21.17-1.8.34-.66.2-1.29.47-1.81.91a2.58 2.58 0 0 0-.86 2.58c.25.84.91 1.35 1.7 1.74.43.2.87.4 1.35.5.47.1.94.23 1.42.32l1.7.32c.62.12 1.23.23 1.83.4.2.06.4.12.59.22.54.32.54.9-.02 1.2-.46.25-.99.34-1.5.37a12.08 12.08 0 0 1-3.8-.38 4.93 4.93 0 0 1-2.14-1.34c-.1-.11-.22-.16-.32-.08-.28.22-.63.31-.92.52-.32.23-.7.38-1.03.59-.14.09-.28.17-.41.27-.03.03-.11.04-.07.1.17.2.35.42.55.6.48.39 1 .76 1.58 1.02.4.19.79.38 1.22.49.44.11.88.25 1.33.32.66.11 1.33.2 2 .21.67.01 1.35.04 2.03 0 .7-.06 1.4-.16 2.09-.35a5.98 5.98 0 0 0 1.67-.68 2.98 2.98 0 0 0 1.45-2.07c.15-.94-.18-1.7-.97-2.29a6.66 6.66 0 0 0-2.25-.98 17.7 17.7 0 0 0-1.75-.38c-.49-.08-.96-.2-1.45-.29a11.9 11.9 0 0 1-1.9-.42 1.6 1.6 0 0 1-.6-.32c-.28-.25-.28-.53 0-.77.13-.1.26-.17.41-.23.57-.2 1.17-.25 1.77-.29.4-.02.79-.02 1.05.02.56.02.96.11 1.37.2.65.14 1.24.38 1.74.81.25.21.25.2.52.04l2.03-1.19c.1-.05.17-.1.06-.2a5.46 5.46 0 0 0-2.5-1.44Zm69.82 10.32-2.1-3.87-.9-1.72-2.55-4.76c-.09-.16-.18-.23-.37-.23-.63.01-1.25 0-1.87.06-.4.03-.75.17-1.09.35-.6.32-.96.87-1.27 1.42l-.8 1.55c-.45.89-.95 1.76-1.42 2.64-.84 1.58-1.64 3.18-2.58 4.72-.09.14 0 .15.11.15h3.19c.08 0 .14-.01.18-.1.26-.67.6-1.3.93-1.93l.8-1.59c.23-.42.4-.87.63-1.3l.72-1.39c.3-.57.53-1.18.86-1.73.03-.05.04-.13.11-.12.06 0 .07.08.1.13l.41.85c.65 1.34 1.35 2.66 1.96 4.02.02.05.08.1.01.15-.05.04-.1.04-.16 0-.48-.33-1.03-.56-1.51-.89-.46-.31-.99-.52-1.45-.83-.12-.07-.25-.16-.45-.2.3.37.6.69.86 1.02.39.51.83.98 1.2 1.5.23.3.5.58.73.89.33.44.78.72 1.25.99.26.15.56.24.85.33.39.12.79.22 1.17.22.75-.02 1.5 0 2.25-.02.36 0 .36 0 .2-.3Zm-50.76-2.38c-.32-.6-.66-1.18-.99-1.77l-.88-1.67-.96-1.8c-.14-.27-.26-.56-.43-.8-.19-.26-.3-.55-.45-.83-.2-.37-.37-.75-.58-1.1-.05-.08-.03-.21-.17-.22h-.01l-.32-.01-.63.01-.32.01a4 4 0 0 0-1.28.22 3.49 3.49 0 0 0-1.86 1.64l-.5.96-1.2 2.19-.88 1.69-1.17 2.17-1 1.8c-.03.06-.11.1-.09.16.04.08.13.04.2.04.83 0 1.66.02 2.5 0 .36-.02.73-.03 1.09-.16a4.09 4.09 0 0 0 1.68-.96c.24-.26.42-.56.66-.82.47-.51.85-1.09 1.33-1.6.26-.27.49-.58.74-.86.12-.14.2-.31.31-.47-.2.06-.35.19-.52.27-.58.29-1.12.65-1.7.93-.4.18-.73.44-1.1.67-.06.04-.13.1-.23.05l.1-.18 1.05-2.13 1.35-2.72c.03-.06.05-.17.13-.17s.1.11.13.18c.31.68.69 1.34 1.01 2.02.45.94.94 1.85 1.4 2.78.49 1 1.02 1.97 1.46 2.99.07.15.14.2.3.2h3.07c.16 0 .2-.04.12-.18l-1.36-2.53Zm30.36 2.48-.01-8.1c0-.17.04-.22.23-.22h4.92c.15 0 .3.05.45-.03-.03-.11-.12-.16-.21-.21-.34-.17-.67-.35-.99-.54-.53-.33-1.08-.63-1.62-.96a4.24 4.24 0 0 0-2.21-.6h-8.05l-.17.01v.01a41.07 41.07 0 0 1 0 2.12c-.01.16.03.21.2.2h3.83c.08-.14.12-.01.17.01.1.05.05.14.05.2v8.1c0 .19.05.23.23.23h2.94c.18 0 .24-.04.24-.22Zm-3.96-13.54c.42.16.86.28 1.28.45.2.08.38.24.66.22l-.7-.38-3.62-2.08c-1.08-.62-2.15-1.26-3.24-1.88-.67-.39-1.35-.75-2-1.18a.3.3 0 0 0-.34 0c-.4.25-.82.48-1.23.73-.62.37-1.27.7-1.88 1.09-.32.2-.64.37-.96.55-1.2.7-2.41 1.4-3.62 2.08-.53.3-1.04.64-1.6.9-.04.01-.1.04-.1.11.1.03.2-.01.27-.05.8-.38 1.66-.62 2.5-.92.56-.2 1.14-.36 1.72-.53.72-.21 1.44-.38 2.16-.54.34-.07.68-.11 1.02-.17.26-.04.53-.04.8-.07.34-.05.69-.1 1.04-.1.4-.01.8.07 1.2.1.35.02.7.06 1.04.12.47.08.94.17 1.4.28a39.97 39.97 0 0 1 4.2 1.27Zm17.93 17.57c-.07-.07-.49-.01-.54.07a31.9 31.9 0 0 1-1.21 1.66c-.07.08-.17.13-.2.23-.11.3-.32.52-.48.79-.02.03-.04.05-.08.04-.06 0-.04-.05-.04-.08l.02-.28c.01-.76 0-1.52.02-2.28 0-.2-.13-.17-.26-.18-.14-.01-.18.05-.18.18v3.11c0 .09 0 .19.08.24.11.08.4-.01.49-.13l1.52-2.19.47-.62c.03.21-.02.38-.02.55l-.01 2.18c0 .16.07.19.21.19.15 0 .23-.02.23-.2-.01-.72 0-1.44-.02-2.16l.01-.98c0-.05.02-.1-.02-.14Zm6 .82-.01-.87a.4.4 0 0 1-.28.02c-.15-.05-.2.03-.27.13l-.34.5c-.23.35-.52.67-.77 1.01-.26.36-.5.72-.73 1.09-.03.03-.05.08-.1.06-.07-.02-.04-.08-.04-.12l.03-.72c.02-.6 0-1.2 0-1.79 0-.22-.16-.14-.27-.15-.15-.03-.16.05-.16.16v3c0 .36 0 .36.38.34.1 0 .14-.03.19-.11a663.18 663.18 0 0 1 1.86-2.66c.03-.05.05-.12.14-.11 0 .35-.06.69-.05 1.03.02.54 0 1.08.01 1.62 0 .07-.04.2.05.21.11.02.25.08.36-.04h.01v-1.3l-.01-1.3Zm-37.6-.86c-.55.05-.93.34-1.18.8-.16.28-.2.6-.17.92-.04.27 0 .53.1.78.32.91 1.14 1.16 2.04.99.3-.06.57-.2.76-.42.59-.7.6-1.48.27-2.26-.37-.84-1.08-.9-1.82-.81Zm1.35 2.65c-.19.34-.5.5-.9.52-.22.01-.45.03-.67-.07a1.01 1.01 0 0 1-.63-.82c-.02-.13-.06-.26-.06-.39-.02-.44.04-.88.38-1.23.37-.36.83-.38 1.3-.25.44.12.63.45.72.86.04.16.04.33.04.54.02.26-.03.56-.18.84Zm13.05-2.42c0-.18-.06-.22-.25-.22-.78 0-1.56 0-2.35-.02-.16 0-.2.05-.2.2l.01 1.56v1.56c0 .2 0 .2.32.2.2.02.15-.1.15-.2v-2.76c0-.13.03-.16.17-.16h1.5c.16 0 .2.03.2.18l-.01 2.77c0 .2.13.16.26.17.14.01.2-.02.2-.17v-3.1Zm-38.63-.22h-2.56c-.03.04-.03.08-.03.12v3.18c0 .29.19.18.33.2.2.04.14-.11.14-.2v-2.76c0-.12.03-.16.16-.16h1.55c.12 0 .16.03.16.15v2.83c0 .2.16.13.26.14.12.02.18-.02.18-.15v-3.18c0-.12-.03-.17-.18-.17Zm49.84.2c0-.13 0-.21-.17-.2-.13.02-.3-.05-.29.19.02.42 0 .84 0 1.25v.02c-.38.03-.75.02-1.12.02a5.53 5.53 0 0 0-.67.03c-.14.02-.13-.07-.13-.15l.01-1.18c0-.14-.05-.19-.18-.17-.11.02-.28-.08-.28.15v1.48c-.01 0-.04 0-.04.02v.01c0 .02.02.02.04.02v1.65c0 .15.06.18.2.17.12-.02.27.02.26-.18v-1.3c0-.13.03-.18.18-.18h1.54c.16 0 .2.06.2.2v1.26c-.01.14.01.22.18.2.15-.01.28 0 .28-.21-.02-1.03-.01-2.07 0-3.1Zm-43.98-.2h-2.41c-.16 0-.2.04-.2.18v3.1c0 .23.05.27.3.22.04 0 .07-.04.11-.06l.01-.04.01-.05v-2.8c0-.07-.03-.17.11-.17.6.02 1.19-.03 1.78.02l.01.08c-.03.95-.02 1.9 0 2.86 0 .12.02.19.17.17.12-.01.27.03.27-.17v-3.18c0-.11-.02-.16-.17-.16Zm14.4 3.26a25.6 25.6 0 0 0-1.35-1.41c-.12-.12-.11-.2 0-.3.45-.46.92-.89 1.34-1.37.05-.05.11-.09.1-.16-.31-.08-.53.03-.72.26-.16.21-.36.4-.55.6l-.77.75c-.04-.08-.02-.15-.03-.22v-1.22c.02-.24-.14-.17-.27-.18-.15-.02-.2.02-.2.17v3.12c0 .18.06.22.22.21.15 0 .27 0 .26-.2-.02-.5 0-1 0-1.55l1.48 1.57c.16.19.36.17.56.17.1 0 .08-.05.04-.1l-.1-.13Zm24.07-.07-.72-1.75-.51-1.28c-.04-.09-.08-.17-.2-.15-.1.02-.23-.07-.3.08-.14.27-.19.58-.42.8-.1.53-.36 1-.55 1.5-.12.31-.3.6-.39.93-.02.07-.07.14.02.18.14.06.38-.05.43-.18.1-.26.22-.51.3-.77.06-.15.14-.18.28-.17.37.03.74.01 1.1 0 .13 0 .2.04.25.15l.32.78c.05.12.11.22.26.2.23 0 .25-.02.17-.21 0-.04-.03-.07-.04-.1Zm-1.04-1.18h-.92c-.14 0-.15-.07-.1-.16.15-.31.27-.64.4-.96.06-.12.05-.27.17-.4l.53 1.43c.04.1-.01.09-.08.09Zm-31.52 1.3-.1-.26a205.03 205.03 0 0 1-1.18-2.9c-.05-.12-.13-.15-.26-.15-.14 0-.21.04-.26.16l-.54 1.26-.82 1.94c-.02.04-.04.1.01.13.1.07.4-.03.45-.14l.33-.84c.04-.1.1-.14.2-.14l1.2.03c.11 0 .16.04.2.12.1.26.23.5.32.77.05.16.15.22.31.21.1 0 .15 0 .17-.03v-.06a.57.57 0 0 0-.03-.1Zm-1.1-1.31-.95.01h-.03c-.07-.02-.08-.06-.05-.11.17-.3.26-.64.4-.96.05-.1.1-.2.1-.32 0-.04.03-.07.07-.08.05 0 .06.04.07.07l.48 1.27c.03.1 0 .12-.1.12Zm-22.12-1.92c-.47-.1-.94-.07-1.4-.09-.14 0-.19.03-.18.17v3.19c0 .09 0 .17.13.15.1-.02.27.09.3-.13.07-.37.03-.73.04-1.1 0-.11.03-.16.15-.15.2.03.4.02.6-.01.7-.1 1.17-.4 1.11-1.2-.03-.43-.3-.74-.75-.84Zm-.13 1.58c-.28.1-.57.12-.86.11-.1 0-.12-.03-.12-.11v-1.13c-.02-.15.05-.18.19-.18.25 0 .5.01.73.08.27.06.46.27.47.5.01.45-.08.62-.4.73Zm6.26-1.66c-.22-.02-.34.05-.42.25-.25.6-.51 1.18-.77 1.76-.02.05-.04.13-.1.13-.07 0-.08-.07-.1-.12l-.97-1.82c-.07-.14-.14-.25-.3-.2-.31 0-.32 0-.18.25l1.23 2.18c.07.12.07.23-.01.34a.88.88 0 0 1-.48.37c-.21.06-.4 0-.61-.02-.04 0-.07-.05-.1 0-.06.14.03.33.18.39s.29 0 .43 0c.48.02.76-.23.97-.6.22-.37.39-.77.58-1.16l.75-1.59c.06-.11.05-.15-.1-.16Zm-10.4.16c.01-.08.03-.16-.12-.16-.59 0-1.18 0-1.77-.02-.15 0-.17.06-.17.18v3.17c0 .05-.02.14.03.16.1.04.22.02.33 0 .1-.02.08-.1.08-.17v-2.7c-.01-.2.05-.25.25-.24h1.24c.21 0 .1-.14.12-.22Zm76.11-.41c.18 0 .34-.04.5-.09a.6.6 0 0 0 .45-.5c.01-.05.04-.12-.04-.17-.11-.06-.3 0-.35.13-.12.26-.4.37-.7.3-.2-.06-.31-.15-.33-.35 0-.03 0-.07-.04-.07-.11 0-.25-.05-.33.02-.06.06-.03.18.02.28.16.34.49.4.82.45Zm-27.61.24v.01h-.11l-.17-.02h-.14l-.14.01-.01-.04h-.02l-.02.01-.02.04c-.08.12-.12.26-.16.4l-.07.16c-.22.53-.42 1.06-.65 1.58-.1.23-.15.5-.3.73-.04-.07-.08-.12-.1-.18l-.92-2.32c-.06-.13-.05-.28-.18-.38a.1.1 0 0 0-.02-.04c-.03 0-.05.03-.06.04h-.31c.01-.04-.02-.05-.05-.05-.03 0-.04.02-.03.05a.5.5 0 0 0-.06 0c-.09-.01-.13.02-.13.1v.09c.02.04.01.1.01.15v2.98c0 .14.04.2.2.2.16-.01.24-.03.23-.2v-2.39l-.02-.2.02-.05c0-.05-.01-.11.04-.16v.1l1.13 2.73c.04.11.11.16.24.16.22.01.2-.15.25-.26l1.06-2.6c.01-.03.02-.08.1-.1v2.74c0 .23.04.26.28.22l.12-.06v-.05l.02-.04.01-3.2c0-.06.02-.1-.03-.15v-.01Z"/></g><defs><clipPath id="a"><path fill="#fff" d="M0 0h81.4v26h-81.4z"/></clipPath></defs></svg>