<svg viewBox="0 0 57 33" fill="none" xmlns="http://www.w3.org/2000/svg"><g clip-path="url(#a)" fill="#8BA6C3"><path d="M19.87 16.98c.43-.35.94-.7 1.35-1.14.68-.71.92-1.55.6-2.53a3.54 3.54 0 0 1-.2-1.4c.1-.99.83-1.63 1.84-1.8.73-.13 1.34.04 1.9.48.75.6 1.49 1.2 2.24 1.77 2.4 1.82 5.98 1.23 7.78-.56.7-.68 1.32-1.42 1.95-2.15a7.83 7.83 0 0 1 3.26-2.41c1.08-.39 2.2-.5 3.34-.48 1.82.05 3.59.36 5.28 1.02 2.73 1.05 5.01 2.67 6.4 5.24 2.08 3.81 1.82 7.53-.77 11.05a16.53 16.53 0 0 1-5.6 4.58 33.86 33.86 0 0 1-9.13 3.24c-2.64.57-5.3.95-8 1.03-2.31.07-4.64.12-6.95.03a43.57 43.57 0 0 1-13.32-2.54 24.44 24.44 0 0 1-7.64-4.27 11.94 11.94 0 0 1-3.58-4.84 10.1 10.1 0 0 1 3.23-11.38 14.73 14.73 0 0 1 7.02-2.95 13 13 0 0 1 4.31-.05c1.75.32 3.3 1 4.5 2.3 1 1.07 1.1 2.75.03 3.74-1.3 1.2-1.86 2.7-2.2 4.33a17.56 17.56 0 0 0-.4 3.27c-.04 1.65 1.33 1.9 2.35 1.55 1.21-.42 1.84-1.35 2.1-2.53.06-.28.08-.57.07-.85-.03-1.2-.65-1.77-1.76-1.74Zm-8.98 3.56c-.08.06-.15.13-.23.17-.36.2-.7.44-1.1.58-1.12.4-2.3-.08-2.8-1.14a4.3 4.3 0 0 1-.37-1.22 9.34 9.34 0 0 1 1.2-5.9c.4-.7.91-1.31 1.65-1.7.77-.4 1.48-.08 1.65.76.06.36.06.74 0 1.1-.1.68-.37 1.3-.9 1.77-.47.4-.93.37-1.33-.09-.02-.03-.05-.04-.12-.1-.1.16-.2.3-.26.44-.22.63.2 1.35.9 1.52.7.17 1.33.01 1.9-.4a3.71 3.71 0 0 0 1.5-3.08c.03-1.9-1.4-3.06-3.31-2.71a5.22 5.22 0 0 0-2.59 1.4c-2.06 1.9-3.02 4.2-2.52 6.98.32 1.79 1.51 3.3 3.7 3.5.89.08 1.76-.02 2.54-.5.5-.3.7-.9.49-1.37Zm14.58.93c-.1.38-.2.7-.28 1.04-.04.16-.11.22-.28.26-.45.11-.91.2-1.32.4-.83.42-1.42 1.04-1.54 1.99-.1.83.43 1.39 1.28 1.38.47 0 .87-.18 1.22-.47a4.78 4.78 0 0 0 1.32-1.79 17.5 17.5 0 0 0 1.35-6.46.64.64 0 0 0-.37-.63c-.28-.14-.59-.22-.94-.35l-.05.68c-.03.8-.12 1.6-.43 2.34-.18.46-.47.9-.75 1.3-.12.18-.37.34-.58.19-.13-.09-.14-.34-.2-.52l.03-.22.36-2.6c.05-.34-.04-.63-.36-.8-.2-.12-.43-.22-.65-.31-.17-.07-.25-.02-.28.18l-.33 2.1c-.08.59-.17 1.17-.18 1.76-.02.59.4 1.1.92 1.25.58.16 1.12.07 1.6-.3l.46-.42Zm8.63-4.57-.04.25c-.14.87-.26 1.74-.42 2.61-.08.5-.26.96-.66 1.3-.16.15-.34.42-.57.27-.13-.08-.16-.4-.13-.59.09-.85.2-1.7.33-2.54.1-.68-.14-1.05-.8-1.24l-.23-.06c-.15-.05-.22 0-.25.17-.15.94-.3 1.89-.48 2.83-.1.57-.37 1.04-.86 1.36-.28.19-.47.1-.5-.22-.01-.17 0-.34.03-.51.1-.8.18-1.61.34-2.4.16-.82-.6-1.23-1.26-1.23-.2 1.3-.41 2.62-.58 3.93-.08.61.22 1.1.8 1.35a1.4 1.4 0 0 0 1.62-.27c.17-.16.3-.35.47-.54.25.58.65.96 1.32.95.66-.01 1.02-.46 1.38-.95.2.86.77 1.33 1.34 1.19.03-.68.04-1.36.1-2.03.08-.77.2-1.54.3-2.31.11-.82-.4-1.36-1.26-1.32Zm10.26 4.35c.1.73.54 1.08 1.23 1.2.28.04.3.02.29-.28-.02-.53-.05-1.06 0-1.6.08-.78.23-1.57.34-2.36.12-.78-.42-1.35-1.24-1.29-.07.44-.13.9-.21 1.34a6.23 6.23 0 0 1-.88 2.46c-.14.21-.35.4-.57.54-.27.18-.47.08-.51-.24-.03-.2-.05-.41-.03-.62.1-.78.25-1.56.34-2.34.09-.68-.53-1.24-1.24-1.14l-.11.79c-.17.95-.37 1.9-.51 2.86-.1.65.3 1.32.88 1.6.6.29 1.21.17 1.74-.35.17-.17.31-.36.48-.57Zm-29.71.05c.19.9.66 1.33 1.35 1.24l-.02-.25c-.02-.69-.08-1.38-.05-2.07.03-.68.16-1.36.22-2.04.05-.7-.32-1.18-1.02-1.28a2.84 2.84 0 0 0-1.06.04c-1.08.27-1.7 1.06-2.16 1.98a2.9 2.9 0 0 0-.2 2.4c.42 1.09 1.63 1.34 2.46.52.16-.16.3-.34.48-.54Zm32.94-4.34-.6 4.3c-.07.5.1.9.59 1.1.25.1.52.16.79.24l.12-2.06c.78.27 1.21-.14 1.65-.68l-.17 1.39c-.11.82.52 1.31 1.35 1.3.06-.9.09-1.78.17-2.67.06-.6.21-1.18.27-1.77.08-.71-.5-1.22-1.25-1.13-.05.41-.08.84-.16 1.26-.13.68-.42 1.29-1.15 1.56-.35.13-.52.02-.5-.35 0-.48.05-.95.06-1.42.02-.63-.49-1.1-1.17-1.07Zm-10.72-.4c-.16 1.06-.34 2.11-.48 3.16-.07.58-.1 1.17-.13 1.76-.01.3.17.51.44.62.3.12.63.2.96.3l.13-2.3.08-.02.39.63c.3.46.59.94.93 1.37.46.58 1.26.7 2 .24a11.48 11.48 0 0 1-2.42-3.06l2.34-1.78c-.3-.55-.81-.68-1.32-.3-.32.24-.62.51-.9.8-.32.3-.6.61-.95.97.04-.49.08-.9.1-1.32 0-.64-.5-1.1-1.17-1.07Zm4.99 10.77c.18-.01.39.12.42-.17.04-.36.11-.71.12-1.07 0-.38.21-.57.54-.7.3-.1.45 0 .44.3-.02.3-.06.58-.1.86l-.07.76c.3.09.42 0 .43-.27.01-.34.06-.68.1-1.02.04-.37.26-.6.63-.66.24-.04.35.05.35.29l-.03.42-.15 1.24c.39.06.4.05.43-.27l.16-1.36c.06-.52-.27-.79-.77-.61-.2.07-.37.18-.56.28-.29-.44-.58-.45-1.3-.01v-.24c-.28-.09-.4-.01-.41.27-.01.26-.07.52-.1.79l-.13 1.17Zm-5.3-2.27-.24-.02c-.63-.04-1.02.16-1.23.74-.11.3-.14.64-.14.97 0 .35.25.56.6.62.54.09 1-.19 1.2-.77.22-.6.28-1.22.19-1.85-.1-.68-1-1.04-1.56-.64-.04.03-.08.13-.06.16.03.05.1.11.16.11.12 0 .23-.05.34-.06.57-.04.76.14.74.74Zm-5.86.2c-.1-.07-.18-.17-.28-.2-.2-.04-.2.12-.21.26l-.21 1.6-.17 1.36c.26.06.43.06.44-.24 0-.23.06-.46.1-.7l.27.04c.46.06.83-.08 1.09-.45.27-.38.37-.82.3-1.27-.06-.5-.45-.73-.94-.56-.16.05-.3.13-.39.17Zm7.21 2.15c-.11.36-.26.71-.79.58-.03-.01-.14.1-.14.16 0 .05.09.13.15.15.44.13.78-.03.99-.48l.81-1.8.4-.9c-.3-.15-.32-.14-.43.1l-.76 1.72c-.15-.53-.24-1.06-.33-1.59-.05-.31-.09-.33-.42-.23 0 .03-.02.06-.01.08.12.66.24 1.32.38 1.98.01.08.1.15.15.23Zm-3.38-1.42c-.04-.5-.23-.82-.6-.93-.45-.14-.92.01-1.18.4-.29.42-.37.88-.26 1.36.06.26.23.44.5.52.54.16 1.1-.07 1.33-.58.1-.24.14-.51.21-.76Zm-6.67 1.35.16-1.3a.76.76 0 0 1 .74-.68c.2 0 .32.07.31.28l-.05.5-.12 1.18.08.07c.11-.06.3-.11.32-.2.08-.53.15-1.07.19-1.6.03-.44-.22-.65-.65-.56-.25.04-.48.16-.67.23-.09-.07-.15-.17-.24-.2-.18-.04-.21.09-.22.24-.02.22-.06.43-.09.65l-.16 1.39h.4Zm12.2-1.42.08-.81c-.37-.07-.4-.05-.43.27l-.1.82-.13 1.11c.26.04.4-.05.43-.27.02-.18.03-.36.07-.54.01-.07.05-.17.11-.2.32-.16.71.04.78.4l.12.63h.4l-.3-1.2.46-1c-.29-.11-.42-.05-.5.2-.26.68-.34.73-.98.6Z"/><path d="M25.86 3.31c-.04-.37-.12-.68-.12-1 .03-1.3 1-2.23 2.37-2.3.77-.05 1.47.16 2.11.57a6.6 6.6 0 0 1 2.17 2.35c.09.15.21.29.33.43.15.18.27.36.21.62-.01.05.07.17.14.2a3.49 3.49 0 0 1 2.3 3.08c.1.83-.14 1.6-.49 2.35a4.43 4.43 0 0 1-6.73 1.84c-.88-.58-1.6-1.31-2.3-2.09-.81-.92-2.17-1-2.96-.3-.12.11-.37.2-.5.14-.1-.05-.15-.28-.2-.45-.03-.07 0-.16 0-.25.04-.7.4-1.2.92-1.65.26-.23.53-.45.77-.7.56-.6.77-1.3.58-2.1-.16-.68-.75-.87-1.22-.35-.33.36-.62.8-.79 1.24-.33.91-.56 1.86-.84 2.78-.04.14-.17.35-.27.35-.22 0-.23-.23-.22-.4.1-1.3.37-2.57.98-3.75.16-.3.38-.6.62-.86.77-.84 1.73-.9 2.62-.17l.52.43Zm5.26.22.08-.06c-.16-.3-.3-.6-.5-.88a3.5 3.5 0 0 0-1.96-1.52c-.57-.15-1.09-.04-1.47.42a1.4 1.4 0 0 0-.23 1.55c.13.32.35.51.73.46l.47-.03c.96-.1 1.93-.22 2.88.06Zm-10.94 15.43a3.8 3.8 0 0 1-.55 1.96c-.11.18-.28.34-.46.46-.32.2-.62.05-.68-.31-.14-.7-.02-1.38.08-2.06.04-.3.11-.6.19-.9.08-.32.75-.6 1.05-.41.1.06.18.2.21.31.08.32.11.64.16.95Zm-1.28-2.21c.17-.94.36-1.87.87-2.7.1-.18.26-.34.44-.45.28-.18.51-.05.53.29.03.8-.31 1.47-.84 2.05-.29.31-.62.58-.93.87l-.08-.06Zm-5.89 3.81c.07-.95.2-1.78.67-2.53.15-.24.34-.46.66-.5.26-.05.4.05.4.3a6.32 6.32 0 0 1-.81 3.22.95.95 0 0 1-.24.25c-.21.17-.44.13-.54-.12-.08-.23-.1-.48-.14-.62Zm22.3 5.9c.07-.24.11-.5.23-.72.1-.15.29-.3.46-.34.48-.13.63.03.53.5-.06.27-.13.55-.25.8a.67.67 0 0 1-.34.33c-.38.14-.58-.06-.63-.56Zm-3.66-.5c-.05.2-.08.4-.15.58-.15.4-.46.57-.89.49-.07-.02-.18-.15-.18-.22.02-.34.07-.68.12-1.01.03-.2.5-.45.74-.42.23.02.33.2.36.58Zm2.45.05c-.06.25-.11.5-.22.73-.12.28-.4.39-.7.3-.28-.09-.33-.31-.3-.55.02-.23.06-.47.13-.7.12-.32.42-.49.7-.42.25.06.36.25.4.65Z"/></g><defs><clipPath id="a"><path fill="#fff" d="M0 0h57v33h-57z"/></clipPath></defs></svg>