<svg viewBox="0 0 66 24" fill="none" xmlns="http://www.w3.org/2000/svg"><path d="M27.43 23.85h-12.67v-23.82h12.67v23.82Zm-3.3-15.14h2.63v-4.43h-11.34v4.43h2.74v10.12h5.96v-10.12Zm8.57 8.57-2.87-.05v-11.92h2.93v6.73c-.1-.04.1.04 0 0l4.93-6.73 2.95.02v11.95h-2.95v-6.5c-.12-.05.11.06 0 0m27.68 13.09h-22.07v-23.83h22.07v23.83Zm-21.65-5h5.41c.26-2.33.85-4.59 1.1-6.84l2.6 6.8h2.99l2.7-6.92 1.08 6.92h5.4l-2.05-14.55c-1.92 0-3.71.02-5.38 0l-3.22 7.75-3.16-7.75h-5.42m-45.77 19.55v-23.83h13.6v23.83h-13.6Zm12.7-14c0-2.76.06-4.52.06-4.52-.57-.53-2.2-1.07-4.58-1.03-2.9.05-5.36 1.24-6.49 3.81a8.08 8.08 0 0 0 .35 7.57c1.98 3.35 7.7 3.8 10.72 2.71v-4.6c-1.07.78-3.69 2.08-5.83-.63-.53-.66-.43-2.2 0-2.99 1.4-2.57 5.13-1.67 5.77-.32Z" fill="#8BA6C3"/></svg>