<svg viewBox="0 0 338 199" fill="none" xmlns="http://www.w3.org/2000/svg"><g clip-path="url(#a)" fill="#000"><path d="M230.11 127.63c-7.6-2.84-15.24-5.57-22.86-8.34-1.65-.6-3.3-1.2-4.93-1.82-1.91-.74-3.81-1.51-5.67-2.26-.63.53-1.23 1-1.79 1.54-4.2 3.97-8.66 7.63-13.23 11.16a143.3 143.3 0 0 0-10.08 8.46c-5.42 5.04-10.81 10.1-16.25 15.12-2.92 2.7-5.9 5.36-8.48 8.41a102.36 102.36 0 0 0-4.03 4.95c-3.26 4.37-7.1 8.24-10.6 12.4a39.04 39.04 0 0 1-6.64 6.5 756.7 756.7 0 0 1-9.86 7.1 45.41 45.41 0 0 1-8.74 4.84c-1.65.69-3.23 1.52-4.84 2.3-.59.3-1.16.36-1.72.02-1.04-.63-2.1-1.23-3.08-1.93-1.54-1.09-3.04-2.25-4.56-3.37-3.15-2.32-6.38-4.55-9.45-6.96-4.12-3.24-8.01-6.74-11.25-10.9a62.68 62.68 0 0 0-12.36-11.92c-2.3-1.7-4.63-3.39-6.94-5.09l-9.04-6.67c-.3-.22-.62-.41-.94-.62l-.17.21c.3.24.6.44.87.7 1.68 1.67 3.37 3.32 5 5.03 2.87 3 5.51 6.22 8.58 9.04 2.11 1.94 4.04 4.08 6.17 6 6.22 5.61 12.73 10.87 19.22 16.16 2.2 1.8 4.45 3.52 6.65 5.3a29.8 29.8 0 0 0 6.7 4.32c1.59.7 3.2 1.31 4.99 1.17-.07.53-.42.55-.77.5-.5-.06-1-.15-1.48-.27a21.08 21.08 0 0 1-7.65-3.8c-1.4-1.05-2.7-2.24-4.1-3.3-6.17-4.72-12.08-9.74-18.06-14.7-5.72-4.76-10.95-10.04-16.17-15.32-1.64-1.66-3.09-3.5-4.73-5.15a560.3 560.3 0 0 0-9.34-9.14c-1.49-1.42-3.1-2.72-4.58-4.14-4.58-4.39-9.17-8.78-13.69-13.25-2.8-2.77-5.46-5.7-8.22-8.53a90.65 90.65 0 0 1-9.74-12.17 18.17 18.17 0 0 1-1.46-2.43 6.6 6.6 0 0 1-.74-2.3c-.22-3.14.26-6.1 2.31-8.7a36.72 36.72 0 0 1 10.06-8.67c1.63-.98 3.2-2 4.65-3.23l3.68-3.18a64.26 64.26 0 0 0 5.81-5.48 61.32 61.32 0 0 1 9.72-8.55 159.5 159.5 0 0 0 14.95-12.25c4.58-4.25 9.17-8.5 13.76-12.73 2.08-1.92 4.25-3.76 6.27-5.74a147.66 147.66 0 0 1 15.55-13.28 67.24 67.24 0 0 0 9.66-8.3c1.1-1.2 2.32-2.26 3.5-3.37.88-.83 1.8-1.63 2.66-2.5 1.74-1.73 3.45-3.51 5.2-5.25a10.44 10.44 0 0 1 7.1-3.24c2.11-.1 4.15.3 6.11 1.08a21.14 21.14 0 0 1 6.74 4.41c1.93 1.84 3.79 3.76 5.62 5.7 4.16 4.39 8.27 8.83 12.44 13.2 2.08 2.17 4.26 4.24 6.4 6.36.24.24.46.51.69.76l-.15.17c-.16-.08-.34-.14-.46-.25-.44-.42-.85-.87-1.29-1.3a360.2 360.2 0 0 1-15.72-16.23 161.3 161.3 0 0 0-7.9-8.14c-2.64-2.53-5.7-4.42-9.37-5.1-3.55-.67-6.77-.04-9.48 2.5-.42.4-.85.77-1.25 1.18-1.68 1.71-3.27 3.52-5.04 5.13-2.63 2.38-5.1 4.92-7.68 7.33a98.66 98.66 0 0 1-8.16 6.66 153.93 153.93 0 0 0-10.53 8.7c-2.25 2.04-4.39 4.22-6.62 6.27-5.07 4.67-10.2 9.26-15.24 13.96a176.06 176.06 0 0 1-17.57 14.65 70.04 70.04 0 0 0-10.82 9.73c-.73.8-1.53 1.53-2.32 2.26-.98.88-1.98 1.74-2.98 2.6-2.27 1.9-4.4 4-7.04 5.43a37.55 37.55 0 0 0-8.9 6.95c-2.18 2.23-3.82 4.76-3.98 8.08-.09 2 .19 3.83 1.3 5.5.41.63.8 1.27 1.23 1.87 2.68 3.73 5.35 7.47 8.58 10.76 2.9 2.94 5.62 6.04 8.54 8.94 4.65 4.61 9.4 9.12 14.12 13.67.66.63 1.35 1.23 2.03 1.84.1.09.24.26.3.23.84-.31 1.1.42 1.4.85a10.73 10.73 0 0 0 2.66 2.6c2.6 1.93 5.2 3.87 7.82 5.78 3.67 2.69 7.37 5.35 11.04 8.05a64.9 64.9 0 0 1 12.74 12.1c1.1 1.4 2.25 2.8 3.5 4.06a86.1 86.1 0 0 0 10.56 9.14 2642 2642 0 0 0 12.03 8.76c.68.49 1.44.88 2.16 1.3.54.32 1.05.27 1.62-.02 1.34-.7 2.7-1.4 4.09-1.98a45.31 45.31 0 0 0 8.8-4.73c3.25-2.3 6.49-4.62 9.72-6.94a35.76 35.76 0 0 0 6.27-5.87c.81-.96 1.64-1.9 2.46-2.83 3.06-3.52 6.28-6.9 9.07-10.64a83.86 83.86 0 0 1 10.88-11.86c4.89-4.45 9.7-9 14.59-13.47 3.03-2.78 6-5.64 9.2-8.24 6.2-5.06 12.58-9.88 18.4-15.4l.57-.6-1.01-.49-10.87-5.39c-.96-.48-1.93-.95-2.92-1.37-.96-.41-1.06-.33-1.79.47-.77.85-1.54 1.71-2.41 2.45-1.23 1.05-2.63 1.9-3.82 3-2.4 2.22-4.78 4.48-7.06 6.83-2.67 2.73-5.15 5.64-7.84 8.35a336.8 336.8 0 0 0-16.57 18.07c-2.95 3.43-5.8 6.96-9.03 10.14-2.82 2.76-5.72 5.45-8.55 8.2a126.6 126.6 0 0 1-18.44 14.82c-1.03.68-1.27.7-2.25-.07-1.32-1.05-2.64-2.1-3.92-3.2-3.22-2.78-6.37-5.64-9.63-8.38a190.15 190.15 0 0 1-13.1-11.93c-1.68-1.71-3.5-3.28-5.25-4.92-2.08-1.93-4.22-3.8-6.23-5.79a290.83 290.83 0 0 0-17.58-16.04 78.84 78.84 0 0 1-10.36-10.25 52.3 52.3 0 0 0-3.55-3.75 68.85 68.85 0 0 1-9.68-12.32 8.31 8.31 0 0 1-.84-1.84 2.18 2.18 0 0 1 .47-2.27c1.01-1.08 2.02-2.18 3.09-3.2 3.17-3.04 6.87-5.47 9.76-8.82.53-.6 1.2-1.08 1.82-1.61 1.56-1.34 3.2-2.6 4.69-4.01 2.92-2.82 6.02-5.42 9.17-7.98a66.1 66.1 0 0 0 3.39-2.88c4.09-3.8 8.35-7.37 12.82-10.7 5-3.73 9.95-7.54 14.49-11.86 2.95-2.82 6.05-5.48 9.2-8.08a146.1 146.1 0 0 0 7.94-7.07 85.68 85.68 0 0 1 6.6-5.83c2.28-1.75 4.44-3.65 6.97-5.03a25.16 25.16 0 0 1 3.22-1.43 3.31 3.31 0 0 1 3.49.67c2.25 1.89 4.54 3.71 6.78 5.61 2.75 2.34 5.47 4.73 8.19 7.1.43.38.8.48 1.35.25a16.59 16.59 0 0 1 5.42-1.12c5.34-.29 10.7-.53 16.05-.7 3.27-.1 6.54-.03 9.8 0 .54 0 1.07.12 1.6.22.14.03.26.19.53.39-1.02-.07-1.85-.17-2.68-.18-1.14-.02-2.29.04-3.43.04-2.7 0-5.4-.07-8.09-.04-1.88.02-3.77.2-5.65.26-3.17.1-6.33.16-9.48.59-1.85.25-3.63.7-5.3 1.54a3.57 3.57 0 0 0-1.88 2.13 9.02 9.02 0 0 1-1.13 2.13 14.62 14.62 0 0 1-6.22 5c-1.88.87-3.6 2.11-5.38 3.2-.78.48-1.3 1.2-1.5 2.1a16.79 16.79 0 0 0-.5 3.18c-.05 1.45.1 2.9.2 4.35.03.38.17.77.32 1.13.34.77.59 1.54.23 2.42l-.55-2.18-2.86 5.38a3.61 3.61 0 0 0 .17 3.9 3.35 3.35 0 0 0 3.33 1.38 9.7 9.7 0 0 0 2.79-1.15c2.23-1.23 4.32-2.6 5.87-4.7 1.67-2.28 2.85-4.67 2.39-7.6a1.9 1.9 0 0 1-.03-.41l.25-2.63h.27c.02.3.07.62.06.92-.02 1.08-.1 2.16-.08 3.23.03 1.3-.03 2.57-.72 3.73l-1.53 2.62c-.1.17-.18.36-.28.54a16.9 16.9 0 0 0 2.6-1.65 128.1 128.1 0 0 0 4.03-3.2c1.53-1.27 2.97-2.67 4.55-3.87 1.63-1.25 3.38-2.34 5.08-3.5l.64-.52a11.07 11.07 0 0 1-3.64-4.5c-.29-.68-.47-1.41-.66-2.13-.04-.15.1-.36.14-.54.69 2.92 2.17 5.2 4.6 6.92l.9-.67 17.88-13.1c2.86-2.1 5.8-4.07 8.54-6.32 4.3-3.52 8.78-6.74 13.33-9.9.35-.24.73-.48 1.12-.67.58-.28 1.16-.5 1.7.1.08.09.24.1.37.14 2.62.96 4.53 2.72 5.84 5.18.47.9 1.05 1.72 1.55 2.53l.9-.18c-.22.3-.44.48-.42.6.16.84-.52 1.05-1 1.38-3.82 2.71-7.66 5.41-11.5 8.1a24.14 24.14 0 0 0-4.15 3.38c-.32.35-.7.63-1.07.93a62.12 62.12 0 0 1-8.23 5.51c-3.92 2.29-7.55 4.99-11.25 7.57-.52.37-.64.7-.4 1.2.28.55.68 1.02 1.38 1.5-.57-1.09-.82-1.8-.77-2.14 1.16 1.57 2.12 2.47 2.9 2.71.34-.45.7-.93 1.04-1.42.67-1 1.54-1.8 2.53-2.45.14-.1.32-.12.48-.17l.2.24c-1.82 1-2.92 2.61-3.97 4.26l.6.45c-.74.09-1.31.07-1.56.75-.65 1.78-1.47 3.5-1.99 5.3-.69 2.41-.93 4.97-2.47 7.12 2.05-.64 3.7-1.96 5.64-3.08-.11.61-.46.77-.76.95-.9.58-1.84 1.12-2.75 1.71a7.27 7.27 0 0 1-6.58.73c-1.53-.51-3-1.2-4.5-1.8-1.47-.59-2.9-1.3-4.42-1.72a46.31 46.31 0 0 0-12.56-1.83c-.2 0-.4.05-.65.08.67.55 1.28 1.03 1.85 1.55.76.7.96 1.56.51 2.49-.95 1.94-1.93 3.87-2.94 5.78-.38.7-.67.76-1.43.5-.89-.3-1.79-.58-2.66-.93-.6-.23-1.16-.54-1.72-.84-.24-.12-.41-.33-.27-.54.91.4 1.77.79 2.63 1.14.63.25 1.27.45 1.9.68.83.3.92.3 1.35-.52.86-1.64 1.72-3.29 2.53-4.96.67-1.38.53-1.91-.6-2.92-.18-.16-.4-.28-.55-.44-1.28-1.27-2.73-1.22-4.28-.6-3.54 1.44-4.82 4.1-4 7.7.07.29.21.58.4.82a7.62 7.62 0 0 0 2.6 2.35c.24.12.52.22.7.4a19.76 19.76 0 0 0 4.67 3.17 945.7 945.7 0 0 0 11.8 6.22c4.93 2.54 9.57 5.54 14.24 8.5.49.3.99.58 1.43.95a42.3 42.3 0 0 0 8.33 5.5 18.7 18.7 0 0 0 5.5 1.94c1.5.22 3.01.38 4.52.57.66.09 1.37.07 1.98.32 1.4.57 2.77 1.21 4.1 1.94 4.86 2.65 9.83 5.08 14.98 7.07 7.42 2.85 14.88 5.56 22.35 8.27 8.7 3.16 17.4 6.33 26.16 9.34 103.16 35.47 36.6 14.51-18.05-5.89Zm-111.51-68.71c-1.67 1.26-3.94 5.55-3.6 6.95 1.28-2.32 2.6-4.48 3.6-6.95Zm1.04 12.47c1.32-.76 2.51-1.7 3.67-2.7-1.43.62-2.5 1.73-3.67 2.7Zm17.6-13.1.13.16 8.26-6.1c-3 1.7-5.9 3.51-8.38 5.93Zm19.76-14.66-.57.59-.06.03-.32.25-1.95 1.34-4.64 3.45-.59.51-.2.14-.02.04-.72.36h.25a.54.54 0 0 0 .47-.36l.04-.02.18-.16.64-.44 4.67-3.43 1.86-1.42.34-.24.05-.05.7-.4-.14-.18Zm3.02-2.2-.55.54-.08.04-.02.04-.73.37c.35.05.6-.07.73-.37l.04-.02.07-.06.68-.38c-.04-.06-.1-.11-.13-.17h-.01Zm23.44-17.37-6.3 4.7-.8.63-.75.5.14.17.69-.6.82-.6 4.74-3.42c.7-.5 1.4-1.03 2.01-1.69-.18.1-.39.17-.56.3Zm1.9-1.3-.65.43.09.14.64-.45-.09-.12Zm8.01.47a9.97 9.97 0 0 0-3.71-2.2c-.46-.15-.81-.13-1.22.18-3.48 2.6-6.99 5.19-10.49 7.78-.23.17-.44.31-.46.7-.01.25-.4.5-.66.7-3.15 2.43-6.36 4.79-9.47 7.27-5.67 4.53-11.28 9.13-16.92 13.7-2.57 2.09-5.15 4.16-7.7 6.26-1.23 1-2.37 2.1-3.36 3.35l.15.16c.44-.25.88-.47 1.3-.74 3.66-2.32 7.07-4.97 10.44-7.67 5.97-4.8 11.9-9.65 17.86-14.47a91.28 91.28 0 0 1 9.2-6.62c2.05-1.3 4.07-2.65 6.17-3.87a85.6 85.6 0 0 1 5.4-2.76 4.53 4.53 0 0 1 3.9-.09c.3.13.62.2 1.07.35a5.86 5.86 0 0 0-1.5-2.03Zm-7.92 14.54 8.72-6.14-.14-.2a57.73 57.73 0 0 0-8.7 6.15l.12.19Zm-25.42 61.98a1.3 1.3 0 0 0-.7-1.24c-.18-.1-.33-.24-.5-.35-4.32-2.7-8.54-5.55-13.07-7.9-.2-.1-.42-.18-.69-.3l-.16 2.09c-.03.27 0 .57-.1.8-.4.85-.09 1.57.35 2.28a31.4 31.4 0 0 0 3.94 4.88c.94 1.01 1.94 1.98 2.87 3 1.5 1.63 3.42 2.07 5.52 1.96 1.59-.08 2.46-.98 2.53-2.59.04-.88-.02-1.76 0-2.64Zm18.3 7.27c-3.02-.28-6.04-.6-8.81-1.99-2.48-1.23-4.94-2.48-7.12-4.22-.58-.46-1.18-.88-1.9-1.41-.02.4-.04.65-.04.9-.01.74.02 1.48-.02 2.23-.1 1.68-1.16 2.76-2.83 2.85-2.36.14-4.47-.4-6.13-2.24-1.5-1.66-3.08-3.23-4.53-4.92-1-1.14-1.83-2.42-2.77-3.7l-.46.46c-.74.77-1.46 1.58-2.23 2.34-.73.72-1.63.98-2.67.97a9.2 9.2 0 0 1-3.65-.64c-.65-.28-1.06-.68-1.13-1.41-.16-1.58-.42-3.16-.48-4.74-.07-2-.11-3.98-.77-5.9-.18-.53-.2-1.13-.26-1.7 0-.04.17-.1.3-.15h.03l.79 3.53c1.48-.21 2.28.65 2.85 1.66a14.03 14.03 0 0 1 1.93 7.56c0 .2-.12.38-.36.55-.02-.25-.06-.5-.05-.74.07-2.46-.6-4.74-1.74-6.89a5.48 5.48 0 0 0-1.23-1.44c-.23-.21-.64-.23-1.15-.4 0 .54-.02.9 0 1.26.08 2.22.1 4.45.41 6.66.16 1.16.69 1.72 1.74 2.05 1.16.36 2.32.3 3.5.29.34 0 .74-.16 1.02-.37 1.53-1.14 2.99-2.4 3.64-4.24.38-1.08.35-2.31.52-3.54-1.92-1.03-3.75-2.02-5.6-2.99-1.78-.93-3.59-1.84-5.4-2.74-.26-.13-.5-.47-.87-.22h-.03c-.15-.18-.27-.41-.46-.54-1.98-1.34-4-2.63-5.96-3.98a5.69 5.69 0 0 1-2.57-5.95c.4-2.78 2.16-4.25 4.54-5.18a8.43 8.43 0 0 1 2.67-.46c3.24-.14 6.46.1 9.64.74.3.06.6.06.89.09v.02s.01-.02.03-.02c.61.14 1.22.29 1.84.42 2.14.48 4.18 1.24 6.19 2.14a76.8 76.8 0 0 0 5.34 2.1 6.5 6.5 0 0 0 3.17.15c.1-.26.15-.52.3-.73a10 10 0 0 0 1.65-4 32.4 32.4 0 0 1 3-8.7c-1.46-.8-2.79-1.69-3.42-3.37-.32.21-.63.41-.93.63-5.07 3.56-10.13 7.14-15.21 10.7-.44.32-.85.78-1.51.48-.1-.04-.27.1-.42.18h-.03a.8.8 0 0 1 .07-.5c.1-.18.25-.31.43-.43l.2-.14c2-1.29 4.05-2.55 6.03-3.9 4.4-3 8.77-6.06 13.16-9.07 3.06-2.1 6.16-4.15 9.2-6.26 3.75-2.6 7.46-5.23 11.18-7.87.5-.35.96-.75 1.36-1.2a25.17 25.17 0 0 1 4.45-3.97c2.3-1.55 4.63-3.02 6.95-4.53l2.59-1.72c-.61-1-1.13-1.9-1.71-2.76-.15-.22-.55-.25-.82-.4-1.54-.78-3.08-1.1-4.74-.3a65.2 65.2 0 0 0-6.42 3.43c-5.12 3.21-10.2 6.47-14.87 10.33a957.44 957.44 0 0 1-14.06 11.44 486.42 486.42 0 0 1-10.5 8.1c-1.23.93-2.57 1.73-3.9 2.54a2.9 2.9 0 0 1-1.9.51c.3-.43.46-.76.7-1 1.47-1.45 2.87-2.97 4.45-4.28 5.21-4.35 10.48-8.62 15.73-12.91 1.62-1.33 3.26-2.63 4.88-3.95.24-.19.45-.4.67-.6.25-.23.51-.44.77-.65l.42-.33.4-.28.8-.61.07-.07.7-.37-.13-.2-.57.57-.09.04-.4.3-.4.31-.38.3-.44.31-.83.58c-.34.22-.7.41-1.02.65-16.12 11.91-32.23 23.84-48.36 35.74-.77.56-1.2 1.34-1.69 2.08-.42.65-.19 1.47.11 2.15.22.49.5.98.86 1.36.78.84 1.6 1.66 2.46 2.4.36.31.88.48 1.35.63.5.15.95.02 1.4-.3 1.73-1.18 3.48-2.32 5.22-3.47.25-.17.53-.28.93-.28-.12.14-.2.33-.35.43-1.97 1.31-4 2.52-5.9 3.93a12.3 12.3 0 0 1-5.43 2.26c-.83.14-1.38.59-1.78 1.32a38.76 38.76 0 0 1-6.05 7.97c-.37.39-.75.77-1.11 1.18-.64.73-.62 1.05.13 1.67.42.35.86.66 1.31.96a107.98 107.98 0 0 1 16.34 13.22c1.73 1.71 3.57 3.3 5.3 5.02.95.94 1.83 1.98 2.66 3.04.3.37.43.9.56 1.39.15.55.21 1.13.34 1.69.22.96.62 1.22 1.6 1.03.5-.1.98-.27 1.47-.4a4.28 4.28 0 0 1 2.78.13c.43.2.86.54 1.15.93.49.65.35.96-.43 1.26l-.34.1c.29.71.32 1.38-.32 1.9-.95.05-1.14-1.42-2.33-1.05l1.13 1.74c.19.3.32.57.13.94-.38.69-.84.82-1.47.32-.39-.3-.75-.64-1.2-.9.02.55.43.85.69 1.24.24.34.44.67.23 1.11-.28.58-.69.66-1.06.14-.28-.38-.5-.8-.73-1.22-.22-.41-.53-.59-1-.49-.47.76.26 1.5.07 2.24-1.29.1-2.7-1.06-2.97-2.38-.13-.69-.28-1.37-.46-2.05-.62-2.38-3-3.14-4.75-1.43a11.7 11.7 0 0 0-2.04 2.75 11.61 11.61 0 0 1-3.68 3.98c-.3.2-.64.37-.98.5-1.3.45-2.04 1.87-1.45 3.14a4.56 4.56 0 0 0 2.9 2.62c.81.23 1.64.39 2.45.63.46.13.9.36 1.37.56-.3 1.07-1.33 1.14-1.9 1.79.45.22.87.41 1.29.63.23.13.5.25.66.45.16.18.31.5.25.69-.05.16-.4.33-.61.33-.5 0-1-.11-1.62-.19.48.7 1.38.98 1.45 1.9-.6.48-1.09-.14-1.72-.12.1.25.22.48.26.71.15.77-.22 1.1-1 .93l-.32-.04c.17.39.36.71.46 1.06.13.47-.19.85-.66.73-.37-.09-.8-.26-1.05-.53-.6-.67-1.24-1.36-1.66-2.16-.35-.66-.4-1.48-.6-2.24l-.12-.6c-.15-.86-.64-1.35-1.52-1.52-.96-.18-1.93-.37-2.83-.71-1.97-.74-3.52-2.12-4.94-3.62a292.95 292.95 0 0 1-6.58-7.17c-2.67-3.04-5.27-6.16-7.91-9.22-1-1.16-2.04-2.26-3.07-3.38-.22-.24-.5-.43-.82-.7-.35.3-.7.56-1 .87a42.7 42.7 0 0 1-7.94 6.23 12.2 12.2 0 0 0-4.89 5.65c-.18.44-.4.86-.68 1.24a1.9 1.9 0 0 1-.67.58c-.73.38-1.1.13-1.04-.68.01-.2.06-.4.12-.76-.63.47-.89 1.04-1.22 1.54-.41.61-.78 1.27-1.25 1.84-.9 1.08-1.64.96-2.26-.26.33-.66.7-1.27.95-1.93a25.3 25.3 0 0 1 4.23-7.11c2.96-3.65 5.56-7.57 8.42-11.3.4-.53.79-1.1 1.08-1.7a28.1 28.1 0 0 1 2.66-4.54c.32-.43.58-1 .1-1.36-.45-.33-1.1-.4-1.63-.62-.41-.17-.63.1-.88.31a25.82 25.82 0 0 1-5.78 3.51 6.5 6.5 0 0 1-4.22.46 10.69 10.69 0 0 1-5.43-2.75 7.16 7.16 0 0 1-1.38-1.73c-1.86-3.64-3.05-7.43-2.35-11.61.2-1.16.2-2.34.29-3.57-.37-.03-.63-.07-.9-.05a2.77 2.77 0 0 1-2.18-.87c-1.86-1.82-3.43-3.83-4.1-6.4-.08-.32-.11-.64-.19-1.1 2.99.62 5.57 1.88 8.2 3.09.66-1.33 1.22-2.66 1.94-3.9.75-1.27 2.16-1.77 3.48-2.59a46 46 0 0 1-3.62-6.39c1.33-.92 3.06-.84 4.63-.08a7.18 7.18 0 0 1 3.8 4.74c.03 0 .06.02.09.04.03 0 .06.02.09.01 2.67-.5 5.3.1 7.93.44a19.8 19.8 0 0 1 8.57 3.1c1.4.94 2.5 2.18 3.4 3.58a5.23 5.23 0 0 1 .46 4.7 34.33 34.33 0 0 1-2.2 4.77 6.46 6.46 0 0 0-.64 2.09c-.09.5.15.94.62 1.17.44.22.88.27 1.32-.07 1.2-.94 2.41-1.85 3.63-2.76 1.49-1.1 3-2.19 4.47-3.32.84-.65 1.61-1.38 2.45-2.1-.17-.13-.21-.2-.26-.2-1.27-.16-1.5-.56-.7-1.6a210.23 210.23 0 0 1 8.95-10.2c1.05-1.09 2.22-2.08 3.37-3.06 1.4-1.17 2.83-2.3 4.25-3.44.1-.08.17-.19.37-.41a3.8 3.8 0 0 1-4.57-1.67 26.5 26.5 0 0 0-1.44-2.18c-.23-.31-.25-.58-.14-.94.68-2.23 1.84-4.2 3.28-6 .29-.37.68-.63 1.13-1.03-.08-.64-.24-1.37-.24-2.1.01-1.63.02-3.26.19-4.86a4.97 4.97 0 0 1 2.3-3.77c1.78-1.17 3.52-2.4 5.5-3.2 2.63-1.03 4.48-2.94 6.07-5.17.22-.3.44-.62.53-.97a3.96 3.96 0 0 1 2.47-3c-.23-.24-.37-.4-.53-.55-4.78-4.07-9.6-8.1-14.33-12.22-1.5-1.3-2.96-1.38-4.66-.66a24.4 24.4 0 0 0-5.2 3.1 109.31 109.31 0 0 0-10.73 9.1 103.1 103.1 0 0 1-7.4 6.6 167.14 167.14 0 0 0-9.45 8.27c-4.68 4.47-9.8 8.36-14.97 12.22-4.2 3.14-8.15 6.56-12.05 10.05-3.16 2.84-6.48 5.5-9.73 8.25-.4.33-.77.67-1.13 1.02a95.14 95.14 0 0 1-6.67 5.9c-1.28 1.05-2.4 2.28-3.61 3.4-1.19 1.1-2.37 2.22-3.62 3.24a58.98 58.98 0 0 0-7.26 6.75c-.6.68-.76 1.42-.44 2.25.23.56.48 1.13.8 1.63a70 70 0 0 0 9.8 12.36c1.33 1.3 2.6 2.65 3.8 4.08a77.48 77.48 0 0 0 9.9 9.7 293.32 293.32 0 0 1 17.65 16.12c2 1.97 4.1 3.81 6.16 5.72 1.88 1.74 3.8 3.45 5.62 5.26 3.5 3.48 7.1 6.83 10.88 10 4.09 3.43 8.05 7 12.09 10.5 1.04.9 2.14 1.74 3.23 2.6.84.65.88.64 1.76.03 4.59-3.16 9.19-6.3 13.28-10.1 2.7-2.52 5.36-5.06 8.1-7.51 5.33-4.77 10.03-10.1 14.65-15.55a310.67 310.67 0 0 1 16.5-18c2.7-2.74 5.22-5.67 7.9-8.42a165.5 165.5 0 0 1 7-6.76c1.23-1.14 2.69-2.03 3.96-3.13.99-.85 1.85-1.85 2.95-2.96-.69-.1-1.13-.2-1.57-.24v.04Zm-105.98-29.36 1.03-.27a6.68 6.68 0 0 0-5.94-4.71c1.95 1.48 3.96 2.64 4.92 4.98Zm-5.58-4.61a34.96 34.96 0 0 0 3.26 5.57l1.76-.72c-.2-1.54-2.8-4.07-5.02-4.85Zm6.85 3.15a5.1 5.1 0 0 0-3.96-3.62 11 11 0 0 1 3.96 3.62Zm-3.44 3.21c-2.64.87-4.3 2.78-5.13 5.45a39.8 39.8 0 0 0-1.36 8.27c-.4 4.44 1.25 8.27 3.3 12.01a5.67 5.67 0 0 0 2.31 2.21 12.4 12.4 0 0 0 4.98 1.54 9.55 9.55 0 0 0 5.07-1.1c.32-.17.6-.44.86-.7 2.82-2.85 5.59-5.76 7.88-9.1.74-1.07 1.7-2 2.52-3.03.86-1.08 1.7-2.19 2.47-3.33a8.56 8.56 0 0 0 1.34-4c0-.13.05-.27.02-.4-.42-1.9-.93-3.76-2.4-5.14a13.78 13.78 0 0 0-6.42-3.26c-1.8-.43-3.62-.82-5.45-1a15.5 15.5 0 0 0-4.22.14c-1.95.34-3.89.83-5.77 1.44Zm-6.61 9.88.13-.86c-1.45-.17-2.53-1.04-3.63-1.86-.95-.7-1.88-1.4-2.82-2.12l-.19.19c.33.6.6 1.27 1 1.83.69.93 1.42 1.81 2.2 2.65.97 1.05 1.64 1.2 3.15.91l.15-.75Zm.4 11.85c.28.9.66 1.77.97 2.66 1.21 3.48 3.8 5.27 7.24 6.06 1.68.39 2.86.33 4.16-.59a12.2 12.2 0 0 1-5.7-.82 7.76 7.76 0 0 1-4.53-3.93 36.26 36.26 0 0 1-2.35-5.81l-.31-.94a8.18 8.18 0 0 0 .5 3.38h.01Zm-6.45-17.21c.62.51 1.24 1.04 1.93 1.45 1.4.83 2.85 1.58 4.36 2.4l.36-2c-2.46-1.1-4.78-2.35-7.6-2.93.4.45.64.81.95 1.08Zm25.35 21.06c1.56-.97 2.61-2.42 3.55-3.98l-3.55 3.98Zm7.39-8.77.74-.72-.18-.15-.56.87-.03.03-.01.02a7.74 7.74 0 0 0-1.86 2.05c-.17.26-.35.52-.54.77l.18.14 2.22-2.97.02-.01.02-.03Zm1.34.1.04-.83c-.33.3-.63.5-.04.82Zm-.81.09-6.92 8.8c.03.02.14.13.27.22 1.44.98 1.84 2.46 1.02 4.02-.41.77-.94 1.48-1.46 2.19-2.78 3.78-5.83 7.35-8.48 11.23-.91 1.34-2.06 2.51-3 3.83a41.8 41.8 0 0 0-2.31 3.8c-.64 1.14-1.18 2.35-1.75 3.53-.11.24-.18.5-.27.74.4.43.79.45 1.14.02.36-.44.7-.9 1.03-1.37.52-.78 1.01-1.6 1.55-2.38.1-.15.36-.25.55-.25.09 0 .24.3.25.47.02.43-.03.86-.06 1.53.42-.33.76-.5.95-.76a7 7 0 0 0 .7-1.34 12.58 12.58 0 0 1 4.52-5.35c.69-.47 1.4-.94 2.11-1.39a40.24 40.24 0 0 0 6.62-5.47c.4-.39.8-.74 1.4-.47.21.09.44.17.59.33 2.07 2.13 4.25 4.17 6.15 6.45 3.76 4.53 7.63 8.94 12.02 12.86.78.7 1.54 1.42 2.31 2.13 1.5 1.35 3.2 2.34 5.2 2.78.2.05.38.13.6.2.03.16-.01.36.07.47.77 1.08.92 2.38 1.2 3.61.3 1.26 1.26 1.95 2.05 2.8.1.09.31.07.63.15-.26-1.36-1.5-1.94-1.85-3.1 1.02.17 1.54 1.26 2.6 1.38.27-.66-.2-.97-.53-1.3-.36-.34-.75-.65-1.24-1.07.73-.31 1.13.16 1.6.32.46.17.92.38 1.55.64-.62-1.13-1.85-1.35-2.6-2.44l3.49.62c-.62-.99-1.69-1.1-2.64-1.68.25-.21.42-.39.62-.52.23-.15.5-.24.7-.41.17-.16.39-.44.36-.62-.03-.18-.32-.4-.54-.47-1.05-.33-2.16-.52-3.18-.93a4.2 4.2 0 0 1-2.5-4.35c.06-.66.27-1.28.9-1.61 2.08-1.1 3.48-2.92 4.96-4.68.93-1.11 1.98-2.12 2.96-3.18.43-.47.84-.96 1.31-1.5 1.37.15 2.66.64 3.7 1.71.36.38.36.84.39 1.32.05.9.11 1.8.25 2.7.17 1.08 1.02 1.51 2 1.96-.04-.46-.1-.83-.1-1.22-.02-.38-.17-.83.37-1.02.44-.16 1.06 0 1.36.4.2.28.34.6.51.88l.57.87c.06-.38.17-.61.1-.74-.17-.33-.43-.6-.65-.9-.45-.6-.46-.65-.56-1.4 1.2-.28 1.7.9 2.56 1.31.5-.3.55-.63.21-1.08-.3-.4-.57-.84-.82-1.27-.13-.22-.2-.48-.3-.74 1.26-.9 1.84.27 2.61.78.76-.93-.37-1.41-.42-2.14.5-.53.95.5 1.49 0-.08-.61-.5-.95-1.05-1.17a4.14 4.14 0 0 0-2.67-.1c-.52.15-1.04.32-1.57.41-.76.13-1.4-.07-1.79-.81-.58-1.14-1.11-2.31-1.75-3.42-1-1.77-2.15-3.4-3.64-4.82-3.5-3.36-7.42-6.16-11.21-9.15-1.75-1.38-3.43-2.84-5.15-4.26-.54-.45-1.1-.89-1.64-1.35-.25-.22-.7-.28-.6-.81.03-.1-.32-.3-.5-.44-.64-.45-1.3-.85-1.91-1.34-1.08-.85-1.1-1.43-.2-2.43 1.12-1.26 2.24-2.52 3.38-3.76 1.43-1.55 2.51-3.35 3.6-5.13.1-.17.17-.36.29-.63-.32.05-.54.06-.76.12-1.15.29-2.28.64-3.43.87-.74.14-1.24.53-1.56 1.15a4.5 4.5 0 0 1-1.54 1.71c-1.12.75-2.23 1.51-3.38 2.22-1.98 1.21-3.99 2.39-5.98 3.58-.26.16-.54.28-.8.43-1.04.6-2.04.89-3-.15-.25-.25-.63-.37-1.05-.61l-.01-.01Zm-5.88 12.05c-.78.98-1.45 1.95-1.96 3.22 1.1-1 1.9-2.3 1.96-3.22Zm9.16 15.73c.27.47.66.85 1.21 1.12l-1.06-1.25-.15.13Zm1.46 1.66.34.4.09-.06-.33-.42-.1.08Zm2.28 2.72.35.43.11-.1-.36-.4-.1.07Zm1.4 1.55.3.41.1-.07-.32-.4-.09.06Zm2.1 2.39.5.6.1-.08-.52-.6-.09.08Zm1.42 1.67c2.1 2.07 3.89 4.46 6.23 6.3a8.79 8.79 0 0 0 3.68 1.85c-3.6-2-6.09-5.1-9.03-7.66-.25-.21-.48-.44-.72-.66l-.16.17Zm16.92-2.14c.88-.53 1.03-.7 1.34-1.62-.4.5-.81.98-1.34 1.62Zm5.72-6.22 1.17-.1c-.46-.3-.85-.27-1.17.1Zm2.33.4.59.52.15-.16-.64-.49-.1.13Zm2.77-5.37-.22.12.78 1.42c.13-.78-.29-1.13-.56-1.54Zm-12.88-12.3c-2.01-2-4.29-3.68-6.61-5.3 1.99 2.02 4.3 3.63 6.6 5.3Zm-19.22-14.02c2.22-1.26 4.49-2.44 6.51-4.02a4.28 4.28 0 0 0 1.48-1.95c-.68-.13-1.13.02-1.57.52-1.44 1.62-3.28 2.77-5 4.06-.67.5-1.35 1-1.96 1.62.18-.08.37-.14.54-.23Zm15.04-8.32c-1.78.07-8.66 1.48-9.55 1.95 3.47-.04 6.48-1.17 9.55-1.95Zm3.71-1.21c-.42-.39-.7-.69-1.03-.94-.79-.63-1.6-1.24-2.39-1.86-.89-.68-1.24-1.65-1.42-2.7-.17-.89.17-1.64.66-2.36-3.06 3.35-6.23 6.56-9.16 10.32l13.34-2.46Zm-4.28-6.43c-.5 1.11.28 2.54 1.43 3.63a6.8 6.8 0 0 0 2.22 1.42l.03.04.07.03 1.05 1.23.73-.38-.95-.46-.83-.39-.05-.05-.05-.02c-.27-.31-.51-.64-.78-.93a5 5 0 0 0-.3-.3c-1.17-1.01-2.18-2.1-2.42-3.72 0 0 0-.02-.02-.03l-.13-.07Zm28.74-10.09v-.02.02Z"/><path d="m148.68 49.94-.02.04.02-.04.2-.14-.2.14Zm10.73-7.9-.04.02.04-.02Zm6.89-4.27-.02-.01.01.01-.4.28.4-.28Zm-49.78 45.9a.31.31 0 0 1-.03-.05l.03.05Zm150.65 16.24c-5.33-1.56-10.63-3.25-16-4.64-11.72-3.02-23.28-6.5-34.52-11.02-4.3-1.72-8.42-3.74-11.92-6.9a19.77 19.77 0 0 1-5.45-7.7c-1.11-2.93-1.97-5.96-2.85-8.97-.8-2.79-1.34-5.67-2.27-8.41-1.5-4.41-3.06-8.81-5.53-12.81-.38-.64-.7-1.32-1.06-2 .5-.06.71.3.9.64.25.48.45.99.72 1.46a50.11 50.11 0 0 1 3.72 7.97c.44 1.2.91 2.4 1.31 3.62.5 1.5 1.03 3.01 1.4 4.55 1 4.14 2.05 8.26 3.42 12.3a20 20 0 0 0 3.9 6.93 27.36 27.36 0 0 0 7.94 6.2 90.98 90.98 0 0 0 11.13 4.78 292.08 292.08 0 0 0 22.32 7.1c6.25 1.67 12.5 3.31 18.69 5.17 0 0 91.96 27.39 4.15 1.73Z"/><path d="M151.47 31.78c-2.7-2.28-5.35-4.66-8.14-6.83a209.42 209.42 0 0 1-15.51-13.64c-2.94-2.8-5.93-5.52-9.13-8.02-.31-.25-.64-.5-.98-.7-.82-.52-1.03-.5-1.8.13-2.1 1.7-4.2 3.38-6.28 5.1-5.2 4.32-10.35 8.68-15.55 12.98a87.51 87.51 0 0 0-7.87 7.15 234.71 234.71 0 0 1-12.48 12.3c-4.67 4.25-9.26 8.58-14.18 12.55-3.54 2.86-7.03 5.8-10.43 8.84a145.44 145.44 0 0 1-14.65 11.48 209.7 209.7 0 0 0-21.96 17.08c-2.69 2.42-5.3 4.92-7.4 7.9-1.46 2.04-1.35 4.34.37 6.17.33.34.68.66 1 1l4.55 5.04c.83.93 1.62 1.9 2.47 2.82 1.98 2.12 4 4.21 5.98 6.33 3.16 3.38 6.35 6.74 9.46 10.16a135.4 135.4 0 0 0 10.2 10.13c5.5 4.83 11.04 9.63 16.48 14.54 4.81 4.35 9.42 8.92 13.52 13.97a54.11 54.11 0 0 0 8.55 8.31c4.53 3.58 9.1 7.1 13.31 11.06a40.5 40.5 0 0 0 6.58 5.21c.74.46 1.53.85 2.34 1.18.34.13.81.13 1.16.01 1.66-.56 3.29-1.2 4.77-2.17 2.12-1.4 4.14-2.9 5.97-4.67a387 387 0 0 1 22.47-19.7 219.75 219.75 0 0 0 18.23-16.51c3.64-3.76 7.28-7.53 10.85-11.36 3.84-4.1 8.14-7.7 12.28-11.48 2.32-2.11 4.78-4.08 7.03-6.26 2.73-2.65 5.74-4.93 8.7-7.27.4-.31.83-.57 1.25-.85l.17.2c-.2.2-.36.43-.57.6-2.46 1.95-4.94 3.87-7.36 5.86-1.17.97-2.2 2.1-3.33 3.1-2.2 1.97-4.42 3.88-6.6 5.85-2.9 2.62-5.86 5.2-8.65 7.95-3.44 3.39-6.74 6.92-10.06 10.42a193.14 193.14 0 0 1-13.34 13.02c-4.7 4.1-9.5 8.1-14.3 12.1a375.66 375.66 0 0 0-16.44 14.59c-3.1 2.9-6.41 5.48-10.5 6.86-.83.28-1.57.33-2.34-.04-.46-.21-.91-.44-1.35-.69a30.05 30.05 0 0 1-5.36-3.96 200.46 200.46 0 0 0-14.02-11.8 66.34 66.34 0 0 1-10.61-10.25c-5.84-7-12.6-13.08-19.43-19.08-4.18-3.68-8.4-7.31-12.54-11.04-4.7-4.23-8.72-9.14-13.13-13.66-2.37-2.44-4.5-5.12-6.9-7.56a118.16 118.16 0 0 1-6.56-7.16 61.96 61.96 0 0 0-4.32-4.56 4.9 4.9 0 0 1-.6-6.24c.8-1.29 1.75-2.5 2.8-3.6a108 108 0 0 1 10.05-9.25 300.5 300.5 0 0 1 19.4-14.45c2.33-1.6 4.6-3.31 6.78-5.12 3.2-2.65 6.26-5.46 9.43-8.15 6.25-5.3 12.69-10.4 18.63-16.06 4.18-3.99 8.46-7.86 12.46-12.05a96.12 96.12 0 0 1 7.3-7.02c7.16-6.06 14.43-11.98 21.66-17.97.91-.75 1.8-1.53 2.7-2.28.84-.69 1.27-.71 2.2-.14.37.23.72.5 1.07.77 3.81 2.91 7.22 6.3 10.75 9.54a453.9 453.9 0 0 0 10.97 9.76c3.48 3 7.06 5.87 10.59 8.8.3.25.56.56.83.84l-.19.2c-.15-.1-.3-.2-.45-.32v.01Z"/><path d="M140.04 76.85c-.2.85-.26 1.74-.5 2.58-.22.76.05 1.64-.44 2.34l-.24-.03.29-2.88c-.29.52-.4 1.08-.61 1.6-.19.49-.09 1.12-.72 1.54-.04-.27-.07-.43-.08-.6-.06-2.32.46-4.54 1.18-6.72.15-.45.37-.88.62-1.27.1-.16.4-.31.56-.27.13.04.19.3.27.5v.01l-.01.04c-.31.02-.6.03-.76.42-.61 1.5-1 3.05-1.23 4.65 0 .04.06.1.1.16.6-1.5 1.19-2.99 1.76-4.49.09-.22.1-.49.13-.74h.04l-.02-.05c.3-.43.6-.87.91-1.29.16-.2.36-.45.69-.1-.4.73-.85 1.44-1.18 2.2-.32.78-.55 1.59-.75 2.4h-.01Zm.32-3.19.03.03-.03-.03Z"/><path d="m140.4 73.69-.04-.03v-.02l.03.05Zm-6.25-18.72c-.25.1-.55.16-.88-.17a12.4 12.4 0 0 0 4.3-2.1c1.2-1 2.25-2.17 3.5-3.4-.06.29-.06.43-.13.52-1.7 2.47-4 4.14-6.79 5.15Zm54.02-27.67c1.05.46 2.08.95 3.13 1.4.6.25 1.24.3 1.88.08.72-.23.87-.65.3-1.16-.63-.59-1.39-1.05-2.1-1.56l-.44-.32c.15-.08.22-.14.26-.13a5.55 5.55 0 0 1 2.89 2.08c.37.52.19 1.09-.43 1.32-.51.19-1.12.34-1.65.27-1.69-.25-3.12-1.14-4.6-1.92l.1-.3c.21.07.44.14.66.23Zm-105.65 52.33c1.25.05 2.45.42 3.52 1.12 1.11.72 1.36 1.36.98 2.66a6.77 6.77 0 0 1-1.65 2.75c-.97 1.03-2.02 1.98-3 3a5.68 5.68 0 0 1-3.02 1.7c.89.92 0 1.77-.06 2.68l2.08 1.75a17.96 17.96 0 0 1 3.8-4c.1.06.2.12.3.2-.14.31-.23.66-.4.95-.49.85-1.15 1.63-1.5 2.52-1.01 2.67-3.1 4-5.64 4.78-.3.1-.67.02-1.02.02l3.9-4.36c-.4-.34-.9-.75-1.37-1.17-.32-.27-.66-.34-1-.08a3.8 3.8 0 0 1-2.32.77c-.22.7-.35 1.38-.64 1.98-.3.6-.7 1.17-1.13 1.67a43.4 43.4 0 0 1-2.53 2.77 8.47 8.47 0 0 1-3.08 2.07c-.92.32-1.55.13-2.11-.66-.2-.27-.38-.58-.47-.9-.35-1.37-.7-2.74-.96-4.13a9.98 9.98 0 0 1-.18-2.62 12.8 12.8 0 0 1 1.18-4.8c.86-1.74 2.12-2.54 3.9-2.04a10.33 10.33 0 0 1 5.25 3.74l1.9-1.5c-.91-.85-1.8-1.72-2.74-2.55a4.45 4.45 0 0 1-1.48-4.02c.08-.7.33-1.37.53-2.05.26-.9.87-1.53 1.74-1.84.6-.2 1.24-.4 1.86-.41a80.4 80.4 0 0 1 5.35 0Zm1.56 13.53-.14-.14-1.26 1.05.62.3c.27-.4.52-.8.78-1.21Zm-1.1 1.97c-.53-.58-.8-.21-1.16.35l.65.64.52-.99Zm-4.68 3.84c.77.02 1.68-.42 2.82-1.36l-.94-.8-1.88 2.16Zm2.34-2.52c.68.82.83.82 1.4.01l-.66-.7-.74.7Zm-5.15-2.47a4 4 0 0 0-1.47-2.87c-1.16-1.02-2.33-2.02-3.9-2.44-1.61-.42-2.67.17-3.47 1.69a12.88 12.88 0 0 0-1.23 4.97c.1 2.21.48 4.26 1.1 6.26.1.32.26.63.45.9.47.66.9.79 1.66.51a7.75 7.75 0 0 0 2.83-1.9c1.01-1.04 1.95-2.14 2.9-3.23.57-.65.9-1.4 1.11-2.25.14-.56.06-1.08.02-1.64Zm.32-.36c.09.66.58 1 1.25.76 1.1-.37 1.96-.98 2.2-2.23.13-.7-.28-1.29-.99-1.3-1.13-.01-2.6 1.64-2.46 2.77Zm-1.97-11.23c-.12.5-.34.97-.4 1.47-.14 1.33.11 2.57 1.13 3.53.9.87 1.81 1.72 2.74 2.56.38.34.82.38 1.37.41 1.5.07 2.47-.71 3.52-1.6 1.16-1 2.26-2.05 3.16-3.27a10 10 0 0 0 1.27-2.39c.34-.9.1-1.35-.68-1.89a6.96 6.96 0 0 0-3.7-1.17c-.85-.04-1.69 0-2.53 0v-.2c-1.18.12-2.36.18-3.52.36a2.7 2.7 0 0 0-2.36 2.19Zm81.66 21.76c-.06-.22-.1-.44-.17-.65-.3-.89-.57-1.8-.94-2.66a5.32 5.32 0 0 0-2.06-2.31 2.26 2.26 0 0 0-2.56-.02c-.1-.46.13-.58.39-.66a2.8 2.8 0 0 1 2.67.5c1.78 1.36 2.64 3.26 2.95 5.44.02.12-.04.24-.07.36h-.2Z"/><path d="M70.86 99.32c-1.3.33-2.32-.14-3.13-1.1-.56-.67-.91-1.43-.78-2.22-.06-2.16 1.03-3.55 2.6-4.64.41-.3.9-.46 1.43-.28 1.08.36 2.02.94 2.7 1.86.47.64.76 1.39.72 2.18a4.67 4.67 0 0 1-3.54 4.2Zm2.2-6.43c-.56-.51-1.24-.9-1.89-1.3a1.17 1.17 0 0 0-1.42.13c-.92.82-1.95 1.57-2.22 2.89-.1.42-.15.85-.23 1.28-.04.85.3 1.55.83 2.14.69.78 1.54 1.15 2.61.88a4.2 4.2 0 0 0 3.22-3.83 2.8 2.8 0 0 0-.9-2.2Zm7.49-11.78a4.7 4.7 0 0 1 3.13 2.8c.36.91.3 1.78-.24 2.6a6.46 6.46 0 0 1-3.5 2.6c-1.13.35-2.24.15-3.1-1.1-.59-.84-.67-1.81-.78-2.62-.02-1.98 1.61-4 3.4-4.32a2.4 2.4 0 0 1 1.1.03v.01Zm-4.07 4.5c.08.34.18.98.39 1.57.47 1.28 1.74 1.96 3 1.5a6.4 6.4 0 0 0 3.12-2.27c.57-.78.6-1.6.23-2.48a4.35 4.35 0 0 0-2.81-2.42 1.67 1.67 0 0 0-.8-.03c-1.64.26-3.2 2.17-3.13 4.13Z"/><path d="M69.7 97.15a1.8 1.8 0 0 1-.87-1.72c.02-.69.27-1.2.7-1.47.1-.07.23-.13.36-.16a2.03 2.03 0 0 1 2.33 1.5c.2.73.07 1.43-.51 1.96-.43.38-1.37.3-2-.1Zm.64-2.68c-.6-.03-1.09.45-1.1 1.08 0 .8.73 1.5 1.59 1.53.65 0 1.02-.43 1.04-1.22 0-.84-.54-1.34-1.53-1.4Z"/><path d="M68.84 95.43c0-.69.26-1.2.68-1.46-.42.26-.68.78-.68 1.47Zm12.93-9.94c-.01.97-.84 1.7-1.9 1.69-.88-.02-1.6-.92-1.58-2.01 0-.86.64-1.58 1.38-1.57 1.12 0 2.12.9 2.1 1.89Zm-.93-1c-.13-.11-.28-.2-.42-.27-.97-.47-1.45-.18-1.53.88l-.02.3c-.01.64.2 1.08.63 1.26a.9.9 0 0 0 .19.06c.52.12 1.3-.25 1.54-.72.27-.53.13-1.09-.4-1.52Z"/></g><defs><clipPath id="a"><path fill="#fff" transform="matrix(-1 0 0 1 338 0)" d="M0 0h338v199h-338z"/></clipPath></defs></svg>