<svg viewBox="0 0 95 36" fill="none" xmlns="http://www.w3.org/2000/svg"><path d="M24.78 20.51c0-3.47.5-6.04 1.32-8.57.33-1 .6-2 .94-3a17.76 17.76 0 0 1 1.93-4.16c.58-.9 1.25-1.73 2.06-2.44a4.7 4.7 0 0 1 2.23-1.19c.49-.09 1-.15 1.5-.14 1.05.01 2.09.18 3.1.47a4.16 4.16 0 0 1 2.88 2.6c.34.89.57 1.8.72 2.74.23 1.44.44 2.88.61 4.33.16 1.4.14 2.8 0 4.2a45.41 45.41 0 0 1-2.53 10.99c-.19.5-.3 1.04-.47 1.56a20.19 20.19 0 0 1-1.58 3.84c-.44.79-.94 1.53-1.55 2.2a3.46 3.46 0 0 1-3.03 1.23 4.73 4.73 0 0 1-1.57-.45 7.1 7.1 0 0 0-.75-.3 5.56 5.56 0 0 1-2.18-1.36 10.77 10.77 0 0 1-2.5-4.06 15.21 15.21 0 0 1-.87-4.09c-.13-1.73-.2-3.47-.26-4.4Zm3 11.01-.12-.21-.05.04.18.17c.06.21.2.38.38.5l.18.29.06-.05-.24-.24-.38-.5Zm12.56-16.23h.03v-2.58c-.03-1.17-.25-2.31-.44-3.46a5.94 5.94 0 0 0-.78-2.18 5.67 5.67 0 0 0-3.44-2.62 8.2 8.2 0 0 0-2.2-.22c-.5 0-1.02.08-1.51.22a.92.92 0 0 0-.48.28c-.29.35-.6.68-.87 1.04a23 23 0 0 0-3.05 5.63 30.75 30.75 0 0 0-1.84 8.1c-.16 1.86-.12 3.7.27 5.52.31 1.52.89 2.93 1.83 4.17.42.57.91 1.07 1.5 1.47.72.48 1.5.7 2.36.6.66-.07 1.27-.3 1.83-.65.65-.4 1.2-.92 1.7-1.49.75-.86 1.4-1.81 1.99-2.79a30.05 30.05 0 0 0 2.82-6.47 5.5 5.5 0 0 0 .28-1.7v-2.87Zm-13.77 12.77v.1l.11.32a13.1 13.1 0 0 0 2.8 4.25c.45.45.92.86 1.46 1.2.12.08.27.15.4.16.39.01.78.02 1.16-.03a5.4 5.4 0 0 0 2.31-1.02 8.15 8.15 0 0 0 2.24-2.5 24.29 24.29 0 0 0 2.03-4.45l.74-3.57c.04-.18.06-.36.08-.54a.9.9 0 0 0-.2.32 24.86 24.86 0 0 1-3.36 6.2 18 18 0 0 1-1.28 1.5 5.86 5.86 0 0 1-1.95 1.37c-1.53.66-2.97.5-4.3-.52a8.7 8.7 0 0 1-2.03-2.42l-.21-.37Zm14.29-11.58.04.01.07-.29c.26-1.3.43-2.6.48-3.93.03-1.06.07-2.12-.2-3.16-.22-.88-.5-1.75-.8-2.61a8.74 8.74 0 0 0-.73-1.5 3.91 3.91 0 0 0-2.5-1.83 7.36 7.36 0 0 0-2.19-.17c-.51.02-.99.17-1.45.38l-.63.32.02.06h1.27c.91.05 1.8.2 2.62.6a6.1 6.1 0 0 1 3.4 4.22c.4 1.7.64 3.44.6 5.2-.02.9 0 1.8 0 2.7Zm-12.7-9.17.1-.04.14-.2a15.57 15.57 0 0 1 2.48-2.76 6.92 6.92 0 0 1 5.74-1.74c1.59.2 2.82.96 3.62 2.37.13.21.24.44.36.66l.12.23.07-.02c-.16-.5-.3-1-.48-1.49a3.67 3.67 0 0 0-2.64-2.4c-.85-.23-1.72-.36-2.6-.42-.62-.04-1.24 0-1.85.15-.86.22-1.55.72-2.17 1.32a12.8 12.8 0 0 0-2.56 3.64l-.32.7Zm8.88 24.2a7.72 7.72 0 0 1-4.6 3.07l.25.08a2.94 2.94 0 0 0 2.68-.81 9.99 9.99 0 0 0 1.65-2.25l.02-.09Zm-7.34-25.28c-2.19 2.52-3.2 5.53-3.7 8.76a27.16 27.16 0 0 1 3.7-8.76Zm11.7 10.54a17.7 17.7 0 0 0-.83 4.45c.37-1.51.65-2.97.82-4.45Zm-36.13-12.06c-.62.46-1.31.84-1.7 1.55a5.37 5.37 0 0 0-.62 2.2c0 .08.01.18-.02.24-.04.07-.13.16-.2.17a.28.28 0 0 1-.21-.14.61.61 0 0 1-.05-.3 5.8 5.8 0 0 1 .86-2.7l.07-.1c.04-.37.31-.6.53-.84a7.14 7.14 0 0 1 1.99-1.53 12.7 12.7 0 0 1 4.8-1.54c1.07-.1 2.15-.22 3.23-.04.3.05.6.12.89.21 1.08.38 1.58 1.1 1.59 2.24 0 .63-.1 1.26-.29 1.86-.3.9-.52 1.8-.76 2.72a25.9 25.9 0 0 1-1.68 4.34c-.24.5-.45 1.01-.65 1.53-.4 1.04-.84 2.06-1.37 3.04-1.36 2.55-2.74 5.1-4.2 7.6-.94 1.58-1.8 3.2-2.68 4.81-.24.44-.43.91-.64 1.37-.04.1-.06.21-.1.36l.28-.07c1.52-.43 3.07-.62 4.65-.6 1.09.02 2.18-.05 3.27-.11 1.68-.1 3.35-.23 5.03-.31.98-.06 1.96-.06 2.93-.1.33 0 .65-.04.98-.05.33 0 .67.02 1 .05.32.03.4.19.3.48l-.14.32c.28 0 .52.06.76-.04.14-.06.24-.06.32.08.07.1.03.27-.1.36a.56.56 0 0 1-.23.08c-.17.02-.35.02-.53.03l-3.27.16-3.87.19c-2.08.1-4.16.18-6.24.31-1.7.12-3.38.37-5.03.8-.65.18-1.28.4-1.88.72l-.17.1c-.31.13-.4.1-.59-.22-.06.04-.12.1-.2.12-.08.02-.2.02-.25-.03-.06-.04-.07-.16-.08-.24 0-.05.04-.1.06-.15.8-1.52 1.59-3.05 2.43-4.55.71-1.27 1.5-2.5 2.24-3.76 1.38-2.35 2.81-4.68 4.03-7.12.97-1.94 1.91-3.9 2.87-5.85.36-.72.72-1.45 1.11-2.15.22-.4.35-.8.42-1.24.17-1.04.27-2.08.3-3.13 0-.4-.02-.8-.1-1.2-.05-.3-.18-.59-.31-.87-.33-.69-.9-1.02-1.66-1.08a6.54 6.54 0 0 0-2.58.24c-.72.23-1.44.48-2.13.77a5.78 5.78 0 0 0-2.37 1.82 9.42 9.42 0 0 0-1.63 2.9c-.07.2-.09.4-.12.6-.02.2-.08.3-.21.3-.13.02-.25-.08-.25-.26 0-.2.02-.42.07-.61.18-.64.46-1.25.8-1.81.37-.62.77-1.2 1.24-1.75l.11-.14-.05-.04Zm-.3 23.93c-.05.05-.1.09-.14.15l-1.83 3.22-.1.24.33-.14c.2-.05.27-.18.33-.37.07-.29.16-.57.29-.83.31-.66.65-1.31.98-1.97l.13-.31.17-.23a.23.23 0 0 0-.14.12l-.02.12Zm1.94-4.3c.07-.09.15-.16.21-.26a155.1 155.1 0 0 0 5.3-9.5c.37-.74.66-1.5.9-2.28 0-.06 0-.12.02-.18-.16.2-.26.42-.37.63l-2.74 5.6c-.95 1.94-2.1 3.77-3.16 5.66-.06.1-.1.22-.15.33l-.19.25.07.04.11-.3Zm9.53 7.36v-.05h-.6l-4.37-.02c-.61 0-1.22-.02-1.83.01-.91.05-1.82.15-2.73.23-.57.05-1.13.09-1.7.16-.91.12-1.76.44-2.55.92a.72.72 0 0 0-.35.55l.23-.09c.49-.17.96-.37 1.46-.5 1.8-.5 3.64-.74 5.5-.87 1.5-.11 3.02-.17 4.53-.24l2.41-.1Zm-2.7-29.07a3.5 3.5 0 0 1 1.18 2.74c0 .74-.06 1.48-.1 2.22 0 .15-.04.3.02.44.16-.34.38-.65.4-1.02.03-.62.06-1.24.06-1.85 0-.42-.08-.84-.24-1.23a2.35 2.35 0 0 0-1.3-1.3h-.01Zm2.08 2.44c.12-.4.14-.8.1-1.22a1.5 1.5 0 0 0-.49-1.08 2.31 2.31 0 0 0-1.25-.53c.48.32.9.69 1.18 1.2.28.5.36 1.07.46 1.63Zm6.12 25.93-4.78.17c.25.04.5.04.75.05 1.19.04 2.37.1 3.56.15.3.01.35-.03.47-.38Zm27.19.24 1.5-.18a153.14 153.14 0 0 1 8.7-.76c1.58-.1 3.17-.15 4.75-.2.93-.02 1.85-.02 2.77-.12.26-.03.53 0 .79.03.08 0 .16.05.23.1.2.13.22.39 0 .5-.2.1-.43.17-.65.22a2.1 2.1 0 0 1-.5.01 41.98 41.98 0 0 0-4.29.1c-.81.06-1.64.07-2.45.13-1.36.1-2.72.21-4.08.35-1.53.16-3.06.27-4.59.36-.95.05-1.9.16-2.85.25-.48.05-.96.12-1.44.16-.15.02-.32 0-.47-.04-.18-.04-.25-.17-.23-.36.02-.13.06-.26.1-.4.2-.58.52-1.12.89-1.62 1.37-1.88 2.72-3.78 4.2-5.58a43.84 43.84 0 0 0 3.8-5.48l3.53-5.89c.13-.22.25-.46.4-.68.55-.85.78-1.8.82-2.8a16.2 16.2 0 0 0-.55-5.14c-.14-.5-.39-.91-.83-1.19-.39-.24-.8-.4-1.27-.4a9.47 9.47 0 0 0-2.79.45 13.43 13.43 0 0 0-4.74 2.48 2.88 2.88 0 0 0-1.17 1.97c-.04.36-.12.72-.17 1.08-.02.19-.03.37.17.5.14.09.1.27-.05.41-.12.13-.27.15-.39.02s-.21-.29-.31-.43c-.23-.33-.34-.7-.36-1.1a4.9 4.9 0 0 1 .17-1.52c.18-.66.46-1.29.79-1.88.3-.55.74-.97 1.28-1.28.47-.27.91-.59 1.35-.9a8.35 8.35 0 0 1 3.9-1.51 7.37 7.37 0 0 1 3.51.57c.61.24 1.14.6 1.6 1.05a5.4 5.4 0 0 1 1.52 3.08c.15.96.07 1.93-.04 2.89a17.33 17.33 0 0 1-1.64 5.49c-.88 1.84-1.92 3.58-2.96 5.34-1.57 2.66-3.35 5.18-5.06 7.74-.5.73-.98 1.47-1.46 2.2-.4.63-.82 1.25-1.32 1.81l-.1.17h-.01Zm11.84-21.42a.5.5 0 0 0-.04-.02l-.07.1c-.31.78-.74 1.52-.95 2.35-.06.24-.17.48-.26.7-.31.82-.78 1.56-1.18 2.33a60.82 60.82 0 0 1-3.96 6.32c-1.8 2.56-3.68 5.05-5.4 7.67-.44.68-.82 1.38-1.23 2.08-.04.07-.06.14-.09.22l.05.04.19-.1.2-.2c.26-.24.55-.45.78-.72.34-.4.64-.83.93-1.26.81-1.2 1.6-2.42 2.4-3.62 1.28-1.9 2.6-3.77 3.78-5.73 1.08-1.8 2.18-3.59 3.12-5.46a20.22 20.22 0 0 0 1.62-4.22l.1-.48Zm-11.4-4.7a15.04 15.04 0 0 1 6.3-2.89 4.18 4.18 0 0 0-1.9.05c-1.03.2-2 .58-2.99.96a.59.59 0 0 0-.19.11 5.5 5.5 0 0 0-1.23 1.77Zm11.01 4c.05-.04.07-.05.07-.07.49-1.36.6-2.74.27-4.14a2.75 2.75 0 0 0-1.16-1.7c-.05-.04-.12-.05-.17-.07.87 1.9.93 3.93 1 5.98Zm-1.37-6.74a6.41 6.41 0 0 0-6.3-.36c.02 0 .03.02.04.01l.18-.05a7.3 7.3 0 0 1 4-.04c.69.18 1.39.3 2.08.44Zm-8.48 23.65-.04-.03-.2.24-2.85 3.89c-.23.32-.41.68-.6 1.03-.09.16-.14.34-.21.54.18 0 .34.07.43-.14.35-.85.84-1.62 1.34-2.38l1.97-2.9.16-.25Zm-1.36-21.72a5.75 5.75 0 0 0-1.17 2.5c.12-.15.25-.3.31-.48.24-.7.52-1.37.86-2.02Zm25.36 26.93 1.51-.18c1.37-.15 2.74-.3 4.1-.42 1.54-.13 3.07-.26 4.6-.35 1.58-.09 3.17-.14 4.75-.18.92-.03 1.85-.03 2.77-.13.26-.03.52 0 .78.03.08 0 .16.05.23.1.21.13.23.39 0 .5-.2.1-.42.17-.65.22-.16.03-.33.02-.5.01a41.99 41.99 0 0 0-4.28.1c-.82.06-1.64.07-2.46.13-1.36.1-2.72.21-4.08.35a99.7 99.7 0 0 1-4.58.36c-.96.05-1.9.16-2.86.25-.48.05-.96.12-1.44.16-.15.02-.31 0-.46-.04-.18-.04-.26-.17-.23-.36.02-.13.06-.26.1-.4.2-.58.52-1.12.88-1.62 1.38-1.88 2.72-3.78 4.2-5.58a43.84 43.84 0 0 0 3.8-5.48l3.53-5.89c.14-.22.25-.46.4-.68.56-.85.78-1.8.83-2.8a16.2 16.2 0 0 0-.56-5.14c-.14-.5-.38-.91-.82-1.19-.4-.24-.8-.4-1.27-.4a9.53 9.53 0 0 0-2.8.45 13.43 13.43 0 0 0-4.73 2.48 2.88 2.88 0 0 0-1.18 1.97c-.04.36-.12.72-.16 1.08-.02.19-.03.37.17.5.13.09.09.27-.05.41-.13.13-.27.15-.4.02-.11-.13-.2-.29-.3-.43-.23-.33-.34-.7-.36-1.1a4.9 4.9 0 0 1 .16-1.52c.19-.66.46-1.29.8-1.88.3-.55.73-.97 1.27-1.28.47-.27.92-.59 1.36-.9a8.35 8.35 0 0 1 3.9-1.51 7.37 7.37 0 0 1 3.5.57c.62.24 1.14.6 1.6 1.05.87.85 1.34 1.9 1.52 3.08.15.96.08 1.93-.03 2.89a17.33 17.33 0 0 1-1.65 5.49c-.87 1.84-1.91 3.58-2.95 5.34-1.57 2.66-3.35 5.18-5.07 7.74l-1.45 2.2a14.7 14.7 0 0 1-1.32 1.81l-.11.17Zm11.84-21.42a.5.5 0 0 0-.04-.02c-.02.03-.05.06-.06.1-.32.78-.75 1.52-.95 2.35-.06.24-.17.48-.26.7-.32.82-.78 1.56-1.19 2.33a60.82 60.82 0 0 1-3.96 6.32c-1.79 2.56-3.68 5.05-5.39 7.67-.44.68-.83 1.38-1.24 2.08a.83.83 0 0 0-.08.22l.04.04.2-.1.2-.2c.25-.24.55-.45.78-.72.33-.4.64-.83.93-1.26l2.4-3.62c1.27-1.9 2.6-3.77 3.77-5.73 1.08-1.8 2.18-3.59 3.12-5.46a20.22 20.22 0 0 0 1.63-4.22l.1-.48Zm-11.4-4.7a15.04 15.04 0 0 1 6.31-2.89 4.18 4.18 0 0 0-1.9.05c-1.03.2-2.01.58-2.99.96a.59.59 0 0 0-.19.11 5.5 5.5 0 0 0-1.23 1.77Zm11.02 4 .07-.07c.48-1.36.6-2.74.27-4.14a2.75 2.75 0 0 0-1.17-1.7c-.05-.04-.12-.05-.17-.07.88 1.9.93 3.93 1 5.98Zm-1.37-6.74a6.41 6.41 0 0 0-6.3-.36c.01 0 .02.02.03.01l.18-.05a7.3 7.3 0 0 1 4-.04c.7.18 1.4.3 2.09.44Zm-8.48 23.65c-.02 0-.03-.02-.05-.03l-.2.24-2.84 3.89c-.23.32-.42.68-.6 1.03-.1.16-.14.34-.22.54.19 0 .35.07.44-.14.35-.85.83-1.62 1.34-2.38.64-.97 1.3-1.93 1.96-2.9.06-.07.11-.16.17-.25Zm-1.36-21.72a5.75 5.75 0 0 0-1.17 2.5c.12-.15.25-.3.3-.48.24-.7.53-1.37.87-2.02Z" fill="#8BA6C3" stroke="#8BA6C3" stroke-width="1.482" stroke-miterlimit="10" stroke-linejoin="round"/></svg>