<svg viewBox="0 0 120 100" fill="none" xmlns="http://www.w3.org/2000/svg"><path d="M57.44 68.63v-12.05c.02-3.2.22-6.4.45-9.6a220.73 220.73 0 0 0 .61-13.29c.04-1.84.09-3.69.06-5.52-.05-2.74-.17-5.47-.37-8.2-.14-1.86-.23-3.72-.28-5.6-.06-2.45-.05-4.9-.07-7.35 0-.4.03-.76-.26-1.1-.2-.24-.07-.55.29-.75a5.6 5.6 0 0 1 2.25-.8c.83-.06 1.64-.24 2.44-.48.55-.17 1.13-.24 1.7-.32 1.85-.24 3.7-.42 5.55-.41h2.83c2.07 0 4.14.12 6.2.49 1.63.3 3.27.53 4.9.81a28.2 28.2 0 0 1 6.28 1.88l3.9 1.66c1.33.57 2.6 1.26 3.8 2.06l4.22 2.82c1.06.7 2.07 1.5 3.02 2.35l2.34 2.14c1.19 1.1 2.25 2.3 3.19 3.62.27.39.53.78.81 1.16 2.74 3.77 4.27 8.04 5.16 12.58.45 2.28.63 4.58.65 6.9.02 2.03 0 4.07-.06 6.1a76.97 76.97 0 0 1-.54 6.5l-.57 5a63.87 63.87 0 0 1-1.5 8.55c-.21.81-.48 1.6-.78 2.38a40.38 40.38 0 0 1-6.73 11.18c-.6.7-1.23 1.37-1.9 1.99a45.51 45.51 0 0 1-8.89 6.43l-2.49 1.34a37.82 37.82 0 0 1-10.12 3.65c-1.46.32-2.94.56-4.4.84-.66.12-1.31.23-1.96.39-1.97.46-3.95.47-5.94.2-2.83-.37-5.64-.8-8.47-1.2-1.14-.17-2.29-.37-3.44-.5-.52-.07-.74-.35-.83-.8-.08-.4-.14-.82-.19-1.23a93.2 93.2 0 0 1-.57-7.93c-.07-2.37-.2-4.73-.26-7.1-.06-2.93-.07-5.86-.1-8.79h.07Zm36.57 20.92c.14.01.28.01.34-.15l.38-.13.4-.1c.06-.17.17-.21.33-.19.04-.06.08-.13.14-.17.15-.1.16-.22.12-.37.17.13.35.09.54.04l.74-.6c.7-.24 1.32-.62 1.85-1.14.22-.03.41-.11.47-.36.26.03.4-.12.5-.33.3-.07.53-.22.68-.5.23-.05.4-.17.61-.5-.32.19-.55.25-.6.51-.3.05-.57.17-.67.5-.27-.04-.43.08-.5.33-.26-.03-.42.1-.53.3-.67.27-1.23.7-1.79 1.13v.08c-.35 0-.58.19-.77.44-.02.02.01.1.01.14l-.54-.04c-.02.21-.34.27-.26.54-.15-.02-.25.05-.32.18-.16-.03-.34-.16-.4.12-.14-.03-.3-.06-.37.13-.14 0-.28 0-.34.16l-.42.09c-.35.15-.7.31-1.07.44-2.7.93-5.43 1.74-8.18 2.5-1.34.36-2.72.45-4.1.65-1.15.16-2.3.21-3.47.16a3.36 3.36 0 0 0-.83.04c-1.12.23-2.24.33-3.38.34-.22 0-.44.03-.66.05-1.7.18-3.4.45-5.13.43-.07 0-.15.03-.27.05.55.26 1.11.27 1.65.34 1.48.2 2.96.4 4.45.55.99.1 1.99.1 2.97-.08l3.92-.73c1.66-.33 3.32-.62 4.96-1 2.95-.7 5.78-1.72 8.46-3.16.22-.12.44-.23.65-.37.04-.03.02-.14.03-.21.17.1.32.12.4-.11Zm-3-81.52c.03.03.05.08.09.1.02.01.07-.03.1-.05l-.06-.04h-.15c-.07-.06-.14-.15-.23-.2a29.1 29.1 0 0 0-5.85-2.01c-1.24-.26-2.49-.48-3.73-.72l-.44-.03v.03h.44c.05.07.09.17.15.19l.96.22c1.34.33 2.68.64 4 1.02 1.3.39 2.56.86 3.85 1.29.28.1.58.13.87.2Zm12.17 75.37c.16-.1.33-.2.48-.32 1-.84 1.9-1.77 2.74-2.79 2.52-3.1 4.6-6.48 6.1-10.2.36-.87.67-1.77.92-2.68.27-1.02.46-2.07.67-3.1.08-.38.12-.76.17-1.14-.17.24-.25.5-.33.76a44.05 44.05 0 0 1-1.55 4.59c-.58 1.45-1.18 2.89-1.74 4.34a22.77 22.77 0 0 1-4.52 7.25c-.83.9-1.69 1.77-2.52 2.66-.17.18-.32.38-.48.57-.37.26-.64.55-.81.85l.67-.54c.08-.07.13-.16.2-.25Zm-43.17 9.73c.48.18.87.36 1.34.27 1.4-.24 2.81-.18 4.22-.21 1.55-.04 3.1-.03 4.65-.26a25.8 25.8 0 0 1 2.23-.2c1.02-.07 2.04-.13 3.05-.3.52-.1 1.05-.16 1.57-.12a11 11 0 0 0 2.07-.05l1.82-.2a22.9 22.9 0 0 0 3.83-.7l6.44-1.96a16.5 16.5 0 0 0 3.56-1.58 56.98 56.98 0 0 0 5.03-3.26c.78-.58 1.54-1.19 2.25-1.85 1.4-1.3 2.72-2.7 3.96-4.17 1.37-1.63 2.5-3.4 3.3-5.39.82-2.01 1.65-4.02 2.42-6.05a50.69 50.69 0 0 0 2.23-8.22c.56-2.8.84-5.62.82-8.48a139.9 139.9 0 0 0-.16-7.1c-.16-3.02-.5-6-1.2-8.95a41.99 41.99 0 0 0-2.29-7.24c-1.61-3.7-3.77-7-6.8-9.7-.47-.42-.93-.87-1.41-1.29a38.25 38.25 0 0 0-8.25-5.43c-.52-.25-1.07-.48-1.61-.67l-5.42-1.87a43.67 43.67 0 0 0-4.87-1.4c-2.13-.48-4.27-.96-6.4-1.46-1.78-.43-3.6-.6-5.43-.59-2.82.02-5.64.24-8.45.51a7.4 7.4 0 0 0-2.34.56 5 5 0 0 0-.17 1.33v2c.06 3.08.14 6.14.15 9.21.03 6.67.01 13.34.01 20l.01 1.01.16 9.8.08 4.26.21 8.7c.03 1.45.02 2.9.05 4.35.06 2.63.17 5.25.22 7.87.05 3.1-.04 6.19-.24 9.28-.2 3.17-.33 6.35-.64 9.55Zm-.74-47.81c-.08.17-.1.2-.11.25-.2.88-.18 1.77-.26 2.66a118.5 118.5 0 0 0-.38 8.94c-.06 5.44-.04 10.88-.05 16.32 0 .92.01 1.84.04 2.76l.23 5.93.23 5.69c.02.44.03.9.26 1.44l.04-.72c.08-1.37.14-2.73.24-4.1.26-3.5.33-7.01.27-10.53l-.15-6.43c-.04-2.01-.03-4.02-.08-6.03-.05-2.45-.16-4.9-.22-7.35-.04-2.15-.04-4.3-.06-6.45v-2.38Zm56.6.89c.1-.49.2-.97.2-1.47-.04-1.31-.05-2.62-.08-3.93a35.53 35.53 0 0 0-1.2-8.51 28.28 28.28 0 0 0-4.29-9.37c-.13-.2-.28-.38-.43-.58l-.06.1c.05.13.1.26.18.38a35.96 35.96 0 0 1 3.83 9.32 47.35 47.35 0 0 1 1.63 9.88l.22 4.17Zm-14.1 38.33-.28.17c-.02.02 0 .07 0 .11.02 0 .05 0 .06-.02.05-.05.1-.1.22-.26Zm-10.09-76.25-.04-.04-.01.04h.05Zm18.07 13.65c0-.03-.02-.05-.03-.08l-.04.06c0 .03.02.05.03.08l.05-.06Zm-104.15 71.62c.38.14.68.03.96 0 .68-.11 1.36-.27 2.04-.36 1.95-.28 3.9-.59 5.84-.8 2.84-.3 5.68-.54 8.52-.77 1.8-.14 3.6-.17 5.39-.29a64.56 64.56 0 0 1 13.9.74c1.32.22 2.6.57 3.84 1.05.23.1.46.2.67.33.23.15.3.42.22.66a.53.53 0 0 1-.6.35c-.4-.07-.81-.16-1.2-.3-1.51-.61-3.11-.75-4.71-.9a120.6 120.6 0 0 0-15.43-.33c-1.74.05-3.48.29-5.2.5-2.12.28-4.22.63-6.33.92-1.74.24-3.41.71-5.05 1.34-1.4.53-2.78 1.1-4.24 1.46-.35.08-.7.18-1.05.23-.87.1-1.36-.53-1.1-1.37.14-.45.56-.75.58-1.27.02-.48.33-.88.58-1.28.25-.4.51-.8.78-1.18.16-.23.32-.47.5-.67a14.57 14.57 0 0 0 2.3-3.66c.63-1.34 1.3-2.65 1.96-3.97.94-1.9 1.94-3.77 3.1-5.54 2.73-4.2 5.28-8.5 7.85-12.8 2.12-3.54 4.2-7.1 6.3-10.65a66.38 66.38 0 0 0 3.85-7.68c1.47-3.46 2.99-6.9 4.24-10.45a62.04 62.04 0 0 0 2.67-10.18 35 35 0 0 0 .55-7.33c-.07-1.7-.3-3.38-.7-5.04-.07-.33-.2-.64-.33-.95a18.93 18.93 0 0 0-3.77-5.46 3.2 3.2 0 0 0-.58-.47 25.76 25.76 0 0 0-7.34-3.26 11.18 11.18 0 0 0-4.03-.3c-.83.09-1.65.25-2.46.39-.7.11-1.33.4-1.9.8a16.36 16.36 0 0 0-5.32 5.42c-.4.7-.79 1.41-1.2 2.11-.27.49-.56.96-.85 1.43-.12.2-.26.37-.4.54-.21.24-.48.4-.81.28-.33-.1-.48-.4-.5-.7-.01-.42-.01-.85.07-1.25.2-1.02.64-1.96 1.14-2.86.15-.26.3-.53.4-.82a7.25 7.25 0 0 1 2.33-3.3c.65-.52 1.34-.99 2.07-1.4a20.26 20.26 0 0 1 7.55-2.4c4.85-.6 8.98 1.02 12.68 4.05.7.58 1.3 1.28 1.84 2.03.18.25.39.47.58.7.56.66 1.14 1.3 1.68 1.97.38.48.7 1 1.05 1.5a16.46 16.46 0 0 1 2.75 6.67c.47 2.65.61 5.3.46 8a50.04 50.04 0 0 1-2.65 12.98 90.6 90.6 0 0 1-9.16 19.55 365.14 365.14 0 0 1-10.3 15.7c-1.68 2.43-3.35 4.86-5.05 7.26a102.32 102.32 0 0 1-8.62 10.62c-.1.12-.2.24-.36.4v.01Zm3.13-81.72c.22 0 .21-.15.2-.3.18 0 .19-.17.26-.27.01-.03-.01-.12-.04-.13-.03-.02-.12 0-.13.02-.04.13-.05.26-.08.39-.2.02-.16.18-.19.3l-.1.12.04.05.04-.18Zm25.55 36.91c.09-.05.2-.1.25-.18.13-.2.24-.44.34-.67a84.28 84.28 0 0 0 2.68-6.74c1.49-4.28 2.68-8.62 3.04-13.16.24-3.07.16-6.13-.46-9.15a14.94 14.94 0 0 0-2.38-5.66c-.07-.1-.16-.18-.24-.27 0 .34.08.62.18.9.46 1.28.95 2.56 1.4 3.85.35.97.63 1.96.78 2.98.2 1.44.28 2.89.3 4.34a31.7 31.7 0 0 1-.88 8.12c-1.28 5.2-2.88 10.3-4.82 15.29-.05.12-.13.24-.19.37v.2h.02c0-.07 0-.14-.02-.21Zm4.22-29a44.92 44.92 0 0 1-.71 7.55 64.29 64.29 0 0 1-2.68 10c-1.17 3.34-2.6 6.58-3.97 9.84a74.93 74.93 0 0 1-4.44 8.88c-4.43 7.54-8.84 15.07-13.55 22.43a59.96 59.96 0 0 0-3.29 5.82c-.1.2-.27.4-.26.76l.32-.38c1.3-1.78 2.75-3.43 4.13-5.14 4.57-5.64 8.9-11.47 12.8-17.6a51.84 51.84 0 0 0 3.97-7.44c2.8-6.5 5.2-13.14 7.01-20a34.66 34.66 0 0 0 1-13.34 4.02 4.02 0 0 0-.33-1.38Zm-33.83 74.85a3.93 3.93 0 0 0-1.32 1.57c1-.08 4.37-1.23 5.48-1.9-.74.13-1.37.21-1.98.34-.74.16-1.48.24-2.19-.01Zm8.81-12.6c-1.79 2-3.33 4.21-4.99 6.33-.02.03 0 .1 0 .15a45.9 45.9 0 0 0 5-6.49Zm-5.65 7.17.11.09.31-.4-.09-.08-.33.39Zm1.95-79.25c.1-.03.33-.05.2-.25l-.2.25Z" fill="#fff" stroke="#fff" stroke-width="4" stroke-miterlimit="10" stroke-linejoin="round"/></svg>