<svg viewBox="0 0 123 113" fill="none" xmlns="http://www.w3.org/2000/svg"><path d="M27.06 37.8c-.29.37-.42.8-.51 1.24a71.23 71.23 0 0 0-.58 3.23c-.08.52-.04 1.05.11 1.56.1.33.18.68.22 1.02.07.5-.14.77-.63.83-1.53.2-3.06.38-4.6.56-.36.04-.74.06-1.11.06-1.98.03-3.93.26-5.86.65-.25.05-.5.09-.74.1-.36.03-.69-.07-.96-.33a3.53 3.53 0 0 0-1.88-.84 2.46 2.46 0 0 1-.97-.36 2.82 2.82 0 0 0-1.04-.4c-.41-.09-.83-.19-1.25-.24-1-.11-1.95-.35-2.9-.67a4.4 4.4 0 0 0-.86-.24c-.52-.07-.89-.3-1.07-.84-.19.03-.35.06-.52.07-.25 0-.43-.15-.46-.4a1.42 1.42 0 0 1 0-.37c.03-.3.13-.59 0-.88a.32.32 0 0 1 0-.23c.33-.95.3-1.96.4-2.95.43-4.2 1.57-8.16 3.6-11.87a54 54 0 0 1 3.72-5.78c.53-.73 1.13-1.4 1.7-2.1.43-.5.94-.88 1.53-1.17.25-.12.5-.23.74-.37a15.57 15.57 0 0 1 5.9-1.74l3.56-.46c.52-.07 1.03-.2 1.54-.32.83-.2 1.67-.27 2.52-.28 1.02-.03 2.04-.09 3.06-.1.6 0 1.2.03 1.79.1 1.11.13 2.23.24 3.33.47 1.16.25 2.3.62 3.44.97.57.17 1.13.4 1.68.6l.5.2c.55.21 1.1.43 1.65.67.32.14.64.29.92.5.51.38.53.6.17 1.18.18.26.47.35.74.47.56.26 1.14.5 1.69.79 1.38.73 2.54 1.74 3.49 3l1.04 1.36.3.34c.05-.15.1-.23.1-.3.03-.8.06-1.6.06-2.4 0-2.95.1-5.89.3-8.83l.39-6.12.04-1.04c.03-.7.26-1 .9-1.2.83-.26 1.66-.53 2.5-.76.83-.23 1.69-.42 2.53-.63 1.28-.33 2.55-.68 3.84-1a45.5 45.5 0 0 1 5.3-.87l4-.49a16.8 16.8 0 0 1 3.43-.15c.82.06 1.65.05 2.46.15 1.01.12 2.02.32 3.03.48 1.54.26 3.1.48 4.64.78 2.08.4 4.19.62 6.24 1.15.6.16 1.2.35 1.79.54l3.9 1.26c.61.2.63.18.7.89l.98.34c2.85.98 5.63 2.14 8.35 3.45 8.47 4.08 13.09 11.89 14.66 18.5.56 2.4.86 4.81.95 7.27a42.9 42.9 0 0 1-2.25 15.16 65.15 65.15 0 0 1-7.67 16 59.99 59.99 0 0 1-10.98 12.4 26.97 26.97 0 0 1-4.63 3.14c-1.47.8-2.91 1.64-4.38 2.43-.96.53-1.94 1.02-2.93 1.5-.87.42-1.77.8-2.65 1.21-1.09.5-2.22.86-3.4 1.12-.92.2-1.84.41-2.75.67-1.18.34-2.37.57-3.6.61-.75.03-1.49.15-2.23.2-.42.04-.85.06-1.27.05a.57.57 0 0 1-.58-.5c-.04-.25.12-.52.42-.63.16-.07.33-.1.5-.12 1.02-.13 2.03-.28 3.04-.37a21 21 0 0 0 3.6-.67c.94-.26 1.88-.5 2.82-.72.8-.2 1.59-.44 2.33-.8a47.59 47.59 0 0 0 7.18-3.98 34.8 34.8 0 0 1 2.02-1.3 39.12 39.12 0 0 0 5.83-4.28c1.16-1.02 2.34-2.02 3.46-3.1a38.2 38.2 0 0 0 4.96-5.88 74.81 74.81 0 0 0 7.81-14.27c.75-1.83 1.4-3.69 1.9-5.6.4-1.58.63-3.18.6-4.8a40.69 40.69 0 0 0-.94-8.4c-.12-.53-.27-1.06-.43-1.58l-1.93-5.98a20.12 20.12 0 0 0-1.4-3.23c-.57-1.07-1.17-2.14-1.77-3.2a12.88 12.88 0 0 0-2.24-2.89l-2.81-2.69a12.59 12.59 0 0 0-4.76-2.89c-1.58-.53-3.17-1.03-4.76-1.54-1.7-.54-3.41-1.1-5.12-1.63-1.34-.41-2.72-.6-4.12-.73-1.56-.14-3.12-.33-4.67-.52a28.04 28.04 0 0 0-3.36-.22c-2.2 0-4.38.16-6.56.4l-1.86.22c-.16.02-.32.09-.5.14l-.03.62c-.02 1.75.08 3.49.2 5.23.08.9.14 1.8.19 2.7.12 1.96.21 3.93.34 5.9.16 2.33.37 4.67.52 7 .1 1.7.15 3.4.2 5.1.07 2.69.14 5.38.16 8.07.04 4.17.05 8.34.04 12.5-.01 3.1-.03 6.2-.1 9.29-.07 2.79-.23 5.58-.35 8.37-.05 1.05-.1 2.1-.19 3.14-.1 1.42-.23 2.83-.36 4.25-.12 1.34-.27 2.68-.38 4.02-.1 1.22-.17 2.44-.29 3.66-.06.64-.18 1.28-.28 1.92l-.03.15a.5.5 0 0 1-.42.37c-.18.04-.34-.05-.46-.19-.07-.1-.14-.2-.18-.32l-.2-.6c-1.01-.6-2-1.16-3-1.74-.12.19.06.23.13.3a8.33 8.33 0 0 0 1.9 1.43c.22.11.4.28.51.52a.5.5 0 0 1-.13.61.46.46 0 0 1-.56 0c-.77-.59-1.62-1.07-2.31-1.77a5.55 5.55 0 0 0-1.54-1.05c-2-.97-3.88-2.15-5.8-3.25l-.5-.24c-.03.17-.07.29-.07.4l-.07 2.84a18.4 18.4 0 0 1-.76 5.02 9.72 9.72 0 0 1-1.11 2.44c-.28.42-.5.86-.66 1.34a25.2 25.2 0 0 1-2.45 4.95 16.1 16.1 0 0 1-3.5 4.17c-.64.52-1.31.99-2.08 1.3-.12.05-.26.07-.34.15-.61.57-1.42.7-2.17.96-1.22.42-2.45.8-3.69 1.19-.67.2-1.34.37-2.02.52-2.65.59-5.31 1.14-7.96 1.74-1.35.3-2.7.4-4.08.4-1.17-.01-2.34-.06-3.51-.07-.98-.01-1.94-.14-2.9-.31-1.12-.21-2.26-.35-3.38-.6-1.3-.3-2.6-.66-3.9-1.04a12.4 12.4 0 0 1-3.2-1.58 19.76 19.76 0 0 1-2.98-2.38l-1.68-1.7a7.1 7.1 0 0 1-1.26-1.76 21.79 21.79 0 0 1-1.93-4.7 14.81 14.81 0 0 1-.44-3.4c-.03-2.6.28-5.17.82-7.72.14-.64.15-.64.62-1.05v-.14c-.08-.6-.04-.71.52-.88 1.26-.37 2.53-.72 3.8-1.06 1.57-.41 3.14-.83 4.71-1.2.75-.17 1.52-.25 2.29-.34a2 2 0 0 1 1.02.15c.65.28 1.34.37 2.04.47.41.05.83.14 1.24.24.31.07.62.18.93.25.69.16 1.33.4 1.94.76.58.34 1.26.5 1.93.52.7.02 1.3.21 1.89.6.4.27.8.58 1.31.7.23.04.37.24.4.5l.03.28c.1.06.18.13.27.16.33.1.46.33.55.65.2.72.49 1.4.93 2.03.72 1 .96 1.1 2.2.9a9.8 9.8 0 0 0 2.6-.89 9.46 9.46 0 0 0 2.58-1.63c.33-.3.66-.61.87-1.01.21-.4.45-.79.59-1.2.45-1.33.83-2.67 1.08-4.05.27-1.53.3-3.08.29-4.63 0-.74-.03-1.5-.02-2.24.02-.88-.09-1.74-.29-2.6-.11-.48-.2-.97-.28-1.47a1 1 0 0 0-.32-.65 9.29 9.29 0 0 0-2.57-1.77c-.69-.29-1.36-.63-2.08-.8a6.19 6.19 0 0 0-1.04-.15c-.44-.03-.9-.04-1.34-.03-.4 0-.8.05-1.19.09l-.74.09c-.3.03-.62 0-.88.12-.44.19-.88.11-1.32.13a.82.82 0 0 1-.48-.13c-.3-.22-.64-.3-.98-.33-1.3-.1-2.56-.44-3.83-.66-.54-.1-1.05-.3-1.58-.45l-1.64-.52c-.38-.12-.76-.23-1.13-.37-.43-.17-.67-.5-.74-.96a2.43 2.43 0 0 1-.02-.52c.23-2.72.19-5.44.2-8.16 0-.35 0-.7.05-1.04.1-.76.5-1.2 1.25-1.4.32-.07.64-.1.96-.15.76-.1 1.53-.17 2.3-.32a9.4 9.4 0 0 0 4.16-2.08c.77-.63 1.5-1.33 2.21-2.02a9.94 9.94 0 0 0 2.06-2.83c.32-.65.61-1.3.9-1.97.36-.79.48-1.62.46-2.48a2.03 2.03 0 0 0-.65-1.46 8.47 8.47 0 0 0-2.48-1.65 3.34 3.34 0 0 0-1.75-.28Zm88.32 20.36-.18.27-1.16 2.19c-.03.06-.01.14-.02.21-.06.07-.15.12-.2.2l-3.12 5.3c-.06.1-.08.23-.11.34-.21.1-.35.24-.27.49-.23-.03-.27.12-.27.39.1-.18.18-.3.25-.4.16-.13.29-.27.28-.49.07-.06.17-.1.22-.17a58.07 58.07 0 0 0 3.15-5.31c.05-.1.05-.23.07-.35.04-.02.1-.02.12-.06.35-.68.7-1.37 1.04-2.07.03-.08 0-.2 0-.29.21.01.17-.14.18-.27.2-.1.12-.26.08-.4l.3-.1-.02-.11v.12l-.27.1-.07.41Zm-56.6 25.33.12.04.03-.03h-.18l-.04-.13.06.12Zm36.8-1.78.3-.14.34-.38c.16-.05.34-.08.48-.17.61-.39 1.23-.77 1.81-1.2a40.69 40.69 0 0 0 5.24-4.66l.16-.2c-.24.07-.4.22-.56.36-2.25 1.97-4.45 4-6.95 5.66-.07.05-.1.15-.16.23-.32.04-.36.08-.36.36-.1.02-.26-.07-.3.12h-.11l.1.02Zm-53-8.24v.14-.13l-.18-.37-.14-.32c-.02-.1-.02-.2-.06-.29a13 13 0 0 0-2.2-3.6c-.27-.3-.58-.55-.94-.73l-1.42-.8a2.7 2.7 0 0 0-1.1-.45c-.08 0-.18-.09-.23.11l.66.3c.4.21.8.4 1.17.65.6.42 1.18.9 1.76 1.36.04.03.08.06.1.1.53.76 1.05 1.5 1.56 2.27.2.3.33.61.5.91.05.07.14.11.21.16-.03.15-.06.3.15.32-.03.16-.02.3.16.38Zm-3.51-24.08c-.1 0-.29-.17-.25.12l.23-.13.07-.36c.08-.09.18-.17.24-.27.42-.73.83-1.47 1.23-2.21.15-.29.28-.59.38-.9.16-.48.15-.97-.02-1.46-.07.18-.13.3-.17.45-.41 1.33-.9 2.63-1.54 3.87-.08.15-.1.33-.16.49-.16.17-.16.2-.01.4Zm-24.85 44.16c.01-.12.07-.25-.07-.43l.07.43c.1.42.07.88.29 1.32a.6.6 0 0 0 .06-.62c-.1-.23-.08-.54-.35-.7Zm10.95 14.92.1.08h.06c-.01-.04-.03-.09-.05-.1l-.13.03c.04-.17-.11-.2-.21-.24-.76-.35-1.52-.7-2.29-1.03-.03-.02-.07.02-.11.03.53.5 1.64 1.01 2.63 1.23Zm14.77-16.53c.16-.1.32-.22.47-.33.3-.21.62-.4.9-.65.38-.33.52-.59.68-1.1-.35.34-.68.67-1.03.97-.35.3-.73.58-1.09.86l.07.25c-.03-.03-.06-.07-.1-.08-.02 0-.05.03-.08.05.02 0 .04-.01.07 0 .04 0 .07.02.11.03Zm-6.9-73.4c-1.29.08-2.55.34-3.79.68-.18.04-.35.13-.52.2.19.03.35-.02.52-.05a652 652 0 0 1 3.5-.63c.13-.02.23-.07.28-.2l.35.03v-.06l-.34.03Zm-29.89 17.49c.07-.07.17-.12.2-.2.12-.34.22-.7.33-1.06 1.1-3.75.78-2.86 2.34-5.97a36.97 36.97 0 0 1 4.19-6.44 16.64 16.64 0 0 1 4.47-4.04c.75-.44 1.5-.9 2.24-1.35l.44-.34c-1.09.18-1.96.44-2.8.83-.52.25-1.02.53-1.54.77a4.6 4.6 0 0 0-1.58 1.23 43.16 43.16 0 0 0-6 9.26 24.8 24.8 0 0 0-1.75 4.84c-.2.82-.37 1.65-.55 2.47l.04.05v.05l-.03-.1Zm21.78-15.42c-.14.09-.28.2-.44.26a25.54 25.54 0 0 0-8.87 7.06 13.48 13.48 0 0 0-2.64 5.07c-.5 1.81-.7 3.67-.78 5.54v.56c.2-.73.33-1.47.53-2.18a27.94 27.94 0 0 1 3.14-7.25 18.18 18.18 0 0 1 2.24-2.98c.44-.47.9-.94 1.3-1.43a19.08 19.08 0 0 1 4.89-4.02c.19-.12.38-.23.56-.37.06-.04.05-.17.07-.26.04.02.08.04.12.04l.07-.04-.07.02-.12-.02Zm-13.3 24.16c.1 0 .21-.02.32-.04l-.03-.08-.3.13c0-.08.01-.16-.02-.22a6.15 6.15 0 0 1-.45-2.41c-.05-2.4.06-4.79.4-7.16a16 16 0 0 1 3.91-8.43c.85-.95 1.77-1.82 2.72-2.67a23.37 23.37 0 0 1 8.05-4.77 26.5 26.5 0 0 1 5.85-1.47c1.06-.1 2.14-.09 3.21-.14.1 0 .25.08.3-.14l-.26-.12a19.69 19.69 0 0 0-4.85-1.17c-1-.12-1.98-.27-2.97-.32a43.15 43.15 0 0 0-3.36.02c-.6.02-1.2.05-1.78.2a18.8 18.8 0 0 0-6.05 2.48c-.35.23-.71.46-1.08.67a15.5 15.5 0 0 0-4.06 3.6c-.54.66-1.04 1.34-1.55 2.02a41.3 41.3 0 0 0-3.79 6.6c-.22.45-.39.92-.53 1.4-.5 1.62-.98 3.25-1.44 4.88-.29 1-.5 2.03-.57 3.08-.04.58.17.98.7 1.16.81.26 1.6.58 2.4.82 1.68.5 3.33 1.05 4.9 1.83.12.06.22.17.33.25Zm15.9 42.74c-.22-.04-.4-.1-.56-.1-.39 0-.79-.06-1.12.28-.11.12-.37.12-.56.13-1.34.1-2.68.17-4.02.25a19.66 19.66 0 0 0-5.13 1.28c-.18.07-.37.14-.57.19-.54.13-.67.23-.64.9.02.55.04 1.1.13 1.64.13.76.27 1.51.62 2.22.16.32.23.7.1 1.08-.07.18-.07.4-.07.59l.06 1.5c0 .17 0 .34.03.52a12.6 12.6 0 0 0 1.53 4.19c.13.21.27.42.45.6a15 15 0 0 0 4.42 3.14c1.07.47 2.13.97 3.2 1.44a17.74 17.74 0 0 0 8.42 1.63 16.5 16.5 0 0 0 6.36-1.54l2.65-1.2a22.6 22.6 0 0 0 4.5-2.78c.65-.51 1.27-1.06 1.92-1.56a30.26 30.26 0 0 0 5.76-6.15c.2-.26.34-.55.47-.85.37-.85.56-1.74.74-2.66a29 29 0 0 0 .57-4.14c.03-.57.13-1.14.2-1.7.13-.92.3-1.83.35-2.75.06-1.1.03-2.2 0-3.29 0-.55-.08-1.1-.12-1.64-.2-2.14-.42-4.27-.79-6.38-.2-1.1-.44-2.2-.85-3.25a21.53 21.53 0 0 0-2.94-5.1 5.84 5.84 0 0 0-1.22-1.21c-.36-.27-.7-.56-1.07-.82-.89-.64-1.77-1.3-2.68-1.91a7.94 7.94 0 0 0-3.44-1.36 4.73 4.73 0 0 1-.66-.14c-.17-.04-.34-.1-.48-.19-.3-.17-.36-.5-.13-.75.08-.1.18-.18.27-.26a13.1 13.1 0 0 0 1.63-1.75l1.07-1.25c.93-1.07 1.95-2.07 2.79-3.22.18-.26.36-.54.5-.82.81-1.62 1.3-3.34 1.83-5.06l.02-.07c.5-2 .91-4.04 1.15-6.1.14-1.24.17-2.48.12-3.73-.06-1.55-.36-3.07-.58-4.6a9.78 9.78 0 0 0-1-3.04c-.09-.18-.15-.36-.23-.55-.12-.27-.2-.56-.35-.81a10.88 10.88 0 0 0-3-3.4l-1.34-.96c-.56-.41-1.1-.86-1.7-1.22-.68-.4-1.38-.8-2.13-1.07a6.67 6.67 0 0 0-2.28-.34c-.87 0-1.74-.03-2.61 0-1.17.06-2.35.1-3.5.26-1.75.26-3.49.6-5.22.95-.65.14-1.31.33-1.91.62a18.4 18.4 0 0 0-5.65 3.98c-.77.82-1.52 1.66-2.27 2.49-.61.66-1.14 1.38-1.62 2.14a28 28 0 0 0-3.04 6.57c-.15.47-.28.96-.39 1.45a27.7 27.7 0 0 0-.43 6.62c0 .05.03.1.05.14l.07.02c.1-.01.2-.01.3-.04a9.2 9.2 0 0 1 3.33-.16c.78.08 1.54.11 2.32.11h3.43l.71-.02c.2-.2.23-.42.27-.65.19-1.07.36-2.16.59-3.23a11.8 11.8 0 0 1 4.75-7.37 6.9 6.9 0 0 1 3.25-1.41c.81-.1 1.64-.1 2.46-.08.34 0 .7.1 1.01.24a8.82 8.82 0 0 1 4.09 3.26c.16.25.32.5.5.74a6.97 6.97 0 0 1 1.44 4.17c.02.27.05.54.1.81.21 1.13.32 2.27.34 3.42.02 1-.23 1.92-.73 2.78l-1.17 2.1c-.39.7-.86 1.33-1.44 1.9l-.9.88c-.72.7-1.52 1.3-2.41 1.76-.3.14-.59.3-.84.49a13.4 13.4 0 0 1-3.47 1.88c-.34.14-.68.3-1 .5-.58.35-1.17.66-1.84.8-.07.01-.12.08-.19.12v.3c.14 1.52.24 3.04.2 4.56-.01.72-.06 1.45-.09 2.17 0 .19-.08.4.12.6.22-.04.47-.07.7-.12a8.68 8.68 0 0 1 3.26-.27c.15.03.3 0 .45.02.37.05.74.09 1.1.19.36.1.7.26 1.04.41.48.21.98.39 1.5.43.67.05 1.25.3 1.81.65.43.26.86.5 1.3.73.45.24.85.53 1.18.9.28.33.55.65.8 1a17 17 0 0 1 3.1 9.07c.08 1.87.06 3.75.04 5.62 0 .47-.08.95-.21 1.4-.17.58-.27 1.16-.36 1.75-.2 1.24-.58 2.43-1.19 3.53a4.82 4.82 0 0 1-1.94 1.92 8.62 8.62 0 0 1-4.44 1.1c-1-.03-2-.08-3-.14a8.65 8.65 0 0 1-2.76-.6 4.84 4.84 0 0 1-3.13-4.27c-.04-.33-.04-.65-.05-1.05h-.01Zm42.05.89v-.5c-.03-.37-.07-.74-.07-1.12-.02-1.4-.03-2.79-.03-4.19-.01-2.12-.01-4.24-.12-6.36a143.6 143.6 0 0 1-.13-9.95c.04-1.72.14-3.43.22-5.15l.2-4.26c.17-3.29.36-6.58.5-9.86.11-2.54.18-5.09.25-7.63.07-2.44.17-4.89.2-7.33.03-3.5 0-6.99 0-10.48v-.67c-.08-1.6-.18-3.19-.23-4.78a31.07 31.07 0 0 0-.74-5.86c-.2-.92-.7-1.57-1.64-1.84a3.7 3.7 0 0 1-.49-.17 4.1 4.1 0 0 0-1.53-.3c-.75-.02-1.5-.05-2.23-.14a18.6 18.6 0 0 1-4.16-.87 8.22 8.22 0 0 0-1.45-.37c-.95-.15-1.92-.27-2.88-.4l-.6-.03c-.45 0-.76.25-.85.67-.03.15-.03.3-.03.45l-.03 1.5c.04 2.34.1 4.69.11 7.03.03 3.42.03 6.84.04 10.25 0 1.05.02 2.1.07 3.14.1 2.17.26 4.34.34 6.5a130.97 130.97 0 0 1 0 10.25c-.15 3.02-.38 6.03-.52 9.04-.1 2.14-.1 4.29-.18 6.43-.02.66.13 1.2.55 1.7.32.4.55.9.78 1.36.23.47.43.96.6 1.45.57 1.57 1.11 3.15 1.66 4.73.29.8.53 1.61.64 2.45.12.9.17 1.8.3 2.68.23 1.61.3 3.23.27 4.85v1.26c.15.11.26.22.38.3 1.56.94 3.1 1.91 4.67 2.82 1.87 1.1 3.78 2.13 5.67 3.18.12.07.26.13.45.22Zm-65.25-1.78c-.06.14-.1.2-.12.28l-.1.36c-.4 1.98-.65 3.98-.74 6-.07 1.71.1 3.4.6 5.03.36 1.15.89 2.22 1.4 3.3.42.86.95 1.64 1.64 2.3.43.42.84.86 1.26 1.28a19.2 19.2 0 0 0 2.84 2.3c1.27.86 2.64 1.5 4.13 1.87.5.13 1 .28 1.52.4.72.18 1.45.34 2.18.48.74.14 1.48.22 2.21.37 1.03.22 2.07.33 3.11.36 1.17.03 2.35 0 3.51.04 1.62.05 3.18-.23 4.72-.63.12-.03.23-.11.48-.24-1.06 0-1.96.02-2.86 0a36.8 36.8 0 0 1-2.75-.17 10.85 10.85 0 0 1-6.44-2.67c-.97-.67-1.77-1.53-2.65-2.31-.14-.13-.27-.3-.4-.45l-1.27-1.56c-.87-1.1-1.58-2.3-1.96-3.67-.15-.58-.37-1.14-.54-1.71a27.74 27.74 0 0 1-.85-3.79c-.2-1.4-.43-2.81-.03-4.22v-.08c-.05-.1-.09-.25-.18-.3-.17-.09-.37-.13-.56-.19-.33-.1-.68-.17-.98-.33a13.53 13.53 0 0 0-3.34-1.06c-.68-.14-1.34-.35-2.01-.54l-1.36-.41c-.13-.04-.29-.03-.46-.05Zm15.49-32.74-.01.12c.43.11.87.2 1.29.34 1.23.4 2.47.78 3.73 1.05.46.1.93.22 1.36.4.84.33 1.65.24 2.47-.06.57-.2 1.14-.37 1.7-.56.22-.07.43-.13.63-.24 1.49-.8 2.9-1.73 4.24-2.79a7.8 7.8 0 0 0 1.53-1.53c.65-.91 1.25-1.86 1.75-2.87a23.54 23.54 0 0 0 2.05-6.46c.05-.31.08-.66.01-.96a18.9 18.9 0 0 0-1.2-3.69 4.75 4.75 0 0 0-1.82-2.03 12 12 0 0 0-3.44-1.44 3.14 3.14 0 0 0-2.58.38c-.73.47-1.47.93-2.19 1.43-.57.4-1.06.9-1.46 1.49-.06.08-.07.2-.13.36.88.05 1.6.4 2.3.78.72.38 1.33.88 1.92 1.42.6.55.91 1.25.95 2.05a6.2 6.2 0 0 1-.46 2.79c-.38.89-.8 1.77-1.24 2.63a9.68 9.68 0 0 1-1.81 2.47c-.66.64-1.32 1.28-2 1.9-2 1.79-4.34 2.8-7.03 2.96l-.57.06Zm53.06-46.65.02.06 1.54-.12 3.43-.26c.5-.03 1-.02 1.49-.05a23.7 23.7 0 0 1 4.1.16c1.6.17 3.22.36 4.83.52 1.54.16 3.07.35 4.55.8l4.13 1.31 5.48 1.76a14.3 14.3 0 0 1 5.58 3.38l2.64 2.54c.92.9 1.71 1.89 2.34 3 .7 1.23 1.4 2.48 2.06 3.73a20.5 20.5 0 0 1 1.35 3.25l1.68 5.19a28.8 28.8 0 0 1 1.05 4.43c.26 1.68.42 3.37.51 5.06.06 1.13.08 2.25-.07 3.37-.02.16 0 .34 0 .5.13-.26.2-.52.25-.79a40.44 40.44 0 0 0 .64-10.72 37.09 37.09 0 0 0-.92-5.83c-1.46-6.01-5.8-13.62-14.1-17.58a78.01 78.01 0 0 0-9.2-3.73 32.87 32.87 0 0 0-9.69-1.62 107.6 107.6 0 0 0-4.4-.01c-1.03.02-2.05.09-3.06.2-2.01.22-3.97.73-5.9 1.3-.12.03-.22.1-.33.14Zm-.67.12c-.09-.12-.16-.19-.2-.28-.2-.44.03-.89.52-.9.36 0 .69-.11 1.02-.21 2.78-.84 5.62-1.3 8.53-1.39 2.2-.06 4.38 0 6.57.14.67.04 1.34.14 2 .21h.38c-.35-.19-.7-.31-1.06-.38a207.29 207.29 0 0 0-7.05-1.28c-1.13-.2-2.27-.33-3.4-.56a31.4 31.4 0 0 0-4.42-.65c-1.22-.06-2.44-.14-3.66 0-2.23.26-4.45.54-6.67.83-1.66.22-3.3.54-4.9 1-1.08.3-2.17.55-3.26.82l-1.27.33c.25.23.5.2.74.2l6.05.04c1.07 0 2.14-.01 3.21.03.77.03 1.55.08 2.3.23 1 .2 1.95.6 2.97.75.46.08.82.36.83.92 0 .09.04.18.08.3l.7-.15h-.01Zm-53.1 47.88c-.02.25-.06.44-.07.64l-.03 2.76c-.01.95-.04 1.9-.22 2.83-.06.27-.07.55-.1.82-.06.44.08.61.47.7.08 0 .14.05.22.07 1.46.47 2.92.97 4.42 1.34a7.7 7.7 0 0 1 1.53.58c.45.22.91.41 1.37.6.13.06.27.06.43.1.11-.41.11-.79.13-1.16.09-2.2.07-4.38-.12-6.57-.04-.5-.2-.86-.64-1.08l-.17-.05-.48.13c-.7.19-1.4.12-2.03-.24-1-.57-2.12-.86-3.17-1.3a2.5 2.5 0 0 0-1.53-.16Zm52.56-25.54h-.08c0 .49-.02.98-.03 1.46-.02 1.83-.01 3.65-.06 5.47-.04 1.64-.14 3.29-.2 4.93l-.3 8.75-.24 4.86c-.17 3.13-.37 6.27-.5 9.4-.08 2.03-.05 4.05-.05 6.07 0 1.35.02 2.7.06 4.04.05 1.77.15 3.54.18 5.3.04 1.88.03 3.75.05 5.62 0 .27-.02.55.08.82.04-.15.05-.3.06-.45.12-1.44.21-2.88.36-4.32.24-2.28.48-4.56.58-6.86l.18-3.36c.08-1.8.17-3.59.22-5.38.04-1.37.04-2.74.06-4.12.03-2.32.08-4.64.1-6.96v-8.45c-.01-1.6-.01-3.2-.05-4.8-.06-2.74-.14-5.48-.23-8.22-.04-1.27-.13-2.54-.19-3.8Zm-39.72 61.58c.25.3.52.38.74.52.61.38 1.27.52 2 .5a10.4 10.4 0 0 0 3.14-.6 8.2 8.2 0 0 0 3.13-2.24c.71-.74 1.25-1.62 1.73-2.52.4-.74.64-1.52.6-2.37a23.99 23.99 0 0 0-.45-6.77 21.79 21.79 0 0 0-1.86-5.12c-.07-.12-.11-.3-.3-.33.04.64.1 1.23.11 1.83.02.62-.03 1.25.01 1.87a23.78 23.78 0 0 1-1.4 9.85 6.64 6.64 0 0 1-3.16 3.65 13.9 13.9 0 0 1-4.29 1.73Zm-7.2-4.84-1.77-.98c-.3-.17-.6-.37-.92-.49a69.22 69.22 0 0 0-3.27-1.05c-.8-.23-1.63-.42-2.46-.59a5.73 5.73 0 0 0-2.3-.12c-.83.17-1.66.34-2.44.68-.27.12-.56.21-.85.29-.87.23-1.7.53-2.54.88a7.4 7.4 0 0 1-2.45.61c-.08 0-.16.04-.37.09.96.36 1.8.68 2.68.84 1.35.25 2.67.58 3.9 1.22.18.1.37.16.56.21l1.34.38c.08-.03.23-.05.37-.1 1.03-.42 2.1-.59 3.2-.7.91-.1 1.83-.2 2.72-.42 1.33-.33 2.68-.58 4.05-.65.14 0 .29-.05.55-.1Zm28.11-56.97.13-.02v-.66c-.03-2.07-.08-4.14-.1-6.2l-.04-7.7c-.02-2.1-.07-4.2-.1-6.29 0-.89 0-1.78.26-2.68h-.64l-.07.7-.24 4.17c-.12 2-.26 3.98-.36 5.97-.05 1.12-.05 2.24-.07 3.37l-.11 5.83c-.01.36.07.67.23 1 .33.66.61 1.36.91 2.04l.2.47Zm-.31 31.62c.16-.21.1-.42.1-.61.01-1.97.06-3.94.18-5.9.15-2.27.24-4.54.37-6.8.06-1.15.15-2.3.2-3.44.03-.63.1-1.27-.02-2.08-.1.38-.17.58-.21.8a45.78 45.78 0 0 1-1.53 5.39 3 3 0 0 0-.18 1.02c.03 1.05.04 2.1.08 3.14.08 1.97.18 3.94.27 5.9l.06 1.5c.02.48.29.8.68 1.08Zm-2.12-9.8-.29.37c-.4.57-.86 1.1-1.38 1.57a589.32 589.32 0 0 0-2.4 2.77c-.11.12-.21.27-.33.43l2.39 1.13c.77.35 1.5.78 2.12 1.37.06.06.15.1.25.15.06-.7-.23-7.05-.36-7.78Zm2.94 48.22c-.28.13-.45.38-.65.59l-.63.64a22.66 22.66 0 0 1-1.33 1.2l-.7.57c-.22.2-.46.38-.69.57l-.69.57-.7.57a26.5 26.5 0 0 1-2.97 2c-.25.16-.52.29-.78.44-.24.15-.54.22-.82.52.76-.03 1.4-.08 2-.3.63-.25 1.27-.46 1.9-.7.54-.2 1.05-.46 1.5-.82.91-.74 1.8-1.5 2.48-2.47a15 15 0 0 1 .67-.9 10.1 10.1 0 0 0 1.4-2.48h.01Zm17.08-92.12c-.06-.07-.08-.1-.1-.1l-2.71-.75a4.83 4.83 0 0 0-.88-.16 57.07 57.07 0 0 0-5.14-.1c-.07 0-.21-.02-.18.15.06.02.13.06.2.07 1.22.21 2.44.45 3.69.45.4 0 .8.05 1.19.06.74.03 1.38.39 2.07.58.42.12.77.35 1.05.68l.56.7.2.17c.11-.23.02-.36-.1-.5-.34-.44-.33-.58.01-1.04l.14-.21Zm-25.59 50.37.1.07c1.36.3 2.57.93 3.7 1.71l2.23 1.61c.09.06.18.19.35.02l-.98-1.11a6.2 6.2 0 0 0-2.08-1.53c-.64-.28-1.26-.6-1.9-.88-.22-.1-.45-.2-.68-.27-.4-.11-.43-.08-.74.38Zm-10.94-42.04.54.2 4.57 1.58c.42.14.85.22 1.45.19-.25-.16-.36-.25-.5-.3l-2.44-.9-.35-.1-1.87-.51c-.45-.13-.9-.26-1.4-.17Zm-15.54 48.13c.03.3.2.4.4.46.7.2 1.4.36 2.07.63 1.07.44 2.2.62 3.31.83.09.01.18 0 .33-.01-.28-.3-.62-.31-.92-.4-.95-.3-1.91-.54-2.86-.83-.7-.2-1.37-.45-2.06-.68-.06-.02-.14 0-.27 0Zm15.18 2.28c-.02-.06-.02-.1-.04-.1a.32.32 0 0 0-.13-.07 9.62 9.62 0 0 0-4.34.17c-.06.02-.1.12-.2.25.87-.01 1.6-.26 2.37-.28.77-.02 1.53.02 2.34.03Zm-16.69-20.65c-.58-.15-1.03-.1-1.47-.13a5.54 5.54 0 0 0-1.83.23.92.92 0 0 0-.25.14c-.04.02-.06.09-.05.13.02.06.06.15.11.17.09.03.2.04.29.03l.94-.18 2.26-.39Zm7.54-.75c.16.1.29.09.33-.04.04-.16.02-.33-.24-.4l-.09.44Zm-20.16-1.64-.05-.03c-.02.01-.03.04-.04.06h.06c.02 0 .02-.02.03-.03Zm105.54 24.82.01-.06-.08.02.02.06.05-.01Zm-.3.41-.01-.06-.04.08.05-.02Zm-50.07 15.48v.05l.06-.02-.06-.03Zm-29.05 7.65a2.3 2.3 0 0 1-.06-.03v.09h.05l.01-.06Zm-15.75 4.11.03.06.02-.06h-.05Z" fill="#fff" stroke="#fff" stroke-width="2" stroke-miterlimit="10" stroke-linejoin="round"/><path d="M80.92 62.91c-.03-2.24.12-4.93.3-7.61.17-2.32.24-4.64.24-6.96v-23.65c0-1.2-.06-2.4-.15-3.59-.05-.59-.26-1.16-.39-1.74-.04-.2-.1-.38-.1-.58 0-.3.27-.56.54-.44.33.14.6-.11.87-.02.32.1.58-.03.86-.13.18-.06.4-.05.59-.05l2.02.01c1.28 0 2.52.28 3.77.5 1.93.36 3.63 1.2 5.15 2.43a35.4 35.4 0 0 1 4.2 3.83c.57.65 1.23 1.23 1.84 1.84a22.78 22.78 0 0 1 3.64 4.64c1.87 2.65 2.97 5.64 3.81 8.73.36 1.3.58 2.64.6 3.99.03.77-.07 1.54-.12 2.31a14.2 14.2 0 0 1-1.4 5.17 28.76 28.76 0 0 1-1.7 3.16 70.11 70.11 0 0 1-3.74 5.32c-.82 1.05-1.73 2-2.76 2.84a33.31 33.31 0 0 1-6.22 4.24 67.45 67.45 0 0 1-8.07 3.36c-.85.29-1.67.64-2.51.95-.2.08-.42.17-.64.2-.35.03-.58-.16-.61-.5-.02-.23-.02-.46-.02-.68v-7.57Zm8.27-10.46-.4.07v.09l-.06-.01a.43.43 0 0 1 .06-.08c.14.02.3.1.38-.09l.16-.07-.06-.02-.08.11Zm-2.49 1.09c-.03.03-.05.09-.09.1-1.29.61-2.6 1.16-4.05 1.2-.07 0-.14.04-.23.07v.63c1.61-.33 3.12-.78 4.42-1.76a7.7 7.7 0 0 1-.05-.24l.12.06.08-.04h-.07l-.13-.02Zm18.08-18.96.11-.2-.05-.03-.06.23c.08.14.19.28.25.43.18.47.33.94.5 1.41a17.57 17.57 0 0 1 .66 9.15 32.44 32.44 0 0 1-5.92 13.51c-.89 1.2-1.8 2.4-2.81 3.5-.07.08-.2.15-.12.34.08-.05.17-.08.24-.13a18.3 18.3 0 0 0 3.27-3.17 67.14 67.14 0 0 0 3.87-5.5 25.9 25.9 0 0 0 2.03-4c.34-.86.61-1.74.72-2.66l.16-1.5c.23-1.62.06-3.22-.3-4.82a34.54 34.54 0 0 0-1.97-5.95c-.1-.23-.22-.44-.33-.65l-.25.03Zm-22.32-14.52v2.44c0 1.3-.01 2.6.06 3.89.1 1.77.09 3.54.06 5.3-.03 2.05-.1 4.1-.12 6.14-.01 2.47.01 4.94.1 7.41.08 2.44-.07 4.89-.2 7.33-.03.4-.06.79.01 1.21.17.02.32.05.46.05.48 0 .93-.12 1.39-.27a24.85 24.85 0 0 0 4.54-2.09c.71-.41 1.38-.9 2-1.44.72-.65 1.43-1.31 2.16-1.95a12.75 12.75 0 0 0 3.4-4.86l1.2-2.9a16.56 16.56 0 0 0 1.2-5.45c.1-1.64.11-3.3-.08-4.94-.13-1.15-.4-2.25-.87-3.3-.16-.37-.35-.73-.44-1.12-.12-.5-.41-.82-.84-1.08-1.42-.86-2.83-1.76-4.25-2.63-.32-.2-.66-.36-1-.53a21.03 21.03 0 0 0-6-1.98c-.47-.07-.94-.1-1.41-.07-.34.02-.62.11-.85.4-.13.16-.33.28-.53.44Zm16.62 6.78-.1.03c.04.17.08.33.14.49.45 1.33.68 2.7.7 4.11.02 1.35.04 2.7.04 4.04 0 1.15-.12 2.3-.41 3.41a28.7 28.7 0 0 1-4.82 10.13c-.51.69-1.07 1.32-1.73 1.86l-1.79 1.48a8.5 8.5 0 0 1-2.15 1.33c-.69.3-1.34.66-1.96 1.09a9 9 0 0 1-2.2 1.08c-.83.28-1.65.55-2.51.61l-.08.16c-.1 2.1-.23 4.18-.28 6.28-.05 2.3-.02 4.59-.02 6.88 0 .03.02.05.03.07l.05.07c.3.07.58-.01.86-.1.74-.23 1.47-.5 2.22-.66a9.38 9.38 0 0 0 2.19-.75c1.1-.53 2.19-1.07 3.26-1.65a27.08 27.08 0 0 0 8.44-7.6l.44-.6a31.36 31.36 0 0 0 5.86-13.45 16.2 16.2 0 0 0-.55-8.06c-.47-1.41-1.03-2.8-1.58-4.2a13.95 13.95 0 0 0-1.83-3.24c-.68-.9-1.37-1.78-2.06-2.66l-.16-.15Zm-9.3 25.27.06-.03-.05-.04c-.03 0-.05.02-.07.03l.05.04Z" fill="#fff" stroke="#fff" stroke-width="2" stroke-miterlimit="10" stroke-linejoin="round"/></svg>