<svg viewBox="0 0 108 99" fill="none" xmlns="http://www.w3.org/2000/svg"><path d="M105.77 37.31c-.02 4.24-.5 8.43-1.36 12.58-.2.98-.2 2-.3 3a91.6 91.6 0 0 1-2.7 16.19 42.75 42.75 0 0 1-5.36 12.02 25.91 25.91 0 0 1-3.26 4.07 15.2 15.2 0 0 1-8.14 4.3c-2.24.43-4.47.48-6.71.08-.3-.05-.54 0-.8.15-1.31.8-2.67 1.53-4.17 1.94a12.06 12.06 0 0 1-11.1-2.25 17.55 17.55 0 0 1-3.74-4.13 34.9 34.9 0 0 1-4.4-9.6 58.55 58.55 0 0 1-2.53-20.05c.17-3.52.57-7 1.08-10.49.59-3.92 1.3-7.81 2.29-11.65a66.77 66.77 0 0 1 4.5-12.9 39.15 39.15 0 0 1 10.5-13.44 24.4 24.4 0 0 1 8.02-4.45 12.37 12.37 0 0 1 9.4.6c3.2 1.5 6 3.55 8.4 6.12a38.26 38.26 0 0 1 8.66 14.73c.86 2.75 1.3 5.58 1.5 8.45.11 1.57.15 3.15.22 4.72v.01Zm-48.89 10.17c-.03 6.61.63 11.54 2.09 16.35a32.8 32.8 0 0 0 4.24 9.15c4.5 6.58 11.73 8.14 17.63 6.8 2.7-.6 5.1-1.83 7.36-3.36.4-.27.7-.6.92-1.02a105.07 105.07 0 0 0 7.94-19.89 69.4 69.4 0 0 0 2.92-17.59 40.5 40.5 0 0 0-.74-9.76 30.3 30.3 0 0 0-4.73-11.2 21.62 21.62 0 0 0-9.43-7.86 18.13 18.13 0 0 0-7.02-1.5 6 6 0 0 0-3.43 1 30.58 30.58 0 0 0-7.02 6.4 45.17 45.17 0 0 0-7.19 13.14 61.82 61.82 0 0 0-3.54 19.34Zm19.44 41.75c-.14-.06-.2-.1-.28-.12a18.26 18.26 0 0 1-6.55-3.6 30.5 30.5 0 0 1-6.77-8.13 56.99 56.99 0 0 1-4.55-10.17 55.09 55.09 0 0 1-3.18-15.07 64.2 64.2 0 0 1 .48-11.92 59.48 59.48 0 0 1 2.76-11.47 59.8 59.8 0 0 1 4.95-11.18 27.8 27.8 0 0 1 5.34-6.72 15.46 15.46 0 0 1 6.98-3.76c.14-.03.28-.07.4-.13a13.5 13.5 0 0 1 5.19-1.17c1.84-.12 3.68.05 5.5.35a7.9 7.9 0 0 1 3.83 1.59 20.32 20.32 0 0 1 3.58 3.62 50.86 50.86 0 0 1 7.17 13.64 60.48 60.48 0 0 1 3.2 17.22c.02.6.06 1.2.1 1.8.18-.95.28-1.91.34-2.87.2-3.03.16-6.06-.1-9.09a35.93 35.93 0 0 0-1.55-8.08 37.5 37.5 0 0 0-8.3-13.97 26.34 26.34 0 0 0-8.35-6.07 11.6 11.6 0 0 0-8.6-.52c-2.9.9-5.48 2.4-7.82 4.31a38.37 38.37 0 0 0-10.4 13.42 68.09 68.09 0 0 0-4.75 14.17 121.53 121.53 0 0 0-2.84 18.8 58.1 58.1 0 0 0-.05 8.24 59.29 59.29 0 0 0 2.2 12.26 36.18 36.18 0 0 0 3.98 9.35 18.56 18.56 0 0 0 4.03 4.74c4.01 3.23 9.33 3.57 14.06.53Zm14.15-14.68.1.07c.24-.22.5-.42.73-.64a34.21 34.21 0 0 0 8.06-11.07 60.11 60.11 0 0 0 3.64-10.58c.2-.8.44-1.61.49-2.43a65.96 65.96 0 0 0-.88-16.31 52.86 52.86 0 0 0-6.7-17.97 27.12 27.12 0 0 0-5.41-6.81 7.65 7.65 0 0 0-3.66-1.81c-1.6-.3-3.21-.44-4.84-.45-.42 0-.85.02-1.27.06l-1.27.15c.09.08.17.1.25.1a20.9 20.9 0 0 1 10.9 4.66 25.8 25.8 0 0 1 6.55 8.29c2.4 4.64 3.5 9.63 3.64 14.82a62.22 62.22 0 0 1-1.5 15.24 104.63 104.63 0 0 1-8.56 24.1c-.1.19-.18.39-.27.58Zm12.57-18.84-.13-.02-.18.57a54.37 54.37 0 0 1-2.74 7.18 34.14 34.14 0 0 1-9.99 12.64c-.4.32-.73.67-.97 1.13a33.26 33.26 0 0 1-10.13 11.36c-.1.06-.17.15-.3.26l.43.08c1.73.19 3.44.14 5.15-.17 2.7-.5 5.15-1.51 7.22-3.36 1.7-1.53 3.1-3.3 4.3-5.23 2.31-3.7 4-7.67 5.1-11.87a84.74 84.74 0 0 0 1.94-10.23l.3-2.34Zm-15.28 22.08-.09-.06-.63.36-.63.36a18.63 18.63 0 0 1-11.63 2.42 16.56 16.56 0 0 1-10.5-5.3 25.1 25.1 0 0 1-4.58-7.4 48.22 48.22 0 0 1-3.62-18.2c-.07-4.43.38-8.84 1.2-13.2a53.93 53.93 0 0 1 5.56-15.95c2.38-4.39 5.34-8.3 9.3-11.4l.15-.17c-.96.4-1.79.98-2.57 1.62a25.12 25.12 0 0 0-5.74 6.94 63.94 63.94 0 0 0-6.83 17.69 58.45 58.45 0 0 0-1.4 11.1c-.15 3.45 0 6.88.58 10.28a63.45 63.45 0 0 0 6.02 18.17 30.58 30.58 0 0 0 7.7 9.9 17.55 17.55 0 0 0 6.72 3.55c.42.11.75.07 1.12-.19a32.42 32.42 0 0 0 9.68-10.16l.2-.35h-.01Zm-52.15-27.49.96-2.8c1.5-4.3 2.9-8.62 4.52-12.87 2.34-6.17 4.84-12.3 7.26-18.44.25-.64.42-1.31.68-1.95.87-2.15 1.76-4.3 2.66-6.44.16-.4.31-.86.87-.9.08-.01.15-.14.21-.2.12-.13.22-.26.34-.36.72-.65 1.51-.4 1.72.55.16.75.07 1.49-.08 2.22-.1.46-.2.91-.36 1.35-.84 2.38-1.42 4.84-2.06 7.28a180.06 180.06 0 0 1-5.59 17.24c-1.37 3.67-2.69 7.37-4.23 10.97a62.92 62.92 0 0 0-2.66 7.9 236.39 236.39 0 0 0-4.45 18.75c-.82 4.25-1.52 8.51-2.02 12.81-.36 3.16-.68 6.31-.74 9.49v1.21c-.01.24-.08.45-.36.5-.22.03-.42-.16-.42-.5-.02-.92-.04-1.85.02-2.78a140.86 140.86 0 0 1 1.73-15.17 211.24 211.24 0 0 1 4.66-21.55c.41-1.54.85-3.07 1.27-4.61l.07-.29c-.47.28-.6.68-.7 1.1l-2.7 10.95a386.45 386.45 0 0 0-4.77 22.96c-.43 2.35-.86 4.7-1.24 7.04-.16.96-.39 1.9-.27 2.9 0 .07 0 .17-.04.23-.1.13-.22.3-.36.34-.23.07-.42-.1-.45-.3a5.08 5.08 0 0 1-.04-1.15c.06-.66.16-1.32.27-1.98l2.46-14.03c.9-5 1.81-10.02 2.73-15.02l2-10.73.04-.27h-.42c-.83 0-1.66.07-2.49.03a106.8 106.8 0 0 1-9.61-1.01c-2.91-.4-5.83-.76-8.75-1.12a6.28 6.28 0 0 0-1.15 0l-8.62.49c-.27.01-.53.07-.79.08a2.46 2.46 0 0 1-2.6-2 4.81 4.81 0 0 1 0-2.03 379.6 379.6 0 0 1 4.6-17.6c1.57-5.61 3.18-11.23 4.49-16.92.58-2.56 1.13-5.13 1.77-7.67.27-1.05.7-2.06 1.07-3.1l.18-.38c.16-.29.34-.57.74-.51.37.06.55.36.6.68.08.42.11.84.12 1.26 0 .47-.05.93-.08 1.4.14.13.33.24.4.4.06.12 0 .32-.05.47-.9 2.58-1.47 5.24-2.11 7.9a916.95 916.95 0 0 1-3.59 14.21 209.7 209.7 0 0 0-3.13 14.4l-.8 4.28c-.05.33-.06.68-.1 1.09.71.12 1.38.25 2.05.35 2.83.43 5.65.87 8.48 1.27 1.96.28 3.94.5 5.9.75.23.03.45.02.68.02l8.58-.09c1.21-.01 2.43-.06 3.7-.1Zm-27.98.87-.43-.02c-.53-.01-1.06.01-1.58-.03-.78-.06-1.18-.49-1.19-1.26 0-.36.01-.73.08-1.08.5-2.54.98-5.08 1.51-7.61a363.94 363.94 0 0 1 6.9-27.56 50.5 50.5 0 0 0 1.93-9.05c.04-.4 0-.82 0-1.23a.75.75 0 0 0-.3.37c-.25.73-.55 1.44-.73 2.18-.61 2.53-1.18 5.08-1.76 7.61-1.45 6.33-3.26 12.55-5 18.8a339.61 339.61 0 0 0-4.13 15.88 4.52 4.52 0 0 0-.07 1.69c.15 1.04 1 1.72 2.05 1.6.88-.08 1.77-.19 2.72-.29Zm32.13-1.53.07.03c.05-.05.12-.1.14-.16.29-.64.64-1.27.84-1.94a354.1 354.1 0 0 1 8.79-26.3c1.63-4.29 3.37-8.53 4.41-13.01.12-.5.16-.98-.08-1.5-.16.11-.3.17-.38.26a5 5 0 0 0-1.08 1.88c-.2.68-.37 1.36-.58 2.04-.87 2.83-1.7 5.68-2.64 8.5-.89 2.64-1.99 5.21-2.82 7.87-1.92 6.2-3.75 12.45-5.6 18.68-.37 1.21-.71 2.43-1.07 3.65Zm-1.05.81.35-1.23c1.5-5.08 3.02-10.14 4.5-15.22 1.15-3.9 2.29-7.8 3.72-11.6.84-2.22 1.6-4.48 2.39-6.73.08-.22.12-.46.18-.69-.04 0-.08-.02-.12-.04l-.51 1.34c-.52 1.42-1 2.86-1.56 4.27-1.45 3.64-2.97 7.25-4.4 10.9a97.2 97.2 0 0 0-4.63 16.05l-.52 2.54.6.4v.01Zm-1.97 2.39.34-1.77c-.79-.05-.8-.06-1.08.54-.16.36-.43.42-.79.41-.48-.01-.97 0-1.44.06a16.1 16.1 0 0 1-3.82.09c-2.04-.23-4.06-.5-6.1-.76a14.4 14.4 0 0 0-3.26.01c.07.04.14.07.22.08 3.37.43 6.74.91 10.12 1.28 1.6.17 3.24.14 4.86.18.3 0 .6-.08.95-.12Zm-19.71-2.1v-.13l-.15-.06c-3.44-.53-6.89-1.06-10.33-1.57-.42-.07-.83-.13-1.17-.64-.07.54-.15.95-.17 1.37-.02.45.1.57.54.63.2.02.4.02.61.02.57 0 1.14-.03 1.7 0 2 .11 4 .27 6 .37.99.05 1.98 0 2.97 0Zm27.12-11.29c.9-1.5 6.02-16.34 5.96-17.29a300.32 300.32 0 0 0-5.96 17.3Zm-5.87 5.91-.11-.06c-.54 1.63-1.14 3.23-1.66 4.96l.75-.09 1.02-4.81Zm-.33 7.92c-.52-.02-.55.33-.61.64-.27 1.36-.52 2.72-.78 4.09l-.25 1.41.1.02 1.54-6.16Zm.67-2.5-.7.24-.26 1.3c.77-.28.8-.9.96-1.54Zm-8.88.49a9.5 9.5 0 0 0 4.04-.1l-4.04.1Z" fill="#fff" stroke="#fff" stroke-width="3" stroke-miterlimit="10" stroke-linejoin="round"/></svg>