<svg version="1.1" id="Слой_1" xmlns="http://www.w3.org/2000/svg" x="0" y="0" viewBox="0 0 620.46 200" style="enable-background:new 0 0 620.46 200" xml:space="preserve"><style>.st0{fill:#fff}</style><path class="st0" d="M95.59 6.83c.54.24 1.24.32 1.59.72.55.62 1.27 1.49 1.18 2.16-.08.63-1.03 1.33-1.75 1.65-.81.35-1.8.31-2.71.44l.03.68c1.01.03 2.02.15 3.02.09 2.1-.15 3.21-1 3.43-2.51.3-2.01-.46-3.3-2.47-4.16-.59-.25-1.36-.37-1.72-.81-.52-.64-1.08-1.56-.98-2.27.08-.57 1.06-1.15 1.76-1.46.61-.27 1.39-.16 2.1-.21l.09-.4-1.04-.75h-1.61c-.14.08-.27.21-.41.23-1.67.19-2.84.95-3.04 2.75-.2 1.72.7 3.05 2.53 3.85zm13.78-4.98-.74 10.47 1.9.2.86-10.61c2.6-.14 2.6-.14 2.59-1.15l-6.18-.75h-.97c-.36 2.19 1.71 1.09 2.54 1.84zm-74.21 87.54a68.06 68.06 0 0 0 67.99 68.07c37.76.04 68.37-30.4 68.4-68.04.03-37.59-30.47-68.1-68.12-68.15a68.06 68.06 0 0 0-68.27 68.12zm68.08-52.92c14.59.03 27.2 5.21 37.46 15.63 10.23 10.41 15.04 23.12 15.22 37.32l13.59-1.19c.07 16.32-4.73 30.5-14.77 42.75-12.83 15.66-29.58 23.62-49.89 24.58a30.48 30.48 0 0 1 1.24-13.66c-20.25.22-36.28-7.46-47.4-24.24-7.03-10.6-9.61-22.46-7.86-35.03 3.72-26.71 25.91-46.22 52.41-46.16zm84.54 140.27c5.37-4.11 7.95-9.81 10.84-15.73-2.05 1.17-3.71 2.24-5.47 3.1-6.84 3.37-14.09 5.4-21.6 6.67-1.61.27-2.35-.14-3.14-1.5a63.05 63.05 0 0 0-4.64-6.94 5.83 5.83 0 0 0-6.35-2.13c-7.08 1.73-14.19 3.37-21.21 5.33a151.43 151.43 0 0 1-26.82 5.17c-10.95 1.01-21.63-.9-32.21-3.44-8.76-2.1-17.43-4.54-26.17-6.72-4.8-1.2-6.79-.38-9.6 3.7a78.5 78.5 0 0 0-3.53 5.76c-.48.84-.98 1.09-1.94.87-3.55-.82-7.16-1.39-10.67-2.35-5.99-1.64-11.76-3.88-17.28-7.79 3.01 6.15 5.63 11.94 10.99 16.04-7.16 1.3-14.64 1.6-18.97 9.28 4.54-2.83 9.03-2.17 13.52-1.16 9.58 2.15 19.14 4.37 28.71 6.52 2.58.58 5.21.88 7.78-.08.51-.19.87-.78 1.3-1.19-.44-.34-.84-.91-1.33-1-1.79-.32-3.61-.48-5.42-.72-3.24-.42-6.49-.74-9.69-1.36-1.19-.23-2.4-1-3.32-1.83-1.29-1.16-.65-2.95 1.07-3.22a5.57 5.57 0 0 1 2.23.08c2.48.67 4.96 1.37 7.39 2.2 5.99 2.02 11.91 4.28 17.95 6.15a147.38 147.38 0 0 0 41.97 6.8c14.37.16 28.47-2.07 42.22-6.19 7.59-2.28 15.01-5.14 22.54-7.62a36.6 36.6 0 0 1 6.73-1.41c.62-.08 1.78.65 1.93 1.21.18.68-.22 1.84-.78 2.32a6.88 6.88 0 0 1-3.12 1.56c-3.21.57-6.46.9-9.7 1.32-1.81.24-3.62.42-5.41.75-.43.08-.78.63-1.17.96.38.39.72 1.06 1.15 1.12 2 .25 4.11.78 6.02.4 8.83-1.77 17.61-3.8 26.41-5.75 5.76-1.27 11.5-3.44 17.65.03-4.33-7.63-11.83-7.84-18.86-9.21zm-105.88 15.63c-.69.19-1.47.04-2.53.04l7.06-13.61c-2.14.72-3.69 2.64-5.92 2.03l-.17-.65c.5-.27 1.04-.5 1.5-.83 2.44-1.72 4.85-3.49 7.3-5.19.41-.28.99-.31 1.49-.46.03.48.24 1.05.06 1.44a826.64 826.64 0 0 1-7.17 16.15c-.23.51-1.01.91-1.62 1.08zm21.59-13.12c-.66 4.36-3.17 7.54-6.61 10.07-2.46 1.81-5.21 2.99-8.32 3.04-.53.01-1.07-.43-1.6-.66.5-.35.98-.96 1.51-1 4.83-.43 7.96-3.14 10.32-7.22-1.24.71-2.27 1.52-3.44 1.91a3.78 3.78 0 0 1-4.95-3.85c.15-3.6 4.08-7.7 7.67-8.03 3.62-.33 5.97 2.14 5.42 5.74zm4.83 10.69c.94.7.75 1.33.09 1.97a2.35 2.35 0 0 1-3.96-1.08 5.83 5.83 0 0 1 .93-5.07c1.73-2.44 3.71-4.7 5.6-7.02.37-.45.8-.86 1.48-1.57-2.18.02-3.83-2.28-5.98-.69.11.32.12.43.18.51.38.44.92.83 1.08 1.34.07.22-.64.96-1.02.97-.67.02-1.55-.12-2-.55-.85-.82-.64-1.9.03-2.79a5.48 5.48 0 0 1 5.34-2.28c.9.11 1.77.59 2.66.6 1.12.02 2.24-.27 3.37-.4.42-.05.85-.04 1.28-.06-.08.44-.01 1-.26 1.29-.93 1.11-2.03 2.07-2.94 3.2a116.14 116.14 0 0 0-5.17 6.76 10.8 10.8 0 0 0-1.37 3.4c-.11.41.27 1.18.66 1.47zm18.33-14.87c-.81.66-1.66 1.45-2.63 1.69-1.37.35-2.84.26-4.58.38l-1.24 2.34c.18.06.23.1.28.09 5.18-.69 7.59 2.43 5.69 7.34-1.45 3.72-5.23 6.01-8.92 5.4-2.17-.36-3.72-2.13-3.21-4.02a3.68 3.68 0 0 1 1.85-2.1c.53-.24 1.53.36 2.2.77.31.19.51.88.42 1.27-.05.22-.76.31-1.18.45-.2.07-.4.11-.59.16.02 1.53.61 2.05 2.04 1.87 3.02-.38 5.77-5.29 4.52-8.07-.77-1.71-3.09-1.81-4.59-.26-.52.54-1.25.88-1.88 1.31.11-.82.03-1.72.35-2.44 1.16-2.57 2.46-5.09 3.73-7.67 2.39.84 4.61 1.33 6.84.04.21-.12.85.08.93.27.17.35.19 1.01-.03 1.18zm-52.92-157.37-2.01-7.51.25-.13 4.02 5.27c1.51-.02 1.9-.75 1.81-2.06-.11-1.68-.03-3.37-.03-5.05l.31-.06 2.94 7.14 1.75-.63-4.49-11.08c-2.05.59-2.05.59-2.05 2.35v6.58l-.48.41c-.17-.36-.29-.77-.52-1.08-1.11-1.51-2.35-2.94-3.36-4.51-.9-1.41-1.81-1.37-3.04-.45l3.2 11.51 1.7-.7zm66.17 3.35 3.72-6.46c.06 2.31-.1 4.5-.52 6.64-.29 1.51.21 2.17 1.65 2.45l5.86-10.34-1.63-.9-3.77 6.57c-.02-2.31.23-4.49.55-6.65.19-1.26.04-2.24-1.65-2.52l-5.86 10.33 1.65.88zm-84.73 2.96c2.06 3.23 2.81 3.32 5.71.69l.23-.22c1.13-1.15 1.45-2.69.42-3.91-.82-.97-2.09-1.57-3.3-2.44.39-1.14.05-2.46-1.3-3.42-1.38-.98-2.67-.39-3.88.38-.8.51-1.54 1.13-2.33 1.72.15.35.17.46.23.55l4.22 6.65zm4.47-2.71c1.04 1.53.66 2.58-1.48 3.73l-2.42-3.8c1.87-1.46 2.9-1.4 3.9.07zm-4.52-5.25c.65.3 1.33 1.22 1.38 1.91.05.69-.67 1.44-1.23 2.5l-2.6-4.05c.99-.17 1.89-.62 2.45-.36zm-10.76 22.57-3.81-3.66 2.28-2.26 3.84 3.63 1.33-1.43-8.73-8.33-1.35 1.54 3.88 3.57-2.42 2.21-3.67-3.48-1.44 1.33 8.77 8.38 1.32-1.5zm5.71-5.64c.21-.16.45-.3.6-.4-1.36-3.47-1.34-3.54 1.14-4.86l2.45 1.61 1.45-1.36-10.23-7.02-1.9 1.66 5.59 11.1.9-.73zm-3.57-8.63.28-.31 3.8 2.74-1.95 1.64-2.13-4.07zm69.16-12.81c.33-1.14.99-1.41 2.16-1.19 1.2.23 1.81.68 1.64 1.97-.21 1.5.69 1.83 2.08 1.73-.22-3.42-.41-6.82-.66-10.22-.16-2.2-.19-2.2-2.69-2.43l-5.11 11.02c1.44.85 2.21.41 2.58-.88zm3.07-6.99.32.06.27 4.77-2.48-.49 1.89-4.34zm-30.31 9.23c2.11-.35 3.23-1.53 2.98-3.64-.36-3.01-.96-5.98-1.48-9.08l-1.92.35c.12.78.21 1.41.32 2.03.39 2.37.84 4.73 1.17 7.11.13.93-.06 1.89-1.26 2.07-1.17.18-1.61-.67-1.9-1.56-.23-.71-.35-1.45-.49-2.19-.44-2.25-.86-4.49-1.3-6.84l-1.92.4c.59 3.04 1.07 5.99 1.77 8.89.47 2.07 1.89 2.81 4.03 2.46zm-18.71 5.89c.27-.14.36-.61.53-.93-.36-.06-.78-.28-1.06-.16-1.02.42-1.99.95-3.06 1.48l-1.91-3.89 3.51-1.88c-1.79-1.42-2.79.66-4.24.46l-1.58-3.19 3.66-1.91.05-.45c-.38-.13-.86-.48-1.13-.36-1.64.74-3.23 1.59-4.94 2.46l5.4 10.78c1.73-.86 3.27-1.6 4.77-2.41zm67.11-1.11-.14-.45-3.77-1.6a586.8 586.8 0 0 1 1.54-3.83c1.43-.21 2.57 1.64 4.31.18l-3.73-1.64 1.41-3.5c1.02.39 1.82.69 2.62 1.01 1.39.54 1.38.54 1.53-.74l-5.51-2.19-4.48 11.2c1.79.72 3.36 1.4 4.98 1.96.32.1.82-.26 1.24-.4zm24.69 10.92c.19.67.47 1.31.68 1.97.33 1.04.13 2.1-.87 2.46-.7.25-1.73.05-2.44-.3-.8-.39-1.41-1.17-2.1-1.78l-.35.22c.06.3.03.69.2.9.62.73 1.26 1.46 1.99 2.08 1.19 1.02 2.51 1.46 3.96.49 1.46-.97 1.94-2.44 1.39-4.22-.22-.72-.7-1.44-.64-2.13.08-.81.41-1.86 1.01-2.27.46-.32 1.56.02 2.25.34.62.29 1.08.94 1.92 1.71.22-1.66-.75-2.25-1.43-2.92-1.09-1.09-2.37-1.7-3.9-.84a3.63 3.63 0 0 0-1.67 4.29zm-7.26-11.7-6.05 8.39 1.57 1.15 6.3-8.68c2.22 1.41 2.22 1.41 2.78.35l-5.78-4.16c-1.34 1.8 1.11 1.65 1.18 2.95zm-24.85-2.06c-.65-1.59-2.71-.83-3.92-2l2.39-8.7c.43-1.59.27-1.77-1.58-1.61l-3.12 11.29 5.95 1.63.28-.61zm25.24 15.47 7.87-9.18-1.56-1.19-7.8 9.1 1.49 1.27zm11.15 6.84 6.98-5.54-1.48-1.76-6.57 6.09c.43.47.75.84 1.07 1.21zm-3.63.81 1.18 1.4c.28-.2.51-.33.7-.5.24-.2.46-.43.78-.73l-1.28-1.43c-.51.48-.9.83-1.38 1.26z"/><path class="st0" d="M83.48 135.67a49.3 49.3 0 0 0 20.8 4.05v-41.5l-2.05 1.95c-3.38 3.11-6.97 5.9-11.5 7.17-5.81 1.62-10.81-.58-13.3-6.06a15.51 15.51 0 0 1-1.54-5.69c-.46-13.71 5.67-24.19 16.29-32.38.23-.18.54-.25 1.09-.49v25.9h60.26c2.2-15.48-11.36-36.6-28.55-44.75a50.47 50.47 0 0 0-58.88 11.53 50.29 50.29 0 0 0-6.27 59.45 49.79 49.79 0 0 0 23.65 20.82zm66.55-49.28h-39.26l-.03-.16 38.51-3.64.78 3.8zm-1.23-13.49c-1.47 1.45-1.23 2.73.23 4.13l-39.05 8.73-.13-.39 36.57-15.8c.02 1.74.17 3.15 2.38 3.33zm-9.56-14.72c.46 1.72 1.22 2.86 3.25 2.52-.97 1.88-.11 2.95 1.4 3.86l-34.25 20.23-.24-.34 29.84-26.27zm-10.38-8.57c1.02 1.31 1.92 2.49 3.88 1.21-.36 2.13.75 2.92 2.53 3.38l-26.52 30.07-.28-.23 20.39-34.43zm-8.44-5.12c.35 2.18 1.57 2.7 3.47 2.47l-15.82 36.54-.4-.13 8.65-38.64c1.34.52 2.61 1.91 4.1-.24zm-13.47-1.06 3.88.74-3.64 38.51-.24-.01v-39.24zm-14.16 7.19a4.8 4.8 0 0 1-.04 9.58 4.78 4.78 0 0 1-4.72-4.73 4.77 4.77 0 0 1 4.76-4.85zm67.92 43.54-4.92-1.59a392.3 392.3 0 0 1-.25 2.73l5.17-.8v-.34zm-15.12 26.46 4.9 2.01.21-.23-3.54-4.05-1.57 2.27zm14.37-20.41-4.74-2.14a326.9 326.9 0 0 0-.47 2.74l5.17-.27.04-.33zm-26.42 31.96 3.99 3.48.26-.22-2-4.88c-.87.61-1.51 1.08-2.25 1.62zm-9.37 5.44 3.26 4.19.29-.12-1.08-5.24-2.47 1.17zm-5.26 2.03 2.74 4.37.34-.12-.47-5.14-2.61.89zm-9.04 6.99.33-.06.76-5.1-2.76.31 1.67 4.85zm41.37-35.45 5.26.82.1-.29-4.37-3.1-.99 2.57zm7.33-4.95.06-.29-4.59-2.67-.84 2.6 5.37.36zm-20.5 22.44 4.42 2.94.21-.22-2.6-4.63-2.03 1.91zm10.68-12.62 4.86 1.26.22-.37-3.78-3.35-1.3 2.46zm-6.75 8.9 4.59 2.34.23-.34-2.97-4.08-1.85 2.08zm-13.02 10.3 3.67 3.84.24-.23-1.54-5.03-2.37 1.42zm-13.11 10.28.31-.08v-5.08l-2.57.53c.81 1.63 1.54 3.13 2.26 4.63zm-19.21 30.31a7.46 7.46 0 0 0-2.98 5.3c-.06.66.38 1.87.79 1.96.74.17 1.93-.05 2.39-.58.76-.87 1.08-2.11 1.74-3.52l1.52 1.04c0-.89.13-1.91-.03-2.89-.36-2.16-1.69-2.66-3.43-1.31zm148.55-45.97h-7.71v-19.27h12.75v3.36h-8.99v3.9h3.95c3.87 0 6.25 2.49 6.25 6.01.01 3.51-2.35 6-6.25 6zm-.19-8.66h-3.76v5.31h3.76c1.68 0 2.68-1.06 2.68-2.65 0-1.58-1-2.66-2.68-2.66zm12.67 2.71c.11 2.11 1.16 3.14 3.22 3.14a4.4 4.4 0 0 0 1.62-.3c.51-.22.81-.43 1.44-1.03l2.14 2.08a7.09 7.09 0 0 1-2.44 1.71c-.81.32-1.79.51-2.9.51-4.33 0-6.55-2.46-6.55-7.25 0-4.41 2.36-7.17 6.14-7.17 3.74 0 6.14 2.65 6.14 6.74v1.57h-8.81zm2.68-5.39c-1.62 0-2.6 1.08-2.68 2.98h5.36c-.11-1.93-1.06-2.98-2.68-2.98zm17.54 11.34v-10.99h-3.3l-.16 5.49c-.11 3.74-1.76 5.49-4.44 5.49h-1.87v-3.11h.51c1.08 0 2.25-.62 2.3-3.03l.22-7.96h10.26v14.1h-3.52zm17.21-1.57a5.85 5.85 0 0 1-4.38 1.73c-1.79 0-3.28-.6-4.36-1.73-1.19-1.24-1.6-2.68-1.6-5.49 0-2.79.43-4.22 1.6-5.47a5.79 5.79 0 0 1 4.36-1.73c1.79 0 3.3.6 4.38 1.73 1.16 1.22 1.6 2.68 1.6 5.41 0 2.87-.41 4.31-1.6 5.55zm-4.38-9.53c-2.41 0-2.44 2.44-2.44 4.25 0 2.71.73 3.84 2.44 3.84 2.35 0 2.46-2.22 2.46-4.06 0-1.81-.13-4.03-2.46-4.03zm16.21-3.16c1.41 0 2.68.46 3.49 1.27.57.57 1 1.43 1.19 2.38.19 1.03.24 1.73.24 3.6 0 3.3-.38 4.85-1.43 5.9a4.92 4.92 0 0 1-3.49 1.27 4.23 4.23 0 0 1-3.36-1.41v6.41h-3.52v-19.27h3.41v1.33a4.27 4.27 0 0 1 3.47-1.48zm-.97 3.16c-2.44 0-2.38 2.44-2.38 4.25 0 2.76.68 3.84 2.38 3.84 1.76 0 2.38-1.08 2.38-4.09 0-2.94-.62-4-2.38-4zm14.5 13.37c-.76 2.03-1.95 2.9-4.09 2.9h-1.38v-3.17h.81c1.03 0 1.41-.27 1.76-1.27l.6-1.73-4.82-13.1h3.71l2.92 8.72 2.81-8.72h3.71l-6.03 16.37zm16.38-2.62c-.79.35-1.65.51-2.63.51-4.03 0-6.33-2.65-6.33-7.33 0-4.44 2.35-7.09 6.33-7.09.97 0 1.87.16 2.63.49.76.32 1.16.6 2 1.41l-2.38 2.38c-.81-.84-1.38-1.11-2.27-1.11-1.84 0-2.79 1.38-2.79 4.03 0 2.71.95 4.06 2.79 4.06.92 0 1.43-.27 2.27-1.11l2.38 2.36a5.86 5.86 0 0 1-2 1.4zm12.99 0c-.78.35-1.65.51-2.63.51-4.03 0-6.33-2.65-6.33-7.33 0-4.44 2.36-7.09 6.33-7.09.97 0 1.87.16 2.63.49.76.32 1.16.6 2 1.41l-2.38 2.38c-.81-.84-1.38-1.11-2.27-1.11-1.84 0-2.79 1.38-2.79 4.03 0 2.71.95 4.06 2.79 4.06.92 0 1.43-.27 2.27-1.11l2.38 2.36a5.86 5.86 0 0 1-2 1.4zm13.26.35-3.55-5.74-1.46 1.68v4.06h-3.52v-14.1h3.52v5.93l4.76-5.93h4.28l-5.17 5.82 5.41 8.28h-4.27zm15.05 0v-8.61l-4.95 8.61h-3.55v-14.1h3.55v8.39l4.95-8.39h3.55v14.1h-3.55zm15.94 0v-8.61l-4.95 8.61h-3.55v-14.1h3.55v8.39l4.95-8.39h3.55v14.1h-3.55zm-2.49-15.67c-2.68 0-4.14-1.46-4.39-4.01h2.38c.19.97.81 1.54 2.03 1.54 1.22 0 1.81-.57 2-1.54h2.38c-.26 2.55-1.72 4.01-4.4 4.01zm-150.78 37.16v10.99h-3.52v-14.1h9.34v3.11h-5.82zm17.89 9.42a5.85 5.85 0 0 1-4.38 1.73c-1.79 0-3.27-.6-4.36-1.73-1.19-1.25-1.6-2.68-1.6-5.49 0-2.79.43-4.22 1.6-5.47a5.79 5.79 0 0 1 4.36-1.73c1.79 0 3.3.6 4.38 1.73 1.16 1.22 1.6 2.68 1.6 5.41 0 2.87-.41 4.31-1.6 5.55zm-4.39-9.53c-2.41 0-2.44 2.44-2.44 4.25 0 2.71.73 3.84 2.44 3.84 2.35 0 2.46-2.22 2.46-4.06.01-1.81-.13-4.03-2.46-4.03zm17.6 10.75c-.78.35-1.65.51-2.63.51-4.03 0-6.33-2.65-6.33-7.34 0-4.44 2.36-7.09 6.33-7.09.97 0 1.87.16 2.63.49.76.32 1.16.6 2 1.41l-2.38 2.38c-.81-.84-1.38-1.11-2.27-1.11-1.84 0-2.79 1.38-2.79 4.03 0 2.71.95 4.06 2.79 4.06.92 0 1.43-.27 2.27-1.11l2.38 2.35a5.68 5.68 0 0 1-2 1.42zm9.98 2.62c-.76 2.03-1.95 2.9-4.09 2.9h-1.38v-3.17h.81c1.03 0 1.41-.27 1.76-1.27l.6-1.73-4.82-13.1h3.71l2.92 8.72 2.81-8.72h3.71l-6.03 16.37zm18.19 1.19v-3.46h-8.2v3.46h-3.33v-6.58h1.52c.92-2.52 1.43-4.63 1.43-9.66v-1.33h10.12v10.99h1.79v6.58h-3.33zm-1.97-14.45h-3.14c0 .43 0 1.62-.03 1.98a17.76 17.76 0 0 1-1.22 5.9h4.39v-7.88zm15.13 10.99v-1.22c-.62.6-.92.81-1.46 1.03-.54.22-1.19.32-2 .32-3 0-4.76-1.62-4.76-4.38 0-2.54 1.84-4.11 4.82-4.11h3.33v-.7c0-1.57-.78-2.22-2.68-2.22-1.24 0-1.81.24-2.65 1.16l-2.25-2.19a5.67 5.67 0 0 1 1.9-1.43 7.73 7.73 0 0 1 3.11-.51c4.06 0 6.09 1.68 6.09 4.98v9.28h-3.45zm-2.87-5.95c-1.25 0-1.98.57-1.98 1.6 0 1.08.73 1.62 2.22 1.62 1.81 0 2.54-.7 2.54-2.46v-.76h-2.78zm16.97-8.31c1.41 0 2.68.46 3.49 1.27.57.57 1 1.43 1.19 2.38.19 1.03.24 1.73.24 3.6 0 3.3-.38 4.85-1.43 5.9a4.92 4.92 0 0 1-3.49 1.27 4.24 4.24 0 0 1-3.36-1.41v6.42h-3.52v-19.27h3.41v1.33a4.25 4.25 0 0 1 3.47-1.49zm-.98 3.16c-2.44 0-2.38 2.44-2.38 4.25 0 2.76.68 3.84 2.38 3.84 1.76 0 2.38-1.08 2.38-4.09.01-2.94-.62-4-2.38-4zm17.52 10.75c-.79.35-1.65.51-2.63.51-4.03 0-6.33-2.65-6.33-7.34 0-4.44 2.35-7.09 6.33-7.09.97 0 1.87.16 2.63.49.76.32 1.16.6 2 1.41l-2.38 2.38c-.81-.84-1.38-1.11-2.27-1.11-1.84 0-2.79 1.38-2.79 4.03 0 2.71.95 4.06 2.79 4.06.92 0 1.43-.27 2.27-1.11l2.38 2.35a5.77 5.77 0 0 1-2 1.42zm10.74-10.64v10.99h-3.55v-10.99h-4.14v-3.11h11.75v3.11h-4.06zm13.51 10.99h-7.2v-14.1h6.96c2.65 0 4.36 1.52 4.36 3.87 0 1.33-.57 2.27-1.79 2.98 1.35.7 2 1.68 2 3.19 0 2.49-1.68 4.06-4.33 4.06zm-3.71-11.5v3h2.63c1.11 0 1.71-.54 1.71-1.52 0-.95-.6-1.49-1.71-1.49h-2.63zm2.79 5.63h-2.79v3.27h2.79c1.11 0 1.76-.65 1.76-1.65 0-1.03-.65-1.62-1.76-1.62zm11.39-.08c.11 2.11 1.16 3.14 3.22 3.14a4.4 4.4 0 0 0 1.62-.3c.51-.22.81-.43 1.44-1.03l2.14 2.08a7.09 7.09 0 0 1-2.44 1.71c-.81.32-1.79.51-2.9.51-4.33 0-6.55-2.46-6.55-7.25 0-4.41 2.36-7.17 6.14-7.17 3.74 0 6.14 2.65 6.14 6.74v1.57h-8.81zm2.68-5.39c-1.62 0-2.6 1.08-2.68 2.98h5.36c-.11-1.93-1.06-2.98-2.68-2.98zm17.43 11.34v-5.66h-4.52v5.66h-3.55v-14.1h3.55v5.33h4.52v-5.33h3.55v14.1h-3.55zm15.51 0v-5.66h-4.52v5.66h-3.55v-14.1h3.55v5.33h4.52v-5.33h3.55v14.1h-3.55zm14.18 0h-6.74v-14.1h3.55v5.09h3.19c2.79 0 4.71 1.84 4.71 4.49 0 2.65-1.92 4.52-4.71 4.52zm-3.3-6.25v3.49h2.65c1.14 0 1.87-.68 1.87-1.76 0-1.06-.73-1.73-1.87-1.73h-2.65zm9.66 6.25v-14.1h3.55v14.1h-3.55zm16.05 0v-8.61l-4.95 8.61h-3.55v-14.1h3.55v8.39l4.95-8.39h3.55v14.1h-3.55zm-2.49-15.67c-2.68 0-4.14-1.46-4.39-4.01h2.38c.19.97.81 1.54 2.03 1.54 1.22 0 1.81-.57 2-1.54h2.38c-.26 2.55-1.72 4.01-4.4 4.01zm21.49 17.94c-.76 2.03-1.95 2.9-4.09 2.9h-1.38v-3.17h.81c1.03 0 1.41-.27 1.76-1.27l.6-1.73-4.82-13.1h3.71l2.92 8.72 2.81-8.72h3.71l-6.03 16.37zm16.16-2.27v-5.66h-4.52v5.66h-3.55v-14.1h3.55v5.33h4.52v-5.33h3.55v14.1h-3.55zm15.94 0v-8.61l-4.95 8.61h-3.55v-14.1h3.55v8.39l4.95-8.39h3.55v14.1h-3.55zm14.65 0h-7.2v-14.1h6.96c2.65 0 4.36 1.52 4.36 3.87 0 1.33-.57 2.27-1.79 2.98 1.35.7 2 1.68 2 3.19 0 2.49-1.68 4.06-4.33 4.06zm-3.71-11.5v3h2.63c1.11 0 1.71-.54 1.71-1.52 0-.95-.6-1.49-1.71-1.49h-2.63zm2.79 5.63h-2.79v3.27h2.79c1.11 0 1.76-.65 1.76-1.65 0-1.03-.65-1.62-1.76-1.62zm11.39-.08c.11 2.11 1.16 3.14 3.22 3.14a4.4 4.4 0 0 0 1.62-.3c.51-.22.81-.43 1.43-1.03l2.14 2.08a7.09 7.09 0 0 1-2.44 1.71c-.81.32-1.79.51-2.9.51-4.33 0-6.55-2.46-6.55-7.25 0-4.41 2.35-7.17 6.14-7.17 3.73 0 6.14 2.65 6.14 6.74v1.57h-8.8zm2.68-5.39c-1.62 0-2.6 1.08-2.68 2.98h5.36c-.11-1.93-1.06-2.98-2.68-2.98zm16.27-2.92c1.41 0 2.68.46 3.49 1.27.57.57 1 1.43 1.19 2.38.19 1.03.24 1.73.24 3.6 0 3.3-.38 4.85-1.43 5.9a4.92 4.92 0 0 1-3.49 1.27 4.23 4.23 0 0 1-3.36-1.41v6.42h-3.52v-19.27h3.41v1.33a4.24 4.24 0 0 1 3.47-1.49zm-.98 3.16c-2.44 0-2.38 2.44-2.38 4.25 0 2.76.68 3.84 2.38 3.84 1.76 0 2.38-1.08 2.38-4.09 0-2.94-.62-4-2.38-4zm17.51 10.75c-.78.35-1.65.51-2.63.51-4.03 0-6.33-2.65-6.33-7.34 0-4.44 2.35-7.09 6.33-7.09.97 0 1.87.16 2.63.49.76.32 1.16.6 2 1.41l-2.38 2.38c-.81-.84-1.38-1.11-2.27-1.11-1.84 0-2.79 1.38-2.79 4.03 0 2.71.95 4.06 2.79 4.06.92 0 1.43-.27 2.27-1.11l2.38 2.35a5.6 5.6 0 0 1-2 1.42zm13.21.35v-8.61l-4.95 8.61h-3.55v-14.1h3.55v8.39l4.95-8.39h3.55v14.1h-3.55zm13.48-10.99v10.99h-3.55v-10.99h-4.14v-3.11h11.75v3.11h-4.06zm9.1 5.04c.11 2.11 1.16 3.14 3.22 3.14a4.4 4.4 0 0 0 1.62-.3c.51-.22.81-.43 1.44-1.03l2.14 2.08a7.09 7.09 0 0 1-2.44 1.71c-.81.32-1.79.51-2.9.51-4.33 0-6.55-2.46-6.55-7.25 0-4.41 2.35-7.17 6.14-7.17 3.74 0 6.14 2.65 6.14 6.74v1.57h-8.81zm2.68-5.39c-1.62 0-2.6 1.08-2.68 2.98h5.36c-.11-1.93-1.06-2.98-2.68-2.98zm15.4.35v10.99h-3.55v-10.99h-4.14v-3.11h11.75v3.11h-4.06zm-370.65 43.47-3.55-5.74-1.46 1.68v4.06h-3.52v-14.1h3.52v5.93l4.76-5.93h4.28l-5.17 5.82 5.41 8.28h-4.27zm11.83 2.27c-.76 2.03-1.95 2.9-4.09 2.9h-1.38v-3.17h.81c1.03 0 1.41-.27 1.76-1.27l.6-1.73-4.82-13.1h3.71l2.92 8.72 2.81-8.72h3.71l-6.03 16.37zm16.27-2.27v-10.99h-3.3l-.16 5.49c-.11 3.74-1.76 5.49-4.44 5.49h-1.87v-3.11h.51c1.08 0 2.25-.62 2.3-3.03l.22-7.96h10.26v14.1h-3.52zm14.24 0h-6.79v-14.1h3.55v5.09h3.25c2.79 0 4.68 1.84 4.68 4.49-.01 2.65-1.93 4.52-4.69 4.52zm-3.36-6.25v3.49h2.71c1.14 0 1.84-.68 1.84-1.76 0-1.06-.7-1.73-1.84-1.73h-2.71zm16.92-4.74v10.99h-3.55v-10.99h-4.14v-3.11h11.75v3.11h-4.06zm11.58 13.26c-.76 2.03-1.95 2.9-4.09 2.9h-1.38v-3.17h.81c1.03 0 1.41-.27 1.76-1.27l.6-1.73-4.82-13.1h3.71l2.92 8.72 2.81-8.72h3.71l-6.03 16.37zm14.99-16.53c1.41 0 2.68.46 3.49 1.27.57.57 1 1.43 1.19 2.38.19 1.03.24 1.73.24 3.6 0 3.3-.38 4.85-1.43 5.9a4.92 4.92 0 0 1-3.49 1.27 4.24 4.24 0 0 1-3.36-1.41v6.42h-3.52v-19.27h3.41v1.33a4.25 4.25 0 0 1 3.47-1.49zm-.97 3.16c-2.44 0-2.38 2.44-2.38 4.25 0 2.76.68 3.84 2.38 3.84 1.76 0 2.38-1.08 2.38-4.09 0-2.94-.62-4-2.38-4zm15.97 11.1h-6.74v-14.1h3.55v5.09h3.19c2.79 0 4.71 1.84 4.71 4.49 0 2.65-1.92 4.52-4.71 4.52zm-3.3-6.25v3.49h2.65c1.14 0 1.87-.68 1.87-1.76 0-1.06-.73-1.73-1.87-1.73h-2.65zm9.66 6.25v-14.1h3.55v14.1h-3.55zm22.33 0v-8.61l-4.95 8.61h-3.55v-14.1h3.55v8.39l4.95-8.39h3.55v14.1h-3.55zm22.22 0v-8.61l-4.95 8.61h-3.55v-14.1h3.55v8.39l4.95-8.39h3.55v14.1h-3.55zm15.73-.35c-.79.35-1.65.51-2.63.51-4.03 0-6.33-2.65-6.33-7.33 0-4.44 2.35-7.09 6.33-7.09.97 0 1.87.16 2.63.49.76.32 1.16.6 2 1.41l-2.38 2.38c-.81-.84-1.38-1.11-2.27-1.11-1.84 0-2.79 1.38-2.79 4.03 0 2.71.95 4.06 2.79 4.06.92 0 1.43-.27 2.27-1.11l2.38 2.36a5.96 5.96 0 0 1-2 1.4zm13.26.35-3.55-5.74-1.46 1.68v4.06h-3.52v-14.1h3.52v5.93l4.76-5.93h4.28l-5.17 5.82 5.41 8.28h-4.27zm11.83 2.27c-.76 2.03-1.95 2.9-4.09 2.9h-1.38v-3.17h.81c1.03 0 1.41-.27 1.76-1.27l.6-1.73-4.82-13.1h3.71l2.92 8.72 2.81-8.72h3.71l-6.03 16.37zm16.37-2.62c-.78.35-1.65.51-2.63.51-4.03 0-6.33-2.65-6.33-7.33 0-4.44 2.36-7.09 6.33-7.09.97 0 1.87.16 2.63.49.76.32 1.16.6 2 1.41l-2.38 2.38c-.81-.84-1.38-1.11-2.27-1.11-1.84 0-2.79 1.38-2.79 4.03 0 2.71.95 4.06 2.79 4.06.92 0 1.43-.27 2.27-1.11l2.38 2.36a5.86 5.86 0 0 1-2 1.4zm12.99 0c-.79.35-1.65.51-2.63.51-4.03 0-6.33-2.65-6.33-7.33 0-4.44 2.35-7.09 6.33-7.09.97 0 1.87.16 2.63.49.76.32 1.16.6 2 1.41l-2.38 2.38c-.81-.84-1.38-1.11-2.27-1.11-1.84 0-2.79 1.38-2.79 4.03 0 2.71.95 4.06 2.79 4.06.92 0 1.43-.27 2.27-1.11l2.38 2.36a5.77 5.77 0 0 1-2 1.4zm10.75-10.64v10.99h-3.55v-10.99h-4.14v-3.11h11.75v3.11h-4.06zm13.5 10.99h-7.2v-14.1h6.96c2.65 0 4.36 1.52 4.36 3.87 0 1.33-.57 2.27-1.79 2.98 1.35.7 2 1.68 2 3.19 0 2.49-1.67 4.06-4.33 4.06zm-3.7-11.5v3h2.63c1.11 0 1.71-.54 1.71-1.52 0-.95-.6-1.49-1.71-1.49h-2.63zm2.78 5.63h-2.79v3.27h2.79c1.11 0 1.76-.65 1.76-1.65 0-1.03-.65-1.62-1.76-1.62zm-227.18-126h-23.24v-58.05h38.4v10.11h-27.07v11.74h11.9c11.66 0 18.83 7.5 18.83 18.1.02 10.6-7.08 18.1-18.82 18.1zm-.57-26.09h-11.33v15.98h11.33c5.06 0 8.07-3.18 8.07-7.99 0-4.73-3.01-7.99-8.07-7.99zm42.23-21.85v47.94h-11.33v-58.05h36.53v10.11h-25.2zm53.89 38.16c-2.2 5.22-6.2 9.78-12.96 9.78h-6.93v-10.11h4.57c3.1 0 4.97-1.3 6.03-3.67l1.71-3.99-18.59-40.28h11.82l12.15 27.96 11.01-27.96h11.74l-20.55 48.27zm61.39 9.78-14.92-26.42-7.5 8.97v17.45h-11.33v-58.05h11.33v25.27l20.46-25.27h13.78l-19.24 23.07 20.63 34.98h-13.21zm53.15 0v-37.26l-22.58 37.26h-10.11v-58.05h11.33v37.18l22.58-37.18h10.11v58.05h-11.33z"/></svg>