<svg xmlns="http://www.w3.org/2000/svg" viewBox="0 0 1234.6 200" style="enable-background:new 0 0 1234.6 200" xml:space="preserve"><path d="M390.2 13.7c2.1-.1 4.4-.3 6.7-.3h56.6c14.7 0 27 5.4 36.5 16.6 13.4 15.8 11.5 41.5-4.8 55.7-2.1 1.9-4.5 3.4-6.9 5.2.3.2.8.4 1.3.7 11.2 5.3 20.1 13 24.4 24.8 8.5 23.5 0 52.8-30.6 60.4a62.1 62.1 0 0 1-14.9 1.9c-22 .2-44 .1-66 .1-.6 0-1.3-.1-2.3-.1v-165zm13.1 152.1c.7.1 1.1.1 1.6.1 17 0 34.1.1 51.1-.2 5-.1 10.1-.9 14.8-2.4 9.8-3.1 17.4-9 20.8-19.2 2.8-8.2 2.2-16.3-1-24.3-5.1-12.8-17.2-21.4-30.7-21.5-17.4-.1-34.9 0-52.3 0h-4.3v67.5zm0-80.4c.8.1 1.3.2 1.9.2h49.2c7.7 0 14.5-2.6 20.4-7.6 10.7-9 13.9-24.7 7.2-36.9-5.4-9.8-14.5-14.3-25.3-14.8-12.9-.6-25.9-.3-38.8-.4-4.1 0-8.1.1-12.2.1-1.8 0-2.4.7-2.4 2.6.1 15 .1 30 .1 45-.1 3.7-.1 7.6-.1 11.8zm571.1 69.2c.1-.8.3-1.7.3-2.5 0-45.3 0-90.7-.1-136 0-2.1.6-2.7 2.6-2.6 2.8.1 5.6.1 8.4-.1 1.8-.1 2.3.6 2.3 2.4-.1 12.2-.1 24.4-.1 36.6 0 41.3 0 82.5.1 123.8 0 2.1-.5 2.9-2.7 2.7-1.9-.2-3.9-.3-5.7 0-3.5.5-5.5-1-7.4-3.8-15.5-23.2-31.1-46.4-46.7-69.5-15-22.1-30.1-44.2-45.1-66.3-.4-.6-.9-1.2-1.9-1.7v3c0 45.2 0 90.5.1 135.7 0 2.2-.6 2.8-2.7 2.7-2.7-.2-5.4-.1-8.2 0-1.7.1-2.2-.6-2.2-2.2.1-4.9 0-9.7 0-14.6 0-48.8 0-97.5-.1-146.3 0-1.6.3-2.4 2.1-2.3 3.1.1 6.2-.1 9.3.1.9.1 2.1.8 2.7 1.6 24.5 36.1 48.9 72.1 73.3 108.2 7 10.4 14 20.9 21.1 31.3.2-.1.4-.2.6-.2zm-431.9 24.2h-12.4v-165.4h6.6c18.6 0 37.3-.1 55.9 0 11.9.1 22.9 2.8 32.4 10.5 9.3 7.6 14.8 17.3 16.7 29 1.8 10.8 1.5 21.5-2.7 31.8-4.9 11.9-12.7 20.9-25 25.6-.2.1-.4.2-.5.3 11.2 22.8 22.2 45.4 33.4 68.1-.5.1-.9.3-1.3.3h-11.5c-1.5 0-2.5-.5-3.2-2-9.2-19.2-18.5-38.3-27.8-57.5-.1-.3-.4-.6-.4-.9-.7-4-3.5-4.3-6.9-4.3-17 .1-33.9.1-50.9.1h-2.4v64.4zm0-77.8c.4.1.7.2 1 .2 17.9 0 35.8.2 53.7-.1 8.4-.1 16-3.2 21.8-9.6 11.1-12.4 12.4-26.9 7.8-42.1-2.8-9.4-8.8-16.5-18.2-20.3-6-2.4-12.4-2.8-18.8-2.8-14.1 0-28.3-.1-42.4-.1h-4.8c-.1 25-.1 49.8-.1 74.8zm251.7 77.8c-4.3 0-8.4.1-12.5-.1-.5 0-1.3-.8-1.5-1.4-4.6-12.8-9.2-25.7-13.6-38.5-.5-1.3-1.1-1.8-2.4-1.8-4.4-.1-8.8-.2-13.2-.2h-54.7c-6.5 0-6.5 0-8.7 6.2-3.8 10.9-7.7 21.8-11.4 32.7-.8 2.3-2 3.4-4.5 3.2-3.3-.2-6.6 0-10.3 0 1.6-4.5 3-8.6 4.5-12.7a12379.32 12379.32 0 0 0 52.3-149.3c1-2.8 2.2-3.7 5-3.5 3.3.2 6.7.2 10.1.1 1.6 0 2.6.5 3.2 2.2 3.8 10.7 7.6 21.5 11.4 32.2 8.7 24.5 17.3 49 26 73.4 6.5 18.4 13.1 36.7 19.7 55.1.1.7.3 1.4.6 2.4zm-100.5-54.1h67.7c-11.3-31.7-22.5-63.2-33.7-94.7-.3 0-.6 0-.9.1-11 31.4-22 62.9-33.1 94.6zm481.3-98.4v152.4h-13.3v-152.3h-50.6c-2.3 0-4.6-.1-7 0-1.4 0-2-.4-1.9-1.9.1-3-.1-6.1 0-9.1 0-.6.9-1.7 1.5-1.8 1.5-.3 3-.2 4.5-.2h111.6c4.2 0 8.5.2 12.7.2 1.5 0 2 .5 1.9 1.9-.1 2.6-.2 5.3 0 7.9.2 2.2-.5 2.9-2.8 2.9-9.4-.1-18.7 0-28.1.1-9.2-.1-18.7-.1-28.5-.1zm-1069.4 143.3c-5.3-2.7-10-5.2-14.7-7.6-27.3-13.8-54.7-27.7-82-41.5-2.3-1.2-4.5-2.4-6.9-3.4-1.5-.6-2-1.6-2-3.1 0-2.9.1-5.7 0-8.6-.1-1.7.5-2.5 2.1-3.3 16.9-8.5 33.7-17.1 50.6-25.6 16.9-8.6 33.9-17.1 50.9-25.7.5-.3 1.1-.5 2.1-.8 0 4.7.1 9.2 0 13.6-.2 7.9 1.5 6-6.3 9.7-17.4 8.3-34.6 16.6-51.9 24.9-6.2 3-12.4 5.9-18.6 8.9-1.4.7-2.7 1.5-4.7 2.7 1.8 1 3.1 1.8 4.5 2.5 14.3 6.8 28.7 13.7 43 20.5 10.7 5.1 21.4 10.3 32.1 15.5.8.4 1.7 1.4 1.7 2.2.2 6.1.1 12.2.1 19.1zm209.7-60c-1.5-.9-2.7-1.6-3.9-2.2-24-11.6-48-23.3-72.1-34.5-4.2-2-5.6-4.1-5.3-8.5.4-4.6.1-9.2.1-14.3 1.1.5 1.9.7 2.7 1.1 18.8 9.6 37.5 19.1 56.3 28.7 14.8 7.5 29.6 15.1 44.4 22.6 1.3.7 2 1.4 1.9 2.9-.1 2.9-.1 5.7 0 8.6 0 1.5-.4 2.3-1.8 3-17.9 9.1-35.9 18.2-53.8 27.3-15.7 8-31.3 15.9-47 23.8-.8.4-1.5.7-2.7 1.2 0-6.7-.1-12.9.1-19.2 0-.8 1.3-1.9 2.2-2.3 21.7-10.5 43.4-20.9 65.2-31.3 4.5-2 8.8-4.4 13.7-6.9zm-181 90.4c1.6-6.1 3.2-11.8 4.7-17.6a31405 31405 0 0 0 24.8-92.1c7.9-29.4 15.9-58.7 23.7-88.1.4-1.6 1.1-2.2 2.8-2.2 4.9.1 9.7 0 15 0-1.1 4.1-2.1 7.8-3 11.4l-29.7 110.5c-6.8 25.4-13.7 50.8-20.6 76.1-.2.7-1.1 1.8-1.7 1.8-5.2.2-10.5.2-16 .2zm947.3-103.8v80.4c0 1.7-.5 2.3-2.2 2.2-3-.1-5.9-.1-8.9 0-1.5.1-2-.6-2-1.9v-160.9c0-2 .6-2.7 2.6-2.6 2.7.1 5.4.1 8.1 0 1.8-.1 2.4.6 2.4 2.3v35.7c.1 15 .1 29.9 0 44.8.1 0 0 0 0 0zm-251.1 0c0 26.6 0 53.2.1 79.7 0 2.3-.6 3.1-2.9 2.9-2.6-.2-5.3-.1-7.9 0-1.8.1-2.3-.6-2.3-2.3.1-19.1.1-38.1.1-57.2v-100.8c-.1-5-.1-5 4.8-5.1 2.2 0 4.3.1 6.5.1 1.4 0 1.9.5 1.9 2-.2 26.9-.2 53.8-.3 80.7.1 0 .1 0 0 0z" style="fill:#fff"/></svg>