<svg version="1.1" id="Слой_1" xmlns="http://www.w3.org/2000/svg" x="0" y="0" viewBox="0 0 840.19 200" style="enable-background:new 0 0 840.19 200" xml:space="preserve"><style>.st0{fill:#fff}</style><path class="st0" d="M192.93 80.52h5.07v32.39h-5.07v4h14.86v-4h-5.07v-32.39h17.27v9.32h3.97v-13.32h-31.03zm59.46-4.61c-5.73 0-10.59 1.92-14.47 5.72-3.87 3.8-5.84 8.85-5.84 15.02 0 6.11 1.95 11.15 5.81 15 3.85 3.85 8.69 5.8 14.39 5.8 5.8 0 10.69-1.96 14.53-5.84 3.83-3.87 5.77-8.92 5.77-15.01 0-6.05-1.94-11.06-5.78-14.9-3.83-3.85-8.68-5.79-14.41-5.79zm-.03 4.21c4.45 0 8.2 1.57 11.14 4.65 2.95 3.1 4.44 7.07 4.44 11.81 0 4.78-1.49 8.78-4.43 11.9a14.75 14.75 0 0 1-11.18 4.68c-4.4 0-8.14-1.55-11.11-4.6-2.98-3.06-4.49-7.07-4.49-11.92s1.5-8.86 4.45-11.92a14.97 14.97 0 0 1 11.18-4.6zm66.04 21.58c-2.75 7.75-7.62 11.52-14.88 11.52-4.73 0-8.55-1.62-11.36-4.82-2.83-3.22-4.26-7.22-4.26-11.87 0-4.74 1.44-8.71 4.29-11.79 2.84-3.07 6.57-4.62 11.1-4.62 3.1 0 6.02.86 8.68 2.56a10.99 10.99 0 0 1 5 7.14l.13.55h3.91v-13.85h-4.05v4.98a17.89 17.89 0 0 0-5.22-3.66 20.09 20.09 0 0 0-8.67-1.93c-5.6 0-10.35 1.93-14.1 5.74-3.75 3.81-5.65 8.81-5.65 14.85 0 6.15 1.84 11.23 5.46 15.09 3.63 3.88 8.56 5.84 14.64 5.84 4.55 0 8.54-1.2 11.86-3.58 3.32-2.38 5.68-5.83 7-10.26l.16-.54-3.74-2.17-.3.82zm31.28-25.8c-3.06 0-5.98.66-8.7 1.95-2.05.98-3.8 2.21-5.22 3.68v-5h-4.05v13.86h3.91l.12-.56a11 11 0 0 1 4.98-7.14c2.67-1.7 5.6-2.56 8.69-2.56a14.8 14.8 0 0 1 10.47 4c2.67 2.51 4.28 5.92 4.78 10.15h-22.54v4h22.58c-.42 4.4-1.98 7.99-4.66 10.68-2.82 2.83-6.45 4.27-10.81 4.27-7.4 0-12.28-3.76-14.92-11.51l-.28-.82-3.75 2.17.16.54c1.37 4.48 3.74 7.95 7.05 10.3 3.3 2.34 7.32 3.53 11.95 3.53 5.79 0 10.62-1.92 14.34-5.7 3.72-3.78 5.61-8.9 5.61-15.23 0-6.13-1.92-11.14-5.71-14.92a19.13 19.13 0 0 0-14-5.69zm53.01 4.62h4.91v13.29h-19.76v-13.29h4.87v-4h-14.27v4h4.7v32.39h-4.7v4h14.27v-4h-4.87v-15.11h19.76v15.11h-4.91v4h14.34v-4h-4.71v-32.39h4.71v-4h-14.34zm20.67 0h4.99v32.39h-4.99v4h32.6v-11h-4.05v7h-18.87v-14.63h16.11v-4h-16.11v-13.76h18.87v6.92h4.05v-10.92h-32.6zm66.64-1.79a11.32 11.32 0 0 0-4.56-1.85 40.92 40.92 0 0 0-6.11-.36h-15.53v4h5.18v32.39h-5.18v3.29h.71v.71h14.35v-4h-5.15v-12.08h5.06c4.34 0 7.41-.39 9.37-1.2 2-.82 3.64-2.24 4.89-4.23a12.5 12.5 0 0 0 1.86-6.71c0-2.08-.45-4.03-1.34-5.8a10.69 10.69 0 0 0-3.55-4.16zm.22 9.96c0 2.3-.66 4.2-2 5.81-1.3 1.55-4.21 2.34-8.66 2.34h-5.85v-16.32h5.85c3.04 0 5.25.29 6.55.86a6.27 6.27 0 0 1 2.99 2.78 9.16 9.16 0 0 1 1.12 4.53zm10.9-8.17h5.07v32.39h-5.07v4h14.86v-4h-5.07v-32.39h17.27v9.32h3.96v-13.32h-31.02zm59.46-4.61c-5.73 0-10.59 1.92-14.47 5.72-3.87 3.8-5.84 8.85-5.84 15.02 0 6.11 1.95 11.15 5.81 15 3.85 3.85 8.69 5.8 14.39 5.8 5.81 0 10.69-1.96 14.53-5.84 3.83-3.87 5.77-8.92 5.77-15.01 0-6.05-1.94-11.06-5.78-14.9-3.83-3.85-8.68-5.79-14.41-5.79zm-.03 4.21c4.45 0 8.2 1.57 11.14 4.65 2.95 3.1 4.44 7.07 4.44 11.81 0 4.78-1.49 8.78-4.43 11.9a14.75 14.75 0 0 1-11.18 4.68 15 15 0 0 1-11.12-4.6c-2.98-3.06-4.49-7.07-4.49-11.92s1.5-8.86 4.45-11.92a15 15 0 0 1 11.19-4.6zm52.8.4h4.9v13.29h-19.76v-13.29h4.88v-4h-14.28v4h4.71v32.39h-4.71v4h14.28v-4h-4.88v-15.11h19.76v15.11h-4.9v4h14.33v-4h-4.7v-32.39h4.7v-4h-14.33zm43.82 0h4.55v-4h-18.17v4h4.61l-11.21 32.39h-5.13v4h14.58v-4h-4.81l3.7-10.77h14.71l3.77 10.77h-4.57v4h14.33v-4h-5.02l-11.34-32.39zm-4.49.07 5.97 17.56h-12.01l6.04-17.56zm47.86-.07h4.56v-4h-18.2v4h4.62l-11.23 32.39h-5.13v10.75h4v-6.75h33.74v6.75h4v-10.75h-5.02l-11.34-32.39zm-4.48.06 11.08 32.33h-22.2l11.12-32.33zm48.39 14.86a9.7 9.7 0 0 0 4.39-8.3c0-2.79-1.08-5.38-3.21-7.71-2.15-2.35-5.31-3.54-9.4-3.54-3.77 0-7.13 1.09-10.03 3.24l-.02-2.79h-3.96v13.24h3.97v-3.5a7.51 7.51 0 0 1 3.35-4.63 10.97 10.97 0 0 1 6.01-1.7 9.3 9.3 0 0 1 6.2 2.12 6.64 6.64 0 0 1 2.46 5.36c0 1.58-.42 2.93-1.27 4.12-.85 1.17-1.69 1.88-2.51 2.11-.92.26-2.75.39-5.45.39h-2.72v4h2.41c3.06 0 5.28.21 6.6.64a7.1 7.1 0 0 1 3.36 2.41 6.42 6.42 0 0 1 1.44 4.23c0 2.28-.84 4.18-2.58 5.81-1.72 1.62-4.03 2.44-6.87 2.44-2.37 0-4.65-.68-6.77-2.02-2.11-1.33-4.03-4-5.7-7.91l-.3-.7-3.76 1.92.22.59c3.01 8.07 8.36 12.17 15.9 12.17 4.33 0 7.86-1.22 10.49-3.62a11.5 11.5 0 0 0 1.9-15.32 8.3 8.3 0 0 0-4.15-3.05zm36.36-19.53c-5.73 0-10.59 1.92-14.46 5.72-3.88 3.8-5.84 8.85-5.84 15.02 0 6.1 1.95 11.15 5.81 15 3.85 3.85 8.69 5.8 14.38 5.8 5.8 0 10.69-1.96 14.53-5.84 3.83-3.87 5.78-8.92 5.78-15.01 0-6.05-1.94-11.06-5.78-14.9-3.84-3.85-8.69-5.79-14.42-5.79zm15.55 20.67c0 4.78-1.49 8.78-4.43 11.9a14.75 14.75 0 0 1-11.18 4.68 15 15 0 0 1-11.12-4.6c-2.98-3.06-4.49-7.07-4.49-11.92 0-4.84 1.5-8.85 4.45-11.92a14.97 14.97 0 0 1 11.19-4.6c4.45 0 8.2 1.57 11.14 4.65 2.95 3.11 4.44 7.08 4.44 11.81zm42.49-13.69a10.65 10.65 0 0 0-3.56-4.16 11.32 11.32 0 0 0-4.56-1.85 40.87 40.87 0 0 0-6.1-.36h-15.53v4h5.18v32.39h-5.18v3.29h.71v.71h14.36v-4h-5.16v-12.08h5.06c4.34 0 7.41-.39 9.37-1.2 2-.82 3.64-2.24 4.88-4.23a12.5 12.5 0 0 0 1.86-6.71c.01-2.08-.44-4.03-1.33-5.8zm-3.33 5.8c0 2.3-.66 4.2-2 5.81-1.3 1.55-4.21 2.34-8.66 2.34h-5.85v-16.32h5.85c3.04 0 5.25.29 6.55.86a6.27 6.27 0 0 1 2.99 2.78 9.14 9.14 0 0 1 1.12 4.53zm-691.29-1.01a66.42 66.42 0 0 0-13.5-28.61l38.09-45.99-51.91 33.14a66.33 66.33 0 0 0-22.31-10.04c.08.78.15 1.57.2 2.37a63.86 63.86 0 0 1 20.05 8.99l-3.06 1.95a60.75 60.75 0 0 0-16.86-7.49c.01.77-.01 1.55-.03 2.34a58.55 58.55 0 0 1 14.8 6.49l-1.6 1.02-16.28 10.4c-1.57 4.92-6.14 11.19-11.92 19.12l-.92 1.27c-3.81 5.23-8 11.05-11.7 17.15a91.05 91.05 0 0 0-7.4 14.73l19.1-2.03 8.24-.88-8.24 8.72-19.61 20.74-2.08 2.2c-4.7-9.04-3.98-18.79-.59-28.41a86.67 86.67 0 0 1 7.25-15.07c4.69-7.93 10.27-15.42 15.02-21.96 3.56-4.89 6.65-9.24 8.56-12.83.72-1.35 1.28-2.6 1.63-3.73a63.95 63.95 0 0 0 2.89-16.95l.01-.69v-2.32a54.44 54.44 0 0 0-.4-5.76c-2.07-16.89-11.21-28.87-16.44-35.55.87 16.1 2.94 17.54-.55 27.72a63.3 63.3 0 0 1-7.91 15.31 69.43 69.43 0 0 1-5.54 7.01 52.23 52.23 0 0 1-4.93 4.83c-19.89 16.75-30.92 30.5-36.1 42.44a50.51 50.51 0 0 0-2.14 5.87c-.35 1.2-.63 2.37-.87 3.54a37.58 37.58 0 0 0-.54 3.52l-.05.41c-.28 2.9-.22 5.71.12 8.44.95 7.58 4.09 14.59 8.13 21.52 4.05 6.95 11.37 12.97 18.71 17.17l-2.01 2.12-37.9 40.1 48.2-35.16 2.75-2a80.57 80.57 0 0 0 25.19 4.61c5.88.13 9.59-.44 9.59-.44l-.65-.26a106.49 106.49 0 0 1-9.74-4.31l-1.03-.54a72.6 72.6 0 0 1-4.16-2.34l-.01-.01a58.58 58.58 0 0 1-7.42-5.3l2.37-1.73 10.25-7.47 56.31-41.07 2.42-1.76a58.81 58.81 0 0 1-57.99 57.41c1.35.7 2.75 1.39 4.22 2.06 31.33-2.54 56.06-28.83 56.06-60.8l-.01-.33 3.24-2.36c.04.89.07 1.79.07 2.69 0 31.69-23.04 58.08-53.24 63.34l.32.13 3.63 1.38c29.49-6.84 51.55-33.31 51.55-64.85 0-1.44-.06-2.87-.15-4.28l16.44-11.99-17.62 3.06zm-11.84 2.06-31.62 5.5 22.86-27.6 2-2.41a58.65 58.65 0 0 1 10.9 23.79l-4.14.72zm6.37-1.11a60.73 60.73 0 0 0-11.65-25.18l2.15-2.59a64.06 64.06 0 0 1 12.75 27.21l-3.25.56z"/><path class="st0" d="m15.25 102.69.16-.54a58.74 58.74 0 0 1 5.65-12.74c6.59-11.31 17.64-23.44 33.41-36.71a56.65 56.65 0 0 0 8.15-8.77 62.75 62.75 0 0 0 9.38-17.13c2.25-6.57 2-8.99 1.33-15.44l-.05-.46-.16-1.58c-4.12 11.75-13.3 20.69-25.67 28.95-12.67 8.47-21.05 21.38-26.08 34.12-4.49 10.5-6.36 20.64-6.1 27.7-.03.9-.04 1.77-.02 2.6zm-1.6 9.47-13.65 8.72 13.91-1.48c-.29-2.33-.4-4.74-.26-7.24z"/></svg>