<svg version="1.1" id="Слой_1" xmlns="http://www.w3.org/2000/svg" x="0" y="0" viewBox="0 0 351.21 200" style="enable-background:new 0 0 351.21 200" xml:space="preserve"><style>.st0{fill:#fff}</style><path class="st0" d="M305.01 49.9c0 8.51.08 16.39-.02 24.26-.07 5.39-3.12 8.99-7.95 9.77a8.96 8.96 0 0 1-10.5-9.09c.14-21.07.2-42.15.34-63.23.01-1.69.13-3.46.62-5.07 1.44-4.62 5.4-7.12 9.82-6.44 4.4.67 8.12 5.05 8.08 9.59-.05 6.09-.08 12.18-.29 18.26-.07 2 .67 2.62 2.52 2.61 5.46-.03 10.95.37 16.38-.05 13.48-1.04 25.27 10.41 26.95 23.83 1.65 13.27-5.01 25.2-16.48 29.87a24.02 24.02 0 0 1-14.9 1.28c-5.68-1.34-9.16-5.99-8.39-11.19.8-5.39 5.46-8.73 11.46-8.21 4.47.39 6.73-.77 8.14-4.2 1.47-3.57.45-8.21-2.48-10.44-1.01-.76-2.36-1.47-3.57-1.5-6.46-.13-12.92-.05-19.73-.05zm-142.47 114.77c.77-.9 1.29-1.45 1.73-2.04 7.51-9.98 15-19.98 22.53-29.95 2.54-3.36 5.08-6.73 7.82-9.92 2.89-3.38 7.3-4.18 11.3-2.37 3.77 1.71 6.09 5.42 5.46 9.42a12 12 0 0 1-2.1 5.1 15538.3 15538.3 0 0 1-42.5 56.82c-1.12 1.49-2.44 2.84-3.6 4.31-2.63 3.33-6.01 4.66-10.14 3.63-4.57-1.14-8.28-3.45-9.36-8.41a33.4 33.4 0 0 1-.77-7.19c.1-18.66.28-37.31.46-55.97.05-5.64 4.18-9.82 9.52-9.76 5.19.06 8.9 4.27 8.95 9.97.11 11.46.29 22.93.45 34.39.01.49.13.99.25 1.97zm-119.27 6.73v-18.96c.01-4 1.5-7.2 5.33-8.83 5.07-2.16 10.81 1.38 11.75 7.59.43 2.83 1.64 3.01 3.98 2.97 7.87-.12 15.77-.32 23.63.11 7.22.39 11.93 4.98 14.96 11.16 5.81 11.88.42 25.65-11.62 31.88-1.78.92-4.06 1.15-6.12 1.18-11.77.17-23.54.17-35.31.24-3.16.02-6.3-2.42-6.38-5.59-.19-7.25-.06-14.5-.06-21.76l-.16.01zm28.32 8.57v-.16c3.49 0 7 .21 10.47-.07 2.38-.19 3.49-2.1 3.26-4.52-.23-2.4-2.04-2.46-3.79-2.45-5.13.04-10.26.21-15.39.22-4.99.01-4.93-.06-5.1 4.86-.06 1.68.55 2.2 2.15 2.15 2.79-.09 5.6-.03 8.4-.03zm-53.33-147.38c1.6-1.75 2.97-3.23 4.3-4.74 6.46-7.31 12.91-14.63 19.35-21.95 3.22-3.66 8.82-3.87 12.58-.46 3.73 3.4 4.12 8.8.95 12.37-8.7 9.8-17.4 19.61-26.06 29.45-3.35 3.8-6.65 7.64-9.85 11.57a5.89 5.89 0 0 0-1.25 3.34c-.14 4.13-.06 8.27-.04 12.41a8.8 8.8 0 0 1-9.16 8.88 8.78 8.78 0 0 1-8.84-8.94c-.05-21.6-.14-43.2-.24-64.81-.02-4.86 3.01-8.34 7.94-9.07 4.19-.61 8.87 2.07 9.71 6.28.64 3.23.32 6.67.34 10.01.03 4.84-.02 9.67-.02 14.51 0 .22.1.44.29 1.15zm197.32-11.92c0 5.44.45 10.79-.09 16.03-1.2 11.48-4.11 22.56-9.86 32.7-3.77 6.65-8.79 11.94-16.57 13.84-5.16 1.26-10.2-1.16-11.93-5.75-1.87-4.93.18-10.36 5.26-12.48 3.57-1.49 5.64-4.04 7.1-7.33 5.13-11.52 7.83-23.44 6.54-36.17-.38-3.76-.27-7.67.3-11.41.85-5.58 4.48-8.31 10.46-8.31 11.7 0 23.41.1 35.12.25 4.59.06 8.25 4.32 8.14 9.19-.12 4.84-3.76 8.67-8.33 8.75l-25.26.45c-.23 0-.44.12-.88.24zm48.62 116.13c-5.32 0-10.53.18-15.72-.09a14.13 14.13 0 0 1-6.31-1.88c-3.82-2.31-5.15-6.17-4.04-10.07 1.03-3.64 4.59-6.33 8.85-6.46 3.12-.1 6.24.04 9.36.08 5.38.07 10.77.25 16.15.17 6.36-.1 10.89 4.38 10.43 10.93-.45 6.35.31 12.77.27 19.16-.09 13.65-.32 27.3-.55 40.95a9.11 9.11 0 0 1-8.64 9.09c-4.51.34-8.65-2.91-9.61-7.56-.17-.84-.32-1.7-.32-2.55.03-12.64.09-25.27.13-37.91v-13.86zm-153.18-55.97c-2.18 0-4.37-.1-6.55.02-5.04.27-8.43-3.73-8.78-8.45a8.77 8.77 0 0 1 7.63-9.41c3.54-.43 7.14-.48 10.71-.53 2.2-.03 3.55-.84 4.51-2.9 7.75-16.61 15.61-33.17 23.41-49.76 2.28-4.84 7.34-6.75 12.1-4.48 4.77 2.27 6.45 7.38 4.12 12.22a8672.03 8672.03 0 0 0-16.74 35.07c-2.5 5.28-4.9 10.61-7.38 15.9-2.61 5.58-7 9.5-12.64 11.48-3.18 1.12-6.89.73-10.37 1.02l-.02-.18z"/><path class="st0" d="M249.77 59.41c0 4.52.06 9.05-.02 13.57-.08 4.82-3.5 8.32-8.36 8.76a8.97 8.97 0 0 1-9.64-7.11 18.69 18.69 0 0 1-.48-3.93c.04-11.31.14-22.61.22-33.92.04-4.49 2.81-7.74 7.35-8.64a8.93 8.93 0 0 1 10.06 5.4c.3.78.52 1.66.52 2.49.04 7.79.02 15.58.02 23.37l.33.01zm-174.76 75.66c-8.26 0-16.53.1-24.79-.04-4.43-.07-8.01-4.42-7.89-9.17.11-4.72 3.69-8.67 8.09-8.73 12.16-.16 24.32-.28 36.47-.32 5.19-.02 8.77 3.33 9.22 8.37a8.84 8.84 0 0 1-7.58 9.68c-2.21.37-4.49.32-6.74.38-2.26.06-4.52.01-6.79.01l.01-.18zm40-94.99c-3.56.08-6.18-2.38-8.07-5.55a471.75 471.75 0 0 1-9.89-17.54c-2.06-3.79-.21-8.97 3.84-11.29 4.06-2.33 9.47-1.31 11.7 2.34 3.7 6.05 7.37 12.12 10.91 18.25 3.66 6.33-.65 13.71-8.49 13.79zm-55.2 34.25c-.41 4.94-2.13 7.83-5.64 9.44-3.24 1.49-6.53 1.33-9.18-1.1-3.54-3.26-6.8-6.81-10.14-10.28-1.78-1.85-3.47-3.8-5.22-5.68-3.32-3.58-2.99-9.15.78-12.56 3.71-3.36 9.13-3.18 12.41.28 4.7 4.96 9.61 9.73 14.19 14.8 1.46 1.63 2.18 3.94 2.8 5.1zm132.76 102.38c0-3.35-.1-6.71.02-10.05.17-4.46 4.34-7.99 9.14-7.9 4.78.09 8.78 3.81 8.79 8.29.01 6.93 0 13.86-.1 20.79-.07 5.36-3.43 8.9-8.57 9.26a8.7 8.7 0 0 1-9.5-8.02c-.4-4.08-.08-8.24-.08-12.36l.3-.01zm104.53-57.65a9.38 9.38 0 0 1 9.3 9.43 9.65 9.65 0 0 1-9.6 9.47 9.35 9.35 0 0 1-9.28-9.44 9.55 9.55 0 0 1 9.58-9.46z"/></svg>