<svg xmlns="http://www.w3.org/2000/svg" viewBox="0 0 973.7 200" style="enable-background:new 0 0 973.7 200" xml:space="preserve"><path d="M3.01 81.34v-79.44h24.88l18.52 54.56 18.08-54.56h24.32v79.44h-16.4v-56.46l-19.52 56.46h-13.5l-19.75-55.9v55.9h-16.63zm170.26-79.44v79.44h-17.4v-55.12h-.33l-29.9 55.12h-19.64v-79.44h17.4v55h.33l29.9-55h19.64zm84.46 0v79.44h-17.4v-34.25h-32.47v34.25h-17.4v-79.44h17.4v29.9h32.47v-29.9h17.4zm84.47 0v79.44h-17.4v-55.12h-.33l-29.9 55.12h-19.64v-79.44h17.4v55h.33l29.9-55h19.64zm88.14 48.76c-.89 9.97-4.39 17.89-10.49 23.76-6.1 5.88-14.47 8.81-25.1 8.81-11.53 0-20.81-3.81-27.84-11.44-7.03-7.62-10.54-17.72-10.54-30.29 0-11.9 3.55-21.79 10.65-29.68 7.1-7.88 16.57-11.82 28.39-11.82 9.44 0 17.37 2.68 23.76 8.03a28.68 28.68 0 0 1 10.6 20.42h-17.07c-.89-4.39-2.88-7.79-5.97-10.21-3.09-2.42-6.97-3.62-11.66-3.62-4.83 0-8.91 1.36-12.22 4.07a21.78 21.78 0 0 0-6.97 9.98 40 40 0 0 0-2.01 12.94c0 8.18 1.9 14.71 5.69 19.58 3.79 4.87 8.89 7.31 15.28 7.31 10.64 0 16.7-5.95 18.19-17.85l17.31.01zm72.52-48.76v14.84h-23.88v64.6h-17.52v-64.6h-23.88v-14.84h65.28zm70.51 0v14.28h-42.29v17.29h38.83v13.73h-38.83v19.52h43.07v14.62h-60.36v-79.44h59.58zm14.62 0h34.25c8.92 0 16.01 2.14 21.25 6.41 5.24 4.28 7.86 10.65 7.86 19.13 0 8.33-2.6 14.63-7.81 18.91-5.21 4.28-12.01 6.41-20.42 6.41h-17.85v28.56h-17.29l.01-79.42zm17.29 14.28v22.87h15.51c9.07 0 13.61-3.79 13.61-11.38 0-7.66-4.5-11.49-13.5-11.49h-15.62zm129.76 34.48c-.89 9.97-4.39 17.89-10.49 23.76-6.1 5.88-14.47 8.81-25.1 8.81-11.53 0-20.81-3.81-27.84-11.44-7.03-7.62-10.54-17.72-10.54-30.29 0-11.9 3.55-21.79 10.65-29.68 7.11-7.88 16.57-11.82 28.4-11.82 9.44 0 17.37 2.68 23.76 8.03a28.68 28.68 0 0 1 10.6 20.42h-17.07c-.89-4.39-2.88-7.79-5.97-10.21-3.09-2.42-6.97-3.62-11.66-3.62-4.83 0-8.91 1.36-12.22 4.07a21.78 21.78 0 0 0-6.97 9.98 40 40 0 0 0-2.01 12.94c0 8.18 1.9 14.71 5.69 19.58 3.79 4.87 8.89 7.31 15.28 7.31 10.64 0 16.7-5.95 18.19-17.85l17.3.01zm72.52-48.76v14.84h-23.88v64.6h-17.52v-64.6h-23.88v-14.84h65.28zm10.83 0h37.6c7.44 0 13.52 1.65 18.24 4.96 4.72 3.31 7.08 8.31 7.08 15.01 0 3.72-.97 7.01-2.9 9.87a18.28 18.28 0 0 1-7.92 6.53c9.67 2.75 14.5 9.22 14.5 19.41 0 7.51-2.53 13.33-7.59 17.46-5.06 4.13-11.49 6.19-19.3 6.19h-39.72v-79.43zm16.96 13.5v18.63h15.84c8.77 0 13.16-3.08 13.16-9.26 0-3.64-1.19-6.12-3.57-7.42-2.38-1.3-5.58-1.95-9.59-1.95h-15.84zm0 30.46v21.64h17.52c4.53 0 8.12-.74 10.77-2.23 2.64-1.49 3.96-4.35 3.96-8.59 0-4.31-1.39-7.2-4.18-8.65-2.79-1.45-6.6-2.17-11.44-2.17h-16.63zm99.41-45.86c11.6 0 20.99 3.85 28.17 11.55 7.18 7.7 10.77 17.76 10.77 30.18s-3.59 22.44-10.77 30.07c-7.18 7.62-16.61 11.44-28.28 11.44-11.75 0-21.24-3.81-28.45-11.44-7.21-7.62-10.82-17.64-10.82-30.07 0-12.57 3.59-22.67 10.77-30.29 7.17-7.63 16.71-11.44 28.61-11.44zm-.23 14.28c-6.54 0-11.77 2.45-15.68 7.36s-5.86 11.49-5.86 19.75c0 8.55 1.93 15.25 5.8 20.08 3.87 4.83 9.18 7.29 15.95 7.36 6.62 0 11.83-2.45 15.62-7.36 3.79-4.91 5.69-11.6 5.69-20.08 0-8.33-1.93-14.93-5.8-19.8-3.85-4.87-9.1-7.31-15.72-7.31zm-625.81 153.14c-.89 9.97-4.39 17.89-10.49 23.76-6.1 5.88-14.47 8.81-25.1 8.81-11.53 0-20.81-3.81-27.84-11.44-7.03-7.62-10.54-17.72-10.54-30.29 0-11.9 3.55-21.79 10.65-29.68 7.1-7.88 16.57-11.83 28.39-11.83 9.44 0 17.37 2.68 23.76 8.03a28.68 28.68 0 0 1 10.6 20.42h-17.07c-.89-4.39-2.88-7.79-5.97-10.21-3.09-2.42-6.97-3.62-11.66-3.62-4.83 0-8.91 1.36-12.22 4.07a21.78 21.78 0 0 0-6.97 9.98 40 40 0 0 0-2.01 12.94c0 8.18 1.9 14.71 5.69 19.58 3.79 4.87 8.89 7.31 15.28 7.31 10.64 0 16.7-5.95 18.19-17.85l17.31.02zm13.39-48.76h37.6c7.44 0 13.52 1.65 18.24 4.96 4.72 3.31 7.08 8.31 7.08 15.01 0 3.72-.97 7.01-2.9 9.87a18.28 18.28 0 0 1-7.92 6.53c9.67 2.75 14.5 9.22 14.5 19.41 0 7.51-2.53 13.33-7.59 17.46-5.06 4.13-11.49 6.19-19.3 6.19h-39.72l.01-79.43zm16.96 13.5v18.63h15.84c8.77 0 13.16-3.08 13.16-9.26 0-3.64-1.19-6.12-3.57-7.42-2.38-1.3-5.58-1.95-9.59-1.95h-15.84zm0 30.46v21.64h17.52c4.53 0 8.12-.74 10.77-2.23 2.64-1.49 3.96-4.35 3.96-8.59 0-4.31-1.39-7.2-4.18-8.65-2.79-1.45-6.6-2.17-11.44-2.17h-16.63zm101.2 4.35-23.21 31.13h-21.87l24.66-32.13c-5.5-1.41-9.91-4.07-13.22-7.98-3.31-3.9-4.96-8.91-4.96-15.01 0-8.03 2.58-14.09 7.75-18.19 5.17-4.09 11.69-6.13 19.58-6.13h38.94v79.44h-17.29v-31.13h-10.38zm10.37-12.6v-21.98h-17.29c-4.46 0-8.01.74-10.65 2.23-2.64 1.49-3.96 4.31-3.96 8.48 0 4.46 1.35 7.46 4.07 8.98 2.71 1.52 6.49 2.29 11.32 2.29h16.51zm94.62 19.3c0 7.66-2.97 13.95-8.92 18.86-5.95 4.91-13.39 7.36-22.31 7.36-10.78 0-19.21-2.47-25.27-7.42-6.06-4.94-9.13-11.92-9.2-20.92h17.29c.15 5.06 1.78 8.81 4.91 11.27s7.21 3.68 12.27 3.68c4.02 0 7.31-1.21 9.87-3.62a11.96 11.96 0 0 0 3.85-9.09c0-7.44-4.98-11.16-14.95-11.16h-6.02v-11.83c.89.07 2.45.11 4.68.11 9.59 0 14.39-3.61 14.39-10.82 0-3.05-1.08-5.41-3.23-7.08-2.16-1.67-5.06-2.51-8.7-2.51-4.31 0-7.77 1.02-10.37 3.07-2.6 2.05-4.05 4.96-4.35 8.76h-16.51c.15-8.4 3.16-14.73 9.04-18.97 5.87-4.24 13.31-6.36 22.31-6.36 8.18 0 14.93 2.03 20.25 6.08 5.32 4.05 7.98 9.35 7.98 15.9 0 3.94-1.11 7.38-3.35 10.32a14.7 14.7 0 0 1-8.7 5.63 16.9 16.9 0 0 1 10.82 6.13c2.8 3.42 4.22 7.63 4.22 12.61zm81.11-55.01v79.44h-17.4v-55.11h-.34l-29.9 55.12h-19.64v-79.44h17.4v55h.34l29.9-55h19.64z" style="fill:#fff"/></svg>