<svg xmlns="http://www.w3.org/2000/svg" viewBox="0 0 544.27 200" style="enable-background:new 0 0 544.27 200" xml:space="preserve"><path d="M3.94 51.36v-50.16h15.71l11.7 34.45 11.41-34.45h15.36v50.16h-10.36v-35.65l-12.32 35.65h-8.53l-12.47-35.3v35.29h-10.5zm107.51-50.16v50.16h-10.99v-34.8h-.21l-18.88 34.8h-12.4v-50.16h10.99v34.73h.21l18.88-34.73h12.4zm53.32 0v50.16h-10.99v-21.63h-20.5v21.63h-10.99v-50.16h10.99v18.88h20.5v-18.88h10.99zm55.66 30.78c-.56 6.29-2.77 11.3-6.62 15.01-3.85 3.71-9.14 5.57-15.85 5.57-7.28 0-13.14-2.41-17.58-7.22-4.44-4.81-6.66-11.19-6.66-19.13 0-7.51 2.24-13.76 6.73-18.74 4.48-4.98 10.46-7.47 17.93-7.47 5.97 0 10.97 1.69 15.01 5.07a18.1 18.1 0 0 1 6.69 12.89h-10.78a10.52 10.52 0 0 0-3.77-6.45c-1.95-1.53-4.4-2.29-7.36-2.29-3.05 0-5.63.86-7.72 2.57a13.73 13.73 0 0 0-4.4 6.31 25.13 25.13 0 0 0-1.27 8.17c0 5.17 1.2 9.29 3.59 12.36a11.6 11.6 0 0 0 9.65 4.62c6.72 0 10.54-3.76 11.48-11.27h10.93zm53.12-30.78-19.66 19.8 21.49 30.36h-13.81l-15.22-22.54-6.41 6.34v16.2h-10.85v-50.16h10.85v20.85l19.73-20.85h13.88zm32.33-.07 19.09 50.23h-11.55l-3.95-11.2h-18.67l-4.09 11.2h-11.27l19.09-50.23h11.35zm.92 30.99-6.62-18.67-6.69 18.67h13.31zm47.34-.42-14.65 19.66h-13.81l15.57-20.29a15.69 15.69 0 0 1-8.35-5.04c-2.09-2.47-3.14-5.63-3.14-9.48 0-5.07 1.63-8.9 4.9-11.48 3.26-2.58 7.39-3.88 12.36-3.88h24.59v50.16h-10.92v-19.65h-6.55zm6.55-7.96v-13.88h-10.92c-2.82 0-5.06.47-6.73 1.41-1.67.94-2.5 2.73-2.5 5.36 0 2.82.86 4.71 2.57 5.67s4.1 1.45 7.15 1.45l10.43-.01zm-308.84 114.23h-10.64v-12.89h-37.41v-50.16h10.99v40.79h20.5v-40.79h10.99v40.79h5.57v22.26zm44.17-63.05v9.02h-26.7v10.92h24.52v8.67h-24.52v12.33h27.19v9.23h-38.11v-50.17h37.62zm51.64 0v50.16h-10.99v-21.63h-20.5v21.63h-10.99v-50.16h10.99v18.88h20.5v-18.88h10.99zm48.11 0v9.37h-15.08v40.79h-11.06v-40.79h-15.08v-9.37h41.22zm6.98 0h21.63c5.64 0 10.11 1.35 13.42 4.05 3.31 2.7 4.97 6.73 4.97 12.08 0 5.26-1.65 9.24-4.93 11.94-3.29 2.7-7.59 4.05-12.89 4.05h-11.27v18.04h-10.92l-.01-50.16zm10.92 9.02v14.44h9.79c5.73 0 8.6-2.4 8.6-7.19 0-4.84-2.84-7.26-8.53-7.26l-9.86.01zm62.06-9.09 19.09 50.23h-11.55l-3.95-11.2h-18.67l-4.09 11.2h-11.26l19.09-50.23h11.34zm.91 31-6.62-18.67-6.69 18.67h13.31zm64.89-30.93v50.16h-10.99v-40.79h-13.46l-.7 21.28c-.47 13.67-5.12 20.5-13.95 20.5-2.44 0-4.51-.28-6.2-.85v-8.88c1.13.56 2.42.85 3.88.85 1.74 0 3.08-.79 4.02-2.36.94-1.57 1.48-4.71 1.62-9.41l.85-30.5h34.93zm51.07 34.03c0 5.36-1.66 9.38-4.97 12.08-3.31 2.7-7.79 4.05-13.42 4.05h-22.19v-50.16h10.92v18.04h11.84c5.31 0 9.6 1.35 12.89 4.05 3.28 2.7 4.93 6.68 4.93 11.94zm-10.71-.14c0-4.79-2.87-7.19-8.6-7.19h-10.36v14.44h10.43c5.69 0 8.53-2.41 8.53-7.25zm60.87-33.89v50.16h-10.99v-21.63h-20.5v21.63h-10.99v-50.16h10.99v18.88h20.5v-18.88h10.99zm35.78-.07 19.09 50.23h-11.55l-3.95-11.2h-18.67l-4.09 11.2h-11.27l19.09-50.23h11.35zm.92 31-6.62-18.67-6.69 18.67h13.31zm47.34-.42-14.65 19.66h-13.81l15.57-20.29a15.69 15.69 0 0 1-8.35-5.04c-2.09-2.47-3.14-5.63-3.14-9.48 0-5.07 1.63-8.9 4.9-11.48 3.26-2.58 7.39-3.88 12.36-3.88h24.59v50.16h-10.92v-19.65h-6.55zm6.55-7.96v-13.88h-10.92c-2.82 0-5.06.47-6.73 1.41-1.67.94-2.5 2.73-2.5 5.36 0 2.82.85 4.71 2.57 5.67 1.72.96 4.1 1.45 7.15 1.45l10.43-.01zm-492.14 51.18v9.37h-15.07v40.79h-11.06v-40.79h-15.08v-9.37h41.21zm31.84-.07 19.09 50.23h-11.55l-3.95-11.2h-18.66l-4.09 11.2h-11.27l19.09-50.23h11.34zm.92 30.99-6.62-18.67-6.69 18.67h13.31zm23.53 19.23v-50.16h15.71l11.7 34.45 11.41-34.45h15.36v50.16h-10.36v-35.65l-12.33 35.65h-8.53l-12.47-35.29v35.29h-10.49zm87.7-51.35c7.33 0 13.26 2.43 17.79 7.29 4.53 4.86 6.8 11.21 6.8 19.06 0 7.84-2.27 14.17-6.8 18.99-4.53 4.82-10.49 7.22-17.86 7.22-7.42 0-13.41-2.41-17.97-7.22-4.56-4.81-6.83-11.14-6.83-18.99 0-7.94 2.27-14.31 6.8-19.13 4.54-4.81 10.56-7.22 18.07-7.22zm-.14 9.02c-4.13 0-7.43 1.55-9.9 4.65-2.47 3.1-3.7 7.26-3.7 12.47 0 5.4 1.22 9.63 3.66 12.68s5.8 4.6 10.08 4.65c4.18 0 7.47-1.55 9.86-4.65 2.4-3.1 3.59-7.33 3.59-12.68 0-5.26-1.22-9.43-3.66-12.51-2.44-3.08-5.75-4.61-9.93-4.61zm54.95 20.5-13.46 21.84h-13.6l20.08-29.66-18.25-20.5h13.25l17.4 20.5v-20.5h10.57v20.5l17.4-20.5h13.25l-18.25 20.5 20.08 29.66h-13.67l-13.39-21.84-5.43 6.13v15.71h-10.57v-15.71l-5.41-6.13zm96.3-28.32v50.16h-10.99v-21.63h-20.5v21.63h-10.99v-50.16h10.99v18.88h20.5v-18.88h10.99zm34.66 30.5-14.65 19.66h-13.81l15.57-20.29a15.69 15.69 0 0 1-8.35-5.04c-2.09-2.47-3.14-5.63-3.14-9.48 0-5.07 1.63-8.9 4.9-11.48 3.26-2.58 7.39-3.88 12.36-3.88h24.59v50.16h-10.92v-19.66l-6.55.01zm6.55-7.96v-13.88h-10.92c-2.82 0-5.06.47-6.73 1.41-1.67.94-2.5 2.73-2.5 5.36 0 2.82.86 4.71 2.57 5.67s4.1 1.45 7.15 1.45l10.43-.01z" style="fill:#fff"/></svg>