<svg version="1.1" id="Слой_1" xmlns="http://www.w3.org/2000/svg" x="0" y="0" viewBox="0 0 1037.97 200" style="enable-background:new 0 0 1037.97 200" xml:space="preserve"><style>.st0{fill:#fff}</style><path class="st0" d="M39.87 12.08v44.78h-9.81v-36.42h-18.3v36.42h-9.82v-44.78h37.93zm9.75 0h19.31c5.03 0 9.03 1.21 11.98 3.62 2.96 2.41 4.43 6.01 4.43 10.78 0 4.69-1.47 8.25-4.4 10.66-2.93 2.41-6.77 3.62-11.51 3.62h-10.06v16.1h-9.75v-44.78zm9.75 8.04v12.89h8.74c5.11 0 7.67-2.14 7.67-6.42 0-4.32-2.54-6.48-7.61-6.48h-8.8zm35.21 36.54v-8.3c1.59.67 3.17 1.01 4.72 1.01 1.42 0 2.54-.37 3.33-1.1s1.19-1.64 1.19-2.74c0-.38-.04-.75-.12-1.13a9.57 9.57 0 0 0-.38-1.26 19.09 19.09 0 0 0-1.04-2.33l-.54-1.07-13.13-27.66h10.88l10.12 23.58 9.94-23.58h10.5l-15.09 32.95c-2.14 4.69-4.28 7.98-6.42 9.84-2.14 1.87-4.97 2.8-8.49 2.8-1.97 0-3.79-.34-5.47-1.01zm60.13-19.3-12.01 19.5h-12.14l17.93-26.48-16.29-18.3h11.82l15.54 18.3v-18.3h9.43v18.3l15.54-18.3h11.82l-16.29 18.3 17.93 26.48h-12.2l-11.95-19.5-4.84 5.47v14.02h-9.43v-14.02l-4.86-5.47z"/><path class="st0" d="m225.02 12.01 17.04 44.84h-10.32l-3.52-10h-16.67l-3.65 10h-10.06l17.05-44.84h10.13zm.82 27.67-5.91-16.67-5.98 16.67h11.89zm58.93-27.6v44.78h-9.81v-19.31h-18.3v19.31h-9.81v-44.78h9.81v16.85h18.3v-16.85h9.81zm49.68 27.48c-.5 5.62-2.48 10.08-5.91 13.39-3.44 3.31-8.15 4.97-14.15 4.97-6.5 0-11.73-2.15-15.69-6.45-3.96-4.3-5.94-9.99-5.94-17.07 0-6.71 2-12.28 6.01-16.73 4-4.45 9.34-6.67 16.01-6.67 5.33 0 9.79 1.51 13.4 4.53a16.18 16.18 0 0 1 5.98 11.51h-9.62c-.5-2.47-1.62-4.39-3.36-5.75s-3.93-2.05-6.57-2.05c-2.73 0-5.02.76-6.89 2.29a12.21 12.21 0 0 0-3.93 5.63 22.4 22.4 0 0 0-1.13 7.3c0 4.61 1.07 8.29 3.21 11.04a10.34 10.34 0 0 0 8.61 4.12c5.99 0 9.41-3.36 10.25-10.06h9.72zm47.43-27.48-17.55 17.67 19.18 27.11h-12.33l-13.58-20.13-5.72 5.66v14.46h-9.68v-44.77h9.68v18.61l17.61-18.61h12.39zm44.52 0v44.78h-9.81v-31.08h-.19l-16.86 31.07h-11.07v-44.77h9.81v31.01h.19l16.86-31 11.07-.01zm47.61 0v44.78h-9.81v-31.08h-.19l-16.86 31.07h-11.07v-44.77h9.81v31.01h.19l16.86-31 11.07-.01zm-12.2-12.08h3.52c0 6.04-3.42 9.06-10.25 9.06s-10.25-3.02-10.25-9.06h3.52c.55 2.77 2.79 4.15 6.73 4.15s6.19-1.38 6.73-4.15zm-413.26 99.78c0 5.49-1.76 9.81-5.28 12.95-3.52 3.15-8.24 4.82-14.15 5.03v4.9h-9.68v-4.9c-5.91-.21-10.63-1.89-14.15-5.03-3.53-3.14-5.29-7.46-5.29-12.95 0-5.32 1.75-9.52 5.25-12.58 3.5-3.06 8.23-4.69 14.18-4.9v-4.4h9.68v4.4c5.95.21 10.68 1.85 14.18 4.9 3.51 3.06 5.26 7.26 5.26 12.58zm-29.12 10.63v-21c-3.23.12-5.69 1.09-7.39 2.89-1.7 1.8-2.55 4.3-2.55 7.49 0 3.06.88 5.56 2.64 7.51 1.76 1.94 4.2 2.98 7.3 3.11zm19.68-10.63c0-3.18-.86-5.68-2.58-7.49-1.72-1.8-4.19-2.77-7.42-2.89v21c3.1-.12 5.55-1.16 7.33-3.11 1.78-1.95 2.67-4.45 2.67-7.51zm55.1-21.89v44.78h-9.81v-31.07h-.19l-16.85 31.07h-11.08v-44.78h9.81v31h.19l16.86-31h11.07zm43.71 31.01c0 4.32-1.68 7.86-5.03 10.63s-7.55 4.15-12.58 4.15c-6.08 0-10.83-1.39-14.25-4.18s-5.15-6.72-5.19-11.79h9.75c.08 2.85 1.01 4.97 2.77 6.35s4.07 2.07 6.92 2.07c2.26 0 4.12-.68 5.57-2.04a6.73 6.73 0 0 0 2.17-5.12c0-4.19-2.81-6.29-8.43-6.29h-3.39v-6.68c.5.04 1.38.06 2.64.06 5.41 0 8.11-2.03 8.11-6.1a4.8 4.8 0 0 0-1.82-4c-1.22-.94-2.85-1.42-4.9-1.42-2.43 0-4.38.58-5.85 1.73a6.57 6.57 0 0 0-2.45 4.94h-9.31c.08-4.74 1.78-8.3 5.1-10.69s7.5-3.58 12.58-3.58c4.61 0 8.42 1.14 11.41 3.43 3 2.29 4.5 5.27 4.5 8.96 0 2.22-.63 4.16-1.89 5.82a8.35 8.35 0 0 1-4.9 3.18 9.53 9.53 0 0 1 6.1 3.46 10.91 10.91 0 0 1 2.37 7.11zm47.61-31.01-17.55 17.67 19.18 27.11h-12.33l-13.59-20.12-5.72 5.66v14.46h-9.68v-44.78h9.68v18.61l17.61-18.61h12.4zm8.67 44.59v-8.3c1.59.67 3.16 1.01 4.72 1.01 1.43 0 2.54-.37 3.33-1.1a3.6 3.6 0 0 0 1.2-2.74c0-.38-.04-.76-.12-1.13-.09-.38-.21-.79-.38-1.26a19.09 19.09 0 0 0-1.04-2.33l-.54-1.07-13.15-27.67h10.88l10.12 23.58 9.94-23.58h10.5l-15.1 32.95c-2.14 4.7-4.28 7.98-6.41 9.84-2.14 1.87-4.97 2.8-8.49 2.8-1.95.01-3.78-.33-5.46-1zm77.8-44.59v44.78h-9.81v-36.41h-12.01l-.63 18.99c-.42 12.2-4.57 18.3-12.45 18.3-2.18 0-4.02-.25-5.54-.76v-7.93a7.7 7.7 0 0 0 3.46.76c1.55 0 2.74-.7 3.59-2.11.84-1.4 1.32-4.2 1.45-8.4l.76-27.23 31.18.01zm45.6 30.38c0 4.78-1.48 8.38-4.43 10.79-2.95 2.41-6.95 3.62-11.98 3.62h-19.81v-44.79h9.75v16.1h10.57c4.74 0 8.57 1.21 11.51 3.62 2.92 2.41 4.39 5.96 4.39 10.66zm-9.56-.13c0-4.28-2.56-6.41-7.67-6.41h-9.24v12.89h9.31c5.06 0 7.6-2.16 7.6-6.48zm49.69-30.25v8.36h-13.46v36.41h-9.88v-36.4h-13.46v-8.36h36.8zm8.23 44.59v-8.3c1.59.67 3.17 1.01 4.72 1.01 1.42 0 2.54-.37 3.33-1.1.8-.73 1.2-1.65 1.2-2.74 0-.38-.04-.76-.12-1.13a9.57 9.57 0 0 0-.38-1.26c-.17-.46-.32-.83-.44-1.1s-.33-.68-.6-1.23l-.54-1.07-13.14-27.67h10.88l10.12 23.58 9.94-23.58h10.5l-15.1 32.95c-2.14 4.7-4.28 7.98-6.42 9.84-2.14 1.87-4.97 2.8-8.49 2.8a14.4 14.4 0 0 1-5.46-1zm40.94-44.59h19.31c5.03 0 9.02 1.21 11.98 3.62 2.95 2.41 4.43 6 4.43 10.79 0 4.69-1.47 8.25-4.4 10.66-2.93 2.41-6.77 3.62-11.51 3.62h-10.06v16.1h-9.75v-44.79zm9.75 8.05v12.89h8.74c5.11 0 7.67-2.14 7.67-6.42 0-4.32-2.54-6.48-7.61-6.48h-8.8zm71.07-8.05v44.78h-9.81v-19.31h-18.3v19.31h-9.81v-44.78h9.81v16.86h18.3v-16.86h9.81zm29.94-1.07c6.54 0 11.83 2.17 15.88 6.51 4.04 4.34 6.07 10.01 6.07 17.01 0 7-2.02 12.65-6.07 16.95s-9.36 6.45-15.94 6.45c-6.62 0-11.97-2.15-16.04-6.45-4.07-4.3-6.1-9.95-6.1-16.95 0-7.08 2.02-12.78 6.07-17.07 4.04-4.3 9.42-6.45 16.13-6.45zm-.13 8.05c-3.69 0-6.63 1.38-8.83 4.15-2.2 2.77-3.3 6.48-3.3 11.13 0 4.82 1.09 8.59 3.27 11.32s5.18 4.11 8.99 4.15c3.73 0 6.67-1.38 8.8-4.15 2.14-2.77 3.21-6.54 3.21-11.32 0-4.69-1.09-8.42-3.27-11.16-2.18-2.74-5.14-4.12-8.87-4.12zm47.74 16.67v7.99h-18.93v-7.99h18.93zm48.68 3.84c-.5 5.62-2.47 10.09-5.91 13.4-3.44 3.31-8.16 4.97-14.15 4.97-6.5 0-11.73-2.15-15.69-6.45-3.96-4.3-5.94-9.99-5.94-17.07 0-6.71 2-12.28 6.01-16.73 4-4.44 9.34-6.67 16.01-6.67 5.33 0 9.79 1.51 13.4 4.53 3.6 3.02 5.6 6.86 5.97 11.51h-9.62a9.36 9.36 0 0 0-3.36-5.75 10.35 10.35 0 0 0-6.57-2.04c-2.72 0-5.02.76-6.89 2.29a12.28 12.28 0 0 0-3.93 5.63 22.38 22.38 0 0 0-1.13 7.29c0 4.61 1.07 8.29 3.21 11.04a10.34 10.34 0 0 0 8.61 4.12c5.99 0 9.41-3.35 10.25-10.06l9.73-.01zm45.53-27.49v44.78h-9.81v-36.41h-18.3v36.41h-9.81v-44.78h37.92zm29.94-1.07c6.54 0 11.83 2.17 15.88 6.51 4.04 4.34 6.07 10.01 6.07 17.01 0 7-2.02 12.65-6.07 16.95s-9.36 6.45-15.94 6.45c-6.62 0-11.97-2.15-16.04-6.45-4.07-4.3-6.1-9.95-6.1-16.95 0-7.08 2.02-12.78 6.07-17.07 4.04-4.3 9.42-6.45 16.13-6.45zm-.13 8.05a10.7 10.7 0 0 0-8.84 4.15c-2.2 2.77-3.3 6.48-3.3 11.13 0 4.82 1.09 8.59 3.27 11.32s5.18 4.11 8.99 4.15c3.73 0 6.67-1.38 8.8-4.15 2.14-2.77 3.21-6.54 3.21-11.32 0-4.69-1.09-8.42-3.27-11.16-2.17-2.74-5.13-4.12-8.86-4.12zm63.08-6.98v8.36h-13.46v36.41h-9.88v-36.4h-13.46v-8.36h36.8zm6.23 0h19.31c5.03 0 9.03 1.21 11.98 3.62 2.96 2.41 4.43 6 4.43 10.79 0 4.69-1.47 8.25-4.4 10.66-2.93 2.41-6.77 3.62-11.51 3.62h-10.06v16.1h-9.75v-44.79zm9.75 8.05v12.89h8.74c5.11 0 7.67-2.14 7.67-6.42 0-4.32-2.54-6.48-7.61-6.48h-8.8zm71.06-8.05v44.78h-9.81v-31.07h-.19l-16.85 31.07h-11.07v-44.78h9.81v31h.19l16.85-31h11.07zm9.63 0h21.2c4.19 0 7.62.93 10.28 2.8s3.99 4.68 3.99 8.46c0 2.1-.54 3.95-1.64 5.57a10.34 10.34 0 0 1-4.47 3.68c5.45 1.55 8.17 5.2 8.17 10.94 0 4.24-1.42 7.51-4.28 9.84-2.85 2.33-6.48 3.49-10.88 3.49h-22.39l.02-44.78zm9.56 7.61v10.5h8.93c4.95 0 7.42-1.74 7.42-5.22 0-2.06-.67-3.45-2.01-4.18-1.34-.73-3.15-1.1-5.41-1.1h-8.93zm0 17.17v12.2h9.88c2.56 0 4.58-.42 6.07-1.26 1.49-.84 2.23-2.45 2.23-4.84 0-2.43-.78-4.06-2.36-4.88s-3.72-1.23-6.45-1.23l-9.37.01zm73.71-24.78v44.78h-9.81v-19.31h-18.3v19.31h-9.81v-44.78h9.81v16.86h18.3v-16.86h9.81zm43.52 30.38c0 4.78-1.48 8.38-4.43 10.79-2.96 2.41-6.95 3.62-11.98 3.62h-17.42v-44.79h9.75v16.1h8.17c4.74 0 8.57 1.21 11.51 3.62 2.93 2.41 4.4 5.96 4.4 10.66zm-9.56-.13c0-4.28-2.56-6.41-7.67-6.41h-6.85v12.89h6.92c5.06 0 7.6-2.16 7.6-6.48zm14.34-30.25h9.81v44.78h-9.81v-44.78zm57.36 0v44.78h-9.81v-31.07h-.19l-16.85 31.07h-11.07v-44.78h9.81v31h.19l16.86-31h11.06zm-12.2-12.07h3.52c0 6.04-3.42 9.06-10.25 9.06-6.84 0-10.25-3.02-10.25-9.06h3.52c.54 2.77 2.79 4.15 6.73 4.15 3.94 0 6.18-1.39 6.73-4.15zm-984.01 77.89-17.55 17.67 19.18 27.11h-12.32l-13.58-20.12-5.72 5.66v14.46h-9.7v-44.78h9.69v18.62l17.61-18.62h12.39zm43.52 0v44.78h-9.81v-36.41h-12.02l-.63 18.99c-.42 12.2-4.57 18.3-12.45 18.3-2.18 0-4.02-.25-5.53-.76v-7.93a7.7 7.7 0 0 0 3.46.76c1.55 0 2.74-.7 3.58-2.11.84-1.4 1.32-4.2 1.45-8.4l.76-27.23 31.19.01zm11.57 44.59v-8.3c1.59.67 3.16 1.01 4.72 1.01 1.43 0 2.54-.37 3.33-1.1a3.59 3.59 0 0 0 1.19-2.74c0-.38-.04-.76-.12-1.13a9.57 9.57 0 0 0-.38-1.26 19.09 19.09 0 0 0-1.04-2.33l-.54-1.07-13.14-27.67h10.88l10.12 23.58 9.94-23.58h10.5l-15.1 32.96c-2.14 4.7-4.28 7.98-6.42 9.84-2.14 1.87-4.97 2.8-8.49 2.8a14.6 14.6 0 0 1-5.45-1.01zm50.75-28.49h11.7c4.74 0 8.57 1.21 11.51 3.62 2.93 2.41 4.4 5.96 4.4 10.66 0 4.78-1.48 8.38-4.43 10.79-2.96 2.41-6.95 3.62-11.98 3.62h-20.94v-44.78h33.21v8.11h-23.47v7.98zm18.05 14.15c0-4.28-2.56-6.41-7.67-6.41h-10.38v12.89h10.44c5.07 0 7.61-2.16 7.61-6.48zm42.7-10.69h-4.34l-1.2-18.43h6.67l-1.13 18.43zm11.07 0h-4.28l-1.2-18.43h6.67l-1.19 18.43zm12.2 25.22v-44.78h14.02l10.44 30.76 10.19-30.76h13.71v44.78h-9.24v-31.82l-11.01 31.82h-7.61l-11.12-31.51v31.51h-9.38zm60.13-.19v-8.3c1.59.67 3.17 1.01 4.72 1.01 1.42 0 2.54-.37 3.33-1.1.8-.73 1.2-1.65 1.2-2.74 0-.38-.04-.76-.12-1.13a9.57 9.57 0 0 0-.38-1.26c-.17-.46-.32-.83-.44-1.1s-.33-.68-.6-1.23l-.54-1.07-13.14-27.67h10.88l10.12 23.58 9.94-23.58h10.5l-15.1 32.96c-2.14 4.7-4.28 7.98-6.42 9.84-2.14 1.87-4.97 2.8-8.49 2.8a14.6 14.6 0 0 1-5.46-1.01zm77.48-44.59-14.4 21.38 15.72 23.4h-11.76l-9.81-15.54-9.94 15.54h-11.2l15.79-23.4-14.59-21.38h11.45l8.93 14.4 8.99-14.4h10.82zm28.62-.06 17.04 44.84h-10.32l-3.52-10h-16.67l-3.65 10h-10.06l17.05-44.84h10.13zm.82 27.67-5.91-16.67-5.98 16.67h11.89zm20.94-27.61h21.2c4.19 0 7.62.93 10.28 2.8s3.99 4.68 3.99 8.46c0 2.1-.55 3.95-1.64 5.57a10.3 10.3 0 0 1-4.46 3.68c5.45 1.55 8.17 5.2 8.17 10.94 0 4.24-1.42 7.51-4.28 9.84s-6.48 3.49-10.88 3.49h-22.39l.01-44.78zm9.56 7.61v10.5h8.93c4.95 0 7.42-1.74 7.42-5.22 0-2.05-.67-3.45-2.01-4.18-1.34-.73-3.14-1.1-5.41-1.1h-8.93zm0 17.17v12.2h9.88c2.56 0 4.58-.42 6.07-1.26 1.49-.84 2.23-2.45 2.23-4.84 0-2.43-.79-4.06-2.36-4.88-1.57-.82-3.72-1.23-6.45-1.23l-9.37.01zm69.37-24.78v8.05h-23.84v9.75h21.89v7.74h-21.89v11.01h24.28v8.24h-34.02v-44.78h33.58zm50.94 56.29h-9.5v-11.51h-33.39v-44.78h9.81v36.42h18.3v-36.42h9.81v36.42h4.97v19.87zm12.71-36.73h-4.34l-1.2-18.43h6.67l-1.13 18.43zm11.07 0h-4.28l-1.2-18.43h6.67l-1.19 18.43z"/></svg>