<svg version="1.1" id="Слой_1" xmlns="http://www.w3.org/2000/svg" x="0" y="0" viewBox="0 0 1063.52 200" style="enable-background:new 0 0 1063.52 200" xml:space="preserve"><style>.st0{fill:#fff}</style><path class="st0" d="M116.37 120.36h-69.39v29.58c0 12.81.04 25.62-.02 38.43-.03 6.78-1.99 8.72-8.83 8.76-10.21.06-20.42-.12-30.62.07-5.15.09-7.51-1.81-7.5-7.17.08-59.5.09-118.99-.01-178.48-.01-5.94 3.38-8.27 8.31-8.44 10.2-.34 20.43-.39 30.62.02 4.87.2 8.2 2.62 8.14 8.61-.22 22.35-.09 44.71-.09 67.59h43.04c1.5-8.47 2.05-17.3 4.7-25.46 7.34-22.63 24.02-36.61 45.32-45.62 17.35-7.34 35.71-9.43 54.21-7.69 22.95 2.16 44.23 9.5 60.9 26.3 12.08 12.17 20.16 26.94 19.93 44.42l-.64 48.99-4.36.06c-18.24-.08-11.68-.08-18.24-.08v-23.17h-22.37c0-6.19-.19-11.96.04-17.7.89-22.59-14.69-38.55-35.74-42.34-14.66-2.64-28.71-.46-41.01 8.89-8.63 6.56-13.34 15.34-14.47 25.96-.83 7.79-1.15 15.63-1.75 24.33h-20.16l-.01 24.14z"/><path class="st0" d="M207.03 196.9h-46.33c-.11-2.3 0 2.09 0 0-.02-35.98-.26-82.72-.45-118.7l23.37-15.54 23.79 15.06c-.15 37.28-.24 80.41-.25 117.69 0 .84 0 0-.13 1.49zm135.85-71.13h19.38v28.02h11.35c2.24-18.41 10.99-27 29.64-29.66 12.63-1.8 24.66-.25 33.06 9.91 4.2 5.08 6.95 12.29 7.87 18.89a62.79 62.79 0 0 1-1.2 23.77c-4.21 16.46-16.43 21.37-29.56 22.98a40.28 40.28 0 0 1-25.34-5.01c-8.77-5.02-12.61-12.48-14.55-27.18h-11.12c0 8.09-.28 16.26.1 24.4.24 5.24-1.63 6.8-6.75 6.65-14.91-.42-12.81 1.66-12.88-12.76-.07-19.76 0-39.5 0-60.01zm80.26 44.74c1.43-9.19-.04-17.7-1.69-23.66-.68-2.44-.68-2.44-1.45-4.86-1.74-5.42-6.42-6-11.47-6.19-5.15-.19-8.58 1.92-10.79 6.22-5.93 11.53-5.12 23.63-1.9 35.53 1.61 5.93 5.49 10.53 12.85 10.54 7.36.01 10.98-4.64 12.87-10.52.73-2.26 1.2-4.58 1.58-7.06zm593.24 13.49-24.62-35c-.61.13 0 0 0 0l.04 47.95h-22.56c.37-9.63 1.53-26.99 2.24-36.61.86-11.77 2.49-34.91 2.49-34.91h3.8s15.41.03 16.06 0l22.55 35.74m-124.75 35.66h-19.52v-36.83c-.01-8.68-2.49-9.77-9.03-9.71-7.62.08-9.21 2.98-9.22 9.98-.01 11.93-.4 23.72-.4 36.68h-19.05c-.32-11.27-.22-28.23-.06-39.51.36-6.14-.97-7.32-8.06-7.16-7.21.17-8.71.43-8.9 7.74a2304.2 2304.2 0 0 0-.34 38.71c0 .84.12-1.23 0 0h-19.25c0-11.4.13-24.34-.16-35.55-.16-5.95-1.6-16.12-1.6-16.12-.08-1.7-1.36.72 0 0 2.74-1.46 11.45-7.56 11.45-7.56 2.95.3 5.68 2.66 9.52 4.65 4.4-1.27 10.63-3.64 17.07-4.78 6.8-1.21 13.5-.39 16.75 5.07 8.89-1.87 16.79-4.32 24.85-5.01 9.31-.8 15.41 4.49 15.78 13.74.61 15.08.17 30.23.17 45.66zm-738.22.31s-23.29-.36-32.16-.18c.08-29.5.04-64.36.04-94.39h32.13l-.01 94.57zm442.22-59.42h45.42c13.03 0 13.03 11.29 13.03 14.91 0 3.87-2.63 8-7.49 11.26-.64.43-1.24.92-1.91 1.42 0 0 9.4 5.63 9.4 13.56 0 12.36-3.06 18.08-15.33 18.18-12.35-.1-23.72-.1-35.79-.1-7.32 0-7.32 0-7.32-5.86l-.01-53.37zm21.3 47.68c9.46 0 0 0 12.42-.25 2.65-.05 4.17-2.85 4.17-6.29.22-4.09-2.15-6.53-4.17-6.53h-12.42v13.07zm-.18-24.23h12.6c1.85 0 3.89-3.2 3.89-6.49 0-4.02-1.93-5.68-3.89-5.68h-12.6v12.17zm-402.45-58.86h30.47v94.29h-30.47v-94.29zm309.49 35.23s-.18.02 0 0c18.76.17 20.09.17 19.83 16.55 0 8.24.04 16.47-.01 24.71-.03 5.26 5.26 7.73 10.62 7.72 7.05-.01 8.89-3.06 8.93-8.24.1-13.22.56-27.43.62-40.65 0-.19-.28.62 0 0h18.46s-1.78 53.31 2.5 57.38c-10.29 6.16-14.59 4.24-19.24 1.94-7.26 1.25-14.18 1.94-22.74 2.64-12.05 1.02-19.29-8.66-18.86-18.44l-.11-43.61zm-11.94 59.3h-17.76l-.02-24.5-20.69.04v24.4h-19.2v-59.15h18.83v22.52h20.94v-22.61h17.89l.01 59.3zm172.82-23.79c-.59 9.97 7.26 15.82 18.12 13.56 1.86-.39 3.7-.92 5.54-1.4 10.58-2.76 10.58-2.76 15.75 8.42-5.07 1.88-9.91 4.65-15.03 5.38-12.64 1.8-24.98 1.68-35.93-7.09-11.28-9.04-10.14-33.13-3.27-42.11 10.86-14.2 30.42-17.17 45.72-7.57 6.63 4.16 10.38 21.86 8.77 28.34a9.27 9.27 0 0 1-5.38 1.69c-11.05.3-22.12.21-33.18.26-.2-.01-.39.17-1.11.52zm-.03-12.73h20.32c.36-8.18-1.97-11.09-8.81-11.39-7.7-.33-11.13 2.93-11.51 11.39zm96.65-7.21c-4.57-2.92-16.31-7.79-25 1.16-5.9 7.93-4.59 21.75.26 28.19 4.39 5.83 13.26 5.68 24.32.62 1.54 3.34 3.36 7.54 4.85 10.9-4.41 1.9-7.65 3.49-13.22 4.38-8.06 1.28-13.9.73-21.8-1.41-9.57-2.6-15.75-12.07-17.45-20.83-2.73-14.14 1.33-30.72 15.56-36.37 10.47-4.16 21.48-4.02 32.01-.49 6.18 2.07 5.95 2.88 3.23 8.5l-2.76 5.35zm-665.21-27.68c.26 20.82.34 50.7.05 71.52l-4.68-.04c-6.45-.05-12.92.21-19.83.21v-71.64m160.47.29h22.67v70.84h-22.67v-70.84zm655.51 46.31c.14-9.23.95-10.11 9.15-10.12h29.18c9.99 0 9.99 0 7.51 10.12h-45.84zm108.78 11.91 24.62-35c.61.13 0 0 0 0l-.04 47.95h22.56c-.37-9.63-1.53-26.99-2.24-36.61-.86-11.77-2.49-34.91-2.49-34.91h-3.8s-15.41.03-16.06 0l-22.55 35.74m-661.12-97.37c0 3.74 0 7.15.14 9.38.14 2.57.61 3.29 2.64 3.46.82.11 1.7.11 2.37.17.54.06.74.17.74.39s-.14.39-.82.39c-3.52 0-7.73-.17-8-.17h-.47c-1.29.06-4.07.17-5.49.17-.68 0-.95-.11-.95-.45 0-.17.2-.28.74-.33.68-.06 1.02-.06 1.42-.17 1.29-.33 1.69-1 1.83-3.01.2-2.07.27-5.36.27-9.83v-8.38c0-7.32 0-8.66-.14-10.16-.14-1.56-.54-2.29-2.51-2.68-.34-.05-1.22-.11-1.76-.11-.54-.06-.88-.17-.88-.39 0-.33.34-.39 1.02-.39 2.44 0 4.67.17 6.91.17 1.02 0 13.42 0 14.84-.05 1.36-.06 2.24-.06 3.12-.33.14-.06.4-.11.54-.11.2 0 .27.22.2.45-.07.17-.2.84-.34 1.4a19.26 19.26 0 0 0-.34 3.96c0 .5-.2.89-.48.89-.34 0-.47-.11-.47-.5-.07-1.51-.48-2.23-1.36-2.85-.81-.39-1.36-.72-3.59-.78-2.91-.06-5.62-.11-8.61-.11-.48 0-.61.11-.61.5l.04 19.47zm28.33-8.38c0-7.71 0-8.71-.14-10.22-.14-1.45-.68-2.34-2.57-2.68-.48-.06-1.56-.11-2.1-.11-.14 0-.4-.11-.4-.28 0-.33.34-.45.95-.45 2.91 0 6.64.17 7.05.17 1.42 0 4.88-.17 7.66-.17 7.45 0 10.17 2.01 11.11 2.68a7.85 7.85 0 0 1 2.98 6.25c0 6.2-6.23 10.72-14.71 10.72-.27 0-.95 0-1.29-.05-.27 0-.61-.11-.61-.33 0-.45.41-.45 1.69-.45 5.35 0 9.83-3.01 9.83-7.93 0-.72.2-4.08-2.91-6.76-3.32-2.9-7.18-2.62-8.4-2.62-.88 0-1.9.11-2.3.28-.34.11-.41.5-.41.89v19.32c0 4.3 0 8.32.27 10.33.2 1.34.54 2.46 2.37 2.62.82.11 2.17.22 2.71.22.27 0 .41.11.41.28 0 .28-.27.45-.95.45-3.52 0-7.32-.17-7.66-.17-.07 0-4.07.17-5.96.17-.61 0-.95-.11-.95-.45 0-.17.13-.28.47-.28.48 0 1.22-.11 1.76-.22 1.22-.17 1.56-1.28 1.76-2.62.34-2.01.34-6.03.34-10.22v-8.37zm37.83 21.78c0-.22.34-.39.95-.39.2 0 .48 0 1.42-.06 2.71-.17 4.81-1.06 7.32-4.08a41.77 41.77 0 0 0 2.85-4.13c.34-.45.27-.72-.07-1.23a507.59 507.59 0 0 0-14.51-21.06c-2.17-3.13-3.39-3.57-6.17-3.74-.54-.06-.75-.22-.75-.5 0-.17.2-.33.95-.33 1.9 0 4.74.17 6.44.17.74 0 3.79-.17 5.89-.17.54 0 .88.11.88.28 0 .28-.14.45-.95.56-1.02.05-1.69.39-1.69.78s.47 1 1.02 1.79c1.22 1.79 11.12 16.64 12.34 18.37 3.39-5.42 8-12.79 10.64-17.31.95-1.62 1.22-2.29 1.22-2.9 0-.39-.68-.56-1.29-.67-.61-.05-.81-.33-.81-.5 0-.17.2-.33.81-.33 1.08 0 2.64.11 4.13.11 1.49 0 4.47-.17 5.56-.17.74 0 1.02.11 1.02.28 0 .28-.48.45-1.02.5-.95.06-1.63.17-2.17.33-1.69.45-2.44 1.17-3.73 3.18a1933.09 1933.09 0 0 0-16.2 25.8c-.82 1.39-2.44 3.91-2.71 5.19 0 .33-.14.45-.41.5-.61.11-7.18.11-9.89.11-.53.01-1.07-.04-1.07-.38zm50.9-33.17c-.82.05-1.08.11-1.08 1v19.05c0 4.58.07 7.65.2 9.66.14 1.51.61 2.62 2.37 2.85.88.11 1.96.17 2.51.22.74.06.95.22.95.45 0 .17-.27.33-1.15.33-2.51 0-7.59-.17-7.86-.17-.48 0-3.93.17-5.76.17-.61 0-1.08-.06-1.08-.33 0-.11 0-.33.68-.45.54-.06.61-.06 1.29-.17 1.36-.17 1.96-1.23 2.03-3.24.2-1.95.27-5.03.27-9.61v-8.43c0-7.43 0-8.6-.14-10.11-.14-1.79-.95-2.4-2.64-2.68-.61-.05-1.22-.05-1.76-.11s-.74-.17-.74-.45c0-.17.27-.33.95-.33 2.37 0 6.03.17 6.91.17h30.23c.27 0 5.02-.17 6.44-.17.82 0 .88.22.88.33 0 .17-.07.45-.68.5-.34.06-.54.06-1.08.11-1.62.22-2.24.5-2.37 2.62-.07 1.51-.14 2.79-.14 10.16v8.38c0 4.58 0 7.99.2 9.94.2 1.79.74 2.62 2.44 2.85.88.17 1.69.17 2.37.22.68.06.81.22.81.45 0 .17-.27.33-.74.33-2.98 0-7.52-.17-8-.17-.61 0-4.07.17-6.03.17-.88 0-.95-.17-.95-.33s0-.39.88-.45c.4-.06.61-.06 1.15-.17.95-.17 1.9-.67 2.03-2.79.2-2.01.27-5.75.27-10.28v-19.2c0-.22-.2-.33-.34-.33-.95-.06-3.93-.06-12.61-.06-8.47.01-9.89.01-10.71.07zm56.06 0c-.82.05-1.09.11-1.09 1v19.05c0 4.58.07 7.65.2 9.66.14 1.51.61 2.62 2.37 2.85.88.11 1.96.17 2.51.22.74.06.95.22.95.45 0 .17-.27.33-1.15.33-2.51 0-7.59-.17-7.86-.17-.47 0-3.93.17-5.76.17-.61 0-1.08-.06-1.08-.33 0-.11 0-.33.68-.45.54-.06.61-.06 1.29-.17 1.35-.17 1.97-1.23 2.03-3.24.2-1.95.27-5.03.27-9.61v-8.43c0-7.43 0-8.6-.14-10.11-.14-1.79-.95-2.4-2.64-2.68-.61-.05-1.22-.05-1.76-.11s-.74-.17-.74-.45c0-.17.27-.33.95-.33 2.37 0 6.03.17 6.91.17h30.23c.27 0 5.02-.17 6.44-.17.81 0 .88.22.88.33 0 .17-.07.45-.68.5-.34.06-.54.06-1.09.11-1.62.22-2.24.5-2.37 2.62-.07 1.51-.14 2.79-.14 10.16v8.38c0 4.58 0 7.99.21 9.94.2 1.79.74 2.62 2.44 2.85.88.17 1.69.17 2.37.22.68.06.81.22.81.45 0 .17-.27.33-.74.33-2.98 0-7.52-.17-8-.17-.61 0-4.07.17-6.03.17-.88 0-.95-.17-.95-.33s0-.39.88-.45c.41-.06.61-.06 1.15-.17.95-.17 1.9-.67 2.03-2.79.2-2.01.27-5.75.27-10.28v-19.2c0-.22-.2-.33-.34-.33-.95-.06-3.93-.06-12.61-.06-8.46.01-9.89.01-10.7.07zm53.07 19.93c-.34 0-.54.17-.68.45l-2.98 6.98c-.68 1.56-1.15 3.07-1.15 3.96 0 1 .74 1.45 2.24 1.45h.47c.61 0 .81.17.81.39 0 .28-.54.39-1.02.39-1.49 0-4.61-.17-5.35-.17-.68 0-3.66.17-6.51.17-.74 0-1.09-.11-1.09-.39 0-.22.27-.39.81-.39.34 0 .95 0 1.35-.06 2.91-.22 4.07-2.07 5.22-4.41l13.56-29.43c.74-1.62.95-1.9 1.42-1.9.34 0 .61.22 1.36 1.79.95 1.84 10.17 21.33 13.76 28.32 2.24 4.41 4.2 5.14 5.15 5.42.88.28 1.83.28 2.3.28s.82.11.82.39-.27.39-1.02.39c-.68 0-5.76 0-10.3-.11-1.29-.06-1.69-.11-1.69-.39 0-.17.2-.33.47-.39.27-.11.68-.39.27-1.23l-5.35-11.23c-.14-.17-.27-.28-.54-.28h-12.33zm11.53-1.95c.27 0 .27-.17.2-.33l-5.35-12.34c-.34-.78-.41-.78-.74 0l-5.09 12.34c-.14.22 0 .33.14.33h10.84zm54.83-3.96c3.12-2.29 10.51-8.1 13.56-10.83 3.25-2.96 3.52-3.24 3.52-3.85 0-.39-.27-.67-1.09-.89-.47-.11-.74-.22-.74-.45 0-.17.14-.33.68-.33.41 0 2.44.17 4.61.17 2.03 0 5.76-.17 6.64-.17.95 0 1.08.11 1.08.33s-.2.39-.74.45c-1.08.06-2.51.28-3.32.56-1.62.45-2.51 1.06-6.03 3.69-4.95 3.69-10.85 8.43-13.83 10.67a634.05 634.05 0 0 0 17.49 14.19c4.74 3.57 7.05 4.58 9.76 5.08.74.11.41.06 1.56.17.61.06.95.17.95.45 0 .22-.34.33-1.08.33h-4.41c-5.29 0-6.64-.5-9.35-2.07-3.05-1.79-13.9-10.95-19.25-16.14v4.41c0 4.3-.07 8.21.27 10.22.27 1.62.54 2.23 2.3 2.57.88.17 2.3.22 2.57.22.61.06.74.17.74.39s-.27.39-.95.39c-3.46 0-7.39-.17-7.73-.17-.2 0-4.2.17-6.1.17-.61 0-1.09-.11-1.09-.39 0-.22.27-.39.88-.39.34 0 1.08-.06 1.62-.17 1.15-.22 1.36-1.34 1.56-2.68.34-2.01.34-5.97.34-10.16v-8.38c0-7.37 0-8.71-.14-10.22-.14-1.51-.54-2.34-1.97-2.57-.68-.11-1.15-.11-1.56-.17-.47-.06-.74-.17-.74-.39 0-.28.27-.39 1.02-.39 2.1 0 5.96.17 6.17.17.27 0 4.2-.17 6.1-.17.68 0 1.02.11 1.02.39 0 .22-.2.33-.74.39-.41.06-.74.06-1.22.11-1.97.22-2.17 1.06-2.3 2.68-.14 1.51-.07 2.79-.07 10.16l.01 2.62zm34.1 1.5c0-7.43 6.98-18.54 23.72-18.54 13.42 0 23.66 6.59 23.66 17.82 0 10.67-9.56 19.38-23.99 19.38-16.61 0-23.39-10.17-23.39-18.66zm41.01.67c0-11.23-8.4-17.48-17.69-17.48-9.42 0-17.01 4.8-17.01 15.36 0 10.95 7.39 18.21 18.77 18.21 4.54 0 15.93-1.9 15.93-16.09zm65.41 11.23c.2 1.34.61 4.47 3.25 4.97 1.15.22 2.51.33 3.45.39.27 0 .88.06.88.33 0 .28-.27.45-1.02.45-1.22 0-8.54-.22-10.71-.33-1.49-.11-2.03-.22-2.03-.5 0-.17.27-.39.61-.5.34-.11.54-.78.41-1.56l-2.98-23.9-14.37 24.02c-1.29 2.18-1.49 2.68-2.1 2.68-.41 0-.74-.5-2.03-2.4-1.09-1.62-6.51-10.55-6.91-11.06-.41-.67-7.05-11.5-7.59-12.68l-2.51 21.5c-.07.78-.07 1.28-.07 2.12 0 .61.34 1.45 1.7 1.67.74.11 1.22.11 1.9.17.54.06.68.22.68.33 0 .39-.41.45-1.15.45-2.17 0-5.08-.17-5.62-.17-.68 0-3.52.17-5.22.17-.61 0-1.02-.06-1.02-.45 0-.11.27-.33.88-.33.47 0 .54 0 1.29-.06 1.62-.11 2.24-1.45 2.57-3.69l4.54-30.66c.14-.95.41-1.4.74-1.4.34 0 .54.17 1.02.89l18.17 28.99 17.28-28.93c.34-.61.61-.95 1.02-.95.41 0 .61.5.68 1.4l4.26 29.04zm24.54-27.42c-.81.05-1.09.11-1.09 1v19.05c0 4.58.07 7.65.2 9.66.14 1.51.61 2.62 2.37 2.85.88.11 1.96.17 2.51.22.74.06.95.22.95.45 0 .17-.27.33-1.15.33-2.51 0-7.59-.17-7.86-.17-.47 0-3.93.17-5.76.17-.61 0-1.08-.06-1.08-.33 0-.11 0-.33.68-.45.54-.06.61-.06 1.29-.17 1.36-.17 1.97-1.23 2.03-3.24.2-1.95.27-5.03.27-9.61v-8.43c0-7.43 0-8.6-.14-10.11-.14-1.79-.95-2.4-2.64-2.68-.61-.05-1.22-.05-1.76-.11s-.74-.17-.74-.45c0-.17.27-.33.95-.33 2.37 0 6.03.17 6.91.17h30.23c.27 0 5.02-.17 6.44-.17.81 0 .88.22.88.33 0 .17-.07.45-.68.5-.34.06-.54.06-1.08.11-1.62.22-2.24.5-2.37 2.62-.07 1.51-.14 2.79-.14 10.16v8.38c0 4.58 0 7.99.21 9.94.2 1.79.74 2.62 2.44 2.85.88.17 1.69.17 2.37.22.68.06.81.22.81.45 0 .17-.27.33-.74.33-2.98 0-7.52-.17-8-.17-.61 0-4.07.17-6.03.17-.88 0-.95-.17-.95-.33s0-.39.88-.45c.41-.06.61-.06 1.15-.17.95-.17 1.9-.67 2.03-2.79.2-2.01.27-5.75.27-10.28v-19.2c0-.22-.2-.33-.34-.33-.95-.06-3.93-.06-12.61-.06-8.48.01-9.9.01-10.71.07zm53.07 19.93c-.34 0-.54.17-.68.45l-2.98 6.98c-.68 1.56-1.15 3.07-1.15 3.96 0 1 .74 1.45 2.24 1.45h.47c.61 0 .81.17.81.39 0 .28-.54.39-1.02.39-1.49 0-4.61-.17-5.35-.17-.68 0-3.66.17-6.51.17-.74 0-1.09-.11-1.09-.39 0-.22.27-.39.81-.39.34 0 .95 0 1.35-.06 2.91-.22 4.07-2.07 5.22-4.41l13.56-29.43c.74-1.62.95-1.9 1.42-1.9.34 0 .61.22 1.35 1.79.95 1.84 10.17 21.33 13.76 28.32 2.24 4.41 4.2 5.14 5.15 5.42.88.28 1.83.28 2.3.28s.81.11.81.39-.27.39-1.02.39c-.68 0-5.76 0-10.3-.11-1.29-.06-1.69-.11-1.69-.39 0-.17.2-.33.47-.39.27-.11.68-.39.27-1.23l-5.35-11.23c-.14-.17-.27-.28-.54-.28h-12.31zm11.53-1.95c.27 0 .27-.17.2-.33l-5.35-12.34c-.34-.78-.41-.78-.74 0l-5.08 12.34c-.14.22 0 .33.14.33h10.83zm57.48-5.36c.2 0 .41 0 .41-.28v-1c0-7.37 0-8.66-.14-10.16-.13-1.51-.4-2.29-2.64-2.62-.47-.05-1.15-.11-1.69-.11-.47 0-.82-.17-.82-.39 0-.33.34-.39.95-.39 2.85 0 6.84.17 7.12.17s4.07-.17 6.1-.17c.68 0 1.09.06 1.09.39 0 .17-.21.39-.74.39-.41 0-.95.06-1.35.11-1.83.22-2.1 1.12-2.24 2.68-.07 1.51-.07 2.79-.07 10.16v8.38c0 4.58 0 8.21.27 10.22.2 1.34.54 2.46 2.3 2.62.88.11 1.76.17 2.37.17.54 0 .88.17.88.39 0 .28-.34.39-1.02.39-3.39 0-7.32-.17-7.66-.17-.27 0-4.2.17-6.03.17-.68 0-1.02-.11-1.02-.45 0-.17.2-.33.74-.33s1.02 0 1.56-.11c1.15-.17 1.49-1.4 1.7-2.68.34-2.01.34-5.53.34-10.05v-4.97c0-.22-.2-.33-.41-.33h-24.6c-.2 0-.34.06-.34.33v4.97c0 4.52 0 8.15.34 10.16.2 1.23.54 2.34 2.3 2.51.88.11 1.9.17 2.44.17.47 0 .81.17.81.39s-.27.39-.88.39c-3.45 0-7.45-.17-7.79-.17-.2 0-4.34.17-6.1.17-.68 0-1.08-.11-1.08-.39 0-.17.14-.39.74-.39a8.2 8.2 0 0 0 1.63-.17c1.22-.22 1.49-1.28 1.69-2.51.41-2.01.34-5.75.34-10.33v-8.26c0-7.37 0-8.82-.14-10.33-.14-1.45-.61-2.51-2.57-2.68a19.9 19.9 0 0 0-1.83-.11c-.47 0-.74-.17-.74-.33 0-.33.34-.39 1.02-.39 2.91 0 6.17.17 7.05.17.27 0 4.2-.17 6.1-.17.68 0 1.02.11 1.02.39 0 .22-.27.33-.68.33s-.61 0-1.36.11c-1.69.22-2.1 1.17-2.24 2.74-.07 1.51-.07 2.74-.07 10.11v1c0 .28.2.28.41.28h24.53zm30.97 14.8c8.13-7.93 23.11-22.68 28.27-27.48 2.24-2.18 3.25-3.01 4-3.01.68 0 .95.45.95 4.35.07 8.94.14 17.37.27 26.25.07 3.8.54 4.8 2.51 5.03.27.06 1.56.17 2.51.22.74.11.81.28.81.45 0 .28-.27.33-.95.33-2.17 0-7.86-.17-8.81-.17-1.49 0-3.45.17-5.56.17-.81 0-.95-.11-.95-.33s.07-.33.95-.39c.47-.06 1.15-.11 1.63-.22 1.83-.33 2.03-2.46 2.1-5.97.2-7.54.14-15.25.27-23.12-3.19 3.13-28.2 27.65-30.3 29.43-1.35 1.06-1.96 1.23-2.3 1.23-.61 0-.81-.33-.81-2.18 0-7.71.14-18.6 0-27.76-.07-5.19-.75-5.53-2.71-5.7-.74-.05-1.49-.05-1.97-.11-.47-.06-.61-.22-.61-.39 0-.33.54-.39 1.29-.39 1.83 0 5.9.17 6.84.17 2.17 0 4.47-.17 6.17-.17.74 0 1.08.11 1.08.33s-.14.39-.81.45c-.74.06-1.02.06-1.56.11-1.56.22-2.17.84-2.17 4.8l-.14 24.07zm55.79 0c8.13-7.93 23.11-22.68 28.27-27.48 2.24-2.18 3.25-3.01 4-3.01.68 0 .95.45.95 4.35.07 8.94.14 17.37.27 26.25.07 3.8.54 4.8 2.51 5.03.27.06 1.56.17 2.51.22.74.11.81.28.81.45 0 .28-.27.33-.95.33-2.17 0-7.86-.17-8.81-.17-1.49 0-3.45.17-5.56.17-.81 0-.95-.11-.95-.33s.07-.33.95-.39c.47-.06 1.15-.11 1.63-.22 1.83-.33 2.03-2.46 2.1-5.97.2-7.54.14-15.25.27-23.12-3.19 3.13-28.2 27.65-30.3 29.43-1.35 1.06-1.97 1.23-2.3 1.23-.61 0-.81-.33-.81-2.18 0-7.71.14-18.6 0-27.76-.07-5.19-.75-5.53-2.71-5.7-.74-.05-1.49-.05-1.96-.11s-.61-.22-.61-.39c0-.33.54-.39 1.29-.39 1.83 0 5.9.17 6.84.17 2.17 0 4.47-.17 6.17-.17.74 0 1.08.11 1.08.33s-.14.39-.81.45c-.74.06-1.02.06-1.56.11-1.56.22-2.17.84-2.17 4.8l-.15 24.07zm2.85-39.88c.61-.67 1.76-1.4 2.1-1.4.2 0 .34.05.41.22.41 1.67 3.39 3.74 9.42 3.74 4.47 0 7.46-1 10.1-3.52.47-.39.54-.39.81-.39.2 0 .27.28-.07.72-2.98 3.41-7.93 5.42-13.28 5.42-2.57 0-5.49-.33-7.86-1.79-1.22-.78-1.9-1.62-1.9-2.34-.01-.16.06-.32.27-.66z"/></svg>