<svg viewBox="0 0 547 56" fill="none" xmlns="http://www.w3.org/2000/svg"><path d="M295.19 53.28h-13.54v-10.28l.01-7.25c0-.79-.14-1.32-1.08-1.32-5.42.02-10.85.01-16.46.01v1.78c0 5.2-.02 10.4.02 15.6.01 1.16-.33 1.58-1.49 1.56-3.54-.06-7.07-.04-10.61 0-1.23 0-1.8-.32-1.8-1.78.05-15.87.05-31.74.01-47.61 0-1.26.28-1.78 1.62-1.75 4 .09 8 .03 12.25.03v1.7c0 5.3.03 10.6-.02 15.92-.02 1.21.3 1.66 1.55 1.65 4.67-.07 9.33-.02 14-.03 2-.01 2-.04 2-2.05v-17.1h13.54v9.16c0 2.68.12 5.37-.05 8.04-.1 1.7.68 1.96 2 1.96 3.95-.03 7.9 0 11.84 0h3.32v12.92h-14.71c-1.6 0-2.4.79-2.4 2.36v16.48Zm-258.62-26.25c.14.1.38.35.67.46 4.88 1.8 7.42 5.73 7.31 10.83-.07 3.44-.76 6.53-2.9 9.2-1.57 1.96-3.71 3.08-6 3.97a26.25 26.25 0 0 1-9.34 1.56l-25.76.3c-.15 0-.3-.04-.55-.08v-50.93c.49-.02.98-.07 1.48-.07 7.27 0 14.55-.18 21.82.07 4.8.16 9.63.52 14.1 2.86 3.58 1.88 5.42 4.9 5.82 8.78.36 3.5.02 7.02-2.46 9.77-1.16 1.27-2.72 2.16-4.17 3.28h-.02Zm-23.15 14.67c3.53 0 6.9.05 10.25-.04a9.64 9.64 0 0 0 3.81-.68c1-.48 2.17-1.44 2.47-2.43 1.3-4.28-1.13-5.88-4.24-6.24-3.67-.42-7.4-.28-11.12-.4-.85-.02-1.19.34-1.17 1.21.02 2.78.01 5.55.01 8.58Zm.06-19.56c4.1 0 8.08.25 12-.09 2.78-.24 3.96-1.88 3.96-3.49 0-3.45-.4-4.57-3.47-4.86-4.11-.39-8.29-.1-12.5-.1v8.54Zm177.4-4.11c-4.51 0-8.97.02-13.41-.03-.34 0-.89-.54-.96-.91-.54-2.6-2.13-3.9-4.57-4.54a13.52 13.52 0 0 0-7.74.15 3.9 3.9 0 0 0-2.82 3.42c-.09 1.9.5 3.07 2.45 3.76 2.12.74 4.34 1.23 6.55 1.61 5.48.95 11.08 1.44 15.89 4.75 3.5 2.4 5.08 5.84 5.25 10.06.16 3.73-.34 7.27-2.56 10.45-2.29 3.28-5.45 5.09-9.06 6.3-4.95 1.68-10.07 1.5-15.11 1.18-5.2-.32-10.26-1.62-14.1-5.7-2.72-2.85-3.88-6.44-4.36-10.28-.32-2.53-.24-2.54 2.43-2.54 3.53 0 7.07.05 10.6-.03.98-.02 1.43.4 1.68 1.22 1.23 4.01 3.42 5.9 7.35 6.03 1.87.06 3.75-.1 5.61-.3 1.78-.2 3.52-2.11 3.68-3.82a4.01 4.01 0 0 0-2.94-4.33 112.8 112.8 0 0 0-9.27-1.9c-4.69-.75-9.3-1.66-13.32-4.46-2.82-1.96-4.2-4.9-4.56-8.23-.38-3.73-.15-7.43 2.08-10.73a15.21 15.21 0 0 1 7.22-5.9c7.36-2.85 14.95-2.77 22.33-.54 6.54 1.97 10.35 6.81 11.38 14 .06.4.16.8.28 1.33v-.02Zm53.72 5.06c-4.96 0-9.56.02-14.16-.06-.37 0-1-.68-1.04-1.1-.45-4.81-3.56-7.99-8.45-7.98-1.31 0-2.64.08-3.92.33-3.92.76-6.19 4.27-6.68 7.98a50.75 50.75 0 0 0-.32 8.75c.13 3.13.88 6.13 3.35 8.35 2.26 2.02 5 2.36 7.78 2.22a11.7 11.7 0 0 0 4-1.13c2.68-1.18 3.6-3.7 4.2-6.37.16-.76.26-1.53.42-2.48h7.28c2.15 0 4.3.02 6.45 0 .8-.01 1.38.23 1.2 1.14-.56 2.76-.94 5.59-1.85 8.22-2.17 6.33-6.71 10.12-12.9 12.11-4.66 1.5-9.45 1.5-14.18 1.16-7.13-.52-13.24-3.45-16.93-10.05a21.85 21.85 0 0 1-2.6-8.12c-.5-4.6-.73-9.33-.33-13.94.85-9.88 6.48-17.8 16.74-19.81a41.9 41.9 0 0 1 9.94-.9c5.64.27 11.02 1.66 15.4 5.75 3.1 2.9 4.98 6.48 5.8 10.66.33 1.66.51 3.35.8 5.26Zm-147.2-20.75h14.02c.14 1.97.4 3.88.42 5.79.05 7.98-.05 15.97.06 23.96.03 2.57.5 5.2 2.57 7.03 1.75 1.55 3.8 2.28 6.14 1.7 1.06-.25 2.22-.31 3.14-.81 2.62-1.43 3.37-4.12 3.44-6.82.23-9.6.25-19.2.36-28.78v-1.97c.32-.06.6-.16.89-.16 4.05-.02 8.1.01 12.14-.03 1.06-.01 1.44.33 1.44 1.44-.03 8.52.14 17.03-.08 25.54-.11 4.6-.44 9.24-2.32 13.63-2.3 5.38-6.1 8.93-11.54 10.45a31.56 31.56 0 0 1-18.4-.34c-5.07-1.64-8.5-5.35-10.41-10.44a32.18 32.18 0 0 1-1.85-11.23c-.05-9.04-.02-18.08-.02-27.11v-1.85Zm-52.82 51.02 3.89-10.34 7.39-19.69c2.56-6.8 5.12-13.6 7.74-20.37.13-.33.76-.66 1.16-.67 4.3-.05 8.61-.06 12.92.03.48.01 1.17.7 1.38 1.23 1.76 4.47 3.41 9 5.13 13.48 3.4 8.94 6.83 17.87 10.25 26.81 1.06 2.77 2.12 5.54 3.15 8.32.12.33.08.7.12 1.2-4.39 0-8.69.03-12.98-.05-.41-.01-1.01-.6-1.2-1.06-.87-2.18-1.66-4.4-2.41-6.63-.32-.95-.71-1.45-1.81-1.43-5.38.06-10.77.06-16.15 0-1.05-.02-1.45.45-1.74 1.33-.71 2.19-1.4 4.39-2.2 6.54-.2.53-.82 1.24-1.26 1.25-4.35.09-8.7.05-13.37.05h-.01Zm32.3-19.94-5.48-16-.48-.1-5.42 16.1h11.37Zm284.75 20.32v-6.3c0-4.68-.04-9.36.02-14.04.02-1.31-.27-1.84-1.69-1.83a1344 1344 0 0 1-21.99 0c-1.2 0-1.6.35-1.59 1.61.06 6.31 0 12.62.04 18.92 0 1.3-.06 2.01-1.75 1.65-1.58-.33-3.28-.06-4.96-.06v-50.8c1.95-.09 3.82-.23 5.7-.25.93 0 1.01.72 1 1.53-.02 6.26 0 12.51 0 18.77 0 .36-.12.8.03 1.08.2.38.6.92.93.92 8.03.05 16.07.03 24.21.03v-22c1.96-.13 3.8-.3 5.66-.36.82-.02 1.18.47 1.18 1.4-.03 16.19-.02 32.38-.01 48.56 0 1.03-.26 1.38-1.43 1.22-1.7-.22-3.46-.05-5.35-.05Zm52.17-18.08h-32.23c-.63 5.23 2.68 11.4 8.66 12.85 7.66 1.87 13.78-.43 15.9-6.76h7.38c-.54 1.4-.88 2.7-1.51 3.86a17.27 17.27 0 0 1-11.61 8.7c-4.74 1.13-9.44.9-14.04-.66a15.28 15.28 0 0 1-8.88-7.3c-3.05-5.69-3.58-11.77-2.39-18.15.83-4.46 2.49-8.35 5.78-11.42a18.51 18.51 0 0 1 10.35-4.77 23 23 0 0 1 10.2.67 16.52 16.52 0 0 1 9.76 7.9c2.66 4.68 3.09 9.73 2.63 15.08Zm-19.1-5.32c3.59 0 7.17-.03 10.75.01 1.28.01 1.92-.43 1.71-1.83a14.27 14.27 0 0 0-2.9-7.05 10.43 10.43 0 0 0-6.69-3.8c-4.87-.8-9.19.08-12.74 3.8-2.06 2.16-2.8 4.97-3.44 7.8-.05.24.81 1 1.26 1.01 4.02.08 8.03.05 12.05.05Zm25.92-3.47c.1-5.1 2.3-8.89 6.08-11.56 4.79-3.39 10.2-4.02 15.9-3.34 3.27.4 6.26 1.23 8.96 3.14a11.02 11.02 0 0 1 4.77 9.2c.14 9.14.05 18.28.05 27.43 0 2.12-.34 2.44-2.36 2.16-.24-.03-.47-.21-.7-.21-2.44-.01-2.41 0-2.49-2.55-.03-1.14-.19-2.27-.32-3.4-.13-1.11-.29-2.21-.4-3.1-1.68 1.9-3.32 4.02-5.2 5.87-2.65 2.59-6.07 3.82-9.58 4.26-4.48.55-9 .38-12.8-2.82-2.88-2.43-3.7-5.7-3.32-9.29.32-2.92 1.36-5.67 3.88-7.38 1.76-1.2 3.64-2.47 5.64-2.97 4.46-1.11 9.05-1.71 13.56-2.64 1.7-.35 3.36-.97 5.01-1.53 3.06-1.02 2.95-4.23 1.94-6.54-1.4-3.17-4.32-3.92-7.19-4.38a15.1 15.1 0 0 0-10.37 1.82 8.64 8.64 0 0 0-4.25 6.44c-.13.89-.57 1.47-1.64 1.4-1.63-.08-3.27-.02-5.17-.02v.01Zm13.93 22.46c1.11-.07 2.3.07 3.33-.26 3.55-1.12 6.67-2.9 8.99-6.09a15.52 15.52 0 0 0 3.02-10.2c-.03-.69-.3-1.03-1.1-.6-.97.51-1.99 1.05-3.05 1.27-3.43.72-6.91 1.21-10.34 1.96-2.8.61-5.5 1.36-7.64 3.69-2.17 2.36-1.58 7.41.97 8.95 1.86 1.12 3.78 1.3 5.81 1.27Zm82.39-29.22c.57-.8 1.17-1.6 1.74-2.42a12.26 12.26 0 0 1 9.53-5.6 28.1 28.1 0 0 1 6.47.02c4.27.67 7.65 2.88 9.66 6.96a19.19 19.19 0 0 1 1.88 8.95c-.09 8.09-.03 16.18-.03 24.26 0 1.65-.3 1.8-1.92 1.54a8.03 8.03 0 0 0-3.35-.05c-1.26.37-1.18-.29-1.18-1.07v-7.25c0-4.52.09-9.04-.03-13.55-.09-3.34-.22-6.68-2.06-9.69a8.46 8.46 0 0 0-4.61-3.77c-4.19-1.39-8.3-1.07-11.82 1.86a12.3 12.3 0 0 0-3.95 6.53c-1.22 4.75-.41 9.58-.57 14.36-.15 4.13-.03 8.26-.03 12.78-2.02 0-3.9.06-5.77-.02-.88-.04-1.03-.72-1.02-1.56.03-6.51.02-13.03.02-19.54v-29.94c0-2.27.48-2.6 2.4-2.57 4.37.1 4.37.03 4.37 4.47v15.12l.27.17v.01Zm-25.5-7.23h11.62v6.04h-11.62v1.61c0 6.57-.1 13.15.06 19.71.05 1.67.63 3.47 1.44 4.94 1.08 1.95 3.3 1.98 5.24 2.17 1.57.15 3.16.03 4.85.03v6.32c-4.2-.17-8.4.68-12.47-1.21a8.13 8.13 0 0 1-4.57-5.54c-.64-2.47-.92-5.1-.97-7.66-.13-6.14-.04-12.3-.04-18.44v-1.81h-7.58v-5.55c1.83-.27 3.65-.64 5.5-.76 1.3-.1 1.98-.93 2.3-1.9.42-1.3.5-2.73.69-4.1.14-1.02-.08-2.23.4-3.04.97-1.7 2.75-.47 4.16-.7.26-.05.92.74.94 1.16.1 2.2.04 4.41.04 6.62v2.13-.02Zm-26.46 40.86v-51.14c0-1.48.75-2.22 2.24-2.22 1.08 0 2.16-.01 3.23.01.89.02 1.32.41 1.31 1.44-.02 16.9-.01 33.8 0 50.71 0 1-.18 1.43-1.4 1.26-1.72-.23-3.48-.05-5.38-.05Z" fill="#fff"/></svg>