<svg viewBox="0 0 378 200" fill="none" xmlns="http://www.w3.org/2000/svg"><g clip-path="url(#a)" fill="#fff"><path d="M188.55 0c-33.22 0-60.32 27.79-60.32 61.85s27.1 61.85 60.32 61.85 60.32-27.79 60.32-61.85-27.09-61.85-60.32-61.85Zm0 110.59-52.4-64.85h19.64l.27.03.28.03.3.03.3.05.3.06.32.08.31.1.32.12.32.13.31.16.31.16.3.18.3.2.3.2.28.23.28.24.27.25.1.09v-17.91h23.77l.7.11.25.04.27.06.27.06.26.07.27.08.25.1.26.1.25.1.24.12.25.12.24.14.22.13.1.07.15-.1.24-.14.24-.13.25-.13.25-.12.26-.1.26-.1.27-.1.26-.08.27-.07.28-.06.28-.05.28-.05.28-.04.3-.02.28-.02h23.49v17.91l.08-.09.28-.25.28-.24.28-.22.29-.21.3-.2.3-.18.31-.16.32-.15.32-.14.31-.12.32-.1.32-.08.3-.06.3-.05.3-.03.28-.03.27-.02h19.63l-52.4 64.84h-.04Z"/><path d="M180.6 43.7h-10.98v-4.68h16.13v35.15h-3.5l6.31 7.9 6.3-7.9h-3.49v-35.15h5.35v32.82l5.63-7.04v-15.32h5.16v8.87l5.63-7.04v-18.06h-5.63v10.45h-5.16v-10.45h-9.56l-.18.01-.19.02-.18.02-.18.02-.18.04-.17.04-.18.04-.16.06-.17.05-.17.06-.16.08-.16.07-.15.08-.16.08-.15.09-.15.09-.14.1-.14.1-.14.1-.14.11-.13.12-.12.12-.12.13-.13.12-.11.14-.12.13-.1.15-.1.14-.06.07-.04-.07-.1-.14-.1-.14-.11-.13-.11-.13-.12-.13-.12-.12-.13-.12-.13-.12-.13-.1-.13-.11-.14-.1-.14-.1-.15-.1-.15-.08-.15-.08-.16-.08-.16-.08-.16-.07-.15-.06-.17-.06-.17-.05-.17-.05-.17-.04-.18-.04-.17-.02-.18-.03-.17-.02h-.11v-.03h-20.5v17.93l16.6 20.8v-28.27h.01Zm-5.64 12.19-5.09-6.42h5.1v6.42Z"/><path d="M224.11 48.85h-.64c-2.8 0-3.86-.41-6.5 2.9l-.47.58-27.95 34.98-27.95-34.98c-.16-.2-.3-.4-.47-.59-2.63-3.3-3.7-2.89-6.5-2.89h-11.03l45.95 56.87 45.95-56.87h-10.39Z"/><path fill-rule="evenodd" clip-rule="evenodd" d="M15.48 198.76h3.59l.05-.01h.06l.05-.01h.05l.06-.01h.05l.05-.01h.05l.06-.01h.1l.04-.02h.1l.04-.02h.1l.04-.01h.03l.04-.01h.03l.04-.01h.03l.04-.01h.04l.03-.01h.11l.03-.02h.11l.03-.02h.11l.03-.01h.04l.03-.01h.04l.03-.01h.04l.03-.01h.04l.03-.02h.04l.03-.02h.04l.03-.01h.04l.03-.02h.04l.04-.02h.03l.04-.02h.03l.04-.02h.03l.04-.01h.03l.04-.02h.03l.04-.02h.03l.04-.02h.03l.04-.02h.03l.04-.01h.03l.04-.02h.03l.04-.02h.03l.04-.02h.03l.04-.02h.03l.04-.02h.04l.03-.01h.04l.03-.02h.04l.03-.02h.04l.03-.02h.04l.03-.02h.04l.03-.01h.04l.03-.02h.04l.03-.02h.04l.03-.02h.04l.03-.02h.04l.03-.01h.03l.02-.02h.02l.02-.02h.02l.02-.02h.01l.02-.02h.02l.02-.01h.02l.01-.02h.02l.02-.02h.02l.01-.02h.02l.02-.02h.02l.01-.01h.02l.02-.02h.02l.01-.02h.02l.02-.02h.02l.01-.02h.02l.02-.01h.02l.02-.02h.03l.02-.02h.01l.02-.02h.02l.02-.02h.02l.01-.01h.02l.02-.02h.02l.01-.02h.02l.02-.02h.02l.01-.02h.02l.02-.02h.02l.01-.01h.02l.02-.02h.02l.01-.02h.02l.02-.02h.02l.01-.02h.02l.02-.01h.02l.02-.03.03-.02.03-.02.02-.01.03-.02.03-.02.02-.02.03-.02.02-.02.03-.01.03-.02.02-.02.03-.02.03-.02.02-.01.03-.02.03-.02.02-.02.03-.02.03-.01.02-.02.03-.02.02-.02.03-.02.03-.01.02-.02.03-.02.03-.02.02-.01.03-.02.03-.02.02-.02.03-.02.5-.4.48-.44.45-.47.42-.5.37-.54.35-.56.3-.59.28-.61.23-.64.2-.67.17-.7.14-.71.08-.74.06-.77v-3.19l-.01-.03v-.03l-.01-.02v-.03l-.01-.03v-.08l-.02-.03v-.08l-.02-.02v-.09l-.01-.02v-.03l-.01-.03v-.02l-.01-.03v-.08l-.02-.03v-.08l-.02-.03v-.02l-.01-.03v-.03l-.02-.02v-.03l-.02-.03v-.03l-.02-.02v-.03l-.01-.03v-.02l-.02-.03v-.03l-.02-.03v-.02l-.02-.03v-.03l-.01-.02v-.03l-.02-.03v-.03l-.02-.02v-.03l-.02-.03v-.02l-.01-.03v-.03l-.02-.03v-.02l-.02-.03v-.03l-.02-.02v-.03l-.01-.03v-.02l-.22-.55-.25-.53-.27-.5-.31-.48-.02-.03-.02-.01-.01-.02-.02-.02-.02-.02-.02-.02-.01-.02-.02-.01-.02-.02-.02-.02-.01-.02-.02-.02-.02-.01-.02-.02-.01-.02-.02-.02-.02-.02-.02-.01-.02-.02-.01-.02-.02-.02-.02-.02-.02-.01-.01-.02-.02-.02-.02-.02-.02-.02-.01-.01-.02-.02-.02-.02-.02-.02-.01-.03-.02-.01-.02-.02-.02-.02-.01-.02-.02-.02-.02-.01-.02-.02-.01-.02-.02-.02-.02-.02-.02-.01-.02-.02-.01-.02-.02-.02-.02-.02-.02-.01-.01-.02-.02-.02-.02-.02-.02-.02-.01-.01-.02-.02-.02-.02-.02-.02-.01-.02-.02-.01-.02-.02-.02-.02-.01-.02-.02-.02-.02-.01-.02-.02-.01-.02-.02-.02-.02-.02-.02-.02-.01-.01-.02-.02-.02-.02-.02-.02-.02-.02-.01-.01-.02-.02-.02-.02-.02-.02-.01-.02-.02-.01-.02-.02-.02-.02-.01-.02-.02-.02-.02-.01-.02-.02-.01-.02-.02-.02-.02-.02-.02-.01-.01-.02-.02-.02-.02-.02-.02-.02-.01-.01-.02-.02-.03-.02-.46-.36-.54-.36-.55-.32-.02-.02-.03-.01h-.03l-.02-.03h-.03l-.02-.03h-.03l-.03-.02h-.02l-.03-.03h-.03l-.02-.03h-.03l-.03-.03h-.02l-.03-.02h-.03l-.02-.03h-.03l-.02-.03h-.03l-.03-.02h-.02l-.03-.03h-.03l-.02-.03h-.03l-.03-.03h-.02l-.03-.02h-.02l-.03-.03h-.03l-.02-.03h-.03l-.03-.01h-.02l-.03-.02h-.03l-.02-.02h-.03l-.02-.02h-.03l-.03-.02h-.02l-.03-.01h-.03l-.02-.02h-.03l-.03-.02h-.02l-.03-.02h-.03l-.02-.02h-.03l-.02-.02h-.03l-.03-.01h-.02l-.03-.02h-.03l-.02-.02h-.03l-.03-.02h-.02l-.03-.01h-.02l-.03-.02h-.03l-.02-.02h-.03l-.03-.02h-.02l-.03-.02h-.03l-.02-.01h-.03l-.02-.02h-.03l-.03-.02h-.02l-.03-.02h-.03l-.02-.02h-.03l-.03-.01h-.02l-.03-.02h-.03l-.02-.02h-.03l-.02-.02h-.03l-.03-.02h-.02l-.03-.01h-.03l-.02-.01h-.03l-.03-.01h-.02l-.03-.01h-.02l-.03-.01h-.03l-.02-.01h-.08l-.03-.02h-.08l-.02-.02h-.08l-.03-.01h-.03l-.02-.01h-.03l-.03-.01h-.02l-.03-.01h-.02l-.03-.01h-.03l-.02-.01h-.12l-.04-.02h-.11l-.03-.02h-.11l-.03-.01h-.04l-.03-.01h-.04l-.03-.01h-.04l-.04-.01h-.03l-.04-.01h-.1l-.04-.02h-1.49l-.09-.02h-9.96v-4.06h18.89v-6.96l-26.77.07v32.73h15.43l-.53-.46Zm-.65-6.95h-6.9v-7.9h7.65l.66.04h.84l.53.11.48.15.42.17.38.2.32.22.28.26.25.28.2.3.17.35.13.37.1.43.06.47.02.51-.02.58-.06.51-.1.45-.14.4-.18.34-.1.16-.1.14-.24.26-.3.24-.34.2-.4.18-.45.16-.52.12h-.08l-.02.01h-.03l-.03.01h-.02l-.03.01h-.08l-.03.02h-2.4l.08.25Zm25-24.75-.7.27-.68.31-.65.34-.63.38-.59.42-.56.45-.53.49-.49.5-.47.56-.43.59-.4.62-.37.65-.34.68-.3.72-.28.74-.24.79-.21.81-.19.85-.16.87-.12.91-.1.95-.07.97-.04 1.01-.02 1.04.02 1.08.05 1.03.1 1 .13.97.18.93.2.89.26.87.3.82.33.8.37.76.41.72.46.68.49.65.54.6.57.57.61.54.6.46.6.4.6.36.6.32.03.02h.03l.02.03h.03l.03.02h.02l.03.03h.03l.02.03h.03l.03.02h.02l.03.03h.02l.03.03h.03l.02.02h.03l.03.03h.02l.03.03h.03l.02.03h.03l.03.02h.02l.03.03h.02l.03.03h.03l.02.02h.03l.03.03h.02l.03.02h.03l.02.02h.03l.02.02h.03l.03.01h.02l.03.02h.03l.02.02h.03l.03.02h.02l.03.02h.02l.03.01h.03l.02.02h.03l.03.02h.02l.03.02h.03l.02.02h.03l.02.01h.03l.03.02h.03l.04.02h.02l.03.02h.03l.02.02h.03l.03.01h.02l.03.02h.03l.02.02h.03l.02.02h.03l.03.01h.02l.03.02h.03l.02.02h.03l.03.02h.02l.03.02h.03l.02.02h.03l.02.01h.03l.03.02h.02l.03.02h.03l.04.02h.08l.03.02h.07l.03.01h.03l.02.01h.03l.03.01h.02l.03.01h.03l.02.01h.08l.03.02h.08l.02.02h.08l.03.01h.03l.02.01h.04l.03.01h.95l.06.01h.07l.06.01h14.44v-6.82h-11.86l-.86-.05-.4-.05-.38-.05-.36-.06-.35-.09-.32-.09-.3-.1-.3-.11-.27-.13-.26-.13-.24-.16-.23-.16-.21-.17-.2-.19-.19-.2-.18-.22-.16-.23-.15-.25-.14-.27-.14-.3-.11-.3-.1-.32-.1-.35-.08-.37-.07-.4-.06-.4v-.13l-.01-.05v-.04l-.01-.05v-.04l-.01-.05v-.88h18.13v-6.83h-18.04l.06-.54.06-.39.08-.37.09-.35.1-.33.1-.33.12-.3.14-.3.14-.26.15-.27.15-.24.18-.23.19-.22.19-.2.2-.2.22-.18.23-.16.24-.15.25-.15.27-.13.28-.12.3-.1.3-.1.33-.09.34-.07.35-.06.37-.04.79-.05h11.82v-6.84h-11.54l-.94.02-.92.04-.89.08-.85.11-.83.15-.8.17-.76.2-.74.25.3.23Zm34.86-1.02h-2.27l-.04.01h-.04l-.05.01h-.04l-.04.01h-.31l-.04.01h-.1l-.04.01h-.1l-.04.02h-.11l-.03.02h-.11l-.03.01h-.04l-.03.01h-.04l-.03.01h-.04l-.67.15h-.04l-.03.01h-.04l-.03.02h-.02l-.03.02h-.03l-.03.02h-.03l-.02.02h-.03l-.03.01h-.02l-.03.02h-.03l-.02.02h-.04l-.02.02h-.03l-.03.02h-.02l-.03.01h-.02l-.03.02h-.03l-.02.02h-.03l-.03.02h-.02l-.03.02h-.03l-.04.01-.63.25-.63.29-.6.33-.6.39-.57.44-.57.5-.55.56-.45.5-.4.52-.37.54-.32.54-.28.56-.25.56v.03l-.02.03v.03l-.02.02v.03l-.02.03v.02l-.02.03v.03l-.02.03v.02l-.01.03v.03l-.02.02v.03l-.02.03v.02l-.02.03v.03l-.01.03v.02l-.02.03v.03l-.02.02v.03l-.02.03v.03l-.01.02v.03l-.02.03v.02l-.02.03v.03l-.02.02v.03l-.01.03v.02l-.02.03v.03l-.02.03v.02l-.02.03v.03l-.01.02v.03l-.02.03v.03l-.02.02v.03l-.02.03v.02l-.01.03v.03l-.02.03v.02l-.02.03v.03l-.02.02v.03l-.02.03v.02l-.01.03v.03l-.02.03v.09l-.02.02v.08l-.02.03v.08l-.01.03v.03l-.01.02v.03l-.01.03v.08l-.02.03v.08l-.02.02v.08l-.01.03v.03l-.01.03v.02l-.01.03v.66l-.01.06v.48l-.02.06v21.9h5.94l.25-.03h.11l.03-.02h.08l.02-.01h.03l.02-.01h.03l.03-.01h.02l.03-.01h.03l.02-.02h.03l.03-.02h.02l.03-.01h.03l.02-.02h.03l.02-.02h.03l.03-.02h.02l.03-.02h.03l.05-.03.04-.03h.02l.02-.02h.02l.01-.01h.02l.02-.02h.02l.01-.02h.02l.02-.02h.02l.01-.03.04-.02.03-.04h.01l.01-.02h.01l.01-.02.02-.02.01-.02h.01l.01-.03h.01l.01-.02.02-.02.02-.03.01-.03h.01l.01-.02.02-.03.02-.03.01-.03.03-.04.1-.17.02-.06v-.02l.03-.03v-.03l.02-.02v-.03l.01-.03v-.03l.02-.02v-.03l.02-.03v-.02l.02-.03v-.08l.01-.03v-.03l.01-.02v-19.49l.01-.1v-.1l.01-.1v-.09l.02-.1v-.1l.02-.1v-.1l.01-.1v-.1l.02-.1v-.1l.03-.1.02-.1.01-.1v-.12l.01-.03v-.02l.01-.03v-.08l.02-.03v-.06l.02-.03v-.07l.01-.02v-.02l.01-.02v-.03l.01-.03v-.02l.01-.02v-.07l.02-.02v-.08l.01-.02v-.02l.01-.02v-.01l.01-.02v-.02l.01-.02v-.02l.01-.01v-.06l.02-.02v-.05l.02-.02v-.05l.01-.02v-.02l.02-.02v-.05l.03-.02v-.32l.02-.02.02-.03.03-.03.02-.02.03-.03.03-.03.02-.03.03-.02.03-.03.02-.03.03-.02.02-.03.03-.03.03-.02.02-.03.03-.03.03-.03.02-.02.03-.03.03-.03.02-.02.03-.03.02-.03.03-.03.03-.02.02-.03.03-.03.03-.02.02-.03.03-.03.03-.02.02-.03h.01l.01-.02.02-.02.02-.01.03-.03.02-.02.02-.02.01-.02h.01l.01-.01.02-.02.02-.02.01-.02h.01l.01-.02h.01v-.01h.02v-.02h.02v-.02h.01l.02-.02h.02l.02-.02h.01l.02-.01h.02l.02-.02h.01l.02-.02h.02l.02-.02h.01l.02-.02h.02l.02-.01h.01l.02-.02h.02l.02-.02h.01l.02-.02h.02l.02-.02h.01l.02-.02h.02l.02-.01h.02l.01-.02h.02l.02-.02h.02l.01-.02h.02l.02-.02h.02l.01-.01h.02l.02-.02h.02l.01-.02h.02l.02-.02h.02l.01-.02h.02l.02-.01h.02l.01-.02h.02l.02-.02h.02l.02-.02h.01l.02-.02h.02l.02-.01h.01l.02-.02h.02l.02-.01h.01l.02-.02h.05l.02-.02h.07l.03-.02h.06l.02-.01h.01l.03-.01h.02l.02-.01h.01l.03-.01h.06l.02-.02h.08l.02-.02h.07l.02-.01h.02l.03-.01h.01l.4-.08h.06l.07-.01h.07l.07-.02h.07l.07-.02h.07l.07-.02h.22l.07-.02h5.84v26.17h7.78v-32.75h-14.28l.3.42Zm17.27 17.8.07.9.1.9.12.85.15.83.18.8.2.78.24.75.26.72.29.7.32.66.36.64.37.61.42.59.44.56.47.52.5.5.54.47.56.43.6.4.62.38.65.36.67.31.72.29.74.26.76.24.8.2.82.17.85.14.88.12h1.71l.1.02h.3l.1.01h.1l.1.01h.1l.1.01h4.41l.08-.02h.27l.08-.01h.96l.05-.01h.34l.04-.01.87-.12.85-.14.81-.17.8-.2.76-.23.73-.26.7-.29.68-.31.65-.35.63-.37.59-.4.56-.44.54-.46.5-.48.47-.52.45-.54.41-.57.4-.61.34-.63.33-.66.3-.68.26-.7.24-.73.21-.76.18-.78.15-.81.12-.83.1-.86.07-.88.04-.91.02-.94-.02-.94-.04-.91-.07-.9-.1-.87-.12-.85-.15-.82-.18-.8-.2-.78-.24-.74-.26-.74-.3-.7-.32-.68-.35-.64-.39-.63-.41-.6-.44-.55-.48-.53-.5-.5-.53-.48-.57-.44-.6-.4-.62-.38-.65-.34-.69-.3-.7-.28-.75-.23-.76-.2-.8-.16-.83-.13-.85-.09-.88-.05-.9-.02h-6.81l-.9.02-.87.05-.85.1-.81.12-.8.16-.76.2-.74.24-.71.27-.68.3-.65.33-.63.37-.6.4-.56.43-.53.47-.51.5-.48.52-.45.55-.41.59-.39.61-.36.64-.32.67-.3.69-.28.7-.23.75-.21.76-.19.78-.15.8-.12.83-.1.85-.07.88-.04.89-.02.91.02.96.03.92-.12-.02Zm21.44 8.46h-6.7l-.4-.11-.4-.13-.4-.15-.36-.15-.36-.17-.35-.19-.32-.18-.32-.2-.3-.22-.28-.23-.27-.23-.26-.25-.25-.26-.22-.27-.22-.3-.2-.29-.2-.32-.17-.33-.17-.34-.16-.36-.14-.38-.13-.39-.12-.4-.1-.43-.1-.44-.08-.46-.07-.48-.05-.49-.05-.5-.05-1.06v-1.08l.05-.99.05-.47.06-.46.07-.44.09-.43.1-.42.1-.4.12-.4.13-.36.15-.36.16-.35.17-.33.19-.31.19-.31.2-.3.22-.27.23-.26.24-.25.26-.25.27-.22.28-.22.3-.2.31-.19.33-.18.33-.16.35-.15.37-.14.05-.02.04-.01.04-.02.05-.02.04-.02.05-.02.04-.02.04-.01.05-.02.04-.02h.05l.04-.03h.04l.05-.02h.04l.05-.03h.04l.04-.03h.05l.04-.02h.05l.04-.02h.04l.05-.02h.04l.05-.02h.04l.04-.02h.05l.04-.02h.05l.04-.01h.06l.06-.02h.06l.07-.02h.19l.06-.02h.2l.07-.02h4.48l.12.01h.12l.11.01h.12l.11.01h.77l.02.01h.03l.03.01.42.1.4.1.39.13.37.14.36.15.34.16.33.19.3.19.3.2.29.22.27.22.25.25.25.25.23.27.22.28.2.3.2.31.18.33.17.34.15.36.14.37.14.39.12.4.1.42.1.43.08.45.07.46.05.48.05.5.05 1.03v1.08l-.02.52-.03.5-.05.5-.06.46-.07.46-.09.44-.1.43-.1.4-.12.4-.13.38-.15.36-.16.35-.17.34-.18.32-.2.3-.2.3-.23.28-.23.28-.25.26-.26.24-.27.23-.29.23-.3.22-.31.2-.33.18-.34.18-.36.18-.37.16-.39.14-.4.14-.4.12-.17.06Zm17.44-26.25v32.74h7.87v-10.97h11.92l.04-.01h.03l.04-.01h.03l.04-.01h.03l.04-.01h.11l.03-.02h.11l.03-.02h.11l.03-.02h.11l.03-.01h.04l.03-.01h.04l.03-.01h.04l.03-.02h.05l.03-.02h.07l.03-.02h.08l.03-.01h.02l.03-.01h.02l.03-.01h.03l.02-.01h.08l.03-.02h.08l.03-.02h.02l.03-.01h.02l.03-.02h.03l.02-.01h.03l.03-.02h.02l.03-.02h.03l.02-.01h.03l.03-.02h.02l.03-.02h.02l.03-.02h.03l.02-.02h.03l.03-.01h.02l.03-.02h.03l.02-.02h.03l.02-.02h.03l.03-.02h.02l.03-.01h.03l.02-.02h.03l.03-.02h.02l.03-.02h.02l.03-.02h.03l.02-.02h.03l.03-.01h.02l.03-.02h.02l.03-.02h.03l.03-.02h.02l.03-.02h.02l.03-.01h.03l.02-.02h.03l.03-.02h.02l.03-.02h.03l.02-.02h.03l.02-.01h.03l.03-.02h.02l.03-.03h.03l.02-.02h.03l.03-.02h.02l.56-.3.54-.3.54-.37.47-.36.03-.02.02-.02.01-.01.02-.02.02-.02.02-.02.01-.02.02-.01.02-.02.02-.02.01-.02.02-.02.02-.01.02-.02.02-.02.01-.02.02-.02.02-.01.02-.02.01-.02.02-.02.02-.02.02-.01.01-.02.02-.02.02-.02.02-.02.01-.02.02-.01.02-.02.02-.02.02-.02.4-.42.37-.45.33-.48.31-.5.27-.52.02-.03v-.02l.03-.03v-.03l.02-.02v-.03l.03-.03v-.03l.03-.02v-.03l.02-.03v-.02l.03-.03v-.03l.02-.03v-.02l.01-.03v-.03l.02-.02v-.03l.02-.03v-.02l.02-.03v-.03l.01-.03v-.02l.02-.03v-.03l.02-.02v-.03l.02-.03v-.03l.02-.02v-.03l.01-.03v-.02l.02-.03v-.03l.02-.02v-.03l.02-.03v-.02l.01-.03v-.03l.02-.03v-.02l.02-.03v-.03l.01-.03v-.02l.02-.03v-.03l.02-.02v-.03l.02-.03v-.02l.02-.03v-.03l.01-.03v-.02l.02-.03v-.03l.02-.02v-.03l.02-.03v-.03l.01-.02v-.03l.02-.03v-.02l.02-.03v-.03l.02-.02v-.03l.01-.03v-.03l.02-.02v-.03l.02-.03v-.08l.02-.03v-.08l.01-.02v-.03l.01-.03v-.02l.01-.03v-.03l.01-.03v-.02l.01-.03v-.1l.02-.03v-.08l.02-.02v-.08l.01-.03v-.03l.01-.03v-.02l.01-.03v-2.77l-.03-.74-.08-.72-.11-.7-.15-.68-.18-.66-.22-.63-.26-.61-.29-.59-.33-.56-.35-.53-.4-.5-.43-.48-.47-.45-.5-.42-.52-.39-.47-.3-.03-.02h-.02l-.01-.02h-.02l-.02-.02h-.02l-.02-.02h-.01l-.02-.01h-.02l-.02-.02h-.01l-.02-.02h-.02l-.02-.02h-.01l-.02-.02h-.02l-.02-.01h-.01l-.02-.02h-.02l-.02-.02h-.01l-.02-.02h-.02l-.02-.02h-.01l-.02-.01h-.02l-.02-.02h-.02l-.03-.02h-.02l-.02-.02h-.01l-.02-.02h-.02l-.02-.02h-.01l-.02-.01h-.02l-.02-.02h-.01l-.02-.02h-.02l-.02-.02h-.01l-.02-.02h-.02l-.02-.01h-.02l-.01-.02h-.02l-.03-.02h-.01l-.02-.02h-.03l-.01-.02h-.02l-.02-.01h-.02l-.03-.02h-.02l-.03-.02h-.02l-.03-.02h-.03l-.02-.01h-.03l-.03-.02h-.02l-.03-.02h-.03l-.02-.02h-.03l-.02-.02h-.03l-.03-.01h-.02l-.03-.02h-.03l-.02-.02h-.03l-.03-.02h-.02l-.03-.02h-.02l-.03-.01h-.03l-.02-.02h-.03l-.03-.02h-.02l-.03-.02h-.02l-.04-.02h-.04l-.03-.02h-.04l-.03-.01h-.04l-.03-.02h-.04l-.03-.02h-.04l-.03-.02h-.04l-.03-.02h-.04l-.03-.01h-.04l-.03-.02h-.04l-.03-.02h-.04l-.03-.02h-.04l-.03-.02h-.04l-.04-.01h-.03l-.03-.02h-.04l-.04-.02h-.03l-.04-.02h-.03l-.04-.02h-.1l-.04-.01h-.03l-.04-.01h-.03l-.04-.01h-.03l-.04-.01h-.03l-.04-.01h-.1l-.04-.02h-.1l-.04-.02h-.11l-.03-.01h-.04l-.03-.01h-.04l-.03-.01h-.04l-.03-.01h-.18l-.02-.01h-.03l-.06-.01h-.72l-.1-.03h-.1l-.1-.01h-.09l-.1-.02h-.1l-.09-.01h-.1l-.1-.01h-.1l-.09-.01h-17.59l.05-.4Zm14.77 6.97h1.13l.67.05h.66l.02.02h.08l.03.02h.05l.51.13.45.16.4.17.33.21.28.24.24.26.2.3.17.34.13.4.1.45.06.51.01.58-.01.51-.06.47-.1.42-.13.38-.17.35-.2.3-.24.28-.27.25-.33.23-.37.2-.42.17-.47.15-.53.11-.58.08h-8.51v-7.89h6.92l-.05.15Zm12.6-6.97 12.7 19.47-6.5 13.27h8.67l17.15-32.74h-9.1l-6.34 12.5-7.6-12.5h-8.98Zm44.6 6.74h11.4v-6.74h-12.47l-.9.06-.88.06-.85.1-.82.1-.8.16-.76.18-.74.2-.7.25-.68.27-.65.31-.62.34-.58.38-.56.4-.53.45-.49.48-.47.51-.43.55-.4.59-.37.62-.33.66-.31.7-.28.71-.24.76-.21.8-.19.82-.16.87-.12.9-.1.94-.06.98-.05 1.02-.02 1.06v.97l.05.95.06.92.09.9.11.86.13.84.17.8.2.8.21.74.25.72.28.7.3.67.35.63.38.62.4.58.45.55.47.51.51.49.55.45.57.41.6.39.65.35.67.32.72.28.74.25.78.22.8.18.85.15.88.12.91.08.96.04.98.02h11.72v-6.83h-11.9l-.45-.03-.44-.05-.42-.05-.4-.07-.36-.1-.35-.1-.34-.13-.3-.13-.3-.16-.27-.17-.26-.19-.25-.2-.23-.22-.2-.25-.21-.26-.2-.28-.17-.3-.17-.32-.15-.34-.14-.37-.13-.39-.11-.41-.1-.44-.1-.47-.08-.48-.06-.52-.05-.53-.07-1.14-.03-1.25.03-1.37.07-1.25.05-.58.07-.55.08-.52.09-.5.1-.47.12-.44.13-.42.14-.38.15-.36.17-.34.17-.3.19-.28.2-.26.21-.25.23-.22.25-.2.25-.17.28-.18.28-.15.31-.13.34-.12.35-.1.37-.09.4-.07.4-.06.45-.03.45-.03h.5Zm22.55-6.74h-7.87v32.74h7.87v-13.11h10.66v13.11h7.87v-32.74h-7.87v12.72h-10.66v-12.72Zm27.3 2.33-.59.41-.56.46-.53.48-.5.52-.47.55-.43.58-.4.63-.37.65-.34.68-.3.71-.28.75-.24.79-.21.8-.19.86-.16.87-.12.91-.1.95-.07.97-.04 1.01-.02 1.04.02 1.07.05 1.04.1 1 .13.97.18.92.2.9.26.86.3.83.33.8.37.76.41.72.46.68.49.65.54.6.58.57.61.54.6.46.6.4.6.36.6.32.03.02h.03l.02.02h.03l.03.03h.02l.03.03h.02l.03.02h.03l.03.03h.02l.03.03h.02l.03.03h.03l.02.02h.03l.03.03h.02l.03.03h.03l.02.02h.03l.02.03h.03l.03.03h.02l.03.03h.03l.02.02h.03l.03.03h.03l.03.02h.02l.03.02h.03l.02.01h.03l.02.02h.03l.03.02h.02l.03.02h.03l.02.02h.03l.03.01h.02l.03.02h.03l.02.02h.03l.02.02h.03l.03.02h.02l.03.01h.03l.02.02h.03l.03.02h.03l.04.02h.02l.03.02h.03l.02.01h.03l.02.02h.03l.03.02h.02l.03.02h.03l.02.01h.03l.03.02h.02l.03.02h.02l.03.02h.03l.02.02h.03l.03.02h.02l.03.01h.03l.02.02h.03l.02.02h.03l.03.02h.03l.04.02h.08l.02.01h.03l.03.01h.02l.03.01h.02l.03.01h.03l.02.01h.08l.03.02h.08l.03.02h.07l.03.01h.03l.02.01h.03l.03.01h.02l.03.01h.04l.03.01h.95l.06.02h.19l.06.02h14.33v-6.83h-11.86l-.86-.06-.4-.04-.39-.05-.36-.07-.34-.08-.32-.09-.31-.1-.3-.12-.27-.12-.25-.14-.24-.15-.23-.16-.2-.17-.21-.2-.19-.2-.17-.2-.17-.24-.15-.25-.14-.28-.13-.28-.11-.31-.11-.33-.1-.35-.08-.37-.07-.38-.06-.42v-1.24h18.12v-6.82h-18.04l.06-.54.06-.4.08-.36.1-.35.09-.34.1-.32.13-.3.13-.3.14-.27.15-.26.16-.24.17-.24.19-.21.2-.21.2-.19.21-.18.23-.16.24-.16.25-.14.27-.13.28-.12.3-.11.3-.1.33-.08.35-.07.35-.06.37-.04.78-.06h11.82v-6.83h-11.54l-.94.01-.92.05-.88.08-.86.11-.82.14-.8.18-.77.2-.74.25-.71.27-.68.3-.65.35-.62.38.26.22Zm40.68 23.62h-2.2l-.82-.07-.38-.06-.36-.06-.35-.08-.32-.09-.31-.1-.29-.12-.27-.12-.26-.14-.24-.15-.22-.16-.21-.17-.2-.2-.2-.2-.17-.21-.17-.23-.14-.26-.15-.27-.13-.29-.11-.3-.1-.33-.1-.34-.08-.37-.07-.39-.06-.41-.05-.44-.05-.93v-.5l.03-5.43.07-.85.06-.4.06-.38.08-.37.08-.35.1-.34.1-.32.13-.3.13-.3.14-.27.15-.26.16-.24.18-.24.18-.21.2-.21.2-.19.22-.18.23-.16.24-.16.26-.14.26-.14.28-.11.3-.11.3-.1.33-.08.35-.07.35-.06.37-.04.78-.06h1.83v19.08h-.13v-.02Zm10.62-19.01.37.04.35.06.34.07.33.08.3.1.3.1.29.13.26.13.25.15.24.15.23.16.22.18.2.2.2.2.18.22.18.23.15.24.15.26.14.28.14.28.12.31.1.32.1.34.09.35.08.37.06.39.1.82.02.42.05 5.43-.04.98-.03.45-.05.43-.06.41-.07.4-.08.36-.1.34-.1.33-.11.3-.14.3-.14.26-.15.26-.16.23-.17.22-.19.2-.2.19-.2.17-.24.16-.23.15-.26.14-.27.13-.3.11-.3.1-.33.1-.34.07-.36.07-.38.05-.82.07h-2.34v-19.07h1.84l.78.06v.02Zm-20.14-5.29-.66.35-.61.38-.6.41-.55.45-.52.48-.5.51-.46.55-.43.59-.4.61-.38.65-.33.69-.3.71-.28.75-.25.78-.22.81-.18.85-.16.88-.12.9-.1.95-.07.98-.04 1.01-.02 1.04.02 1.07.05 1.04.1 1 .13.96.17.93.21.9.25.86.3.83.32.8.37.75.42.72.45.69.5.65.53.6.58.57.61.53.6.46.6.4.6.37.6.31.03.02h.03l.02.03h.03l.02.03h.03l.03.02h.02l.03.03h.03l.02.03h.03l.03.03h.02l.03.02h.03l.02.03h.03l.02.03h.03l.03.02h.02l.03.03h.03l.02.03h.03l.02.03h.03l.03.02h.02l.03.03h.04l.03.03h.03l.02.01h.03l.03.02h.02l.03.02h.03l.02.02h.03l.02.02h.03l.03.01h.02l.03.02h.03l.02.02h.03l.03.02h.02l.03.02h.02l.03.01h.03l.02.02h.03l.03.02h.02l.03.02h.03l.02.02h.04l.02.01h.03l.03.02h.02l.03.02h.03l.02.02h.03l.02.02h.03l.03.02h.02l.03.01h.03l.02.02h.03l.03.02h.02l.03.02h.03l.02.02h.03l.02.01h.03l.03.02h.02l.03.02h.03l.02.02h.09l.04.02h.02l.03.01h.03l.02.01h.03l.02.01h.03l.03.01h.08l.02.02h.08l.03.02h.08l.02.01h.03l.03.01h.02l.03.01h.03l.02.01h.03l.02.01h.09l.04.02h1.07l.06.02h4.43v1.2h7.86v-1.2h4.95l.05-.01h.06l.05-.01h.64l.03-.01h.08l.02-.01h.14l.04-.02h.08l.03-.02h.07l.03-.01h.03l.02-.01h.03l.03-.01h.02l.03-.01h.03l.02-.01h.08l.03-.02h.08l.02-.02h.08l.03-.01h.02l.03-.01h.04l.03-.02h.03l.03-.02h.02l.03-.02h.02l.03-.01h.03l.02-.02h.03l.03-.02h.02l.03-.02h.02l.03-.02h.03l.02-.01h.03l.03-.02h.02l.03-.02h.03l.02-.02h.03l.02-.02h.03l.03-.02h.02l.03-.01h.03l.02-.02h.04l.02-.02h.03l.03-.02h.02l.03-.02h.03l.02-.01h.03l.03-.02h.02l.03-.02h.02l.03-.02h.03l.02-.02h.03l.03-.01h.02l.03-.02h.03l.02-.02h.03l.03-.02h.02l.03-.02h.02l.03-.01h.03l.02-.02h.03l.03-.03h.03l.6-.29.6-.31.6-.36.6-.41.6-.46.6-.53.58-.57.54-.6.49-.65.46-.69.4-.72.38-.76.33-.8.3-.82.24-.87.21-.9.18-.92.13-.97.1-1 .05-1.03.02-1.08-.02-1.03-.05-1.01-.07-.98-.1-.94-.12-.92-.15-.87-.19-.85-.21-.8-.25-.8-.27-.74-.3-.71-.34-.7-.37-.64-.4-.61-.44-.59-.46-.55-.5-.51-.52-.48-.57-.45-.59-.42-.61-.38-.65-.34-.68-.3-.71-.28-.74-.25-.76-.2-.8-.18-.83-.14-.86-.11-.88-.08-.91-.05-.94-.01h-1.56v-1.41h-7.86v1.4h-1.56l-.94.02-.91.05-.88.08-.86.1-.82.15-.8.17-.76.21-.74.25-.71.27-.68.31.63-.12Zm44.56 5.23v25.87h8.08v-25.87h10.1v-6.83h-28.23v6.83h10.05Zm35.22 25.86h3.46l.05-.02h.16l.05-.02h.16l.05-.01h.05l.04-.01h.03l.04-.01h.03l.04-.01h.11l.03-.02h.1l.04-.02h.11l.03-.01h.04l.03-.01h.04l.03-.01h.04l.03-.01h.04l.03-.01h.11l.03-.02h.11l.03-.02h.11l.03-.01h.04l.03-.01h.04l.04-.02h.03l.04-.01h.03l.04-.02h.03l.04-.02h.03l.04-.01h.03l.04-.02h.03l.04-.02h.03l.04-.02h.03l.04-.02h.03l.04-.01h.03l.04-.02h.03l.04-.02h.03l.03-.02h.08l.03-.02h.02l.05-.02h.02l.03-.01h.03l.02-.02h.03l.02-.02h.08l.03-.03h.03l.02-.01h.03l.03-.02h.02l.03-.02h.03l.02-.02h.03l.02-.02h.03l.03-.01h.02l.03-.02h.03l.02-.02h.03l.02-.02h.02l.03-.02h.03l.02-.01h.02l.03-.02h.01l.03-.02h.03l.02-.02h.02l.03-.02h.02l.03-.01h.02l.01-.02h.03l.03-.02h.02l.01-.02h.03l.02-.02h.02l.02-.01h.03l.01-.02h.02l.03-.02.44-.2h.02l.02-.03h.02l.02-.01h.02l.01-.02h.02l.02-.02h.02l.01-.02h.02l.02-.02h.02l.01-.01h.02l.02-.02h.02l.01-.02h.02l.02-.02h.02l.01-.02h.02l.02-.01h.02l.01-.03h.02l.02-.03h.02l.01-.03h.02l.03-.02.54-.37.5-.4.48-.44.45-.46.41-.5.38-.52.34-.55.31-.57.28-.6.23-.62.2-.65.17-.66.13-.7.1-.71.04-.73v-3.23l-.01-.03v-.02l-.01-.03v-.03l-.01-.02v-.03l-.01-.03v-.08l-.02-.03v-.08l-.01-.03v-.02l-.01-.03v-.03l-.01-.02v-.03l-.01-.03v-.02l-.01-.03v-.08l-.02-.03v-.03l-.01-.02v-.03l-.02-.04v-.02l-.02-.03v-.03l-.02-.03v-.02l-.02-.03v-.03l-.01-.02v-.03l-.02-.03v-.02l-.02-.03v-.03l-.02-.03v-.02l-.01-.03v-.03l-.02-.02v-.03l-.02-.03v-.02l-.02-.03v-.03l-.01-.03v-.02l-.02-.03v-.03l-.02-.02v-.03l-.02-.03v-.03l-.01-.03-.22-.57v-.03l-.02-.02v-.03l-.02-.03v-.03l-.03-.02v-.03l-.02-.03v-.02l-.03-.03v-.03l-.02-.02v-.03l-.03-.03v-.03l-.03-.02v-.03l-.02-.03v-.02l-.03-.03v-.03l-.03-.02v-.03l-.02-.03v-.03l-.03-.02v-.03l-.03-.03v-.02l-.02-.03v-.03l-.03-.03-.29-.51-.32-.49-.35-.46-.38-.44-.42-.41-.45-.4-.47-.35-.54-.36-.54-.32-.56-.28h-.02l-.03-.03h-.03l-.02-.02h-.03l-.03-.02h-.02l-.03-.02h-.02l-.03-.02h-.03l-.02-.01h-.03l-.03-.02h-.02l-.03-.02h-.03l-.02-.02h-.03l-.03-.02h-.02l-.03-.01h-.02l-.03-.02h-.03l-.02-.02h-.03l-.03-.02h-.02l-.03-.02h-.02l-.03-.02h-.03l-.02-.01h-.03l-.03-.02h-.02l-.03-.02h-.03l-.02-.02h-.03l-.03-.01h-.02l-.03-.02h-.02l-.03-.02h-.03l-.02-.02h-.03l-.03-.02h-.02l-.03-.01h-.03l-.02-.02h-.03l-.02-.02h-.03l-.03-.02h-.02l-.03-.02h-.03l-.02-.01h-.03l-.03-.02h-.02l-.03-.02h-.03l-.02-.02h-.03l-.02-.02h-.08l-.03-.01h-.03l-.02-.01h-.03l-.03-.01h-.02l-.03-.01h-.03l-.02-.01h-.03l-.02-.01h-.08l-.03-.02h-.08l-.02-.02h-.08l-.03-.01h-.04l-.04-.02h-.04l-.03-.01h-.04l-.03-.01h-.04l-.03-.01h-.11l-.03-.02h-.11l-.03-.02h-.11l-.03-.01h-.04l-.03-.01h-.04l-.03-.01h-.04l-.03-.01h-.04l-.03-.01h-.11l-.04-.02h-1.1l-.1-.02h-.31l-.11-.01h-9.91v-10.97h-7.87v32.74h15.51l-.44-.4Zm-.73-6.95h-6.91v-7.9h7.65l.66.03h.84l.53.12.47.15.43.17.37.2.31.22.27.25.24.28.2.3.17.35.13.38.1.43.06.46.02.52-.02.57-.06.52-.1.45-.13.4-.17.34-.2.3-.24.26-.28.23-.33.21-.4.18-.44.15-.52.13-.58.1h-2.02l-.05.2Z"/></g><defs><clipPath id="a"><path fill="#fff" transform="translate(.056)" d="M0 0h377v200h-377z"/></clipPath></defs></svg>