<svg viewBox="0 0 364 315" fill="none" xmlns="http://www.w3.org/2000/svg"><g clip-path="url(#a)" fill="#fff"><path d="M121.1 95.65c-1.78 1.2-3.1 2-4.3 2.92-2.66 2.05-5.06 4.53-7.93 6.16-4.8 2.72-4.56 5.93-3 10.83.66 2.09 1.28 4.2 3.37 5.67 1.59 1.1 1 8.12-.4 9.7l-3.92 4.36c-.38-3-.73-5.47-1-7.96-.6-5.5-1.26-10.98-1.62-16.49-.1-1.42.56-3.03 1.28-4.33 1.33-2.4 3.14-4.52 4.41-6.94 1.29-2.46 3.33-3.55 5.71-4.35 2.13-.71 4.3-1.32 6.35-2.21.9-.39 1.77-1.2 2.3-2.06 2.23-3.69 4.28-7.49 6.52-11.18a5.32 5.32 0 0 1 2.22-1.9c3.87-1.8 7.8-3.45 11.68-5.2 9.71-4.36 18.94-9.42 26.93-16.8 2.92-2.7 7.13-3.96 10.78-5.8 2.35-1.2 4.91-2 7.12-3.41 5.15-3.29 10.58-3.65 16.43-2.8 7.18 1.02 14.43 1.5 21.63 2.35 1.15.14 2.49.84 3.25 1.7 9 10.3 17.74 20.86 26.94 30.96 3.15 3.46 7.39 5.88 11.17 8.71 1.62 1.21 3.25 2.49 5.04 3.36 6.65 3.27 9.1 9.17 10 16.13.17 1.31.48 2.6.85 4.55l14.01-3.53c-4.3 4.5-8.18 9.41-14.67 10.76-.85.18-1.77.95-2.3 1.7-1.78 2.58-3.5 5.21-5.07 7.93-1.75 3.04-3.73 5.75-6.85 7.49a5.31 5.31 0 0 0-1.75 2.11 164.2 164.2 0 0 0-4.12 7.95c-1.71 3.58-4.13 6.57-6.63 9.6-2.03 2.46-3.05 5.76-4.7 8.58a5.93 5.93 0 0 1-2.52 2.34 17.02 17.02 0 0 1-12.65.51l-4.15 7.85c-.3.55-.56 1.14-.95 1.62-1.45 1.75-3.05 3-5.6.73-.27 4.3-.55 8.13-.68 11.97-.02.54.67 1.16 1.12 1.66 2.52 2.81 5.7 5.14 6.12 9.44.04.4 1.4.96 2.16.98 11.35.26 22.7.4 34.06.64 27.8.56 55.6 1.16 83.4 1.75.23 0 .45.06.68.46l-291.05 8.34 1.34-14.19h39.63c-2.5-3.46-.88-6.72.32-10.02.17-.47.24-1.35-.01-1.54-1.85-1.37-.93-2.88-.4-4.43 2.01-5.8 3.92-11.63 6.03-17.4.89-2.4 1.27-4.7.06-7.01-1.73-3.3-1.26-6.2.95-9.1 2.6-3.4 3.9-7.25 3.39-11.68-.7-5.98 1.33-10.97 5.63-15.02 1.7-1.6 2.19-3.55 2.26-5.92.2-6.62.7-13.23 1.13-20.55v.01Zm80.25 94.76c3.93 1.13 6.69 3.42 8.18 7.51 1.28 3.51 1.68 3.49 5.57 2.67.05-1.05.23-2.15.12-3.23-.1-1.1-.14-2.64-.8-3.14a8 8 0 0 1-3.4-7.27 20.3 20.3 0 0 0-.4-4.24c-.55-3.28-1.19-6.56-1.8-9.83l-.7.07-1.7 5.45c-3.7-2.87-4.91-7.09-6.28-11.11 0 4.18-.17 8.2.05 12.21.2 3.68.82 7.32 1.25 10.98-2.26-.8-2.73-2.96-3.2-4.88-1.05-4.2-3.93-7.96-2.98-12.67.07-.33-.28-.98-.6-1.13-1.5-.69-3.04-1.26-4.7-1.93l-.92 3.64-5.03-6.08-1 .64c.58 2.28.79 4.76 1.83 6.8 2.97 5.77 6.36 11.32 9.44 17.04 2.31 4.3 7.32 7 12.03 6.17-.07-3.29-.4-3.64-3.35-3.33-1.4.15-2.79.37-4.19.55l-.14-.45 3.94-2.8-1.2-1.64h-.02Zm-54.28-52.94c-1.4.92-2.8 1.63-3.94 2.64-2.12 1.84-4.3 3.18-7.25 2.99-2.96-.19-5.02 1.02-6.5 3.97-2.43 4.82-5.22 9.5-10.8 11.33-.58.2-1.03 1.1-1.34 1.78a729.7 729.7 0 0 0-4.67 10.8c-3.8 8.95-5.72 17.78 1.1 26.3.84 1.06 1.46 1.74 2.9 1.76 9.95.12 19.9.34 29.87.51.8.01 1.59-.07 2.39-.1l.34-.66c-1.47-1.36-3-2.66-4.43-4.1-2.39-2.4-2.2-5.26.38-7.3.42-.32.8-.7 1.28-1.15-.51-.86-1.1-1.61-1.43-2.46-.22-.55-.36-1.53-.06-1.84 2.24-2.31 2.49-5.38 3.09-8.27 1.4-6.75 3.32-13.48.66-20.41-.67-1.74-1.72-3.95 1.05-5.17.22-.1.16-.73.32-1.08 1.84-4.06-.97-6.55-2.96-9.55Zm20.24 16.37c-2.22 1.3-4.11 2.37-5.96 3.51-.48.3-.95.77-1.23 1.27-1.2 2.18-2.32 4.4-3.44 6.6-.88 1.73-2.15 3.39-2.46 5.21-.74 4.4-.9 8.9-1.55 13.33-.44 2.95.19 5.6 1.13 8.3.53 1.53 1 3.16 1.11 4.78.2 3 .08 2.99 3.15 3.04 6.8.12 13.58.3 20.38.38 5.22.06 10.43.01 15.54.01.6-4.81-4.84-6.87-4.82-11.43 0-.26-.55-.5-.83-.78-2.6-2.47-5.18-4.97-7.82-7.4-2.6-2.38-4.46-4.94-4.25-8.89.14-2.6-.02-5.66-1.23-7.8-2.05-3.63-5.04-6.71-7.72-10.13Zm-18.29-44.14c-.55-2.85-.9-5.85-1.7-8.7-1.65-5.74-1.77-11.04 1.5-16.46 3.13-5.2 4.85-11.3 9.36-15.66.85-.82 1.55-1.8 2.32-2.7-.57-.22-.83-.12-1.06.02-7.8 4.8-15.47 9.95-24.34 12.47-3.74 1.07-5.5 3.78-7.15 6.82-.92 1.7-2.08 3.44-2.32 5.27-.26 2.13.39 4.37.6 6.57.35 3.54.68 7.08 1.01 10.62l-.43.1-3.76-7.68c-.94 9.52-1 18.87 1.17 28.09.16.68 1.25 1.48 2.02 1.61 3.54.65 6.53-1.39 9.77-2.3 2.27-.64 2.75-1.59 2.03-3.85-.76-2.37-1.68-4.96-1.42-7.33.34-2.98 1.8-5.82 2.94-9.21 2.64 3.58 5.61 4.83 9.47 2.33Zm34.27-.84c2.13-.4 4.18-.7 6.17-1.22.54-.14 1.03-.88 1.34-1.46 3.62-6.7 7.14-13.47 10.82-20.13 1-1.8 1.06-3.4.68-5.38-1.29-6.63-3.84-12.59-7.81-17.18-6.28 2.23-12.3 4.35-18.28 6.54a4.1 4.1 0 0 0-1.7 1.43c-3.7 4.94-5.98 10.23-3.7 16.59.16.43.08.94.15 1.4l1.3 8.78c3-2.21 5.53-3.97 7.9-5.94.58-.48.78-1.65.84-2.53.16-3.08.27-6.16.24-9.24-.04-2.95 1.85-4.57 3.5-6.4l.83.2-2.28 34.55Zm95.5-3.74c-.3-4.8-1.8-7.58-5.14-10.02l-22.78-16.66c-2.73-1.99-8.75-1.82-11.69-.08-5.03 2.99-8.5 7.48-11.78 12.17a2.27 2.27 0 0 0-.21 1.87c.62 1.4 1.47 2.7 2.52 4.54 4.15-6.49 10.44-4.88 16.14-5.5a48.02 48.02 0 0 1-6.63 4.72c-1.93 1.11-1.83 2.38-.82 4.17 3.35-1.43 6.63-1.5 10.17-.62 6.05 1.53 12.22 2.59 18.36 3.7 3.86.7 7.75 1.13 11.87 1.71Zm-53.05-54.46c-.53-.3-.72-.48-.92-.52-8.96-1.63-17.92-3.28-26.9-4.85a4.89 4.89 0 0 0-2.68.27c-6.01 2.68-12 5.43-17.96 8.22-.54.25-1.23.9-1.28 1.4-.16 1.7-.06 3.42-.06 5.32 5.12-.39 9.98-.24 13.63-4.22 2.88-3.14 6.53-3.33 10.42-3-.03.33.03.6-.07.78-2.17 3.67-.98 7.71-1.23 11.6-.03.4.18.95.45 1.27 1.93 2.22 3.91 4.4 6.22 6.97 1.61-4.9 2.9-9.04 4.37-13.1a4.81 4.81 0 0 1 1.96-2.34c4.56-2.63 9.19-5.12 14.05-7.8Zm42.4 62.03h.64c.56 2.79 1.15 5.58 1.66 8.38.19 1.06-.6 2.7 1.27 2.67 1.63-.03 3.8 1.22 4.59-1.65.91-3.34 2.06-6.62 2.95-9.96.13-.52-.41-1.58-.93-1.88a52.77 52.77 0 0 0-6.65-3.29c-.7-.27-2 .04-2.53.6-1.1 1.15-2.07 1.2-3.18.26-3.52-2.98-7.74-4.09-12.12-4.76-1.83-.27-3.88-1.27-5.42-.73-3.58 1.27-6.9 3.27-10.76 5.19 2.48 1.98 4.4 3.85 6.6 5.23 3.88 2.42 7 5.32 8.11 10.03.07.27.32.5.58.89.75-.38 1.5-.62 2.08-1.08 2.63-2.1 5.3-2.97 8.36-.82 1.08.76 1.77.26 2.15-1.05.79-2.7 1.72-5.35 2.6-8.02v-.01Zm-100.91 24.78c3.3-2.79 6.29-5.25 9.21-7.78 2.74-2.36 2.18-5.76-1.12-7.14-.78-.32-1.55-.73-2.37-.92-1.67-.38-1.8-1.27-1.25-2.76 1.28-3.55 2.68-7.1 3.55-10.76.45-1.88.17-4.1-.4-5.98-.2-.66-2.19-.92-3.4-1.07-1.41-.18-1.9-.93-2.17-2.26-.62-3.02-1.39-6-2.22-9.53-3.51 7.9-5.9 15.43-6.34 23.5-.13 2.43-.98 5.09-.3 7.24 1.85 5.75 4.35 11.28 6.81 17.46Zm74.88-65.87c0-.21.06-.41-.01-.51-4.47-6.03-8.93-12.07-13.47-18.05-.28-.37-1.32-.6-1.7-.36-4.61 2.85-9.16 5.8-13.99 8.88 2.73 2.07 5.1 4.25 7.8 5.83 2.6 1.53 3.17 3.75 3.4 6.42.1 1.45-.23 2.11-1.78 2.34-3.4.49-6.77 1.23-10.28 1.9.1 2.53.2 4.78.32 7.31 7.21-2 14.92-1.93 19.73-8.83.44-.63 1.16-1.06 1.65-1.66 2.01-2.52 4.31-4.22 7.72-3.12.17.06.4-.1.6-.15Zm-8.5 83.02.52.5c1.59-3.01 4.43-3.02 7.04-3.53 2.04-.4 4.1-.66 6.13-1.13.83-.2 2.02-.6 2.27-1.23 1.96-4.93 3.72-9.94 5.6-15.05l-2.42-1.02c-.35.78-.73 1.33-.83 1.93-.48 2.65-2.1 3.82-4.62 4.02-3.18.26-5.5 1.78-6.64 4.94-.06.16-.35.24-.62.4l-.48-2.36c-1.76 0-3.37.05-4.98-.01-1.25-.04-1.61.58-1.55 1.74.2 3.6.4 7.2.58 10.8Zm-61.16-95.97c-.34.16-.57.23-.75.37-5.7 4.24-9.29 10.45-13.84 15.77-.34.4-.5 1.23-.37 1.77 1.2 5.1 2.47 10.17 3.72 15.26a5.39 5.39 0 0 0 1.4-2.5c1.34-4.53 2.8-9.02 3.92-13.6.63-2.55 1.8-4.63 3.49-6.51 1.09-1.22 2.1-2.51 3.13-3.8 2.33-2.9 2.25-3.77-.7-6.76Zm-15.26 48.95c.87-3.83 2.65-7.44 2.24-10.78-.68-5.54-2.76-10.9-4.44-17-1.6 3.62-2.8 6.67-4.29 9.57a9.9 9.9 0 0 0-1.01 6.37c.37 2.25.57 4.52.95 6.77.12.63.49 1.42.98 1.75 1.65 1.11 3.41 2.05 5.57 3.32Zm-47.62 48.55c-.2 3.13-.3 5.79-.56 8.43-.66 6.6-3.44 12.54-5.54 18.7a6.83 6.83 0 0 0-.32 2.19c.01 1.6.4 3.26.15 4.81-.77 4.8-.87 4.7 3.84 3.56 2.12-.5 2.29-1.5 1.74-3.36-.52-1.78-1.26-3.78-.91-5.48a73.1 73.1 0 0 0 1.54-18.29c-.1-1.9.82-4 1.7-5.78.31-.61 1.95-.52 2.97-.78.08-.02.13-.22.27-.47l-4.88-3.53Zm40.59 12.62c-.31 7.73-1.27 15.29-4.37 22.42 1.34 2.55 3.2 1.62 5.16.6 2.05-1.08.45-2.38.39-3.62a18.7 18.7 0 0 1 .18-3.51c.54-4.14 1.16-8.27 1.72-12.4.28-2.11-.73-3.2-3.08-3.5Zm-35.9-33.36c0 2.02.22 3.93-.06 5.76-.28 1.9-1.2 3.69-1.48 5.58-.08.57.93 1.8 1.57 1.9 1.4.22 2.9-.05 4.35-.18 2.16-.2 3.35-2.1 2.53-4.1-.86-2.1-1.9-4.13-2.69-6.26-.71-1.92-2.11-2.48-4.22-2.7Zm130.3-7.16c3.94-4.46-.37-11.62-8.38-13.19-.5 1.37-.96 2.79-1.54 4.15-.63 1.5 0 2.15 1.33 2.6 3.46 1.18 7.31 1.82 8.6 6.44Zm-2.19 35.78c1.4-.73 3.17-1.74 5.01-2.6 1.73-.83 1.09-2.42.28-2.75a55.6 55.6 0 0 0-9.01-2.67c-.88-.19-2.04.61-2.97 1.16-1.18.7-1.08 1.64 0 2.39 2.21 1.52 4.45 2.98 6.7 4.47Zm-121.8-42.4c-2.6 4.31-1.88 7.87 1.48 8.27l-1.48-8.28Zm-4.96 10.66c2.79-1.87 2.93-2.61 1.15-5.46-2.9 2.15-3 2.63-1.15 5.46Zm-114.98 70.37c1.05-4.18 1.05-4.17 4.7-4.21l40.76-.46h2.53c-.42 5.19-.67 10.14-1.34 15.03-.18 1.38-1.6 2.57-2.97 3.74-.16-2.14-.31-4.28-.5-6.42-.38-4.52-2.2-6.69-6.6-7-4.84-.35-9.72-.46-14.57-.28-4.38.15-5.7 1.8-5.7 6.28-.03 16.6-.03 33.2 0 49.8.01 4.59 1.46 6.16 5.91 5.63a16.42 16.42 0 0 0 7.09-2.53c6.86-4.66 11.25-11.11 12.23-19.7.98-8.6-4.74-15.67-13.18-16.06-2.58-.12-5.19.24-7.79.39.7-3.83 1.12-4.45 5.68-4.81 9.7-.78 17.85 2.4 23.35 10.94 4.34 6.73 3.75 13.83.3 20.71-4.67 9.28-12.46 14.73-22.35 15.67-9.24.89-18.63.2-28.13.2.46-1.95.67-3.95 3.49-4.14 2-.13 2.8-1.82 3.1-3.62.23-1.31.24-2.68.24-4.02.02-15.89.01-31.78 0-47.67 0-.7-.01-1.42-.06-2.13-.25-3.72-1.27-4.79-4.94-5.18l-1.25-.16Zm272.62 42.18c0 6.15-.07 12.3.03 18.46.04 2.08 1.39 3.28 3.41 3.52.91.1 1.84.01 2.96.01-.77 2.07-1.8 3.04-3.96 2.98-5.79-.15-11.57-.05-17.47-.05.1-1.82.73-2.75 2.48-2.83 2.23-.12 3.37-1.54 3.38-3.74.06-11.62.1-23.23.03-34.85-.01-2.67-1.28-3.7-3.96-3.9-.53-.04-1.05-.1-1.68-.16.1-2.1.88-2.99 3-2.94 6 .12 12 .04 18.22.04-.57 1.74-1.2 2.82-3.04 2.9-2.18.1-3.38 1.63-3.42 3.76-.1 5.13-.03 10.25-.03 16.18 2.9-1.58 5.62-2.57 7.76-4.32a69.21 69.21 0 0 0 9.7-9.35c3.4-4.14 2.72-5.53-2.4-6.55.2-1.74.8-2.74 2.82-2.8 3.84-.08 7.67-.44 11.99-.72-.94 1.5-1.6 2.7-2.4 3.82-4.54 6.45-9.79 12.2-16.1 16.87-1.52 1.12-1.76 2.02-.54 3.58 4.8 6.07 9.16 12.54 14.31 18.27 6.88 7.63 15 13.4 25.8 13.6l.1.7c-2.29.6-4.54 1.46-6.86 1.77-7.8 1.02-14.35-2.26-20.35-6.87-7.42-5.7-13.26-12.95-18.62-20.64-1.6-2.28-3.14-4.61-4.7-6.92l-.45.17-.01.01Z"/><path d="M332.13 271.52c-14.38.03-24.4-10.41-24.44-25.44-.03-16.03 10.14-26.49 25.76-26.49 15.49 0 24.91 9.57 24.94 25.35.04 15.59-10.79 26.54-26.26 26.58Zm17.18-25.1c-.6-3.72-.92-7.52-1.86-11.15-3.08-11.91-15.96-16.15-24.7-8.16-3.38 3.1-4.68 7.34-5.18 11.83-.87 7.86-.27 15.51 4.01 22.35a13.96 13.96 0 0 0 24.1-.46c2.57-4.42 3.23-9.31 3.63-14.41Zm-202.03 20.44c-1.08 2.04-2.34 3.24-4.85 3.14-5.32-.22-10.66-.07-15.98-.08-.76 0-1.5-.08-2.45-.13.72-2.07 1.47-3.45 3.84-3.5 2.6-.05 3.86-1.52 4.02-4.25.14-2.52.06-5.05.06-7.58 0-9.09-.05-18.18.04-27.27.02-1.8-.52-2.36-2.23-2.27-2.47.12-4.94.02-7.41.03-3.24.02-3.87.71-4.06 4.02-.35 6.06-.48 12.16-1.24 18.17-.8 6.27-2.34 12.46-6.15 17.65a22.78 22.78 0 0 1-5.36 5.1c-1.7 1.18-3.94 1.85-5.86.35-1.87-1.46-1.78-3.67-1.58-5.82 7.39-.17 11.77-3.65 13.88-10.9a57.08 57.08 0 0 0 2.26-19.18c-.41-7.51-1.75-9-8.85-10 .44-2.25 1.56-3.14 3.95-3.11 11.58.13 23.16.05 34.74.05h2.71c-.66 1.75-.98 3.26-3.14 3.42-1.9.14-2.4 1.8-2.43 3.48-.08 3.4-.09 6.8-.1 10.2v22.52c.02 4.92.59 5.5 5.47 5.7.21.01.41.15.72.27Zm105.04.1c-.99 2.1-2.3 2.93-4.46 2.87-6.01-.14-12.02-.05-18.24-.05.47-1.89 1.07-3.12 3.1-3.31 3.54-.33 4.53-1.37 4.59-5.17.13-9.8.1-19.6.14-29.4 0-1.73-.06-3.47-.02-5.21.03-1.41-.57-1.96-1.94-1.93-2.78.06-5.56-.03-8.34.03-2.68.05-3.5.98-3.6 3.8-.27 6.78-.15 13.62-.94 20.34a64.26 64.26 0 0 1-3.71 14.56c-2.14 5.75-6.55 8.24-11.5 7.52-2.18-.32-3.57-1.36-3.74-3.82 8.46-.48 11.6-6.57 13.75-13.67a52.88 52.88 0 0 0 1.96-21.78c-.67-5.67-2.24-6.88-7.76-7.31-.2-.02-.4-.16-.67-.26.34-2.18 1.48-2.85 3.63-2.83 11.58.1 23.16.04 34.74.04h2.5c-.46 1.82-.91 3.08-3.03 3.28-2.16.2-2.38 2.23-2.4 4-.07 4.66-.03 9.32-.03 13.99v17.3c0 6.1.12 6.25 5.98 7.02Zm-49.72-.06c-1.12 2.18-2.56 2.83-4.66 2.78-5.84-.14-11.7-.05-17.54-.05l-.36-.79c.84-.5 1.63-1.26 2.53-1.44 2.5-.47 3.64-1.42 3.08-3.96-.93-4.21-2.33-8.32-3.62-12.44-.12-.38-.93-.77-1.43-.78-4.32-.06-8.65-.08-12.97.03-.63.02-1.52.7-1.8 1.31-1.17 2.58-2.18 5.23-3.22 7.86-2.06 5.2-.55 7.62 4.92 7.94.3.02.61.06 1.23.6-.86.56-1.71 1.57-2.58 1.6-5.47.14-10.94.07-16.99.07.77-1 1.14-2.03 1.72-2.17 3.5-.85 5.25-3.58 6.57-6.52 3.22-7.17 6.22-14.45 9.3-21.69.95-2.24 1.9-4.49 2.82-6.75.36-.87.7-1.76.96-2.66 1.12-3.77.53-4.78-3.18-5.5.47-2.1 1.59-3.13 3.85-3.14 2.38-.01 4.77-.4 7.13-.77 1.76-.27 2.7.11 3.36 2.07 4.03 12.02 8.2 24 12.36 35.97a35.5 35.5 0 0 0 1.73 4.12c1.36 2.72 3.32 4.57 6.8 4.3v.02Zm-28.14-38.8-6.78 18.24h12.83c-2-6.02-3.9-11.79-6.05-18.24Zm-118.66-3.63c.32-2.34 1.12-3.23 3.35-3.2 11.64.12 23.3.06 35.03.06 1.07 3.97-.7 11.03-3.55 13-.24-1.63-.48-3.18-.69-4.72-.29-2.26-1.6-3.8-3.7-3.92-4.14-.23-8.3-.22-12.44-.04-1.94.09-2.98 1.59-3 3.59-.04 4.42-.01 8.84-.01 13.34h15.44c-.3 3.6-1 4.15-4.44 4.03-3.54-.12-7.09-.03-11.02-.03v3.34c0 4.35.02 8.7 0 13.05-.01 1.5.35 2.67 2 2.93 5.03.8 10.05.82 14.85-.99 1.8-.67 3.3-2.22 5.23-3.59.64.64 2.4 1.67 2.28 2.39-.33 2.03-1.36 3.97-2.25 5.88-.14.3-.98.31-1.5.32-11.66.02-23.33.02-35 .02-.22 0-.44-.1-.84-.18.35-1.6.7-2.93 2.77-2.95 1.85-.02 2.97-1.2 3.23-3.1.13-.86.21-1.73.21-2.6.01-10.2.01-20.4-.02-30.6 0-1.18-.07-2.4-.38-3.52-.78-2.85-3.26-2.37-5.55-2.51Zm79.6 60.36.64 9.34-129.08-5.24-.01-.47 128.46-3.63Zm96.72 9.83.64-9.35 130.3 3.69-.01.35-130.93 5.31Zm-64.35 3.41c-1.09-.92-2.18-1.75-3.18-2.7-2-1.9-2.98-4.18-2.2-7.02a5.7 5.7 0 0 1 5.16-4.45c2.94-.27 6.04-.36 8.9.28 4.13.93 5.35 5.36 2.6 8.7-1.18 1.42-2.78 2.45-4.34 3.8 1.16.65 2.39 1.34 3.6 2.04 5.88 3.37 4.23 10.01.73 12.86-3.75 3.07-10.74 3.71-14.9 1.28-4.18-2.45-4.88-7.8-1.32-11.17 1.44-1.36 3.2-2.36 4.96-3.62Zm9.65 8.65c.02-3.1-4.88-7.83-7.75-7.44-.21.03-.4.2-.61.3a6.96 6.96 0 0 0-3.68 7.48 6.34 6.34 0 0 0 6.71 5.22c3.38-.25 5.3-2.25 5.33-5.56Zm-5.54-21.4c-3.5.01-5.09 1.26-5.1 4.01 0 2.29 3.56 6.17 5.67 6.18 1.76 0 4.44-3.64 4.44-6.05 0-2.78-1.66-4.16-5-4.14Zm15.45 28.23c6.08-2.19 10.08-6.34 12-12.81-2.07.97-3.8 2.21-5.7 2.6-4.75.98-8.64-1.46-10.02-5.85-1.54-4.92.46-10.43 4.73-12.64 6.47-3.33 16.35-1.61 16.35 10.08 0 9.4-6.34 17.45-15.3 19.37-.63.14-1.34-.07-2.02-.12l-.04-.64Zm.48-20.74c.32 1.45.5 2.95.98 4.34.96 2.8 2.64 3.98 5.13 3.86 2.54-.13 4.45-1.68 5.16-4.31.8-2.94.4-5.82-.86-8.52a4.67 4.67 0 0 0-4.44-2.85c-3.8-.06-5.74 2.42-5.97 7.49Zm-30.85 19.39c-.82.4-1.63 1.08-2.46 1.12a63.4 63.4 0 0 1-10.74-.45c.59-.5 1.11-1.33 1.78-1.47 1.78-.39 2.49-1.55 2.5-3.19.07-6 .1-12 .04-18-.02-2.52-1.9-3.16-3.95-3.36.59-1.84 3.84-2.83 9.25-2.8v2.74c-.04 6.87-.09 13.74-.1 20.6-.02 3.45.29 3.79 3.51 4.2l.18.62Zm63.33-22.85h-14.76l1.16-4.36h17.63c-.5 1.21-.75 2.46-1.43 3.4a45.17 45.17 0 0 0-8.92 26.61c-3.48-1.42-3.67-1.83-2.97-5.23 1.3-6.35 4.16-12 7.46-17.45.56-.93 1.14-1.85 1.83-2.96Zm18.44-262.72-1.4 2.43c-1.34-.59-1.13-2.17.63-4.74.97-.5 2.1-.84 2.86-1.57a98.33 98.33 0 0 0 6.18-6.4c.87-.98 1.46-1.26 2.71-.61 1.33.7 1.48 1.45 1.17 2.82-.68 3.07-1.25 6.18-1.72 9.3-.12.82.29 1.73.96 2.6l-2.25 4.35-1.84-.88 1.22-2.7c-2.8-1.5-5.55-3-8.52-4.6Zm9.58-7.66-.4-.24-6.34 6.88 4.63 2.34 2.1-8.98Zm59.34 175.05-1.36 2.84c-3.75-.6-7.3-1.24-10.88-1.72-.88-.12-1.82.26-3.25.5-.62-.87-3.67-.3-3.41-3.72 1.33.55 2.15.9 3.15 1.3l4.26-8.76-2.36-1.43c.17-1.37.6-2.24 2.13-1.22 1.23.8 3.31.76 2.88 3.2-.06.35.63.84.97 1.25l6.82 8.39 1.05-.63Zm-12.7-1.95 8.65 1.85.26-.58c-2.15-1.94-4.3-3.89-6.6-5.95l-2.3 4.68Zm-174.8-172.62c.47-.31 1.12-.73 1.93-1.28l7.62 12.45-2.33 1.65-4.27-7.28-.44.07v10.11l-1.92 1.23-7.6-12.44 2.35-1.56 4.66 7.85v-10.8Zm195.07 78.15-13.53 4.78-.96-2.77 8.09-2.63c0-.18 0-.36.02-.55l-9.97-2.36a67.2 67.2 0 0 0-.65-1.92l13.56-4.8.98 2.7-8.15 2.75-.04.47c2.75.65 5.48 1.67 8.25 1.82 1.96.1 1.99 1.1 2.4 2.5Zm-245.69-22.15 7.34 4.07.44-.42-5.1-8.87.97-1.82c4.25 2.3 8.38 4.52 12.7 6.83a419 419 0 0 0-1.28 2.57l-7.4-4.13-.45.36 5.18 8.96-.97 1.84-12.72-6.84 1.29-2.54Zm26.42-15.27-1.75 2.31-6.88-5.29-.35.26 3.88 9.83-1.2 1.64c-3.83-2.87-7.6-5.67-11.56-8.62l1.52-2.38 7 5.32.39-.27-3.98-9.74 1.2-1.72 11.72 8.66Zm215.23 99.98c-.92 1.15-2.57 1.84-4.6.7-1.97-1.12-2.3-3.03-2.09-5.09.15-1.54.44-3.08.69-4.7l14.19 2.36c-.26 1.7-.24 3.43-.84 4.89-.53 1.31-1.56 3-2.7 3.31-1.17.32-2.73-.8-4.65-1.47Zm-4.3-5.93c-.28 2.14-.6 4.03 1.7 4.28 2.2.24 2.36-1.7 2.75-3.53l-4.44-.75Zm6.32 1.02c-.12 1.85-.55 3.67 1.61 3.77 1.85.07 1.89-1.58 1.95-3.09l-3.55-.68Zm-98.34-145.28c1.45 1.26 2.42 2.66 1.57 4.73-.9 2.17-2.62 2.78-4.7 2.58-1.67-.16-3.33-.48-5.2-.76l2.79-14.47c2.45.46 5.16.27 7.25 2.24 1.74 1.64.95 4.07-1.7 5.68Zm-5.3 5.35c1.64-.38 2.88-.43 3.81-1 .44-.26.66-1.86.32-2.28-.69-.84-1.84-1.28-3.1-2.08l-1.03 5.36Zm1.3-6.4c1.53-.44 2.58-.55 3.4-1.06.34-.2.48-1.55.2-1.83-.67-.66-1.64-.99-2.75-1.58l-.86 4.47Zm97.72 172.08c-2.13-.99-4.42-1.73-6.35-3.03-2.15-1.43-2.66-3.94-1.84-6.33.84-2.42 2.64-3.98 5.03-3.8 2.3.18 4.7.88 6.76 1.96 2.59 1.36 3.3 4.01 2.46 6.68-.86 2.72-2.81 4.06-6.06 4.52Zm1.06-2.87c.92-.85 2.33-1.55 2.52-2.5.2-1-.47-2.71-1.3-3.26-1.42-.95-3.22-1.41-4.92-1.76-1.47-.3-2.72.38-3.24 1.98-.53 1.66.28 2.85 1.59 3.5 1.55.8 3.25 1.26 5.35 2.04Zm-29.3-117.75-1.82-2.34 11.39-9.03 1.8 2.37-4.53 3.45 3.04 4 4.33-3.6 1.83 2.34-11.36 9.04-1.8-2.37 5.2-4.02-2.95-3.96-5.14 4.11h.01Zm-58.01-44.42c.83-2.08 1.44-4.3 2.57-6.2 1.5-2.54 4.04-3.23 6.65-2.3a5.3 5.3 0 0 1 3.65 5.9 17.8 17.8 0 0 1-2.18 6.36c-1.44 2.5-3.91 3.12-6.44 2.27-2.5-.85-3.83-2.9-4.25-6.02Zm10.7-3.28c-.86-1.03-1.5-2.52-2.42-2.74-.97-.23-2.73.41-3.24 1.25a13.34 13.34 0 0 0-1.73 5.47c-.08.9.95 2.47 1.79 2.75.87.3 2.58-.27 3.11-1.05 1.06-1.54 1.57-3.48 2.49-5.68Zm-43.1-4.73c-.05 4.92-2.44 7.68-6.4 7.4-.08 0-.16 0-.24-.02-3.66-.4-5.8-4.46-5.1-9.67.54-4.05 3.4-6.26 7.11-5.52 2.86.57 4.66 3.62 4.63 7.8Zm-8.94-.52h-.12c.13 1.02-.02 2.21.46 2.99.64 1 1.78 2.27 2.72 2.29.92.01 2.41-1.26 2.66-2.23.44-1.67.26-3.56.02-5.32-.2-1.59-1.16-2.76-2.99-2.61-1.92.15-2.52 1.55-2.74 3.22-.06.55 0 1.1 0 1.66Zm74.59 26.78c.03-4.35 4.18-9.01 7.99-8.96 2.95.03 5.5 2.6 5.53 5.55.05 4.06-4.33 9.1-7.94 9.16-2.97.03-5.6-2.68-5.58-5.75Zm10.8-3.56c-.04-2.12-2-3.45-3.87-2.5-2.34 1.2-3.68 3.33-4.25 5.85-.49 2.11 1.59 3.76 3.64 3.1 1.86-.6 4.5-4.42 4.47-6.45Zm-151.48 10.23-2.16 1.92-7.87-9.54-2.33 1.98c1.62 2.51 3.3 4.85 4.67 7.36.64 1.17 1 2.7.88 4-.05.66-1.5 1.67-2.26 1.63-.8-.05-1.47-.95-.7-2.32.4-.7-.18-2.3-.74-3.2-1.58-2.5-3.38-4.85-5.21-7.43l6.38-5.6 9.34 11.2Zm23.9-14.83-2.68 1.2-5.85-13.41 2.7-1.25 2.27 5.56.42.02c.16-1.56.54-3.12.43-4.65-.16-2.18.68-3.23 3.03-3.46-.3 2.14-.7 4.19-.83 6.26-.04.66.4 1.6.92 2 2.05 1.54 4.21 2.9 6.43 4.4-1.75 1.4-3.22 1.98-4.99-.02-1.1-1.25-2.7-2.02-4.55-2.65l2.69 6Zm-70.38 68.07c-.95-1.12-1.77-2.42-2.88-3.32-1.7-1.36-1.8-2.75-.46-4.68 1.11 1.46 2.28 2.85 3.3 4.34.88 1.3 1.7 1.88 3.4 1.25 2.12-.78 4.42-1.07 6.8-1.6-.3 2.25-.83 3.7-3.38 3.62-1.68-.05-3.38.67-5.07 1.04v.6l6.1 2.02-.98 2.85-13.52-4.88.92-2.89 5.48 2.13.3-.48Zm13.44 93.85-13.35 6.12-2.83-6.55 1.95-1.37 1.73 4.4 3.09-1.33c-.35-1.23-.7-2.33-.99-3.46-.49-1.93.15-3.44 1.86-4.36 1.78-.95 3.73-1.16 5.05.59 1.37 1.81 2.34 3.95 3.5 5.96h-.01Zm-7.35.3 4.12-1.91c-.93-1.66-1.5-3.57-3.65-2.59-2.11.96-1.4 2.6-.47 4.5Zm231.62-43.31c-1.43-3.93 1.98-3.13 3.6-3.99.32-2.66-.82-4.46-3.42-5.38v-2.7c4.57 1.54 9.03 2.99 13.43 4.61.47.17.73 1.4.76 2.16.03.55-.38 1.5-.78 1.61-4.5 1.3-9.02 2.48-13.59 3.69Zm6.17-7.52v3.14l4.63-1.14-.03-.5-4.6-1.5Zm-150.2-134.64c1.6-.27 3.02-.6 4.47-.73 2.94-.26 4.37.79 4.94 3.42.52 2.42-.58 4.5-2.95 5.48-.64.27-1.3.46-2.09.73l.44 2.56.45 2.5-2.86.61-2.4-14.58Zm3.99 7c1.2-.92 2.3-1.36 2.67-2.16.3-.65.02-2.05-.5-2.53-.64-.59-1.82-.55-3.07-.86l.9 5.54Zm-90.96 160.73.72 2.85-13.84 4.08c-.46-1.87-1.1-3.78-1.37-5.74a3.46 3.46 0 0 1 2.13-3.8c1.89-.87 3.77-1.07 5.31.6.87.94 1.45 2.16 2.28 3.44l4.77-1.43Zm-7.1 2.37c-.63-2.27-1.66-3.5-3.54-2.6-.72.35-1.57 2.22-1.29 2.64 1.46 2.19 2.96-.33 4.83-.04Zm245.26-48.35c-1.77 2.66-3.13 3.28-5.26 2.44-2.15-.86-3.35-3.36-3.04-6.32.33-3.08.67-3.43 3.02-2.95-.19 1.13-.49 2.27-.54 3.4-.08 1.57.12 3.27 2.1 3.3 2.04.04 2.17-1.62 2.08-3.22-.02-.39-.1-.78-.17-1.24 1.12-.3 2.07-.7 2.31 1.1.19 1.36 1.02 2.43 2.58 1.93 1.64-.52 1.37-1.87.96-3.13-.21-.66-.55-1.27-1.1-2.5 1.1.08 2.13-.16 2.54.25 1.68 1.7 1.75 5.7.3 7.26-1.35 1.46-3.46 1.34-5.78-.32Zm-24.43-51.55 12.74-7.08 1.5 2.5-5.04 2.69c.4.99.8 1.89 1.13 2.83.8 2.34.26 3.94-1.62 5.06-2.08 1.25-3.73 1.1-5.32-.86-1.26-1.56-2.23-3.35-3.39-5.14Zm7.28-.86-3.9 2.15c.87 1.6 1.56 3.44 3.63 2.43 2.07-1.01 1.17-2.72.27-4.58Zm-19.76-26.36c-1.01-.5-1.58-.73-2.1-1.04-2.23-1.28-2.59-2.77-1.04-4.8 1.18-1.55 2.51-2.97 3.88-4.58l1.97 2.23c-.74.73-1.53 1.46-2.28 2.23-2.07 2.11-1.93 2.9.95 4.39l4.16-4.28 1.77 2.14-10.29 9.72.4.76-2.13-2.04 4.72-4.74v.01Zm-122.8-40.93.94 2.13-4.4 1.34 1.04 3.32 4.27-1.17.36 2.18-4 1.25 1.24 4.24 4.24-1.5.56 2.3-6.86 2.17-4.19-14.12 6.8-2.13Zm-81.37 153.95-14.16 2.46-1.25-7.13 2.15-.76.77 4.56 3.32-.39-.54-4.6 2.13-.11.71 4.2 4.17-.69-.72-4.53c1.49-.52 2.37-.37 2.54 1.49.15 1.84.58 3.67.88 5.5Zm-14.01-22.18c-.19 2.41-.57 4.93 2.37 5.94 2.16.73 4.35.66 6.14-.82 1.96-1.62 1.18-3.67.16-5.6 2.3-.79 3.08.4 3.4 2.29.6 3.64-.97 6.08-4.54 7.04-5.22 1.4-9.68-1.13-10.25-5.8-.24-1.9.03-3.35 2.71-3.05Zm12.55-30.78c2.07-.15 2.5 1.02 2.48 2.66-.05 3.84-2.36 6.12-6.16 6.04-5.6-.13-9.2-3.8-8.37-8.57.3-1.82 1-3.04 2.63-2.2.21 2.1-.12 4.25.74 5.63.74 1.2 2.78 1.9 4.34 2.14 3.33.5 4.36-.98 4.34-5.7Zm-11.79 13.88-.45 3.64 12.16.95-.34 2.97-12-1.2c-.1 1.34-.16 2.4-.23 3.52-1.77.39-2.46-.23-2.24-2.05.23-1.95.44-3.92.47-5.88.03-1.97.87-2.47 2.63-1.95Zm235.16-37.09 12.64-6.99 1.37 2.43-12.64 6.99-1.37-2.43Zm-98.5-73.96c1.35 0 2.1-.02 2.86.01.75.04 1.5.15 2.36.24v2.37c-1.54-.11-2.99-.09-4.36-.4-.35-.08-.48-1.2-.85-2.22Zm-119.2 46.43c2.66-1.23 2.69-1.29 2.47-4.3 1.37 1.02 1.97 2.29 1.1 3.61-.63.93-1.84 1.45-2.8 2.15l-.78-1.46Zm242.96 38.53c-3.6.14-5.3-1.82-4.3-4.06.16-.35.63-.78.95-.77.31.01.9.7.86.8-1.05 2.1.45 2.93 2.5 4.03h-.01Z"/></g><defs><clipPath id="a"><path fill="#fff" transform="translate(.056)" d="M0 0h363v315h-363z"/></clipPath></defs></svg>