<svg viewBox="0 0 281 232" fill="none" xmlns="http://www.w3.org/2000/svg"><path d="M.68 71.87c6.84-8.16 13.67-16.35 20.54-24.48.28-.33 1.06-.58 1.45-.43 15.73 5.9 31.27 4.5 46.68-1.23 13.14-4.87 24.9-12.24 36.12-20.57a297.42 297.42 0 0 0 27.74-23.61c.8-.75 1.5-1.06 2.64-.9a98.1 98.1 0 0 0 31.9-.48c.41-.07.82-.03 1.23-.04-16.05 8.45-31.98 17.14-48.17 25.28-27.37 13.76-55.35 26.18-84.32 36.1-10.02 3.43-20.25 6.26-30.38 9.38-1.17.36-2.3.86-3.49 1.17-.6.16-1.29.06-1.94.08v-.27Zm58.98-20.72c-.64-.88-1.55-.52-2.32-.44-3.69.4-7.37 1.13-11.06 1.23a80.8 80.8 0 0 1-12.44-.56c-3.31-.42-6.58-1.45-9.8-2.4-1.8-.54-2.22-.52-3.37.94-3.28 4.19-6.6 8.33-9.91 12.48l-4.95 6.2c2.1 1.32 51.05-14.61 53.87-17.45h-.02Zm19.22 141.65c19.86 11.17 41.18 16.22 63.19 19.15-.22.05-.44.11-.66.14-.27.03-.54.03-.82.03-18.02.23-35.74 2.51-53.02 7.82-.74.22-1.63.12-2.4-.04-18.01-3.78-31.32-14.06-40.52-30-6.2-10.74-10.03-22.4-12.98-34.39-3.46-14.02-5.63-28.28-7.72-42.56a.97.97 0 0 1 .2-.78l.5 1.24c1.48 3.6 2.86 7.26 4.5 10.78.62 1.36 1.88 2.42 2.77 3.67.35.48.58 1.11.71 1.7 2.62 11.56 6.84 22.45 13.25 32.43a89.08 89.08 0 0 0 20.68 22.53c.54.4 1.3.67 1.97.68 3.92.06 7.82-.13 11.61-1.28 6.46-1.99 10.33-6.87 10.88-13.68.51-6.28-.96-12.24-2.9-18.1-3.38-10.2-8.2-19.74-13.32-29.11-9.88-18.13-20.99-35.5-32-52.93l-1.01-1.69h1.25c18.55.7 37.1 1.37 55.64 2.08a3.2 3.2 0 0 1 1.85.6c19.43 16.05 37.53 33.44 53.12 53.38a123.36 123.36 0 0 1 12.7 19.4 25.9 25.9 0 0 1 2.53 16.45c-.17 1.08-.62 2.22 1.08 2.5 1.4.22 2.2-.33 2.59-1.95 1.23-5.37 2.48-10.73 3.65-16.12.25-1.12.68-1.46 1.8-1.45 8.2.05 16.39.03 24.57.03h1.56l-1.45 6.29c-1.8 7.69-3.63 15.36-5.39 23.06-.23.99-.58 1.34-1.6 1.32-3.78-.06-7.54-.02-11.56-.02l4.55-19.8c-1.3-.24-2.07.21-2.33 1.35-.56 2.46-1.1 4.94-1.68 7.4a14.91 14.91 0 0 1-5.31 8.6c-2 1.58-4.27 2.41-6.82 2.41-1.28 0-2.55.03-3.82.01-2.7-.04-3.4-.77-3.25-3.58l-1.03 1.5a15.19 15.19 0 0 1-10.13 6.59c-24.77 4.6-49.51 9.32-74.26 14-.31.06-.61.17-1.18.34Zm21.2-19.97c2.66 0 4.94.06 7.2-.01 4.8-.14 9.58-.18 14.35-.59 4.68-.4 8.12-3.26 10.86-6.85 2.02-2.66 2.48-5.9 2.54-9.23.06-3.02-1.38-5.12-3.61-6.74-2.55-1.85-5.5-2.53-8.6-2.5h-5.89l.73-3.32c5.92 0 11.75-.03 17.57.03.95 0 1.4-.28 1.6-1.19.38-1.9.78-3.78 1.18-5.67l.6-2.75h-29.48l-9.03 38.83-.01-.01Zm47.78-11.55 1.02-.03h17.2c.7 0 1.29-.09 1.37-.9.22-2.16.58-4.34.5-6.5a9.76 9.76 0 0 0-2.3-6.2c-3.21-3.73-7.55-4.05-11.8-3.4-7.06 1.04-12.14 5.09-14.84 11.91-2.07 5.25-1.2 10.33 2.54 13.72 3.8 3.45 8.33 4.12 13.22 2.72a20.52 20.52 0 0 0 8.43-5.07c1.3-1.22 2.23-2.85 3.33-4.29l-.25-.33h-9.22c-.18 0-.35.19-.53.3-1.06.62-2.04 1.46-3.18 1.8a4.19 4.19 0 0 1-5.51-3.72h.02Zm54.34-16.26h-24.51l-.6 2.54c-1.02 4.42-2.22 8.8-3 13.26-.58 3.32-2.7 3.9-5.4 3.21-.13.31-.31.63-.38.97-.4 1.99-.62 4.02-1.2 5.95-.35 1.21.32 1.56 1 1.55 2.38-.04 4.88.14 7.1-.54 5.14-1.56 7.34-5.77 8.38-10.78.61-2.92 1.31-5.83 1.96-8.72h5.07c-1.45 6.35-2.84 12.65-4.36 18.93-.26 1.08.1 1.18.93 1.17 2.36-.01 4.73-.1 7.09.03 1.26.07 1.64-.52 1.86-1.56.55-2.6 1.12-5.18 1.73-7.76 1.42-6.03 2.86-12.04 4.34-18.25Zm-133.97 49.1c.88-.12 2.14-.19 3.36-.45a22 22 0 0 0 12.03-6.9c.44-.5.69-1.16 1.03-1.76-.65.05-1.34-.02-1.94.18a44.62 44.62 0 0 1-13.17 2.16c-2.97.08-5.94-.65-8.92-.91a2.5 2.5 0 0 0-1.76.63c-.33.33-.45 1.15-.3 1.64.26.83.7 1.66 1.25 2.32 2.12 2.47 5 2.94 8.4 3.08h.02Zm206.43 37.39h-9.25l2.23-9.59h-10.27c-1.85 0-2.98.9-3.4 2.69-.47 2-.91 4.03-1.45 6.01-.11.39-.65.91-1 .92-2.68.09-5.35.05-8.22.05l1.4-5.8c.8-3.39 1.59-6.78 2.44-10.15.15-.58.48-1.23.93-1.57 5.31-4.15 7.94-9.67 8.36-16.36.03-.41.12-.82.2-1.22.04-.23.1-.44.16-.7h23.48c-1.44 6.07-2.86 12.06-4.33 18.18l2.83.2-4.1 17.33v.01Zm-.95-15.67 4.4-18.46h-17.14c-1.75 0-2.8.81-3.13 2.44l-.01.14c-.5 5.62-2.8 10.38-7.07 13.96-1.73 1.45-2.34 3.16-2.77 5.14-.15.7-.28 1.4-.45 2.1-.68 2.88-1.38 5.75-2.1 8.71h5.5c.65-2.76 1.36-5.49 1.92-8.25.26-1.25.77-1.8 2.07-1.63.94.11 1.9.02 2.87.02 3.55 0 7.1.02 10.64-.01 1.02-.01 1.5.12 1.13 1.36-.62 2.14-1.1 4.34-1.6 6.53-.15.64-.24 1.29-.37 2h5.67c1.1-4.68 2.2-9.3 3.3-14.03h-2.88l.02-.02Zm-38.98 5.96.98-4.38c-.1-.08-.2-.16-.28-.25-.48.57-.9 1.2-1.47 1.7a12.44 12.44 0 0 1-8.01 3.03c-4.59.1-9.19.02-13.79 0-.22 0-.43-.07-.8-.13l2.18-9.12c1.24-5.23 2.52-10.43 3.7-15.67.23-1.05.67-1.3 1.65-1.27 2.81.06 5.63.02 8.65.02l-1.9 8.15 1.5.1c1.54.12 3.1.07 4.61.37 2.65.55 4.77 1.92 5.9 5.04.78-3.3 1.47-6.17 2.17-9.05.3-1.24.55-2.5.89-3.73.09-.34.43-.84.66-.85 3.16-.06 6.33-.04 9.62-.04l-3.94 16.61c-.68 2.86-1.35 5.7-2.08 8.55-.1.34-.51.86-.78.86-3.1.06-6.18.04-9.45.04l-.01.01Zm-21.26-1.8c5.06 0 9.87.32 14.61-.1 3.62-.33 6.23-2.78 7.6-6.25.99-2.47.49-5.32-1.3-6.35a13.24 13.24 0 0 0-4.73-1.58c-1.92-.26-3.9-.06-6.05-.06l1.87-8.27c-2.15 0-4-.06-5.86.05-.38.02-.95.6-1.05 1.01-1.24 5-2.4 10.03-3.58 15.04l-1.51 6.5Zm30.03-.04 5.37-22.57c-1.99 0-3.8.04-5.62-.02-.78-.02-1.1.29-1.27 1.02-.57 2.53-1.2 5.06-1.8 7.6l-3.34 13.97h6.66Zm-20.88-27.65 1.36-6.43c-1.95 0-3.75-.03-5.53.04-.23 0-.56.54-.65.87-.37 1.47-.7 2.95-.97 4.45-.14.75-.43 1.12-1.26 1.1-1.17-.07-2.35-.02-3.65-.02.04-.47.03-.83.1-1.17 1.05-4.66 2.13-9.3 3.13-13.99.22-1.03.66-1.34 1.65-1.27 1.07.08 2.15.02 3.43.02l-1.45 6.64c1.93 0 3.7.04 5.45-.04.27-.01.65-.56.74-.91.4-1.51.75-3.04 1.04-4.57.17-.8.49-1.2 1.36-1.13.9.07 1.8.02 2.81.02-.02.41 0 .72-.06 1-1.05 4.75-2.13 9.5-3.16 14.25-.2.86-.53 1.25-1.46 1.17-.89-.08-1.79-.02-2.9-.02h.02Z" fill="#fff"/><path d="M165.57 175.97h12.06c-.23.97-.36 1.87-.68 2.68-.11.28-.71.49-1.1.5-1.63.05-3.27.02-4.9.02-1.98 0-2.03.05-2.06 2.32.97.06 1.97.08 2.94.2 2.73.34 4.15 1.57 4.49 3.84a5.8 5.8 0 0 1-4.95 6.58c-3.13.05-6.25.02-9.54.02l3.73-16.17v.01Zm1.36 13.42c1.66-.36 3.1-.5 4.38-1.01.5-.2.95-1.31.87-1.94-.07-.54-.86-1.23-1.45-1.39-.87-.22-1.84-.02-2.76.02-.06 0-.13.24-.16.36l-.88 3.95Zm9.54 2.82c.1-.58.22-1.06.27-1.56.1-.97.43-1.53 1.58-1.57 1.45-.06 2.24-1.13 2.58-2.48a235.6 235.6 0 0 0 2.17-9.38c.2-1 .53-1.37 1.56-1.35 3.19.06 6.36.02 9.55.03.4 0 .8.05 1.35.08l-1.52 6.65c-.65 2.87-1.33 5.72-1.93 8.6-.18.85-.55 1.14-1.38 1.1-.99-.07-1.98-.02-3.22-.02l2.83-12.63c-1.22 0-2.21-.09-3.18.05-.32.04-.73.6-.84 1-.54 2.09-.98 4.2-1.48 6.3-.99 4.09-4.06 6.02-8.36 5.18h.02Zm63.85-8.81c1.61 2.86 3.25 5.74 5.02 8.9-1.81 0-3.38.04-4.95-.04-.28 0-.65-.44-.8-.77-.56-1.2-1.1-2.42-1.55-3.66-.43-1.19-1.24-1.61-2.56-1.5-.38 1.64-.79 3.28-1.13 4.93-.15.73-.43 1.13-1.25 1.06-.98-.07-1.98-.02-3.17-.02.32-1.4.6-2.59.86-3.78.85-3.76 1.75-7.52 2.55-11.28.22-1.04.64-1.5 1.72-1.37.84.09 1.7.02 2.77.02l-1.28 5.92c.86-.41 1.57-.59 2.04-1.01.8-.74 1.52-1.59 2.14-2.5a5.21 5.21 0 0 1 4.76-2.41c.94.03 1.87 0 2.82 0l.24.4-8.24 7.08.01.03Zm-29.45 24.88c2.13 2.19 2.56 4.65 1.15 7.32-1.85 3.53-4.82 5.78-8.75 6-5.66.31-11.35.21-17.03.27-.08 0-.16-.08-.42-.21l1.08-4.57c1.6-6.73 3.23-13.46 4.8-20.2.2-.9.53-1.18 1.43-1.18 4.31.04 8.63-.09 12.95.05 2.8.08 5.4.98 7 3.55a6.23 6.23 0 0 1-1.2 8.11c-.3.28-.63.53-1.02.85v.01Zm-23.03 11.77c.28.13.36.2.44.2 5.08-.08 10.17.06 15.22-.33a7.99 7.99 0 0 0 7.35-5.85c.93-3.2.39-3.98-2.31-4.83-.8-.25-1.63-.45-2.75-.77 1.32-.45 2.36-.78 3.39-1.17a5.25 5.25 0 0 0 3.3-4.21c.31-1.74-.53-3.18-1.87-4.1-1.1-.74-2.48-1.47-3.76-1.52-4.53-.19-9.08-.07-13.61-.07l-5.42 22.66.02-.01Zm6.16-27.77 4.67-7.7 4.22-6.92a3.96 3.96 0 0 1 4.68-1.71c.23.08.49.42.52.68.66 5.14 1.3 10.28 1.97 15.65-1.01 0-1.91.11-2.78-.06-.32-.06-.73-.77-.74-1.18-.03-1.45-.68-1.95-2.04-1.75-.5.08-1.01.09-1.5 0-1.97-.32-3.42.25-4.14 2.28-.11.3-.57.67-.89.7-1.2.07-2.42.02-3.97.02Zm10.96-10.56-.31-.07-2.67 4.6h3.73l-.75-4.53Zm41.63 10.55 7.36-12.13c.38-.63.87-1.2 1.11-1.88.82-2.3 2.54-2.76 4.64-2.36.36.07.9.5.94.82.67 5 1.28 10.01 1.89 15.02.02.12-.06.26-.12.53-.8 0-1.64.13-2.39-.06-.38-.09-.85-.76-.88-1.2-.1-1.38-.68-1.96-2.05-1.73a4.5 4.5 0 0 1-1.37 0c-1.98-.3-3.55.12-4.28 2.27-.1.3-.57.66-.89.68-1.2.08-2.42.03-3.95.03l-.01.01Zm10.97-10.49-.34-.13-2.69 4.65h3.75l-.73-4.52Zm-144.26-19.16c.44-2.15.83-4.13 1.26-6.08.05-.2.37-.5.55-.5 2.15.04 4.3.08 6.46.23a2.22 2.22 0 0 1 2.15 2.22c0 1.27-.38 2.65-1.68 3.28a8.1 8.1 0 0 1-2.9.81c-1.84.12-3.7.04-5.85.04Zm36.37-8.08c.63-1.94 2.36-2.85 5.09-2.67 1.74.12 3.13 1.17 3.39 2.67h-8.48Zm106.98 61.18c1.41-2.07 2.98-3.91 4.03-6.03.9-1.85 1.29-3.99 1.76-6.03.17-.72.33-1.06 1.08-1.05 1.68.03 3.37 0 5.05.01.67 0 1.05.05.8 1.03-.93 3.61-1.72 7.26-2.54 10.9-.22.97-.7 1.38-1.78 1.34-2.4-.1-4.81-.02-7.23-.04-.41 0-.82-.1-1.16-.14h-.01Zm10.73-11.23c-.65 0-1.15.05-1.63 0-1.18-.16-1.66.22-2 1.5-.55 2.1-1.52 4.1-2.36 6.1-.25.6-.69 1.13-1.16 1.91 1.57 0 2.87.04 4.17-.03.3-.02.77-.36.84-.64.74-2.87 1.4-5.76 2.14-8.83v-.01Zm-46.21 11.37c.47-1.87.96-3.59 1.32-5.32.18-.88.64-1.12 1.42-1.02.6.08 1.23.17 1.84.27 2.24.35 2.62.69 2.59 2.33-.03 1.97-1.26 3.6-2.98 3.73-1.34.1-2.7.02-4.2.02l.01-.01Zm2.09-1.46c.95-.12 1.81-.02 2.4-.38.51-.31.8-1.1 1.06-1.76.07-.19-.2-.7-.45-.84-1.2-.65-2.35-.07-2.67 1.3l-.34 1.68Z" fill="#fff"/><path d="M197.61 209.94c1.59.15 3.07.19 4.51.45.68.12 1.74.6 1.8 1.03.13.96.03 2.22-.53 2.9a5.03 5.03 0 0 1-2.87 1.49c-1.4.24-2.88.06-4.4.06l1.47-5.91.02-.02Zm4.86 2.13c-3.15-.91-4.15-.37-4.03 2.1 2.6.44 3.8-.16 4.03-2.1Zm-4.15-5.19.98-4.63c1.47.12 3.03.21 4.57.38.9.1 1.57.67 1.53 1.6-.04 1-.36 2.08-1.55 2.23-1.77.23-3.57.28-5.52.42h-.01Zm5.33-2.24-.03-.64c-.95 0-1.9-.05-2.84.05-.16.02-.24.72-.38 1.21 1.3.02 2.41.3 3.25-.62Z" fill="#fff"/></svg>