<svg version="1.1" id="Слой_1" xmlns="http://www.w3.org/2000/svg" x="0" y="0" viewBox="0 0 1015.6 200" style="enable-background:new 0 0 1015.6 200" xml:space="preserve"><style>.st0{fill:#fff}</style><path class="st0" d="M98 0c-54 0-98 44.9-98 100s44 100 98 100 98-44.9 98-100c.1-55.1-44-100-98-100zm0 178.8-85.1-104.8h32.8l.5.1.5.1.5.1.5.1.5.2.5.2.5.2.5.2.5.3.5.3.5.3.5.3.5.4.5.4.4.4.2.1v-29h38.6l1.1.3.4.1.4.1.4.1.4.1.4.1.4.1.4.2.4.2.4.2.4.2.4.2.4.2.2.1.2-.2.4-.2.4-.2.4-.2.4-.2.4-.2.4-.2.4-.1.4-.1.4-.1.4-.1.5-.1.5-.1.5-.1h39.3v29l.1-.1.4-.4.5-.4.5-.4.5-.3.5-.3.5-.3.5-.3.5-.2.5-.2.5-.2.5-.2.5-.1.5-.1.5-.1.5-.1h32.9l-85.4 104.7z"/><path class="st0" d="M85.1 70.6h-17.9v-7.6h26.2v56.8h-5.7l10.3 12.9 10.2-12.8h-5.7v-56.8h8.7v53.1l9.1-11.4v-24.8h8.4v14.3l9.3-11.3v-29.2h-9.1v16.9h-8.4v-16.9h-16.7l-.3.1-.3.1-.3.1-.3.1-.3.1-.3.1-.3.1-.3.1-.3.1-.3.1-.2.1-.2.1-.2.2-.2.2-.2.2-.2.2-.2.2-.2.2-.2.2-.2.2-.2.2-.1.2-.2.2-.2.2-.1.2v-.1l-.2-.2-.2-.3-.2-.2-.2-.2-.2-.2-.2-.2-.1-.2-.2-.2-.2-.2-.3-.1-.2-.2-.2-.2-.3-.1-.2-.1-.2-.1-.3-.1-.3-.1-.3-.1-.3-.1-.3-.1-.3-.1-.1-.2h-.3l-.3-.1h-1.1v-.1h-33.2v29l27 33.6v-45.8zm-9.2 19.8-8.2-10.4h8.3v10.4z"/><path class="st0" d="M155.8 79h-1c-4.5 0-6.3-.7-10.6 4.7-.3.3-.5.6-.8.9l-45.4 56.6-45.4-56.6c-.3-.3-.5-.6-.8-.9-4.3-5.3-6-4.7-10.6-4.7h-17.8l74.6 91.9 74.7-91.9h-16.9z"/><path d="M266.7 133.9h19.2l.1-.1h3.2l1.1-.8 1-.9.9-1 .9-1 .8-1.1.7-1.2.6-1.2.6-1.3.5-1.3.4-1.4.3-1.4.3-1.5.2-1.5.1-1.6v-5.7.1-1.1.1-1.2.2-1.2.2-1.6.6-1.5.5-1.7.7-1.7.7-1.7.7-.8l-.5-1.1-.5-1.1-.6-1-.6-1v-.2h-.1l-1-.7-1.1-.7-1.1-.7h-.3l-.1-.1h-.1l-.1-.1h-.1l-.1-.1h-.1l-.1-.1h-.1l-.1-.1h-.1l-.1-.1h-6.7l-.1-.1h-.1l-.1-.1h-.1l-.1-.1h-.1l-.1-.1h-.1l-.1-.1h-.1l-.1-.1h-.1l-.1-.1h-.1l-.1-.1h-.1l-.1-.1h.7l-.1-.1h-1.6.7-1.7.7-1.9.9-1.7.7-1.7.7-1.3.3-1.3.3-1.3.3-1.6.6-21.8v-8.4h39.1v-18.5l-55.4.1v67.5h32l-1.2-.9zm-1.4-14.4h-14.3v-16.3h15.9l1.4.1h3.2l1.1.2 1 .3.9.4.8.4.7.5.6.5.5.6.4.6.3.7.3.8.2.9.1 1v2.3l-.1 1.1-.2.9-.3.8-.4.7-.2.3-.2.3-.5.5-.6.5-.7.4-.8.4-.9.3-1.1.3h-4 .6-1.2.2-1.2.2-2l.3.5zm51.8-51-1.5.6-1.4.6-1.3.7-1.3.8-1.2.9-1.2.9-1.1 1-1 1.1-1 1.1-.9 1.2-.8 1.3-.8 1.3-.7 1.4-.6 1.5-.6 1.5-.5 1.6-.4 1.7-.4 1.7-.3 1.8-.3 1.9-.2 2-.1 2-.1 2.1v4.3l.1 2.1.2 2.1.3 2 .4 1.9.4 1.8.5 1.8.6 1.7.7 1.6.8 1.6.9 1.5.9 1.4 1 1.3 1.1 1.2 1.2 1.2 1.3 1.1 1.2.9 1.2.8 1.2.7 1.2.7h.2l.1.1h.1l.1.1h.1l.1.1h.1l.1.1h.1l.1.1h.1l.1.1h.1l.1.1h.1l.1.1h.1l.1.1h.1l.1.1h.1l.1.1h.1l.1.1h.1l.1.1h.1l.1.1h.1l.1.1h.1l.1.1h42.8v-14.1h-24.6l-1.8-.1-.8-.1-.8-.1-.7-.1-.7-.2-.7-.2-.6-.2-.6-.2-.6-.3-.5-.3-.5-.3-.5-.3-.4-.4-.4-.4-.4-.4-.4-.4-.3-.5-.3-.5-.3-.6-.3-.6-.2-.6-.2-.7-.2-.7-.2-.8-.1-.8-.1-.9v-.9 1.2-1.7h37.6v-14h-44.1l.1-1.1.1-.8.2-.8.2-.7.2-.7.2-.7.3-.6.3-.6.3-.6.3-.5.3-.5.4-.5.4-.4.4-.4.4-.4.5-.4.5-.3.5-.3.5-.3.5-.3.6-.2.6-.2.6-.2.7-.2.7-.1.7-.1.8-.1 1.6-.1h24.5v-14.3h-25.8l-1.9.1-1.8.2-1.8.2-1.7.3-1.7.4-1.6.4-1.5.5.5.5zm72.2-2.1h-2.4.1-3.1.1-1.3.3-1.4l-1.4.3h-.8.6-1.7.7-.5l-1.3.5-1.3.6-1.3.7-1.2.8-1.2.9-1.2 1-1.1 1.2-.9 1-.8 1.1-.7 1.1-.7 1.1-.6 1.2-.5 1.2v.1l-.1.1v3.4-.7 1.7-.7 1.7-.7 1.7-.7 1.6-.6 1.4-.4 46h12.3l.5-.1h2.9l.1-.1.1-.1v-.1l.1-.1.1-.1v-.9l.1-.1.2-.4.1-.1v-.1l.1-.1v-1.2.5-42.8l.1-.2v-1.3.3-1.1.1-.2l.1-.1.1-.1.1-.1.1-.1.1-.1.1-.1.1-.1.1-.1.1-.1.1-.1.1-.1.1-.1.1-.1.1-.1.1-.1.1-.1.1-.1.1-.1.1-.1.1-.1.1-.1.1-.1.1-.1.1-.1.1-.1.1-.1.1-.1.1-.1.1-.1.1-.1.1-.1h1.4l.8-.1h12.4v51.4h16.1v-67.4h-27.2 2.1-2.4l.7.8zm35.8 36.7.1 1.9.2 1.8.3 1.8.3 1.7.4 1.7.4 1.6.5 1.5.5 1.5.6 1.4.7 1.4.7 1.3.8 1.3.9 1.2.9 1.2 1 1.1 1 1 1.1 1 1.2.9 1.2.8 1.3.8 1.3.7 1.4.7 1.5.6 1.5.5 1.6.5 1.6.4 1.7.4 1.8.3 1.8.2h19.2l1.8-.2 1.7-.3 1.7-.4 1.6-.4 1.6-.5 1.5-.5 1.5-.6 1.4-.7 1.3-.7 1.3-.8 1.2-.8 1.2-.9 1.1-.9 1-1 1-1.1.9-1.1.9-1.2.8-1.2.7-1.3.7-1.4.6-1.4.5-1.5.5-1.5.4-1.6.4-1.6.3-1.7.3-1.7.2-1.8.1-1.8.1-1.9v-3.8l-.1-1.9-.1-1.8-.2-1.8-.3-1.7-.3-1.7-.4-1.7-.4-1.6-.5-1.5-.5-1.5-.6-1.5-.7-1.4-.7-1.3-.8-1.3-.9-1.2-.9-1.2-1-1.1-1-1-1.1-1-1.2-.9-1.2-.8-1.3-.8-1.3-.7-1.4-.6-1.5-.6-1.5-.5-1.6-.4-1.7-.3-1.7-.3-1.8-.2-1.8-.1h-17.9l-1.8.1-1.7.2-1.7.3-1.6.3-1.6.4-1.5.5-1.5.6-1.4.6-1.3.7-1.3.8-1.2.8-1.2.9-1.1 1-1.1 1-1 1.1-.9 1.2-.9 1.2-.8 1.3-.7 1.3-.7 1.4-.6 1.4-.6 1.5-.5 1.5-.4 1.6-.4 1.6-.3 1.7-.3 1.7-.2 1.7-.1 1.8-.1 1.8v3.9l.1 1.9-1-.3zm44.4 17.4h-12.7l-.8-.2-2-.3-.8-.3-.8-.3-.7-.4-.7-.4-.7-.4-.7-.4-.6-.4-.6-.5-.6-.5-.5-.5-.5-.5-.5-.6-.5-.6-.4-.6-.4-.7-.4-.7-.3-.7-.3-.7-.3-.8-.3-.8-.2-.8-.2-.9-.2-.9-.2-.9-.1-1-.1-1-.1-1-.1-2.2v-2.2l.1-2 .1-1 .1-.9.1-.9.2-.9.2-.9.2-.8.3-.8.3-.8.3-.7.3-.7.3-.7.4-.7.4-.6.4-.6.5-.6.5-.5.5-.5.5-.5.6-.5.6-.4.6-.4.6-.4.7-.4.7-.3.7-.3.8-.3h1.1l.1-.1h.1l.1-.1h.1l.1-.1h.1l.1-.1h.1l.1-.1h14.1l.9.2.8.2.8.3.8.3.7.3.7.3.7.4.6.4.6.4.6.4.6.5.5.5.5.5.5.6.5.6.4.6.4.7.4.7.3.7.3.7.3.8.3.8.3.8.2.9.2.9.2.9.1.9.1 1 .1 1 .1 2.1v3.3l-.1 1-.1 1-.1 1-.1.9-.2.9-.2.9-.2.8-.3.8-.3.8-.3.7-.3.7-.3.7-.4.7-.4.6-.4.6-.5.6-.5.6-.5.5-.5.5-.6.5-.6.5-.6.4-.7.4-.7.4-.7.4-.7.4-.8.3-.8.3-.8.3-.8.2.2-.3zm36.1-54.1v67.5h16.3v-22.6h37.6l.1-.1h.3l.1-.1h.1l1.1-.6 1.1-.7 1.1-.7 1-.7h.2l.8-.9.8-.9.7-1 .6-1 .6-1.1v-.2l.1-.1v-.1l.1-.1v-.1l.1-.1v-.1l.1-.1v-2.6l.1-.1v-.1l.1-.1v-1.4.7-1.7.7-1.7.7-1.7.7-1.7.7-1.6.6-1.4.4-1.2.2-1.2.2-1.3.3-1.4l-.1-1.5-.1-1.5-.2-1.5-.3-1.4-.4-1.4-.5-1.3-.5-1.3-.6-1.2-.7-1.2-.7-1.1-.8-1-.9-1-1-.9-1-.9-1.1-.8-1-.6h-8.5.7-1.3.3-1.3.3-1.3.3-4.1 1.1-2.2.2-37.4v-3.6zm30.7 14.4h3.1l1.4.1h3.2l1.1.3.9.3.8.4.7.4.6.5.5.5.4.6.3.7.3.8.2.9.1 1.1v2.3l-.1 1-.2.9-.3.8-.3.7-.4.6-.5.6-.6.5-.7.5-.8.4-.9.4-1 .3-1.1.2-1.2.2h-4.4.6-16v-16.3h14.3v.3zm26-14.4 26.3 40.1-13.5 27.3h18l35.5-67.5h-18.8l-13.1 25.8-15.7-25.7h-18.7zm92.5 13.9h23.6v-13.9h-25.8l-1.9.1-1.8.1-1.8.2-1.7.2-1.6.3-1.6.4-1.5.4-1.5.5-1.4.6-1.3.6-1.3.7-1.2.8-1.1.8-1.1.9-1 1-1 1.1-.9 1.1-.8 1.2-.8 1.3-.7 1.4-.6 1.4-.6 1.5-.5 1.6-.4 1.6-.5 1.8-.3 1.8-.3 1.9-.2 1.9-.1 2-.1 2.1v4.2l.1 2 .1 1.9.2 1.8.2 1.8.3 1.7.3 1.7.4 1.6.5 1.5.5 1.5.6 1.4.6 1.4.7 1.3.8 1.3.8 1.2.9 1.1 1 1.1 1.1 1 1.1.9 1.2.9 1.3.8 1.3.7 1.4.7 1.5.6 1.5.5 1.6.4 1.7.4 1.7.3 1.8.2 1.9.2 2 .1h26.3v-14.1h-24.6l-.9-.1-.9-.1-.9-.1-.8-.1-.8-.2-.7-.2-.7-.3-.6-.3-.6-.3-.6-.4-.5-.4-.5-.4-.5-.4-.4-.5-.4-.5-.4-.6-.4-.6-.3-.7-.3-.7-.3-.8-.3-.8-.2-.9-.2-.9-.2-.9-.2-1-.1-1.1-.1-1.1-.1-2.4-.1-2.6.1-2.8.1-2.6.1-1.2.1-1.1.2-1.1.2-1 .2-1 .2-.9.3-.9.3-.8.3-.7.3-.7.4-.6.4-.6.4-.5.4-.5.5-.4.5-.4.5-.4.6-.4.6-.3.6-.3.7-.2.7-.2.8-.2.8-.1.9-.1.9-.1.9-.1h1zm46.7-13.9h-16.3v67.5h16.3v-27h22.1v27h16.3v-67.5h-16.3v26.2h-22.1v-26.2zm56.5 4.8-1.2.9-1.2.9-1.1 1-1 1.1-1 1.1-.9 1.2-.8 1.3-.8 1.3-.7 1.4-.6 1.5-.6 1.5-.5 1.6-.4 1.7-.4 1.7-.3 1.8-.3 1.9-.2 2-.1 2-.1 2.1v4.3l.1 2.1.2 2.1.3 2 .4 1.9.4 1.8.5 1.8.6 1.7.7 1.6.8 1.6.9 1.5.9 1.4 1 1.3 1.1 1.2 1.2 1.2 1.3 1.1 1.2.9 1.2.8 1.2.7 1.2.7h.2l.1.1h.1l.1.1h.1l.1.1h.1l.1.1h.1l.1.1h.1l.1.1h.1l.1.1h.1l.1.1h.1l.1.1h.1l.1.1h.1l.1.1h.1l.1.1h.1l.1.1h.1l.1.1h.1l.1.1h.1l.1.1h42.8v-14.1h-24.6l-1.8-.1-.8-.1-.8-.1-.7-.1-.7-.2-.7-.2-.6-.2-.6-.2-.6-.3-.5-.3-.5-.3-.5-.3-.4-.4-.4-.4-6.9.8-.4-.4-.3-.5-.3-.5-.3-.6-.3-.6-.2-.6-.2-.7-.2-.7-.2-.8-.1-.8-.1-.9v-2.6h37.6v-14h-37.4l.1-1.1.1-.8.2-.8.2-.7.2-.7.2-.7.3-.6.3-.6.3-.6.3-.5.3-.5.4-.5.4-.4.4-.4.4-.4.5-.4.5-.3.5-.3.5-.3.5-.3.6-.2.6-.2.6-.2.7-.2.7-.1.7-.1.8-.1 1.6-.1h24.5v-14.2h-25.8l-1.9.1-1.8.2-1.8.2-1.7.3-1.7.4-1.6.4-1.5.5-1.5.6-1.4.6-1.3.7-1.3.8.3.4zm84.3 48.7h-4.6l-1.7-.1-.8-.1-.7-.1-.7-.2-.7-.2-.6-.2-.6-.2-.6-.3-.5-.3-.5-.3-.5-.3-.4-.4-.4-.4-.4-.4-.4-.4-.3-.5-.3-.5-.3-.6-.3-.6-.2-.6-.2-.7-.2-.7-.2-.8-.1-.8-.1-.9-.1-.9-.1-1.9v-1l.1-11.2.1-1.7.1-.8.1-.8.2-.8.2-.7.2-.7.2-.7.3-.6.3-.6.3-.6.3-.5.3-.5.4-.5.4-.4.4-.4.4-.4.5-.4.5-.3.5-.3.5-.3.5-.3.6-.2.6-.2.6-.2.7-.2.7-.1.7-.1.8-.1 1.6-.1h3.8v39.2l-.4-.1zm22-39.2.8.1.7.1.7.1.7.2.6.2.6.2.6.2.5.3.5.3.5.3.5.3.5.4.4.4.4.4.4.4.4.5.3.5.3.5.3.6.3.6.3.6.2.7.2.7.2.7.2.8.1.8.2 1.7.1.9.1 11.2-.1 2-.1.9-.1.9-.1.9-.1.8-.2.8-.2.7-.2.7-.2.6-.3.6-.3.6-.3.5-.3.5-.4.4-.4.4-.4.4-.4.4-.5.3-.5.3-.5.3-.6.3-.6.2-.6.2-.7.2-.7.2-.7.1-.8.1-1.7.1h-5.4v-39.2h3.8l2 .1zm-41.7-10.8-1.3.7-1.3.8-1.2.9-1.1.9-1.1 1-1 1.1-1 1.1-.9 1.2-.8 1.3-.8 1.3-.7 1.4-.6 1.5-.6 1.5-.5 1.6-.5 1.7-.4 1.7-.3 1.8-.3 1.9-.2 2-.1 2-.1 2.1v4.3l.1 2.1.2 2.1.3 2 .4 1.9.4 1.8.5 1.8.6 1.7.7 1.6.8 1.6.9 1.5.9 1.4 1 1.3 1.1 1.2 1.2 1.2 1.3 1.1 1.2.9 1.2.8 1.2.7 1.2.7h.2l.1.1h.1l.1.1h.1l.1.1h.1l.1.1h.1l.1.1h.1l.1.1h.1l.1.1h.1l.1.1h.1l.1.1h.1l.1.1h.1l.1.1h.1l.1.1h.1l.1.1h.1l.1.1h.1l.1.1h.1l.1.1h21.9v2.5h9.8v-2.5h22.2l.1-.1h.1l1.2-.6 1.2-.6 1.2-.7 1.2-.8 1.2-.9 1.3-1.1 1.2-1.2 1.1-1.2 1-1.3.9-1.4.9-1.5.8-1.6.7-1.6.6-1.7.5-1.8.4-1.8.4-1.9.3-2 .2-2.1.1-2.1v-4.3l-.1-2.1-.1-2-.2-2-.3-1.9-.3-1.8-.4-1.7-.4-1.7-.5-1.6-.6-1.5-.6-1.5-.7-1.4-.8-1.3-.8-1.3-.9-1.2-1-1.1-1-1.1-1.1-1-1.2-.9-1.2-.9-1.3-.8-1.3-.7-1.4-.6-1.5-.6-1.5-.5-1.6-.4-1.7-.4-1.7-.3-1.8-.2-1.8-.2-1.9-.1h-5.2v-2.9h-16.3v2.9h-9.6l-1.9.1-1.8.2-1.8.2-1.7.3-1.6.4-1.6.4-1.5.5-1.5.6-1.4.6 1.4-1zm92.3 10.7v53.3h16.7v-53.3h20.9v-14.1h-58.5v14.1h20.9zm72.9 53.3h20.5l.9-.4h.1v-.3l.1-.1 1.1-.8 1.1-.8 1-.9.9-.9.9-1 .8-1.1.7-1.1.6-1.2.6-1.2.5-1.3.4-1.3.3-1.4.3-1.4.2-1.5.1-1.5v-3.9.2-2.2.2-1.2.2-1.4.4-1.6.6-1.6.6-1.7.7-1.7.7-1.5l-.4-1.2v-.1l-.1-.1v-.3l-.1-.1v-.1l-.1-.1v-.1l-.1-.1v-.1l-.1-.1v-.1l-.1-.1v-.1l-.1-.1v1.3l-.1-.1v-.1l-.1-.1v-.1l-.1-.1v-.1l-.1-.1v-.1l-.1-.1v-.1l-.1-.1v-.1l-.1-.1v-.1l-.1-.1-.6-1.1-.7-1-.7-.9-.8-.9-.9-.9-.9-.8-1-.7-1.1-.7-1.1-.6-1.1-.6h-.1l-.1-.1h-.1l-.1-.1h-12 1.3-1.6.6-1.5.5-21.9v-23.8h-16.3v67.5h32.2l-1.2-.9zm-1.5-14.3h-14.3v-16.3h15.9l1.4.1h3.2l1.1.2 1 .3.9.4.8.4.7.5.6.5.5.6.4.6.3.7.3.8.2.9.1 1v2.3l-.1 1.1-.2.9-.3.8-.3.7-.4.6-.5.5-.6.5-.7.4-.8.4-.9.3-1.1.3-1.2.2h-3.9.6-1.2.2-1.2.2-.8l.1.3z" style="fill-rule:evenodd;clip-rule:evenodd;fill:#fff"/></svg>