<svg viewBox="0 0 258 268" fill="none" xmlns="http://www.w3.org/2000/svg"><g clip-path="url(#a)" fill="#fff"><path d="M219.07 76.73h-27.85a4.48 4.48 0 0 1-4.58-4.38v-25.64c0-4.47-3.8-8.12-8.5-8.12h-26.23a4.48 4.48 0 0 1-4.58-4.37v-26.1c0-4.47-3.8-8.12-8.5-8.12h-22.43c-4.68 0-8.5 3.63-8.5 8.12v26.12a4.48 4.48 0 0 1-4.58 4.37h-27.45c-4.68 0-8.5 3.63-8.5 8.12v25.64a4.48 4.48 0 0 1-4.58 4.38h-26.85c-4.68 0-8.5 3.63-8.5 8.12v21.42c0 4.47 3.8 8.12 8.5 8.12h26.85a4.48 4.48 0 0 1 4.58 4.37v25.64c0 4.47 3.8 8.12 8.5 8.12h27.45a4.48 4.48 0 0 1 4.58 4.38v26.12c0 4.47 3.8 8.12 8.5 8.12h22.43c4.68 0 8.5-3.63 8.5-8.12v-26.12a4.48 4.48 0 0 1 4.58-4.38h26.23c4.68 0 8.5-3.63 8.5-8.12v-25.64a4.48 4.48 0 0 1 4.58-4.37h27.85c4.68 0 8.5-3.63 8.5-8.12v-21.42c0-4.47-3.8-8.12-8.5-8.12v-.02Z" fill-opacity=".8"/><path d="M179.24 76.52h-26.45a4.54 4.54 0 0 1-4.64-4.43v-25.93c0-4.53-3.84-8.2-8.58-8.2h-22.69c-4.74 0-8.58 3.67-8.58 8.2v25.93a4.54 4.54 0 0 1-4.64 4.43h-27.83c-4.74 0-8.58 3.67-8.58 8.2v21.66c0 4.53 3.84 8.2 8.58 8.2h27.83a4.54 4.54 0 0 1 4.64 4.43v25.93c0 4.53 3.84 8.2 8.58 8.2h22.69c4.74 0 8.58-3.67 8.58-8.2v-25.93a4.54 4.54 0 0 1 4.64-4.43h26.45c4.74 0 8.58-3.67 8.58-8.2v-21.66c0-4.53-3.84-8.2-8.58-8.2Zm-165.24 179.41h-2.78c-7.48 0-11.16-3.98-11.16-11.24v-15.19c0-7.28 3.68-11.23 11.16-11.23h2.78v-2.68h7.34v2.68h2.78c7.48 0 11.16 3.95 11.16 11.23v15.2c0 7.27-3.68 11.23-11.16 11.23h-2.78v5.13h-7.34v-5.13Zm0-31.38h-2.78c-2.38 0-3.74 1.24-3.74 4.5v16.1c0 3.25 1.36 4.55 3.74 4.55h2.78v-25.15Zm7.34 0v25.15h2.78c2.38 0 3.74-1.3 3.74-4.55v-16.1c0-3.26-1.36-4.5-3.74-4.5h-2.78Zm44.17 37.35h-7.56l-1.3-8.25h-9.18l-1.3 8.25h-6.89l7.63-45.49h10.96l7.62 45.5h.02Zm-17.08-14.42h7.22l-3.6-23-3.6 23h-.02Zm44.37-19.83v5.9c0 7.28-3.68 16.1-11.17 16.1h-3.54v12.22h-7.48v-45.5h11.02c7.49 0 11.17 3.98 11.17 11.24v.04Zm-14.7-4.74v20.27h3.53c3.69 0 3.69-5.9 3.69-9.15v-6.82c0-3.25-1.3-4.3-3.69-4.3h-3.54Zm36.34 25.79 5.1-32.29h10.4v45.5h-7.08v-32.62l-5.16 32.61h-7.08l-5.58-32.17v32.17h-6.54v-45.49h10.4l5.5 32.3h.04Zm48.17 13.2h-7.56l-1.3-8.25h-9.18l-1.3 8.25h-6.88l7.62-45.49h10.96l7.62 45.5h.02Zm-17.08-14.42h7.22l-3.6-23-3.6 23h-.02Zm24.22-31.07h7.49v39h8.5v-39h7.62v39.13h3.26v12.48h-7.28v-6.12h-19.6v-45.49h.01Zm41.75 45.69h-7.68v-45.5h6.67v28.8l2.72-10.01 6.12-18.78h8.24v45.49h-6.74v-32.05l-3.06 11.18-6.27 20.87Zm22.29-.2c.74-1.68.82-3.3.82-5.52l.06-4.09c0-4.73 1.16-8.84 4.9-10.33-3.34-1.5-4.9-6.82-4.9-11.5v-3.58c0-7 3.34-10.47 11.08-10.47h11.3v45.5h-7.48v-16.25h-2.58c-3.4 0-4.84 2.22-4.84 6.44l-.06 4.23c0 3.7-.28 4.41-.68 5.57h-7.62Zm12.18-38.99c-2.66 0-3.82 1.43-3.82 4.68v4.5c0 3.62 1.7 7.08 4.5 7.08h2.92v-16.24h-3.6v-.02Z"/></g><defs><clipPath id="a"><path fill="#fff" transform="translate(.056)" d="M0 0h257v268h-257z"/></clipPath></defs></svg>