<svg version="1.1" id="Слой_1" xmlns="http://www.w3.org/2000/svg" x="0" y="0" viewBox="0 0 583.2 200" style="enable-background:new 0 0 583.2 200" xml:space="preserve"><style>.st0{fill:#fff}</style><path class="st0" d="M57.2 0h111.3c1.8 0 2.8.5 3.8 2.1 7.4 12.9 14.9 25.7 22.3 38.5 11.2 19.5 22.3 38.9 33.4 58.4.4.7.3 2.1-.1 2.9-3.9 7-8 13.9-12 20.9-11.2 19.5-22.5 39-33.7 58.6-3.3 5.7-6.6 11.4-9.9 17.2-.7 1.3-1.8 1.4-3.1 1.4h-54.8c-18.3 0-36.5 0-54.8.1-2 0-3.1-.6-4.1-2.4-6.4-11.2-13-22.3-19.4-33.5-8.9-15.4-17.7-30.9-26.6-46.3l-9.3-16.2c-.3-.6-.4-1.7 0-2.3 9.8-17.1 19.5-34 29.3-50.9 8.8-15.3 17.7-30.7 26.5-46 .4-.8.8-1.6 1.2-2.5zm57.7 184.4h46.2c1.4 0 2.3-.3 3.1-1.7 6.3-11.1 12.7-22.1 19.1-33.1 8.4-14.5 16.7-29 25.2-43.4 2-3.3 3.3-6.2.2-9.5-.5-.5-.7-1.2-1.1-1.8-9.4-16.4-18.8-32.7-28.1-49.1l-15-26.1c-.9-1.6-2.1-2.3-4.1-2.3-30.6.1-61.2.1-91.7 0-1.3 0-1.9.6-2.5 1.6-8.3 14.5-16.7 29-25.1 43.4-7.1 12.2-14.3 24.4-21.4 36.6-.7 1.3-.8 2.3 0 3.6 8.1 14 16.1 28 24.1 42 7.3 12.7 14.7 25.5 22 38.2.7 1.3 1.5 1.6 2.9 1.6h46.2z"/><path class="st0" d="M109.4 44.5c.2-2 .3-3.9.5-5.6 3.2-.2 6.2-.5 9.5-.7.1 1.2.3 2.4.2 3.7-.1 1.5.4 2.1 2 2.4 7.2 1.2 14.3 3 21.1 5.9 17.2 7.3 28.3 19.9 32.7 38.2.5 2 1.2 3.2 3.5 3.1.3 0 .7.1 1.7.4-1.1 4.4-1.9 8.8-3.3 13.1-1.9 6.2-5.3 11.6-9.4 16.6-1.1 1.3-1.8 2.5-1.6 4.2.1.7 0 1.4 0 2.2 0 5.7 0 5.8-4.7 8.9-2.6 1.7-5.3 3.4-8.1 4.9-2.7 1.4-5.6 2.5-8.9 3.9 1.8 2.7 3.6 5.4 5.7 8.4-.8.1-1.3.3-1.8.3h-66.5c-2.7 0-3.3-1-2.1-3.4.9-2 2.1-3.8 3.2-5.7-4.1-2.2-7.9-4.1-11.6-6.3-2.9-1.7-5.6-3.7-8.3-5.7a2.7 2.7 0 0 1-1-2.2c.6-3.9-.3-7.4-2.2-10.8-1.2-2.1-2.4-4.1-3.8-6-4.2-6-6.1-12.8-7.3-19.8-.2-1.2 0-1.9 1.3-2.1 2-.4 2.9-1.6 3.5-3.7 4.3-15.9 13.1-28.1 27.2-36.1 7.8-4.4 16.3-6.8 25.1-7.7 1.1-.1 2.1-.3 3.4-.4zm.1 64.8v-46.6c0-2.2-.1-4.5 0-6.7.1-2.1-1-2.7-2.8-2.4-2.1.3-4.2.7-6.3 1.2-12.2 2.8-22.8 8.5-30.8 18.2-3.9 4.7-6.2 10.1-7.3 16.1-.2 1-.4 2.5 1.3 2.3 1.9-.3 2.2.8 2.4 2.2.6 3.8 1.5 7.5 3.2 11 2.8 5.6 6.3 10.5 11.8 13.8 1.3.8 2.5 1.8 3.8 2.8-.4.6-.6.9-.8 1.3-1 1.7-2 2.6-4 .9-2.1-1.9-4.7-3.3-6.6-5.3-2.4-2.5-4.5-5.2-6.6-8-3.2-4.3-4.6-9.5-5.5-14.7-.5-3.1-.4-3.3-3.6-3.4h-1.5c-1.4.1-2.1.8-1.7 2.3.9 3.5 1.5 7.2 2.8 10.6 3.8 9.8 10.9 16.9 19.1 23.2 1.8 1.4 1.7 2.6-.4 3.5-1.3.6-2.7.9-4.4 1.5 7 4.5 14.3 7.6 22.1 8.7 7.8 1.1 15.7 1.2 23.8 1.8v5.4h22.6c-.8-1.4-1.2-2.5-1.9-3.5-6.9-9.2-14-18.2-20.9-27.4-1.6-2.1-3.4-2.9-5.9-3.2-9.2-.9-17-4.4-22.5-12.3-2.2-3.2-3.7-6.7-3.4-10.7 3.9-.6 3.9-.6 5 2.8 2.1 7.8 9.5 13.8 19 14.6zm34.5 11.6c.7-.5 1.3-.9 1.8-1.3 9.5-6.5 16.1-14.9 17.1-26.8.1-.6 1.1-1.6 1.7-1.6 2.1.1 2.2-1 2-2.6a28 28 0 0 0-4.3-11.9c-7.4-11.4-18.1-18.1-30.9-21.9-3.8-1.1-7.7-1.4-11.6-.9v55.2c10.4-2 17.6-7.7 18.9-15.9.1-.7.7-1.9 1.1-2 1.2-.2 2.6-.1 3.7.3.3.1.2 1.9 0 2.8-1.9 8.5-7.3 13.9-15 17.3-2.5 1.1-5 2-7.5 3 .2.4.3.7.5.9 6 7.9 12.1 15.9 18.2 23.8.4.6 1.7.9 2.4.8 6-1.4 11.6-3.7 16.3-7.9.9-.8 1.5-1.9 2.3-2.8-.2-.2-.3-.4-.5-.5-.8.5-1.7.9-2.5 1.4-3.7 2.8-3.7 2.8-6.7-.6-.1-.1-.2-.4-.3-.7 13.9-8.4 22.6-20.3 24.3-36.8h-6.6c-.5 2.7-.9 5.3-1.6 7.8-2.7 10-9.2 17.4-17.4 23.3-1.7 1.3-2.8 1-4-.4-.5-.5-.8-1.1-1.4-2z"/><path class="st0" d="M91.9 113.6c-.8 1-1.3 2-2.2 2.6-.6.4-1.9.6-2.4.2-8.1-5.4-13.3-12.6-14.3-22.4-.1-.9-.7-2.5 1.1-2.5 1.5 0 3.3-.9 4.1 1.5.9 2.7 2.1 5.4 3.1 8 1.6 4.2 4.1 7.7 7.8 10.3.8.7 1.7 1.4 2.8 2.3zm63.6-22c.3 9.6-6.4 20.4-15.4 25.6-2.5-2.5-2.5-4 .1-6.2 4.9-4.1 8.8-8.9 9.8-15.4 0-.1.1-.3.1-.4.8-4.2.8-4.2 5.4-3.6zm111.6-87.7c2.1.1 4 .5 5.7 1.2 1.7.7 3.2 1.7 4.5 2.9 1.2 1.2 2.2 2.6 2.9 4.2.7 1.6 1.1 3.3 1.1 5.1 0 1.8-.4 3.5-1.1 5.1-.7 1.6-1.7 3-2.9 4.2-1.2 1.2-2.7 2.2-4.5 2.9a17 17 0 0 1-5.7 1.2v3.9h-5.8v-3.9c-2-.1-3.9-.5-5.7-1.2-1.7-.7-3.2-1.7-4.5-2.9-1.3-1.2-2.2-2.6-2.9-4.2-.7-1.6-1.1-3.3-1.1-5.1 0-1.8.4-3.5 1.1-5.1.7-1.6 1.7-3 2.9-4.2 1.3-1.2 2.7-2.2 4.5-2.9a17 17 0 0 1 5.7-1.2v-3.9h5.8v3.9zm-5.9 4.7c-1.2 0-2.3.3-3.2.7-1 .5-1.8 1.1-2.5 1.9a9.19 9.19 0 0 0-2.2 6 9.19 9.19 0 0 0 2.2 6c.7.8 1.5 1.4 2.5 1.8 1 .5 2.1.7 3.2.7v-17.1zm5.9 17.2c1.2 0 2.3-.3 3.2-.7s1.8-1.1 2.5-1.8a9.19 9.19 0 0 0 2.2-6 9.19 9.19 0 0 0-2.2-6c-.7-.8-1.5-1.4-2.5-1.9s-2.1-.7-3.2-.7v17.1zm50.8-7.8c0 2.4-.4 4.7-1.2 6.8a15.05 15.05 0 0 1-8.7 8.9c-2.1.9-4.4 1.3-6.9 1.3s-4.8-.4-6.9-1.3a15.05 15.05 0 0 1-8.7-8.9c-.8-2.1-1.2-4.3-1.2-6.8s.4-4.7 1.2-6.8c.8-2.1 2-3.9 3.4-5.4 1.5-1.5 3.2-2.7 5.3-3.5a18.84 18.84 0 0 1 11.6-.7c1.5.4 2.8.9 4.1 1.7 1.2.7 2.3 1.6 3.3 2.6s1.8 2.1 2.5 3.4a18.4 18.4 0 0 1 2.2 8.7zm-6.3 0c0-1.8-.2-3.5-.7-4.9s-1.2-2.7-2.1-3.7c-.9-1-2-1.8-3.3-2.3-1.3-.5-2.7-.8-4.4-.8-1.6 0-3.1.3-4.4.8-1.3.5-2.4 1.3-3.3 2.3-.9 1-1.6 2.2-2.1 3.7s-.7 3.1-.7 4.9c0 1.8.2 3.5.7 4.9s1.2 2.7 2.1 3.7c.9 1 2 1.8 3.3 2.3 1.3.5 2.7.8 4.4.8 1.6 0 3.1-.3 4.4-.8 1.3-.5 2.4-1.3 3.3-2.3.9-1 1.6-2.2 2.1-3.7s.7-3.1.7-4.9zm39.7-16.6v33.2h-6.2v-14.5h-15.6v14.5h-6.2v-33.2h6.2v14.3h15.6v-14.3h6.2zm39.7 28.4v10.9c0 .5-.2 1-.5 1.3-.4.3-.8.5-1.4.5h-3.7v-7.9h-24.4v6.1c0 .5-.2 1-.5 1.3-.4.3-.8.5-1.4.5h-3.7v-12.7h3.6c.4-.2.9-.6 1.3-1.1.4-.5.8-1.2 1.2-2.1.4-.9.8-2.1 1.1-3.5.4-1.4.7-3.1 1-5.1.3-2 .5-4.4.7-7.1.2-2.7.4-5.9.5-9.4h21.1v28.4h5.1zm-11.4 0v-23.7h-9.1c-.2 3.3-.4 6.1-.7 8.7-.3 2.5-.7 4.7-1.1 6.6-.4 1.9-.9 3.5-1.4 4.9-.5 1.4-1 2.5-1.6 3.4h13.9zm-107.4 52c.3 0 .6.1.9.4l2.4 2.6c-1.3 1.7-3 2.9-5 3.8a17 17 0 0 1-7.1 1.3c-2.5 0-4.7-.4-6.6-1.3-2-.8-3.6-2-5-3.5s-2.5-3.3-3.2-5.4-1.1-4.4-1.1-6.8c0-2.5.4-4.8 1.2-6.8.8-2.1 1.9-3.9 3.4-5.4 1.4-1.5 3.2-2.7 5.2-3.5 2-.8 4.2-1.3 6.6-1.3a15.89 15.89 0 0 1 11.2 4.3l-2.1 2.9c-.1.2-.3.3-.5.5-.2.1-.5.2-.8.2-.2 0-.5-.1-.7-.2-.2-.1-.5-.3-.8-.5-.3-.2-.6-.4-1-.6-.4-.2-.8-.4-1.3-.6-.5-.2-1.1-.4-1.8-.5-.7-.1-1.4-.2-2.3-.2-1.5 0-2.8.3-4.1.8-1.2.5-2.3 1.3-3.2 2.3-.9 1-1.6 2.2-2.1 3.7-.5 1.4-.7 3.1-.7 4.9 0 1.9.3 3.5.8 5s1.2 2.7 2.1 3.7c.9 1 2 1.8 3.2 2.3 1.2.5 2.5.8 3.9.8.8 0 1.6 0 2.3-.1.7-.1 1.3-.2 1.9-.4.6-.2 1.1-.5 1.6-.8.5-.3 1-.7 1.5-1.2.2-.1.3-.3.5-.3.3-.1.5-.1.7-.1zm38.4-8.8c0 2.4-.4 4.7-1.2 6.8a15.05 15.05 0 0 1-8.7 8.9c-2.1.9-4.4 1.3-6.9 1.3s-4.8-.4-6.9-1.3a15.05 15.05 0 0 1-8.7-8.9c-.8-2.1-1.2-4.4-1.2-6.8s.4-4.7 1.2-6.8c.8-2.1 2-3.9 3.4-5.4 1.5-1.5 3.2-2.7 5.3-3.5a18.84 18.84 0 0 1 11.6-.7c1.5.4 2.8.9 4.1 1.7 1.2.7 2.3 1.6 3.3 2.6s1.8 2.1 2.5 3.4c.7 1.3 1.2 2.6 1.6 4.1.5 1.4.6 3 .6 4.6zm-6.3 0c0-1.8-.2-3.5-.7-4.9s-1.2-2.7-2.1-3.7c-.9-1-2-1.8-3.3-2.3-1.3-.5-2.7-.8-4.4-.8-1.6 0-3.1.3-4.4.8-1.3.5-2.4 1.3-3.3 2.3-.9 1-1.6 2.2-2.1 3.7s-.7 3.1-.7 4.9c0 1.8.2 3.5.7 4.9s1.2 2.7 2.1 3.7c.9 1 2 1.8 3.3 2.3 1.3.5 2.7.8 4.4.8 1.6 0 3.1-.3 4.4-.8 1.3-.5 2.4-1.3 3.3-2.3.9-1 1.6-2.2 2.1-3.7s.7-3.1.7-4.9zm43.3 11.8v10.9c0 .5-.2 1-.5 1.3-.4.3-.8.5-1.4.5h-3.7v-7.9h-25.9v-33.2h6.2v28.4h14.4v-28.4h6.2v28.4h4.7zm32.9-28.4v33.2h-6.2v-20.8c0-.8 0-1.6.1-2.5 0-.9.1-1.8.3-2.7-.3.9-.6 1.6-1 2.4-.4.7-.7 1.4-1 1.9l-12.7 19.8c-.1.2-.3.5-.5.7l-.6.6c-.2.2-.5.3-.8.4-.3.1-.6.2-.8.2h-4.6v-33.2h6.2v20.8c0 .8 0 1.6-.1 2.5 0 .9-.1 1.8-.3 2.7.3-.9.6-1.6 1-2.4.4-.7.7-1.4 1.1-1.9l12.7-19.8c.1-.2.3-.5.5-.7l.6-.6c.2-.2.5-.3.7-.4.3-.1.6-.2.9-.2h4.5zm35.7 33.2h-4.8c-.5 0-1-.1-1.3-.4-.3-.3-.6-.6-.8-1l-2.5-6.8h-13.7l-2.5 6.8c-.1.4-.4.7-.7 1-.4.3-.8.4-1.3.4h-4.8l13-33.2h6.3l13.1 33.2zm-10.9-12.5-4-11c-.2-.5-.4-1.1-.6-1.7-.2-.7-.4-1.4-.6-2.2-.2.8-.4 1.5-.6 2.2-.2.7-.4 1.3-.6 1.8l-4 11h10.4zm41.8 12.5h-6.2v-28.4h-9.1c-.2 4.2-.5 7.8-.9 10.8-.4 3-.9 5.6-1.4 7.8a22 22 0 0 1-1.9 5.2c-.7 1.3-1.5 2.4-2.3 3.1-.8.7-1.7 1.2-2.7 1.5-.9.3-1.9.4-3 .4s-1.9-.1-2.4-.3-.8-.5-.8-.9v-3.9h1.8c.4 0 .8 0 1.2-.1.4-.1.8-.3 1.2-.6.4-.3.8-.7 1.2-1.3.4-.6.8-1.3 1.1-2.3.4-1 .7-2.1 1-3.5.3-1.4.6-3.1.8-5 .3-2 .5-4.2.7-6.8.2-2.6.3-5.5.4-8.8h21.1v33.1zm19-19.5c2.2 0 4 .2 5.5.7 1.5.5 2.8 1.1 3.8 1.9 1 .8 1.7 1.8 2.1 2.9.5 1.1.7 2.3.7 3.6 0 1.6-.3 3-.8 4.2s-1.3 2.4-2.4 3.3c-1 .9-2.3 1.6-3.8 2.1s-3.2.7-5.1.7h-11.6v-33.1h6.2v13.7h5.4zm-.1 14.7c1.1 0 2.1-.1 2.9-.4.8-.3 1.4-.6 1.9-1s.8-1 1-1.6c.2-.6.3-1.2.3-1.9 0-.8-.1-1.4-.3-2s-.5-1.1-1-1.5c-.5-.4-1.1-.7-1.9-1-.8-.2-1.7-.3-2.9-.3h-5.4v9.8h5.4zm44.8-28.4v33.2h-6.2v-14.5h-15.6v14.5h-6.2v-33.2h6.2v14.3h15.6v-14.3h6.2zm39 16.6c0 2.4-.4 4.7-1.2 6.8a15.05 15.05 0 0 1-8.7 8.9c-2.1.9-4.4 1.3-6.9 1.3s-4.8-.4-6.9-1.3a15.05 15.05 0 0 1-8.7-8.9c-.8-2.1-1.2-4.3-1.2-6.8s.4-4.7 1.2-6.8c.8-2.1 2-3.9 3.4-5.4 1.5-1.5 3.2-2.7 5.3-3.5 2.1-.8 4.4-1.3 6.9-1.3 1.7 0 3.3.2 4.7.6 1.5.4 2.8.9 4.1 1.7 1.2.7 2.4 1.6 3.3 2.6 1 1 1.8 2.1 2.5 3.4a18.4 18.4 0 0 1 2.2 8.7zm-6.3 0c0-1.8-.2-3.5-.7-4.9-.5-1.4-1.2-2.7-2.1-3.7-.9-1-2-1.8-3.3-2.3-1.3-.5-2.8-.8-4.4-.8-1.6 0-3.1.3-4.4.8-1.3.5-2.4 1.3-3.3 2.3-.9 1-1.6 2.2-2.1 3.7-.5 1.4-.7 3.1-.7 4.9 0 1.8.2 3.5.7 4.9.5 1.4 1.2 2.7 2.1 3.7.9 1 2 1.8 3.3 2.3 1.3.5 2.7.8 4.4.8 1.6 0 3.1-.3 4.4-.8 1.3-.5 2.4-1.3 3.3-2.3.9-1 1.6-2.2 2.1-3.7.4-1.4.7-3.1.7-4.9zm39.7-16.6v33.2h-6.2v-20.8c0-.8 0-1.6.1-2.5 0-.9.1-1.8.3-2.7-.3.9-.6 1.6-1 2.4-.4.7-.7 1.4-1 1.9l-12.7 19.8c-.1.2-.3.5-.5.7l-.6.6c-.2.2-.5.3-.8.4-.3.1-.6.2-.9.2h-4.6v-33.2h6.2v20.8c0 .8 0 1.6-.1 2.5 0 .9-.1 1.8-.3 2.7.3-.9.6-1.6 1-2.4.4-.7.7-1.4 1.1-1.9l12.7-19.8c.1-.2.3-.5.5-.7l.6-.6c.2-.2.5-.3.7-.4.3-.1.6-.2.9-.2h4.6zm-13.7-4.8c.6 0 1-.1 1.4-.2.4-.1.7-.3.9-.6.2-.3.4-.6.5-1.1.1-.5.1-1 .1-1.7h3.3c.4 0 .7.2.9.5.2.3.3.7.3 1.1 0 .8-.2 1.5-.5 2.1-.4.6-.9 1.1-1.5 1.5-.7.4-1.4.7-2.4.9-.9.2-1.9.3-3.1.3s-2.2-.1-3.1-.3c-.9-.2-1.7-.5-2.4-.9s-1.2-.9-1.5-1.5c-.4-.6-.5-1.3-.5-2.1 0-.4.1-.8.3-1.1.2-.3.5-.5.9-.5h3.3c0 .7 0 1.3.1 1.7.1.5.3.8.5 1.1.2.3.5.5.9.6.5.2 1 .2 1.6.2zm-322 63c1.3-1.1 2.8-2 4.6-2.6s3.7-.9 5.9-.9c1.8 0 3.4.2 4.8.6 1.4.4 2.7 1 3.7 1.8s1.8 1.7 2.3 2.8.8 2.2.8 3.5a8.2 8.2 0 0 1-4.3 7.3c.8.4 1.5.8 2.1 1.3.6.5 1.2 1 1.6 1.6.5.6.8 1.3 1.1 2 .3.7.4 1.5.4 2.2 0 1.5-.3 2.9-.8 4.2-.6 1.3-1.4 2.4-2.4 3.4-1.1 1-2.4 1.7-3.9 2.3-1.5.6-3.3.8-5.3.8a18.7 18.7 0 0 1-6.6-1.2c-1-.4-2-.8-2.8-1.4s-1.7-1.1-2.4-1.8l1.8-3c.2-.2.4-.4.6-.5s.5-.2.8-.2c.4 0 .8.2 1.3.5s1 .7 1.7 1c.7.4 1.5.7 2.4 1 .9.3 2 .5 3.3.5 2.1 0 3.7-.4 4.8-1.3 1.1-.9 1.7-2.2 1.7-4.1 0-.7-.2-1.4-.5-2-.3-.6-.7-1.1-1.3-1.5-.6-.4-1.2-.7-2.1-1-.8-.2-1.7-.3-2.7-.3h-4.7v-5h4.3c1.9 0 3.4-.4 4.5-1.1 1.1-.8 1.6-1.9 1.6-3.3 0-1.3-.5-2.3-1.5-3-1-.8-2.5-1.1-4.4-1.1-1.1 0-2.1.1-2.9.4-.8.2-1.5.5-2.1.8-.6.3-1.1.5-1.5.8-.4.2-.8.4-1.1.4-.3 0-.6-.1-.8-.2-.2-.2-.4-.4-.6-.7l-1.4-3zm56.8 30h-4.8c-.5 0-1-.1-1.3-.4-.3-.3-.6-.6-.8-1l-2.5-6.8h-13.7l-2.5 6.8c-.1.4-.4.7-.7 1-.4.3-.8.4-1.3.4h-4.7l13-33.2h6.3l13 33.2zm-10.9-12.5-4-11c-.2-.5-.4-1.1-.6-1.7-.2-.7-.4-1.4-.6-2.2-.2.8-.4 1.5-.6 2.2-.2.7-.4 1.3-.6 1.8l-4 11h10.4zm61.4 7.8v10.9c0 .5-.2 1-.5 1.3-.4.3-.8.5-1.4.5h-3.7v-7.9h-41.5v-33.2h6.2v28.4h11.9v-28.4h6.2v28.4h11.9v-28.4h6.2v28.4h4.7zm32.8-28.4v33.2h-6.2v-20.8c0-.8 0-1.6.1-2.5 0-.9.1-1.8.3-2.7-.3.9-.6 1.6-1 2.4-.4.7-.7 1.4-1 1.9l-12.8 19.7c-.1.2-.3.5-.5.7l-.6.6c-.2.2-.5.3-.8.4-.3.1-.6.2-.8.2h-4.6v-33.2h6.2v20.8c0 .8 0 1.6-.1 2.5 0 .9-.1 1.8-.3 2.7.3-.9.6-1.6 1-2.4.4-.7.7-1.4 1.1-1.9l12.7-19.8c.1-.2.3-.5.5-.7l.6-.6c.2-.2.5-.3.7-.4s.6-.2.9-.2h4.6zm30.6 5h-10v28.1h-6.2v-28.1h-10v-5.1h26.2v5.1zm15.9 8.7c2.2 0 4 .2 5.5.7 1.5.5 2.8 1.1 3.8 1.9 1 .8 1.7 1.8 2.1 2.9.5 1.1.7 2.3.7 3.6 0 1.6-.3 3-.8 4.2s-1.3 2.4-2.4 3.3c-1 .9-2.3 1.6-3.8 2.1s-3.2.7-5.1.7h-11.6v-33.2h6.2v13.7h5.4zm0 14.6c1.1 0 2.1-.1 2.9-.4.8-.3 1.4-.6 1.9-1s.8-1 1-1.6.3-1.2.3-1.9c0-.8-.1-1.4-.3-2-.2-.6-.5-1.1-1-1.5-.5-.4-1.1-.7-1.9-1-.8-.2-1.7-.3-2.9-.3h-5.4v9.8h5.4zm23.2 4.8h-6.2v-33.2h6.2v33.2zm-180 21.9v33.2h-6.2v-14.5h-15.6v14.5h-6.2v-33.2h6.2v14.3h15.6v-14.3h6.2zm35.8 33.1h-4.8c-.5 0-1-.1-1.3-.4-.3-.3-.6-.6-.8-1l-2.5-6.8h-13.7l-2.5 6.8c-.1.4-.4.7-.7 1-.4.3-.8.4-1.3.4h-4.8l13-33.2h6.3l13.1 33.2zm-10.9-12.5-4-11c-.2-.5-.4-1.1-.6-1.7-.2-.7-.4-1.4-.6-2.2-.2.8-.4 1.5-.6 2.2-.2.7-.4 1.3-.6 1.8l-4 11h10.4zm36.1 4.7c.3 0 .6.1.9.4l2.4 2.6c-1.3 1.7-3 2.9-5 3.8a17 17 0 0 1-7.1 1.3c-2.5 0-4.7-.4-6.6-1.3-2-.8-3.6-2-5-3.5s-2.5-3.3-3.2-5.4c-.7-2.1-1.1-4.4-1.1-6.8 0-2.5.4-4.8 1.2-6.8.8-2.1 1.9-3.9 3.4-5.4 1.4-1.5 3.2-2.7 5.2-3.5 2-.8 4.2-1.3 6.6-1.3a15.89 15.89 0 0 1 11.2 4.3l-2.1 2.9c-.1.2-.3.3-.5.5-.2.1-.5.2-.8.2-.2 0-.5-.1-.7-.2-.2-.1-.5-.3-.8-.5-.3-.2-.6-.4-1-.6-.4-.2-.8-.4-1.3-.6-.5-.2-1.1-.4-1.8-.5-.7-.1-1.4-.2-2.3-.2-1.5 0-2.8.3-4.1.8-1.2.5-2.3 1.3-3.2 2.3-.9 1-1.6 2.2-2.1 3.7-.5 1.4-.7 3.1-.7 4.9 0 1.9.3 3.5.8 5s1.2 2.7 2.1 3.7c.9 1 2 1.8 3.2 2.3 1.2.5 2.5.8 3.9.8.8 0 1.6 0 2.3-.1.7-.1 1.3-.2 1.9-.4.6-.2 1.1-.5 1.6-.8.5-.3 1-.7 1.5-1.2.2-.1.3-.3.5-.3.3 0 .5-.1.7-.1zm13.7-20.4v9.2h11.6v4.7h-11.6v9.4h14.7v4.9h-20.9v-33.2h20.9v4.9h-14.7zm47 28.2h-6.2v-28.4h-9.1c-.2 4.2-.5 7.8-.9 10.8-.4 3-.9 5.6-1.4 7.8a22 22 0 0 1-1.9 5.2c-.7 1.3-1.5 2.4-2.3 3.1-.8.7-1.7 1.2-2.7 1.5-.9.3-1.9.4-3 .4s-1.9-.1-2.4-.3c-.5-.2-.8-.5-.8-.9v-3.8h1.8c.4 0 .8 0 1.2-.1.4-.1.8-.3 1.2-.6.4-.3.8-.7 1.2-1.3.4-.6.8-1.3 1.1-2.3.4-1 .7-2.1 1-3.5.3-1.4.6-3.1.8-5 .3-2 .5-4.2.7-6.8.2-2.6.3-5.5.4-8.8h21.3v33zm13.5-28.2v9.2h11.6v4.7h-11.6v9.4h14.7v4.9h-20.9v-33.2h20.9v4.9h-14.7zm48.2-4.9v33.2h-6.2v-14.5h-15.6v14.5h-6.2v-33.2h6.2v14.3h15.6v-14.3h6.2zm35.3 0v33.2h-6.2v-20.8c0-.8 0-1.6.1-2.5 0-.9.1-1.8.3-2.7-.3.9-.6 1.6-1 2.4-.4.7-.7 1.4-1 1.9l-12.7 19.8c-.1.2-.3.5-.5.7l-.6.6c-.2.2-.5.3-.8.4-.3.1-.6.2-.9.2h-4.7v-33.2h6.2v20.8c0 .8 0 1.6-.1 2.5 0 .9-.1 1.8-.3 2.7.3-.9.6-1.6 1-2.4.4-.7.7-1.4 1.1-1.9l12.7-19.8c.1-.2.3-.5.5-.7l.6-.6c.2-.2.5-.3.7-.4.3-.1.6-.2.9-.2h4.7zm31.1 33.1h-6.1v-13.7h-3.4c-.4 0-.7 0-1.1.1-.3.1-.7.2-1 .4-.3.2-.6.4-.9.7-.3.3-.6.7-.9 1.2l-5.8 9.2a4.3 4.3 0 0 1-3.8 2.1h-4.7l7.6-11.6c.9-1.5 2.1-2.5 3.5-3.1-1.2-.3-2.3-.8-3.2-1.3-.9-.6-1.7-1.2-2.3-1.9-.6-.7-1-1.6-1.3-2.5-.3-.9-.4-1.9-.4-2.9 0-1.4.3-2.7.8-3.9a7.9 7.9 0 0 1 2.4-3.1c1-.9 2.3-1.5 3.8-2s3.2-.7 5.1-.7h11.7v33zm-6.1-18.5v-9.8h-5.6c-1.1 0-2.1.1-2.9.4-.8.3-1.4.6-1.9 1s-.8 1-1 1.5a6.45 6.45 0 0 0 0 3.9c.2.6.5 1.1 1 1.6.5.4 1.1.8 1.9 1 .8.2 1.7.4 2.9.4h5.6z"/></svg>