<svg viewBox="0 0 233 284" fill="none" xmlns="http://www.w3.org/2000/svg"><path d="M166.47 32.31c-1.32 1.82-2.73 3.7-4.49 5.06-2.14 1.66-4.8 2.98-7.51 1.26-3.32-2.11-6.91-2.13-10.58-1.94-1.62.08-2.8 1.5-3.12 3.45-.26 1.62.26 2.41 2.08 3.2.83.35 1.67.68 2.47 1.09.94.47 1.13 1.31.73 2.18-.43.93-1.16.45-1.89.31-.83-.15-1.99-.35-2.5.07-.5.41-.68 1.66-.48 2.4.96 3.65 3.08 6.5 6.51 8.19 2.82 1.38 5.75 1.2 8.66.12 2.86-1.08 4.57-.21 4.99 2.8.62 4.45.41 8.9-1.56 13.06a36.1 36.1 0 0 1-7.49 10.21c-1.25 1.24-1.33 1.58-.2 2.93 1.38 1.63 2.79 3.33 4.5 4.55 2.75 1.96 4.9 1.76 6.72-.51.72-.9 1.59-1.7 2.42-2.5.33-.31.77-.53 1.15-.8l.31.29c-.4.65-.87 1.3-1.21 1.99-.17.33-.3.9-.12 1.13.2.26.77.43 1.13.36.52-.1 1-.44 1.48-.71.77-.45 1.5-1.02 2.3-1.39 4.07-1.83 8.51-2.02 12.8-2.91 2.98-.62 6.16-.79 8.92-1.93 4.14-1.73 8.03-4.07 11.95-6.29 1-.56 1.93-1.51 2.5-2.51 4.73-8.2 4.66-16.62 1-25.15a56.42 56.42 0 0 0-8.35-13.37c-3.46-4.24-7.33-8.06-12.09-10.9-4.47-2.68-9.02-3.42-13.8-.74-3.04 1.7-5.23 4.22-7.24 7Zm5.6 29.97a2.04 2.04 0 0 1-2.16 2.03 2.08 2.08 0 0 1-2.03-2.05 2.1 2.1 0 0 1 2.12-2.1c1.2 0 2.08.92 2.07 2.12Zm32.63 111.88c-3.55-1.5-6.94-3.41-10.35-5.22a3.01 3.01 0 0 1-1.35-1.56c-.68-2.1-2.1-3.2-4.18-3.78a24.7 24.7 0 0 1-4.32-1.63c-2.45-1.21-2.76-2.25-2.1-4.9.3-1.17.55-2.5.28-3.62-.76-3.17-.42-6.02 1.65-8.6.12-.15.18-.34.36-.69-1.73.25-3.35.74-4.06 2-1.16 2.09-2.53 1.5-4.08.88l-1.56-.62c-2.5-.99-2.73-1.3-2.55-3.96.08-1.01.3-2.03.48-3.03.09-.49.26-.95.4-1.46a3.09 3.09 0 0 0-3.27 2.1 16.1 16.1 0 0 0-.69 4.13c-.12 2.46-.3 3.06-2.67 3.75a36.16 36.16 0 0 1-7.06 1.32 10.06 10.06 0 0 0-6.64 3.03c-1.52 1.54-3.45 2.17-5.54 2.5-4 .62-7.99 1.23-11.97 1.91a5.2 5.2 0 0 0-4.44 4.14c-.59 2.55-.68 5.13.2 7.7.86 2.5 2.6 3.7 5.07 4.2.98.2 2 .5 2.84 1.02 3.25 2 6.44 4.11 9.67 6.15.94.6 2.11.9 2.88 1.65 2.44 2.35 4.98 4.66 7.03 7.32 4.26 5.52 6.62 11.73 5.61 18.87-.33 2.37.25 3.46 2.49 4.45 2.37 1.05 4.83.84 7.21.15 5.13-1.5 9.46-4.44 13.63-7.65 5.06-3.9 9.46-8.47 13.62-13.28 2.39-2.75 4.9-5.42 6.36-8.83 1.37-3.17.9-6.8-2.96-8.44h.01Zm-44.83-13-.59-.03c-.3-.51-.92-1.08-.84-1.53.07-.42.64-.75 1.09-1.1l.18-.16.16.17c.41.4.96.77.99 1.2.03.45-.64.96-1 1.44Zm-92.64-117.69c9.41 7.51 20.28 11.62 32.16 13.2a7.83 7.83 0 0 0 3.98-.64c5.1-2.26 8.85-6.07 11.53-10.85 4.95-8.85 7.32-18.35 6.28-28.49-.77-7.58-5.03-13.35-12.8-15.26-4.6-1.14-8.71-.35-12.35 2.63a43.26 43.26 0 0 0-4.6 4.3c-2.65 2.92-5.72 3.83-9.54 2.72-2.58-.76-5.26-1.2-6.77-1.53-5.4.17-9.23 1.4-12.64 3.87-4.95 3.6-6.74 8.7-5.37 14.33a28.37 28.37 0 0 0 10.12 15.72Z" fill="#fff"/><path d="M154.93 212.4c1.94-3.83 2.87-7.83.91-11.97-3.27-6.94-8.14-12.44-14.9-16.2a52.92 52.92 0 0 0-13.95-5.27 3.59 3.59 0 0 1-2.67-2.18 78.6 78.6 0 0 0-1.45-3.16c-.6-1.26-.6-2.47.21-3.64a5.5 5.5 0 0 0 .94-3.9 5.38 5.38 0 0 0-3.8-4.87 5.36 5.36 0 0 0-5.92 1.3 6.48 6.48 0 0 1-3.03 1.42c-1.73.36-3.22.95-4.15 2.5a5.85 5.85 0 0 0 3.84 8.76c1.34.31 2.53.75 3.16 2.14 1.26 2.76.94 4.19-1.6 5.9-3.32 2.25-6.52 4.62-9.02 7.79-2.84 3.59-4.88 7.55-5.5 12.12a24.7 24.7 0 0 0 4.1 17.36 40.23 40.23 0 0 0 6.14 7.53c3.26 3 7.57 3.46 12.09 3.54.46-.02 1.15-.04 1.84-.1a45.55 45.55 0 0 0 22.18-8.04c4.28-2.93 8.19-6.32 10.58-11.04Zm-37.95 11.38c-2.11-1.27-2.66-2.51-2.11-4.94a12.11 12.11 0 0 1 3.5-5.89 33.36 33.36 0 0 1 18.87-9.53c.93-.15 1.89-.12 2.83-.17 2.43-.12 4.7.34 6.76 1.7a3.3 3.3 0 0 1 1.57 2.77c.18 2.57-.8 4.61-2.49 6.5-5.84 6.5-13.17 10-21.83 10.88-2.47.25-4.9 0-7.1-1.32Zm114.34-111.88c-1.55.1-1.55.08-1.49-1.55.24-6.19-4.1-11.7-10.26-12.76-1.97-.33-4.03-.14-6.04-.23-.71-.03-1.55.04-2.12-.3-3.66-2.18-7.61-2.52-11.73-2.17-1.19.1-2.34.11-2.7 1.64-1.28-2.2-1.47-2.42-2.93-2.72a26.6 26.6 0 0 0-10.65-.25c-.49.1-1.08.18-1.51 0-2.29-.91-4.65-.87-7.01-.6a11.36 11.36 0 0 0-9.91 9.33c-.14.85-.1 1.73-.12 2.25-.84.34-1.66.43-1.92.84-.51.82-.48 1.8.26 2.58 1.56-.46 1.72-.4 1.87.67.57 3.93 3.02 6.56 6.28 8.41 2.54 1.44 5.46 1.79 8.38 1.79.35 0 .7-.12 1.06-.19l-.69-2.23.35-.14c.2.34.38.72.64 1.02.53.6 1 1.34 1.68 1.68 3.3 1.7 6.79 2.62 10.58 2.16 1.27-.14 1.73-.72 1.8-1.86.02-.55.11-1.1.17-1.65l.36.01c.05.5.18 1 .14 1.48-.15 1.82.86 2.72 2.43 3.31a15.84 15.84 0 0 0 8.24 1c2.53-.4 5.27-1.63 5.24-5.44 0-.3.12-.61.19-.9.3.26.43.54.39.78-.23 1.26-.41 2.54-.8 3.75-.28.91-.2 1.39.8 1.53 1.24.17 2.46.41 3.7.59 4.56.67 11.1-3.49 11.9-7.66.1-.54.36-1.05.67-1.9l.66 1.34c.6 1.23 1.31 1.31 2.02.13.47-.8.8-1.7 1.08-2.59.23-.78-.14-1.21-1.03-1.16h.02Zm-187.26 54.88c.26 1.33.37 2.45.7 3.5.66 2 1.97 2.96 4.08 2.79 1.34-.1 2.72-.48 3.94-1.04 1.98-.91 3.75-2.36 5.8-3.06a93.2 93.2 0 0 1 10.9-2.98c3.32-.7 6.55-1.39 9.37-3.4 2.49-1.77 4.96-3.53 6.77-6.06.86-1.23 1.01-2.52.19-3.72-1.36-1.96-2.72-3.97-4.36-5.68-2.55-2.63-5.1-5.24-6.62-8.62-1.32-2.92-2.48-5.91-3.72-8.88-3.16-7.6-3.14-15.45-1.36-23.26.83-3.67 2.74-7.09 4.09-10.64.25-.65.18-1.43.26-2.14-.76.2-1.53.39-2.27.63-.23.07-.45.27-.61.46-1.34 1.6-3.11 3.02-3.91 4.86-1.88 4.28-3.33 8.75-4.88 13.18-1.04 2.98-1.94 6.01-2.95 9-.3.9-.96 1.37-1.95 1.66-1.2.35-2.42.94-3.4 1.7-2.86 2.26-4.52 5.46-6.44 8.45-.92 1.43-1.94 2.87-2.5 4.44-1.03 2.88-.25 5.81.62 8.57 1.41 4.5 1.56 8.84-.1 13.3-.85 2.27-1.15 4.73-1.65 6.94Zm-9.94-122.59a6.86 6.86 0 0 1-3.11 4.2 6.73 6.73 0 0 0-2.13 2.14c-.28.48-.07 1.43.24 2 .15.27 1.1.3 1.6.14 2.64-.8 5.18-.55 7.71.42 2.99 1.16 4.08 2.85 3.45 5.97-.71 3.48-1.57 6.93-2.48 10.36-1.11 4.19-2.1 8.38-2.15 13.27.04.67.05 1.87.2 3.06.41 3.38 1.08 6.68 3.31 9.44 1.84 2.28 4.81 3.08 6.99 1.67.96-.61 1.83-1.43 2.57-2.3 2.68-3.2 4.16-7.06 5.78-10.84.86-2 1.58-4.12 2.82-5.86 1.95-2.75 5.04-3.89 8.24-4.68 4.2-1.04 5.79-2.8 6.35-7.02.57-4.32-1-8.08-3.2-11.65-3.55-5.81-8.63-9.93-14.77-12.8-4.2-1.97-8.56-3.38-13.3-3.23-3.57.12-7.28 2.6-8.12 5.71Zm5 1.49c.87.02 1.48.46 1.45 1.67-.05.74-.69 1.27-1.52 1.04-.57-.15-1.3-.8-1.4-1.33-.16-.88.6-1.4 1.48-1.38Zm42.04 160.04c5.27-.14 9.35-2.84 11.02-7.6a37.8 37.8 0 0 0 1.83-7.45c.63-4.76 1.5-9.37 4.47-13.34.74-.98 1.26-2.14 1.79-3.26.76-1.63.9-3.34.09-4.97a9.38 9.38 0 0 0-13.51-3.82c-1.62.97-3.17 2.05-4.77 3.06a14.57 14.57 0 0 1-7.43 2.55c-3.41.15-6.85.67-10.2 1.41-6.9 1.54-9.83 5.84-8.9 12.75.93 6.8 4.18 12.52 8.56 17.67a6.54 6.54 0 0 0 4.8 2.45c3.66.15 7.31.34 10.97.5v.05h1.3-.02Zm-3.33-13.38c.12.42 0 .94-.14 1.38-.31 1.09-1.07 1.36-1.94.65-1.23-1-2.21-2.23-2.1-3.92.06-1.19-.5-1.8-1.5-2.26a20.1 20.1 0 0 1-2.8-1.53c-.26-.17-.36-.74-.33-1.1.02-.16.53-.28.8-.4 1.25.5 2.42.93 3.56 1.44 1.58.7 2.93.5 4.25-.67 1.5-1.34 3.13-2.54 4.74-3.74.31-.23.84-.17 1.27-.24-.08.46-.02 1.05-.28 1.34-.91.97-1.91 1.84-2.91 2.72-1.92 1.68-3.42 3.51-2.62 6.33Zm141.24-59.39c-7.27-4.76-15.45-6.7-24.16-7.41-1.47.17-3.07.25-4.61.57-2.74.58-5.3 1.6-7.17 3.8-2.22 2.6-3.36 7.33.8 10.19 3.21 2.2 5.53 5.18 5.96 9.34.33 3.17 1.45 6.15 3.92 8.31a70.34 70.34 0 0 0 7.3 5.65c5.55 3.7 11.67 3.2 16.62-1.23 3.9-3.49 6.46-7.87 8.35-12.66a11.2 11.2 0 0 0-.12-8.62c-1.4-3.43-3.88-5.97-6.9-7.95l.01.01Zm-10.15 19.97a3.73 3.73 0 0 1-3.52-3.72c.05-2.03 3.01-4.48 5.43-4.47 1.63.01 3.3 1.9 3.26 3.67-.07 2.18-2.78 4.54-5.18 4.52Zm-198.41-30.69c.89-.38 1.93-.42 2.91-.54 1.88-.24 3.77-.37 5.65-.63 4.4-.61 7.65-2.6 8.87-7.18a32.98 32.98 0 0 0 1.32-9.76c-.21-5.65.55-11.17 1.71-16.68.35-1.63.17-3.55-.35-5.14-.93-2.79-2.29-5.44-3.5-8.13a6.22 6.22 0 0 0-1.13-1.71c-.18-.2-1-.16-1.08-.02-.93 1.97-1.99 3.99-1.24 6.24.62 1.86 1.5 3.63 2.26 5.44.32.76.67 1.51 1 2.27l-.44.25c-2.32-1.66-3.07-4.43-4.51-7.18-.52 1.82-1.14 3.25-1.26 4.73-.08.97.68 2.03-.96 2.3-.1 0-.19.17-.25.28-.69 1.18-.24 3.93.68 5 .74.87 1.49 1.8 1.94 2.83.34.8.24 1.8.33 2.71l-.58.19c-1.48-1.52-1.04-4.46-3.73-5.26l-.48 1.68c-.7 2.37-1.37 4.75-2.12 7.1-.14.46-.61.8-.94 1.18l-.46-.2c.1-3.77 2.4-7.2 2.09-11.18-1.15.34-2.12.68-3.11.9-.29.06-.65-.23-.97-.36.15-.32.22-.77.48-.93.38-.25.88-.3 1.34-.41 2.71-.65 4.82-4 4.18-7.15-1.68.6-3.29 1.21-4.94 1.74-.34.1-.77-.06-1.16-.1.06-.4-.02-.88.2-1.15.3-.39.76-.72 1.22-.9 1.15-.46 2.32-1 3.53-1.18 1.57-.23 2.47-1.1 3.06-2.42.42-.93.83-1.88 1.18-2.85.16-.44.15-.95.24-1.6-1.38.14-2.3.6-3.04 1.54-.2.26-.64.34-.96.5-.13-.48-.47-1.04-.32-1.42.17-.47.7-.86 1.16-1.15 1.04-.67 2.15-1.25 3.22-1.9 1.35-.8 1.95-2.27 1.54-3.97-.39.22-.76.4-1.09.63-3.42 2.52-6.86 5.02-10.24 7.6a24.68 24.68 0 0 0-8.31 10.75c-2.12 5.43-3.3 11-2.3 16.82 1.01 6 3.3 11.6 6.04 16.99 1.06 2.09 1.2 2.34 3.32 1.44v-.01Zm24.46 43.71c5.74-3.33 8.37-9.57 7.03-16.33a32.66 32.66 0 0 0-10.4-18.48c-5.1-4.56-11.2-6.37-18.03-5.45-1.68.22-3.1.99-3.89 2.63-.14.29-.39.54-.68.93-.47-1.13-.64-2.36-2.02-1.99-1.6.43-2.87 1.36-3.39 3.05-.6 1.9.36 3.29 2.77 3.4a5.54 5.54 0 0 0-3.13 5.04c-.05 2.42 0 4.88.41 7.25.7 3.93 2.66 7.37 4.8 10.7 2.95 4.57 6.79 8.1 11.94 9.99 4.92 1.79 9.9 1.99 14.6-.73h-.01Zm-19.82-19.24c-.41-1.7-.28-3.53-.4-5.3-.03-.47 0-.95-.1-1.4-.38-1.73.04-2.35 1.84-2.52.47-.04.94 0 1.41 0 3.98-.16 6.25 2.52 8.49 5.13a16.02 16.02 0 0 1 3.67 7.4c.21 1.1.29 2.34.02 3.4-.77 3-3.78 4.06-7.14 2.6a13.05 13.05 0 0 1-7.8-9.3Zm104.57-101.81c-1.28 2.44-1.84 4.87-.42 7.49-.21.14-.39.25-.55.38l-.55.46c.8 1.16 1.79 1.57 1.99.96.32-1.01 1.02-.8 1.7-.94a5.3 5.3 0 0 0 1.56-.58c2.29-1.28 4.1-3.1 5.62-5.2 3.4-4.72 5.35-10.03 6.36-15.7.64-3.55.92-7.12.25-10.72-.44-2.38-1.44-4.35-3.61-5.65-.66-.4-1.2-.97-1.78-1.48-.76-.65-.6-1.11.4-1.5 1.14 2.87 3.66 2.96 6.15 2.97 2.12.01 4.22-.1 6.33-.2 2.83-.13 5.56.21 8.25 1.14 2.74.94 5.41 2.47 8.46 1.77 2.87-.65 5.39.34 7.99 1.46-.46.21-1.02.44-1.41.28a5.76 5.76 0 0 0-4.53.06c-.72.3-1.44.58-2.13.93a21.58 21.58 0 0 1-14.75 2.14c-1.94-.4-4.06-.7-5.83.94-.36-.25-.62-.51-.93-.62-.23-.08-.54.03-.81.06.07.27.06.7.22.78.89.44.75 1.15.73 1.94-.01.7.15 1.48.48 2.09a9.03 9.03 0 0 0 6.27 4.54c6.37 1.4 12.31.16 17.81-3.24 2.08-1.28 3.86-2.91 4.84-5.2.35-.84.23-1.87.57-2.72.47-1.14 1.52-2.08.88-3.5-.06-.15.13-.4.2-.6.75-1.79.55-2.8-.83-4.15-1.98-1.94-4.48-3.02-7-3.98a63.54 63.54 0 0 0-15.42-3.66c-3.69-.44-7.38-.58-10.94.94-1.85.79-3.36 1.86-4.32 3.65-.2.35-.55.66-.91.83-.88.44-1.86.72-1.76 2.02.02.2-.34.48-.57.64a4.27 4.27 0 0 0-1.85 3.38 135.1 135.1 0 0 0-.18 8.59c.03 3.85-.4 7.61-2 11.15a182.2 182.2 0 0 1-3.98 8.05Zm-70.66 167.24c3.11 1.9 6.4 3.52 9.62 5.22.55.28 1.23.32 1.86.47l.18-.33c-.26-.48-.44-1.01-.78-1.41-1.78-2.09-3.44-4.31-5.45-6.16a101.8 101.8 0 0 1-14.2-16.22c-.23-.32-.2-.82-.28-1.24.43.06 1-.04 1.27.2.82.75 1.6 1.57 2.24 2.46 1.49 2.05 2.81 4.2 4.35 6.2.8 1.05 1.87 1.88 2.88 2.73.23.2.79.21 1.07.07.17-.08.15-.66.1-1-.13-.84-.4-1.66-.5-2.5-.04-.39.14-.8.29-1.52 1.31 1.35 1.37 2.8 1.8 4.1.5 1.57.75 3.39 1.74 4.6 2.4 3 5.17 5.73 7.82 8.53.38.4.93.63 1.64 1.08-.06-.51-.04-.61-.09-.67-.2-.28-.4-.55-.62-.81-2.08-2.64-4-5.35-5.1-8.57-1.18-3.48-2.36-6.97-3.62-10.42a57.98 57.98 0 0 0-10.23-18c-4.36-5.13-9.69-8.12-16.68-7.55-1.26.1-2.56-.18-3.84-.28-.98-.09-1.97-.26-2.95-.23-1.47.06-2 .9-1.52 2.26.18.52.53.98.72 1.5.5 1.3 1.16 2.58 1.37 3.93 1.09 7.08 3.83 13.34 8.75 18.66a84.47 84.47 0 0 0 18.16 14.9Zm73.74-146.22c1.7 2.45 6.26 3.24 8.98 1.8 1.1-.57 2.3.1 2.38 1.35.05.63.13 1.27.17 1.91.08 1.31.71 2.11 2 2.52.84.28 1.66.7 2.42 1.18 2.45 1.48 2.72 1.53 4.76-.45.9-.87 1.65-.84 2.6-.24 1.58.98 3.16 1.92 4.76 2.84.44.25.94.39 1.42.57l.26-.42c-1.81-1.53-3.59-3.11-5.44-4.6-.7-.55-.92-1-.63-1.92.81-2.62.32-5-1.73-6.94-.8-.76-1.75-1.08-2.84-.57-1.87.87-3.76 1.68-5.58 2.63-.95.48-1.74.18-2.38-.32-.25-.19 0-1.06.1-1.6.06-.32.28-.61.44-.92.96-1.85.5-2.82-1.6-3a20.32 20.32 0 0 0-5.28.08c-2.1.4-4.4.69-5.69 2.84-.1.18-.42.33-.64.33-1.3-.04-2.8.5-3.58-1.18-.16-.33-.65-.57-1.04-.72a7.35 7.35 0 0 0-5.66-.12c-.6.24-1.33.93-1.41 1.5-.2 1.42-1.13 1.64-2.23 1.82-.5.09-1.02.18-1.5.33-1.22.37-2.08.33-2.56-1.16-.52-1.58-1.6-1.9-3.05-1.14-.71.38-1.43.82-2 1.38-1.95 1.9-3.84 3.86-5.74 5.8-.05.05-.02.17-.06.49 1.15-.65 1.85-.2 2.41.77.1.19.8.2 1.16.07a70.07 70.07 0 0 0 4.7-1.78c.9-.38 2.02-.75 2.52-1.47 1.03-1.48 2.5-1.68 4-1.99 1.88-.39 1.89-.37 2.2 1.5.27 1.52.82 2.22 2.35 2.23a13.6 13.6 0 0 0 4.3-.61c1.76-.58 3.61-1.35 2.89-3.98 1.63-.16 2.82-.27 3.83 1.18l-.01.01Zm-54.92 21.33c-.1.56.31 1.19.49 1.8.57-.27 1.18-.47 1.7-.81.37-.24.55-.86.92-.98 1.76-.56 3.72-.33 5.4-1.31.15-.1.42.01.63.05a6.25 6.25 0 0 0 5.83-2.03c2.24-2.32 3.42-5.21 4.26-8.24 1.8-6.51.98-12.57-3.5-17.85a20.76 20.76 0 0 0-3.76-3.26c-.45-.32-1.45-.39-1.88-.1-.43.29-.7 1.2-.62 1.77.17 1.17.55 2.33.98 3.44 1.17 3.04 2.07 6.07 1.06 9.36a24.71 24.71 0 0 1-5.2 9.2c-.7.8-1.32 1.53-1.2 2.7.04.28-.5.8-.87.9-.89.27-1.19.75-.7 1.55.18.32.46.59.88 1.1-.73.16-1.22.29-1.71.35-1.36.19-2.5 1.05-2.7 2.37h-.01Zm90.74 177.01c-1.63-2.28-4-3.14-6.6-3.57-.85-.14-1.4-.4-1.85-1.28a2.71 2.71 0 0 0-2-1.26c-.7 0-1.67.62-2.01 1.24-.46.83-.97 1.19-1.84 1.26-.48.04-.94.16-1.4.26-4.3.95-6.76 3.86-6.9 8.05.25 1.12.35 2.29.76 3.34 1.32 3.3 4.2 4.46 7.42 4.97.89.14 1.44.37 1.84 1.26.74 1.62 3.07 1.91 3.87.37.73-1.41 1.8-1.57 3.05-1.82.67-.12 1.34-.33 1.98-.57a8.08 8.08 0 0 0 3.68-12.25Zm-12.84 4.74v3.2c0 .78-.37 1.07-1.13 1-1.99-.17-3.57-2.14-3.5-4.4.07-2.17 1.77-4.08 3.72-4.04.3 0 .83.56.87.9.11 1.1.04 2.22.04 3.34Zm6.18 4.13c-.95.24-1.51.03-1.48-1.08.03-1.02 0-2.05 0-3.08h.04c0-1.06-.03-2.13.01-3.2.03-.76.35-1.18 1.24-.98a4.2 4.2 0 0 1 3.25 4.22 4.25 4.25 0 0 1-3.06 4.12Zm54.62 2.82c-.11-.07-.23-.15-.34-.18-.89-.17-1-.78-.99-1.53.03-1.93.01-3.86.01-5.78h.02v-5.77c-.02-1.64-.62-2.3-2.23-2.34-2.63-.04-5.26-.08-7.88-.04-2.4.03-3.61 1.16-3.96 3.53-.12.8-.08 1.64-.28 2.42-.7 2.68-1.4 5.36-2.23 8-.19.57-1 .92-1.45 1.45-.5.58-1.2 1.2-1.29 1.88-.2 1.43-.1 2.9-.06 4.35.03 1.04.7 1.64 1.65 1.89 1.44.37 2.62-.62 2.6-2.35-.03-1.31.43-1.69 1.71-1.66 3.1.08 6.2.03 9.3.03 1.35 0 2.11.66 2.29 1.98.23 1.79 2 2.66 3.4 1.69 1.63-1.14 1.43-6.56-.27-7.59v.02Zm-6.35-1.65c.01.84-.32 1.29-1.2 1.28-1.39-.02-2.77 0-4.14 0-.96-.02-1.1-.44-.88-1.34.63-2.52 1.2-5.06 1.66-7.62.28-1.58.4-1.83 1.99-1.86h.13c1.62-.02 2.44.76 2.44 2.36v3.2c0 1.33-.02 2.66 0 3.98Zm-90.64-14.27c-6.13.16-10.12 4.2-10.07 10.43.05 5.95 4.27 9.95 10.46 9.9 6.43-.04 10.44-4 10.47-10.15.03-6.1-4.28-10.34-10.86-10.18Zm.24 15.7c-3.22-.04-5.14-2.07-5.13-5.44.02-3.68 1.94-5.66 5.49-5.63 3.13.03 5.14 2.25 5.12 5.66-.03 3.42-2.08 5.44-5.48 5.4Zm-64.76-156.79c1.77-1.58 3.01-3.63 2.96-6.2a7.42 7.42 0 0 0-3.63-6.28 46.52 46.52 0 0 0-5.2-2.78c-.34-.16-1.05.02-1.36.3-1.16 1-2.22 2.13-3.33 3.19-3.85 3.7-3.17 9.63 1.05 11.99.6.33 1.17.73 1.73 1.12 2.12 1.45 3.63 3.27 3.72 5.97.05 1.2.15 2.4.25 3.58.13 1.39.7 1.95 1.81 1.79 1.3-.2.91-1.18.83-1.91a33.68 33.68 0 0 0-.7-4.56c-.6-2.47-.13-4.43 1.86-6.2Zm-3.59 141.59c-1.23-.38-2.25.03-3.05 1.1-1.83 2.42-3.71 4.82-5.58 7.22-.6.76-1.22 1.49-1.84 2.23l-.39-.13c-.04-.5-.1-.99-.1-1.48-.02-2.1.01-4.2 0-6.29-.03-1.73-1.02-2.83-2.5-2.82-1.45.01-2.44 1.14-2.44 2.88-.03 4.57-.03 9.15 0 13.73 0 .54.1 1.14.36 1.59.94 1.63 2.89 1.7 4.18.08 2.2-2.73 4.33-5.55 6.49-8.31.34-.44.74-.83 1.36-1.52.05.86.1 1.32.1 1.77 0 2.14-.02 4.28.02 6.42.03 1.7 1.06 2.8 2.54 2.81 1.41.01 2.5-1.16 2.52-2.82.03-4.62.01-9.24.03-13.86 0-1.25-.5-2.21-1.7-2.6Zm25.02 19.32c1.54-.01 2.48-1.16 2.49-3.1v-13.36c-.01-1.92-.88-2.92-2.48-2.94-1.57-.02-2.48.99-2.55 2.9a41.45 41.45 0 0 0-.03 3.2c.04 1.06-.42 1.45-1.46 1.42-1.55-.05-3.1-.04-4.66-.01-.95.02-1.44-.3-1.4-1.34.04-1.2.03-2.4-.02-3.6-.06-1.55-1.08-2.59-2.45-2.6-1.5-.03-2.52.96-2.53 2.62-.04 4.71-.04 9.42-.02 14.13 0 1.57 1 2.62 2.39 2.66 1.43.03 2.5-1.04 2.57-2.64.05-1.24.05-2.49.05-3.72 0-.8.31-1.18 1.15-1.17 1.72.03 3.45.04 5.17.02.82-.01 1.18.33 1.17 1.15-.02 1.07-.01 2.14 0 3.2.02 2 1 3.18 2.6 3.17Zm131.6-192.28c-.84.26-1.47 1-1.15 2.02.3.96 1.12 1.3 2.04 1.2 1.63-.14 3.24-.37 4.85-.58 2.77-.36 5.52-.82 8.3-1.04.66-.06 1.52.48 2.06.98.97.9 1.74 2.01 2.65 2.98.85.9 1.7.85 2.75-.2-.68-.48-1.3-.86-1.85-1.32-.22-.18-.28-.55-.4-.83.33-.11.7-.38.99-.3.6.17 1.16.53 1.75.8 1.29.55 3.2.26 4.06-.78 1.44-1.74 2.27-3.74 1.9-6.06-.71-4.35-4.82-6.31-8.7-4.18-.25.14-.56.17-1.19.34.44-.77.8-1.18.89-1.64.08-.44-.12-.93-.2-1.4-.48.17-1.1.2-1.38.54-.41.52-.55 1.24-.85 1.85-.38.76-.62 1.7-1.22 2.2a15.82 15.82 0 0 1-8.11 3.63c-2.44.36-4.83 1.1-7.2 1.8h.01Zm-105.42 192.34c1.63-.14 2.02-.73 1.14-2.13-1.3-2.07-2.6-4.14-3.98-6.14-.82-1.19-.85-2.19 0-3.38 1.35-1.93 2.58-3.94 3.87-5.9.44-.67.53-1.32-.23-1.76-1.25-.72-4.1.01-4.88 1.23-.88 1.37-1.6 2.85-2.6 4.13a6.97 6.97 0 0 1-2.45 1.86c-.73.35-1.3-.08-1.28-1.02.03-1.16.01-2.31 0-3.47-.03-1.78-1.02-2.87-2.6-2.87-1.5.01-2.42 1.06-2.44 2.85-.02 2.3 0 4.61 0 6.92 0 2.31-.02 4.62 0 6.93.02 1.68.94 2.67 2.45 2.7 1.46.01 2.51-1.03 2.58-2.63.04-1.07-.02-2.14.04-3.2.04-.56.15-1.51.4-1.57.6-.15 1.4-.02 1.95.29.56.3 1 .9 1.39 1.46.73 1.06 1.5 2.11 2.04 3.26.95 2.02 2.5 2.62 4.61 2.44Zm60.9-134.16c2.49-.13 4.27-1.49 5.91-3.05 4.02-3.83 6.2-8.67 7.37-13.98.97-4.36.15-8.25-3.45-11.15-.58.43-1.1.77-1.55 1.17-.47.42-1.06.85-1.26 1.4a18.7 18.7 0 0 0-.85 3.45c-.4 2.35-.51 4.76-1.1 7.07-.8 3.2-2.78 5.83-4.75 8.44-1.05 1.38-1.91 2.82-1.71 4.68.07.62-.08 1.26-.13 1.89.04.36.03.17 1.52.09Zm-81.86 77.02c.67.35 1.35.68 2.01 1.04 1.57.82 2.17.72 3.24-.72.54-.73 1.03-.72 1.48.03.41.7.72 1.45 1.14 2.15.57.96 1.3 1.76 2.69 2.03l-.16-1.91c-.12-1.5.36-1.9 1.86-1.7a3.9 3.9 0 0 0 1.75-.12c1.15-.4 2.27-.9 3.38-1.37-.53-.84-1.05-1.69-1.64-2.49-.38-.51-.41-.82.1-1.27 1.18-1.08 2.3-2.22 3.31-3.2-1.98-.3-4.15-.66-6.37-1 .09-1.44.17-2.69.21-3.93 0-.16-.23-.46-.31-.45-.23.04-.46.18-.65.33-.48.4-.87.94-1.41 1.22-1.1.57-2.3 1-3.65 1.58 0 .02 0 .02 0 0a.76.76 0 0 0-.2-.28c-.95-.85-1.87-1.74-2.9-2.45-.33-.22-1 .07-1.5.12.13.47.15 1.05.44 1.38.42.46 1.1.68 1.56 1.11.28.25.57.8.47 1.05-.14.34-.64.69-1.02.75-.48.07-1-.13-1.5-.25-1.13-.26-2.24-.62-3.37-.78-.47-.07-1 .28-1.5.45.3.42.62.82.91 1.25.57.83 1.34 1.6 1.6 2.53.13.45-.69 1.18-1.07 1.78-.02.03 0 .08 0 .12 1.52.65 1.88 1.66 1.1 3Zm6.98-9.77c0 .01 0 .01 0 0Zm11.18 8.89-.76.32.27.42.49-.74Zm92.44 38.23c-1.63-.94-4.52.02-5.25 1.77-.7 1.65-1.32 3.34-2.03 4.99-.2.47-.62.85-.94 1.27-.3-.38-.68-.73-.9-1.15-.83-1.64-1.67-3.28-2.41-4.97-.7-1.57-1.8-2.35-3.63-2.35-.73.27-1.75.36-2.08.88-.25.39.28 1.4.63 2.03 1.8 3.27 3.66 6.5 5.45 9.76.85 1.54.28 2.74-1.45 3.17-.37.1-.77.09-1.15.15-1.28.2-1.87 1.03-1.97 2.43-.1 1.4.84 1.52 1.78 1.66 2.8.41 5.19-.3 6.72-2.78.97-1.55 1.75-3.23 2.55-4.89 1.66-3.42 3.28-6.87 4.93-10.3.3-.63.51-1.23-.25-1.66Z" fill="#fff"/><path d="M56.1 105.8c-1.72 4.41-3.21 8.85-3.75 13.55-.1.78.36 1.61.56 2.42.6-.66 1.48-1.23 1.74-2a53.1 53.1 0 0 0 2.24-8.14c.85-5.15 1.64-10.3 3.17-15.3.32-1.08.38-2.35 1.85-2.65.19-.05.4-.36.46-.6.95-3.48 1.87-6.97 2.8-10.47l-.56-.1-.52 1.55c-.67 2.03-1.3 4.06-2.03 6.06-.12.34-.68.51-1.05.76-.2-.42-.6-.88-.54-1.26.2-1.3.58-2.58.9-3.86l1-4.08-.37-.1c-.14.18-.33.35-.4.57-.94 2.97-1.92 5.94-2.76 8.94-.15.54.31 1.25.5 1.88.15.42.55.9.45 1.25-1.16 3.88-2.2 7.82-3.68 11.59Zm-27.05-60.06c.91.86 2 .6 2.5-.55.35-.78.56-1.62.78-2.44a6.58 6.58 0 0 1 2.94-4.2c1.66-1 3.34-1.96 5.02-2.9.9-.52 1.61-1.16 1.56-2.24.07-1.06-.41-1.7-1.3-2.05-.9-.36-1.74-.24-2.33.55-.4.54-.7 1.17-1 1.78-.81 1.65-1.08 1.7-2.29.41-1-1.06-1.74-1.15-2.46.1-.64 1.13-.76 2.55-1.19 3.82-.26.77-.52 1.61-1.03 2.2-.4.48-1.18.7-1.82.92-1.2.44-1.5 1.31-1.02 2.34.39.83.97 1.63 1.64 2.26Zm8.43 17.09c.76.7 1.55.43 1.86-.6.31-1.06.47-2.17.67-3.26a3.23 3.23 0 0 0-1.61-3.5c-1.15-.7-2.49-1.06-3.74-1.57-.91.43-2.19-.03-2.18 1.34.01 1.07.16 2.35.76 3.15a35.51 35.51 0 0 0 4.24 4.44Zm92.3 207.86c-.34-.28-.99-.19-1.18-.21-.67.03-1.01.02-1.35.07-1 .15-1.7.66-1.72 1.74-.02 1.16.7 1.71 1.79 1.77.8.04 1.7.11 2.4-.19.55-.23 1.15-1.02 1.16-1.56.02-.55-.6-1.22-1.1-1.62Zm7.09-58.07c-2.76-.62-7.62 1.65-8.9 4.16-.65 1.26-.2 2.2 1.2 2.46.41.08.85.08 1.26.11a9.9 9.9 0 0 0 7.35-3.78c1.05-1.32.6-2.6-.91-2.94v-.01Z" fill="#fff"/></svg>