<svg viewBox="0 0 420 131" fill="none" xmlns="http://www.w3.org/2000/svg"><g clip-path="url(#a)" fill="#fff"><path d="M346.94 72.94c.54-.94 1.02-1.77 1.52-2.6 3.41-5.75 7.6-10.96 12.15-15.96.43-.48.87-.57 1.5-.46a683.67 683.67 0 0 1 44.9 9.32c3.6.88 7.18 1.8 10.78 2.71.34.09.67.2 1.28.38-.52.26-.83.43-1.16.57-10.5 4.6-20.52 9.93-29.82 16.44-2.61 1.82-5.1 3.8-7.67 5.67-.61.44-.75.81-.4 1.5a145.59 145.59 0 0 1 13.68 39.44c.06.29.07.59.13 1.04-.48-.13-.83-.22-1.18-.34a469.65 469.65 0 0 0-78.69-19.51c-5.35-.86-10.72-1.62-16.05-2.59a18.7 18.7 0 0 1-7.79-3.22c-2.89-2.1-4.2-4.94-3.86-8.3.22-2.19.86-4.34 1.41-6.5.79-3.03 1.66-6.04 2.5-9.06l.32-.95c1.46.33 2.89.63 4.29.98 9.58 2.32 18.97 5.14 27.82 9.33 3.28 1.55 6.45 3.35 9.55 5.2 2.44 1.45 4.73 3.13 6.17 5.95.41-1.57.93-2.88 1.04-4.2a2.9 2.9 0 0 0-.99-2.12c-1.95-1.66-3.91-3.36-6.12-4.7-7.01-4.25-14.67-7.24-22.54-9.77-13.75-4.44-27.94-7.07-42.3-8.95-21.75-2.87-43.62-3.87-65.57-3.55a454.1 454.1 0 0 0-33.2 1.7c-14 1.23-27.9 3.1-41.6 6.1-12.58 2.75-24.81 6.44-36.19 12.3-2.96 1.54-5.66 3.5-8.45 5.3-.55.35-.98.89-1.44 1.34-1.05 1.03-1.45 2.18-.89 3.59.34.86.52 1.78.8 2.78 2.9-4.55 7.58-6.8 12.1-9.2 8.64-4.58 17.95-7.62 27.48-10.12 2.72-.7 5.46-1.34 8.3-2.04.5 1.76.96 3.4 1.41 5.05.8 2.86 1.61 5.72 2.34 8.59 1.66 6.56-.92 11.03-7.66 13.45-3.68 1.31-7.53 1.83-11.4 2.36a466.56 466.56 0 0 0-45.9 8.79 447.84 447.84 0 0 0-41.04 11.97c-.32.11-.66.19-1.2.34.3-1.5.54-2.8.83-4.1a145.1 145.1 0 0 1 13.04-36.38c.4-.76.14-1.1-.45-1.57-11.23-8.89-23.64-16-36.93-21.82l-1.71-.76c.62-.2.96-.32 1.31-.42a684.2 684.2 0 0 1 55.68-12.03c.68-.12 1.13.02 1.58.52 5.18 5.73 9.93 11.72 13.54 18.46.05.1.15.19.23.28l.27-.14c-1.47-2.9-2.84-5.84-4.42-8.68-3.93-7.09-8.92-13.52-14.25-19.73-3.72-4.32-3.78-8.09-.1-12.48 2.8-3.33 6.4-5.75 10.21-7.9 8.83-4.98 18.37-8.4 28.12-11.35 13.74-4.15 27.81-7.01 42.03-9.26a281.23 281.23 0 0 1 28.83-3.31c10.45-.56 20.9-.58 31.17 1.58a30.6 30.6 0 0 1 7.49 2.64c4.23 2.16 5.83 5.72 5.07 10.2-.65 3.83-2.41 7.29-4.06 10.8-1.6 3.4-3.25 6.8-4.7 10.27-1.24 2.97-1.86 6.08-1.17 9.29 1.02 4.76 4.96 8.18 10.4 9.06 6.17 1 12.28-2.03 14.4-7.15a12.63 12.63 0 0 0 .01-9.38c-1.22-3.36-2.7-6.65-4.22-9.9-1.82-3.95-3.98-7.76-4.93-12-1.25-5.54.7-9.37 6.1-11.85 3.94-1.81 8.2-2.52 12.5-3.02 11.14-1.29 22.27-1 33.4.13a353.98 353.98 0 0 1 54.62 9.7c10.86 2.87 21.5 6.32 31.53 11.24 4.74 2.32 9.29 4.92 13.02 8.57.92.9 1.76 1.88 2.47 2.9 2.61 3.79 2.37 7.16-.54 10.7-2.8 3.41-5.6 6.8-8.25 10.31a85.19 85.19 0 0 0-10.54 18.2c-.01.05.02.12.07.33h-.01Zm-26.89-2.69c.2-.48.38-.88.53-1.28 2.87-7.88 5.77-15.75 8.6-23.64a64.91 64.91 0 0 0 2.25-7.34c.62-2.7-.3-4.42-2.95-5.47-4.13-1.64-8.36-3-12.87-3.32-3.66-.25-6.96.74-9.54 3.3-4 3.97-3.65 9.72.77 13.67l1.4 1.2c-5.63 4.7-10.16 10.22-15.49 15.36 1.18.3 2.1.55 3.02.75 3.17.66 5.81-.06 7.98-2.46a190.1 190.1 0 0 1 6.71-6.92 13.9 13.9 0 0 1 2.75-2.22c1.74-1.03 3.53-.58 5.37.18l-5.77 15.94 7.24 2.24v.01Zm-199.78-31.89c0 .58-.02 1.15 0 1.72.02.53.09 1.06.17 1.6.7 5.17 2.5 9.92 6.1 13.97 2.52 2.82 5.6 4.84 9.58 5.25 7.3.76 13.31-2.95 15.63-9.51 1.45-4.08 1.6-8.24.8-12.44-1.02-5.45-3.25-10.35-7.64-14.2-6.3-5.55-16.13-4.69-21.17 1.89-2.69 3.5-3.47 7.52-3.47 11.73Zm167.17 23.02-.6-5.97c-.91-8.49-1.79-16.97-2.77-25.45a32.51 32.51 0 0 0-1.22-5.81c-1.22-4-7.46-4.95-9.94-1.9a28.75 28.75 0 0 0-3.1 4.56c-4.24 7.96-8.38 15.96-12.55 23.96l-2.7 5.21c1.63.13 3.03.3 4.44.33a5.24 5.24 0 0 0 5.18-3.09c.87-1.73 1.83-3.43 2.66-5.17.37-.77.84-.98 1.67-.82 3.14.62 6.3 1.21 9.44 1.8.57.1.85.34.9.93.17 1.9.42 3.8.6 5.71.16 1.53.64 2.9 2.02 3.85 1.7 1.17 3.67 1.57 5.96 1.84l.01.02Zm-129.94-4.47c1.53-.26 2.84-.4 4.1-.7 2.45-.6 3.9-2.05 4.34-4.46 1.52-8.24 3.11-16.46 4.68-24.69.06-.33.17-.65.33-1.26l1.06 2.44 9.36 22c.54 1.28 1.3 2.4 2.69 2.99 2.1.89 4.28.69 6.6.38-.21-.54-.35-.95-.52-1.35-3.79-8.92-7.58-17.83-11.39-26.75-1-2.36-1.97-4.73-3.63-6.82-2.33-2.93-8.31-2.53-9.9 1.05a20.14 20.14 0 0 0-1.42 4.1c-1.7 8.55-3.3 17.12-4.92 25.68-.46 2.37-.88 4.75-1.39 7.4l.01-.01Zm-65.63 7.24c.32.17.7.3 1 .55a16.9 16.9 0 0 0 22.32-.71c2.93-2.8 4.13-6.13 2.97-9.96-1.16-3.8-4.05-5.88-8.1-6.65-.22-.04-.42-.16-.7-.27l.47-.52c5.41-5.79 2.47-14.56-5.48-16.4-8.52-1.96-17.57 3.5-19.2 11.58-.04.21 0 .44 0 .7a6.6 6.6 0 0 0 6.37-2.42c.66-.79 1.11-1.72 1.67-2.58a6.4 6.4 0 0 1 7.47-2.7c3.27 1.12 4.62 3.66 5.03 6.7.36 2.69-1 4.71-3.7 5.7-.43.16-.89.27-1.3.48-.92.48-1.33 1.35-1.1 2.19.28.94 1.06 1.5 2.16 1.47.46-.02.91-.2 1.37-.2 1.2-.02 2.45-.2 3.58.06 2.63.61 4.29 3.02 4.41 6.15a6.27 6.27 0 0 1-3.13 5.94c-2.24 1.37-4.57 1.32-6.92.16-.56-.29-1.13-.58-1.72-.8-2.65-1.03-5.63-.5-7.46 1.54v-.01Zm166.77-46.04c-.47-.05-.81-.1-1.16-.12-5.45-.38-10.9-.8-16.36-1.13-3.46-.2-6.93-.26-10.4-.42-.82-.05-1.18.18-1.19.97 0 .8-.08 1.61-.16 2.41-.14 1.52-.15 1.5 1.51 1.55 2.58.1 5.15.25 7.72.32.89.03 1.13.3 1.05 1.16-1.03 10.23-2.02 20.47-3.04 30.7-.08.79.21 1 .95 1.06 2.03.14 4.07.28 6.1.5.87.08 1.1-.25 1.17-.99.35-3.91.72-7.83 1.1-11.74.6-6.36 1.23-12.7 1.8-19.07.1-.95.49-1.17 1.41-1.07 2.56.27 5.12.5 7.68.7.33.02.95-.2 1-.39.32-1.44.54-2.89.8-4.43l.02-.01Z"/><path d="M200.03 106.76c-.05-.89-.13-1.69-.15-2.48l-.64-17.93c-.02-.4.02-.8.05-1.2.2-2.87.86-3.57 3.91-3.62 4.3-.07 8.58-.02 12.87 0 .53 0 1.07.09 1.59.2 1.26.25 1.91.89 2.1 2.11.1.7.19 1.4.17 2.11-.21 6.58-.48 13.15-.68 19.74-.03.94-.37 1.22-1.33 1.14a21.5 21.5 0 0 0-2.78-.04c-.81.03-1.05-.27-1.02-1 .15-3.76.26-7.52.38-11.28.1-2.79.16-5.57.3-8.36.03-.78-.28-.97-1.05-.96-2.72.03-5.43.05-8.14 0-1-.03-1.27.26-1.24 1.19.25 6.37.43 12.75.7 19.12.04 1.04-.26 1.37-1.35 1.3-1.2-.09-2.4-.02-3.69-.02v-.02Zm48.82 1.01 7.45-11.47c-.95-1.21-2.2-2.29-2.77-3.61-2-4.67 1.24-9.2 6.75-9.33 2.69-.07 5.42.31 8.1.67 1.85.24 2.58 1.1 2.46 2.85-.18 2.48-.54 4.94-.9 7.4-.66 4.6-1.4 9.17-2.05 13.77-.13.9-.49 1.22-1.43 1.07a23.9 23.9 0 0 0-2.68-.22c-.93-.02-1.2-.34-1.06-1.25.46-2.85.84-5.72 1.21-8.58.15-1.1 0-1.19-1.19-1.17a3.86 3.86 0 0 0-3.4 1.94c-1.06 1.67-2.14 3.34-3.21 5-1.83 2.84-3.38 3.5-7.28 2.91v.02Zm16.81-20.89c-1.64-.09-3.17-.33-4.66-.23a3.88 3.88 0 0 0-3.5 3.75c-.07 1.9 1.06 3.34 3.05 3.7 1.08.2 2.2.27 3.3.32.26 0 .75-.32.8-.54.37-2.24.66-4.5 1.02-6.99h-.01Zm-103.42 8.96c3.1 3.5 5.21 7.84 8.03 11.83-2.87.84-5.35.02-6.78-2.15-1.24-1.88-2.45-3.79-3.67-5.69a3.92 3.92 0 0 0-3.73-1.92c-.74.03-1 .28-.9 1 .43 2.85.82 5.72 1.23 8.57.19 1.31.19 1.32-1.26 1.42-.9.07-1.79.1-2.67.23-.8.1-1.07-.2-1.18-.9-.61-4.26-1.27-8.5-1.9-12.76l-.97-6.49c-.05-.37-.1-.73-.11-1.1-.14-2.9.33-3.72 4.07-4.14.8-.1.75.48.81.9.4 2.8.79 5.6 1.16 8.4.2 1.51.31 1.58 1.87 1.22a3.95 3.95 0 0 0 2.87-2.5c.75-1.78 1.48-3.57 2.2-5.35 1.13-2.7 3.05-3.81 6.46-3.58l-5.54 13h.01Zm32.86 10.91c-3.26.7-5.19-.28-6.2-3.05-.32-.89-.67-1.77-.93-2.67-.2-.71-.56-.96-1.37-.9-1.6.14-3.2.22-4.82.2-1.11-.01-1.69.34-1.83 1.43-.12.9-.48 1.75-.64 2.65-.33 1.87-1.6 2.78-3.46 3.07-.73.12-1.47.16-2.39.25.14-.67.23-1.15.35-1.62 1.57-6.3 3.14-12.62 4.75-18.92.28-1.1.65-2.21 1.2-3.21a3.98 3.98 0 0 1 6.77-.36 14.62 14.62 0 0 1 1.67 3.47c2.26 6.23 4.45 12.5 6.65 18.73.1.28.16.57.25.93Zm-11.57-18.22h-.26l-2 8.14h5.13l-2.87-8.14Zm52.13-.24c-.34.89-.58 1.5-.8 2.12l-4.71 13.29c-.96 2.7-3.04 3.76-6.2 3.05.08-.32.15-.64.25-.94 2.25-6.34 4.47-12.68 6.75-19.01a14.4 14.4 0 0 1 1.5-3.1c1.68-2.52 5.5-2.42 6.8.28.97 2.05 1.5 4.32 2.07 6.53 1.4 5.35 2.7 10.72 4.04 16.08.08.3.11.63.18.94-3.31.45-5.17-.7-5.89-3.52l-3.6-14.41c-.09-.35-.2-.68-.4-1.3v-.01Zm88.92-52.99-4.56 12.79c-2.32-.74-4.6-1.23-6.67-2.18-3.22-1.47-4.13-5.72-2.13-9a6.3 6.3 0 0 1 6.62-3.16c2.21.31 4.36.99 6.74 1.55Zm-196.99.77c.42-2.13.78-4.27 1.3-6.39a6 6 0 0 1 1.14-2.14 5.15 5.15 0 0 1 7.16-1.25c1.3.88 2.55 2.03 3.35 3.31 4.1 6.53 5.65 13.58 4.32 21.1a10.1 10.1 0 0 1-1.44 3.54c-1.7 2.7-4.94 3.26-7.67 1.45-2.12-1.4-3.43-3.4-4.5-5.54a33.04 33.04 0 0 1-3.4-14.04 2.98 2.98 0 0 1-.27-.06v.02Zm149.11-6.17 1.56 14.51-8.7-1.52 6.82-13.06.31.06Z"/></g><defs><clipPath id="a"><path fill="#fff" transform="translate(.056)" d="M0 0h419v131h-419z"/></clipPath></defs></svg>