<svg viewBox="0 0 321 79" fill="none" xmlns="http://www.w3.org/2000/svg"><g clip-path="url(#a)" fill="#fff"><path fill-rule="evenodd" clip-rule="evenodd" d="m53.27 68.42-6.33 10.58h272.93v-10.58h-266.6Zm-11.45-67.52v40.73c0 1.2-.04 2.48-.12 3.8a11.32 11.32 0 0 1-.67 3.32c-.3.82-.83 1.54-1.54 2.06-1.28.97-4.54.92-5.7 0a4.6 4.6 0 0 1-1.53-2.07 10.3 10.3 0 0 1-.64-3.24c-.06-1.32-.08-2.6-.08-3.8v-40.8h-13.47v40.97c-.08 3.25.35 6.5 1.28 9.61a16.31 16.31 0 0 0 4.04 6.69c7.12 6.61 20.38 6.04 26.97-.81a16.85 16.85 0 0 0 3.77-7.36 41.32 41.32 0 0 0 1.08-9.98v-39.13h-13.41.02Zm181.83 34.4h-9.58l4.84-19.44 4.74 19.45Zm3.67-34.4h-16.4l-14.91 60.94h12.4l3.5-15.48h13.96l3.5 15.48h12.45l-14.5-60.94Zm-148.37 50.23 2.54 10.97 12.84-.4-6.07-29.07-9.31 18.5Zm-3.74-39.63-2.54-10.95-12.84.39 6.07 29.07 9.31-18.5Zm9.49-10.6-29.31 61.02h14.13l28.55-61.02h-13.37Z"/><path fill-rule="evenodd" clip-rule="evenodd" d="m123.3.9-8.96 43.47-8.88-43.47h-12.65l13.2 60.95h16.67l13.3-60.95h-12.69Zm196.57 61.23h-31.24v-60.98h31.24v9.26h-18.9v14.96h19.09l-.1 9.25h-19v18.27h18.91v9.24Zm-44.62.03v-3c-12.13 8.06-29.1 4.06-31.13-13.23-1.03-8.81-1.78-26.84 2.36-34.72 5.51-10.49 19.8-13.7 30.36-5.94 3.5 2.54 5.46 6.7 5.38 12.4l-.1 6.25h-12.82v-8.24c0-5.76-12.37-5.93-12.37.79v32.67c0 6.07 12.37 7.04 12.37 0v-7.98h-6.27v-9.03h19.06v30.03h-6.84Zm-81.44-44.7h-13.46v-3.03c0-3.18-1.19-4.73-3.57-4.73-1.38 0-2.3.38-2.8 1.13-.5.75-.77 1.95-.77 3.6a7.3 7.3 0 0 0 1.92 5.3 125.6 125.6 0 0 0 7.53 6.8c3.74 3.2 6.54 6.28 8.4 9.22 1.85 2.96 2.77 6.55 2.77 10.78 0 5.68-1.44 9.9-4.29 12.65s-7.13 4.13-12.83 4.13c-4.89 0-8.93-1.06-12.13-3.17-3.2-2.12-4.8-5.6-4.8-10.45v-5.43h13.47v4.66c0 1.75.28 2.97.82 3.63.54.66 1.46 1 2.75 1 2.38 0 3.56-1.54 3.56-4.62 0-3.09-.78-5.51-2.33-7.3a63.4 63.4 0 0 0-7.62-7.05 37.58 37.58 0 0 1-7.96-8.54c-1.8-2.8-2.7-6.4-2.69-10.82 0-10.15 5.75-15.22 17.25-15.22 5.03 0 9.1 1.06 12.17 3.17 3.07 2.1 4.61 5.54 4.61 10.3v3.99Z"/><path d="M153.54 1.15h-13.11v60.98h13.1v-60.98Z"/><path fill-rule="evenodd" clip-rule="evenodd" d="M41.84 79h-41.78v-77.85h12.62v67.27h35.63l-6.47 10.58Z"/></g><defs><clipPath id="a"><path fill="#fff" transform="translate(.056)" d="M0 0h320v79h-320z"/></clipPath></defs></svg>