<svg xmlns="http://www.w3.org/2000/svg" viewBox="0 0 1094.43 200" style="enable-background:new 0 0 1094.43 200" xml:space="preserve"><path d="M0 200h31.96v-129.3l50.85 111.87h36.32l55.2-111.87v129.3h33.42v-197.58h-39.23l-65.73 137.72-66.47-137.72h-36.32zm253.27-197.58v197.58h128.33v-34.87h-101.21v-51.81h96.37v-35.36h-96.86v-47.45h107.51v-28.09zm311.86 163.2v-163.2h-116.71l-1.57 47.8a230.17 230.17 0 0 1-9.08 56.8c-6.33 21.68-15.04 51.65-20.83 59.4l-17.43.17v33.41h188.86v-33.9l-23.24-.48zm-32.44 1.45-78.45-.65 7-19.95a301.13 301.13 0 0 0 14.48-61.04l7.1-54.92h49.88l-.01 136.56zm85.23-167.07v200h35.35l93.94-145.28v145.28h34.87v-200h-40.68l-92.98 141.4v-141.4zm298.3 0h-46.01l-68.77 200h37.29l18.89-52.3h71.19l16.95 52.3h38.26l-67.8-200zm-49.64 118.16 26.15-73.59 26.15 73.59h-52.3zm133.9 0h35.35l21.31-47.46v129.3h37.29v-200h-39.71z" style="fill:#fff"/></svg>