<svg viewBox="0 0 321 121" fill="none" xmlns="http://www.w3.org/2000/svg"><g clip-path="url(#a)" fill="#fff"><path d="M255.4 73.43c.1.37.39.22.6.22h8.7c.22 0 .5.1.63-.21.02-.45.05-.88.05-1.33 0-17.71 0-35.43.02-53.14 0-.4-.21-.87.18-1.22.8 1.03 1.63 2.04 2.43 3.08 2.3 3 4.57 6.02 6.86 9.02l5.7 7.4c1.99 2.6 3.95 5.23 5.93 7.86.68.42 1.38.32 2.08.05l5.6-7.42c1.52-2 3.06-3.98 4.57-5.98 1.85-2.45 3.68-4.91 5.52-7.36 1.58-2.09 3.17-4.16 4.73-6.25.19-.25.3-.49.64-.42v54.38c0 .44.04.88.06 1.32.13.32.4.22.63.22h8.7c.2 0 .5.14.6-.23l.03-1.32v-58.26c0-3.94 0-7.88.02-11.83 0-.61-.06-.91-.77-.9-2.64.05-5.29.04-7.93.01-.51 0-.83.2-1.12.6-.75 1.04-1.52 2.05-2.3 3.06l-5.02 6.56-4.91 6.4-5.1 6.64c-1.55 2.02-3.08 4.06-4.62 6.08-.3.4-.41.3-.72-.11-1.53-2.08-3.13-4.1-4.71-6.15-2.38-3.03-4.78-6.06-7.14-9.1-3.4-4.4-6.79-8.8-10.14-13.22a1.7 1.7 0 0 0-1.56-.75c-2.36.02-4.73.05-7.1-.01-.91-.03-1.2.19-1.19 1.23.04 23.32.03 46.65.03 69.97 0 .37.02.74.03 1.1h-.01Zm-103.95 0c.07.32.3.23.5.23h8.75c.2 0 .42.06.53-.21.37-.27.2-.68.2-1.01v-70.3c0-.31.21-.73-.22-.97-2.88-.01-5.77.03-8.66-.06-.98-.03-1.16.3-1.16 1.27.03 23.32.02 46.63.02 69.94 0 .37.02.74.04 1.1v.01Zm167.57 9.52h-166.76l-1.04.03h-.01a.28.28 0 0 0-.2 0v2.16l.11.01.1-.02 1.04.03h166.76c.34 0 .7-.01 1.04-.03v-2.15c-.35 0-.7-.03-1.04-.03Zm-8.58 11.73a.82.82 0 0 0-.28-.12c-.85-.33-1.43-.34-1.78.01-.25.04-.3.18-.3.6-.08.26-.12.59-.12.99s.04.8 0 1.2c-.11.96.26 1.95-.21 2.88-1.6-1.86-3.19-3.73-4.77-5.6-.53-.4-1.13-.1-1.7-.2-.5-.07-.64.22-.63.72l.06 9.45c.04.06.08.07.12.05.77.3 1.53.32 2.3-.06v-5.65l.23-.04 4.83 5.7a2.3 2.3 0 0 0 2.23 0v-9.93h.02Zm-52.21 5.12-4.3-5.15c-.77-.3-1.53-.38-2.3.03v9.92c.77.38 1.54.36 2.3.06.04.02.08.02.13-.05l.05-5.73c1.26.98 2.09 2.38 3.14 3.57l2.07 2.35c.65-.04 1.33.24 1.94-.12.03 0 .07-.02.1-.07.02-2.79.07-5.58.05-8.37-.01-2.02.4-1.74-1.7-1.81-.66-.02-.82.24-.81.9.04 1.61 0 3.23 0 4.85-.33.1-.5-.18-.67-.38Zm40.57.2c.33-.39.23-.77 0-1.15-.05-.21-.07-.43-.14-.63-.73-2.27-2.35-3.37-4.47-3.81a1.74 1.74 0 0 0-1.68 0c-.39.09-.8.14-1.17.27a5.02 5.02 0 0 0-3.44 4.18 1.56 1.56 0 0 0 0 1.56 4.15 4.15 0 0 0 1.1 2.59 6.32 6.32 0 0 0 3.5 2.02c.57-.03 1.16.21 1.7-.17 2.35.12 4.72-2.7 4.6-4.86Zm-4.8 2.64c-.43.04-.88-.17-1.28.17-2.6-.4-3.05-4.06-1.38-5.5 1.64-1.43 4.07-.64 4.97 1.76v1.14c-.24 1.37-1 2.2-2.3 2.43Zm-20.5 12.62a6.46 6.46 0 0 0-3.56-.1h-.15v.04l-.21.05c-.04 1.29.43 1.95 1.42 2 .24 1.1-.37 1.34-1.22 1.32h-1.28c-1.25-.19-1.98-.98-2.31-2.23v-1.34c.27-1.47 1-2.12 2.72-2.45h1.28c1 .05 1.87.75 2.9.65.36-.71.35-1.42 0-2.13-.78-.44-1.7-.35-2.5-.74a2.98 2.98 0 0 0-2.3 0c-.87.24-1.74.48-2.56.92-2.27 1.22-2.83 4.86-1.61 6.96 1.02 1.75 2.6 2.38 4.37 2.73h1.5c.4.01.79-.15 1.18-.22 1.8-.31 2.35-1.05 2.35-2.94l-.01-2.53Zm-32.72-20.61c-.16-.29-.43-.2-.66-.2l-4.14.02c-.31.19-.24.5-.24.79v8.66c0 .26-.03.52.19.71l.04-.02c.04.24.23.23.4.23l4.6-.04c3-.42 4.44-2.21 4.5-5.06.06-3.09-2.01-5-4.7-5.09Zm-.44 8.16c-.59-.4-1.25-.06-1.86-.2v-5.93l1.67-.04c1.67.06 2.43.74 2.7 2.42v1.16c-.19 1.56-1.09 2.35-2.5 2.58h-.01Zm-49.59 11.97c.16-.27.09-.65.36-.87.27-.38.25-.75-.01-1.12-.54-1.24-1.24-2.26-2.72-2.22-1.45-.45-2.93-.1-4.4-.2-.16-.01-.35-.02-.4.23v9.92c.82.38 1.64.38 2.45 0 .01-.95 0-1.9.04-2.86.02-.36-.24-.88.2-1.06.45-.2.88.11 1.2.46.25.27.49.6.65.95.4.82.75 1.67 1.11 2.51.9.38 1.8.4 2.7.02-.45-1.08-.86-2.16-1.33-3.22-.58-1.28-.6-1.27.15-2.53Zm-3.22-.17-1.45-.07c0-.33-.07-.67 0-.98.08-.4-.36-1.06.32-1.17.77-.14 1.68-.17 2.07.73.37.85-.31 1.2-.94 1.5v-.01Zm9.83-13.95c.41-1.83.08-3.68.18-5.5.01-.25.06-.53-.22-.67h-2.26c-.33.18-.22.5-.22.78 0 1.87 0 3.74.02 5.6-.07.13-.16.25-.21.37-.56 1.2-1.64 1.84-2.7 1.6-.98-.22-1.7-1.35-1.71-2.65l-.03-5.51a2.75 2.75 0 0 0-2.45 0c0 1.98.04 3.96-.04 5.94a3.83 3.83 0 0 0 2.16 3.8 6.6 6.6 0 0 0 1.8.61c.64 0 1.3.2 1.9-.17 2.25-.18 3.65-1.74 3.78-4.2Zm3.07 9.94a4.07 4.07 0 0 0-2.9-.03c-.13.2-.29.4-.37.62l-3.55 9.33c.88.39 1.76.39 2.65 0 .35-.56.36-1.3.86-1.8l4.17.08c.23.66.3 1.4.84 1.9.83-.02 1.68.32 2.47-.18l-4.17-9.92Zm-2.67 6.15c.2-1.23.8-2.3 1.2-3.76l1.5 3.77h-2.7Zm60.68-6.15a4.1 4.1 0 0 0-3.04 0l-3.76 9.93c.88.38 1.76.39 2.65 0 .18-.6.33-1.2.67-1.73.85-.01 1.71-.05 2.57-.02.6.03 1.24-.2 1.79.24l.62 1.53c.8.44 1.66.16 2.5.18.3.01.22-.26.04-.42-1.35-3.24-2.7-6.47-4.03-9.7Zm.03 6.13-2.7.1c.02-1.14.6-2.1.98-3.11.2-.55.44-.15.57.17l1.15 2.84Zm48.23 1.49c-2.48 1.15-4.35.49-5.38-1.88.33-.5.13-1.06.15-1.6.28-1.2 1.4-2.04 2.71-2.18 1.38-.15 2.56.48 3.8.91.32-.74.3-1.5 0-2.24-.63-.68-1.58-.45-2.3-.9-.7-.3-1.4-.3-2.1 0-.39.1-.79.17-1.18.27-2.2.56-4.03 3-3.78 5.18.35 3.1 1.93 4.61 4.55 5 .6.32 1.26.2 1.9.18a7.44 7.44 0 0 0 3.08-1.1c.37-.8.43-1.6-.02-2.39-.48.25-.94.53-1.42.75Zm10.9-19.38c-.74-.33-1.55-.49-2.23-1-.3-.23-.64-.4-.49-.82a.9.9 0 0 1 .9-.6c.97 0 1.89.14 2.75.64.23.13.53.45.84.16.35-.34-.1-1.9-.5-2.2-.53-.4-1.21-.2-1.72-.6a2.04 2.04 0 0 0-1.88 0c-.23.05-.46.1-.69.18-1.49.52-2.25 1.38-2.2 2.76a3.08 3.08 0 0 0 1.84 2.83c.75.38 1.53.69 2.3 1 1.05.45 1.08.87.22 1.67-.5.05-1.03-.2-1.5.17-.87-.3-1.7-.71-2.45-1.27a2.6 2.6 0 0 0 0 2.38l2.45.88 1.3.01c.27.13.43-.14.66-.2 1.6-.37 2.6-1.5 2.65-2.94.04-1.21-.95-2.46-2.25-3.05Zm-88.32 3.97-.01-.55c.02-1.87-.18-1.56 1.55-1.64.87-.05 1.78.3 2.61-.24l-.02-1.73c-.17-.43-.54-.2-.8-.22-1.1-.04-2.21-.03-3.31-.05-.04-2.1-.14-1.64 1.64-1.75.9-.05 1.84.33 2.7-.23l-.01-1.73c-.06-.07-.13-.2-.2-.2l-6.33-.04c-.5 0-.54.31-.54.72.03 3.15.04 6.3.06 9.46.1.27.33.21.52.21h6c.2 0 .43.07.52-.22l.02.01c.27-.59.34-1.17-.04-1.75l-4.35-.06v.01Zm-52.18 0-.01-.55c.01-1.87-.18-1.56 1.55-1.64.87-.05 1.78.3 2.6-.24v-1.73c-.19-.41-.55-.21-.82-.22-1.1-.03-2.21-.03-3.32-.04-.03-2.12-.13-1.65 1.65-1.75.9-.05 1.84.32 2.7-.24v-1.73c-.05-.24-.24-.23-.4-.23l-6.45.04c-.3.14-.22.43-.22.67v9c0 .22-.1.52.22.65l6.35.03c.19 0 .43.06.52-.22h.02c.27-.58.34-1.17-.04-1.75l-4.35-.06v.01Zm106.53 16.19c0-.07-.06-.13-.1-.2l-4.36-.07v-.55c0-1.87-.2-1.56 1.54-1.64.87-.04 1.77.28 2.61-.22.32-.6.37-1.21.06-1.81.02-.05 0-.1-.08-.15l-4.12-.05v-.01c-.04-2.1-.13-1.65 1.64-1.74.9-.05 1.84.3 2.72-.22a1.9 1.9 0 0 0 .05-1.82c.03-.05 0-.1-.08-.14-2.08-.01-4.17 0-6.25-.04-.65-.01-.83.22-.82.89.03 2.9.03 5.81 0 8.72 0 .63.2.82.78.8 1.78-.02 3.55 0 5.32 0 1.28 0 1.56-.4 1.1-1.68v-.09l-.01.01Zm-64.59-6.13c0-1.7-.82-2.54-2.47-2.48-.26.14-.24.41-.24.67v9c0 .26-.03.53.24.68.48 0 .97-.03 1.45.03.82.1 1.06-.21 1.04-1.09-.06-2.27-.02-4.54-.02-6.8Zm-57.4-2.49c-.64.07-1.3-.25-1.9.19-.14.11-.28.22-.4.35-.7.88-1.38 1.77-2.09 2.65-.4.49-.65.8-1.16-.05-.64-1.08-1.56-1.97-2.36-2.95-.67-.41-1.4-.14-2.1-.16-.29.14-.22.42-.22.67v8.98c0 .24-.07.52.22.66l2.25.02c.42-.33.2-.8.23-1.2.13-1.5-.22-3.03.19-4.5.63.79 1.33 1.53 1.87 2.4.36.56.54.48.91.08.74-.78 1.2-1.8 2.03-2.52.51 1.4.08 2.87.23 4.3.05.48-.22 1.03.23 1.44l2.27-.03c.05-.05.15-.09.15-.13l.05-9.7c0-.3-.1-.53-.41-.5Zm52.49-15.89c-.72.02-1.47-.33-2.15.19v9.92a2.7 2.7 0 0 0 2.29.06c.04.02.08.02.13-.05l.05-9.44c0-.28.07-.7-.32-.68Zm70.04-.04c-.52-.09-.63.23-.63.72l.06 9.44c.04.06.08.07.12.05.77.3 1.53.32 2.3-.06v-9.92c-.57-.5-1.24-.12-1.85-.23Zm-39.05 15.95h-2.25c-.38.25-.23.65-.24 1v3.5c-.01.36.12.76-.24 1.02-.27-.27-.56-.53-.81-.82-1.31-1.52-2.47-3.17-3.94-4.53-.67-.41-1.39-.14-2.1-.16-.28.14-.21.42-.21.66v8.98c0 .24-.07.53.22.67l2.25.01c.37-.25.23-.65.23-.98.02-1.6.01-3.19.02-4.78.25.24.51.47.75.73 1.45 1.57 2.63 3.42 4.23 4.85.67.42 1.39.15 2.09.17.29-.14.22-.43.22-.67v-8.98c0-.24.07-.52-.22-.66Zm-77.22.66c0-.26.03-.53-.24-.67-.48-.01-.97.03-1.45-.03-.82-.11-1.06.2-1.04 1.08.05 2.27.02 4.54.02 6.81 0 1.71.82 2.54 2.47 2.49.27-.15.24-.42.24-.67v-9.01Zm45.8-.69-8.83.03c-.03 0-.05.03-.08.07v.05c-.33.57-.1 1.2-.12 1.8 1.13.56 2.33.1 3.48.28.01 1.88.03 3.75.03 5.63 0 1.73.83 2.57 2.48 2.5.4-.29.23-.73.23-1.1.02-2.06.03-4.12 0-6.17-.01-.67.2-.87.83-.9.83-.04 1.7.3 2.5-.23l-.01-1.73c-.07-.31-.32-.23-.5-.23Zm-7.15-10.41-4.46-5.28c-.7-.5-1.48-.13-2.22-.21-.31.18-.24.5-.24.78v8.67c0 .25-.03.52.19.7l.04-.01c.75.38 1.5.38 2.26 0l.04.02c.3-.3.18-.7.18-1.04l.01-4.74c.2.19.44.36.62.57l4.22 5.19c.74.38 1.49.39 2.24 0l.04.02c.18-.16.18-.38.18-.6v-8.89c0-.25.03-.52-.23-.67h-2.24c-.38.26-.23.66-.23 1-.02 1.22 0 2.43-.01 3.63 0 .33.16.79-.39.86Zm-26.15 15.3-.16-.05h-.03a6.44 6.44 0 0 0-3.74.05l.02 1.73c.33.48.82.1 1.2.27v1.03c-.28.32-.66.24-1.01.29-.43.02-.9-.2-1.3.16-1.02-.51-2.18-.87-2.3-2.38v-1.59c.38-1.47 1.43-2.01 2.73-2.22h1.28l2.69.71c.1.1.3.2.33.05.1-.75.32-1.53-.15-2.25l-2.67-.73a2.6 2.6 0 0 0-2.1 0c-.34.01-.64.21-.98.28a4.35 4.35 0 0 0-3.59 3.24c-.52 1.85-.37 3.62.93 5.16 1.03 1.23 2.4 1.65 3.83 1.94.5-.03 1.04.22 1.5-.16a4.5 4.5 0 0 0 3.34-1.33c.42-1.38.1-2.8.17-4.2h.01Zm-8.09-75.63c.23 1.9.35 3.8.7 5.67a38.2 38.2 0 0 0 4.36 11.71 34 34 0 0 0 7.98 9.5 33.66 33.66 0 0 0 12.33 6.55 35.3 35.3 0 0 0 8 1.44h6.06c.6.17 1.15-.13 1.72-.16 2.73-.15 5.4-.79 7.98-1.64a36.46 36.46 0 0 0 13.78-8.16 35.27 35.27 0 0 0 6.92-9.3c2.66-5.06 3.88-10.55 4.28-16.29.3-1.1.3-2.21 0-3.32-.32-1.66-.35-3.37-.63-5.04a36.5 36.5 0 0 0-2.49-8.51 35.72 35.72 0 0 0-9-12.66 35.5 35.5 0 0 0-9.4-6.04c-4.6-2.02-9.47-2.84-14.4-3.16a3.7 3.7 0 0 0-2.52 0c-2.76.15-5.49.53-8.2 1.11a33.8 33.8 0 0 0-11.84 5.06 32.07 32.07 0 0 0-8.28 8.03 38.83 38.83 0 0 0-4.68 8.65 42.33 42.33 0 0 0-2.43 9.8c-.12.88-.33 1.83-.07 2.75-.38 1.32-.11 2.67-.16 4.01Zm10.46-5.55a29.4 29.4 0 0 1 4.14-12.04c3.68-5.84 8.78-9.59 15.26-11.14 1.55-.37 3.15-.65 4.75-.72l1.24-.02 2.97.02a24.26 24.26 0 0 1 15.93 6.25 27.17 27.17 0 0 1 7.46 11.37 31.5 31.5 0 0 1 1.67 7.8v3.14c-.64 6.12-2.43 11.75-6.17 16.57-3.56 4.6-8.3 7.06-13.57 8.61a25.71 25.71 0 0 1-10.03.83 25.9 25.9 0 0 1-15.64-7.17 26.23 26.23 0 0 1-7.9-15.48c-.1-.76-.08-1.52-.19-2.27v-3.34c-.36-.81-.02-1.65.08-2.42v.01Zm136.9 76.35-2.73-.03c-.92.85-1.4 2.06-2.22 3.02-.86-.77-1.26-1.92-1.99-2.82-.82-.52-1.71-.11-2.56-.23-.18-.02-.46-.1-.5.22-.02.24.19.36.37.47l3.39 4.8-.03 4c0 .3-.1.66.23.88l2.25-.02c.3-.14.23-.42.23-.66 0-1.4-.02-2.79-.03-4.18l3.57-5.29.06-.09-.03-.06Zm-54.53-5.83c.29-.6.31-1.34.86-1.8l4.17.08c-.01.68.4 1.18.67 1.73.81.52 1.7.15 2.54.18.15 0 .1-.28-.06-.4l-4.01-9.7a4.07 4.07 0 0 0-2.91-.03c-.84 1.66-1.4 3.45-2.04 5.19-.59 1.58-1.34 3.1-1.71 4.78l-.08.07.01.07c.86.04 1.73.32 2.56-.16Zm4.2-3.78-2.7.02c.24-1.18.65-2.27 1.28-3.54l1.41 3.53Zm-47.62 3.78.07-7.93c.5 0 1.02.04 1.53-.02.65-.07 1.35.27 1.95-.23-.02-.6.22-1.24-.12-1.81.01-.04-.01-.08-.08-.12h-9.14c-.02 0-.05.02-.07.07v.05c-.34.57-.1 1.2-.12 1.8 1.13.56 2.32.1 3.48.27l.07 7.93c.8.38 1.62.38 2.44 0Zm56.84.06c.04.02.08.01.13-.05l.08-7.94c1.16-.18 2.35.3 3.48-.26-.02-.6.22-1.24-.12-1.81.01-.04-.01-.07-.07-.12l-7.62-.04c-1.8 0-1.8 0-1.74 1.96.24.4.61.24.93.25.86.02 1.71.01 2.57.01l.06 7.94c.76.37 1.53.36 2.3.06Zm-106.66 0c.04.02.08.01.13-.05l.04-9.44c0-.28.08-.7-.3-.68-.73.02-1.48-.33-2.16.19l-.07 3.73-4.53-.01c0-.43.02-.87-.03-1.3-.1-.87.26-1.78-.22-2.6l-2.25-.03c-.03.03-.08.04-.09.07v.18h-.01v.1c-.22 3.27-.28 6.54.05 9.81l.04-.02c.75.4 1.51.37 2.27 0l.02.02c.33-.28.18-.67.19-1.02.03-.98.02-1.96.03-2.94 1.31-.01 2.63 0 3.94-.04.5-.02.65.16.64.68-.03 1.1.01 2.2.02 3.3a2.8 2.8 0 0 0 2.3.06h-.01Zm122.1 5.74c-.43.34-.19.8-.22 1.21-.13 1.49.23 3-.2 4.48l-4.8-5.52c-.76-.31-1.53-.38-2.28.03v9.92c.49.5 1.08.13 1.63.23.7.14.87-.22.85-.92-.04-1.67-.01-3.35-.01-5.03.38.2.59.57.86.89 1.43 1.69 2.9 3.35 4.35 5.03.69-.06 1.4.3 2.06-.2v-9.92c-.72-.47-1.5-.15-2.25-.19Zm-142.38-13.76 3.3.05c.02 2.38.02 4.75.05 7.13 0 .33-.2.75.22.99.77-.05 1.57.25 2.32-.2.27-.3.16-.7.16-1.05.01-1.99.03-3.98 0-5.97-.02-.72.2-.96.88-.95.75 0 1.52.2 2.25-.15.34-.66.36-1.33 0-1.99-3.05 0-6.1-.02-9.14-.03-.4.72-.35 1.44-.04 2.17Zm-11.92-37.59v-3.5c-.01-.45.17-.93-.15-1.36-.27-1.71-.24-3.47-.48-5.19a94.41 94.41 0 0 0-1.63-8.98 93.26 93.26 0 0 0-8.82-23.1 89.05 89.05 0 0 0-6.03-9.7c-1.34-1.87-2.76-3.68-4.14-5.51a1.4 1.4 0 0 0-1.25-.59c-3.44.03-6.88.02-10.33.02h-1c1.4 1.22 2.42 2.54 3.53 3.77 2.28 2.52 4.46 5.14 6.55 7.85a75.2 75.2 0 0 1 8.2 13.58 76.69 76.69 0 0 1 6.65 21.33c.34 2.25.43 4.52.82 6.76v1.1l-.05 2.85-18.26.04c-.5 0-.68-.1-.75-.7-.2-1.75-.5-3.48-.8-5.21a66.53 66.53 0 0 0-13.17-29.87 56.5 56.5 0 0 0-20.01-16.32 52.24 52.24 0 0 0-18.57-4.98c-.32-.33-.71-.16-1.07-.17h-1.87l-1.25.02c-.7 0-1.43-.25-2.11.16-3.12.04-6.15.64-9.2 1.3a50.24 50.24 0 0 0-17.1 7.53 47.83 47.83 0 0 0-9.7 8.37c-1.84 2.12-3.74 4.18-5.38 6.47a63.12 63.12 0 0 0-8 15.14 64.26 64.26 0 0 0-4.08 20.01c-.3.33-.14.74-.17 1.11l.03 1.35v3.72c.01.53-.2 1.09.15 1.58-.38.45.01.88.02 1.32.1 3.62.74 7.15 1.44 10.7a88.55 88.55 0 0 0 6 18.5 92.85 92.85 0 0 0 9.1 16 62.57 62.57 0 0 0 4.74 6.1c.24.32.58.2.87.2h10.4c.21 0 .48.08.62-.03.3-.23-.05-.3-.16-.43-2.36-2.67-4.85-5.2-7.1-7.98a89.84 89.84 0 0 1-5.88-8.03 75.47 75.47 0 0 1-6.25-11.8 82.4 82.4 0 0 1-4-12 82.22 82.22 0 0 1-1.8-10.13c-.1-.92-.33-1.9-.07-2.86l.01-1.11.03-2.86 18.15-.04c.39 0 .62.02.65.57.06.92.28 1.84.4 2.77a63.9 63.9 0 0 0 2.06 9.84 65.87 65.87 0 0 0 14.35 25.98 58.94 58.94 0 0 0 10.52 9.16 50.87 50.87 0 0 0 25.23 8.92h1.3l4.55.01c.43-.03.9.2 1.29-.17 1.02-.12 2.05-.07 3.08-.2 3.25-.4 6.4-1.2 9.51-2.22a51.15 51.15 0 0 0 11.25-5.34 58.49 58.49 0 0 0 16.41-15.57 66.62 66.62 0 0 0 9.03-17.7c2.09-6.12 3.01-12.47 3.55-18.9.33-.5.12-1.05.15-1.57Zm-38.56-15.98a53.4 53.4 0 0 1 3.13 12.44c.1.7.06 1.44.32 2.13.2.52.06.79-.55.78-2.99-.04-5.98-.03-8.96-.04-.14-.73.18-1.5-.2-2.2a39.27 39.27 0 0 0-4.33-15.46h7.2c2.46 0 2.5-.02 3.4 2.35Zm-20.2-25.34c.33-.3.55-.23.9 0a45.92 45.92 0 0 1 7.22 6.1c3.74 3.8 6.8 8.1 9.3 12.89-2.9 0-5.8 0-8.69.02-.37 0-.76-.13-1.1.17-.92-1.24-1.83-2.48-2.77-3.7a44.68 44.68 0 0 0-7.2-7.3c-1.33-1.1-2.8-1.98-4.33-3a46.96 46.96 0 0 0 6.67-5.18Zm-21.97 18.99v-9.03a32.82 32.82 0 0 0 10.59-2.46 2.04 2.04 0 0 1 1.86.07c4.96 2.55 9.07 6.24 12.58 10.7.18.21.29.48.43.73l-25.45-.01Zm1.23-26.99a51.9 51.9 0 0 1 12.14 2.89 52.5 52.5 0 0 1 6.2 3 31.3 31.3 0 0 1-19.57 8.94l-.05-14.8h.02l1.26-.03Zm-5.05 26.98-25.07.02c-.34 0-.73.09-.8-.46a37.25 37.25 0 0 1 9.02-8.74c1.3-.9 2.68-1.63 4.09-2.35.47-.24.9-.2 1.37 0a31.1 31.1 0 0 0 11.4 2.52v9.01Zm.03-26.94.03 14.6c-.97.6-1.97.05-2.89-.08a28.07 28.07 0 0 1-7.61-2.13 29.78 29.78 0 0 1-7.54-4.61c-.8-.72-1.64-1.4-2.56-2.2 6.57-3.5 13.3-5.68 20.57-5.58Zm-35.27 18.46a66.28 66.28 0 0 1 3.3-3.92 48.3 48.3 0 0 1 7.55-6.48c.73-.51 1.29-.65 2.1.16a29.94 29.94 0 0 0 6.33 4.9c-2 1.43-3.97 2.69-5.77 4.22a44.91 44.91 0 0 0-7.25 8.04c-.37.51-.72 1.05-1.08 1.57h-10.58a45.97 45.97 0 0 1 5.4-8.49Zm-1.04 26.02c-.02.3-.32.5-.18.82l-.01 2.01-.02.11c-.02.8.24 1.88-.15 2.35-.46.55-1.5.17-2.29.18-2.4.03-4.8-.01-7.2.02-.6.01-.86-.1-.82-.83.11-2.35.54-4.64.96-6.94a67.33 67.33 0 0 1 3.04-10.39c.19-.54.42-.9 1.1-.89 3.12.05 6.26.02 9.5.02a56.89 56.89 0 0 0-2.3 5.77 31.52 31.52 0 0 0-1.63 7.77Zm4.38 5.48c-.41 0-.83-.03-1.25-.04-.07-.43.14-.9-.19-1.3v-.65c.27-.59.28-1.18 0-1.78.06-2.02.46-3.99.9-5.95.7-3.09 2.02-5.9 3.37-8.72.27-.55.6-.59 1.07-.58h8.03c16.9 0 33.8 0 50.7-.03.93 0 1.39.36 1.8 1.17a40.38 40.38 0 0 1 3.77 11.73c.15.91.34 1.86.28 2.81l.01 2.69c.07 1.01-.28 2.06.19 3.05l21.78.03c1.36 0 2.71.02 4.07.03l.05 3.3a36.73 36.73 0 0 1-4.38 15.17c-.2.37-.4.55-.8.52-.17-.02-.34 0-.51 0-19.51 0-39.02 0-58.53.02-.9 0-1.3-.33-1.69-1.15a41.08 41.08 0 0 1-3.29-9.18c-.33-1.54-.42-3.12-.74-4.66-.03-.14.11-.33.18-.49l-.02-3.12c-.07-.95.3-1.93-.2-2.84l-24.6-.03Zm61.38 34.45c0-2.6.03-5.21-.03-7.82-.03-.97.23-1.23 1.15-1.23 8.25.04 16.51.02 24.76.03-1.41 2.38-3.4 4.23-5.33 6.1a38.74 38.74 0 0 1-7.19 5.2c-1.07.65-1.96.5-3.01.06-2.3-.94-4.7-1.46-7.13-1.9-1.07-.2-2.2.1-3.23-.43Zm-4.3.07c-1.27.14-2.54.42-3.81.61a27.57 27.57 0 0 0-6.83 2c-.5.22-.87.18-1.32-.06a35.92 35.92 0 0 1-9.16-6.8 44.37 44.37 0 0 1-3.81-4.41c.1-.62.57-.43.91-.43h24.52l.03 8.4c0 .4-.02.62-.52.68Zm-41.24-13.74c-1.65-3.81-2.63-7.83-3.49-11.89-.32-1.5-.44-3.06-.66-4.58-.06-.45.14-.56.53-.56 2.92.02 5.84.02 8.75 0 .92 0 .36.75.56 1.1v1.57c.11 2.37.6 4.67 1.17 6.97.69 2.8 1.8 5.4 2.94 8.06h-8.95c-.46 0-.63-.17-.86-.67Zm18.67 23.7a46.7 46.7 0 0 1-11.62-11.25 61.28 61.28 0 0 1-4.9-7.8h9.95a47.18 47.18 0 0 0 4.59 6 40.53 40.53 0 0 0 9.4 7.76c-.36.7-1.08.87-1.62 1.24a40.67 40.67 0 0 0-4.91 4.03c-.37.35-.52.27-.89.02Zm11.33 5.88a40.97 40.97 0 0 1-8.11-3.8 32.4 32.4 0 0 1 18.83-8.78l1.04.05c0 4.6 0 9.2.02 13.8 0 .78-.24 1.08-.97.99a52.63 52.63 0 0 1-10.81-2.26Zm29.76-.64a38.86 38.86 0 0 1-8.8 2.4c-1.79.26-3.6.54-5.43.46v-14.76l.84-.04a31.85 31.85 0 0 1 19.44 9 35.6 35.6 0 0 1-6.06 2.94Zm20.54-15.45c-1.37 1.74-2.92 3.29-4.42 4.88a44.88 44.88 0 0 1-6.82 5.7c-.26.18-.4.32-.68.03a39.98 39.98 0 0 0-7.18-5.63c4.41-2.42 7.9-5.93 11.18-9.7a24.4 24.4 0 0 0 2.82-3.98c.1-.16.19-.3.38-.32.33.3.73.16 1.1.16 3.1.02 6.2.02 9.3.02a54.34 54.34 0 0 1-5.68 8.83Zm12-31.02a47.33 47.33 0 0 1-1.08 7.47 54.5 54.5 0 0 1-3.06 10c-.24.55-.43.73-.95.73-3.13-.02-6.26-.01-9.48-.01.46-1.08.91-2.1 1.33-3.15 1.13-2.78 2-5.64 2.38-8.66.15-1.15.36-2.28.41-3.44.4-1.23.1-2.5.23-3.75 3.13 0 6.26 0 9.4-.03.61-.01.85.12.81.84Zm101.24 52a4.82 4.82 0 0 0-1.91-3.51c-.81-.66-1.78-.81-2.7-1.14a2.1 2.1 0 0 0-1.89 0c-.34.02-.64.21-.97.3a5.32 5.32 0 0 0-3.61 4.2 5.37 5.37 0 0 0 2.6 5.31c.7.41 1.45.55 2.18.81.57-.03 1.16.22 1.7-.16 2.15.07 4.4-2.24 4.6-4.43.29-.46.31-.91 0-1.37Zm-4.8 3.58h-1.5c-1.22-.25-1.85-.93-2.1-2.22v-1.34c.22-1.63 1.12-2.25 2.44-2.42 1.58-.2 3.06.65 3.29 1.9.03.18.11.34.18.5v1.38c-.4 1.17-1.06 2.03-2.3 2.2Z"/><path d="M51.02 63.25c.7.23 1.03-.24 1.25-.92.8-2.5 1.66-4.98 2.47-7.48.12-.33.14-.64.53-.6.25 1.58.6 3.13.7 4.7.1 1.25.67 2.42.34 3.73-1.18 4.63-2.27 9.29-3.44 13.93-.18.7-.15 1.24.54 1.42.68.17 1.3.18 1.6-.83 1.2-3.85 2.48-7.67 3.74-11.5.08-.24.15-.56.48-.63l1.79 5.38 2.11 6.62c.26.82.8 1.2 1.6 1 .68-.18.8-.77.64-1.39-.77-3.14-1.62-6.26-2.34-9.41-.42-1.87-1.27-3.68-1.15-5.64.1-1.76.45-3.5.72-5.24.1-.74.09-1.52.58-2.38 1.48 4.04 3.17 7.78 4.55 11.67.56 1.6.83 3.1.2 4.74-.27.72-.32 1.54-.43 2.32-.03.13-.37.46.05.45.89 0 .63.72.53 1.07-.3 1.02-.1 2.04-.17 3.05-.03.4.05.74.53.77.45.02.68-.16.73-.69.1-1.18.34-2.35.38-3.53.02-.82.5-.73.88-.62.43.11 1.18-.56 1.25.57.07 1.23.27 2.44.4 3.66.05.55.38.67.8.59.99-.2.74-1.04.6-1.63-.26-1.03-.48-2.4-.02-2.97.65-.8.27-1.31.12-1.87-.6-2.1-.84-4.2.03-6.26 1.47-3.46 3.02-6.89 4.54-10.32.08-.19.2-.4.57-.32l.48 3.67-.01 1.81c-.2.6-.4 1.2-.58 1.8a62.22 62.22 0 0 0-1.95 10.41c-.16 1.62-.26 3.25-.5 4.84-.13.94.1.9.71.82l1.28-.02 1.44-.2 1.27-.02c.3-.05.6-.17.87-.14 1.79.21 3.57.49 5.37.38.42-.42.26-.87.03-1.32.1-.7-.18-1.35-.23-2.04-.15-2.44-.56-4.85-.95-7.26a54.93 54.93 0 0 0-1.79-7.48v-1.55c-.02-1.29.25-2.52.57-3.8.34.21.4.5.5.75.91 2 1.8 4 2.73 6 .23.48.44 1.3 1.13.95.65-.31.29-1.01.1-1.55-.55-1.57-1.09-3.14-1.67-4.7-.76-2.02-1.55-4.02-2.32-6.04-.25-.47-.67-.14-1-.22-.55-.13-1.15.22-1.65-.21.8-.28 1.39-.94 1.57-1.72.3-1.28.03-3.01-1.77-3.47a2.53 2.53 0 0 0-3.17 1.74c-.51 1.58.09 2.84 1.65 3.44-.44.46-.97.1-1.45.21-.47.11-1-.24-1.42.23-.16.47-.29.95-.47 1.41-1.36 3.48-2.75 6.95-3.96 10.49-.68-.05-1.39.25-2.04-.18.51-.03.76-.46.99-.85.47-.8.27-2.22-.34-2.68-1-.74-2.2-.62-2.95.29-.68.84-.62 1.79.2 2.68.25.28.53.52.8.77-.69 0-1.37-.02-2.06-.03-.47-1.33-1-2.64-1.39-4-.8-2.8-1.95-5.46-2.6-8.31-.28-.42-.69-.21-1.04-.25-.96-.1-1.95.2-2.9-.2 1-.48 1.65-1.32 1.84-2.44.29-1.7-.77-3.07-2.6-3.52-1.24-.3-2.9.72-3.18 2.1-.28 1.43.02 3.33 1.82 3.85-.67.4-1.4.1-2.09.2-.59.1-1.22-.23-1.76.18a1.2 1.2 0 0 0-.1.07c-1.19 4.05-2.54 8.06-3.6 12.16-.2.72-.24 1.25.48 1.5h.01Z"/></g><defs><clipPath id="a"><path fill="#fff" transform="translate(.056)" d="M0 0h320v121h-320z"/></clipPath></defs></svg>