<svg version="1.1" id="Слой_1" xmlns="http://www.w3.org/2000/svg" x="0" y="0" viewBox="0 0 905.34 200" style="enable-background:new 0 0 905.34 200" xml:space="preserve"><style>.st0{fill:#fff}</style><path class="st0" d="M36.5 52.06h-7.8v-35.64h-18.06v35.63h-7.76v-41.58h33.62v41.59zm22.78-41.59c2.78 0 5.19.33 7.22.98 2.03.65 3.71 1.56 5.03 2.73a10.96 10.96 0 0 1 2.95 4.2c.64 1.63.96 3.41.96 5.35 0 2.01-.34 3.86-1.01 5.54a11.5 11.5 0 0 1-3.02 4.33 13.93 13.93 0 0 1-5.05 2.82 22.58 22.58 0 0 1-7.09 1.01h-5.78v14.64h-7.74v-41.6h13.53zm0 20.91c1.42 0 2.65-.18 3.71-.53a7 7 0 0 0 2.63-1.52 6.23 6.23 0 0 0 1.57-2.42c.34-.95.52-2.01.52-3.18 0-1.11-.17-2.12-.52-3.02a6 6 0 0 0-1.55-2.3 6.84 6.84 0 0 0-2.62-1.45c-1.05-.34-2.3-.5-3.74-.5h-5.78v14.93h5.78zm55.07-20.91-16.8 35.81a14.58 14.58 0 0 1-1.9 3.08 8 8 0 0 1-4.67 2.86c-.89.18-1.85.27-2.86.27a9.14 9.14 0 0 1-3.02-.37c-.63-.25-.95-.61-.95-1.09v-4.83h2.24c.42 0 .85-.04 1.29-.11a4.46 4.46 0 0 0 2.56-1.44c.4-.42.78-.98 1.12-1.67l1.64-3.34-16.67-29.17h7.25c.67 0 1.21.16 1.61.49.4.33.74.74 1.01 1.24l8.08 15.24c.44.84.84 1.68 1.19 2.5.35.82.67 1.67.93 2.53.5-1.73 1.14-3.4 1.93-5.03l7.05-15.24c.21-.42.53-.81.95-1.18a2.4 2.4 0 0 1 1.61-.55h6.41zm60.8 41.59h-5.15a5.4 5.4 0 0 1-2.89-.73 5.63 5.63 0 0 1-1.91-1.94l-8.51-13.32a4.78 4.78 0 0 0-1.73-1.78 5.07 5.07 0 0 0-2.42-.52h-4.4v18.29h-7.28v-18.29h-4.4c-.96 0-1.76.17-2.4.52-.64.35-1.21.94-1.71 1.78l-8.51 13.32a5.43 5.43 0 0 1-4.81 2.67h-5.18l10.87-17.63c.67-1.17 1.4-2.1 2.2-2.79.8-.69 1.7-1.21 2.72-1.55-.84-.33-1.57-.78-2.17-1.37s-1.18-1.32-1.74-2.2l-10.73-16.05h6.13c.79 0 1.51.19 2.17.58s1.19.92 1.6 1.61l8.51 13.17c.52.84 1.08 1.4 1.7 1.67.61.27 1.31.4 2.1.4h3.65v-17.43h7.28v17.43h3.68a5.1 5.1 0 0 0 2.09-.4 4.2 4.2 0 0 0 1.71-1.67l8.48-13.17a4.26 4.26 0 0 1 3.8-2.19h6.1l-10.73 16.05c-.56.88-1.13 1.62-1.73 2.2a6.23 6.23 0 0 1-2.19 1.37 8.1 8.1 0 0 1 2.75 1.55c.8.69 1.53 1.62 2.2 2.79l10.85 17.63z"/><path class="st0" d="M215.41 52.06h-5.98c-.67 0-1.22-.17-1.64-.5a3.16 3.16 0 0 1-.95-1.25l-3.11-8.48h-17.23l-3.11 8.48c-.15.44-.45.84-.89 1.21-.44.36-1 .55-1.67.55h-6.01l16.34-41.59h7.91l16.34 41.58zm-13.66-15.71-5.06-13.83c-.25-.61-.51-1.34-.78-2.19a67.8 67.8 0 0 1-.81-2.73 52.36 52.36 0 0 1-1.56 4.98l-5.03 13.78h13.24zm52.95-25.88v41.59h-7.76v-18.18h-19.53v18.18h-7.77v-41.59h7.77v17.89h19.53v-17.89h7.76zm37.82 31.78c.42 0 .8.16 1.12.49l3.05 3.31a16.7 16.7 0 0 1-6.23 4.8 21.47 21.47 0 0 1-8.87 1.67c-3.09 0-5.86-.53-8.33-1.58a18.26 18.26 0 0 1-6.31-4.4 19.17 19.17 0 0 1-4.01-6.73 25.25 25.25 0 0 1-1.4-8.54c0-3.12.5-5.99 1.5-8.58a19.06 19.06 0 0 1 10.7-11.11 21.59 21.59 0 0 1 8.34-1.57c3.03 0 5.72.5 8.07 1.5 2.35 1 4.35 2.3 6 3.91l-2.59 3.6c-.15.23-.35.43-.59.6-.24.17-.57.26-.99.26-.29 0-.59-.08-.89-.24-.31-.16-.64-.36-1.01-.6-.36-.24-.79-.5-1.27-.79a10.4 10.4 0 0 0-1.67-.79c-.63-.24-1.37-.44-2.2-.6-.83-.16-1.8-.24-2.89-.24-1.86 0-3.56.33-5.1.99a11.04 11.04 0 0 0-3.98 2.88c-1.11 1.26-1.97 2.79-2.59 4.6s-.92 3.88-.92 6.2c0 2.34.33 4.42.99 6.24a13.66 13.66 0 0 0 2.69 4.6c1.13 1.25 2.46 2.2 4 2.86s3.18.99 4.95.99c1.05 0 2.01-.06 2.86-.17.85-.12 1.64-.3 2.36-.55.72-.25 1.4-.57 2.04-.96.64-.39 1.28-.88 1.91-1.45.19-.17.39-.31.6-.42.21-.13.43-.18.66-.18zm44.78 9.81h-7.02c-.73 0-1.34-.19-1.83-.58a5.7 5.7 0 0 1-1.37-1.7l-8.86-13.98a4.7 4.7 0 0 0-.73-.99 3.16 3.16 0 0 0-1.84-.96 8.1 8.1 0 0 0-1.28-.09h-4.63v18.29h-7.74v-41.58h7.74v17.43h3.91c.79 0 1.47-.13 2.04-.4a4.24 4.24 0 0 0 1.61-1.5l9.12-13.46c.38-.61.83-1.11 1.35-1.5a3.08 3.08 0 0 1 1.87-.58h6.61l-11.3 16.68a7.1 7.1 0 0 1-3.77 2.93c1.15.33 2.12.84 2.92 1.54.8.7 1.56 1.66 2.29 2.89l10.91 17.56zm39.8-41.59v41.59h-7.76v-26.06c0-.98.02-2 .07-3.08.05-1.07.16-2.21.33-3.42a27.53 27.53 0 0 1-2.56 5.38l-15.9 24.79a6 6 0 0 1-1.41 1.62c-.29.22-.6.4-.95.55-.35.14-.7.22-1.06.22h-5.81v-41.59h7.77v26.06c0 .98-.02 2.01-.07 3.09a37.18 37.18 0 0 1-.33 3.44 28.6 28.6 0 0 1 2.59-5.41l15.88-24.79a6 6 0 0 1 1.41-1.62c.29-.22.6-.4.93-.55.33-.14.69-.22 1.08-.22h5.79zm44.32 0v41.59h-7.76v-26.06c0-.98.02-2 .07-3.08.05-1.07.16-2.21.33-3.42a27.53 27.53 0 0 1-2.56 5.38l-15.9 24.79a6 6 0 0 1-1.41 1.62c-.29.22-.6.4-.95.55-.35.14-.7.22-1.06.22h-5.81v-41.59h7.77v26.06c0 .98-.02 2.01-.07 3.09a37.18 37.18 0 0 1-.33 3.44 28.6 28.6 0 0 1 2.59-5.41l15.88-24.79a6 6 0 0 1 1.41-1.62c.29-.22.6-.4.93-.55.33-.14.69-.22 1.08-.22h5.79zm-17.17-6.01c.71 0 1.3-.07 1.78-.2s.86-.37 1.15-.7c.29-.34.49-.79.6-1.37.11-.58.17-1.3.17-2.19h4.2c.5 0 .87.21 1.11.63.24.42.36.88.36 1.38a5.01 5.01 0 0 1-2.56 4.46c-.82.5-1.81.88-2.96 1.14-1.14.26-2.43.39-3.85.39s-2.7-.13-3.85-.39a9.83 9.83 0 0 1-2.96-1.14 5.01 5.01 0 0 1-2.56-4.46c0-.5.12-.96.36-1.38a1.2 1.2 0 0 1 1.11-.63h4.2a12 12 0 0 0 .17 2.19c.11.58.32 1.03.6 1.37.29.34.67.57 1.14.7.47.13 1.06.2 1.79.2zm-379.2 78.14a20 20 0 0 1 7.13 1.47c2.17.9 4.03 2.11 5.59 3.62a16.8 16.8 0 0 1 3.67 5.26 15.62 15.62 0 0 1 1.32 6.39c0 2.28-.44 4.42-1.32 6.43-.88 2-2.1 3.76-3.67 5.28a17.79 17.79 0 0 1-5.59 3.62c-2.17.9-4.54 1.39-7.13 1.47v4.95h-7.33v-4.95a19.72 19.72 0 0 1-7.1-1.48 18.24 18.24 0 0 1-5.61-3.62 16.28 16.28 0 0 1-3.68-5.26c-.88-2-1.32-4.15-1.32-6.43a16.06 16.06 0 0 1 4.99-11.64 18.04 18.04 0 0 1 5.61-3.61c2.17-.9 4.53-1.4 7.1-1.5v-4.86h7.33v4.86zm-7.33 5.95a9.97 9.97 0 0 0-7.22 3.25c-.88.98-1.56 2.11-2.04 3.41a11.76 11.76 0 0 0-.72 4.13c0 1.5.24 2.89.72 4.18a9.99 9.99 0 0 0 9.26 6.63v-21.6zm7.33 21.6a9.92 9.92 0 0 0 7.22-3.24 10.6 10.6 0 0 0 2.06-3.39c.49-1.29.73-2.69.73-4.18 0-1.46-.25-2.83-.73-4.13a10.62 10.62 0 0 0-2.06-3.41 9.9 9.9 0 0 0-7.22-3.25v21.6zm59.16-30.66v41.59h-7.76v-26.06c0-.98.02-2 .07-3.08.05-1.07.16-2.21.33-3.42a27.53 27.53 0 0 1-2.56 5.38l-15.9 24.79a6 6 0 0 1-1.41 1.62c-.29.22-.6.4-.95.55-.35.14-.7.22-1.06.22h-5.81v-41.59h7.77v26.06c0 .98-.02 2.01-.07 3.09a37.18 37.18 0 0 1-.33 3.44 28.6 28.6 0 0 1 2.59-5.41l15.88-24.79a6 6 0 0 1 1.41-1.62c.29-.22.6-.4.93-.55.33-.14.69-.22 1.08-.22h5.79zm6.87 3.92a17.53 17.53 0 0 1 5.74-3.22 22.36 22.36 0 0 1 7.38-1.15c2.24 0 4.27.27 6.08.81 1.81.54 3.35 1.29 4.62 2.26a10.1 10.1 0 0 1 2.92 3.45 10.66 10.66 0 0 1-.32 9.7 9.94 9.94 0 0 1-4.04 3.84c.96.46 1.84 1 2.63 1.63s1.48 1.31 2.04 2.07a9.43 9.43 0 0 1 1.32 2.46c.32.88.47 1.82.47 2.82 0 1.88-.35 3.63-1.05 5.26a12.23 12.23 0 0 1-3.05 4.26 14.57 14.57 0 0 1-4.9 2.86c-1.94.7-4.15 1.05-6.64 1.05a23.15 23.15 0 0 1-11.82-3.23 17.02 17.02 0 0 1-2.96-2.24l2.27-3.71c.21-.27.46-.49.76-.68.3-.18.63-.27.99-.27.5 0 1.05.2 1.64.59.59.39 1.31.83 2.16 1.31.84.48 1.85.92 3 1.31 1.16.39 2.56.59 4.19.59 2.59 0 4.59-.56 6.01-1.67 1.42-1.11 2.13-2.82 2.13-5.12a5.39 5.39 0 0 0-2.22-4.43 7.72 7.72 0 0 0-2.57-1.19 12.49 12.49 0 0 0-3.35-.42h-5.87l-.03-6.21h5.35c2.4 0 4.27-.47 5.62-1.42a4.74 4.74 0 0 0 2.03-4.13c0-1.59-.64-2.86-1.91-3.81-1.28-.95-3.12-1.42-5.54-1.42-1.4 0-2.6.15-3.61.46a19.63 19.63 0 0 0-4.49 1.98c-.51.31-.96.46-1.37.46-.38 0-.71-.1-.98-.29a2.81 2.81 0 0 1-.75-.86l-1.88-3.7zm71.13 37.67h-7.02c-.73 0-1.34-.19-1.83-.58a5.7 5.7 0 0 1-1.37-1.7l-8.86-13.98a4.7 4.7 0 0 0-.73-.99 3.16 3.16 0 0 0-1.84-.96 8.1 8.1 0 0 0-1.28-.09h-4.63v18.29h-7.74v-41.58h7.74v17.43h3.91c.79 0 1.47-.13 2.04-.4a4.24 4.24 0 0 0 1.61-1.5l9.12-13.46c.38-.61.83-1.11 1.35-1.5a3.08 3.08 0 0 1 1.87-.58h6.61l-11.3 16.68a7.1 7.1 0 0 1-3.77 2.93c1.15.33 2.12.84 2.92 1.54.8.7 1.56 1.66 2.29 2.89l10.91 17.56zm37.73-41.59-16.8 35.81a14.58 14.58 0 0 1-1.9 3.08 8 8 0 0 1-4.67 2.86c-.89.18-1.85.27-2.86.27a9.14 9.14 0 0 1-3.02-.37c-.63-.25-.95-.61-.95-1.09v-4.83h2.24c.42 0 .85-.04 1.29-.11a4.46 4.46 0 0 0 2.56-1.44c.4-.42.78-.98 1.12-1.67l1.64-3.34-16.68-29.16h7.25c.67 0 1.21.16 1.61.49.4.33.74.74 1.01 1.24l8.08 15.24c.44.84.84 1.68 1.19 2.5.35.82.67 1.67.93 2.53.5-1.73 1.14-3.4 1.93-5.03l7.05-15.24c.21-.42.53-.81.95-1.18a2.4 2.4 0 0 1 1.61-.55h6.42zm33.85 41.59h-7.79v-35.63h-11.36c-.27 5.22-.65 9.73-1.14 13.53a83.09 83.09 0 0 1-1.75 9.72 30.5 30.5 0 0 1-2.33 6.51 13.78 13.78 0 0 1-2.86 3.9 8.49 8.49 0 0 1-3.34 1.9c-1.19.34-2.44.5-3.74.5a9.14 9.14 0 0 1-3.02-.37c-.63-.25-.95-.61-.95-1.09v-4.83h2.21c.5 0 1-.06 1.51-.17a4 4 0 0 0 1.52-.73 6.8 6.8 0 0 0 1.5-1.62c.49-.71.96-1.66 1.41-2.86.45-1.2.87-2.67 1.27-4.41.39-1.74.75-3.84 1.06-6.3.32-2.45.59-5.3.83-8.53.24-3.23.42-6.93.53-11.09h26.43v41.57zm23.79-24.39c2.7 0 5.02.3 6.95.89 1.93.59 3.5 1.4 4.72 2.43a9.44 9.44 0 0 1 2.69 3.62 13.39 13.39 0 0 1-.16 9.79 11.2 11.2 0 0 1-2.98 4.1 13.42 13.42 0 0 1-4.79 2.63c-1.89.61-4.04.92-6.46.92h-14.5v-41.58h7.74v17.2h6.79zm-.03 18.35c1.44 0 2.64-.16 3.61-.47a6.12 6.12 0 0 0 2.34-1.31 4.75 4.75 0 0 0 1.27-1.96 8.55 8.55 0 0 0 0-4.98 4.3 4.3 0 0 0-1.27-1.94 6.05 6.05 0 0 0-2.33-1.22c-.96-.29-2.16-.43-3.59-.43h-6.79v12.31h6.76zm45.24-29.19h-12.54v35.23h-7.74v-35.23h-12.54v-6.36h32.82v6.36zm38.45-6.36-16.8 35.81a14.58 14.58 0 0 1-1.9 3.08 8 8 0 0 1-4.67 2.86c-.89.18-1.85.27-2.86.27a9.14 9.14 0 0 1-3.02-.37c-.63-.25-.95-.61-.95-1.09v-4.83h2.24c.42 0 .85-.04 1.29-.11a4.46 4.46 0 0 0 2.56-1.44c.4-.42.78-.98 1.12-1.67l1.64-3.34-16.68-29.16h7.25c.67 0 1.21.16 1.61.49s.74.74 1.01 1.24l8.08 15.24c.44.84.84 1.68 1.19 2.5.35.82.67 1.67.93 2.53.5-1.73 1.14-3.4 1.93-5.03l7.05-15.24c.21-.42.53-.81.95-1.18a2.4 2.4 0 0 1 1.61-.55h6.42zm17.6 0c2.78 0 5.19.33 7.22.98 2.03.65 3.71 1.56 5.03 2.73a10.96 10.96 0 0 1 2.95 4.2c.64 1.63.96 3.41.96 5.35 0 2.01-.34 3.86-1.01 5.54a11.5 11.5 0 0 1-3.02 4.33 13.93 13.93 0 0 1-5.05 2.82 22.58 22.58 0 0 1-7.09 1.01h-5.78v14.64h-7.74v-41.6h13.53zm0 20.91c1.42 0 2.65-.18 3.71-.53a7 7 0 0 0 2.63-1.52 6.23 6.23 0 0 0 1.57-2.42c.34-.95.52-2.01.52-3.18 0-1.11-.17-2.12-.52-3.02a6 6 0 0 0-1.55-2.3 6.84 6.84 0 0 0-2.62-1.45c-1.05-.34-2.3-.5-3.74-.5h-5.78v14.93h5.78zm57.15-20.91v41.59h-7.76v-18.18h-19.53v18.18h-7.77v-41.59h7.77v17.89h19.53v-17.89h7.76zm48.92 20.8c0 3.05-.5 5.87-1.51 8.47a19.37 19.37 0 0 1-10.91 11.18 22.56 22.56 0 0 1-8.63 1.6c-3.14 0-6.01-.53-8.6-1.6a19.6 19.6 0 0 1-6.66-4.44 20.1 20.1 0 0 1-4.3-6.74 22.97 22.97 0 0 1-1.52-8.47c0-3.05.51-5.87 1.52-8.47 1.02-2.6 2.45-4.85 4.3-6.74s4.07-3.38 6.66-4.44a22.48 22.48 0 0 1 8.6-1.6c2.11 0 4.09.24 5.95.73 1.86.49 3.57 1.18 5.12 2.07a19.49 19.49 0 0 1 7.33 7.52 21 21 0 0 1 1.97 5.12c.45 1.84.68 3.78.68 5.81zm-7.91 0c0-2.28-.31-4.33-.92-6.14a13.2 13.2 0 0 0-2.62-4.62 11.13 11.13 0 0 0-4.13-2.9 14.23 14.23 0 0 0-5.48-1.01c-2.03 0-3.86.34-5.48 1.01-1.62.67-3 1.64-4.14 2.9-1.14 1.27-2.02 2.8-2.63 4.62s-.92 3.86-.92 6.14.31 4.33.92 6.14a12.8 12.8 0 0 0 2.63 4.6 11.34 11.34 0 0 0 4.14 2.89c1.62.67 3.45 1.01 5.48 1.01 2.03 0 3.86-.34 5.48-1.01 1.62-.67 3-1.63 4.13-2.89 1.13-1.26 2-2.79 2.62-4.6.61-1.81.92-3.86.92-6.14zm13.46-2.27h14.9v5.92h-14.9v-5.92zm51.48 13.25c.42 0 .8.16 1.12.49l3.05 3.31a16.7 16.7 0 0 1-6.23 4.8 21.47 21.47 0 0 1-8.87 1.67c-3.09 0-5.86-.53-8.33-1.58a18.26 18.26 0 0 1-6.31-4.4 19.17 19.17 0 0 1-4.01-6.73 25.25 25.25 0 0 1-1.4-8.54c0-3.12.5-5.99 1.5-8.58a19.06 19.06 0 0 1 10.7-11.11 21.59 21.59 0 0 1 8.34-1.57c3.03 0 5.72.5 8.07 1.5 2.35 1 4.35 2.3 6 3.91l-2.59 3.6c-.15.23-.35.43-.59.6-.24.17-.57.26-.99.26-.29 0-.59-.08-.89-.24-.31-.16-.64-.36-1.01-.6-.36-.24-.79-.5-1.27-.79a10.4 10.4 0 0 0-1.67-.79c-.63-.24-1.37-.44-2.2-.6-.83-.16-1.8-.24-2.89-.24-1.86 0-3.56.33-5.1.99a11.04 11.04 0 0 0-3.98 2.88c-1.11 1.26-1.97 2.79-2.59 4.6s-.92 3.88-.92 6.2c0 2.34.33 4.42.99 6.24a13.66 13.66 0 0 0 2.69 4.6c1.13 1.25 2.46 2.2 4 2.86s3.18.99 4.95.99c1.05 0 2.01-.06 2.86-.17.85-.12 1.64-.3 2.36-.55.72-.25 1.4-.57 2.04-.96.64-.39 1.28-.88 1.91-1.45.19-.17.39-.31.6-.42.21-.12.43-.18.66-.18zm43.11 9.81h-7.79v-35.63h-18.06v35.63h-7.77v-41.59h33.62v41.59zm48.92-20.79c0 3.05-.5 5.87-1.51 8.47a19.37 19.37 0 0 1-10.91 11.18 22.56 22.56 0 0 1-8.63 1.6c-3.14 0-6.01-.53-8.6-1.6a19.6 19.6 0 0 1-6.66-4.44 20.1 20.1 0 0 1-4.3-6.74 22.97 22.97 0 0 1-1.52-8.47c0-3.05.51-5.87 1.52-8.47 1.02-2.6 2.45-4.85 4.3-6.74s4.07-3.38 6.66-4.44a22.48 22.48 0 0 1 8.6-1.6c2.11 0 4.09.24 5.95.73 1.86.49 3.57 1.18 5.12 2.07a19.49 19.49 0 0 1 7.33 7.52 21 21 0 0 1 1.97 5.12c.46 1.84.68 3.78.68 5.81zm-7.91 0c0-2.28-.31-4.33-.92-6.14a13.2 13.2 0 0 0-2.62-4.62 11.13 11.13 0 0 0-4.13-2.9 14.23 14.23 0 0 0-5.48-1.01c-2.03 0-3.86.34-5.48 1.01-1.62.67-3 1.64-4.14 2.9a12.98 12.98 0 0 0-2.63 4.62 19.18 19.18 0 0 0-.92 6.14c0 2.28.31 4.33.92 6.14a12.8 12.8 0 0 0 2.63 4.6 11.34 11.34 0 0 0 4.14 2.89c1.62.67 3.45 1.01 5.48 1.01 2.03 0 3.86-.34 5.48-1.01 1.62-.67 3-1.63 4.13-2.89 1.13-1.26 2-2.79 2.62-4.6.62-1.81.92-3.86.92-6.14zm28.25-20.8c2.78 0 5.19.33 7.22.98 2.03.65 3.71 1.56 5.03 2.73a10.96 10.96 0 0 1 2.95 4.2c.64 1.63.96 3.41.96 5.35 0 2.01-.34 3.86-1.01 5.54a11.5 11.5 0 0 1-3.02 4.33 13.93 13.93 0 0 1-5.05 2.82 22.58 22.58 0 0 1-7.09 1.01h-5.78v14.64h-7.74v-41.6h13.53zm0 20.91c1.42 0 2.65-.18 3.71-.53a7 7 0 0 0 2.63-1.52 6.23 6.23 0 0 0 1.57-2.42c.34-.95.52-2.01.52-3.18 0-1.11-.17-2.12-.52-3.02a6 6 0 0 0-1.55-2.3 6.84 6.84 0 0 0-2.62-1.45c-1.05-.34-2.3-.5-3.74-.5h-5.78v14.93h5.78zm51.13-14.55h-12.54v35.23h-7.74v-35.23h-12.54v-6.36h32.82v6.36zm40.52-6.36v41.59h-7.76v-26.06c0-.98.02-2 .07-3.08.05-1.07.16-2.21.33-3.42a27.53 27.53 0 0 1-2.56 5.38l-15.9 24.79a6 6 0 0 1-1.41 1.62c-.29.22-.6.4-.95.55-.35.14-.7.22-1.06.22h-5.81v-41.59h7.77v26.06c0 .98-.02 2.01-.07 3.09a37.18 37.18 0 0 1-.33 3.44 28.6 28.6 0 0 1 2.59-5.41l15.88-24.79a6 6 0 0 1 1.41-1.62c.29-.22.6-.4.93-.55.33-.14.69-.22 1.08-.22h5.79zm23.59 0c2.72 0 5.05.26 6.99.78 1.94.52 3.52 1.26 4.76 2.21a8.63 8.63 0 0 1 2.72 3.48c.57 1.36.86 2.9.86 4.6 0 .98-.14 1.91-.43 2.8a7.98 7.98 0 0 1-1.34 2.5 9.79 9.79 0 0 1-2.3 2.11c-.93.63-2.04 1.17-3.32 1.61 5.71 1.29 8.57 4.37 8.57 9.26 0 1.76-.34 3.39-1.01 4.89a10.75 10.75 0 0 1-2.93 3.87 14.02 14.02 0 0 1-4.74 2.54c-1.88.61-4.03.92-6.44.92h-15.7v-41.57h14.31zm-6.59 5.99v12.02h6.15c2.65 0 4.65-.48 6-1.44 1.35-.96 2.03-2.48 2.03-4.57 0-2.17-.61-3.71-1.84-4.63-1.23-.92-3.14-1.38-5.75-1.38h-6.59zm7.82 29.56c1.44 0 2.65-.17 3.62-.52a6.18 6.18 0 0 0 2.34-1.38 5.2 5.2 0 0 0 1.27-2.01 7.56 7.56 0 0 0-.04-4.87 4.61 4.61 0 0 0-1.35-1.84c-.61-.51-1.4-.9-2.37-1.17-.97-.27-2.13-.4-3.49-.4h-7.79v12.19h7.81zm57.38-35.55v41.59h-7.76v-18.18h-19.53v18.18h-7.77v-41.59h7.77v17.89h19.53v-17.89h7.76zm23.79 17.2c2.7 0 5.02.3 6.95.89 1.93.59 3.5 1.4 4.72 2.43a9.44 9.44 0 0 1 2.69 3.62 13.39 13.39 0 0 1-.16 9.79 11.2 11.2 0 0 1-2.98 4.1 13.42 13.42 0 0 1-4.79 2.63c-1.89.61-4.04.92-6.46.92h-14.5v-41.58h7.74v17.2h6.79zm-.03 18.35c1.44 0 2.64-.16 3.61-.47a6.12 6.12 0 0 0 2.34-1.31 4.75 4.75 0 0 0 1.27-1.96 8.55 8.55 0 0 0 0-4.98 4.3 4.3 0 0 0-1.27-1.94 6.05 6.05 0 0 0-2.33-1.22c-.96-.29-2.16-.43-3.59-.43h-6.79v12.31h6.76zm29.07 6.04h-7.76v-41.59h7.76v41.59zm44.35-41.59v41.59h-7.76v-26.06c0-.98.02-2 .07-3.08.05-1.07.16-2.21.33-3.42a27.53 27.53 0 0 1-2.56 5.38l-15.9 24.79a6 6 0 0 1-1.41 1.62c-.29.22-.6.4-.95.55-.35.14-.7.22-1.06.22h-5.81v-41.59h7.77v26.06c0 .98-.02 2.01-.07 3.09a37.18 37.18 0 0 1-.33 3.44 28.6 28.6 0 0 1 2.59-5.41l15.88-24.79a6 6 0 0 1 1.41-1.62c.29-.22.6-.4.93-.55.33-.14.69-.22 1.08-.22h5.79zm-17.17-6.01c.71 0 1.3-.07 1.78-.2s.86-.37 1.15-.7c.29-.34.49-.79.6-1.37.11-.58.17-1.3.17-2.19h4.2c.5 0 .87.21 1.11.63.24.42.36.88.36 1.38a5.01 5.01 0 0 1-2.56 4.46c-.82.5-1.81.88-2.96 1.14-1.15.26-2.43.39-3.85.39s-2.7-.13-3.85-.39a9.83 9.83 0 0 1-2.96-1.14 5.01 5.01 0 0 1-2.56-4.46c0-.5.12-.96.36-1.38a1.2 1.2 0 0 1 1.11-.63h4.2a12 12 0 0 0 .17 2.19c.11.58.32 1.03.6 1.37.29.34.67.57 1.14.7.46.14 1.06.2 1.79.2zm-850.01 116.63h-7.02c-.73 0-1.34-.19-1.83-.58a5.7 5.7 0 0 1-1.37-1.7l-8.86-13.98a4.7 4.7 0 0 0-.73-.99 3.08 3.08 0 0 0-1.84-.96 8.1 8.1 0 0 0-1.28-.09h-4.63v18.29h-7.72v-41.59h7.74v17.43h3.91c.79 0 1.47-.13 2.04-.4a4.24 4.24 0 0 0 1.61-1.5l9.12-13.46c.38-.61.83-1.11 1.35-1.5a3.08 3.08 0 0 1 1.87-.58h6.61l-11.3 16.68a7.1 7.1 0 0 1-3.77 2.93c1.15.33 2.12.84 2.92 1.54.8.7 1.56 1.66 2.29 2.89l10.89 17.57zm38.74 0h-7.79v-35.63h-11.36c-.27 5.22-.65 9.73-1.14 13.53a83.09 83.09 0 0 1-1.75 9.72 30.5 30.5 0 0 1-2.33 6.51 13.78 13.78 0 0 1-2.86 3.9 8.49 8.49 0 0 1-3.34 1.9c-1.19.34-2.44.5-3.74.5a9.14 9.14 0 0 1-3.02-.37c-.63-.25-.95-.61-.95-1.09v-4.83h2.21c.5 0 1-.06 1.51-.17a4 4 0 0 0 1.52-.73 6.8 6.8 0 0 0 1.5-1.62c.49-.71.96-1.66 1.41-2.86.45-1.2.87-2.67 1.27-4.41.39-1.74.75-3.84 1.06-6.3.32-2.45.59-5.3.83-8.53.24-3.23.42-6.93.53-11.09h26.44v41.57zm42.25-41.59-16.8 35.81a14.58 14.58 0 0 1-1.9 3.08 8 8 0 0 1-4.67 2.86c-.89.18-1.85.27-2.86.27a9.14 9.14 0 0 1-3.02-.37c-.63-.25-.95-.61-.95-1.09v-4.83h2.24c.42 0 .85-.04 1.29-.11a4.46 4.46 0 0 0 2.56-1.44c.4-.42.78-.98 1.12-1.67l1.64-3.34-16.68-29.16h7.25c.67 0 1.21.16 1.61.49.4.33.74.74 1.01 1.24l8.08 15.24c.44.84.84 1.68 1.19 2.5.35.82.67 1.67.93 2.53.5-1.73 1.14-3.4 1.93-5.03l7.05-15.24c.21-.42.53-.81.95-1.18a2.4 2.4 0 0 1 1.61-.55h6.42zm18.61 17.2c2.7 0 5.02.3 6.95.89 1.93.59 3.5 1.4 4.72 2.43a9.44 9.44 0 0 1 2.69 3.62 13.39 13.39 0 0 1-.16 9.79 11.2 11.2 0 0 1-2.98 4.1 13.42 13.42 0 0 1-4.79 2.63c-1.89.61-4.04.92-6.46.92h-14.5v-41.59h28.21v5.98h-20.48v11.22h6.8zm-.03 18.35c1.44 0 2.64-.16 3.61-.47a6.12 6.12 0 0 0 2.34-1.31 4.75 4.75 0 0 0 1.27-1.96 8.55 8.55 0 0 0 0-4.98 4.3 4.3 0 0 0-1.27-1.94 6.05 6.05 0 0 0-2.33-1.22c-.96-.29-2.16-.43-3.59-.43h-6.79v12.31h6.76zm40.24-35.55v8.28l-.63 4.49c-.15.84-.4 1.49-.75 1.94-.34.45-.92.68-1.73.68-.71 0-1.26-.22-1.64-.68a4.2 4.2 0 0 1-.81-1.94l-.63-4.49v-8.28h6.19zm10.58 0v8.28l-.63 4.49c-.15.84-.4 1.49-.75 1.94-.34.45-.92.68-1.73.68-.71 0-1.26-.22-1.64-.68a4.2 4.2 0 0 1-.81-1.94l-.63-4.49v-8.28h6.19zm52.72 0v41.59h-6.82v-26.86c0-1.07.06-2.23.17-3.48l-12.57 23.61a2.91 2.91 0 0 1-2.73 1.7h-1.09a2.9 2.9 0 0 1-2.73-1.7l-12.71-23.7c.06.63.1 1.26.14 1.87.04.61.06 1.18.06 1.7v26.86h-6.82v-41.59h5.84c.34 0 .64.01.89.03.25.02.47.07.68.14.2.08.38.2.55.37.16.17.32.4.47.69l12.45 23.09c.33.61.63 1.25.91 1.9.28.65.55 1.32.82 2.01.27-.71.55-1.39.83-2.06.29-.66.59-1.3.92-1.91l12.28-23.04c.15-.29.32-.52.49-.69.17-.17.36-.3.56-.37.2-.08.43-.12.68-.14.25-.02.55-.03.89-.03h5.84zm42.25 0-16.8 35.81a14.58 14.58 0 0 1-1.9 3.08 8 8 0 0 1-4.67 2.86c-.89.18-1.85.27-2.86.27a9.14 9.14 0 0 1-3.02-.37c-.63-.25-.95-.61-.95-1.09v-4.83h2.24c.42 0 .85-.04 1.29-.11a4.46 4.46 0 0 0 2.56-1.44c.4-.42.78-.98 1.12-1.67l1.64-3.34-16.68-29.16h7.25c.67 0 1.21.16 1.61.49.4.33.74.74 1.01 1.24l8.08 15.24c.44.84.84 1.68 1.19 2.5.35.82.67 1.67.93 2.53.5-1.73 1.14-3.4 1.93-5.03l7.05-15.24c.21-.42.53-.81.95-1.18a2.4 2.4 0 0 1 1.61-.55h6.42zm37.87 41.59h-7.71a1.9 1.9 0 0 1-1.28-.4 3.3 3.3 0 0 1-.76-.92l-9.63-15.96a5.7 5.7 0 0 1-.55 1.24l-9.23 14.73c-.23.33-.49.63-.79.91-.3.28-.69.42-1.16.42h-7.22l13.8-21.4-13.26-20.19h7.71c.54 0 .92.07 1.16.22.24.14.46.38.68.7l9.46 15.24c.19-.48.42-.96.69-1.44l8.69-13.66c.21-.36.44-.63.69-.81.25-.17.57-.26.95-.26h7.39l-13.37 19.87 13.74 21.71z"/><path class="st0" d="M361.71 190.11h-5.98c-.67 0-1.22-.17-1.64-.5a3.16 3.16 0 0 1-.95-1.25l-3.11-8.48h-17.23l-3.11 8.48c-.15.44-.45.84-.89 1.21-.44.36-1 .55-1.67.55h-6.01l16.34-41.59h7.91l16.34 41.58zm-13.66-15.71-5.06-13.83c-.25-.61-.51-1.34-.78-2.19a67.8 67.8 0 0 1-.81-2.73 52.36 52.36 0 0 1-1.56 4.98l-5.03 13.78h13.24zm32.21-25.88c2.72 0 5.05.26 6.99.78 1.94.52 3.52 1.26 4.76 2.21a8.63 8.63 0 0 1 2.72 3.48c.57 1.36.86 2.9.86 4.6 0 .98-.14 1.91-.43 2.8a7.98 7.98 0 0 1-1.34 2.5 9.79 9.79 0 0 1-2.3 2.11c-.93.63-2.04 1.17-3.32 1.61 5.71 1.29 8.57 4.37 8.57 9.26 0 1.76-.34 3.39-1.01 4.89a10.75 10.75 0 0 1-2.93 3.87 13.97 13.97 0 0 1-4.75 2.54c-1.88.61-4.03.92-6.44.92h-15.7v-41.59h14.32zm-6.58 5.98v12.02h6.15c2.65 0 4.65-.48 6-1.44 1.35-.96 2.03-2.48 2.03-4.57 0-2.17-.61-3.71-1.84-4.63-1.23-.92-3.14-1.38-5.75-1.38h-6.59zm7.82 29.57c1.44 0 2.65-.17 3.62-.52a6.18 6.18 0 0 0 2.34-1.38 5.2 5.2 0 0 0 1.27-2.01 7.56 7.56 0 0 0-.04-4.87c-.29-.72-.74-1.33-1.35-1.84s-1.4-.9-2.37-1.17c-.97-.27-2.13-.4-3.49-.4h-7.79v12.19h7.81zm30.08-29.4v11.53h14.55v5.95h-14.55v11.76h18.46v6.18h-26.23v-41.59h26.23v6.15h-18.46zm64.89 29.48v13.63c0 .67-.22 1.21-.68 1.61-.45.4-1.04.6-1.77.6h-4.66v-9.89h-32.47v-41.59h7.77v35.63h18.06v-35.63h7.79v35.63h5.96zm9.4-35.63v8.28l-.63 4.49c-.15.84-.4 1.49-.75 1.94-.34.45-.92.68-1.73.68-.71 0-1.26-.22-1.64-.68a4.2 4.2 0 0 1-.81-1.94l-.63-4.49v-8.28h6.19zm10.59 0v8.28l-.63 4.49c-.15.84-.4 1.49-.75 1.94-.34.45-.92.68-1.73.68-.71 0-1.26-.22-1.64-.68a4.2 4.2 0 0 1-.81-1.94l-.63-4.49v-8.28h6.19z"/></svg>