<svg viewBox="0 0 220 194" fill="none" xmlns="http://www.w3.org/2000/svg"><g clip-path="url(#a)" fill="#fff"><path d="M219.06 163.77v-115.1l-37.98-19.89v134.99h37.98Zm-41.04 0v-134.99l-26.14 14.73v10.95l16.96-8.71.24 118.02h8.94Zm-26.14 0v-143.9l-37.97-19.87v163.77h37.97Z"/><path d="M9.62 186.17v-116.17l92.04-53.05.24 146.82h8.94v-163.77l-110.78 64.9v129.1h219v-8.13l-209.44.3Zm208.98-18Zm-.6-.1Zm.87 3.88.03 1.05c0-.37-.02-.72-.03-1.05Z"/><path d="M116.77 168.53h-3.4v5.03c-.13.04-.26.1-.38.13l-5.84-5.47-2.56 2.42 4.72 4.27c-.81.71-1.54 1.32-2.22 1.97-.32.3-.8.66-.82 1-.1 1.34-.25 2.7.1 4.21l5.24-4.7c2.4.92 1.55 2.96 1.84 4.5h3.44c.08-1.71-.55-3.67 1.74-4.5 1.72 1.52 3.44 3.07 5.46 4.87 0-1.42-.04-2.46 0-3.5a2.15 2.15 0 0 0-.87-1.87c-.73-.6-1.4-1.27-2.18-2l3.2-3.12c1.05-1.04 2.11-2.06 3.16-3.08-1.14-.29-2.1-.24-3.04-.3a3.04 3.04 0 0 0-2.55 1.02c-1.26 1.27-2.6 2.49-3.92 3.7-.25.23-.58.39-1.13.73v-5.3l.01-.01Zm16.42 4.34c-.27.23-.58.4-1.12.76v-5.68c-.97.85-1.62 1.51-2.36 2.08-.78.6-1.09 1.3-1.06 2.28.06 2.72.01 5.42.02 8.14 0 .35.07.7.12 1.3l8.76-8.07.35.18v7.7h3.31v-13.35c-1.76-.42-3.16-.13-4.35 1.2-1.13 1.24-2.44 2.32-3.68 3.46h.01Zm84.81-4.81a3.87 3.87 0 0 0-3.64 1.42c-1.14 1.31-2.52 2.42-3.8 3.6-.22.19-.52.28-.9.47-.13-1.89.03-3.6-.2-5.56-.92.86-1.59 1.55-2.32 2.14-.7.59-1 1.26-.97 2.17.06 2.71.02 5.43.03 8.14 0 .35.08.7.15 1.3l9.04-8.32c.13 2.95-.04 5.57.1 8.17h3.17c.13-.67.21-2.56.22-4.72v-2.22l-.01-1.66c0-.36-.01-.7-.03-1.04l-.01-.5-.05-1.37c-.06-.95-.1-1.65-.19-1.91a5.5 5.5 0 0 0-.61-.1h.01Zm-190.01 8.16a6.36 6.36 0 0 0 5.7 5.72 6.23 6.23 0 0 0 6.7-4.54 9 9 0 0 0-.04-5.1 6.14 6.14 0 0 0-6.08-4.47 6.24 6.24 0 0 0-6 4.58c-.22.8-.28 1.63-.42 2.45l.14.01c0 .44-.04.9 0 1.34Zm3.94-3.66c.5-1 1.42-1.4 2.52-1.36 1.12.02 1.98.54 2.36 1.59.25.71.37 1.49.57 2.33-.23.75-.35 1.59-.73 2.3a2.68 2.68 0 0 1-4.61.07 4.93 4.93 0 0 1-.1-4.92v-.01Zm165.42 9.39c2.98.2 5.6-1.56 6.44-4.42.26-.84.32-1.74.52-2.8-.22-.93-.38-2.04-.78-3.07a5.9 5.9 0 0 0-5.66-3.81c-2.68.05-4.69 1.24-5.82 3.66a8.82 8.82 0 0 0-.5 5.23c.46 2.93 2.8 5 5.79 5.2l.01.01Zm-1.86-9.59c.95-1.68 3.54-1.68 4.52 0 .47.8.61 1.75.86 2.55-.22.86-.33 1.58-.6 2.23a2.51 2.51 0 0 1-2.37 1.58c-1.06.03-1.91-.38-2.4-1.27a5.03 5.03 0 0 1 0-5.07v-.02Z"/><path d="M93.62 172.63c.04 2.6.03 5.2.04 7.8 0 .38.1.76.15 1.16h8.9v-3.15h-5.37v-2.05h5.38v-3.14h-5.4v-1.85c.6-.02 1.11-.15 1.59-.06 2.94.5 5.15-.57 6.9-2.82l.17-.44c-1.8 0-3.46.18-5.05-.04-2.71-.38-4.7.58-6.4 2.53-.55.64-.9 1.2-.88 2.05l-.03.01Zm-67.52 9.01v-13.56c-1.51 0-2.95.14-4.33-.03a6.5 6.5 0 0 0-6.25 2.46c-.54.64-.93 1.15-.92 2.02.05 2.65.01 5.32.03 7.97 0 .36.1.74.15 1.12h3.31v-10.23c1.68 0 3.11-.18 4.7.16v10.1h3.31Zm38.7-13.6a6.56 6.56 0 0 0-6.25 2.46c-.53.63-.93 1.16-.92 2.02.05 2.6.01 5.2.04 7.8 0 .43.1.84.13 1.23h8.92v-3.1h-5.52v-1.8c1.88-.56 3.82.19 5.52-.46v-2.96h-5.54v-1.9c1.54 0 3 .05 4.45-.03.57-.03 1.25-.2 1.68-.54.93-.7 1.76-1.56 2.62-2.36l-.08-.35c-1.69 0-3.39.17-5.05-.04v.03Zm-9.32 13.6c-.03-4.53.04-8.98-.04-13.4-2.63-.34-3.25-.3-4.1.47-2.9 2.66-5.78 5.33-8.65 8.01-.27.26-.58.62-.6.95-.06 1.3-.02 2.6-.02 3.9l.35.1 9.22-8.53.4.11v8.4h3.44Zm100.67-.04v-13.37c-1.94-.33-3.54-.28-5.03 1.25-2.38 2.45-5 4.7-7.5 7.05-.34.34-.77.76-.81 1.19-.11 1.3-.04 2.6-.04 4.28l3.44-3.17c1.07-1 2.1-2.02 3.22-2.98 1.08-.93 1.85-2.2 3.36-2.85v8.6h3.36Zm-74-11.09c-.66.56-.9 1.2-.9 2.03.05 2.6 0 5.2.04 7.8 0 .42.1.84.17 1.33 1.83 0 3.53.04 5.23 0a5.12 5.12 0 0 0 4.72-7.2 4.78 4.78 0 0 0-5.67-2.8v2.7c2.12.63 2.93 1.55 2.52 2.75-.43 1.25-1.56 1.6-3.56 1.04v-10c-1.02.94-1.75 1.69-2.56 2.35Zm102 4.93v2.86c3.1.22 5.45-1.73 5.66-4.6a5.12 5.12 0 0 0-4.64-5.6c-1.2-.11-2.23.12-3.05 1.06-.48.55-1.05 1.01-1.63 1.47-.64.5-.84 1.11-.84 1.89.03 2.66 0 5.32.01 7.98 0 .36.1.74.18 1.14h3.32v-10.08c2.21-.38 3.18.03 3.53 1.3.3 1.14-.39 1.86-2.54 2.58Zm-21.1-6.96a6.78 6.78 0 0 0-4.8 8.09c.85 3.39 4.5 5.6 8.14 4.92v-2.9c-.67-.08-1.24-.1-1.79-.22-1.83-.43-3.1-1.93-3.04-3.52.08-1.67 1.54-3.17 3.37-3.46.28-.04.57 0 .85-.06.34-.07.72-.1.95-.29 1-.84 1.98-1.75 2.95-2.61-2.32-.3-4.5-.6-6.65.05h.02Zm-93.13 7.67c.55 3.57 4.67 6.27 8.24 5.27v-2.68c-1.04-.28-2.03-.39-2.86-.79-2.51-1.2-2.74-4.28-.43-5.8.62-.42 1.46-.55 2.2-.77.48-.14 1.1-.07 1.45-.35 1.03-.82 1.94-1.76 3.12-2.86-2.13 0-3.9-.2-5.61.04-3.55.48-6.82 3.36-6.11 7.96v-.02Z"/><path d="M176.02 181.52v-9.68l3.96-3.45c-2.48-.3-4.8-.31-7.1-.29-.27 0-.6.08-.79.25-1 .87-1.95 1.77-3.17 2.91l3.62.18v10.14c1.25.22 2.33.23 3.48-.06Zm34.64-13.35v3.32l3.57-3.32h-3.57Z"/></g><defs><clipPath id="a"><path fill="#fff" transform="translate(.056)" d="M0 0h219v194h-219z"/></clipPath></defs></svg>