<svg version="1.1" id="Слой_1" xmlns="http://www.w3.org/2000/svg" x="0" y="0" viewBox="0 0 622.13 200" style="enable-background:new 0 0 622.13 200" xml:space="preserve"><style>.st0{fill:#fff}</style><path class="st0" d="M.01 74.95c.73-3.67 1.29-7.39 2.2-11.01 7.95-31.78 28.2-52.36 58.34-63.89.41-.16.97.06 2.4.18-15.98 9.39-27.28 22.22-35.96 37.49-13.57 23.84-11.41 47.25 6.46 68.72 9.06-2.87 16.63 2.99 25.9 4.74-1.68.86-2.73 1.41-3.79 1.93-6.89 3.38-7.49 7.68-1.2 12.29 14.27 10.44 30.75 12.86 47.82 11.8 18.57-1.15 35.21-8 50.41-18.56a16.4 16.4 0 0 1 4.43-2.33c-5.78 9.12-13.02 17-21.93 22.88-8.92 5.88-18.57 10.64-26.92 15.35l83.73 30.26c-7.75-1.69-14.83-2.94-21.74-4.81-17.98-4.87-35.68-10.96-53.88-14.68-10.49-2.14-21.82-1.56-32.61-.51-11.23 1.09-21.43 5.77-28.87 15.55 1.15-7.06 3.56-10.99 12.07-20.32l-30.28-10.85c-1.75 11.76 7.5 19.04 13.63 27.72l-.68 1.62c-6.93-1.8-13.92-3.37-20.75-5.48-4.3-1.33-8.27-2.43-12.84 2.09-.36-5.36-.93-9.71-.87-14.05.08-5.64.75-11.27.96-16.91.08-2.14.22-4.64-.74-6.39-7.35-13.5-12.85-27.57-14.69-42.93-.06-.49-.4-.94-.61-1.41l.01-18.49z"/><path class="st0" d="M122.27 61.08c.1 22.67-18.38 41.3-41.02 41.36-22.33.06-40.96-18.44-41.08-40.78a41.03 41.03 0 0 1 41.03-41.22c22.57-.01 40.97 18.2 41.07 40.64z"/><path class="st0" d="M130.61 77.03c3.34-4.11 5.27-8.4 8.56-10.17 8.74-4.69 6.72-11.99 5.67-19-1.99-13.4-9.37-23.45-20.96-30.09-13.76-7.87-28.55-12.24-44.65-11.14 16.21-5.08 32.23-4.75 47.89 2.09 25.02 10.92 37.95 31.08 42.26 57.16 1.23 7.48 3.14 13.95 8.34 19.67 3.48 3.83 5.87 8.64 8.01 11.88-3.45 2.75-6.29 4.61-8.62 6.97-3.62 3.68-6.89 7.7-10.94 11.22-1.01-8.39 1.92-16.94-4.97-24.6-7.52 17.95-22.19 27.26-39.44 33.27-17.48 6.1-34.88 5.36-52.36-.95 8.78-1.07 17.39-1.48 25.7-3.28 16.12-3.49 29.31-12.09 39.26-25.32a41.51 41.51 0 0 0 5.19-9.38c1.14-2.84 2.97-6.36-1.28-8.49-3.36-1.69-8.02.53-9.72 4.39-.41.93-.86 1.84-1.68 2.78 5.54-19.18 1.68-36.4-10.98-51.38-12.71-15.04-29.1-21.72-49.49-19.14 11.47-6.48 31.49-2.74 42.18 4.55 20.6 14.07 27.29 33.6 22.03 58.96zm-80.15 122.97c2.6-16.91 15.94-29.05 33.28-31.58 18.58-2.71 36.43 1.34 54.19 5.79 16.56 4.15 32.87 9.32 49.54 12.93 18.41 3.99 36.92 4.1 55.28-1.59a92.85 92.85 0 0 1 39.05-3.28c-3.69.44-7.44.6-11.06 1.38-9.51 2.04-19.38 3.26-28.34 6.77-21.84 8.55-43.8 8.12-66.07 3.2-17.68-3.9-35.13-9.04-52.95-11.97-12.35-2.03-25.22-2.24-37.75-1.44-13.88.89-26.12 6.64-35.17 19.79z"/><path class="st0" d="M98.3 109.23c-18.15 7.8-41.86 1.81-55.35-13.88-13.84-16.09-17.04-40.14-7.43-55.78-11.87 39.09 24.72 77.42 62.78 69.66zm165.23-65.2c-.44 4.98-2.17 8.87-5.18 11.65-3.01 2.79-6.97 4.18-11.88 4.18-5.61 0-10.06-1.86-13.34-5.56-3.29-3.71-4.93-8.72-4.93-15.03 0-5.91 1.65-10.82 4.96-14.75 3.3-3.93 7.87-5.9 13.7-5.9a18.6 18.6 0 0 1 11.02 3.38 12.3 12.3 0 0 1 5.31 9.36h-5.2a9.97 9.97 0 0 0-3.88-6.06 12.12 12.12 0 0 0-7.36-2.19c-4.39 0-7.7 1.55-9.94 4.65-2.23 3.1-3.35 6.92-3.35 11.46 0 5.02 1.18 8.97 3.54 11.85 2.36 2.88 5.59 4.32 9.69 4.32 3.36 0 6.03-.97 8.03-2.91 1.99-1.94 3.19-4.75 3.6-8.44l5.21-.01zm28.67-24.52 15.39 39.41h-5.81l-4.37-12.07h-16.55l-4.48 12.07h-5.54l15.5-39.41h5.86zm3.65 23.19-6.7-18.21-6.81 18.21h13.51zm52.42-23.19v39.41h-5.2v-18.43h-20.82v18.43h-5.2v-39.41h5.2v16.44h20.82v-16.44h5.2zm30.84 0 15.39 39.41h-5.81l-4.37-12.07h-16.55l-4.48 12.07h-5.54l15.5-39.41h5.86zm3.65 23.19-6.7-18.21-6.81 18.21h13.51zm48.54-23.19v4.54h-13.23v34.88h-5.2v-34.88h-13.23v-4.54h31.66zm26.57-.94c5.98 0 10.63 1.87 13.95 5.62 3.32 3.75 4.98 8.65 4.98 14.7 0 6.09-1.64 11.11-4.93 15.06-3.29 3.95-7.94 5.92-13.95 5.92a19.7 19.7 0 0 1-8.25-1.66 15.56 15.56 0 0 1-5.95-4.6 21.06 21.06 0 0 1-3.49-6.7 26.65 26.65 0 0 1-1.19-8.14c0-6.16 1.71-11.07 5.12-14.73 3.43-3.65 7.99-5.47 13.71-5.47zm0 4.53c-4.39 0-7.76 1.54-10.1 4.62s-3.52 6.89-3.52 11.43c0 4.95 1.25 8.89 3.74 11.82 2.49 2.94 5.82 4.4 9.99 4.4 4.13 0 7.44-1.48 9.91-4.43 2.47-2.95 3.71-6.88 3.71-11.79 0-4.87-1.24-8.77-3.74-11.68-2.48-2.91-5.82-4.37-9.99-4.37zm31.23-3.59h16.22c4.02 0 7.21.91 9.58 2.74 2.36 1.83 3.54 4.7 3.54 8.61 0 7.94-4.48 11.9-13.45 11.9h-10.69v16.16h-5.2v-39.41zm5.2 4.48v14.39h10.02c2.81 0 4.99-.53 6.56-1.58s2.35-2.93 2.35-5.62c0-1.51-.25-2.77-.75-3.77a4.8 4.8 0 0 0-2.19-2.22c-.96-.48-1.96-.8-2.99-.97a23.26 23.26 0 0 0-3.71-.25l-9.29.02zm35.98 34.93v-39.41h5.2v33.38h.11l19.32-33.38h6.59v39.41h-5.2v-33.49h-.11l-19.38 33.49h-6.53zm45.5 0v-39.41h5.2v33.38h.11l19.32-33.38h6.59v39.41h-5.2v-33.49h-.11l-19.38 33.49h-6.53zm23.92-49.76a9.64 9.64 0 0 1-2.68 5.56c-1.42 1.39-3.29 2.08-5.62 2.08-2.25 0-4.14-.71-5.68-2.13s-2.45-3.26-2.74-5.51h2.82c.85 2.88 2.7 4.32 5.54 4.32 2.73 0 4.58-1.44 5.54-4.32h2.82zm-339.54 73.32v39.41h-8.64v-32.05h-16.11v32.05h-8.64v-39.41h33.39zm7.7 0h17c4.43 0 7.94 1.06 10.55 3.18 2.6 2.12 3.9 5.29 3.9 9.49 0 4.14-1.29 7.26-3.88 9.38-2.58 2.12-5.96 3.18-10.13 3.18h-8.86v14.17h-8.58v-39.4zm8.58 7.09v11.35h7.7c4.5 0 6.75-1.88 6.75-5.65 0-3.8-2.23-5.7-6.7-5.7h-7.75zm61.66-7.09v39.41h-8.64v-27.34h-.17l-14.84 27.35h-9.74v-39.42h8.64v27.29h.17l14.84-27.29h9.74zm25.47-.94c5.76 0 10.42 1.91 13.98 5.73 3.56 3.82 5.34 8.81 5.34 14.98 0 6.16-1.78 11.14-5.34 14.92-3.56 3.78-8.24 5.68-14.03 5.68-5.83 0-10.54-1.89-14.12-5.68-3.58-3.78-5.37-8.76-5.37-14.92 0-6.24 1.78-11.25 5.34-15.03 3.56-3.79 8.29-5.68 14.2-5.68zm-.11 7.09a9.45 9.45 0 0 0-7.78 3.65c-1.94 2.44-2.91 5.7-2.91 9.8 0 4.25.96 7.57 2.88 9.97 1.92 2.4 4.56 3.62 7.92 3.65 3.29 0 5.87-1.22 7.75-3.65 1.88-2.44 2.82-5.76 2.82-9.97 0-4.13-.96-7.41-2.88-9.83s-4.52-3.62-7.8-3.62zm55.3 21.14c0 3.8-1.48 6.92-4.43 9.36-2.95 2.44-6.64 3.65-11.07 3.65-5.35 0-9.53-1.23-12.54-3.68-3.01-2.46-4.53-5.92-4.57-10.38h8.58c.07 2.51.89 4.37 2.43 5.59 1.55 1.22 3.58 1.83 6.09 1.83 1.99 0 3.63-.6 4.9-1.8a5.95 5.95 0 0 0 1.91-4.51c0-3.69-2.47-5.54-7.42-5.54h-2.99v-5.87c.44.04 1.22.05 2.33.05 4.76 0 7.14-1.79 7.14-5.37a4.2 4.2 0 0 0-1.61-3.52 6.87 6.87 0 0 0-4.32-1.25c-2.14 0-3.86.51-5.15 1.52a5.84 5.84 0 0 0-2.16 4.35h-8.19c.08-4.17 1.57-7.31 4.49-9.41 2.92-2.11 6.61-3.16 11.07-3.16 4.06 0 7.41 1.01 10.05 3.02a9.46 9.46 0 0 1 3.96 7.89 8.2 8.2 0 0 1-1.66 5.12 7.36 7.36 0 0 1-4.32 2.8 8.36 8.36 0 0 1 5.37 3.05 9.54 9.54 0 0 1 2.11 6.26zm35.53-27.29v7.09h-20.98v8.58h19.26v6.81h-19.26v9.69h21.37v7.25h-29.95v-39.42h29.56zm-16.94-9.74v6.42h-7.36v-6.42h7.36zm11.57 0v6.42h-7.36v-6.42h7.36zm11.74 9.74h17c4.43 0 7.94 1.06 10.55 3.18 2.6 2.12 3.9 5.29 3.9 9.49 0 4.14-1.29 7.26-3.88 9.38-2.58 2.12-5.96 3.18-10.13 3.18h-8.86v14.17h-8.58v-39.4zm8.58 7.09v11.35h7.7c4.5 0 6.75-1.88 6.75-5.65 0-3.8-2.23-5.7-6.7-5.7h-7.75zm61.67-7.09v39.41h-8.64v-17h-16.11v17h-8.64v-39.41h8.64v14.84h16.11v-14.84h8.64zm37.42 26.74c0 4.21-1.3 7.37-3.9 9.49-2.6 2.12-6.12 3.18-10.55 3.18h-15.33v-39.41h8.58v14.17h7.2c4.17 0 7.55 1.06 10.13 3.18 2.57 2.13 3.87 5.25 3.87 9.39zm-8.42-.11c0-3.77-2.25-5.65-6.76-5.65h-6.03v11.35h6.09c4.47 0 6.7-1.9 6.7-5.7zm12.62-26.63h8.64v39.41h-8.64v-39.41zm49.6 0v39.41h-8.64v-27.34h-.17l-14.84 27.35h-9.74v-39.42h8.64v27.29h.16l14.84-27.29h9.75zm-10.74-10.63h3.1c0 5.32-3.01 7.97-9.02 7.97-6.02 0-9.02-2.66-9.02-7.97h3.1c.48 2.44 2.46 3.65 5.92 3.65 3.47.01 5.44-1.21 5.92-3.65z"/></svg>