<svg viewBox="0 0 553 145" fill="none" xmlns="http://www.w3.org/2000/svg"><path d="m473.49 62.63-.5 26.85 52.29.98-1 53.72 26.15.49 1.5-80.58-78.44-1.46Z" fill="#fff"/><path d="m446.34 115.86 1.5-80.58 78.44 1.46.5-26.86-104.59-1.95-2.5 134.3 78.44 1.46.5-26.86-52.3-.97Zm-290.43-79.79c-.67-.01-.93-.06-1.55-.17a9.23 9.23 0 0 1-1.95-.6 5.74 5.74 0 0 1-1.75-1.14 5.23 5.23 0 0 1-1.2-1.87 6.95 6.95 0 0 1-.45-2.72c.02-.95.2-2.33.5-3.1a6.1 6.1 0 0 1 1.1-1.84c.43-.48 1.55-1.9 4.72-2.44 1.78-.3 9.06-.38 9.06-.38l.05-2.59c-.18-2.54-3.06-3.22-4.26-3.26-3.79-.15-4.93 2.09-5.14 3.23l-5.23-.1a7.36 7.36 0 0 1 3.31-5.6c1.91-1.32 4.28-1.96 7.13-1.9.9.01 1.75.09 2.56.23.8.14 1.63.42 2.47.82a6.46 6.46 0 0 1 3.63 3.98 9.7 9.7 0 0 1 .53 3.55l-.18 9.42c0 .46.57 1.3 1.01 1.31l1.3.03-.08 4.82-3.93-.08c-1.65-.03-2.65-.76-2.99-2.18l-.2-.9-.2-.01c-2.08 2.38-4.84 3.54-8.28 3.48l.02.01Zm1.25-4.26c1.96.03 3.64-.5 5.03-1.62a4.9 4.9 0 0 0 2.11-4.25v-.22s-5.78-.1-7.54.26c-1.84.39-2.96 1.45-3 3.22-.03 1.7 1.1 2.56 3.4 2.6Zm25.06-5.51-.18 9.65-4.83-.1.43-23.33 4.84.09-.16 8.9 10.11.19.17-8.9 4.9.09-.44 23.34-4.9-.09.19-9.65-10.13-.19Zm48.31 47.17-.18 9.65-4.84-.1.44-23.32 4.84.09-.17 8.9 10.12.19.17-8.9 4.9.09-.43 23.34-4.9-.1.17-9.64-10.12-.2Zm-27.27-37.12.44-23.34 5.1.1-.17 8.94 1.02.02 9.41-8.78 6.27.12-11.37 11.08 11.22 12.27-6.37-.12-9.29-9.87-.97-.02-.18 9.7-5.1-.1Zm102.99 1.92.44-23.34 5.1.1-.17 8.94 1.02.02 9.41-8.77 6.27.11-11.37 11.08 11.23 12.27-6.38-.12-9.29-9.87-.97-.02-.18 9.7-5.1-.1Zm-68.57-.67a11.28 11.28 0 0 1-5.78-1.63 10.64 10.64 0 0 1-4-4.42 13.63 13.63 0 0 1-1.37-6.47c.07-3.63 1.2-6.56 3.39-8.79a10.73 10.73 0 0 1 8.21-3.26 10.6 10.6 0 0 1 8.03 3.56c2.1 2.32 3.12 5.29 3.05 8.91-.06 3.62-1.19 6.58-3.38 8.82a10.61 10.61 0 0 1-8.15 3.27v.01Zm.09-4.78a5.92 5.92 0 0 0 4.67-1.99c1.25-1.36 1.9-3.16 1.94-5.42.04-2.26-.54-4.04-1.74-5.44a5.92 5.92 0 0 0-4.6-2.16 6.03 6.03 0 0 0-4.71 1.99 7.82 7.82 0 0 0-1.95 5.37 7.98 7.98 0 0 0 1.75 5.49 6.01 6.01 0 0 0 4.64 2.16Zm15.95 4.47.43-23.34 12.32.23c2.41.04 4.33.63 5.77 1.76a5.27 5.27 0 0 1 2.1 4.46c-.04 2.19-1.21 3.84-3.5 4.94l-.01.2a6.61 6.61 0 0 1 2.93 2.28c.7 1 1.04 2.16 1.02 3.48a5.74 5.74 0 0 1-2.22 4.51c-1.45 1.19-3.4 1.76-5.86 1.71l-12.99-.24v.01Zm4.93-14.03 7.14.13c2.23.04 3.37-.76 3.4-2.38a2.21 2.21 0 0 0-.85-1.93 4.06 4.06 0 0 0-2.47-.7l-7.13-.13-.1 5h.01Zm-.18 9.9 7.69.15c1.06.02 1.9-.23 2.52-.74.62-.5.94-1.18.95-2.03a2.5 2.5 0 0 0-.87-2.04 3.77 3.77 0 0 0-2.5-.8l-7.69-.15-.1 5.62Zm31.68 5.42a10.63 10.63 0 0 1-8.1-3.54c-2.06-2.3-3.05-5.3-2.98-8.97.07-3.68 1.17-6.61 3.32-8.82a10.68 10.68 0 0 1 8.22-3.23c1.79.03 3.43.41 4.93 1.12 1.49.72 2.77 1.8 3.83 3.24a12.35 12.35 0 0 1 2.14 5.17l-5.1-.1a7.11 7.11 0 0 0-2.29-3.43 5.85 5.85 0 0 0-3.6-1.23 5.81 5.81 0 0 0-4.69 1.96c-1.19 1.34-1.8 3.15-1.85 5.4-.04 2.24.51 4.1 1.65 5.5a5.8 5.8 0 0 0 4.62 2.13 5.8 5.8 0 0 0 3.65-1.09 7.13 7.13 0 0 0 2.4-3.35l5.11.1a12.33 12.33 0 0 1-2.33 5.09 10.12 10.12 0 0 1-3.96 3.09 11.6 11.6 0 0 1-4.97.94v.02Zm63.49-22.78-.43 23.35-4.35-.08.29-15.33h-.2l-12.57 15.1-4.34-.09.43-23.34 4.35.08-.29 15.28h.18l12.59-15.04 4.34.08Zm-305.34 39.96a9.7 9.7 0 0 1 7.65 3.52c1.9 2.28 2.83 5.27 2.76 8.94-.07 3.66-1.1 6.63-3.1 8.85a9.68 9.68 0 0 1-7.77 3.25 9.6 9.6 0 0 1-7.7-3.77h.16l-.23 12.31-5.07-.1.6-32.62 5.07.1-.05 3h-.16a9.57 9.57 0 0 1 7.84-3.48Zm-1.59 19.75a6.24 6.24 0 0 0 4.88-2 7.74 7.74 0 0 0 2-5.39 7.67 7.67 0 0 0-1.8-5.44 6.27 6.27 0 0 0-4.8-2.17 6.47 6.47 0 0 0-4.95 2 7.6 7.6 0 0 0-2.04 5.34 7.69 7.69 0 0 0 1.84 5.47 6.43 6.43 0 0 0 4.87 2.19Zm67.43.66-.18 9.87-5.05-.1.1-5.09-18.45-.34.44-23.34 5.1.1-.34 18.56 10.24.2.34-18.57 5.19.1-.35 18.56 2.96.06v-.02Zm14.96 5.68a11.32 11.32 0 0 1-5.8-1.64 10.85 10.85 0 0 1-4.04-4.43 13.4 13.4 0 0 1-1.4-6.46c.07-3.61 1.22-6.54 3.45-8.78a10.86 10.86 0 0 1 8.23-3.27c3.27.06 5.93 1.22 8 3.46 2.07 2.24 3.07 4.91 3 8.52l-.12 2.03-17.55-.32a8.31 8.31 0 0 0 2.08 4.75 5.92 5.92 0 0 0 4.22 1.75 6.2 6.2 0 0 0 3.23-.78 5.87 5.87 0 0 0 2.28-2.31l5.28.1a11.55 11.55 0 0 1-4.16 5.38 10.83 10.83 0 0 1-6.7 2Zm-6.03-14.96 12.38.23a6.55 6.55 0 0 0-1.97-3.85 5.54 5.54 0 0 0-4-1.61 5.85 5.85 0 0 0-4.12 1.43 6.57 6.57 0 0 0-2.3 3.8Zm128.1 16.61.44-23.33 16.72.32-.1 4.91-11.82-.22-.34 18.42-4.9-.09v-.01Zm83.97 1.57-10.95-.2.43-23.33 4.35.08-.15 7.8 6.56.12c2.53.04 4.28.73 5.8 2.06 1.5 1.34 2.24 3.3 2.19 5.88-.05 2.58-.85 4.49-2.4 5.75-1.55 1.28-3.32 1.9-5.83 1.84Zm-6.4-11.35-.13 6.93 6.1.12c1.24.02 1.93-.28 2.57-.87a3.3 3.3 0 0 0 1-2.52 3.43 3.43 0 0 0-.92-2.6c-.63-.61-1.33-.94-2.63-.96l-6-.11h.01Zm24.04-11.65-.44 23.34-5.15-.1.44-23.34 5.15.1Zm-228.15-53.65-.13 7.13 9.64.18c3.5.07 6.18 1.03 8 2.89 1.84 1.85 2.73 4.27 2.67 7.25-.05 2.98-1.03 5.31-2.93 7.1-1.9 1.78-4.6 2.63-8.1 2.57l-15.02-.28.6-31.87 24.01.45-.09 4.93-18.65-.35Zm-.4 22.02 9.63.18c1.8.03 3.17-.39 4.12-1.25a4.77 4.77 0 0 0 1.47-3.6 4.94 4.94 0 0 0-1.32-3.7c-.91-.91-2.27-1.4-4.07-1.42l-9.65-.18-.18 9.97Zm256.92-14.12-.43 23.34-4.36-.08.29-15.32h-.2l-12.56 15.09-4.35-.08.44-23.35 4.34.09-.28 15.27h.18l12.58-15.04 4.36.08Zm-5.95-7.64-8.98-.17-.08 4.47 8.98.17.08-4.47Zm5.1 53.9-.44 23.34-4.35-.08.29-15.32h-.2l-12.57 15.09-4.34-.08.43-23.35 4.35.09-.29 15.27h.18l12.58-15.04 4.35.08Zm-5.97-7.64-8.98-.17-.08 4.46 8.97.17.09-4.46Zm-299.82 25.88a11.3 11.3 0 0 1-5.78-1.63 10.64 10.64 0 0 1-4-4.41 13.63 13.63 0 0 1-1.37-6.48c.07-3.62 1.2-6.55 3.4-8.78a10.73 10.73 0 0 1 8.2-3.27 10.6 10.6 0 0 1 8.03 3.57c2.1 2.32 3.12 5.28 3.06 8.9-.07 3.63-1.2 6.59-3.39 8.83a10.62 10.62 0 0 1-8.14 3.27Zm.1-4.79a5.92 5.92 0 0 0 4.66-1.99c1.25-1.36 1.9-3.16 1.94-5.42a7.84 7.84 0 0 0-1.73-5.44 5.92 5.92 0 0 0-4.6-2.16 6.03 6.03 0 0 0-4.72 1.99 7.81 7.81 0 0 0-1.95 5.37 7.98 7.98 0 0 0 1.75 5.49 5.97 5.97 0 0 0 4.64 2.16Zm207.79 8.68a11.3 11.3 0 0 1-5.78-1.63 10.64 10.64 0 0 1-4-4.42 13.64 13.64 0 0 1-1.36-6.47c.07-3.63 1.2-6.56 3.39-8.79a10.74 10.74 0 0 1 8.21-3.26c3.28.06 5.93 1.25 8.03 3.56 2.1 2.32 3.12 5.29 3.05 8.91-.06 3.62-1.19 6.58-3.38 8.82a10.62 10.62 0 0 1-8.14 3.27l-.01.01Zm.1-4.8a5.94 5.94 0 0 0 4.68-1.98c1.24-1.36 1.89-3.16 1.93-5.42.04-2.26-.54-4.04-1.73-5.44a5.92 5.92 0 0 0-4.6-2.16 6 6 0 0 0-4.72 1.98 7.81 7.81 0 0 0-1.95 5.38 7.98 7.98 0 0 0 1.75 5.49 5.97 5.97 0 0 0 4.64 2.16Zm-126.33 2.44a10.63 10.63 0 0 1-8.09-3.53c-2.07-2.3-3.06-5.3-2.99-8.98.07-3.67 1.18-6.6 3.33-8.82a10.68 10.68 0 0 1 8.21-3.23c1.8.04 3.44.41 4.93 1.12 1.5.73 2.78 1.8 3.84 3.24a12.35 12.35 0 0 1 2.14 5.18l-5.1-.1a7.1 7.1 0 0 0-2.29-3.44 5.85 5.85 0 0 0-3.6-1.22 5.82 5.82 0 0 0-4.68 1.95c-1.2 1.35-1.82 3.15-1.86 5.4-.04 2.24.51 4.11 1.65 5.5a5.8 5.8 0 0 0 4.62 2.14c1.4.02 2.6-.34 3.65-1.1a7.1 7.1 0 0 0 2.4-3.35l5.11.1a12.3 12.3 0 0 1-2.33 5.09 10.11 10.11 0 0 1-3.96 3.1c-1.53.66-3.18.97-4.97.93v.02Zm26.13.49a10.63 10.63 0 0 1-8.1-3.54c-2.06-2.3-3.05-5.3-2.98-8.97.06-3.68 1.17-6.61 3.32-8.82a10.68 10.68 0 0 1 8.22-3.23c1.78.03 3.43.41 4.92 1.12 1.5.72 2.78 1.8 3.85 3.24a12.35 12.35 0 0 1 2.13 5.17l-5.1-.1a7.11 7.11 0 0 0-2.29-3.43 5.85 5.85 0 0 0-3.6-1.23 5.82 5.82 0 0 0-4.68 1.96c-1.2 1.34-1.81 3.15-1.86 5.4-.04 2.24.51 4.1 1.65 5.5a5.8 5.8 0 0 0 4.62 2.13 5.8 5.8 0 0 0 3.65-1.09 7.1 7.1 0 0 0 2.4-3.35l5.11.1a12.32 12.32 0 0 1-2.32 5.09 10.12 10.12 0 0 1-3.96 3.09c-1.54.67-3.2.98-4.98.94v.02Zm37.7-23.26-.43 23.35-4.35-.08.29-15.33h-.2l-12.57 15.1-4.34-.09.44-23.34 4.34.08-.28 15.28h.17l12.59-15.05 4.35.08Zm78.85 24.82.43-23.33 12.12.22c2.4.05 4.33.64 5.77 1.77a5.27 5.27 0 0 1 2.1 4.45c-.04 2.2-1.22 3.84-3.51 4.94v.2a6.6 6.6 0 0 1 2.93 2.29c.7 1 1.03 2.15 1 3.48a5.74 5.74 0 0 1-2.21 4.5c-1.45 1.2-3.4 1.76-5.86 1.71l-12.78-.23Zm4.73-14.03 7.14.13c2.23.04 3.37-.76 3.4-2.38.01-.83-.26-1.48-.86-1.92a4.06 4.06 0 0 0-2.46-.7l-7.13-.14-.1 5h.01Zm-.18 9.9 7.69.13c1.06.02 1.9-.22 2.52-.73.62-.51.94-1.19.95-2.03a2.51 2.51 0 0 0-.87-2.05 3.77 3.77 0 0 0-2.5-.8l-7.69-.14-.1 5.62Zm-58.6 50.1.6-31.34 5.42.1-.49 26.27 15.22.29.5-26.27 5.44.1-.5 26.27 3.4.06-.21 11.53-5.59-.1.12-6.47-23.9-.45Zm44.7.89a11.32 11.32 0 0 1-5.8-1.64 10.86 10.86 0 0 1-4.04-4.43 13.4 13.4 0 0 1-1.4-6.46c.07-3.61 1.22-6.53 3.45-8.78a10.86 10.86 0 0 1 8.24-3.27c3.25.07 5.92 1.22 7.99 3.46 2.07 2.25 3.07 4.91 3 8.52l-.12 2.04-17.55-.33a8.32 8.32 0 0 0 2.08 4.76 5.92 5.92 0 0 0 4.22 1.74 6.2 6.2 0 0 0 3.23-.78 5.87 5.87 0 0 0 2.28-2.31l5.28.1a11.6 11.6 0 0 1-4.16 5.38 10.82 10.82 0 0 1-6.7 2Zm-6.03-14.96 12.38.23a6.55 6.55 0 0 0-1.97-3.84 5.53 5.53 0 0 0-4-1.62 5.85 5.85 0 0 0-4.12 1.43 6.53 6.53 0 0 0-2.3 3.8Zm27.05 4.93-.17 9.65-4.84-.09.43-23.33 4.84.09-.16 8.9 10.11.19.17-8.9 4.9.09-.44 23.34-4.9-.09.19-9.65-10.13-.19v-.01Zm19.41-8.54.09-4.78 21.63.4-.09 4.78-8.28-.15-.35 18.56-5.05-.1.35-18.56-8.3-.15Zm38.87-4.68a9.72 9.72 0 0 1 7.65 3.53c1.92 2.28 2.83 5.27 2.76 8.93-.06 3.67-1.1 6.64-3.09 8.86a9.68 9.68 0 0 1-7.77 3.24 9.59 9.59 0 0 1-7.7-3.76h.15l-.23 12.3-5.1-.09.61-32.62 5.1.1-.05 3h-.16a9.56 9.56 0 0 1 7.83-3.49Zm-1.58 19.76a6.24 6.24 0 0 0 4.87-2 7.73 7.73 0 0 0 2-5.4 7.7 7.7 0 0 0-1.8-5.43 6.27 6.27 0 0 0-4.8-2.17 6.47 6.47 0 0 0-4.95 1.99 7.6 7.6 0 0 0-2.04 5.35 7.69 7.69 0 0 0 1.84 5.46 6.36 6.36 0 0 0 4.88 2.2Zm-365.27-48.3.58-31.4 26.37.5-.59 31.4-5.89-.12.5-26.4-14.57-.27-.5 26.4-5.9-.11Z" fill="#fff"/></svg>