<svg viewBox="0 0 238 236" fill="none" xmlns="http://www.w3.org/2000/svg"><g clip-path="url(#a)" fill="#fff"><path d="M237 113.88c-1.8-59.95-52.35-113.9-118.7-113.88-67.7.03-120.28 57.28-118.19 117.82-2.12 62.89 52.33 117.77 117.36 118.18 65.54.41 121.59-53.75 119.53-122.12Zm-120.17 117.77c-62.06-.73-113.01-50.53-112.92-113.46.1-65.6 52.74-113.61 113.96-113.88 62.75-.28 115.56 49.97 114.87 114.77-.54 62.85-51.64 113.33-115.9 112.58v-.01Z"/><path d="M117.33 12.75c-58.53.57-105.21 50.15-104.84 105.44.38 56.58 47.34 105.54 106.75 105.06 59.86-.47 106.1-51.3 104.64-104.89 1.52-55.76-46.4-106.2-106.54-105.6v-.01Zm2.8 208.78c-56.93.62-105.89-43.36-106-103.13-.1-56.68 43.27-102.55 101.88-103.89 59-1.34 104.92 44.18 106.46 100.14 1.65 60.16-45.25 105.61-102.34 106.88Z"/><path d="M118.85 110.06c-2.51 1.03-5.21 1.6-7.95 2.42.17.42.3.91.55 1.32 1.83 3.05 3.66 6.11 5.56 9.12 5.5 8.69 11.52 16.93 19.05 24.1 6.22 5.91 13.45 5.22 20.9 4.38.04 0 .07-.12.2-.37-7.75-3.85-13.31-10.22-18.91-16.52a171.86 171.86 0 0 1-15.33-20.4c2.14-.6 4-.96 5.75-1.65a29.2 29.2 0 0 0 5.02-2.62 17.87 17.87 0 0 0 1.25-29.33c-4.52-3.53-9.92-4.65-15.42-4.85-7.6-.27-15.2-.03-22.82 0h-4.86a11.92 11.92 0 0 1 4.4 9.55c-.04 18.9-.03 37.8 0 56.7 0 3.43-.73 6.48-3.74 8.6-.24.16-.37.48-.7.95h19.19c-.04-.32 0-.49-.08-.58a1.95 1.95 0 0 0-.46-.45c-2.65-1.94-3.58-4.62-3.57-7.8.03-18.83.08-37.65-.02-56.48 0-2.17.9-2.86 2.72-2.91 2.76-.09 5.55-.17 8.31-.04 8.4.4 13.7 7.25 12 15.45-1.26 6.08-5.72 9.24-11.03 11.41h-.01Zm-66.8 35.5c5.71 3.64 14 3.01 18.76-1.4 3.21-3 3.7-5.8 1.61-9.23-2.47-4.04-9.1-6.13-12.98-4.08-2.84 1.5-4.12 4.98-2.7 7.36a5.62 5.62 0 0 0 7.77 2.04c1.58-.96 1.64-1.64.16-2.89-.28.42-.52.88-.86 1.24-1.07 1.14-2.38 1.43-3.76.66-1.38-.76-2.97-1.48-2.8-3.48.2-2.35 4.08-5.43 6.38-4.9 3.24.74 6.24 2.05 8.43 4.7 1.37 1.67 1.35 3.24-.07 4.9-3.62 4.22-8.07 6-13.67 4.85-5.41-1.11-10.5-6.95-10.03-11.69 1.22-12.06 16.48-18.72 26.32-14.2 3.82 1.76 5.91 4.98 7.72 8.5-.66-5.12-3.49-8.78-7.8-11.41-8.27-5.05-19.95-4.71-26.22 4.17-6.45 9.13-5.07 19.28 3.73 24.87Z"/><path d="M160.59 96.02c-5.85.42-11.27 4.69-12.43 9.75-1.04 4.59.58 8.97 3.85 10.44 4.22 1.9 10.18-.15 12.35-4.25a5.08 5.08 0 0 0-2.27-7c-2.95-1.54-5.8-.7-7.22 2.16-.96 1.91-.36 2.96 1.78 3.27-.28-.86-1.07-2.12-.73-2.61.79-1.13 2.22-2.7 3.2-2.59 1.52.18 3.15 1.4 4.2 2.63.65.77.84 2.66.34 3.53-1.81 3.12-4.59 5-8.43 4.86-2.72-.11-4.34-1.36-5.1-3.94-1.81-6.15 1.5-11.8 7.81-13.35 6.77-1.66 13.45 1.97 16.13 9.15 2.37 6.36.41 14.88-6.53 17.9-2.45 1.07-5.23 1.42-7.9 2.1.54.14 1.23.4 1.94.49 6.8.8 14.93-3.4 17.8-9.59 1-2.2 1.78-4.96 1.42-7.27-1.52-9.78-10.3-16.39-20.2-15.68h-.01Zm-81.09 6.69 2.97 8.9c1.7-7.23-.57-12.72-5.14-17.68-4.54-4.91-10.27-5.33-16.57-4.86 5.43 2.6 5.95 7.73 7.2 12.57a11.3 11.3 0 0 0 2.66 4.9c3.09 3.14 6.49 5.95 10 9.11-.19-4.58-2.78-8.57-1.84-12.92l.72-.02Zm62.15-59.05c-.28-.5-.63-1.28-.41-1.63 2.7-4.58 4.03-9.99 8.11-13.58l-1.56 19.24.62.2c.66-.52 1.34-1.02 1.97-1.6 3.13-2.83 6.2-5.73 9.4-8.5 1.04-.9 2.35-1.5 3.55-2.23l.33.55c-1.62 3.31-3.28 6.6-4.85 9.92-1.02 2.17-1.78 4.57-5.23 3.88l.03.81c2.87 1.36 5.73 2.73 8.22 3.9-.16-1.6-.82-3.36-.36-4.75 1.01-3.09 2.54-6 3.94-8.96 1.31-2.77 1.62-6.43 6.09-6.65-1.25-.75-2.46-1.04-3.47-1.65-1.94-1.19-3.31-.58-4.85.81-3.28 3-6.7 5.83-10.07 8.72-.24.2-.58.28-1.03.5-.04-.56-.1-.92-.09-1.26.22-4.64.49-9.28.66-13.91.02-.72-.16-1.82-.64-2.1-1.69-1.02-3.54-1.76-5.34-2.6-.05.76.08 1.34.43 1.55 1.83 1.1 1.35 2.33.46 3.78a316.2 316.2 0 0 0-5.74 9.75c-1.22 2.16-2.22 4.48-5.29 4.43-.1 0-.22.27-.35.43l6.5 2.84c-.14-.81-.68-1.31-1.02-1.92l-.01.03Zm-27.26 141.06c19.94 1.09 37.16-5.6 51.4-19.53a58.09 58.09 0 0 0 14.68-23.16c-4.73 8.56-9.63 16.98-17.01 23.61a67.3 67.3 0 0 1-25.37 14.62 64.64 64.64 0 0 1-29.42 2.3 68.66 68.66 0 0 1-27.3-10.58c-8.3-5.46-14.8-12.69-20.55-20.71 1.4 3.73 3.68 6.87 6.22 9.81 12.45 14.44 28.22 22.6 47.34 23.63l.01.01Zm18.38-132.08c-19.06-4.04-36.86-.37-52.93 10.68-8.42 5.8-14.99 13.36-20.16 22.07l.66.56c.68-.8 1.38-1.58 2.03-2.41 2.48-3.22 4.7-6.69 7.47-9.65 13.25-14.13 29.74-21.13 49.13-21.22a61.73 61.73 0 0 1 19.52 3.34c16.3 5.36 28.87 15.2 37.2 30.22.93 1.65 1.97 3.25 2.95 4.88l.67-.35c-.05-2.9-2.08-5.06-3.5-7.29-10.17-15.97-24.3-26.86-43.04-30.83Zm54.33 86.36c6.96-.64 12.07-3.86 14.86-10.87-3.13 1.84-6.1 1.77-9.2 1.22-3.5-.6-7.1-1.63-10.53-1.28-4.1.41-8.08 2.08-12.11 3.22l-.07.54 11.8 3.16-.26 1.2-7.77-1.32c1.87 2.72 7.88 4.63 13.3 4.12l-.02.01Zm-12.39-73.85c-.04.28-.1.55-.13.82 2 2.7 3.99 5.42 5.98 8.13l.95-.05c-2.03-3.1.19-4.3 1.94-5.72.5-.4.92-.99 1.49-1.26.63-.3 1.7-.7 2.05-.43.54.45.98 1.48.88 2.17-.17 1.1-.84 2.13-1.27 3.2-.67 1.67-1.47 3.31-1.94 5.04-.61 2.24.8 5.06 2.43 5.78 1-3.02 2.16-6.04 2.97-9.14.65-2.48 1.9-3.07 4.2-2.2 2.55.95 4.45-.27 5.91-2.14a4.85 4.85 0 0 0 .15-5.75c-2.2-3.48-4.72-6.78-7.12-10.13-.07-.11-.37-.06-.84-.12 1.27 2.61-.05 3.92-2.08 5.18-2.9 1.8-5.67 3.82-8.42 5.86-2.16 1.6-4.09 3.9-7.15.75Zm20.06-5.03c.45-.3 1.87-.08 2.07.3.65 1.27 1.48 2.8 1.28 4.07-.38 2.32-2.28 3.6-4.6 4.06-2.68.54-4.38-.86-5.9-3.1 2.5-1.89 4.76-3.7 7.16-5.33Zm-111.39-27.47c.93 3.71 2.08 7.38 3.24 11.02.48 1.48.92 2.77-.86 3.7-.32.18-.41.77-.83 1.6 3.62-1.1 6.87-1.84 9.89-3.11 2.35-1 4.63-2.43 6.53-4.13 3.45-3.09 3.9-7.16 2.54-11.4-1.33-4.15-4.36-6.47-8.7-6.82-1.68-.14-3.47.23-5.14.65-3.75.91-7.45 1.99-11.17 3l-.34.52c3.13.4 4.2 2.42 4.83 4.99l.01-.02Zm4.25-6.65 3.76-1.02c3.95.18 7.12 3.41 8.54 8.82 1.26 4.8.09 8.15-3.51 10.12-.45.24-.88.52-1.32.76-2 1.08-3.26.73-4.22-1.33-.52-1.1-.77-2.32-1.14-3.5-1.16-3.65-2.23-7.33-3.5-10.94-.58-1.63-.22-2.48 1.4-2.91h-.01Zm-53.63 42.7c1.07-.89 1.92-.57 2.92.16 3.43 2.48 6.79 5.08 10.4 7.25 2.28 1.36 3.61 2.78 2.97 5.48-.01.04.2.14.4.26l5.43-7.76c-.98.06-1.55.57-2.21.76-.61.18-1.5.3-1.95-.01a658.01 658.01 0 0 1-13.35-9.5c-1.3-.95-1.44-2.1-.15-3.27 1.83-1.65 3.91-1.88 6.02-.58 3.36 2.08 3.89 4.06 1.8 8.58 3.14-2.14 5.89-.77 8.57-.56 3.53.27 6.43-1.24 7.91-4.38-3.4 0-6.92-.08-10.43.03-2.19.08-3.13-.67-2.86-2.9.3-2.49-1.4-3.84-3.26-4.96a3.95 3.95 0 0 0-5.07.59c-3.23 3.51-6.15 7.3-9.19 10.98l.58.56c.5-.23 1.08-.38 1.48-.71v-.03Zm13.59 29.73c-6 1.75-9.96 6.18-9.79 10.6 2.14-.13 4.43-.83 6.35-.27 6.54 1.93 12.35.59 17.84-2.99-2.3-3.3-6.85-2.52-9.76-4.81l.21-.73 11.11 2.26c-2.33-3.7-10.01-5.8-15.95-4.05l-.01-.01Zm36.66 88.07-6.73-4.58c.54 1.51 1.75 3.22 1.31 3.94-2.19 3.64-4.8 7.03-7.28 10.5-.04.06-.27 0-.54-.02-.23-3-.42-6.02-.69-9.04-.27-3.03-.6-6.06-.92-9.09-.25-2.47-2.35-4.64-5.36-5.37.31.64.44 1.24.8 1.57 1.38 1.24.96 2.42.05 3.64-2.67 3.55-5.32 7.1-7.98 10.66-1.06 1.4-2.03 2.94-4.22 1.84-.25-.13-.71.17-1.23.32l6.6 4.6c0-.8-.28-1.26-.67-1.62-1.12-1.04-1.1-2.1-.24-3.28 2.22-3.06 4.41-6.15 6.64-9.2.4-.55.93-.99 1.62-1.72.26.78.48 1.16.5 1.54.46 6.6.86 13.18 1.33 19.77.04.63.45 1.23.7 1.84.55-.38 1.27-.66 1.65-1.18 1.88-2.58 3.43-5.45 5.57-7.79 2.55-2.79 3.28-7.74 9.1-7.33Zm114.94-74.12c.35-3.48-3.47-9.3-6.27-9.68-.12 2.78-.04 2.86-2.92 6-3.52 3.83-4.54 8.2-3.44 13.67l8.16-5.67.61.59-6.45 7.25c5.27-.83 9.72-6.27 10.31-12.16Zm-71.96 99.75c-1.15 2.25-6.24 3.66-8.37 2.23-.46-.31-.78-1.05-.85-1.63a42.4 42.4 0 0 1-.36-5.86c.01-.54.82-1.39 1.4-1.54 2.35-.6 4.6-.45 6.16 2.63v-6.79l-.42-.47c-1.56 3.44-4.31 3.4-7.11 3.01-.2-2.3-.5-4.52-.5-6.75 0-.68.8-1.87 1.37-1.94 2.78-.4 5.79-1.1 7.36 2.36.1.22.4.32.68.53.45-3.39-.2-4.55-2.38-4.5-4.16.12-8.32.2-12.48.3-.52.02-1.04.18-2.02.35.7.48.96.78 1.26.85 1.88.5 2.39 1.73 2.4 3.58.01 3.85.02 7.72.5 11.52.33 2.73.05 4.67-2.88 5.52-.1.03-.11.35-.1.31 4.58 0 9.16.1 13.73-.02 3.62-.1 4.78-1.8 3.64-5.72-.34.69-.7 1.37-1.04 2.04v-.01Zm45.78-25.66c-2.16.21-4.35.3-6.53.34-.85.01-1.76-.1-2.56-.4-2.27-.84-2.77-3.4-1.07-5.08 1.88-1.86 4.77-1.02 6.19 1.84.45.92.8 1.87 1.22 2.81 1.81-4.44 1.12-6.43-2.02-7.45-2.77-.9-6.9 1.59-8.08 4.87-1.35 3.78 1.03 7.19 5.04 7.11 2.69-.05 5.39-.4 8.07-.34a3.5 3.5 0 0 1 3.47 3.34c.07 1.16-.9 2.72-1.88 3.52-1.43 1.16-3.3.85-4.56-.52-.96-1.03-1.54-2.4-2.25-3.64-.29-.5-.5-1.06-.74-1.6l-.56.06c-.26 1.01-.62 2.01-.75 3.04-.48 3.8 2.51 6.33 6.3 5.44 2.83-.68 4.81-2.45 6.2-4.84 1.2-2.1 1.06-4.27-.34-6.36-1.27-1.87-3-2.34-5.13-2.14h-.02Zm13.99-21.87c-3.64-1.96-7.5-1.02-9.95 2.44-1.98 2.77-1.37 7.36 1.3 9.72a5.84 5.84 0 0 0 9.17-1.43c.61-1.04 1.2-2.1 2.09-3.66 2 5.17 1.98 9.67-.38 14.16.58-.13.97-.28 1.23-.56 5.62-5.93 3.8-16.76-3.47-20.66h.01Zm-1.41 9.88c-2.75.88-7.72-2.3-8.1-5.2-.19-1.49 1.34-3.07 3-3.07 1.8-.01 6.9 3.3 7.5 4.88.42 1.13-.81 2.88-2.4 3.4Zm-121.64-110.84 5.6-4.02c-1.7-.5-3.34.22-3.85-2.1-.54-2.47-1.03-4.06 1.8-5.71 3.3-1.96 3.16-2.5 6.18-.06.94.75 1.14 2.43 1.74 3.83l6.72-5.08c-2.23-.84-4.64-1.37-6.61-2.58-4.34-2.65-8.46-5.68-12.7-8.5-.87-.59-1.86-1-3.4-1.8.82 3.84 1.58 7.04 2.2 10.27.99 5.17 4.34 9.97 2.32 15.76Zm-1.48-19.8 6.6 4.63c-1.43 1.39-2.82 2.75-4.59 4.45-.98-3.13-2.8-5.58-2.01-9.08Zm-20.87 114.32c.21-2.09.43-4.18.8-6.25.3-1.78 1.71-3.1 3.3-2.94a5.7 5.7 0 0 1 3.8 2.45c.55.94.03 2.7-.4 3.97-.33.94-1.27 1.68-1.93 2.5 4.67-1.62 5.36-3.7 2.92-7.6-.34-.56-.72-1.1-1.14-1.6-1.87-2.21-4.24-3.11-7.04-2.18-2.73.92-3.87 3.03-4.17 5.82-.23 2.21-.5 4.48-1.2 6.57-.7 2.06-2.54 2.79-4.37 2.27-2.38-.66-3.67-2.2-3.17-4.47.33-1.47 1.37-2.8 2.15-4.16.36-.63.88-1.17 1.52-2.01-4.42.46-6.32 3.51-4.93 7.48a12.92 12.92 0 0 0 2.1 3.52c1.98 2.5 4.65 3.4 7.36 2.53 2.85-.92 4.09-3.07 4.4-5.9Zm76.23-116c-.55-.42-.9-.57-1.05-.84-.48-.76-1.42-1.78-1.2-2.32.6-1.5 1.4-3.38 2.68-4.05 1.3-.69 3.29-.23 4.94-.05.58.06 1.29.66 1.58 1.2 1.17 2.23 1.09 2.84-.36 6.29h9.36c-3.6-2.13-4.46-5.43-5.57-8.62-1.64-4.7-3.4-9.38-5.36-14.72-.78 1.06-1.35 1.6-1.63 2.26-1.7 4-3.26 8.06-5 12.05-1.33 3.02-1.7 6.68-5.23 8.37-.06.03 0 .27 0 .44h6.86-.02Zm2.99-16.88.59.24c.66 2.11 1.39 4.21 1.92 6.36.1.37-.63 1.3-1.06 1.35-1.4.18-2.86.07-4.96.07l3.5-8.03v.01Zm-16.27 167.48c-2.87-.97-5.7-2.27-8.67-2.72-5.13-.76-10.27 2.54-12.05 7.19-1.98 5.16-.52 10.2 3.99 13.51 2.86 2.11 6.2 2.85 9.67 2.96 2.02.07 4.34-2.48 4.48-4.88-.55.44-1 .77-1.4 1.15-4.27 4-11.15 2.2-12.57-3.5-1.26-5.05-.06-9.7 3.98-13.25 4.14-3.65 10.27-1.86 12 3.36.17.5.36 1 .55 1.5l.8-.07c0-1.46.04-2.93-.04-4.39-.02-.31-.42-.76-.75-.87Zm-43.15-23.73.37-.34-6.26-7.72a7.31 7.31 0 0 1-2.79 6.2c-2.72 2.19-5.64 4.17-8.12 6.6-1.9 1.85-3.54 3.02-6.02 1.23-.03-.02-.2.15-.37.26l6.4 7.88c.18-1.97-1.13-3.4.66-4.71 3.57-2.62 7.03-5.43 10.35-8.37 1.83-1.63 3.52-2.43 5.77-1.04Zm117.44-123.74c-2.83 3.21-5.7 6.42-8.4 9.75-1.57 1.95-2.95 3.84-6.03 1.76v.77l7.45 6.2.58-.42c-.52-1.3-2.15-2.38-.65-4 3.05-3.33 6-6.74 8.88-10.2 1.43-1.74 2.86-3.02 5.28-2.12.05.01.16-.2.37-.45l-7.3-5.96-.42.32c.16.38.21.84.47 1.12 1.09 1.2.68 2.18-.25 3.23h.02Zm-25.6 158.23c-.3-.97-.72-1.9-1.1-2.84l-4.9-12.3c-2.17 1.53-4.2 2.94-6.58 4.6.79.14 1.08.29 1.32.21 2.2-.68 3.1.4 3.77 2.36a98.42 98.42 0 0 0 3.82 9.49c1 2.14 1.87 4.02-.9 5.44-.08.04 0 .39.06.99l9.3-3.95.05-.9c-3.23 1.1-4.14-.83-4.84-3.09v-.01Zm39.57-58.12c-.49-.57-1.08-1.06-1.72-1.65l-5.72 12.85 5.1 3.4c-.67-1.83-1.68-3.15-1.39-4.06.9-2.86 2.31-5.56 3.8-8.97l12.79 17.18c1-1.56.73-2.87-.4-4.16-4.16-4.86-8.3-9.73-12.48-14.59h.02Zm-156.77-20.39c2.7-1.39 5.5-2.35 7.7-4.07 2.27-1.77 3.58-4.48 4.92-7.01l-.66-.61-7.46 5.18-.49-.45 3.99-5.67c-4.51.97-8.93 5.42-8 12.64Zm144.76-30.34c-1.96 4.9.13 11.62 4.7 13.48l-3.17-9.15.4-.2 5.16 6.84c.32-5.41-2.63-8.59-7.09-10.97Zm-122.93-3.28-.55-.26-2.13 3.21.67.42c1.76-.44 2.09-1.78 2.01-3.37Zm-5.07 41.75.74.04.22-3.59-.95-.04v3.6-.01Z"/></g><defs><clipPath id="a"><path fill="#fff" transform="translate(.056)" d="M0 0h237v236h-237z"/></clipPath></defs></svg>