<svg viewBox="0 0 301 174" fill="none" xmlns="http://www.w3.org/2000/svg"><g clip-path="url(#a)" fill="#fff"><path d="M104.61 89.55c2.27-1.88 4.97-3.74 7.15-6.04 3.57-3.76 4.8-8.16 3.1-13.32a18.7 18.7 0 0 1-1-7.35c.49-5.25 4.35-8.62 9.69-9.54 3.81-.66 7.05.21 10 2.55 3.93 3.11 7.8 6.3 11.8 9.32 12.64 9.59 31.42 6.48 40.93-2.94 3.62-3.6 6.9-7.5 10.25-11.35 4.78-5.48 10.09-10.2 17.14-12.72 5.7-2.02 11.63-2.64 17.62-2.5a81.7 81.7 0 0 1 27.78 5.34c14.34 5.55 26.36 14.1 33.7 27.65 10.9 20.1 9.54 39.72-4.1 58.25-7.7 10.48-18.09 17.98-29.5 24.19-15.07 8.2-31.24 13.44-48 17.06-13.88 3-27.91 5-42.11 5.42-12.19.37-24.4.67-36.57.17-24.03-.98-47.52-5.08-70.13-13.4-14.62-5.37-28.35-12.33-40.19-22.5-8.26-7.1-15.02-15.3-18.86-25.53-7.98-21.22-.96-45.77 17-60 10.85-8.59 23.34-13.41 36.97-15.53 7.54-1.18 15.1-1.69 22.7-.3 9.16 1.67 17.3 5.26 23.7 12.15 5.23 5.64 5.73 14.5.1 19.7-6.87 6.35-9.77 14.21-11.56 22.83a92.74 92.74 0 0 0-2.15 17.26c-.16 8.68 7.03 10.03 12.43 8.15 6.35-2.22 9.64-7.11 11.04-13.36.33-1.44.4-2.99.36-4.48-.18-6.32-3.41-9.31-9.29-9.17Zm-47.24 18.77c-.42.31-.78.65-1.2.89-1.91 1.05-3.74 2.33-5.76 3.04-5.95 2.09-12.12-.4-14.79-6a21.57 21.57 0 0 1-1.92-6.43c-1.39-11.05.87-21.44 6.35-31.12 2.08-3.67 4.75-6.9 8.62-8.92 4.06-2.13 7.83-.47 8.68 3.98.36 1.88.32 3.9.02 5.8-.55 3.56-1.94 6.84-4.78 9.32-2.42 2.12-4.85 1.95-6.94-.46-.13-.15-.3-.25-.67-.55-.5.83-1.06 1.54-1.34 2.34-1.18 3.31 1.09 7.08 4.74 7.99 3.67.9 7.02.08 9.97-2.11 5.45-4.06 7.76-9.7 7.89-16.2.2-10-7.38-16.15-17.4-14.31-5.35.99-9.73 3.81-13.6 7.38-10.88 9.98-15.93 22.13-13.28 36.78 1.7 9.45 7.96 17.42 19.42 18.46 4.7.43 9.3-.07 13.4-2.61 2.6-1.6 3.71-4.74 2.58-7.26l.01-.01Zm76.73 4.89c-.55 2.02-1.06 3.73-1.46 5.48-.2.85-.59 1.17-1.48 1.38-2.36.58-4.8 1.09-6.96 2.15-4.33 2.14-7.46 5.44-8.08 10.42-.55 4.4 2.24 7.34 6.74 7.32a9.9 9.9 0 0 0 6.39-2.52 25.35 25.35 0 0 0 6.94-9.42c4.76-10.86 6.73-22.3 7.14-34.05a3.4 3.4 0 0 0-1.98-3.31c-1.46-.74-3.08-1.18-4.93-1.85-.1 1.44-.2 2.51-.25 3.59-.17 4.22-.64 8.42-2.25 12.34a38.88 38.88 0 0 1-3.97 6.86c-.62.9-1.95 1.75-3.05.98-.66-.48-.76-1.78-1-2.74-.1-.36.05-.79.1-1.18.63-4.56 1.25-9.13 1.9-13.69.24-1.8-.24-3.3-1.9-4.24a31.45 31.45 0 0 0-3.4-1.64c-.9-.37-1.34-.1-1.5.96-.5 3.71-1.21 7.4-1.72 11.12-.42 3.07-.88 6.15-.96 9.24a6.75 6.75 0 0 0 4.86 6.6c3.05.85 5.86.35 8.36-1.59.78-.6 1.48-1.32 2.48-2.21h-.02Zm45.42-24.08-.2 1.28c-.72 4.6-1.38 9.2-2.2 13.79-.45 2.58-1.37 5.05-3.46 6.87-.87.76-1.83 2.18-3.04 1.4-.65-.45-.8-2.07-.69-3.11.48-4.49 1.1-8.95 1.75-13.4.52-3.56-.71-5.55-4.2-6.54-.4-.12-.8-.2-1.2-.32-.82-.24-1.18.02-1.31.9-.8 4.98-1.65 9.96-2.52 14.94a10.3 10.3 0 0 1-4.58 7.17c-1.47.97-2.47.53-2.6-1.18-.06-.9 0-1.81.13-2.7.56-4.23.97-8.47 1.8-12.64.86-4.34-3.16-6.47-6.6-6.47-1.04 6.89-2.2 13.79-3.07 20.72-.4 3.23 1.13 5.78 4.24 7.13 3.1 1.34 6 .84 8.47-1.46.9-.84 1.63-1.84 2.52-2.84 1.3 3.08 3.38 5.09 6.93 5.02 3.48-.06 5.38-2.44 7.24-5 1.07 4.55 4.06 7.02 7.07 6.27.18-3.62.23-7.17.57-10.7.39-4.09 1-8.14 1.55-12.22.57-4.3-2.1-7.17-6.62-6.9h.02Zm54 22.94c.54 3.8 2.87 5.68 6.46 6.28 1.52.24 1.58.1 1.54-1.44-.08-2.8-.28-5.62 0-8.4.41-4.18 1.2-8.32 1.81-12.48.6-4.14-2.24-7.13-6.56-6.82-.36 2.34-.66 4.72-1.08 7.07-.82 4.56-1.97 9.03-4.61 12.95a10.85 10.85 0 0 1-3.01 2.9c-1.42.93-2.49.37-2.72-1.27a12.63 12.63 0 0 1-.11-3.29c.54-4.12 1.26-8.22 1.78-12.34.45-3.58-2.83-6.53-6.56-6-.19 1.37-.33 2.76-.57 4.14-.88 5.02-1.92 10.02-2.69 15.07a8.26 8.26 0 0 0 4.64 8.45c3.2 1.51 6.39.9 9.18-1.86.89-.89 1.62-1.9 2.5-2.96Zm-156.37.23c.99 4.76 3.47 7.04 7.1 6.56-.03-.44-.07-.88-.08-1.32-.11-3.64-.41-7.3-.26-10.93.15-3.59.81-7.16 1.12-10.75.31-3.64-1.67-6.24-5.36-6.76a14.95 14.95 0 0 0-5.58.23c-5.67 1.42-8.92 5.57-11.32 10.44-2 4.04-2.72 8.29-1.05 12.67 2.17 5.71 8.55 7.06 12.92 2.72.85-.85 1.6-1.8 2.52-2.84l-.01-.02Zm173.36-22.87c-1.06 7.55-2.14 15.13-3.15 22.7-.35 2.58.51 4.7 3.11 5.76 1.34.55 2.76.86 4.14 1.28l.68-10.87c4.06 1.42 6.35-.75 8.66-3.57-.32 2.69-.58 5-.89 7.31-.58 4.35 2.73 6.93 7.12 6.85.28-4.71.45-9.4.88-14.06.29-3.14 1.1-6.22 1.44-9.35.4-3.76-2.63-6.45-6.6-5.97-.26 2.2-.41 4.46-.84 6.65-.71 3.62-2.2 6.8-6.03 8.25-1.88.7-2.75.11-2.7-1.86.04-2.5.28-5 .35-7.5.1-3.3-2.56-5.77-6.16-5.62h-.01Zm-56.39-2.14c-.86 5.64-1.8 11.16-2.53 16.7-.4 3.06-.52 6.17-.67 9.26-.08 1.58.88 2.7 2.28 3.27 1.62.64 3.33 1.05 5.07 1.58l.67-12.14.44-.08c.68 1.1 1.31 2.22 2.03 3.3 1.6 2.43 3.11 4.95 4.92 7.23 2.44 3.09 6.6 3.69 10.5 1.27-5.39-4.43-9.08-10.1-12.74-16.14l12.35-9.38c-1.63-2.89-4.3-3.57-6.94-1.6a49.2 49.2 0 0 0-4.8 4.2c-1.64 1.58-3.15 3.27-4.95 5.15.19-2.57.43-4.76.49-6.96.08-3.34-2.57-5.77-6.12-5.66Zm26.23 56.83c.98-.08 2.05.62 2.23-.9.23-1.89.59-3.78.63-5.67.03-2 1.13-3 2.82-3.65 1.58-.6 2.42-.03 2.32 1.6-.09 1.5-.32 2.99-.48 4.48-.15 1.37-.26 2.73-.4 4.03 1.59.44 2.2.01 2.25-1.43.07-1.8.36-3.6.56-5.38.2-1.93 1.35-3.14 3.33-3.48 1.22-.21 1.81.28 1.8 1.52 0 .74-.09 1.5-.17 2.24-.24 2.17-.5 4.34-.75 6.5 2.04.36 2.07.29 2.25-1.43.24-2.39.54-4.77.82-7.17.34-2.74-1.38-4.14-4.02-3.2-1.03.37-1.98.98-2.97 1.48-1.51-2.33-3.03-2.36-6.86-.07v-1.25c-1.44-.46-2.08-.06-2.14 1.4-.06 1.4-.33 2.78-.5 4.18l-.7 6.2h-.02Zm-27.87-11.99a40 40 0 0 0-1.3-.1c-3.28-.23-5.34.86-6.44 3.88a14.5 14.5 0 0 0-.74 5.12c.03 1.85 1.32 2.96 3.2 3.27 2.8.48 5.18-.97 6.29-4.06a19.96 19.96 0 0 0 .96-9.76c-.53-3.58-5.2-5.47-8.2-3.33-.2.15-.38.65-.28.84.14.27.54.57.84.57.6 0 1.2-.26 1.8-.3 2.98-.23 3.95.7 3.87 3.87Zm-30.85 1.1c-.56-.43-.95-.96-1.46-1.08-1.03-.21-1.03.61-1.13 1.34-.35 2.82-.75 5.64-1.11 8.47-.3 2.35-.56 4.73-.85 7.14 1.37.34 2.23.34 2.29-1.27.03-1.21.33-2.42.53-3.67l1.43.19a5.6 5.6 0 0 0 5.73-2.36 9.2 9.2 0 0 0 1.6-6.7c-.34-2.66-2.4-3.85-5-2.95-.8.27-1.54.68-2.02.9v-.01Zm37.97 11.28c-.62 1.92-1.36 3.77-4.17 3.06-.18-.05-.75.55-.74.83 0 .3.46.74.8.83 2.3.67 4.08-.17 5.18-2.53 1.46-3.13 2.85-6.3 4.28-9.45l2.1-4.76c-1.57-.82-1.69-.8-2.27.51l-3.98 9.04a81.37 81.37 0 0 1-1.74-8.37c-.28-1.65-.47-1.76-2.22-1.22-.02.13-.08.3-.05.43.64 3.49 1.28 6.97 1.99 10.45.08.4.51.76.82 1.18Zm-17.8-7.45c-.2-2.7-1.21-4.36-3.18-4.94a5.5 5.5 0 0 0-6.22 2.12 8.8 8.8 0 0 0-1.32 7.18 3.52 3.52 0 0 0 2.58 2.73c2.88.84 5.8-.35 7-3.08.57-1.25.77-2.66 1.14-4v-.01Zm-35.11 7.07.86-6.78a4.01 4.01 0 0 1 3.87-3.63c1.04-.05 1.7.35 1.64 1.47-.06.9-.16 1.8-.26 2.69l-.64 6.18.45.37c.57-.34 1.58-.61 1.65-1.04.45-2.81.78-5.66 1-8.5.15-2.26-1.16-3.4-3.43-2.94-1.32.26-2.53.9-3.5 1.25-.47-.4-.82-.93-1.25-1.05-.97-.23-1.14.43-1.2 1.25-.08 1.14-.32 2.28-.46 3.42l-.85 7.31h2.13-.01Zm64.25-7.44.4-4.3c-1.94-.38-2.13-.25-2.3 1.44-.15 1.44-.34 2.88-.52 4.3-.23 1.97-.46 3.93-.67 5.88 1.36.2 2.12-.27 2.26-1.43.12-.95.17-1.9.36-2.83.08-.4.28-.92.6-1.08a2.9 2.9 0 0 1 4.09 2.07c.22 1.11.42 2.23.63 3.34h2.14l-1.62-6.28 2.42-5.34c-1.5-.54-2.18-.2-2.65 1.08-1.33 3.6-1.77 3.85-5.14 3.18v-.03Z"/><path d="M136.18 17.46c-.24-1.93-.67-3.6-.63-5.28.14-6.82 5.29-11.75 12.44-12.15 4.08-.22 7.77.86 11.14 3.05a35.2 35.2 0 0 1 11.4 12.34c.47.83 1.13 1.54 1.72 2.28.79.96 1.45 1.91 1.13 3.28-.07.28.38.88.72 1.02 7.5 2.97 11.3 8.59 12.13 16.3.48 4.37-.74 8.46-2.58 12.36-3.4 7.24-8.79 12.17-16.94 13.88-6.86 1.45-12.85-.4-18.52-4.15-4.63-3.06-8.45-6.94-12.07-11.02-4.28-4.85-11.42-5.32-15.6-1.56-.6.55-1.92.97-2.57.7-.61-.25-.83-1.5-1.1-2.35-.14-.4-.04-.9-.02-1.33.2-3.66 2.16-6.38 4.84-8.73 1.37-1.2 2.82-2.34 4.05-3.66 2.94-3.16 4.1-6.9 3.1-11.11-.86-3.58-3.96-4.54-6.43-1.82a20.36 20.36 0 0 0-4.17 6.56c-1.74 4.79-2.93 9.78-4.43 14.66-.22.7-.91 1.8-1.4 1.8-1.17 0-1.24-1.17-1.17-2.06.54-6.89 1.92-13.6 5.14-19.8a21.75 21.75 0 0 1 3.27-4.51c4.08-4.45 9.12-4.74 13.81-.93.87.7 1.7 1.41 2.74 2.26v-.03Zm27.68 1.15.42-.33c-.88-1.55-1.61-3.18-2.64-4.63-2.6-3.7-5.74-6.8-10.33-8.03-2.98-.79-5.73-.21-7.75 2.24a7.46 7.46 0 0 0-1.2 8.17c.72 1.7 1.87 2.7 3.88 2.4.8-.1 1.63-.08 2.44-.16 5.07-.53 10.15-1.15 15.18.35v-.01Zm-57.57 81.39c-.13 3.71-.93 7.19-2.92 10.33a8.3 8.3 0 0 1-2.44 2.4c-1.64 1.08-3.23.28-3.58-1.63-.7-3.66-.06-7.28.46-10.89.21-1.58.58-3.15.97-4.7.44-1.72 3.98-3.17 5.52-2.2.53.34.98 1.05 1.13 1.67.39 1.65.58 3.33.86 5v.02Zm-6.81-11.69c.96-4.93 1.96-9.87 4.64-14.27a7.35 7.35 0 0 1 2.28-2.34c1.48-.96 2.72-.24 2.8 1.51.18 4.26-1.62 7.78-4.4 10.84-1.51 1.65-3.28 3.06-4.92 4.58l-.38-.3-.02-.02Zm-30.95 20.08c.35-5.02 1.09-9.39 3.51-13.3.8-1.3 1.79-2.47 3.48-2.7 1.36-.2 2.15.3 2.13 1.64-.07 5.98-1.2 11.72-4.3 16.96-.3.51-.77.94-1.24 1.31-1.12.9-2.3.7-2.83-.64-.46-1.19-.58-2.5-.75-3.27Zm117.37 31.14c.4-1.28.57-2.67 1.23-3.8a4.3 4.3 0 0 1 2.41-1.83c2.51-.65 3.3.17 2.76 2.63a22.88 22.88 0 0 1-1.27 4.3c-.31.7-1.08 1.4-1.82 1.68-2 .77-3.07-.3-3.31-2.96v-.02Zm-19.28-2.63c-.25 1-.4 2.05-.77 3.02-.81 2.16-2.41 3.04-4.68 2.58-.39-.08-.96-.76-.94-1.13.12-1.8.36-3.58.63-5.35.16-1 2.63-2.36 3.86-2.22 1.22.14 1.76 1.07 1.9 3.1Zm12.96.27c-.38 1.27-.64 2.62-1.19 3.81-.67 1.5-2.16 2.05-3.71 1.59-1.45-.45-1.71-1.64-1.59-2.9.12-1.23.31-2.5.73-3.64.62-1.74 2.18-2.61 3.65-2.27 1.34.3 1.91 1.32 2.12 3.42l-.01-.01Z"/></g><defs><clipPath id="a"><path fill="#fff" transform="translate(.056)" d="M0 0h300v174h-300z"/></clipPath></defs></svg>