<svg xmlns="http://www.w3.org/2000/svg" viewBox="0 0 631.12 200" style="enable-background:new 0 0 631.12 200" xml:space="preserve"><path d="M13.4 28.18h11.7c4.74 0 8.57 1.21 11.51 3.62s4.4 5.97 4.4 10.66c0 4.78-1.48 8.38-4.44 10.79-2.96 2.41-6.95 3.62-11.98 3.62h-20.94v-44.8h33.21v8.11h-23.46v8zm18.05 14.15c0-4.28-2.56-6.42-7.67-6.42h-10.38v12.89h10.44c5.07.01 7.61-2.15 7.61-6.47zm17.42-30.26h19.31c5.03 0 9.03 1.21 11.98 3.62 2.96 2.41 4.43 6.01 4.43 10.78 0 4.69-1.47 8.25-4.4 10.66-2.93 2.41-6.77 3.62-11.51 3.62h-10.07v16.1h-9.75v-44.78zm9.74 8.05v12.89h8.74c5.11 0 7.67-2.14 7.67-6.42 0-4.32-2.54-6.48-7.61-6.48h-8.8zm66.74-8.05v8.05h-23.84v9.75h21.89v7.74h-21.89v11.01h24.28v8.24h-34.03v-44.79h33.59zm48.17 27.49c-.5 5.62-2.48 10.08-5.91 13.39-3.44 3.31-8.15 4.97-14.15 4.97-6.5 0-11.73-2.15-15.69-6.45-3.96-4.3-5.94-9.99-5.94-17.08 0-6.71 2-12.29 6.01-16.73 4-4.44 9.34-6.67 16.01-6.67 5.32 0 9.79 1.51 13.4 4.53a16.2 16.2 0 0 1 5.98 11.51h-9.62c-.5-2.47-1.62-4.39-3.37-5.76s-3.93-2.05-6.57-2.05c-2.73 0-5.02.76-6.89 2.29a12.21 12.21 0 0 0-3.93 5.63 22.4 22.4 0 0 0-1.13 7.3c0 4.61 1.07 8.29 3.21 11.04a10.35 10.35 0 0 0 8.62 4.12c5.99 0 9.41-3.36 10.25-10.06l9.72.02zm40.88-27.49v8.37h-13.46v36.42h-9.88v-36.42h-13.46v-8.36l36.8-.01zm46.16 27.49c-.5 5.62-2.48 10.08-5.91 13.39-3.44 3.31-8.15 4.97-14.15 4.97-6.5 0-11.73-2.15-15.69-6.45-3.96-4.3-5.94-9.99-5.94-17.08 0-6.71 2-12.29 6.01-16.73 4-4.44 9.34-6.67 16.01-6.67 5.33 0 9.79 1.51 13.39 4.53a16.16 16.16 0 0 1 5.98 11.51h-9.62c-.5-2.47-1.62-4.39-3.36-5.76s-3.93-2.05-6.57-2.05c-2.73 0-5.02.76-6.89 2.29a12.21 12.21 0 0 0-3.93 5.63 22.4 22.4 0 0 0-1.13 7.3c0 4.61 1.07 8.29 3.21 11.04a10.35 10.35 0 0 0 8.62 4.12c5.99 0 9.41-3.36 10.25-10.06l9.72.02zm47.42-27.49-17.55 17.67 19.18 27.11h-12.33l-13.58-20.12-5.72 5.66v14.46h-9.68v-44.78h9.68v18.62l17.61-18.61 12.39-.01zm44.53 0v44.78h-9.81v-31.06h-.19l-16.86 31.07h-11.07v-44.79h9.81v31.01h.19l16.86-31 11.07-.01zm47.61 0v44.78h-9.81v-31.06h-.19l-16.86 31.07h-11.07v-44.79h9.81v31.01h.19l16.86-31 11.07-.01zm-12.2-12.07h3.52c0 6.04-3.42 9.06-10.25 9.06s-10.26-3.02-10.26-9.06h3.52c.55 2.77 2.79 4.15 6.73 4.15 3.95 0 6.19-1.38 6.74-4.15zm-351.13 77.89v8.36h-13.46v36.42h-9.88v-36.41h-13.45v-8.36h36.79zm6.23 0h19.31c5.03 0 9.03 1.21 11.98 3.62 2.96 2.41 4.43 6 4.43 10.78 0 4.69-1.47 8.25-4.4 10.66-2.93 2.41-6.77 3.62-11.51 3.62h-10.06v16.1h-9.75v-44.78zm9.75 8.05v12.89h8.74c5.11 0 7.67-2.14 7.67-6.42 0-4.32-2.54-6.48-7.61-6.48h-8.8zm55.4-8.11 17.04 44.84h-10.31l-3.52-10h-16.67l-3.65 10h-10.06l17.04-44.84h10.13zm.82 27.67-5.91-16.67-5.97 16.67h11.88zm58.93-27.61v44.78h-9.81v-19.31h-18.3v19.31h-9.81v-44.78h9.81v16.85h18.3v-16.85h9.81zm49.69 27.49c-.5 5.62-2.48 10.09-5.91 13.4-3.44 3.31-8.15 4.97-14.15 4.97-6.5 0-11.73-2.15-15.69-6.45-3.96-4.3-5.94-9.99-5.94-17.07 0-6.71 2-12.29 6.01-16.73 4-4.44 9.34-6.67 16.01-6.67 5.32 0 9.79 1.51 13.4 4.53 3.6 3.02 5.6 6.86 5.98 11.51h-9.62a9.33 9.33 0 0 0-3.37-5.75 10.35 10.35 0 0 0-6.57-2.04c-2.73 0-5.02.76-6.89 2.29a12.21 12.21 0 0 0-3.93 5.63 22.38 22.38 0 0 0-1.13 7.29c0 4.61 1.07 8.29 3.21 11.04a10.35 10.35 0 0 0 8.62 4.12c5.99 0 9.41-3.35 10.25-10.06l9.72-.01zm38.8-27.49v8.36h-21.38v36.42h-9.81v-44.78h31.19zm5.98 0h19.31c5.03 0 9.02 1.21 11.98 3.62 2.95 2.41 4.43 6 4.43 10.78 0 4.69-1.47 8.25-4.4 10.66-2.93 2.41-6.77 3.62-11.51 3.62h-10.06v16.1h-9.75v-44.78zm9.75 8.05v12.89h8.74c5.11 0 7.67-2.14 7.67-6.42 0-4.32-2.54-6.48-7.61-6.48h-8.8zm55.4-8.11 17.04 44.84h-10.32l-3.52-10h-16.67l-3.65 10h-10.06l17.05-44.84h10.13zm.82 27.67-5.91-16.67-5.98 16.67h11.89zm58.93-27.61v44.78h-9.81v-19.31h-18.3v19.31h-9.81v-44.78h9.81v16.85h18.3v-16.85h9.81zm47.61 0v44.78h-9.81v-31.07h-.19l-16.86 31.07h-11.07v-44.78h9.81v31.01h.19l16.86-31.01h11.07zm23.83 27.55c-5.24 0-9.23-1.23-11.95-3.68-2.73-2.45-4.09-6.45-4.09-11.98v-11.89h9.81v12.01c0 2.68.54 4.58 1.6 5.69 1.07 1.11 2.86 1.67 5.38 1.67 2.05 0 5.01-.33 8.87-1.01v-18.36h9.81v44.78h-9.81v-18.49c-4.06.84-7.27 1.26-9.62 1.26zm66.74-27.55v44.78h-9.81v-19.31h-18.3v19.31h-9.81v-44.78h9.81v16.85h18.3v-16.85h9.81zm43.52 30.38c0 4.78-1.48 8.38-4.43 10.79-2.96 2.41-6.95 3.62-11.98 3.62h-17.42v-44.79h9.75v16.1h8.17c4.74 0 8.57 1.21 11.51 3.62 2.93 2.41 4.4 5.97 4.4 10.66zm-9.56-.12c0-4.28-2.56-6.42-7.67-6.42h-6.85v12.89h6.92c5.06 0 7.6-2.16 7.6-6.47zm14.34-30.26h9.81v44.78h-9.81v-44.78zm57.35 0v44.78h-9.81v-31.07h-.19l-16.85 31.07h-11.07v-44.78h9.81v31.01h.19l16.86-31.01h11.06zm-12.2-12.07h3.52c0 6.04-3.42 9.06-10.25 9.06s-10.25-3.02-10.25-9.06h3.52c.54 2.77 2.79 4.15 6.73 4.15 3.94 0 6.19-1.39 6.73-4.15zm-577.47 77.89v44.78h-9.81v-31.07h-.19l-16.85 31.07h-11.08v-44.78h9.81v31.01h.19l16.85-31.01h11.08zm47.61 0v44.78h-9.81v-19.31h-18.3v19.31h-9.81v-44.78h9.81v16.85h18.3v-16.85h9.81zm56.29 21.89c0 5.49-1.76 9.81-5.28 12.96s-8.24 4.82-14.15 5.03v4.9h-9.68v-4.9c-5.91-.21-10.63-1.89-14.15-5.03-3.52-3.15-5.28-7.46-5.28-12.96 0-5.32 1.75-9.52 5.25-12.58 3.5-3.06 8.23-4.7 14.18-4.9v-4.4h9.68v4.4c5.95.21 10.68 1.85 14.18 4.9 3.49 3.06 5.25 7.25 5.25 12.58zm-29.12 10.63v-21.01c-3.23.12-5.69 1.09-7.39 2.89s-2.55 4.3-2.55 7.49c0 3.06.88 5.57 2.64 7.51 1.76 1.95 4.19 2.99 7.3 3.12zm19.68-10.63c0-3.18-.86-5.68-2.58-7.49-1.72-1.8-4.19-2.77-7.42-2.89v21.01c3.1-.12 5.54-1.16 7.33-3.11 1.78-1.96 2.67-4.46 2.67-7.52zm37.42-22.96c6.54 0 11.84 2.17 15.88 6.51s6.07 10.01 6.07 17.01-2.02 12.65-6.07 16.95-9.36 6.45-15.94 6.45c-6.62 0-11.97-2.15-16.04-6.45-4.07-4.3-6.1-9.95-6.1-16.95 0-7.09 2.02-12.78 6.07-17.07 4.04-4.3 9.42-6.45 16.13-6.45zm-.12 8.05c-3.69 0-6.63 1.38-8.84 4.15s-3.3 6.48-3.3 11.13c0 4.82 1.09 8.6 3.27 11.32 2.18 2.73 5.18 4.11 8.99 4.15 3.73 0 6.67-1.38 8.8-4.15 2.14-2.77 3.21-6.54 3.21-11.32 0-4.7-1.09-8.42-3.27-11.16-2.18-2.74-5.13-4.12-8.86-4.12zm72.57 49.31h-9.5v-11.51h-33.4v-44.78h9.81v36.42h18.3v-36.42h9.81v36.42h4.97v19.87zm39.44-56.29v8.05h-23.84v9.75h21.89v7.74h-21.89v11.01h24.28v8.24h-34.02v-44.78h33.58zm46.1 0v44.78h-9.81v-19.31h-18.3v19.31h-9.81v-44.78h9.81v16.85h18.3v-16.85h9.81zm42.95 0v8.37h-13.46v36.41h-9.88v-36.42h-13.46v-8.37l36.8.01zm6.23 0h19.31c5.03 0 9.02 1.21 11.98 3.62 2.95 2.41 4.43 6.01 4.43 10.79 0 4.7-1.47 8.25-4.4 10.66-2.93 2.41-6.77 3.62-11.51 3.62h-10.06v16.1h-9.75v-44.79zm9.74 8.05v12.89h8.74c5.11 0 7.67-2.14 7.67-6.41 0-4.32-2.54-6.48-7.61-6.48h-8.8z" style="fill:#fff"/></svg>