<svg viewBox="0 0 250 223" fill="none" xmlns="http://www.w3.org/2000/svg"><path d="M83.18 59.28c2.1.71 4.09 1.26 5.98 2.06 8.57 3.63 14.45 9.83 16.37 18.98 2 9.58 1.1 18.96-4.4 27.44-4.22 6.53-10.35 10.4-17.76 12.55a58.74 58.74 0 0 1-15.95 2.5c-15.76.13-31.53.25-47.29.33a18.71 18.71 0 0 1-10.72-3.23 17.6 17.6 0 0 1-7.88-12.44 28.57 28.57 0 0 1-.33-4.33c-.02-28.15-.08-56.31.03-84.47.03-8.62 6.76-16.42 15.63-17.6 1.6-.2 3.22-.31 4.83-.32 13.39-.02 26.78-.1 40.17.03 6.8.07 13.53.89 20.03 3.18 9.77 3.44 15.84 10.16 18.22 20.13 1.37 5.74 1.62 11.57.01 17.32a24.96 24.96 0 0 1-12.22 15.58c-1.48.83-3.06 1.5-4.72 2.3Zm-50.25 39.78h1.9c6.58 0 13.17.15 19.74-.06 3.84-.12 7.71-.53 11.46-1.33 3.9-.84 6.8-3.27 7.99-7.3.73-2.45.92-4.92.7-7.52-.33-4.2-3.06-8.7-7.59-10.25-3.93-1.36-7.97-1.66-12-1.8-6.9-.23-13.8-.07-20.71-.06-.48 0-.95.04-1.49.06v28.26Zm0-49.54c.4.02.62.06.83.05 7.55-.1 15.1-.1 22.63-.39 2.45-.1 4.92-.8 7.29-1.54 2.43-.75 3.76-2.73 4.86-4.98 1.22-2.48.99-5.05.86-7.59-.19-3.53-1.77-6.43-4.98-8.19-2.99-1.64-6.34-1.92-9.63-2-6.75-.16-13.5-.05-20.25-.05-.52 0-1.05.05-1.6.08v24.6Zm116.54 3.88v1.7c0 16.72-.02 33.43.03 50.14 0 1.32-.42 2.04-1.6 2.62-6.3 3.13-12.6 6.32-18.88 9.52-3.6 1.84-7.16 3.75-10.9 5.71v-1.93c0-34.18-.07-68.36.05-102.53.03-6.92 3.5-12.27 9.63-15.54 6.4-3.42 13.12-3.25 19.69-.5 3.47 1.45 6.09 4.13 7.92 7.46l12.28 22.4 13.44 24.48c1.04 1.9 2.1 3.79 3.27 5.9 1.44-2.6 2.8-4.98 4.1-7.39l12.2-22.63c3.57-6.6 7.16-13.18 10.72-19.79 1.86-3.45 3.8-6.82 7.19-9.08 7.56-5.07 19.74-4.3 26.1 2.72 2.68 2.94 4.62 6.35 4.68 10.41.18 13 .25 26 .32 39 0 .45-.38 1.14-.78 1.34-10.12 5.1-20.26 10.15-30.4 15.2-.08.03-.2-.02-.51-.04v-18.68l-.35-.09c-.64 1.12-1.3 2.23-1.91 3.36-3.64 6.68-7.31 13.35-10.88 20.07a9.6 9.6 0 0 1-4.5 4.28c-5.85 2.87-11.67 5.81-17.49 8.75-2.9 1.47-5.8 2.94-8.67 4.48-1.03.56-1.56.44-2.13-.64-4.35-8.12-8.74-16.2-13.14-24.3-3-5.5-6.05-10.98-9.08-16.47l-.4.07Zm99.94 17.85v4.48c0 6.83-.04 13.67.02 20.5.03 3.99-1.26 7.6-2.96 11.1a27.39 27.39 0 0 1-11.07 11.71c-3.9 2.3-8.12 3.76-12.68 3.77-16.81.04-33.62.01-50.43.01h-26.63l103.75-51.58Zm-227.65 150.58c-.19.17-.23.24-.27.24-2.22.22-3.32-.78-3.32-3v-11.73l-3.58 6.57c-.45.84-.86 1.7-1.37 2.51-.8 1.3-2.95 1.2-3.71-.15l-5.07-9v14.62c-.22.12-.3.2-.4.2-2.12.1-3.18-.93-3.18-3.07 0-5.53-.04-11.06.04-16.59 0-.7.5-1.96.89-2 1.14-.13 2.47-.64 3.33 1.03 1.93 3.77 4.1 7.43 6.25 11.27l6.33-11.13c.63-1.12 2.54-1.8 3.56-1.17.26.16.47.6.48.92.02 6.88.02 13.75.02 20.48Zm108.54-15.1v15.26c.03-.02-.1.1-.24.1-3.87.11-3.1.13-3.12-2.9a1039 1039 0 0 1 .02-16.75c0-.7.23-1.78.7-2.03 1.27-.66 2.81-.03 3.5 1.15.68 1.2 1.3 2.43 1.98 3.63l4.2 7.49 4.15-7.2c.72-1.25 1.32-2.56 2.1-3.76.38-.57 1-1.23 1.62-1.35 2.3-.46 2.62-.12 2.62 2.24v17.24c0 1.53-.77 2.3-2.32 2.28h-.97v-15.83c-.04.05-.2.2-.3.37-1.7 3.23-3.37 6.49-5.15 9.69-.7 1.28-2.9 1.32-3.59.08-1.84-3.33-3.59-6.7-5.2-9.71Zm-115.68-33.25c3.68 2.22 3.76 5.85 2.54 8.37-1.06 2.17-3.05 3-5.22 3.12-3.2.18-6.42 0-9.63.07-1.1.02-1.45-.52-1.45-1.44v-19.05c0-.96.46-1.4 1.51-1.37 3.1.06 6.2 0 9.3.03 2.6 0 5.35 1.97 5.23 5.23-.08 2.04-.25 3.86-2.29 5.04Zm-9.71 2.1v5.85h5.75c2 0 3.18-1.07 3.22-2.9.04-1.64-1.23-2.9-3.12-2.95-1.9-.06-3.81 0-5.85 0Zm-.13-3.27c1.96 0 3.7.06 5.43-.01 1.77-.08 2.81-1.1 2.98-2.74.17-1.52-.55-2.47-2.4-2.75a30.55 30.55 0 0 0-4.98-.3c-.35 0-.96.68-.99 1.08-.11 1.5-.04 3.02-.04 4.73Zm98.06 12.69v-21.8c2.74 0 5.49-.02 8.24.01 1.17.02 2.41-.06 3.52.27 4.29 1.24 5.53 6.24 2.42 9.45l-.28.3c.94 1.52 2.15 2.8 2.54 4.3.33 1.28-.12 2.85-.55 4.19-.7 2.22-2.77 3.07-4.76 3.21-3.66.27-7.36.08-11.13.08Zm3.58-3.56h6.31c1.6-.03 2.58-.94 2.76-2.52.17-1.44-1.01-3.22-2.41-3.3-2.2-.12-4.4-.03-6.67-.03v5.85Zm3.3-8.99c1.1-.15 2.24-.2 3.32-.48a2.31 2.31 0 0 0 1.71-2.72c-.16-.9-.94-2.07-1.73-2.36-1.28-.47-2.8-.39-4.22-.42-2.45-.05-2.47-.02-2.44 2.47.03 3.9-.55 3.32 3.35 3.5v.01Zm136.56-3.62-9.62 14.92c-.74 1.14-2.65 1.81-3.82 1.19-.41-.22-.7-1.04-.71-1.6-.05-6.17-.03-12.35-.03-18.53 0-1.07.32-1.75 1.59-1.62.7.07 1.4.01 2.1.01v16.1c1-1.68 2.03-3.53 3.17-5.3 2.07-3.28 4.2-6.51 6.33-9.75.6-.92 3.13-1.53 3.99-.9.27.2.43.73.43 1.11.03 6.34 0 12.68.03 19.02 0 1.79-1.2 1.5-2.32 1.56-1.18.06-1.65-.31-1.63-1.56.07-3.68-.01-7.37.05-11.05.02-1.2.28-2.4.44-3.6Zm-35.74-5.55h3.44v15.86c1.37-2.26 2.52-4.25 3.76-6.17 1.93-3 3.92-5.94 5.9-8.9.51-.78 3.15-1.3 3.82-.7.27.25.37.77.37 1.16.03 6.4 0 12.8.04 19.2 0 1.5-.96 1.32-1.87 1.27-.88-.05-2.1.46-2.08-1.22.1-4.88.16-9.76.24-14.59-.54.88-1.15 1.94-1.81 2.97-2.6 4-5.25 7.98-7.8 12.04-.93 1.48-2.22.63-3.34.7-.18.02-.64-1.2-.64-1.84-.05-6.08-.03-12.15-.03-18.22v-1.56Zm-34.84 52.56 5.44-8.32c1.4-2.14 2.84-4.24 4.18-6.41.9-1.47 2.23-.6 3.36-.68.17-.01.6 1.12.6 1.73.05 6.13.03 12.26.03 18.39v1.5h-3.43v-15.73c-2.86 4.43-5.7 8.88-8.59 13.28-1.75 2.68-1.8 2.65-5.2 2.46-.03-.45-.08-.91-.08-1.38-.01-6.18.03-12.37-.04-18.55-.01-1.42.4-1.86 1.84-1.87 1.5 0 2.2.36 2.13 1.96-.16 3.94-.24 7.88-.34 11.81-.01.5.06 1.02.1 1.8Zm-23.13 6.29c-.17-3.09-.46-5.93-.46-8.78-.01-3.93.2-7.87.28-11.8.02-.92.38-1.25 1.28-1.25 4.13.03 8.27.04 12.4 0 1.41 0 1.35.92 1.36 1.86 0 .98-.1 1.78-1.45 1.76-3.26-.06-6.51-.02-9.87-.02v4.88c1.81 0 3.6-.08 5.37.03 2.26.13 4.47.47 6.02 2.47 1.78 2.3 1.68 4.9.78 7.3-.84 2.26-2.81 3.57-5.42 3.56-3.42-.02-6.84 0-10.29 0v-.01Zm3.5-3.26c1.94 0 3.78.11 5.6-.03 2.17-.18 3.16-1.32 3.15-3.26-.01-1.84-1.03-3.07-2.87-3.19-1.93-.11-3.87-.02-5.88-.02v6.5Zm-131.14 3.26 4.24-8.66c-3.7-2.77-4.67-6.34-2.78-10.07 1.17-2.31 3.33-2.92 5.6-3.05 2.87-.15 5.76-.01 8.64-.04.93-.02 1.4.25 1.39 1.28-.03 6.77-.02 13.54-.02 20.24-.16.13-.24.24-.32.25-2.18.17-3.27-.82-3.27-2.95v-5.1c-1.48 0-3-.29-4.32.1-.9.27-1.64 1.42-2.17 2.33a24 24 0 0 0-1.9 4.2c-.45 1.25-1.2 1.63-2.45 1.48-.74-.09-1.51-.01-2.64-.01Zm9.81-11.72c.7 0 1.42-.08 2.11.02 1.14.16 1.52-.43 1.55-1.39.03-1.35.1-2.7-.04-4.04-.05-.4-.74-1.01-1.17-1.05a38.8 38.8 0 0 0-4.7-.04c-2.16.07-2.91 1.02-2.9 3.52.02 1.7 1.26 2.94 3.04 2.98.7.02 1.41 0 2.11 0Zm31.16 1.04c0-1.78-.24-3.6.05-5.34.62-3.64 3.22-5.68 6.68-6.05a16.2 16.2 0 0 1 5.9.45 6.43 6.43 0 0 1 4.84 5.96c.24 3.62.2 7.35-.38 10.93-.6 3.6-3.43 4.86-7.24 5.31a14 14 0 0 1-5.2-.63c-2.7-.75-4.65-3.6-4.69-6.4v-4.22h.05Zm3.87-.08c0 1.08.12 2.18-.02 3.25-.29 2.32 1.13 3.88 3.3 4.41 2.82.7 6.88-.28 6.55-4.7-.17-2.32-.02-4.65-.03-6.99 0-1.31-.41-2.53-1.7-2.97-1.33-.45-2.77-.7-4.17-.76-2.36-.1-3.9 1.51-3.93 3.86v3.9Zm29.23-37.29c-.16 1.98-.14 3.99-.53 5.92-.63 3.06-2.91 4.75-5.8 5.22-1.97.32-4.12.14-6.1-.27-2.81-.6-4.85-2.47-5.07-5.4a80.2 80.2 0 0 1 0-10.93c.2-3.1 2.38-4.72 5.2-5.54 2.94-.84 5.8-.66 8.53.77 2.4 1.27 3.4 3.43 3.6 6 .1 1.4.01 2.81.01 4.22l.16.01Zm-4.08.09v-3.09c0-3.1-.78-4.13-3.7-4.86-3.49-.87-6.1 1.16-6.1 4.72 0 2.28-.01 4.56.02 6.83.01.57.15 1.15.32 1.7.63 2 2.47 2.16 4.1 2.54 2.63.6 5.35-1.6 5.36-4.27v-3.57Zm28.55 37.43c-.17 1.72-.13 3.7-.6 5.54-1.27 4.84-5.82 6.05-10.1 5.54-3.27-.39-6.2-1.81-6.75-5.36-.52-3.24-.43-6.6-.4-9.9 0-1.28.39-2.64.93-3.81 1-2.17 3.1-3.2 5.26-3.49 2.9-.38 5.88-.46 8.51 1.45a6.38 6.38 0 0 1 2.64 4.2c.33 1.84.34 3.73.51 5.83Zm-4.05-.3h-.1c0-1.57.4-3.28-.08-4.67-.81-2.28-1.52-3.28-5.79-3.07-1.89.1-3.51 1-3.77 2.84-.36 2.6-.33 5.25-.38 7.88-.05 2.81 1.26 4.5 3.95 4.88 3.35.46 6.4-.85 6.17-5.1-.05-.92 0-1.84 0-2.77Zm-80.74-37.12c-.3 2.16-.42 4.36-.97 6.45-.7 2.72-3.58 4.69-6.41 4.7-2.4.02-4.85.28-7.07-1.01-2.14-1.25-3.39-3.07-3.44-5.57-.05-2.8.14-5.64-.05-8.44a7.1 7.1 0 0 1 5.34-7.2c2.3-.6 4.54-.7 6.76-.06 4 1.15 5.22 3.96 5.56 7.84.1 1.08.01 2.17.01 3.25l.26.04Zm-4.2-.08h.02c0-1.03-.08-2.06.02-3.08.21-2.33-.88-4.28-3.83-4.8-2.9-.52-6.55.66-6.33 4.93.1 1.78.02 3.57.02 5.36 0 3.5 1.2 4.94 4.62 5.56 2.33.42 5.12-1.33 5.44-3.58.2-1.44.03-2.92.03-4.39Zm163.02 47.95h-3.52c-.03-.46-.1-.92-.1-1.39 0-6.18.05-12.37-.03-18.55-.01-1.46.46-1.82 1.87-1.85 1.52-.02 1.83.57 1.78 1.93-.09 2.32-.02 4.65-.02 7.11h9.47c0-2.38.06-4.8-.03-7.22-.04-1.31.31-1.85 1.73-1.8 1.35.03 2.26.11 2.24 1.84-.06 6.02-.08 12.04.01 18.06.03 1.61-.5 2.16-2.04 1.96-.58-.07-1.17-.01-1.87-.01v-9h-9.5v8.92Zm-134.59-58.76c4.09-.2 3.94-.54 3.92 3.31l.02 5.21c0 .1.05.2.2.8.72-.47 1.45-.75 1.87-1.28 1.81-2.24 3.53-4.55 5.27-6.83 1.1-1.42 3.27-1.8 5.35-.87l-7.05 9.07c3.77 3.3 5.06 7.9 7.41 11.92-2.84 1.03-4.12.58-5.27-1.7-.72-1.43-1.58-2.8-2.17-4.28-1-2.5-2-3.38-5.63-2.96v7.08c0 2.05-1.55 3.07-3.36 2.15-.29-.14-.53-.68-.53-1.04-.03-6.83-.02-13.65-.02-20.58Zm128.04.01c2.61-.2 3.92.86 3.92 3.23v6.28c.93-.63 1.63-.9 2.04-1.4 1.83-2.29 3.58-4.64 5.37-6.96 1.04-1.35 2.91-1.69 5.33-.87-2.4 3.1-4.78 6.14-7.09 9.1 3.76 3.22 4.98 7.9 7.4 11.85-2.29 1.18-4.17.6-5.22-1.48-.74-1.48-1.63-2.9-2.22-4.43-1-2.6-2.27-3.37-5.62-2.91v7.06c0 2.04-1.58 3.07-3.37 2.14-.29-.14-.52-.69-.52-1.05-.03-6.82-.02-13.64-.02-20.55Zm-132.69.01v21.49c-.12.1-.16.16-.2.16-2.2.2-3.31-.81-3.31-3.04 0-4.66-.04-9.33.02-14 .02-1.18-.36-1.35-1.48-1.24-1.74.16-3.5.04-5.4.04 0 2.15.16 4.17-.04 6.14a53.58 53.58 0 0 1-1.33 7.83c-.54 2.1-2.17 3.5-4.13 4.46-1 .49-1.55.09-1.86-.83-.27-.8-1.49-1.73-.07-2.4 2.89-1.4 3.34-4.04 3.47-6.69.19-3.92.05-7.86.05-11.9h14.29l-.01-.02Zm46.24 58.82c-1.54 0-2.58.12-3.58-.05a2.3 2.3 0 0 1-1.4-1.04c-.91-1.56-1.69-3.2-2.5-4.82-1.67-3.28-1.99-3.45-5.98-3.1v8.74c-.26.14-.35.23-.44.23-3.23.14-3.2.14-3.2-3.13.03-5.14.01-10.3.01-15.44 0-.27-.03-.55 0-.81.09-.73-.02-1.9.35-2.09.74-.37 1.77-.3 2.66-.2.25.04.55.85.56 1.31.06 2.54.03 5.07.03 7.57 1.17.26 1.89.14 2.58-.89 1.57-2.34 3.43-4.48 5.06-6.78 1.37-1.91 3.23-1.22 5.57-1.28l-7.38 9.66c3.9 3.22 4.96 7.92 7.66 12.12Zm18.59-37.12v-21.73h3.46v7.4c2 0 3.85-.11 5.67.03 3.7.29 6.23 1.35 6.95 4.95.95 4.78-.6 9.27-7.02 9.35-2.98.03-5.97 0-9.06 0Zm3.55-3.58h5.14c2 0 3.4-1.11 3.63-2.86.28-2.07-.8-3.94-2.8-4.19-1.96-.24-3.96-.05-5.97-.05v7.1Zm86.46 40.51c.82-2.2 1.6-4.38 2.44-6.53 1.8-4.59 3.68-9.14 5.39-13.76.41-1.13 1-1.4 2.02-1.34 1.02.06 1.94-.26 2.5 1.27 2.37 6.57 4.97 13.06 7.47 19.59.1.23.1.5.19.96-1.17 0-2.24.07-3.3-.04-.35-.04-.8-.46-.96-.81-.54-1.3-.98-2.66-1.48-4.03-2.62 0-5.18-.04-7.73.03-.4.01-.86.44-1.17.78-.23.25-.27.68-.39 1.03-1.14 3.39-1.27 3.47-4.98 2.84Zm10-17.3-3.15 9.54h6.3l-3.16-9.54Zm-58.61-26.46c.3.06.47.06.6.13.9.46 2.59 1.2 2.53 1.36-.45 1.36-.94 2.9-1.94 3.86-2.77 2.67-11.26 2.77-13.5-.88-.68-1.12-1.59-2.34-1.64-3.54-.13-3.54-.05-7.12.26-10.65.27-3.18 2.64-4.76 5.46-5.5 2.87-.76 5.84-.67 8.34 1.02 1.29.86 2.17 2.39 3.05 3.73.14.22-.56 1.33-1.07 1.55-.8.33-1.77 1.08-2.56-.42-1.7-3.23-6.33-3.8-8.71-1.14-.52.58-.86 1.5-.9 2.27-.11 2.55-.04 5.1-.04 7.65 0 2.88 2.85 4.98 5.73 4.4a5.4 5.4 0 0 0 4.39-3.84Zm9.8-4.16v3.58c0 2.9 2.84 5.1 5.7 4.4 1.88-.44 3.58-1.1 4.16-3.23.05-.2.63-.39.95-.36.47.03.9.31 1.37.4 1.32.27 1.43.96.97 2.1-1 2.43-2.82 3.94-5.35 4.23a21.9 21.9 0 0 1-6.24-.17c-3.7-.66-5.53-4.06-5.47-7.45.05-3.01.03-6.04.32-9.03.31-3.18 2.63-4.78 5.46-5.53 3.04-.8 6.14-.64 8.75 1.26 1.17.85 1.92 2.32 2.67 3.63.12.2-.67 1.24-1.22 1.46-.7.28-1.7 1.06-2.3-.32-1.19-2.76-4.3-3.41-7-2.53-1.9.62-2.77 1.84-2.78 3.81v3.75Zm-114.19 33.13c-.17-.25-.36-.45-.45-.68-1.29-3.38-5.26-3.6-7.94-2.34-1.4.65-1.93 1.78-1.94 3.22-.02 2.68-.2 5.36.02 8.02.3 3.6 3.94 4.3 6.6 3.66a3.96 3.96 0 0 0 2.94-2.46c.86-2.08 2.17-.43 3.2-.23 1.2.24.68 1.2.37 1.93-1.73 4.09-6.28 4.88-9.93 4.41-2.44-.31-4.73-1.16-5.92-3.54-.56-1.1-1-2.36-1.07-3.58-.17-2.49.06-5-.07-7.48-.22-4.1 1.97-7.34 6.53-8 2.57-.36 5.39-.56 7.61 1.2 1.25.98 2.14 2.44 3.05 3.78.13.2-.44 1.1-.88 1.39-.59.38-1.37.47-2.12.7Zm177.89 14.98v-18.23c-1.78 0-3.45-.05-5.12.01-1.37.06-1.43-.82-1.42-1.78 0-.94-.03-1.84 1.38-1.83 4.63.04 9.25.06 13.88 0 1.59-.03 1.36.94 1.41 1.92.05 1.09-.13 1.78-1.48 1.7-1.5-.1-3.03-.02-4.74-.02v5.42c0 3.58-.08 7.16.04 10.74.05 1.64-.42 2.33-2.1 2.08-.52-.08-1.07-.01-1.84-.01h-.01Zm-91.58-37.21c-2.32.18-3.48-.85-3.48-3.08v-18.57h3.48v21.65Zm100.09-27.57a5.53 5.53 0 0 1-5.82 4.2c-2.94-.32-4.8-1.84-4.94-4.02.48-.2.95-.52 1.45-.56.46-.04 1.15.06 1.4.37 1.7 2.1 3.04 2.14 4.79-.01 1.08-1.34 1.98.26 3.13.02Z" fill="#fff"/></svg>