<svg xmlns="http://www.w3.org/2000/svg" viewBox="0 0 727.19 200" style="enable-background:new 0 0 727.19 200" xml:space="preserve"><path d="M9.78 73.1v-13.59a19.76 19.76 0 0 0 7.72 1.65c2.33 0 4.15-.6 5.46-1.8a5.85 5.85 0 0 0 1.96-4.48c0-.62-.07-1.24-.21-1.85a24.63 24.63 0 0 0-1.34-3.86c-.21-.44-.53-1.11-.98-2.01l-.88-1.75-21.51-45.31h17.81l16.58 38.61 16.27-38.61h17.19l-24.71 53.95c-3.5 7.69-7 13.06-10.5 16.11-3.5 3.05-8.14 4.58-13.9 4.58-3.23.01-6.22-.54-8.96-1.64zm129.01-72.99v73.31h-16.06v-59.62h-29.97v59.61h-16.06v-73.3h62.09zm15.95 0h31.61c8.24 0 14.77 1.97 19.61 5.92s7.26 9.83 7.26 17.66c0 7.69-2.4 13.5-7.21 17.45s-11.09 5.92-18.84 5.92h-16.47v26.36h-15.96v-73.31zm15.96 13.17v21.11h14.31c8.37 0 12.56-3.5 12.56-10.5 0-7.07-4.15-10.6-12.46-10.6h-14.41zm90.71-13.28 27.9 73.41h-16.89l-5.77-16.37h-27.29l-5.97 16.37h-16.47l27.91-73.41h16.58zm1.34 45.3-9.68-27.29-9.78 27.29h19.46zm34.28-45.19h34.7c6.86 0 12.48 1.53 16.83 4.58 4.36 3.06 6.54 7.67 6.54 13.85 0 3.43-.89 6.47-2.68 9.11s-4.22 4.65-7.31 6.02c8.92 2.54 13.39 8.51 13.39 17.92 0 6.93-2.33 12.31-7 16.11-4.67 3.81-10.61 5.71-17.81 5.71h-36.65v-73.3zm15.65 12.45v17.19h14.62c8.1 0 12.15-2.85 12.15-8.54 0-3.36-1.1-5.64-3.3-6.85-2.2-1.2-5.15-1.8-8.86-1.8h-14.61zm0 28.11v19.97h16.17c4.18 0 7.5-.68 9.93-2.06 2.43-1.37 3.65-4.01 3.65-7.93 0-3.98-1.29-6.64-3.86-7.98-2.58-1.34-6.09-2.01-10.55-2.01h-15.34zm119.02-40.56v73.31h-16.06v-59.62h-19.67l-1.03 31.09c-.69 19.97-7.48 29.96-20.39 29.96a28.7 28.7 0 0 1-9.06-1.24v-12.97c1.65.82 3.54 1.24 5.66 1.24 2.54 0 4.49-1.15 5.87-3.45 1.37-2.3 2.16-6.88 2.37-13.75l1.23-44.58 51.08.01zm70.53 0v13.18h-39.02v15.96h35.83v12.67h-35.84v18.02h39.74v13.49h-55.7v-73.32h54.99zm75.47 0v73.31h-16.06v-31.62h-29.96v31.61h-16.06v-73.3h16.06v27.59h29.96v-27.59h16.06zm77.94 0v73.31h-16.06v-50.87h-.31l-27.59 50.86h-18.12v-73.3h16.06v50.76h.31l27.59-50.76h18.12zm70.83 0v13.18h-39.02v15.96h35.83v12.67h-35.83v18.02h39.74v13.49h-55.7v-73.32h54.98zm-659.34 105.99c9.82 0 17.78 3.55 23.89 10.65 6.11 7.1 9.16 16.39 9.16 27.85 0 11.4-3.05 20.63-9.16 27.7s-14.1 10.6-23.99 10.6c-9.33 0-17-3.09-23.01-9.27-6.01-6.18-9.39-14.38-10.14-24.61h-11.44v32.13h-16.06v-73.31h16.06v28.11h11.84c1.51-9.2 5.18-16.47 11.02-21.83 5.83-5.34 13.11-8.02 21.83-8.02zm12.2 19.87c-3.06-4.46-7.19-6.69-12.41-6.69s-9.35 2.26-12.41 6.79-4.58 10.6-4.58 18.22c0 7.9 1.53 14.07 4.58 18.53 3.05 4.46 7.26 6.73 12.61 6.79 5.21 0 9.32-2.26 12.3-6.79s4.48-10.71 4.48-18.53c.01-7.75-1.52-13.86-4.57-18.32zm98.99 26.88c-.82 9.2-4.05 16.51-9.68 21.93-5.63 5.42-13.35 8.13-23.16 8.13-10.64 0-19.2-3.52-25.69-10.55-6.49-7.04-9.73-16.35-9.73-27.95 0-10.98 3.28-20.11 9.83-27.39 6.55-7.27 15.29-10.91 26.2-10.91 8.71 0 16.03 2.47 21.93 7.41a26.48 26.48 0 0 1 9.78 18.84h-15.75c-.82-4.05-2.66-7.19-5.51-9.42-2.85-2.23-6.43-3.35-10.76-3.35-4.46 0-8.22 1.25-11.27 3.76a20.11 20.11 0 0 0-6.43 9.21 37.1 37.1 0 0 0-1.85 11.94c0 7.55 1.75 13.57 5.25 18.07s8.2 6.74 14.1 6.74c9.82 0 15.41-5.49 16.78-16.47l15.96.01zm66.93-45v13.69h-22.03v59.61h-16.17v-59.62h-22.03v-13.69l60.23.01zm72.17 0v73.31h-16.06v-50.86h-.31l-27.59 50.86h-18.12v-73.31h16.06v50.76h.31l27.59-50.76h18.12zm85.87 92.15h-15.55v-18.84h-54.67v-73.31h16.06v59.61h29.96v-59.61h16.06v59.61h8.14v32.54zm71.66-92.15v73.31h-16.06v-50.86h-.31l-27.59 50.86h-18.12v-73.31h16.06v50.76h.31l27.59-50.76h18.12zm77.94 0v73.31h-16.06v-50.86h-.31l-27.59 50.86h-18.13v-73.31h16.06v50.76h.31l27.59-50.76h18.13z" style="fill:#fff"/></svg>