<svg viewBox="0 0 82 37" fill="none" xmlns="http://www.w3.org/2000/svg"><path d="M27.12 22.89c.05-4.24.92-8.3 2.68-12.15.28-.62.58-1.23.82-1.87a10.2 10.2 0 0 1 4.13-5.03 7.9 7.9 0 0 1 3.29-1.22c1.3-.18 2.42.2 3.43 1.07 1.42 1.21 2.09 2.81 2.59 4.52.4 1.38.52 2.79.5 4.21a40.1 40.1 0 0 1-.82 7.73 26.4 26.4 0 0 1-2.73 7.52 17.17 17.17 0 0 1-4.4 5.22c-.65.5-1.34.95-2.12 1.23a4.07 4.07 0 0 1-4.45-.94 6 6 0 0 1-1.4-2.05 17.63 17.63 0 0 1-1.25-4.5 26.08 26.08 0 0 1-.27-3.74Zm1.9-1.6c.04 2.16.1 4.46.5 6.74.2 1.02.45 2.03.9 2.98.27.56.6 1.08 1.01 1.55.34.38.76.57 1.28.57a3.58 3.58 0 0 0 1.85-.56c.4-.24.79-.49 1.19-.72.7-.41 1.29-.94 1.75-1.6.36-.51.7-1.03 1.02-1.56.56-.9 1.1-1.81 1.41-2.84.18-.6.37-1.19.53-1.78.38-1.42.63-2.85.85-4.3.24-1.57.48-3.15.65-4.74.19-1.81.3-3.64.43-5.46.07-1 .02-1.98-.17-2.95-.16-.83-.36-1.65-1.05-2.23-.07-.05-.11-.13-.17-.2a2.5 2.5 0 0 0-1.2-.72 3.96 3.96 0 0 0-2.15.05 7.23 7.23 0 0 0-2.68 1.49 18.12 18.12 0 0 0-4.65 6.12 22.87 22.87 0 0 0-1.04 4.8 62.8 62.8 0 0 0-.25 5.36Zm2.6 12.34v.02l.22.1c.64.22 1.3.24 1.96.08.8-.19 1.5-.58 2.16-1.06a15.66 15.66 0 0 0 3.7-3.84 22.52 22.52 0 0 0 3.07-6.7c.98-3.41 1.35-6.9 1.33-10.43 0-1.16-.15-2.3-.45-3.42l-.13-.37v1.42c-.02 1.57-.07 3.13-.05 4.7 0 1.5-.16 2.97-.4 4.44a27.48 27.48 0 0 1-2.28 7.02c-.42.9-.87 1.8-1.31 2.69a13.9 13.9 0 0 1-1.18 1.97 8.75 8.75 0 0 1-2.96 2.7 5.7 5.7 0 0 1-2.9.75c-.26-.01-.51-.05-.77-.07Zm-2.79-18.06h-.04l-.09.34a41.1 41.1 0 0 0-.85 6.8c-.1 1.99.04 3.95.48 5.89a8.06 8.06 0 0 0 1.19 2.86c.32.46.69.87 1.15 1.2l.28.16c-.08-.18-.2-.33-.3-.48a9.48 9.48 0 0 1-1.43-3.44 28.4 28.4 0 0 1-.62-5.28 56.3 56.3 0 0 1 .16-7.27l.07-.78Zm14.1-7.82a87.68 87.68 0 0 1-1.74 15.5 23.28 23.28 0 0 0 1.54-6.05c.06-.57.17-1.14.18-1.71.04-2.3.06-4.6.08-6.9 0-.28-.04-.56-.07-.84Zm-39.12 25.19.96-.1c1.88-.19 3.76-.4 5.65-.56 1.67-.14 3.34-.27 5-.36 1.58-.08 3.16-.08 4.74-.13.45-.01.9-.08 1.35-.1.29 0 .57.01.85.03a.5.5 0 0 1 .23.1c.21.13.22.39 0 .5a1.85 1.85 0 0 1-1.12.23c-1.8-.07-3.58.05-5.37.15-1.04.06-2.08.12-3.12.2-1.18.1-2.36.24-3.55.34-1.15.1-2.3.16-3.46.25-.94.07-1.89.16-2.83.25l-1.44.17a1.3 1.3 0 0 1-.38-.01c-.26-.06-.38-.23-.3-.49a6.48 6.48 0 0 1 1.12-2.13c1.4-1.94 2.8-3.87 4.32-5.71a41.2 41.2 0 0 0 3.47-5.04l3.52-5.86.61-1.07c.45-.7.6-1.5.68-2.3a16.55 16.55 0 0 0-.54-5.49c-.26-.96-1.22-1.52-2.1-1.53a7.86 7.86 0 0 0-1.84.2 13.67 13.67 0 0 0-5.37 2.47c-.42.32-.8.67-1.1 1.09a1 1 0 0 0-.2.35l-.36 1.86c-.03.19-.04.38.17.53.12.08.09.24-.04.39-.11.12-.23.14-.36.06a.33.33 0 0 1-.1-.08c-.3-.42-.58-.85-.6-1.4-.04-.62 0-1.24.22-1.82.2-.56.45-1.11.71-1.65.34-.68.92-1.11 1.57-1.46.3-.17.58-.37.86-.58a8.61 8.61 0 0 1 4.16-1.68 6.9 6.9 0 0 1 2.74.33c.62.17 1.2.4 1.72.78a5.23 5.23 0 0 1 2.11 3.42c.18.93.12 1.87.03 2.8a17.5 17.5 0 0 1-1.71 5.83c-.86 1.82-1.9 3.54-2.91 5.27-1.68 2.83-3.6 5.51-5.42 8.25l-1.15 1.77c-.4.62-.81 1.23-1.3 1.78l-.12.15Zm1.53-5.12c-.05.04-.12.07-.16.13-.99 1.35-2 2.7-2.97 4.07-.25.35-.41.77-.61 1.16-.04.06-.03.15-.05.25.17-.02.31.04.4-.16.36-.86.85-1.65 1.37-2.43l1.88-2.76c.06-.08.1-.18.14-.27l.17-.18-.06-.04-.1.23Zm10.31-16.4c-.02.04-.05.07-.06.11-.34.84-.78 1.63-1 2.51-.06.23-.17.45-.26.68-.3.78-.76 1.5-1.15 2.24a60.82 60.82 0 0 1-3.98 6.35c-1.82 2.6-3.73 5.13-5.47 7.79-.4.61-.76 1.26-1.13 1.89l-.13.28.04.05c.07-.03.14-.04.2-.09.08-.06.14-.14.22-.21.25-.23.53-.42.74-.68.35-.42.67-.86.98-1.31.8-1.2 1.57-2.41 2.38-3.6 1.88-2.73 3.7-5.5 5.35-8.36a40.07 40.07 0 0 0 2.4-4.68c.4-.95.7-1.93.88-2.96Zm-11.41-4.6c.93-.72 1.93-1.33 3-1.83 1.06-.49 2.18-.82 3.32-1.09a4.15 4.15 0 0 0-1.88.05c-1.04.2-2.03.59-3.02.98a.73.73 0 0 0-.23.15c-.5.5-.9 1.08-1.19 1.74Zm11.01 4h.09l.19-.6c.34-1.2.4-2.4.1-3.61a2.77 2.77 0 0 0-1.2-1.75l-.17-.08c.25.41.38.84.5 1.28.3 1.1.42 2.22.48 3.35.03.47 0 .93 0 1.4h.01Zm-1.35-6.78c-1.15-1.08-4.55-1.33-6.02-.43l.24-.04c.45-.07.9-.17 1.34-.2.83-.08 1.64.05 2.43.26l.99.21 1.02.2Zm-9.8 1.93a5.11 5.11 0 0 0-1.18 2.54c.12-.21.24-.37.3-.56.23-.69.53-1.35.88-1.98Zm69.99 10.64.09.3a25.95 25.95 0 0 1 1.34 10.09 10.57 10.57 0 0 1-2.03 5.5 9.85 9.85 0 0 1-1.83 2 5.1 5.1 0 0 1-2.47 1.05c-.76.1-1.52.2-2.3.1a4.75 4.75 0 0 1-4.12-3.28 4.25 4.25 0 0 1-.05-2.97c.24-.68.51-1.35.82-2a33.38 33.38 0 0 1 5.86-8.47 15.85 15.85 0 0 1 3.58-2.88c-.01-.45.02-.92-.12-1.38-.49-1.54-.82-3.1-.99-4.7-.14-1.33.05-2.6.65-3.8a13.54 13.54 0 0 1 2.81-3.89 4.7 4.7 0 0 1 2-1.17c.42-.12.86-.14 1.3-.06 1.02.18 1.65.8 1.94 1.77.33 1.11.37 2.25.22 3.4a9.6 9.6 0 0 1-.96 2.95 23.9 23.9 0 0 1-3.01 4.56c-.78.96-1.62 1.86-2.52 2.7l-.21.18Zm-1.04.99-.25.2-1.05.96a38.73 38.73 0 0 0-4.9 5.24 15.74 15.74 0 0 0-2.04 3.33c-.46 1.1-.83 2.22-.9 3.42-.1 1.64.71 3.22 2.7 3.63a5.8 5.8 0 0 0 2.45-.02 5.18 5.18 0 0 0 3.72-2.75c.3-.6.51-1.24.64-1.9.31-1.53.3-3.07.23-4.62-.05-.93-.15-1.86-.22-2.8l-.33-4.36-.05-.33Zm.7-1.85c.1-.1.19-.16.25-.24.38-.45.79-.88 1.13-1.35 1.1-1.5 2.12-3.06 3.06-4.66.58-.99 1.12-2 1.52-3.07.27-.77.47-1.55.51-2.36a3.04 3.04 0 0 0-.3-1.56 1.08 1.08 0 0 0-.8-.6 2.15 2.15 0 0 0-.66-.03c-.76.1-1.38.48-1.96.96a8.12 8.12 0 0 0-2.06 2.67c-.7 1.4-.96 2.9-1.08 4.44-.11 1.56-.02 3.12.05 4.69.02.38.2.71.34 1.1Zm-.02 1.28c-.23.08-.2.22-.18.34l.2 3.17c.13 1.55.27 3.1.38 4.64.1 1.36.07 2.71-.14 4.05a7.8 7.8 0 0 1-1.2 3.29l-.03.11c.05 0 .07-.03.09-.05 1.36-1.73 2.1-3.7 2.2-5.89.13-2.67-.13-5.3-.8-7.89-.16-.59-.34-1.16-.52-1.77Zm-.76-.4-.3.16a15.4 15.4 0 0 0-2.69 2.23 33.03 33.03 0 0 0-6.17 8.93c-.22.47-.42.96-.6 1.46-.3.83-.33 1.68-.07 2.53a4.22 4.22 0 0 0 3.32 3.15c1.24.26 2.5.12 3.7-.29a5.09 5.09 0 0 0 2.03-1.45l.14-.18c-.06 0-.1.03-.12.06a6.24 6.24 0 0 1-5.62 1.63 3.59 3.59 0 0 1-2.88-2.29 4.8 4.8 0 0 1-.17-2.75 13.02 13.02 0 0 1 2.13-5.01 33.5 33.5 0 0 1 4.6-5.3c.85-.81 1.72-1.6 2.6-2.4.14-.14.23-.26.1-.48Zm4.73-15.09-.13.01c-.79.18-1.42.61-2 1.16a12.9 12.9 0 0 0-2.66 3.76c-.47.98-.66 2-.58 3.09.06.94.22 1.87.41 2.8l.1.25v-.38c-.03-1.4.02-2.8.27-4.17.3-1.69.97-3.21 2.05-4.55a6.26 6.26 0 0 1 2.38-1.87l.16-.1Zm2.5 4.98-.07.14c-.32.87-.75 1.7-1.2 2.52a61.02 61.02 0 0 1-3.05 4.78l-.18.26c.1-.03.15-.08.2-.13.84-.98 1.63-2 2.34-3.09.66-1 1.24-2.05 1.66-3.17.15-.43.28-.86.3-1.31Zm-20.45-3.29-.27.22a79.7 79.7 0 0 0-8.99 8.79c-.25.3-.53.57-.79.86l-.67.75c-.14.16-.27.36-.55.3-.05-.02-.1.04-.17.05-.08 0-.2.03-.25-.01-.06-.06-.09-.19-.08-.28 0-.09.07-.17.12-.25l.6-.92a43.23 43.23 0 0 1 4.47-5.27 74.03 74.03 0 0 1 6.2-5.73c.08-.05.19-.12.26-.1.18.07.32-.01.48-.07l.18-.06c.36-.07.6.1.56.47-.04.4-.1.8-.23 1.17-.78 2.18-1.62 4.35-2.38 6.54-1 2.81-1.96 5.64-2.9 8.47-.4 1.24-.7 2.52-1.07 3.78a249.8 249.8 0 0 1-1.6 5.32 48.7 48.7 0 0 0-1.79 7.3c-.02.14-.07.34-.17.38-.17.07-.35.18-.56.1-.1-.05-.23-.06-.34-.1-.27-.1-.35-.21-.31-.5.06-.4.12-.81.2-1.21.22-1.13.43-2.27.7-3.4.16-.72.39-1.43.61-2.14.3-1 .62-1.99.96-2.97.29-.82.64-1.63.92-2.45.86-2.5 1.69-5.02 2.53-7.52.63-1.88 1.22-3.76 1.91-5.61.55-1.48 1.23-2.9 1.85-4.35l.52-1.25.1-.26-.05-.05Zm-1.85 5.87c-.06.1-.13.18-.16.29l-1.5 4.4-.05.22a.4.4 0 0 0 .12-.19l1.54-4.51c.03-.07.03-.15.04-.22l.12-.24-.06-.02-.05.27Zm-3.33 9.78a67.2 67.2 0 0 0-2.66 9.1c1-3 1.9-6.03 2.66-9.1Zm5.68-16.84c-.06.02-.1.02-.13.04-.4.2-.8.41-1.13.73l-2.64 2.65-.1.13c.27-.13 3.89-3.37 4-3.55Zm-9.22 27.31c-.23.52-1.07 4.79-.98 5.13l.07-.11.91-5.02Zm.9-19.86a.92.92 0 0 0 .4-.43l-.4.43Z" stroke="#8BA6C3" stroke-width="1.482" stroke-miterlimit="10" stroke-linejoin="round"/></svg>