<svg viewBox="0 0 84 37" fill="none" xmlns="http://www.w3.org/2000/svg"><path d="M25.06 21c.1-1.45.17-2.9.32-4.34a24.05 24.05 0 0 1 3.01-9.37 17.8 17.8 0 0 1 2.59-3.62c.41-.43.85-.84 1.32-1.22a3.25 3.25 0 0 1 2.18-.77c.42.01.81.14 1.2.27.52.18 1.04.32 1.55.48.16.05.32.13.47.2.08.03.14.1.22.14a9.86 9.86 0 0 1 3.95 4.59c.4.96.79 1.93.96 2.97.17 1 .16 2 .12 3a34.12 34.12 0 0 1-1.84 9.36c-.59 1.77-1.16 3.55-1.77 5.3-.25.72-.56 1.43-.92 2.1a6.24 6.24 0 0 1-3.74 3.2 7.87 7.87 0 0 1-3.2.33c-.5-.05-.97-.21-1.42-.44a6.78 6.78 0 0 1-2.81-2.5 13.08 13.08 0 0 1-1.82-4.8 30.04 30.04 0 0 1-.37-4.89Zm14.59-8.35h-.02v-1.56c.01-1.02-.08-2.03-.23-3.04a8.58 8.58 0 0 0-1.81-4.23 3.74 3.74 0 0 0-1-.9c-.1-.06-.2-.1-.3-.13l-.72-.2a2.59 2.59 0 0 0-2.3.38c-.22.16-.45.32-.65.5a20.2 20.2 0 0 0-2.47 2.51c-.15.19-.28.4-.38.61-.53 1.1-.92 2.26-1.32 3.4a47.2 47.2 0 0 0-2.01 7.05c-.14.76-.32 1.52-.36 2.29-.08 1.5.04 3 .42 4.46a22.26 22.26 0 0 0 2.6 6c.31.52.66 1.01 1.03 1.48a4 4 0 0 0 2.52 1.51c.67.11 1.27 0 1.78-.5a6.7 6.7 0 0 0 1-1.2c.4-.67.71-1.37.97-2.1a81.29 81.29 0 0 0 2.03-6.62c.52-2 .87-4.03 1.04-6.08.1-1.2.12-2.42.18-3.62Zm-4.08 19.1.24-.2c.24-.25.49-.5.71-.76.69-.8 1.34-1.62 1.76-2.6.45-1.07.9-2.14 1.32-3.22a28.7 28.7 0 0 0 1.5-5.38 38.11 38.11 0 0 0 .56-7.59 22.35 22.35 0 0 0-.4-3.01 9.54 9.54 0 0 0-3.05-5.43c-.16-.15-.35-.27-.53-.4.02.1.07.17.13.24a8.82 8.82 0 0 1 1.9 3.89c.22 1.16.36 2.33.36 3.51 0 .95-.02 1.9-.03 2.84a36.13 36.13 0 0 1-.9 7.65 73.26 73.26 0 0 1-1.8 6.32 17.7 17.7 0 0 1-1.77 4.13Zm-3.69 1.3-.15-.07-.19-.07a5.2 5.2 0 0 1-2.11-1.83 23.6 23.6 0 0 1-3.12-6.35l-.1-.26a.2.2 0 0 0-.02.15c.21 1.14.47 2.27.8 3.38a9.7 9.7 0 0 0 1.61 3.25 5.1 5.1 0 0 0 1.55 1.37c.54.3 1.12.46 1.73.43Zm9.22-26.26v.08c.34.74.53 1.52.65 2.31.13.96.3 1.92.35 2.88.1 2-.06 4-.31 5.99l-.13.97c.06-.1.09-.2.11-.3.48-2.09.71-4.2.77-6.35.05-1.99-.5-3.81-1.44-5.58Zm-12.64 1.77a16.79 16.79 0 0 0-2.08 6.57c.57-2.23 1.37-4.38 2.08-6.57Zm10.12 20.12a13.01 13.01 0 0 1-3.3 3.89 6.47 6.47 0 0 0 3.3-3.9Zm-11.85 0c-.41-1.3-.71-2.62-1-3.94.14 1.36.41 2.69 1 3.94Zm-23.6 4.5c.23-.04.4-.06.57-.1 1.39-.24 2.78-.5 4.18-.71.84-.13 1.7-.17 2.55-.25l3.93-.4c1.16-.1 2.32-.22 3.48-.3 1-.08 1.98-.14 2.97-.17.62-.03 1.23-.01 1.85 0 .12 0 .25.02.37.05.14.03.24.12.26.27.01.14-.06.27-.24.32-.23.07-.47.12-.7.15l-2.86.38c-.87.1-1.75.18-2.62.27-.94.1-1.9.18-2.84.27-.17.02-.34.03-.5.06.44 0 .9.02 1.34 0l2.85-.21c.25-.02.5-.08.74-.1l1.78-.19 1.2-.11c.17-.01.33.02.5.03.4.04.8.02 1.17-.2l.28-.14c.06-.02.14-.06.19-.04.08.04.17.1.21.17.05.1-.02.18-.11.23-.59.33-1.2.51-1.88.42-.36-.05-.75 0-1.12.03-.6.06-1.2.12-1.8.2-.35.03-.7.09-1.03.13l-.3.03c-.73-.02-1.45.1-2.18.15-.56.05-1.13.06-1.7.08-1.09.04-2.18.05-3.26.14-.92.07-1.83.23-2.75.35l-2.54.32-1.4.16c-.23.02-.44.09-.65.14l-.25.08c-.29.06-.5-.08-.55-.37v-.26a.54.54 0 0 0-.53-.09c-.14.05-.28.08-.42.1-.16.04-.28-.01-.31-.13-.04-.14.05-.2.15-.28.15-.12.3-.24.43-.38l2.13-2.37c.14-.15.25-.31.33-.5l1.46-3.31c.85-1.88 1.92-3.64 2.95-5.42 1.04-1.83 2.09-3.66 3.05-5.53.6-1.2 1.08-2.45 1.59-3.7a10.64 10.64 0 0 0 .42-6.74.6.6 0 0 0-.28-.42 3.6 3.6 0 0 0-1.5-.55c-.17-.02-.35.02-.51.06a9.24 9.24 0 0 0-4.4 2.3c-.5.46-.93.98-1.4 1.47l-.2.24c-.18.16-.3.11-.44-.08-.23-.3-.12-.58.03-.85.34-.57.67-1.15 1.03-1.71a4.83 4.83 0 0 1 2.66-1.99 6.99 6.99 0 0 1 5.86.48 2.89 2.89 0 0 1 1.4 2.16c.16.87.12 1.75-.03 2.62-.16 1-.43 1.98-.74 2.95l-.9 2.93c-.3.98-.66 1.94-1.05 2.89a57.8 57.8 0 0 1-2.23 4.74c-.9 1.7-1.99 3.27-3.32 4.66l-2.89 3c-.2.21-.36.44-.49.7-.23.5-.5.98-.76 1.47l-.23.4Zm5.33.18-.52.04c-.87.1-1.74.17-2.6.28-.82.1-1.62.23-2.43.34-.14.02-.2.07-.16.21.27-.07.53-.15.8-.2.38-.05.78-.07 1.17-.12 1.19-.15 2.38-.3 3.57-.47.05 0 .1-.05.16-.08l.25.02v-.03l-.25.01Zm-3.47-4.03.04.04.2-.24c1.11-1.3 2.06-2.7 3.02-4.11a55.13 55.13 0 0 0 5.53-10.46c.12-.29.23-.6.3-.9.33-1.5.54-3 .58-4.54a7.9 7.9 0 0 0-.21-2.16 2.02 2.02 0 0 0-.34-.78l.01.18a10.94 10.94 0 0 1-.57 6.12 58.31 58.31 0 0 1-1.52 3.6c-.93 1.98-2.05 3.86-3.15 5.74a62.04 62.04 0 0 0-3.6 6.84l-.29.67Zm16.2 2.38v-.04h-.17l-2.74.16c-.68.04-1.36.08-2.04.15-1.1.1-2.2.25-3.3.35-1.52.15-3.04.27-4.57.43-.7.07-1.4.18-2.1.28v.06c.11 0 .22 0 .33-.02l3.36-.27c.71-.05 1.43-.08 2.13-.14a294.36 294.36 0 0 0 8.07-.8c.35-.03.7-.1 1.04-.16Zm-6.16-21.22h.03c.01-.03.03-.05.03-.08.25-.96.4-1.93.33-2.93a4.06 4.06 0 0 0-.3-1.37c-.33-.75-.95-1.13-1.68-1.38.17.2.34.4.53.58.43.4.73.89.88 1.46.2.78.27 1.56.24 2.36l-.06 1.36Zm-9.6-2.79.04.02c.3-.38.58-.76.89-1.13.3-.37.65-.72 1.05-.98s.8-.5 1.23-.7c.43-.2.9-.36 1.35-.48.45-.12.92-.16 1.36-.22a7.5 7.5 0 0 0-2.45.31 4.4 4.4 0 0 0-2.45 1.59c-.35.47-.65.98-.97 1.47l-.04.13Zm2.21 19.04c1.07-1 3.55-4.97 3.65-5.84a82.82 82.82 0 0 1-3.65 5.84Zm-4.94 6.32c-.09.07-.19.13-.14.27l.14-.27Zm63.33-2.12-.09-.3c-.03-.24.12-.42.36-.4a1 1 0 0 1 .38.12c.32.16.58.38.82.64.14.16.27.33.43.47.17.15.36.3.56.4.29.17.6.31.9.44.95.41 1.89.44 2.82-.06.41-.22.8-.49 1.15-.8a12.38 12.38 0 0 0 2.9-3.88 28.4 28.4 0 0 0 1.96-5.6c.24-.98.48-1.97.74-2.95.1-.43.26-.85.4-1.27a.55.55 0 0 0 .03-.27l-.2.18a5.78 5.78 0 0 1-4.78 1.47c-.43-.06-.85-.16-1.27-.24-.46-.1-.9-.24-1.31-.44a4.63 4.63 0 0 1-2.62-3.4 8.8 8.8 0 0 1-.03-3.32c.3-1.85.85-3.63 1.69-5.31.05-.1.08-.22.14-.32.16-.35.31-.71.5-1.05a5.55 5.55 0 0 1 3.53-2.74c.4-.1.8-.22 1.22-.25a5.17 5.17 0 0 1 2.9.6c.18.1.37.18.57.26.45.17.88.38 1.28.65 1.21.84 1.84 2 1.94 3.46.06.92-.06 1.82-.26 2.71a27.55 27.55 0 0 1-1.45 4.94c-.12.29-.16.6-.24.9-.1.4-.17.8-.29 1.18-.2.7-.26 1.4-.38 2.11a37.6 37.6 0 0 1-1.4 5.3 30.56 30.56 0 0 1-1.52 3.91 11.56 11.56 0 0 1-2.88 3.77c-.2.17-.37.37-.56.56a5.2 5.2 0 0 1-2.13 1.34 4.22 4.22 0 0 1-3.35-.34 3.24 3.24 0 0 0-.47-.22 3.88 3.88 0 0 1-1.62-1.07c-.2-.23-.36-.5-.51-.77-.1-.16-.06-.22.14-.4v-.01Zm3.92-15.08-.05-.24-.07.03.13.2c.06.36.26.62.47.88a3.72 3.72 0 0 0-.24-.49l-.24-.38Zm.24-3.82a9.47 9.47 0 0 0 .58 3.49 4.88 4.88 0 0 0 2.04 2.54c.58.36 1.2.46 1.85.36.96-.14 1.8-.56 2.54-1.17a10.59 10.59 0 0 0 2.5-3.05 17.37 17.37 0 0 0 2.25-6.02c.02-.17.03-.35 0-.51a7.7 7.7 0 0 0-.21-.9 6.54 6.54 0 0 0-2.15-3.3 1.5 1.5 0 0 0-.71-.36c-.3-.05-.59-.13-.88-.17a5.26 5.26 0 0 0-5.16 2.04 15.77 15.77 0 0 0-2.06 3.45c-.07.15-.13.3-.16.46-.23 1-.4 2.01-.43 3.15Zm7.28 5.57.04.06.38-.24a8.66 8.66 0 0 0 2.66-3.02 5 5 0 0 0 .68-1.92l.05-.32-.05-.02c-.93 2.05-1.97 4.01-3.76 5.46Zm2.6-.4c-.02.02-.05.04-.06.07-.21.63-.46 1.27-.64 1.91-.25.9-.46 1.82-.69 2.73a29.34 29.34 0 0 1-1.3 4.17l-.03.14c.65-.94 2.78-8.02 2.72-9.02Zm2.16-10.35c.1-.32.2-.56.1-.86a3.93 3.93 0 0 0-1.28-1.86l-.2-.13-.04.04a7.89 7.89 0 0 1 1.42 2.81Zm-15.7 23.88-.05.06c.06.23.21.41.4.57.38.3.75.6 1.11.92.42.36.9.6 1.45.65.09 0 .18.02.25.06.24.11.3.12.63.03-.7-.1-1.28-.4-1.86-.67-.4-.18-.73-.43-1.01-.76-.12-.13-.22-.26-.35-.38-.18-.17-.38-.32-.57-.48Zm8.49-.33-1.7 1.7c.82-.34 1.25-1.03 1.7-1.7Zm4.37-13.62c-.55.51-1.14.96-1.78 1.37.7-.3 1.3-.78 1.78-1.37Zm-26.79 16.41c-.02.05-.07.1-.07.14-.04.2-.05.4-.08.6l-.05.23c-.03.1-.1.16-.22.15-.11 0-.2-.06-.2-.17-.02-.2-.08-.43 0-.6.12-.26.13-.53.17-.8.58-4.27 1.43-8.48 2.55-12.64.6-2.21 1.16-4.43 1.85-6.61a74.43 74.43 0 0 1 1.77-4.88c.09-.21.15-.43.22-.65l1.05-3.32a.6.6 0 0 0 .04-.28l-.18.18c-.56.6-1.12 1.22-1.7 1.82-.94 1-1.98 1.9-3.05 2.75a24.66 24.66 0 0 0-2.97 2.87c-.41.47-.76 1-1.14 1.5-.03.04-.06.1-.1.13a.52.52 0 0 1-.26.1c-.1-.01-.15-.11-.15-.22v-.11c-.21.11-.36-.03-.5-.12-.12-.08-.1-.2-.03-.31a291.28 291.28 0 0 1 8.66-8.6c1.03-.98 2.02-2 3.02-3l.19-.19c.25-.23.47-.23.68.04.06.06.07.2.05.29a141.3 141.3 0 0 0-3.93 10.5 58.06 58.06 0 0 0-1.76 6.66c-.45 2.1-.93 4.2-1.37 6.32-.27 1.36-.48 2.74-.72 4.1-.13.7-.26 1.4-.37 2.1-.07.42-.1.85-.16 1.29-.07.54-.16 1.08-.25 1.63l-.14 1.03-.05.23c-.03.1-.1.2-.21.21-.12.02-.2-.05-.26-.15-.15-.25-.28-.5-.32-.8-.06-.47-.1-.94 0-1.41l.05-.48.06-.4.01-.27h-.04l.03.28c-.13.12-.08.26-.06.4-.14.14-.09.3-.05.47Zm3.48-15.05-.09.22c-.21.72-.44 1.42-.64 2.14a69.94 69.94 0 0 0-1.73 8.45c-.17 1.1-.31 2.2-.46 3.3l-.16 1.42c-.02.16-.03.32.05.47a217.1 217.1 0 0 1 3.04-15.86l-.01-.13Zm2.5-8.54.87-2.46a9.1 9.1 0 0 0-.88 2.46Z" stroke="#8BA6C3" stroke-width="1.482" stroke-miterlimit="10" stroke-linejoin="round"/></svg>