<svg viewBox="0 0 91 36" fill="none" xmlns="http://www.w3.org/2000/svg"><path d="M90.03 13.23a35.74 35.74 0 0 1-.65 6c-.42 2.2-1 4.39-1.84 6.48-.62 1.53-1.34 3-2.28 4.35a13.78 13.78 0 0 1-3.74 3.7c-.82.54-1.69.94-2.65 1.13a4.5 4.5 0 0 1-3.4-.6.79.79 0 0 0-.33-.12c-.81-.1-1.5-.46-2.07-1.04a6.32 6.32 0 0 1-1.57-2.84 10.7 10.7 0 0 1-.36-2.87c.01-1.06.08-2.1.12-3.16.07-1.69.12-3.38.2-5.07.13-2.79.63-5.5 1.54-8.15a18.3 18.3 0 0 1 2.62-4.84c.58-.8 1.18-1.59 1.88-2.28a7.75 7.75 0 0 1 3.86-2.13.98.98 0 0 0 .35-.15c.45-.28.9-.55 1.41-.72.4-.13.82-.18 1.22-.03.11.03.2.1.3.17l.13.14c.33.4.7.74 1.18 1a3.7 3.7 0 0 1 1.46 1.55c.34.62.7 1.22 1.07 1.82.5.83.81 1.75 1.03 2.7.39 1.63.57 3.28.52 4.97Zm-1.52-1.75v-1.46a13.84 13.84 0 0 0-.96-4.88 1.78 1.78 0 0 0-.2-.4 5.8 5.8 0 0 0-4.78-2.52 2.2 2.2 0 0 0-1.5.52c-.69.56-1.3 1.2-1.87 1.88a27.58 27.58 0 0 0-4.39 7.26 39.1 39.1 0 0 0-2.78 9.99 8.6 8.6 0 0 0-.12 1.52c.06 1.46.35 2.9.74 4.3.45 1.6 1.14 3.07 2.18 4.36a5.8 5.8 0 0 0 1.66 1.34c.2.12.4.17.64.07.52-.2 1.06-.37 1.56-.62a12.37 12.37 0 0 0 5.09-4.62 30.17 30.17 0 0 0 3.57-8.18c.8-2.83 1.09-5.72 1.16-8.56Zm-12.16 22.7c.7.33 1.42.37 2.15.27a6.57 6.57 0 0 0 2.84-1.15 13.3 13.3 0 0 0 3.48-3.45 22.1 22.1 0 0 0 2.58-5.14 35.71 35.71 0 0 0 1.62-6.26c.37-2.1.57-4.21.51-6.35-.01-.46-.05-.92-.08-1.39-.05.2-.05.4-.05.6 0 .28-.02.54-.03.8l-.12 1.63c-.05.65-.07 1.31-.16 1.96a34.8 34.8 0 0 1-.86 3.9c-.44 1.66-.85 3.33-1.43 4.96a27.26 27.26 0 0 1-3.55 6.5 8.04 8.04 0 0 1-3.1 2.5c-.96.48-2 .75-3.08.52-.26-.05-.48.01-.72.1Zm-3.96-18.9h.05l.15-.51a28.64 28.64 0 0 1 3.32-7.6c.9-1.42 1.9-2.76 3.2-3.84 0-.01 0-.03.04-.1l-.3.18c-.5.34-.94.74-1.33 1.19a22.67 22.67 0 0 0-3.27 4.74 20.33 20.33 0 0 0-1.6 4.7c-.1.41-.18.82-.26 1.24Zm5.83 18.32.02.06c.19-.04.38-.07.56-.12a7.59 7.59 0 0 0 4.21-2.98c.64-.88 1.19-1.84 1.74-2.79.38-.65.7-1.34 1.04-2l.07-.22a.51.51 0 0 0-.14.19 26.13 26.13 0 0 1-1.77 3.1 12.8 12.8 0 0 1-5.6 4.7l-.13.06Zm.62-29.3-.06-.07-.3.34c-.58.61-1.1 1.29-1.59 1.99a27.76 27.76 0 0 0-3.92 8.67l-.06.27c1.36-4.07 3.11-7.92 5.93-11.2Zm-6.78 23.1h-.03v.13c.12.52.21 1.04.37 1.55a9.67 9.67 0 0 0 2.82 4.43c.21.19.43.24.74.15l-.3-.22c-.6-.4-1.1-.91-1.52-1.5a12.33 12.33 0 0 1-1.88-3.84l-.2-.7Zm2.34 6.04c-1.3-1.4-2.2-3.02-2.68-4.87a.33.33 0 0 0-.02.16c.08.61.18 1.22.38 1.8.3.87.72 1.67 1.38 2.3.27.27.57.49.94.6Zm8.56-31.9h1.45c-.29-.35-.83-.36-1.44 0Zm-32.88 31.66c.99.06 1.94.05 2.9-.08.28-.04.56-.04.85-.05l6.03-.1a53.9 53.9 0 0 1 4.92.15c.67.05 1.34.06 2 .1.11 0 .23 0 .32.04.07.03.15.14.14.21 0 .07-.08.16-.16.2-.05.04-.14.03-.21.03l-2.8-.15c-1.9-.11-3.8-.14-5.69-.03-.03 0-.05.01-.08.06.19.02.37.06.56.06l3.9.08c1.07.02 2.14.03 3.22.07.35 0 .7.07 1.05.1l.18.05c.14.04.24.11.23.26 0 .16-.11.23-.25.24-.32.04-.64.09-.95.09-1.13 0-2.26.01-3.39-.03-3.63-.13-7.26-.1-10.88-.08-1.07 0-2.12.17-3.17.34a3.3 3.3 0 0 1-.7.05c-.56-.03-.77-.36-.56-.86.14-.36.32-.7.5-1.03a39.08 39.08 0 0 1 2.42-3.69c2.2-3.1 4.57-6.06 7.09-8.91a16.82 16.82 0 0 0 2.36-3.38c.97-1.85 1.95-3.7 2.72-5.63.4-1.01.74-2.05.98-3.1.26-1.16.35-2.37.03-3.55a3.88 3.88 0 0 0-2.27-2.71.58.58 0 0 0-.5 0 19.5 19.5 0 0 0-4.21 2.52c-.97.77-1.9 1.57-2.84 2.38-.41.37-.77.8-1.16 1.19a.5.5 0 0 0-.15.36c0 .25-.07.3-.3.3l-.13-.01c-.34.04-.41-.05-.32-.39l.16-.75c.2-.69.47-1.35.85-1.95.96-1.53 2.2-2.78 3.72-3.76a5.09 5.09 0 0 1 3.18-.84c.38.03.78-.1 1.17-.15.8-.1 1.6-.17 2.41-.04.7.12 1.28.45 1.7 1.03a6.09 6.09 0 0 1 1.28 4.02c-.06 1.19-.4 2.3-.82 3.4a31 31 0 0 1-2.9 5.45c-.16.24-.3.5-.4.76a43.96 43.96 0 0 1-2.95 5.62 56.68 56.68 0 0 1-5.87 7.87c-.25.28-.48.6-.72.89-.22.27-.43.56-.67.82-.68.74-1.22 1.57-1.78 2.4l-.04.12Zm-1.04.5c-.34-.2-.38-.38-.16-.73l.17-.23.44-.46 2.46-2.55c.46-.48.85-1.01 1.2-1.58.82-1.36 1.65-2.72 2.5-4.08.49-.8 1-1.58 1.49-2.37.04-.07.14-.13.08-.26l-.14.16a99.9 99.9 0 0 0-7.5 9.76c-.52.78-.97 1.6-1.44 2.4-.09.16-.14.33-.22.52.44.12.81-.01 1.17-.06l-.05-.51Zm16.31-29.99v.33c0 .55-.08 1.08-.28 1.6l-.38.97c-.2.59-.46 1.16-.57 1.76-.24 1.4-.58 2.76-.98 4.12l-.06.27c.06-.03.1-.06.12-.1.8-1.4 1.53-2.85 2.05-4.39.38-1.13.6-2.28.44-3.48a2.54 2.54 0 0 0-.34-1.08Zm-5.04-2.07c-.27-.12-.5-.1-.75-.03a10.3 10.3 0 0 0-6.31 4.94c-.04.06-.05.12-.09.23 3.43-2.95 3.42-3.06 7.15-5.14Zm4.02 4.45a4.41 4.41 0 0 0 .27-3.65 1.6 1.6 0 0 0-1.3-1c-.36-.04-.7 0-1.05.07l-.37.1a4.7 4.7 0 0 1 1.83 1.9c.43.81.6 1.67.62 2.58Zm-9.57 20.3.05.02a48.5 48.5 0 0 0 5.8-9 .72.72 0 0 0-.16.16l-.84 1.05c-.1.13-.19.28-.27.42-.33.56-.64 1.13-.99 1.68-1.12 1.79-2.27 3.57-3.4 5.35l-.2.3v.01Zm7.56-13.13-1.24 2.54a4.9 4.9 0 0 0 1.24-2.54Zm-8.59 20.62v-.02c-.65-.04-1.3-.09-1.96-.1-.41-.02-.8.1-1.19.23l3.15-.11Zm-4.1-1.06-.3.34c.23-.01.25-.19.3-.34Zm-48.03 2.04-.22.26c-.09.08-.2.1-.3.02-.1-.06-.1-.15-.05-.25l.07-.18.97-1.82c.36-.69.75-1.37 1.07-2.07a46.88 46.88 0 0 1 1.86-3.6 74.46 74.46 0 0 0 2.83-5.61c.4-.87.82-1.73 1.27-2.57.75-1.4 1.32-2.88 1.88-4.37.75-2 1.5-4.02 2.04-6.1.16-.65.32-1.3.45-1.96.17-.83.1-1.67 0-2.51 0-.05-.02-.1-.01-.16.02-.38-.21-.55-.52-.71-1.05-.56-2.13-.48-3.23-.2a8.1 8.1 0 0 0-3.12 1.62c-.83.66-1.61 1.39-2.46 2.02-.6.45-1.02 1-1.45 1.58-.31.42-.66.83-.99 1.24a.77.77 0 0 1-.18.18c-.1.08-.2.13-.32.07a.29.29 0 0 1-.17-.31 5.93 5.93 0 0 1 1.43-3.25c.7-.82 1.43-1.64 2.25-2.35a9.22 9.22 0 0 1 3.99-2.13c.39-.09.8-.12 1.2-.17.32-.03.65-.05.98-.06 1.03-.04 2 .21 2.93.64.32.14.6.33.81.6.55.71.99 1.47 1.16 2.36.13.64.07 1.3.01 1.94a19.75 19.75 0 0 1-1.41 5.44 54.38 54.38 0 0 1-4.73 8.9c-1.4 2.18-2.75 4.4-4.09 6.62a39 39 0 0 0-2.15 4.3l-.04.16.51-.14c1.67-.5 3.38-.77 5.11-.89.96-.06 1.91-.13 2.87-.18 1.16-.06 2.32 0 3.48.05 1.65.06 3.32.08 4.97.14.57.01 1.13.08 1.69.13l.6.05c.03 0 .07 0 .1.02.13.03.2.1.2.24 0 .14-.1.18-.2.19-.38.05-.74.12-1.11.13-1.26.05-2.5.23-3.75.34-.88.08-1.76.12-2.64.18-1.14.08-2.27.15-3.4.26-1.06.1-2.12.23-3.17.39-.63.1-1.25.26-1.87.4-.38.08-.75.15-1.12.25-.28.07-.55.15-.82.25-.58.2-1.15.45-1.73.65-.3.1-.61.17-.92.24-.38.08-.41.06-.55-.28Zm14.5-3v-.06c-.62-.03-1.23-.08-1.85-.1-.78-.01-1.57-.02-2.36 0-.76.03-1.53.11-2.3.15-2.02.1-4.01.4-5.95 1.01-.59.19-.6.18-.89.71l-.41.85.28-.1c.8-.27 1.58-.56 2.38-.82.68-.23 1.4-.3 2.08-.47.83-.2 1.66-.37 2.5-.51.68-.12 1.36-.26 2.05-.32 1.1-.1 2.2-.15 3.31-.22.39-.03.78-.08 1.16-.12Zm-8.4-8.8.05.03c.08-.14.17-.27.24-.41.3-.57.62-1.14.9-1.72 1.15-2.3 2.3-4.59 3.43-6.89a23.52 23.52 0 0 0 2.12-6.22 6.93 6.93 0 0 0-.1-3.07c-.06-.2-.12-.4-.33-.58v.23l.05.92c.02 1-.21 1.96-.46 2.92a60.7 60.7 0 0 1-2.11 6.42 40.7 40.7 0 0 1-1.94 4.54c-.64 1.22-1.2 2.47-1.8 3.7l-.06.14Zm6.01-20.49-.05.06c.09.43.27.81.61 1.11.3.27.47.62.56 1.02.21.93.33 1.85.15 2.8a22.49 22.49 0 0 1-.84 3.44 37.55 37.55 0 0 1-2.06 4.66c-.54 1.05-1.06 2.11-1.59 3.17l-.12.28c.1-.04.15-.11.19-.18a44.54 44.54 0 0 0 3.15-6.16 19.4 19.4 0 0 0 1.55-5.53c.06-.57.1-1.14.07-1.72a4.47 4.47 0 0 0-1.1-2.5c-.13-.18-.34-.3-.52-.44Zm-4.89-.4-.12.02c-1.5.4-2.8 1.18-3.93 2.21-.64.58-1.21 1.23-1.79 1.87a6.32 6.32 0 0 0-1.2 1.98l-.13.43.07.03c.28-.4.6-.8.84-1.23a10.08 10.08 0 0 1 2.97-3.45 13 13 0 0 1 3.3-1.85Zm-4.6 3.76c1.37-1.07 2.63-2.3 4.23-3.04a12.2 12.2 0 0 0-4.24 3.04Zm8.86-3.18c-.24-.44-.64-.43-1.05-.39l1.05.39Zm11.02 17.05c.06-1.87.24-4.39.71-6.87.55-2.86 1.65-5.5 3.44-7.8a9.14 9.14 0 0 1 4.78-3.3c1.35-.4 2.65-.3 3.9.35.67.36 1.35.7 1.97 1.18.79.6 1.36 1.38 1.76 2.3.36.82.5 1.68.67 2.55.18.96.38 1.92.55 2.88.08.52.14 1.05.15 1.58.02 1.7-.16 3.38-.54 5.04-.45 2-.92 4-1.6 5.93a28.82 28.82 0 0 1-3.44 7c-.4.57-.83 1.13-1.34 1.62-.4.39-.83.73-1.32.99a2.8 2.8 0 0 1-1.63.34.9.9 0 0 0-.4.06 3.62 3.62 0 0 1-3.65-.49 6.56 6.56 0 0 1-1.78-1.98 14.1 14.1 0 0 1-1.65-4.23 29.04 29.04 0 0 1-.58-7.15Zm1.41.47c0 1.13.04 2.25.25 3.37.62 3.4 2.26 6.25 4.81 8.57.3.27.66.47 1 .7.22.14.43.12.68-.02.85-.47 1.6-1.07 2.33-1.72 1.7-1.52 3.05-3.3 3.92-5.4.46-1.11.86-2.24 1.25-3.38a31.5 31.5 0 0 0 1-4.05 24.24 24.24 0 0 0 .2-9.36c-.12-.82-.23-1.65-.56-2.42-.86-1.99-2.24-3.37-4.48-3.66a5.8 5.8 0 0 0-3.79.74 10.45 10.45 0 0 0-2.82 2.4 12.85 12.85 0 0 0-2.25 4.27 33.9 33.9 0 0 0-1.54 9.96Zm5.72 13.04-.13-.1c-.37-.3-.78-.56-1.13-.88a15.73 15.73 0 0 1-3.89-5.74 15.71 15.71 0 0 1-1.05-5.7c-.02-2.6.21-5.15.75-7.68.32-1.51.72-3 1.33-4.42a11.64 11.64 0 0 1 4.23-5.24 6.43 6.43 0 0 1 4.5-1.14h.36c-.13-.06-.2-.1-.26-.11a4.09 4.09 0 0 0-2.05-.16c-1.21.2-2.32.68-3.32 1.4a10.17 10.17 0 0 0-2.54 2.7 18.9 18.9 0 0 0-2.96 8.08c-.24 1.75-.4 3.5-.46 5.27-.1 2.18 0 4.34.4 6.49.29 1.61.78 3.16 1.58 4.6.37.64.8 1.24 1.37 1.74.48.43 1.01.78 1.65.94.53.14 1.06.13 1.61-.05Zm1.91-.33c.7-.14 2.25-1.44 2.42-2.01l-2.42 2Z" fill="#000" stroke="#8BA6C3" stroke-width="1.482" stroke-miterlimit="10"/></svg>