<svg viewBox="0 0 83 36" fill="none" xmlns="http://www.w3.org/2000/svg"><path d="M24.6 17.66c.03-2.94.44-5.83 1.4-8.62a14.65 14.65 0 0 1 2.46-4.5c.28-.35.59-.69.93-.98 1.65-1.45 3.5-1.63 5.47-.75.8.36 1.46.93 2.08 1.56.06.06.12.14.2.19.84.62 1.3 1.5 1.59 2.47.18.59.27 1.2.27 1.81 0 .94 0 1.88-.08 2.8-.32 3.86-1 7.64-1.91 11.4a23.2 23.2 0 0 1-1.46 4.25c-.42.86-.9 1.7-1.53 2.4-.27.3-.56.6-.89.83a2.5 2.5 0 0 1-2.5.33 5.5 5.5 0 0 1-1.63-.99 11.01 11.01 0 0 1-3.16-4.56 17.8 17.8 0 0 1-.96-3.8c-.2-1.27-.3-2.55-.29-3.84Zm9.39 8.25-.23.21.06.05.17-.27.16-.2c.1-.12.2-.22.27-.34a18.7 18.7 0 0 0 1.88-3.73 29.45 29.45 0 0 0 2.02-10.49c0-1.15 0-2.3-.18-3.45a5.33 5.33 0 0 0-1.16-2.66.95.95 0 0 0-.26-.23 5.11 5.11 0 0 0-1.56-.45c.27.26.47.49.7.68.3.24.54.5.72.83a7.47 7.47 0 0 1 1.1 4.41c-.04.92-.14 1.84-.27 2.74-.22 1.44-.47 2.88-.73 4.32-.3 1.66-.63 3.32-1.07 4.96a10.01 10.01 0 0 1-1.44 3.32c-.02.02-.02.05-.03.07l-.15.23Zm-7.21-8.26c.06 1.02.11 2.05.2 3.07.1 1.1.3 2.18.64 3.23.3.93.74 1.79 1.4 2.53a3.3 3.3 0 0 0 1.72 1c.16.04.34.04.5 0 .52-.1.94-.4 1.33-.73a7.75 7.75 0 0 0 2.28-3.38c.38-1.07.62-2.16.86-3.26.52-2.46.97-4.93 1.33-7.41.14-.98.26-1.97.23-2.96a7.26 7.26 0 0 0-.96-3.56c-.28-.46-.68-.78-1.06-1.14-.02-.01-.04-.03-.07-.03-.18 0-.29-.13-.42-.23l-.5-.4a.8.8 0 0 0-.53-.16c-.36 0-.7.07-1.02.21a7 7 0 0 0-1.86 1.23 9 9 0 0 0-1.88 2.58 20.62 20.62 0 0 0-2.2 9.41Zm-1.75 1.23h.02v.3c.06.67.11 1.33.2 2 .16 1.24.44 2.47.86 3.66a10.82 10.82 0 0 0 2.92 4.5c.41.38.85.7 1.34.95.33.17.66.29 1.03.32a2.3 2.3 0 0 0 1.77-.63c.38-.32.7-.7.98-1.1.55-.78.99-1.62 1.35-2.5a31.54 31.54 0 0 0 1.5-5.11c.04-.17.08-.33.1-.5-.07.1-.11.21-.15.32-.47 1.27-1 2.5-1.68 3.68-.4.71-.87 1.39-1.44 1.98-.3.32-.61.6-1 .82a3 3 0 0 1-3.1 0 7.38 7.38 0 0 1-2.33-2.1 11.6 11.6 0 0 1-1.82-4.04c-.22-.84-.37-1.7-.55-2.55Zm7.93-15a3.33 3.33 0 0 0-2.12.27c-.64.3-1.2.73-1.7 1.22a11.11 11.11 0 0 0-2.44 3.63 17.2 17.2 0 0 0-1.35 5.94c-.11 2.14.07 4.25.6 6.32.3 1.14.7 2.23 1.31 3.25l.16.24a.29.29 0 0 0-.01-.2c-.31-.8-.51-1.64-.66-2.5-.2-1.17-.28-2.36-.33-3.54a22 22 0 0 1 .5-5.8c.44-1.87 1.1-3.65 2.05-5.32a7.83 7.83 0 0 1 3.16-3.13l.83-.39Zm-5.12 2.26.03.02.7-.8a7.11 7.11 0 0 1 2-1.53 3.8 3.8 0 0 1 3.25-.13c.2.08.4.12.62.14l.86.11c.22.03.43.08.7.14l-.12-.14a5.6 5.6 0 0 0-1.32-.83 4.39 4.39 0 0 0-5 .83 10 10 0 0 0-1.68 2.1l-.04.1v-.01Zm5.8 20.18-.02-.02-.39.41.41-.4Zm-24.68 4.23.73-.25a57.9 57.9 0 0 1 6.2-2.09c1.4-.37 2.83-.67 4.25-1l1.46-.36c.08-.02.16-.05.24-.03.06 0 .14.06.15.11.02.07-.01.17-.06.21-.08.06-.2.1-.3.12-1.66.47-3.33.95-5 1.4a96.25 96.25 0 0 0-6.96 2.11c-1.9.67-3.74 1.49-5.5 2.47-.76.42-1.46.91-2.12 1.48-.22.2-.46.35-.73.44-.07.02-.15.02-.22.03-.01-.06-.03-.1-.02-.12.1-.4.14-.8.29-1.18a36.07 36.07 0 0 1 4.55-8.76c1-1.48 2.02-2.95 3.08-4.39a41.2 41.2 0 0 0 4.7-8.15c.38-.88.78-1.75 1.15-2.64.16-.4.26-.8.38-1.21a.7.7 0 0 0 .02-.32c-.1-.5-.27-.97-.54-1.4a1 1 0 0 0-.24-.28l-1-.7c-.37-.23-.8-.29-1.2-.35a6.46 6.46 0 0 0-3.65.63c-.52.23-1.01.53-1.46.9-.7.56-1.17 1.3-1.57 2.07-.06.13-.06.28-.08.42v.21c0 .2-.06.33-.2.38-.12.05-.29-.01-.38-.17-.22-.38-.4-.78-.26-1.23a6.92 6.92 0 0 1 2.63-3.81 6.25 6.25 0 0 1 4.45-1.11 5.6 5.6 0 0 1 2.78 1.13c.84.61 1.3 1.43 1.28 2.49 0 .1.02.21.06.31.47 1.08.51 2.19.24 3.33a15.3 15.3 0 0 1-1.2 3.2 33.52 33.52 0 0 1-2.84 4.8c-.84 1.18-1.67 2.35-2.54 3.5-1.36 1.78-2.6 3.65-3.87 5.5l-.42.6c-1.1 1.45-1.93 3.07-2.8 4.66l-.1.2c.12-.07.18-.1.24-.15a26.34 26.34 0 0 1 4.2-2.42c.31-.14.62-.3.92-.45 1.4-.77 2.86-1.34 4.35-1.88.96-.35 1.9-.74 2.88-1.07a27.7 27.7 0 0 1 4.38-1.01l1.17-.2.45-.02c.14 0 .22.08.22.19 0 .1-.07.18-.2.2l-1.31.2c-2.28.33-4.49.89-6.62 1.78-1.2.5-2.42.95-3.63 1.43-.16.06-.3.14-.45.2l.02.05Zm6.44-18.52c.15-.07.14-.21.12-.35l.06-.05c.18-.69.34-1.38.28-2.1-.01-.13-.04-.26-.06-.37l-.1 1.57c-.04.32-.11.63-.17.95l-.13.36-.06.3h.05v-.3Zm-2.02 4.36-.15.18c-.28.43-.55.86-.85 1.28l-2.8 4-.15.26a.62.62 0 0 0-.2.38l.22-.36.18-.2 1.15-1.56c.86-1.2 1.72-2.4 2.47-3.69l.13-.29c.09-.05.12-.14.1-.25l-.1.26Zm-10.84 15.64.03.01c.02-.02.05-.04.06-.07.44-.67.91-1.32 1.31-2.02 1.79-3.12 3.74-6.13 5.82-9.06.99-1.4 1.97-2.81 2.93-4.24.8-1.2 1.49-2.44 2-3.79.37-.94.63-1.91.67-2.97l-.1.14-1.36 3.1a39.69 39.69 0 0 1-4 7.06c-1.3 1.8-2.6 3.6-3.83 5.43a36.56 36.56 0 0 0-3.43 6.15l-.1.26Zm10.8-26.55-.15-.12a3.98 3.98 0 0 0-4.1-.45 7.38 7.38 0 0 0-3.1 2.7c-.09.13-.14.3-.22.44l.05.04c.83-1.22 2-1.97 3.36-2.44a6.33 6.33 0 0 1 4.15-.17Zm1.93 1.46.05-.02-.02-.13c-.16-.5-.45-.92-.87-1.23-.36-.27-.76-.49-1.14-.72-.04-.03-.1-.04-.15-.05.05.07.12.12.18.16.57.4 1.05.88 1.47 1.43.14.2.32.38.48.57Zm-10.2 2.52.42-.85-.26-.18c-.1.33-.28.63-.16 1.03Zm40.82 18.68c.62-.14 1.2-.3 1.77-.41.81-.17 1.64-.27 2.46-.26.92.01 1.83-.12 2.75-.18l2.01-.18c.79-.07 1.57-.17 2.36-.23 1.09-.08 2.17-.15 3.26-.21.26-.02.54-.01.8 0 .36 0 .44.14.32.46l-.08.22c.24 0 .46.05.68-.06.05-.02.17 0 .2.04.05.04.07.14.05.21-.02.13-.13.2-.25.2-.17.03-.34.04-.51.05l-2.45.2c-.73.06-1.46.13-2.2.18-1.23.1-2.46.17-3.68.27-.92.07-1.83.13-2.74.23a23.1 23.1 0 0 0-4.94.97c-.4.14-.79.34-1.18.51l-.17.1c-.3.16-.38.14-.57-.14-.06.04-.11.1-.17.11-.07.02-.16.02-.2-.02-.05-.04-.07-.14-.08-.21 0-.04.03-.08.05-.12.63-1.3 1.24-2.6 1.9-3.88.64-1.21 1.35-2.38 2-3.59 1.07-2 2.2-3.96 3.15-6.02l2.5-5.51c.25-.58.54-1.14.8-1.7a2 2 0 0 0 .16-.47c.18-1.12.25-2.25.22-3.39a3.12 3.12 0 0 0-.32-1.3 1.72 1.72 0 0 0-1.56-1.02 5.77 5.77 0 0 0-2.18.29c-.61.21-1.21.45-1.8.72-.8.36-1.45.9-1.96 1.61a8.15 8.15 0 0 0-1.33 2.55c-.05.16-.05.33-.08.5v.1c-.03.1-.09.19-.19.17-.06-.01-.16-.07-.18-.13a.97.97 0 0 1-.01-.45 8.75 8.75 0 0 1 1.7-3.28c.03-.04.07-.1.08-.18l-.38.28c-.4.32-.8.6-1.06 1.07-.07.13-.2.16-.3.09-.1-.08-.1-.2-.03-.3.18-.25.2-.58.42-.82.36-.4.72-.8 1.17-1.12a10.9 10.9 0 0 1 4.6-1.86c.8-.12 1.6-.2 2.4-.17.48.01.96.08 1.42.26.73.28 1.14.81 1.22 1.6.07.66-.03 1.31-.21 1.94-.18.65-.35 1.3-.49 1.97a18.89 18.89 0 0 1-1.23 3.65c-.28.67-.56 1.34-.79 2.04-.39 1.2-.97 2.32-1.53 3.45a160.7 160.7 0 0 1-2.75 5.32c-.78 1.45-1.52 2.92-2.26 4.4-.19.36-.33.75-.5 1.13l-.09.32Zm2.28-6.45c.06-.08.13-.15.17-.23 1.5-2.69 2.91-5.42 4.23-8.2.28-.6.52-1.2.68-1.84l.11-.41c-.14.19-.24.4-.33.6l-2.22 4.92c-.75 1.67-1.67 3.25-2.52 4.86-.05.1-.07.2-.11.3l-.23.33.07.03.15-.36Zm-3.74 8.03.13-.05a8.82 8.82 0 0 1 1.86-.68c2-.53 4.04-.76 6.1-.92.91-.07 1.82-.12 2.74-.18l1.31-.1c-.13-.04-.25-.04-.38-.04a3855.89 3855.89 0 0 0-5.28.14c-1.2.13-2.4.25-3.59.4-.9.11-1.75.38-2.52.89a.77.77 0 0 0-.37.54Zm9.02-26.8.07.1c.59.53.91 1.2.97 1.98.03.53.02 1.06.01 1.6 0 .32-.03.64-.05.96.18-.32.35-.63.38-1 .06-.75.05-1.5-.13-2.23a2.05 2.05 0 0 0-1.07-1.35l-.18-.06Zm.34-.33.09.06c.7.4 1.12 1.01 1.27 1.81l.1.56h.06c.01-.33.04-.66.02-.99-.02-.4-.13-.78-.47-1.05-.3-.25-.66-.37-1.07-.39Zm7.4 24.45c-1.4.09-2.74.21-4.1.3 1.23.03 2.46.03 3.7.04.2 0 .32-.06.4-.34Zm-14.58-1.57-.05-.04a50.83 50.83 0 0 0-1.65 3.17c.34-.1.56-.22.59-.57 0-.14.07-.28.13-.41.2-.49.42-.97.64-1.45.1-.24.23-.47.34-.7Zm-.8.37.04.03.16-.3-.04-.01-.15.28Zm2.03-3.51-.04-.02-.1.2.04.01.1-.19Zm-1.56 2.76-.04-.03-.11.21.04.02.11-.2Zm30.59-10.81-.47.08c-1.82.3-3.6.74-5.36 1.3-.86.27-1.73.51-2.6.75-.33.1-.67.16-1.02.22-.34.06-.66-.02-.96-.18-.23-.13-.34-.32-.32-.58.03-.26.08-.52.14-.77.49-1.9 1-3.79 1.6-5.66.44-1.36.8-2.74 1.22-4.11a34.2 34.2 0 0 1 1.24-3.45c.12-.27.22-.54.4-.77.08-.12.19-.24.3-.32.16-.1.37-.02.38.16 0 .26.07.51-.03.79l-1.79 5.32a39.18 39.18 0 0 0-1.07 4.12 25.3 25.3 0 0 1-1.07 3.74l-.12.38.29-.08c1.62-.56 3.28-1 4.94-1.43.61-.16 1.26-.2 1.89-.32l2.75-.5c.19-.02.29-.11.35-.3.57-1.65 1.3-3.22 2.1-4.76.28-.55.56-1.1.82-1.65.1-.2.17-.41.24-.63.06-.17.13-.24.26-.21.12.03.18.15.12.33-.08.25-.18.49-.27.73a.35.35 0 0 0-.03.21l.2-.4.2-.37c.06-.1.15-.15.27-.12.13.05.17.16.15.29-.01.1-.04.2-.07.31a33.5 33.5 0 0 1-1.7 4.5c-.36.75-.67 1.52-1 2.29-.12.26-.23.52-.47.71-.08.06-.11.19-.14.29l-1.45 4.32c-.76 2.28-1.55 4.55-2.25 6.85a44.05 44.05 0 0 0-1.25 5.3c-.06.33-.08.66-.14.99-.04.24-.1.47-.17.7-.09.3-.3.51-.54.66-.36.23-.62.1-.69-.26a2.7 2.7 0 0 1-.02-.75c.12-1.06.36-2.1.6-3.13.32-1.33.61-2.67.94-4 .33-1.34.86-2.63 1.36-3.92.58-1.44 1.19-2.88 1.62-4.37.22-.75.4-1.51.62-2.3Zm-6.85-9.9c.03-.04.07-.07.08-.12l.78-2.38v-.08c-.09.12-.15.24-.19.37l-.62 1.99-.05.23-.16.37.06.02.1-.4Zm4.95 16.95h-.03l-.08.17c-.3.82-.61 1.63-.9 2.46-.33.95-.5 1.95-.73 2.93-.28 1.25-.59 2.5-.86 3.76-.11.54-.17 1.1-.25 1.65-.01.12.02.24.03.43.22-.19.4-.33.45-.55.07-.28.11-.57.16-.85.24-1.22.45-2.46.71-3.68.14-.67.37-1.33.53-2 .2-.84.37-1.67.55-2.5l.42-1.82Zm-6.84-5.83.01.02h.1c1.73-.34 3.45-.7 5.18-1.02 1.08-.2 2.14-.45 3.16-.86l.32-.15-2.62.42c-.51.09-1.04.12-1.54.26-1.49.4-2.97.83-4.45 1.26l-.16.06Zm7.5 4.95.04.03c.74-2.1 1.44-4.22 2.14-6.35-.3 0-.31 0-.39.25l-1.36 4.52-.43 1.56Zm2.68-7.72a53.63 53.63 0 0 1 2.39-5.83l-.02-.07a42.5 42.5 0 0 0-2.72 5.94l.35-.04Zm-11.43 1.97.02-.02 2.04-6.98a.51.51 0 0 0-.1.21c-.33 1.06-.67 2.11-.98 3.17l-.89 3.12c-.04.16-.06.33-.09.5Zm2.04 1.11c-.5.1-1 .18-1.47.38.51-.05 1-.2 1.47-.38Zm8.74-2.19.03.05c.2-.02.3-.1.32-.23l-.35.18Zm-11.03 2.37c.08-.18.06-.3-.07-.37l.07.37Z" fill="#000" stroke="#8BA6C3" stroke-width="1.482" stroke-miterlimit="10" stroke-linejoin="round"/></svg>