<svg viewBox="0 0 77 97" fill="none" xmlns="http://www.w3.org/2000/svg"><path d="m44.62 58.58.63 1.05c.23.38.33.8.37 1.22.08.66-.04 1.24-.57 1.7-.31.26-.6.57-.91.88.1.1.17.2.25.27a4.62 4.62 0 0 1 1.53 2.89c.16 1 .22 2 .12 3a90.68 90.68 0 0 0-.26 3.7 6.14 6.14 0 0 1-.55 2.23c-.23.5-.07.94.41 1.23.09.04.2.08.29.08l2.97-.11c.44-.02.89-.06 1.33-.1.84-.08 1.65.11 2.44.35.47.13.84.4 1.08.8.27.48.54.96.77 1.46.35.72.65 1.46 1 2.18.44.94.9 1.87 1.2 2.88.09.3.17.64.56.79.16.07.26.31.37.48l1.63 2.55c.15.22.3.44.48.64.1.13.13.24.07.4a.88.88 0 0 0-.08.42c.03.9.06 1.78.12 2.67.04.6.1 1.21.16 1.82.06.59-.03.68-.6.7-1.76.08-3.53.09-5.29.04-.7-.02-1.42.08-2.13.11-.72.03-1.45.05-2.17.05-1 0-2.02-.04-3.02 0-.67.02-1.33.13-1.99.22-1.72.25-3.45.3-5.18.34-1.37.03-2.73-.02-4.1.01-1.18.03-2.36.16-3.54.16-1.23.01-2.46-.02-3.69-.12-1.77-.14-3.53-.38-5.3-.53a34.05 34.05 0 0 0-3.1-.12c-.47 0-.94.15-1.4.26-.44.1-.56.06-.63-.4-.15-.97-.27-1.94-.38-2.9-.03-.21.01-.42.02-.63.02-.17.07-.35-.14-.47-.06-.03-.1-.26-.05-.3.17-.15.12-.36.18-.53.11-.33.2-.69.35-1 1.12-2.26 2.23-4.53 3.56-6.67.56-.9 1.09-1.84 1.66-2.74.3-.47.65-.91 1-1.34.37-.44.89-.65 1.43-.75 1.39-.27 2.8-.3 4.2-.39.76-.04 1.54 0 2.3-.19.25-.06.51-.02.7-.26.22-.3.36-.62.34-.99l-.07-1.47c-.02-.49-.06-.98-.05-1.46 0-.8.05-1.6.07-2.4.03-1.5.16-2.97.49-4.42.1-.47.25-.92.41-1.36.08-.22.08-.4-.05-.58-.09-.12-.14-.27-.23-.39a5.13 5.13 0 0 1-.74-3.48c0-.1.02-.18.03-.27l-.01-.1c-.56-.37-1.12-.71-1.64-1.1a9.72 9.72 0 0 1-2.47-2.53c-.25-.4-.47-.83-.71-1.23-.56-.93-1.15-1.84-1.67-2.79-.61-1.1-1.16-2.24-1.74-3.36-.07-.14-.14-.29-.27-.42l.04.3a7.5 7.5 0 0 1-.59 4.82c-.27.61-.7 1.06-1.38 1.2-.4.09-.8.24-1.2.36-.42.12-.79.01-1.1-.29a3.9 3.9 0 0 1-1.28-2.52c-.03-.37.07-.7.2-1.04.22-.56.46-1.12.63-1.7.27-.89.2-1.74-.41-2.48-.06-.07-.1-.16-.18-.2-.6-.4-1.15-.89-1.87-1.1a6.4 6.4 0 0 1-.96-.34c-1.88-.9-3.83-1.66-5.52-2.92a20.8 20.8 0 0 1-6.63-7.77c-.6-1.27-.98-2.61-1.36-3.95-.1-.33-.2-.66-.33-.97-.52-1.31-1-2.64-1.28-4.02a9.8 9.8 0 0 1 .49-5.47c.27-.72.7-1.34 1.21-1.9.32-.36.58-.75.82-1.16.3-.54.64-1.08 1.02-1.57a6.36 6.36 0 0 1 3.84-2.46 4.34 4.34 0 0 1 2.44.26c1.14.44 2.28.85 3.27 1.59l.42.26-.05-.3c-.39-1.31-.78-2.62-1.15-3.93-.11-.38-.19-.78-.28-1.17-.05-.2.04-.33.21-.44.18-.1.34-.24.52-.34a5.2 5.2 0 0 0 1.54-1.44c.2-.28.48-.52.76-.74a15 15 0 0 1 5.38-2.95c1.08-.3 2.19-.54 3.3-.7 1.5-.21 2.95-.63 4.44-.88 2.26-.36 4.5-.95 6.78-1.15a28.6 28.6 0 0 1 4.44-.11c2.38.14 4.7.58 7.03 1.03.73.14 1.45.4 2.18.6.67.17 1.35.34 2.03.45 1 .17 1.92.51 2.82.93l4.75 2.21c1.13.53 2.23 1.1 3.2 1.9.3.25.51.53.56.92.04.3 0 .57-.2.8-.2.22-.26.49-.25.78a30.6 30.6 0 0 1-.32 5.32c-.02.09-.02.18-.02.35l.19-.26a4.84 4.84 0 0 1 4.1-2.58 9.2 9.2 0 0 1 2.96.14c1.03.24 1.9.75 2.61 1.51.12.13.26.25.4.36.6.45 1.1.98 1.5 1.63.47.79.86 1.62 1.14 2.5.05.16.08.32.15.47a6.4 6.4 0 0 1 .26 3.71c-.2 1.25-.54 2.46-.89 3.68-.16.56-.25 1.15-.32 1.74a21.2 21.2 0 0 1-3.8 9.72 13.46 13.46 0 0 1-3.05 3.03 17.9 17.9 0 0 1-4.85 2.66c-.85.3-1.67.69-2.49 1.07a5.55 5.55 0 0 0-2.97 3.54l-.5 1.61c-.04.18-.06.38-.04.57.05.75-.07 1.45-.44 2.1-.22.4-.52.67-.95.82-.57.2-1.05.06-1.48-.32-.35-.31-.7-.64-1.03-.98a1.98 1.98 0 0 1-.36-.45 4.83 4.83 0 0 1-.66-3.37c.05-.22.03-.45.03-.67v-1.4l-.1-.03c-1.19 1.9-2.34 3.83-3.56 5.71-1.23 1.9-2.23 3.92-3.6 5.74Zm-38.14-35.17-.03.45h.1l-.08-.44-.06-.44-.07.02.14.41Zm61.11 11.33-.19.18-3.4 3.56a7.6 7.6 0 0 1-.7.62 22.19 22.19 0 0 1-4.9 2.87l-1.62.72c-.07.03-.14.1-.21.14.14.04.26.03.37 0 1.12-.24 2.18-.67 3.2-1.19.78-.4 1.56-.84 2.3-1.32a9.78 9.78 0 0 0 1.54-1.2 37.87 37.87 0 0 0 3.55-4.14l.1-.2.24-.27a2.17 2.17 0 0 0-.07-.06l-.2.3Zm-30.21-31.83c-3.07.04-6.14 0-9.19.4-1.01.13-2.02.3-2.97.68-1.51.62-3.02 1.22-4.52 1.87-1.6.69-3.14 1.52-4.64 2.42-.35.22-.5.48-.46.88l.06.57.3 2.38c.2 1.65.37 3.3.56 4.96.04.32.07.65.17.96.15.46.2.92.13 1.4-.02.13-.05.27-.03.4.09.66.17 1.32.29 1.98a74.02 74.02 0 0 0 1.96 7.94c.94 3.15 1.88 6.3 2.84 9.46.48 1.59.9 3.2 1.5 4.74 1.1 2.79 2.38 5.5 3.86 8.11.67 1.2 1.42 2.3 2.46 3.23 1.04.94 2.03 1.94 3.27 2.65a6.13 6.13 0 0 0 2.04.7c1.05.1 2.12.17 3.18.23.5.03 1.01.03 1.51-.02a9.76 9.76 0 0 0 3.6-1.18c.13-.06.24-.16.36-.17.2-.02.33-.13.45-.25.77-.82 1.4-1.73 1.93-2.71a71.35 71.35 0 0 0 1.93-3.9c2.14-4.7 3.97-9.53 5.85-14.34 1.1-2.8 2-5.68 3-8.52a280.4 280.4 0 0 0 5.06-16.26c.14-.51.12-.9-.22-1.34-.5-.65-.96-1.33-1.61-1.83a59.81 59.81 0 0 0-2.24-1.6 3.12 3.12 0 0 0-.72-.34c-1.34-.48-2.67-1-4.03-1.4a52.6 52.6 0 0 0-6.09-1.43c-1.02-.16-2.04-.37-3.07-.43-2.18-.13-4.35-.17-6.53-.24Zm16.15 41.26.14-.1c1.09-.93 2.3-1.68 3.6-2.26 1-.45 2-.9 2.96-1.41a13.9 13.9 0 0 0 3.85-2.83c.45-.48.92-.93 1.38-1.4a29.75 29.75 0 0 0 3.25-3.82c.55-.79 1.07-1.61 1.5-2.47a8.24 8.24 0 0 0 .88-5.17c-.12-.75-.36-1.47-.54-2.2a7.1 7.1 0 0 0-.95-2.05 2.28 2.28 0 0 0-1.75-1.07c-.6-.08-1.02.16-1.3.7-.14.3-.1.58-.05.88.07.45.15.9.17 1.36.04.77-.37 1.29-1.03 1.62-.5.25-1.03.38-1.58.39-.88 0-1.55-.34-1.95-1.15a5.76 5.76 0 0 1-.7-2.04c-2.1 7.85-4.51 15.6-7.88 23.03Zm-47.81-22.23c-.03-.7.1-1.48.26-2.25.14-.7.51-1.26 1.05-1.7a3.87 3.87 0 0 1 2.34-.86c.8-.04 1.27.27 1.52 1.03.18.57.32 1.17.45 1.76.14.62.26 1.25.61 1.8.27.42.36.48.84.3a4.6 4.6 0 0 0 1.86-1.17 2 2 0 0 0 .53-1.11c.03-.35.01-.7-.02-1.06a5.35 5.35 0 0 0-1.62-3.43 2.9 2.9 0 0 0-1.9-.88 7.8 7.8 0 0 0-3.52.56c-1.39.6-2.55 1.54-3.69 2.52-.4.36-.67.78-.84 1.28a18.7 18.7 0 0 0-.53 8.88c.34 1.78.84 3.52 1.5 5.21a13.9 13.9 0 0 0 3.2 4.93c.85.84 1.71 1.68 2.6 2.49a15.53 15.53 0 0 0 3.95 2.6c.87.41 1.73.86 2.6 1.28a7.55 7.55 0 0 1 2.6 2.04c.05.07.11.14.18.2a3.1 3.1 0 0 1 1.25 2.17 3.34 3.34 0 0 1-.13 2.3c-.16.4-.31.82-.36 1.24-.12 1.12.33 1.7 1.3 1.95.22.06.4.03.52-.14.11-.13.22-.28.28-.44.17-.43.32-.87.46-1.3.3-.86.38-1.75.3-2.64a9.14 9.14 0 0 0-1.82-4.44 9.1 9.1 0 0 0-2.9-2.5c-.9-.53-1.78-1.08-2.66-1.63a16.28 16.28 0 0 1-2.97-2.4 35.61 35.61 0 0 1-3.06-3.58 8.52 8.52 0 0 1-.89-1.48c-.33-.7-.6-1.42-.87-2.14-.28-.79-.47-1.6-.77-2.37a34.02 34.02 0 0 1-1.3-4.2c-.23-.9-.35-1.81-.35-2.82Zm68.53 3h-.02c0-.5.03-1 0-1.51a26.28 26.28 0 0 0-1-5.14 7.67 7.67 0 0 0-1.1-2.32c-.08-.11-.15-.24-.26-.3-.57-.36-1.11-.8-1.8-.94-.52-.11-1.03-.27-1.56-.34a5.78 5.78 0 0 0-3.29.5c-.36.17-.7.39-.93.74-.62.96-1.16 1.96-1.53 3.05-.5 1.53-.12 2.9.72 4.18.18.27.41.47.74.54.8.18 1.14-.03 1.26-.85.13-.82.21-1.64.35-2.46a2.41 2.41 0 0 1 2.02-2.02 1.6 1.6 0 0 1 1.04.13c.51.26.97.58 1.25 1.1.1.2.23.38.36.57.38.59.65 1.23.77 1.92l.4 2.55c.32 1.96.05 3.85-.66 5.67a21.33 21.33 0 0 1-2.95 5.22c-1 1.3-2.03 2.58-3.16 3.8-.81.87-1.72 1.6-2.79 2.16l-.5.29c-1.26.75-2.58 1.4-4 1.78-.67.18-1.34.36-2 .6-.68.26-1.21.7-1.55 1.33-.45.85-.84 1.73-1.23 2.61-.13.28-.18.6-.26.9a.74.74 0 0 0-.03.26c.1.89.26 1.76.55 2.6.13.34.36.65.58.95.1.12.28.2.44.26.47.16.9.04 1.2-.34.27-.36.5-.77.7-1.18.08-.15.08-.36.07-.55-.04-.56-.17-1.13-.13-1.68.1-1.4.77-2.5 1.92-3.3 1.12-.8 2.36-1.3 3.66-1.69a14.1 14.1 0 0 0 6.88-4.35 13.8 13.8 0 0 0 2.6-4.22c.2-.58.51-1.13.75-1.7.59-1.4 1.2-2.79 1.73-4.2.34-.88.66-1.78.69-2.75.01-.62.04-1.24.07-1.87Zm-58.2-3.8c-.3.33-.5.57-.73.8a3.7 3.7 0 0 1-1.72 1.14c-.76.2-2.28-.43-2.73-1.15-.55-.9-1.18-1.75-1.58-2.73-.12-.3-.33-.56-.52-.82-.13-.18-.33-.23-.55-.23-.43 0-.67.25-.84.62a6.42 6.42 0 0 0-.44 3.57c.23 1.72.5 3.44.77 5.15.13.77.26 1.55.65 2.26a18.8 18.8 0 0 0 2.18 3.34c1.08 1.27 2.05 2.65 3.25 3.83a17.04 17.04 0 0 0 3.33 2.72c.88.51 1.75 1.04 2.63 1.57l2.15 1.31c-.28-.54-.6-1.11-.87-1.7-.43-.9-.82-1.84-1.26-2.75a17.51 17.51 0 0 1-1.23-3.33c-.5-1.96-.96-3.94-1.43-5.92a20.51 20.51 0 0 1-.51-3.11c-.08-.93-.19-1.86-.3-2.78-.06-.56-.16-1.12-.26-1.78Zm3.14 69.6c-.06 1.04-.2 2-.02 2.99.08.46.18.53.66.45.69-.1 1.38-.23 2.06-.3 1.23-.16 2.45-.11 3.67.16.7.16 1.43.27 2.14.32 1.97.16 3.93.29 5.9.4 1.03.07 2.07.14 3.1.1 1.26-.03 2.51-.17 3.77-.27 1.84-.14 3.69-.27 5.54-.23a6 6 0 0 0 .8-.05c1.2-.14 2.38-.3 3.57-.4 1.3-.1 2.6-.23 3.87-.56 1.2-.3 2.4-.53 3.63-.54.4 0 .79-.08 1.18-.13-.03-.74-.04-1.42-.09-2.1-.02-.28-.12-.56-.19-.87-.65.22-1.26.42-1.86.6-.9.29-1.8.61-2.72.83-1.2.29-2.42.4-3.65.42-3.07.04-6.13.07-9.2 0a46.44 46.44 0 0 1-5.79-.46 21.93 21.93 0 0 0-4.47-.3c-.78.04-1.57.02-2.35.03-1.51.02-3.02 0-4.53.06-1.28.06-2.55.08-3.81-.09-.38-.05-.77-.04-1.21-.06Zm15.52-26.7c.07.13.1.25.18.32.32.27.33.62.26.98-.03.13-.07.26-.09.4-.14 1.48-.3 2.97-.43 4.46a49.9 49.9 0 0 0-.15 2.44c-.02.9 0 1.81 0 2.73a6 6 0 0 0 2.21.55c1.38.15 2.75.03 4.13-.03 1.08-.05 2.15-.18 3.2-.5.35-.1.38-.1.37-.48 0-.83.18-1.65.3-2.47a9.9 9.9 0 0 0-.05-3.45l-.32-1.52c-.25-1.26-.5-2.5-1.15-3.63-.07-.13-.1-.3-.15-.46a10.1 10.1 0 0 1-5.8.88c-.63-.08-1.26-.18-1.9-.25-.17-.02-.37-.13-.61.04Zm9.6 12.11c-.3.14-.54.27-.78.37-.98.4-1.99.68-3.05.76-.95.07-1.91.21-2.87.2-1.07-.03-2.12-.2-3.18-.3a.93.93 0 0 0-.55.09c-.54.27-1.1.5-1.65.77a1 1 0 0 0-.37.3c-.44.62-.98 1.14-1.52 1.67a2.37 2.37 0 0 0-.41 2.97c.22.37.5.7 1 .7l3.46.08c2.24.07 4.47-.1 6.69-.42 2.34-.34 4.67-.73 6.99-1.23l.34-.1c-.03-.35-.05-.69-.1-1.02a3.8 3.8 0 0 0-1.2-2.42c-.19-.17-.36-.39-.67-.37-.07 0-.15-.08-.22-.14-.15-.11-.28-.25-.44-.35-.33-.22-.7-.4-1.02-.62-.3-.2-.57-.45-.46-.94Zm3.83 2.1c.14.13.2.2.27.25.56.43.89 1.02 1.13 1.67l.17.5c.19.65.38 1.29.55 1.93.15.59 0 .85-.56 1.09a4 4 0 0 1-.5.16c-.6.17-1.22.23-1.84.3-2.23.25-4.47.49-6.68.9-1.1.2-2.2.31-3.32.22-.88-.07-1.77-.16-2.65-.27-1.07-.13-2.15-.26-3.2-.45-.65-.12-1.26-.37-1.92-.27l-.1-.01c-.2-.05-.35-.12-.34-.38a.77.77 0 0 0-.09-.33 5.08 5.08 0 0 1-.18-3.49 2.9 2.9 0 0 1 .94-1.47l.38-.36-1.4.18c-1.38.13-2.73.46-4.05.92a.97.97 0 0 0-.66.7c-.3.93-.48 1.89-.58 2.86-.09.89-.1 1.78-.4 2.64-.06.15-.03.33-.05.55a6.3 6.3 0 0 1 2.28-.43c.45 0 .9 0 1.34-.05 1.15-.15 2.3-.07 3.45.04 2.22.23 4.43.3 6.66.26 1.1-.01 2.2-.04 3.28.03 1.8.12 3.61.24 5.42.2.93-.02 1.86-.01 2.8-.01h.57l5.02-.18c.46-.02.92-.03 1.38-.07.18-.01.36-.07.58-.11-.08-.23-.13-.4-.2-.56-.15-.46-.36-.91-.47-1.39a8.33 8.33 0 0 0-1.43-3.13 9.35 9.35 0 0 1-1.04-1.7c-.21-.5-.52-.73-1-.8a2.05 2.05 0 0 0-.4-.04l-3.16.09Zm8.6 8.46c-.28.04-.54.07-.78.13-1.1.27-2.21.35-3.35.32-.82-.01-1.65 0-2.48.07-.84.05-1.68.19-2.52.27a27.9 27.9 0 0 1-4.75 0c-1.65-.11-3.31-.16-4.96-.35-1.75-.2-3.5-.3-5.27-.28-.53.01-1.07-.03-1.6-.04l-3.77.01-2.13.02c-.82 0-1.63-.02-2.45-.03h-.48c-.04.7-.08 1.34-.1 2l.13.04c.86-.02 1.72-.03 2.58-.07 1.24-.06 2.48-.19 3.72-.22 1.91-.04 3.82-.04 5.73-.04a132.1 132.1 0 0 1 9.83.64c1.57.2 3.13.33 4.7.31 2.12-.02 4.24-.1 6.35-.32a4.57 4.57 0 0 0 1.54-.35c.02-.2.06-.4.06-.59v-1.52Zm5.32-73.2h-.14a300.33 300.33 0 0 1-13.83 38.41c.13-.13.23-.27.32-.41 1.2-1.98 2.41-3.95 3.59-5.95.5-.84.95-1.71 1.35-2.6a96.5 96.5 0 0 0 1.82-4.25c1.64-4.16 3.02-8.4 4.27-12.69a79.12 79.12 0 0 0 2.43-10.57c.1-.64.13-1.29.2-1.93Zm-18.47 49.07c.42-.77.65-1.62.48-2.56a.93.93 0 0 0-.41-.65c-.15-.1-.27-.25-.45-.4l-.2.03c-.84.13-1.69.28-2.54.39-1.07.13-2.14.26-3.22.3-.87.05-1.74-.02-2.61-.05-.33 0-.38 0-.48.33-.04.14-.07.29-.08.43v1.07c0 .58.24 1.04.72 1.35.23.15.37.32.4.58 1.22.2 2.4.36 3.6.35a8.23 8.23 0 0 0 4.18-1.03c.15-.08.35-.08.61-.13Zm-24.36 27.37.35.05 2.4.06c2.28 0 4.56-.02 6.84 0 1.8.02 3.59.04 5.37.14 1.41.07 2.82.07 4.22.03.74-.01 1.48-.06 2.22-.03.88.04 1.75 0 2.62-.09.84-.08 1.68-.1 2.52.05.59.1 1.17.2 1.76.27 1.93.21 3.85.15 5.76-.18.66-.11 1.33-.28 2-.43-1.6.05-3.19.11-4.76.21-1.98.13-3.94 0-5.9-.2-.86-.1-1.7-.22-2.56-.3-.83-.06-1.66-.09-2.49-.14-1.56-.09-3.13-.22-4.7-.27-1.4-.05-2.81-.04-4.22 0-1.7.04-3.4.14-5.1.21-1.16.05-2.31.1-3.47.13-.53.01-.65-.15-.62-.67l.1-2.26c.01-.13.02-.27.05-.4l.94-3.52.07-.36-.09-.03c-.18.42-.39.83-.54 1.26a24.93 24.93 0 0 1-1.7 3.67c-.4.72-.77 1.47-.99 2.28-.04.16-.05.34-.08.52Zm-9.98-57.56a6.6 6.6 0 0 0 1.14 2.27 33.8 33.8 0 0 0 3.7 4.16c.26.25.54.51.84.71 1.24.82 2.47 1.64 3.74 2.4 1.15.7 2.24 1.45 3.07 2.53.78.99 1.37 2.07 1.77 3.26.3.91.46 1.84.37 2.8l-.15 1.5c.3-.91.4-1.76.27-2.62-.13-.86-.3-1.72-.44-2.59a6.15 6.15 0 0 0-3.26-4.62c-.78-.43-1.55-.87-2.31-1.34-.87-.53-1.75-1.06-2.56-1.68a23.25 23.25 0 0 1-3.94-3.97l-2.24-2.81Zm23.33-30.09.02.1h.42c3.38.01 6.76-.09 10.13.1.8.06 1.6.14 2.38.24 2.3.3 4.54.87 6.77 1.44.99.25 1.94.64 2.9.96l.42.14.03-.08c-.58-.28-1.16-.57-1.76-.84a7.42 7.42 0 0 0-1.85-.6c-1-.16-2-.38-2.97-.71a12.8 12.8 0 0 0-1.72-.45c-1.16-.22-2.33-.39-3.5-.6a26.76 26.76 0 0 0-5.3-.41c-1.62.02-3.22.2-4.81.49-.39.06-.77.15-1.15.22Zm-10.98 38.27c-1.36-5.05-3.04-10-4.37-15.04 0 .5.02.99.12 1.46a97.62 97.62 0 0 0 1.91 8.13c.53 1.86 1.47 3.56 2.24 5.32.02.05.06.08.1.13Zm26.87 42.08c-1.53.29-3 .6-4.5.84-1.5.25-3 .5-4.51.65-1.48.16-2.97.2-4.51.31l1.5.17c1.05.11 2.1.16 3.14 0 1.67-.23 3.34-.5 5-.72 1.02-.14 2.03-.23 3.05-.35l.88-.12-.05-.78Zm-33.48-73.66c-.36.24-.65.46-.96.65-.2.13-.25.28-.18.49.1.34.23.67.33 1.01l1.25 4.49c.06.23.13.42.43.55l-.87-7.2v.01Zm19.45 55.76c-.13.44-.26.8-.35 1.17a24.28 24.28 0 0 0-.51 5c-.01.65-.07 1.3-.05 1.95.01.8.09 1.58.14 2.42.08-.07.15-.1.15-.13.13-3.42.21-6.84.77-10.23 0-.03-.06-.07-.16-.18Zm25 29.38-.1-.85c-1.03.07-2.02.1-2.99.23-.95.14-1.9.4-2.84.6 1.97.14 3.93.23 5.94.02Zm15.39-69.36.1.02c.1-.7.23-1.42.3-2.14.05-.4.07-.81-.03-1.2a14.7 14.7 0 0 0-1.33-3.61l-.23-.3c.65 2.44 1.3 4.77 1.19 7.23Zm-27.93 52.64c.17.2.4.21.6.21.94 0 1.87-.04 2.8-.05.47 0 .95-.01 1.42.04.72.08 1.22.4 1.53 1.15.3.7.8 1.33 1.2 2l.1-.06c-.42-.92-.76-1.89-1.37-2.71a1.26 1.26 0 0 0-.6-.43 6.38 6.38 0 0 0-2.4-.37c-1.05.09-2.12.12-3.18.18-.03 0-.05.02-.1.04Zm-44.7-50.51a24.6 24.6 0 0 1 .42-7.14c-1.03 1.27-1.41 5.11-.41 7.14Zm35.45 59.52c.94.33 9.34.9 11.23.3-.85-.02-1.7-.05-2.56-.02-2.04.06-4.08 0-6.12-.16-.85-.08-1.7-.09-2.55-.12Zm19.87.02-.1.02c-.23.91.02 1.87-.23 2.8l1.76-.55-1.43-2.27Zm15.8-54.81c-.16.4-.32.79-.49 1.17-.48 1.1-.99 2.19-1.45 3.3-.28.67-.6 1.32-1 1.92-.37.54-.77 1.06-1.15 1.58l-.17.27c1.68-1.45 4.22-6.35 4.27-8.24Zm-31.54 44.82c-1.35.04-2.77.1-4.19.1-.6 0-1.2-.08-1.8-.17-.46-.07-.92-.22-1.4-.34l-.05.5c1.64.5 6.19.41 7.44-.09Zm3.65-6.58c.08-.96.12-1.92-.04-2.88a4.79 4.79 0 0 0-.88-2.33l-.3-.33-.08.05c.63 1.79.86 3.66 1.3 5.49Zm13.52-63.18-.06.08c.3.22.63.43.93.66a9.83 9.83 0 0 1 1.71 1.6c.24.29.45.6.7.93l.17-.4c.24-.56.23-.62-.24-1-.97-.8-2.08-1.34-3.2-1.87Zm-42.18 38.14.03-.08-.22-.13c-.81-.4-1.61-.82-2.43-1.2a14.61 14.61 0 0 1-3.53-2.2c-1.15-1.01-2.24-2.08-3.35-3.12l-.33-.3a1 1 0 0 0 .24.43 24.58 24.58 0 0 0 3.35 3.18c1.07.85 2.2 1.6 3.46 2.15.64.28 1.26.59 1.9.88l.88.39Zm-6.43-31.04c-1.06-.38-2.06-.14-3.03.33-.94.45-2 1.43-2.14 1.97 1.54-1.23 3.2-2.14 5.17-2.3Zm36.55 77.28v-.12c-1.04-.2-2.06-.38-3.12-.3-.87.08-1.74.12-2.62.15-.8.02-1.62 0-2.43 0-.12 0-.23.02-.34.03v.09l8.5.15Zm-23.8-86.87c-2.16.36-5.17 1.8-6.06 2.81 1-.5 1.97-1.02 2.98-1.48 1.01-.47 2.05-.89 3.08-1.33Zm-14.06 13.54c.21.29.4.5.54.74.16.25.27.52.4.79.17.32.32.64.5.95.1.18.23.35.36.53a6.27 6.27 0 0 0-.2-1.34c-.08-.39-.2-.77-.32-1.15-.12-.37-.4-.54-.78-.55l-.5.03Zm9.5 72.2c.24-.68.41-1.3.68-1.89.47-1 1-1.95 1.48-2.93.16-.32.29-.64.43-.96-.1 0-.13.04-.16.09l-2.72 5.33c-.05.1-.06.22-.09.36h.37Zm.24 4.54c-.44-1.25-.2-2.5-.19-3.77l-.37.03c-.26 1.3.01 2.55.23 3.82l.33-.08Zm37.85-44.98.23-.71a6.32 6.32 0 0 1 1.54-2.46l.5-.48c-1.56.7-2.49 2.14-2.27 3.65Zm-6.9 33.53c-.12-1-.76-2.91-1.12-3.33.47 1.13.3 2.36.55 3.58l.57-.25Zm-25.43-4.16.38-.11c1.27-.45 2.57-.78 3.92-.9.35-.03.69-.1 1.04-.16a5.4 5.4 0 0 0-.9 0c-.95.1-1.9.18-2.86.29a2.1 2.1 0 0 0-1.57.88Zm-3.83-29.67-.8 2.1c-.34.84-.1 1.57.4 2.25-.22-.76-.29-1.2-.17-1.73.1-.43.25-.85.4-1.26.16-.43.25-.85.17-1.36Zm33.7 4.19c.3.42.59.53.97.43.52-.15.9-.69.96-1.41-.48.64-1.02 1.12-1.93.98Zm-9.44 6.6c.04.77-.05 1.52-.26 2.28.22-.2.48-.4.53-.64.12-.56.08-1.14-.27-1.65Zm-13.08-1.86c.12-.25-.02-.35-.16-.47l-1.76-1.56a14.2 14.2 0 0 0-.25-.22c.55.92 1.34 1.6 2.17 2.25Zm24.05 25.01-.06.02c0 .06 0 .14.02.2l.58 1.72c.05.17.14.34.16.51.02.18-.02.36-.03.58l.44-.06-1.11-2.96Zm7.55-59.58c-.58-.66-.85-1.48-1.17-2.27.18.87.42 1.7 1.17 2.27Zm-9.93 21.86-.09-.06c-.38.44-.7.9-.71 1.52l.09.04.7-1.5Zm-20.04 13.52c-.4-.4-.86-.47-1.29-.63.53.51.9.7 1.3.63Zm34.63-40.27-.01.09c.25.07.5.13.75.22l.69.27c-.4-.38-.82-.73-1.43-.58Zm-37.03 59.94c-.68.33-1.15.83-1.16 1.15l1.16-1.15Zm-5.72 16.03a4.4 4.4 0 0 0-2.15-.2l2.15.2Zm-11.87-72.14c.6-.04 1.01-.42 1.4-.83l-1.4.83Zm15.07 63.72v-.12l-1.54.08a.3.3 0 0 0 0 .04h1.55Zm-12.93-65.4c.5-.39.54-.5.35-.85l-.35.84Zm18.28 54.81c.05.26-.22.52-.03.87.12-.34.22-.59.03-.87Zm-11.16 9.61c-.28.6-.3.78-.12 1.04l.12-1.04Zm30.95 1.32h-.01.18-.17Zm-19.35-23.37.08-.06-.24-.26-.05.04.2.27Z" fill="#fff" stroke="#fff" stroke-width="2" stroke-miterlimit="10" stroke-linejoin="round"/></svg>