<svg viewBox="0 0 110 102" fill="none" xmlns="http://www.w3.org/2000/svg"><path d="M13.99 22.41c10.04-8.73 20.83-16.13 34.1-19.19 2.76-.62 5.43-1.62 8.19-2.17a22.37 22.37 0 0 1 14.92 2c5.92 3.04 12 5.83 17.66 9.32 10.25 6.32 15.98 15.96 18.25 27.59.88 4.5.88 9.16 1.28 13.75.15 1.91.31 3.83.52 5.74 1.33 12.13-2.48 22-12.54 29.35-8.09 5.91-16.83 10.28-26.7 12-13.6 2.36-26.06-.77-37.6-8.2-7.95-5.1-15.13-11.09-21.15-18.4-6.38-7.73-10.95-16.24-9.85-26.78.75-7.37 3.97-13.72 8.38-19.53 1.42-1.86 3-3.62 4.54-5.48Zm73.77-.55c-.42.95-.6 1.75-1.09 2.27-.47.52-1.26.76-1.9 1.11.16-.6.2-1.27.5-1.8.88-1.57 1.3-3.05-.13-4.54-2.27-2.35-4.41-4.85-6.84-7.04-5.65-5.1-12.22-8.1-19.97-8.1-.57 0-1.56-.11-1.69.15-1.66 3.4-5.27 3.33-8.08 4.55-4.13 1.79-8.58 2.9-12.63 4.83-9.8 4.68-17.92 11.13-20.7 22.34-2.01 8.08-3.2 16.36-2.3 24.68 1.24 11.54 6.35 21.16 16.21 27.56a64.5 64.5 0 0 0 37.87 10.5c10.83-.34 20.07-4.39 27.47-12.19 6.6-6.93 9.98-15.45 11.59-24.83.8-4.72.2-9.1-1.54-13.49-3.86-9.7-10.45-17.58-16.81-25.99h.04Zm-70.59 56.69c-1.43-3.4-2.99-6.43-4.01-9.63-3.89-12.16-1.99-24.21 1.29-36.11 1.26-4.6 3.94-8.4 7.38-11.76 5.87-5.74 12.84-9.49 20.52-12.11 4-1.38 7.98-2.83 11.96-4.25l-.16-.6c-.88.07-1.78.03-2.63.2-17.84 3.55-32.21 12.72-42.8 27.4-4.84 6.73-7.3 14.49-5.86 22.98 1.64 9.72 7.45 16.94 14.31 23.88Zm89.4-30.88c-1.76-23.06-14.04-33.96-32-40.93 13.48 10.82 23.77 24.9 32 40.93Zm.64 17.55a54.42 54.42 0 0 1-10.03 20.73c6.57-5.36 10.13-12.16 10.03-20.73Z" fill="#fff"/></svg>