<svg viewBox="0 0 174 99" fill="none" xmlns="http://www.w3.org/2000/svg"><path d="m99.69 39.97.05.6" stroke="#fff" stroke-width="3" stroke-miterlimit="10" stroke-linejoin="round"/><path d="M65.52 11.94v-.01Zm101.48 7.21c-2.7-4.33-6.2-7.86-10.85-10.16-4.99-2.46-10.2-3.35-15.7-2.17a20.03 20.03 0 0 0-8.52 3.86 23.31 23.31 0 0 0-4.05 4.35 3.1 3.1 0 0 1-.58.65 28 28 0 0 0-7.47 8.77 43.25 43.25 0 0 0-3.51 8.54c-1.24 4-2.14 8.09-2.86 12.21-.72 4.13-1.3 8.27-1.58 12.45l-.18 2.68c-.13 1.87-.34 3.74-.38 5.6-.08 4.2.5 8.31 1.63 12.35a35.6 35.6 0 0 0 4.86 10.71 16.27 16.27 0 0 0 9.02 6.53c.38.11.76.25 1.12.43 1.37.66 2.81 1.08 4.33 1.21 2.64.23 5.14-.28 7.51-1.44.29-.13.57-.27.87-.37 2.64-.81 5.1-2.02 7.44-3.47a29.04 29.04 0 0 0 8.5-7.72 36.58 36.58 0 0 0 4.34-8.22c.15-.38.3-.78.53-1.12a57.45 57.45 0 0 0 5.14-9.86 77.87 77.87 0 0 0 4.4-15.41 72.3 72.3 0 0 0 1.2-11.37c-.1-1.5-.15-3-.28-4.49a32.63 32.63 0 0 0-4.93-14.54Zm-53.06 28.15c.7-4.27 1.55-8.5 2.75-12.68.98-3.4 2.15-6.74 3.9-9.85a29.5 29.5 0 0 1 4.72-6.29l.31-.3a104.58 104.58 0 0 0-6.42 13.85 146.01 146.01 0 0 0-5.27 16.6 1.6 1.6 0 0 1-.27.63l.28-1.96Zm9.86 46.08a15.06 15.06 0 0 1-5.18-4.66 32.89 32.89 0 0 1-4.17-8.37 44.44 44.44 0 0 1-1.75-7.02 1.68 1.68 0 0 1 0-.5c1.82 8.1 5.74 15 11.7 20.85l-.6-.3Zm13.73 1.9c-3.06.48-6.1.48-9.13-.22-.44-.1-.89-.28-1.27-.52a19.48 19.48 0 0 1-4.41-3.88c-5-5.67-8.2-12.2-9.46-19.64-.6-3.5-.85-7.03-.68-10.57.07-1.5.35-2.98.62-4.45a132.5 132.5 0 0 1 9.67-30.55 58.8 58.8 0 0 1 4.8-8.7c.3-.45.64-.8 1.1-1.1a28.06 28.06 0 0 1 10.6-4.08c1-.18 2.03-.26 3.05-.38l.01.07c-.15.05-.3.12-.47.15a20.43 20.43 0 0 0-8.86 4.4 29.92 29.92 0 0 0-6.7 7.9 77.27 77.27 0 0 0-5.62 11.79 80.13 80.13 0 0 0-4.68 17.2 69.1 69.1 0 0 0-.9 12c.14 6.8 1.9 13.08 5.77 18.73a19.67 19.67 0 0 0 4.26 4.66 15.24 15.24 0 0 0 7.31 2.97c3.91.53 7.66-.16 11.3-1.55.97-.37 1.91-.84 2.87-1.27l.64-.3c-.15.23-.21.35-.3.45a31.25 31.25 0 0 1-5.35 5.26 9.01 9.01 0 0 1-4.17 1.62Zm17.45-78.92c.7.66 1.43 1.29 2.13 1.95.57.55.9 1.21 1.06 2 .7 3.52 1.22 7.06 1.4 10.64l.27 5.37c-.06 3.1-.3 6.2-.62 9.28l-.54 5.6c-.4 4-.92 7.98-1.6 11.94a77.5 77.5 0 0 1-2.45 10.52c-1.2 3.76-2.61 7.43-4.76 10.77-1.4 2.19-.72 1.58-3.04 2.82a26.9 26.9 0 0 1-8.22 2.86c-2.6.45-5.19.43-7.75-.21a14.3 14.3 0 0 1-7.7-4.94 30.62 30.62 0 0 1-6.08-12.14 38.1 38.1 0 0 1-1.03-10.29 77.57 77.57 0 0 1 5.36-26.37 81.3 81.3 0 0 1 5.12-11.05 31.38 31.38 0 0 1 6.05-7.78 21.33 21.33 0 0 1 7.93-4.71c2.89-.92 5.76-.9 8.58.2a18.3 18.3 0 0 1 5.89 3.54Zm-3.88-3.6c.74.17 1.37.54 1.93 1.04l-1.93-1.04Zm-7.42 80.56-.1-.1 1.1-1.02c1.6-1.53 3-3.2 4.3-4.97.2-.26.45-.5.72-.68a38.05 38.05 0 0 0 8.73-7.67c.13-.16.28-.3.45-.42-3.03 7-8.36 11.7-15.2 14.86Zm17-19.07c-.12.31-.25.63-.44.9a38.53 38.53 0 0 1-9 9.36l-.51.35-.07-.07.07-.16c2.44-3.98 4.03-8.32 5.3-12.78a78.02 78.02 0 0 0 2.13-10.2 276.65 276.65 0 0 0 2.34-21.54c.22-3.28.1-6.57-.13-9.86a77.96 77.96 0 0 0-1.42-10.2l.03-.22.4.6c1 1.7 1.68 3.54 2.31 5.4a57.73 57.73 0 0 1 2.74 12.1c.48 4.24.66 8.51.38 12.78-.33 4.88-.82 9.75-1.74 14.56a61.43 61.43 0 0 1-2.4 8.98Zm10.37-31.05a78.53 78.53 0 0 1-4.94 20.77 57.43 57.43 0 0 1-3.2 6.85 2 2 0 0 1-.44.58l.77-3.01c.76-3.1 1.27-6.24 1.61-9.41.25-2.3.5-4.6.7-6.9.24-2.97.26-5.95.12-8.92a70.52 70.52 0 0 0-.7-7.4 57.83 57.83 0 0 0-3.68-13.33 21.48 21.48 0 0 0-3.91-6.08 19.22 19.22 0 0 0-3.43-3.2 14.68 14.68 0 0 0-4.9-2.07 23.8 23.8 0 0 0-9.8-.34 30.2 30.2 0 0 0-9 3.07l-.33.15a15.33 15.33 0 0 1 5.49-4.53 21.58 21.58 0 0 1 14.33-1.8c6.49 1.37 11.55 4.87 15.37 10.2a32.11 32.11 0 0 1 5.93 15.4c.37 3.32.33 6.65 0 9.97Zm-71.32-2.55.01-.01v.01Z" fill="#fff" stroke="#fff" stroke-width="3" stroke-miterlimit="10" stroke-linejoin="round"/><path d="M99.74 40.63v-.07.06l-.01.05v-.04Zm0-.07v.01Z" fill="#fff" stroke="#fff" stroke-width="3" stroke-miterlimit="10" stroke-linejoin="round"/><path d="M99.69 25.55c-.68-3.96-2-7.69-4.04-11.16a19.5 19.5 0 0 0-9.66-8.51 13.05 13.05 0 0 0-6.46-1.04c-2.08.24-4.14.69-6.12 1.41a38.28 38.28 0 0 0-10.4 6 54.15 54.15 0 0 0-14.37 17.45 71.93 71.93 0 0 0-6.44 17.42 65.36 65.36 0 0 0-1.92 15.59c-.05 2.8.22 5.82.68 8.83.42 2.74.98 5.45 1.87 8.08.88 2.63 2.08 5.1 3.88 7.23.73.87 1.46 1.72 2.22 2.55.42.47.87.91 1.35 1.31a8.17 8.17 0 0 0 7.25 1.79c.22-.05.45-.07.68-.06 1.41.07 2.82.03 4.22-.14a25.7 25.7 0 0 0 8.1-2.2 29.07 29.07 0 0 0 7.93-5.66 57.61 57.61 0 0 0 8.07-10.13c.46-.7.93-1.39 1.44-2.05a58.64 58.64 0 0 0 5.17-7.98 65.51 65.51 0 0 0 7.58-25.39 38.6 38.6 0 0 0-.25-8.79c-.22-1.52-.52-3.03-.78-4.55Zm-28.28-16.76c.9-.68 1.92-.8 2.99-.71a7.21 7.21 0 0 1 5.05 2.63c.44.5.75 1.15 1.06 1.76a20.89 20.89 0 0 1 1.79 5.12 69 69 0 0 1 1.13 7.72c.25 2.6.48 5.22.67 7.83.07 1.04.01 2.08.01 3.13a64.8 64.8 0 0 1-1.31 13.7 90.46 90.46 0 0 1-4.05 14.88 78.28 78.28 0 0 1-7.67 15.36 38.04 38.04 0 0 1-4.52 5.6c-.25.26-.51.37-.88.4-4.35.33-8.03-1.16-11.14-4.13a21.96 21.96 0 0 1-4.77-7.07 35.55 35.55 0 0 1-2.67-9.6 47.9 47.9 0 0 1-.33-10.1c.3-4.07.97-8.1 1.92-12.07.36-1.48.78-2.94 1.17-4.4a35.42 35.42 0 0 1 2.41-6.3 84.21 84.21 0 0 1 8.15-13.77 37.2 37.2 0 0 1 9.57-9.05c.48-.3.97-.58 1.42-.92Zm-11.16 8.68.26-.36.08.05-.26.36-.08-.05Zm6.4-6.52.07.07-.35.27-.06-.07.35-.27Zm-1.13.98.5-.52.11.13-.6.4c-.22.32-.51.56-.81.8l-.37.26-.17.15c.4-.46.77-.94 1.34-1.22Zm-2.48 2.27.1.09-1.05 1.12c.18-.51.6-.84.94-1.21Zm-1.28 1.38c-.03.31-.24.5-.52.62l.52-.62Zm-.94 1.32a88.4 88.4 0 0 1-.08-.09l.29-.33.07.05-.28.37Zm-16.85 63.47a42.47 42.47 0 0 1-2-7.8 58.24 58.24 0 0 1 .48-22.7 74.61 74.61 0 0 1 5.8-17.58 55.45 55.45 0 0 1 12.02-16.6c.22-.21.46-.42.76-.57l-.1.15a52.6 52.6 0 0 0-8.13 13.31c-.87 1.98-1.63 4.01-2.43 6.03-.86 2.19-1.75 4.37-2.55 6.58a81.99 81.99 0 0 0-4.07 16.14 72 72 0 0 0-.76 13.51c.18 4.2.97 8.27 2.42 12.2l.23.65a14.34 14.34 0 0 1-1.67-3.32Zm15.3 10.72a4.6 4.6 0 0 1-2.75.36 15.44 15.44 0 0 1-7.23-3.18 5.08 5.08 0 0 1-1.18-1.37 29.05 29.05 0 0 1-2.75-6.62 42.6 42.6 0 0 1-1.6-12.84 78.95 78.95 0 0 1 3.11-20.64c.08-.28.19-.57.28-.85l.07.02-.53 3.06a56.91 56.91 0 0 0-.8 12.57c.27 4.84 1.2 9.54 3.24 13.98a22.86 22.86 0 0 0 4.85 7.1 14.99 14.99 0 0 0 8.01 4.17c.8.14 1.63.15 2.44.22h.66c-.05.1-.06.17-.1.2a21.5 21.5 0 0 1-5.72 3.81Zm23.26-12.5a42.24 42.24 0 0 1-8.12 8.24 23.8 23.8 0 0 1-14.13 4.76c.07-.06.14-.13.23-.17a24.29 24.29 0 0 0 5.62-4.07c.29-.27.59-.42.98-.48 3.87-.63 7.3-2.3 10.49-4.49a39.94 39.94 0 0 0 4.91-4l.15-.01c-.05.1-.08.16-.13.22Zm4.65-6.9c-.45.75-.98 1.47-1.54 2.14a42.92 42.92 0 0 1-9.06 8.25 25.9 25.9 0 0 1-8.03 3.67l-.88.19c.08-.14.1-.23.16-.3 3.36-3.59 5.81-7.77 8.02-12.12a84.12 84.12 0 0 0 7.33-21.27c.6-2.91 1.14-5.84 1.45-8.8.33-3.07.46-6.15.35-9.24-.12-3.52-.52-7.01-.89-10.51a55.8 55.8 0 0 0-1.31-7.63 16.7 16.7 0 0 0-2.3-5.31 7.87 7.87 0 0 0-5.6-3.46l-.36-.04-.04-.14c.36-.16.7-.37 1.07-.5 4-1.4 7.84-1.06 11.53.98a17.8 17.8 0 0 1 4.68 3.96 32.24 32.24 0 0 1 6.66 12.55c.83 2.86 1 5.78 1 8.72-.02 5.3-.91 10.5-2.32 15.59a93.22 93.22 0 0 1-9.92 23.28Zm12.57-31.05-.01.01a65.05 65.05 0 0 1-3.07 13.41 61.52 61.52 0 0 1-4.16 9.63l-.2.11.4-.86a91.63 91.63 0 0 0 5.76-16.56c.41-1.78.72-3.59 1.1-5.38a.54.54 0 0 1 .07-.18l.09-.15v-.05l.01-.06-.05-.59h.09l-.04.6a.5.5 0 0 0 0 .07Zm-51.45-36.1c.3-.48.54-.99.8-1.49a2 2 0 0 0 .19-.46c.1-.42-.2-.69-.62-.55-.22.07-.42.19-.62.3a39.6 39.6 0 0 0-5.51 3.94c-2.3 1.95-4.57 3.93-6.88 5.87a446.4 446.4 0 0 0-19.55 17.3c-4.18 3.97-8.28 8-12.1 12.32-.53.6-1.14 1.15-1.72 1.73-.04.05-.1.08-.14.12-.14.15-.21.32-.08.5.15.21.35.24.55.1.2-.11.39-.26.55-.42.52-.51 1.04-1.02 1.53-1.57 4.22-4.76 8.78-9.19 13.42-13.54 8.03-7.55 16.53-14.55 24.87-21.73l.38-.28a.96.96 0 0 1-.3.44l-12.45 11.04c-4.02 3.58-8.07 7.12-12.02 10.77-2.79 2.56-5.43 5.28-8.15 7.9-2.73 2.63-5.23 5.47-7.99 8.06-.18.17-.2.52-.02.68.2.2.42.18.62 0 .14-.11.26-.26.4-.4a351.1 351.1 0 0 1 18.54-18.28c4.43-4.02 8.96-7.93 13.45-11.9 3.01-2.65 6-5.33 9.01-8 .31-.27.65-.52.97-.78l.07.06c-.04.12-.08.26-.14.38-.81 1.64-1.62 3.3-2.45 4.93-2.62 5.17-5.27 10.33-7.88 15.5-1.49 2.94-2.86 5.94-4.38 8.86-3.35 6.46-6.8 12.87-10.14 19.34-2.95 5.71-5.38 11.66-7.79 17.61a769.23 769.23 0 0 0-4.98 12.55 44.74 44.74 0 0 0-2.02 6.76c-.03.16-.06.33-.06.49 0 .2.1.37.32.4.22.02.37-.08.43-.29l.1-.3a48.27 48.27 0 0 1 2.26-7.46c1.86-4.78 3.81-9.52 5.71-14.28a232.44 232.44 0 0 1 11.32-23.97l.3-.51c.02.24-.06.43-.14.62a393.37 393.37 0 0 0-12.44 33.64c-1.44 4.57-2.84 9.14-4.27 13.72l-.05.17c-.05.23-.01.46.24.5.15.02.36-.08.47-.2.13-.15.19-.37.25-.56.23-.67.45-1.35.66-2.02 1.41-4.56 2.77-9.13 4.23-13.67a379.86 379.86 0 0 1 13.99-36.6c1.3-2.95 2.64-5.89 4.1-8.77 2.43-4.78 4.98-9.5 7.45-14.25 2.5-4.82 4.93-9.66 7.72-14.32Zm-4.6 2-.07-.07.44-.37.06.07-.44.38Zm4.12-3.12.1.09c-.3.64-.68 1.24-1.05 1.88-.36-.6-.41-.63-1.12-.58l2.06-1.39Z" fill="#fff" stroke="#fff" stroke-width="3" stroke-miterlimit="10" stroke-linejoin="round"/></svg>