<svg viewBox="0 0 61 99" fill="none" xmlns="http://www.w3.org/2000/svg"><path d="m7.71 81.91.3 1.35a21.98 21.98 0 0 0 2.78 6.7 17.79 17.79 0 0 0 3.86 4.23c1.06.86 2.16 1.65 3.25 2.47.12.1.27.18.36.3.05.07.07.24.02.3a.5.5 0 0 1-.32.14c-.08 0-.17-.07-.25-.13a28.88 28.88 0 0 1-6.15-5.24 19.9 19.9 0 0 1-3.75-7.12 29.91 29.91 0 0 1-.97-4.34c-.04-.24-.1-.48-.2-.68a36.26 36.26 0 0 1-3.42-9.8c-.58-2.8-.92-5.64-1.09-8.5a70.6 70.6 0 0 1 .04-9.2 68.5 68.5 0 0 1 9.43-30.51 44.26 44.26 0 0 1 11.96-13.28c3.08-2.27 6.4-4.1 10.06-5.26a27.37 27.37 0 0 1 10.12-1.28c1 .06 2 .27 2.99.41.03 0 .05.04.1.08l-.21.54-.76-.08a49.2 49.2 0 0 0-6.47 0c-1.83.15-3.59.61-5.32 1.18-1.87.61-3.6 1.5-5.2 2.63-4.1 2.9-7.94 6.1-11.16 9.99a49.33 49.33 0 0 0-8.64 15.5 75.64 75.64 0 0 0-2.7 10.42 68.19 68.19 0 0 0-1.24 15.41l.02.27c.08-.15.13-.21.15-.28a33.57 33.57 0 0 1 6.98-11.1c4.6-5 10.28-8.14 16.83-9.77 1.5-.38 3.03-.63 4.57-.86.88-.13 1.75-.37 2.62-.54a20 20 0 0 1 11.85 1.1 15.68 15.68 0 0 1 6.96 5.7 23.5 23.5 0 0 1 3.65 8.84c.7 3.48.82 6.98.5 10.5a46.2 46.2 0 0 1-4.34 16.02 39.83 39.83 0 0 1-5.78 8.96 28 28 0 0 1-12.53 8.36c-2.67.88-5.41 1.12-8.2.88-5.49-.48-10.19-2.75-14.3-6.35a27.52 27.52 0 0 1-5.72-7.03l-.59-.97a4.1 4.1 0 0 1-.1.04h.01Zm28.8-45.05a12 12 0 0 0-5.02.95c-.28.12-.57.2-.85.32a33.3 33.3 0 0 0-11.04 6.7 68.07 68.07 0 0 0-7.07 7.82 19.22 19.22 0 0 0-3.07 5.56 46.7 46.7 0 0 0-2.3 10.85c-.1.87-.04 1.7.25 2.54.45 1.32.82 2.66 1.27 3.97a81.06 81.06 0 0 0 5.15 12.07c.13.23.28.47.48.64a25.09 25.09 0 0 0 4.86 3.24 18.4 18.4 0 0 0 8.86 2.09c2.7-.07 5.24-.77 7.67-1.9a29.53 29.53 0 0 0 7.58-5.24c4.2-3.9 7.56-8.45 10.24-13.5a38.96 38.96 0 0 0 4.52-14.11c.22-2 .23-4-.12-5.98-1.14-6.39-4.61-11.02-10.48-13.82-3.29-1.57-6.8-2.17-10.94-2.2Zm22.23 21.83-.06.13c-.26 2.63-.84 5.2-1.7 7.7a50.45 50.45 0 0 1-13.76 20.84 28.04 28.04 0 0 1-8.38 5.4 18.35 18.35 0 0 1-13.07.53 23.73 23.73 0 0 1-6.88-3.73c-.12-.1-.24-.18-.37-.26l-.09.1c.07.04.15.06.2.11 3.84 3.31 8.2 5.47 13.28 6.03 2.87.32 5.7.12 8.44-.77a26.97 26.97 0 0 0 12.7-8.66 42.15 42.15 0 0 0 8.07-15.76c.9-3.2 1.41-6.46 1.62-9.77.03-.61 0-1.23 0-1.89Zm-30.41-52.26-.08-.1c-.53.31-1.07.61-1.6.94a43.48 43.48 0 0 0-13.92 13.97 64.66 64.66 0 0 0-6.7 14.5c-2.1 6.4-3.2 13-3.37 19.73-.09 3.3.05 6.59.44 9.87.29 2.43.71 4.83 1.35 7.2l.14.42c.05-.1.05-.17.04-.25-.16-1.07-.36-2.14-.49-3.22-.29-2.54-.23-5.07.19-7.6.12-.7.32-1.38.26-2.12-.29-4.05-.1-8.1.38-12.12.32-2.7.8-5.37 1.4-8.02a63.23 63.23 0 0 1 3.48-11.05 48.52 48.52 0 0 1 9.47-14.5c2.6-2.72 5.5-5.1 8.54-7.32l.47-.33Zm1.08 31.49v-.06h-.14a35.4 35.4 0 0 0-9.18 3.67 33.18 33.18 0 0 0-10.75 10.22 29.74 29.74 0 0 0-3.56 6.93 6.72 6.72 0 0 0-.38 3.24c.29 2 .6 3.98 1.05 5.94.02.08.06.15.13.32l.07-.34c.3-2.68.86-5.3 1.58-7.89.9-3.24 2.43-6.13 4.6-8.7a119.1 119.1 0 0 1 4.86-5.43 33.86 33.86 0 0 1 11.07-7.6l.65-.3Zm-22.34 34.79-.09.01c0 .08-.02.16-.01.24.06 1.69.12 3.38.2 5.07.02.43.02.9.2 1.27a22 22 0 0 0 1.52 3.03 23.7 23.7 0 0 0 3.36 4.06c.06.06.15.12.23.18-2.17-4.5-3.9-9.13-5.4-13.86Zm49.5-25.9.1-.05a18.94 18.94 0 0 0-4.21-6.27 15.65 15.65 0 0 0-6.55-3.65 18 18 0 0 0-7.49-.6c.1.04.19.05.28.05 2.38.14 4.7.57 6.94 1.36a19.1 19.1 0 0 1 10.79 8.92l.14.24Zm-50.17 29.83.02-.13c0-1.86 0-3.73-.02-5.6 0-.33-.04-.67-.1-1l-1.1-5.1c-.12-.6-.2-1.2-.3-1.8l-.1.01c-.54 4.66.06 9.2 1.6 13.62Z" fill="#fff" stroke="#fff" stroke-width="3" stroke-miterlimit="10" stroke-linejoin="round"/></svg>