<svg viewBox="0 0 1401 313" fill="none" xmlns="http://www.w3.org/2000/svg"><path d="M1400.57 45.03c-1.16.39-2.5.6-3.5 1.17-40.48 23.57-70.21 55.11-92.21 92.08-13.15 22.1-25.09 44.73-37.58 67.13-8.17 14.68-16.09 29.48-27.97 42.36-6.06 6.59-13.15 12.23-22.96 14.4-12.19 2.67-22.57-1.13-31.71-7.68-17.39-12.5-22.36-29.1-20.9-47.67 2.2-28.28 15.45-53.91 26.5-80.06 7.01-16.55 13.92-33.18 19.89-50.01 4.97-14.05 5.7-28.52 1.47-42.96-2.99-10.25-7.86-12.15-18.74-7.18-13.79 6.3-23.66 16.08-32.38 26.85-12.54 15.56-20.65 32.94-27.65 50.66-9.48 23.89-18.22 47.95-27.51 71.87-7.7 19.82-21.17 36.34-41.03 48.5a92.32 92.32 0 0 1-56.93 13.5c-19.98-1.7-37.25-9-53.55-18.81-26.28-15.8-47.7-35.78-68.68-56.23-17-16.57-32.32-34.11-44.14-53.7-5.2-8.67-9.5-17.72-13.98-26.7-6.12-12.36-16.11-22.17-27.5-31.1-3.05-2.39-6.46-4.44-9.66-6.7-18.64-13.2-38.84-15.02-60.98-6.93-21.57 7.89-39.7 19.67-56.26 33.62-26.41 22.22-48.46 47.46-69.82 73.2-17.18 20.68-34.26 41.39-51.78 61.84-10.32 12.05-22.6 22.61-36.37 31.88-16.42 11.03-34.54 12.87-54.61 9-19.4-3.78-30.46-13.72-35.82-29.59a186.54 186.54 0 0 0-10.12-23.8c-3.01-6.01-8.74-10.02-16.87-9.42a73.53 73.53 0 0 0-16 3.14c-15.77 4.8-29.23 13.12-42.6 21.42a1449.82 1449.82 0 0 0-95.62 65.07c-17.24 12.73-35.18 24.67-55.95 33.13-18.43 7.49-35.55 6.16-51.39-4.69-9.78-6.68-13.07-16.18-13.37-26.38-.49-16.81 5.33-32.47 12.58-47.85 10.35-21.93 25.67-41.11 44.32-58.44 57.96-53.96 129.82-87.74 212.12-106.26 27.54-6.2 55.1-12.44 81.3-22.12 7.86-2.92 15.41-6.9 22.14-11.45 8.26-5.57 7.59-11.47-.82-16.78-13.62-8.61-29.4-11.45-45.78-10.49-19.77 1.17-39.5 3.25-59.19 5.44-14.59 1.61-29.2 3.4-43.52 6.2-22.85 4.42-41.43 15.42-57.85 29.42-18 15.33-32.86 32.81-48.06 50.06-16.88 19.18-35.34 36.92-59.43 49.83-18.49 9.91-38.74 16.29-59.58 21.26-42.3 10.12-75.3 31.77-102.83 60.1-5.06 5.18-8.4 11.58-12.43 17.46-.58.86-.46 2.08-.97 3-.5.85-1.37 1.5-2.1 2.26-.58-1.02-1.77-2.16-1.56-3.05.4-1.8 1.28-3.67 2.47-5.2 6.21-8.04 11.63-16.73 19.13-23.8 19.1-18.07 40.84-33.68 66.95-43.88 13.95-5.44 28.87-9.03 43.46-13.21 21.97-6.28 42.83-14.26 60.99-26.86 16.56-11.47 30.24-25.21 43-39.68 16.15-18.29 31.96-36.76 51.27-52.84 21.1-17.57 46.08-27.9 75.27-31.1 17.36-1.9 34.63-4.47 51.99-6.08 14.1-1.3 28.36-2.32 42.55-2.16 14.38.15 28.03 3.74 39.5 11.7 8.57 5.94 9.03 12.96 1.29 19.68-8.01 6.97-18.19 10.92-28.6 14.46-26.08 8.93-53.16 15.04-80.17 21.29-36.5 8.43-71.98 19.25-104.73 35.56-34.57 17.2-67.31 36.54-95.1 61.54-27.28 24.54-49.06 51.78-59.63 84.8-3.23 10.12-5.58 20.35-4.05 30.99 2.34 16.5 13.55 24.2 30.15 28.15 9.63 2.3 18.8.34 27.7-3.1 17.38-6.73 32.8-16.05 47.23-26.53 36.65-26.6 73.53-52.96 112.98-76.56 12.88-7.7 25.95-15.22 41.43-18.73a67.2 67.2 0 0 1 10.93-1.77c8.71-.5 15.63 2.81 19.34 9.34 4.02 7.03 7.04 14.5 10.05 21.88 2.96 7.24 5.27 14.7 11.28 20.64 2.31 2.29 4.93 4.76 8.04 5.96 16.14 6.27 32.68 9.73 50.4 4.6 9.18-2.65 16.46-7.54 23.61-12.77 17.61-12.86 31.13-28.65 44.48-44.65 21.2-25.45 42.43-50.92 64.14-76.06a344.43 344.43 0 0 1 58.88-54.14c15.05-10.88 31.9-19.31 50.96-24.28 15.75-4.11 30.61-2.7 44.47 4.63 18.37 9.7 33.85 22.1 44.35 38.35 4.36 6.74 7.07 14.24 10.82 21.29 11.9 22.38 27.62 42.67 46.75 60.96 13.8 13.22 27.54 26.57 42.4 38.88 16.57 13.73 34.73 26.1 56.41 33.61 31.53 10.93 63.48 5.23 88.34-14.07 18.64-14.5 28.27-33.2 35.76-53.24a2134.57 2134.57 0 0 1 30.76-78.11 130.83 130.83 0 0 1 32.23-46.13c7.01-6.46 14.71-12.15 24.31-15.64 9.87-3.6 16.02-1.4 19.43 7.15 4.14 10.46 4.57 21.29 3.11 32.14-3.14 23.62-14.65 45.12-23.79 67.23-7.53 18.24-15.29 36.46-21.51 55.03-3.19 9.6-4.38 19.96-4.47 30-.16 16.5 6.94 30.66 23.45 40.39 13.98 8.22 27.51 7.13 39.75-2.87 10.87-8.9 18.03-19.95 24.43-31.32 11.88-21.08 23.03-42.47 34.91-63.52 13.19-23.36 27.87-46.05 46.84-66.45 16.45-17.7 35.58-32.97 57.33-45.82 1.4-.83 3.14-1.25 4.72-1.87l1.98 2.34-.03.05Z" fill="#000"/></svg>