<svg viewBox="0 0 187 76" fill="none" xmlns="http://www.w3.org/2000/svg"><path d="M100.97 1.52c14.3 0 29.8-1.62 43.74 2.38 6.08 1.75 17.19 6.35 19.16 13.16 4.02 13.9-16.71 20.25-26.15 22.8-17.28 4.68-34.89 7.17-52.46 10.3-13.6 2.44-27.07 4.67-40.9 5.18-7.37.27-14.76.37-22.14.76-5.15.27-10.3.42-15.34-.93-2.7-.72-5.3-1.85-5.87-4.87-1.42-7.53 11.03-9.99 15.91-11.4 21.37-6.2 45.97-7.32 68.14-6 14.42.86 27.98 3.55 41.5 8.62 11.85 4.44 22.26 11.7 33.4 17.6 7.13 3.77 14.34 7.73 21.08 12.2.81.53 5.52 5.2 5.2 2.31-.35-3.11-4.78-6.94-6.83-9.15-1.08-1.16-2.66-2.32-3.15-3.9-.49-1.6-.3-1.35.14.26.45 1.68 5.47 13.94 3.94 14.02-6.35.31-12.77.03-19.12.03" stroke="#000" stroke-width="1.5" stroke-linecap="round"/></svg>