<svg viewBox="0 0 496 153" fill="none" xmlns="http://www.w3.org/2000/svg"><path d="M2.05 108.74c33.74 0 67.22.1 100.68-4.84 37.48-5.53 75-13.6 110.17-27.97a507.34 507.34 0 0 0 41.07-18.94c9.3-4.8 21.37-10.4 26.37-20.3 7.99-15.8-17.3-25.23-27.68-29-8.73-3.17-18.43-5.97-27.82-5.74-11.77.3-23.51 6.3-33.28 12.36-15.24 9.46-29.7 29.47-23.13 48.65 7.78 22.67 41.32 31.24 62.47 29.05 17-1.77 33.9-7.64 50.29-12.18 20.56-5.68 41.02-11.86 62-15.93 31.7-6.15 66.7-9.57 98.7-3.76 19.36 3.51 45.34 14.12 50.33 35.77 3.17 13.75-7.7 28.8-16.5 38.2-1.28 1.38-15.1 16.48-16.45 11.71-2.56-9.1-3.49-19.14-4.42-28.53 0-.06-.8-4.63.24-1.69a607.24 607.24 0 0 1 8.46 25.52c.65 2.15 1.11 6.99 2.3 9.17 1.14 2.07 8.62-2.26 9.4-2.73 7.41-4.46 11.75-12.58 19.18-16.83" stroke="#050505" stroke-width="3" stroke-linecap="round"/></svg>