<svg viewBox="0 0 257 289" fill="none" xmlns="http://www.w3.org/2000/svg"><path d="M160.8 278.68c-3.26-3.1-6.5-6.2-9.5-9.53-11.35-12.57-22.3-25.51-34.71-37.1-.53-.5-1.07-1.11-1.73-1.35-5.06-1.83-9.03-5.29-13.18-8.75.38-.74.83-1.41 1.1-2.15.2-.53.22-1.13.24-1.7.06-1.62-.4-3.45.2-4.83 5.05-11.7 10.23-23.34 15.49-34.94 3.28-7.24 6.49-14.54 10.24-21.54 2.9-5.42 5.93-10.73 7.6-16.7.09-.28.32-.53.6-.96 1.1 1.07 3.06.84 2.7 3.26a94.07 94.07 0 0 0-.84 10.99c-.03 1.56-.03 2.8-1.44 3.85-1.72 1.3-3.25 2.86-4.82 4.32-.35.32-.59.76-.88 1.13l.38.48c.57-.3 1.22-.5 1.7-.91 1.79-1.54 3.44-3.26 5.3-4.7 1.2-.93 1.42-1.91 1.26-3.3a39.1 39.1 0 0 1-.33-6.44c.12-2.38.12-4.89 2.53-6.83-.8-.54-1.43-.97-2.06-1.37-2.61-1.65-5.68-2.96-6.4-6.35a44.4 44.4 0 0 1-1.02-8.59c-.05-3.45 1.58-6.37 4.05-8.72 1.68-1.6 3.34-1.22 4.4.83.32.6.58 1.21.88 1.82 2.11 4.27 4.69 7.94 9.57 9.6a6.29 6.29 0 0 1 3.51 3.53c1 3.19 1.31 6.59 1.87 9.9.98 5.78 1.55 11.65 3 17.3 1.22 4.67 1 8.84-1.88 12.63-4.05 5.32-6.94 11.21-9.3 17.41-.17.44-.33.96-.66 1.22-1.9 1.5-3.85 2.92-5.78 4.37l-1.57 1.22.42.7 4.4-2.11c.08.1.15.2.22.32l-9.01 6.15.44.77 4.93-2.45.26.52-9.86 5.16.23.54c.75-.12 1.6-.06 2.22-.4 3.06-1.68 6.23-3.24 9.04-5.27 3.63-2.62 3.59-2.87 6.62.67 11.38 13.3 24.64 24.54 38.25 35.46a957.2 957.2 0 0 1 23.74 19.8l1.47-.54a3794.65 3794.65 0 0 0-33.57-27.76 268.23 268.23 0 0 1-29.72-28.63c-1.9-2.13-2.39-4.11-1.63-6.57a69.83 69.83 0 0 1 9.05-18.68c1.67-2.45 2.71-5.35 3.84-8.13.34-.84.17-1.99-.01-2.95-1.04-5.48-2.25-10.94-3.2-16.44-.61-3.58-.65-7.26-1.36-10.8-.69-3.4-1.4-7.12-5.45-8.31-3.97-1.17-6.32-3.95-8.1-7.42-.67-1.32-1.2-2.72-2.01-3.96-.46-.7-1.34-1.58-2.02-1.58-1.64.02-3.27.51-4.83.8-1.14-1.1-2.5-2.33-3.77-3.65-.38-.4-.7-1.05-.7-1.58.06-3.16-.3-6.15-2-8.95-.8-1.34.02-2.57 1.4-2.44 6.17.57 12.27.28 18.23-1.56.1-.03.24.1.78.32-.47.77-.78 1.67-1.4 2.2-1.12.94-2.43 1.68-3.68 2.47-2.78 1.77-4.36 4.2-4.15 7.57.05.71.56 1.4.85 2.1.51-.54 1.23-1 1.49-1.63a11.28 11.28 0 0 1 7.3-6.81 79.38 79.38 0 0 1 8-2.1c8.2-1.7 16.37-3.58 23.98-7.18 11.19-5.3 20.27-13.25 28.1-22.72 3.28-3.96 6.5-7.96 8.2-12.9a19.38 19.38 0 0 0-1.12-15.85c-1.53-2.9-3.56-2.82-5.45-.2-.26.36-.57.68-.55.65-2.28-1.03-4.24-2.33-6.38-2.79-3.28-.7-4.6.92-4.08 4.2.32 1.97.59 3.86-1.6 5.32-1.7 1.15-1.7 2.8-.34 4.36 1 1.16.98 2.13.03 3.2-1.24 1.4-1.6 2.87-.77 4.66.27.6.37 1.66.02 2.08-1.23 1.51-2.68 2.85-4.07 4.23-.19.17-.55.15-.89.23.56-6.67-.03-9.1-6.97-10.25.75-2.03 1.3-4.13 2.28-6 1-1.94 1.36-3.11-1.5-2.86-.16.01-.34-.2-.51-.3-4.14-2.1-8.1-4.73-12.45-6.21-20.4-6.95-41.06-13.09-62.2-17.33-10.72-2.15-21.58-3.53-32.4-5.12-2.74-.4-3.17.08-3.54 2.83-.35 2.64-.54 5.3-.82 8.13-2.38-.96-4.9-1.84-6.85-.21-1.76 1.46-2.88 3.7-4.46 5.86l-.5-2.16c-.23-.9-.23-1.95-.74-2.64-.93-1.29-.73-2.3.37-3.15 1.53-1.2 1.94-2.67 1.5-4.48-.35-1.4.07-2.35 1.52-2.82 1.95-.65 2.56-2.3 1.72-3.88-1.33-2.52-.09-4.2 1.27-5.98 1.53-1.98 1.26-4.02-1.08-4.87-1.75-.64-3.77-.6-5.68-.75-.63-.05-1.28.24-2 .39-.13-.54-.25-.92-.31-1.3-.54-3.21-2.12-4-4.94-2.41a7.3 7.3 0 0 0-1.63 1.18c-4.25 4.26-7.06 9.23-6.88 15.42.34 11.5 3.56 22.33 8.33 32.71 4.9 10.65 12.06 19.61 20.96 27.2 1.69 1.43 3.36 3 5.28 4.03 5.2 2.79 9.67 8.56 8.8 13.78-.11.65.39 1.4.6 2.1.58-.48 1.34-.86 1.71-1.47 1.75-2.9 1.35-5.79-.27-8.63-.78-1.34-1.56-2.68-2.2-4.09-.67-1.45-.03-2.76 1.17-3.5.38-.23 1.59.54 2.21 1.08 3.92 3.44 8.5 5.71 13.23 7.73.62.26 1.63.86 1.58 1.17a4.8 4.8 0 0 1-1.18 2.17 114.84 114.84 0 0 1-4.3 4.72c-.48.5-1.06 1.18-1.64 1.22-4.16.34-8.35.37-12.49.83-1.9.22-4.38.65-5.46 1.94-2.63 3.12-3.23 7.14-1.19 10.79 1.42 2.51 1.55 5 1.86 7.68.55 4.8-.95 8.29-5.21 10.74-3.94 2.27-6.07 5.98-7.46 10.23-.8 2.47-.73 4.7.46 7.03.31.6.25 1.75-.13 2.3-2.2 3.22-3.13 6.5-1.48 10.28.5 1.15.56 2.48.83 3.74l1.54 7.3c-1.77 1.03-2.58 3.02-2.46 5.16.13 2.38.5 4.82 1.25 7.07.9 2.7.99 5.79 3.22 7.95 1.55 1.5 3.15 2.94 4.69 4.45.55.54 1.4 1.21 1.4 1.82 0 3.1-.15 6.19-.4 9.27-.06.63-.8 1.18-1.16 1.8-.4.68-1.06 1.44-1 2.11.15 1.8.1 3.2-2.07 3.66-.52.1-.95.72-1.37 1.15-1.27 1.3-2.57 2.57-3.75 3.94-3.25 3.74-7.26 6.88-9.17 11.7-1.21 3.06-2.22 6.12-5.45 8.09-2.26 1.38-1.72 3.44.31 5.3 6.03 5.56 13.5 8.31 21.01 11.02 6.54 2.34 13.24 3.88 20.19 3.9 3.47 0 6.96-.63 10.43-.96 1.38-.13 2.13-.98 2.1-2.27-.03-1.1-.3-2.24-.64-3.3-.58-1.87-1.68-3.6-.97-5.72.23-.68.1-1.47.15-2.21.43-5.77-1.77-10.97-3.48-16.28-.39-1.2-.69-2.42-1.03-3.63 2.72 1.35 4.92 2.89 7.23 4.3 1.36.82 3.16 1.13 4.25 2.2a579.55 579.55 0 0 1 17.2 17.43c9 9.6 17.4 19.77 26.63 29.15l1.84-.5Zm-54.37-80.01c-2.02 5.11-4.08 10.2-6.05 15.34-.48 1.27-1.2 1.18-2.7.61l8.61-17.98.72.3c-.19.58-.36 1.16-.58 1.73Zm-26.04 13.34c.41-1.28 1.67-1.07 2.83-.3 1.04.7 2.32 1.05 3.45 1.64.91.48 1.75 1.1 2.58 1.63 1 .07 1.91 0 2.76.2 2.17.53 4.17 1.74 6.6 1.33.6-.1 1.4.92 2.1 1.43-.71.96-1.46 2.76-2.13 2.73-6.3-.25-12.49-1.16-17.88-4.83-1.58-1.09-.68-2.72-.32-3.83Zm1.52-12.65c1.22 1.3 1.05 3.15-.61 7.74l.61-7.74Zm3.18 8.98c-.1.67 0 1.37.35 2.17 2.43-2.5 2.82-6.11 4.76-8.82l.48.17-2.12 10.8c-1.63-.75-3.23-1.4-4.73-2.23-.42-.23-.8-1.01-.75-1.5.29-2.64.72-5.28 1.1-7.92 1.8-.07 2.2.62 1.9 1.98a97.32 97.32 0 0 0-.99 5.34v.01Zm7.33-6.65c.13-.55 1.3-.86 2.15-1.37-.86 4.38-1.62 8.32-2.44 12.25-.07.33-.55.58-.85.87-.3-.37-.92-.78-.87-1.1.58-3.56 1.2-7.13 2.01-10.65Zm3.55 12.13c.28-.44.66-.85.8-1.33 1.38-4.5 2.79-9 4.06-13.55.53-1.92 1.54-2.31 3.55-1.46-.85 1.77-1.7 3.49-2.51 5.22-1.74 3.73-3.42 7.47-5.23 11.16-.22.45-1.1.8-1.67.79-1.09-.03-1.74-.7-1.46-1.9.99-4.2 1.9-8.42 3.03-12.57.3-1.1 1.27-2.04 2-2.99.2-.23.69-.23 1.46-.46l-5.04 16.67 1.01.42Zm32.75-91.49c-14.02-.11-26.93-4.35-39.32-10.52-.4-.2-.74-.52-1.25-.89l4.34-3.8c12.54 7.46 25.57 13.26 40.8 10.67-.4 4.04-1.1 4.58-4.57 4.55Zm2.42 2.3-10.5-.83.03-.45 10.55.44-.07.85Zm-12.7-1.7-.11.52c-4.64-.15-9-1.46-12.61-3.02l12.72 2.5Zm-16.26-3.85-.13.32-7.7-3.1.23-.54 7.6 3.32Zm-6.57-11.61.42-.79 6.27 3.35-.37.69-6.32-3.25Zm32.2-1.92 1.52-.84c1.14 3.15.75 3.92-2.48 4.15-4.67.33-9.03-1.16-13.45-2.42.2-1.4.34-2.66.6-3.89.1-.44.5-.82.76-1.23.34.49.92.95.97 1.46.1 1.15-.07 2.32-.13 3.48l.75.18c.25-.91.45-1.84.76-2.73.2-.54.57-1.02.87-1.52.36.5.94.97 1.02 1.51.16 1.1.03 2.23.02 3.35l.95.17.62-4.33c1.04-.38 1.61-.03 1.61 1.27 0 .88.07 1.77.1 2.65l.62.06.76-3.85c2.56.21.86 2.62 2.54 3.73l.53-4.2.51-.05.55 3.05Zm-14.55-6.2 1.32-4.05h.75c-1.36 2.25-.47 3.59 1.73 4.6l.98-1.85.44 2 .58.05 1.18-3.51.34.06.37 3.42.65.01 1.04-3.22.52.1.44 3.3.68.01.82-2.79c.8.8 1.48 1.38 2.05 2.04.8.93.32 1.6-.68 1.64-2.15.1-4.33.21-6.43-.1-2.28-.31-4.49-1.1-6.79-1.71h.01Zm-.79 6.55c-2.3-.45-2.47-3.02-.42-5.77 1.25 1.93.04 3.84.42 5.77Zm92.81-63.79c2.34 3.26 2.25 6.83 2.47 10.32-2.91-2.9-4.14-7.7-2.47-10.32Zm-12.12 28.32c1.91-1.9 3.95-3.7 5.66-5.76.63-.77.83-2.28.59-3.3-.36-1.49-.48-2.7.57-3.94 1.33-1.56 1.33-3.18-.11-4.7-1.01-1.07-.71-2.24.34-2.72 3.12-1.44 1.92-3.97 1.83-6.23-.02-.52-.43-1.18-.23-1.55.3-.56.98-.92 1.7-1.2-1.4 3.72-.1 6.9 1.35 10.04l3.65 7.8 1.07-.24c-.16-2.94-.19-5.66-.5-8.35-.32-2.71-.92-5.39-1.45-8.37.68.68 1.4 1.28 1.95 2 1.03 1.31 1.82 1.14 2.62-.2.5-.84 1.09-1.61 1.6-2.35.83 1.2 1.6 2.13 2.19 3.16 1.58 2.74 1.67 5.8 1.25 8.78a17.44 17.44 0 0 1-4.87 9.79c-1.49 1.54-2.6 3.44-4.05 5.02-4 4.36-8.03 8.7-12.2 12.9a65.64 65.64 0 0 1-6.92 5.9c-1.36 1.04-3.02 1.7-4.55 2.54-1.24.69-2.37 1.3-3.42 2.5-1.2 1.37-3.47 1.97-5.4 2.5a491.45 491.45 0 0 1-19.94 5.2c-7 1.64-7.85 1.94-13.5 6.87l-.46-.35c.9-1.03 1.68-2.17 2.7-3.03 1.18-1 2.59-1.7 3.87-2.58 1.32-.91 2.24-2.05 2.35-3.8.04-.55.73-1.38 1.27-1.52 2.27-.57 4.61-1.4 6.88-1.27 4.76.29 9.04-1.2 12.9-3.43 7.8-4.5 15.2-9.6 19.3-18.13.39-.79 1.3-1.32 1.96-1.98Zm-5.59-11.1c1.85.33 3.8.89 4.06 3.03.23 1.95.24 4.09-.31 5.95a23.8 23.8 0 0 1-6.28 10.68c-6.25 5.95-12.9 11.28-21.57 13.3-1.63.37-3.39.26-5.09.36l-.1-.47c2.43-1.65 4.92-3.21 7.27-4.96 7.17-5.3 11.82-12.6 15.83-20.38.93-1.79 1.86-3.58 2.71-5.41.71-1.51 1.75-2.42 3.48-2.1Zm-103.34-37.71c13.2 2.44 26.56 4.27 39.57 7.51 16.55 4.12 32.85 9.3 49.2 14.2 3.12.93 6 2.66 9 4.01l-.23.76c-33.8-6.44-67.07-14.88-99.58-26.6.69.03 1.38 0 2.05.11Zm-10.8 11.3c1.34.11 1.84 1.26 1.8 2.69-.15 6.95.22 13.85 1.86 20.64 1.62 6.73 5.05 12.58 8.98 18.17.41.6.97 1.08 1.47 1.62l-.65.48c-3.5-2.7-7.23-5.08-9.55-9.08-2.49-4.3-5.07-8.56-7.82-12.7-3.11-4.69-2.96-9.68-1.66-14.74.54-2.1 1.56-4.13 2.72-5.97.46-.72 1.91-1.2 2.85-1.12Zm2.32 34.4-.73.47-4.51-7.1.33-.25 4.91 6.87Zm-4.7-35.88c-3.7 3.1-4.44 7.36-5.38 11.78-1.7-4.86 1.45-12.05 5.37-11.78Zm-22.47-4.73c-1.68-4.39-1.14-12.4 1.2-16 .25 5.53.89 10.91-1.2 16Zm7.37 24.9-4.5-11.37.95-.37 4.43 11.4-.88.35Zm34.67 38.12c.57 1.28.9 2.66 1.35 4l-.76.2c-1.79-8.47-9.46-11.87-14.8-17.27-3.94-3.96-8.19-7.63-11.88-11.8-3.42-3.85-5.43-8.5-6.63-13.65-1-4.26-2.78-8.44-4.84-12.33-2.82-5.31-3.18-10.67-2.08-16.41.45-2.34.5-4.83.26-7.2-.43-4.29 1.5-7.4 4.4-10.14.87-.82 2.59-.2 2.75 1.05.27 2.17 1.3 1.9 2.8 1.24 2.08-.94 4.2-.94 6.16.39 1.13.76 1.47 1.62.44 2.84a12.6 12.6 0 0 0-2.02 3.23c-.3.72-.35 1.8-.03 2.48 1.06 2.23 1.02 2.69-1.05 3.8-1.4.77-2.14 1.9-1.79 3.5a4.02 4.02 0 0 1-1.44 4.28c-1.24 1.09-1.24 2.38-.47 4 .88 1.88 1.3 4.01 1.74 6.07.5 2.27.83 4.58 1.17 6.88a48.9 48.9 0 0 0 12.1 25.75c2.37 2.67 5.44 4.12 8.28 6 1.18.77 2.27 1.69 3.4 2.53 1 .74 1.2 1.52.7 2.78a5.07 5.07 0 0 0-.03 3.27c.55 1.57 1.6 2.96 2.28 4.5h-.01Zm-4.42-17.44c-4.28-6.49-7.9-13.27-8.75-21.09-.6-5.6-.7-11.28-.85-16.92-.08-3.22.1-6.46.3-9.68.17-2.5.59-2.69 2.9-1.93 22.58 7.43 45.25 14.6 68.5 19.69 12.53 2.73 25.13 5.16 37.7 7.73.31.06.62.2 1.35.43-.67 1.76-1.15 3.37-1.88 4.87-4.06 8.35-7.74 16.93-13.77 24.16-5.13 6.14-11.66 10.38-18.84 13.67-6.57 3-13.47 4.5-20.7 3.54-4.62-.62-9.29-1.19-13.75-2.44-2.95-.84-5.57-2.85-8.33-4.33-.41-.22-.8-.5-1.23-.64a40.93 40.93 0 0 1-22.65-17.06Zm23.31 19.54.38.04-.55 4.51.72.18 1.48-3.58c.84 1.93-1.87 4.06 1.41 5.15l-.9.62-5.47-3.27 2.93-3.66v.01Zm-.38 12.81c-1.79-.06-2.52-.7-1.92-2.37.3-.81.45-1.7.88-2.43.23-.4.9-.53 1.38-.78.16.5.5 1.02.44 1.5-.16 1.3-.48 2.6-.78 4.08Zm-3.6-8.23-2.04 5.66c-1.65-.84-.71-3.84 2.03-5.66Zm-3.45 6.73a64.47 64.47 0 0 0 20.18 6.86c1.05.18 2.27.58 3.19.25 3.57-1.3 5.23 1.32 7.48 3.44-3.1 1.38-6.08 2.2-9.32 1.98-5.57-.39-10.93-1.46-15.87-4.22-4.03-2.24-8.13-4.34-12.2-6.5a4.88 4.88 0 0 1 6.54-1.81Zm-17.02 6.78c-.78-.06-1.64 1.13-2.6 1.85-1.25-2.64-.72-5.41.56-8.16 1.07-2.28 3.2-2.12 5.2-2.26 3.55-.24 7.1-.48 10.65-.7.36-.02.73.08 1.09.12-2.69.32-4.3 2.23-6.32 3.63-1.44 1-2.54 2.2-3.81 3.28-1.35 1.14-2.64 2.4-4.77 2.24Zm.32 2.85c14.16 8.78 29.48 13.24 46.16 13.07.34 2.07.54 3.94.96 5.76.34 1.5.62 3.18 1.5 4.33 1.27 1.62 1.1 2.84.29 4.53-2.82 5.9-5.26 11.99-8.23 17.8-4.12 8.04-8.68 15.85-12.85 23.86-1.64 3.15-2.78 6.57-4.11 9.89-1.2 2.97-2.44 3.82-5.66 3.68-1.13-.05-2.25-.26-3.38-.4l.3-.4-5.6-8.47c4.69-3.24 5.65-10.36 2.3-15.11-2.91-4.14-5.77-8.4-11.13-9.79-1.67-.43-1.85-1.76-1.93-3.16-.07-1.45 1.15-1.23 1.97-1.51 1.46-.5 2.42-1.4 2.63-3.01.22-1.74.64-3.46.76-5.2.31-4.58-.96-8.6-4.47-11.78a2.5 2.5 0 0 1-.65-1.76c.33-7.33.73-14.64 1.14-22.33Zm-13.63 32.63c-1.16-4.52 4.31-12.36 11.3-15.97-.46 1.76-.63 3.17-1.2 4.38-.73 1.47-.66 2.97.83 3.59 4.41 1.81 4.85 5.86 5.33 9.66.26 2.13-.38 4.4-.85 6.57a2.75 2.75 0 0 1-1.61 1.72c-4.94 1.5-10.92-1.45-12.28-6.38-.45-1.64.56-3.69 1-5.53.04-.15.96-.28 1.33-.11a6.22 6.22 0 0 1 3.27 7.76c-.22.58-.92.98-1.75 1.82.6.31 1.15.84 1.63.79.45-.06 1.08-.68 1.17-1.15.37-1.78.7-3.58.77-5.39.07-1.7-4.37-5.86-6-5.62-.65.09-1.32.8-1.77 1.38-.49.67-.74 1.52-1.18 2.48Zm-1.62 12.45c-.43-2.23.6-4.75 2.7-6.75 2.3 3.43 5.1 5.91 9.3 6.05.22 4.12.79 4.45 4.6 6.19 5.9 2.7 9.82 7.4 10.76 13.84.31 2.12-1.1 4.6-2.1 6.73-.32.7-1.83 1.22-2.76 1.17-2.59-.15-4.96-.93-6.91-2.9-1.46-1.46-3.36-2.48-4.87-3.91-2.68-2.54-5.22-5.24-7.78-7.9-.3-.3-.5-.8-.6-1.25-.8-3.75-1.63-7.5-2.34-11.27Zm7.64 36.52c-3.83-2.8-4.94-7.1-6.16-11.3-.63-2.15-.84-4.42-1.16-6.23.53-1.2.74-1.93 1.13-2.54 1-1.55 1.54-1.42 2.92-.18 4 3.6 8.08 7.1 12.2 10.55a7 7 0 0 0 2.94 1.28c4.3.93 6.39 4.21 8.3 7.66.27.5.08 1.46-.24 2.03-1.56 2.86-4.2 3.85-7.3 4.35-3.39.56-6.02-.66-8.53-2.67-1.31-1.05-2.74-1.96-4.1-2.95Zm-4.52 25.21.38.38-4.25 4.27-.47-.46 4.34-4.2v.01Zm-6.88 7.11-4.88 9.5-.53-.23c1.28-3.22 2.46-6.48 5.4-9.27Zm40.1 30.01c.27 1.47-.24 1.93-1.59 2.1-5.88.72-11.71.3-17.61-.7a98.69 98.69 0 0 1-22.74-8.15c-2.73-1.4-5.16-3.44-7.56-5.39-.64-.52-1.01-1.86-.88-2.73.14-.96 1.34-.9 2.21-1.22 2.72-1.02 4.1.9 5.92 1.88 7.5 4.02 14.95 8.29 23.64 9.08 4.2.4 8.47.18 12.7.2 4.22.02 5.14.83 5.9 4.93h.01Zm-34-11.56 23.09 5.42c-8.25.28-16.01-1.38-23.08-5.42Zm34.09-5.45.25 7.56-.48.04-.72-7.52.95-.08Zm-1.84 6.2c0 2.49-.05 2.88-2.52 2.92-10.76.16-21.04-2.12-30.93-6.27-2.6-1.1-5.13-2.39-7.7-3.58-1.03-.49-1.2-1.02-.74-2.21a34.58 34.58 0 0 1 9.7-13.73c1.8-1.6 3.26-3.58 4.8-5.44.92-1.1 1.62-1.43 3-.48 5.73 3.96 12.36 4.63 19.3 5.13.8 2.96 1.58 6.02 2.45 9.05 1.38 4.78 2.64 9.55 2.63 14.6Z" fill="#000"/><path d="M140.2 239.2c-.54-.48-1.1-.95-1.63-1.46-4.8-4.62-9.58-9.28-14.43-13.85-.75-.7-1.87-1.02-2.78-1.57-.29-.18-.45-.56-.68-.84.37-.19.83-.6 1.1-.51.82.3 1.69.65 2.3 1.22 5.26 4.93 10.48 9.9 15.67 14.88.45.44.65 1.14.97 1.72l-.52.41Zm1.96-10.12c-3.97.8-18.24-10.14-19.66-15.06.66.48 1.41.86 1.95 1.45a59.07 59.07 0 0 0 13.8 11.44c1.29.75 2.61 1.45 3.91 2.17Zm-3.7-75.95c-1.19-.03-2.02-.08-2.86-.07-.8.01-1.61.09-2.7.15 1.5-1.92 4.12-1.96 5.56-.08Zm41.08-92.69c-2.73-6.17-8.05-5.18-12.52-5.33-4.6-.16-9.23.86-13.87 1.19-8.42.59-15.63-2.7-22.06-7.66a67.46 67.46 0 0 0-16.18-9.45c-4.65-1.87-9.41-2.1-14.31-1.33-2.86.45-5.74.8-8.62.94-5.31.27-9.66-2.03-13.51-5.47-.22-.2-.33-.5-.22-1.21.64.3 1.41.44 1.91.9 5.34 4.85 11.78 5.4 18.27 3.88 9-2.1 16.97.18 24.58 4.6 3.02 1.76 5.8 3.92 8.65 5.97 7.59 5.47 15.7 8.72 25.35 7.16 6.17-1 12.44-1.67 18.67.07 2.67.75 4 2.02 4.14 4.28.02.3-.11.61-.28 1.46Zm22.76 8.67c.07-4.15.1-8.04.24-11.94a3 3 0 0 1 .73-1.62c.75-.9 1.77-.88 1.9.31.53 4.45.31 8.83-2.03 12.84-.08.14-.34.17-.84.41Zm-6.6 7.76c-.01-.43-.1-.86-.02-1.27.46-2.23.85-4.5 1.52-6.66.26-.85 1.2-1.49 1.84-2.22.32.9 1.03 1.89.89 2.7-.25 1.41-1 2.75-1.63 4.05-.6 1.22-1.34 2.37-2.03 3.55l-.58-.15Zm-140.55-54.29c-.1-.57-.36-1.14-.29-1.66.52-3.8 1.84-7.27 4.51-10.12.27-.29.58-.68.93-.74 1.11-.21 2.56-.78 3.3-.3 1.24.77.86 2.35.03 3.4-1.64 2.1-3.4 4.11-5.18 6.11-.94 1.06-2 2.01-3.3 3.32Zm7.88-11.87c-2.99.38-6.22 4.95-5.61 7.7 2.31-2.23 4.76-4.2 5.61-7.7Zm-8.47 22.01c.25-3.89.83-7.25 3.17-9.96.64-.74 1.85-.98 2.8-1.46.04 1.05.47 2.3.06 3.1-1.34 2.62-2.97 5.1-4.55 7.59-.2.32-.8.4-1.48.73Zm5-9.04-.64-.38-2.19 3.9.6.34 2.23-3.86Zm-1.41 20.62c-.38-.92-1.04-1.82-1.07-2.75-.06-1.78.14-3.58.45-5.33.1-.55.92-.98 1.41-1.46.35.57.97 1.13 1 1.71a22.2 22.2 0 0 1-.28 3.98c-.16 1.23-.46 2.44-.7 3.66l-.8.2Zm30.63 138.15c-.52-.1-1.18-.03-1.51-.33-1.88-1.7-3.82-3.37-5.46-5.29-1.08-1.25-.66-4.38.46-5.48 1.4-1.38 3.01-.94 4.5-.15 2.2 1.17 4.37 2.4 6.44 3.78.44.3.75 1.54.49 2-1 1.77-2.25 3.4-3.4 5.1l-.59-.2c0-.45-.13-.96.04-1.33.27-.6.72-1.12 1.15-1.63 1.95-2.36 1.92-2.63-.64-4.2-1.26-.78-2.51-1.63-3.87-2.17-.9-.36-2.8-.5-2.88-.28-.4 1.25-.97 2.97-.42 3.9.98 1.68 2.7 2.92 4.15 4.31.55.52 1.19.94 1.79 1.4l-.25.58Zm.17 4.62c2.48.85 4.64 2.97 6.7 5.18.23.26.1 1.18-.17 1.54-1.12 1.42-2.39 2.72-3.54 4.1-.74.89-1.38 1.1-2.35.28-2.15-1.8-4.57-3.35-5.51-6.23-1.1-3.36.87-5.62 4.87-4.87Zm1.39 10.4c1.4-1.59 2.39-2.59 3.2-3.72.28-.39.34-1.4.07-1.63-1.46-1.28-2.95-2.63-4.66-3.48a3.7 3.7 0 0 0-3.3.35c-.53.43-.54 2.32-.04 3.04 1.3 1.9 3 3.5 4.73 5.44Z" fill="#000"/></svg>