<svg viewBox="0 0 55 62" fill="none" xmlns="http://www.w3.org/2000/svg"><path d="M25.88 60.34c-7.03-2.42-13.62-5.57-18.8-11.14-1.08-1.16-2.3-2.17-3.34-3.35a12.5 12.5 0 0 1-3.2-7.77c-.19-3.72-.53-7.43-.43-11.15.2-6.72 3.26-12.18 8.25-16.53 1.93-1.68 4.19-2.98 6.3-4.46.88-.6 1.76-1.22 2.62-1.85 5.5-4.03 11.34-4.94 17.7-2.13 5.12 2.26 9.67 5.27 13.26 9.56 4.94 5.92 6.9 12.82 6.54 20.47a50.47 50.47 0 0 1-3 15.37c-1.96 5.24-4.8 9.83-10.2 12.25-3.77 1.69-7.75 1.9-11.79 1.4-1.3-.17-2.58-.44-3.91-.67Zm-20.87-35.53c.57-.06 1-.2 1.4-.1.39.08.72.4 1.07.6-.33.1-.67.27-1.01.27-1 .01-1.84.22-2.16 1.33-.5 1.75-1.12 3.49-1.5 5.27-.89 4.16-.5 8.17 1.66 11.92.17.28.38.79.55.78 2.1-.15 3.08 1.61 4.45 2.64 2.02 1.5 3.8 3.33 5.87 4.75 5 3.43 10.38 5.56 16.58 3.78 4.47-1.29 8.8-3.02 12.58-5.78 5.24-3.82 8.46-8.98 8.8-15.54a36.02 36.02 0 0 0-5.5-21.24 21.35 21.35 0 0 0-13.56-9.89c-5.2-1.25-10.26-.5-15.24 1.33a13.65 13.65 0 0 0-6.1 4.51c-3.61 4.58-5.58 9.97-7.87 15.39l-.02-.02Zm47.13 18.31c-1.25 1.64-2.27 3.24-3.54 4.63-4.8 5.28-11.15 7.72-17.82 9.46a14.6 14.6 0 0 1-7.75-.28c-4.42-1.24-8.18-3.56-11.6-6.55-1.77-1.55-3.59-3.06-5.38-4.6l-.25.25c.28.4.51.85.83 1.22a37.58 37.58 0 0 0 25.2 13.05c4.6.46 9.05-.52 12.76-3.59 4.24-3.5 6.1-8.33 7.55-13.59Zm-39.9-34.6c-10.66 7.28-12.5 16.26-10.86 26.89 1.47-9.53 5.4-18.44 10.86-26.9Zm8.31-5.22a30.39 30.39 0 0 1 12.82-.94c-4.42-1.68-8.7-1.5-12.82.94Z" fill="#A0BCDA"/></svg>