<svg viewBox="0 0 179 78" fill="none" xmlns="http://www.w3.org/2000/svg"><path d="M130.37 8.48c-31.32-.7-64.2-10.12-94.37 4.67-5.03 2.46-10.14 4.72-15.1 7.41-3.2 1.74-8.4 4.15-9.93 8.83-.85 2.56.44 6.38 1.51 8.44 3.47 6.63 10.1 9.33 15.66 11.5 26.67 10.43 55.04 14.76 82.78 12.37 17.98-1.55 35.9-5.18 52.94-13.04 2.83-1.3 12.9-4.63 13.92-10.26 2.03-11-10.74-14.99-16.24-16.75-11.64-3.72-23.68-4.38-35.6-5.08-14.07-.83-28.17-1.63-42.26-1.63-19.98 0-40.16 4.9-59.5 11.19-4.41 1.43-29.18 8.89-21.83 21.67 2.98 5.17 8.21 8.15 12.56 10.64 8.12 4.67 16.7 8.79 25.17 12.25 17.8 7.26 37.44 7.03 55.86 5.3 13.44-1.25 26.7-3.5 39.81-7.54 9.58-2.95 18.37-4.67 26.38-12.47 7.43-7.23 12.88-17.22 12.77-29.85-.09-9.45-4.57-17.58-8.42-25.13" stroke="#fff" stroke-linecap="round"/></svg>