<svg viewBox="0 0 674 602" fill="none" xmlns="http://www.w3.org/2000/svg"><path d="m416.87 130.98-.07.06.07-.06Zm-323.87-52.65c30.2-10.87 60.67-20.9 92.25-27.06 21.1-4.12 42.3-7.78 63.8-9.09 16.41-1 32.85-1.88 49.34-1.44 8.25.22 16.44.8 24.56 2.36 18.25 3.5 27.27 15.52 29.16 34.81.2 1.96.59 3.95.06 5.94-.13 9.7-1.2 19.34-2.99 28.88-3.35 17.9-8.33 35.37-13.53 52.8-3.83 12.85-7.81 25.6-14.97 37.1-1.47 2.36-2.65 4.89-3.94 7.37-22.65 43.51-43.4 87.93-63.26 132.77a465.61 465.61 0 0 0-9.51 23.1c-2.45 6.49-5.48 12.7-7.36 19.44-2.68 9.6-5.68 19.1-7.06 28.96-1.12 8.01-2.1 16.05-.87 24.2 1.4 9.4 5.8 16.4 15.17 19.58 1.1.11 2.27-.12 3.11.88.43.36.83.75 1.24 1.14l2.25 2.09c.88.82 1.75 1.62 2.68 2.36a21.2 21.2 0 0 0 2.28 1.6c1.4.83 1.66 2.33 1.97 3.76.78 3.52 2 6.88 3.53 10.14 1.28 2.76 2.8 5.38 3.17 8.51.22 1.86 1.4 3.48 2.8 4.74a27.52 27.52 0 0 1 6.15 8.18 12.3 12.3 0 0 0 2.96 3.73c6.5 5.56 11.53 12.49 17.43 18.58 3.22 3.3 5.96 7.06 8.87 10.65 2.3 2.84 5.07 5.36 7.51 8.14 1.56 1.77 2.96 3.73 4.59 5.38 4.45 4.53 9.16 8.81 13.87 13.1 1.3 1.2 1.84 2.38 1.33 4.04l1.53.04c.07-.04.16-.05.23-.07l.27-.1c.26-.04.49-.03.7.02a3.86 3.86 0 0 1 .98.55c.2.15.4.34.62.5a63.15 63.15 0 0 0 9.43 5.91c.64.01 1.2.15 1.57.7.5.14 1.03.3 1.53.42.7 0 1.42 0 1.9.67 1.5.02 2.94.26 4.37.7l4.66.45c3.02-.2 5.97-.63 8.87-1.28a59.94 59.94 0 0 0 13.94-5.08c5.09-2.59 10.18-5.16 15.2-7.88 12.47-6.8 24.3-14.74 37.04-21.06 30.46-15.12 59.9-32.14 89.45-48.92 16.73-9.5 33.75-18.52 50.22-28.52 19.43-11.79 37.66-25.36 56.6-37.9a47.96 47.96 0 0 0 7.34-6.1 10.49 10.49 0 0 0 2.8-4.26c.62-2.01-.35-3.2-2.33-2.7-1.27.32-2.46.9-3.7 1.39-.25.71-.8 1.04-1.43 1.3l-.27.1c-.1.11-.22.18-.32.3a8.65 8.65 0 0 1-2.67 1.92c-.3.37-.6.52-.8.27a1.06 1.06 0 0 1-.15-.38c-.11-.71 0-1.47.7-1.95a271.61 271.61 0 0 0 3.98-2.81c.12-.39.17-.72.04-.91-.12-.2-.4-.26-.88-.09-.73.25-1.4.7-2.09 1.05-.22.51-.61.61-1.08.43l.14-.55a161.07 161.07 0 0 1 5.65-23.63c-.13-.24-.06-.42.24-.54.83-3.61 1.7-7.22 2.56-10.84.85-3.61 1.68-7.24 2.43-10.88 1.26-6.05 2.9-12.04 3.17-18.28.11-2.48-.48-4.63-1.62-6.84-2.34-4.53-6.02-6.92-10.93-7.67-3.92-.55-7.96-.26-11.75-1.62-.32 0-.62-.02-.9-.07a5.09 5.09 0 0 1-3.43-1.94 7.2 7.2 0 0 1-.9-1.5 40.81 40.81 0 0 1-2.8-23.1l-.08-.2.26-.06c.1-.18.27-.38.39-.55.11-.17.21-.35.15-.44-1.08-2.06-.45-4.08.08-6.1.75-2.8 1.54-5.6 2.26-8.4.77-2.94 1.41-5.91 2.23-8.82.87-3.06-.71-6.17.32-9.21 0-.07-.62-.35-.94-.53-.79 1.96-2.06 1.1-3.4.69.58-1.06 1.27-1.73 2.4-1.79 1.25-2.83 4.84-3.92 5.43-7.3-2 1.5-3.75 3.24-5.56 4.93-5.59 5.2-12.1 9.06-18.56 13.03-16.26 9.94-31.78 21.03-48.11 30.87a3777.39 3777.39 0 0 1-129.04 74.25c-5.31 2.92-10.63 5.86-16.18 8.43-4 1.84-7.67 4.5-11.55 6.74-4.53 2.63-9.59 4.25-13.94 7.1a129.82 129.82 0 0 1-14.57 8c-.6.44-1.27 1.22-1.52-.28-.14-3.6.36-7.15.78-10.72a220.66 220.66 0 0 1 15.93-60.19c9.14-21.72 18.64-43.3 28.08-64.88 11.14-25.51 21.26-51.4 28.97-78.18-.1-.48.13-.6.54-.57l1.4-2.35c4-7.06 7.22-14.53 11.61-21.37-2.6-.12-3.03 2.14-3.9 3.74-2.4 4.4-4.65 8.9-6.98 13.36-.65 1.27-1.4 2.5-2.52 4.46 2.18-11.86 5.02-22.83 4.16-34.4 3.93 4.1 6.97 8.88 10.89 12.9.91-1.11.25-1.75-.39-2.34-.21-.2-.43-.4-.6-.6-5.5-7.03-11.21-13.92-15.36-21.93-.35-.69-.91-1.3-1.37-1.92-.8-.2-.34-.92-.58-1.36l-.2-.07a.38.38 0 0 1-.15-.1c-6.6-11.99-14.6-23.14-22.69-34.07-11.66-15.78-24.5-30.68-37-45.82-3.2-3.84-6.55-7.62-10.82-10.4-1.29-.84-1.98-2.3-2.73-3.75-4.73-9.37-11.55-16.64-21.38-20.85-4.48-1.93-9.13-3.35-13.73-4.89-.57.03-1.1-.07-1.5-.53l-16.62-2.82c-5.76-.57-11.5-1.11-17.26-1.66l-9.5-.5c-.82.45-1.66.28-2.5.13-1.81-.02-3.65-.07-5.47-.1-.55.38-1.15.36-1.75.22-5.78.17-11.55.49-17.3.91a349.92 349.92 0 0 0-20.33 2c-27.56 3.47-54.55 9.78-81.45 16.4-8.9 2.18-17.65 5.37-26.32 8.48-10.13 3.63-20.46 6.6-30.59 10.21-5.92 2.12-11.72 4.49-17.52 6.81a193.34 193.34 0 0 0-21.58 10.37c-2.3 1.27-4.32 3.28-7.12 3.57l-.15 1.59c1.19.65 2.03-.27 2.9-.75 4.72-2.58 9.6-4.85 14.33-7.4a180.73 180.73 0 0 1 27.33-11.89c22.85-7.8 45.62-15.96 69.05-21.87 28.7-7.24 57.68-13.23 87.24-15.82a302.84 302.84 0 0 1 36.21-1.1c12.93.42 25.69 1.98 38.27 4.86a71.77 71.77 0 0 1 19.65 7.49 35.13 35.13 0 0 1 6.74 4.93c.75.71 1.31 1.28.38 2.63-1.38 1.99.38 5.35 2.9 5.78 1 .16 1.63.48 1.52 1.3-.28 2.21 1.21 3.14 2.72 3.94 2.45 1.28 3.58 3.4 4.37 5.9 2.76 8.55 3.75 17.36 3.97 26.29.27 11.74-.88 23.32-4 34.68-.93 3.4-2.4 6.6-3.47 9.95-1.6 4.92-3.51 9.8-5.76 14.46-2.6 5.37-5.2 10.76-7.73 16.16a300.8 300.8 0 0 1-8.16 15.86c7.5-25.26 15.15-50.47 19.22-76.57l1.09-11.1c.05-4.78.26-9.55-.09-14.33a44.82 44.82 0 0 0-6.88-20.57c-4.25-6.9-10.71-10.89-18.28-13.27-4.09-1.28-8.3-1.83-12.52-2.32a223.84 223.84 0 0 0-34.22-1.39c-14.33.5-28.7.74-42.96 2.3-34.5 3.78-68.51 10.18-101.69 20.56-18.97 5.93-37.97 11.88-56.45 19.26-7.23 2.89-14.5 5.7-21.6 8.95-5.06 2.31-10.03 4.94-15.39 6.58l-.15 1.6c1.25-.02 2.28-.65 3.37-1.15a571.47 571.47 0 0 1 46.34-19.06l-.02-.02Zm139.82 369c-1.72-3.2-2.5-6.69-2.9-10.27-1.25-10.71.4-21.16 2.7-31.58 4.41-20.08 12.3-38.9 20.45-57.66 6.55-15.08 12.81-30.29 19.78-45.16a2600.9 2600.9 0 0 1 32.58-67.52c6.28-12.45 12.5-24.94 19.5-37.04a36.56 36.56 0 0 1-3.3 10.12 102.86 102.86 0 0 0-4.13 9.92c-1.95 5.4-4.52 10.5-6.79 15.74-3.21 7.43-6.41 14.88-9.82 22.22-4.21 9.1-8.65 18.06-12.94 27.12a1542.43 1542.43 0 0 0-17.24 37.46c-9.41 21.23-17.85 42.81-24.28 65.17a175.5 175.5 0 0 0-6.76 39.97c-.5 10.18.47 20.16 5.23 29.45.1.2.04.52.1 1.3-5.81-1.18-9.57-4.42-12.13-9.21l-.05-.02Zm33.18 39.6a45.47 45.47 0 0 0-2.26-4.4 44.7 44.7 0 0 1-4.92-12.5l-.08-.38c-.06-.39-.05-.77.28-1.1 5.31 2.53 16.82 15.78 22.54 25.97-.17.16-.31.45-.5.48-8.76 1.5-11.47.1-15.08-8.07h.01Zm64.58 74.47c-6.5-6.06-13.06-12.05-18.92-18.77-10.63-12.2-21.05-24.58-32.22-36.3a82.15 82.15 0 0 1-7.63-9.52c3.66-.13 6.66.28 9.62-.6 1.65-.5 2.58.94 3.5 2.1 10.24 12.69 21.08 24.92 30.82 38 5.16 6.94 11.19 13.13 17.1 19.39.64.67 1.35 1.33 1.8 2.1.58 1 2.55 1.66 1.1 3.24-1.57 1.7-3.57 1.82-5.17.33v.03Zm35.64-61.39c-6.6-8.78-13.62-17.25-19.79-26.3.93-1.3 2.19-1.5 3.22-2 24-11.45 46.79-25.16 69.83-38.38 5.88-3.37 11.64-6.94 17.47-10.4 2.7-1.58 2.78-1.6 4.77.93 4.76 6.02 9.9 11.77 13.9 18.38 1.03 1.72 2.85 2.76 4.02 4.33 4.29 5.72 9.24 10.93 12.93 17.12 1.95 3.28 5.18 5.48 7.89 9.04.28-2.41-.98-3.35-1.8-4.38a9429.2 9429.2 0 0 0-24.73-31.27c-3.88-4.91-7.75-9.8-11.6-14.72-.41-.5-.72-1.09-1.27-1.93 37.63-21.33 73.2-45.52 107.8-71.11 1 .7 1.43 1.68 1.96 2.6 10.02 17.85 21.14 35.02 32.13 52.28 1.08 1.68 2.34 3.22 3.5 4.84 1.58 2.18 1.56 2.54-.67 4.06-6.82 4.61-13.58 9.35-20.56 13.73a3269.1 3269.1 0 0 1-113.8 68.27c-36.08 20.65-72.71 40.37-108.24 61.99-.67.42-1.38.78-2.08 1.18-2.82 1.58-2.76 1.52-4.91-.73-10.86-11.35-20.7-23.54-30.3-35.94-6.1-7.88-12.7-15.37-19.06-23.04-.58-.71-1.1-1.46-2.02-2.7 10.42-2.4 20.2-5.3 29.74-8.96 8.94-3.42 17.66-7.33 26.38-11.23 4.28-1.9 3.35-2.16 6.31 1.7 6.1 7.99 12.19 16.02 18.27 24.01 6.02 7.89 12.01 15.78 18.03 23.65.53.7.98 1.55 2.96 2-6.6-9.8-13.7-18.22-20.32-27.02h.04Zm221.54-49.4c-16.64 10.98-34.06 20.65-51.45 30.37-22.96 12.82-45.71 25.99-68.73 38.7-13.93 7.7-28.28 14.69-42.3 22.25-8.77 4.73-17.26 9.95-25.89 14.92a284.31 284.31 0 0 1-20.07 10.57 93.72 93.72 0 0 1-8.46 3.46c-7.57 2.74-15.27 3.2-23.07.93-5.29-1.24-9.65-4.15-13.82-7.5.17-1.22 1.3-1.18 1.95-1.68 1.43-1.12 2.44-.7 3.7.56 2.8 2.8 5.82 5.36 8.75 8.04 2.64.82 5.29.91 7.93.52a25.6 25.6 0 0 0 2.66-.54c6.1-1.54 11.75-4.15 17.3-6.98 48.76-24.84 96.6-51.31 142.53-81.12 9.24-6 18.6-11.84 27.88-17.76 2.44-1.57 5.28-2.51 7.36-4.65 1.52-1.57 2.47-.54 3.23.9 1.47-.97-.44-2.43.7-3.25.97-.7 1.99-1.33 2.99-1.98 5.86-3.87 11.72-7.8 17.73-11.35 12.17-7.2 23.6-15.52 36.01-22.3.92-.5 1.47-1.54 2.57-1.82.4-.24.73-1 1.21-.41.09.1.13.21.12.33 0 .35-.34.7-.62.99-1.59 2.95-3.9 5.35-5.89 8-6.59 8.74-15.35 14.87-24.35 20.8h.03Zm-61.17 22.1c-1.44.86-2.11.24-2.8-.93-.93-1.57-1.95-3.11-3.08-4.88 4.03-4.88 6.18-5.79 11.42 0 .52.57.96 1.22 1.53 1.97-2.48 1.35-4.82 2.52-7.06 3.86l-.01-.02Zm6.25-.66c-.3.65-.81 1.07-1.51 1.09-.3 0-.75-.2-.55-.72.22-.55.69-.75 1.22-.89.12-.03.22-.02.3-.02h.02c.16.05.27.15.37.3l.15.22v.02Zm-2.53.75c-1.41 2.97-1.99 3.22-4.14 1.79 1.27-.84 2.38-1.82 4.14-1.78Zm19.9-21.64c2.45.24 4.88 3.08 4.75 5.5a1.5 1.5 0 0 1-.8 1.25c-1 .62-2.06 1.19-3.03 1.86-1.06.75-1.9.7-2.7-.38-.55-.74-1.22-1.39-1.75-2.16-.86-1.27-2.06-2.5-1-4.22.8-1.28 2.77-2.04 4.54-1.87v.02Zm-1.33-1.58c1.18-1.1 2.17-1.53 3.31.34a4.86 4.86 0 0 1-3.3-.34Zm6.48 3.99c1.17-.39 1.63.19 2.17.5.57.3 1.17.7.7 1.46-.19.3-.58.55-.92.67-.59.19-.99-.17-1.2-.67-.25-.6-.46-1.2-.74-1.94l-.01-.02Zm17.85-7.11c-.5-1.92-.82-3.88-1.51-5.7-.92-2.41-.22-4.08 1.84-5.4.98-.62 1.7-1.7 3.34-1.81 1.53 6.75.25 11.27-3.67 12.9Zm5.45-13.37a6.85 6.85 0 0 1 3.73 3.07c2.43 3.64 2.3 3.98-2.31 5.52a25.62 25.62 0 0 1-1.42-8.6Zm27.89-8.39 3.67-1.63a6.06 6.06 0 0 1-3.17 2.32c-.52.36-1.12 1.34-1.7.38-.04-.07-.05-.14-.06-.19 0-.42.82-.64 1.26-.86v-.02Zm-3.67-6.1c-1.22-2.66-.8-3.34 1.92-4.4 1.67-.68 2.7-.38 3.28 1.48.6 1.86 1.48 3.64 2.32 5.66-6.78 3.21-4.95 2.84-7.52-2.73v-.01Zm22.67-2.55c-.39 5.04-5.3 6.5-7.95 9.8 2.3-3.5 3.27-8.03 7.95-9.8Zm-1.5-1.7a24.4 24.4 0 0 1 3.01-6.37c-.7 2.62.15 4.97-3.01 6.37Zm-6.65 15.54-.45.39c-.18.28-.5.59-.8.77-.3.2-.56.32-.62.23-.6-.96.46-1.18.98-1.64.38-.28.77-.75 1.12-.04.03.03-.1.15-.24.27l.01.02Zm12.5-13.08c2.24-1.84 4.55-3.6 7.84-4.73-1.38 5.2-12.66 14.65-19.74 16.77 1.24-3.07 3.73-4.62 5.66-6.57 1.95-1.96 4.1-3.72 6.25-5.49l-.02.02Zm7.66-78.86c-13.05-.66-16.66-1.53-20.87-5.28 6.84 1.27 14.48-.47 20.87 5.28Zm-29.39-17.3c.46 8.16 8.66 16.88 16.96 17.47a168 168 0 0 1 9.11.98c4.14.5 4.95 1.32 5.16 5.55a51 51 0 0 1-1 11.5 464.1 464.1 0 0 1-7.1 32.66c-2.2 8.57-4.93 16.96-8.73 24.98-1.8 3.78-4.86 5.62-8.75 6.46-.63.56-.28 1.98-1.78 1.8l-3.32-8.44c1.83 1.2 2.11 2.62 2.9 3.67.72.99.65 2.59 2.18 2.97-.3-4.5-3.04-7.23-6.66-9.36-.49-.3-1-.24-1.5 0-2.62 1.36-4.99 2.98-6.54 5.58-.72 1.22-.29 2.25.3 3.34.55.99 1.25 1.86 1.9 2.78a10.5 10.5 0 0 1 1.57 2.96.3.3 0 0 0 .12.04c.04 0 .1.04.14.06.24.08.5.09.77.13.35.07.67.22.8.7-.17.9-.98 1.19-1.62 1.6-5.72 3.61-11.44 7.23-17.31 10.92-1.08-1.65-1.99-3.26-3.12-4.7-2.69-3.4-5.39-3.67-9-1.3-1.7 1.12-2.81 3.22-5.31 3.16-.64-.02-.74 1.01-.52 1.68 1.07 3.27 1.94 6.63 5.1 9.27-3.85 2.43-7.6 4.8-11.37 7.16-.31.2-1 .42-1.1.3-1.82-2.35-5.28-2.34-6.95-5.04-1.98-3.2-2.45-3.2-5.63-1.1-.76.5-1.6.97-2.29 1.6-2.44 2.2-2.93 4.45-1.35 6.58.88 1.17 1.48 2.51 2.26 3.76.42.68.96 1.26 1.78 2.33-.55.3-1.08.61-1.6.94-3.68 2.29-7.05 5.01-11.18 6.56-.34.37-.65.44-.95.16-.06-.06-.13-.1-.17-.18.28.24.38.45.36.63a.61.61 0 0 1-.17.34c-.13.15-.34.27-.56.4-.17.1-.68 0-.67-.07-.11-.76.37-1.12 1.03-1.32l.72-.87a6.23 6.23 0 0 0-1.17-2.62c-.37-.5-.8-.94-1.25-1.37-.69-.65-1.43-1.24-2.13-1.85-3.23-2.83-5-2.79-8.38-.08-1.28 1.05-2.41 2.17-4.46-.17.72 4.8 3.18 7.83 4.67 11.28.51 1.2 2.65.56 3.16 2.2-.52 1.34-1.94 1.67-2.99 2.35a1475.62 1475.62 0 0 1-120.42 70.25c-10.25 5.35-20.43 10.82-30.84 15.83a61.19 61.19 0 0 1-13.84 4.98c-4.4.92-8.34.7-11.63-2.99-1.84-2.05-4.25-3.59-6.03-5.84.64-1.59 2.19-1.89 3.38-2.6 30.98-18.58 62.5-36.25 94.02-53.92 41.71-23.4 82.68-48.06 123.3-73.33 20.54-12.8 40.12-26.97 59.7-41.16 2.18-1.58 4.42-3.03 7.36-5.01a6 6 0 0 0-4.46 1.35c-2.88 2.06-5.85 3.96-8.7 6.03-3.79 2.77-7.74 5.43-11.48 8.25-3.2 2.45-6.94 4.17-9.81 7.08-.65.66-1.5 1.07-2.28 1.62-.91.63-1.76.54-2.46-.31-1-1.24-2.05-2.46-2.92-3.78-11.12-17.17-22.15-34.4-32.3-52.17l-.38-.69c-2.45-4.5-2.47-4.52 1.7-7.69 15.02-11.4 30.03-22.84 45.08-34.22 2.3-1.73 4.7-3.28 7.55-5.27-.08 5.57.76 10.38 1.04 15.22l.06-.01Zm-71.82-.7c.82-.54 1.66-1.06 2.5-1.56.05-.08.12-.13.16-.19.27-.34.56-.63.92-.85.4-.26.86-.46 1.33-.67.28-.25.55-.5.84-.73.51-.42 1.05-.8 1.62-1.15.39-.23.78-.44 1.21-.62.14-.22.3-.4.5-.57.53-.5 1.19-.8 1.88-1.06.25-.3.5-.56.81-.76.3-.2.64-.36 1.01-.44a3.46 3.46 0 0 1 1.1-1c.43-.27.89-.47 1.36-.68.42-.37.84-.73 1.3-1.04.47-.3.96-.57 1.5-.74a3.58 3.58 0 0 1 1.07-.98c.4-.25.83-.44 1.3-.6a119.3 119.3 0 0 1 12.98-8.16.72.72 0 0 1 .21-.32.6.6 0 0 1 .54-.2c.37-.33.75-.62 1.14-.9.45-.3.92-.55 1.47-.68.04-.1.12-.14.16-.22a.74.74 0 0 1 .68-.33l.2-.12c.08-.3.26-.49.6-.44l1.46-1.04a32.85 32.85 0 0 1 4.06-2.43c.2-.08.37-.18.55-.28.3-.42.67-.73 1.08-.98.41-.24.88-.43 1.35-.58l.4-.42c.24-.2.5-.38.8-.54.2-.11.45-.2.7-.26a.82.82 0 0 1 .26-.41.68.68 0 0 1 .48-.1c.38-.35.76-.68 1.2-.96.42-.27.86-.5 1.38-.63.15-.22.32-.4.5-.57.37-.33.81-.59 1.26-.8l.7-.3c.26-.25.52-.51.8-.7a3.11 3.11 0 0 1 1.02-.4c.03-.07.09-.1.13-.14a4.6 4.6 0 0 1 1.64-1.23l.7-.31c.4-.38.82-.74 1.27-1.05.44-.3.92-.58 1.47-.74.14-.22.31-.4.5-.57.36-.33.78-.57 1.22-.8.23-.11.46-.2.69-.32a33.35 33.35 0 0 1 8.87-5.26c3.26-1.3 4.18-.6 3.55 2.75-1.54 8.22-3.19 16.41-4.68 24.65-.4 2.24-1.12 3.64-3.5 4.64-2.57 1.09-4.9 3.13-7 4.93-5.54 4.69-12.06 8.06-17.16 13.33-2.46 2.51-6.02 3.74-8.7 6.16-4.76 4.33-10.26 7.77-15.24 11.88a219.23 219.23 0 0 1-12.86 9.85c-5 3.54-10.13 6.95-15 10.65-14.7 11.18-30.1 21.3-45.51 31.42-13.1 8.61-26.72 16.42-40.15 24.48-2.63 1.57-2.64 1.53-5.2-.74a1.77 1.77 0 0 0-.68-.33c-.1-.03-.24.04-.61.12.03 1.4 1.63 1.98 1.8 3.24-.47 1.1-1.58 1.35-2.45 1.88-21.46 13.05-43.33 25.37-65.27 37.56a339 339 0 0 1-21.33 10.81c-3.43 1.6-3.44 1.59-6.38-.55.23 1.67 1.07 3.11-1.27 4.13-16.01 7.13-32.03 14.23-49.1 18.56-2.05.52-4.17.87-6.17 1.5-1.83.6-2.98.03-4.04-1.46a459.34 459.34 0 0 0-8.34-11.17c-1.1-1.41-2.2-2.82-3.34-4.2-1.11-1.4-2.25-2.78-3.37-4.17-.1-.1-.21-.18-.34-.25-.81-.57-1.78-1.05-2.3-2.52 4.53.76 8.85 1.2 13.18 1.47 20.82-2.22 39.74-10.17 58.06-19.69 30.67-15.95 60.17-33.86 88.9-53.04 13.82-9.21 27.64-18.42 40.98-28.3 1.17-.85 2.43-1.6 3.64-2.38a8.15 8.15 0 0 1 3-2.21l2.33-1.83a86.9 86.9 0 0 1 7.3-4.98c.04-.08.11-.13.17-.2.27-.35.56-.63.92-.87.41-.27.87-.5 1.34-.7.7-.62 1.4-1.22 2.14-1.75.75-.54 1.54-1.02 2.38-1.42a.98.98 0 0 1 .2-.33.6.6 0 0 1 .55-.23l1.47-1.2c1.49-1.17 3-2.29 4.7-3.18a.82.82 0 0 1 .25-.42.69.69 0 0 1 .48-.12l1.47-1.2a40.3 40.3 0 0 1 2.8-2.06c.61-.4 1.24-.78 1.89-1.12a6 6 0 0 1 .7-.73c.52-.45 1.07-.8 1.65-1.14l.9-.48c.26-.28.52-.54.81-.8a9.1 9.1 0 0 1 2.82-1.79 4.98 4.98 0 0 1 1.7-1.46c.23-.1.45-.22.68-.33.99-.84 1.99-1.68 3.01-2.44 1.03-.79 2.1-1.5 3.25-2.13.42-.56.93-1 1.49-1.37.55-.38 1.15-.69 1.75-1.02a16.12 16.12 0 0 1 3.88-2.91c.21-.11.42-.24.63-.34.33-.4.7-.73 1.09-1.03.4-.3.83-.59 1.27-.84.3-.17.58-.33.88-.48a71.3 71.3 0 0 1 7.13-5.25l-.03-.03Zm-175.1 106.54c.74-1.9-.36-3.11-.74-4.4-1.2-3.98-1.1-4.32 2.48-6.24 35.94-19.3 71.76-38.8 107.15-59.05 10.46-5.98 20.82-12.12 31.23-18.15 7.62-4.4 15.24-8.75 22.87-13.14 2.34-1.47 4.69-2.95 7.02-4.44l.38.52-6.74 4.72c-3.53 2.83-7.33 5.3-11.12 7.79-1.25.83-2.52 1.65-3.75 2.52-2.6 1.77-5.02 3.79-7.54 5.65a421.02 421.02 0 0 1-10.92 7.77 404.9 404.9 0 0 0-9.14 6.57c-3.6 2.67-7.15 5.45-10.79 8.1a1187.4 1187.4 0 0 1-93.3 61.9c-18.5 11.02-37.08 21.9-56.71 30.79-10.79 4.88-21.9 8.87-33.5 11.38-6.4 1.4-12.84 2.02-19.37.95-3.48-.58-6.9-1.28-9.7-3.67a10.5 10.5 0 0 0-3.45-1.96c-2.34-.8-3.95-2.5-5.72-4.55 2.65-1.28 5.19-.6 7.56-.9 3.03-.4 6-.95 9-1.41 1.7-.25 3.51-1.71 5.2.12.11.13.7.02.7 0 .25-3.15 3.17-2.08 4.8-2.92 1.75-.9 3.77-1.27 5.64-1.92 16.49-5.64 32.35-12.75 48.04-20.27 1.42-.68 2.76-1.53 4.34-1.81 1.38 1.42.56 3.73 2.12 4.98 1.16-.6.44-1.44.32-2.09-.68-4-.7-4 2.75-5.74 5.8-2.94 11.59-5.9 17.55-8.93 1.34 2.49 1.18 5.5 3.3 7.87l.04-.04Zm62.63-199.8c-7.63 22.1-16.98 43.49-26.3 64.9-7.54 17.27-14.98 34.57-22.44 51.87a215.55 215.55 0 0 0-8.37 23.27c-1.78 5.93-2.27 12.16-4.78 17.86.64 4.5-1.98 8.45-1.95 12.93.05 4.48-.86 8.97-1.33 13.47l-.6 6.08c-1.78-2.24-2.1-4.26-2.26-6.45-.58-7.76.52-15.38 1.57-23.02 2.21-16.19 7-31.62 12.76-46.92 10.31-27.34 22.2-53.96 34.48-80.44 6.52-14.09 12.98-28.2 20.35-41.89.49-.92 1-1.82 1.5-2.74l.75.19c-.63 3.76-2.15 7.29-3.38 10.9Zm-66.67 145.39c-.35 1.38-1.21 1.97-2.59 1.85-1.95-.16-3.9-.38-5.94-.58 1.27-3.57 2.4-7.08 4.23-10.3 1.75-3.05 3.65-3.35 6.41-1.29 1.14.85 1.57 1.74.8 3a25.53 25.53 0 0 0-2.9 7.3v.02Zm10.06-31.3a83.5 83.5 0 0 0-2.06 4.72c-.58 1.43-1.06 2.9-1.54 4.29-.26.06-.42.16-.5.12-6.63-3.58-5.89-3.17-3.02-9.07a20.6 20.6 0 0 1 2.1-3.33c1.13-1.53 2.51-1.66 4.17-.72 1.87 1.07 1.64 2.42.87 4h-.02Zm-1.22 6.99-.05.2-.1.07c-.06.17-.13.35-.16.53-.06.23-.05.46-.09.7-.51-.19-.2-.58-.13-.84.05-.16.23-.28.39-.41 0-.05.03-.1.05-.13a.38.38 0 0 1 .1-.12l.49-1.98c.45.86-.06 1.42-.5 1.96v.02Zm8.03-24.25c-.7 1.09-1.18 3.01-2.4 2.91-1.76-.14-3.5-1.13-5.1-2.02-.94-.5-.47-1.67-.28-3.1.38-1.01.81-2.56 1.54-3.96a6.55 6.55 0 0 1 3.74-3.41c2.05-.68 4.45-1.24 6.01.37 1.37 1.4-.23 3.22-.93 4.7a38.57 38.57 0 0 1-2.54 4.5l-.04.01Zm39.35-88.19c-1.35 2.64-3.17 4.89-4.92 7.2-.48.63-1.08.82-1.66.28-1.35-1.29-3.08-2.4-3.82-4-1.14-2.43.74-4.54 1.95-6.53 1.06-1.73 2.47-3.18 4.72-2.83 2.67.23 4.94 3.53 3.74 5.88h-.01Zm10.55-19.92c-.1 2.75-.17 2.86-2.58 4.83-.5-2.52 1.79-3.25 2.58-4.83Zm-5.68 5.6c-7.22-6.34-6.13-4.97-1.89-11.48.3-.44.6-.88.95-1.28 1.64-1.93 1.79-1.93 3.7-.2.08.1.17.2.28.29 3.81 3.54 3.85 3.58.37 7.52-1.32 1.49-2.15 3.31-3.43 5.14h.02Zm7.9-74.01c3.9 5.4 9.12 10.13 9.85 17.35.05.64.3 1.31-.41 1.96-1.74-.5-3.04-1.91-4.68-2.7-2.05-.98-2.8-.77-3.9 1.15-.47.79-.79 1.67-1.13 2.54-1.69 4.35-1.6 4.6 2.5 6.75.54.28 1.07.55 1.57.85.5.3.96.63 1.34 1.02.56.59.93 1.3.91 2.3 0 .33-.05.67-.13 1.06a1 1 0 0 0 .83-.18c.22-.16.38-.42.52-.69a5.22 5.22 0 0 1-.07-.49c-.02-.48.1-.92.4-1.34-.05-.14-.06-.26 0-.36.04-.1.15-.16.3-.22.09-1.16.5-2.2 1.21-3.12.11-.74.13-1.8 1.13-1.6.44.08.14 1.12-.05 1.72.2 4.42-1.28 8.62-1.8 12.94-.16 1.34-.72 2.05-2.42 1.37-2-.8-3.82-1.64-5.43-3.1-1.84-1.67-2.73-1.47-4.08.67a35.87 35.87 0 0 0-2.55 4.91c-1.31 3.01-.98 4.4 1.37 6.73 5.28 5.23 6.27 5.08 10.09-1.53l1.4-3.88c.55 1.63.15 2.84-.25 4.05a37.37 37.37 0 0 1-6.02 16.47c-1.85-1.76-3.57-3.52-5.41-5.15-1.77-1.58-2.71-1.52-4.38.19a7.54 7.54 0 0 0-1.67 2.2c-1.18 2.67-5.4 4.58-3.06 8.04 1.65 2.47 3.49 5.4 7.08 5.9 1.34.17 1.17 1.2.68 2.11-1.1 2.1-2.23 4.18-3.36 6.28 0 .28-.05.54-.14.78-.24.75-.79 1.4-1.34 2.16l-.07-1.23c-.01-.38-.03-.73-.06-1.09-.42-.5-.82-1.03-1.26-1.5-3.08-3.28-6.54-3.15-9.31.44-.88 1.13-1.6 2.4-2.22 3.7-1.57 3.4-1.27 4.66 1.42 7.25.94.9 1.87 1.85 2.8 2.76 1 .97 1.9.52 2.78-.22a7.7 7.7 0 0 1 2.14-2.9 3 3 0 0 1-.15 1.65c-.3.8-.86 1.47-1.23 2.2l-9.8 21.23-2.29 5c-.31.15-.8.52-.93.43a.78.78 0 0 1-.25-.33c-.1-.32.18-.66.4-.96l2.4-4.22c-.42-3.24-3.08-4.72-5.2-6.61-.94-.83-2.07-.52-2.82.4a39.67 39.67 0 0 0-6.84 11.92c-.37 1.05-.3 1.96 1.02 2.57 2.54 1.2 4 4.2 7.38 4.13 1.2-.03.92 1.33.52 2.2-1.33 2.85-2.7 5.7-4.03 8.55a58.8 58.8 0 0 1-4.3 9.64c0 .1-.05.18-.06.28-.03 0-.05.03-.08.02-.01.09-.05.18-.08.26l-.25 1.08c-.11-.1-.32-.18-.31-.26l.03-.37c.05-.33.2-.6.59-.7l.01-.1c.04-.07.08-.15.1-.22.23-1.5.88-2.83 1.5-4.2.21-.47.43-.95.63-1.44.51-1.33 1.22-2.65 1.24-4.17-.83-1.28-2.1-1.87-3.5-2.38-3.67-1.34-5.17-1.04-7.3 2.28-.9 1.4-2 2.71-2.9 4.13a9.13 9.13 0 0 0-1.6 4.79c.32-.06.63-.08.89-.03.44.07.77.34.87 1.02 1.9 1.65 3.7 3.41 5.7 4.91 1.4 1.06 1.82 2.07 1.05 3.66-.86 1.78-1.6 3.6-2.37 5.4-7.45-2.58-12.17-.1-14.22 7.37-.55 2.02-1.4 4-.79 6.2 3.13-1.03 5.46 1.06 8.04 2 .75.28.45 1.1.22 1.73l-2.6 7.05c-.32-.06-.63-.03-.8-.16-4.77-3.7-6.73-3.38-9.7 1.74-1.7 3-3.24 6.1-4.77 9.2-.44.92-.3 1.53.4 1.87.3.13.65.21 1.12.26.23.02.48.03.75.02 0-.38.04-.78.03-1.17-.02-.38-.12-.83.42-.89.44-.06.67.28.84.67.89.94 2.08 1.4 3.19 2.03 2.53 1.42 2.82 2.4 1.7 5.16-.68 1.66-2.05 3-1.87 4.91-1.13.11-1.66-.58-2.34-.94-3.85-2.03-4.63-1.6-7.23 1.96-2.23 3.04-2.76 6.72-4.51 9.92-.26.48-.5 1.07-.63 1.7a4.05 4.05 0 0 0 .55 3.25l.74-.12.32-1.7c.33-.1.65-.18.98-.23 2.27-.38 4.53.44 6.79.41l.94-.1c.27-.3.5-.61.8-.87.3-.27.08-.89.65-.95-.03.38-.06.78-.11 1.16-.02.25-.13.5-.2.75l-1.71 9.42c-.39.51-.75.6-1.09.5-.26-.08-.5-.27-.75-.46l-.25-.2c-.4 0-.8-.07-1.19-.16-1.14-.28-2.2-.85-3.35-1.13-2.82-.7-3.72-.05-4.38 2.83-.34 1.42-.67 2.84-1.07 4.26-.13.45-.2.9-.23 1.31-.04.52.05 1 .2 1.46.19.7.56 1.37 1.15 1.98 1.08.04 2.17 0 3.23.1a5.84 5.84 0 0 1 3.06 1.02c.4.08.78.19 1.18.28.11 0 .23.05.34.08.32-.05.7-.18.98-.14.07.01.13.03.18.07.15.12.25.36.18.84.14 2.75-.78 5.48-.1 8.38-2.27.93-3.7-.83-5.27-1.76-4.88-2.86-5.3-2.7-5.74 3.12-.1 1.38-.12 2.76-.12 4.15 0 1.38.03 2.77.01 4.16l9.37 1.26c.82-.65 1.01-1.62 1.29-2.54-.08-.65 0-1.27.54-1.97.14.75.27 1.34.4 1.96.5 3.54.41 3.4-2.33 5.1-3.5 2.15-7.2 3.9-10.84 5.79-1.21.62-2.41 1.27-3.61 1.94a4.4 4.4 0 0 1-.43.3c-.27.16-.46.24-.63.23-.08-.01-.15-.02-.2-.07-.1-.1-.15-.25-.16-.47-.02-.22 0-.52.06-.84-.78-4.63-.26-9.27-.05-13.88a176.33 176.33 0 0 1 5.94-38.4c.46-1.63 1.14-3.22 1.71-4.82-.14-.27-.04-.4.12-.52.06-.05.12-.07.18-.1l.08-.85a6.2 6.2 0 0 1 .77-2.41c-.13-.26-.04-.4.13-.52.06-.05.13-.07.18-.1 1.09-6 3.38-11.62 5.37-17.3 12.13-34.8 26.15-68.87 40.4-102.85 8.35-19.91 17-39.7 24.4-60.01 3.06-8.36 5.78-16.8 7.37-25.58.65-3.54.96-7.09 1-10.68.01-1.03.83-2.2 1.7-1l.1-.12Zm8.72 22.88c-.72 1.39-1.28 2.85-1.98 4.42-1.85-.46-2.73-1.52-3.8-2.27-2.74-2-2.97-4.39-.77-6.93.47-.55 1.03-.83 1.71-.4 1.45.93 2.9 1.84 4.32 2.81.9.6 1.04 1.37.5 2.39l.02-.02Zm-3.24 20.72c-.55 1.34-1.05 2.7-1.65 4.02-2.28 5.02-3.04 5.15-7.04 1.28-2.8-2.71-2.82-2.8-1.27-6.32.37-.85.76-1.68 1.2-2.49 1.57-2.9 1.64-2.95 4.14-.87 1.05.88 2.22 1.43 3.46 1.86 1.26.46 1.6 1.28 1.18 2.52h-.02Zm-35.77 79.02a85.16 85.16 0 0 0-2.29 3.72c-.64 1.13-1.23 2.3-1.94 3.67-6.4-3.96-6.49-4.26-3.17-10.01.99-1.73 2.09-3.4 3.17-5.04.82-1.26 1.73-1.3 2.95-.33 4.06 3.22 4.15 3.55 1.3 8.01l-.02-.02Zm-13.81 33.27c-3.1-1.35-4.53-4.44-7.39-5.8a35.17 35.17 0 0 1 4.53-7.66c1.52-2.06 5.07-2.23 7.01-.52 1.19 1.05.57 2.24.13 3.27-1.46 3.5-3.17 6.9-4.28 10.7Zm-27.94 87.92c-.32 1.25-.66 2.5-1 3.71-1.34.29-2.45-.24-3.53-.6-1.31-.42-3.54.36-3.8-1.23a10.1 10.1 0 0 1 1.73-7.5c.81-1.14 2.2-.62 3.3-.22 5.1 1.89 4.57 1.05 3.3 5.84Zm-.52 18.84c-.57 1.77-1.03 3.55-1.61 5.58-2.24.2-4.38-.85-6.93-.41l1.06-10.88 6.74 3.39c1.08.54 1.06 1.32.72 2.32h.02Zm71.26-264.65c.12.24.21.47.32.73-.15.16-.32.3-.48.46-.11-.23-.3-.47-.29-.67.02-.18.29-.35.44-.52h.01Zm-61.23-82.26c2.19 2.4 4.45 4.72 6.57 7.19a614.3 614.3 0 0 1 18.55 22.88c3.74 4.8 7.73 9.44 11.65 14.11 1.35 1.6 2.68 3.2 3.97 4.84a48.8 48.8 0 0 1 5.68 8.72c1.17 1.72 2.46 3.37 3.67 5.07a27.22 27.22 0 0 1 2.97 5.19l.18.18.05.16c2.28 1.47 3.28 3.9 4.5 6.17-.83-1-1.76-1.95-2.58-2.95a12.08 12.08 0 0 1-1.6-2.44c-.12-.25-.21-.52-.3-.78l-.13-.1c-.02-.08-.07-.16-.1-.24-1-.95-1.89-2-2.73-3.06-1.67-2.1-3.15-4.35-4.67-6.57-4.66-6.05-9.31-12.12-14.02-18.14-.57-.71-.88-1.76-1.7-2.22-.28-.15-.6-.23-1-.23v.03h-.04c-.13.78.14 1.34.52 1.85.4.5.91.94 1.3 1.45a6964.92 6964.92 0 0 0 24.84 33.16 18.92 18.92 0 0 1 3.8 12.54c-.28 7.75-2.02 15.25-4.26 22.64a315.49 315.49 0 0 1-9.93 27.28c-3.68 9.04-7.43 18.05-11.17 27.07-3.74 9.01-7.49 18.02-11.24 27-2.94 7.05-5.84 14.12-8.83 21.15-6.68 15.7-12.59 31.7-18.8 47.58-2.43 6.2-4.43 12.5-6.7 18.72-5.19 14.16-10.04 28.44-13.12 43.21a182.5 182.5 0 0 0-3.66 41.58c.05 2.1-.58 3.05-2.37 3.9-18.42 8.87-37.03 17.32-56.59 23.43-5.25 1.64-4.81 2.09-6.05-3.58a240.33 240.33 0 0 1-5.4-39.77c0-.37-.14-.85.04-1.1.3-.4.64-.04.9.22 2.86 1.47 5.13 3.75 7.53 5.8 7.65 6.58 15.26 13.19 23.28 19.31 1.24.96 2.38 2.46 4.99 1.93-5.74-4.05-10.66-8.2-15.63-12.29-6.55-5.4-12.68-11.3-19.55-16.3-1.58-1.15-2.07-2.5-2.06-4.38-.07-16.48 2.8-32.41 7.9-48.07 6.63-20.4 16.57-39.28 26.5-58.15.1-.21.33-.34.72-.7a90.01 90.01 0 0 0 13.66 18.02c6.8 7.08 12.98 14.69 19.18 22.26a97.4 97.4 0 0 0 2.1 2.46c2.11 2.44 4.28 4.88 6.03 7.6l.81.1c.36-2.05-1.31-3.09-2.36-4.34-10.13-12.13-20.35-24.19-30.49-36.32-2.12-2.55-4-5.3-6.1-7.87-1.9-2.34-2-4.54-.5-7.26a1197.7 1197.7 0 0 0 26.28-51.37c9-18.48 18.1-36.92 24.8-56.4 1.38-4 2.71-8.03 4.06-12.06.24-.75.38-1.54 1.41-2.16 12.1 15.02 23.2 30.94 36.41 44.94.9-.43.92-.88.65-1.17-9.74-10.72-18.64-22.13-27.38-33.68-2.56-3.4-5.06-6.84-7.88-10-1.75-1.97-1.37-3.78-.75-5.86 2.5-8.4 5.16-16.74 7.44-25.19 3.87-14.34 7.96-28.64 10.66-43.28.43-2.36.83-4.7.68-7.1-.05-.69.2-1.35 1-1.47.59-.1.82.4 1.17.83 2.52 3.25 5.1 6.46 7.65 9.69 1.28 1.6 2.52 3.28 4.53 4.13v-.02h.03c.5-1.75-1.1-2.52-1.9-3.55a954.7 954.7 0 0 0-25.07-30.92c-.8-.97-1.78-1.81-2.66-2.72l.7-.6-.04.02Zm14.52 21.85.56-.27.44 1.02-.73.3c-.1-.37-.23-.7-.28-1.04l.01-.01Zm-40.2 88.66c7.1-13.81 14.18-27.62 19.16-42.4a124.15 124.15 0 0 0 5.8-52.98c-.52-5.13-1.66-10.1-2.63-15.58 2.29 1.41 2.73 3.74 4.13 5.33 3.97 4.47 7.7 9.16 11.52 13.76.8.98 1.07 1.8.84 3.39-.43 2.8.05 5.77-.43 8.68-1.15 6.95-2.9 13.77-4.64 20.58-2.43 9.64-5.1 19.21-7.7 28.82-.02.11-.11.2-.2.28l-.26.2c-.97 6.06-3.13 11.78-4.94 17.6a904.54 904.54 0 0 1-6.59 20.4c-5.63 16.76-13.31 32.65-20.87 48.6-13.7 28.92-29.02 57-43.62 85.46-8.25 16.1-15.35 32.68-19.83 50.25-4.06 15.95-5.6 32.15-4.06 48.6 1.23 12.94 2.8 25.84 5.97 38.5.33 1.35.34 2.27-1.33 2.64-5.82 1.29-11.63 2.42-17.65 2.25-2.15-.06-3.34-1.02-4.35-2.81-3.22-5.7-4.49-11.88-5.07-18.27-1.14-12.44.5-24.64 3.16-36.76 6.7-30.52 18.74-59.14 31.8-87.35 11.1-23.96 22.37-47.83 33.4-71.83 7.22-15.69 13.74-31.64 18.94-48.12 2.18-6.89 6.19-12.88 9.45-19.24Z" fill="#fff"/><path d="m366 347.98-.1.07c.04-.03.08-.04.1-.07a.8.8 0 0 1 .05-.2.6.6 0 0 1-.05.18v.02Zm19.18-48.58c-.04 0-.06.03-.07.03 0 0 .05-.03.08-.03.01-.1.06-.18.06-.28 0 .1-.05.18-.05.26l-.02.02Zm232.56 31.54Zm-4.36-62.03c1.26-2.83 4.84-3.94 5.44-7.3-.6 3.38-4.18 4.47-5.44 7.3Zm-255.98 305.99Zm252.5-270.83c.1-.17.26-.37.38-.54-.12.19-.29.39-.39.54Zm-264.98 268.57 1.53.42-1.53-.41Zm-13.3-7.68c-.09.03-.19.05-.28.1.1-.05.2-.07.28-.1Zm-84.64-106.03c.43.36.83.75 1.24 1.14l-1.24-1.14Zm-163.99-247.13c3.08-1.45 3.04-1.42 4.9 1.37.75 1.11 1.17 2.6 3.15 3.07-.68-2.63-2.83-4.17-3.18-6.61 1.33-.66 2.51-1.28 3.72-1.81 46.27-20.6 93.62-38.17 143.1-49.4 23.95-5.42 48.09-9.96 72.78-10.32 5.44-.1 10.89-.6 16.3.44.67.13 1.48.8 2.15-.5-2.38-1.43-5.01-1.47-7.6-1.5-9.83-.1-19.66.28-29.46 1.2-18.28 1.75-36.21 5.4-54.14 9.2-3.88.83-3.01 1.2-4.98-2.1-4.71-7.86-8.64-16.17-12.91-24.27-8.36-15.85-15.35-32.4-24.11-48.08-.16-.28-.03-.74-.04-1.19 1.1-.23 2.13-.51 3.18-.68 10.62-1.66 21.22-3.32 31.84-4.95 6.3-.96 12.57-2.07 18.95-2.28.56-.55 1.22-.45 1.89-.32 3.03-.45 6.07-.87 9.1-1.2 3.04-.3 6.1-.5 9.18-.52.57-.54 1.26-.44 1.93-.3.48-.08.94-.15 1.4-.17.48-.03.94 0 1.41.13.6-.6 1.32-.44 2.02-.29l.39-.04c.47-.05.94-.1 1.41-.13a4.4 4.4 0 0 1 1.8.2c.6-.65 1.33-.41 2.04-.28.28-.02.55-.04.84-.08.46-.04.91-.08 1.37-.1.73-.01 1.46.06 2.19.31.88-.81 1.87-.35 2.83-.26.87 0 1.75-.13 2.6-.14.44 0 .87 0 1.3.06.43.06.85.16 1.28.36 1.17-.94 2.4-.3 3.62-.22a31.55 31.55 0 0 1 5.15.14c.56.05 1.13.16 1.7.26 1.93-.84 3.9-.22 5.82.02 4.65.59 9.45.24 13.97 1.9 1.09-.04 2.14.11 3.17.36.42.1.83.22 1.25.34 1.21.09 2.49-.12 3.46.86.94-.05 1.85.1 2.72.36.3.08.59.18.88.29.71 0 1.47-.06 1.94.67 1.07.1 2.12.31 3.15.6 1.33.36 2.62.8 3.93 1.25.78.26 1.56.52 2.34.73 2.78.77 5 2.16 6.22 4.86.54-.2.92-.47.7-1.15-.72-2.2-2.33-3.47-4.41-4.25a106.29 106.29 0 0 0-15.24-4.6c-19.62-4.29-39.5-4.98-59.45-3.75-15.77.96-31.42 3.04-47.06 5.22-23.93 3.33-47.62 7.75-70.95 14a495.7 495.7 0 0 0-28.12 8.54c-7.6 2.53-15.16 5.22-22.78 7.71-8.5 2.8-16.75 6.3-24.91 9.8-6.58 2.81-13.44 5.15-19.73 8.68-1.45.81-3.14 1.05-4.6 1.97a23.83 23.83 0 0 1-4.36 1.97c-1.56.58-3.08 2.37-4.67 1.51-3.02-1.63-1.33 2.81-3.37 2.31-.52-.13-1.25.31-1.9 0l-.24 2.38 4.36-1.83c.4.61.72 1.02.96 1.47 12.3 23.18 24.61 46.36 36.88 69.56 1.09 2.06 3.45 4.2 2.75 6.25-.63 1.82-3.71 2.2-5.73 3.18a488.97 488.97 0 0 0-46.04 25.14c-.96.6-1.85 2.17-3.4.99l-.32 3.17c3.81-2.4 7.56-4.87 11.43-7.18a477.43 477.43 0 0 1 42.22-22.4l.03.08Zm1.57-7.5c-6.82-12.64-13.54-25.29-20.29-37.96a9918.26 9918.26 0 0 1-15.5-29.21 71.2 71.2 0 0 1-1.76-3.57c-1.25-2.67-1.27-2.78 1.54-4.06 25.42-11.45 51.04-22.34 77.62-30.9 19.72-6.37 39.63-11.92 59.93-16.04.78-.15 1.6-.2 2.34-.49 1.77-.7 2.57.17 3.4 1.64 4.11 7.3 7.65 14.88 11.3 22.39 8.22 16.82 16.42 33.64 25.67 49.93.26.45.41.96.77 1.87-7.73 2.06-15.17 4-22.56 6.05-39.72 11.04-78.14 25.64-115.75 42.43-5.14 2.3-4.04 2.83-6.71-2.14v.05Z" fill="#fff"/><path d="M286.45 70.38c.87 0 1.74-.13 2.6-.15-.87.03-1.73.15-2.6.15Zm3.92-.1Zm35.95 3.19c-.43-.12-.83-.25-1.26-.34l1.26.34Zm-77.79-.38Zm32.9-2.77Zm18.97.25Zm-25.01 0c.3 0 .6-.01.9.02-.3-.03-.6-.04-.9-.02Zm-108.46 139.33c19.04-7 38.09-14.12 57.58-19.75 28.34-8.2 57.34-13.28 86.53-17.25 3.8-.51 7.66-.78 11.31-2.1.66-.24 1.56-.35 1.3-1.71a66.5 66.5 0 0 1-10.09 2.12c-24.82 2.82-49.26 7.79-73.6 13.28-16.61 3.74-32.6 9.51-48.62 15.11-46.77 16.33-92.65 34.84-137.1 56.85a658.66 658.66 0 0 0-24.31 12.79c-.98.54-1.92 2.17-3.4.72l-.3 3.18a350.1 350.1 0 0 1 26.19-14.22c37.22-18.55 75.47-34.7 114.5-49.02Zm-.75-23.96c-2.23.06-4.53.04-6.66.93a103.48 103.48 0 0 0-13.57 6.7c-1 .6-2.03 1.17-2.4 2.48-.23.82-.6 1.52.23 2.11 1.92 1.4 2.62 3.64 3.84 5.5.85 1.28 1.25 1.92 1.83 2.13.33.11.71.1 1.24-.02.43-.09.94-.22 1.63-.42.43-.68 1-1.14 1.72-1.3.2-.05.43-.05.68-.04 0-.03.04-.04.04-.08l.2-.03c2.61-2.37 6.08-2.95 9.23-4.14-3.04 1.45-5.76 3.63-9.24 4.14-.04.05-.09.07-.13.1h-.1c-.06.19-.16.35-.3.48-.42.43-1.1.53-1.6.87l.14.96c.27.03.51.09.77.16 3.85-1.78 7.7-3.59 11.57-5.34a13.58 13.58 0 0 0 5.97-5.03c1.44-2.14 1.68-4.07.46-6.28-1.22-2.22-2.9-3.96-5.57-3.89h.02Zm-1.24 11.8c-4.46 1.7-8.93 3.37-12.99 5.92-1.44.9-2.33.76-3.17-.76-1.13-2.09-2.44-4.08-3.85-6.41 5.1-3.18 10.09-5.92 15.48-7.81 3.98-1.4 4.93-.99 6.87 2.88 2.19 4.35 2.19 4.49-2.32 6.2l-.02-.02Zm5.5-2.87-3.62-7.15c3.83 1.5 4.64 3.04 3.62 7.15Zm-117.95 39.79c-4.27 2.9-8.32 6.12-12.48 9.2-.36.27-.55.6-.25.96.3.35.69.35 1.08.28l.4-.08c.44-.46.88-.92 1.44-1.48.01 1.03-.33 1.7-.99 2.2-.01.7.06 1.36.16 2.03a15.39 15.39 0 0 0 2.33 5.4c1.65 2.6 3.62 2.93 5.33.46 1.87-2.7 4.52-3.95 7.2-5.4 6.3-3.37 7.34-2.7 3.6-11.29a5.3 5.3 0 0 0-7.86-2.29h.04Zm.26 12.65c-1.85 2.38-4.28 3.86-7.28 4.92-1.07-1.14-1.43-2.43-1.91-3.64-.54-1.33-.47-2.59.48-3.72 2.9-3.5 6.33-6.33 10.39-8.4 1.18-.6 2-.44 2.64.69.4.69.84 1.35 1.2 2.05 1.05 2.04.53 3.67-1.54 4.88a13.44 13.44 0 0 0-3.98 3.24v-.02Zm2.3.1c1.92-2.34 3.84-2.92 6.35-3.91-1.93 1.96-3.7 2.8-6.35 3.9Zm-13.34-1.66Zm174.27-70.55c-1.55-.66-2.87-1.87-4.32-2.78a6.2 6.2 0 0 0-5.33-.69 35 35 0 0 0-14.08 7.85c-1.13 1.04-1.87 2.2-1.9 3.22-.32 4.03 1.8 6.56 3.53 9.16 1.59 2.38 2.77 2.76 5.4 1.57 6.5-2.94 12.7-6.5 19.42-9.01.62-.23 1.37-.74 1.1-1.42-1.05-2.72-.14-6.36-3.84-7.9h.02Zm-16.14 16.6c-3.24 1.55-3.21 1.44-5.04-1.72-.95-1.63-1.53-3.37-2.25-5.08-.85-2.05-.22-3.56 1.54-4.8 4.07-2.8 8.54-4.85 13.1-6.68 2.6-1.05 4.66.57 6.34 2.32 1.93 2.01 3.3 4.45 4.74 7.38-6.61 2.55-12.45 5.7-18.43 8.6v-.02Zm-75.37 12.67c-.6-1.82-1.85-2.44-3.74-1.76-3.72 1.38-7.48 2.66-11.04 4.42-1.07.53-2.18 1.1-1.91 2.64 2.55-.12 4.78-1.42 7.22-1.95 2.07-.45 4.14-1.1 6.25-.51 1.37.38 2.84.74 3.34 2.43.24.82.43 1.56-.54 1.98-5.36 2.34-9.8 6.13-14.84 9.72-.63-4-2.63-7.25-2.3-11.04-.8.06-1.16.59-1.14 1.31.05 3.63 1.34 7 2.38 10.39.42 1.34 1.74 1.47 3 .88 1.56-.73 3.12-1.45 4.65-2.24 3.06-1.57 6.13-3.1 9.1-4.84 2.06-1.22 3.51-5.44 2.27-6.73a11.88 11.88 0 0 1-2.73-4.7h.03Zm-7.3 1.15c3.39-1.48 5.4-1.28 6.04.6l-6.04-.6Zm-1.79 13.4c2.92-2.7 6.1-4.89 10.05-5.76-2.82 2.85-6.4 4.4-10.05 5.75Zm183.72-54.48c-1.51-1.02-.72-2.43-.84-3.61-.56-5.08-1.27-5.87-6.27-6.26-.54-.05-1.05-.04-1.8-.06-2.3-.26-4.8-.2-7.32-.05-2.13.15-3.28 1.1-4.67 2.87-2.08 2.67-1.39 5.15-1.05 7.79.36 2.66 1.16 3.52 3.85 3.58 5.99.12 11.81-1.07 17.5-2.95.55-.18 1.44-.73.6-1.31Zm-2.6-.8c-.75 1.67-2.34.66-3.55.88-3.62.68-7.26 1.31-10.89 2-1.89.36-2.73-.42-2.68-2.29.02-1.45-.02-2.9.09-4.35.28-3.53.74-3.99 4.38-4.12 1.6-.06 3.17.03 4.05.05 2.52.1 4.27.12 6.12.65 1.97.57 2.56 1.58 2.72 3.27.13 1.31.3 2.7-.25 3.92Zm33.24-5.44c-.05-.38-.1-.77-.17-1.16-.6-3.52-1.46-4.17-5.09-3.86-1.43.13-3 1.08-4.24.3-1.65-1.02-2.98-.37-4.46.07-.81.24-1.57 1.19-2.5.26-.42.34-.84.7-1.24 1.05-.08 1.66.16 3.29.49 4.9.21 1.1.47 2.18.69 3.25l.22 1.16c.47 2.8 1.53 3.42 4.47 2.92 1.95-.32 3.88-.84 5.82-1.07 6.7-.8 6.86-.96 6.03-7.81h-.02Zm-6.48 6.46c-2.32.34-4.62.82-6.92 1.21-1.23-1.92-.96-4.2-2.08-6.03-.55-.9-.09-1.67.78-2.32 3.36-2.5 7.37-2.58 11.27-3.06.73-.07 1.2.52 1.43 1.16.26.75.43 1.53.54 2.31.8 5.9.78 5.88-5.03 6.73h.01Z" fill="#fff"/><path d="M313.2 163.1c-.21-1.1-.47-2.18-.69-3.25.22 1.09.48 2.17.7 3.24Zm-60.07-1.3c-3.53.4-7.06.98-10.54 1.7-2.99.6-4.03 2.37-3.44 5.25.31 1.56.65 3.1.98 4.65.7 3.19 1.05 3.49 4.2 3.25 3.83-.3 7.49-1.44 11.17-2.39 3.14-.8 3.37-1.07 3.61-4.1.25-1.52-.12-3.07-.54-4.59-.9-3.24-2.06-4.14-5.46-3.75l.02-.02Zm1.9 11.05c-3.26-.02-6.5.78-9.68 1.74-2.66.81-3.24.32-3.8-2.36-1.33-6.41-.92-7.02 5.53-8.18 1.93-.35 3.9-.7 5.86-.85 3.16-.2 3.62.22 4.43 3.2.36 1.31.28 2.63.3 3.86-.2 1.64-.5 2.6-2.65 2.59h.02Zm-166.19 45.25a36.97 36.97 0 0 0-8.27 3.21c-4.89 2.5-6.83 8.66-4.42 13.63.47 1 1.05 1.51 2.16.95.35-.18.68-.45 1.04-.56 3.59-1.1 6-5.13 10.45-4.13.49.12.73-.66.73-1.21.06-1.62-.5-3.14-.93-4.66-.62-2.16-1.35-4.29-.78-7.22h.02Zm-3.9 12.64-6.33 3.33c-.52-1.02-1.03-1.96-1.32-2.82-1.37-4.01 3.53-10.08 7.8-9.93.8.03 1.18.45 1.4 1.14.7 2.22.17 4.46.08 6.69-.03.86-.92 1.21-1.6 1.58l-.02.01Zm179.51-178.51c.19 2.84.34 5.74.6 8.64.1 1.4.81 2.35 2.37 1.67 4.06-1.76 8.34-1.1 12.57-1.3 1.63-.07 2.75.3 4 2.13.51-4.52-.05-8.04-.37-11.58-.33-3.56-1.34-4.77-4.83-4.91-4-.18-7.95.44-11.85 1.23-.65.12-1.48.25-1.82.7-1.1 1.45-2.69 1.51-4.21 1.85-.65.15-1.33.27-1.13 1.34 1.46.43 3.05-.85 4.65.24l.02-.02Zm16.83-3.66c.02.3.04.63.04.93l-13.78.3c4.55-1.07 9.1-2.23 13.72-1.23h.02Zm-1.97 2.42c1.51.03 2.55.56 2.63 2.26.01.25.14.51.16.77.71 6.76 1.24 5.93-4.93 5.8-3.41-.07-6.82.13-10.28 1.3-1.07-3.2-.62-6.36-1.15-9.59 4.63-.6 9.1-.66 13.57-.54Zm-194.97 50.33c1.32 2.92 2.43 3.38 5.26 1.87 5.15-2.75 10.27-5.53 15.87-7.3 1.73-.55 2.27-1.72 1.62-3.4-.76-1.98-1.57-3.93-2.35-5.9-.36-.92-.9-1.8-1.93-1.72-2.3.2-4.43-.84-6.7-.64-1.4.11-2.78.28-3.38 2.36 1.9-.52 3.28-1.65 5.4-.7-3.67 2.3-7.74 3.06-11.45 4.67-3.93 1.69-4.81 3.39-3.55 7.42.36 1.14.71 2.28 1.2 3.36l.01-.02Zm4.65-10.18c3.21-1.2 6.38-2.52 9.6-3.76 2.32-.9 2.95-.68 4.04 1.53.7 1.42 1.2 2.92 1.8 4.39.01.82-.6 1.12-1.2 1.4-4.89 2.31-9.8 4.6-14.7 6.92-1.34.63-2.27.4-2.74-1.1-.19-.64-.43-1.25-.6-1.89-1.5-5.1-1.19-5.63 3.8-7.5Zm223.16-30.48c1.2 2.97 2.24 3.6 5.48 3.2 3.45-.42 6.89-.52 10.33-.08l4.73.7c1.42.23 2.08-.37 1.74-1.76-.75-3.08-1.31-6.2-2.76-9.1-.69-1.38-1.46-1.87-2.7-1.7-3.56.43-7.06-.56-10.6-.33-1.35.09-2.17-.93-3.32-1.12-1.93-.34-.37 2.42-2.39 2.52-2.35.12-2.39 2.02-1.72 3.9.45 1.24.72 2.55 1.2 3.79v-.02Zm4.04-6.5 11.45-.62c1.87-.1 3 .79 3.59 2.48.75 2.12 1.46 4.22 1.52 7-5.5-.97-10.87-1.43-16.43-.27.02-2.93-.7-5.63-.15-8.6h.02Zm-3.54.35c.55-.2 1.05.12 1.18.72.41 1.93.76 3.86.4 5.93-1.35-1.65-1.75-3.7-2.12-5.73-.06-.28.28-.81.55-.92h-.01Zm-183.22 34.15c.34 2.48 2.36 2.88 4.35 1.19.78-.68 1.75-1.18 2.67-1.66a82.4 82.4 0 0 1 10.16-4.47c4.02-1.5 4.03-1.6 3.1-5.73-.18-.77-.27-1.56-.4-2.35-.7-3.59-1.7-4.49-5.43-4.05a53.5 53.5 0 0 0-11.92 2.88c-2.03.73-3.12 1.92-2.62 4.85-.58-1.37-.88-2.07-1.16-2.77-.2-.5-.49-1.03-1.12-.84-.78.24-.93 1.06-.63 1.6 1.88 3.57 2.48 7.44 3 11.36v-.01Zm2.7-12.76c3.88-1.24 7.8-2.43 11.85-2.91.39-.05.84-.19 1.18-.07 3.26 1.15 2.41 4.53 3.57 6.81.75 1.46-.75 2.03-1.89 2.42-4.88 1.71-9.5 4.04-14.5 6.55-1.34-3.57-1.4-6.88-1.9-10.1-.22-1.4.3-2.26 1.68-2.7h.01Zm97.09-15.57c.96 4.87 2.42 5.75 7.19 4.6 2.8-.7 5.43-2.05 8.43-2.14 4.02-.1 4.38-.6 4.67-4.74.08-1.11.12-2.04.08-2.85-.03-.54-.09-1-.18-1.4-.52-2.26-2.2-2.82-6.28-3.12a40.9 40.9 0 0 0-7.44.02c-.82.07-1.65.16-2.48.26-2.01.26-3.4 1.5-4.62 2.82-.86.92.15 2.24.22 3.4.08 1.06.18 2.12.4 3.15h.01Zm2.67 3.35c2.08-1.45 4.32-.26 6.15-1.1-1.87.87-3.68 2.1-6.15 1.1Zm1.9-11.4c3.82-.67 7.66-.28 11.47-.1 2.6.1 3.33 1.75 3 5.61.27 1.62-.79 2.35-2.38 2.76-4.27 1.09-8.7.54-13 1.12-.47.07-1.29-.1-1.44-.4-1.04-2.06-1.09-4.32-.82-6.55.2-1.77 1.67-2.16 3.18-2.43h-.02Zm-66.09 25.42c.96.44.86-1.11 1.63-1.34 1.27-.36 2.5-.82 3.79-1.15 3.07-.82 6.17-1.48 9.19-2.4 2.03-.63 2.42-1.56 1.35-3.23-1.45-2.27-2.31-4.74-3.22-7.22-1-2.72-1.76-3.16-4.45-2.57-4.03.9-7.64 2.95-11.42 4.45-.96.37-1.4 1.16-1.42 2.53.36 2.83.94 5.96 2.26 8.86.4.87 1.39 1.66 2.3 2.08l-.01-.02Zm-.8-12.97c2.68-1.16 5.35-2.33 8.1-3.27 2.86-.97 3.5-.62 4.4 2.14.82 2.53 2 4.89 3.53 7.6-4.63 1.24-8.84 2.39-13.02 3.53-1.2.34-2.04.12-2.37-1.28-.38-1.7-1.3-3.17-2.04-4.71-1.1-2.23-.8-3.04 1.4-4Zm-118.06 53.79c.6 2.85 1.26 3.03 3.7 1.38 2.62-1.78 5.03-3.87 8.18-4.78 2.34-.67 4.33-1.78 3.76-5.48a15.8 15.8 0 0 1 3.94 6.47c.76-.85.85-1.44.64-1.9a36.77 36.77 0 0 0-7.02-10.52c-1.34-1.38-3.3-2.04-5.16-1.27-3.15 1.33-6.4 2.46-9.13 4.69-1.43 1.18-1.84 2.39-1.12 4.16a44.87 44.87 0 0 1 2.2 7.22l.01.03Zm.26-10.55a41.03 41.03 0 0 1 8.32-3.6c1.3-.37 2.07.07 2.7.97.6.86 1.06 1.83 1.52 2.77 1.28 2.63.55 4.58-2.18 5.84-3.08 1.43-5.8 3.5-8.71 5.6-1.03-3.15-1.9-5.89-2.8-8.6-.44-1.33-.1-2.26 1.15-2.96v-.02Zm148.76-42.95c.49 2.13 1.8 2.73 3.84 2.34 2.34-.45 4.7-.8 7.04-1.23 6.48-1.16 6.45-1.16 4.93-7.52-.51-2.12-1.64-3.27-3.88-3.19-3.7.1-7.42.33-11 1.37-2.53.74-2.91 1.82-2.05 4.43.41 1.25.82 2.51 1.13 3.81l-.01-.01Zm5.4-7.7c1.96-.29 3.95-.33 5.92-.47 1.87-.13 3.06.53 3.15 2.6.05 1.05.27 2.1.45 3.13.19.99-.28 1.53-1.18 1.69-3.5.61-7.02 1.19-10.54 1.78-.91-.02-1.53-.42-1.86-1.25a1.9 1.9 0 0 1-.13-.38c-1.5-6.2-3.1-6.02 4.18-7.11l.02.02Zm268.87 437.2c-3.25.72-6.31 2-9.35 3.31-1.13.5-2.09 1.22-1.77 2.72 3.23-2.19 6.85-3.4 10.56-4.45 2.77-.76 3.8-.41 4.36 1.21.68 1.96-.08 3.72-2.32 4.82-3.32 1.62-6.86 2.8-9.85 5.36-1.64-2.04-2.14-4.4-3.24-6.49-.14.1-.27.21-.38.33-.34.36-.53.79-.3 1.35.66 1.58 1.27 3.2 2.08 4.73.85 1.63 2.12 1.87 3.54.61 2.14-1.88 4.76-2.83 7.3-3.95.97-.42 1.96-.84 2.82-1.46 1.6-1.13 2.34-4.22 1.57-6.15-.72-1.82-2.34-2.51-5.02-1.92v-.02Zm-11.61 6.45Zm-13.4 8.08a14 14 0 0 0-2.87 1.34c-2.28 1.38-4.48 2.87-6.74 4.27-.74.46-1.7 1.19-1.99-.5-.11-.69-.63-.84-1.12-.62-.24.1-.45.7-.4 1.01a20.8 20.8 0 0 0 2.7 7.02c.65 1.1 1.68 1.16 2.78.68 3.17-1.34 6.36-2.68 9.55-4 .78-.33 1.4-.79 1.46-1.84-.44-2.08-.88-4.27-1.44-6.47-.24-.94-1.12-1.18-1.93-.9v.01Zm-2.91 9.62a92.93 92.93 0 0 0-3.97 1.77c-1.14.54-2.24 1.02-2.95-.59-.53-1.2-1.29-2.38.23-3.48 3.09-2.22 6.16-4.46 9.98-6.06 1.25 4.14.16 6.93-3.3 8.35v.01Zm63.91-42.79c-3.49-.04-6.77 1.18-10.08 2.06-2.04.55-2.84 2.91-1.7 4.71.92 1.45 1.86 2.89 2.7 4.38.87 1.53 1.91 1.65 3.2.58 2.04-1.71 4.3-3.1 6.58-4.42a5.58 5.58 0 0 0 2.68-3.79c.52-2.27-.6-3.51-3.4-3.53l.02.01Zm1.56 4.53a5.56 5.56 0 0 1-1.99 1.9 757.4 757.4 0 0 0-7.14 4.53c-1.33-2.35-2.48-4.4-3.87-6.9 3.78-1.31 7.42-2.64 11.38-2.63 2.2 0 2.75 1.16 1.62 3.1Zm-146.95 74.48c-.58.3-1.15.65-1.72 1-4.12 2.64-4.18 2.88-1.25 6.78.1.1.18.23.25.36.59.84 1.17 1.75 2.35 1.91h.4a.6.6 0 0 0 .38-.06c3.4-1.75 6.8-3.49 10.16-5.32.85-.47.72-1.28.2-2.05-2.97-4.37-6.21-5.15-10.8-2.63h.03Zm1.07 8.12c-1.48.8-2.2-.08-2.88-1.1-.79-1.16-2.02-2.4-.53-3.8a15.04 15.04 0 0 1 6.15-3.38c.98-.3 1.8.07 2.52.7.98.87 1.97 1.72 3.45 3-3.2 1.68-5.99 3.08-8.72 4.58h.01Z" fill="#fff"/><path d="M360.03 563.01c.59.84 1.15 1.75 2.34 1.92h.41a1.54 1.54 0 0 0-.4 0c-1.19-.17-1.75-1.07-2.35-1.92Zm31.14-18.49c-1.2-.8-2.55-1.37-3.84-2.08-4.07-2.24-5.32-2.06-8.56 1.35-1.38 1.45-2.62 3-2.86 5.49 1.24-.05 2.39-1.24 3 .62.33.97 1.1 1.81 1.76 2.63.68.85 1.62 1.06 2.4.23 2.23-2.37 5.14-3.69 7.93-5.22 1.64-.9 1.65-2.03.16-3.02h.01Zm-8.09 6.38c-.38.38-.83.68-1.38.48-1.99-.73-3.08-5.57-1.6-7.04 2.4-2.42 3.28-2.52 6.48-.72 1.26.69 2.53 1.35 4.37 2.35-3.03 1.77-5.76 2.88-7.87 4.94v-.01Zm38.62-26.2c-1.22-.5-2.73-.69-3.65-1.51-2.27-2.05-4.1-1.06-5.99.4a12.7 12.7 0 0 0-3.87 4.46c-.74 1.55-.75 1.5 1.23 2.48.43.2.73.72 1.05 1.14.66.83 1.27 1.7 1.91 2.54 1 1.32 2.1 1.5 3.33.3 2.09-2.03 4.2-4.04 6.27-6.08.47-.45.79-1.02 1.06-1.38.2-1.37-.41-1.96-1.36-2.34l.02-.01Zm-7.1 9.06c-1.6-.36-2.04-1.57-2.69-2.47-2.35-3.29-1.34-6.23 2.5-7.6.8-.28 1.57-.32 2.23.24 1.34 1.17 3.07 1.47 5.16 2.25-2.2 3.17-5.18 4.97-7.2 7.58Zm61.78-159.01c-1.82 1.54-3.32 3.55-5.36 4.67-1.57.87-2.33 2.21-2.99 3.45-.74 1.4.78.61 1.36.69.72-1.05 1.27-.73 1.73.21a97.17 97.17 0 0 0 1.8 3.52c1.34 2.6 2.02 2.85 4.09 1.02 3.09-2.74 6.56-4.9 9.9-7.27a18.9 18.9 0 0 0 2.48-1.95c.84-.82 1-1.8.24-2.83a9.36 9.36 0 0 0-13.27-1.51h.02Zm-1.28 13.59-3.1-6.07c-.42-.84-.15-1.5.5-2.1 1.97-1.77 3.9-3.56 5.89-5.3a4.46 4.46 0 0 1 5.18-.69c1.77.86 3.66 1.55 5.44 3.5-4.36 3.76-9.63 6.23-13.9 10.64l-.01.02Z" fill="#fff"/><path d="M471.12 383.8c.6 1.17 1.17 2.34 1.8 3.5-.61-1.15-1.2-2.35-1.8-3.5Zm100.76-75.72c-.17.82-.18 1.6-.12 2.4.06.77.22 1.53.4 2.3.4 1.53.93 3.02 1.27 4.54.22.99 1.14.85 1.93.56a6.29 6.29 0 0 1 2.85-2.45 38.11 38.11 0 0 1 7.04-4.5c.12-.36.35-.57.77-.53.61-.5 1.26-.97 1.88-1.46.61-.49 1.25-.98 1.85-1.5 2.61-2.29 2.51-3.13-.6-5.3-.96-.14-1.92-.26-2.87-.37-1.86.13-3.7.34-5.54.43l-1.85.05c-1.5 0-2.38.62-3.14 1.76a9.76 9.76 0 0 0-1.6 3.44c-.43 1.3-1.58.18-2.26.65l-.01-.02Zm5.67-3.66c.7-1.3 10.77-1.5 11.93-.55.65.53.67 1.2.15 1.72-.94.92-1.93 1.81-3.04 2.56-3.85 2.58-7.74 5.1-12 7.9-1.78-4.74 1-8.1 2.94-11.61l.02-.02Zm-5.38 8.35Zm-.29-4.69Zm-174.02 123.59c.32-4.35-.78-5.2-4.65-3.38-2.98 1.41-5.9 2.98-8.77 4.6-5.19 2.97-5.16 3-2.66 8.42 1.25 2.7 1.73 2.94 4.08 1.33a36.14 36.14 0 0 1 8.07-4.19c2.74-.99 4.23-2.6 3.78-5.3.07-.7.1-1.1.15-1.48Zm-3.5 5.08c-3.5 1.48-7.01 2.94-10.3 5.56-3.16-5.85-3.2-5.92 1.86-8.7 3.28-1.8 6.48-3.9 10.52-4.92-.1 2-.24 3.68-.24 5.34.02 1.39-.58 2.18-1.83 2.7v.02Zm61.27-44.75c-.77-2.35-1.2-2.52-3.31-1.16-2.77 1.79-5.43 3.73-8.12 5.63-.16.11-.32.21-.47.33-.3.24-.57.52-.65.9-.06.17-.04.39-.02.63 1.61-.05 2.53-1.36 3.72-2.11 2.3-1.48 4.54-3.05 7.06-4.76.95 2.16 1.5 4.09 2.8 5.6.75.88.72 1.7-.42 2.22a33.26 33.26 0 0 0-9.61 6.9c-1.15-1.64-1.34-3.38-1.82-5-.28-.93-.75-1.72-1.97-1.38a22.3 22.3 0 0 0 3.1 8.18c.25-.01.51 0 .76.05.77-.76 1.57-1.51 2.37-2.22a35.18 35.18 0 0 1 8.05-5.48c2.1-1.01 2.15-1.66.82-3.75a20.5 20.5 0 0 1-2.28-4.56l-.01-.02Zm-8.95 16.03Zm-3.62-10.33a1.72 1.72 0 0 1 0 .01Zm-22.13 13.9c-4.68 1.46-8.46 4.85-13.2 6.3-.68.21-1.34 2.5-.86 2.5 2.65-.02 2.56 2.26 3.48 3.6 1.52 2.24 2.06 2.46 4.52 1.07 2.2-1.23 4.22-2.79 6.5-3.84a6 6 0 0 0 3.75-5.4c.52-4.17-.77-5.28-4.17-4.23h-.02Zm-.41 8.53c-2.72 1.3-5.21 3.03-7.87 4.61-1.48-1.78-2.15-3.63-3.16-5.49a55.06 55.06 0 0 1 11.63-6.26c2.19-.89 2.9-.15 2.63 2.16-.27 2.2-.99 3.91-3.23 4.98Zm-52.28 27.74c-.74-4.27-1.76-4.88-5.47-2.88a81.89 81.89 0 0 0-7.38 4.63c-4.94 3.34-4.91 3.38-1.6 8.21 1.5 2.17 2.18 2.36 4.02.62a40.02 40.02 0 0 1 8.87-6.62 3.85 3.85 0 0 0 1.27-.9c.34-.37.54-.85.55-1.47-.08-.52-.17-1.05-.27-1.56v-.03Zm-1.8 2.46c-.61.5-1.36.8-2.05 1.19-3.11 1.75-5.68 4.24-8.57 6.81-3.55-5.54-3.6-4.93 1.19-8.2a88.03 88.03 0 0 1 6.75-4.12c.7-.4 1.62-1.1 2.44-.03.77 1 .97 3.77.22 4.37l.02-.02Zm1.8-2.46Zm143.28-94.27c.1-2.56-.6-3.14-3.03-2.48-3.62 1.02-6.79 3-9.9 5.07-.5.33-.86.73-1.1 1.2-.16.3-.28.63-.37.98l-.08.52c-.04.37-.04.73 0 1.12 3.68-3.68 8.04-6.1 13.22-7.78-.04 2.38-.53 4.4.03 6.02.72 2.04-.34 3.04-1.49 3.91-2.62 1.98-5.42 3.71-8.32 5.67-1.02-1.69-1.14-3.44-1.67-5.04-.33-1-.42-2.15-1.87-2.2.07 2.53 1.2 4.8 1.8 7.17.48 1.87 1.37 2.12 2.9 1.09 2.96-1.99 5.88-4.04 8.73-6.17 1.57-1.18 2.47-2.66 1.52-4.81-.58-1.33-.46-2.82-.4-4.28l.03.02Zm-14.39 4.77Z" fill="#fff"/><path d="M497.06 358.9c.01-.19.03-.37.08-.53-.03.18-.07.34-.08.52Zm-203.12 117c-2.1.8-4.25 1.54-6.23 2.56-1.89.99-3.47 1.28-4.7-.7-1.2.93.3 2.3-1.07 3-.97.48-2.48.35-2.65 1.94.28.08.54.25.75.2 2.3-.62 3.96.17 4.95 2.35.05.12.1.24.13.38.64 1.8 1.74 2.19 3.36 1.16a28.84 28.84 0 0 1 5.4-2.52c4.91-1.8 4.85-1.8 3.03-6.85-.57-1.6-1.46-2.13-2.97-1.54v.01Zm-6.82 10.07c-.42-.49-.67-.67-.76-.9-1.1-2.6-.35-4.45 2.26-5.55 1.47-.61 2.96-1.18 4.38-1.88 1.54-.73 2.47-.53 2.85 1.3.16.88.58 1.7.95 2.76-3.37 1.26-6.63 2.36-9.68 4.25v.02Zm233.4-140.47c.5 2.83.6 5.75 2.04 8.37l1.5.14 2.68-1.52c.12-.36.34-.57.75-.53l1.76-1.27c.58-.43 1.17-.85 1.75-1.3 1.23-.98 2.57-1.9 3.58-3.09 1.88-2.24.88-4.79-2-5.29a6.03 6.03 0 0 0-3.12.18c-2.6.92-5.18 1.85-7.79 2.75-.8.27-1.33.45-1.13 1.57l-.02-.01Zm6.59-1.93c1.73-.65 3.44-1.42 5.37-1.1 1.54.27 2 1.18 1.3 2.57a3 3 0 0 1-.7.93 40.16 40.16 0 0 1-9.26 6.25c-.37-.26-.54-.3-.58-.4-1.96-5.88-1.84-6.12 3.88-8.25h-.01Zm-209.35 123.43c-2.82 1.17-5.27 2.9-7.97 4.81 1.3.87 1.74 2.06 2.3 3.2 1.39 2.84 2.07 3.03 4.91 1.33 2.49-1.5 4.88-3.2 7.75-3.88.79-.2 1.6-.25 1.77-1.4-1-.93-2.16-1.82-3.07-2.9-1.63-1.97-3.5-2.07-5.67-1.15l-.02-.01Zm-1.32 8.05c-.82.52-1.85 1.54-2.7.14-.72-1.2-1.75-2.6-.38-3.96a12.5 12.5 0 0 1 6.24-3.37c2.29-.48 3.02 1.76 4.67 3.03a53.74 53.74 0 0 0-7.83 4.15v.01Zm229.47-148.19c6.06-4.02 10.95-3.64 13.42 1.21-2.79 1.03-5.23 2.72-7.74 4.16-1.72-1.78-2.05-4.18-3.72-5.73-.95.84-.18 1.55-.1 2.28 1.41 1.4 1.27 3.87 3.3 4.87h1.4a16 16 0 0 0 .8-.64l.03-.03.82-.69a4.85 4.85 0 0 1 1.89-1c.13-.36.37-.55.76-.48.04-.05.1-.06.15-.08.17-.1.36-.17.58-.15.2-.38.53-.51.94-.44.28-.06.53-.12.8-.16l.85-.45c.44-2.14.29-3.48-.89-4.61a11.5 11.5 0 0 0-3.3-1.98l-.33.04-.33-.12c-1.66.12-3.33.1-4.97.33-.99.14-1.98.35-2.93.72-.73.28-1.4.56-1.74 1-.07.1-.13.24-.18.36-.1.4.01.9.5 1.6Z" fill="#fff"/><path d="M555.26 322.88c-1.67.12-3.34.1-4.98.33 1.64-.22 3.33-.2 4.98-.33Zm-2.79 10.75Zm-6.55-6.77c-.47-.68-.6-1.2-.5-1.59-.1.4.01.9.5 1.6Zm14.18 2.67c.45-2.14.3-3.48-.88-4.61 1.17 1.13 1.33 2.45.89 4.61Zm-5.98 2.76-.82.69.82-.69Zm-300.86 61.66c.9.26 1.79.51 2.7.62 2.85.3 3.78-.42 4.2-3.29.19-1.3.25-2.63.38-3.93.33-2.21 1.1-4.37.85-6.66-.25-2.1-1.44-3.48-3.33-3.93-1.8-.42-2.7.67-3.33 2.08a2.78 2.78 0 0 1-1.6 1.62c-.51.2-.97.6-.74 1.16 1.27 2.95-1.01 5.23-1.51 7.82-.6 2.97-.48 3.68 2.38 4.5v.01Zm6.06-15.18c-.91 1.43-1.98.94-3.35.75.97-1.88 2.02-1.2 3.35-.75Zm-6.88 10.26c.43-1.53 1-3.01 1.55-4.5 1.22-3.25 1.24-3.23 5.27-3.3.03 3.19-.66 6.3-1.2 9.41-.3 1.63-1.23 2.09-2.88 1.58-3.02-.92-3.33-1.11-2.74-3.21v.02Zm16.78-45.74a3.8 3.8 0 0 0-3.54 2.14c-3.31 6.04-4.55 12.6-5.06 20 4.18-1.23 6.42-3.08 6.88-7 .5-4.09 1.72-8.01 3.85-11.64 1.52-2.6.81-3.55-2.15-3.5h.02Zm-3.26 16.42c-.2 1.82-1.62 2.88-3.8 3.6.18-1.75.1-3.31.51-4.7a267 267 0 0 1 3.8-11.62c.7-2 1.02-2.1 4.12-1.83a39.39 39.39 0 0 0-4.63 14.55Zm51.82-121.58c-1.28.33-2.53.76-3.79 1.17-1.03.33-2.1.86-2.45 1.88-1.42 4.06-4.3 7.7-3.58 13.54 1-2.31 1.74-2.8 3.44-1.72 2.95 1.85 3.44 1.55 4.98-1.7 1.54-3.23 3.08-6.44 4.52-9.7.52-1.14 1.9-2.36.9-3.6-1.14-1.44-2.68-.2-4.02.13Zm-2.6 12.58c-.42.93-.85 2.24-2.22 1.55-1.29-.64-3.4-.93-2.9-3.1a27.98 27.98 0 0 1 2.48-7.08c.59-1.13 1.75-1.58 2.92-1.87 1.49-.37 2.9-1.18 4.92-.99-1.83 4.07-3.48 7.78-5.18 11.47l-.02.02Zm-58.98 182.82c-6.22-1.12-8.3-1.93-8.4 6.03-.02 1.07.1 2.1.5 3.12.25.63.46 1.25 1.13 1.53 2.33.95 4.62 2.03 7 2.8 1.65.52 2.84-.35 3.22-2.05.18-.76.17-1.58.25-2.36h.1c.02-1.06.24-2.16.04-3.16-.51-2.46-1.56-5.45-3.86-5.86l.03-.05Zm-5.24 9.55c-2.1-.98-2.7-6.5-1.04-8.16a2.4 2.4 0 0 1 1.02-.53c2.19-.62 5.61 1.4 5.66 3.64.06 2.33.36 4.68.5 7.27-2.44-.34-4.3-1.39-6.15-2.24l.01.02Zm7.16-4.83c1.14 1.48.73 3.08.42 4.6-.25-1.55-1.11-2.98-.42-4.6Zm-2.9-12.35c.82-.2 1.37-.75 1.53-1.64.66-3.86 2.26-7.58 2.06-11.86-1.85 1.76-3.77.9-5.58.61-4.57-.73-4.55-.8-5.54 3.89-.13.64-.28 1.3-.52 1.92a3.64 3.64 0 0 0 .08 3.06c.78 1.68 6.15 4.51 7.96 4.04v-.02Zm-5.78-3.97c-.88-.59-1.26-1.28-1.03-2.3.15-.64.26-1.3.37-1.94.54-2.81 2.23-3.83 5.06-3.06 2.53.68 2.7.94 2.32 3.61l-.23 1.07c-.93 4.72-2.46 5.32-6.5 2.64v-.02Zm90.13-217a44.72 44.72 0 0 1 4.74-7.78c.98-1.3.85-2.44-.52-3.37-.88-.59-1.74-1.22-2.64-1.76-2.81-1.66-3.85-1.43-5.37 1.41a57.75 57.75 0 0 0-3.35 7.17 7.32 7.32 0 0 1-1.96 2.77c1.85 1.02 3.52 2.03 5.28 2.87 1.6.76 2.91.64 3.82-1.3v-.01Zm-4.36-7.4c.3-.72.68-1.43 1.03-2.13 1.84-3.63 2.16-3.65 5.52-1.37 1.51 1.03 1.89 1.82.73 3.43-1.68 2.33-3.08 4.86-4.59 7.3-5.83-2.7-4.7-2.33-2.69-7.2v-.03Zm-34.94 70.05c-1.45 3.23-2.86 6.5-4.23 9.78-.22.51-.54 1.25.26 1.75.87-.46 1.65-2.15 2.67-.13.27.54.97.87 1.48 1.28 1.14.97 2.25.87 3-.39 2.06-3.48 4-7 6.14-10.74-2.38-.72-4.45-1.1-6.14-2.44-1.33-1.07-2.5-.58-3.18.9Zm2.72 10.47c-.84 1.53-1.73 1.29-2.8.26-1.39-1.33-2.38-2.68-1.24-4.76 1.01-1.82 1.8-3.79 2.76-5.86 2.1.55 3.62 1.77 5.5 2.7-1.46 2.64-2.87 5.14-4.24 7.66h.02Zm19.11-54.7c-.63 1.44-.42 2.6 1.4 2.95 1.89.35 3.17 1.77 4.99 2.8l4.46-7.88c2.7-4.76 2.69-4.78-2.64-5.99-2.97-.67-4.01-.27-5.48 2.4a67.05 67.05 0 0 0-2.71 5.72h-.02Zm11.02-5.6c-1.03 2.72-2.56 4.88-3.84 7.16-1.44 2.61-2.94.24-4.3-.02-1.58-.3-1.47-1.57-.8-2.79.24-.46.44-.94.67-1.42 2.32-5.14 2.63-5.24 8.29-2.93h-.02Zm-53.12 98.09c-1.24 0-2.4.37-3.17 1.36a31.62 31.62 0 0 0-6.66 15.45c1.8-.27 2.84-.99 4.1-.7 2.17.5 3.23-.77 3.66-2.63.79-3.42 2.38-6.4 4.5-9.15.7-.9 1.69-1.98.82-3.18-.74-1.02-2.03-1.13-3.25-1.14v-.01Zm-3.5 13.17c-.48 1.93-1.9 1.57-3.16 1.31-1.72-.35-.9-1.66-.65-2.55.82-2.96 2.33-5.62 3.96-8.22 1.3-2.1 2.91-3 5.79-1.64-2.85 3.5-4.9 7.04-5.93 11.09v.01Zm15-32.15c-2.09-1.75-3.74-1.78-5.4.41a46.2 46.2 0 0 0-5.8 9.84c-.37.9-1.14 2.08.2 3.08.89-1.35.85-3.06 1.97-4.24 1.13-2.7 2.77-5.1 4.41-7.52.74-1.1 1.7-1.7 3.04-.97 1 .55 1.74 1.16.84 2.47a75.33 75.33 0 0 0-3.55 5.74c-1.12 2.04-2.86.55-4.26.9.81 1.38 2.05 2 3.2 1.78a2.88 2.88 0 0 0 1.83-1.32c1.45-2.2 2.74-4.48 4.15-6.71.85-1.38.58-2.44-.62-3.46h-.01Zm50.64-117.01c2.14 1.53 3.59 3.26 2.16 6.24 3.24-3.06 5.02-6.86 7.24-10.33 1.48-2.31 1.03-3.53-1.38-4.66-2-.97-3.25-.56-4.79 1.31-1.25 1.54-1.29 3.94-3.04 4.94-1.71.97-1.4 1.65-.18 2.52l-.01-.02Zm2.22-2.34a15.14 15.14 0 0 1 2.3-4.53c.82-1.14 1.77-1.3 3.05-.52 1.44.85 1.3 1.74.53 2.92-.8 1.2-1.5 2.5-2.34 3.66-.54.75-.77 2.18-2.28 1.42-1.2-.62-1.8-1.53-1.28-2.93l.02-.02Zm15.89-38.49c-2.05-.1-2.8 1.08-3.5 2.6-.79 1.7-.86 3.85-3.37 4.4-.97.2-.54 1.28-.02 1.95 1.51 1.93 3.52 3.42 4.83 5.6 2.16-3.28 2.86-7.19 5.34-10.17l-.04.03c.68-3.66.13-4.25-3.26-4.43l.01.02Zm-1.74 10.9c-2.94-1.67-2.94-1.72-1.11-6.4.86-2.18 2.63-2.97 5.31-2.37l-4.2 8.76v.02Z" fill="#fff"/><path d="m363.5 143.44.04-.02-.04.03Z" fill="#fff"/><path d="m363.56 143.38-.06.07.04-.03s0-.02.02-.03Zm4.77-50.5c2.92.92 3.32 2.73 2.7 5.3-.07.3.2.71.37 1.23 1.27-1.35 1.05-3.07 1.43-4.5a41.57 41.57 0 0 0 1.23-10.6c.02-1.56-.64-2.85-2.3-3.24-1.67-.4-2.46.8-2.91 2.05-.69 1.89-.8 4.07-1.8 5.76-1.28 2.14-.56 3.44 1.28 4.02v-.02Zm3.9-10.5c.9 3.52.76 6.54-.5 9.8-1.58-.68-2.64-1.48-2.85-3.07-.3-2.09.95-4.74 3.35-6.73Zm-5.83 37.74.24.33c.25.36.6.46 1.01.38.67-.14.84-.67.75-1.18-.5-3.02.86-5.65 1.72-8.37.73-2.28.25-3.03-2.17-3.2-1.76-.14-2.61.2-3.11 1.72-.7 2.08-1.52 4.27-1.56 6.4-.03 1.7 2.25 2.43 3.1 3.92h.02Zm-1.3-6.06c.55-1.45.38-3.17 1.49-4.38.44-.47 1.26-.26 1.85-.02.6.25.6.81.38 1.31-.98 1.98-1.06 4.29-2.34 6.27-1.7-.83-1.79-2.05-1.38-3.17Z" fill="#fff"/></svg>