<svg viewBox="0 0 47 34" fill="none" xmlns="http://www.w3.org/2000/svg"><path d="M0 8.97v16.08a35.02 35.02 0 0 0 23.5 8.96c9.07 0 17.32-3.4 23.5-8.96v-16.08a35.04 35.04 0 0 0-23.5-8.96c-9.06 0-17.32 3.4-23.5 8.96Zm33.6 4.93c3.78-.19 8.34 2.8 7.57 8.52a28.86 28.86 0 0 1-17.67 5.89 28.86 28.86 0 0 1-17.67-5.88c-.77-5.73 3.79-8.71 7.56-8.53a10.18 10.18 0 0 1 10.12-8.42c5.1 0 9.32 3.65 10.11 8.42h-.01Z" fill="#050505"/><path d="M16 15.51a7.5 7.5 0 1 0 15 0 7.5 7.5 0 0 0-15 0Zm10.71 0a3.21 3.21 0 1 1-6.42 0 3.21 3.21 0 0 1 6.42 0Z" fill="#050505"/></svg>