<svg viewBox="0 0 346 84" fill="none" xmlns="http://www.w3.org/2000/svg"><path d="M18.32 47.42c18.83 8.86 41.72 10.65 62.08 13.11 25 3.03 50 6.37 75.1 8.52 22.78 1.95 45.55 2.13 68.38 2.67 31.88.74 65.1 3.93 96.37-4 10.52-2.67 26.38-9.1 23.59-23.08-1.6-7.97-10.6-13.17-17.08-16.63-14.56-7.78-30.95-10.27-47.1-12.48-55.52-7.6-112.26-9.06-168.23-10.33-31.9-.73-67.65-4.18-95.7 14.07-5.54 3.6-13.08 9.56-13.7 16.89-.91 10.72 20.02 15.25 26.74 17.26 19.81 5.93 40.26 9.55 60.6 13.18 17.52 3.14 35.02 6.64 52.62 9.37 30.16 4.7 62.81 8.46 93.3 4.56 21.42-2.74 43.18-9.37 63.7-16.04 9.42-3.06 22.58-5.52 29.48-13.37 4.7-5.35 3.25-12.85.22-18.74-10.87-21.15-42.32-21.8-62.37-23.74-55.24-5.33-111.16-9.33-166.59-4.4-18.93 1.68-37.61 5.44-55.48 11.92-10.6 3.84-21.29 8.67-32.6 9.93" stroke="#FF7426" stroke-width="3" stroke-linecap="round"/></svg>