<svg viewBox="0 0 776 70" fill="none" xmlns="http://www.w3.org/2000/svg"><path d="M49.62 19.4a21.35 21.35 0 1 0-15.11 36.47 21.35 21.35 0 0 0 15.11-36.47Zm-15.1-19.4a34.46 34.46 0 0 1 34.5 34.51 34.46 34.46 0 0 1-34.5 34.51 34.44 34.44 0 0 1-24.41-10.1 34.38 34.38 0 0 1-10.11-24.4c0-9.55 3.87-18.16 10.1-24.41a34.38 34.38 0 0 1 24.41-10.11Zm153.81 69.02h-41.41v-69.02h13.8v55.22h27.61v13.8Zm62.32-27.61v-6.9a20.8 20.8 0 0 0-6-14.62 20.19 20.19 0 0 0-14.41-6.1 20.2 20.2 0 0 0-14.42 6.1 20.8 20.8 0 0 0-6 14.62v6.9h40.83Zm-54.43 27.61v-34.5a34.7 34.7 0 0 1 9.99-24.39 33.68 33.68 0 0 1 24.03-10.13c9.36 0 17.87 3.88 24.03 10.13a34.66 34.66 0 0 1 9.98 24.38v34.51h-13.6v-13.8h-40.82v13.8h-13.61Zm76.91-.02v-69h13.68v27.6h20.54a10.35 10.35 0 0 0 10.26-10.35v-17.25h13.7v17.26c0 6.65-2.7 12.68-7.04 17.06l-.19.2.2.18c4.31 4.35 7 10.4 7 17.07v17.25h-13.63v-17.25c0-2.83-1.17-5.41-3.05-7.3a10.18 10.18 0 0 0-7.25-3.05h-20.54v27.6h-13.68v-.03Zm115.68-49.6a21.35 21.35 0 1 0-15.11 36.47 21.35 21.35 0 0 0 15.11-36.47Zm-15.1-19.4c9.52 0 18.15 3.87 24.4 10.1a34.4 34.4 0 0 1 10.1 24.41c0 9.52-3.87 18.16-10.1 24.4a34.38 34.38 0 0 1-24.4 10.11 34.44 34.44 0 0 1-24.41-10.1 34.38 34.38 0 0 1-10.1-24.4 34.4 34.4 0 0 1 10.1-24.41 34.38 34.38 0 0 1 24.4-10.11Zm52.26 52.16a10 10 0 0 0 7.24 3.04h20.54a6.9 6.9 0 0 0 0-13.8h-17.12a20.4 20.4 0 0 1-14.5-6.07 20.74 20.74 0 0 1 0-29.25 20.39 20.39 0 0 1 14.5-6.08h20.54a24.1 24.1 0 0 1 16.92 7.09l-9.67 9.76a10 10 0 0 0-7.24-3.04h-20.53a6.87 6.87 0 0 0-4.83 11.77 6.77 6.77 0 0 0 4.83 2.02h17.1c5.67 0 10.8 2.33 14.5 6.08a20.76 20.76 0 0 1 0 29.27 20.38 20.38 0 0 1-14.5 6.07h-20.52a24.1 24.1 0 0 1-16.92-7.09l9.66-9.75v-.02Zm83.8-38.36v55.22h-13.8v-55.22h-13.8v-13.8h41.4v13.8h-13.8Zm35.48-13.8v34.51c0 5.68 2.33 10.86 6.09 14.62a20.63 20.63 0 0 0 29.25 0 20.63 20.63 0 0 0 6.09-14.62v-34.51h13.8v34.51a34.4 34.4 0 0 1-10.12 24.38 34.41 34.41 0 0 1-48.76 0 34.4 34.4 0 0 1-10.13-24.38v-34.51h13.8-.02Zm97.64 13.81h-20.72v41.41h20.72a20.6 20.6 0 0 0 14.62-6.09 20.63 20.63 0 0 0 0-29.24 20.63 20.63 0 0 0-14.62-6.1m-27.62-13.79h27.62a34.4 34.4 0 0 1 24.38 10.13 34.41 34.41 0 0 1 0 48.76 34.41 34.41 0 0 1-24.38 10.13h-34.51v-69h6.9v-.02Zm83.82 0h-13.8v69.02h13.8v-69.02Zm57.51 19.4a21.35 21.35 0 1 0-15.11 36.47 21.35 21.35 0 0 0 15.11-36.47Zm-15.11-19.4c9.52 0 18.15 3.87 24.4 10.1a34.4 34.4 0 0 1 10.11 24.41c0 9.52-3.87 18.16-10.1 24.4a34.38 34.38 0 0 1-24.41 10.11 34.44 34.44 0 0 1-24.4-10.1 34.38 34.38 0 0 1-10.11-24.4c0-9.55 3.87-18.16 10.1-24.41a34.38 34.38 0 0 1 24.4-10.11Zm-609.55 33.7c4.4 3.76 7.09 8.9 7.09 14.62a20.6 20.6 0 0 1-6.08 14.63 20.65 20.65 0 0 1-14.62 6.07h-41.42v-69.02h39.7c5.7 0 10.88 2.33 14.63 6.07a20.65 20.65 0 0 1 6.07 14.64c0 4.93-2 9.43-5.37 12.99Zm-41.23 7.72v13.8h27.62a6.92 6.92 0 0 0 6.9-6.9c0-1.6-.95-3.18-2.45-4.38a12.68 12.68 0 0 0-7.9-2.52v-.05c-.57.04-1.15.05-1.73.05h-22.44Zm0-27.6v13.8h22.44c3.16 0 5.95-.97 7.9-2.52 1.51-1.22 2.45-2.78 2.45-4.39 0-1.9-.78-3.61-2.03-4.87a6.87 6.87 0 0 0-4.87-2.03h-25.89Z" fill="#050505"/></svg>